M48
;DRILL file {KiCad 4.0.7} date 01/22/20 13:23:23
;FORMAT={2:4/ absolute / inch / suppress leading zeros}
FMAT,2
INCH,TZ
T1C0.016
T2C0.030
T3C0.031
T4C0.035
T5C0.039
T6C0.039
T7C0.043
T8C0.091
%
G90
G05
M72
T1
X40000Y-45000
X41000Y-48500
X41500Y-53000
X42000Y-53250
X43500Y-25750
X43500Y-52500
X45000Y-37000
X45500Y-27250
X45750Y-28250
X47500Y-35250
X47500Y-39250
X48500Y-23750
X48500Y-25000
X50000Y-42000
X50250Y-41750
X50500Y-41500
X50500Y-42250
X50750Y-37500
X51000Y-53000
X52250Y-52500
X57000Y-45000
X57500Y-45000
X58250Y-25750
X59250Y-51250
X59750Y-27250
X60000Y-28250
X61000Y-38000
X61250Y-41500
X61250Y-42000
X61500Y-41750
X61500Y-42250
X62750Y-36250
X62750Y-37000
X63250Y-24500
X63250Y-25000
X64750Y-51250
X64750Y-52000
X65500Y-37750
X66000Y-29250
X66000Y-30250
X66500Y-41750
X66750Y-41250
X67000Y-41750
X67250Y-41250
X69000Y-51750
X69250Y-51250
X72000Y-51500
X72500Y-45000
X72750Y-46000
X73000Y-49000
X73250Y-51500
T2
X72419Y-26161
X72419Y-28839
X73404Y-26161
X73404Y-26988
X73404Y-28012
X73404Y-28839
T3
X38750Y-42250
X38750Y-43750
X38750Y-49750
X39750Y-43750
X39750Y-49750
X40719Y-42250
X40750Y-43750
X40750Y-49750
X40781Y-31750
X40781Y-33250
X40781Y-39750
X41750Y-35500
X41750Y-37421
X41750Y-43750
X41750Y-49750
X42500Y-26500
X42500Y-30500
X42750Y-31750
X42750Y-33250
X42750Y-39750
X42750Y-43750
X42750Y-49750
X43750Y-43750
X43750Y-49750
X44000Y-26750
X44000Y-27750
X44000Y-28750
X44000Y-29750
X44000Y-30750
X44000Y-31750
X44000Y-32750
X44000Y-33750
X44000Y-34750
X44000Y-35750
X44000Y-36750
X44000Y-37750
X44000Y-38750
X44000Y-39750
X44750Y-43750
X44750Y-49750
X45750Y-43750
X45750Y-49750
X46750Y-43750
X46750Y-49750
X47000Y-26750
X47000Y-27750
X47000Y-28750
X47000Y-29750
X47000Y-30750
X47000Y-31750
X47000Y-32750
X47000Y-33750
X47000Y-34750
X47000Y-35750
X47000Y-36750
X47000Y-37750
X47000Y-38750
X47000Y-39750
X47750Y-43750
X47750Y-49750
X48500Y-26750
X48500Y-30750
X48750Y-43750
X48750Y-49750
X49750Y-43750
X49750Y-49750
X50000Y-33750
X50000Y-35719
X50750Y-43750
X50750Y-49750
X51750Y-43750
X51750Y-49750
X52750Y-43750
X52750Y-49750
X53750Y-43750
X53750Y-49750
X54750Y-43750
X54750Y-49750
X55531Y-31750
X55531Y-33250
X55531Y-39750
X55750Y-43750
X55750Y-49750
X56500Y-35500
X56500Y-37421
X56750Y-43750
X56750Y-49750
X57250Y-26500
X57250Y-30500
X57500Y-31750
X57500Y-33250
X57500Y-39750
X57750Y-43750
X57750Y-49750
X58750Y-26750
X58750Y-27750
X58750Y-28750
X58750Y-29750
X58750Y-30750
X58750Y-31750
X58750Y-32750
X58750Y-33750
X58750Y-34750
X58750Y-35750
X58750Y-36750
X58750Y-37750
X58750Y-38750
X58750Y-39750
X61750Y-26750
X61750Y-27750
X61750Y-28750
X61750Y-29750
X61750Y-30750
X61750Y-31750
X61750Y-32750
X61750Y-33750
X61750Y-34750
X61750Y-35750
X61750Y-36750
X61750Y-37750
X61750Y-38750
X61750Y-39750
X63250Y-26750
X63250Y-30750
X64000Y-43750
X64000Y-45719
X64750Y-33750
X64750Y-35719
X65500Y-43750
X65500Y-44750
X65500Y-45750
X65500Y-46750
X65500Y-47750
X65500Y-48750
X65500Y-49750
X66750Y-32750
X66750Y-36750
X66750Y-38500
X66750Y-39750
X67500Y-25500
X67500Y-29500
X68250Y-32750
X68250Y-36750
X68500Y-43750
X68500Y-44750
X68500Y-45750
X68500Y-46750
X68500Y-47750
X68500Y-48750
X68500Y-49750
X69000Y-25500
X69000Y-29500
X69750Y-32750
X69750Y-36750
X69750Y-38500
X69750Y-39750
X70000Y-43750
X70000Y-45719
X71500Y-43750
X71500Y-44750
X71500Y-45750
X71500Y-46750
X71500Y-47750
X71500Y-48750
X71500Y-49750
X71500Y-50750
X74500Y-43750
X74500Y-44750
X74500Y-45750
X74500Y-46750
X74500Y-47750
X74500Y-48750
X74500Y-49750
X74500Y-50750
X76000Y-43750
X76000Y-45719
T4
X40250Y-23500
X40250Y-24500
X55000Y-23500
X55000Y-24500
T6
X38250Y-54000
X39250Y-54000
X40250Y-54000
X41250Y-54000
X42250Y-54000
X43250Y-54000
X44250Y-54000
X45000Y-24750
X45250Y-54000
X46000Y-24750
X46250Y-54000
X47250Y-54000
X48250Y-54000
X49000Y-37750
X49000Y-38750
X49000Y-39750
X49250Y-54000
X50000Y-26750
X50000Y-27750
X50000Y-28750
X50000Y-29750
X50000Y-30750
X50000Y-31750
X50000Y-37750
X50000Y-38750
X50000Y-39750
X50250Y-54000
X51250Y-54000
X52250Y-54000
X53250Y-54000
X54250Y-54000
X55250Y-54000
X56250Y-54000
X57250Y-54000
X58250Y-54000
X59250Y-54000
X59750Y-24750
X60250Y-54000
X60750Y-24750
X61250Y-54000
X62250Y-54000
X63250Y-54000
X63750Y-37750
X63750Y-38750
X63750Y-39750
X64250Y-54000
X64750Y-26750
X64750Y-27750
X64750Y-28750
X64750Y-29750
X64750Y-30750
X64750Y-31750
X64750Y-37750
X64750Y-38750
X64750Y-39750
X65250Y-54000
X66250Y-54000
X67250Y-54000
X68250Y-54000
X69250Y-54000
X70000Y-47750
X70000Y-48750
X70000Y-49750
X70250Y-54000
X71250Y-54000
X72250Y-54000
X73250Y-54000
X74250Y-54000
X75250Y-54000
X76250Y-54000
T7
X39228Y-26750
X39228Y-29309
X41000Y-26750
X41000Y-29309
X53978Y-26750
X53978Y-29309
X55750Y-26750
X55750Y-29309
T8
X74585Y-24843
X74585Y-30157
X74900Y-27500
T5
X72764Y-32750G85X73236Y-32750
G05
X72764Y-35750G85X73236Y-35750
G05
X72764Y-37500G85X73236Y-37500
G05
X72764Y-40500G85X73236Y-40500
G05
X74000Y-34487G85X74000Y-34014
G05
X74000Y-39237G85X74000Y-38764
G05
T0
M30
