G04 #@! TF.FileFunction,Soldermask,Top*
%FSLAX46Y46*%
G04 Gerber Fmt 4.6, Leading zero omitted, Abs format (unit mm)*
G04 Created by KiCad (PCBNEW 4.0.7) date 01/22/20 13:23:21*
%MOMM*%
%LPD*%
G01*
G04 APERTURE LIST*
%ADD10C,0.100000*%
%ADD11C,2.000000*%
%ADD12R,2.000000X2.000000*%
%ADD13O,2.000000X2.000000*%
%ADD14R,2.200000X2.200000*%
%ADD15C,2.200000*%
%ADD16R,2.100000X2.100000*%
%ADD17O,2.100000X2.100000*%
%ADD18O,3.597860X2.398980*%
%ADD19O,2.398980X3.597860*%
%ADD20C,3.700000*%
%ADD21C,1.924000*%
%ADD22C,2.400000*%
%ADD23R,2.000000X2.800000*%
%ADD24O,2.000000X2.800000*%
%ADD25R,2.800000X2.000000*%
%ADD26O,2.800000X2.000000*%
%ADD27C,1.900000*%
G04 APERTURE END LIST*
D10*
D11*
X98425000Y-107315000D03*
X103425000Y-107315000D03*
X193040000Y-111125000D03*
X193040000Y-116125000D03*
X177800000Y-111125000D03*
X177800000Y-116125000D03*
X164465000Y-85725000D03*
X164465000Y-90725000D03*
X127000000Y-85725000D03*
X127000000Y-90725000D03*
X146050000Y-84455000D03*
X141050000Y-84455000D03*
X146050000Y-80645000D03*
X141050000Y-80645000D03*
X108585000Y-80645000D03*
X103585000Y-80645000D03*
X162560000Y-111125000D03*
X162560000Y-116125000D03*
X146050000Y-100965000D03*
X141050000Y-100965000D03*
X108585000Y-84455000D03*
X103585000Y-84455000D03*
X108585000Y-100965000D03*
X103585000Y-100965000D03*
D12*
X177165000Y-97790000D03*
D13*
X169545000Y-97790000D03*
D12*
X177165000Y-100965000D03*
D13*
X169545000Y-100965000D03*
D14*
X102235000Y-62230000D03*
D15*
X102235000Y-59690000D03*
D14*
X139700000Y-62230000D03*
D15*
X139700000Y-59690000D03*
D16*
X193675000Y-137160000D03*
D17*
X191135000Y-137160000D03*
X188595000Y-137160000D03*
X186055000Y-137160000D03*
X183515000Y-137160000D03*
X180975000Y-137160000D03*
X178435000Y-137160000D03*
X175895000Y-137160000D03*
X173355000Y-137160000D03*
X170815000Y-137160000D03*
X168275000Y-137160000D03*
X165735000Y-137160000D03*
X163195000Y-137160000D03*
X160655000Y-137160000D03*
X158115000Y-137160000D03*
X155575000Y-137160000D03*
X153035000Y-137160000D03*
X150495000Y-137160000D03*
X147955000Y-137160000D03*
X145415000Y-137160000D03*
X142875000Y-137160000D03*
X140335000Y-137160000D03*
X137795000Y-137160000D03*
X135255000Y-137160000D03*
X132715000Y-137160000D03*
X130175000Y-137160000D03*
X127635000Y-137160000D03*
X125095000Y-137160000D03*
X122555000Y-137160000D03*
X120015000Y-137160000D03*
X117475000Y-137160000D03*
X114935000Y-137160000D03*
X112395000Y-137160000D03*
X109855000Y-137160000D03*
X107315000Y-137160000D03*
X104775000Y-137160000D03*
X102235000Y-137160000D03*
X99695000Y-137160000D03*
X97155000Y-137160000D03*
D16*
X161925000Y-95885000D03*
D17*
X164465000Y-95885000D03*
X161925000Y-98425000D03*
X164465000Y-98425000D03*
X161925000Y-100965000D03*
X164465000Y-100965000D03*
D16*
X124460000Y-95885000D03*
D17*
X127000000Y-95885000D03*
X124460000Y-98425000D03*
X127000000Y-98425000D03*
X124460000Y-100965000D03*
X127000000Y-100965000D03*
D18*
X185420000Y-95250000D03*
D19*
X187960000Y-99060000D03*
D18*
X185420000Y-102870000D03*
X185420000Y-83185000D03*
D19*
X187960000Y-86995000D03*
D18*
X185420000Y-90805000D03*
D20*
X189445000Y-63100000D03*
X189445000Y-76600000D03*
D21*
X186445000Y-73250000D03*
X183945000Y-73250000D03*
X186445000Y-66450000D03*
X183945000Y-66450000D03*
X186445000Y-71150000D03*
X186445000Y-68550000D03*
D20*
X190245000Y-69850000D03*
D16*
X154305000Y-62865000D03*
D17*
X151765000Y-62865000D03*
D16*
X116840000Y-62865000D03*
D17*
X114300000Y-62865000D03*
D11*
X145415000Y-67310000D03*
D13*
X145415000Y-77470000D03*
D11*
X107950000Y-67310000D03*
D13*
X107950000Y-77470000D03*
D11*
X177165000Y-83185000D03*
D13*
X177165000Y-93345000D03*
D11*
X169545000Y-83185000D03*
D13*
X169545000Y-93345000D03*
D11*
X173355000Y-83185000D03*
D13*
X173355000Y-93345000D03*
D11*
X123190000Y-67945000D03*
D13*
X123190000Y-78105000D03*
D11*
X160655000Y-67945000D03*
D13*
X160655000Y-78105000D03*
D11*
X171450000Y-64770000D03*
D13*
X171450000Y-74930000D03*
D11*
X175260000Y-64770000D03*
D13*
X175260000Y-74930000D03*
D22*
X137105000Y-67945000D03*
X141605000Y-67945000D03*
X137105000Y-74445000D03*
X141605000Y-74445000D03*
X99640000Y-67945000D03*
X104140000Y-67945000D03*
X99640000Y-74445000D03*
X104140000Y-74445000D03*
D23*
X146685000Y-111125000D03*
D24*
X98425000Y-126365000D03*
X144145000Y-111125000D03*
X100965000Y-126365000D03*
X141605000Y-111125000D03*
X103505000Y-126365000D03*
X139065000Y-111125000D03*
X106045000Y-126365000D03*
X136525000Y-111125000D03*
X108585000Y-126365000D03*
X133985000Y-111125000D03*
X111125000Y-126365000D03*
X131445000Y-111125000D03*
X113665000Y-126365000D03*
X128905000Y-111125000D03*
X116205000Y-126365000D03*
X126365000Y-111125000D03*
X118745000Y-126365000D03*
X123825000Y-111125000D03*
X121285000Y-126365000D03*
X121285000Y-111125000D03*
X123825000Y-126365000D03*
X118745000Y-111125000D03*
X126365000Y-126365000D03*
X116205000Y-111125000D03*
X128905000Y-126365000D03*
X113665000Y-111125000D03*
X131445000Y-126365000D03*
X111125000Y-111125000D03*
X133985000Y-126365000D03*
X108585000Y-111125000D03*
X136525000Y-126365000D03*
X106045000Y-111125000D03*
X139065000Y-126365000D03*
X103505000Y-111125000D03*
X141605000Y-126365000D03*
X100965000Y-111125000D03*
X144145000Y-126365000D03*
X98425000Y-111125000D03*
X146685000Y-126365000D03*
D25*
X181610000Y-111125000D03*
D26*
X189230000Y-128905000D03*
X181610000Y-113665000D03*
X189230000Y-126365000D03*
X181610000Y-116205000D03*
X189230000Y-123825000D03*
X181610000Y-118745000D03*
X189230000Y-121285000D03*
X181610000Y-121285000D03*
X189230000Y-118745000D03*
X181610000Y-123825000D03*
X189230000Y-116205000D03*
X181610000Y-126365000D03*
X189230000Y-113665000D03*
X181610000Y-128905000D03*
X189230000Y-111125000D03*
D25*
X166370000Y-111125000D03*
D26*
X173990000Y-126365000D03*
X166370000Y-113665000D03*
X173990000Y-123825000D03*
X166370000Y-116205000D03*
X173990000Y-121285000D03*
X166370000Y-118745000D03*
X173990000Y-118745000D03*
X166370000Y-121285000D03*
X173990000Y-116205000D03*
X166370000Y-123825000D03*
X173990000Y-113665000D03*
X166370000Y-126365000D03*
X173990000Y-111125000D03*
D27*
X143510000Y-90170000D03*
X143510000Y-95050000D03*
X106045000Y-90170000D03*
X106045000Y-95050000D03*
D16*
X164465000Y-80645000D03*
D17*
X164465000Y-78105000D03*
X164465000Y-75565000D03*
X164465000Y-73025000D03*
X164465000Y-70485000D03*
X164465000Y-67945000D03*
D16*
X127000000Y-80645000D03*
D17*
X127000000Y-78105000D03*
X127000000Y-75565000D03*
X127000000Y-73025000D03*
X127000000Y-70485000D03*
X127000000Y-67945000D03*
D12*
X149225000Y-67945000D03*
D13*
X156845000Y-100965000D03*
X149225000Y-70485000D03*
X156845000Y-98425000D03*
X149225000Y-73025000D03*
X156845000Y-95885000D03*
X149225000Y-75565000D03*
X156845000Y-93345000D03*
X149225000Y-78105000D03*
X156845000Y-90805000D03*
X149225000Y-80645000D03*
X156845000Y-88265000D03*
X149225000Y-83185000D03*
X156845000Y-85725000D03*
X149225000Y-85725000D03*
X156845000Y-83185000D03*
X149225000Y-88265000D03*
X156845000Y-80645000D03*
X149225000Y-90805000D03*
X156845000Y-78105000D03*
X149225000Y-93345000D03*
X156845000Y-75565000D03*
X149225000Y-95885000D03*
X156845000Y-73025000D03*
X149225000Y-98425000D03*
X156845000Y-70485000D03*
X149225000Y-100965000D03*
X156845000Y-67945000D03*
D12*
X111760000Y-67945000D03*
D13*
X119380000Y-100965000D03*
X111760000Y-70485000D03*
X119380000Y-98425000D03*
X111760000Y-73025000D03*
X119380000Y-95885000D03*
X111760000Y-75565000D03*
X119380000Y-93345000D03*
X111760000Y-78105000D03*
X119380000Y-90805000D03*
X111760000Y-80645000D03*
X119380000Y-88265000D03*
X111760000Y-83185000D03*
X119380000Y-85725000D03*
X111760000Y-85725000D03*
X119380000Y-83185000D03*
X111760000Y-88265000D03*
X119380000Y-80645000D03*
X111760000Y-90805000D03*
X119380000Y-78105000D03*
X111760000Y-93345000D03*
X119380000Y-75565000D03*
X111760000Y-95885000D03*
X119380000Y-73025000D03*
X111760000Y-98425000D03*
X119380000Y-70485000D03*
X111760000Y-100965000D03*
X119380000Y-67945000D03*
D16*
X177800000Y-121285000D03*
D17*
X177800000Y-123825000D03*
X177800000Y-126365000D03*
M02*
