M48
;DRILL file {KiCad 4.0.7} date 12/28/18 17:53:22
;FORMAT={2:4/ absolute / inch / suppress leading zeros}
FMAT,2
INCH,TZ
T1C0.016
T2C0.031
T3C0.039
T4C0.047
%
G90
G05
M72
T1
X33250Y-48750
X33500Y-48500
X33500Y-53000
X33750Y-50000
X33750Y-53750
X34000Y-51000
X34750Y-54500
X35000Y-54250
X35250Y-52500
X35500Y-51500
X35750Y-50500
X36000Y-52250
X36250Y-44500
X36500Y-48250
X36500Y-48750
X36500Y-49750
X36500Y-50250
X36500Y-50750
X36500Y-51250
X36500Y-51750
X36500Y-53750
X36750Y-44000
X36750Y-54000
X37000Y-54250
X40469Y-38750
X40500Y-45750
X42250Y-46000
X43750Y-54250
X44250Y-42000
X44750Y-42000
X49750Y-54250
X50000Y-54500
X51250Y-48250
X51250Y-51250
X52750Y-54250
X53000Y-54500
X56250Y-54250
X57500Y-54250
X63250Y-45500
X64250Y-45500
T2
X31750Y-36250
X31750Y-42250
X31750Y-46250
X31750Y-47250
X31750Y-48250
X31750Y-49250
X31750Y-50250
X31750Y-51250
X31750Y-52250
X31750Y-53250
X32250Y-44750
X34219Y-44750
X34750Y-36250
X34750Y-42250
X34750Y-46250
X34750Y-47250
X34750Y-48250
X34750Y-49250
X34750Y-50250
X34750Y-51250
X34750Y-52250
X34750Y-53250
X36600Y-38231
X36600Y-40200
X38000Y-37250
X38000Y-38250
X38000Y-39250
X38000Y-40250
X38000Y-44250
X38000Y-45250
X38000Y-46250
X38000Y-47250
X38000Y-48250
X38000Y-49250
X38000Y-50250
X38000Y-51250
X38000Y-52250
X38000Y-53250
X38500Y-35750
X38500Y-42750
X40469Y-35750
X40469Y-42750
X41000Y-37250
X41000Y-38250
X41000Y-39250
X41000Y-40250
X41000Y-44250
X41000Y-45250
X41000Y-46250
X41000Y-47250
X41000Y-48250
X41000Y-49250
X41000Y-50250
X41000Y-51250
X41000Y-52250
X41000Y-53250
X42500Y-44250
X42500Y-48250
X43000Y-37750
X43000Y-38750
X43000Y-39750
X44800Y-44200
X44800Y-47000
X45250Y-37750
X45250Y-38750
X45250Y-39750
X45784Y-44200
X46769Y-47000
X48200Y-47000
X48500Y-44250
X49484Y-44250
X50169Y-47000
X52750Y-41250
X52781Y-43000
X53000Y-46250
X53000Y-47250
X53000Y-48250
X53000Y-49250
X53000Y-50250
X53000Y-51250
X53000Y-52250
X53000Y-53250
X53500Y-44750
X54750Y-43000
X55469Y-44750
X56000Y-43000
X56000Y-46250
X56000Y-47250
X56000Y-48250
X56000Y-49250
X56000Y-50250
X56000Y-51250
X56000Y-52250
X56000Y-53250
X56750Y-41250
X58000Y-41250
X58984Y-41250
X60000Y-43000
X61250Y-46250
X61250Y-47250
X61250Y-48250
X61250Y-49250
X61250Y-50250
X61250Y-51250
X61250Y-52250
X61250Y-53250
X61750Y-44750
X62250Y-41254
X62250Y-42750
X63719Y-44750
X64250Y-46250
X64250Y-47250
X64250Y-48250
X64250Y-49250
X64250Y-50250
X64250Y-51250
X64250Y-52250
X64250Y-53250
T3
X30500Y-55750
X31500Y-55750
X32500Y-55750
X33500Y-55750
X34500Y-55750
X35500Y-55750
X36500Y-46250
X36500Y-47250
X36500Y-55750
X37500Y-55750
X38500Y-55750
X39500Y-55750
X40500Y-55750
X41500Y-55750
X42500Y-55750
X43500Y-55750
X44500Y-55750
X44750Y-35750
X45500Y-55750
X45750Y-35750
X46500Y-55750
X47500Y-55750
X47884Y-36884
X48500Y-55750
X49500Y-55750
X50000Y-39000
X50500Y-55750
X51500Y-55750
X52500Y-55750
X53500Y-55750
X54500Y-55750
X55500Y-55750
X56500Y-55750
X57500Y-55750
X57750Y-46250
X57750Y-47250
X57750Y-48250
X57750Y-49250
X57750Y-50250
X57750Y-51250
X57750Y-52250
X57750Y-53250
X58500Y-55750
X58750Y-46250
X58750Y-47250
X58750Y-48250
X58750Y-49250
X58750Y-50250
X58750Y-51250
X58750Y-52250
X58750Y-53250
X59500Y-55750
X60500Y-55750
X61500Y-55750
X62500Y-55750
X63500Y-55750
X64500Y-55750
X65500Y-55750
X66000Y-46250
X66000Y-47250
X66000Y-48250
X66000Y-49250
X66000Y-50250
X66000Y-51250
X66000Y-52250
X66000Y-53250
X66500Y-55750
X67000Y-46250
X67000Y-47250
X67000Y-48250
X67000Y-49250
X67000Y-50250
X67000Y-51250
X67000Y-52250
X67000Y-53250
X67500Y-55750
X68500Y-46250
X68500Y-47250
X68500Y-55750
T4
X65657Y-40531
X65657Y-41516
X65657Y-43484
X65657Y-44469
X67628Y-42500
T0
M30
