G04 #@! TF.FileFunction,Soldermask,Top*
%FSLAX46Y46*%
G04 Gerber Fmt 4.6, Leading zero omitted, Abs format (unit mm)*
G04 Created by KiCad (PCBNEW 4.0.7) date 06/26/19 17:32:02*
%MOMM*%
%LPD*%
G01*
G04 APERTURE LIST*
%ADD10C,0.100000*%
%ADD11R,2.000000X2.000000*%
%ADD12O,2.000000X2.000000*%
%ADD13C,2.000000*%
%ADD14R,2.100000X2.100000*%
%ADD15O,2.100000X2.100000*%
%ADD16C,2.400000*%
%ADD17R,2.900000X3.900000*%
%ADD18O,3.900000X2.150000*%
G04 APERTURE END LIST*
D10*
D11*
X100965000Y-94615000D03*
D12*
X108585000Y-102235000D03*
X100965000Y-97155000D03*
X108585000Y-99695000D03*
X100965000Y-99695000D03*
X108585000Y-97155000D03*
X100965000Y-102235000D03*
X108585000Y-94615000D03*
D13*
X107315000Y-90805000D03*
X102315000Y-90805000D03*
X116840000Y-102235000D03*
X111840000Y-102235000D03*
D11*
X158115000Y-108585000D03*
D13*
X158115000Y-104785000D03*
D14*
X146685000Y-117475000D03*
D15*
X149225000Y-117475000D03*
X146685000Y-120015000D03*
X149225000Y-120015000D03*
X146685000Y-122555000D03*
X149225000Y-122555000D03*
X146685000Y-125095000D03*
X149225000Y-125095000D03*
X146685000Y-127635000D03*
X149225000Y-127635000D03*
X146685000Y-130175000D03*
X149225000Y-130175000D03*
X146685000Y-132715000D03*
X149225000Y-132715000D03*
X146685000Y-135255000D03*
X149225000Y-135255000D03*
D14*
X167640000Y-117475000D03*
D15*
X170180000Y-117475000D03*
X167640000Y-120015000D03*
X170180000Y-120015000D03*
X167640000Y-122555000D03*
X170180000Y-122555000D03*
X167640000Y-125095000D03*
X170180000Y-125095000D03*
X167640000Y-127635000D03*
X170180000Y-127635000D03*
X167640000Y-130175000D03*
X170180000Y-130175000D03*
X167640000Y-132715000D03*
X170180000Y-132715000D03*
X167640000Y-135255000D03*
X170180000Y-135255000D03*
D14*
X173990000Y-141605000D03*
D15*
X171450000Y-141605000D03*
X168910000Y-141605000D03*
X166370000Y-141605000D03*
X163830000Y-141605000D03*
X161290000Y-141605000D03*
X158750000Y-141605000D03*
X156210000Y-141605000D03*
X153670000Y-141605000D03*
X151130000Y-141605000D03*
X148590000Y-141605000D03*
X146050000Y-141605000D03*
X143510000Y-141605000D03*
X140970000Y-141605000D03*
X138430000Y-141605000D03*
X135890000Y-141605000D03*
X133350000Y-141605000D03*
X130810000Y-141605000D03*
X128270000Y-141605000D03*
X125730000Y-141605000D03*
X123190000Y-141605000D03*
X120650000Y-141605000D03*
X118110000Y-141605000D03*
X115570000Y-141605000D03*
X113030000Y-141605000D03*
X110490000Y-141605000D03*
X107950000Y-141605000D03*
X105410000Y-141605000D03*
X102870000Y-141605000D03*
X100330000Y-141605000D03*
X97790000Y-141605000D03*
X95250000Y-141605000D03*
X92710000Y-141605000D03*
X90170000Y-141605000D03*
X87630000Y-141605000D03*
X85090000Y-141605000D03*
X82550000Y-141605000D03*
X80010000Y-141605000D03*
X77470000Y-141605000D03*
D14*
X113030000Y-90805000D03*
D15*
X115570000Y-90805000D03*
D10*
G36*
X129967056Y-100330000D02*
X128270000Y-102027056D01*
X126572944Y-100330000D01*
X128270000Y-98632944D01*
X129967056Y-100330000D01*
X129967056Y-100330000D01*
G37*
D16*
X122895988Y-94955988D03*
D13*
X88265000Y-138430000D03*
D12*
X78105000Y-138430000D03*
D11*
X79375000Y-117475000D03*
D12*
X86995000Y-135255000D03*
X79375000Y-120015000D03*
X86995000Y-132715000D03*
X79375000Y-122555000D03*
X86995000Y-130175000D03*
X79375000Y-125095000D03*
X86995000Y-127635000D03*
X79375000Y-127635000D03*
X86995000Y-125095000D03*
X79375000Y-130175000D03*
X86995000Y-122555000D03*
X79375000Y-132715000D03*
X86995000Y-120015000D03*
X79375000Y-135255000D03*
X86995000Y-117475000D03*
D11*
X86995000Y-106680000D03*
D13*
X79375000Y-106680000D03*
X79375000Y-91440000D03*
X86995000Y-91440000D03*
D17*
X171776000Y-107950000D03*
D18*
X166770000Y-112950000D03*
X166770000Y-102950000D03*
X166770000Y-110450000D03*
X166770000Y-105450000D03*
D13*
X118745000Y-108585000D03*
X123745000Y-108585000D03*
X135890000Y-113665000D03*
X140890000Y-113665000D03*
X156845000Y-113665000D03*
X161845000Y-113665000D03*
X80645000Y-113665000D03*
X85645000Y-113665000D03*
X93345000Y-108585000D03*
X98345000Y-108585000D03*
D14*
X93980000Y-90805000D03*
D15*
X96520000Y-90805000D03*
D14*
X173990000Y-117475000D03*
D15*
X173990000Y-120015000D03*
D11*
X96520000Y-97155000D03*
D13*
X94020000Y-97155000D03*
D11*
X113030000Y-97155000D03*
D13*
X115530000Y-97155000D03*
X106045000Y-108585000D03*
X111045000Y-108585000D03*
D11*
X117475000Y-112395000D03*
D12*
X125095000Y-135255000D03*
X117475000Y-114935000D03*
X125095000Y-132715000D03*
X117475000Y-117475000D03*
X125095000Y-130175000D03*
X117475000Y-120015000D03*
X125095000Y-127635000D03*
X117475000Y-122555000D03*
X125095000Y-125095000D03*
X117475000Y-125095000D03*
X125095000Y-122555000D03*
X117475000Y-127635000D03*
X125095000Y-120015000D03*
X117475000Y-130175000D03*
X125095000Y-117475000D03*
X117475000Y-132715000D03*
X125095000Y-114935000D03*
X117475000Y-135255000D03*
X125095000Y-112395000D03*
D11*
X134620000Y-117475000D03*
D12*
X142240000Y-135255000D03*
X134620000Y-120015000D03*
X142240000Y-132715000D03*
X134620000Y-122555000D03*
X142240000Y-130175000D03*
X134620000Y-125095000D03*
X142240000Y-127635000D03*
X134620000Y-127635000D03*
X142240000Y-125095000D03*
X134620000Y-130175000D03*
X142240000Y-122555000D03*
X134620000Y-132715000D03*
X142240000Y-120015000D03*
X134620000Y-135255000D03*
X142240000Y-117475000D03*
D11*
X155575000Y-117475000D03*
D12*
X163195000Y-135255000D03*
X155575000Y-120015000D03*
X163195000Y-132715000D03*
X155575000Y-122555000D03*
X163195000Y-130175000D03*
X155575000Y-125095000D03*
X163195000Y-127635000D03*
X155575000Y-127635000D03*
X163195000Y-125095000D03*
X155575000Y-130175000D03*
X163195000Y-122555000D03*
X155575000Y-132715000D03*
X163195000Y-120015000D03*
X155575000Y-135255000D03*
X163195000Y-117475000D03*
D11*
X92075000Y-112395000D03*
D12*
X99695000Y-135255000D03*
X92075000Y-114935000D03*
X99695000Y-132715000D03*
X92075000Y-117475000D03*
X99695000Y-130175000D03*
X92075000Y-120015000D03*
X99695000Y-127635000D03*
X92075000Y-122555000D03*
X99695000Y-125095000D03*
X92075000Y-125095000D03*
X99695000Y-122555000D03*
X92075000Y-127635000D03*
X99695000Y-120015000D03*
X92075000Y-130175000D03*
X99695000Y-117475000D03*
X92075000Y-132715000D03*
X99695000Y-114935000D03*
X92075000Y-135255000D03*
X99695000Y-112395000D03*
D11*
X104775000Y-112395000D03*
D12*
X112395000Y-135255000D03*
X104775000Y-114935000D03*
X112395000Y-132715000D03*
X104775000Y-117475000D03*
X112395000Y-130175000D03*
X104775000Y-120015000D03*
X112395000Y-127635000D03*
X104775000Y-122555000D03*
X112395000Y-125095000D03*
X104775000Y-125095000D03*
X112395000Y-122555000D03*
X104775000Y-127635000D03*
X112395000Y-120015000D03*
X104775000Y-130175000D03*
X112395000Y-117475000D03*
X104775000Y-132715000D03*
X112395000Y-114935000D03*
X104775000Y-135255000D03*
X112395000Y-112395000D03*
M02*
