G04 #@! TF.FileFunction,Copper,L1,Top,Signal*
%FSLAX46Y46*%
G04 Gerber Fmt 4.6, Leading zero omitted, Abs format (unit mm)*
G04 Created by KiCad (PCBNEW 4.0.7) date 02/14/19 14:39:51*
%MOMM*%
%LPD*%
G01*
G04 APERTURE LIST*
%ADD10C,0.100000*%
%ADD11C,1.600000*%
%ADD12R,1.600000X1.600000*%
%ADD13R,1.700000X1.700000*%
%ADD14O,1.700000X1.700000*%
%ADD15C,2.000000*%
%ADD16O,1.600000X1.600000*%
%ADD17C,1.440000*%
%ADD18R,2.500000X3.500000*%
%ADD19O,3.500000X1.750000*%
%ADD20C,0.600000*%
%ADD21C,0.250000*%
G04 APERTURE END LIST*
D10*
D11*
X113792000Y-119380000D03*
X118792000Y-119380000D03*
X92964000Y-102108000D03*
X92964000Y-97108000D03*
X122428000Y-119380000D03*
X127428000Y-119380000D03*
X139065000Y-109220000D03*
X134065000Y-109220000D03*
D12*
X158115000Y-108585000D03*
D11*
X158115000Y-104785000D03*
D13*
X146685000Y-117475000D03*
D14*
X149225000Y-117475000D03*
X146685000Y-120015000D03*
X149225000Y-120015000D03*
X146685000Y-122555000D03*
X149225000Y-122555000D03*
X146685000Y-125095000D03*
X149225000Y-125095000D03*
X146685000Y-127635000D03*
X149225000Y-127635000D03*
X146685000Y-130175000D03*
X149225000Y-130175000D03*
X146685000Y-132715000D03*
X149225000Y-132715000D03*
X146685000Y-135255000D03*
X149225000Y-135255000D03*
D13*
X167640000Y-117475000D03*
D14*
X170180000Y-117475000D03*
X167640000Y-120015000D03*
X170180000Y-120015000D03*
X167640000Y-122555000D03*
X170180000Y-122555000D03*
X167640000Y-125095000D03*
X170180000Y-125095000D03*
X167640000Y-127635000D03*
X170180000Y-127635000D03*
X167640000Y-130175000D03*
X170180000Y-130175000D03*
X167640000Y-132715000D03*
X170180000Y-132715000D03*
X167640000Y-135255000D03*
X170180000Y-135255000D03*
D13*
X173990000Y-141605000D03*
D14*
X171450000Y-141605000D03*
X168910000Y-141605000D03*
X166370000Y-141605000D03*
X163830000Y-141605000D03*
X161290000Y-141605000D03*
X158750000Y-141605000D03*
X156210000Y-141605000D03*
X153670000Y-141605000D03*
X151130000Y-141605000D03*
X148590000Y-141605000D03*
X146050000Y-141605000D03*
X143510000Y-141605000D03*
X140970000Y-141605000D03*
X138430000Y-141605000D03*
X135890000Y-141605000D03*
X133350000Y-141605000D03*
X130810000Y-141605000D03*
X128270000Y-141605000D03*
X125730000Y-141605000D03*
X123190000Y-141605000D03*
X120650000Y-141605000D03*
X118110000Y-141605000D03*
X115570000Y-141605000D03*
X113030000Y-141605000D03*
X110490000Y-141605000D03*
X107950000Y-141605000D03*
X105410000Y-141605000D03*
X102870000Y-141605000D03*
X100330000Y-141605000D03*
X97790000Y-141605000D03*
X95250000Y-141605000D03*
X92710000Y-141605000D03*
X90170000Y-141605000D03*
X87630000Y-141605000D03*
X85090000Y-141605000D03*
X82550000Y-141605000D03*
X80010000Y-141605000D03*
X77470000Y-141605000D03*
D13*
X113665000Y-90805000D03*
D14*
X116205000Y-90805000D03*
D10*
G36*
X128414214Y-99060000D02*
X127000000Y-100474214D01*
X125585786Y-99060000D01*
X127000000Y-97645786D01*
X128414214Y-99060000D01*
X128414214Y-99060000D01*
G37*
D15*
X121625988Y-93685988D03*
D11*
X133985000Y-104775000D03*
D16*
X144145000Y-104775000D03*
D11*
X107950000Y-112395000D03*
D16*
X107950000Y-122555000D03*
D11*
X142240000Y-109220000D03*
D16*
X152400000Y-109220000D03*
D17*
X114935000Y-95885000D03*
X114935000Y-98425000D03*
X114935000Y-100965000D03*
X109220000Y-95885000D03*
X109220000Y-98425000D03*
X109220000Y-100965000D03*
D12*
X96520000Y-94615000D03*
D16*
X104140000Y-102235000D03*
X96520000Y-97155000D03*
X104140000Y-99695000D03*
X96520000Y-99695000D03*
X104140000Y-97155000D03*
X96520000Y-102235000D03*
X104140000Y-94615000D03*
D12*
X96520000Y-112395000D03*
D16*
X104140000Y-135255000D03*
X96520000Y-114935000D03*
X104140000Y-132715000D03*
X96520000Y-117475000D03*
X104140000Y-130175000D03*
X96520000Y-120015000D03*
X104140000Y-127635000D03*
X96520000Y-122555000D03*
X104140000Y-125095000D03*
X96520000Y-125095000D03*
X104140000Y-122555000D03*
X96520000Y-127635000D03*
X104140000Y-120015000D03*
X96520000Y-130175000D03*
X104140000Y-117475000D03*
X96520000Y-132715000D03*
X104140000Y-114935000D03*
X96520000Y-135255000D03*
X104140000Y-112395000D03*
D12*
X134620000Y-117475000D03*
D16*
X142240000Y-135255000D03*
X134620000Y-120015000D03*
X142240000Y-132715000D03*
X134620000Y-122555000D03*
X142240000Y-130175000D03*
X134620000Y-125095000D03*
X142240000Y-127635000D03*
X134620000Y-127635000D03*
X142240000Y-125095000D03*
X134620000Y-130175000D03*
X142240000Y-122555000D03*
X134620000Y-132715000D03*
X142240000Y-120015000D03*
X134620000Y-135255000D03*
X142240000Y-117475000D03*
D12*
X155575000Y-117475000D03*
D16*
X163195000Y-135255000D03*
X155575000Y-120015000D03*
X163195000Y-132715000D03*
X155575000Y-122555000D03*
X163195000Y-130175000D03*
X155575000Y-125095000D03*
X163195000Y-127635000D03*
X155575000Y-127635000D03*
X163195000Y-125095000D03*
X155575000Y-130175000D03*
X163195000Y-122555000D03*
X155575000Y-132715000D03*
X163195000Y-120015000D03*
X155575000Y-135255000D03*
X163195000Y-117475000D03*
D12*
X80645000Y-117475000D03*
D16*
X88265000Y-135255000D03*
X80645000Y-120015000D03*
X88265000Y-132715000D03*
X80645000Y-122555000D03*
X88265000Y-130175000D03*
X80645000Y-125095000D03*
X88265000Y-127635000D03*
X80645000Y-127635000D03*
X88265000Y-125095000D03*
X80645000Y-130175000D03*
X88265000Y-122555000D03*
X80645000Y-132715000D03*
X88265000Y-120015000D03*
X80645000Y-135255000D03*
X88265000Y-117475000D03*
D12*
X88265000Y-107315000D03*
D11*
X80645000Y-107315000D03*
X80645000Y-92075000D03*
X88265000Y-92075000D03*
D18*
X171776000Y-107950000D03*
D19*
X166770000Y-112950000D03*
X166770000Y-102950000D03*
X166770000Y-110450000D03*
X166770000Y-105450000D03*
D11*
X97790000Y-90805000D03*
X102790000Y-90805000D03*
X81915000Y-113665000D03*
X86915000Y-113665000D03*
X97790000Y-108585000D03*
X102790000Y-108585000D03*
X135890000Y-113665000D03*
X140890000Y-113665000D03*
X156845000Y-113665000D03*
X161845000Y-113665000D03*
D13*
X92710000Y-120015000D03*
D14*
X92710000Y-117475000D03*
D13*
X173990000Y-117475000D03*
D14*
X173990000Y-120015000D03*
D12*
X113792000Y-112268000D03*
D11*
X116292000Y-112268000D03*
D12*
X147320000Y-104775000D03*
D11*
X149820000Y-104775000D03*
D12*
X123190000Y-112395000D03*
D11*
X125690000Y-112395000D03*
D20*
X102790000Y-98425000D03*
X93345000Y-111760000D03*
X92075000Y-113030000D03*
X112395000Y-106680000D03*
X113665000Y-106680000D03*
X146050000Y-137795000D03*
X126365000Y-137795000D03*
X88265000Y-138430000D03*
X111125000Y-137795000D03*
X133985000Y-137795000D03*
X142875000Y-137795000D03*
X134620000Y-138430000D03*
X127000000Y-138430000D03*
X160655000Y-115570000D03*
X163195000Y-115570000D03*
X130175000Y-130175000D03*
X130175000Y-122555000D03*
X85090000Y-123190000D03*
X92710000Y-122555000D03*
X85090000Y-134620000D03*
X92710000Y-136525000D03*
X85725000Y-127000000D03*
X85725000Y-136525000D03*
X93345000Y-137160000D03*
X86360000Y-129540000D03*
X92710000Y-127635000D03*
X88900000Y-137795000D03*
X93980000Y-137795000D03*
X91440000Y-132715000D03*
X92710000Y-131445000D03*
X92710000Y-126365000D03*
X90805000Y-128270000D03*
X90170000Y-130810000D03*
X92710000Y-128905000D03*
X92710000Y-130175000D03*
X89535000Y-133350000D03*
X107315000Y-116840000D03*
X102870000Y-116205000D03*
X92710000Y-123825000D03*
X84455000Y-123825000D03*
D21*
X127428000Y-119380000D02*
X127428000Y-114133000D01*
X127428000Y-114133000D02*
X125690000Y-112395000D01*
X92964000Y-102108000D02*
X94996000Y-102108000D01*
X94996000Y-102108000D02*
X96393000Y-102108000D01*
X96393000Y-102108000D02*
X96520000Y-102235000D01*
X123190000Y-112395000D02*
X123190000Y-109220000D01*
X123190000Y-109220000D02*
X123825000Y-108585000D01*
X122428000Y-119380000D02*
X122555000Y-119380000D01*
X122555000Y-119380000D02*
X123190000Y-118745000D01*
X123190000Y-118745000D02*
X123190000Y-112395000D01*
X118792000Y-119380000D02*
X122428000Y-119380000D01*
X107950000Y-112395000D02*
X104140000Y-112395000D01*
X86915000Y-113665000D02*
X91440000Y-113665000D01*
X101520000Y-109855000D02*
X102790000Y-108585000D01*
X95250000Y-109855000D02*
X101520000Y-109855000D01*
X93345000Y-111760000D02*
X95250000Y-109855000D01*
X91440000Y-113665000D02*
X92075000Y-113030000D01*
X130810000Y-111760000D02*
X130810000Y-109220000D01*
X130810000Y-109220000D02*
X130175000Y-108585000D01*
X130175000Y-108585000D02*
X123825000Y-108585000D01*
X123825000Y-108585000D02*
X102790000Y-108585000D01*
X102790000Y-98425000D02*
X102790000Y-108585000D01*
X80645000Y-107315000D02*
X80645000Y-110490000D01*
X85725000Y-111760000D02*
X86915000Y-112950000D01*
X81915000Y-111760000D02*
X85725000Y-111760000D01*
X80645000Y-110490000D02*
X81915000Y-111760000D01*
X86915000Y-112950000D02*
X86915000Y-113665000D01*
X140890000Y-113665000D02*
X140890000Y-113585000D01*
X140890000Y-113585000D02*
X138430000Y-111125000D01*
X130810000Y-141605000D02*
X130810000Y-111760000D01*
X159305000Y-111125000D02*
X161845000Y-113665000D01*
X131445000Y-111125000D02*
X138430000Y-111125000D01*
X138430000Y-111125000D02*
X159305000Y-111125000D01*
X130810000Y-111760000D02*
X131445000Y-111125000D01*
X102790000Y-98425000D02*
X102790000Y-98345000D01*
X102790000Y-98345000D02*
X104140000Y-99695000D01*
X86915000Y-113665000D02*
X86915000Y-113585000D01*
X86915000Y-113665000D02*
X86915000Y-116125000D01*
X86915000Y-116125000D02*
X88265000Y-117475000D01*
X102790000Y-108585000D02*
X102790000Y-111045000D01*
X102790000Y-111045000D02*
X104140000Y-112395000D01*
X140890000Y-113665000D02*
X140890000Y-116125000D01*
X140890000Y-116125000D02*
X142240000Y-117475000D01*
X161845000Y-113665000D02*
X161845000Y-116125000D01*
X161845000Y-116125000D02*
X163195000Y-117475000D01*
X112395000Y-106680000D02*
X112395000Y-104140000D01*
X112395000Y-104140000D02*
X109220000Y-100965000D01*
X105410000Y-94615000D02*
X107315000Y-96520000D01*
X104140000Y-94615000D02*
X105410000Y-94615000D01*
X107315000Y-98425000D02*
X107315000Y-96520000D01*
X108585000Y-99695000D02*
X107315000Y-98425000D01*
X113665000Y-106680000D02*
X113665000Y-100965000D01*
X113665000Y-100965000D02*
X112395000Y-99695000D01*
X112395000Y-99695000D02*
X108585000Y-99695000D01*
X144145000Y-104775000D02*
X147320000Y-104775000D01*
X139065000Y-109220000D02*
X142240000Y-109220000D01*
X134065000Y-109220000D02*
X134065000Y-108665000D01*
X134065000Y-108665000D02*
X133350000Y-107950000D01*
X134192000Y-107108000D02*
X133985000Y-107315000D01*
X133985000Y-107315000D02*
X134620000Y-106680000D01*
X104140000Y-106045000D02*
X104140000Y-106680000D01*
X104140000Y-106680000D02*
X105410000Y-107950000D01*
X105410000Y-107950000D02*
X133350000Y-107950000D01*
X133350000Y-107950000D02*
X133985000Y-107315000D01*
X104140000Y-102235000D02*
X104140000Y-106045000D01*
X104140000Y-106045000D02*
X104140000Y-106172000D01*
X134620000Y-106680000D02*
X156210000Y-106680000D01*
X156210000Y-106680000D02*
X158115000Y-108585000D01*
X158115000Y-104785000D02*
X162550000Y-104785000D01*
X162550000Y-104785000D02*
X164385000Y-102950000D01*
X113665000Y-90805000D02*
X113665000Y-92075000D01*
X113665000Y-92075000D02*
X114300000Y-92710000D01*
X114300000Y-92710000D02*
X116840000Y-92710000D01*
X116840000Y-92710000D02*
X127000000Y-102870000D01*
X127000000Y-102870000D02*
X156200000Y-102870000D01*
X156200000Y-102870000D02*
X158115000Y-104785000D01*
X164385000Y-102950000D02*
X166770000Y-102950000D01*
X166770000Y-102950000D02*
X172165000Y-102950000D01*
X173990000Y-104775000D02*
X173990000Y-117475000D01*
X172165000Y-102950000D02*
X173990000Y-104775000D01*
X142240000Y-120015000D02*
X144145000Y-120015000D01*
X144145000Y-120015000D02*
X146685000Y-117475000D01*
X133985000Y-137795000D02*
X142875000Y-137795000D01*
X150495000Y-123825000D02*
X151765000Y-125095000D01*
X151765000Y-125095000D02*
X151765000Y-137160000D01*
X151765000Y-137160000D02*
X151130000Y-137795000D01*
X151130000Y-137795000D02*
X146050000Y-137795000D01*
X126365000Y-137795000D02*
X111125000Y-137795000D01*
X80645000Y-128905000D02*
X83820000Y-128905000D01*
X83820000Y-128905000D02*
X84455000Y-129540000D01*
X84455000Y-129540000D02*
X84455000Y-137795000D01*
X84455000Y-137795000D02*
X85090000Y-138430000D01*
X85090000Y-138430000D02*
X88265000Y-138430000D01*
X150495000Y-123825000D02*
X149225000Y-123825000D01*
X80645000Y-130175000D02*
X80645000Y-128905000D01*
X80645000Y-128905000D02*
X80645000Y-127635000D01*
X149225000Y-120015000D02*
X149225000Y-117475000D01*
X149225000Y-122555000D02*
X149225000Y-120015000D01*
X149225000Y-125095000D02*
X149225000Y-123825000D01*
X149225000Y-123825000D02*
X149225000Y-122555000D01*
X142240000Y-122555000D02*
X144145000Y-122555000D01*
X144145000Y-122555000D02*
X146685000Y-120015000D01*
X142240000Y-125095000D02*
X144145000Y-125095000D01*
X144145000Y-125095000D02*
X146685000Y-122555000D01*
X142240000Y-127635000D02*
X144145000Y-127635000D01*
X144145000Y-127635000D02*
X146685000Y-125095000D01*
X142240000Y-130175000D02*
X144145000Y-130175000D01*
X144145000Y-130175000D02*
X146685000Y-127635000D01*
X107315000Y-135255000D02*
X106680000Y-134620000D01*
X97790000Y-113665000D02*
X96520000Y-112395000D01*
X106680000Y-114300000D02*
X106680000Y-134620000D01*
X106045000Y-113665000D02*
X106680000Y-114300000D01*
X102870000Y-113665000D02*
X106045000Y-113665000D01*
X102870000Y-113665000D02*
X97790000Y-113665000D01*
X108902500Y-136842500D02*
X107315000Y-135255000D01*
X104140000Y-135255000D02*
X106045000Y-135255000D01*
X145415000Y-133985000D02*
X144145000Y-135255000D01*
X144145000Y-135255000D02*
X144145000Y-137795000D01*
X144145000Y-137795000D02*
X143510000Y-138430000D01*
X143510000Y-138430000D02*
X134620000Y-138430000D01*
X127000000Y-138430000D02*
X110490000Y-138430000D01*
X145415000Y-133985000D02*
X149225000Y-133985000D01*
X108902500Y-138112500D02*
X109220000Y-138430000D01*
X109220000Y-138430000D02*
X110490000Y-138430000D01*
X108902500Y-136842500D02*
X108902500Y-138112500D01*
X107315000Y-135255000D02*
X106045000Y-135255000D01*
X149225000Y-130175000D02*
X149225000Y-127635000D01*
X149225000Y-132715000D02*
X149225000Y-130175000D01*
X149225000Y-135255000D02*
X149225000Y-133985000D01*
X149225000Y-133985000D02*
X149225000Y-132715000D01*
X146685000Y-130175000D02*
X145415000Y-130175000D01*
X145415000Y-130175000D02*
X142875000Y-132715000D01*
X142875000Y-132715000D02*
X142240000Y-132715000D01*
X146685000Y-132715000D02*
X145415000Y-132715000D01*
X145415000Y-132715000D02*
X142875000Y-135255000D01*
X142875000Y-135255000D02*
X142240000Y-135255000D01*
X144145000Y-139065000D02*
X145415000Y-137795000D01*
X145415000Y-135890000D02*
X146050000Y-135255000D01*
X145415000Y-137795000D02*
X145415000Y-135890000D01*
X146050000Y-135255000D02*
X146685000Y-135255000D01*
X134620000Y-132715000D02*
X133985000Y-132715000D01*
X133985000Y-132715000D02*
X133350000Y-133350000D01*
X133350000Y-138430000D02*
X133985000Y-139065000D01*
X133350000Y-133350000D02*
X133350000Y-138430000D01*
X133985000Y-139065000D02*
X143510000Y-139065000D01*
X143510000Y-139065000D02*
X144145000Y-139065000D01*
X163195000Y-120015000D02*
X165100000Y-120015000D01*
X165100000Y-120015000D02*
X167640000Y-117475000D01*
X170180000Y-117475000D02*
X170180000Y-116205000D01*
X140335000Y-125095000D02*
X134620000Y-125095000D01*
X140970000Y-124460000D02*
X140335000Y-125095000D01*
X140970000Y-119380000D02*
X140970000Y-124460000D01*
X141605000Y-118745000D02*
X140970000Y-119380000D01*
X143510000Y-118745000D02*
X141605000Y-118745000D01*
X144145000Y-118110000D02*
X143510000Y-118745000D01*
X144145000Y-116205000D02*
X144145000Y-118110000D01*
X144780000Y-115570000D02*
X144145000Y-116205000D01*
X160655000Y-115570000D02*
X144780000Y-115570000D01*
X169545000Y-115570000D02*
X163195000Y-115570000D01*
X170180000Y-116205000D02*
X169545000Y-115570000D01*
X170180000Y-120015000D02*
X170180000Y-117475000D01*
X170180000Y-122555000D02*
X170180000Y-120015000D01*
X170180000Y-125095000D02*
X170180000Y-122555000D01*
X170180000Y-127635000D02*
X170180000Y-125095000D01*
X170180000Y-130175000D02*
X170180000Y-127635000D01*
X170180000Y-132715000D02*
X170180000Y-130175000D01*
X170180000Y-135255000D02*
X170180000Y-132715000D01*
X163195000Y-122555000D02*
X165100000Y-122555000D01*
X165100000Y-122555000D02*
X167640000Y-120015000D01*
X163195000Y-125095000D02*
X165100000Y-125095000D01*
X165100000Y-125095000D02*
X167640000Y-122555000D01*
X163195000Y-127635000D02*
X165100000Y-127635000D01*
X165100000Y-127635000D02*
X167640000Y-125095000D01*
X163195000Y-130175000D02*
X165100000Y-130175000D01*
X165100000Y-130175000D02*
X167640000Y-127635000D01*
X163195000Y-132715000D02*
X165100000Y-132715000D01*
X165100000Y-132715000D02*
X167640000Y-130175000D01*
X163195000Y-135255000D02*
X165100000Y-135255000D01*
X165100000Y-135255000D02*
X167640000Y-132715000D01*
X161925000Y-136525000D02*
X166370000Y-136525000D01*
X155575000Y-132715000D02*
X160020000Y-132715000D01*
X166370000Y-136525000D02*
X167640000Y-135255000D01*
X161290000Y-135890000D02*
X161925000Y-136525000D01*
X161290000Y-133985000D02*
X161290000Y-135890000D01*
X160020000Y-132715000D02*
X161290000Y-133985000D01*
X155575000Y-130175000D02*
X154940000Y-130175000D01*
X154940000Y-130175000D02*
X154305000Y-130810000D01*
X154305000Y-130810000D02*
X154305000Y-136525000D01*
X154305000Y-136525000D02*
X154940000Y-137160000D01*
X154940000Y-137160000D02*
X161925000Y-137160000D01*
X173990000Y-141605000D02*
X173990000Y-137795000D01*
X173355000Y-137160000D02*
X161925000Y-137160000D01*
X173990000Y-137795000D02*
X173355000Y-137160000D01*
X155575000Y-122555000D02*
X154305000Y-122555000D01*
X171450000Y-138430000D02*
X170815000Y-137795000D01*
X170815000Y-137795000D02*
X161290000Y-137795000D01*
X171450000Y-138430000D02*
X171450000Y-141605000D01*
X154305000Y-137795000D02*
X161290000Y-137795000D01*
X153670000Y-137160000D02*
X154305000Y-137795000D01*
X153670000Y-123190000D02*
X153670000Y-137160000D01*
X154305000Y-122555000D02*
X153670000Y-123190000D01*
X155575000Y-120015000D02*
X153670000Y-120015000D01*
X168910000Y-139065000D02*
X168275000Y-138430000D01*
X168275000Y-138430000D02*
X161290000Y-138430000D01*
X168910000Y-139065000D02*
X168910000Y-141605000D01*
X153670000Y-138430000D02*
X161290000Y-138430000D01*
X153035000Y-137795000D02*
X153670000Y-138430000D01*
X153035000Y-120650000D02*
X153035000Y-137795000D01*
X153670000Y-120015000D02*
X153035000Y-120650000D01*
X155575000Y-117475000D02*
X153035000Y-117475000D01*
X166370000Y-139700000D02*
X165735000Y-139065000D01*
X165735000Y-139065000D02*
X160655000Y-139065000D01*
X166370000Y-139700000D02*
X166370000Y-141605000D01*
X153035000Y-139065000D02*
X160655000Y-139065000D01*
X152400000Y-138430000D02*
X153035000Y-139065000D01*
X152400000Y-118110000D02*
X152400000Y-138430000D01*
X153035000Y-117475000D02*
X152400000Y-118110000D01*
X133350000Y-139700000D02*
X132715000Y-139065000D01*
X132715000Y-120650000D02*
X133350000Y-120015000D01*
X132715000Y-139065000D02*
X132715000Y-120650000D01*
X152400000Y-139700000D02*
X133350000Y-139700000D01*
X163830000Y-140335000D02*
X163195000Y-139700000D01*
X163195000Y-139700000D02*
X152400000Y-139700000D01*
X163830000Y-141605000D02*
X163830000Y-140335000D01*
X133350000Y-120015000D02*
X134620000Y-120015000D01*
X132715000Y-140335000D02*
X132080000Y-139700000D01*
X132080000Y-118110000D02*
X132715000Y-117475000D01*
X132080000Y-139700000D02*
X132080000Y-118110000D01*
X134620000Y-117475000D02*
X132715000Y-117475000D01*
X160655000Y-140335000D02*
X151765000Y-140335000D01*
X160655000Y-140335000D02*
X161290000Y-140970000D01*
X132715000Y-140335000D02*
X151765000Y-140335000D01*
X161290000Y-141605000D02*
X161290000Y-140970000D01*
X128270000Y-141605000D02*
X128270000Y-130810000D01*
X128905000Y-130175000D02*
X130175000Y-130175000D01*
X128270000Y-130810000D02*
X128905000Y-130175000D01*
X115570000Y-141605000D02*
X115570000Y-140970000D01*
X115570000Y-140970000D02*
X116205000Y-140335000D01*
X116205000Y-140335000D02*
X127000000Y-140335000D01*
X127000000Y-140335000D02*
X127635000Y-139700000D01*
X127635000Y-139700000D02*
X127635000Y-123190000D01*
X127635000Y-123190000D02*
X128270000Y-122555000D01*
X128270000Y-122555000D02*
X130175000Y-122555000D01*
X96520000Y-114935000D02*
X95250000Y-114935000D01*
X94615000Y-115570000D02*
X95250000Y-114935000D01*
X94615000Y-121920000D02*
X94615000Y-115570000D01*
X93980000Y-122555000D02*
X94615000Y-121920000D01*
X92710000Y-122555000D02*
X93980000Y-122555000D01*
X107950000Y-141605000D02*
X107950000Y-137160000D01*
X107315000Y-136525000D02*
X92710000Y-136525000D01*
X107950000Y-137160000D02*
X107315000Y-136525000D01*
X80645000Y-122555000D02*
X84455000Y-122555000D01*
X85090000Y-123190000D02*
X85090000Y-134620000D01*
X84455000Y-122555000D02*
X85090000Y-123190000D01*
X105410000Y-141605000D02*
X105410000Y-137795000D01*
X85274998Y-120015000D02*
X85725000Y-120465002D01*
X85725000Y-120465002D02*
X85725000Y-127000000D01*
X85725000Y-127000000D02*
X85725000Y-136525000D01*
X85274998Y-120015000D02*
X80645000Y-120015000D01*
X104775000Y-137160000D02*
X93345000Y-137160000D01*
X105410000Y-137795000D02*
X104775000Y-137160000D01*
X96520000Y-125095000D02*
X95250000Y-125095000D01*
X95250000Y-125095000D02*
X92710000Y-127635000D01*
X102870000Y-141605000D02*
X102870000Y-138430000D01*
X85725000Y-117475000D02*
X86360000Y-118110000D01*
X86360000Y-118110000D02*
X86360000Y-129540000D01*
X86360000Y-129540000D02*
X86360000Y-136525000D01*
X85725000Y-117475000D02*
X80645000Y-117475000D01*
X86360000Y-137160000D02*
X86360000Y-136525000D01*
X86995000Y-137795000D02*
X86360000Y-137160000D01*
X88900000Y-137795000D02*
X86995000Y-137795000D01*
X102235000Y-137795000D02*
X93980000Y-137795000D01*
X102870000Y-138430000D02*
X102235000Y-137795000D01*
X96520000Y-132715000D02*
X92710000Y-132715000D01*
X92710000Y-132715000D02*
X92075000Y-133350000D01*
X100330000Y-141605000D02*
X100330000Y-139065000D01*
X89535000Y-120015000D02*
X88265000Y-120015000D01*
X92075000Y-122555000D02*
X89535000Y-120015000D01*
X92075000Y-137160000D02*
X92075000Y-133350000D01*
X92075000Y-133350000D02*
X92075000Y-122555000D01*
X93345000Y-138430000D02*
X92075000Y-137160000D01*
X99695000Y-138430000D02*
X93345000Y-138430000D01*
X100330000Y-139065000D02*
X99695000Y-138430000D01*
X104140000Y-132715000D02*
X99060000Y-132715000D01*
X97790000Y-131445000D02*
X92710000Y-131445000D01*
X99060000Y-132715000D02*
X97790000Y-131445000D01*
X97790000Y-141605000D02*
X97790000Y-139700000D01*
X90805000Y-125095000D02*
X88265000Y-125095000D01*
X91440000Y-125730000D02*
X90805000Y-125095000D01*
X91440000Y-137795000D02*
X91440000Y-132715000D01*
X91440000Y-132715000D02*
X91440000Y-125730000D01*
X92710000Y-139065000D02*
X91440000Y-137795000D01*
X97155000Y-139065000D02*
X92710000Y-139065000D01*
X97790000Y-139700000D02*
X97155000Y-139065000D01*
X93980000Y-125095000D02*
X95250000Y-123825000D01*
X93980000Y-125095000D02*
X92710000Y-126365000D01*
X102870000Y-123825000D02*
X104140000Y-125095000D01*
X95250000Y-123825000D02*
X102870000Y-123825000D01*
X95250000Y-141605000D02*
X95250000Y-140335000D01*
X90170000Y-127635000D02*
X88265000Y-127635000D01*
X90805000Y-128270000D02*
X90170000Y-127635000D01*
X90805000Y-138430000D02*
X90805000Y-128270000D01*
X92075000Y-139700000D02*
X90805000Y-138430000D01*
X94615000Y-139700000D02*
X92075000Y-139700000D01*
X95250000Y-140335000D02*
X94615000Y-139700000D01*
X95885000Y-126365000D02*
X95250000Y-126365000D01*
X104775000Y-126365000D02*
X105410000Y-125730000D01*
X105410000Y-125730000D02*
X105410000Y-123825000D01*
X98425000Y-126365000D02*
X95885000Y-126365000D01*
X98425000Y-126365000D02*
X104775000Y-126365000D01*
X105410000Y-123190000D02*
X105410000Y-123825000D01*
X104775000Y-122555000D02*
X105410000Y-123190000D01*
X94615000Y-127000000D02*
X92710000Y-128905000D01*
X95250000Y-126365000D02*
X94615000Y-127000000D01*
X104140000Y-122555000D02*
X104775000Y-122555000D01*
X90170000Y-138614998D02*
X90170000Y-139065000D01*
X90805000Y-139700000D02*
X91440000Y-140335000D01*
X91440000Y-140335000D02*
X92075000Y-140335000D01*
X92075000Y-140335000D02*
X92710000Y-140970000D01*
X90170000Y-138614998D02*
X90170000Y-130810000D01*
X90170000Y-139065000D02*
X90805000Y-139700000D01*
X90170000Y-130810000D02*
X89535000Y-130175000D01*
X88265000Y-130175000D02*
X89535000Y-130175000D01*
X92710000Y-140970000D02*
X92710000Y-141605000D01*
X97790000Y-128905000D02*
X105410000Y-128905000D01*
X92710000Y-130175000D02*
X93980000Y-128905000D01*
X97790000Y-128905000D02*
X93980000Y-128905000D01*
X105410000Y-114935000D02*
X104140000Y-114935000D01*
X106045000Y-115570000D02*
X105410000Y-114935000D01*
X106045000Y-128270000D02*
X106045000Y-115570000D01*
X105410000Y-128905000D02*
X106045000Y-128270000D01*
X90170000Y-140335000D02*
X89535000Y-139700000D01*
X89535000Y-139700000D02*
X89535000Y-139065000D01*
X88265000Y-132715000D02*
X88900000Y-132715000D01*
X88900000Y-132715000D02*
X89535000Y-133350000D01*
X89535000Y-139065000D02*
X89535000Y-133985000D01*
X89535000Y-133350000D02*
X89535000Y-133985000D01*
X90170000Y-141605000D02*
X90170000Y-140335000D01*
X92710000Y-120015000D02*
X91440000Y-120015000D01*
X86995000Y-121920000D02*
X87630000Y-122555000D01*
X86995000Y-119380000D02*
X86995000Y-121920000D01*
X87630000Y-118745000D02*
X86995000Y-119380000D01*
X90170000Y-118745000D02*
X87630000Y-118745000D01*
X91440000Y-120015000D02*
X90170000Y-118745000D01*
X87630000Y-122555000D02*
X88265000Y-122555000D01*
X127000000Y-99060000D02*
X127000000Y-96520000D01*
X121285000Y-90805000D02*
X116205000Y-90805000D01*
X127000000Y-96520000D02*
X121285000Y-90805000D01*
X104140000Y-97155000D02*
X104775000Y-97155000D01*
X104775000Y-97155000D02*
X106045000Y-98425000D01*
X106045000Y-98425000D02*
X106045000Y-106680000D01*
X106045000Y-106680000D02*
X106680000Y-107315000D01*
X106680000Y-107315000D02*
X131445000Y-107315000D01*
X131445000Y-107315000D02*
X133985000Y-104775000D01*
X96520000Y-117475000D02*
X101600000Y-117475000D01*
X107315000Y-121920000D02*
X107950000Y-122555000D01*
X107315000Y-121285000D02*
X107315000Y-121920000D01*
X107315000Y-116840000D02*
X107315000Y-121285000D01*
X101600000Y-117475000D02*
X102870000Y-116205000D01*
X93980000Y-123825000D02*
X95250000Y-122555000D01*
X80645000Y-125095000D02*
X83185000Y-125095000D01*
X95250000Y-118110000D02*
X95885000Y-117475000D01*
X95250000Y-122555000D02*
X95250000Y-118110000D01*
X92710000Y-123825000D02*
X93980000Y-123825000D01*
X83185000Y-125095000D02*
X84455000Y-123825000D01*
X95885000Y-117475000D02*
X96520000Y-117475000D01*
X77470000Y-100330000D02*
X77470000Y-131445000D01*
X77470000Y-131445000D02*
X78740000Y-132715000D01*
X78740000Y-132715000D02*
X80645000Y-132715000D01*
X109220000Y-90170000D02*
X108585000Y-89535000D01*
X108585000Y-89535000D02*
X107950000Y-88900000D01*
X107950000Y-88900000D02*
X78740000Y-88900000D01*
X78740000Y-88900000D02*
X77470000Y-90170000D01*
X77470000Y-90170000D02*
X77470000Y-100330000D01*
X114935000Y-95885000D02*
X109220000Y-90170000D01*
X114935000Y-98425000D02*
X111760000Y-98425000D01*
X95250000Y-99695000D02*
X96520000Y-99695000D01*
X94615000Y-99060000D02*
X95250000Y-99695000D01*
X94615000Y-92710000D02*
X94615000Y-99060000D01*
X95250000Y-92075000D02*
X94615000Y-92710000D01*
X109855000Y-92075000D02*
X95250000Y-92075000D01*
X110490000Y-92710000D02*
X109855000Y-92075000D01*
X110490000Y-97155000D02*
X110490000Y-92710000D01*
X111760000Y-98425000D02*
X110490000Y-97155000D01*
X107950000Y-94615000D02*
X106045000Y-92710000D01*
X107950000Y-95250000D02*
X107950000Y-94615000D01*
X106045000Y-92710000D02*
X105410000Y-92710000D01*
X96520000Y-94615000D02*
X96520000Y-93345000D01*
X103505000Y-92710000D02*
X105410000Y-92710000D01*
X96520000Y-93345000D02*
X97155000Y-92710000D01*
X97155000Y-92710000D02*
X103505000Y-92710000D01*
X107950000Y-95250000D02*
X107950000Y-97155000D01*
X107950000Y-97155000D02*
X109220000Y-98425000D01*
X80645000Y-92075000D02*
X80645000Y-104775000D01*
X92710000Y-111760000D02*
X92710000Y-117475000D01*
X92075000Y-111125000D02*
X92710000Y-111760000D01*
X83185000Y-111125000D02*
X92075000Y-111125000D01*
X82550000Y-110490000D02*
X83185000Y-111125000D01*
X82550000Y-106680000D02*
X82550000Y-110490000D01*
X80645000Y-104775000D02*
X82550000Y-106680000D01*
M02*
