G04 #@! TF.FileFunction,Legend,Bot*
%FSLAX46Y46*%
G04 Gerber Fmt 4.6, Leading zero omitted, Abs format (unit mm)*
G04 Created by KiCad (PCBNEW 4.0.7) date 06/26/19 17:32:02*
%MOMM*%
%LPD*%
G01*
G04 APERTURE LIST*
%ADD10C,0.100000*%
%ADD11C,0.200000*%
%ADD12C,0.250000*%
%ADD13C,0.300000*%
G04 APERTURE END LIST*
D10*
D11*
X93980000Y-90805000D02*
X96520000Y-90805000D01*
X92075000Y-92710000D02*
X92075000Y-88900000D01*
X98425000Y-92710000D02*
X92075000Y-92710000D01*
X98425000Y-88900000D02*
X98425000Y-92710000D01*
X92075000Y-88900000D02*
X98425000Y-88900000D01*
X113030000Y-90805000D02*
X115570000Y-90805000D01*
X111125000Y-88900000D02*
X111125000Y-92710000D01*
X117475000Y-88900000D02*
X111125000Y-88900000D01*
X117475000Y-92710000D02*
X117475000Y-88900000D01*
X111125000Y-92710000D02*
X117475000Y-92710000D01*
X130810000Y-126365000D02*
X150495000Y-126365000D01*
D12*
X131897381Y-130373572D02*
X131421190Y-130040238D01*
X131897381Y-129802143D02*
X130897381Y-129802143D01*
X130897381Y-130183096D01*
X130945000Y-130278334D01*
X130992619Y-130325953D01*
X131087857Y-130373572D01*
X131230714Y-130373572D01*
X131325952Y-130325953D01*
X131373571Y-130278334D01*
X131421190Y-130183096D01*
X131421190Y-129802143D01*
X131373571Y-130802143D02*
X131373571Y-131135477D01*
X131897381Y-131278334D02*
X131897381Y-130802143D01*
X130897381Y-130802143D01*
X130897381Y-131278334D01*
X131611667Y-131659286D02*
X131611667Y-132135477D01*
X131897381Y-131564048D02*
X130897381Y-131897381D01*
X131897381Y-132230715D01*
X131897381Y-132564048D02*
X130897381Y-132564048D01*
X130897381Y-132802143D01*
X130945000Y-132945001D01*
X131040238Y-133040239D01*
X131135476Y-133087858D01*
X131325952Y-133135477D01*
X131468810Y-133135477D01*
X131659286Y-133087858D01*
X131754524Y-133040239D01*
X131849762Y-132945001D01*
X131897381Y-132802143D01*
X131897381Y-132564048D01*
X130897381Y-119285000D02*
X131897381Y-119523095D01*
X131183095Y-119713572D01*
X131897381Y-119904048D01*
X130897381Y-120142143D01*
X131897381Y-121094524D02*
X131421190Y-120761190D01*
X131897381Y-120523095D02*
X130897381Y-120523095D01*
X130897381Y-120904048D01*
X130945000Y-120999286D01*
X130992619Y-121046905D01*
X131087857Y-121094524D01*
X131230714Y-121094524D01*
X131325952Y-121046905D01*
X131373571Y-120999286D01*
X131421190Y-120904048D01*
X131421190Y-120523095D01*
X131897381Y-121523095D02*
X130897381Y-121523095D01*
X130897381Y-121856428D02*
X130897381Y-122427857D01*
X131897381Y-122142142D02*
X130897381Y-122142142D01*
X131373571Y-122761190D02*
X131373571Y-123094524D01*
X131897381Y-123237381D02*
X131897381Y-122761190D01*
X130897381Y-122761190D01*
X130897381Y-123237381D01*
X152963571Y-125079286D02*
X153011190Y-125222143D01*
X153058810Y-125269762D01*
X153154048Y-125317381D01*
X153296905Y-125317381D01*
X153392143Y-125269762D01*
X153439762Y-125222143D01*
X153487381Y-125126905D01*
X153487381Y-124745952D01*
X152487381Y-124745952D01*
X152487381Y-125079286D01*
X152535000Y-125174524D01*
X152582619Y-125222143D01*
X152677857Y-125269762D01*
X152773095Y-125269762D01*
X152868333Y-125222143D01*
X152915952Y-125174524D01*
X152963571Y-125079286D01*
X152963571Y-124745952D01*
X153201667Y-125698333D02*
X153201667Y-126174524D01*
X153487381Y-125603095D02*
X152487381Y-125936428D01*
X153487381Y-126269762D01*
X153439762Y-126555476D02*
X153487381Y-126698333D01*
X153487381Y-126936429D01*
X153439762Y-127031667D01*
X153392143Y-127079286D01*
X153296905Y-127126905D01*
X153201667Y-127126905D01*
X153106429Y-127079286D01*
X153058810Y-127031667D01*
X153011190Y-126936429D01*
X152963571Y-126745952D01*
X152915952Y-126650714D01*
X152868333Y-126603095D01*
X152773095Y-126555476D01*
X152677857Y-126555476D01*
X152582619Y-126603095D01*
X152535000Y-126650714D01*
X152487381Y-126745952D01*
X152487381Y-126984048D01*
X152535000Y-127126905D01*
X152963571Y-127555476D02*
X152963571Y-127888810D01*
X153487381Y-128031667D02*
X153487381Y-127555476D01*
X152487381Y-127555476D01*
X152487381Y-128031667D01*
D11*
X150495000Y-116205000D02*
X130175000Y-116205000D01*
X150495000Y-136525000D02*
X130175000Y-136525000D01*
X171450000Y-136525000D02*
X151130000Y-136525000D01*
X171450000Y-116205000D02*
X171450000Y-136525000D01*
X151130000Y-116205000D02*
X171450000Y-116205000D01*
X151130000Y-136525000D02*
X151130000Y-116205000D01*
X150495000Y-116205000D02*
X150495000Y-136525000D01*
X130175000Y-136525000D02*
X130175000Y-116205000D01*
X171450000Y-116205000D02*
X171450000Y-136525000D01*
X146685000Y-130175000D02*
X149225000Y-130175000D01*
X146685000Y-120015000D02*
X149225000Y-120015000D01*
X167640000Y-122555000D02*
X170180000Y-122555000D01*
D10*
X140144286Y-135578810D02*
X140030000Y-135616905D01*
X139839524Y-135616905D01*
X139763334Y-135578810D01*
X139725238Y-135540714D01*
X139687143Y-135464524D01*
X139687143Y-135388333D01*
X139725238Y-135312143D01*
X139763334Y-135274048D01*
X139839524Y-135235952D01*
X139991905Y-135197857D01*
X140068096Y-135159762D01*
X140106191Y-135121667D01*
X140144286Y-135045476D01*
X140144286Y-134969286D01*
X140106191Y-134893095D01*
X140068096Y-134855000D01*
X139991905Y-134816905D01*
X139801429Y-134816905D01*
X139687143Y-134855000D01*
X139915715Y-134702619D02*
X139915715Y-135731190D01*
X139420476Y-135616905D02*
X139001429Y-135083571D01*
X139420476Y-135083571D02*
X139001429Y-135616905D01*
X138239524Y-135540714D02*
X138277619Y-135578810D01*
X138391905Y-135616905D01*
X138468095Y-135616905D01*
X138582381Y-135578810D01*
X138658572Y-135502619D01*
X138696667Y-135426429D01*
X138734762Y-135274048D01*
X138734762Y-135159762D01*
X138696667Y-135007381D01*
X138658572Y-134931190D01*
X138582381Y-134855000D01*
X138468095Y-134816905D01*
X138391905Y-134816905D01*
X138277619Y-134855000D01*
X138239524Y-134893095D01*
X137744286Y-134816905D02*
X137668095Y-134816905D01*
X137591905Y-134855000D01*
X137553810Y-134893095D01*
X137515714Y-134969286D01*
X137477619Y-135121667D01*
X137477619Y-135312143D01*
X137515714Y-135464524D01*
X137553810Y-135540714D01*
X137591905Y-135578810D01*
X137668095Y-135616905D01*
X137744286Y-135616905D01*
X137820476Y-135578810D01*
X137858572Y-135540714D01*
X137896667Y-135464524D01*
X137934762Y-135312143D01*
X137934762Y-135121667D01*
X137896667Y-134969286D01*
X137858572Y-134893095D01*
X137820476Y-134855000D01*
X137744286Y-134816905D01*
X136982381Y-134816905D02*
X136906190Y-134816905D01*
X136830000Y-134855000D01*
X136791905Y-134893095D01*
X136753809Y-134969286D01*
X136715714Y-135121667D01*
X136715714Y-135312143D01*
X136753809Y-135464524D01*
X136791905Y-135540714D01*
X136830000Y-135578810D01*
X136906190Y-135616905D01*
X136982381Y-135616905D01*
X137058571Y-135578810D01*
X137096667Y-135540714D01*
X137134762Y-135464524D01*
X137172857Y-135312143D01*
X137172857Y-135121667D01*
X137134762Y-134969286D01*
X137096667Y-134893095D01*
X137058571Y-134855000D01*
X136982381Y-134816905D01*
X140125238Y-133038810D02*
X140010952Y-133076905D01*
X139820476Y-133076905D01*
X139744286Y-133038810D01*
X139706190Y-133000714D01*
X139668095Y-132924524D01*
X139668095Y-132848333D01*
X139706190Y-132772143D01*
X139744286Y-132734048D01*
X139820476Y-132695952D01*
X139972857Y-132657857D01*
X140049048Y-132619762D01*
X140087143Y-132581667D01*
X140125238Y-132505476D01*
X140125238Y-132429286D01*
X140087143Y-132353095D01*
X140049048Y-132315000D01*
X139972857Y-132276905D01*
X139782381Y-132276905D01*
X139668095Y-132315000D01*
X139896667Y-132162619D02*
X139896667Y-133191190D01*
X139401428Y-133076905D02*
X138982381Y-132543571D01*
X139401428Y-132543571D02*
X138982381Y-133076905D01*
X138563333Y-132619762D02*
X138639524Y-132581667D01*
X138677619Y-132543571D01*
X138715714Y-132467381D01*
X138715714Y-132429286D01*
X138677619Y-132353095D01*
X138639524Y-132315000D01*
X138563333Y-132276905D01*
X138410952Y-132276905D01*
X138334762Y-132315000D01*
X138296666Y-132353095D01*
X138258571Y-132429286D01*
X138258571Y-132467381D01*
X138296666Y-132543571D01*
X138334762Y-132581667D01*
X138410952Y-132619762D01*
X138563333Y-132619762D01*
X138639524Y-132657857D01*
X138677619Y-132695952D01*
X138715714Y-132772143D01*
X138715714Y-132924524D01*
X138677619Y-133000714D01*
X138639524Y-133038810D01*
X138563333Y-133076905D01*
X138410952Y-133076905D01*
X138334762Y-133038810D01*
X138296666Y-133000714D01*
X138258571Y-132924524D01*
X138258571Y-132772143D01*
X138296666Y-132695952D01*
X138334762Y-132657857D01*
X138410952Y-132619762D01*
X137763333Y-132276905D02*
X137687142Y-132276905D01*
X137610952Y-132315000D01*
X137572857Y-132353095D01*
X137534761Y-132429286D01*
X137496666Y-132581667D01*
X137496666Y-132772143D01*
X137534761Y-132924524D01*
X137572857Y-133000714D01*
X137610952Y-133038810D01*
X137687142Y-133076905D01*
X137763333Y-133076905D01*
X137839523Y-133038810D01*
X137877619Y-133000714D01*
X137915714Y-132924524D01*
X137953809Y-132772143D01*
X137953809Y-132581667D01*
X137915714Y-132429286D01*
X137877619Y-132353095D01*
X137839523Y-132315000D01*
X137763333Y-132276905D01*
X137001428Y-132276905D02*
X136925237Y-132276905D01*
X136849047Y-132315000D01*
X136810952Y-132353095D01*
X136772856Y-132429286D01*
X136734761Y-132581667D01*
X136734761Y-132772143D01*
X136772856Y-132924524D01*
X136810952Y-133000714D01*
X136849047Y-133038810D01*
X136925237Y-133076905D01*
X137001428Y-133076905D01*
X137077618Y-133038810D01*
X137115714Y-133000714D01*
X137153809Y-132924524D01*
X137191904Y-132772143D01*
X137191904Y-132581667D01*
X137153809Y-132429286D01*
X137115714Y-132353095D01*
X137077618Y-132315000D01*
X137001428Y-132276905D01*
X140125238Y-130498810D02*
X140010952Y-130536905D01*
X139820476Y-130536905D01*
X139744286Y-130498810D01*
X139706190Y-130460714D01*
X139668095Y-130384524D01*
X139668095Y-130308333D01*
X139706190Y-130232143D01*
X139744286Y-130194048D01*
X139820476Y-130155952D01*
X139972857Y-130117857D01*
X140049048Y-130079762D01*
X140087143Y-130041667D01*
X140125238Y-129965476D01*
X140125238Y-129889286D01*
X140087143Y-129813095D01*
X140049048Y-129775000D01*
X139972857Y-129736905D01*
X139782381Y-129736905D01*
X139668095Y-129775000D01*
X139896667Y-129622619D02*
X139896667Y-130651190D01*
X139401428Y-130536905D02*
X138982381Y-130003571D01*
X139401428Y-130003571D02*
X138982381Y-130536905D01*
X138334762Y-130003571D02*
X138334762Y-130536905D01*
X138525238Y-129698810D02*
X138715714Y-130270238D01*
X138220476Y-130270238D01*
X137763333Y-129736905D02*
X137687142Y-129736905D01*
X137610952Y-129775000D01*
X137572857Y-129813095D01*
X137534761Y-129889286D01*
X137496666Y-130041667D01*
X137496666Y-130232143D01*
X137534761Y-130384524D01*
X137572857Y-130460714D01*
X137610952Y-130498810D01*
X137687142Y-130536905D01*
X137763333Y-130536905D01*
X137839523Y-130498810D01*
X137877619Y-130460714D01*
X137915714Y-130384524D01*
X137953809Y-130232143D01*
X137953809Y-130041667D01*
X137915714Y-129889286D01*
X137877619Y-129813095D01*
X137839523Y-129775000D01*
X137763333Y-129736905D01*
X137001428Y-129736905D02*
X136925237Y-129736905D01*
X136849047Y-129775000D01*
X136810952Y-129813095D01*
X136772856Y-129889286D01*
X136734761Y-130041667D01*
X136734761Y-130232143D01*
X136772856Y-130384524D01*
X136810952Y-130460714D01*
X136849047Y-130498810D01*
X136925237Y-130536905D01*
X137001428Y-130536905D01*
X137077618Y-130498810D01*
X137115714Y-130460714D01*
X137153809Y-130384524D01*
X137191904Y-130232143D01*
X137191904Y-130041667D01*
X137153809Y-129889286D01*
X137115714Y-129813095D01*
X137077618Y-129775000D01*
X137001428Y-129736905D01*
X140144286Y-125418810D02*
X140030000Y-125456905D01*
X139839524Y-125456905D01*
X139763334Y-125418810D01*
X139725238Y-125380714D01*
X139687143Y-125304524D01*
X139687143Y-125228333D01*
X139725238Y-125152143D01*
X139763334Y-125114048D01*
X139839524Y-125075952D01*
X139991905Y-125037857D01*
X140068096Y-124999762D01*
X140106191Y-124961667D01*
X140144286Y-124885476D01*
X140144286Y-124809286D01*
X140106191Y-124733095D01*
X140068096Y-124695000D01*
X139991905Y-124656905D01*
X139801429Y-124656905D01*
X139687143Y-124695000D01*
X139915715Y-124542619D02*
X139915715Y-125571190D01*
X139420476Y-125456905D02*
X139001429Y-124923571D01*
X139420476Y-124923571D02*
X139001429Y-125456905D01*
X138239524Y-125380714D02*
X138277619Y-125418810D01*
X138391905Y-125456905D01*
X138468095Y-125456905D01*
X138582381Y-125418810D01*
X138658572Y-125342619D01*
X138696667Y-125266429D01*
X138734762Y-125114048D01*
X138734762Y-124999762D01*
X138696667Y-124847381D01*
X138658572Y-124771190D01*
X138582381Y-124695000D01*
X138468095Y-124656905D01*
X138391905Y-124656905D01*
X138277619Y-124695000D01*
X138239524Y-124733095D01*
X137744286Y-124656905D02*
X137668095Y-124656905D01*
X137591905Y-124695000D01*
X137553810Y-124733095D01*
X137515714Y-124809286D01*
X137477619Y-124961667D01*
X137477619Y-125152143D01*
X137515714Y-125304524D01*
X137553810Y-125380714D01*
X137591905Y-125418810D01*
X137668095Y-125456905D01*
X137744286Y-125456905D01*
X137820476Y-125418810D01*
X137858572Y-125380714D01*
X137896667Y-125304524D01*
X137934762Y-125152143D01*
X137934762Y-124961667D01*
X137896667Y-124809286D01*
X137858572Y-124733095D01*
X137820476Y-124695000D01*
X137744286Y-124656905D01*
X136982381Y-124656905D02*
X136906190Y-124656905D01*
X136830000Y-124695000D01*
X136791905Y-124733095D01*
X136753809Y-124809286D01*
X136715714Y-124961667D01*
X136715714Y-125152143D01*
X136753809Y-125304524D01*
X136791905Y-125380714D01*
X136830000Y-125418810D01*
X136906190Y-125456905D01*
X136982381Y-125456905D01*
X137058571Y-125418810D01*
X137096667Y-125380714D01*
X137134762Y-125304524D01*
X137172857Y-125152143D01*
X137172857Y-124961667D01*
X137134762Y-124809286D01*
X137096667Y-124733095D01*
X137058571Y-124695000D01*
X136982381Y-124656905D01*
X140125238Y-122878810D02*
X140010952Y-122916905D01*
X139820476Y-122916905D01*
X139744286Y-122878810D01*
X139706190Y-122840714D01*
X139668095Y-122764524D01*
X139668095Y-122688333D01*
X139706190Y-122612143D01*
X139744286Y-122574048D01*
X139820476Y-122535952D01*
X139972857Y-122497857D01*
X140049048Y-122459762D01*
X140087143Y-122421667D01*
X140125238Y-122345476D01*
X140125238Y-122269286D01*
X140087143Y-122193095D01*
X140049048Y-122155000D01*
X139972857Y-122116905D01*
X139782381Y-122116905D01*
X139668095Y-122155000D01*
X139896667Y-122002619D02*
X139896667Y-123031190D01*
X139401428Y-122916905D02*
X138982381Y-122383571D01*
X139401428Y-122383571D02*
X138982381Y-122916905D01*
X138563333Y-122459762D02*
X138639524Y-122421667D01*
X138677619Y-122383571D01*
X138715714Y-122307381D01*
X138715714Y-122269286D01*
X138677619Y-122193095D01*
X138639524Y-122155000D01*
X138563333Y-122116905D01*
X138410952Y-122116905D01*
X138334762Y-122155000D01*
X138296666Y-122193095D01*
X138258571Y-122269286D01*
X138258571Y-122307381D01*
X138296666Y-122383571D01*
X138334762Y-122421667D01*
X138410952Y-122459762D01*
X138563333Y-122459762D01*
X138639524Y-122497857D01*
X138677619Y-122535952D01*
X138715714Y-122612143D01*
X138715714Y-122764524D01*
X138677619Y-122840714D01*
X138639524Y-122878810D01*
X138563333Y-122916905D01*
X138410952Y-122916905D01*
X138334762Y-122878810D01*
X138296666Y-122840714D01*
X138258571Y-122764524D01*
X138258571Y-122612143D01*
X138296666Y-122535952D01*
X138334762Y-122497857D01*
X138410952Y-122459762D01*
X137763333Y-122116905D02*
X137687142Y-122116905D01*
X137610952Y-122155000D01*
X137572857Y-122193095D01*
X137534761Y-122269286D01*
X137496666Y-122421667D01*
X137496666Y-122612143D01*
X137534761Y-122764524D01*
X137572857Y-122840714D01*
X137610952Y-122878810D01*
X137687142Y-122916905D01*
X137763333Y-122916905D01*
X137839523Y-122878810D01*
X137877619Y-122840714D01*
X137915714Y-122764524D01*
X137953809Y-122612143D01*
X137953809Y-122421667D01*
X137915714Y-122269286D01*
X137877619Y-122193095D01*
X137839523Y-122155000D01*
X137763333Y-122116905D01*
X137001428Y-122116905D02*
X136925237Y-122116905D01*
X136849047Y-122155000D01*
X136810952Y-122193095D01*
X136772856Y-122269286D01*
X136734761Y-122421667D01*
X136734761Y-122612143D01*
X136772856Y-122764524D01*
X136810952Y-122840714D01*
X136849047Y-122878810D01*
X136925237Y-122916905D01*
X137001428Y-122916905D01*
X137077618Y-122878810D01*
X137115714Y-122840714D01*
X137153809Y-122764524D01*
X137191904Y-122612143D01*
X137191904Y-122421667D01*
X137153809Y-122269286D01*
X137115714Y-122193095D01*
X137077618Y-122155000D01*
X137001428Y-122116905D01*
X140125238Y-120338810D02*
X140010952Y-120376905D01*
X139820476Y-120376905D01*
X139744286Y-120338810D01*
X139706190Y-120300714D01*
X139668095Y-120224524D01*
X139668095Y-120148333D01*
X139706190Y-120072143D01*
X139744286Y-120034048D01*
X139820476Y-119995952D01*
X139972857Y-119957857D01*
X140049048Y-119919762D01*
X140087143Y-119881667D01*
X140125238Y-119805476D01*
X140125238Y-119729286D01*
X140087143Y-119653095D01*
X140049048Y-119615000D01*
X139972857Y-119576905D01*
X139782381Y-119576905D01*
X139668095Y-119615000D01*
X139896667Y-119462619D02*
X139896667Y-120491190D01*
X139401428Y-120376905D02*
X138982381Y-119843571D01*
X139401428Y-119843571D02*
X138982381Y-120376905D01*
X138334762Y-119843571D02*
X138334762Y-120376905D01*
X138525238Y-119538810D02*
X138715714Y-120110238D01*
X138220476Y-120110238D01*
X137763333Y-119576905D02*
X137687142Y-119576905D01*
X137610952Y-119615000D01*
X137572857Y-119653095D01*
X137534761Y-119729286D01*
X137496666Y-119881667D01*
X137496666Y-120072143D01*
X137534761Y-120224524D01*
X137572857Y-120300714D01*
X137610952Y-120338810D01*
X137687142Y-120376905D01*
X137763333Y-120376905D01*
X137839523Y-120338810D01*
X137877619Y-120300714D01*
X137915714Y-120224524D01*
X137953809Y-120072143D01*
X137953809Y-119881667D01*
X137915714Y-119729286D01*
X137877619Y-119653095D01*
X137839523Y-119615000D01*
X137763333Y-119576905D01*
X137001428Y-119576905D02*
X136925237Y-119576905D01*
X136849047Y-119615000D01*
X136810952Y-119653095D01*
X136772856Y-119729286D01*
X136734761Y-119881667D01*
X136734761Y-120072143D01*
X136772856Y-120224524D01*
X136810952Y-120300714D01*
X136849047Y-120338810D01*
X136925237Y-120376905D01*
X137001428Y-120376905D01*
X137077618Y-120338810D01*
X137115714Y-120300714D01*
X137153809Y-120224524D01*
X137191904Y-120072143D01*
X137191904Y-119881667D01*
X137153809Y-119729286D01*
X137115714Y-119653095D01*
X137077618Y-119615000D01*
X137001428Y-119576905D01*
X140125238Y-127958810D02*
X140010952Y-127996905D01*
X139820476Y-127996905D01*
X139744286Y-127958810D01*
X139706190Y-127920714D01*
X139668095Y-127844524D01*
X139668095Y-127768333D01*
X139706190Y-127692143D01*
X139744286Y-127654048D01*
X139820476Y-127615952D01*
X139972857Y-127577857D01*
X140049048Y-127539762D01*
X140087143Y-127501667D01*
X140125238Y-127425476D01*
X140125238Y-127349286D01*
X140087143Y-127273095D01*
X140049048Y-127235000D01*
X139972857Y-127196905D01*
X139782381Y-127196905D01*
X139668095Y-127235000D01*
X139896667Y-127082619D02*
X139896667Y-128111190D01*
X139401428Y-127996905D02*
X138982381Y-127463571D01*
X139401428Y-127463571D02*
X138982381Y-127996905D01*
X138525238Y-127196905D02*
X138449047Y-127196905D01*
X138372857Y-127235000D01*
X138334762Y-127273095D01*
X138296666Y-127349286D01*
X138258571Y-127501667D01*
X138258571Y-127692143D01*
X138296666Y-127844524D01*
X138334762Y-127920714D01*
X138372857Y-127958810D01*
X138449047Y-127996905D01*
X138525238Y-127996905D01*
X138601428Y-127958810D01*
X138639524Y-127920714D01*
X138677619Y-127844524D01*
X138715714Y-127692143D01*
X138715714Y-127501667D01*
X138677619Y-127349286D01*
X138639524Y-127273095D01*
X138601428Y-127235000D01*
X138525238Y-127196905D01*
X137763333Y-127196905D02*
X137687142Y-127196905D01*
X137610952Y-127235000D01*
X137572857Y-127273095D01*
X137534761Y-127349286D01*
X137496666Y-127501667D01*
X137496666Y-127692143D01*
X137534761Y-127844524D01*
X137572857Y-127920714D01*
X137610952Y-127958810D01*
X137687142Y-127996905D01*
X137763333Y-127996905D01*
X137839523Y-127958810D01*
X137877619Y-127920714D01*
X137915714Y-127844524D01*
X137953809Y-127692143D01*
X137953809Y-127501667D01*
X137915714Y-127349286D01*
X137877619Y-127273095D01*
X137839523Y-127235000D01*
X137763333Y-127196905D01*
X137001428Y-127196905D02*
X136925237Y-127196905D01*
X136849047Y-127235000D01*
X136810952Y-127273095D01*
X136772856Y-127349286D01*
X136734761Y-127501667D01*
X136734761Y-127692143D01*
X136772856Y-127844524D01*
X136810952Y-127920714D01*
X136849047Y-127958810D01*
X136925237Y-127996905D01*
X137001428Y-127996905D01*
X137077618Y-127958810D01*
X137115714Y-127920714D01*
X137153809Y-127844524D01*
X137191904Y-127692143D01*
X137191904Y-127501667D01*
X137153809Y-127349286D01*
X137115714Y-127273095D01*
X137077618Y-127235000D01*
X137001428Y-127196905D01*
X140125238Y-117798810D02*
X140010952Y-117836905D01*
X139820476Y-117836905D01*
X139744286Y-117798810D01*
X139706190Y-117760714D01*
X139668095Y-117684524D01*
X139668095Y-117608333D01*
X139706190Y-117532143D01*
X139744286Y-117494048D01*
X139820476Y-117455952D01*
X139972857Y-117417857D01*
X140049048Y-117379762D01*
X140087143Y-117341667D01*
X140125238Y-117265476D01*
X140125238Y-117189286D01*
X140087143Y-117113095D01*
X140049048Y-117075000D01*
X139972857Y-117036905D01*
X139782381Y-117036905D01*
X139668095Y-117075000D01*
X139896667Y-116922619D02*
X139896667Y-117951190D01*
X139401428Y-117836905D02*
X138982381Y-117303571D01*
X139401428Y-117303571D02*
X138982381Y-117836905D01*
X138525238Y-117036905D02*
X138449047Y-117036905D01*
X138372857Y-117075000D01*
X138334762Y-117113095D01*
X138296666Y-117189286D01*
X138258571Y-117341667D01*
X138258571Y-117532143D01*
X138296666Y-117684524D01*
X138334762Y-117760714D01*
X138372857Y-117798810D01*
X138449047Y-117836905D01*
X138525238Y-117836905D01*
X138601428Y-117798810D01*
X138639524Y-117760714D01*
X138677619Y-117684524D01*
X138715714Y-117532143D01*
X138715714Y-117341667D01*
X138677619Y-117189286D01*
X138639524Y-117113095D01*
X138601428Y-117075000D01*
X138525238Y-117036905D01*
X137763333Y-117036905D02*
X137687142Y-117036905D01*
X137610952Y-117075000D01*
X137572857Y-117113095D01*
X137534761Y-117189286D01*
X137496666Y-117341667D01*
X137496666Y-117532143D01*
X137534761Y-117684524D01*
X137572857Y-117760714D01*
X137610952Y-117798810D01*
X137687142Y-117836905D01*
X137763333Y-117836905D01*
X137839523Y-117798810D01*
X137877619Y-117760714D01*
X137915714Y-117684524D01*
X137953809Y-117532143D01*
X137953809Y-117341667D01*
X137915714Y-117189286D01*
X137877619Y-117113095D01*
X137839523Y-117075000D01*
X137763333Y-117036905D01*
X137001428Y-117036905D02*
X136925237Y-117036905D01*
X136849047Y-117075000D01*
X136810952Y-117113095D01*
X136772856Y-117189286D01*
X136734761Y-117341667D01*
X136734761Y-117532143D01*
X136772856Y-117684524D01*
X136810952Y-117760714D01*
X136849047Y-117798810D01*
X136925237Y-117836905D01*
X137001428Y-117836905D01*
X137077618Y-117798810D01*
X137115714Y-117760714D01*
X137153809Y-117684524D01*
X137191904Y-117532143D01*
X137191904Y-117341667D01*
X137153809Y-117189286D01*
X137115714Y-117113095D01*
X137077618Y-117075000D01*
X137001428Y-117036905D01*
X161099286Y-135578810D02*
X160985000Y-135616905D01*
X160794524Y-135616905D01*
X160718334Y-135578810D01*
X160680238Y-135540714D01*
X160642143Y-135464524D01*
X160642143Y-135388333D01*
X160680238Y-135312143D01*
X160718334Y-135274048D01*
X160794524Y-135235952D01*
X160946905Y-135197857D01*
X161023096Y-135159762D01*
X161061191Y-135121667D01*
X161099286Y-135045476D01*
X161099286Y-134969286D01*
X161061191Y-134893095D01*
X161023096Y-134855000D01*
X160946905Y-134816905D01*
X160756429Y-134816905D01*
X160642143Y-134855000D01*
X160870715Y-134702619D02*
X160870715Y-135731190D01*
X160032619Y-135197857D02*
X160299286Y-135197857D01*
X160299286Y-135616905D02*
X160299286Y-134816905D01*
X159918333Y-134816905D01*
X159461191Y-134816905D02*
X159385000Y-134816905D01*
X159308810Y-134855000D01*
X159270715Y-134893095D01*
X159232619Y-134969286D01*
X159194524Y-135121667D01*
X159194524Y-135312143D01*
X159232619Y-135464524D01*
X159270715Y-135540714D01*
X159308810Y-135578810D01*
X159385000Y-135616905D01*
X159461191Y-135616905D01*
X159537381Y-135578810D01*
X159575477Y-135540714D01*
X159613572Y-135464524D01*
X159651667Y-135312143D01*
X159651667Y-135121667D01*
X159613572Y-134969286D01*
X159575477Y-134893095D01*
X159537381Y-134855000D01*
X159461191Y-134816905D01*
X158699286Y-134816905D02*
X158623095Y-134816905D01*
X158546905Y-134855000D01*
X158508810Y-134893095D01*
X158470714Y-134969286D01*
X158432619Y-135121667D01*
X158432619Y-135312143D01*
X158470714Y-135464524D01*
X158508810Y-135540714D01*
X158546905Y-135578810D01*
X158623095Y-135616905D01*
X158699286Y-135616905D01*
X158775476Y-135578810D01*
X158813572Y-135540714D01*
X158851667Y-135464524D01*
X158889762Y-135312143D01*
X158889762Y-135121667D01*
X158851667Y-134969286D01*
X158813572Y-134893095D01*
X158775476Y-134855000D01*
X158699286Y-134816905D01*
X157937381Y-134816905D02*
X157861190Y-134816905D01*
X157785000Y-134855000D01*
X157746905Y-134893095D01*
X157708809Y-134969286D01*
X157670714Y-135121667D01*
X157670714Y-135312143D01*
X157708809Y-135464524D01*
X157746905Y-135540714D01*
X157785000Y-135578810D01*
X157861190Y-135616905D01*
X157937381Y-135616905D01*
X158013571Y-135578810D01*
X158051667Y-135540714D01*
X158089762Y-135464524D01*
X158127857Y-135312143D01*
X158127857Y-135121667D01*
X158089762Y-134969286D01*
X158051667Y-134893095D01*
X158013571Y-134855000D01*
X157937381Y-134816905D01*
X161118334Y-133038810D02*
X161004048Y-133076905D01*
X160813572Y-133076905D01*
X160737382Y-133038810D01*
X160699286Y-133000714D01*
X160661191Y-132924524D01*
X160661191Y-132848333D01*
X160699286Y-132772143D01*
X160737382Y-132734048D01*
X160813572Y-132695952D01*
X160965953Y-132657857D01*
X161042144Y-132619762D01*
X161080239Y-132581667D01*
X161118334Y-132505476D01*
X161118334Y-132429286D01*
X161080239Y-132353095D01*
X161042144Y-132315000D01*
X160965953Y-132276905D01*
X160775477Y-132276905D01*
X160661191Y-132315000D01*
X160889763Y-132162619D02*
X160889763Y-133191190D01*
X160318334Y-132657857D02*
X160051667Y-132657857D01*
X159937381Y-133076905D02*
X160318334Y-133076905D01*
X160318334Y-132276905D01*
X159937381Y-132276905D01*
X159442143Y-132276905D02*
X159365952Y-132276905D01*
X159289762Y-132315000D01*
X159251667Y-132353095D01*
X159213571Y-132429286D01*
X159175476Y-132581667D01*
X159175476Y-132772143D01*
X159213571Y-132924524D01*
X159251667Y-133000714D01*
X159289762Y-133038810D01*
X159365952Y-133076905D01*
X159442143Y-133076905D01*
X159518333Y-133038810D01*
X159556429Y-133000714D01*
X159594524Y-132924524D01*
X159632619Y-132772143D01*
X159632619Y-132581667D01*
X159594524Y-132429286D01*
X159556429Y-132353095D01*
X159518333Y-132315000D01*
X159442143Y-132276905D01*
X158680238Y-132276905D02*
X158604047Y-132276905D01*
X158527857Y-132315000D01*
X158489762Y-132353095D01*
X158451666Y-132429286D01*
X158413571Y-132581667D01*
X158413571Y-132772143D01*
X158451666Y-132924524D01*
X158489762Y-133000714D01*
X158527857Y-133038810D01*
X158604047Y-133076905D01*
X158680238Y-133076905D01*
X158756428Y-133038810D01*
X158794524Y-133000714D01*
X158832619Y-132924524D01*
X158870714Y-132772143D01*
X158870714Y-132581667D01*
X158832619Y-132429286D01*
X158794524Y-132353095D01*
X158756428Y-132315000D01*
X158680238Y-132276905D01*
X157918333Y-132276905D02*
X157842142Y-132276905D01*
X157765952Y-132315000D01*
X157727857Y-132353095D01*
X157689761Y-132429286D01*
X157651666Y-132581667D01*
X157651666Y-132772143D01*
X157689761Y-132924524D01*
X157727857Y-133000714D01*
X157765952Y-133038810D01*
X157842142Y-133076905D01*
X157918333Y-133076905D01*
X157994523Y-133038810D01*
X158032619Y-133000714D01*
X158070714Y-132924524D01*
X158108809Y-132772143D01*
X158108809Y-132581667D01*
X158070714Y-132429286D01*
X158032619Y-132353095D01*
X157994523Y-132315000D01*
X157918333Y-132276905D01*
X161156429Y-130498810D02*
X161042143Y-130536905D01*
X160851667Y-130536905D01*
X160775477Y-130498810D01*
X160737381Y-130460714D01*
X160699286Y-130384524D01*
X160699286Y-130308333D01*
X160737381Y-130232143D01*
X160775477Y-130194048D01*
X160851667Y-130155952D01*
X161004048Y-130117857D01*
X161080239Y-130079762D01*
X161118334Y-130041667D01*
X161156429Y-129965476D01*
X161156429Y-129889286D01*
X161118334Y-129813095D01*
X161080239Y-129775000D01*
X161004048Y-129736905D01*
X160813572Y-129736905D01*
X160699286Y-129775000D01*
X160927858Y-129622619D02*
X160927858Y-130651190D01*
X160356429Y-130536905D02*
X160356429Y-129736905D01*
X160165953Y-129736905D01*
X160051667Y-129775000D01*
X159975476Y-129851190D01*
X159937381Y-129927381D01*
X159899286Y-130079762D01*
X159899286Y-130194048D01*
X159937381Y-130346429D01*
X159975476Y-130422619D01*
X160051667Y-130498810D01*
X160165953Y-130536905D01*
X160356429Y-130536905D01*
X159404048Y-129736905D02*
X159327857Y-129736905D01*
X159251667Y-129775000D01*
X159213572Y-129813095D01*
X159175476Y-129889286D01*
X159137381Y-130041667D01*
X159137381Y-130232143D01*
X159175476Y-130384524D01*
X159213572Y-130460714D01*
X159251667Y-130498810D01*
X159327857Y-130536905D01*
X159404048Y-130536905D01*
X159480238Y-130498810D01*
X159518334Y-130460714D01*
X159556429Y-130384524D01*
X159594524Y-130232143D01*
X159594524Y-130041667D01*
X159556429Y-129889286D01*
X159518334Y-129813095D01*
X159480238Y-129775000D01*
X159404048Y-129736905D01*
X158642143Y-129736905D02*
X158565952Y-129736905D01*
X158489762Y-129775000D01*
X158451667Y-129813095D01*
X158413571Y-129889286D01*
X158375476Y-130041667D01*
X158375476Y-130232143D01*
X158413571Y-130384524D01*
X158451667Y-130460714D01*
X158489762Y-130498810D01*
X158565952Y-130536905D01*
X158642143Y-130536905D01*
X158718333Y-130498810D01*
X158756429Y-130460714D01*
X158794524Y-130384524D01*
X158832619Y-130232143D01*
X158832619Y-130041667D01*
X158794524Y-129889286D01*
X158756429Y-129813095D01*
X158718333Y-129775000D01*
X158642143Y-129736905D01*
X157880238Y-129736905D02*
X157804047Y-129736905D01*
X157727857Y-129775000D01*
X157689762Y-129813095D01*
X157651666Y-129889286D01*
X157613571Y-130041667D01*
X157613571Y-130232143D01*
X157651666Y-130384524D01*
X157689762Y-130460714D01*
X157727857Y-130498810D01*
X157804047Y-130536905D01*
X157880238Y-130536905D01*
X157956428Y-130498810D01*
X157994524Y-130460714D01*
X158032619Y-130384524D01*
X158070714Y-130232143D01*
X158070714Y-130041667D01*
X158032619Y-129889286D01*
X157994524Y-129813095D01*
X157956428Y-129775000D01*
X157880238Y-129736905D01*
X161156429Y-127958810D02*
X161042143Y-127996905D01*
X160851667Y-127996905D01*
X160775477Y-127958810D01*
X160737381Y-127920714D01*
X160699286Y-127844524D01*
X160699286Y-127768333D01*
X160737381Y-127692143D01*
X160775477Y-127654048D01*
X160851667Y-127615952D01*
X161004048Y-127577857D01*
X161080239Y-127539762D01*
X161118334Y-127501667D01*
X161156429Y-127425476D01*
X161156429Y-127349286D01*
X161118334Y-127273095D01*
X161080239Y-127235000D01*
X161004048Y-127196905D01*
X160813572Y-127196905D01*
X160699286Y-127235000D01*
X160927858Y-127082619D02*
X160927858Y-128111190D01*
X159899286Y-127920714D02*
X159937381Y-127958810D01*
X160051667Y-127996905D01*
X160127857Y-127996905D01*
X160242143Y-127958810D01*
X160318334Y-127882619D01*
X160356429Y-127806429D01*
X160394524Y-127654048D01*
X160394524Y-127539762D01*
X160356429Y-127387381D01*
X160318334Y-127311190D01*
X160242143Y-127235000D01*
X160127857Y-127196905D01*
X160051667Y-127196905D01*
X159937381Y-127235000D01*
X159899286Y-127273095D01*
X159404048Y-127196905D02*
X159327857Y-127196905D01*
X159251667Y-127235000D01*
X159213572Y-127273095D01*
X159175476Y-127349286D01*
X159137381Y-127501667D01*
X159137381Y-127692143D01*
X159175476Y-127844524D01*
X159213572Y-127920714D01*
X159251667Y-127958810D01*
X159327857Y-127996905D01*
X159404048Y-127996905D01*
X159480238Y-127958810D01*
X159518334Y-127920714D01*
X159556429Y-127844524D01*
X159594524Y-127692143D01*
X159594524Y-127501667D01*
X159556429Y-127349286D01*
X159518334Y-127273095D01*
X159480238Y-127235000D01*
X159404048Y-127196905D01*
X158642143Y-127196905D02*
X158565952Y-127196905D01*
X158489762Y-127235000D01*
X158451667Y-127273095D01*
X158413571Y-127349286D01*
X158375476Y-127501667D01*
X158375476Y-127692143D01*
X158413571Y-127844524D01*
X158451667Y-127920714D01*
X158489762Y-127958810D01*
X158565952Y-127996905D01*
X158642143Y-127996905D01*
X158718333Y-127958810D01*
X158756429Y-127920714D01*
X158794524Y-127844524D01*
X158832619Y-127692143D01*
X158832619Y-127501667D01*
X158794524Y-127349286D01*
X158756429Y-127273095D01*
X158718333Y-127235000D01*
X158642143Y-127196905D01*
X157880238Y-127196905D02*
X157804047Y-127196905D01*
X157727857Y-127235000D01*
X157689762Y-127273095D01*
X157651666Y-127349286D01*
X157613571Y-127501667D01*
X157613571Y-127692143D01*
X157651666Y-127844524D01*
X157689762Y-127920714D01*
X157727857Y-127958810D01*
X157804047Y-127996905D01*
X157880238Y-127996905D01*
X157956428Y-127958810D01*
X157994524Y-127920714D01*
X158032619Y-127844524D01*
X158070714Y-127692143D01*
X158070714Y-127501667D01*
X158032619Y-127349286D01*
X157994524Y-127273095D01*
X157956428Y-127235000D01*
X157880238Y-127196905D01*
X161156429Y-125418810D02*
X161042143Y-125456905D01*
X160851667Y-125456905D01*
X160775477Y-125418810D01*
X160737381Y-125380714D01*
X160699286Y-125304524D01*
X160699286Y-125228333D01*
X160737381Y-125152143D01*
X160775477Y-125114048D01*
X160851667Y-125075952D01*
X161004048Y-125037857D01*
X161080239Y-124999762D01*
X161118334Y-124961667D01*
X161156429Y-124885476D01*
X161156429Y-124809286D01*
X161118334Y-124733095D01*
X161080239Y-124695000D01*
X161004048Y-124656905D01*
X160813572Y-124656905D01*
X160699286Y-124695000D01*
X160927858Y-124542619D02*
X160927858Y-125571190D01*
X160089762Y-125037857D02*
X159975476Y-125075952D01*
X159937381Y-125114048D01*
X159899286Y-125190238D01*
X159899286Y-125304524D01*
X159937381Y-125380714D01*
X159975476Y-125418810D01*
X160051667Y-125456905D01*
X160356429Y-125456905D01*
X160356429Y-124656905D01*
X160089762Y-124656905D01*
X160013572Y-124695000D01*
X159975476Y-124733095D01*
X159937381Y-124809286D01*
X159937381Y-124885476D01*
X159975476Y-124961667D01*
X160013572Y-124999762D01*
X160089762Y-125037857D01*
X160356429Y-125037857D01*
X159404048Y-124656905D02*
X159327857Y-124656905D01*
X159251667Y-124695000D01*
X159213572Y-124733095D01*
X159175476Y-124809286D01*
X159137381Y-124961667D01*
X159137381Y-125152143D01*
X159175476Y-125304524D01*
X159213572Y-125380714D01*
X159251667Y-125418810D01*
X159327857Y-125456905D01*
X159404048Y-125456905D01*
X159480238Y-125418810D01*
X159518334Y-125380714D01*
X159556429Y-125304524D01*
X159594524Y-125152143D01*
X159594524Y-124961667D01*
X159556429Y-124809286D01*
X159518334Y-124733095D01*
X159480238Y-124695000D01*
X159404048Y-124656905D01*
X158642143Y-124656905D02*
X158565952Y-124656905D01*
X158489762Y-124695000D01*
X158451667Y-124733095D01*
X158413571Y-124809286D01*
X158375476Y-124961667D01*
X158375476Y-125152143D01*
X158413571Y-125304524D01*
X158451667Y-125380714D01*
X158489762Y-125418810D01*
X158565952Y-125456905D01*
X158642143Y-125456905D01*
X158718333Y-125418810D01*
X158756429Y-125380714D01*
X158794524Y-125304524D01*
X158832619Y-125152143D01*
X158832619Y-124961667D01*
X158794524Y-124809286D01*
X158756429Y-124733095D01*
X158718333Y-124695000D01*
X158642143Y-124656905D01*
X157880238Y-124656905D02*
X157804047Y-124656905D01*
X157727857Y-124695000D01*
X157689762Y-124733095D01*
X157651666Y-124809286D01*
X157613571Y-124961667D01*
X157613571Y-125152143D01*
X157651666Y-125304524D01*
X157689762Y-125380714D01*
X157727857Y-125418810D01*
X157804047Y-125456905D01*
X157880238Y-125456905D01*
X157956428Y-125418810D01*
X157994524Y-125380714D01*
X158032619Y-125304524D01*
X158070714Y-125152143D01*
X158070714Y-124961667D01*
X158032619Y-124809286D01*
X157994524Y-124733095D01*
X157956428Y-124695000D01*
X157880238Y-124656905D01*
X161099286Y-122878810D02*
X160985000Y-122916905D01*
X160794524Y-122916905D01*
X160718334Y-122878810D01*
X160680238Y-122840714D01*
X160642143Y-122764524D01*
X160642143Y-122688333D01*
X160680238Y-122612143D01*
X160718334Y-122574048D01*
X160794524Y-122535952D01*
X160946905Y-122497857D01*
X161023096Y-122459762D01*
X161061191Y-122421667D01*
X161099286Y-122345476D01*
X161099286Y-122269286D01*
X161061191Y-122193095D01*
X161023096Y-122155000D01*
X160946905Y-122116905D01*
X160756429Y-122116905D01*
X160642143Y-122155000D01*
X160870715Y-122002619D02*
X160870715Y-123031190D01*
X160337381Y-122688333D02*
X159956429Y-122688333D01*
X160413572Y-122916905D02*
X160146905Y-122116905D01*
X159880238Y-122916905D01*
X159461191Y-122116905D02*
X159385000Y-122116905D01*
X159308810Y-122155000D01*
X159270715Y-122193095D01*
X159232619Y-122269286D01*
X159194524Y-122421667D01*
X159194524Y-122612143D01*
X159232619Y-122764524D01*
X159270715Y-122840714D01*
X159308810Y-122878810D01*
X159385000Y-122916905D01*
X159461191Y-122916905D01*
X159537381Y-122878810D01*
X159575477Y-122840714D01*
X159613572Y-122764524D01*
X159651667Y-122612143D01*
X159651667Y-122421667D01*
X159613572Y-122269286D01*
X159575477Y-122193095D01*
X159537381Y-122155000D01*
X159461191Y-122116905D01*
X158699286Y-122116905D02*
X158623095Y-122116905D01*
X158546905Y-122155000D01*
X158508810Y-122193095D01*
X158470714Y-122269286D01*
X158432619Y-122421667D01*
X158432619Y-122612143D01*
X158470714Y-122764524D01*
X158508810Y-122840714D01*
X158546905Y-122878810D01*
X158623095Y-122916905D01*
X158699286Y-122916905D01*
X158775476Y-122878810D01*
X158813572Y-122840714D01*
X158851667Y-122764524D01*
X158889762Y-122612143D01*
X158889762Y-122421667D01*
X158851667Y-122269286D01*
X158813572Y-122193095D01*
X158775476Y-122155000D01*
X158699286Y-122116905D01*
X157937381Y-122116905D02*
X157861190Y-122116905D01*
X157785000Y-122155000D01*
X157746905Y-122193095D01*
X157708809Y-122269286D01*
X157670714Y-122421667D01*
X157670714Y-122612143D01*
X157708809Y-122764524D01*
X157746905Y-122840714D01*
X157785000Y-122878810D01*
X157861190Y-122916905D01*
X157937381Y-122916905D01*
X158013571Y-122878810D01*
X158051667Y-122840714D01*
X158089762Y-122764524D01*
X158127857Y-122612143D01*
X158127857Y-122421667D01*
X158089762Y-122269286D01*
X158051667Y-122193095D01*
X158013571Y-122155000D01*
X157937381Y-122116905D01*
X161137381Y-120338810D02*
X161023095Y-120376905D01*
X160832619Y-120376905D01*
X160756429Y-120338810D01*
X160718333Y-120300714D01*
X160680238Y-120224524D01*
X160680238Y-120148333D01*
X160718333Y-120072143D01*
X160756429Y-120034048D01*
X160832619Y-119995952D01*
X160985000Y-119957857D01*
X161061191Y-119919762D01*
X161099286Y-119881667D01*
X161137381Y-119805476D01*
X161137381Y-119729286D01*
X161099286Y-119653095D01*
X161061191Y-119615000D01*
X160985000Y-119576905D01*
X160794524Y-119576905D01*
X160680238Y-119615000D01*
X160908810Y-119462619D02*
X160908810Y-120491190D01*
X160299286Y-120376905D02*
X160146905Y-120376905D01*
X160070714Y-120338810D01*
X160032619Y-120300714D01*
X159956428Y-120186429D01*
X159918333Y-120034048D01*
X159918333Y-119729286D01*
X159956428Y-119653095D01*
X159994524Y-119615000D01*
X160070714Y-119576905D01*
X160223095Y-119576905D01*
X160299286Y-119615000D01*
X160337381Y-119653095D01*
X160375476Y-119729286D01*
X160375476Y-119919762D01*
X160337381Y-119995952D01*
X160299286Y-120034048D01*
X160223095Y-120072143D01*
X160070714Y-120072143D01*
X159994524Y-120034048D01*
X159956428Y-119995952D01*
X159918333Y-119919762D01*
X159423095Y-119576905D02*
X159346904Y-119576905D01*
X159270714Y-119615000D01*
X159232619Y-119653095D01*
X159194523Y-119729286D01*
X159156428Y-119881667D01*
X159156428Y-120072143D01*
X159194523Y-120224524D01*
X159232619Y-120300714D01*
X159270714Y-120338810D01*
X159346904Y-120376905D01*
X159423095Y-120376905D01*
X159499285Y-120338810D01*
X159537381Y-120300714D01*
X159575476Y-120224524D01*
X159613571Y-120072143D01*
X159613571Y-119881667D01*
X159575476Y-119729286D01*
X159537381Y-119653095D01*
X159499285Y-119615000D01*
X159423095Y-119576905D01*
X158661190Y-119576905D02*
X158584999Y-119576905D01*
X158508809Y-119615000D01*
X158470714Y-119653095D01*
X158432618Y-119729286D01*
X158394523Y-119881667D01*
X158394523Y-120072143D01*
X158432618Y-120224524D01*
X158470714Y-120300714D01*
X158508809Y-120338810D01*
X158584999Y-120376905D01*
X158661190Y-120376905D01*
X158737380Y-120338810D01*
X158775476Y-120300714D01*
X158813571Y-120224524D01*
X158851666Y-120072143D01*
X158851666Y-119881667D01*
X158813571Y-119729286D01*
X158775476Y-119653095D01*
X158737380Y-119615000D01*
X158661190Y-119576905D01*
X157899285Y-119576905D02*
X157823094Y-119576905D01*
X157746904Y-119615000D01*
X157708809Y-119653095D01*
X157670713Y-119729286D01*
X157632618Y-119881667D01*
X157632618Y-120072143D01*
X157670713Y-120224524D01*
X157708809Y-120300714D01*
X157746904Y-120338810D01*
X157823094Y-120376905D01*
X157899285Y-120376905D01*
X157975475Y-120338810D01*
X158013571Y-120300714D01*
X158051666Y-120224524D01*
X158089761Y-120072143D01*
X158089761Y-119881667D01*
X158051666Y-119729286D01*
X158013571Y-119653095D01*
X157975475Y-119615000D01*
X157899285Y-119576905D01*
X161137381Y-117798810D02*
X161023095Y-117836905D01*
X160832619Y-117836905D01*
X160756429Y-117798810D01*
X160718333Y-117760714D01*
X160680238Y-117684524D01*
X160680238Y-117608333D01*
X160718333Y-117532143D01*
X160756429Y-117494048D01*
X160832619Y-117455952D01*
X160985000Y-117417857D01*
X161061191Y-117379762D01*
X161099286Y-117341667D01*
X161137381Y-117265476D01*
X161137381Y-117189286D01*
X161099286Y-117113095D01*
X161061191Y-117075000D01*
X160985000Y-117036905D01*
X160794524Y-117036905D01*
X160680238Y-117075000D01*
X160908810Y-116922619D02*
X160908810Y-117951190D01*
X160223095Y-117379762D02*
X160299286Y-117341667D01*
X160337381Y-117303571D01*
X160375476Y-117227381D01*
X160375476Y-117189286D01*
X160337381Y-117113095D01*
X160299286Y-117075000D01*
X160223095Y-117036905D01*
X160070714Y-117036905D01*
X159994524Y-117075000D01*
X159956428Y-117113095D01*
X159918333Y-117189286D01*
X159918333Y-117227381D01*
X159956428Y-117303571D01*
X159994524Y-117341667D01*
X160070714Y-117379762D01*
X160223095Y-117379762D01*
X160299286Y-117417857D01*
X160337381Y-117455952D01*
X160375476Y-117532143D01*
X160375476Y-117684524D01*
X160337381Y-117760714D01*
X160299286Y-117798810D01*
X160223095Y-117836905D01*
X160070714Y-117836905D01*
X159994524Y-117798810D01*
X159956428Y-117760714D01*
X159918333Y-117684524D01*
X159918333Y-117532143D01*
X159956428Y-117455952D01*
X159994524Y-117417857D01*
X160070714Y-117379762D01*
X159423095Y-117036905D02*
X159346904Y-117036905D01*
X159270714Y-117075000D01*
X159232619Y-117113095D01*
X159194523Y-117189286D01*
X159156428Y-117341667D01*
X159156428Y-117532143D01*
X159194523Y-117684524D01*
X159232619Y-117760714D01*
X159270714Y-117798810D01*
X159346904Y-117836905D01*
X159423095Y-117836905D01*
X159499285Y-117798810D01*
X159537381Y-117760714D01*
X159575476Y-117684524D01*
X159613571Y-117532143D01*
X159613571Y-117341667D01*
X159575476Y-117189286D01*
X159537381Y-117113095D01*
X159499285Y-117075000D01*
X159423095Y-117036905D01*
X158661190Y-117036905D02*
X158584999Y-117036905D01*
X158508809Y-117075000D01*
X158470714Y-117113095D01*
X158432618Y-117189286D01*
X158394523Y-117341667D01*
X158394523Y-117532143D01*
X158432618Y-117684524D01*
X158470714Y-117760714D01*
X158508809Y-117798810D01*
X158584999Y-117836905D01*
X158661190Y-117836905D01*
X158737380Y-117798810D01*
X158775476Y-117760714D01*
X158813571Y-117684524D01*
X158851666Y-117532143D01*
X158851666Y-117341667D01*
X158813571Y-117189286D01*
X158775476Y-117113095D01*
X158737380Y-117075000D01*
X158661190Y-117036905D01*
X157899285Y-117036905D02*
X157823094Y-117036905D01*
X157746904Y-117075000D01*
X157708809Y-117113095D01*
X157670713Y-117189286D01*
X157632618Y-117341667D01*
X157632618Y-117532143D01*
X157670713Y-117684524D01*
X157708809Y-117760714D01*
X157746904Y-117798810D01*
X157823094Y-117836905D01*
X157899285Y-117836905D01*
X157975475Y-117798810D01*
X158013571Y-117760714D01*
X158051666Y-117684524D01*
X158089761Y-117532143D01*
X158089761Y-117341667D01*
X158051666Y-117189286D01*
X158013571Y-117113095D01*
X157975475Y-117075000D01*
X157899285Y-117036905D01*
D13*
X169765001Y-139743571D02*
X169765001Y-138243571D01*
X169122144Y-139743571D02*
X169122144Y-138957857D01*
X169193573Y-138815000D01*
X169336430Y-138743571D01*
X169550715Y-138743571D01*
X169693573Y-138815000D01*
X169765001Y-138886429D01*
X168622144Y-138743571D02*
X168050715Y-138743571D01*
X168407858Y-138243571D02*
X168407858Y-139529286D01*
X168336430Y-139672143D01*
X168193572Y-139743571D01*
X168050715Y-139743571D01*
X167765001Y-138743571D02*
X167193572Y-138743571D01*
X167550715Y-138243571D02*
X167550715Y-139529286D01*
X167479287Y-139672143D01*
X167336429Y-139743571D01*
X167193572Y-139743571D01*
X166693572Y-138743571D02*
X166693572Y-140243571D01*
X166693572Y-138815000D02*
X166550715Y-138743571D01*
X166265001Y-138743571D01*
X166122144Y-138815000D01*
X166050715Y-138886429D01*
X165979286Y-139029286D01*
X165979286Y-139457857D01*
X166050715Y-139600714D01*
X166122144Y-139672143D01*
X166265001Y-139743571D01*
X166550715Y-139743571D01*
X166693572Y-139672143D01*
X165407858Y-139672143D02*
X165265001Y-139743571D01*
X164979286Y-139743571D01*
X164836429Y-139672143D01*
X164765001Y-139529286D01*
X164765001Y-139457857D01*
X164836429Y-139315000D01*
X164979286Y-139243571D01*
X165193572Y-139243571D01*
X165336429Y-139172143D01*
X165407858Y-139029286D01*
X165407858Y-138957857D01*
X165336429Y-138815000D01*
X165193572Y-138743571D01*
X164979286Y-138743571D01*
X164836429Y-138815000D01*
X164122143Y-139600714D02*
X164050715Y-139672143D01*
X164122143Y-139743571D01*
X164193572Y-139672143D01*
X164122143Y-139600714D01*
X164122143Y-139743571D01*
X164122143Y-138815000D02*
X164050715Y-138886429D01*
X164122143Y-138957857D01*
X164193572Y-138886429D01*
X164122143Y-138815000D01*
X164122143Y-138957857D01*
X162336429Y-138172143D02*
X163622143Y-140100714D01*
X160765000Y-138172143D02*
X162050714Y-140100714D01*
X160264999Y-139743571D02*
X160264999Y-138243571D01*
X159622142Y-139743571D02*
X159622142Y-138957857D01*
X159693571Y-138815000D01*
X159836428Y-138743571D01*
X160050713Y-138743571D01*
X160193571Y-138815000D01*
X160264999Y-138886429D01*
X159050713Y-138743571D02*
X158693570Y-139743571D01*
X158336428Y-138743571D01*
X157193571Y-139672143D02*
X157336428Y-139743571D01*
X157622142Y-139743571D01*
X157764999Y-139672143D01*
X157836428Y-139529286D01*
X157836428Y-138957857D01*
X157764999Y-138815000D01*
X157622142Y-138743571D01*
X157336428Y-138743571D01*
X157193571Y-138815000D01*
X157122142Y-138957857D01*
X157122142Y-139100714D01*
X157836428Y-139243571D01*
X156693571Y-138743571D02*
X156122142Y-138743571D01*
X156479285Y-138243571D02*
X156479285Y-139529286D01*
X156407857Y-139672143D01*
X156264999Y-139743571D01*
X156122142Y-139743571D01*
X155050714Y-139672143D02*
X155193571Y-139743571D01*
X155479285Y-139743571D01*
X155622142Y-139672143D01*
X155693571Y-139529286D01*
X155693571Y-138957857D01*
X155622142Y-138815000D01*
X155479285Y-138743571D01*
X155193571Y-138743571D01*
X155050714Y-138815000D01*
X154979285Y-138957857D01*
X154979285Y-139100714D01*
X155693571Y-139243571D01*
X154336428Y-139743571D02*
X154336428Y-138243571D01*
X154336428Y-138815000D02*
X154193571Y-138743571D01*
X153907857Y-138743571D01*
X153765000Y-138815000D01*
X153693571Y-138886429D01*
X153622142Y-139029286D01*
X153622142Y-139457857D01*
X153693571Y-139600714D01*
X153765000Y-139672143D01*
X153907857Y-139743571D01*
X154193571Y-139743571D01*
X154336428Y-139672143D01*
X152764999Y-139743571D02*
X152907857Y-139672143D01*
X152979285Y-139600714D01*
X153050714Y-139457857D01*
X153050714Y-139029286D01*
X152979285Y-138886429D01*
X152907857Y-138815000D01*
X152764999Y-138743571D01*
X152550714Y-138743571D01*
X152407857Y-138815000D01*
X152336428Y-138886429D01*
X152264999Y-139029286D01*
X152264999Y-139457857D01*
X152336428Y-139600714D01*
X152407857Y-139672143D01*
X152550714Y-139743571D01*
X152764999Y-139743571D01*
X151407856Y-139743571D02*
X151550714Y-139672143D01*
X151622142Y-139529286D01*
X151622142Y-138243571D01*
X150622142Y-139743571D02*
X150765000Y-139672143D01*
X150836428Y-139529286D01*
X150836428Y-138243571D01*
X149479286Y-139672143D02*
X149622143Y-139743571D01*
X149907857Y-139743571D01*
X150050714Y-139672143D01*
X150122143Y-139529286D01*
X150122143Y-138957857D01*
X150050714Y-138815000D01*
X149907857Y-138743571D01*
X149622143Y-138743571D01*
X149479286Y-138815000D01*
X149407857Y-138957857D01*
X149407857Y-139100714D01*
X150122143Y-139243571D01*
X148765000Y-139600714D02*
X148693572Y-139672143D01*
X148765000Y-139743571D01*
X148836429Y-139672143D01*
X148765000Y-139600714D01*
X148765000Y-139743571D01*
X148050714Y-139743571D02*
X148050714Y-138243571D01*
X148050714Y-138815000D02*
X147907857Y-138743571D01*
X147622143Y-138743571D01*
X147479286Y-138815000D01*
X147407857Y-138886429D01*
X147336428Y-139029286D01*
X147336428Y-139457857D01*
X147407857Y-139600714D01*
X147479286Y-139672143D01*
X147622143Y-139743571D01*
X147907857Y-139743571D01*
X148050714Y-139672143D01*
X146479285Y-139743571D02*
X146622143Y-139672143D01*
X146693571Y-139529286D01*
X146693571Y-138243571D01*
X145693571Y-139743571D02*
X145836429Y-139672143D01*
X145907857Y-139600714D01*
X145979286Y-139457857D01*
X145979286Y-139029286D01*
X145907857Y-138886429D01*
X145836429Y-138815000D01*
X145693571Y-138743571D01*
X145479286Y-138743571D01*
X145336429Y-138815000D01*
X145265000Y-138886429D01*
X145193571Y-139029286D01*
X145193571Y-139457857D01*
X145265000Y-139600714D01*
X145336429Y-139672143D01*
X145479286Y-139743571D01*
X145693571Y-139743571D01*
X143907857Y-138743571D02*
X143907857Y-139957857D01*
X143979286Y-140100714D01*
X144050714Y-140172143D01*
X144193571Y-140243571D01*
X144407857Y-140243571D01*
X144550714Y-140172143D01*
X143907857Y-139672143D02*
X144050714Y-139743571D01*
X144336428Y-139743571D01*
X144479286Y-139672143D01*
X144550714Y-139600714D01*
X144622143Y-139457857D01*
X144622143Y-139029286D01*
X144550714Y-138886429D01*
X144479286Y-138815000D01*
X144336428Y-138743571D01*
X144050714Y-138743571D01*
X143907857Y-138815000D01*
X143265000Y-139672143D02*
X143122143Y-139743571D01*
X142836428Y-139743571D01*
X142693571Y-139672143D01*
X142622143Y-139529286D01*
X142622143Y-139457857D01*
X142693571Y-139315000D01*
X142836428Y-139243571D01*
X143050714Y-139243571D01*
X143193571Y-139172143D01*
X143265000Y-139029286D01*
X143265000Y-138957857D01*
X143193571Y-138815000D01*
X143050714Y-138743571D01*
X142836428Y-138743571D01*
X142693571Y-138815000D01*
X141979285Y-138743571D02*
X141979285Y-140243571D01*
X141979285Y-138815000D02*
X141836428Y-138743571D01*
X141550714Y-138743571D01*
X141407857Y-138815000D01*
X141336428Y-138886429D01*
X141264999Y-139029286D01*
X141264999Y-139457857D01*
X141336428Y-139600714D01*
X141407857Y-139672143D01*
X141550714Y-139743571D01*
X141836428Y-139743571D01*
X141979285Y-139672143D01*
X140407856Y-139743571D02*
X140550714Y-139672143D01*
X140622142Y-139600714D01*
X140693571Y-139457857D01*
X140693571Y-139029286D01*
X140622142Y-138886429D01*
X140550714Y-138815000D01*
X140407856Y-138743571D01*
X140193571Y-138743571D01*
X140050714Y-138815000D01*
X139979285Y-138886429D01*
X139907856Y-139029286D01*
X139907856Y-139457857D01*
X139979285Y-139600714D01*
X140050714Y-139672143D01*
X140193571Y-139743571D01*
X140407856Y-139743571D01*
X139479285Y-138743571D02*
X138907856Y-138743571D01*
X139264999Y-138243571D02*
X139264999Y-139529286D01*
X139193571Y-139672143D01*
X139050713Y-139743571D01*
X138907856Y-139743571D01*
X138407856Y-139600714D02*
X138336428Y-139672143D01*
X138407856Y-139743571D01*
X138479285Y-139672143D01*
X138407856Y-139600714D01*
X138407856Y-139743571D01*
X137050713Y-139672143D02*
X137193570Y-139743571D01*
X137479284Y-139743571D01*
X137622142Y-139672143D01*
X137693570Y-139600714D01*
X137764999Y-139457857D01*
X137764999Y-139029286D01*
X137693570Y-138886429D01*
X137622142Y-138815000D01*
X137479284Y-138743571D01*
X137193570Y-138743571D01*
X137050713Y-138815000D01*
X136193570Y-139743571D02*
X136336428Y-139672143D01*
X136407856Y-139600714D01*
X136479285Y-139457857D01*
X136479285Y-139029286D01*
X136407856Y-138886429D01*
X136336428Y-138815000D01*
X136193570Y-138743571D01*
X135979285Y-138743571D01*
X135836428Y-138815000D01*
X135764999Y-138886429D01*
X135693570Y-139029286D01*
X135693570Y-139457857D01*
X135764999Y-139600714D01*
X135836428Y-139672143D01*
X135979285Y-139743571D01*
X136193570Y-139743571D01*
X135050713Y-139743571D02*
X135050713Y-138743571D01*
X135050713Y-138886429D02*
X134979285Y-138815000D01*
X134836427Y-138743571D01*
X134622142Y-138743571D01*
X134479285Y-138815000D01*
X134407856Y-138957857D01*
X134407856Y-139743571D01*
X134407856Y-138957857D02*
X134336427Y-138815000D01*
X134193570Y-138743571D01*
X133979285Y-138743571D01*
X133836427Y-138815000D01*
X133764999Y-138957857D01*
X133764999Y-139743571D01*
M02*
