M48
;DRILL file {KiCad 4.0.7} date 06/23/19 18:06:48
;FORMAT={2:4/ absolute / inch / suppress leading zeros}
FMAT,2
INCH,TZ
T1C0.016
T2C0.031
T3C0.039
T4C0.047
%
G90
G05
M72
T1
X30250Y-48500
X32250Y-46750
X32250Y-48250
X32250Y-49750
X32250Y-51000
X32500Y-48000
X33000Y-45500
X33250Y-45750
X33500Y-50000
X34000Y-45500
X35250Y-46750
X35500Y-50000
X36750Y-51750
X37000Y-49000
X37250Y-48000
X38250Y-45250
X38750Y-52750
X40500Y-53000
X42250Y-52500
X42500Y-52250
X42750Y-51750
X42750Y-52500
X43000Y-50750
X43000Y-51250
X43000Y-52250
X43250Y-46750
X43250Y-47750
X43250Y-50250
X43250Y-52500
X43500Y-47000
X43500Y-52250
X43750Y-45750
X43750Y-52750
X45500Y-47750
X50000Y-54500
X50500Y-54250
X50500Y-54750
X51250Y-48250
X51250Y-51250
X52250Y-54250
X52500Y-54750
X52750Y-54500
X63250Y-45500
X64250Y-45500
T2
X30750Y-54500
X31250Y-36000
X31250Y-42000
X31250Y-46250
X31250Y-47250
X31250Y-48250
X31250Y-49250
X31250Y-50250
X31250Y-51250
X31250Y-52250
X31250Y-53250
X31750Y-44750
X33719Y-44750
X34250Y-36000
X34250Y-42000
X34250Y-46250
X34250Y-47250
X34250Y-48250
X34250Y-49250
X34250Y-50250
X34250Y-51250
X34250Y-52250
X34250Y-53250
X34750Y-54500
X36250Y-44250
X36250Y-45250
X36250Y-46250
X36250Y-47250
X36250Y-48250
X36250Y-49250
X36250Y-50250
X36250Y-51250
X36250Y-52250
X36250Y-53250
X36750Y-42750
X37016Y-38250
X38000Y-38250
X38719Y-42750
X39250Y-44250
X39250Y-45250
X39250Y-46250
X39250Y-47250
X39250Y-48250
X39250Y-49250
X39250Y-50250
X39250Y-51250
X39250Y-52250
X39250Y-53250
X39750Y-37250
X39750Y-38250
X39750Y-39250
X39750Y-40250
X40281Y-35750
X41250Y-44250
X41250Y-45250
X41250Y-46250
X41250Y-47250
X41250Y-48250
X41250Y-49250
X41250Y-50250
X41250Y-51250
X41250Y-52250
X41250Y-53250
X41750Y-42750
X42250Y-35750
X42750Y-37250
X42750Y-38250
X42750Y-39250
X42750Y-40250
X43719Y-42750
X44031Y-40250
X44250Y-44250
X44250Y-45250
X44250Y-46250
X44250Y-47250
X44250Y-48250
X44250Y-49250
X44250Y-50250
X44250Y-51250
X44250Y-52250
X44250Y-53250
X44500Y-38250
X45484Y-38250
X46000Y-40250
X46250Y-44250
X46250Y-45250
X46250Y-46250
X46250Y-47250
X46250Y-48250
X46250Y-49250
X46250Y-50250
X46250Y-51250
X46250Y-52250
X46250Y-53250
X46750Y-42750
X48719Y-42750
X49250Y-44250
X49250Y-45250
X49250Y-46250
X49250Y-47250
X49250Y-48250
X49250Y-49250
X49250Y-50250
X49250Y-51250
X49250Y-52250
X49250Y-53250
X53000Y-46250
X53000Y-47250
X53000Y-48250
X53000Y-49250
X53000Y-50250
X53000Y-51250
X53000Y-52250
X53000Y-53250
X53500Y-44750
X55469Y-44750
X56000Y-46250
X56000Y-47250
X56000Y-48250
X56000Y-49250
X56000Y-50250
X56000Y-51250
X56000Y-52250
X56000Y-53250
X61250Y-46250
X61250Y-47250
X61250Y-48250
X61250Y-49250
X61250Y-50250
X61250Y-51250
X61250Y-52250
X61250Y-53250
X61750Y-44750
X62250Y-41254
X62250Y-42750
X63719Y-44750
X64250Y-46250
X64250Y-47250
X64250Y-48250
X64250Y-49250
X64250Y-50250
X64250Y-51250
X64250Y-52250
X64250Y-53250
T3
X30500Y-55750
X31500Y-55750
X32500Y-55750
X33500Y-55750
X34500Y-55750
X35500Y-55750
X36500Y-55750
X37000Y-35750
X37500Y-55750
X38000Y-35750
X38500Y-55750
X39500Y-55750
X40500Y-55750
X41500Y-55750
X42500Y-55750
X43500Y-55750
X44500Y-35750
X44500Y-55750
X45500Y-35750
X45500Y-55750
X46500Y-55750
X47500Y-55750
X48384Y-37384
X48500Y-55750
X49500Y-55750
X50500Y-39500
X50500Y-55750
X51500Y-55750
X52500Y-55750
X53500Y-55750
X54500Y-55750
X55500Y-55750
X56500Y-55750
X57500Y-55750
X57750Y-46250
X57750Y-47250
X57750Y-48250
X57750Y-49250
X57750Y-50250
X57750Y-51250
X57750Y-52250
X57750Y-53250
X58500Y-55750
X58750Y-46250
X58750Y-47250
X58750Y-48250
X58750Y-49250
X58750Y-50250
X58750Y-51250
X58750Y-52250
X58750Y-53250
X59500Y-55750
X60500Y-55750
X61500Y-55750
X62500Y-55750
X63500Y-55750
X64500Y-55750
X65500Y-55750
X66000Y-46250
X66000Y-47250
X66000Y-48250
X66000Y-49250
X66000Y-50250
X66000Y-51250
X66000Y-52250
X66000Y-53250
X66500Y-55750
X67000Y-46250
X67000Y-47250
X67000Y-48250
X67000Y-49250
X67000Y-50250
X67000Y-51250
X67000Y-52250
X67000Y-53250
X67500Y-55750
X68500Y-46250
X68500Y-47250
X68500Y-55750
T4
X65657Y-40531
X65657Y-41516
X65657Y-43484
X65657Y-44469
X67628Y-42500
T0
M30
