G04 #@! TF.FileFunction,Copper,L1,Top,Signal*
%FSLAX46Y46*%
G04 Gerber Fmt 4.6, Leading zero omitted, Abs format (unit mm)*
G04 Created by KiCad (PCBNEW 4.0.7) date 06/26/19 17:32:02*
%MOMM*%
%LPD*%
G01*
G04 APERTURE LIST*
%ADD10C,0.100000*%
%ADD11R,1.600000X1.600000*%
%ADD12O,1.600000X1.600000*%
%ADD13C,1.600000*%
%ADD14R,1.700000X1.700000*%
%ADD15O,1.700000X1.700000*%
%ADD16C,2.000000*%
%ADD17R,2.500000X3.500000*%
%ADD18O,3.500000X1.750000*%
%ADD19C,0.600000*%
%ADD20C,0.250000*%
G04 APERTURE END LIST*
D10*
D11*
X100965000Y-94615000D03*
D12*
X108585000Y-102235000D03*
X100965000Y-97155000D03*
X108585000Y-99695000D03*
X100965000Y-99695000D03*
X108585000Y-97155000D03*
X100965000Y-102235000D03*
X108585000Y-94615000D03*
D13*
X107315000Y-90805000D03*
X102315000Y-90805000D03*
X116840000Y-102235000D03*
X111840000Y-102235000D03*
D11*
X158115000Y-108585000D03*
D13*
X158115000Y-104785000D03*
D14*
X146685000Y-117475000D03*
D15*
X149225000Y-117475000D03*
X146685000Y-120015000D03*
X149225000Y-120015000D03*
X146685000Y-122555000D03*
X149225000Y-122555000D03*
X146685000Y-125095000D03*
X149225000Y-125095000D03*
X146685000Y-127635000D03*
X149225000Y-127635000D03*
X146685000Y-130175000D03*
X149225000Y-130175000D03*
X146685000Y-132715000D03*
X149225000Y-132715000D03*
X146685000Y-135255000D03*
X149225000Y-135255000D03*
D14*
X167640000Y-117475000D03*
D15*
X170180000Y-117475000D03*
X167640000Y-120015000D03*
X170180000Y-120015000D03*
X167640000Y-122555000D03*
X170180000Y-122555000D03*
X167640000Y-125095000D03*
X170180000Y-125095000D03*
X167640000Y-127635000D03*
X170180000Y-127635000D03*
X167640000Y-130175000D03*
X170180000Y-130175000D03*
X167640000Y-132715000D03*
X170180000Y-132715000D03*
X167640000Y-135255000D03*
X170180000Y-135255000D03*
D14*
X173990000Y-141605000D03*
D15*
X171450000Y-141605000D03*
X168910000Y-141605000D03*
X166370000Y-141605000D03*
X163830000Y-141605000D03*
X161290000Y-141605000D03*
X158750000Y-141605000D03*
X156210000Y-141605000D03*
X153670000Y-141605000D03*
X151130000Y-141605000D03*
X148590000Y-141605000D03*
X146050000Y-141605000D03*
X143510000Y-141605000D03*
X140970000Y-141605000D03*
X138430000Y-141605000D03*
X135890000Y-141605000D03*
X133350000Y-141605000D03*
X130810000Y-141605000D03*
X128270000Y-141605000D03*
X125730000Y-141605000D03*
X123190000Y-141605000D03*
X120650000Y-141605000D03*
X118110000Y-141605000D03*
X115570000Y-141605000D03*
X113030000Y-141605000D03*
X110490000Y-141605000D03*
X107950000Y-141605000D03*
X105410000Y-141605000D03*
X102870000Y-141605000D03*
X100330000Y-141605000D03*
X97790000Y-141605000D03*
X95250000Y-141605000D03*
X92710000Y-141605000D03*
X90170000Y-141605000D03*
X87630000Y-141605000D03*
X85090000Y-141605000D03*
X82550000Y-141605000D03*
X80010000Y-141605000D03*
X77470000Y-141605000D03*
D14*
X113030000Y-90805000D03*
D15*
X115570000Y-90805000D03*
D10*
G36*
X129684214Y-100330000D02*
X128270000Y-101744214D01*
X126855786Y-100330000D01*
X128270000Y-98915786D01*
X129684214Y-100330000D01*
X129684214Y-100330000D01*
G37*
D16*
X122895988Y-94955988D03*
D13*
X88265000Y-138430000D03*
D12*
X78105000Y-138430000D03*
D11*
X79375000Y-117475000D03*
D12*
X86995000Y-135255000D03*
X79375000Y-120015000D03*
X86995000Y-132715000D03*
X79375000Y-122555000D03*
X86995000Y-130175000D03*
X79375000Y-125095000D03*
X86995000Y-127635000D03*
X79375000Y-127635000D03*
X86995000Y-125095000D03*
X79375000Y-130175000D03*
X86995000Y-122555000D03*
X79375000Y-132715000D03*
X86995000Y-120015000D03*
X79375000Y-135255000D03*
X86995000Y-117475000D03*
D11*
X86995000Y-106680000D03*
D13*
X79375000Y-106680000D03*
X79375000Y-91440000D03*
X86995000Y-91440000D03*
D17*
X171776000Y-107950000D03*
D18*
X166770000Y-112950000D03*
X166770000Y-102950000D03*
X166770000Y-110450000D03*
X166770000Y-105450000D03*
D13*
X118745000Y-108585000D03*
X123745000Y-108585000D03*
X135890000Y-113665000D03*
X140890000Y-113665000D03*
X156845000Y-113665000D03*
X161845000Y-113665000D03*
X80645000Y-113665000D03*
X85645000Y-113665000D03*
X93345000Y-108585000D03*
X98345000Y-108585000D03*
D14*
X93980000Y-90805000D03*
D15*
X96520000Y-90805000D03*
D14*
X173990000Y-117475000D03*
D15*
X173990000Y-120015000D03*
D11*
X96520000Y-97155000D03*
D13*
X94020000Y-97155000D03*
D11*
X113030000Y-97155000D03*
D13*
X115530000Y-97155000D03*
X106045000Y-108585000D03*
X111045000Y-108585000D03*
D11*
X117475000Y-112395000D03*
D12*
X125095000Y-135255000D03*
X117475000Y-114935000D03*
X125095000Y-132715000D03*
X117475000Y-117475000D03*
X125095000Y-130175000D03*
X117475000Y-120015000D03*
X125095000Y-127635000D03*
X117475000Y-122555000D03*
X125095000Y-125095000D03*
X117475000Y-125095000D03*
X125095000Y-122555000D03*
X117475000Y-127635000D03*
X125095000Y-120015000D03*
X117475000Y-130175000D03*
X125095000Y-117475000D03*
X117475000Y-132715000D03*
X125095000Y-114935000D03*
X117475000Y-135255000D03*
X125095000Y-112395000D03*
D11*
X134620000Y-117475000D03*
D12*
X142240000Y-135255000D03*
X134620000Y-120015000D03*
X142240000Y-132715000D03*
X134620000Y-122555000D03*
X142240000Y-130175000D03*
X134620000Y-125095000D03*
X142240000Y-127635000D03*
X134620000Y-127635000D03*
X142240000Y-125095000D03*
X134620000Y-130175000D03*
X142240000Y-122555000D03*
X134620000Y-132715000D03*
X142240000Y-120015000D03*
X134620000Y-135255000D03*
X142240000Y-117475000D03*
D11*
X155575000Y-117475000D03*
D12*
X163195000Y-135255000D03*
X155575000Y-120015000D03*
X163195000Y-132715000D03*
X155575000Y-122555000D03*
X163195000Y-130175000D03*
X155575000Y-125095000D03*
X163195000Y-127635000D03*
X155575000Y-127635000D03*
X163195000Y-125095000D03*
X155575000Y-130175000D03*
X163195000Y-122555000D03*
X155575000Y-132715000D03*
X163195000Y-120015000D03*
X155575000Y-135255000D03*
X163195000Y-117475000D03*
D11*
X92075000Y-112395000D03*
D12*
X99695000Y-135255000D03*
X92075000Y-114935000D03*
X99695000Y-132715000D03*
X92075000Y-117475000D03*
X99695000Y-130175000D03*
X92075000Y-120015000D03*
X99695000Y-127635000D03*
X92075000Y-122555000D03*
X99695000Y-125095000D03*
X92075000Y-125095000D03*
X99695000Y-122555000D03*
X92075000Y-127635000D03*
X99695000Y-120015000D03*
X92075000Y-130175000D03*
X99695000Y-117475000D03*
X92075000Y-132715000D03*
X99695000Y-114935000D03*
X92075000Y-135255000D03*
X99695000Y-112395000D03*
D11*
X104775000Y-112395000D03*
D12*
X112395000Y-135255000D03*
X104775000Y-114935000D03*
X112395000Y-132715000D03*
X104775000Y-117475000D03*
X112395000Y-130175000D03*
X104775000Y-120015000D03*
X112395000Y-127635000D03*
X104775000Y-122555000D03*
X112395000Y-125095000D03*
X104775000Y-125095000D03*
X112395000Y-122555000D03*
X104775000Y-127635000D03*
X112395000Y-120015000D03*
X104775000Y-130175000D03*
X112395000Y-117475000D03*
X104775000Y-132715000D03*
X112395000Y-114935000D03*
X104775000Y-135255000D03*
X112395000Y-112395000D03*
D19*
X132715000Y-137795000D03*
X128270000Y-137795000D03*
X160655000Y-115570000D03*
X163195000Y-115570000D03*
X130175000Y-130175000D03*
X130175000Y-122555000D03*
X111125000Y-116205000D03*
X111125000Y-133985000D03*
X110490000Y-119380000D03*
X110490000Y-132715000D03*
X109855000Y-127635000D03*
X109855000Y-133350000D03*
X109220000Y-130175000D03*
X109220000Y-132715000D03*
X108585000Y-131445000D03*
X108585000Y-133350000D03*
X109220000Y-128905000D03*
X107950000Y-132715000D03*
X107315000Y-133350000D03*
X109855000Y-121285000D03*
X109855000Y-118745000D03*
X102870000Y-134620000D03*
X81915000Y-122555000D03*
X76835000Y-123190000D03*
X133350000Y-139065000D03*
X128270000Y-139065000D03*
X127000000Y-138430000D03*
X133985000Y-138430000D03*
X86360000Y-115570000D03*
X83820000Y-115570000D03*
X81915000Y-126365000D03*
X115570000Y-121285000D03*
X81915000Y-129540000D03*
X93980000Y-124460000D03*
X89535000Y-118745000D03*
X81915000Y-118745000D03*
X84455000Y-116205000D03*
X94615000Y-121920000D03*
X97155000Y-114935000D03*
X98425000Y-133985000D03*
X82550000Y-121920000D03*
X90170000Y-127000000D03*
X85090000Y-127000000D03*
X93345000Y-131445000D03*
D20*
X85645000Y-113665000D02*
X85645000Y-117475000D01*
X85645000Y-117475000D02*
X85725000Y-117475000D01*
X85645000Y-113665000D02*
X88265000Y-113665000D01*
X89535000Y-112395000D02*
X88265000Y-113665000D01*
X89535000Y-107315000D02*
X89535000Y-109855000D01*
X89535000Y-107315000D02*
X90170000Y-106680000D01*
X89535000Y-109855000D02*
X89535000Y-112395000D01*
X81915000Y-117475000D02*
X81280000Y-118110000D01*
X81915000Y-117475000D02*
X85725000Y-117475000D01*
X88265000Y-138430000D02*
X81915000Y-138430000D01*
X81280000Y-118110000D02*
X81280000Y-137160000D01*
X81280000Y-137160000D02*
X81280000Y-137795000D01*
X81280000Y-137795000D02*
X81915000Y-138430000D01*
X85725000Y-117475000D02*
X86995000Y-117475000D01*
X79375000Y-106680000D02*
X81280000Y-104775000D01*
X88265000Y-104775000D02*
X90170000Y-106680000D01*
X81280000Y-104775000D02*
X88265000Y-104775000D01*
X107315000Y-99695000D02*
X108585000Y-99695000D01*
X107315000Y-104775000D02*
X109220000Y-106680000D01*
X107315000Y-99060000D02*
X107315000Y-99695000D01*
X107315000Y-99695000D02*
X107315000Y-104775000D01*
X98345000Y-108585000D02*
X98425000Y-108585000D01*
X98425000Y-108585000D02*
X100330000Y-106680000D01*
X111045000Y-108585000D02*
X111125000Y-108585000D01*
X111125000Y-108585000D02*
X113030000Y-106680000D01*
X98345000Y-108585000D02*
X98345000Y-111045000D01*
X98345000Y-111045000D02*
X99695000Y-112395000D01*
X111045000Y-108585000D02*
X111045000Y-111045000D01*
X111045000Y-111045000D02*
X112395000Y-112395000D01*
X123745000Y-108585000D02*
X123745000Y-111045000D01*
X123745000Y-111045000D02*
X125095000Y-112395000D01*
X123745000Y-108585000D02*
X123825000Y-108585000D01*
X123825000Y-108585000D02*
X125730000Y-106680000D01*
X130810000Y-111760000D02*
X130810000Y-110490000D01*
X121920000Y-106680000D02*
X125730000Y-106680000D01*
X125730000Y-106680000D02*
X129540000Y-106680000D01*
X129540000Y-106680000D02*
X130810000Y-107950000D01*
X130810000Y-107950000D02*
X130810000Y-110490000D01*
X95250000Y-106680000D02*
X90170000Y-106680000D01*
X96520000Y-106680000D02*
X95250000Y-106680000D01*
X98345000Y-108585000D02*
X98345000Y-108505000D01*
X109220000Y-106680000D02*
X108585000Y-106680000D01*
X113030000Y-106680000D02*
X109220000Y-106680000D01*
X108585000Y-106680000D02*
X100330000Y-106680000D01*
X100330000Y-106680000D02*
X96520000Y-106680000D01*
X111045000Y-108585000D02*
X111045000Y-108505000D01*
X121920000Y-106680000D02*
X113030000Y-106680000D01*
X123745000Y-108585000D02*
X123745000Y-108505000D01*
X98980000Y-108585000D02*
X99060000Y-108585000D01*
X96520000Y-97155000D02*
X97155000Y-97155000D01*
X97155000Y-97155000D02*
X98425000Y-98425000D01*
X98425000Y-98425000D02*
X106680000Y-98425000D01*
X106680000Y-98425000D02*
X107315000Y-99060000D01*
X107315000Y-90805000D02*
X107315000Y-99060000D01*
X107950000Y-99695000D02*
X108585000Y-99695000D01*
X140890000Y-113665000D02*
X140890000Y-113585000D01*
X140890000Y-113585000D02*
X138430000Y-111125000D01*
X130810000Y-141605000D02*
X130810000Y-111760000D01*
X130810000Y-111760000D02*
X131445000Y-111125000D01*
X159305000Y-111125000D02*
X161845000Y-113665000D01*
X131445000Y-111125000D02*
X138430000Y-111125000D01*
X138430000Y-111125000D02*
X159305000Y-111125000D01*
X140890000Y-113665000D02*
X140890000Y-116125000D01*
X140890000Y-116125000D02*
X142240000Y-117475000D01*
X161845000Y-113665000D02*
X161845000Y-116125000D01*
X161845000Y-116125000D02*
X163195000Y-117475000D01*
X125095000Y-100965000D02*
X123825000Y-99695000D01*
X127000000Y-102870000D02*
X125095000Y-100965000D01*
X156210000Y-102870000D02*
X127000000Y-102870000D01*
X156845000Y-103505000D02*
X156210000Y-102870000D01*
X156845000Y-107950000D02*
X156845000Y-103505000D01*
X157480000Y-108585000D02*
X156845000Y-107950000D01*
X111840000Y-100250000D02*
X111840000Y-102235000D01*
X112395000Y-99695000D02*
X111840000Y-100250000D01*
X123825000Y-99695000D02*
X112395000Y-99695000D01*
X108585000Y-102235000D02*
X111840000Y-102235000D01*
X158115000Y-108585000D02*
X157480000Y-108585000D01*
X113030000Y-90805000D02*
X113030000Y-91440000D01*
X113030000Y-91440000D02*
X114300000Y-92710000D01*
X157480000Y-102235000D02*
X166055000Y-102235000D01*
X166055000Y-102235000D02*
X166770000Y-102950000D01*
X127635000Y-102235000D02*
X157480000Y-102235000D01*
X158115000Y-102870000D02*
X158115000Y-104785000D01*
X157480000Y-102235000D02*
X158115000Y-102870000D01*
X116840000Y-92710000D02*
X118110000Y-92710000D01*
X118110000Y-92710000D02*
X127635000Y-102235000D01*
X114300000Y-92710000D02*
X116840000Y-92710000D01*
X166770000Y-102950000D02*
X172165000Y-102950000D01*
X173990000Y-104775000D02*
X173990000Y-117475000D01*
X172165000Y-102950000D02*
X173990000Y-104775000D01*
X142240000Y-120015000D02*
X144145000Y-120015000D01*
X144145000Y-120015000D02*
X146685000Y-117475000D01*
X142240000Y-122555000D02*
X144145000Y-122555000D01*
X144145000Y-122555000D02*
X146685000Y-120015000D01*
X142240000Y-125095000D02*
X144145000Y-125095000D01*
X144145000Y-125095000D02*
X146685000Y-122555000D01*
X142240000Y-127635000D02*
X144145000Y-127635000D01*
X144145000Y-127635000D02*
X146685000Y-125095000D01*
X142240000Y-130175000D02*
X144145000Y-130175000D01*
X144145000Y-130175000D02*
X146685000Y-127635000D01*
X128270000Y-137795000D02*
X127000000Y-136525000D01*
X127000000Y-136525000D02*
X127000000Y-115570000D01*
X127000000Y-115570000D02*
X126365000Y-114935000D01*
X125095000Y-114935000D02*
X126365000Y-114935000D01*
X150495000Y-130810000D02*
X149860000Y-130175000D01*
X149860000Y-137795000D02*
X146050000Y-137795000D01*
X150495000Y-137160000D02*
X149860000Y-137795000D01*
X150495000Y-130810000D02*
X150495000Y-137160000D01*
X146050000Y-137795000D02*
X132715000Y-137795000D01*
X149225000Y-130175000D02*
X149860000Y-130175000D01*
X117475000Y-112395000D02*
X123190000Y-112395000D01*
X123825000Y-114300000D02*
X124460000Y-114935000D01*
X123825000Y-113030000D02*
X123825000Y-114300000D01*
X123190000Y-112395000D02*
X123825000Y-113030000D01*
X124460000Y-114935000D02*
X125095000Y-114935000D01*
X149225000Y-130175000D02*
X149225000Y-127635000D01*
X146685000Y-130175000D02*
X145415000Y-130175000D01*
X145415000Y-130175000D02*
X142875000Y-132715000D01*
X142875000Y-132715000D02*
X142240000Y-132715000D01*
X146685000Y-132715000D02*
X145415000Y-132715000D01*
X145415000Y-132715000D02*
X142875000Y-135255000D01*
X142875000Y-135255000D02*
X142240000Y-135255000D01*
X133350000Y-136525000D02*
X133985000Y-137160000D01*
X144145000Y-137160000D02*
X145415000Y-135890000D01*
X133985000Y-137160000D02*
X144145000Y-137160000D01*
X145415000Y-135890000D02*
X146050000Y-135255000D01*
X146050000Y-135255000D02*
X146685000Y-135255000D01*
X134620000Y-132715000D02*
X133985000Y-132715000D01*
X133985000Y-132715000D02*
X133350000Y-133350000D01*
X133350000Y-133350000D02*
X133350000Y-136525000D01*
X163195000Y-120015000D02*
X165100000Y-120015000D01*
X165100000Y-120015000D02*
X167640000Y-117475000D01*
X170180000Y-117475000D02*
X170180000Y-116205000D01*
X140335000Y-125095000D02*
X134620000Y-125095000D01*
X140970000Y-124460000D02*
X140335000Y-125095000D01*
X140970000Y-119380000D02*
X140970000Y-124460000D01*
X141605000Y-118745000D02*
X140970000Y-119380000D01*
X143510000Y-118745000D02*
X141605000Y-118745000D01*
X144145000Y-118110000D02*
X143510000Y-118745000D01*
X144145000Y-116205000D02*
X144145000Y-118110000D01*
X144780000Y-115570000D02*
X144145000Y-116205000D01*
X160655000Y-115570000D02*
X144780000Y-115570000D01*
X169545000Y-115570000D02*
X163195000Y-115570000D01*
X170180000Y-116205000D02*
X169545000Y-115570000D01*
X170180000Y-120015000D02*
X170180000Y-117475000D01*
X170180000Y-122555000D02*
X170180000Y-120015000D01*
X170180000Y-125095000D02*
X170180000Y-122555000D01*
X170180000Y-127635000D02*
X170180000Y-125095000D01*
X170180000Y-130175000D02*
X170180000Y-127635000D01*
X170180000Y-132715000D02*
X170180000Y-130175000D01*
X170180000Y-135255000D02*
X170180000Y-132715000D01*
X163195000Y-122555000D02*
X165100000Y-122555000D01*
X165100000Y-122555000D02*
X167640000Y-120015000D01*
X163195000Y-125095000D02*
X165100000Y-125095000D01*
X165100000Y-125095000D02*
X167640000Y-122555000D01*
X163195000Y-127635000D02*
X165100000Y-127635000D01*
X165100000Y-127635000D02*
X167640000Y-125095000D01*
X163195000Y-130175000D02*
X165100000Y-130175000D01*
X165100000Y-130175000D02*
X167640000Y-127635000D01*
X163195000Y-132715000D02*
X165100000Y-132715000D01*
X165100000Y-132715000D02*
X167640000Y-130175000D01*
X163195000Y-135255000D02*
X165100000Y-135255000D01*
X165100000Y-135255000D02*
X167640000Y-132715000D01*
X161925000Y-136525000D02*
X166370000Y-136525000D01*
X155575000Y-132715000D02*
X160020000Y-132715000D01*
X166370000Y-136525000D02*
X167640000Y-135255000D01*
X161290000Y-135890000D02*
X161925000Y-136525000D01*
X161290000Y-133985000D02*
X161290000Y-135890000D01*
X160020000Y-132715000D02*
X161290000Y-133985000D01*
X155575000Y-130175000D02*
X154940000Y-130175000D01*
X154940000Y-130175000D02*
X154305000Y-130810000D01*
X154305000Y-130810000D02*
X154305000Y-136525000D01*
X154305000Y-136525000D02*
X154940000Y-137160000D01*
X154940000Y-137160000D02*
X161925000Y-137160000D01*
X173990000Y-141605000D02*
X173990000Y-137795000D01*
X173355000Y-137160000D02*
X161925000Y-137160000D01*
X173990000Y-137795000D02*
X173355000Y-137160000D01*
X155575000Y-122555000D02*
X154305000Y-122555000D01*
X171450000Y-138430000D02*
X170815000Y-137795000D01*
X170815000Y-137795000D02*
X161290000Y-137795000D01*
X171450000Y-138430000D02*
X171450000Y-141605000D01*
X154305000Y-137795000D02*
X161290000Y-137795000D01*
X153670000Y-137160000D02*
X154305000Y-137795000D01*
X153670000Y-123190000D02*
X153670000Y-137160000D01*
X154305000Y-122555000D02*
X153670000Y-123190000D01*
X155575000Y-120015000D02*
X153670000Y-120015000D01*
X168910000Y-139065000D02*
X168275000Y-138430000D01*
X168275000Y-138430000D02*
X161290000Y-138430000D01*
X168910000Y-139065000D02*
X168910000Y-141605000D01*
X153670000Y-138430000D02*
X161290000Y-138430000D01*
X153035000Y-137795000D02*
X153670000Y-138430000D01*
X153035000Y-120650000D02*
X153035000Y-137795000D01*
X153670000Y-120015000D02*
X153035000Y-120650000D01*
X155575000Y-117475000D02*
X153035000Y-117475000D01*
X166370000Y-139700000D02*
X165735000Y-139065000D01*
X165735000Y-139065000D02*
X160655000Y-139065000D01*
X166370000Y-139700000D02*
X166370000Y-141605000D01*
X153035000Y-139065000D02*
X160655000Y-139065000D01*
X152400000Y-138430000D02*
X153035000Y-139065000D01*
X152400000Y-118110000D02*
X152400000Y-138430000D01*
X153035000Y-117475000D02*
X152400000Y-118110000D01*
X133350000Y-139700000D02*
X132715000Y-139700000D01*
X132715000Y-120015000D02*
X133350000Y-120015000D01*
X132080000Y-120650000D02*
X132715000Y-120015000D01*
X132080000Y-139065000D02*
X132080000Y-120650000D01*
X132715000Y-139700000D02*
X132080000Y-139065000D01*
X152400000Y-139700000D02*
X133350000Y-139700000D01*
X163830000Y-140335000D02*
X163195000Y-139700000D01*
X163195000Y-139700000D02*
X152400000Y-139700000D01*
X163830000Y-141605000D02*
X163830000Y-140335000D01*
X133350000Y-120015000D02*
X134620000Y-120015000D01*
X132715000Y-140335000D02*
X132080000Y-140335000D01*
X132080000Y-117475000D02*
X132715000Y-117475000D01*
X131445000Y-118110000D02*
X132080000Y-117475000D01*
X131445000Y-139700000D02*
X131445000Y-118110000D01*
X132080000Y-140335000D02*
X131445000Y-139700000D01*
X134620000Y-117475000D02*
X132715000Y-117475000D01*
X160655000Y-140335000D02*
X151765000Y-140335000D01*
X160655000Y-140335000D02*
X161290000Y-140970000D01*
X132715000Y-140335000D02*
X151765000Y-140335000D01*
X161290000Y-141605000D02*
X161290000Y-140970000D01*
X129540000Y-139700000D02*
X129540000Y-140335000D01*
X128905000Y-140970000D02*
X128270000Y-141605000D01*
X129540000Y-140335000D02*
X128905000Y-140970000D01*
X128270000Y-141605000D02*
X128270000Y-140970000D01*
X129540000Y-130810000D02*
X130175000Y-130175000D01*
X129540000Y-139700000D02*
X129540000Y-130810000D01*
X127000000Y-140335000D02*
X128270000Y-140335000D01*
X128905000Y-123190000D02*
X129540000Y-122555000D01*
X128905000Y-139700000D02*
X128905000Y-123190000D01*
X128270000Y-140335000D02*
X128905000Y-139700000D01*
X115570000Y-141605000D02*
X115570000Y-140970000D01*
X115570000Y-140970000D02*
X116205000Y-140335000D01*
X116205000Y-140335000D02*
X127000000Y-140335000D01*
X129540000Y-122555000D02*
X130175000Y-122555000D01*
X92075000Y-117475000D02*
X97155000Y-117475000D01*
X97155000Y-117475000D02*
X98425000Y-116205000D01*
X109855000Y-140335000D02*
X110490000Y-140335000D01*
X111125000Y-139700000D02*
X111125000Y-139065000D01*
X110490000Y-140335000D02*
X111125000Y-139700000D01*
X107950000Y-140970000D02*
X108585000Y-140335000D01*
X109855000Y-140335000D02*
X109220000Y-140335000D01*
X109220000Y-140335000D02*
X108585000Y-140335000D01*
X111125000Y-139065000D02*
X111125000Y-133985000D01*
X107950000Y-140970000D02*
X107950000Y-141605000D01*
X104775000Y-117475000D02*
X109855000Y-117475000D01*
X110490000Y-116840000D02*
X111125000Y-116205000D01*
X109855000Y-117475000D02*
X110490000Y-116840000D01*
X123825000Y-116205000D02*
X125095000Y-117475000D01*
X111125000Y-116205000D02*
X123825000Y-116205000D01*
X103505000Y-116205000D02*
X104775000Y-117475000D01*
X98425000Y-116205000D02*
X103505000Y-116205000D01*
X109220000Y-139700000D02*
X109855000Y-139700000D01*
X110490000Y-139065000D02*
X110490000Y-138430000D01*
X109855000Y-139700000D02*
X110490000Y-139065000D01*
X107950000Y-139700000D02*
X109220000Y-139700000D01*
X107315000Y-140335000D02*
X106045000Y-140335000D01*
X105410000Y-140970000D02*
X106045000Y-140335000D01*
X107950000Y-139700000D02*
X107315000Y-140335000D01*
X110490000Y-138430000D02*
X110490000Y-132715000D01*
X105410000Y-140970000D02*
X105410000Y-141605000D01*
X110490000Y-119380000D02*
X111125000Y-118745000D01*
X111125000Y-118745000D02*
X123190000Y-118745000D01*
X123190000Y-118745000D02*
X123825000Y-119380000D01*
X123825000Y-119380000D02*
X123825000Y-121920000D01*
X123825000Y-121920000D02*
X124460000Y-122555000D01*
X109855000Y-120015000D02*
X110490000Y-119380000D01*
X104775000Y-120015000D02*
X109855000Y-120015000D01*
X124460000Y-122555000D02*
X125095000Y-122555000D01*
X100965000Y-118745000D02*
X102235000Y-120015000D01*
X102235000Y-120015000D02*
X104775000Y-120015000D01*
X92075000Y-120015000D02*
X93345000Y-118745000D01*
X93345000Y-118745000D02*
X100965000Y-118745000D01*
X92075000Y-127635000D02*
X97155000Y-127635000D01*
X97155000Y-127635000D02*
X98425000Y-126365000D01*
X109855000Y-136525000D02*
X109855000Y-133350000D01*
X109855000Y-137795000D02*
X109855000Y-136525000D01*
X102870000Y-140970000D02*
X103505000Y-140335000D01*
X103505000Y-140335000D02*
X104140000Y-140335000D01*
X107315000Y-139065000D02*
X106680000Y-139700000D01*
X104775000Y-140335000D02*
X104140000Y-140335000D01*
X105410000Y-139700000D02*
X104775000Y-140335000D01*
X106680000Y-139700000D02*
X105410000Y-139700000D01*
X107315000Y-139065000D02*
X108585000Y-139065000D01*
X109220000Y-139065000D02*
X109855000Y-138430000D01*
X109855000Y-138430000D02*
X109855000Y-137795000D01*
X108585000Y-139065000D02*
X109220000Y-139065000D01*
X102870000Y-141605000D02*
X102870000Y-140970000D01*
X104775000Y-127635000D02*
X109220000Y-127635000D01*
X109220000Y-127635000D02*
X109855000Y-127635000D01*
X123825000Y-126365000D02*
X125095000Y-127635000D01*
X109855000Y-127635000D02*
X111125000Y-126365000D01*
X111125000Y-126365000D02*
X123825000Y-126365000D01*
X100965000Y-126365000D02*
X103505000Y-126365000D01*
X103505000Y-126365000D02*
X104775000Y-127635000D01*
X98425000Y-126365000D02*
X100965000Y-126365000D01*
X92075000Y-130175000D02*
X97155000Y-130175000D01*
X97155000Y-130175000D02*
X98425000Y-128905000D01*
X109220000Y-135890000D02*
X109220000Y-132715000D01*
X107950000Y-138430000D02*
X108585000Y-138430000D01*
X108585000Y-138430000D02*
X109220000Y-137795000D01*
X100330000Y-140970000D02*
X100965000Y-140335000D01*
X106045000Y-139065000D02*
X104775000Y-139065000D01*
X104775000Y-139065000D02*
X104140000Y-139700000D01*
X104140000Y-139700000D02*
X102870000Y-139700000D01*
X102870000Y-139700000D02*
X102235000Y-140335000D01*
X102235000Y-140335000D02*
X100965000Y-140335000D01*
X106680000Y-138430000D02*
X106045000Y-139065000D01*
X106680000Y-138430000D02*
X107950000Y-138430000D01*
X109220000Y-135890000D02*
X109220000Y-137795000D01*
X100330000Y-141605000D02*
X100330000Y-140970000D01*
X111125000Y-128905000D02*
X123190000Y-128905000D01*
X123190000Y-128905000D02*
X123825000Y-129540000D01*
X123825000Y-129540000D02*
X123825000Y-131445000D01*
X123825000Y-131445000D02*
X125095000Y-132715000D01*
X110490000Y-129540000D02*
X109855000Y-130175000D01*
X109220000Y-130175000D02*
X109855000Y-130175000D01*
X110490000Y-129540000D02*
X111125000Y-128905000D01*
X104775000Y-130175000D02*
X108585000Y-130175000D01*
X108585000Y-130175000D02*
X109220000Y-130175000D01*
X100965000Y-128905000D02*
X102235000Y-130175000D01*
X102235000Y-130175000D02*
X104775000Y-130175000D01*
X98425000Y-128905000D02*
X100965000Y-128905000D01*
X108585000Y-135890000D02*
X108585000Y-133350000D01*
X107315000Y-137795000D02*
X107950000Y-137795000D01*
X106045000Y-137795000D02*
X107315000Y-137795000D01*
X105410000Y-138430000D02*
X104140000Y-138430000D01*
X104140000Y-138430000D02*
X103505000Y-139065000D01*
X103505000Y-139065000D02*
X102235000Y-139065000D01*
X102235000Y-139065000D02*
X101600000Y-139700000D01*
X101600000Y-139700000D02*
X100330000Y-139700000D01*
X100330000Y-139700000D02*
X99695000Y-140335000D01*
X99695000Y-140335000D02*
X98425000Y-140335000D01*
X97790000Y-140970000D02*
X98425000Y-140335000D01*
X106045000Y-137795000D02*
X105410000Y-138430000D01*
X107950000Y-137795000D02*
X108585000Y-137160000D01*
X108585000Y-135890000D02*
X108585000Y-137160000D01*
X97790000Y-140970000D02*
X97790000Y-141605000D01*
X109855000Y-131445000D02*
X111125000Y-130175000D01*
X108585000Y-131445000D02*
X109855000Y-131445000D01*
X111125000Y-130175000D02*
X112395000Y-130175000D01*
X112395000Y-130175000D02*
X114935000Y-130175000D01*
X114935000Y-130175000D02*
X117475000Y-132715000D01*
X99695000Y-130175000D02*
X100965000Y-130175000D01*
X107950000Y-131445000D02*
X108585000Y-131445000D01*
X102235000Y-131445000D02*
X107950000Y-131445000D01*
X100965000Y-130175000D02*
X102235000Y-131445000D01*
X107950000Y-135890000D02*
X107950000Y-132715000D01*
X107950000Y-136525000D02*
X107950000Y-135890000D01*
X107315000Y-137160000D02*
X106680000Y-137160000D01*
X105410000Y-137160000D02*
X104775000Y-137795000D01*
X97155000Y-140335000D02*
X95885000Y-140335000D01*
X97790000Y-139700000D02*
X97155000Y-140335000D01*
X99060000Y-139700000D02*
X97790000Y-139700000D01*
X99695000Y-139065000D02*
X99060000Y-139700000D01*
X100965000Y-139065000D02*
X99695000Y-139065000D01*
X101600000Y-138430000D02*
X100965000Y-139065000D01*
X102870000Y-138430000D02*
X101600000Y-138430000D01*
X103505000Y-137795000D02*
X102870000Y-138430000D01*
X104775000Y-137795000D02*
X103505000Y-137795000D01*
X105410000Y-137160000D02*
X106680000Y-137160000D01*
X95250000Y-140970000D02*
X95885000Y-140335000D01*
X107315000Y-137160000D02*
X107950000Y-136525000D01*
X95250000Y-140970000D02*
X95250000Y-141605000D01*
X112395000Y-127635000D02*
X111125000Y-127635000D01*
X109220000Y-128905000D02*
X109855000Y-128905000D01*
X111125000Y-127635000D02*
X109855000Y-128905000D01*
X112395000Y-127635000D02*
X117475000Y-127635000D01*
X100965000Y-127635000D02*
X102235000Y-127635000D01*
X107315000Y-128905000D02*
X109220000Y-128905000D01*
X102235000Y-127635000D02*
X103505000Y-128905000D01*
X99695000Y-127635000D02*
X100965000Y-127635000D01*
X103505000Y-128905000D02*
X107315000Y-128905000D01*
X107315000Y-135890000D02*
X106680000Y-136525000D01*
X106045000Y-136525000D02*
X104775000Y-136525000D01*
X93345000Y-140335000D02*
X92710000Y-140970000D01*
X94615000Y-140335000D02*
X93345000Y-140335000D01*
X95250000Y-139700000D02*
X94615000Y-140335000D01*
X96520000Y-139700000D02*
X95250000Y-139700000D01*
X97155000Y-139065000D02*
X96520000Y-139700000D01*
X98425000Y-139065000D02*
X97155000Y-139065000D01*
X99060000Y-138430000D02*
X98425000Y-139065000D01*
X100330000Y-138430000D02*
X99060000Y-138430000D01*
X100965000Y-137795000D02*
X100330000Y-138430000D01*
X102235000Y-137795000D02*
X100965000Y-137795000D01*
X102870000Y-137160000D02*
X102235000Y-137795000D01*
X104140000Y-137160000D02*
X102870000Y-137160000D01*
X104775000Y-136525000D02*
X104140000Y-137160000D01*
X106680000Y-136525000D02*
X106045000Y-136525000D01*
X107315000Y-135890000D02*
X107315000Y-133350000D01*
X92710000Y-140970000D02*
X92710000Y-141605000D01*
X114935000Y-120015000D02*
X115570000Y-120015000D01*
X116205000Y-121920000D02*
X116840000Y-122555000D01*
X116205000Y-120650000D02*
X116205000Y-121920000D01*
X115570000Y-120015000D02*
X116205000Y-120650000D01*
X116840000Y-122555000D02*
X117475000Y-122555000D01*
X109855000Y-121285000D02*
X106680000Y-121285000D01*
X111125000Y-120015000D02*
X112395000Y-120015000D01*
X111125000Y-120015000D02*
X109855000Y-121285000D01*
X106680000Y-121285000D02*
X102235000Y-121285000D01*
X99695000Y-120015000D02*
X100965000Y-120015000D01*
X100965000Y-120015000D02*
X102235000Y-121285000D01*
X112395000Y-120015000D02*
X114935000Y-120015000D01*
X92710000Y-140970000D02*
X92710000Y-141605000D01*
X102235000Y-136525000D02*
X102870000Y-135890000D01*
X101600000Y-137160000D02*
X102235000Y-136525000D01*
X100330000Y-137160000D02*
X101600000Y-137160000D01*
X99695000Y-137795000D02*
X100330000Y-137160000D01*
X98425000Y-137795000D02*
X99695000Y-137795000D01*
X97790000Y-138430000D02*
X98425000Y-137795000D01*
X96520000Y-138430000D02*
X97790000Y-138430000D01*
X95885000Y-139065000D02*
X96520000Y-138430000D01*
X94615000Y-139065000D02*
X95885000Y-139065000D01*
X93980000Y-139700000D02*
X94615000Y-139065000D01*
X92710000Y-139700000D02*
X93980000Y-139700000D01*
X92075000Y-140335000D02*
X92710000Y-139700000D01*
X90805000Y-140335000D02*
X92075000Y-140335000D01*
X90170000Y-140970000D02*
X90805000Y-140335000D01*
X102870000Y-135890000D02*
X102870000Y-134620000D01*
X90170000Y-141605000D02*
X90170000Y-140970000D01*
X112395000Y-117475000D02*
X111125000Y-117475000D01*
X111125000Y-117475000D02*
X109855000Y-118745000D01*
X112395000Y-117475000D02*
X117475000Y-117475000D01*
X99695000Y-117475000D02*
X102235000Y-117475000D01*
X102235000Y-117475000D02*
X103505000Y-118745000D01*
X103505000Y-118745000D02*
X109855000Y-118745000D01*
X83185000Y-122555000D02*
X81915000Y-122555000D01*
X86995000Y-122555000D02*
X83185000Y-122555000D01*
X95885000Y-90170000D02*
X95885000Y-90805000D01*
X76835000Y-123190000D02*
X76835000Y-120650000D01*
X77470000Y-90170000D02*
X76835000Y-90805000D01*
X78105000Y-89535000D02*
X77470000Y-90170000D01*
X95250000Y-89535000D02*
X78105000Y-89535000D01*
X95885000Y-90170000D02*
X95250000Y-89535000D01*
X76835000Y-90805000D02*
X76835000Y-120650000D01*
X127000000Y-96520000D02*
X128270000Y-97790000D01*
X127000000Y-96520000D02*
X121285000Y-90805000D01*
X116205000Y-90805000D02*
X121285000Y-90805000D01*
X128270000Y-97790000D02*
X128270000Y-100330000D01*
X77470000Y-112395000D02*
X77470000Y-100330000D01*
X77470000Y-132080000D02*
X78105000Y-132715000D01*
X77470000Y-121920000D02*
X77470000Y-132080000D01*
X79375000Y-132715000D02*
X78105000Y-132715000D01*
X77470000Y-112395000D02*
X77470000Y-121920000D01*
X78105000Y-99695000D02*
X100965000Y-99695000D01*
X77470000Y-100330000D02*
X78105000Y-99695000D01*
X108585000Y-97155000D02*
X113030000Y-97155000D01*
X112395000Y-135255000D02*
X112395000Y-138430000D01*
X151130000Y-120015000D02*
X149225000Y-120015000D01*
X151130000Y-139065000D02*
X134620000Y-139065000D01*
X151765000Y-138430000D02*
X151130000Y-139065000D01*
X151765000Y-120650000D02*
X151765000Y-138430000D01*
X151130000Y-120015000D02*
X151765000Y-120650000D01*
X134620000Y-139065000D02*
X133350000Y-139065000D01*
X113030000Y-139065000D02*
X128270000Y-139065000D01*
X112395000Y-138430000D02*
X113030000Y-139065000D01*
X149225000Y-120015000D02*
X149225000Y-117475000D01*
X116205000Y-133350000D02*
X114300000Y-131445000D01*
X110490000Y-132080000D02*
X111125000Y-131445000D01*
X100965000Y-133985000D02*
X105410000Y-133985000D01*
X99695000Y-135255000D02*
X100965000Y-133985000D01*
X109855000Y-132080000D02*
X106680000Y-132080000D01*
X106680000Y-132080000D02*
X106045000Y-132715000D01*
X106045000Y-132715000D02*
X106045000Y-133350000D01*
X106045000Y-133350000D02*
X105410000Y-133985000D01*
X109855000Y-132080000D02*
X110490000Y-132080000D01*
X111125000Y-131445000D02*
X114300000Y-131445000D01*
X116205000Y-133350000D02*
X116840000Y-133985000D01*
X127000000Y-138430000D02*
X125095000Y-138430000D01*
X134620000Y-138430000D02*
X133985000Y-138430000D01*
X151130000Y-137160000D02*
X151130000Y-137795000D01*
X150495000Y-125095000D02*
X151130000Y-125730000D01*
X151130000Y-125730000D02*
X151130000Y-137160000D01*
X150495000Y-125095000D02*
X149225000Y-125095000D01*
X150495000Y-138430000D02*
X146050000Y-138430000D01*
X151130000Y-137795000D02*
X150495000Y-138430000D01*
X134620000Y-138430000D02*
X146050000Y-138430000D01*
X123825000Y-138430000D02*
X125095000Y-138430000D01*
X123190000Y-137795000D02*
X123825000Y-138430000D01*
X123190000Y-134620000D02*
X123190000Y-137795000D01*
X122555000Y-133985000D02*
X123190000Y-134620000D01*
X116840000Y-133985000D02*
X122555000Y-133985000D01*
X149225000Y-125095000D02*
X149860000Y-125095000D01*
X149225000Y-122555000D02*
X149225000Y-125095000D01*
X78105000Y-116205000D02*
X78740000Y-115570000D01*
X116205000Y-113665000D02*
X117475000Y-114935000D01*
X114935000Y-113665000D02*
X116205000Y-113665000D01*
X102870000Y-113665000D02*
X114935000Y-113665000D01*
X90805000Y-113665000D02*
X102870000Y-113665000D01*
X88900000Y-115570000D02*
X90805000Y-113665000D01*
X86360000Y-115570000D02*
X88900000Y-115570000D01*
X78740000Y-115570000D02*
X83820000Y-115570000D01*
X79375000Y-125095000D02*
X80010000Y-125095000D01*
X80010000Y-125095000D02*
X80645000Y-125730000D01*
X80010000Y-138430000D02*
X78105000Y-138430000D01*
X80645000Y-137795000D02*
X80010000Y-138430000D01*
X80645000Y-125730000D02*
X80645000Y-137795000D01*
X79375000Y-125095000D02*
X78740000Y-125095000D01*
X78740000Y-125095000D02*
X78105000Y-124460000D01*
X78105000Y-124460000D02*
X78105000Y-116205000D01*
X102235000Y-122555000D02*
X100965000Y-121285000D01*
X100965000Y-121285000D02*
X97790000Y-121285000D01*
X102235000Y-122555000D02*
X104775000Y-122555000D01*
X90805000Y-121285000D02*
X97790000Y-121285000D01*
X88265000Y-123825000D02*
X90805000Y-121285000D01*
X82550000Y-123825000D02*
X88265000Y-123825000D01*
X81915000Y-124460000D02*
X82550000Y-123825000D01*
X81915000Y-126365000D02*
X81915000Y-124460000D01*
X114935000Y-121285000D02*
X115570000Y-121285000D01*
X109855000Y-122555000D02*
X111125000Y-121285000D01*
X111125000Y-121285000D02*
X114935000Y-121285000D01*
X104775000Y-122555000D02*
X109855000Y-122555000D01*
X103505000Y-123825000D02*
X97790000Y-123825000D01*
X103505000Y-123825000D02*
X104775000Y-125095000D01*
X90805000Y-123825000D02*
X97790000Y-123825000D01*
X88265000Y-126365000D02*
X90805000Y-123825000D01*
X83185000Y-126365000D02*
X88265000Y-126365000D01*
X81915000Y-127635000D02*
X83185000Y-126365000D01*
X81915000Y-129540000D02*
X81915000Y-127635000D01*
X104775000Y-125095000D02*
X106045000Y-123825000D01*
X116205000Y-123825000D02*
X117475000Y-125095000D01*
X106045000Y-123825000D02*
X116205000Y-123825000D01*
X81915000Y-118745000D02*
X89535000Y-118745000D01*
X94615000Y-125095000D02*
X93980000Y-124460000D01*
X94615000Y-125095000D02*
X99695000Y-125095000D01*
X95250000Y-122555000D02*
X94615000Y-121920000D01*
X84455000Y-116205000D02*
X81915000Y-116205000D01*
X81915000Y-116205000D02*
X81280000Y-116205000D01*
X81280000Y-116205000D02*
X80645000Y-116840000D01*
X80645000Y-116840000D02*
X80645000Y-119380000D01*
X80010000Y-120015000D02*
X80645000Y-119380000D01*
X95250000Y-122555000D02*
X99695000Y-122555000D01*
X80010000Y-120015000D02*
X79375000Y-120015000D01*
X90170000Y-137795000D02*
X88900000Y-136525000D01*
X88900000Y-133350000D02*
X88265000Y-132715000D01*
X88900000Y-136525000D02*
X88900000Y-133350000D01*
X86995000Y-132715000D02*
X88265000Y-132715000D01*
X97155000Y-114935000D02*
X92075000Y-114935000D01*
X98425000Y-136525000D02*
X98425000Y-133985000D01*
X97155000Y-137795000D02*
X98425000Y-136525000D01*
X95885000Y-137795000D02*
X97155000Y-137795000D01*
X95250000Y-138430000D02*
X95885000Y-137795000D01*
X90805000Y-138430000D02*
X95250000Y-138430000D01*
X90170000Y-137795000D02*
X90805000Y-138430000D01*
X90170000Y-117475000D02*
X90170000Y-116840000D01*
X82550000Y-121920000D02*
X85090000Y-121920000D01*
X85090000Y-121920000D02*
X85725000Y-121285000D01*
X85725000Y-121285000D02*
X89535000Y-121285000D01*
X89535000Y-121285000D02*
X90170000Y-120650000D01*
X90170000Y-120650000D02*
X90170000Y-117475000D01*
X98425000Y-114935000D02*
X99695000Y-114935000D01*
X97155000Y-116205000D02*
X98425000Y-114935000D01*
X90805000Y-116205000D02*
X97155000Y-116205000D01*
X90170000Y-116840000D02*
X90805000Y-116205000D01*
X89535000Y-130175000D02*
X86995000Y-130175000D01*
X90170000Y-129540000D02*
X89535000Y-130175000D01*
X90170000Y-127000000D02*
X90170000Y-129540000D01*
X86995000Y-127635000D02*
X88265000Y-127635000D01*
X90805000Y-125095000D02*
X92075000Y-125095000D01*
X88265000Y-127635000D02*
X90805000Y-125095000D01*
X90170000Y-131445000D02*
X91440000Y-132715000D01*
X85725000Y-131445000D02*
X90170000Y-131445000D01*
X85090000Y-130810000D02*
X85725000Y-131445000D01*
X85090000Y-127000000D02*
X85090000Y-130810000D01*
X91440000Y-132715000D02*
X92075000Y-132715000D01*
X99695000Y-132715000D02*
X94615000Y-132715000D01*
X94615000Y-132715000D02*
X93345000Y-131445000D01*
X93345000Y-90805000D02*
X92710000Y-90170000D01*
X92710000Y-90170000D02*
X80645000Y-90170000D01*
X80645000Y-90170000D02*
X79375000Y-91440000D01*
M02*
