G04 #@! TF.FileFunction,Legend,Top*
%FSLAX46Y46*%
G04 Gerber Fmt 4.6, Leading zero omitted, Abs format (unit mm)*
G04 Created by KiCad (PCBNEW 4.0.7) date 02/14/19 14:39:51*
%MOMM*%
%LPD*%
G01*
G04 APERTURE LIST*
%ADD10C,0.100000*%
%ADD11C,0.200000*%
%ADD12C,0.250000*%
%ADD13C,0.300000*%
%ADD14C,0.120000*%
%ADD15C,0.150000*%
G04 APERTURE END LIST*
D10*
D11*
X150495000Y-115570000D02*
X151765000Y-115570000D01*
X151130000Y-115570000D02*
X150495000Y-115570000D01*
X151130000Y-126365000D02*
X151130000Y-115570000D01*
X150495000Y-137160000D02*
X151765000Y-137160000D01*
X151130000Y-137160000D02*
X150495000Y-137160000D01*
X151130000Y-126365000D02*
X151130000Y-137160000D01*
X150495000Y-126365000D02*
X151765000Y-126365000D01*
D12*
X151852381Y-123285000D02*
X152852381Y-123046905D01*
X152138095Y-122856428D01*
X152852381Y-122665952D01*
X151852381Y-122427857D01*
X152852381Y-121475476D02*
X152376190Y-121808810D01*
X152852381Y-122046905D02*
X151852381Y-122046905D01*
X151852381Y-121665952D01*
X151900000Y-121570714D01*
X151947619Y-121523095D01*
X152042857Y-121475476D01*
X152185714Y-121475476D01*
X152280952Y-121523095D01*
X152328571Y-121570714D01*
X152376190Y-121665952D01*
X152376190Y-122046905D01*
X152852381Y-121046905D02*
X151852381Y-121046905D01*
X151852381Y-120713572D02*
X151852381Y-120142143D01*
X152852381Y-120427858D02*
X151852381Y-120427858D01*
X152328571Y-119808810D02*
X152328571Y-119475476D01*
X152852381Y-119332619D02*
X152852381Y-119808810D01*
X151852381Y-119808810D01*
X151852381Y-119332619D01*
X152852381Y-132516428D02*
X152376190Y-132849762D01*
X152852381Y-133087857D02*
X151852381Y-133087857D01*
X151852381Y-132706904D01*
X151900000Y-132611666D01*
X151947619Y-132564047D01*
X152042857Y-132516428D01*
X152185714Y-132516428D01*
X152280952Y-132564047D01*
X152328571Y-132611666D01*
X152376190Y-132706904D01*
X152376190Y-133087857D01*
X152328571Y-132087857D02*
X152328571Y-131754523D01*
X152852381Y-131611666D02*
X152852381Y-132087857D01*
X151852381Y-132087857D01*
X151852381Y-131611666D01*
X152566667Y-131230714D02*
X152566667Y-130754523D01*
X152852381Y-131325952D02*
X151852381Y-130992619D01*
X152852381Y-130659285D01*
X152852381Y-130325952D02*
X151852381Y-130325952D01*
X151852381Y-130087857D01*
X151900000Y-129944999D01*
X151995238Y-129849761D01*
X152090476Y-129802142D01*
X152280952Y-129754523D01*
X152423810Y-129754523D01*
X152614286Y-129802142D01*
X152709524Y-129849761D01*
X152804762Y-129944999D01*
X152852381Y-130087857D01*
X152852381Y-130325952D01*
X114006429Y-104275000D02*
X113911191Y-104227381D01*
X113768334Y-104227381D01*
X113625476Y-104275000D01*
X113530238Y-104370238D01*
X113482619Y-104465476D01*
X113435000Y-104655952D01*
X113435000Y-104798810D01*
X113482619Y-104989286D01*
X113530238Y-105084524D01*
X113625476Y-105179762D01*
X113768334Y-105227381D01*
X113863572Y-105227381D01*
X114006429Y-105179762D01*
X114054048Y-105132143D01*
X114054048Y-104798810D01*
X113863572Y-104798810D01*
X114435000Y-104941667D02*
X114911191Y-104941667D01*
X114339762Y-105227381D02*
X114673095Y-104227381D01*
X115006429Y-105227381D01*
X115339762Y-105227381D02*
X115339762Y-104227381D01*
X115815952Y-105227381D02*
X115815952Y-104227381D01*
X116387381Y-105227381D01*
X116387381Y-104227381D01*
X107958095Y-104227381D02*
X108291428Y-105227381D01*
X108624762Y-104227381D01*
X109148571Y-104227381D02*
X109339048Y-104227381D01*
X109434286Y-104275000D01*
X109529524Y-104370238D01*
X109577143Y-104560714D01*
X109577143Y-104894048D01*
X109529524Y-105084524D01*
X109434286Y-105179762D01*
X109339048Y-105227381D01*
X109148571Y-105227381D01*
X109053333Y-105179762D01*
X108958095Y-105084524D01*
X108910476Y-104894048D01*
X108910476Y-104560714D01*
X108958095Y-104370238D01*
X109053333Y-104275000D01*
X109148571Y-104227381D01*
X110481905Y-105227381D02*
X110005714Y-105227381D01*
X110005714Y-104227381D01*
D13*
X174418572Y-139743571D02*
X173561429Y-139743571D01*
X173990001Y-139743571D02*
X173990001Y-138243571D01*
X173847144Y-138457857D01*
X173704286Y-138600714D01*
X173561429Y-138672143D01*
D11*
X172720000Y-137160000D02*
X175260000Y-137160000D01*
X172720000Y-142875000D02*
X172720000Y-137160000D01*
D13*
X112816430Y-129578571D02*
X112316430Y-128864286D01*
X111959287Y-129578571D02*
X111959287Y-128078571D01*
X112530715Y-128078571D01*
X112673573Y-128150000D01*
X112745001Y-128221429D01*
X112816430Y-128364286D01*
X112816430Y-128578571D01*
X112745001Y-128721429D01*
X112673573Y-128792857D01*
X112530715Y-128864286D01*
X111959287Y-128864286D01*
X114316430Y-129435714D02*
X114245001Y-129507143D01*
X114030715Y-129578571D01*
X113887858Y-129578571D01*
X113673573Y-129507143D01*
X113530715Y-129364286D01*
X113459287Y-129221429D01*
X113387858Y-128935714D01*
X113387858Y-128721429D01*
X113459287Y-128435714D01*
X113530715Y-128292857D01*
X113673573Y-128150000D01*
X113887858Y-128078571D01*
X114030715Y-128078571D01*
X114245001Y-128150000D01*
X114316430Y-128221429D01*
X115602144Y-128078571D02*
X115316430Y-128078571D01*
X115173573Y-128150000D01*
X115102144Y-128221429D01*
X114959287Y-128435714D01*
X114887858Y-128721429D01*
X114887858Y-129292857D01*
X114959287Y-129435714D01*
X115030715Y-129507143D01*
X115173573Y-129578571D01*
X115459287Y-129578571D01*
X115602144Y-129507143D01*
X115673573Y-129435714D01*
X115745001Y-129292857D01*
X115745001Y-128935714D01*
X115673573Y-128792857D01*
X115602144Y-128721429D01*
X115459287Y-128650000D01*
X115173573Y-128650000D01*
X115030715Y-128721429D01*
X114959287Y-128792857D01*
X114887858Y-128935714D01*
X117102144Y-128078571D02*
X116387858Y-128078571D01*
X116316429Y-128792857D01*
X116387858Y-128721429D01*
X116530715Y-128650000D01*
X116887858Y-128650000D01*
X117030715Y-128721429D01*
X117102144Y-128792857D01*
X117173572Y-128935714D01*
X117173572Y-129292857D01*
X117102144Y-129435714D01*
X117030715Y-129507143D01*
X116887858Y-129578571D01*
X116530715Y-129578571D01*
X116387858Y-129507143D01*
X116316429Y-129435714D01*
X118102143Y-128078571D02*
X118245000Y-128078571D01*
X118387857Y-128150000D01*
X118459286Y-128221429D01*
X118530715Y-128364286D01*
X118602143Y-128650000D01*
X118602143Y-129007143D01*
X118530715Y-129292857D01*
X118459286Y-129435714D01*
X118387857Y-129507143D01*
X118245000Y-129578571D01*
X118102143Y-129578571D01*
X117959286Y-129507143D01*
X117887857Y-129435714D01*
X117816429Y-129292857D01*
X117745000Y-129007143D01*
X117745000Y-128650000D01*
X117816429Y-128364286D01*
X117887857Y-128221429D01*
X117959286Y-128150000D01*
X118102143Y-128078571D01*
X119173571Y-128221429D02*
X119245000Y-128150000D01*
X119387857Y-128078571D01*
X119745000Y-128078571D01*
X119887857Y-128150000D01*
X119959286Y-128221429D01*
X120030714Y-128364286D01*
X120030714Y-128507143D01*
X119959286Y-128721429D01*
X119102143Y-129578571D01*
X120030714Y-129578571D01*
X121816428Y-129578571D02*
X121816428Y-128078571D01*
X122387856Y-128078571D01*
X122530714Y-128150000D01*
X122602142Y-128221429D01*
X122673571Y-128364286D01*
X122673571Y-128578571D01*
X122602142Y-128721429D01*
X122530714Y-128792857D01*
X122387856Y-128864286D01*
X121816428Y-128864286D01*
X123244999Y-129507143D02*
X123459285Y-129578571D01*
X123816428Y-129578571D01*
X123959285Y-129507143D01*
X124030714Y-129435714D01*
X124102142Y-129292857D01*
X124102142Y-129150000D01*
X124030714Y-129007143D01*
X123959285Y-128935714D01*
X123816428Y-128864286D01*
X123530714Y-128792857D01*
X123387856Y-128721429D01*
X123316428Y-128650000D01*
X123244999Y-128507143D01*
X123244999Y-128364286D01*
X123316428Y-128221429D01*
X123387856Y-128150000D01*
X123530714Y-128078571D01*
X123887856Y-128078571D01*
X124102142Y-128150000D01*
X125530713Y-128150000D02*
X125387856Y-128078571D01*
X125173570Y-128078571D01*
X124959285Y-128150000D01*
X124816427Y-128292857D01*
X124744999Y-128435714D01*
X124673570Y-128721429D01*
X124673570Y-128935714D01*
X124744999Y-129221429D01*
X124816427Y-129364286D01*
X124959285Y-129507143D01*
X125173570Y-129578571D01*
X125316427Y-129578571D01*
X125530713Y-129507143D01*
X125602142Y-129435714D01*
X125602142Y-128935714D01*
X125316427Y-128935714D01*
X114102143Y-132128571D02*
X113602143Y-131414286D01*
X113245000Y-132128571D02*
X113245000Y-130628571D01*
X113816428Y-130628571D01*
X113959286Y-130700000D01*
X114030714Y-130771429D01*
X114102143Y-130914286D01*
X114102143Y-131128571D01*
X114030714Y-131271429D01*
X113959286Y-131342857D01*
X113816428Y-131414286D01*
X113245000Y-131414286D01*
X115316428Y-132057143D02*
X115173571Y-132128571D01*
X114887857Y-132128571D01*
X114745000Y-132057143D01*
X114673571Y-131914286D01*
X114673571Y-131342857D01*
X114745000Y-131200000D01*
X114887857Y-131128571D01*
X115173571Y-131128571D01*
X115316428Y-131200000D01*
X115387857Y-131342857D01*
X115387857Y-131485714D01*
X114673571Y-131628571D01*
X115887857Y-131128571D02*
X116245000Y-132128571D01*
X116602142Y-131128571D01*
X117173571Y-132128571D02*
X117173571Y-131128571D01*
X117173571Y-130628571D02*
X117102142Y-130700000D01*
X117173571Y-130771429D01*
X117244999Y-130700000D01*
X117173571Y-130628571D01*
X117173571Y-130771429D01*
X117816428Y-132057143D02*
X117959285Y-132128571D01*
X118245000Y-132128571D01*
X118387857Y-132057143D01*
X118459285Y-131914286D01*
X118459285Y-131842857D01*
X118387857Y-131700000D01*
X118245000Y-131628571D01*
X118030714Y-131628571D01*
X117887857Y-131557143D01*
X117816428Y-131414286D01*
X117816428Y-131342857D01*
X117887857Y-131200000D01*
X118030714Y-131128571D01*
X118245000Y-131128571D01*
X118387857Y-131200000D01*
X119102143Y-132128571D02*
X119102143Y-131128571D01*
X119102143Y-130628571D02*
X119030714Y-130700000D01*
X119102143Y-130771429D01*
X119173571Y-130700000D01*
X119102143Y-130628571D01*
X119102143Y-130771429D01*
X120030715Y-132128571D02*
X119887857Y-132057143D01*
X119816429Y-131985714D01*
X119745000Y-131842857D01*
X119745000Y-131414286D01*
X119816429Y-131271429D01*
X119887857Y-131200000D01*
X120030715Y-131128571D01*
X120245000Y-131128571D01*
X120387857Y-131200000D01*
X120459286Y-131271429D01*
X120530715Y-131414286D01*
X120530715Y-131842857D01*
X120459286Y-131985714D01*
X120387857Y-132057143D01*
X120245000Y-132128571D01*
X120030715Y-132128571D01*
X121173572Y-131128571D02*
X121173572Y-132128571D01*
X121173572Y-131271429D02*
X121245000Y-131200000D01*
X121387858Y-131128571D01*
X121602143Y-131128571D01*
X121745000Y-131200000D01*
X121816429Y-131342857D01*
X121816429Y-132128571D01*
X123602143Y-131700000D02*
X124316429Y-131700000D01*
X123459286Y-132128571D02*
X123959286Y-130628571D01*
X124459286Y-132128571D01*
D14*
X113882000Y-118070000D02*
X118702000Y-118070000D01*
X113882000Y-120690000D02*
X118702000Y-120690000D01*
X113882000Y-118070000D02*
X113882000Y-118384000D01*
X113882000Y-120376000D02*
X113882000Y-120690000D01*
X118702000Y-118070000D02*
X118702000Y-118384000D01*
X118702000Y-120376000D02*
X118702000Y-120690000D01*
X91654000Y-102018000D02*
X91654000Y-97198000D01*
X94274000Y-102018000D02*
X94274000Y-97198000D01*
X91654000Y-102018000D02*
X91968000Y-102018000D01*
X93960000Y-102018000D02*
X94274000Y-102018000D01*
X91654000Y-97198000D02*
X91968000Y-97198000D01*
X93960000Y-97198000D02*
X94274000Y-97198000D01*
X122518000Y-118070000D02*
X127338000Y-118070000D01*
X122518000Y-120690000D02*
X127338000Y-120690000D01*
X122518000Y-118070000D02*
X122518000Y-118384000D01*
X122518000Y-120376000D02*
X122518000Y-120690000D01*
X127338000Y-118070000D02*
X127338000Y-118384000D01*
X127338000Y-120376000D02*
X127338000Y-120690000D01*
X138975000Y-110530000D02*
X134155000Y-110530000D01*
X138975000Y-107910000D02*
X134155000Y-107910000D01*
X138975000Y-110530000D02*
X138975000Y-110216000D01*
X138975000Y-108224000D02*
X138975000Y-107910000D01*
X134155000Y-110530000D02*
X134155000Y-110216000D01*
X134155000Y-108224000D02*
X134155000Y-107910000D01*
X162205000Y-106685000D02*
G75*
G03X162205000Y-106685000I-4090000J0D01*
G01*
X154065000Y-106685000D02*
X162165000Y-106685000D01*
X154065000Y-106645000D02*
X162165000Y-106645000D01*
X154065000Y-106605000D02*
X162165000Y-106605000D01*
X154066000Y-106565000D02*
X162164000Y-106565000D01*
X154068000Y-106525000D02*
X162162000Y-106525000D01*
X154069000Y-106485000D02*
X162161000Y-106485000D01*
X154072000Y-106445000D02*
X162158000Y-106445000D01*
X154074000Y-106405000D02*
X162156000Y-106405000D01*
X154077000Y-106365000D02*
X162153000Y-106365000D01*
X154080000Y-106325000D02*
X162150000Y-106325000D01*
X154084000Y-106285000D02*
X162146000Y-106285000D01*
X154088000Y-106245000D02*
X162142000Y-106245000D01*
X154093000Y-106205000D02*
X162137000Y-106205000D01*
X154098000Y-106165000D02*
X162132000Y-106165000D01*
X154103000Y-106125000D02*
X162127000Y-106125000D01*
X154109000Y-106085000D02*
X162121000Y-106085000D01*
X154115000Y-106045000D02*
X162115000Y-106045000D01*
X154121000Y-106005000D02*
X162109000Y-106005000D01*
X154128000Y-105964000D02*
X162102000Y-105964000D01*
X154136000Y-105924000D02*
X162094000Y-105924000D01*
X154144000Y-105884000D02*
X162086000Y-105884000D01*
X154152000Y-105844000D02*
X162078000Y-105844000D01*
X154160000Y-105804000D02*
X162070000Y-105804000D01*
X154169000Y-105764000D02*
X157135000Y-105764000D01*
X159095000Y-105764000D02*
X162061000Y-105764000D01*
X154179000Y-105724000D02*
X157135000Y-105724000D01*
X159095000Y-105724000D02*
X162051000Y-105724000D01*
X154189000Y-105684000D02*
X157135000Y-105684000D01*
X159095000Y-105684000D02*
X162041000Y-105684000D01*
X154199000Y-105644000D02*
X157135000Y-105644000D01*
X159095000Y-105644000D02*
X162031000Y-105644000D01*
X154210000Y-105604000D02*
X157135000Y-105604000D01*
X159095000Y-105604000D02*
X162020000Y-105604000D01*
X154221000Y-105564000D02*
X157135000Y-105564000D01*
X159095000Y-105564000D02*
X162009000Y-105564000D01*
X154232000Y-105524000D02*
X157135000Y-105524000D01*
X159095000Y-105524000D02*
X161998000Y-105524000D01*
X154245000Y-105484000D02*
X157135000Y-105484000D01*
X159095000Y-105484000D02*
X161985000Y-105484000D01*
X154257000Y-105444000D02*
X157135000Y-105444000D01*
X159095000Y-105444000D02*
X161973000Y-105444000D01*
X154270000Y-105404000D02*
X157135000Y-105404000D01*
X159095000Y-105404000D02*
X161960000Y-105404000D01*
X154283000Y-105364000D02*
X157135000Y-105364000D01*
X159095000Y-105364000D02*
X161947000Y-105364000D01*
X154297000Y-105324000D02*
X157135000Y-105324000D01*
X159095000Y-105324000D02*
X161933000Y-105324000D01*
X154312000Y-105284000D02*
X157135000Y-105284000D01*
X159095000Y-105284000D02*
X161918000Y-105284000D01*
X154326000Y-105244000D02*
X157135000Y-105244000D01*
X159095000Y-105244000D02*
X161904000Y-105244000D01*
X154342000Y-105204000D02*
X157135000Y-105204000D01*
X159095000Y-105204000D02*
X161888000Y-105204000D01*
X154357000Y-105164000D02*
X157135000Y-105164000D01*
X159095000Y-105164000D02*
X161873000Y-105164000D01*
X154374000Y-105124000D02*
X157135000Y-105124000D01*
X159095000Y-105124000D02*
X161856000Y-105124000D01*
X154390000Y-105084000D02*
X157135000Y-105084000D01*
X159095000Y-105084000D02*
X161840000Y-105084000D01*
X154408000Y-105044000D02*
X157135000Y-105044000D01*
X159095000Y-105044000D02*
X161822000Y-105044000D01*
X154425000Y-105004000D02*
X157135000Y-105004000D01*
X159095000Y-105004000D02*
X161805000Y-105004000D01*
X154444000Y-104964000D02*
X157135000Y-104964000D01*
X159095000Y-104964000D02*
X161786000Y-104964000D01*
X154463000Y-104924000D02*
X157135000Y-104924000D01*
X159095000Y-104924000D02*
X161767000Y-104924000D01*
X154482000Y-104884000D02*
X157135000Y-104884000D01*
X159095000Y-104884000D02*
X161748000Y-104884000D01*
X154502000Y-104844000D02*
X157135000Y-104844000D01*
X159095000Y-104844000D02*
X161728000Y-104844000D01*
X154522000Y-104804000D02*
X157135000Y-104804000D01*
X159095000Y-104804000D02*
X161708000Y-104804000D01*
X154543000Y-104764000D02*
X157135000Y-104764000D01*
X159095000Y-104764000D02*
X161687000Y-104764000D01*
X154565000Y-104724000D02*
X157135000Y-104724000D01*
X159095000Y-104724000D02*
X161665000Y-104724000D01*
X154587000Y-104684000D02*
X157135000Y-104684000D01*
X159095000Y-104684000D02*
X161643000Y-104684000D01*
X154610000Y-104644000D02*
X157135000Y-104644000D01*
X159095000Y-104644000D02*
X161620000Y-104644000D01*
X154633000Y-104604000D02*
X157135000Y-104604000D01*
X159095000Y-104604000D02*
X161597000Y-104604000D01*
X154657000Y-104564000D02*
X157135000Y-104564000D01*
X159095000Y-104564000D02*
X161573000Y-104564000D01*
X154681000Y-104524000D02*
X157135000Y-104524000D01*
X159095000Y-104524000D02*
X161549000Y-104524000D01*
X154707000Y-104484000D02*
X157135000Y-104484000D01*
X159095000Y-104484000D02*
X161523000Y-104484000D01*
X154732000Y-104444000D02*
X157135000Y-104444000D01*
X159095000Y-104444000D02*
X161498000Y-104444000D01*
X154759000Y-104404000D02*
X157135000Y-104404000D01*
X159095000Y-104404000D02*
X161471000Y-104404000D01*
X154786000Y-104364000D02*
X157135000Y-104364000D01*
X159095000Y-104364000D02*
X161444000Y-104364000D01*
X154814000Y-104324000D02*
X157135000Y-104324000D01*
X159095000Y-104324000D02*
X161416000Y-104324000D01*
X154843000Y-104284000D02*
X157135000Y-104284000D01*
X159095000Y-104284000D02*
X161387000Y-104284000D01*
X154872000Y-104244000D02*
X157135000Y-104244000D01*
X159095000Y-104244000D02*
X161358000Y-104244000D01*
X154902000Y-104204000D02*
X157135000Y-104204000D01*
X159095000Y-104204000D02*
X161328000Y-104204000D01*
X154933000Y-104164000D02*
X157135000Y-104164000D01*
X159095000Y-104164000D02*
X161297000Y-104164000D01*
X154965000Y-104124000D02*
X157135000Y-104124000D01*
X159095000Y-104124000D02*
X161265000Y-104124000D01*
X154997000Y-104084000D02*
X157135000Y-104084000D01*
X159095000Y-104084000D02*
X161233000Y-104084000D01*
X155031000Y-104044000D02*
X157135000Y-104044000D01*
X159095000Y-104044000D02*
X161199000Y-104044000D01*
X155065000Y-104004000D02*
X157135000Y-104004000D01*
X159095000Y-104004000D02*
X161165000Y-104004000D01*
X155100000Y-103964000D02*
X157135000Y-103964000D01*
X159095000Y-103964000D02*
X161130000Y-103964000D01*
X155136000Y-103924000D02*
X157135000Y-103924000D01*
X159095000Y-103924000D02*
X161094000Y-103924000D01*
X155173000Y-103884000D02*
X157135000Y-103884000D01*
X159095000Y-103884000D02*
X161057000Y-103884000D01*
X155211000Y-103844000D02*
X157135000Y-103844000D01*
X159095000Y-103844000D02*
X161019000Y-103844000D01*
X155250000Y-103804000D02*
X160980000Y-103804000D01*
X155291000Y-103764000D02*
X160939000Y-103764000D01*
X155332000Y-103724000D02*
X160898000Y-103724000D01*
X155375000Y-103684000D02*
X160855000Y-103684000D01*
X155418000Y-103644000D02*
X160812000Y-103644000D01*
X155463000Y-103604000D02*
X160767000Y-103604000D01*
X155510000Y-103564000D02*
X160720000Y-103564000D01*
X155558000Y-103524000D02*
X160672000Y-103524000D01*
X155607000Y-103484000D02*
X160623000Y-103484000D01*
X155658000Y-103444000D02*
X160572000Y-103444000D01*
X155711000Y-103404000D02*
X160519000Y-103404000D01*
X155766000Y-103364000D02*
X160464000Y-103364000D01*
X155822000Y-103324000D02*
X160408000Y-103324000D01*
X155881000Y-103284000D02*
X160349000Y-103284000D01*
X155942000Y-103244000D02*
X160288000Y-103244000D01*
X156006000Y-103204000D02*
X160224000Y-103204000D01*
X156072000Y-103164000D02*
X160158000Y-103164000D01*
X156141000Y-103124000D02*
X160089000Y-103124000D01*
X156213000Y-103084000D02*
X160017000Y-103084000D01*
X156289000Y-103044000D02*
X159941000Y-103044000D01*
X156370000Y-103004000D02*
X159860000Y-103004000D01*
X156455000Y-102964000D02*
X159775000Y-102964000D01*
X156545000Y-102924000D02*
X159685000Y-102924000D01*
X156642000Y-102884000D02*
X159588000Y-102884000D01*
X156746000Y-102844000D02*
X159484000Y-102844000D01*
X156861000Y-102804000D02*
X159369000Y-102804000D01*
X156988000Y-102764000D02*
X159242000Y-102764000D01*
X157132000Y-102724000D02*
X159098000Y-102724000D01*
X157301000Y-102684000D02*
X158929000Y-102684000D01*
X157517000Y-102644000D02*
X158713000Y-102644000D01*
X157869000Y-102604000D02*
X158361000Y-102604000D01*
X158115000Y-110785000D02*
X158115000Y-109585000D01*
X157465000Y-110185000D02*
X158765000Y-110185000D01*
X145355000Y-136585000D02*
X150555000Y-136585000D01*
X145355000Y-118745000D02*
X145355000Y-136585000D01*
X150555000Y-116145000D02*
X150555000Y-136585000D01*
X145355000Y-118745000D02*
X147955000Y-118745000D01*
X147955000Y-118745000D02*
X147955000Y-116145000D01*
X147955000Y-116145000D02*
X150555000Y-116145000D01*
X145355000Y-117475000D02*
X145355000Y-116145000D01*
X145355000Y-116145000D02*
X146685000Y-116145000D01*
X166310000Y-136585000D02*
X171510000Y-136585000D01*
X166310000Y-118745000D02*
X166310000Y-136585000D01*
X171510000Y-116145000D02*
X171510000Y-136585000D01*
X166310000Y-118745000D02*
X168910000Y-118745000D01*
X168910000Y-118745000D02*
X168910000Y-116145000D01*
X168910000Y-116145000D02*
X171510000Y-116145000D01*
X166310000Y-117475000D02*
X166310000Y-116145000D01*
X166310000Y-116145000D02*
X167640000Y-116145000D01*
X175320000Y-143045000D02*
X76140000Y-143045000D01*
X76140000Y-143045000D02*
X76140000Y-145705000D01*
X76140000Y-145705000D02*
X175320000Y-145705000D01*
X175320000Y-145705000D02*
X175320000Y-143045000D01*
X174370000Y-145705000D02*
X174370000Y-151705000D01*
X174370000Y-151705000D02*
X173610000Y-151705000D01*
X173610000Y-151705000D02*
X173610000Y-145705000D01*
X174310000Y-145705000D02*
X174310000Y-151705000D01*
X174190000Y-145705000D02*
X174190000Y-151705000D01*
X174070000Y-145705000D02*
X174070000Y-151705000D01*
X173950000Y-145705000D02*
X173950000Y-151705000D01*
X173830000Y-145705000D02*
X173830000Y-151705000D01*
X173710000Y-145705000D02*
X173710000Y-151705000D01*
X174370000Y-142715000D02*
X174370000Y-143045000D01*
X173610000Y-142715000D02*
X173610000Y-143045000D01*
X172720000Y-143045000D02*
X172720000Y-145705000D01*
X171830000Y-145705000D02*
X171830000Y-151705000D01*
X171830000Y-151705000D02*
X171070000Y-151705000D01*
X171070000Y-151705000D02*
X171070000Y-145705000D01*
X171830000Y-142647929D02*
X171830000Y-143045000D01*
X171070000Y-142647929D02*
X171070000Y-143045000D01*
X170180000Y-143045000D02*
X170180000Y-145705000D01*
X169290000Y-145705000D02*
X169290000Y-151705000D01*
X169290000Y-151705000D02*
X168530000Y-151705000D01*
X168530000Y-151705000D02*
X168530000Y-145705000D01*
X169290000Y-142647929D02*
X169290000Y-143045000D01*
X168530000Y-142647929D02*
X168530000Y-143045000D01*
X167640000Y-143045000D02*
X167640000Y-145705000D01*
X166750000Y-145705000D02*
X166750000Y-151705000D01*
X166750000Y-151705000D02*
X165990000Y-151705000D01*
X165990000Y-151705000D02*
X165990000Y-145705000D01*
X166750000Y-142647929D02*
X166750000Y-143045000D01*
X165990000Y-142647929D02*
X165990000Y-143045000D01*
X165100000Y-143045000D02*
X165100000Y-145705000D01*
X164210000Y-145705000D02*
X164210000Y-151705000D01*
X164210000Y-151705000D02*
X163450000Y-151705000D01*
X163450000Y-151705000D02*
X163450000Y-145705000D01*
X164210000Y-142647929D02*
X164210000Y-143045000D01*
X163450000Y-142647929D02*
X163450000Y-143045000D01*
X162560000Y-143045000D02*
X162560000Y-145705000D01*
X161670000Y-145705000D02*
X161670000Y-151705000D01*
X161670000Y-151705000D02*
X160910000Y-151705000D01*
X160910000Y-151705000D02*
X160910000Y-145705000D01*
X161670000Y-142647929D02*
X161670000Y-143045000D01*
X160910000Y-142647929D02*
X160910000Y-143045000D01*
X160020000Y-143045000D02*
X160020000Y-145705000D01*
X159130000Y-145705000D02*
X159130000Y-151705000D01*
X159130000Y-151705000D02*
X158370000Y-151705000D01*
X158370000Y-151705000D02*
X158370000Y-145705000D01*
X159130000Y-142647929D02*
X159130000Y-143045000D01*
X158370000Y-142647929D02*
X158370000Y-143045000D01*
X157480000Y-143045000D02*
X157480000Y-145705000D01*
X156590000Y-145705000D02*
X156590000Y-151705000D01*
X156590000Y-151705000D02*
X155830000Y-151705000D01*
X155830000Y-151705000D02*
X155830000Y-145705000D01*
X156590000Y-142647929D02*
X156590000Y-143045000D01*
X155830000Y-142647929D02*
X155830000Y-143045000D01*
X154940000Y-143045000D02*
X154940000Y-145705000D01*
X154050000Y-145705000D02*
X154050000Y-151705000D01*
X154050000Y-151705000D02*
X153290000Y-151705000D01*
X153290000Y-151705000D02*
X153290000Y-145705000D01*
X154050000Y-142647929D02*
X154050000Y-143045000D01*
X153290000Y-142647929D02*
X153290000Y-143045000D01*
X152400000Y-143045000D02*
X152400000Y-145705000D01*
X151510000Y-145705000D02*
X151510000Y-151705000D01*
X151510000Y-151705000D02*
X150750000Y-151705000D01*
X150750000Y-151705000D02*
X150750000Y-145705000D01*
X151510000Y-142647929D02*
X151510000Y-143045000D01*
X150750000Y-142647929D02*
X150750000Y-143045000D01*
X149860000Y-143045000D02*
X149860000Y-145705000D01*
X148970000Y-145705000D02*
X148970000Y-151705000D01*
X148970000Y-151705000D02*
X148210000Y-151705000D01*
X148210000Y-151705000D02*
X148210000Y-145705000D01*
X148970000Y-142647929D02*
X148970000Y-143045000D01*
X148210000Y-142647929D02*
X148210000Y-143045000D01*
X147320000Y-143045000D02*
X147320000Y-145705000D01*
X146430000Y-145705000D02*
X146430000Y-151705000D01*
X146430000Y-151705000D02*
X145670000Y-151705000D01*
X145670000Y-151705000D02*
X145670000Y-145705000D01*
X146430000Y-142647929D02*
X146430000Y-143045000D01*
X145670000Y-142647929D02*
X145670000Y-143045000D01*
X144780000Y-143045000D02*
X144780000Y-145705000D01*
X143890000Y-145705000D02*
X143890000Y-151705000D01*
X143890000Y-151705000D02*
X143130000Y-151705000D01*
X143130000Y-151705000D02*
X143130000Y-145705000D01*
X143890000Y-142647929D02*
X143890000Y-143045000D01*
X143130000Y-142647929D02*
X143130000Y-143045000D01*
X142240000Y-143045000D02*
X142240000Y-145705000D01*
X141350000Y-145705000D02*
X141350000Y-151705000D01*
X141350000Y-151705000D02*
X140590000Y-151705000D01*
X140590000Y-151705000D02*
X140590000Y-145705000D01*
X141350000Y-142647929D02*
X141350000Y-143045000D01*
X140590000Y-142647929D02*
X140590000Y-143045000D01*
X139700000Y-143045000D02*
X139700000Y-145705000D01*
X138810000Y-145705000D02*
X138810000Y-151705000D01*
X138810000Y-151705000D02*
X138050000Y-151705000D01*
X138050000Y-151705000D02*
X138050000Y-145705000D01*
X138810000Y-142647929D02*
X138810000Y-143045000D01*
X138050000Y-142647929D02*
X138050000Y-143045000D01*
X137160000Y-143045000D02*
X137160000Y-145705000D01*
X136270000Y-145705000D02*
X136270000Y-151705000D01*
X136270000Y-151705000D02*
X135510000Y-151705000D01*
X135510000Y-151705000D02*
X135510000Y-145705000D01*
X136270000Y-142647929D02*
X136270000Y-143045000D01*
X135510000Y-142647929D02*
X135510000Y-143045000D01*
X134620000Y-143045000D02*
X134620000Y-145705000D01*
X133730000Y-145705000D02*
X133730000Y-151705000D01*
X133730000Y-151705000D02*
X132970000Y-151705000D01*
X132970000Y-151705000D02*
X132970000Y-145705000D01*
X133730000Y-142647929D02*
X133730000Y-143045000D01*
X132970000Y-142647929D02*
X132970000Y-143045000D01*
X132080000Y-143045000D02*
X132080000Y-145705000D01*
X131190000Y-145705000D02*
X131190000Y-151705000D01*
X131190000Y-151705000D02*
X130430000Y-151705000D01*
X130430000Y-151705000D02*
X130430000Y-145705000D01*
X131190000Y-142647929D02*
X131190000Y-143045000D01*
X130430000Y-142647929D02*
X130430000Y-143045000D01*
X129540000Y-143045000D02*
X129540000Y-145705000D01*
X128650000Y-145705000D02*
X128650000Y-151705000D01*
X128650000Y-151705000D02*
X127890000Y-151705000D01*
X127890000Y-151705000D02*
X127890000Y-145705000D01*
X128650000Y-142647929D02*
X128650000Y-143045000D01*
X127890000Y-142647929D02*
X127890000Y-143045000D01*
X127000000Y-143045000D02*
X127000000Y-145705000D01*
X126110000Y-145705000D02*
X126110000Y-151705000D01*
X126110000Y-151705000D02*
X125350000Y-151705000D01*
X125350000Y-151705000D02*
X125350000Y-145705000D01*
X126110000Y-142647929D02*
X126110000Y-143045000D01*
X125350000Y-142647929D02*
X125350000Y-143045000D01*
X124460000Y-143045000D02*
X124460000Y-145705000D01*
X123570000Y-145705000D02*
X123570000Y-151705000D01*
X123570000Y-151705000D02*
X122810000Y-151705000D01*
X122810000Y-151705000D02*
X122810000Y-145705000D01*
X123570000Y-142647929D02*
X123570000Y-143045000D01*
X122810000Y-142647929D02*
X122810000Y-143045000D01*
X121920000Y-143045000D02*
X121920000Y-145705000D01*
X121030000Y-145705000D02*
X121030000Y-151705000D01*
X121030000Y-151705000D02*
X120270000Y-151705000D01*
X120270000Y-151705000D02*
X120270000Y-145705000D01*
X121030000Y-142647929D02*
X121030000Y-143045000D01*
X120270000Y-142647929D02*
X120270000Y-143045000D01*
X119380000Y-143045000D02*
X119380000Y-145705000D01*
X118490000Y-145705000D02*
X118490000Y-151705000D01*
X118490000Y-151705000D02*
X117730000Y-151705000D01*
X117730000Y-151705000D02*
X117730000Y-145705000D01*
X118490000Y-142647929D02*
X118490000Y-143045000D01*
X117730000Y-142647929D02*
X117730000Y-143045000D01*
X116840000Y-143045000D02*
X116840000Y-145705000D01*
X115950000Y-145705000D02*
X115950000Y-151705000D01*
X115950000Y-151705000D02*
X115190000Y-151705000D01*
X115190000Y-151705000D02*
X115190000Y-145705000D01*
X115950000Y-142647929D02*
X115950000Y-143045000D01*
X115190000Y-142647929D02*
X115190000Y-143045000D01*
X114300000Y-143045000D02*
X114300000Y-145705000D01*
X113410000Y-145705000D02*
X113410000Y-151705000D01*
X113410000Y-151705000D02*
X112650000Y-151705000D01*
X112650000Y-151705000D02*
X112650000Y-145705000D01*
X113410000Y-142647929D02*
X113410000Y-143045000D01*
X112650000Y-142647929D02*
X112650000Y-143045000D01*
X111760000Y-143045000D02*
X111760000Y-145705000D01*
X110870000Y-145705000D02*
X110870000Y-151705000D01*
X110870000Y-151705000D02*
X110110000Y-151705000D01*
X110110000Y-151705000D02*
X110110000Y-145705000D01*
X110870000Y-142647929D02*
X110870000Y-143045000D01*
X110110000Y-142647929D02*
X110110000Y-143045000D01*
X109220000Y-143045000D02*
X109220000Y-145705000D01*
X108330000Y-145705000D02*
X108330000Y-151705000D01*
X108330000Y-151705000D02*
X107570000Y-151705000D01*
X107570000Y-151705000D02*
X107570000Y-145705000D01*
X108330000Y-142647929D02*
X108330000Y-143045000D01*
X107570000Y-142647929D02*
X107570000Y-143045000D01*
X106680000Y-143045000D02*
X106680000Y-145705000D01*
X105790000Y-145705000D02*
X105790000Y-151705000D01*
X105790000Y-151705000D02*
X105030000Y-151705000D01*
X105030000Y-151705000D02*
X105030000Y-145705000D01*
X105790000Y-142647929D02*
X105790000Y-143045000D01*
X105030000Y-142647929D02*
X105030000Y-143045000D01*
X104140000Y-143045000D02*
X104140000Y-145705000D01*
X103250000Y-145705000D02*
X103250000Y-151705000D01*
X103250000Y-151705000D02*
X102490000Y-151705000D01*
X102490000Y-151705000D02*
X102490000Y-145705000D01*
X103250000Y-142647929D02*
X103250000Y-143045000D01*
X102490000Y-142647929D02*
X102490000Y-143045000D01*
X101600000Y-143045000D02*
X101600000Y-145705000D01*
X100710000Y-145705000D02*
X100710000Y-151705000D01*
X100710000Y-151705000D02*
X99950000Y-151705000D01*
X99950000Y-151705000D02*
X99950000Y-145705000D01*
X100710000Y-142647929D02*
X100710000Y-143045000D01*
X99950000Y-142647929D02*
X99950000Y-143045000D01*
X99060000Y-143045000D02*
X99060000Y-145705000D01*
X98170000Y-145705000D02*
X98170000Y-151705000D01*
X98170000Y-151705000D02*
X97410000Y-151705000D01*
X97410000Y-151705000D02*
X97410000Y-145705000D01*
X98170000Y-142647929D02*
X98170000Y-143045000D01*
X97410000Y-142647929D02*
X97410000Y-143045000D01*
X96520000Y-143045000D02*
X96520000Y-145705000D01*
X95630000Y-145705000D02*
X95630000Y-151705000D01*
X95630000Y-151705000D02*
X94870000Y-151705000D01*
X94870000Y-151705000D02*
X94870000Y-145705000D01*
X95630000Y-142647929D02*
X95630000Y-143045000D01*
X94870000Y-142647929D02*
X94870000Y-143045000D01*
X93980000Y-143045000D02*
X93980000Y-145705000D01*
X93090000Y-145705000D02*
X93090000Y-151705000D01*
X93090000Y-151705000D02*
X92330000Y-151705000D01*
X92330000Y-151705000D02*
X92330000Y-145705000D01*
X93090000Y-142647929D02*
X93090000Y-143045000D01*
X92330000Y-142647929D02*
X92330000Y-143045000D01*
X91440000Y-143045000D02*
X91440000Y-145705000D01*
X90550000Y-145705000D02*
X90550000Y-151705000D01*
X90550000Y-151705000D02*
X89790000Y-151705000D01*
X89790000Y-151705000D02*
X89790000Y-145705000D01*
X90550000Y-142647929D02*
X90550000Y-143045000D01*
X89790000Y-142647929D02*
X89790000Y-143045000D01*
X88900000Y-143045000D02*
X88900000Y-145705000D01*
X88010000Y-145705000D02*
X88010000Y-151705000D01*
X88010000Y-151705000D02*
X87250000Y-151705000D01*
X87250000Y-151705000D02*
X87250000Y-145705000D01*
X88010000Y-142647929D02*
X88010000Y-143045000D01*
X87250000Y-142647929D02*
X87250000Y-143045000D01*
X86360000Y-143045000D02*
X86360000Y-145705000D01*
X85470000Y-145705000D02*
X85470000Y-151705000D01*
X85470000Y-151705000D02*
X84710000Y-151705000D01*
X84710000Y-151705000D02*
X84710000Y-145705000D01*
X85470000Y-142647929D02*
X85470000Y-143045000D01*
X84710000Y-142647929D02*
X84710000Y-143045000D01*
X83820000Y-143045000D02*
X83820000Y-145705000D01*
X82930000Y-145705000D02*
X82930000Y-151705000D01*
X82930000Y-151705000D02*
X82170000Y-151705000D01*
X82170000Y-151705000D02*
X82170000Y-145705000D01*
X82930000Y-142647929D02*
X82930000Y-143045000D01*
X82170000Y-142647929D02*
X82170000Y-143045000D01*
X81280000Y-143045000D02*
X81280000Y-145705000D01*
X80390000Y-145705000D02*
X80390000Y-151705000D01*
X80390000Y-151705000D02*
X79630000Y-151705000D01*
X79630000Y-151705000D02*
X79630000Y-145705000D01*
X80390000Y-142647929D02*
X80390000Y-143045000D01*
X79630000Y-142647929D02*
X79630000Y-143045000D01*
X78740000Y-143045000D02*
X78740000Y-145705000D01*
X77850000Y-145705000D02*
X77850000Y-151705000D01*
X77850000Y-151705000D02*
X77090000Y-151705000D01*
X77090000Y-151705000D02*
X77090000Y-145705000D01*
X77850000Y-142647929D02*
X77850000Y-143045000D01*
X77090000Y-142647929D02*
X77090000Y-143045000D01*
X173990000Y-140335000D02*
X175260000Y-140335000D01*
X175260000Y-140335000D02*
X175260000Y-141605000D01*
X117535000Y-92135000D02*
X117535000Y-89475000D01*
X114935000Y-92135000D02*
X117535000Y-92135000D01*
X114935000Y-89475000D02*
X117535000Y-89475000D01*
X114935000Y-92135000D02*
X114935000Y-89475000D01*
X113665000Y-92135000D02*
X112335000Y-92135000D01*
X112335000Y-92135000D02*
X112335000Y-90805000D01*
X130412993Y-96372994D02*
G75*
G03X130412993Y-96372994I-6099999J0D01*
G01*
X135855000Y-103465000D02*
X135855000Y-106085000D01*
X135855000Y-106085000D02*
X142275000Y-106085000D01*
X142275000Y-106085000D02*
X142275000Y-103465000D01*
X142275000Y-103465000D02*
X135855000Y-103465000D01*
X134965000Y-104775000D02*
X135855000Y-104775000D01*
X143165000Y-104775000D02*
X142275000Y-104775000D01*
X109260000Y-114265000D02*
X106640000Y-114265000D01*
X106640000Y-114265000D02*
X106640000Y-120685000D01*
X106640000Y-120685000D02*
X109260000Y-120685000D01*
X109260000Y-120685000D02*
X109260000Y-114265000D01*
X107950000Y-113375000D02*
X107950000Y-114265000D01*
X107950000Y-121575000D02*
X107950000Y-120685000D01*
X144110000Y-107910000D02*
X144110000Y-110530000D01*
X144110000Y-110530000D02*
X150530000Y-110530000D01*
X150530000Y-110530000D02*
X150530000Y-107910000D01*
X150530000Y-107910000D02*
X144110000Y-107910000D01*
X143220000Y-109220000D02*
X144110000Y-109220000D01*
X151420000Y-109220000D02*
X150530000Y-109220000D01*
X114930704Y-94970309D02*
G75*
G02X117240000Y-94930000I1154296J40309D01*
G01*
X117239052Y-94909879D02*
G75*
G02X115845000Y-96059000I-1154052J-20121D01*
G01*
X112465000Y-103250000D02*
X112465000Y-93600000D01*
X117416000Y-103250000D02*
X117416000Y-93600000D01*
X112465000Y-103250000D02*
X117416000Y-103250000D01*
X112465000Y-93600000D02*
X117416000Y-93600000D01*
X115351000Y-94054000D02*
X116961000Y-95665000D01*
X115210000Y-94194000D02*
X116820000Y-95806000D01*
X109215704Y-94970309D02*
G75*
G02X111525000Y-94930000I1154296J40309D01*
G01*
X111524052Y-94909879D02*
G75*
G02X110130000Y-96059000I-1154052J-20121D01*
G01*
X106750000Y-103250000D02*
X106750000Y-93600000D01*
X111701000Y-103250000D02*
X111701000Y-93600000D01*
X106750000Y-103250000D02*
X111701000Y-103250000D01*
X106750000Y-93600000D02*
X111701000Y-93600000D01*
X109636000Y-94054000D02*
X111246000Y-95665000D01*
X109495000Y-94194000D02*
X111105000Y-95806000D01*
X101330000Y-93285000D02*
G75*
G02X99330000Y-93285000I-1000000J0D01*
G01*
X99330000Y-93285000D02*
X97680000Y-93285000D01*
X97680000Y-93285000D02*
X97680000Y-103565000D01*
X97680000Y-103565000D02*
X102980000Y-103565000D01*
X102980000Y-103565000D02*
X102980000Y-93285000D01*
X102980000Y-93285000D02*
X101330000Y-93285000D01*
X95190000Y-93225000D02*
X95190000Y-103625000D01*
X95190000Y-103625000D02*
X105470000Y-103625000D01*
X105470000Y-103625000D02*
X105470000Y-93225000D01*
X105470000Y-93225000D02*
X95190000Y-93225000D01*
X101330000Y-111065000D02*
G75*
G02X99330000Y-111065000I-1000000J0D01*
G01*
X99330000Y-111065000D02*
X97680000Y-111065000D01*
X97680000Y-111065000D02*
X97680000Y-136585000D01*
X97680000Y-136585000D02*
X102980000Y-136585000D01*
X102980000Y-136585000D02*
X102980000Y-111065000D01*
X102980000Y-111065000D02*
X101330000Y-111065000D01*
X139430000Y-116145000D02*
G75*
G02X137430000Y-116145000I-1000000J0D01*
G01*
X137430000Y-116145000D02*
X135780000Y-116145000D01*
X135780000Y-116145000D02*
X135780000Y-136585000D01*
X135780000Y-136585000D02*
X141080000Y-136585000D01*
X141080000Y-136585000D02*
X141080000Y-116145000D01*
X141080000Y-116145000D02*
X139430000Y-116145000D01*
X160385000Y-116145000D02*
G75*
G02X158385000Y-116145000I-1000000J0D01*
G01*
X158385000Y-116145000D02*
X156735000Y-116145000D01*
X156735000Y-116145000D02*
X156735000Y-136585000D01*
X156735000Y-136585000D02*
X162035000Y-136585000D01*
X162035000Y-136585000D02*
X162035000Y-116145000D01*
X162035000Y-116145000D02*
X160385000Y-116145000D01*
X85455000Y-116145000D02*
G75*
G02X83455000Y-116145000I-1000000J0D01*
G01*
X83455000Y-116145000D02*
X81805000Y-116145000D01*
X81805000Y-116145000D02*
X81805000Y-136585000D01*
X81805000Y-136585000D02*
X87105000Y-136585000D01*
X87105000Y-136585000D02*
X87105000Y-116145000D01*
X87105000Y-116145000D02*
X85455000Y-116145000D01*
X79315000Y-116085000D02*
X79315000Y-136645000D01*
X79315000Y-136645000D02*
X89595000Y-136645000D01*
X89595000Y-136645000D02*
X89595000Y-116085000D01*
X89595000Y-116085000D02*
X79315000Y-116085000D01*
X78755000Y-110145000D02*
X90905000Y-110145000D01*
X78005000Y-89995000D02*
X78005000Y-109395000D01*
X90155000Y-89245000D02*
X78755000Y-89245000D01*
X90905000Y-110145000D02*
X90905000Y-89995000D01*
X90905000Y-89995000D02*
G75*
G03X90155000Y-89245000I-750000J0D01*
G01*
X78755000Y-89245000D02*
G75*
G03X78005000Y-89995000I0J-750000D01*
G01*
X78005000Y-109395000D02*
G75*
G03X78755000Y-110145000I750000J0D01*
G01*
D15*
X171704000Y-106172000D02*
X171704000Y-104140000D01*
X171704000Y-104140000D02*
X175260000Y-104140000D01*
X175260000Y-104140000D02*
X175260000Y-111760000D01*
X175260000Y-111760000D02*
X171704000Y-111760000D01*
X171704000Y-111760000D02*
X171704000Y-109728000D01*
X176276000Y-102870000D02*
X176276000Y-101854000D01*
X176276000Y-114046000D02*
X176276000Y-113030000D01*
X178308000Y-105410000D02*
X176784000Y-105410000D01*
X176784000Y-110490000D02*
X178308000Y-110490000D01*
X177546000Y-105410000D02*
X177546000Y-110490000D01*
X176276000Y-102870000D02*
X176530000Y-102870000D01*
X176530000Y-102870000D02*
X176784000Y-102870000D01*
X176784000Y-102870000D02*
X176784000Y-113030000D01*
X176784000Y-113030000D02*
X176276000Y-113030000D01*
X178308000Y-105410000D02*
X178308000Y-110490000D01*
X164084000Y-101854000D02*
X176276000Y-101854000D01*
X176276000Y-114046000D02*
X164084000Y-114046000D01*
X164084000Y-114046000D02*
X164084000Y-101854000D01*
D14*
X97880000Y-89495000D02*
X102700000Y-89495000D01*
X97880000Y-92115000D02*
X102700000Y-92115000D01*
X97880000Y-89495000D02*
X97880000Y-89809000D01*
X97880000Y-91801000D02*
X97880000Y-92115000D01*
X102700000Y-89495000D02*
X102700000Y-89809000D01*
X102700000Y-91801000D02*
X102700000Y-92115000D01*
X82005000Y-112355000D02*
X86825000Y-112355000D01*
X82005000Y-114975000D02*
X86825000Y-114975000D01*
X82005000Y-112355000D02*
X82005000Y-112669000D01*
X82005000Y-114661000D02*
X82005000Y-114975000D01*
X86825000Y-112355000D02*
X86825000Y-112669000D01*
X86825000Y-114661000D02*
X86825000Y-114975000D01*
X97880000Y-107275000D02*
X102700000Y-107275000D01*
X97880000Y-109895000D02*
X102700000Y-109895000D01*
X97880000Y-107275000D02*
X97880000Y-107589000D01*
X97880000Y-109581000D02*
X97880000Y-109895000D01*
X102700000Y-107275000D02*
X102700000Y-107589000D01*
X102700000Y-109581000D02*
X102700000Y-109895000D01*
X135980000Y-112355000D02*
X140800000Y-112355000D01*
X135980000Y-114975000D02*
X140800000Y-114975000D01*
X135980000Y-112355000D02*
X135980000Y-112669000D01*
X135980000Y-114661000D02*
X135980000Y-114975000D01*
X140800000Y-112355000D02*
X140800000Y-112669000D01*
X140800000Y-114661000D02*
X140800000Y-114975000D01*
X156935000Y-112355000D02*
X161755000Y-112355000D01*
X156935000Y-114975000D02*
X161755000Y-114975000D01*
X156935000Y-112355000D02*
X156935000Y-112669000D01*
X156935000Y-114661000D02*
X156935000Y-114975000D01*
X161755000Y-112355000D02*
X161755000Y-112669000D01*
X161755000Y-114661000D02*
X161755000Y-114975000D01*
X94040000Y-116145000D02*
X91380000Y-116145000D01*
X94040000Y-118745000D02*
X94040000Y-116145000D01*
X91380000Y-118745000D02*
X91380000Y-116145000D01*
X94040000Y-118745000D02*
X91380000Y-118745000D01*
X94040000Y-120015000D02*
X94040000Y-121345000D01*
X94040000Y-121345000D02*
X92710000Y-121345000D01*
X175430000Y-116145000D02*
X175430000Y-121345000D01*
X175430000Y-121345000D02*
X178090000Y-121345000D01*
X178090000Y-121345000D02*
X178090000Y-116145000D01*
X178090000Y-116145000D02*
X175430000Y-116145000D01*
X178090000Y-117095000D02*
X184090000Y-117095000D01*
X184090000Y-117095000D02*
X184090000Y-117855000D01*
X184090000Y-117855000D02*
X178090000Y-117855000D01*
X178090000Y-117155000D02*
X184090000Y-117155000D01*
X178090000Y-117275000D02*
X184090000Y-117275000D01*
X178090000Y-117395000D02*
X184090000Y-117395000D01*
X178090000Y-117515000D02*
X184090000Y-117515000D01*
X178090000Y-117635000D02*
X184090000Y-117635000D01*
X178090000Y-117755000D02*
X184090000Y-117755000D01*
X175100000Y-117095000D02*
X175430000Y-117095000D01*
X175100000Y-117855000D02*
X175430000Y-117855000D01*
X175430000Y-118745000D02*
X178090000Y-118745000D01*
X178090000Y-119635000D02*
X184090000Y-119635000D01*
X184090000Y-119635000D02*
X184090000Y-120395000D01*
X184090000Y-120395000D02*
X178090000Y-120395000D01*
X175032929Y-119635000D02*
X175430000Y-119635000D01*
X175032929Y-120395000D02*
X175430000Y-120395000D01*
X172720000Y-117475000D02*
X172720000Y-116205000D01*
X172720000Y-116205000D02*
X173990000Y-116205000D01*
X117347722Y-111088277D02*
G75*
G03X112736420Y-111088000I-2305722J-1179723D01*
G01*
X117347722Y-113447723D02*
G75*
G02X112736420Y-113448000I-2305722J1179723D01*
G01*
X117347722Y-113447723D02*
G75*
G03X117347580Y-111088000I-2305722J1179723D01*
G01*
X115042000Y-109718000D02*
X115042000Y-114818000D01*
X115082000Y-109718000D02*
X115082000Y-114818000D01*
X115122000Y-109719000D02*
X115122000Y-114817000D01*
X115162000Y-109720000D02*
X115162000Y-114816000D01*
X115202000Y-109722000D02*
X115202000Y-114814000D01*
X115242000Y-109725000D02*
X115242000Y-114811000D01*
X115282000Y-109729000D02*
X115282000Y-114807000D01*
X115322000Y-109733000D02*
X115322000Y-111288000D01*
X115322000Y-113248000D02*
X115322000Y-114803000D01*
X115362000Y-109737000D02*
X115362000Y-111288000D01*
X115362000Y-113248000D02*
X115362000Y-114799000D01*
X115402000Y-109743000D02*
X115402000Y-111288000D01*
X115402000Y-113248000D02*
X115402000Y-114793000D01*
X115442000Y-109749000D02*
X115442000Y-111288000D01*
X115442000Y-113248000D02*
X115442000Y-114787000D01*
X115482000Y-109755000D02*
X115482000Y-111288000D01*
X115482000Y-113248000D02*
X115482000Y-114781000D01*
X115522000Y-109762000D02*
X115522000Y-111288000D01*
X115522000Y-113248000D02*
X115522000Y-114774000D01*
X115562000Y-109770000D02*
X115562000Y-111288000D01*
X115562000Y-113248000D02*
X115562000Y-114766000D01*
X115602000Y-109779000D02*
X115602000Y-111288000D01*
X115602000Y-113248000D02*
X115602000Y-114757000D01*
X115642000Y-109788000D02*
X115642000Y-111288000D01*
X115642000Y-113248000D02*
X115642000Y-114748000D01*
X115682000Y-109798000D02*
X115682000Y-111288000D01*
X115682000Y-113248000D02*
X115682000Y-114738000D01*
X115722000Y-109808000D02*
X115722000Y-111288000D01*
X115722000Y-113248000D02*
X115722000Y-114728000D01*
X115763000Y-109820000D02*
X115763000Y-111288000D01*
X115763000Y-113248000D02*
X115763000Y-114716000D01*
X115803000Y-109832000D02*
X115803000Y-111288000D01*
X115803000Y-113248000D02*
X115803000Y-114704000D01*
X115843000Y-109844000D02*
X115843000Y-111288000D01*
X115843000Y-113248000D02*
X115843000Y-114692000D01*
X115883000Y-109858000D02*
X115883000Y-111288000D01*
X115883000Y-113248000D02*
X115883000Y-114678000D01*
X115923000Y-109872000D02*
X115923000Y-111288000D01*
X115923000Y-113248000D02*
X115923000Y-114664000D01*
X115963000Y-109886000D02*
X115963000Y-111288000D01*
X115963000Y-113248000D02*
X115963000Y-114650000D01*
X116003000Y-109902000D02*
X116003000Y-111288000D01*
X116003000Y-113248000D02*
X116003000Y-114634000D01*
X116043000Y-109918000D02*
X116043000Y-111288000D01*
X116043000Y-113248000D02*
X116043000Y-114618000D01*
X116083000Y-109935000D02*
X116083000Y-111288000D01*
X116083000Y-113248000D02*
X116083000Y-114601000D01*
X116123000Y-109953000D02*
X116123000Y-111288000D01*
X116123000Y-113248000D02*
X116123000Y-114583000D01*
X116163000Y-109972000D02*
X116163000Y-111288000D01*
X116163000Y-113248000D02*
X116163000Y-114564000D01*
X116203000Y-109992000D02*
X116203000Y-111288000D01*
X116203000Y-113248000D02*
X116203000Y-114544000D01*
X116243000Y-110012000D02*
X116243000Y-111288000D01*
X116243000Y-113248000D02*
X116243000Y-114524000D01*
X116283000Y-110034000D02*
X116283000Y-111288000D01*
X116283000Y-113248000D02*
X116283000Y-114502000D01*
X116323000Y-110056000D02*
X116323000Y-111288000D01*
X116323000Y-113248000D02*
X116323000Y-114480000D01*
X116363000Y-110079000D02*
X116363000Y-111288000D01*
X116363000Y-113248000D02*
X116363000Y-114457000D01*
X116403000Y-110103000D02*
X116403000Y-111288000D01*
X116403000Y-113248000D02*
X116403000Y-114433000D01*
X116443000Y-110128000D02*
X116443000Y-111288000D01*
X116443000Y-113248000D02*
X116443000Y-114408000D01*
X116483000Y-110155000D02*
X116483000Y-111288000D01*
X116483000Y-113248000D02*
X116483000Y-114381000D01*
X116523000Y-110182000D02*
X116523000Y-111288000D01*
X116523000Y-113248000D02*
X116523000Y-114354000D01*
X116563000Y-110210000D02*
X116563000Y-111288000D01*
X116563000Y-113248000D02*
X116563000Y-114326000D01*
X116603000Y-110240000D02*
X116603000Y-111288000D01*
X116603000Y-113248000D02*
X116603000Y-114296000D01*
X116643000Y-110271000D02*
X116643000Y-111288000D01*
X116643000Y-113248000D02*
X116643000Y-114265000D01*
X116683000Y-110303000D02*
X116683000Y-111288000D01*
X116683000Y-113248000D02*
X116683000Y-114233000D01*
X116723000Y-110336000D02*
X116723000Y-111288000D01*
X116723000Y-113248000D02*
X116723000Y-114200000D01*
X116763000Y-110371000D02*
X116763000Y-111288000D01*
X116763000Y-113248000D02*
X116763000Y-114165000D01*
X116803000Y-110407000D02*
X116803000Y-111288000D01*
X116803000Y-113248000D02*
X116803000Y-114129000D01*
X116843000Y-110445000D02*
X116843000Y-111288000D01*
X116843000Y-113248000D02*
X116843000Y-114091000D01*
X116883000Y-110485000D02*
X116883000Y-111288000D01*
X116883000Y-113248000D02*
X116883000Y-114051000D01*
X116923000Y-110526000D02*
X116923000Y-111288000D01*
X116923000Y-113248000D02*
X116923000Y-114010000D01*
X116963000Y-110569000D02*
X116963000Y-111288000D01*
X116963000Y-113248000D02*
X116963000Y-113967000D01*
X117003000Y-110614000D02*
X117003000Y-111288000D01*
X117003000Y-113248000D02*
X117003000Y-113922000D01*
X117043000Y-110662000D02*
X117043000Y-111288000D01*
X117043000Y-113248000D02*
X117043000Y-113874000D01*
X117083000Y-110712000D02*
X117083000Y-111288000D01*
X117083000Y-113248000D02*
X117083000Y-113824000D01*
X117123000Y-110764000D02*
X117123000Y-111288000D01*
X117123000Y-113248000D02*
X117123000Y-113772000D01*
X117163000Y-110820000D02*
X117163000Y-111288000D01*
X117163000Y-113248000D02*
X117163000Y-113716000D01*
X117203000Y-110878000D02*
X117203000Y-111288000D01*
X117203000Y-113248000D02*
X117203000Y-113658000D01*
X117243000Y-110941000D02*
X117243000Y-111288000D01*
X117243000Y-113248000D02*
X117243000Y-113595000D01*
X117283000Y-111007000D02*
X117283000Y-113529000D01*
X117323000Y-111079000D02*
X117323000Y-113457000D01*
X117363000Y-111156000D02*
X117363000Y-113380000D01*
X117403000Y-111240000D02*
X117403000Y-113296000D01*
X117443000Y-111334000D02*
X117443000Y-113202000D01*
X117483000Y-111439000D02*
X117483000Y-113097000D01*
X117523000Y-111561000D02*
X117523000Y-112975000D01*
X117563000Y-111709000D02*
X117563000Y-112827000D01*
X117603000Y-111914000D02*
X117603000Y-112622000D01*
X111592000Y-112268000D02*
X112792000Y-112268000D01*
X112192000Y-111618000D02*
X112192000Y-112918000D01*
X150875722Y-103595277D02*
G75*
G03X146264420Y-103595000I-2305722J-1179723D01*
G01*
X150875722Y-105954723D02*
G75*
G02X146264420Y-105955000I-2305722J1179723D01*
G01*
X150875722Y-105954723D02*
G75*
G03X150875580Y-103595000I-2305722J1179723D01*
G01*
X148570000Y-102225000D02*
X148570000Y-107325000D01*
X148610000Y-102225000D02*
X148610000Y-107325000D01*
X148650000Y-102226000D02*
X148650000Y-107324000D01*
X148690000Y-102227000D02*
X148690000Y-107323000D01*
X148730000Y-102229000D02*
X148730000Y-107321000D01*
X148770000Y-102232000D02*
X148770000Y-107318000D01*
X148810000Y-102236000D02*
X148810000Y-107314000D01*
X148850000Y-102240000D02*
X148850000Y-103795000D01*
X148850000Y-105755000D02*
X148850000Y-107310000D01*
X148890000Y-102244000D02*
X148890000Y-103795000D01*
X148890000Y-105755000D02*
X148890000Y-107306000D01*
X148930000Y-102250000D02*
X148930000Y-103795000D01*
X148930000Y-105755000D02*
X148930000Y-107300000D01*
X148970000Y-102256000D02*
X148970000Y-103795000D01*
X148970000Y-105755000D02*
X148970000Y-107294000D01*
X149010000Y-102262000D02*
X149010000Y-103795000D01*
X149010000Y-105755000D02*
X149010000Y-107288000D01*
X149050000Y-102269000D02*
X149050000Y-103795000D01*
X149050000Y-105755000D02*
X149050000Y-107281000D01*
X149090000Y-102277000D02*
X149090000Y-103795000D01*
X149090000Y-105755000D02*
X149090000Y-107273000D01*
X149130000Y-102286000D02*
X149130000Y-103795000D01*
X149130000Y-105755000D02*
X149130000Y-107264000D01*
X149170000Y-102295000D02*
X149170000Y-103795000D01*
X149170000Y-105755000D02*
X149170000Y-107255000D01*
X149210000Y-102305000D02*
X149210000Y-103795000D01*
X149210000Y-105755000D02*
X149210000Y-107245000D01*
X149250000Y-102315000D02*
X149250000Y-103795000D01*
X149250000Y-105755000D02*
X149250000Y-107235000D01*
X149291000Y-102327000D02*
X149291000Y-103795000D01*
X149291000Y-105755000D02*
X149291000Y-107223000D01*
X149331000Y-102339000D02*
X149331000Y-103795000D01*
X149331000Y-105755000D02*
X149331000Y-107211000D01*
X149371000Y-102351000D02*
X149371000Y-103795000D01*
X149371000Y-105755000D02*
X149371000Y-107199000D01*
X149411000Y-102365000D02*
X149411000Y-103795000D01*
X149411000Y-105755000D02*
X149411000Y-107185000D01*
X149451000Y-102379000D02*
X149451000Y-103795000D01*
X149451000Y-105755000D02*
X149451000Y-107171000D01*
X149491000Y-102393000D02*
X149491000Y-103795000D01*
X149491000Y-105755000D02*
X149491000Y-107157000D01*
X149531000Y-102409000D02*
X149531000Y-103795000D01*
X149531000Y-105755000D02*
X149531000Y-107141000D01*
X149571000Y-102425000D02*
X149571000Y-103795000D01*
X149571000Y-105755000D02*
X149571000Y-107125000D01*
X149611000Y-102442000D02*
X149611000Y-103795000D01*
X149611000Y-105755000D02*
X149611000Y-107108000D01*
X149651000Y-102460000D02*
X149651000Y-103795000D01*
X149651000Y-105755000D02*
X149651000Y-107090000D01*
X149691000Y-102479000D02*
X149691000Y-103795000D01*
X149691000Y-105755000D02*
X149691000Y-107071000D01*
X149731000Y-102499000D02*
X149731000Y-103795000D01*
X149731000Y-105755000D02*
X149731000Y-107051000D01*
X149771000Y-102519000D02*
X149771000Y-103795000D01*
X149771000Y-105755000D02*
X149771000Y-107031000D01*
X149811000Y-102541000D02*
X149811000Y-103795000D01*
X149811000Y-105755000D02*
X149811000Y-107009000D01*
X149851000Y-102563000D02*
X149851000Y-103795000D01*
X149851000Y-105755000D02*
X149851000Y-106987000D01*
X149891000Y-102586000D02*
X149891000Y-103795000D01*
X149891000Y-105755000D02*
X149891000Y-106964000D01*
X149931000Y-102610000D02*
X149931000Y-103795000D01*
X149931000Y-105755000D02*
X149931000Y-106940000D01*
X149971000Y-102635000D02*
X149971000Y-103795000D01*
X149971000Y-105755000D02*
X149971000Y-106915000D01*
X150011000Y-102662000D02*
X150011000Y-103795000D01*
X150011000Y-105755000D02*
X150011000Y-106888000D01*
X150051000Y-102689000D02*
X150051000Y-103795000D01*
X150051000Y-105755000D02*
X150051000Y-106861000D01*
X150091000Y-102717000D02*
X150091000Y-103795000D01*
X150091000Y-105755000D02*
X150091000Y-106833000D01*
X150131000Y-102747000D02*
X150131000Y-103795000D01*
X150131000Y-105755000D02*
X150131000Y-106803000D01*
X150171000Y-102778000D02*
X150171000Y-103795000D01*
X150171000Y-105755000D02*
X150171000Y-106772000D01*
X150211000Y-102810000D02*
X150211000Y-103795000D01*
X150211000Y-105755000D02*
X150211000Y-106740000D01*
X150251000Y-102843000D02*
X150251000Y-103795000D01*
X150251000Y-105755000D02*
X150251000Y-106707000D01*
X150291000Y-102878000D02*
X150291000Y-103795000D01*
X150291000Y-105755000D02*
X150291000Y-106672000D01*
X150331000Y-102914000D02*
X150331000Y-103795000D01*
X150331000Y-105755000D02*
X150331000Y-106636000D01*
X150371000Y-102952000D02*
X150371000Y-103795000D01*
X150371000Y-105755000D02*
X150371000Y-106598000D01*
X150411000Y-102992000D02*
X150411000Y-103795000D01*
X150411000Y-105755000D02*
X150411000Y-106558000D01*
X150451000Y-103033000D02*
X150451000Y-103795000D01*
X150451000Y-105755000D02*
X150451000Y-106517000D01*
X150491000Y-103076000D02*
X150491000Y-103795000D01*
X150491000Y-105755000D02*
X150491000Y-106474000D01*
X150531000Y-103121000D02*
X150531000Y-103795000D01*
X150531000Y-105755000D02*
X150531000Y-106429000D01*
X150571000Y-103169000D02*
X150571000Y-103795000D01*
X150571000Y-105755000D02*
X150571000Y-106381000D01*
X150611000Y-103219000D02*
X150611000Y-103795000D01*
X150611000Y-105755000D02*
X150611000Y-106331000D01*
X150651000Y-103271000D02*
X150651000Y-103795000D01*
X150651000Y-105755000D02*
X150651000Y-106279000D01*
X150691000Y-103327000D02*
X150691000Y-103795000D01*
X150691000Y-105755000D02*
X150691000Y-106223000D01*
X150731000Y-103385000D02*
X150731000Y-103795000D01*
X150731000Y-105755000D02*
X150731000Y-106165000D01*
X150771000Y-103448000D02*
X150771000Y-103795000D01*
X150771000Y-105755000D02*
X150771000Y-106102000D01*
X150811000Y-103514000D02*
X150811000Y-106036000D01*
X150851000Y-103586000D02*
X150851000Y-105964000D01*
X150891000Y-103663000D02*
X150891000Y-105887000D01*
X150931000Y-103747000D02*
X150931000Y-105803000D01*
X150971000Y-103841000D02*
X150971000Y-105709000D01*
X151011000Y-103946000D02*
X151011000Y-105604000D01*
X151051000Y-104068000D02*
X151051000Y-105482000D01*
X151091000Y-104216000D02*
X151091000Y-105334000D01*
X151131000Y-104421000D02*
X151131000Y-105129000D01*
X145120000Y-104775000D02*
X146320000Y-104775000D01*
X145720000Y-104125000D02*
X145720000Y-105425000D01*
X126745722Y-111215277D02*
G75*
G03X122134420Y-111215000I-2305722J-1179723D01*
G01*
X126745722Y-113574723D02*
G75*
G02X122134420Y-113575000I-2305722J1179723D01*
G01*
X126745722Y-113574723D02*
G75*
G03X126745580Y-111215000I-2305722J1179723D01*
G01*
X124440000Y-109845000D02*
X124440000Y-114945000D01*
X124480000Y-109845000D02*
X124480000Y-114945000D01*
X124520000Y-109846000D02*
X124520000Y-114944000D01*
X124560000Y-109847000D02*
X124560000Y-114943000D01*
X124600000Y-109849000D02*
X124600000Y-114941000D01*
X124640000Y-109852000D02*
X124640000Y-114938000D01*
X124680000Y-109856000D02*
X124680000Y-114934000D01*
X124720000Y-109860000D02*
X124720000Y-111415000D01*
X124720000Y-113375000D02*
X124720000Y-114930000D01*
X124760000Y-109864000D02*
X124760000Y-111415000D01*
X124760000Y-113375000D02*
X124760000Y-114926000D01*
X124800000Y-109870000D02*
X124800000Y-111415000D01*
X124800000Y-113375000D02*
X124800000Y-114920000D01*
X124840000Y-109876000D02*
X124840000Y-111415000D01*
X124840000Y-113375000D02*
X124840000Y-114914000D01*
X124880000Y-109882000D02*
X124880000Y-111415000D01*
X124880000Y-113375000D02*
X124880000Y-114908000D01*
X124920000Y-109889000D02*
X124920000Y-111415000D01*
X124920000Y-113375000D02*
X124920000Y-114901000D01*
X124960000Y-109897000D02*
X124960000Y-111415000D01*
X124960000Y-113375000D02*
X124960000Y-114893000D01*
X125000000Y-109906000D02*
X125000000Y-111415000D01*
X125000000Y-113375000D02*
X125000000Y-114884000D01*
X125040000Y-109915000D02*
X125040000Y-111415000D01*
X125040000Y-113375000D02*
X125040000Y-114875000D01*
X125080000Y-109925000D02*
X125080000Y-111415000D01*
X125080000Y-113375000D02*
X125080000Y-114865000D01*
X125120000Y-109935000D02*
X125120000Y-111415000D01*
X125120000Y-113375000D02*
X125120000Y-114855000D01*
X125161000Y-109947000D02*
X125161000Y-111415000D01*
X125161000Y-113375000D02*
X125161000Y-114843000D01*
X125201000Y-109959000D02*
X125201000Y-111415000D01*
X125201000Y-113375000D02*
X125201000Y-114831000D01*
X125241000Y-109971000D02*
X125241000Y-111415000D01*
X125241000Y-113375000D02*
X125241000Y-114819000D01*
X125281000Y-109985000D02*
X125281000Y-111415000D01*
X125281000Y-113375000D02*
X125281000Y-114805000D01*
X125321000Y-109999000D02*
X125321000Y-111415000D01*
X125321000Y-113375000D02*
X125321000Y-114791000D01*
X125361000Y-110013000D02*
X125361000Y-111415000D01*
X125361000Y-113375000D02*
X125361000Y-114777000D01*
X125401000Y-110029000D02*
X125401000Y-111415000D01*
X125401000Y-113375000D02*
X125401000Y-114761000D01*
X125441000Y-110045000D02*
X125441000Y-111415000D01*
X125441000Y-113375000D02*
X125441000Y-114745000D01*
X125481000Y-110062000D02*
X125481000Y-111415000D01*
X125481000Y-113375000D02*
X125481000Y-114728000D01*
X125521000Y-110080000D02*
X125521000Y-111415000D01*
X125521000Y-113375000D02*
X125521000Y-114710000D01*
X125561000Y-110099000D02*
X125561000Y-111415000D01*
X125561000Y-113375000D02*
X125561000Y-114691000D01*
X125601000Y-110119000D02*
X125601000Y-111415000D01*
X125601000Y-113375000D02*
X125601000Y-114671000D01*
X125641000Y-110139000D02*
X125641000Y-111415000D01*
X125641000Y-113375000D02*
X125641000Y-114651000D01*
X125681000Y-110161000D02*
X125681000Y-111415000D01*
X125681000Y-113375000D02*
X125681000Y-114629000D01*
X125721000Y-110183000D02*
X125721000Y-111415000D01*
X125721000Y-113375000D02*
X125721000Y-114607000D01*
X125761000Y-110206000D02*
X125761000Y-111415000D01*
X125761000Y-113375000D02*
X125761000Y-114584000D01*
X125801000Y-110230000D02*
X125801000Y-111415000D01*
X125801000Y-113375000D02*
X125801000Y-114560000D01*
X125841000Y-110255000D02*
X125841000Y-111415000D01*
X125841000Y-113375000D02*
X125841000Y-114535000D01*
X125881000Y-110282000D02*
X125881000Y-111415000D01*
X125881000Y-113375000D02*
X125881000Y-114508000D01*
X125921000Y-110309000D02*
X125921000Y-111415000D01*
X125921000Y-113375000D02*
X125921000Y-114481000D01*
X125961000Y-110337000D02*
X125961000Y-111415000D01*
X125961000Y-113375000D02*
X125961000Y-114453000D01*
X126001000Y-110367000D02*
X126001000Y-111415000D01*
X126001000Y-113375000D02*
X126001000Y-114423000D01*
X126041000Y-110398000D02*
X126041000Y-111415000D01*
X126041000Y-113375000D02*
X126041000Y-114392000D01*
X126081000Y-110430000D02*
X126081000Y-111415000D01*
X126081000Y-113375000D02*
X126081000Y-114360000D01*
X126121000Y-110463000D02*
X126121000Y-111415000D01*
X126121000Y-113375000D02*
X126121000Y-114327000D01*
X126161000Y-110498000D02*
X126161000Y-111415000D01*
X126161000Y-113375000D02*
X126161000Y-114292000D01*
X126201000Y-110534000D02*
X126201000Y-111415000D01*
X126201000Y-113375000D02*
X126201000Y-114256000D01*
X126241000Y-110572000D02*
X126241000Y-111415000D01*
X126241000Y-113375000D02*
X126241000Y-114218000D01*
X126281000Y-110612000D02*
X126281000Y-111415000D01*
X126281000Y-113375000D02*
X126281000Y-114178000D01*
X126321000Y-110653000D02*
X126321000Y-111415000D01*
X126321000Y-113375000D02*
X126321000Y-114137000D01*
X126361000Y-110696000D02*
X126361000Y-111415000D01*
X126361000Y-113375000D02*
X126361000Y-114094000D01*
X126401000Y-110741000D02*
X126401000Y-111415000D01*
X126401000Y-113375000D02*
X126401000Y-114049000D01*
X126441000Y-110789000D02*
X126441000Y-111415000D01*
X126441000Y-113375000D02*
X126441000Y-114001000D01*
X126481000Y-110839000D02*
X126481000Y-111415000D01*
X126481000Y-113375000D02*
X126481000Y-113951000D01*
X126521000Y-110891000D02*
X126521000Y-111415000D01*
X126521000Y-113375000D02*
X126521000Y-113899000D01*
X126561000Y-110947000D02*
X126561000Y-111415000D01*
X126561000Y-113375000D02*
X126561000Y-113843000D01*
X126601000Y-111005000D02*
X126601000Y-111415000D01*
X126601000Y-113375000D02*
X126601000Y-113785000D01*
X126641000Y-111068000D02*
X126641000Y-111415000D01*
X126641000Y-113375000D02*
X126641000Y-113722000D01*
X126681000Y-111134000D02*
X126681000Y-113656000D01*
X126721000Y-111206000D02*
X126721000Y-113584000D01*
X126761000Y-111283000D02*
X126761000Y-113507000D01*
X126801000Y-111367000D02*
X126801000Y-113423000D01*
X126841000Y-111461000D02*
X126841000Y-113329000D01*
X126881000Y-111566000D02*
X126881000Y-113224000D01*
X126921000Y-111688000D02*
X126921000Y-113102000D01*
X126961000Y-111836000D02*
X126961000Y-112954000D01*
X127001000Y-112041000D02*
X127001000Y-112749000D01*
X120990000Y-112395000D02*
X122190000Y-112395000D01*
X121590000Y-111745000D02*
X121590000Y-113045000D01*
D15*
X116038334Y-119737143D02*
X115990715Y-119784762D01*
X115847858Y-119832381D01*
X115752620Y-119832381D01*
X115609762Y-119784762D01*
X115514524Y-119689524D01*
X115466905Y-119594286D01*
X115419286Y-119403810D01*
X115419286Y-119260952D01*
X115466905Y-119070476D01*
X115514524Y-118975238D01*
X115609762Y-118880000D01*
X115752620Y-118832381D01*
X115847858Y-118832381D01*
X115990715Y-118880000D01*
X116038334Y-118927619D01*
X116990715Y-119832381D02*
X116419286Y-119832381D01*
X116705000Y-119832381D02*
X116705000Y-118832381D01*
X116609762Y-118975238D01*
X116514524Y-119070476D01*
X116419286Y-119118095D01*
X93321143Y-99734666D02*
X93368762Y-99782285D01*
X93416381Y-99925142D01*
X93416381Y-100020380D01*
X93368762Y-100163238D01*
X93273524Y-100258476D01*
X93178286Y-100306095D01*
X92987810Y-100353714D01*
X92844952Y-100353714D01*
X92654476Y-100306095D01*
X92559238Y-100258476D01*
X92464000Y-100163238D01*
X92416381Y-100020380D01*
X92416381Y-99925142D01*
X92464000Y-99782285D01*
X92511619Y-99734666D01*
X92511619Y-99353714D02*
X92464000Y-99306095D01*
X92416381Y-99210857D01*
X92416381Y-98972761D01*
X92464000Y-98877523D01*
X92511619Y-98829904D01*
X92606857Y-98782285D01*
X92702095Y-98782285D01*
X92844952Y-98829904D01*
X93416381Y-99401333D01*
X93416381Y-98782285D01*
X93130714Y-94987857D02*
X93797381Y-94987857D01*
X92749762Y-95225953D02*
X93464048Y-95464048D01*
X93464048Y-94845000D01*
X92797381Y-94559286D02*
X92797381Y-93892619D01*
X93797381Y-94321191D01*
X92797381Y-93321191D02*
X92797381Y-93225952D01*
X92845000Y-93130714D01*
X92892619Y-93083095D01*
X92987857Y-93035476D01*
X93178333Y-92987857D01*
X93416429Y-92987857D01*
X93606905Y-93035476D01*
X93702143Y-93083095D01*
X93749762Y-93130714D01*
X93797381Y-93225952D01*
X93797381Y-93321191D01*
X93749762Y-93416429D01*
X93702143Y-93464048D01*
X93606905Y-93511667D01*
X93416429Y-93559286D01*
X93178333Y-93559286D01*
X92987857Y-93511667D01*
X92892619Y-93464048D01*
X92845000Y-93416429D01*
X92797381Y-93321191D01*
X93130714Y-92559286D02*
X93797381Y-92559286D01*
X93225952Y-92559286D02*
X93178333Y-92511667D01*
X93130714Y-92416429D01*
X93130714Y-92273571D01*
X93178333Y-92178333D01*
X93273571Y-92130714D01*
X93797381Y-92130714D01*
X93273571Y-91321190D02*
X93273571Y-91654524D01*
X93797381Y-91654524D02*
X92797381Y-91654524D01*
X92797381Y-91178333D01*
X124928334Y-119737143D02*
X124880715Y-119784762D01*
X124737858Y-119832381D01*
X124642620Y-119832381D01*
X124499762Y-119784762D01*
X124404524Y-119689524D01*
X124356905Y-119594286D01*
X124309286Y-119403810D01*
X124309286Y-119260952D01*
X124356905Y-119070476D01*
X124404524Y-118975238D01*
X124499762Y-118880000D01*
X124642620Y-118832381D01*
X124737858Y-118832381D01*
X124880715Y-118880000D01*
X124928334Y-118927619D01*
X125785477Y-119165714D02*
X125785477Y-119832381D01*
X125547381Y-118784762D02*
X125309286Y-119499048D01*
X125928334Y-119499048D01*
X136358334Y-109577143D02*
X136310715Y-109624762D01*
X136167858Y-109672381D01*
X136072620Y-109672381D01*
X135929762Y-109624762D01*
X135834524Y-109529524D01*
X135786905Y-109434286D01*
X135739286Y-109243810D01*
X135739286Y-109100952D01*
X135786905Y-108910476D01*
X135834524Y-108815238D01*
X135929762Y-108720000D01*
X136072620Y-108672381D01*
X136167858Y-108672381D01*
X136310715Y-108720000D01*
X136358334Y-108767619D01*
X136691667Y-108672381D02*
X137358334Y-108672381D01*
X136929762Y-109672381D01*
X157948334Y-101322143D02*
X157900715Y-101369762D01*
X157757858Y-101417381D01*
X157662620Y-101417381D01*
X157519762Y-101369762D01*
X157424524Y-101274524D01*
X157376905Y-101179286D01*
X157329286Y-100988810D01*
X157329286Y-100845952D01*
X157376905Y-100655476D01*
X157424524Y-100560238D01*
X157519762Y-100465000D01*
X157662620Y-100417381D01*
X157757858Y-100417381D01*
X157900715Y-100465000D01*
X157948334Y-100512619D01*
X158519762Y-100845952D02*
X158424524Y-100798333D01*
X158376905Y-100750714D01*
X158329286Y-100655476D01*
X158329286Y-100607857D01*
X158376905Y-100512619D01*
X158424524Y-100465000D01*
X158519762Y-100417381D01*
X158710239Y-100417381D01*
X158805477Y-100465000D01*
X158853096Y-100512619D01*
X158900715Y-100607857D01*
X158900715Y-100655476D01*
X158853096Y-100750714D01*
X158805477Y-100798333D01*
X158710239Y-100845952D01*
X158519762Y-100845952D01*
X158424524Y-100893571D01*
X158376905Y-100941190D01*
X158329286Y-101036429D01*
X158329286Y-101226905D01*
X158376905Y-101322143D01*
X158424524Y-101369762D01*
X158519762Y-101417381D01*
X158710239Y-101417381D01*
X158805477Y-101369762D01*
X158853096Y-101322143D01*
X158900715Y-101226905D01*
X158900715Y-101036429D01*
X158853096Y-100941190D01*
X158805477Y-100893571D01*
X158710239Y-100845952D01*
X163877381Y-108708809D02*
X163877381Y-109280238D01*
X163877381Y-108994524D02*
X162877381Y-108994524D01*
X163020238Y-109089762D01*
X163115476Y-109185000D01*
X163163095Y-109280238D01*
X162877381Y-108089762D02*
X162877381Y-107994523D01*
X162925000Y-107899285D01*
X162972619Y-107851666D01*
X163067857Y-107804047D01*
X163258333Y-107756428D01*
X163496429Y-107756428D01*
X163686905Y-107804047D01*
X163782143Y-107851666D01*
X163829762Y-107899285D01*
X163877381Y-107994523D01*
X163877381Y-108089762D01*
X163829762Y-108185000D01*
X163782143Y-108232619D01*
X163686905Y-108280238D01*
X163496429Y-108327857D01*
X163258333Y-108327857D01*
X163067857Y-108280238D01*
X162972619Y-108232619D01*
X162925000Y-108185000D01*
X162877381Y-108089762D01*
X162877381Y-107137381D02*
X162877381Y-107042142D01*
X162925000Y-106946904D01*
X162972619Y-106899285D01*
X163067857Y-106851666D01*
X163258333Y-106804047D01*
X163496429Y-106804047D01*
X163686905Y-106851666D01*
X163782143Y-106899285D01*
X163829762Y-106946904D01*
X163877381Y-107042142D01*
X163877381Y-107137381D01*
X163829762Y-107232619D01*
X163782143Y-107280238D01*
X163686905Y-107327857D01*
X163496429Y-107375476D01*
X163258333Y-107375476D01*
X163067857Y-107327857D01*
X162972619Y-107280238D01*
X162925000Y-107232619D01*
X162877381Y-107137381D01*
X162877381Y-106185000D02*
X162877381Y-106089761D01*
X162925000Y-105994523D01*
X162972619Y-105946904D01*
X163067857Y-105899285D01*
X163258333Y-105851666D01*
X163496429Y-105851666D01*
X163686905Y-105899285D01*
X163782143Y-105946904D01*
X163829762Y-105994523D01*
X163877381Y-106089761D01*
X163877381Y-106185000D01*
X163829762Y-106280238D01*
X163782143Y-106327857D01*
X163686905Y-106375476D01*
X163496429Y-106423095D01*
X163258333Y-106423095D01*
X163067857Y-106375476D01*
X162972619Y-106327857D01*
X162925000Y-106280238D01*
X162877381Y-106185000D01*
X163210714Y-104994523D02*
X163877381Y-104994523D01*
X163210714Y-105423095D02*
X163734524Y-105423095D01*
X163829762Y-105375476D01*
X163877381Y-105280238D01*
X163877381Y-105137380D01*
X163829762Y-105042142D01*
X163782143Y-104994523D01*
X163353571Y-104184999D02*
X163353571Y-104518333D01*
X163877381Y-104518333D02*
X162877381Y-104518333D01*
X162877381Y-104042142D01*
X146645476Y-138037381D02*
X146645476Y-137037381D01*
X147026429Y-137037381D01*
X147121667Y-137085000D01*
X147169286Y-137132619D01*
X147216905Y-137227857D01*
X147216905Y-137370714D01*
X147169286Y-137465952D01*
X147121667Y-137513571D01*
X147026429Y-137561190D01*
X146645476Y-137561190D01*
X147788333Y-138037381D02*
X147693095Y-137989762D01*
X147645476Y-137942143D01*
X147597857Y-137846905D01*
X147597857Y-137561190D01*
X147645476Y-137465952D01*
X147693095Y-137418333D01*
X147788333Y-137370714D01*
X147931191Y-137370714D01*
X148026429Y-137418333D01*
X148074048Y-137465952D01*
X148121667Y-137561190D01*
X148121667Y-137846905D01*
X148074048Y-137942143D01*
X148026429Y-137989762D01*
X147931191Y-138037381D01*
X147788333Y-138037381D01*
X148550238Y-138037381D02*
X148550238Y-137370714D01*
X148550238Y-137561190D02*
X148597857Y-137465952D01*
X148645476Y-137418333D01*
X148740714Y-137370714D01*
X148835953Y-137370714D01*
X149026429Y-137370714D02*
X149407381Y-137370714D01*
X149169286Y-137037381D02*
X149169286Y-137894524D01*
X149216905Y-137989762D01*
X149312143Y-138037381D01*
X149407381Y-138037381D01*
X167695715Y-137513571D02*
X167838572Y-137561190D01*
X167886191Y-137608810D01*
X167933810Y-137704048D01*
X167933810Y-137846905D01*
X167886191Y-137942143D01*
X167838572Y-137989762D01*
X167743334Y-138037381D01*
X167362381Y-138037381D01*
X167362381Y-137037381D01*
X167695715Y-137037381D01*
X167790953Y-137085000D01*
X167838572Y-137132619D01*
X167886191Y-137227857D01*
X167886191Y-137323095D01*
X167838572Y-137418333D01*
X167790953Y-137465952D01*
X167695715Y-137513571D01*
X167362381Y-137513571D01*
X168790953Y-138037381D02*
X168790953Y-137513571D01*
X168743334Y-137418333D01*
X168648096Y-137370714D01*
X168457619Y-137370714D01*
X168362381Y-137418333D01*
X168790953Y-137989762D02*
X168695715Y-138037381D01*
X168457619Y-138037381D01*
X168362381Y-137989762D01*
X168314762Y-137894524D01*
X168314762Y-137799286D01*
X168362381Y-137704048D01*
X168457619Y-137656429D01*
X168695715Y-137656429D01*
X168790953Y-137608810D01*
X169219524Y-137989762D02*
X169314762Y-138037381D01*
X169505238Y-138037381D01*
X169600477Y-137989762D01*
X169648096Y-137894524D01*
X169648096Y-137846905D01*
X169600477Y-137751667D01*
X169505238Y-137704048D01*
X169362381Y-137704048D01*
X169267143Y-137656429D01*
X169219524Y-137561190D01*
X169219524Y-137513571D01*
X169267143Y-137418333D01*
X169362381Y-137370714D01*
X169505238Y-137370714D01*
X169600477Y-137418333D01*
X170457620Y-137989762D02*
X170362382Y-138037381D01*
X170171905Y-138037381D01*
X170076667Y-137989762D01*
X170029048Y-137894524D01*
X170029048Y-137513571D01*
X170076667Y-137418333D01*
X170171905Y-137370714D01*
X170362382Y-137370714D01*
X170457620Y-137418333D01*
X170505239Y-137513571D01*
X170505239Y-137608810D01*
X170029048Y-137704048D01*
X175712381Y-146323333D02*
X176426667Y-146323333D01*
X176569524Y-146370953D01*
X176664762Y-146466191D01*
X176712381Y-146609048D01*
X176712381Y-146704286D01*
X176045714Y-145418571D02*
X176712381Y-145418571D01*
X175664762Y-145656667D02*
X176379048Y-145894762D01*
X176379048Y-145275714D01*
X112831667Y-86447381D02*
X112831667Y-87161667D01*
X112784047Y-87304524D01*
X112688809Y-87399762D01*
X112545952Y-87447381D01*
X112450714Y-87447381D01*
X113307857Y-87447381D02*
X113307857Y-86447381D01*
X113688810Y-86447381D01*
X113784048Y-86495000D01*
X113831667Y-86542619D01*
X113879286Y-86637857D01*
X113879286Y-86780714D01*
X113831667Y-86875952D01*
X113784048Y-86923571D01*
X113688810Y-86971190D01*
X113307857Y-86971190D01*
X114260238Y-86542619D02*
X114307857Y-86495000D01*
X114403095Y-86447381D01*
X114641191Y-86447381D01*
X114736429Y-86495000D01*
X114784048Y-86542619D01*
X114831667Y-86637857D01*
X114831667Y-86733095D01*
X114784048Y-86875952D01*
X114212619Y-87447381D01*
X114831667Y-87447381D01*
X104807143Y-91209762D02*
X104950000Y-91257381D01*
X105188096Y-91257381D01*
X105283334Y-91209762D01*
X105330953Y-91162143D01*
X105378572Y-91066905D01*
X105378572Y-90971667D01*
X105330953Y-90876429D01*
X105283334Y-90828810D01*
X105188096Y-90781190D01*
X104997619Y-90733571D01*
X104902381Y-90685952D01*
X104854762Y-90638333D01*
X104807143Y-90543095D01*
X104807143Y-90447857D01*
X104854762Y-90352619D01*
X104902381Y-90305000D01*
X104997619Y-90257381D01*
X105235715Y-90257381D01*
X105378572Y-90305000D01*
X105807143Y-91257381D02*
X105807143Y-90257381D01*
X106188096Y-90257381D01*
X106283334Y-90305000D01*
X106330953Y-90352619D01*
X106378572Y-90447857D01*
X106378572Y-90590714D01*
X106330953Y-90685952D01*
X106283334Y-90733571D01*
X106188096Y-90781190D01*
X105807143Y-90781190D01*
X106807143Y-91257381D02*
X106807143Y-90257381D01*
X107378572Y-91257381D02*
X106950000Y-90685952D01*
X107378572Y-90257381D02*
X106807143Y-90828810D01*
X108378572Y-91257381D02*
X108045238Y-90781190D01*
X107807143Y-91257381D02*
X107807143Y-90257381D01*
X108188096Y-90257381D01*
X108283334Y-90305000D01*
X108330953Y-90352619D01*
X108378572Y-90447857D01*
X108378572Y-90590714D01*
X108330953Y-90685952D01*
X108283334Y-90733571D01*
X108188096Y-90781190D01*
X107807143Y-90781190D01*
X108569048Y-91352619D02*
X109330953Y-91352619D01*
X109569048Y-90733571D02*
X109902382Y-90733571D01*
X110045239Y-91257381D02*
X109569048Y-91257381D01*
X109569048Y-90257381D01*
X110045239Y-90257381D01*
X110473810Y-91257381D02*
X110473810Y-90257381D01*
X111045239Y-91257381D01*
X111045239Y-90257381D01*
X126860550Y-93210313D02*
X126523832Y-92873595D01*
X127230939Y-92166488D01*
X127096252Y-93378672D02*
X127163595Y-93513359D01*
X127331955Y-93681718D01*
X127432970Y-93715390D01*
X127500313Y-93715390D01*
X127601328Y-93681718D01*
X127668672Y-93614374D01*
X127702343Y-93513359D01*
X127702343Y-93446016D01*
X127668672Y-93345000D01*
X127567657Y-93176641D01*
X127533985Y-93075626D01*
X127533985Y-93008282D01*
X127567657Y-92907267D01*
X127635000Y-92839924D01*
X127736015Y-92806252D01*
X127803359Y-92806252D01*
X127904374Y-92839924D01*
X128072733Y-93008283D01*
X128140076Y-93142970D01*
X128140076Y-94489840D02*
X127736015Y-94085778D01*
X127938045Y-94287809D02*
X128645152Y-93580702D01*
X128476794Y-93614374D01*
X128342107Y-93614374D01*
X128241092Y-93580702D01*
X124891138Y-100644256D02*
X125429887Y-101183004D01*
X124891139Y-101183004D02*
X125429887Y-100644256D01*
X137612381Y-104941666D02*
X137136190Y-105275000D01*
X137612381Y-105513095D02*
X136612381Y-105513095D01*
X136612381Y-105132142D01*
X136660000Y-105036904D01*
X136707619Y-104989285D01*
X136802857Y-104941666D01*
X136945714Y-104941666D01*
X137040952Y-104989285D01*
X137088571Y-105036904D01*
X137136190Y-105132142D01*
X137136190Y-105513095D01*
X137612381Y-103989285D02*
X137612381Y-104560714D01*
X137612381Y-104275000D02*
X136612381Y-104275000D01*
X136755238Y-104370238D01*
X136850476Y-104465476D01*
X136898095Y-104560714D01*
X139739762Y-105227381D02*
X139168333Y-105227381D01*
X139454047Y-105227381D02*
X139454047Y-104227381D01*
X139358809Y-104370238D01*
X139263571Y-104465476D01*
X139168333Y-104513095D01*
X140358809Y-104227381D02*
X140454048Y-104227381D01*
X140549286Y-104275000D01*
X140596905Y-104322619D01*
X140644524Y-104417857D01*
X140692143Y-104608333D01*
X140692143Y-104846429D01*
X140644524Y-105036905D01*
X140596905Y-105132143D01*
X140549286Y-105179762D01*
X140454048Y-105227381D01*
X140358809Y-105227381D01*
X140263571Y-105179762D01*
X140215952Y-105132143D01*
X140168333Y-105036905D01*
X140120714Y-104846429D01*
X140120714Y-104608333D01*
X140168333Y-104417857D01*
X140215952Y-104322619D01*
X140263571Y-104275000D01*
X140358809Y-104227381D01*
X141120714Y-105227381D02*
X141120714Y-104227381D01*
X141215952Y-104846429D02*
X141501667Y-105227381D01*
X141501667Y-104560714D02*
X141120714Y-104941667D01*
X107783334Y-116022381D02*
X107450000Y-115546190D01*
X107211905Y-116022381D02*
X107211905Y-115022381D01*
X107592858Y-115022381D01*
X107688096Y-115070000D01*
X107735715Y-115117619D01*
X107783334Y-115212857D01*
X107783334Y-115355714D01*
X107735715Y-115450952D01*
X107688096Y-115498571D01*
X107592858Y-115546190D01*
X107211905Y-115546190D01*
X108164286Y-115117619D02*
X108211905Y-115070000D01*
X108307143Y-115022381D01*
X108545239Y-115022381D01*
X108640477Y-115070000D01*
X108688096Y-115117619D01*
X108735715Y-115212857D01*
X108735715Y-115308095D01*
X108688096Y-115450952D01*
X108116667Y-116022381D01*
X108735715Y-116022381D01*
X107735714Y-119435476D02*
X108402381Y-119435476D01*
X107354762Y-119673572D02*
X108069048Y-119911667D01*
X108069048Y-119292619D01*
X108402381Y-118911667D02*
X107402381Y-118911667D01*
X108021429Y-118816429D02*
X108402381Y-118530714D01*
X107735714Y-118530714D02*
X108116667Y-118911667D01*
X107402381Y-118197381D02*
X107402381Y-117530714D01*
X108402381Y-117959286D01*
X145867381Y-109386666D02*
X145391190Y-109720000D01*
X145867381Y-109958095D02*
X144867381Y-109958095D01*
X144867381Y-109577142D01*
X144915000Y-109481904D01*
X144962619Y-109434285D01*
X145057857Y-109386666D01*
X145200714Y-109386666D01*
X145295952Y-109434285D01*
X145343571Y-109481904D01*
X145391190Y-109577142D01*
X145391190Y-109958095D01*
X144867381Y-109053333D02*
X144867381Y-108434285D01*
X145248333Y-108767619D01*
X145248333Y-108624761D01*
X145295952Y-108529523D01*
X145343571Y-108481904D01*
X145438810Y-108434285D01*
X145676905Y-108434285D01*
X145772143Y-108481904D01*
X145819762Y-108529523D01*
X145867381Y-108624761D01*
X145867381Y-108910476D01*
X145819762Y-109005714D01*
X145772143Y-109053333D01*
X148399524Y-109672381D02*
X147828095Y-109672381D01*
X148113809Y-109672381D02*
X148113809Y-108672381D01*
X148018571Y-108815238D01*
X147923333Y-108910476D01*
X147828095Y-108958095D01*
X149018571Y-108672381D02*
X149113810Y-108672381D01*
X149209048Y-108720000D01*
X149256667Y-108767619D01*
X149304286Y-108862857D01*
X149351905Y-109053333D01*
X149351905Y-109291429D01*
X149304286Y-109481905D01*
X149256667Y-109577143D01*
X149209048Y-109624762D01*
X149113810Y-109672381D01*
X149018571Y-109672381D01*
X148923333Y-109624762D01*
X148875714Y-109577143D01*
X148828095Y-109481905D01*
X148780476Y-109291429D01*
X148780476Y-109053333D01*
X148828095Y-108862857D01*
X148875714Y-108767619D01*
X148923333Y-108720000D01*
X149018571Y-108672381D01*
X113482381Y-99020238D02*
X113006190Y-99353572D01*
X113482381Y-99591667D02*
X112482381Y-99591667D01*
X112482381Y-99210714D01*
X112530000Y-99115476D01*
X112577619Y-99067857D01*
X112672857Y-99020238D01*
X112815714Y-99020238D01*
X112910952Y-99067857D01*
X112958571Y-99115476D01*
X113006190Y-99210714D01*
X113006190Y-99591667D01*
X112482381Y-98734524D02*
X113482381Y-98401191D01*
X112482381Y-98067857D01*
X113482381Y-97210714D02*
X113482381Y-97782143D01*
X113482381Y-97496429D02*
X112482381Y-97496429D01*
X112625238Y-97591667D01*
X112720476Y-97686905D01*
X112768095Y-97782143D01*
X107767381Y-99020238D02*
X107291190Y-99353572D01*
X107767381Y-99591667D02*
X106767381Y-99591667D01*
X106767381Y-99210714D01*
X106815000Y-99115476D01*
X106862619Y-99067857D01*
X106957857Y-99020238D01*
X107100714Y-99020238D01*
X107195952Y-99067857D01*
X107243571Y-99115476D01*
X107291190Y-99210714D01*
X107291190Y-99591667D01*
X106767381Y-98734524D02*
X107767381Y-98401191D01*
X106767381Y-98067857D01*
X106862619Y-97782143D02*
X106815000Y-97734524D01*
X106767381Y-97639286D01*
X106767381Y-97401190D01*
X106815000Y-97305952D01*
X106862619Y-97258333D01*
X106957857Y-97210714D01*
X107053095Y-97210714D01*
X107195952Y-97258333D01*
X107767381Y-97829762D01*
X107767381Y-97210714D01*
X99568095Y-96607381D02*
X99568095Y-97416905D01*
X99615714Y-97512143D01*
X99663333Y-97559762D01*
X99758571Y-97607381D01*
X99949048Y-97607381D01*
X100044286Y-97559762D01*
X100091905Y-97512143D01*
X100139524Y-97416905D01*
X100139524Y-96607381D01*
X101139524Y-97607381D02*
X100568095Y-97607381D01*
X100853809Y-97607381D02*
X100853809Y-96607381D01*
X100758571Y-96750238D01*
X100663333Y-96845476D01*
X100568095Y-96893095D01*
X98639524Y-100147381D02*
X98163333Y-100147381D01*
X98163333Y-99147381D01*
X98972857Y-100147381D02*
X98972857Y-99147381D01*
X99306191Y-99861667D01*
X99639524Y-99147381D01*
X99639524Y-100147381D01*
X100020476Y-99147381D02*
X100639524Y-99147381D01*
X100306190Y-99528333D01*
X100449048Y-99528333D01*
X100544286Y-99575952D01*
X100591905Y-99623571D01*
X100639524Y-99718810D01*
X100639524Y-99956905D01*
X100591905Y-100052143D01*
X100544286Y-100099762D01*
X100449048Y-100147381D01*
X100163333Y-100147381D01*
X100068095Y-100099762D01*
X100020476Y-100052143D01*
X101210952Y-99575952D02*
X101115714Y-99528333D01*
X101068095Y-99480714D01*
X101020476Y-99385476D01*
X101020476Y-99337857D01*
X101068095Y-99242619D01*
X101115714Y-99195000D01*
X101210952Y-99147381D01*
X101401429Y-99147381D01*
X101496667Y-99195000D01*
X101544286Y-99242619D01*
X101591905Y-99337857D01*
X101591905Y-99385476D01*
X101544286Y-99480714D01*
X101496667Y-99528333D01*
X101401429Y-99575952D01*
X101210952Y-99575952D01*
X101115714Y-99623571D01*
X101068095Y-99671190D01*
X101020476Y-99766429D01*
X101020476Y-99956905D01*
X101068095Y-100052143D01*
X101115714Y-100099762D01*
X101210952Y-100147381D01*
X101401429Y-100147381D01*
X101496667Y-100099762D01*
X101544286Y-100052143D01*
X101591905Y-99956905D01*
X101591905Y-99766429D01*
X101544286Y-99671190D01*
X101496667Y-99623571D01*
X101401429Y-99575952D01*
X102449048Y-99147381D02*
X102258571Y-99147381D01*
X102163333Y-99195000D01*
X102115714Y-99242619D01*
X102020476Y-99385476D01*
X101972857Y-99575952D01*
X101972857Y-99956905D01*
X102020476Y-100052143D01*
X102068095Y-100099762D01*
X102163333Y-100147381D01*
X102353810Y-100147381D01*
X102449048Y-100099762D01*
X102496667Y-100052143D01*
X102544286Y-99956905D01*
X102544286Y-99718810D01*
X102496667Y-99623571D01*
X102449048Y-99575952D01*
X102353810Y-99528333D01*
X102163333Y-99528333D01*
X102068095Y-99575952D01*
X102020476Y-99623571D01*
X101972857Y-99718810D01*
X99568095Y-114387381D02*
X99568095Y-115196905D01*
X99615714Y-115292143D01*
X99663333Y-115339762D01*
X99758571Y-115387381D01*
X99949048Y-115387381D01*
X100044286Y-115339762D01*
X100091905Y-115292143D01*
X100139524Y-115196905D01*
X100139524Y-114387381D01*
X100568095Y-114482619D02*
X100615714Y-114435000D01*
X100710952Y-114387381D01*
X100949048Y-114387381D01*
X101044286Y-114435000D01*
X101091905Y-114482619D01*
X101139524Y-114577857D01*
X101139524Y-114673095D01*
X101091905Y-114815952D01*
X100520476Y-115387381D01*
X101139524Y-115387381D01*
X99782381Y-126944048D02*
X99782381Y-126277381D01*
X100782381Y-126705953D01*
X100115714Y-125467857D02*
X100782381Y-125467857D01*
X99734762Y-125705953D02*
X100449048Y-125944048D01*
X100449048Y-125325000D01*
X100782381Y-124467857D02*
X100782381Y-124944048D01*
X99782381Y-124944048D01*
X100734762Y-124182143D02*
X100782381Y-124039286D01*
X100782381Y-123801190D01*
X100734762Y-123705952D01*
X100687143Y-123658333D01*
X100591905Y-123610714D01*
X100496667Y-123610714D01*
X100401429Y-123658333D01*
X100353810Y-123705952D01*
X100306190Y-123801190D01*
X100258571Y-123991667D01*
X100210952Y-124086905D01*
X100163333Y-124134524D01*
X100068095Y-124182143D01*
X99972857Y-124182143D01*
X99877619Y-124134524D01*
X99830000Y-124086905D01*
X99782381Y-123991667D01*
X99782381Y-123753571D01*
X99830000Y-123610714D01*
X99782381Y-123277381D02*
X99782381Y-122658333D01*
X100163333Y-122991667D01*
X100163333Y-122848809D01*
X100210952Y-122753571D01*
X100258571Y-122705952D01*
X100353810Y-122658333D01*
X100591905Y-122658333D01*
X100687143Y-122705952D01*
X100734762Y-122753571D01*
X100782381Y-122848809D01*
X100782381Y-123134524D01*
X100734762Y-123229762D01*
X100687143Y-123277381D01*
X99782381Y-122325000D02*
X99782381Y-121658333D01*
X100782381Y-122086905D01*
X99782381Y-121372619D02*
X99782381Y-120753571D01*
X100163333Y-121086905D01*
X100163333Y-120944047D01*
X100210952Y-120848809D01*
X100258571Y-120801190D01*
X100353810Y-120753571D01*
X100591905Y-120753571D01*
X100687143Y-120801190D01*
X100734762Y-120848809D01*
X100782381Y-120944047D01*
X100782381Y-121229762D01*
X100734762Y-121325000D01*
X100687143Y-121372619D01*
X137668095Y-119467381D02*
X137668095Y-120276905D01*
X137715714Y-120372143D01*
X137763333Y-120419762D01*
X137858571Y-120467381D01*
X138049048Y-120467381D01*
X138144286Y-120419762D01*
X138191905Y-120372143D01*
X138239524Y-120276905D01*
X138239524Y-119467381D01*
X138620476Y-119467381D02*
X139239524Y-119467381D01*
X138906190Y-119848333D01*
X139049048Y-119848333D01*
X139144286Y-119895952D01*
X139191905Y-119943571D01*
X139239524Y-120038810D01*
X139239524Y-120276905D01*
X139191905Y-120372143D01*
X139144286Y-120419762D01*
X139049048Y-120467381D01*
X138763333Y-120467381D01*
X138668095Y-120419762D01*
X138620476Y-120372143D01*
X137882381Y-130754048D02*
X137882381Y-130087381D01*
X138882381Y-130515953D01*
X138215714Y-129277857D02*
X138882381Y-129277857D01*
X137834762Y-129515953D02*
X138549048Y-129754048D01*
X138549048Y-129135000D01*
X138882381Y-128277857D02*
X138882381Y-128754048D01*
X137882381Y-128754048D01*
X138834762Y-127992143D02*
X138882381Y-127849286D01*
X138882381Y-127611190D01*
X138834762Y-127515952D01*
X138787143Y-127468333D01*
X138691905Y-127420714D01*
X138596667Y-127420714D01*
X138501429Y-127468333D01*
X138453810Y-127515952D01*
X138406190Y-127611190D01*
X138358571Y-127801667D01*
X138310952Y-127896905D01*
X138263333Y-127944524D01*
X138168095Y-127992143D01*
X138072857Y-127992143D01*
X137977619Y-127944524D01*
X137930000Y-127896905D01*
X137882381Y-127801667D01*
X137882381Y-127563571D01*
X137930000Y-127420714D01*
X138882381Y-126468333D02*
X138882381Y-127039762D01*
X138882381Y-126754048D02*
X137882381Y-126754048D01*
X138025238Y-126849286D01*
X138120476Y-126944524D01*
X138168095Y-127039762D01*
X137882381Y-126135000D02*
X137882381Y-125515952D01*
X138263333Y-125849286D01*
X138263333Y-125706428D01*
X138310952Y-125611190D01*
X138358571Y-125563571D01*
X138453810Y-125515952D01*
X138691905Y-125515952D01*
X138787143Y-125563571D01*
X138834762Y-125611190D01*
X138882381Y-125706428D01*
X138882381Y-125992143D01*
X138834762Y-126087381D01*
X138787143Y-126135000D01*
X138310952Y-124944524D02*
X138263333Y-125039762D01*
X138215714Y-125087381D01*
X138120476Y-125135000D01*
X138072857Y-125135000D01*
X137977619Y-125087381D01*
X137930000Y-125039762D01*
X137882381Y-124944524D01*
X137882381Y-124754047D01*
X137930000Y-124658809D01*
X137977619Y-124611190D01*
X138072857Y-124563571D01*
X138120476Y-124563571D01*
X138215714Y-124611190D01*
X138263333Y-124658809D01*
X138310952Y-124754047D01*
X138310952Y-124944524D01*
X138358571Y-125039762D01*
X138406190Y-125087381D01*
X138501429Y-125135000D01*
X138691905Y-125135000D01*
X138787143Y-125087381D01*
X138834762Y-125039762D01*
X138882381Y-124944524D01*
X138882381Y-124754047D01*
X138834762Y-124658809D01*
X138787143Y-124611190D01*
X138691905Y-124563571D01*
X138501429Y-124563571D01*
X138406190Y-124611190D01*
X138358571Y-124658809D01*
X138310952Y-124754047D01*
X158623095Y-119467381D02*
X158623095Y-120276905D01*
X158670714Y-120372143D01*
X158718333Y-120419762D01*
X158813571Y-120467381D01*
X159004048Y-120467381D01*
X159099286Y-120419762D01*
X159146905Y-120372143D01*
X159194524Y-120276905D01*
X159194524Y-119467381D01*
X160099286Y-119800714D02*
X160099286Y-120467381D01*
X159861190Y-119419762D02*
X159623095Y-120134048D01*
X160242143Y-120134048D01*
X158837381Y-130754048D02*
X158837381Y-130087381D01*
X159837381Y-130515953D01*
X159170714Y-129277857D02*
X159837381Y-129277857D01*
X158789762Y-129515953D02*
X159504048Y-129754048D01*
X159504048Y-129135000D01*
X159837381Y-128277857D02*
X159837381Y-128754048D01*
X158837381Y-128754048D01*
X159789762Y-127992143D02*
X159837381Y-127849286D01*
X159837381Y-127611190D01*
X159789762Y-127515952D01*
X159742143Y-127468333D01*
X159646905Y-127420714D01*
X159551667Y-127420714D01*
X159456429Y-127468333D01*
X159408810Y-127515952D01*
X159361190Y-127611190D01*
X159313571Y-127801667D01*
X159265952Y-127896905D01*
X159218333Y-127944524D01*
X159123095Y-127992143D01*
X159027857Y-127992143D01*
X158932619Y-127944524D01*
X158885000Y-127896905D01*
X158837381Y-127801667D01*
X158837381Y-127563571D01*
X158885000Y-127420714D01*
X159837381Y-126468333D02*
X159837381Y-127039762D01*
X159837381Y-126754048D02*
X158837381Y-126754048D01*
X158980238Y-126849286D01*
X159075476Y-126944524D01*
X159123095Y-127039762D01*
X158837381Y-126135000D02*
X158837381Y-125515952D01*
X159218333Y-125849286D01*
X159218333Y-125706428D01*
X159265952Y-125611190D01*
X159313571Y-125563571D01*
X159408810Y-125515952D01*
X159646905Y-125515952D01*
X159742143Y-125563571D01*
X159789762Y-125611190D01*
X159837381Y-125706428D01*
X159837381Y-125992143D01*
X159789762Y-126087381D01*
X159742143Y-126135000D01*
X159265952Y-124944524D02*
X159218333Y-125039762D01*
X159170714Y-125087381D01*
X159075476Y-125135000D01*
X159027857Y-125135000D01*
X158932619Y-125087381D01*
X158885000Y-125039762D01*
X158837381Y-124944524D01*
X158837381Y-124754047D01*
X158885000Y-124658809D01*
X158932619Y-124611190D01*
X159027857Y-124563571D01*
X159075476Y-124563571D01*
X159170714Y-124611190D01*
X159218333Y-124658809D01*
X159265952Y-124754047D01*
X159265952Y-124944524D01*
X159313571Y-125039762D01*
X159361190Y-125087381D01*
X159456429Y-125135000D01*
X159646905Y-125135000D01*
X159742143Y-125087381D01*
X159789762Y-125039762D01*
X159837381Y-124944524D01*
X159837381Y-124754047D01*
X159789762Y-124658809D01*
X159742143Y-124611190D01*
X159646905Y-124563571D01*
X159456429Y-124563571D01*
X159361190Y-124611190D01*
X159313571Y-124658809D01*
X159265952Y-124754047D01*
X83693095Y-119467381D02*
X83693095Y-120276905D01*
X83740714Y-120372143D01*
X83788333Y-120419762D01*
X83883571Y-120467381D01*
X84074048Y-120467381D01*
X84169286Y-120419762D01*
X84216905Y-120372143D01*
X84264524Y-120276905D01*
X84264524Y-119467381D01*
X85216905Y-119467381D02*
X84740714Y-119467381D01*
X84693095Y-119943571D01*
X84740714Y-119895952D01*
X84835952Y-119848333D01*
X85074048Y-119848333D01*
X85169286Y-119895952D01*
X85216905Y-119943571D01*
X85264524Y-120038810D01*
X85264524Y-120276905D01*
X85216905Y-120372143D01*
X85169286Y-120419762D01*
X85074048Y-120467381D01*
X84835952Y-120467381D01*
X84740714Y-120419762D01*
X84693095Y-120372143D01*
X84859762Y-130507857D02*
X84907381Y-130365000D01*
X84907381Y-130126904D01*
X84859762Y-130031666D01*
X84812143Y-129984047D01*
X84716905Y-129936428D01*
X84621667Y-129936428D01*
X84526429Y-129984047D01*
X84478810Y-130031666D01*
X84431190Y-130126904D01*
X84383571Y-130317381D01*
X84335952Y-130412619D01*
X84288333Y-130460238D01*
X84193095Y-130507857D01*
X84097857Y-130507857D01*
X84002619Y-130460238D01*
X83955000Y-130412619D01*
X83907381Y-130317381D01*
X83907381Y-130079285D01*
X83955000Y-129936428D01*
X84907381Y-129507857D02*
X83907381Y-129507857D01*
X84907381Y-128936428D01*
X83907381Y-128936428D01*
X83907381Y-128555476D02*
X83907381Y-127888809D01*
X84907381Y-128317381D01*
X83907381Y-127079285D02*
X83907381Y-127269762D01*
X83955000Y-127365000D01*
X84002619Y-127412619D01*
X84145476Y-127507857D01*
X84335952Y-127555476D01*
X84716905Y-127555476D01*
X84812143Y-127507857D01*
X84859762Y-127460238D01*
X84907381Y-127365000D01*
X84907381Y-127174523D01*
X84859762Y-127079285D01*
X84812143Y-127031666D01*
X84716905Y-126984047D01*
X84478810Y-126984047D01*
X84383571Y-127031666D01*
X84335952Y-127079285D01*
X84288333Y-127174523D01*
X84288333Y-127365000D01*
X84335952Y-127460238D01*
X84383571Y-127507857D01*
X84478810Y-127555476D01*
X84240714Y-126126904D02*
X84907381Y-126126904D01*
X83859762Y-126365000D02*
X84574048Y-126603095D01*
X84574048Y-125984047D01*
X84335952Y-125460238D02*
X84288333Y-125555476D01*
X84240714Y-125603095D01*
X84145476Y-125650714D01*
X84097857Y-125650714D01*
X84002619Y-125603095D01*
X83955000Y-125555476D01*
X83907381Y-125460238D01*
X83907381Y-125269761D01*
X83955000Y-125174523D01*
X84002619Y-125126904D01*
X84097857Y-125079285D01*
X84145476Y-125079285D01*
X84240714Y-125126904D01*
X84288333Y-125174523D01*
X84335952Y-125269761D01*
X84335952Y-125460238D01*
X84383571Y-125555476D01*
X84431190Y-125603095D01*
X84526429Y-125650714D01*
X84716905Y-125650714D01*
X84812143Y-125603095D01*
X84859762Y-125555476D01*
X84907381Y-125460238D01*
X84907381Y-125269761D01*
X84859762Y-125174523D01*
X84812143Y-125126904D01*
X84716905Y-125079285D01*
X84526429Y-125079285D01*
X84431190Y-125126904D01*
X84383571Y-125174523D01*
X84335952Y-125269761D01*
X84907381Y-124603095D02*
X84907381Y-124412619D01*
X84859762Y-124317380D01*
X84812143Y-124269761D01*
X84669286Y-124174523D01*
X84478810Y-124126904D01*
X84097857Y-124126904D01*
X84002619Y-124174523D01*
X83955000Y-124222142D01*
X83907381Y-124317380D01*
X83907381Y-124507857D01*
X83955000Y-124603095D01*
X84002619Y-124650714D01*
X84097857Y-124698333D01*
X84335952Y-124698333D01*
X84431190Y-124650714D01*
X84478810Y-124603095D01*
X84526429Y-124507857D01*
X84526429Y-124317380D01*
X84478810Y-124222142D01*
X84431190Y-124174523D01*
X84335952Y-124126904D01*
X84621667Y-123745952D02*
X84621667Y-123269761D01*
X84907381Y-123841190D02*
X83907381Y-123507857D01*
X84907381Y-123174523D01*
X84907381Y-122841190D02*
X83907381Y-122841190D01*
X84907381Y-122269761D01*
X83907381Y-122269761D01*
X83645476Y-99147381D02*
X84312143Y-100147381D01*
X84312143Y-99147381D02*
X83645476Y-100147381D01*
X85216905Y-100147381D02*
X84645476Y-100147381D01*
X84931190Y-100147381D02*
X84931190Y-99147381D01*
X84835952Y-99290238D01*
X84740714Y-99385476D01*
X84645476Y-99433095D01*
X173723334Y-102431905D02*
X173723334Y-103003333D01*
X173685238Y-103117619D01*
X173609048Y-103193810D01*
X173494762Y-103231905D01*
X173418572Y-103231905D01*
X174523334Y-103231905D02*
X174066191Y-103231905D01*
X174294762Y-103231905D02*
X174294762Y-102431905D01*
X174218572Y-102546190D01*
X174142381Y-102622381D01*
X174066191Y-102660476D01*
D10*
X169343429Y-110450000D02*
X169343429Y-110107143D01*
X169943429Y-110278572D02*
X169343429Y-110278572D01*
X169943429Y-109564286D02*
X169657714Y-109764286D01*
X169943429Y-109907143D02*
X169343429Y-109907143D01*
X169343429Y-109678571D01*
X169372000Y-109621429D01*
X169400571Y-109592857D01*
X169457714Y-109564286D01*
X169543429Y-109564286D01*
X169600571Y-109592857D01*
X169629143Y-109621429D01*
X169657714Y-109678571D01*
X169657714Y-109907143D01*
X169914857Y-109335714D02*
X169943429Y-109250000D01*
X169943429Y-109107143D01*
X169914857Y-109050000D01*
X169886286Y-109021429D01*
X169829143Y-108992857D01*
X169772000Y-108992857D01*
X169714857Y-109021429D01*
X169686286Y-109050000D01*
X169657714Y-109107143D01*
X169629143Y-109221429D01*
X169600571Y-109278571D01*
X169572000Y-109307143D01*
X169514857Y-109335714D01*
X169457714Y-109335714D01*
X169400571Y-109307143D01*
X169372000Y-109278571D01*
X169343429Y-109221429D01*
X169343429Y-109078571D01*
X169372000Y-108992857D01*
X170000571Y-108878571D02*
X170000571Y-108421428D01*
X169343429Y-108335714D02*
X169343429Y-107964285D01*
X169572000Y-108164285D01*
X169572000Y-108078571D01*
X169600571Y-108021428D01*
X169629143Y-107992857D01*
X169686286Y-107964285D01*
X169829143Y-107964285D01*
X169886286Y-107992857D01*
X169914857Y-108021428D01*
X169943429Y-108078571D01*
X169943429Y-108249999D01*
X169914857Y-108307142D01*
X169886286Y-108335714D01*
X169886286Y-107707142D02*
X169914857Y-107678570D01*
X169943429Y-107707142D01*
X169914857Y-107735713D01*
X169886286Y-107707142D01*
X169943429Y-107707142D01*
X169343429Y-107135714D02*
X169343429Y-107421428D01*
X169629143Y-107449999D01*
X169600571Y-107421428D01*
X169572000Y-107364285D01*
X169572000Y-107221428D01*
X169600571Y-107164285D01*
X169629143Y-107135714D01*
X169686286Y-107107142D01*
X169829143Y-107107142D01*
X169886286Y-107135714D01*
X169914857Y-107164285D01*
X169943429Y-107221428D01*
X169943429Y-107364285D01*
X169914857Y-107421428D01*
X169886286Y-107449999D01*
X169943429Y-106849999D02*
X169543429Y-106849999D01*
X169600571Y-106849999D02*
X169572000Y-106821427D01*
X169543429Y-106764285D01*
X169543429Y-106678570D01*
X169572000Y-106621427D01*
X169629143Y-106592856D01*
X169943429Y-106592856D01*
X169629143Y-106592856D02*
X169572000Y-106564285D01*
X169543429Y-106507142D01*
X169543429Y-106421427D01*
X169572000Y-106364285D01*
X169629143Y-106335713D01*
X169943429Y-106335713D01*
X169943429Y-106049999D02*
X169543429Y-106049999D01*
X169600571Y-106049999D02*
X169572000Y-106021427D01*
X169543429Y-105964285D01*
X169543429Y-105878570D01*
X169572000Y-105821427D01*
X169629143Y-105792856D01*
X169943429Y-105792856D01*
X169629143Y-105792856D02*
X169572000Y-105764285D01*
X169543429Y-105707142D01*
X169543429Y-105621427D01*
X169572000Y-105564285D01*
X169629143Y-105535713D01*
X169943429Y-105535713D01*
D15*
X100163334Y-91162143D02*
X100115715Y-91209762D01*
X99972858Y-91257381D01*
X99877620Y-91257381D01*
X99734762Y-91209762D01*
X99639524Y-91114524D01*
X99591905Y-91019286D01*
X99544286Y-90828810D01*
X99544286Y-90685952D01*
X99591905Y-90495476D01*
X99639524Y-90400238D01*
X99734762Y-90305000D01*
X99877620Y-90257381D01*
X99972858Y-90257381D01*
X100115715Y-90305000D01*
X100163334Y-90352619D01*
X100639524Y-91257381D02*
X100830000Y-91257381D01*
X100925239Y-91209762D01*
X100972858Y-91162143D01*
X101068096Y-91019286D01*
X101115715Y-90828810D01*
X101115715Y-90447857D01*
X101068096Y-90352619D01*
X101020477Y-90305000D01*
X100925239Y-90257381D01*
X100734762Y-90257381D01*
X100639524Y-90305000D01*
X100591905Y-90352619D01*
X100544286Y-90447857D01*
X100544286Y-90685952D01*
X100591905Y-90781190D01*
X100639524Y-90828810D01*
X100734762Y-90876429D01*
X100925239Y-90876429D01*
X101020477Y-90828810D01*
X101068096Y-90781190D01*
X101115715Y-90685952D01*
X83812143Y-114022143D02*
X83764524Y-114069762D01*
X83621667Y-114117381D01*
X83526429Y-114117381D01*
X83383571Y-114069762D01*
X83288333Y-113974524D01*
X83240714Y-113879286D01*
X83193095Y-113688810D01*
X83193095Y-113545952D01*
X83240714Y-113355476D01*
X83288333Y-113260238D01*
X83383571Y-113165000D01*
X83526429Y-113117381D01*
X83621667Y-113117381D01*
X83764524Y-113165000D01*
X83812143Y-113212619D01*
X84764524Y-114117381D02*
X84193095Y-114117381D01*
X84478809Y-114117381D02*
X84478809Y-113117381D01*
X84383571Y-113260238D01*
X84288333Y-113355476D01*
X84193095Y-113403095D01*
X85383571Y-113117381D02*
X85478810Y-113117381D01*
X85574048Y-113165000D01*
X85621667Y-113212619D01*
X85669286Y-113307857D01*
X85716905Y-113498333D01*
X85716905Y-113736429D01*
X85669286Y-113926905D01*
X85621667Y-114022143D01*
X85574048Y-114069762D01*
X85478810Y-114117381D01*
X85383571Y-114117381D01*
X85288333Y-114069762D01*
X85240714Y-114022143D01*
X85193095Y-113926905D01*
X85145476Y-113736429D01*
X85145476Y-113498333D01*
X85193095Y-113307857D01*
X85240714Y-113212619D01*
X85288333Y-113165000D01*
X85383571Y-113117381D01*
X99687143Y-108942143D02*
X99639524Y-108989762D01*
X99496667Y-109037381D01*
X99401429Y-109037381D01*
X99258571Y-108989762D01*
X99163333Y-108894524D01*
X99115714Y-108799286D01*
X99068095Y-108608810D01*
X99068095Y-108465952D01*
X99115714Y-108275476D01*
X99163333Y-108180238D01*
X99258571Y-108085000D01*
X99401429Y-108037381D01*
X99496667Y-108037381D01*
X99639524Y-108085000D01*
X99687143Y-108132619D01*
X100639524Y-109037381D02*
X100068095Y-109037381D01*
X100353809Y-109037381D02*
X100353809Y-108037381D01*
X100258571Y-108180238D01*
X100163333Y-108275476D01*
X100068095Y-108323095D01*
X101591905Y-109037381D02*
X101020476Y-109037381D01*
X101306190Y-109037381D02*
X101306190Y-108037381D01*
X101210952Y-108180238D01*
X101115714Y-108275476D01*
X101020476Y-108323095D01*
X137787143Y-114022143D02*
X137739524Y-114069762D01*
X137596667Y-114117381D01*
X137501429Y-114117381D01*
X137358571Y-114069762D01*
X137263333Y-113974524D01*
X137215714Y-113879286D01*
X137168095Y-113688810D01*
X137168095Y-113545952D01*
X137215714Y-113355476D01*
X137263333Y-113260238D01*
X137358571Y-113165000D01*
X137501429Y-113117381D01*
X137596667Y-113117381D01*
X137739524Y-113165000D01*
X137787143Y-113212619D01*
X138739524Y-114117381D02*
X138168095Y-114117381D01*
X138453809Y-114117381D02*
X138453809Y-113117381D01*
X138358571Y-113260238D01*
X138263333Y-113355476D01*
X138168095Y-113403095D01*
X139120476Y-113212619D02*
X139168095Y-113165000D01*
X139263333Y-113117381D01*
X139501429Y-113117381D01*
X139596667Y-113165000D01*
X139644286Y-113212619D01*
X139691905Y-113307857D01*
X139691905Y-113403095D01*
X139644286Y-113545952D01*
X139072857Y-114117381D01*
X139691905Y-114117381D01*
X158742143Y-114022143D02*
X158694524Y-114069762D01*
X158551667Y-114117381D01*
X158456429Y-114117381D01*
X158313571Y-114069762D01*
X158218333Y-113974524D01*
X158170714Y-113879286D01*
X158123095Y-113688810D01*
X158123095Y-113545952D01*
X158170714Y-113355476D01*
X158218333Y-113260238D01*
X158313571Y-113165000D01*
X158456429Y-113117381D01*
X158551667Y-113117381D01*
X158694524Y-113165000D01*
X158742143Y-113212619D01*
X159694524Y-114117381D02*
X159123095Y-114117381D01*
X159408809Y-114117381D02*
X159408809Y-113117381D01*
X159313571Y-113260238D01*
X159218333Y-113355476D01*
X159123095Y-113403095D01*
X160027857Y-113117381D02*
X160646905Y-113117381D01*
X160313571Y-113498333D01*
X160456429Y-113498333D01*
X160551667Y-113545952D01*
X160599286Y-113593571D01*
X160646905Y-113688810D01*
X160646905Y-113926905D01*
X160599286Y-114022143D01*
X160551667Y-114069762D01*
X160456429Y-114117381D01*
X160170714Y-114117381D01*
X160075476Y-114069762D01*
X160027857Y-114022143D01*
X93067143Y-127047381D02*
X93114762Y-127095000D01*
X93162381Y-127237857D01*
X93162381Y-127333095D01*
X93114762Y-127475953D01*
X93019524Y-127571191D01*
X92924286Y-127618810D01*
X92733810Y-127666429D01*
X92590952Y-127666429D01*
X92400476Y-127618810D01*
X92305238Y-127571191D01*
X92210000Y-127475953D01*
X92162381Y-127333095D01*
X92162381Y-127237857D01*
X92210000Y-127095000D01*
X92257619Y-127047381D01*
X93162381Y-126142619D02*
X93162381Y-126618810D01*
X92162381Y-126618810D01*
X93162381Y-125809286D02*
X92162381Y-125809286D01*
X93162381Y-125237857D02*
X92590952Y-125666429D01*
X92162381Y-125237857D02*
X92733810Y-125809286D01*
X93257619Y-125047381D02*
X93257619Y-124285476D01*
X92638571Y-124047381D02*
X92638571Y-123714047D01*
X93162381Y-123571190D02*
X93162381Y-124047381D01*
X92162381Y-124047381D01*
X92162381Y-123571190D01*
X93162381Y-123142619D02*
X92162381Y-123142619D01*
X93162381Y-122571190D01*
X92162381Y-122571190D01*
X178041667Y-114657381D02*
X178041667Y-115371667D01*
X177994047Y-115514524D01*
X177898809Y-115609762D01*
X177755952Y-115657381D01*
X177660714Y-115657381D01*
X178994048Y-114657381D02*
X178517857Y-114657381D01*
X178470238Y-115133571D01*
X178517857Y-115085952D01*
X178613095Y-115038333D01*
X178851191Y-115038333D01*
X178946429Y-115085952D01*
X178994048Y-115133571D01*
X179041667Y-115228810D01*
X179041667Y-115466905D01*
X178994048Y-115562143D01*
X178946429Y-115609762D01*
X178851191Y-115657381D01*
X178613095Y-115657381D01*
X178517857Y-115609762D01*
X178470238Y-115562143D01*
X114875334Y-108815143D02*
X114827715Y-108862762D01*
X114684858Y-108910381D01*
X114589620Y-108910381D01*
X114446762Y-108862762D01*
X114351524Y-108767524D01*
X114303905Y-108672286D01*
X114256286Y-108481810D01*
X114256286Y-108338952D01*
X114303905Y-108148476D01*
X114351524Y-108053238D01*
X114446762Y-107958000D01*
X114589620Y-107910381D01*
X114684858Y-107910381D01*
X114827715Y-107958000D01*
X114875334Y-108005619D01*
X115780096Y-107910381D02*
X115303905Y-107910381D01*
X115256286Y-108386571D01*
X115303905Y-108338952D01*
X115399143Y-108291333D01*
X115637239Y-108291333D01*
X115732477Y-108338952D01*
X115780096Y-108386571D01*
X115827715Y-108481810D01*
X115827715Y-108719905D01*
X115780096Y-108815143D01*
X115732477Y-108862762D01*
X115637239Y-108910381D01*
X115399143Y-108910381D01*
X115303905Y-108862762D01*
X115256286Y-108815143D01*
X119197381Y-113466428D02*
X119197381Y-114037857D01*
X119197381Y-113752143D02*
X118197381Y-113752143D01*
X118340238Y-113847381D01*
X118435476Y-113942619D01*
X118483095Y-114037857D01*
X118197381Y-112847381D02*
X118197381Y-112752142D01*
X118245000Y-112656904D01*
X118292619Y-112609285D01*
X118387857Y-112561666D01*
X118578333Y-112514047D01*
X118816429Y-112514047D01*
X119006905Y-112561666D01*
X119102143Y-112609285D01*
X119149762Y-112656904D01*
X119197381Y-112752142D01*
X119197381Y-112847381D01*
X119149762Y-112942619D01*
X119102143Y-112990238D01*
X119006905Y-113037857D01*
X118816429Y-113085476D01*
X118578333Y-113085476D01*
X118387857Y-113037857D01*
X118292619Y-112990238D01*
X118245000Y-112942619D01*
X118197381Y-112847381D01*
X118530714Y-111656904D02*
X119197381Y-111656904D01*
X118530714Y-112085476D02*
X119054524Y-112085476D01*
X119149762Y-112037857D01*
X119197381Y-111942619D01*
X119197381Y-111799761D01*
X119149762Y-111704523D01*
X119102143Y-111656904D01*
X118673571Y-110847380D02*
X118673571Y-111180714D01*
X119197381Y-111180714D02*
X118197381Y-111180714D01*
X118197381Y-110704523D01*
X148403334Y-101322143D02*
X148355715Y-101369762D01*
X148212858Y-101417381D01*
X148117620Y-101417381D01*
X147974762Y-101369762D01*
X147879524Y-101274524D01*
X147831905Y-101179286D01*
X147784286Y-100988810D01*
X147784286Y-100845952D01*
X147831905Y-100655476D01*
X147879524Y-100560238D01*
X147974762Y-100465000D01*
X148117620Y-100417381D01*
X148212858Y-100417381D01*
X148355715Y-100465000D01*
X148403334Y-100512619D01*
X149260477Y-100417381D02*
X149070000Y-100417381D01*
X148974762Y-100465000D01*
X148927143Y-100512619D01*
X148831905Y-100655476D01*
X148784286Y-100845952D01*
X148784286Y-101226905D01*
X148831905Y-101322143D01*
X148879524Y-101369762D01*
X148974762Y-101417381D01*
X149165239Y-101417381D01*
X149260477Y-101369762D01*
X149308096Y-101322143D01*
X149355715Y-101226905D01*
X149355715Y-100988810D01*
X149308096Y-100893571D01*
X149260477Y-100845952D01*
X149165239Y-100798333D01*
X148974762Y-100798333D01*
X148879524Y-100845952D01*
X148831905Y-100893571D01*
X148784286Y-100988810D01*
X152852381Y-105846428D02*
X152852381Y-106417857D01*
X152852381Y-106132143D02*
X151852381Y-106132143D01*
X151995238Y-106227381D01*
X152090476Y-106322619D01*
X152138095Y-106417857D01*
X151852381Y-105227381D02*
X151852381Y-105132142D01*
X151900000Y-105036904D01*
X151947619Y-104989285D01*
X152042857Y-104941666D01*
X152233333Y-104894047D01*
X152471429Y-104894047D01*
X152661905Y-104941666D01*
X152757143Y-104989285D01*
X152804762Y-105036904D01*
X152852381Y-105132142D01*
X152852381Y-105227381D01*
X152804762Y-105322619D01*
X152757143Y-105370238D01*
X152661905Y-105417857D01*
X152471429Y-105465476D01*
X152233333Y-105465476D01*
X152042857Y-105417857D01*
X151947619Y-105370238D01*
X151900000Y-105322619D01*
X151852381Y-105227381D01*
X152185714Y-104036904D02*
X152852381Y-104036904D01*
X152185714Y-104465476D02*
X152709524Y-104465476D01*
X152804762Y-104417857D01*
X152852381Y-104322619D01*
X152852381Y-104179761D01*
X152804762Y-104084523D01*
X152757143Y-104036904D01*
X152328571Y-103227380D02*
X152328571Y-103560714D01*
X152852381Y-103560714D02*
X151852381Y-103560714D01*
X151852381Y-103084523D01*
X124273334Y-108942143D02*
X124225715Y-108989762D01*
X124082858Y-109037381D01*
X123987620Y-109037381D01*
X123844762Y-108989762D01*
X123749524Y-108894524D01*
X123701905Y-108799286D01*
X123654286Y-108608810D01*
X123654286Y-108465952D01*
X123701905Y-108275476D01*
X123749524Y-108180238D01*
X123844762Y-108085000D01*
X123987620Y-108037381D01*
X124082858Y-108037381D01*
X124225715Y-108085000D01*
X124273334Y-108132619D01*
X124606667Y-108037381D02*
X125225715Y-108037381D01*
X124892381Y-108418333D01*
X125035239Y-108418333D01*
X125130477Y-108465952D01*
X125178096Y-108513571D01*
X125225715Y-108608810D01*
X125225715Y-108846905D01*
X125178096Y-108942143D01*
X125130477Y-108989762D01*
X125035239Y-109037381D01*
X124749524Y-109037381D01*
X124654286Y-108989762D01*
X124606667Y-108942143D01*
X128722381Y-113942619D02*
X128722381Y-114514048D01*
X128722381Y-114228334D02*
X127722381Y-114228334D01*
X127865238Y-114323572D01*
X127960476Y-114418810D01*
X128008095Y-114514048D01*
X127722381Y-113323572D02*
X127722381Y-113228333D01*
X127770000Y-113133095D01*
X127817619Y-113085476D01*
X127912857Y-113037857D01*
X128103333Y-112990238D01*
X128341429Y-112990238D01*
X128531905Y-113037857D01*
X128627143Y-113085476D01*
X128674762Y-113133095D01*
X128722381Y-113228333D01*
X128722381Y-113323572D01*
X128674762Y-113418810D01*
X128627143Y-113466429D01*
X128531905Y-113514048D01*
X128341429Y-113561667D01*
X128103333Y-113561667D01*
X127912857Y-113514048D01*
X127817619Y-113466429D01*
X127770000Y-113418810D01*
X127722381Y-113323572D01*
X127722381Y-112371191D02*
X127722381Y-112275952D01*
X127770000Y-112180714D01*
X127817619Y-112133095D01*
X127912857Y-112085476D01*
X128103333Y-112037857D01*
X128341429Y-112037857D01*
X128531905Y-112085476D01*
X128627143Y-112133095D01*
X128674762Y-112180714D01*
X128722381Y-112275952D01*
X128722381Y-112371191D01*
X128674762Y-112466429D01*
X128627143Y-112514048D01*
X128531905Y-112561667D01*
X128341429Y-112609286D01*
X128103333Y-112609286D01*
X127912857Y-112561667D01*
X127817619Y-112514048D01*
X127770000Y-112466429D01*
X127722381Y-112371191D01*
X128055714Y-111180714D02*
X128722381Y-111180714D01*
X128055714Y-111609286D02*
X128579524Y-111609286D01*
X128674762Y-111561667D01*
X128722381Y-111466429D01*
X128722381Y-111323571D01*
X128674762Y-111228333D01*
X128627143Y-111180714D01*
X128198571Y-110371190D02*
X128198571Y-110704524D01*
X128722381Y-110704524D02*
X127722381Y-110704524D01*
X127722381Y-110228333D01*
M02*
