M48
;DRILL file {KiCad 4.0.6} date 06/14/17 01:07:28
;FORMAT={2:4/ absolute / inch / suppress leading zeros}
FMAT,2
INCH,TZ
T1C0.016
T2C0.031
T3C0.039
T4C0.040
T5C0.043
%
G90
G05
M72
T1
X43500Y-45500
X43750Y-44250
X44000Y-43000
X44000Y-51250
X44250Y-41750
X44500Y-29000
X44500Y-40500
X44750Y-39250
X45000Y-38000
X45750Y-48500
X45750Y-49250
X46250Y-29750
X46250Y-30750
X46250Y-31750
X46250Y-32750
X46250Y-33750
X46250Y-34750
X46250Y-35750
X46250Y-48000
X46250Y-49250
X46500Y-29250
X46750Y-47500
X46750Y-49250
X47250Y-47000
X47250Y-49250
X47750Y-46500
X47750Y-49250
X48250Y-46000
X48250Y-49250
X48500Y-44000
X48500Y-44500
X48750Y-36250
X48750Y-45250
X48750Y-49250
X49000Y-35500
X50750Y-29750
X50750Y-30750
X50750Y-31750
X50750Y-32750
X50750Y-33750
X50750Y-34750
X50750Y-35750
X50750Y-44000
X50750Y-44500
X52250Y-30250
X52250Y-31250
X52250Y-32250
X52250Y-33250
X52250Y-34250
X52250Y-35250
X52250Y-36250
X52750Y-36750
X53000Y-37000
X53000Y-43250
X53000Y-45250
X53250Y-37250
X53500Y-43250
X53500Y-45250
X54000Y-43250
X54000Y-45250
X54250Y-46000
X54500Y-50000
X56000Y-46250
X56250Y-50500
X56250Y-51000
X56750Y-43500
X56750Y-44000
X57000Y-46250
X57250Y-37750
X57250Y-41250
X57750Y-43500
X57750Y-44000
X57750Y-46000
X59000Y-46250
X59250Y-46000
X59250Y-46500
X59500Y-44750
X59500Y-51500
X60500Y-46000
X60500Y-46500
X60500Y-48750
X60500Y-49250
X60500Y-50000
X60500Y-51000
X60750Y-29500
X60750Y-30500
X61000Y-35250
X61000Y-35750
X61000Y-38250
X61250Y-37250
X61250Y-51250
X61500Y-37500
X61500Y-41500
X61750Y-36500
X61750Y-37000
X62000Y-36250
X62750Y-31000
X63750Y-46000
X64000Y-31000
X64000Y-41750
X64750Y-27750
X65000Y-41750
X65250Y-27750
X65250Y-46000
X67000Y-31000
X67500Y-32500
X68000Y-27750
X68500Y-40750
X75000Y-38000
X76000Y-37500
X76000Y-38000
X76500Y-39000
X76750Y-40000
T2
X45500Y-28500
X45500Y-29500
X45500Y-30500
X45500Y-31500
X45500Y-32500
X45500Y-33500
X45500Y-34500
X45500Y-35500
X45500Y-36500
X45500Y-37500
X45500Y-38500
X45500Y-39500
X45500Y-40500
X45500Y-41500
X45500Y-42500
X45500Y-43500
X45500Y-44500
X45500Y-45500
X45500Y-46500
X45500Y-47500
X51500Y-28500
X51500Y-29500
X51500Y-30500
X51500Y-31500
X51500Y-32500
X51500Y-33500
X51500Y-34500
X51500Y-35500
X51500Y-36500
X51500Y-37500
X51500Y-38500
X51500Y-39500
X51500Y-40500
X51500Y-41500
X51500Y-42500
X51500Y-43500
X51500Y-44500
X51500Y-45500
X51500Y-46500
X51500Y-47500
X55750Y-28500
X55750Y-29500
X55750Y-30500
X55750Y-31500
X55750Y-32500
X55750Y-33500
X55750Y-34500
X55750Y-35500
X55750Y-36500
X55750Y-37500
X55750Y-38500
X55750Y-39500
X55750Y-40500
X55750Y-41500
X55750Y-45500
X55750Y-47469
X57250Y-45500
X57250Y-47469
X58750Y-28500
X58750Y-29500
X58750Y-30500
X58750Y-31500
X58750Y-32500
X58750Y-33500
X58750Y-34500
X58750Y-35500
X58750Y-36500
X58750Y-37500
X58750Y-38500
X58750Y-39500
X58750Y-40500
X58750Y-41500
X58750Y-45500
X58750Y-47469
X61500Y-42250
X61500Y-44250
X61500Y-47250
X62500Y-44250
X62500Y-47250
X63000Y-32000
X63000Y-35000
X63469Y-42250
X63500Y-30500
X63500Y-36500
X63500Y-44250
X63500Y-47250
X64500Y-30500
X64500Y-36500
X64500Y-44250
X64500Y-47250
X65500Y-30500
X65500Y-32000
X65500Y-35000
X65500Y-36500
X65500Y-44250
X65500Y-47250
X66500Y-30500
X66500Y-36500
X66500Y-44250
X66500Y-47250
X67500Y-30500
X67500Y-36500
X67500Y-44250
X67500Y-47250
X68500Y-30500
X68500Y-36500
X69500Y-30500
X69500Y-32000
X69500Y-35000
X69500Y-36500
X70250Y-42250
X70250Y-44250
X70250Y-47250
X70500Y-30500
X70500Y-32000
X70500Y-33500
X70500Y-35000
X70500Y-36500
X71250Y-44250
X71250Y-47250
X71500Y-30500
X71500Y-36500
X72219Y-42250
X72250Y-44250
X72250Y-47250
X72500Y-30500
X72500Y-36500
X73250Y-44250
X73250Y-47250
X73500Y-30500
X73500Y-36500
X74250Y-44250
X74250Y-47250
X74500Y-30500
X74500Y-32000
X74500Y-33500
X74500Y-35000
X74500Y-36500
X75250Y-44250
X75250Y-47250
X75500Y-30500
X75500Y-36500
X76250Y-44250
X76250Y-47250
X76500Y-30500
X76500Y-36500
X77250Y-44250
X77250Y-47250
X77500Y-30500
X77500Y-36500
T3
X39500Y-52500
X40500Y-52500
X41500Y-52500
X42500Y-52500
X43500Y-52500
X44500Y-52500
X45500Y-52500
X46500Y-52500
X47500Y-52500
X48500Y-52500
X49500Y-52500
X50500Y-52500
X51500Y-52500
X52500Y-52500
X53500Y-52500
X54500Y-52500
X55500Y-52500
X56500Y-52500
X57500Y-52500
X58500Y-52500
X59500Y-52500
X60500Y-52500
X61500Y-52500
X62500Y-52500
X63500Y-52500
X64500Y-52500
X65500Y-52500
X66500Y-52500
X67500Y-52500
X68500Y-52500
X69500Y-52500
X70500Y-52500
X71500Y-52500
X72500Y-52500
X73000Y-28000
X73000Y-29000
X73500Y-52500
X74500Y-52500
X75500Y-52500
X76500Y-52500
X77500Y-37750
X77500Y-38750
X77500Y-39750
X77500Y-40750
X77500Y-41750
X77500Y-42750
X77500Y-52500
T4
X41000Y-30000
X41000Y-31000
X41000Y-32000
X41000Y-33000
X41000Y-34000
X41000Y-35000
X41000Y-36000
X41000Y-37000
X41000Y-38000
X41000Y-39000
X41000Y-40000
X41000Y-41000
X41000Y-42000
X41000Y-43000
X41000Y-44000
X41000Y-45000
X41000Y-46000
X41000Y-47000
X41000Y-48000
X41000Y-49000
X42000Y-30000
X42000Y-31000
X42000Y-32000
X42000Y-33000
X42000Y-34000
X42000Y-35000
X42000Y-36000
X42000Y-37000
X42000Y-38000
X42000Y-39000
X42000Y-40000
X42000Y-41000
X42000Y-42000
X42000Y-43000
X42000Y-44000
X42000Y-45000
X42000Y-46000
X42000Y-47000
X42000Y-48000
X42000Y-49000
T5
X74750Y-27750
X74750Y-29522
X77309Y-27750
X77309Y-29522
T0
M30
