G04 #@! TF.FileFunction,Copper,L2,Bot,Signal*
%FSLAX46Y46*%
G04 Gerber Fmt 4.6, Leading zero omitted, Abs format (unit mm)*
G04 Created by KiCad (PCBNEW 4.0.6) date 05/15/17 22:09:24*
%MOMM*%
%LPD*%
G01*
G04 APERTURE LIST*
%ADD10C,0.100000*%
%ADD11C,1.600000*%
%ADD12R,1.700000X1.700000*%
%ADD13O,1.700000X1.700000*%
%ADD14R,1.600000X1.600000*%
%ADD15O,1.600000X1.600000*%
%ADD16C,2.000000*%
%ADD17C,0.600000*%
%ADD18C,0.250000*%
%ADD19C,0.254000*%
G04 APERTURE END LIST*
D10*
D11*
X190500000Y-106680000D03*
X190500000Y-111680000D03*
X107950000Y-101600000D03*
X112950000Y-101600000D03*
X191770000Y-119380000D03*
X191770000Y-124380000D03*
X113030000Y-95250000D03*
X108030000Y-95250000D03*
D12*
X196850000Y-133350000D03*
D13*
X194310000Y-133350000D03*
X191770000Y-133350000D03*
X189230000Y-133350000D03*
X186690000Y-133350000D03*
X184150000Y-133350000D03*
X181610000Y-133350000D03*
X179070000Y-133350000D03*
X176530000Y-133350000D03*
X173990000Y-133350000D03*
X171450000Y-133350000D03*
X168910000Y-133350000D03*
X166370000Y-133350000D03*
X163830000Y-133350000D03*
X161290000Y-133350000D03*
X158750000Y-133350000D03*
X156210000Y-133350000D03*
X153670000Y-133350000D03*
X151130000Y-133350000D03*
X148590000Y-133350000D03*
X146050000Y-133350000D03*
X143510000Y-133350000D03*
X140970000Y-133350000D03*
X138430000Y-133350000D03*
X135890000Y-133350000D03*
X133350000Y-133350000D03*
X130810000Y-133350000D03*
X128270000Y-133350000D03*
X125730000Y-133350000D03*
X123190000Y-133350000D03*
X120650000Y-133350000D03*
X118110000Y-133350000D03*
X115570000Y-133350000D03*
X113030000Y-133350000D03*
X110490000Y-133350000D03*
X107950000Y-133350000D03*
X105410000Y-133350000D03*
X102870000Y-133350000D03*
X100330000Y-133350000D03*
D14*
X161290000Y-93980000D03*
D15*
X194310000Y-78740000D03*
X163830000Y-93980000D03*
X191770000Y-78740000D03*
X166370000Y-93980000D03*
X189230000Y-78740000D03*
X168910000Y-93980000D03*
X186690000Y-78740000D03*
X171450000Y-93980000D03*
X184150000Y-78740000D03*
X173990000Y-93980000D03*
X181610000Y-78740000D03*
X176530000Y-93980000D03*
X179070000Y-78740000D03*
X179070000Y-93980000D03*
X176530000Y-78740000D03*
X181610000Y-93980000D03*
X173990000Y-78740000D03*
X184150000Y-93980000D03*
X171450000Y-78740000D03*
X186690000Y-93980000D03*
X168910000Y-78740000D03*
X189230000Y-93980000D03*
X166370000Y-78740000D03*
X191770000Y-93980000D03*
X163830000Y-78740000D03*
X194310000Y-93980000D03*
X161290000Y-78740000D03*
X196850000Y-93980000D03*
X196850000Y-78740000D03*
D12*
X196850000Y-110490000D03*
D13*
X196850000Y-107950000D03*
X196850000Y-105410000D03*
X196850000Y-102870000D03*
X196850000Y-100330000D03*
D12*
X182880000Y-73660000D03*
D13*
X182880000Y-71120000D03*
D11*
X133350000Y-74930000D03*
D15*
X143510000Y-74930000D03*
D11*
X119380000Y-74930000D03*
D15*
X129540000Y-74930000D03*
D11*
X105410000Y-74930000D03*
D15*
X115570000Y-74930000D03*
D16*
X189230000Y-74350000D03*
X189230000Y-69850000D03*
X195730000Y-74350000D03*
X195730000Y-69850000D03*
D14*
X170180000Y-113030000D03*
D15*
X185420000Y-105410000D03*
X172720000Y-113030000D03*
X182880000Y-105410000D03*
X175260000Y-113030000D03*
X180340000Y-105410000D03*
X177800000Y-113030000D03*
X177800000Y-105410000D03*
X180340000Y-113030000D03*
X175260000Y-105410000D03*
X182880000Y-113030000D03*
X172720000Y-105410000D03*
X185420000Y-113030000D03*
X170180000Y-105410000D03*
D14*
X156210000Y-106680000D03*
D15*
X107950000Y-121920000D03*
X153670000Y-106680000D03*
X110490000Y-121920000D03*
X151130000Y-106680000D03*
X113030000Y-121920000D03*
X148590000Y-106680000D03*
X115570000Y-121920000D03*
X146050000Y-106680000D03*
X118110000Y-121920000D03*
X143510000Y-106680000D03*
X120650000Y-121920000D03*
X140970000Y-106680000D03*
X123190000Y-121920000D03*
X138430000Y-106680000D03*
X125730000Y-121920000D03*
X135890000Y-106680000D03*
X128270000Y-121920000D03*
X133350000Y-106680000D03*
X130810000Y-121920000D03*
X130810000Y-106680000D03*
X133350000Y-121920000D03*
X128270000Y-106680000D03*
X135890000Y-121920000D03*
X125730000Y-106680000D03*
X138430000Y-121920000D03*
X123190000Y-106680000D03*
X140970000Y-121920000D03*
X120650000Y-106680000D03*
X143510000Y-121920000D03*
X118110000Y-106680000D03*
X146050000Y-121920000D03*
X115570000Y-106680000D03*
X148590000Y-121920000D03*
X113030000Y-106680000D03*
X151130000Y-121920000D03*
X110490000Y-106680000D03*
X153670000Y-121920000D03*
X107950000Y-106680000D03*
X156210000Y-121920000D03*
D14*
X168910000Y-125730000D03*
D15*
X186690000Y-118110000D03*
X171450000Y-125730000D03*
X184150000Y-118110000D03*
X173990000Y-125730000D03*
X181610000Y-118110000D03*
X176530000Y-125730000D03*
X179070000Y-118110000D03*
X179070000Y-125730000D03*
X176530000Y-118110000D03*
X181610000Y-125730000D03*
X173990000Y-118110000D03*
X184150000Y-125730000D03*
X171450000Y-118110000D03*
X186690000Y-125730000D03*
X168910000Y-118110000D03*
D14*
X140970000Y-82550000D03*
D15*
X107950000Y-90170000D03*
X138430000Y-82550000D03*
X110490000Y-90170000D03*
X135890000Y-82550000D03*
X113030000Y-90170000D03*
X133350000Y-82550000D03*
X115570000Y-90170000D03*
X130810000Y-82550000D03*
X118110000Y-90170000D03*
X128270000Y-82550000D03*
X120650000Y-90170000D03*
X125730000Y-82550000D03*
X123190000Y-90170000D03*
X123190000Y-82550000D03*
X125730000Y-90170000D03*
X120650000Y-82550000D03*
X128270000Y-90170000D03*
X118110000Y-82550000D03*
X130810000Y-90170000D03*
X115570000Y-82550000D03*
X133350000Y-90170000D03*
X113030000Y-82550000D03*
X135890000Y-90170000D03*
X110490000Y-82550000D03*
X138430000Y-90170000D03*
X107950000Y-82550000D03*
X140970000Y-90170000D03*
D17*
X160020000Y-128270000D03*
X163830000Y-124460000D03*
X181610000Y-123190000D03*
X184150000Y-121920000D03*
X105410000Y-111760000D03*
X116840000Y-127000000D03*
X139700000Y-128270000D03*
X147320000Y-128270000D03*
X152400000Y-128270000D03*
X107950000Y-110490000D03*
X179070000Y-73660000D03*
X167640000Y-129540000D03*
X115570000Y-99060000D03*
X154940000Y-104140000D03*
X163830000Y-104140000D03*
X172720000Y-99060000D03*
X114300000Y-114300000D03*
X116840000Y-116840000D03*
X114300000Y-119380000D03*
X116840000Y-119380000D03*
X165100000Y-128270000D03*
X161290000Y-130810000D03*
X161290000Y-128270000D03*
X152400000Y-125730000D03*
X157480000Y-124460000D03*
X151130000Y-124460000D03*
X142240000Y-124460000D03*
X138430000Y-127000000D03*
X118110000Y-125730000D03*
X165100000Y-109220000D03*
X161290000Y-113030000D03*
X156210000Y-115570000D03*
X157480000Y-115570000D03*
X162560000Y-113030000D03*
X166370000Y-109220000D03*
X167640000Y-109220000D03*
X165100000Y-111760000D03*
X115570000Y-111760000D03*
X184150000Y-85090000D03*
X165100000Y-85090000D03*
X171450000Y-74930000D03*
X163830000Y-85090000D03*
X186690000Y-86360000D03*
X121920000Y-95250000D03*
X144780000Y-99060000D03*
X147320000Y-96520000D03*
X160020000Y-83820000D03*
X190500000Y-87630000D03*
X162560000Y-85090000D03*
X193040000Y-90170000D03*
X116840000Y-78740000D03*
X114300000Y-78740000D03*
X195580000Y-88900000D03*
X116840000Y-77470000D03*
X114300000Y-77470000D03*
X190500000Y-96520000D03*
X170180000Y-96520000D03*
X116840000Y-80010000D03*
X114300000Y-80010000D03*
X111760000Y-110490000D03*
X182880000Y-121920000D03*
X116840000Y-118110000D03*
X147320000Y-95250000D03*
X140970000Y-100330000D03*
X147320000Y-93980000D03*
X139700000Y-99060000D03*
X147320000Y-92710000D03*
X138430000Y-97790000D03*
X130810000Y-104140000D03*
X128270000Y-102870000D03*
X129540000Y-101600000D03*
X132080000Y-100330000D03*
X134620000Y-99060000D03*
X137160000Y-97790000D03*
D18*
X163830000Y-124460000D02*
X160020000Y-128270000D01*
X182880000Y-123190000D02*
X181610000Y-123190000D01*
X184150000Y-121920000D02*
X182880000Y-123190000D01*
X107950000Y-101600000D02*
X106680000Y-101600000D01*
X106680000Y-101600000D02*
X105410000Y-102870000D01*
X105410000Y-102870000D02*
X105410000Y-111760000D01*
X116840000Y-127000000D02*
X135890000Y-127000000D01*
X135890000Y-127000000D02*
X137160000Y-128270000D01*
X137160000Y-128270000D02*
X139700000Y-128270000D01*
X147320000Y-128270000D02*
X152400000Y-128270000D01*
X107950000Y-106680000D02*
X107950000Y-110490000D01*
X187960000Y-76200000D02*
X194310000Y-76200000D01*
X194310000Y-76200000D02*
X195730000Y-74780000D01*
X195730000Y-74780000D02*
X195730000Y-74350000D01*
X187960000Y-76200000D02*
X189230000Y-74930000D01*
X186690000Y-76200000D02*
X187960000Y-76200000D01*
X181610000Y-76200000D02*
X186690000Y-76200000D01*
X179070000Y-73660000D02*
X181610000Y-76200000D01*
X189230000Y-74930000D02*
X189230000Y-74350000D01*
X170180000Y-129540000D02*
X167640000Y-129540000D01*
X186690000Y-125730000D02*
X186690000Y-128270000D01*
X185420000Y-129540000D02*
X177800000Y-129540000D01*
X186690000Y-128270000D02*
X185420000Y-129540000D01*
X179070000Y-125730000D02*
X179070000Y-128270000D01*
X179070000Y-128270000D02*
X177800000Y-129540000D01*
X177800000Y-129540000D02*
X175260000Y-129540000D01*
X176530000Y-128270000D02*
X176530000Y-125730000D01*
X175260000Y-129540000D02*
X176530000Y-128270000D01*
X170180000Y-129540000D02*
X175260000Y-129540000D01*
X186690000Y-125730000D02*
X189230000Y-125730000D01*
X189230000Y-125730000D02*
X190420000Y-125730000D01*
X190420000Y-125730000D02*
X191770000Y-124380000D01*
X118110000Y-96520000D02*
X115570000Y-99060000D01*
X140970000Y-96520000D02*
X118110000Y-96520000D01*
X148590000Y-104140000D02*
X140970000Y-96520000D01*
X154940000Y-104140000D02*
X148590000Y-104140000D01*
X167640000Y-104140000D02*
X163830000Y-104140000D01*
X172720000Y-99060000D02*
X167640000Y-104140000D01*
X116840000Y-116840000D02*
X114300000Y-114300000D01*
X168910000Y-133350000D02*
X168910000Y-132080000D01*
X116840000Y-119380000D02*
X114300000Y-119380000D01*
X168910000Y-132080000D02*
X165100000Y-128270000D01*
X143510000Y-121920000D02*
X143510000Y-123190000D01*
X161290000Y-128270000D02*
X161290000Y-130810000D01*
X146050000Y-125730000D02*
X152400000Y-125730000D01*
X143510000Y-123190000D02*
X146050000Y-125730000D01*
X146050000Y-121920000D02*
X146050000Y-123190000D01*
X158750000Y-125730000D02*
X158750000Y-133350000D01*
X157480000Y-124460000D02*
X158750000Y-125730000D01*
X147320000Y-124460000D02*
X151130000Y-124460000D01*
X146050000Y-123190000D02*
X147320000Y-124460000D01*
X118110000Y-123190000D02*
X118110000Y-121920000D01*
X119380000Y-124460000D02*
X118110000Y-123190000D01*
X142240000Y-124460000D02*
X119380000Y-124460000D01*
X137160000Y-125730000D02*
X138430000Y-127000000D01*
X118110000Y-125730000D02*
X137160000Y-125730000D01*
X153670000Y-121920000D02*
X153670000Y-118110000D01*
X161290000Y-113030000D02*
X165100000Y-109220000D01*
X153670000Y-118110000D02*
X156210000Y-115570000D01*
X156210000Y-116840000D02*
X156210000Y-121920000D01*
X157480000Y-115570000D02*
X156210000Y-116840000D01*
X166370000Y-109220000D02*
X162560000Y-113030000D01*
X113030000Y-106680000D02*
X113030000Y-109220000D01*
X165100000Y-111760000D02*
X167640000Y-109220000D01*
X113030000Y-109220000D02*
X115570000Y-111760000D01*
X143510000Y-74930000D02*
X143510000Y-78740000D01*
X186690000Y-87630000D02*
X186690000Y-93980000D01*
X184150000Y-85090000D02*
X186690000Y-87630000D01*
X160020000Y-80010000D02*
X165100000Y-85090000D01*
X144780000Y-80010000D02*
X160020000Y-80010000D01*
X143510000Y-78740000D02*
X144780000Y-80010000D01*
X168910000Y-78740000D02*
X168910000Y-77470000D01*
X168910000Y-77470000D02*
X171450000Y-74930000D01*
X189230000Y-93980000D02*
X189230000Y-88900000D01*
X129540000Y-77470000D02*
X129540000Y-74930000D01*
X130810000Y-78740000D02*
X129540000Y-77470000D01*
X142240000Y-78740000D02*
X130810000Y-78740000D01*
X144780000Y-81280000D02*
X142240000Y-78740000D01*
X160020000Y-81280000D02*
X144780000Y-81280000D01*
X161290000Y-82550000D02*
X160020000Y-81280000D01*
X163830000Y-85090000D02*
X161290000Y-82550000D01*
X189230000Y-88900000D02*
X186690000Y-86360000D01*
X121920000Y-95250000D02*
X139700000Y-95250000D01*
X139700000Y-95250000D02*
X140970000Y-95250000D01*
X140970000Y-95250000D02*
X144780000Y-99060000D01*
X147320000Y-96520000D02*
X153670000Y-90170000D01*
X153670000Y-90170000D02*
X160020000Y-83820000D01*
X115570000Y-82550000D02*
X118110000Y-80010000D01*
X191770000Y-88900000D02*
X191770000Y-93980000D01*
X190500000Y-87630000D02*
X191770000Y-88900000D01*
X160020000Y-82550000D02*
X162560000Y-85090000D01*
X152400000Y-82550000D02*
X160020000Y-82550000D01*
X144780000Y-82550000D02*
X152400000Y-82550000D01*
X142240000Y-80010000D02*
X144780000Y-82550000D01*
X118110000Y-80010000D02*
X142240000Y-80010000D01*
X194310000Y-91440000D02*
X194310000Y-93980000D01*
X193040000Y-90170000D02*
X194310000Y-91440000D01*
X114300000Y-78740000D02*
X116840000Y-78740000D01*
X196850000Y-90170000D02*
X196850000Y-93980000D01*
X195580000Y-88900000D02*
X196850000Y-90170000D01*
X114300000Y-77470000D02*
X116840000Y-77470000D01*
X190500000Y-96520000D02*
X170180000Y-96520000D01*
X114300000Y-80010000D02*
X116840000Y-80010000D01*
X110490000Y-109220000D02*
X110490000Y-106680000D01*
X111760000Y-110490000D02*
X110490000Y-109220000D01*
X113030000Y-121920000D02*
X113030000Y-119380000D01*
X184150000Y-120650000D02*
X184150000Y-118110000D01*
X182880000Y-121920000D02*
X184150000Y-120650000D01*
X114300000Y-118110000D02*
X116840000Y-118110000D01*
X113030000Y-119380000D02*
X114300000Y-118110000D01*
X146050000Y-83820000D02*
X151130000Y-83820000D01*
X152400000Y-90170000D02*
X147320000Y-95250000D01*
X152400000Y-85090000D02*
X152400000Y-90170000D01*
X151130000Y-83820000D02*
X152400000Y-85090000D01*
X140970000Y-106680000D02*
X140970000Y-100330000D01*
X129540000Y-83820000D02*
X128270000Y-82550000D01*
X146050000Y-83820000D02*
X129540000Y-83820000D01*
X149860000Y-85090000D02*
X144780000Y-85090000D01*
X151130000Y-86360000D02*
X149860000Y-85090000D01*
X151130000Y-90170000D02*
X151130000Y-86360000D01*
X147320000Y-93980000D02*
X151130000Y-90170000D01*
X138430000Y-106680000D02*
X138430000Y-100330000D01*
X138430000Y-100330000D02*
X139700000Y-99060000D01*
X125730000Y-82550000D02*
X128270000Y-85090000D01*
X143510000Y-85090000D02*
X144780000Y-85090000D01*
X128270000Y-85090000D02*
X143510000Y-85090000D01*
X148590000Y-86360000D02*
X143510000Y-86360000D01*
X149860000Y-87630000D02*
X148590000Y-86360000D01*
X149860000Y-90170000D02*
X149860000Y-87630000D01*
X147320000Y-92710000D02*
X149860000Y-90170000D01*
X135890000Y-106680000D02*
X135890000Y-100330000D01*
X135890000Y-100330000D02*
X138430000Y-97790000D01*
X127000000Y-86360000D02*
X123190000Y-82550000D01*
X143510000Y-86360000D02*
X127000000Y-86360000D01*
X130810000Y-104140000D02*
X130810000Y-106680000D01*
X128270000Y-102870000D02*
X128270000Y-106680000D01*
X129540000Y-101600000D02*
X127000000Y-101600000D01*
X127000000Y-101600000D02*
X125730000Y-102870000D01*
X125730000Y-102870000D02*
X125730000Y-106680000D01*
X132080000Y-100330000D02*
X125730000Y-100330000D01*
X125730000Y-100330000D02*
X124460000Y-100330000D01*
X124460000Y-100330000D02*
X123190000Y-101600000D01*
X123190000Y-101600000D02*
X123190000Y-106680000D01*
X134620000Y-99060000D02*
X123190000Y-99060000D01*
X123190000Y-99060000D02*
X121920000Y-99060000D01*
X121920000Y-99060000D02*
X120650000Y-100330000D01*
X120650000Y-100330000D02*
X120650000Y-106680000D01*
X137160000Y-97790000D02*
X120650000Y-97790000D01*
X120650000Y-97790000D02*
X119380000Y-97790000D01*
X119380000Y-97790000D02*
X118110000Y-99060000D01*
X118110000Y-99060000D02*
X118110000Y-106680000D01*
D19*
G36*
X181433569Y-72558110D02*
X181382560Y-72810000D01*
X181382560Y-74510000D01*
X181426838Y-74745317D01*
X181565910Y-74961441D01*
X181778110Y-75106431D01*
X182030000Y-75157440D01*
X183730000Y-75157440D01*
X183965317Y-75113162D01*
X184181441Y-74974090D01*
X184326431Y-74761890D01*
X184377440Y-74510000D01*
X184377440Y-74085461D01*
X187584092Y-74085461D01*
X187608144Y-74735460D01*
X187810613Y-75224264D01*
X188077468Y-75322927D01*
X189050395Y-74350000D01*
X189409605Y-74350000D01*
X190382532Y-75322927D01*
X190649387Y-75224264D01*
X190875908Y-74614539D01*
X190856331Y-74085461D01*
X194084092Y-74085461D01*
X194108144Y-74735460D01*
X194310613Y-75224264D01*
X194577468Y-75322927D01*
X195550395Y-74350000D01*
X195909605Y-74350000D01*
X196882532Y-75322927D01*
X197149387Y-75224264D01*
X197375908Y-74614539D01*
X197351856Y-73964540D01*
X197149387Y-73475736D01*
X196882532Y-73377073D01*
X195909605Y-74350000D01*
X195550395Y-74350000D01*
X194577468Y-73377073D01*
X194310613Y-73475736D01*
X194084092Y-74085461D01*
X190856331Y-74085461D01*
X190851856Y-73964540D01*
X190649387Y-73475736D01*
X190382532Y-73377073D01*
X189409605Y-74350000D01*
X189050395Y-74350000D01*
X188077468Y-73377073D01*
X187810613Y-73475736D01*
X187584092Y-74085461D01*
X184377440Y-74085461D01*
X184377440Y-73197468D01*
X188257073Y-73197468D01*
X189230000Y-74170395D01*
X190202927Y-73197468D01*
X194757073Y-73197468D01*
X195730000Y-74170395D01*
X196702927Y-73197468D01*
X196604264Y-72930613D01*
X195994539Y-72704092D01*
X195344540Y-72728144D01*
X194855736Y-72930613D01*
X194757073Y-73197468D01*
X190202927Y-73197468D01*
X190104264Y-72930613D01*
X189494539Y-72704092D01*
X188844540Y-72728144D01*
X188355736Y-72930613D01*
X188257073Y-73197468D01*
X184377440Y-73197468D01*
X184377440Y-72810000D01*
X184333162Y-72574683D01*
X184296044Y-72517000D01*
X197435000Y-72517000D01*
X197435000Y-77410074D01*
X197399151Y-77386120D01*
X196850000Y-77276887D01*
X196300849Y-77386120D01*
X195835302Y-77697189D01*
X195580000Y-78079275D01*
X195324698Y-77697189D01*
X194859151Y-77386120D01*
X194310000Y-77276887D01*
X193760849Y-77386120D01*
X193295302Y-77697189D01*
X193040000Y-78079275D01*
X192784698Y-77697189D01*
X192319151Y-77386120D01*
X191770000Y-77276887D01*
X191220849Y-77386120D01*
X190755302Y-77697189D01*
X190500000Y-78079275D01*
X190244698Y-77697189D01*
X189779151Y-77386120D01*
X189230000Y-77276887D01*
X188680849Y-77386120D01*
X188215302Y-77697189D01*
X187960000Y-78079275D01*
X187704698Y-77697189D01*
X187239151Y-77386120D01*
X186690000Y-77276887D01*
X186140849Y-77386120D01*
X185675302Y-77697189D01*
X185420000Y-78079275D01*
X185164698Y-77697189D01*
X184699151Y-77386120D01*
X184150000Y-77276887D01*
X183600849Y-77386120D01*
X183135302Y-77697189D01*
X182880000Y-78079275D01*
X182624698Y-77697189D01*
X182159151Y-77386120D01*
X181610000Y-77276887D01*
X181060849Y-77386120D01*
X180595302Y-77697189D01*
X180340000Y-78079275D01*
X180084698Y-77697189D01*
X179619151Y-77386120D01*
X179070000Y-77276887D01*
X178520849Y-77386120D01*
X178055302Y-77697189D01*
X177800000Y-78079275D01*
X177544698Y-77697189D01*
X177079151Y-77386120D01*
X176530000Y-77276887D01*
X175980849Y-77386120D01*
X175515302Y-77697189D01*
X175260000Y-78079275D01*
X175004698Y-77697189D01*
X174539151Y-77386120D01*
X173990000Y-77276887D01*
X173440849Y-77386120D01*
X172975302Y-77697189D01*
X172720000Y-78079275D01*
X172464698Y-77697189D01*
X171999151Y-77386120D01*
X171450000Y-77276887D01*
X170900849Y-77386120D01*
X170435302Y-77697189D01*
X170180000Y-78079275D01*
X169924698Y-77697189D01*
X169824538Y-77630264D01*
X171589680Y-75865122D01*
X171635167Y-75865162D01*
X171978943Y-75723117D01*
X172199913Y-75502532D01*
X188257073Y-75502532D01*
X188355736Y-75769387D01*
X188965461Y-75995908D01*
X189615460Y-75971856D01*
X190104264Y-75769387D01*
X190202927Y-75502532D01*
X194757073Y-75502532D01*
X194855736Y-75769387D01*
X195465461Y-75995908D01*
X196115460Y-75971856D01*
X196604264Y-75769387D01*
X196702927Y-75502532D01*
X195730000Y-74529605D01*
X194757073Y-75502532D01*
X190202927Y-75502532D01*
X189230000Y-74529605D01*
X188257073Y-75502532D01*
X172199913Y-75502532D01*
X172242192Y-75460327D01*
X172384838Y-75116799D01*
X172385162Y-74744833D01*
X172243117Y-74401057D01*
X171980327Y-74137808D01*
X171636799Y-73995162D01*
X171264833Y-73994838D01*
X170921057Y-74136883D01*
X170657808Y-74399673D01*
X170515162Y-74743201D01*
X170515121Y-74790077D01*
X168372599Y-76932599D01*
X168207852Y-77179161D01*
X168150000Y-77470000D01*
X168150000Y-77527005D01*
X167895302Y-77697189D01*
X167640000Y-78079275D01*
X167384698Y-77697189D01*
X166919151Y-77386120D01*
X166370000Y-77276887D01*
X165820849Y-77386120D01*
X165355302Y-77697189D01*
X165085014Y-78101703D01*
X164982389Y-77884866D01*
X164567423Y-77508959D01*
X164179039Y-77348096D01*
X163957000Y-77470085D01*
X163957000Y-78613000D01*
X163977000Y-78613000D01*
X163977000Y-78867000D01*
X163957000Y-78867000D01*
X163957000Y-80009915D01*
X164179039Y-80131904D01*
X164567423Y-79971041D01*
X164982389Y-79595134D01*
X165085014Y-79378297D01*
X165355302Y-79782811D01*
X165820849Y-80093880D01*
X166370000Y-80203113D01*
X166919151Y-80093880D01*
X167384698Y-79782811D01*
X167640000Y-79400725D01*
X167895302Y-79782811D01*
X168360849Y-80093880D01*
X168910000Y-80203113D01*
X169459151Y-80093880D01*
X169924698Y-79782811D01*
X170180000Y-79400725D01*
X170435302Y-79782811D01*
X170900849Y-80093880D01*
X171450000Y-80203113D01*
X171999151Y-80093880D01*
X172464698Y-79782811D01*
X172720000Y-79400725D01*
X172975302Y-79782811D01*
X173440849Y-80093880D01*
X173990000Y-80203113D01*
X174539151Y-80093880D01*
X175004698Y-79782811D01*
X175260000Y-79400725D01*
X175515302Y-79782811D01*
X175980849Y-80093880D01*
X176530000Y-80203113D01*
X177079151Y-80093880D01*
X177544698Y-79782811D01*
X177800000Y-79400725D01*
X178055302Y-79782811D01*
X178520849Y-80093880D01*
X179070000Y-80203113D01*
X179619151Y-80093880D01*
X180084698Y-79782811D01*
X180340000Y-79400725D01*
X180595302Y-79782811D01*
X181060849Y-80093880D01*
X181610000Y-80203113D01*
X182159151Y-80093880D01*
X182624698Y-79782811D01*
X182880000Y-79400725D01*
X183135302Y-79782811D01*
X183600849Y-80093880D01*
X184150000Y-80203113D01*
X184699151Y-80093880D01*
X185164698Y-79782811D01*
X185420000Y-79400725D01*
X185675302Y-79782811D01*
X186140849Y-80093880D01*
X186690000Y-80203113D01*
X187239151Y-80093880D01*
X187704698Y-79782811D01*
X187960000Y-79400725D01*
X188215302Y-79782811D01*
X188680849Y-80093880D01*
X189230000Y-80203113D01*
X189779151Y-80093880D01*
X190244698Y-79782811D01*
X190500000Y-79400725D01*
X190755302Y-79782811D01*
X191220849Y-80093880D01*
X191770000Y-80203113D01*
X192319151Y-80093880D01*
X192784698Y-79782811D01*
X193040000Y-79400725D01*
X193295302Y-79782811D01*
X193760849Y-80093880D01*
X194310000Y-80203113D01*
X194859151Y-80093880D01*
X195324698Y-79782811D01*
X195580000Y-79400725D01*
X195835302Y-79782811D01*
X196300849Y-80093880D01*
X196850000Y-80203113D01*
X197399151Y-80093880D01*
X197435000Y-80069926D01*
X197435000Y-89703836D01*
X197387401Y-89632599D01*
X196515122Y-88760320D01*
X196515162Y-88714833D01*
X196373117Y-88371057D01*
X196110327Y-88107808D01*
X195766799Y-87965162D01*
X195394833Y-87964838D01*
X195051057Y-88106883D01*
X194787808Y-88369673D01*
X194645162Y-88713201D01*
X194644838Y-89085167D01*
X194786883Y-89428943D01*
X195049673Y-89692192D01*
X195393201Y-89834838D01*
X195440077Y-89834879D01*
X196090000Y-90484802D01*
X196090000Y-92767005D01*
X195835302Y-92937189D01*
X195580000Y-93319275D01*
X195324698Y-92937189D01*
X195070000Y-92767005D01*
X195070000Y-91440000D01*
X195012148Y-91149161D01*
X195012148Y-91149160D01*
X194847401Y-90902599D01*
X193975122Y-90030320D01*
X193975162Y-89984833D01*
X193833117Y-89641057D01*
X193570327Y-89377808D01*
X193226799Y-89235162D01*
X192854833Y-89234838D01*
X192530000Y-89369056D01*
X192530000Y-88900000D01*
X192472148Y-88609161D01*
X192472148Y-88609160D01*
X192307401Y-88362599D01*
X191435122Y-87490320D01*
X191435162Y-87444833D01*
X191293117Y-87101057D01*
X191030327Y-86837808D01*
X190686799Y-86695162D01*
X190314833Y-86694838D01*
X189971057Y-86836883D01*
X189707808Y-87099673D01*
X189565162Y-87443201D01*
X189564838Y-87815167D01*
X189706883Y-88158943D01*
X189969673Y-88422192D01*
X190313201Y-88564838D01*
X190360077Y-88564879D01*
X191010000Y-89214802D01*
X191010000Y-92767005D01*
X190755302Y-92937189D01*
X190500000Y-93319275D01*
X190244698Y-92937189D01*
X189990000Y-92767005D01*
X189990000Y-88900000D01*
X189932148Y-88609161D01*
X189932148Y-88609160D01*
X189767401Y-88362599D01*
X187625122Y-86220320D01*
X187625162Y-86174833D01*
X187483117Y-85831057D01*
X187220327Y-85567808D01*
X186876799Y-85425162D01*
X186504833Y-85424838D01*
X186161057Y-85566883D01*
X185931171Y-85796369D01*
X185085122Y-84950320D01*
X185085162Y-84904833D01*
X184943117Y-84561057D01*
X184680327Y-84297808D01*
X184336799Y-84155162D01*
X183964833Y-84154838D01*
X183621057Y-84296883D01*
X183357808Y-84559673D01*
X183215162Y-84903201D01*
X183214838Y-85275167D01*
X183356883Y-85618943D01*
X183619673Y-85882192D01*
X183963201Y-86024838D01*
X184010077Y-86024879D01*
X185930000Y-87944802D01*
X185930000Y-92767005D01*
X185675302Y-92937189D01*
X185420000Y-93319275D01*
X185164698Y-92937189D01*
X184699151Y-92626120D01*
X184150000Y-92516887D01*
X183600849Y-92626120D01*
X183135302Y-92937189D01*
X182880000Y-93319275D01*
X182624698Y-92937189D01*
X182159151Y-92626120D01*
X181610000Y-92516887D01*
X181060849Y-92626120D01*
X180595302Y-92937189D01*
X180340000Y-93319275D01*
X180084698Y-92937189D01*
X179619151Y-92626120D01*
X179070000Y-92516887D01*
X178520849Y-92626120D01*
X178055302Y-92937189D01*
X177800000Y-93319275D01*
X177544698Y-92937189D01*
X177079151Y-92626120D01*
X176530000Y-92516887D01*
X175980849Y-92626120D01*
X175515302Y-92937189D01*
X175260000Y-93319275D01*
X175004698Y-92937189D01*
X174539151Y-92626120D01*
X173990000Y-92516887D01*
X173440849Y-92626120D01*
X172975302Y-92937189D01*
X172720000Y-93319275D01*
X172464698Y-92937189D01*
X171999151Y-92626120D01*
X171450000Y-92516887D01*
X170900849Y-92626120D01*
X170435302Y-92937189D01*
X170180000Y-93319275D01*
X169924698Y-92937189D01*
X169459151Y-92626120D01*
X168910000Y-92516887D01*
X168360849Y-92626120D01*
X167895302Y-92937189D01*
X167640000Y-93319275D01*
X167384698Y-92937189D01*
X166919151Y-92626120D01*
X166370000Y-92516887D01*
X165820849Y-92626120D01*
X165355302Y-92937189D01*
X165100000Y-93319275D01*
X164844698Y-92937189D01*
X164379151Y-92626120D01*
X163830000Y-92516887D01*
X163280849Y-92626120D01*
X162815302Y-92937189D01*
X162718899Y-93081465D01*
X162693162Y-92944683D01*
X162554090Y-92728559D01*
X162341890Y-92583569D01*
X162090000Y-92532560D01*
X160490000Y-92532560D01*
X160254683Y-92576838D01*
X160038559Y-92715910D01*
X159893569Y-92928110D01*
X159842560Y-93180000D01*
X159842560Y-94780000D01*
X159886838Y-95015317D01*
X160025910Y-95231441D01*
X160238110Y-95376431D01*
X160490000Y-95427440D01*
X162090000Y-95427440D01*
X162325317Y-95383162D01*
X162541441Y-95244090D01*
X162686431Y-95031890D01*
X162717815Y-94876911D01*
X162815302Y-95022811D01*
X163280849Y-95333880D01*
X163830000Y-95443113D01*
X164379151Y-95333880D01*
X164844698Y-95022811D01*
X165100000Y-94640725D01*
X165355302Y-95022811D01*
X165820849Y-95333880D01*
X166370000Y-95443113D01*
X166919151Y-95333880D01*
X167384698Y-95022811D01*
X167640000Y-94640725D01*
X167895302Y-95022811D01*
X168360849Y-95333880D01*
X168910000Y-95443113D01*
X169459151Y-95333880D01*
X169924698Y-95022811D01*
X170180000Y-94640725D01*
X170435302Y-95022811D01*
X170900849Y-95333880D01*
X171450000Y-95443113D01*
X171999151Y-95333880D01*
X172464698Y-95022811D01*
X172720000Y-94640725D01*
X172975302Y-95022811D01*
X173440849Y-95333880D01*
X173990000Y-95443113D01*
X174539151Y-95333880D01*
X175004698Y-95022811D01*
X175260000Y-94640725D01*
X175515302Y-95022811D01*
X175980849Y-95333880D01*
X176530000Y-95443113D01*
X177079151Y-95333880D01*
X177544698Y-95022811D01*
X177800000Y-94640725D01*
X178055302Y-95022811D01*
X178520849Y-95333880D01*
X179070000Y-95443113D01*
X179619151Y-95333880D01*
X180084698Y-95022811D01*
X180340000Y-94640725D01*
X180595302Y-95022811D01*
X181060849Y-95333880D01*
X181610000Y-95443113D01*
X182159151Y-95333880D01*
X182624698Y-95022811D01*
X182880000Y-94640725D01*
X183135302Y-95022811D01*
X183600849Y-95333880D01*
X184150000Y-95443113D01*
X184699151Y-95333880D01*
X185164698Y-95022811D01*
X185420000Y-94640725D01*
X185675302Y-95022811D01*
X186140849Y-95333880D01*
X186690000Y-95443113D01*
X187239151Y-95333880D01*
X187704698Y-95022811D01*
X187960000Y-94640725D01*
X188215302Y-95022811D01*
X188680849Y-95333880D01*
X189230000Y-95443113D01*
X189779151Y-95333880D01*
X190244698Y-95022811D01*
X190500000Y-94640725D01*
X190755302Y-95022811D01*
X191220849Y-95333880D01*
X191770000Y-95443113D01*
X192319151Y-95333880D01*
X192784698Y-95022811D01*
X193040000Y-94640725D01*
X193295302Y-95022811D01*
X193760849Y-95333880D01*
X194310000Y-95443113D01*
X194859151Y-95333880D01*
X195324698Y-95022811D01*
X195580000Y-94640725D01*
X195835302Y-95022811D01*
X196300849Y-95333880D01*
X196850000Y-95443113D01*
X197399151Y-95333880D01*
X197435000Y-95309926D01*
X197435000Y-98955577D01*
X196879093Y-98845000D01*
X196820907Y-98845000D01*
X196252622Y-98958039D01*
X195770853Y-99279946D01*
X195448946Y-99761715D01*
X195335907Y-100330000D01*
X195448946Y-100898285D01*
X195770853Y-101380054D01*
X196100026Y-101600000D01*
X195770853Y-101819946D01*
X195448946Y-102301715D01*
X195335907Y-102870000D01*
X195448946Y-103438285D01*
X195770853Y-103920054D01*
X196100026Y-104140000D01*
X195770853Y-104359946D01*
X195448946Y-104841715D01*
X195335907Y-105410000D01*
X195448946Y-105978285D01*
X195770853Y-106460054D01*
X196100026Y-106680000D01*
X195770853Y-106899946D01*
X195448946Y-107381715D01*
X195335907Y-107950000D01*
X195448946Y-108518285D01*
X195770853Y-109000054D01*
X195812452Y-109027850D01*
X195764683Y-109036838D01*
X195548559Y-109175910D01*
X195403569Y-109388110D01*
X195352560Y-109640000D01*
X195352560Y-111340000D01*
X195396838Y-111575317D01*
X195535910Y-111791441D01*
X195748110Y-111936431D01*
X196000000Y-111987440D01*
X197435000Y-111987440D01*
X197435000Y-131852560D01*
X196000000Y-131852560D01*
X195764683Y-131896838D01*
X195548559Y-132035910D01*
X195403569Y-132248110D01*
X195389914Y-132315541D01*
X195360054Y-132270853D01*
X194878285Y-131948946D01*
X194310000Y-131835907D01*
X193741715Y-131948946D01*
X193259946Y-132270853D01*
X193040000Y-132600026D01*
X192820054Y-132270853D01*
X192338285Y-131948946D01*
X191770000Y-131835907D01*
X191201715Y-131948946D01*
X190719946Y-132270853D01*
X190500000Y-132600026D01*
X190280054Y-132270853D01*
X189798285Y-131948946D01*
X189230000Y-131835907D01*
X188661715Y-131948946D01*
X188179946Y-132270853D01*
X187960000Y-132600026D01*
X187740054Y-132270853D01*
X187258285Y-131948946D01*
X186690000Y-131835907D01*
X186121715Y-131948946D01*
X185639946Y-132270853D01*
X185420000Y-132600026D01*
X185200054Y-132270853D01*
X184718285Y-131948946D01*
X184150000Y-131835907D01*
X183581715Y-131948946D01*
X183099946Y-132270853D01*
X182880000Y-132600026D01*
X182660054Y-132270853D01*
X182178285Y-131948946D01*
X181610000Y-131835907D01*
X181041715Y-131948946D01*
X180559946Y-132270853D01*
X180340000Y-132600026D01*
X180120054Y-132270853D01*
X179638285Y-131948946D01*
X179070000Y-131835907D01*
X178501715Y-131948946D01*
X178019946Y-132270853D01*
X177800000Y-132600026D01*
X177580054Y-132270853D01*
X177098285Y-131948946D01*
X176530000Y-131835907D01*
X175961715Y-131948946D01*
X175479946Y-132270853D01*
X175260000Y-132600026D01*
X175040054Y-132270853D01*
X174558285Y-131948946D01*
X173990000Y-131835907D01*
X173421715Y-131948946D01*
X172939946Y-132270853D01*
X172720000Y-132600026D01*
X172500054Y-132270853D01*
X172018285Y-131948946D01*
X171450000Y-131835907D01*
X170881715Y-131948946D01*
X170399946Y-132270853D01*
X170180000Y-132600026D01*
X169960054Y-132270853D01*
X169669322Y-132076593D01*
X169612148Y-131789161D01*
X169447401Y-131542599D01*
X166035122Y-128130320D01*
X166035162Y-128084833D01*
X165893117Y-127741057D01*
X165630327Y-127477808D01*
X165286799Y-127335162D01*
X164914833Y-127334838D01*
X164571057Y-127476883D01*
X164307808Y-127739673D01*
X164165162Y-128083201D01*
X164164838Y-128455167D01*
X164306883Y-128798943D01*
X164569673Y-129062192D01*
X164913201Y-129204838D01*
X164960077Y-129204879D01*
X167959519Y-132204321D01*
X167859946Y-132270853D01*
X167640000Y-132600026D01*
X167420054Y-132270853D01*
X166938285Y-131948946D01*
X166370000Y-131835907D01*
X165801715Y-131948946D01*
X165319946Y-132270853D01*
X165100000Y-132600026D01*
X164880054Y-132270853D01*
X164398285Y-131948946D01*
X163830000Y-131835907D01*
X163261715Y-131948946D01*
X162779946Y-132270853D01*
X162560000Y-132600026D01*
X162340054Y-132270853D01*
X161858285Y-131948946D01*
X161290000Y-131835907D01*
X160721715Y-131948946D01*
X160239946Y-132270853D01*
X160020000Y-132600026D01*
X159800054Y-132270853D01*
X159510000Y-132077046D01*
X159510000Y-129070633D01*
X159833201Y-129204838D01*
X160205167Y-129205162D01*
X160530000Y-129070944D01*
X160530000Y-130247537D01*
X160497808Y-130279673D01*
X160355162Y-130623201D01*
X160354838Y-130995167D01*
X160496883Y-131338943D01*
X160759673Y-131602192D01*
X161103201Y-131744838D01*
X161475167Y-131745162D01*
X161818943Y-131603117D01*
X162082192Y-131340327D01*
X162224838Y-130996799D01*
X162225162Y-130624833D01*
X162083117Y-130281057D01*
X162050000Y-130247882D01*
X162050000Y-128832463D01*
X162082192Y-128800327D01*
X162224838Y-128456799D01*
X162225162Y-128084833D01*
X162083117Y-127741057D01*
X161853631Y-127511171D01*
X163969680Y-125395122D01*
X164015167Y-125395162D01*
X164358943Y-125253117D01*
X164622192Y-124990327D01*
X164647242Y-124930000D01*
X167462560Y-124930000D01*
X167462560Y-126530000D01*
X167506838Y-126765317D01*
X167645910Y-126981441D01*
X167858110Y-127126431D01*
X168110000Y-127177440D01*
X169710000Y-127177440D01*
X169945317Y-127133162D01*
X170161441Y-126994090D01*
X170306431Y-126781890D01*
X170337815Y-126626911D01*
X170435302Y-126772811D01*
X170900849Y-127083880D01*
X171450000Y-127193113D01*
X171999151Y-127083880D01*
X172464698Y-126772811D01*
X172720000Y-126390725D01*
X172975302Y-126772811D01*
X173440849Y-127083880D01*
X173990000Y-127193113D01*
X174539151Y-127083880D01*
X175004698Y-126772811D01*
X175274986Y-126368297D01*
X175377611Y-126585134D01*
X175792577Y-126961041D01*
X176180961Y-127121904D01*
X176403000Y-126999915D01*
X176403000Y-125857000D01*
X176657000Y-125857000D01*
X176657000Y-126999915D01*
X176879039Y-127121904D01*
X177267423Y-126961041D01*
X177682389Y-126585134D01*
X177800000Y-126336633D01*
X177917611Y-126585134D01*
X178332577Y-126961041D01*
X178720961Y-127121904D01*
X178943000Y-126999915D01*
X178943000Y-125857000D01*
X176657000Y-125857000D01*
X176403000Y-125857000D01*
X176383000Y-125857000D01*
X176383000Y-125603000D01*
X176403000Y-125603000D01*
X176403000Y-124460085D01*
X176657000Y-124460085D01*
X176657000Y-125603000D01*
X178943000Y-125603000D01*
X178943000Y-124460085D01*
X179197000Y-124460085D01*
X179197000Y-125603000D01*
X179217000Y-125603000D01*
X179217000Y-125857000D01*
X179197000Y-125857000D01*
X179197000Y-126999915D01*
X179419039Y-127121904D01*
X179807423Y-126961041D01*
X180222389Y-126585134D01*
X180325014Y-126368297D01*
X180595302Y-126772811D01*
X181060849Y-127083880D01*
X181610000Y-127193113D01*
X182159151Y-127083880D01*
X182624698Y-126772811D01*
X182880000Y-126390725D01*
X183135302Y-126772811D01*
X183600849Y-127083880D01*
X184150000Y-127193113D01*
X184699151Y-127083880D01*
X185164698Y-126772811D01*
X185434986Y-126368297D01*
X185537611Y-126585134D01*
X185952577Y-126961041D01*
X186340961Y-127121904D01*
X186563000Y-126999915D01*
X186563000Y-125857000D01*
X186817000Y-125857000D01*
X186817000Y-126999915D01*
X187039039Y-127121904D01*
X187427423Y-126961041D01*
X187842389Y-126585134D01*
X188081914Y-126079041D01*
X187960629Y-125857000D01*
X186817000Y-125857000D01*
X186563000Y-125857000D01*
X186543000Y-125857000D01*
X186543000Y-125603000D01*
X186563000Y-125603000D01*
X186563000Y-124460085D01*
X186817000Y-124460085D01*
X186817000Y-125603000D01*
X187960629Y-125603000D01*
X188078207Y-125387745D01*
X190941861Y-125387745D01*
X191015995Y-125633864D01*
X191553223Y-125826965D01*
X192123454Y-125799778D01*
X192524005Y-125633864D01*
X192598139Y-125387745D01*
X191770000Y-124559605D01*
X190941861Y-125387745D01*
X188078207Y-125387745D01*
X188081914Y-125380959D01*
X187842389Y-124874866D01*
X187427423Y-124498959D01*
X187039039Y-124338096D01*
X186817000Y-124460085D01*
X186563000Y-124460085D01*
X186340961Y-124338096D01*
X185952577Y-124498959D01*
X185537611Y-124874866D01*
X185434986Y-125091703D01*
X185164698Y-124687189D01*
X184699151Y-124376120D01*
X184150000Y-124266887D01*
X183600849Y-124376120D01*
X183135302Y-124687189D01*
X182880000Y-125069275D01*
X182624698Y-124687189D01*
X182159151Y-124376120D01*
X181610000Y-124266887D01*
X181060849Y-124376120D01*
X180595302Y-124687189D01*
X180325014Y-125091703D01*
X180222389Y-124874866D01*
X179807423Y-124498959D01*
X179419039Y-124338096D01*
X179197000Y-124460085D01*
X178943000Y-124460085D01*
X178720961Y-124338096D01*
X178332577Y-124498959D01*
X177917611Y-124874866D01*
X177800000Y-125123367D01*
X177682389Y-124874866D01*
X177267423Y-124498959D01*
X176879039Y-124338096D01*
X176657000Y-124460085D01*
X176403000Y-124460085D01*
X176180961Y-124338096D01*
X175792577Y-124498959D01*
X175377611Y-124874866D01*
X175274986Y-125091703D01*
X175004698Y-124687189D01*
X174539151Y-124376120D01*
X173990000Y-124266887D01*
X173440849Y-124376120D01*
X172975302Y-124687189D01*
X172720000Y-125069275D01*
X172464698Y-124687189D01*
X171999151Y-124376120D01*
X171450000Y-124266887D01*
X170900849Y-124376120D01*
X170435302Y-124687189D01*
X170338899Y-124831465D01*
X170313162Y-124694683D01*
X170174090Y-124478559D01*
X169961890Y-124333569D01*
X169710000Y-124282560D01*
X168110000Y-124282560D01*
X167874683Y-124326838D01*
X167658559Y-124465910D01*
X167513569Y-124678110D01*
X167462560Y-124930000D01*
X164647242Y-124930000D01*
X164764838Y-124646799D01*
X164765162Y-124274833D01*
X164719046Y-124163223D01*
X190323035Y-124163223D01*
X190350222Y-124733454D01*
X190516136Y-125134005D01*
X190762255Y-125208139D01*
X191590395Y-124380000D01*
X191949605Y-124380000D01*
X192777745Y-125208139D01*
X193023864Y-125134005D01*
X193216965Y-124596777D01*
X193189778Y-124026546D01*
X193023864Y-123625995D01*
X192777745Y-123551861D01*
X191949605Y-124380000D01*
X191590395Y-124380000D01*
X190762255Y-123551861D01*
X190516136Y-123625995D01*
X190323035Y-124163223D01*
X164719046Y-124163223D01*
X164623117Y-123931057D01*
X164360327Y-123667808D01*
X164016799Y-123525162D01*
X163644833Y-123524838D01*
X163301057Y-123666883D01*
X163037808Y-123929673D01*
X162895162Y-124273201D01*
X162895121Y-124320077D01*
X159880320Y-127334878D01*
X159834833Y-127334838D01*
X159510000Y-127469056D01*
X159510000Y-125730000D01*
X159452148Y-125439161D01*
X159452148Y-125439160D01*
X159287401Y-125192599D01*
X158415122Y-124320320D01*
X158415162Y-124274833D01*
X158273117Y-123931057D01*
X158010327Y-123667808D01*
X157666799Y-123525162D01*
X157294833Y-123524838D01*
X156951057Y-123666883D01*
X156687808Y-123929673D01*
X156545162Y-124273201D01*
X156544838Y-124645167D01*
X156686883Y-124988943D01*
X156949673Y-125252192D01*
X157293201Y-125394838D01*
X157340077Y-125394879D01*
X157990000Y-126044802D01*
X157990000Y-132077046D01*
X157699946Y-132270853D01*
X157472298Y-132611553D01*
X157405183Y-132468642D01*
X156976924Y-132078355D01*
X156566890Y-131908524D01*
X156337000Y-132029845D01*
X156337000Y-133223000D01*
X156357000Y-133223000D01*
X156357000Y-133477000D01*
X156337000Y-133477000D01*
X156337000Y-133497000D01*
X156083000Y-133497000D01*
X156083000Y-133477000D01*
X156063000Y-133477000D01*
X156063000Y-133223000D01*
X156083000Y-133223000D01*
X156083000Y-132029845D01*
X155853110Y-131908524D01*
X155443076Y-132078355D01*
X155014817Y-132468642D01*
X154947702Y-132611553D01*
X154720054Y-132270853D01*
X154238285Y-131948946D01*
X153670000Y-131835907D01*
X153101715Y-131948946D01*
X152619946Y-132270853D01*
X152400000Y-132600026D01*
X152180054Y-132270853D01*
X151698285Y-131948946D01*
X151130000Y-131835907D01*
X150561715Y-131948946D01*
X150079946Y-132270853D01*
X149860000Y-132600026D01*
X149640054Y-132270853D01*
X149158285Y-131948946D01*
X148590000Y-131835907D01*
X148021715Y-131948946D01*
X147539946Y-132270853D01*
X147320000Y-132600026D01*
X147100054Y-132270853D01*
X146618285Y-131948946D01*
X146050000Y-131835907D01*
X145481715Y-131948946D01*
X144999946Y-132270853D01*
X144780000Y-132600026D01*
X144560054Y-132270853D01*
X144078285Y-131948946D01*
X143510000Y-131835907D01*
X142941715Y-131948946D01*
X142459946Y-132270853D01*
X142240000Y-132600026D01*
X142020054Y-132270853D01*
X141538285Y-131948946D01*
X140970000Y-131835907D01*
X140401715Y-131948946D01*
X139919946Y-132270853D01*
X139700000Y-132600026D01*
X139480054Y-132270853D01*
X138998285Y-131948946D01*
X138430000Y-131835907D01*
X137861715Y-131948946D01*
X137379946Y-132270853D01*
X137160000Y-132600026D01*
X136940054Y-132270853D01*
X136458285Y-131948946D01*
X135890000Y-131835907D01*
X135321715Y-131948946D01*
X134839946Y-132270853D01*
X134620000Y-132600026D01*
X134400054Y-132270853D01*
X133918285Y-131948946D01*
X133350000Y-131835907D01*
X132781715Y-131948946D01*
X132299946Y-132270853D01*
X132080000Y-132600026D01*
X131860054Y-132270853D01*
X131378285Y-131948946D01*
X130810000Y-131835907D01*
X130241715Y-131948946D01*
X129759946Y-132270853D01*
X129540000Y-132600026D01*
X129320054Y-132270853D01*
X128838285Y-131948946D01*
X128270000Y-131835907D01*
X127701715Y-131948946D01*
X127219946Y-132270853D01*
X127000000Y-132600026D01*
X126780054Y-132270853D01*
X126298285Y-131948946D01*
X125730000Y-131835907D01*
X125161715Y-131948946D01*
X124679946Y-132270853D01*
X124460000Y-132600026D01*
X124240054Y-132270853D01*
X123758285Y-131948946D01*
X123190000Y-131835907D01*
X122621715Y-131948946D01*
X122139946Y-132270853D01*
X121920000Y-132600026D01*
X121700054Y-132270853D01*
X121218285Y-131948946D01*
X120650000Y-131835907D01*
X120081715Y-131948946D01*
X119599946Y-132270853D01*
X119380000Y-132600026D01*
X119160054Y-132270853D01*
X118678285Y-131948946D01*
X118110000Y-131835907D01*
X117541715Y-131948946D01*
X117059946Y-132270853D01*
X116840000Y-132600026D01*
X116620054Y-132270853D01*
X116138285Y-131948946D01*
X115570000Y-131835907D01*
X115001715Y-131948946D01*
X114519946Y-132270853D01*
X114300000Y-132600026D01*
X114080054Y-132270853D01*
X113598285Y-131948946D01*
X113030000Y-131835907D01*
X112461715Y-131948946D01*
X111979946Y-132270853D01*
X111760000Y-132600026D01*
X111540054Y-132270853D01*
X111058285Y-131948946D01*
X110490000Y-131835907D01*
X109921715Y-131948946D01*
X109439946Y-132270853D01*
X109220000Y-132600026D01*
X109000054Y-132270853D01*
X108518285Y-131948946D01*
X107950000Y-131835907D01*
X107381715Y-131948946D01*
X106899946Y-132270853D01*
X106680000Y-132600026D01*
X106460054Y-132270853D01*
X105978285Y-131948946D01*
X105410000Y-131835907D01*
X104841715Y-131948946D01*
X104359946Y-132270853D01*
X104140000Y-132600026D01*
X103920054Y-132270853D01*
X103438285Y-131948946D01*
X102870000Y-131835907D01*
X102301715Y-131948946D01*
X101819946Y-132270853D01*
X101600000Y-132600026D01*
X101380054Y-132270853D01*
X100898285Y-131948946D01*
X100330000Y-131835907D01*
X99761715Y-131948946D01*
X99745000Y-131960115D01*
X99745000Y-121891887D01*
X106515000Y-121891887D01*
X106515000Y-121948113D01*
X106624233Y-122497264D01*
X106935302Y-122962811D01*
X107400849Y-123273880D01*
X107950000Y-123383113D01*
X108499151Y-123273880D01*
X108964698Y-122962811D01*
X109220000Y-122580725D01*
X109475302Y-122962811D01*
X109940849Y-123273880D01*
X110490000Y-123383113D01*
X111039151Y-123273880D01*
X111504698Y-122962811D01*
X111760000Y-122580725D01*
X112015302Y-122962811D01*
X112480849Y-123273880D01*
X113030000Y-123383113D01*
X113579151Y-123273880D01*
X114044698Y-122962811D01*
X114300000Y-122580725D01*
X114555302Y-122962811D01*
X115020849Y-123273880D01*
X115570000Y-123383113D01*
X116119151Y-123273880D01*
X116584698Y-122962811D01*
X116840000Y-122580725D01*
X117095302Y-122962811D01*
X117350000Y-123132995D01*
X117350000Y-123190000D01*
X117407852Y-123480839D01*
X117572599Y-123727401D01*
X118815198Y-124970000D01*
X118672463Y-124970000D01*
X118640327Y-124937808D01*
X118296799Y-124795162D01*
X117924833Y-124794838D01*
X117581057Y-124936883D01*
X117317808Y-125199673D01*
X117175162Y-125543201D01*
X117174838Y-125915167D01*
X117280310Y-126170430D01*
X117026799Y-126065162D01*
X116654833Y-126064838D01*
X116311057Y-126206883D01*
X116047808Y-126469673D01*
X115905162Y-126813201D01*
X115904838Y-127185167D01*
X116046883Y-127528943D01*
X116309673Y-127792192D01*
X116653201Y-127934838D01*
X117025167Y-127935162D01*
X117368943Y-127793117D01*
X117402118Y-127760000D01*
X135575198Y-127760000D01*
X136622599Y-128807401D01*
X136869160Y-128972148D01*
X137160000Y-129030000D01*
X139137537Y-129030000D01*
X139169673Y-129062192D01*
X139513201Y-129204838D01*
X139885167Y-129205162D01*
X140228943Y-129063117D01*
X140492192Y-128800327D01*
X140634838Y-128456799D01*
X140634839Y-128455167D01*
X146384838Y-128455167D01*
X146526883Y-128798943D01*
X146789673Y-129062192D01*
X147133201Y-129204838D01*
X147505167Y-129205162D01*
X147848943Y-129063117D01*
X147882118Y-129030000D01*
X151837537Y-129030000D01*
X151869673Y-129062192D01*
X152213201Y-129204838D01*
X152585167Y-129205162D01*
X152928943Y-129063117D01*
X153192192Y-128800327D01*
X153334838Y-128456799D01*
X153335162Y-128084833D01*
X153193117Y-127741057D01*
X152930327Y-127477808D01*
X152586799Y-127335162D01*
X152214833Y-127334838D01*
X151871057Y-127476883D01*
X151837882Y-127510000D01*
X147882463Y-127510000D01*
X147850327Y-127477808D01*
X147506799Y-127335162D01*
X147134833Y-127334838D01*
X146791057Y-127476883D01*
X146527808Y-127739673D01*
X146385162Y-128083201D01*
X146384838Y-128455167D01*
X140634839Y-128455167D01*
X140635162Y-128084833D01*
X140493117Y-127741057D01*
X140230327Y-127477808D01*
X139886799Y-127335162D01*
X139514833Y-127334838D01*
X139259570Y-127440310D01*
X139364838Y-127186799D01*
X139365162Y-126814833D01*
X139223117Y-126471057D01*
X138960327Y-126207808D01*
X138616799Y-126065162D01*
X138569923Y-126065121D01*
X137724802Y-125220000D01*
X141677537Y-125220000D01*
X141709673Y-125252192D01*
X142053201Y-125394838D01*
X142425167Y-125395162D01*
X142768943Y-125253117D01*
X143032192Y-124990327D01*
X143174838Y-124646799D01*
X143175162Y-124274833D01*
X143033117Y-123931057D01*
X142770327Y-123667808D01*
X142426799Y-123525162D01*
X142054833Y-123524838D01*
X141711057Y-123666883D01*
X141677882Y-123700000D01*
X119694802Y-123700000D01*
X119024538Y-123029736D01*
X119124698Y-122962811D01*
X119380000Y-122580725D01*
X119635302Y-122962811D01*
X120100849Y-123273880D01*
X120650000Y-123383113D01*
X121199151Y-123273880D01*
X121664698Y-122962811D01*
X121920000Y-122580725D01*
X122175302Y-122962811D01*
X122640849Y-123273880D01*
X123190000Y-123383113D01*
X123739151Y-123273880D01*
X124204698Y-122962811D01*
X124460000Y-122580725D01*
X124715302Y-122962811D01*
X125180849Y-123273880D01*
X125730000Y-123383113D01*
X126279151Y-123273880D01*
X126744698Y-122962811D01*
X127000000Y-122580725D01*
X127255302Y-122962811D01*
X127720849Y-123273880D01*
X128270000Y-123383113D01*
X128819151Y-123273880D01*
X129284698Y-122962811D01*
X129540000Y-122580725D01*
X129795302Y-122962811D01*
X130260849Y-123273880D01*
X130810000Y-123383113D01*
X131359151Y-123273880D01*
X131824698Y-122962811D01*
X132080000Y-122580725D01*
X132335302Y-122962811D01*
X132800849Y-123273880D01*
X133350000Y-123383113D01*
X133899151Y-123273880D01*
X134364698Y-122962811D01*
X134620000Y-122580725D01*
X134875302Y-122962811D01*
X135340849Y-123273880D01*
X135890000Y-123383113D01*
X136439151Y-123273880D01*
X136904698Y-122962811D01*
X137160000Y-122580725D01*
X137415302Y-122962811D01*
X137880849Y-123273880D01*
X138430000Y-123383113D01*
X138979151Y-123273880D01*
X139444698Y-122962811D01*
X139700000Y-122580725D01*
X139955302Y-122962811D01*
X140420849Y-123273880D01*
X140970000Y-123383113D01*
X141519151Y-123273880D01*
X141984698Y-122962811D01*
X142240000Y-122580725D01*
X142495302Y-122962811D01*
X142750000Y-123132995D01*
X142750000Y-123190000D01*
X142807852Y-123480839D01*
X142972599Y-123727401D01*
X145512599Y-126267401D01*
X145759160Y-126432148D01*
X145807414Y-126441746D01*
X146050000Y-126490000D01*
X151837537Y-126490000D01*
X151869673Y-126522192D01*
X152213201Y-126664838D01*
X152585167Y-126665162D01*
X152928943Y-126523117D01*
X153192192Y-126260327D01*
X153334838Y-125916799D01*
X153335162Y-125544833D01*
X153193117Y-125201057D01*
X152930327Y-124937808D01*
X152586799Y-124795162D01*
X152214833Y-124794838D01*
X151959570Y-124900310D01*
X152064838Y-124646799D01*
X152065162Y-124274833D01*
X151923117Y-123931057D01*
X151660327Y-123667808D01*
X151316799Y-123525162D01*
X150944833Y-123524838D01*
X150601057Y-123666883D01*
X150567882Y-123700000D01*
X147634802Y-123700000D01*
X146964538Y-123029736D01*
X147064698Y-122962811D01*
X147320000Y-122580725D01*
X147575302Y-122962811D01*
X148040849Y-123273880D01*
X148590000Y-123383113D01*
X149139151Y-123273880D01*
X149604698Y-122962811D01*
X149860000Y-122580725D01*
X150115302Y-122962811D01*
X150580849Y-123273880D01*
X151130000Y-123383113D01*
X151679151Y-123273880D01*
X152144698Y-122962811D01*
X152400000Y-122580725D01*
X152655302Y-122962811D01*
X153120849Y-123273880D01*
X153670000Y-123383113D01*
X154219151Y-123273880D01*
X154684698Y-122962811D01*
X154940000Y-122580725D01*
X155195302Y-122962811D01*
X155660849Y-123273880D01*
X156210000Y-123383113D01*
X156759151Y-123273880D01*
X157224698Y-122962811D01*
X157535767Y-122497264D01*
X157645000Y-121948113D01*
X157645000Y-121891887D01*
X157535767Y-121342736D01*
X157224698Y-120877189D01*
X156970000Y-120707005D01*
X156970000Y-118081887D01*
X167475000Y-118081887D01*
X167475000Y-118138113D01*
X167584233Y-118687264D01*
X167895302Y-119152811D01*
X168360849Y-119463880D01*
X168910000Y-119573113D01*
X169459151Y-119463880D01*
X169924698Y-119152811D01*
X170180000Y-118770725D01*
X170435302Y-119152811D01*
X170900849Y-119463880D01*
X171450000Y-119573113D01*
X171999151Y-119463880D01*
X172464698Y-119152811D01*
X172720000Y-118770725D01*
X172975302Y-119152811D01*
X173440849Y-119463880D01*
X173990000Y-119573113D01*
X174539151Y-119463880D01*
X175004698Y-119152811D01*
X175260000Y-118770725D01*
X175515302Y-119152811D01*
X175980849Y-119463880D01*
X176530000Y-119573113D01*
X177079151Y-119463880D01*
X177544698Y-119152811D01*
X177800000Y-118770725D01*
X178055302Y-119152811D01*
X178520849Y-119463880D01*
X179070000Y-119573113D01*
X179619151Y-119463880D01*
X180084698Y-119152811D01*
X180340000Y-118770725D01*
X180595302Y-119152811D01*
X181060849Y-119463880D01*
X181610000Y-119573113D01*
X182159151Y-119463880D01*
X182624698Y-119152811D01*
X182880000Y-118770725D01*
X183135302Y-119152811D01*
X183390000Y-119322995D01*
X183390000Y-120335198D01*
X182740320Y-120984878D01*
X182694833Y-120984838D01*
X182351057Y-121126883D01*
X182087808Y-121389673D01*
X181945162Y-121733201D01*
X181944838Y-122105167D01*
X182050310Y-122360430D01*
X181796799Y-122255162D01*
X181424833Y-122254838D01*
X181081057Y-122396883D01*
X180817808Y-122659673D01*
X180675162Y-123003201D01*
X180674838Y-123375167D01*
X180816883Y-123718943D01*
X181079673Y-123982192D01*
X181423201Y-124124838D01*
X181795167Y-124125162D01*
X182138943Y-123983117D01*
X182172118Y-123950000D01*
X182880000Y-123950000D01*
X183170839Y-123892148D01*
X183417401Y-123727401D01*
X183772547Y-123372255D01*
X190941861Y-123372255D01*
X191770000Y-124200395D01*
X192598139Y-123372255D01*
X192524005Y-123126136D01*
X191986777Y-122933035D01*
X191416546Y-122960222D01*
X191015995Y-123126136D01*
X190941861Y-123372255D01*
X183772547Y-123372255D01*
X184289680Y-122855122D01*
X184335167Y-122855162D01*
X184678943Y-122713117D01*
X184942192Y-122450327D01*
X185084838Y-122106799D01*
X185085162Y-121734833D01*
X184943117Y-121391057D01*
X184708418Y-121155948D01*
X184852148Y-120940840D01*
X184910000Y-120650000D01*
X184910000Y-119664187D01*
X190334752Y-119664187D01*
X190552757Y-120191800D01*
X190956077Y-120595824D01*
X191483309Y-120814750D01*
X192054187Y-120815248D01*
X192581800Y-120597243D01*
X192985824Y-120193923D01*
X193204750Y-119666691D01*
X193205248Y-119095813D01*
X192987243Y-118568200D01*
X192583923Y-118164176D01*
X192056691Y-117945250D01*
X191485813Y-117944752D01*
X190958200Y-118162757D01*
X190554176Y-118566077D01*
X190335250Y-119093309D01*
X190334752Y-119664187D01*
X184910000Y-119664187D01*
X184910000Y-119322995D01*
X185164698Y-119152811D01*
X185420000Y-118770725D01*
X185675302Y-119152811D01*
X186140849Y-119463880D01*
X186690000Y-119573113D01*
X187239151Y-119463880D01*
X187704698Y-119152811D01*
X188015767Y-118687264D01*
X188125000Y-118138113D01*
X188125000Y-118081887D01*
X188015767Y-117532736D01*
X187704698Y-117067189D01*
X187239151Y-116756120D01*
X186690000Y-116646887D01*
X186140849Y-116756120D01*
X185675302Y-117067189D01*
X185420000Y-117449275D01*
X185164698Y-117067189D01*
X184699151Y-116756120D01*
X184150000Y-116646887D01*
X183600849Y-116756120D01*
X183135302Y-117067189D01*
X182880000Y-117449275D01*
X182624698Y-117067189D01*
X182159151Y-116756120D01*
X181610000Y-116646887D01*
X181060849Y-116756120D01*
X180595302Y-117067189D01*
X180340000Y-117449275D01*
X180084698Y-117067189D01*
X179619151Y-116756120D01*
X179070000Y-116646887D01*
X178520849Y-116756120D01*
X178055302Y-117067189D01*
X177800000Y-117449275D01*
X177544698Y-117067189D01*
X177079151Y-116756120D01*
X176530000Y-116646887D01*
X175980849Y-116756120D01*
X175515302Y-117067189D01*
X175260000Y-117449275D01*
X175004698Y-117067189D01*
X174539151Y-116756120D01*
X173990000Y-116646887D01*
X173440849Y-116756120D01*
X172975302Y-117067189D01*
X172720000Y-117449275D01*
X172464698Y-117067189D01*
X171999151Y-116756120D01*
X171450000Y-116646887D01*
X170900849Y-116756120D01*
X170435302Y-117067189D01*
X170180000Y-117449275D01*
X169924698Y-117067189D01*
X169459151Y-116756120D01*
X168910000Y-116646887D01*
X168360849Y-116756120D01*
X167895302Y-117067189D01*
X167584233Y-117532736D01*
X167475000Y-118081887D01*
X156970000Y-118081887D01*
X156970000Y-117154802D01*
X157619680Y-116505122D01*
X157665167Y-116505162D01*
X158008943Y-116363117D01*
X158272192Y-116100327D01*
X158414838Y-115756799D01*
X158415162Y-115384833D01*
X158273117Y-115041057D01*
X158010327Y-114777808D01*
X157666799Y-114635162D01*
X157294833Y-114634838D01*
X156951057Y-114776883D01*
X156845046Y-114882710D01*
X156740327Y-114777808D01*
X156396799Y-114635162D01*
X156024833Y-114634838D01*
X155681057Y-114776883D01*
X155417808Y-115039673D01*
X155275162Y-115383201D01*
X155275121Y-115430077D01*
X153132599Y-117572599D01*
X152967852Y-117819161D01*
X152910000Y-118110000D01*
X152910000Y-120707005D01*
X152655302Y-120877189D01*
X152400000Y-121259275D01*
X152144698Y-120877189D01*
X151679151Y-120566120D01*
X151130000Y-120456887D01*
X150580849Y-120566120D01*
X150115302Y-120877189D01*
X149860000Y-121259275D01*
X149604698Y-120877189D01*
X149139151Y-120566120D01*
X148590000Y-120456887D01*
X148040849Y-120566120D01*
X147575302Y-120877189D01*
X147320000Y-121259275D01*
X147064698Y-120877189D01*
X146599151Y-120566120D01*
X146050000Y-120456887D01*
X145500849Y-120566120D01*
X145035302Y-120877189D01*
X144780000Y-121259275D01*
X144524698Y-120877189D01*
X144059151Y-120566120D01*
X143510000Y-120456887D01*
X142960849Y-120566120D01*
X142495302Y-120877189D01*
X142240000Y-121259275D01*
X141984698Y-120877189D01*
X141519151Y-120566120D01*
X140970000Y-120456887D01*
X140420849Y-120566120D01*
X139955302Y-120877189D01*
X139700000Y-121259275D01*
X139444698Y-120877189D01*
X138979151Y-120566120D01*
X138430000Y-120456887D01*
X137880849Y-120566120D01*
X137415302Y-120877189D01*
X137160000Y-121259275D01*
X136904698Y-120877189D01*
X136439151Y-120566120D01*
X135890000Y-120456887D01*
X135340849Y-120566120D01*
X134875302Y-120877189D01*
X134620000Y-121259275D01*
X134364698Y-120877189D01*
X133899151Y-120566120D01*
X133350000Y-120456887D01*
X132800849Y-120566120D01*
X132335302Y-120877189D01*
X132080000Y-121259275D01*
X131824698Y-120877189D01*
X131359151Y-120566120D01*
X130810000Y-120456887D01*
X130260849Y-120566120D01*
X129795302Y-120877189D01*
X129540000Y-121259275D01*
X129284698Y-120877189D01*
X128819151Y-120566120D01*
X128270000Y-120456887D01*
X127720849Y-120566120D01*
X127255302Y-120877189D01*
X127000000Y-121259275D01*
X126744698Y-120877189D01*
X126279151Y-120566120D01*
X125730000Y-120456887D01*
X125180849Y-120566120D01*
X124715302Y-120877189D01*
X124460000Y-121259275D01*
X124204698Y-120877189D01*
X123739151Y-120566120D01*
X123190000Y-120456887D01*
X122640849Y-120566120D01*
X122175302Y-120877189D01*
X121920000Y-121259275D01*
X121664698Y-120877189D01*
X121199151Y-120566120D01*
X120650000Y-120456887D01*
X120100849Y-120566120D01*
X119635302Y-120877189D01*
X119380000Y-121259275D01*
X119124698Y-120877189D01*
X118659151Y-120566120D01*
X118110000Y-120456887D01*
X117560849Y-120566120D01*
X117095302Y-120877189D01*
X116840000Y-121259275D01*
X116584698Y-120877189D01*
X116119151Y-120566120D01*
X115570000Y-120456887D01*
X115020849Y-120566120D01*
X114555302Y-120877189D01*
X114300000Y-121259275D01*
X114044698Y-120877189D01*
X113790000Y-120707005D01*
X113790000Y-120180633D01*
X114113201Y-120314838D01*
X114485167Y-120315162D01*
X114828943Y-120173117D01*
X114862118Y-120140000D01*
X116277537Y-120140000D01*
X116309673Y-120172192D01*
X116653201Y-120314838D01*
X117025167Y-120315162D01*
X117368943Y-120173117D01*
X117632192Y-119910327D01*
X117774838Y-119566799D01*
X117775162Y-119194833D01*
X117633117Y-118851057D01*
X117527290Y-118745046D01*
X117632192Y-118640327D01*
X117774838Y-118296799D01*
X117775162Y-117924833D01*
X117633117Y-117581057D01*
X117527290Y-117475046D01*
X117632192Y-117370327D01*
X117774838Y-117026799D01*
X117775162Y-116654833D01*
X117633117Y-116311057D01*
X117370327Y-116047808D01*
X117026799Y-115905162D01*
X116979923Y-115905121D01*
X115235122Y-114160320D01*
X115235162Y-114114833D01*
X115093117Y-113771057D01*
X114830327Y-113507808D01*
X114486799Y-113365162D01*
X114114833Y-113364838D01*
X113771057Y-113506883D01*
X113507808Y-113769673D01*
X113365162Y-114113201D01*
X113364838Y-114485167D01*
X113506883Y-114828943D01*
X113769673Y-115092192D01*
X114113201Y-115234838D01*
X114160077Y-115234879D01*
X115904878Y-116979680D01*
X115904838Y-117025167D01*
X116039056Y-117350000D01*
X114300000Y-117350000D01*
X114009160Y-117407852D01*
X113762599Y-117572599D01*
X112492599Y-118842599D01*
X112327852Y-119089161D01*
X112270000Y-119380000D01*
X112270000Y-120707005D01*
X112015302Y-120877189D01*
X111760000Y-121259275D01*
X111504698Y-120877189D01*
X111039151Y-120566120D01*
X110490000Y-120456887D01*
X109940849Y-120566120D01*
X109475302Y-120877189D01*
X109220000Y-121259275D01*
X108964698Y-120877189D01*
X108499151Y-120566120D01*
X107950000Y-120456887D01*
X107400849Y-120566120D01*
X106935302Y-120877189D01*
X106624233Y-121342736D01*
X106515000Y-121891887D01*
X99745000Y-121891887D01*
X99745000Y-113215167D01*
X160354838Y-113215167D01*
X160496883Y-113558943D01*
X160759673Y-113822192D01*
X161103201Y-113964838D01*
X161475167Y-113965162D01*
X161818943Y-113823117D01*
X161924954Y-113717290D01*
X162029673Y-113822192D01*
X162373201Y-113964838D01*
X162745167Y-113965162D01*
X163088943Y-113823117D01*
X163352192Y-113560327D01*
X163494838Y-113216799D01*
X163494879Y-113169923D01*
X164341341Y-112323461D01*
X164569673Y-112552192D01*
X164913201Y-112694838D01*
X165285167Y-112695162D01*
X165628943Y-112553117D01*
X165892192Y-112290327D01*
X165917242Y-112230000D01*
X168732560Y-112230000D01*
X168732560Y-113830000D01*
X168776838Y-114065317D01*
X168915910Y-114281441D01*
X169128110Y-114426431D01*
X169380000Y-114477440D01*
X170980000Y-114477440D01*
X171215317Y-114433162D01*
X171431441Y-114294090D01*
X171576431Y-114081890D01*
X171607815Y-113926911D01*
X171705302Y-114072811D01*
X172170849Y-114383880D01*
X172720000Y-114493113D01*
X173269151Y-114383880D01*
X173734698Y-114072811D01*
X173990000Y-113690725D01*
X174245302Y-114072811D01*
X174710849Y-114383880D01*
X175260000Y-114493113D01*
X175809151Y-114383880D01*
X176274698Y-114072811D01*
X176530000Y-113690725D01*
X176785302Y-114072811D01*
X177250849Y-114383880D01*
X177800000Y-114493113D01*
X178349151Y-114383880D01*
X178814698Y-114072811D01*
X179070000Y-113690725D01*
X179325302Y-114072811D01*
X179790849Y-114383880D01*
X180340000Y-114493113D01*
X180889151Y-114383880D01*
X181354698Y-114072811D01*
X181610000Y-113690725D01*
X181865302Y-114072811D01*
X182330849Y-114383880D01*
X182880000Y-114493113D01*
X183429151Y-114383880D01*
X183894698Y-114072811D01*
X184164986Y-113668297D01*
X184267611Y-113885134D01*
X184682577Y-114261041D01*
X185070961Y-114421904D01*
X185293000Y-114299915D01*
X185293000Y-113157000D01*
X185547000Y-113157000D01*
X185547000Y-114299915D01*
X185769039Y-114421904D01*
X186157423Y-114261041D01*
X186572389Y-113885134D01*
X186811914Y-113379041D01*
X186690629Y-113157000D01*
X185547000Y-113157000D01*
X185293000Y-113157000D01*
X185273000Y-113157000D01*
X185273000Y-112903000D01*
X185293000Y-112903000D01*
X185293000Y-111760085D01*
X185547000Y-111760085D01*
X185547000Y-112903000D01*
X186690629Y-112903000D01*
X186808207Y-112687745D01*
X189671861Y-112687745D01*
X189745995Y-112933864D01*
X190283223Y-113126965D01*
X190853454Y-113099778D01*
X191254005Y-112933864D01*
X191328139Y-112687745D01*
X190500000Y-111859605D01*
X189671861Y-112687745D01*
X186808207Y-112687745D01*
X186811914Y-112680959D01*
X186572389Y-112174866D01*
X186157423Y-111798959D01*
X185769039Y-111638096D01*
X185547000Y-111760085D01*
X185293000Y-111760085D01*
X185070961Y-111638096D01*
X184682577Y-111798959D01*
X184267611Y-112174866D01*
X184164986Y-112391703D01*
X183894698Y-111987189D01*
X183429151Y-111676120D01*
X182880000Y-111566887D01*
X182330849Y-111676120D01*
X181865302Y-111987189D01*
X181610000Y-112369275D01*
X181354698Y-111987189D01*
X180889151Y-111676120D01*
X180340000Y-111566887D01*
X179790849Y-111676120D01*
X179325302Y-111987189D01*
X179070000Y-112369275D01*
X178814698Y-111987189D01*
X178349151Y-111676120D01*
X177800000Y-111566887D01*
X177250849Y-111676120D01*
X176785302Y-111987189D01*
X176530000Y-112369275D01*
X176274698Y-111987189D01*
X175809151Y-111676120D01*
X175260000Y-111566887D01*
X174710849Y-111676120D01*
X174245302Y-111987189D01*
X173990000Y-112369275D01*
X173734698Y-111987189D01*
X173269151Y-111676120D01*
X172720000Y-111566887D01*
X172170849Y-111676120D01*
X171705302Y-111987189D01*
X171608899Y-112131465D01*
X171583162Y-111994683D01*
X171444090Y-111778559D01*
X171231890Y-111633569D01*
X170980000Y-111582560D01*
X169380000Y-111582560D01*
X169144683Y-111626838D01*
X168928559Y-111765910D01*
X168783569Y-111978110D01*
X168732560Y-112230000D01*
X165917242Y-112230000D01*
X166034838Y-111946799D01*
X166034879Y-111899923D01*
X166471579Y-111463223D01*
X189053035Y-111463223D01*
X189080222Y-112033454D01*
X189246136Y-112434005D01*
X189492255Y-112508139D01*
X190320395Y-111680000D01*
X190679605Y-111680000D01*
X191507745Y-112508139D01*
X191753864Y-112434005D01*
X191946965Y-111896777D01*
X191919778Y-111326546D01*
X191753864Y-110925995D01*
X191507745Y-110851861D01*
X190679605Y-111680000D01*
X190320395Y-111680000D01*
X189492255Y-110851861D01*
X189246136Y-110925995D01*
X189053035Y-111463223D01*
X166471579Y-111463223D01*
X167262547Y-110672255D01*
X189671861Y-110672255D01*
X190500000Y-111500395D01*
X191328139Y-110672255D01*
X191254005Y-110426136D01*
X190716777Y-110233035D01*
X190146546Y-110260222D01*
X189745995Y-110426136D01*
X189671861Y-110672255D01*
X167262547Y-110672255D01*
X167779680Y-110155122D01*
X167825167Y-110155162D01*
X168168943Y-110013117D01*
X168432192Y-109750327D01*
X168574838Y-109406799D01*
X168575162Y-109034833D01*
X168433117Y-108691057D01*
X168170327Y-108427808D01*
X167826799Y-108285162D01*
X167454833Y-108284838D01*
X167111057Y-108426883D01*
X167005046Y-108532710D01*
X166900327Y-108427808D01*
X166556799Y-108285162D01*
X166184833Y-108284838D01*
X165841057Y-108426883D01*
X165735046Y-108532710D01*
X165630327Y-108427808D01*
X165286799Y-108285162D01*
X164914833Y-108284838D01*
X164571057Y-108426883D01*
X164307808Y-108689673D01*
X164165162Y-109033201D01*
X164165121Y-109080077D01*
X161150320Y-112094878D01*
X161104833Y-112094838D01*
X160761057Y-112236883D01*
X160497808Y-112499673D01*
X160355162Y-112843201D01*
X160354838Y-113215167D01*
X99745000Y-113215167D01*
X99745000Y-111945167D01*
X104474838Y-111945167D01*
X104616883Y-112288943D01*
X104879673Y-112552192D01*
X105223201Y-112694838D01*
X105595167Y-112695162D01*
X105938943Y-112553117D01*
X106202192Y-112290327D01*
X106344838Y-111946799D01*
X106345162Y-111574833D01*
X106203117Y-111231057D01*
X106170000Y-111197882D01*
X106170000Y-106651887D01*
X106515000Y-106651887D01*
X106515000Y-106708113D01*
X106624233Y-107257264D01*
X106935302Y-107722811D01*
X107190000Y-107892995D01*
X107190000Y-109927537D01*
X107157808Y-109959673D01*
X107015162Y-110303201D01*
X107014838Y-110675167D01*
X107156883Y-111018943D01*
X107419673Y-111282192D01*
X107763201Y-111424838D01*
X108135167Y-111425162D01*
X108478943Y-111283117D01*
X108742192Y-111020327D01*
X108884838Y-110676799D01*
X108885162Y-110304833D01*
X108743117Y-109961057D01*
X108710000Y-109927882D01*
X108710000Y-107892995D01*
X108964698Y-107722811D01*
X109220000Y-107340725D01*
X109475302Y-107722811D01*
X109730000Y-107892995D01*
X109730000Y-109220000D01*
X109787852Y-109510839D01*
X109952599Y-109757401D01*
X110824878Y-110629680D01*
X110824838Y-110675167D01*
X110966883Y-111018943D01*
X111229673Y-111282192D01*
X111573201Y-111424838D01*
X111945167Y-111425162D01*
X112288943Y-111283117D01*
X112552192Y-111020327D01*
X112694838Y-110676799D01*
X112695162Y-110304833D01*
X112553117Y-109961057D01*
X112290327Y-109697808D01*
X111946799Y-109555162D01*
X111899923Y-109555121D01*
X111250000Y-108905198D01*
X111250000Y-107892995D01*
X111504698Y-107722811D01*
X111760000Y-107340725D01*
X112015302Y-107722811D01*
X112270000Y-107892995D01*
X112270000Y-109220000D01*
X112327852Y-109510839D01*
X112492599Y-109757401D01*
X114634878Y-111899680D01*
X114634838Y-111945167D01*
X114776883Y-112288943D01*
X115039673Y-112552192D01*
X115383201Y-112694838D01*
X115755167Y-112695162D01*
X116098943Y-112553117D01*
X116362192Y-112290327D01*
X116504838Y-111946799D01*
X116505162Y-111574833D01*
X116363117Y-111231057D01*
X116100327Y-110967808D01*
X115756799Y-110825162D01*
X115709923Y-110825121D01*
X113790000Y-108905198D01*
X113790000Y-107892995D01*
X114044698Y-107722811D01*
X114300000Y-107340725D01*
X114555302Y-107722811D01*
X115020849Y-108033880D01*
X115570000Y-108143113D01*
X116119151Y-108033880D01*
X116584698Y-107722811D01*
X116840000Y-107340725D01*
X117095302Y-107722811D01*
X117560849Y-108033880D01*
X118110000Y-108143113D01*
X118659151Y-108033880D01*
X119124698Y-107722811D01*
X119380000Y-107340725D01*
X119635302Y-107722811D01*
X120100849Y-108033880D01*
X120650000Y-108143113D01*
X121199151Y-108033880D01*
X121664698Y-107722811D01*
X121920000Y-107340725D01*
X122175302Y-107722811D01*
X122640849Y-108033880D01*
X123190000Y-108143113D01*
X123739151Y-108033880D01*
X124204698Y-107722811D01*
X124460000Y-107340725D01*
X124715302Y-107722811D01*
X125180849Y-108033880D01*
X125730000Y-108143113D01*
X126279151Y-108033880D01*
X126744698Y-107722811D01*
X127000000Y-107340725D01*
X127255302Y-107722811D01*
X127720849Y-108033880D01*
X128270000Y-108143113D01*
X128819151Y-108033880D01*
X129284698Y-107722811D01*
X129540000Y-107340725D01*
X129795302Y-107722811D01*
X130260849Y-108033880D01*
X130810000Y-108143113D01*
X131359151Y-108033880D01*
X131824698Y-107722811D01*
X132080000Y-107340725D01*
X132335302Y-107722811D01*
X132800849Y-108033880D01*
X133350000Y-108143113D01*
X133899151Y-108033880D01*
X134364698Y-107722811D01*
X134620000Y-107340725D01*
X134875302Y-107722811D01*
X135340849Y-108033880D01*
X135890000Y-108143113D01*
X136439151Y-108033880D01*
X136904698Y-107722811D01*
X137160000Y-107340725D01*
X137415302Y-107722811D01*
X137880849Y-108033880D01*
X138430000Y-108143113D01*
X138979151Y-108033880D01*
X139444698Y-107722811D01*
X139700000Y-107340725D01*
X139955302Y-107722811D01*
X140420849Y-108033880D01*
X140970000Y-108143113D01*
X141519151Y-108033880D01*
X141984698Y-107722811D01*
X142240000Y-107340725D01*
X142495302Y-107722811D01*
X142960849Y-108033880D01*
X143510000Y-108143113D01*
X144059151Y-108033880D01*
X144524698Y-107722811D01*
X144780000Y-107340725D01*
X145035302Y-107722811D01*
X145500849Y-108033880D01*
X146050000Y-108143113D01*
X146599151Y-108033880D01*
X147064698Y-107722811D01*
X147320000Y-107340725D01*
X147575302Y-107722811D01*
X148040849Y-108033880D01*
X148590000Y-108143113D01*
X149139151Y-108033880D01*
X149604698Y-107722811D01*
X149860000Y-107340725D01*
X150115302Y-107722811D01*
X150580849Y-108033880D01*
X151130000Y-108143113D01*
X151679151Y-108033880D01*
X152144698Y-107722811D01*
X152400000Y-107340725D01*
X152655302Y-107722811D01*
X153120849Y-108033880D01*
X153670000Y-108143113D01*
X154219151Y-108033880D01*
X154684698Y-107722811D01*
X154775000Y-107587665D01*
X154775000Y-107606309D01*
X154871673Y-107839698D01*
X155050301Y-108018327D01*
X155283690Y-108115000D01*
X155924250Y-108115000D01*
X156083000Y-107956250D01*
X156083000Y-106807000D01*
X156337000Y-106807000D01*
X156337000Y-107956250D01*
X156495750Y-108115000D01*
X157136310Y-108115000D01*
X157369699Y-108018327D01*
X157548327Y-107839698D01*
X157645000Y-107606309D01*
X157645000Y-106965750D01*
X157643437Y-106964187D01*
X189064752Y-106964187D01*
X189282757Y-107491800D01*
X189686077Y-107895824D01*
X190213309Y-108114750D01*
X190784187Y-108115248D01*
X191311800Y-107897243D01*
X191715824Y-107493923D01*
X191934750Y-106966691D01*
X191935248Y-106395813D01*
X191717243Y-105868200D01*
X191313923Y-105464176D01*
X190786691Y-105245250D01*
X190215813Y-105244752D01*
X189688200Y-105462757D01*
X189284176Y-105866077D01*
X189065250Y-106393309D01*
X189064752Y-106964187D01*
X157643437Y-106964187D01*
X157486250Y-106807000D01*
X156337000Y-106807000D01*
X156083000Y-106807000D01*
X156063000Y-106807000D01*
X156063000Y-106553000D01*
X156083000Y-106553000D01*
X156083000Y-105403750D01*
X156337000Y-105403750D01*
X156337000Y-106553000D01*
X157486250Y-106553000D01*
X157645000Y-106394250D01*
X157645000Y-105753691D01*
X157548327Y-105520302D01*
X157409913Y-105381887D01*
X168745000Y-105381887D01*
X168745000Y-105438113D01*
X168854233Y-105987264D01*
X169165302Y-106452811D01*
X169630849Y-106763880D01*
X170180000Y-106873113D01*
X170729151Y-106763880D01*
X171194698Y-106452811D01*
X171450000Y-106070725D01*
X171705302Y-106452811D01*
X172170849Y-106763880D01*
X172720000Y-106873113D01*
X173269151Y-106763880D01*
X173734698Y-106452811D01*
X173990000Y-106070725D01*
X174245302Y-106452811D01*
X174710849Y-106763880D01*
X175260000Y-106873113D01*
X175809151Y-106763880D01*
X176274698Y-106452811D01*
X176530000Y-106070725D01*
X176785302Y-106452811D01*
X177250849Y-106763880D01*
X177800000Y-106873113D01*
X178349151Y-106763880D01*
X178814698Y-106452811D01*
X179070000Y-106070725D01*
X179325302Y-106452811D01*
X179790849Y-106763880D01*
X180340000Y-106873113D01*
X180889151Y-106763880D01*
X181354698Y-106452811D01*
X181610000Y-106070725D01*
X181865302Y-106452811D01*
X182330849Y-106763880D01*
X182880000Y-106873113D01*
X183429151Y-106763880D01*
X183894698Y-106452811D01*
X184150000Y-106070725D01*
X184405302Y-106452811D01*
X184870849Y-106763880D01*
X185420000Y-106873113D01*
X185969151Y-106763880D01*
X186434698Y-106452811D01*
X186745767Y-105987264D01*
X186855000Y-105438113D01*
X186855000Y-105381887D01*
X186745767Y-104832736D01*
X186434698Y-104367189D01*
X185969151Y-104056120D01*
X185420000Y-103946887D01*
X184870849Y-104056120D01*
X184405302Y-104367189D01*
X184150000Y-104749275D01*
X183894698Y-104367189D01*
X183429151Y-104056120D01*
X182880000Y-103946887D01*
X182330849Y-104056120D01*
X181865302Y-104367189D01*
X181610000Y-104749275D01*
X181354698Y-104367189D01*
X180889151Y-104056120D01*
X180340000Y-103946887D01*
X179790849Y-104056120D01*
X179325302Y-104367189D01*
X179070000Y-104749275D01*
X178814698Y-104367189D01*
X178349151Y-104056120D01*
X177800000Y-103946887D01*
X177250849Y-104056120D01*
X176785302Y-104367189D01*
X176530000Y-104749275D01*
X176274698Y-104367189D01*
X175809151Y-104056120D01*
X175260000Y-103946887D01*
X174710849Y-104056120D01*
X174245302Y-104367189D01*
X173990000Y-104749275D01*
X173734698Y-104367189D01*
X173269151Y-104056120D01*
X172720000Y-103946887D01*
X172170849Y-104056120D01*
X171705302Y-104367189D01*
X171450000Y-104749275D01*
X171194698Y-104367189D01*
X170729151Y-104056120D01*
X170180000Y-103946887D01*
X169630849Y-104056120D01*
X169165302Y-104367189D01*
X168854233Y-104832736D01*
X168745000Y-105381887D01*
X157409913Y-105381887D01*
X157369699Y-105341673D01*
X157136310Y-105245000D01*
X156495750Y-105245000D01*
X156337000Y-105403750D01*
X156083000Y-105403750D01*
X155924250Y-105245000D01*
X155283690Y-105245000D01*
X155050301Y-105341673D01*
X154871673Y-105520302D01*
X154775000Y-105753691D01*
X154775000Y-105772335D01*
X154684698Y-105637189D01*
X154219151Y-105326120D01*
X153670000Y-105216887D01*
X153120849Y-105326120D01*
X152655302Y-105637189D01*
X152400000Y-106019275D01*
X152144698Y-105637189D01*
X151679151Y-105326120D01*
X151130000Y-105216887D01*
X150580849Y-105326120D01*
X150115302Y-105637189D01*
X149860000Y-106019275D01*
X149604698Y-105637189D01*
X149139151Y-105326120D01*
X148590000Y-105216887D01*
X148040849Y-105326120D01*
X147575302Y-105637189D01*
X147320000Y-106019275D01*
X147064698Y-105637189D01*
X146599151Y-105326120D01*
X146050000Y-105216887D01*
X145500849Y-105326120D01*
X145035302Y-105637189D01*
X144780000Y-106019275D01*
X144524698Y-105637189D01*
X144059151Y-105326120D01*
X143510000Y-105216887D01*
X142960849Y-105326120D01*
X142495302Y-105637189D01*
X142240000Y-106019275D01*
X141984698Y-105637189D01*
X141730000Y-105467005D01*
X141730000Y-100892463D01*
X141762192Y-100860327D01*
X141904838Y-100516799D01*
X141905162Y-100144833D01*
X141763117Y-99801057D01*
X141500327Y-99537808D01*
X141156799Y-99395162D01*
X140784833Y-99394838D01*
X140529570Y-99500310D01*
X140634838Y-99246799D01*
X140635162Y-98874833D01*
X140493117Y-98531057D01*
X140230327Y-98267808D01*
X139886799Y-98125162D01*
X139514833Y-98124838D01*
X139259570Y-98230310D01*
X139364838Y-97976799D01*
X139365162Y-97604833D01*
X139230944Y-97280000D01*
X140655198Y-97280000D01*
X148052599Y-104677401D01*
X148299160Y-104842148D01*
X148590000Y-104900000D01*
X154377537Y-104900000D01*
X154409673Y-104932192D01*
X154753201Y-105074838D01*
X155125167Y-105075162D01*
X155468943Y-104933117D01*
X155732192Y-104670327D01*
X155874838Y-104326799D01*
X155874839Y-104325167D01*
X162894838Y-104325167D01*
X163036883Y-104668943D01*
X163299673Y-104932192D01*
X163643201Y-105074838D01*
X164015167Y-105075162D01*
X164358943Y-104933117D01*
X164392118Y-104900000D01*
X167640000Y-104900000D01*
X167930839Y-104842148D01*
X168177401Y-104677401D01*
X172859680Y-99995122D01*
X172905167Y-99995162D01*
X173248943Y-99853117D01*
X173512192Y-99590327D01*
X173654838Y-99246799D01*
X173655162Y-98874833D01*
X173513117Y-98531057D01*
X173250327Y-98267808D01*
X172906799Y-98125162D01*
X172534833Y-98124838D01*
X172191057Y-98266883D01*
X171927808Y-98529673D01*
X171785162Y-98873201D01*
X171785121Y-98920077D01*
X167325198Y-103380000D01*
X164392463Y-103380000D01*
X164360327Y-103347808D01*
X164016799Y-103205162D01*
X163644833Y-103204838D01*
X163301057Y-103346883D01*
X163037808Y-103609673D01*
X162895162Y-103953201D01*
X162894838Y-104325167D01*
X155874839Y-104325167D01*
X155875162Y-103954833D01*
X155733117Y-103611057D01*
X155470327Y-103347808D01*
X155126799Y-103205162D01*
X154754833Y-103204838D01*
X154411057Y-103346883D01*
X154377882Y-103380000D01*
X148904802Y-103380000D01*
X145343461Y-99818659D01*
X145572192Y-99590327D01*
X145714838Y-99246799D01*
X145715162Y-98874833D01*
X145573117Y-98531057D01*
X145310327Y-98267808D01*
X144966799Y-98125162D01*
X144919923Y-98125121D01*
X141507401Y-94712599D01*
X141260839Y-94547852D01*
X140970000Y-94490000D01*
X122482463Y-94490000D01*
X122450327Y-94457808D01*
X122106799Y-94315162D01*
X121734833Y-94314838D01*
X121391057Y-94456883D01*
X121127808Y-94719673D01*
X120985162Y-95063201D01*
X120984838Y-95435167D01*
X121119056Y-95760000D01*
X118110000Y-95760000D01*
X117867414Y-95808254D01*
X117819160Y-95817852D01*
X117572599Y-95982599D01*
X115430320Y-98124878D01*
X115384833Y-98124838D01*
X115041057Y-98266883D01*
X114777808Y-98529673D01*
X114635162Y-98873201D01*
X114634838Y-99245167D01*
X114776883Y-99588943D01*
X115039673Y-99852192D01*
X115383201Y-99994838D01*
X115755167Y-99995162D01*
X116098943Y-99853117D01*
X116362192Y-99590327D01*
X116504838Y-99246799D01*
X116504879Y-99199923D01*
X118424802Y-97280000D01*
X118815198Y-97280000D01*
X117572599Y-98522599D01*
X117407852Y-98769161D01*
X117350000Y-99060000D01*
X117350000Y-105467005D01*
X117095302Y-105637189D01*
X116840000Y-106019275D01*
X116584698Y-105637189D01*
X116119151Y-105326120D01*
X115570000Y-105216887D01*
X115020849Y-105326120D01*
X114555302Y-105637189D01*
X114300000Y-106019275D01*
X114044698Y-105637189D01*
X113579151Y-105326120D01*
X113030000Y-105216887D01*
X112480849Y-105326120D01*
X112015302Y-105637189D01*
X111760000Y-106019275D01*
X111504698Y-105637189D01*
X111039151Y-105326120D01*
X110490000Y-105216887D01*
X109940849Y-105326120D01*
X109475302Y-105637189D01*
X109220000Y-106019275D01*
X108964698Y-105637189D01*
X108499151Y-105326120D01*
X107950000Y-105216887D01*
X107400849Y-105326120D01*
X106935302Y-105637189D01*
X106624233Y-106102736D01*
X106515000Y-106651887D01*
X106170000Y-106651887D01*
X106170000Y-103184802D01*
X106837788Y-102517014D01*
X107136077Y-102815824D01*
X107663309Y-103034750D01*
X108234187Y-103035248D01*
X108761800Y-102817243D01*
X108971663Y-102607745D01*
X112121861Y-102607745D01*
X112195995Y-102853864D01*
X112733223Y-103046965D01*
X113303454Y-103019778D01*
X113704005Y-102853864D01*
X113778139Y-102607745D01*
X112950000Y-101779605D01*
X112121861Y-102607745D01*
X108971663Y-102607745D01*
X109165824Y-102413923D01*
X109384750Y-101886691D01*
X109385189Y-101383223D01*
X111503035Y-101383223D01*
X111530222Y-101953454D01*
X111696136Y-102354005D01*
X111942255Y-102428139D01*
X112770395Y-101600000D01*
X113129605Y-101600000D01*
X113957745Y-102428139D01*
X114203864Y-102354005D01*
X114396965Y-101816777D01*
X114369778Y-101246546D01*
X114203864Y-100845995D01*
X113957745Y-100771861D01*
X113129605Y-101600000D01*
X112770395Y-101600000D01*
X111942255Y-100771861D01*
X111696136Y-100845995D01*
X111503035Y-101383223D01*
X109385189Y-101383223D01*
X109385248Y-101315813D01*
X109167243Y-100788200D01*
X108971640Y-100592255D01*
X112121861Y-100592255D01*
X112950000Y-101420395D01*
X113778139Y-100592255D01*
X113704005Y-100346136D01*
X113166777Y-100153035D01*
X112596546Y-100180222D01*
X112195995Y-100346136D01*
X112121861Y-100592255D01*
X108971640Y-100592255D01*
X108763923Y-100384176D01*
X108236691Y-100165250D01*
X107665813Y-100164752D01*
X107138200Y-100382757D01*
X106734176Y-100786077D01*
X106711785Y-100840000D01*
X106680000Y-100840000D01*
X106389160Y-100897852D01*
X106142599Y-101062599D01*
X104872599Y-102332599D01*
X104707852Y-102579161D01*
X104650000Y-102870000D01*
X104650000Y-111197537D01*
X104617808Y-111229673D01*
X104475162Y-111573201D01*
X104474838Y-111945167D01*
X99745000Y-111945167D01*
X99745000Y-95534187D01*
X106594752Y-95534187D01*
X106812757Y-96061800D01*
X107216077Y-96465824D01*
X107743309Y-96684750D01*
X108314187Y-96685248D01*
X108841800Y-96467243D01*
X109245824Y-96063923D01*
X109464750Y-95536691D01*
X109464752Y-95534187D01*
X111594752Y-95534187D01*
X111812757Y-96061800D01*
X112216077Y-96465824D01*
X112743309Y-96684750D01*
X113314187Y-96685248D01*
X113841800Y-96467243D01*
X114245824Y-96063923D01*
X114464750Y-95536691D01*
X114465248Y-94965813D01*
X114247243Y-94438200D01*
X113843923Y-94034176D01*
X113316691Y-93815250D01*
X112745813Y-93814752D01*
X112218200Y-94032757D01*
X111814176Y-94436077D01*
X111595250Y-94963309D01*
X111594752Y-95534187D01*
X109464752Y-95534187D01*
X109465248Y-94965813D01*
X109247243Y-94438200D01*
X108843923Y-94034176D01*
X108316691Y-93815250D01*
X107745813Y-93814752D01*
X107218200Y-94032757D01*
X106814176Y-94436077D01*
X106595250Y-94963309D01*
X106594752Y-95534187D01*
X99745000Y-95534187D01*
X99745000Y-90519041D01*
X106558086Y-90519041D01*
X106797611Y-91025134D01*
X107212577Y-91401041D01*
X107600961Y-91561904D01*
X107823000Y-91439915D01*
X107823000Y-90297000D01*
X108077000Y-90297000D01*
X108077000Y-91439915D01*
X108299039Y-91561904D01*
X108687423Y-91401041D01*
X109102389Y-91025134D01*
X109220000Y-90776633D01*
X109337611Y-91025134D01*
X109752577Y-91401041D01*
X110140961Y-91561904D01*
X110363000Y-91439915D01*
X110363000Y-90297000D01*
X110617000Y-90297000D01*
X110617000Y-91439915D01*
X110839039Y-91561904D01*
X111227423Y-91401041D01*
X111642389Y-91025134D01*
X111760000Y-90776633D01*
X111877611Y-91025134D01*
X112292577Y-91401041D01*
X112680961Y-91561904D01*
X112903000Y-91439915D01*
X112903000Y-90297000D01*
X110617000Y-90297000D01*
X110363000Y-90297000D01*
X108077000Y-90297000D01*
X107823000Y-90297000D01*
X106679371Y-90297000D01*
X106558086Y-90519041D01*
X99745000Y-90519041D01*
X99745000Y-89820959D01*
X106558086Y-89820959D01*
X106679371Y-90043000D01*
X107823000Y-90043000D01*
X107823000Y-88900085D01*
X108077000Y-88900085D01*
X108077000Y-90043000D01*
X110363000Y-90043000D01*
X110363000Y-88900085D01*
X110617000Y-88900085D01*
X110617000Y-90043000D01*
X112903000Y-90043000D01*
X112903000Y-88900085D01*
X113157000Y-88900085D01*
X113157000Y-90043000D01*
X113177000Y-90043000D01*
X113177000Y-90297000D01*
X113157000Y-90297000D01*
X113157000Y-91439915D01*
X113379039Y-91561904D01*
X113767423Y-91401041D01*
X114182389Y-91025134D01*
X114285014Y-90808297D01*
X114555302Y-91212811D01*
X115020849Y-91523880D01*
X115570000Y-91633113D01*
X116119151Y-91523880D01*
X116584698Y-91212811D01*
X116840000Y-90830725D01*
X117095302Y-91212811D01*
X117560849Y-91523880D01*
X118110000Y-91633113D01*
X118659151Y-91523880D01*
X119124698Y-91212811D01*
X119380000Y-90830725D01*
X119635302Y-91212811D01*
X120100849Y-91523880D01*
X120650000Y-91633113D01*
X121199151Y-91523880D01*
X121664698Y-91212811D01*
X121920000Y-90830725D01*
X122175302Y-91212811D01*
X122640849Y-91523880D01*
X123190000Y-91633113D01*
X123739151Y-91523880D01*
X124204698Y-91212811D01*
X124460000Y-90830725D01*
X124715302Y-91212811D01*
X125180849Y-91523880D01*
X125730000Y-91633113D01*
X126279151Y-91523880D01*
X126744698Y-91212811D01*
X127000000Y-90830725D01*
X127255302Y-91212811D01*
X127720849Y-91523880D01*
X128270000Y-91633113D01*
X128819151Y-91523880D01*
X129284698Y-91212811D01*
X129540000Y-90830725D01*
X129795302Y-91212811D01*
X130260849Y-91523880D01*
X130810000Y-91633113D01*
X131359151Y-91523880D01*
X131824698Y-91212811D01*
X132080000Y-90830725D01*
X132335302Y-91212811D01*
X132800849Y-91523880D01*
X133350000Y-91633113D01*
X133899151Y-91523880D01*
X134364698Y-91212811D01*
X134620000Y-90830725D01*
X134875302Y-91212811D01*
X135340849Y-91523880D01*
X135890000Y-91633113D01*
X136439151Y-91523880D01*
X136904698Y-91212811D01*
X137160000Y-90830725D01*
X137415302Y-91212811D01*
X137880849Y-91523880D01*
X138430000Y-91633113D01*
X138979151Y-91523880D01*
X139444698Y-91212811D01*
X139700000Y-90830725D01*
X139955302Y-91212811D01*
X140420849Y-91523880D01*
X140970000Y-91633113D01*
X141519151Y-91523880D01*
X141984698Y-91212811D01*
X142295767Y-90747264D01*
X142405000Y-90198113D01*
X142405000Y-90141887D01*
X142295767Y-89592736D01*
X141984698Y-89127189D01*
X141519151Y-88816120D01*
X140970000Y-88706887D01*
X140420849Y-88816120D01*
X139955302Y-89127189D01*
X139700000Y-89509275D01*
X139444698Y-89127189D01*
X138979151Y-88816120D01*
X138430000Y-88706887D01*
X137880849Y-88816120D01*
X137415302Y-89127189D01*
X137160000Y-89509275D01*
X136904698Y-89127189D01*
X136439151Y-88816120D01*
X135890000Y-88706887D01*
X135340849Y-88816120D01*
X134875302Y-89127189D01*
X134620000Y-89509275D01*
X134364698Y-89127189D01*
X133899151Y-88816120D01*
X133350000Y-88706887D01*
X132800849Y-88816120D01*
X132335302Y-89127189D01*
X132080000Y-89509275D01*
X131824698Y-89127189D01*
X131359151Y-88816120D01*
X130810000Y-88706887D01*
X130260849Y-88816120D01*
X129795302Y-89127189D01*
X129540000Y-89509275D01*
X129284698Y-89127189D01*
X128819151Y-88816120D01*
X128270000Y-88706887D01*
X127720849Y-88816120D01*
X127255302Y-89127189D01*
X127000000Y-89509275D01*
X126744698Y-89127189D01*
X126279151Y-88816120D01*
X125730000Y-88706887D01*
X125180849Y-88816120D01*
X124715302Y-89127189D01*
X124460000Y-89509275D01*
X124204698Y-89127189D01*
X123739151Y-88816120D01*
X123190000Y-88706887D01*
X122640849Y-88816120D01*
X122175302Y-89127189D01*
X121920000Y-89509275D01*
X121664698Y-89127189D01*
X121199151Y-88816120D01*
X120650000Y-88706887D01*
X120100849Y-88816120D01*
X119635302Y-89127189D01*
X119380000Y-89509275D01*
X119124698Y-89127189D01*
X118659151Y-88816120D01*
X118110000Y-88706887D01*
X117560849Y-88816120D01*
X117095302Y-89127189D01*
X116840000Y-89509275D01*
X116584698Y-89127189D01*
X116119151Y-88816120D01*
X115570000Y-88706887D01*
X115020849Y-88816120D01*
X114555302Y-89127189D01*
X114285014Y-89531703D01*
X114182389Y-89314866D01*
X113767423Y-88938959D01*
X113379039Y-88778096D01*
X113157000Y-88900085D01*
X112903000Y-88900085D01*
X112680961Y-88778096D01*
X112292577Y-88938959D01*
X111877611Y-89314866D01*
X111760000Y-89563367D01*
X111642389Y-89314866D01*
X111227423Y-88938959D01*
X110839039Y-88778096D01*
X110617000Y-88900085D01*
X110363000Y-88900085D01*
X110140961Y-88778096D01*
X109752577Y-88938959D01*
X109337611Y-89314866D01*
X109220000Y-89563367D01*
X109102389Y-89314866D01*
X108687423Y-88938959D01*
X108299039Y-88778096D01*
X108077000Y-88900085D01*
X107823000Y-88900085D01*
X107600961Y-88778096D01*
X107212577Y-88938959D01*
X106797611Y-89314866D01*
X106558086Y-89820959D01*
X99745000Y-89820959D01*
X99745000Y-82521887D01*
X106515000Y-82521887D01*
X106515000Y-82578113D01*
X106624233Y-83127264D01*
X106935302Y-83592811D01*
X107400849Y-83903880D01*
X107950000Y-84013113D01*
X108499151Y-83903880D01*
X108964698Y-83592811D01*
X109220000Y-83210725D01*
X109475302Y-83592811D01*
X109940849Y-83903880D01*
X110490000Y-84013113D01*
X111039151Y-83903880D01*
X111504698Y-83592811D01*
X111760000Y-83210725D01*
X112015302Y-83592811D01*
X112480849Y-83903880D01*
X113030000Y-84013113D01*
X113579151Y-83903880D01*
X114044698Y-83592811D01*
X114300000Y-83210725D01*
X114555302Y-83592811D01*
X115020849Y-83903880D01*
X115570000Y-84013113D01*
X116119151Y-83903880D01*
X116584698Y-83592811D01*
X116854986Y-83188297D01*
X116957611Y-83405134D01*
X117372577Y-83781041D01*
X117760961Y-83941904D01*
X117983000Y-83819915D01*
X117983000Y-82677000D01*
X117963000Y-82677000D01*
X117963000Y-82423000D01*
X117983000Y-82423000D01*
X117983000Y-81280085D01*
X117938929Y-81255873D01*
X118424802Y-80770000D01*
X141925198Y-80770000D01*
X144215198Y-83060000D01*
X142417440Y-83060000D01*
X142417440Y-81750000D01*
X142373162Y-81514683D01*
X142234090Y-81298559D01*
X142021890Y-81153569D01*
X141770000Y-81102560D01*
X140170000Y-81102560D01*
X139934683Y-81146838D01*
X139718559Y-81285910D01*
X139573569Y-81498110D01*
X139542185Y-81653089D01*
X139444698Y-81507189D01*
X138979151Y-81196120D01*
X138430000Y-81086887D01*
X137880849Y-81196120D01*
X137415302Y-81507189D01*
X137160000Y-81889275D01*
X136904698Y-81507189D01*
X136439151Y-81196120D01*
X135890000Y-81086887D01*
X135340849Y-81196120D01*
X134875302Y-81507189D01*
X134620000Y-81889275D01*
X134364698Y-81507189D01*
X133899151Y-81196120D01*
X133350000Y-81086887D01*
X132800849Y-81196120D01*
X132335302Y-81507189D01*
X132080000Y-81889275D01*
X131824698Y-81507189D01*
X131359151Y-81196120D01*
X130810000Y-81086887D01*
X130260849Y-81196120D01*
X129795302Y-81507189D01*
X129540000Y-81889275D01*
X129284698Y-81507189D01*
X128819151Y-81196120D01*
X128270000Y-81086887D01*
X127720849Y-81196120D01*
X127255302Y-81507189D01*
X127000000Y-81889275D01*
X126744698Y-81507189D01*
X126279151Y-81196120D01*
X125730000Y-81086887D01*
X125180849Y-81196120D01*
X124715302Y-81507189D01*
X124460000Y-81889275D01*
X124204698Y-81507189D01*
X123739151Y-81196120D01*
X123190000Y-81086887D01*
X122640849Y-81196120D01*
X122175302Y-81507189D01*
X121920000Y-81889275D01*
X121664698Y-81507189D01*
X121199151Y-81196120D01*
X120650000Y-81086887D01*
X120100849Y-81196120D01*
X119635302Y-81507189D01*
X119365014Y-81911703D01*
X119262389Y-81694866D01*
X118847423Y-81318959D01*
X118459039Y-81158096D01*
X118237000Y-81280085D01*
X118237000Y-82423000D01*
X118257000Y-82423000D01*
X118257000Y-82677000D01*
X118237000Y-82677000D01*
X118237000Y-83819915D01*
X118459039Y-83941904D01*
X118847423Y-83781041D01*
X119262389Y-83405134D01*
X119365014Y-83188297D01*
X119635302Y-83592811D01*
X120100849Y-83903880D01*
X120650000Y-84013113D01*
X121199151Y-83903880D01*
X121664698Y-83592811D01*
X121920000Y-83210725D01*
X122175302Y-83592811D01*
X122640849Y-83903880D01*
X123190000Y-84013113D01*
X123513886Y-83948688D01*
X126462599Y-86897401D01*
X126709161Y-87062148D01*
X127000000Y-87120000D01*
X148275198Y-87120000D01*
X149100000Y-87944802D01*
X149100000Y-89855198D01*
X147180320Y-91774878D01*
X147134833Y-91774838D01*
X146791057Y-91916883D01*
X146527808Y-92179673D01*
X146385162Y-92523201D01*
X146384838Y-92895167D01*
X146526883Y-93238943D01*
X146632710Y-93344954D01*
X146527808Y-93449673D01*
X146385162Y-93793201D01*
X146384838Y-94165167D01*
X146526883Y-94508943D01*
X146632710Y-94614954D01*
X146527808Y-94719673D01*
X146385162Y-95063201D01*
X146384838Y-95435167D01*
X146526883Y-95778943D01*
X146632710Y-95884954D01*
X146527808Y-95989673D01*
X146385162Y-96333201D01*
X146384838Y-96705167D01*
X146526883Y-97048943D01*
X146789673Y-97312192D01*
X147133201Y-97454838D01*
X147505167Y-97455162D01*
X147848943Y-97313117D01*
X148112192Y-97050327D01*
X148254838Y-96706799D01*
X148254839Y-96705167D01*
X169244838Y-96705167D01*
X169386883Y-97048943D01*
X169649673Y-97312192D01*
X169993201Y-97454838D01*
X170365167Y-97455162D01*
X170708943Y-97313117D01*
X170742118Y-97280000D01*
X189937537Y-97280000D01*
X189969673Y-97312192D01*
X190313201Y-97454838D01*
X190685167Y-97455162D01*
X191028943Y-97313117D01*
X191292192Y-97050327D01*
X191434838Y-96706799D01*
X191435162Y-96334833D01*
X191293117Y-95991057D01*
X191030327Y-95727808D01*
X190686799Y-95585162D01*
X190314833Y-95584838D01*
X189971057Y-95726883D01*
X189937882Y-95760000D01*
X170742463Y-95760000D01*
X170710327Y-95727808D01*
X170366799Y-95585162D01*
X169994833Y-95584838D01*
X169651057Y-95726883D01*
X169387808Y-95989673D01*
X169245162Y-96333201D01*
X169244838Y-96705167D01*
X148254839Y-96705167D01*
X148254879Y-96659923D01*
X160159680Y-84755122D01*
X160205167Y-84755162D01*
X160548943Y-84613117D01*
X160778829Y-84383631D01*
X161624878Y-85229680D01*
X161624838Y-85275167D01*
X161766883Y-85618943D01*
X162029673Y-85882192D01*
X162373201Y-86024838D01*
X162745167Y-86025162D01*
X163088943Y-85883117D01*
X163194954Y-85777290D01*
X163299673Y-85882192D01*
X163643201Y-86024838D01*
X164015167Y-86025162D01*
X164358943Y-85883117D01*
X164464954Y-85777290D01*
X164569673Y-85882192D01*
X164913201Y-86024838D01*
X165285167Y-86025162D01*
X165628943Y-85883117D01*
X165892192Y-85620327D01*
X166034838Y-85276799D01*
X166035162Y-84904833D01*
X165893117Y-84561057D01*
X165630327Y-84297808D01*
X165286799Y-84155162D01*
X165239923Y-84155121D01*
X161287397Y-80202595D01*
X161290000Y-80203113D01*
X161839151Y-80093880D01*
X162304698Y-79782811D01*
X162574986Y-79378297D01*
X162677611Y-79595134D01*
X163092577Y-79971041D01*
X163480961Y-80131904D01*
X163703000Y-80009915D01*
X163703000Y-78867000D01*
X163683000Y-78867000D01*
X163683000Y-78613000D01*
X163703000Y-78613000D01*
X163703000Y-77470085D01*
X163480961Y-77348096D01*
X163092577Y-77508959D01*
X162677611Y-77884866D01*
X162574986Y-78101703D01*
X162304698Y-77697189D01*
X161839151Y-77386120D01*
X161290000Y-77276887D01*
X160740849Y-77386120D01*
X160275302Y-77697189D01*
X159964233Y-78162736D01*
X159855000Y-78711887D01*
X159855000Y-78768113D01*
X159950853Y-79250000D01*
X145094802Y-79250000D01*
X144270000Y-78425198D01*
X144270000Y-76133667D01*
X144552811Y-75944698D01*
X144863880Y-75479151D01*
X144973113Y-74930000D01*
X144863880Y-74380849D01*
X144552811Y-73915302D01*
X144087264Y-73604233D01*
X143538113Y-73495000D01*
X143481887Y-73495000D01*
X142932736Y-73604233D01*
X142467189Y-73915302D01*
X142156120Y-74380849D01*
X142046887Y-74930000D01*
X142156120Y-75479151D01*
X142467189Y-75944698D01*
X142750000Y-76133667D01*
X142750000Y-78184290D01*
X142530839Y-78037852D01*
X142240000Y-77980000D01*
X131124802Y-77980000D01*
X130300000Y-77155198D01*
X130300000Y-76133667D01*
X130582811Y-75944698D01*
X130893880Y-75479151D01*
X130946584Y-75214187D01*
X131914752Y-75214187D01*
X132132757Y-75741800D01*
X132536077Y-76145824D01*
X133063309Y-76364750D01*
X133634187Y-76365248D01*
X134161800Y-76147243D01*
X134565824Y-75743923D01*
X134784750Y-75216691D01*
X134785248Y-74645813D01*
X134567243Y-74118200D01*
X134163923Y-73714176D01*
X133636691Y-73495250D01*
X133065813Y-73494752D01*
X132538200Y-73712757D01*
X132134176Y-74116077D01*
X131915250Y-74643309D01*
X131914752Y-75214187D01*
X130946584Y-75214187D01*
X131003113Y-74930000D01*
X130893880Y-74380849D01*
X130582811Y-73915302D01*
X130117264Y-73604233D01*
X129568113Y-73495000D01*
X129511887Y-73495000D01*
X128962736Y-73604233D01*
X128497189Y-73915302D01*
X128186120Y-74380849D01*
X128076887Y-74930000D01*
X128186120Y-75479151D01*
X128497189Y-75944698D01*
X128780000Y-76133667D01*
X128780000Y-77470000D01*
X128837852Y-77760839D01*
X129002599Y-78007401D01*
X130245198Y-79250000D01*
X118110000Y-79250000D01*
X117867414Y-79298254D01*
X117819160Y-79307852D01*
X117603837Y-79451726D01*
X117527290Y-79375046D01*
X117632192Y-79270327D01*
X117774838Y-78926799D01*
X117775162Y-78554833D01*
X117633117Y-78211057D01*
X117527290Y-78105046D01*
X117632192Y-78000327D01*
X117774838Y-77656799D01*
X117775162Y-77284833D01*
X117633117Y-76941057D01*
X117370327Y-76677808D01*
X117026799Y-76535162D01*
X116654833Y-76534838D01*
X116311057Y-76676883D01*
X116277882Y-76710000D01*
X114862463Y-76710000D01*
X114830327Y-76677808D01*
X114486799Y-76535162D01*
X114114833Y-76534838D01*
X113771057Y-76676883D01*
X113507808Y-76939673D01*
X113365162Y-77283201D01*
X113364838Y-77655167D01*
X113506883Y-77998943D01*
X113612710Y-78104954D01*
X113507808Y-78209673D01*
X113365162Y-78553201D01*
X113364838Y-78925167D01*
X113506883Y-79268943D01*
X113612710Y-79374954D01*
X113507808Y-79479673D01*
X113365162Y-79823201D01*
X113364838Y-80195167D01*
X113506883Y-80538943D01*
X113769673Y-80802192D01*
X114113201Y-80944838D01*
X114485167Y-80945162D01*
X114828943Y-80803117D01*
X114862118Y-80770000D01*
X116275198Y-80770000D01*
X115893886Y-81151312D01*
X115570000Y-81086887D01*
X115020849Y-81196120D01*
X114555302Y-81507189D01*
X114300000Y-81889275D01*
X114044698Y-81507189D01*
X113579151Y-81196120D01*
X113030000Y-81086887D01*
X112480849Y-81196120D01*
X112015302Y-81507189D01*
X111760000Y-81889275D01*
X111504698Y-81507189D01*
X111039151Y-81196120D01*
X110490000Y-81086887D01*
X109940849Y-81196120D01*
X109475302Y-81507189D01*
X109220000Y-81889275D01*
X108964698Y-81507189D01*
X108499151Y-81196120D01*
X107950000Y-81086887D01*
X107400849Y-81196120D01*
X106935302Y-81507189D01*
X106624233Y-81972736D01*
X106515000Y-82521887D01*
X99745000Y-82521887D01*
X99745000Y-75214187D01*
X103974752Y-75214187D01*
X104192757Y-75741800D01*
X104596077Y-76145824D01*
X105123309Y-76364750D01*
X105694187Y-76365248D01*
X106221800Y-76147243D01*
X106625824Y-75743923D01*
X106844750Y-75216691D01*
X106845000Y-74930000D01*
X114106887Y-74930000D01*
X114216120Y-75479151D01*
X114527189Y-75944698D01*
X114992736Y-76255767D01*
X115541887Y-76365000D01*
X115598113Y-76365000D01*
X116147264Y-76255767D01*
X116612811Y-75944698D01*
X116923880Y-75479151D01*
X116976584Y-75214187D01*
X117944752Y-75214187D01*
X118162757Y-75741800D01*
X118566077Y-76145824D01*
X119093309Y-76364750D01*
X119664187Y-76365248D01*
X120191800Y-76147243D01*
X120595824Y-75743923D01*
X120814750Y-75216691D01*
X120815248Y-74645813D01*
X120597243Y-74118200D01*
X120193923Y-73714176D01*
X119666691Y-73495250D01*
X119095813Y-73494752D01*
X118568200Y-73712757D01*
X118164176Y-74116077D01*
X117945250Y-74643309D01*
X117944752Y-75214187D01*
X116976584Y-75214187D01*
X117033113Y-74930000D01*
X116923880Y-74380849D01*
X116612811Y-73915302D01*
X116147264Y-73604233D01*
X115598113Y-73495000D01*
X115541887Y-73495000D01*
X114992736Y-73604233D01*
X114527189Y-73915302D01*
X114216120Y-74380849D01*
X114106887Y-74930000D01*
X106845000Y-74930000D01*
X106845248Y-74645813D01*
X106627243Y-74118200D01*
X106223923Y-73714176D01*
X105696691Y-73495250D01*
X105125813Y-73494752D01*
X104598200Y-73712757D01*
X104194176Y-74116077D01*
X103975250Y-74643309D01*
X103974752Y-75214187D01*
X99745000Y-75214187D01*
X99745000Y-72517000D01*
X181461658Y-72517000D01*
X181433569Y-72558110D01*
X181433569Y-72558110D01*
G37*
X181433569Y-72558110D02*
X181382560Y-72810000D01*
X181382560Y-74510000D01*
X181426838Y-74745317D01*
X181565910Y-74961441D01*
X181778110Y-75106431D01*
X182030000Y-75157440D01*
X183730000Y-75157440D01*
X183965317Y-75113162D01*
X184181441Y-74974090D01*
X184326431Y-74761890D01*
X184377440Y-74510000D01*
X184377440Y-74085461D01*
X187584092Y-74085461D01*
X187608144Y-74735460D01*
X187810613Y-75224264D01*
X188077468Y-75322927D01*
X189050395Y-74350000D01*
X189409605Y-74350000D01*
X190382532Y-75322927D01*
X190649387Y-75224264D01*
X190875908Y-74614539D01*
X190856331Y-74085461D01*
X194084092Y-74085461D01*
X194108144Y-74735460D01*
X194310613Y-75224264D01*
X194577468Y-75322927D01*
X195550395Y-74350000D01*
X195909605Y-74350000D01*
X196882532Y-75322927D01*
X197149387Y-75224264D01*
X197375908Y-74614539D01*
X197351856Y-73964540D01*
X197149387Y-73475736D01*
X196882532Y-73377073D01*
X195909605Y-74350000D01*
X195550395Y-74350000D01*
X194577468Y-73377073D01*
X194310613Y-73475736D01*
X194084092Y-74085461D01*
X190856331Y-74085461D01*
X190851856Y-73964540D01*
X190649387Y-73475736D01*
X190382532Y-73377073D01*
X189409605Y-74350000D01*
X189050395Y-74350000D01*
X188077468Y-73377073D01*
X187810613Y-73475736D01*
X187584092Y-74085461D01*
X184377440Y-74085461D01*
X184377440Y-73197468D01*
X188257073Y-73197468D01*
X189230000Y-74170395D01*
X190202927Y-73197468D01*
X194757073Y-73197468D01*
X195730000Y-74170395D01*
X196702927Y-73197468D01*
X196604264Y-72930613D01*
X195994539Y-72704092D01*
X195344540Y-72728144D01*
X194855736Y-72930613D01*
X194757073Y-73197468D01*
X190202927Y-73197468D01*
X190104264Y-72930613D01*
X189494539Y-72704092D01*
X188844540Y-72728144D01*
X188355736Y-72930613D01*
X188257073Y-73197468D01*
X184377440Y-73197468D01*
X184377440Y-72810000D01*
X184333162Y-72574683D01*
X184296044Y-72517000D01*
X197435000Y-72517000D01*
X197435000Y-77410074D01*
X197399151Y-77386120D01*
X196850000Y-77276887D01*
X196300849Y-77386120D01*
X195835302Y-77697189D01*
X195580000Y-78079275D01*
X195324698Y-77697189D01*
X194859151Y-77386120D01*
X194310000Y-77276887D01*
X193760849Y-77386120D01*
X193295302Y-77697189D01*
X193040000Y-78079275D01*
X192784698Y-77697189D01*
X192319151Y-77386120D01*
X191770000Y-77276887D01*
X191220849Y-77386120D01*
X190755302Y-77697189D01*
X190500000Y-78079275D01*
X190244698Y-77697189D01*
X189779151Y-77386120D01*
X189230000Y-77276887D01*
X188680849Y-77386120D01*
X188215302Y-77697189D01*
X187960000Y-78079275D01*
X187704698Y-77697189D01*
X187239151Y-77386120D01*
X186690000Y-77276887D01*
X186140849Y-77386120D01*
X185675302Y-77697189D01*
X185420000Y-78079275D01*
X185164698Y-77697189D01*
X184699151Y-77386120D01*
X184150000Y-77276887D01*
X183600849Y-77386120D01*
X183135302Y-77697189D01*
X182880000Y-78079275D01*
X182624698Y-77697189D01*
X182159151Y-77386120D01*
X181610000Y-77276887D01*
X181060849Y-77386120D01*
X180595302Y-77697189D01*
X180340000Y-78079275D01*
X180084698Y-77697189D01*
X179619151Y-77386120D01*
X179070000Y-77276887D01*
X178520849Y-77386120D01*
X178055302Y-77697189D01*
X177800000Y-78079275D01*
X177544698Y-77697189D01*
X177079151Y-77386120D01*
X176530000Y-77276887D01*
X175980849Y-77386120D01*
X175515302Y-77697189D01*
X175260000Y-78079275D01*
X175004698Y-77697189D01*
X174539151Y-77386120D01*
X173990000Y-77276887D01*
X173440849Y-77386120D01*
X172975302Y-77697189D01*
X172720000Y-78079275D01*
X172464698Y-77697189D01*
X171999151Y-77386120D01*
X171450000Y-77276887D01*
X170900849Y-77386120D01*
X170435302Y-77697189D01*
X170180000Y-78079275D01*
X169924698Y-77697189D01*
X169824538Y-77630264D01*
X171589680Y-75865122D01*
X171635167Y-75865162D01*
X171978943Y-75723117D01*
X172199913Y-75502532D01*
X188257073Y-75502532D01*
X188355736Y-75769387D01*
X188965461Y-75995908D01*
X189615460Y-75971856D01*
X190104264Y-75769387D01*
X190202927Y-75502532D01*
X194757073Y-75502532D01*
X194855736Y-75769387D01*
X195465461Y-75995908D01*
X196115460Y-75971856D01*
X196604264Y-75769387D01*
X196702927Y-75502532D01*
X195730000Y-74529605D01*
X194757073Y-75502532D01*
X190202927Y-75502532D01*
X189230000Y-74529605D01*
X188257073Y-75502532D01*
X172199913Y-75502532D01*
X172242192Y-75460327D01*
X172384838Y-75116799D01*
X172385162Y-74744833D01*
X172243117Y-74401057D01*
X171980327Y-74137808D01*
X171636799Y-73995162D01*
X171264833Y-73994838D01*
X170921057Y-74136883D01*
X170657808Y-74399673D01*
X170515162Y-74743201D01*
X170515121Y-74790077D01*
X168372599Y-76932599D01*
X168207852Y-77179161D01*
X168150000Y-77470000D01*
X168150000Y-77527005D01*
X167895302Y-77697189D01*
X167640000Y-78079275D01*
X167384698Y-77697189D01*
X166919151Y-77386120D01*
X166370000Y-77276887D01*
X165820849Y-77386120D01*
X165355302Y-77697189D01*
X165085014Y-78101703D01*
X164982389Y-77884866D01*
X164567423Y-77508959D01*
X164179039Y-77348096D01*
X163957000Y-77470085D01*
X163957000Y-78613000D01*
X163977000Y-78613000D01*
X163977000Y-78867000D01*
X163957000Y-78867000D01*
X163957000Y-80009915D01*
X164179039Y-80131904D01*
X164567423Y-79971041D01*
X164982389Y-79595134D01*
X165085014Y-79378297D01*
X165355302Y-79782811D01*
X165820849Y-80093880D01*
X166370000Y-80203113D01*
X166919151Y-80093880D01*
X167384698Y-79782811D01*
X167640000Y-79400725D01*
X167895302Y-79782811D01*
X168360849Y-80093880D01*
X168910000Y-80203113D01*
X169459151Y-80093880D01*
X169924698Y-79782811D01*
X170180000Y-79400725D01*
X170435302Y-79782811D01*
X170900849Y-80093880D01*
X171450000Y-80203113D01*
X171999151Y-80093880D01*
X172464698Y-79782811D01*
X172720000Y-79400725D01*
X172975302Y-79782811D01*
X173440849Y-80093880D01*
X173990000Y-80203113D01*
X174539151Y-80093880D01*
X175004698Y-79782811D01*
X175260000Y-79400725D01*
X175515302Y-79782811D01*
X175980849Y-80093880D01*
X176530000Y-80203113D01*
X177079151Y-80093880D01*
X177544698Y-79782811D01*
X177800000Y-79400725D01*
X178055302Y-79782811D01*
X178520849Y-80093880D01*
X179070000Y-80203113D01*
X179619151Y-80093880D01*
X180084698Y-79782811D01*
X180340000Y-79400725D01*
X180595302Y-79782811D01*
X181060849Y-80093880D01*
X181610000Y-80203113D01*
X182159151Y-80093880D01*
X182624698Y-79782811D01*
X182880000Y-79400725D01*
X183135302Y-79782811D01*
X183600849Y-80093880D01*
X184150000Y-80203113D01*
X184699151Y-80093880D01*
X185164698Y-79782811D01*
X185420000Y-79400725D01*
X185675302Y-79782811D01*
X186140849Y-80093880D01*
X186690000Y-80203113D01*
X187239151Y-80093880D01*
X187704698Y-79782811D01*
X187960000Y-79400725D01*
X188215302Y-79782811D01*
X188680849Y-80093880D01*
X189230000Y-80203113D01*
X189779151Y-80093880D01*
X190244698Y-79782811D01*
X190500000Y-79400725D01*
X190755302Y-79782811D01*
X191220849Y-80093880D01*
X191770000Y-80203113D01*
X192319151Y-80093880D01*
X192784698Y-79782811D01*
X193040000Y-79400725D01*
X193295302Y-79782811D01*
X193760849Y-80093880D01*
X194310000Y-80203113D01*
X194859151Y-80093880D01*
X195324698Y-79782811D01*
X195580000Y-79400725D01*
X195835302Y-79782811D01*
X196300849Y-80093880D01*
X196850000Y-80203113D01*
X197399151Y-80093880D01*
X197435000Y-80069926D01*
X197435000Y-89703836D01*
X197387401Y-89632599D01*
X196515122Y-88760320D01*
X196515162Y-88714833D01*
X196373117Y-88371057D01*
X196110327Y-88107808D01*
X195766799Y-87965162D01*
X195394833Y-87964838D01*
X195051057Y-88106883D01*
X194787808Y-88369673D01*
X194645162Y-88713201D01*
X194644838Y-89085167D01*
X194786883Y-89428943D01*
X195049673Y-89692192D01*
X195393201Y-89834838D01*
X195440077Y-89834879D01*
X196090000Y-90484802D01*
X196090000Y-92767005D01*
X195835302Y-92937189D01*
X195580000Y-93319275D01*
X195324698Y-92937189D01*
X195070000Y-92767005D01*
X195070000Y-91440000D01*
X195012148Y-91149161D01*
X195012148Y-91149160D01*
X194847401Y-90902599D01*
X193975122Y-90030320D01*
X193975162Y-89984833D01*
X193833117Y-89641057D01*
X193570327Y-89377808D01*
X193226799Y-89235162D01*
X192854833Y-89234838D01*
X192530000Y-89369056D01*
X192530000Y-88900000D01*
X192472148Y-88609161D01*
X192472148Y-88609160D01*
X192307401Y-88362599D01*
X191435122Y-87490320D01*
X191435162Y-87444833D01*
X191293117Y-87101057D01*
X191030327Y-86837808D01*
X190686799Y-86695162D01*
X190314833Y-86694838D01*
X189971057Y-86836883D01*
X189707808Y-87099673D01*
X189565162Y-87443201D01*
X189564838Y-87815167D01*
X189706883Y-88158943D01*
X189969673Y-88422192D01*
X190313201Y-88564838D01*
X190360077Y-88564879D01*
X191010000Y-89214802D01*
X191010000Y-92767005D01*
X190755302Y-92937189D01*
X190500000Y-93319275D01*
X190244698Y-92937189D01*
X189990000Y-92767005D01*
X189990000Y-88900000D01*
X189932148Y-88609161D01*
X189932148Y-88609160D01*
X189767401Y-88362599D01*
X187625122Y-86220320D01*
X187625162Y-86174833D01*
X187483117Y-85831057D01*
X187220327Y-85567808D01*
X186876799Y-85425162D01*
X186504833Y-85424838D01*
X186161057Y-85566883D01*
X185931171Y-85796369D01*
X185085122Y-84950320D01*
X185085162Y-84904833D01*
X184943117Y-84561057D01*
X184680327Y-84297808D01*
X184336799Y-84155162D01*
X183964833Y-84154838D01*
X183621057Y-84296883D01*
X183357808Y-84559673D01*
X183215162Y-84903201D01*
X183214838Y-85275167D01*
X183356883Y-85618943D01*
X183619673Y-85882192D01*
X183963201Y-86024838D01*
X184010077Y-86024879D01*
X185930000Y-87944802D01*
X185930000Y-92767005D01*
X185675302Y-92937189D01*
X185420000Y-93319275D01*
X185164698Y-92937189D01*
X184699151Y-92626120D01*
X184150000Y-92516887D01*
X183600849Y-92626120D01*
X183135302Y-92937189D01*
X182880000Y-93319275D01*
X182624698Y-92937189D01*
X182159151Y-92626120D01*
X181610000Y-92516887D01*
X181060849Y-92626120D01*
X180595302Y-92937189D01*
X180340000Y-93319275D01*
X180084698Y-92937189D01*
X179619151Y-92626120D01*
X179070000Y-92516887D01*
X178520849Y-92626120D01*
X178055302Y-92937189D01*
X177800000Y-93319275D01*
X177544698Y-92937189D01*
X177079151Y-92626120D01*
X176530000Y-92516887D01*
X175980849Y-92626120D01*
X175515302Y-92937189D01*
X175260000Y-93319275D01*
X175004698Y-92937189D01*
X174539151Y-92626120D01*
X173990000Y-92516887D01*
X173440849Y-92626120D01*
X172975302Y-92937189D01*
X172720000Y-93319275D01*
X172464698Y-92937189D01*
X171999151Y-92626120D01*
X171450000Y-92516887D01*
X170900849Y-92626120D01*
X170435302Y-92937189D01*
X170180000Y-93319275D01*
X169924698Y-92937189D01*
X169459151Y-92626120D01*
X168910000Y-92516887D01*
X168360849Y-92626120D01*
X167895302Y-92937189D01*
X167640000Y-93319275D01*
X167384698Y-92937189D01*
X166919151Y-92626120D01*
X166370000Y-92516887D01*
X165820849Y-92626120D01*
X165355302Y-92937189D01*
X165100000Y-93319275D01*
X164844698Y-92937189D01*
X164379151Y-92626120D01*
X163830000Y-92516887D01*
X163280849Y-92626120D01*
X162815302Y-92937189D01*
X162718899Y-93081465D01*
X162693162Y-92944683D01*
X162554090Y-92728559D01*
X162341890Y-92583569D01*
X162090000Y-92532560D01*
X160490000Y-92532560D01*
X160254683Y-92576838D01*
X160038559Y-92715910D01*
X159893569Y-92928110D01*
X159842560Y-93180000D01*
X159842560Y-94780000D01*
X159886838Y-95015317D01*
X160025910Y-95231441D01*
X160238110Y-95376431D01*
X160490000Y-95427440D01*
X162090000Y-95427440D01*
X162325317Y-95383162D01*
X162541441Y-95244090D01*
X162686431Y-95031890D01*
X162717815Y-94876911D01*
X162815302Y-95022811D01*
X163280849Y-95333880D01*
X163830000Y-95443113D01*
X164379151Y-95333880D01*
X164844698Y-95022811D01*
X165100000Y-94640725D01*
X165355302Y-95022811D01*
X165820849Y-95333880D01*
X166370000Y-95443113D01*
X166919151Y-95333880D01*
X167384698Y-95022811D01*
X167640000Y-94640725D01*
X167895302Y-95022811D01*
X168360849Y-95333880D01*
X168910000Y-95443113D01*
X169459151Y-95333880D01*
X169924698Y-95022811D01*
X170180000Y-94640725D01*
X170435302Y-95022811D01*
X170900849Y-95333880D01*
X171450000Y-95443113D01*
X171999151Y-95333880D01*
X172464698Y-95022811D01*
X172720000Y-94640725D01*
X172975302Y-95022811D01*
X173440849Y-95333880D01*
X173990000Y-95443113D01*
X174539151Y-95333880D01*
X175004698Y-95022811D01*
X175260000Y-94640725D01*
X175515302Y-95022811D01*
X175980849Y-95333880D01*
X176530000Y-95443113D01*
X177079151Y-95333880D01*
X177544698Y-95022811D01*
X177800000Y-94640725D01*
X178055302Y-95022811D01*
X178520849Y-95333880D01*
X179070000Y-95443113D01*
X179619151Y-95333880D01*
X180084698Y-95022811D01*
X180340000Y-94640725D01*
X180595302Y-95022811D01*
X181060849Y-95333880D01*
X181610000Y-95443113D01*
X182159151Y-95333880D01*
X182624698Y-95022811D01*
X182880000Y-94640725D01*
X183135302Y-95022811D01*
X183600849Y-95333880D01*
X184150000Y-95443113D01*
X184699151Y-95333880D01*
X185164698Y-95022811D01*
X185420000Y-94640725D01*
X185675302Y-95022811D01*
X186140849Y-95333880D01*
X186690000Y-95443113D01*
X187239151Y-95333880D01*
X187704698Y-95022811D01*
X187960000Y-94640725D01*
X188215302Y-95022811D01*
X188680849Y-95333880D01*
X189230000Y-95443113D01*
X189779151Y-95333880D01*
X190244698Y-95022811D01*
X190500000Y-94640725D01*
X190755302Y-95022811D01*
X191220849Y-95333880D01*
X191770000Y-95443113D01*
X192319151Y-95333880D01*
X192784698Y-95022811D01*
X193040000Y-94640725D01*
X193295302Y-95022811D01*
X193760849Y-95333880D01*
X194310000Y-95443113D01*
X194859151Y-95333880D01*
X195324698Y-95022811D01*
X195580000Y-94640725D01*
X195835302Y-95022811D01*
X196300849Y-95333880D01*
X196850000Y-95443113D01*
X197399151Y-95333880D01*
X197435000Y-95309926D01*
X197435000Y-98955577D01*
X196879093Y-98845000D01*
X196820907Y-98845000D01*
X196252622Y-98958039D01*
X195770853Y-99279946D01*
X195448946Y-99761715D01*
X195335907Y-100330000D01*
X195448946Y-100898285D01*
X195770853Y-101380054D01*
X196100026Y-101600000D01*
X195770853Y-101819946D01*
X195448946Y-102301715D01*
X195335907Y-102870000D01*
X195448946Y-103438285D01*
X195770853Y-103920054D01*
X196100026Y-104140000D01*
X195770853Y-104359946D01*
X195448946Y-104841715D01*
X195335907Y-105410000D01*
X195448946Y-105978285D01*
X195770853Y-106460054D01*
X196100026Y-106680000D01*
X195770853Y-106899946D01*
X195448946Y-107381715D01*
X195335907Y-107950000D01*
X195448946Y-108518285D01*
X195770853Y-109000054D01*
X195812452Y-109027850D01*
X195764683Y-109036838D01*
X195548559Y-109175910D01*
X195403569Y-109388110D01*
X195352560Y-109640000D01*
X195352560Y-111340000D01*
X195396838Y-111575317D01*
X195535910Y-111791441D01*
X195748110Y-111936431D01*
X196000000Y-111987440D01*
X197435000Y-111987440D01*
X197435000Y-131852560D01*
X196000000Y-131852560D01*
X195764683Y-131896838D01*
X195548559Y-132035910D01*
X195403569Y-132248110D01*
X195389914Y-132315541D01*
X195360054Y-132270853D01*
X194878285Y-131948946D01*
X194310000Y-131835907D01*
X193741715Y-131948946D01*
X193259946Y-132270853D01*
X193040000Y-132600026D01*
X192820054Y-132270853D01*
X192338285Y-131948946D01*
X191770000Y-131835907D01*
X191201715Y-131948946D01*
X190719946Y-132270853D01*
X190500000Y-132600026D01*
X190280054Y-132270853D01*
X189798285Y-131948946D01*
X189230000Y-131835907D01*
X188661715Y-131948946D01*
X188179946Y-132270853D01*
X187960000Y-132600026D01*
X187740054Y-132270853D01*
X187258285Y-131948946D01*
X186690000Y-131835907D01*
X186121715Y-131948946D01*
X185639946Y-132270853D01*
X185420000Y-132600026D01*
X185200054Y-132270853D01*
X184718285Y-131948946D01*
X184150000Y-131835907D01*
X183581715Y-131948946D01*
X183099946Y-132270853D01*
X182880000Y-132600026D01*
X182660054Y-132270853D01*
X182178285Y-131948946D01*
X181610000Y-131835907D01*
X181041715Y-131948946D01*
X180559946Y-132270853D01*
X180340000Y-132600026D01*
X180120054Y-132270853D01*
X179638285Y-131948946D01*
X179070000Y-131835907D01*
X178501715Y-131948946D01*
X178019946Y-132270853D01*
X177800000Y-132600026D01*
X177580054Y-132270853D01*
X177098285Y-131948946D01*
X176530000Y-131835907D01*
X175961715Y-131948946D01*
X175479946Y-132270853D01*
X175260000Y-132600026D01*
X175040054Y-132270853D01*
X174558285Y-131948946D01*
X173990000Y-131835907D01*
X173421715Y-131948946D01*
X172939946Y-132270853D01*
X172720000Y-132600026D01*
X172500054Y-132270853D01*
X172018285Y-131948946D01*
X171450000Y-131835907D01*
X170881715Y-131948946D01*
X170399946Y-132270853D01*
X170180000Y-132600026D01*
X169960054Y-132270853D01*
X169669322Y-132076593D01*
X169612148Y-131789161D01*
X169447401Y-131542599D01*
X166035122Y-128130320D01*
X166035162Y-128084833D01*
X165893117Y-127741057D01*
X165630327Y-127477808D01*
X165286799Y-127335162D01*
X164914833Y-127334838D01*
X164571057Y-127476883D01*
X164307808Y-127739673D01*
X164165162Y-128083201D01*
X164164838Y-128455167D01*
X164306883Y-128798943D01*
X164569673Y-129062192D01*
X164913201Y-129204838D01*
X164960077Y-129204879D01*
X167959519Y-132204321D01*
X167859946Y-132270853D01*
X167640000Y-132600026D01*
X167420054Y-132270853D01*
X166938285Y-131948946D01*
X166370000Y-131835907D01*
X165801715Y-131948946D01*
X165319946Y-132270853D01*
X165100000Y-132600026D01*
X164880054Y-132270853D01*
X164398285Y-131948946D01*
X163830000Y-131835907D01*
X163261715Y-131948946D01*
X162779946Y-132270853D01*
X162560000Y-132600026D01*
X162340054Y-132270853D01*
X161858285Y-131948946D01*
X161290000Y-131835907D01*
X160721715Y-131948946D01*
X160239946Y-132270853D01*
X160020000Y-132600026D01*
X159800054Y-132270853D01*
X159510000Y-132077046D01*
X159510000Y-129070633D01*
X159833201Y-129204838D01*
X160205167Y-129205162D01*
X160530000Y-129070944D01*
X160530000Y-130247537D01*
X160497808Y-130279673D01*
X160355162Y-130623201D01*
X160354838Y-130995167D01*
X160496883Y-131338943D01*
X160759673Y-131602192D01*
X161103201Y-131744838D01*
X161475167Y-131745162D01*
X161818943Y-131603117D01*
X162082192Y-131340327D01*
X162224838Y-130996799D01*
X162225162Y-130624833D01*
X162083117Y-130281057D01*
X162050000Y-130247882D01*
X162050000Y-128832463D01*
X162082192Y-128800327D01*
X162224838Y-128456799D01*
X162225162Y-128084833D01*
X162083117Y-127741057D01*
X161853631Y-127511171D01*
X163969680Y-125395122D01*
X164015167Y-125395162D01*
X164358943Y-125253117D01*
X164622192Y-124990327D01*
X164647242Y-124930000D01*
X167462560Y-124930000D01*
X167462560Y-126530000D01*
X167506838Y-126765317D01*
X167645910Y-126981441D01*
X167858110Y-127126431D01*
X168110000Y-127177440D01*
X169710000Y-127177440D01*
X169945317Y-127133162D01*
X170161441Y-126994090D01*
X170306431Y-126781890D01*
X170337815Y-126626911D01*
X170435302Y-126772811D01*
X170900849Y-127083880D01*
X171450000Y-127193113D01*
X171999151Y-127083880D01*
X172464698Y-126772811D01*
X172720000Y-126390725D01*
X172975302Y-126772811D01*
X173440849Y-127083880D01*
X173990000Y-127193113D01*
X174539151Y-127083880D01*
X175004698Y-126772811D01*
X175274986Y-126368297D01*
X175377611Y-126585134D01*
X175792577Y-126961041D01*
X176180961Y-127121904D01*
X176403000Y-126999915D01*
X176403000Y-125857000D01*
X176657000Y-125857000D01*
X176657000Y-126999915D01*
X176879039Y-127121904D01*
X177267423Y-126961041D01*
X177682389Y-126585134D01*
X177800000Y-126336633D01*
X177917611Y-126585134D01*
X178332577Y-126961041D01*
X178720961Y-127121904D01*
X178943000Y-126999915D01*
X178943000Y-125857000D01*
X176657000Y-125857000D01*
X176403000Y-125857000D01*
X176383000Y-125857000D01*
X176383000Y-125603000D01*
X176403000Y-125603000D01*
X176403000Y-124460085D01*
X176657000Y-124460085D01*
X176657000Y-125603000D01*
X178943000Y-125603000D01*
X178943000Y-124460085D01*
X179197000Y-124460085D01*
X179197000Y-125603000D01*
X179217000Y-125603000D01*
X179217000Y-125857000D01*
X179197000Y-125857000D01*
X179197000Y-126999915D01*
X179419039Y-127121904D01*
X179807423Y-126961041D01*
X180222389Y-126585134D01*
X180325014Y-126368297D01*
X180595302Y-126772811D01*
X181060849Y-127083880D01*
X181610000Y-127193113D01*
X182159151Y-127083880D01*
X182624698Y-126772811D01*
X182880000Y-126390725D01*
X183135302Y-126772811D01*
X183600849Y-127083880D01*
X184150000Y-127193113D01*
X184699151Y-127083880D01*
X185164698Y-126772811D01*
X185434986Y-126368297D01*
X185537611Y-126585134D01*
X185952577Y-126961041D01*
X186340961Y-127121904D01*
X186563000Y-126999915D01*
X186563000Y-125857000D01*
X186817000Y-125857000D01*
X186817000Y-126999915D01*
X187039039Y-127121904D01*
X187427423Y-126961041D01*
X187842389Y-126585134D01*
X188081914Y-126079041D01*
X187960629Y-125857000D01*
X186817000Y-125857000D01*
X186563000Y-125857000D01*
X186543000Y-125857000D01*
X186543000Y-125603000D01*
X186563000Y-125603000D01*
X186563000Y-124460085D01*
X186817000Y-124460085D01*
X186817000Y-125603000D01*
X187960629Y-125603000D01*
X188078207Y-125387745D01*
X190941861Y-125387745D01*
X191015995Y-125633864D01*
X191553223Y-125826965D01*
X192123454Y-125799778D01*
X192524005Y-125633864D01*
X192598139Y-125387745D01*
X191770000Y-124559605D01*
X190941861Y-125387745D01*
X188078207Y-125387745D01*
X188081914Y-125380959D01*
X187842389Y-124874866D01*
X187427423Y-124498959D01*
X187039039Y-124338096D01*
X186817000Y-124460085D01*
X186563000Y-124460085D01*
X186340961Y-124338096D01*
X185952577Y-124498959D01*
X185537611Y-124874866D01*
X185434986Y-125091703D01*
X185164698Y-124687189D01*
X184699151Y-124376120D01*
X184150000Y-124266887D01*
X183600849Y-124376120D01*
X183135302Y-124687189D01*
X182880000Y-125069275D01*
X182624698Y-124687189D01*
X182159151Y-124376120D01*
X181610000Y-124266887D01*
X181060849Y-124376120D01*
X180595302Y-124687189D01*
X180325014Y-125091703D01*
X180222389Y-124874866D01*
X179807423Y-124498959D01*
X179419039Y-124338096D01*
X179197000Y-124460085D01*
X178943000Y-124460085D01*
X178720961Y-124338096D01*
X178332577Y-124498959D01*
X177917611Y-124874866D01*
X177800000Y-125123367D01*
X177682389Y-124874866D01*
X177267423Y-124498959D01*
X176879039Y-124338096D01*
X176657000Y-124460085D01*
X176403000Y-124460085D01*
X176180961Y-124338096D01*
X175792577Y-124498959D01*
X175377611Y-124874866D01*
X175274986Y-125091703D01*
X175004698Y-124687189D01*
X174539151Y-124376120D01*
X173990000Y-124266887D01*
X173440849Y-124376120D01*
X172975302Y-124687189D01*
X172720000Y-125069275D01*
X172464698Y-124687189D01*
X171999151Y-124376120D01*
X171450000Y-124266887D01*
X170900849Y-124376120D01*
X170435302Y-124687189D01*
X170338899Y-124831465D01*
X170313162Y-124694683D01*
X170174090Y-124478559D01*
X169961890Y-124333569D01*
X169710000Y-124282560D01*
X168110000Y-124282560D01*
X167874683Y-124326838D01*
X167658559Y-124465910D01*
X167513569Y-124678110D01*
X167462560Y-124930000D01*
X164647242Y-124930000D01*
X164764838Y-124646799D01*
X164765162Y-124274833D01*
X164719046Y-124163223D01*
X190323035Y-124163223D01*
X190350222Y-124733454D01*
X190516136Y-125134005D01*
X190762255Y-125208139D01*
X191590395Y-124380000D01*
X191949605Y-124380000D01*
X192777745Y-125208139D01*
X193023864Y-125134005D01*
X193216965Y-124596777D01*
X193189778Y-124026546D01*
X193023864Y-123625995D01*
X192777745Y-123551861D01*
X191949605Y-124380000D01*
X191590395Y-124380000D01*
X190762255Y-123551861D01*
X190516136Y-123625995D01*
X190323035Y-124163223D01*
X164719046Y-124163223D01*
X164623117Y-123931057D01*
X164360327Y-123667808D01*
X164016799Y-123525162D01*
X163644833Y-123524838D01*
X163301057Y-123666883D01*
X163037808Y-123929673D01*
X162895162Y-124273201D01*
X162895121Y-124320077D01*
X159880320Y-127334878D01*
X159834833Y-127334838D01*
X159510000Y-127469056D01*
X159510000Y-125730000D01*
X159452148Y-125439161D01*
X159452148Y-125439160D01*
X159287401Y-125192599D01*
X158415122Y-124320320D01*
X158415162Y-124274833D01*
X158273117Y-123931057D01*
X158010327Y-123667808D01*
X157666799Y-123525162D01*
X157294833Y-123524838D01*
X156951057Y-123666883D01*
X156687808Y-123929673D01*
X156545162Y-124273201D01*
X156544838Y-124645167D01*
X156686883Y-124988943D01*
X156949673Y-125252192D01*
X157293201Y-125394838D01*
X157340077Y-125394879D01*
X157990000Y-126044802D01*
X157990000Y-132077046D01*
X157699946Y-132270853D01*
X157472298Y-132611553D01*
X157405183Y-132468642D01*
X156976924Y-132078355D01*
X156566890Y-131908524D01*
X156337000Y-132029845D01*
X156337000Y-133223000D01*
X156357000Y-133223000D01*
X156357000Y-133477000D01*
X156337000Y-133477000D01*
X156337000Y-133497000D01*
X156083000Y-133497000D01*
X156083000Y-133477000D01*
X156063000Y-133477000D01*
X156063000Y-133223000D01*
X156083000Y-133223000D01*
X156083000Y-132029845D01*
X155853110Y-131908524D01*
X155443076Y-132078355D01*
X155014817Y-132468642D01*
X154947702Y-132611553D01*
X154720054Y-132270853D01*
X154238285Y-131948946D01*
X153670000Y-131835907D01*
X153101715Y-131948946D01*
X152619946Y-132270853D01*
X152400000Y-132600026D01*
X152180054Y-132270853D01*
X151698285Y-131948946D01*
X151130000Y-131835907D01*
X150561715Y-131948946D01*
X150079946Y-132270853D01*
X149860000Y-132600026D01*
X149640054Y-132270853D01*
X149158285Y-131948946D01*
X148590000Y-131835907D01*
X148021715Y-131948946D01*
X147539946Y-132270853D01*
X147320000Y-132600026D01*
X147100054Y-132270853D01*
X146618285Y-131948946D01*
X146050000Y-131835907D01*
X145481715Y-131948946D01*
X144999946Y-132270853D01*
X144780000Y-132600026D01*
X144560054Y-132270853D01*
X144078285Y-131948946D01*
X143510000Y-131835907D01*
X142941715Y-131948946D01*
X142459946Y-132270853D01*
X142240000Y-132600026D01*
X142020054Y-132270853D01*
X141538285Y-131948946D01*
X140970000Y-131835907D01*
X140401715Y-131948946D01*
X139919946Y-132270853D01*
X139700000Y-132600026D01*
X139480054Y-132270853D01*
X138998285Y-131948946D01*
X138430000Y-131835907D01*
X137861715Y-131948946D01*
X137379946Y-132270853D01*
X137160000Y-132600026D01*
X136940054Y-132270853D01*
X136458285Y-131948946D01*
X135890000Y-131835907D01*
X135321715Y-131948946D01*
X134839946Y-132270853D01*
X134620000Y-132600026D01*
X134400054Y-132270853D01*
X133918285Y-131948946D01*
X133350000Y-131835907D01*
X132781715Y-131948946D01*
X132299946Y-132270853D01*
X132080000Y-132600026D01*
X131860054Y-132270853D01*
X131378285Y-131948946D01*
X130810000Y-131835907D01*
X130241715Y-131948946D01*
X129759946Y-132270853D01*
X129540000Y-132600026D01*
X129320054Y-132270853D01*
X128838285Y-131948946D01*
X128270000Y-131835907D01*
X127701715Y-131948946D01*
X127219946Y-132270853D01*
X127000000Y-132600026D01*
X126780054Y-132270853D01*
X126298285Y-131948946D01*
X125730000Y-131835907D01*
X125161715Y-131948946D01*
X124679946Y-132270853D01*
X124460000Y-132600026D01*
X124240054Y-132270853D01*
X123758285Y-131948946D01*
X123190000Y-131835907D01*
X122621715Y-131948946D01*
X122139946Y-132270853D01*
X121920000Y-132600026D01*
X121700054Y-132270853D01*
X121218285Y-131948946D01*
X120650000Y-131835907D01*
X120081715Y-131948946D01*
X119599946Y-132270853D01*
X119380000Y-132600026D01*
X119160054Y-132270853D01*
X118678285Y-131948946D01*
X118110000Y-131835907D01*
X117541715Y-131948946D01*
X117059946Y-132270853D01*
X116840000Y-132600026D01*
X116620054Y-132270853D01*
X116138285Y-131948946D01*
X115570000Y-131835907D01*
X115001715Y-131948946D01*
X114519946Y-132270853D01*
X114300000Y-132600026D01*
X114080054Y-132270853D01*
X113598285Y-131948946D01*
X113030000Y-131835907D01*
X112461715Y-131948946D01*
X111979946Y-132270853D01*
X111760000Y-132600026D01*
X111540054Y-132270853D01*
X111058285Y-131948946D01*
X110490000Y-131835907D01*
X109921715Y-131948946D01*
X109439946Y-132270853D01*
X109220000Y-132600026D01*
X109000054Y-132270853D01*
X108518285Y-131948946D01*
X107950000Y-131835907D01*
X107381715Y-131948946D01*
X106899946Y-132270853D01*
X106680000Y-132600026D01*
X106460054Y-132270853D01*
X105978285Y-131948946D01*
X105410000Y-131835907D01*
X104841715Y-131948946D01*
X104359946Y-132270853D01*
X104140000Y-132600026D01*
X103920054Y-132270853D01*
X103438285Y-131948946D01*
X102870000Y-131835907D01*
X102301715Y-131948946D01*
X101819946Y-132270853D01*
X101600000Y-132600026D01*
X101380054Y-132270853D01*
X100898285Y-131948946D01*
X100330000Y-131835907D01*
X99761715Y-131948946D01*
X99745000Y-131960115D01*
X99745000Y-121891887D01*
X106515000Y-121891887D01*
X106515000Y-121948113D01*
X106624233Y-122497264D01*
X106935302Y-122962811D01*
X107400849Y-123273880D01*
X107950000Y-123383113D01*
X108499151Y-123273880D01*
X108964698Y-122962811D01*
X109220000Y-122580725D01*
X109475302Y-122962811D01*
X109940849Y-123273880D01*
X110490000Y-123383113D01*
X111039151Y-123273880D01*
X111504698Y-122962811D01*
X111760000Y-122580725D01*
X112015302Y-122962811D01*
X112480849Y-123273880D01*
X113030000Y-123383113D01*
X113579151Y-123273880D01*
X114044698Y-122962811D01*
X114300000Y-122580725D01*
X114555302Y-122962811D01*
X115020849Y-123273880D01*
X115570000Y-123383113D01*
X116119151Y-123273880D01*
X116584698Y-122962811D01*
X116840000Y-122580725D01*
X117095302Y-122962811D01*
X117350000Y-123132995D01*
X117350000Y-123190000D01*
X117407852Y-123480839D01*
X117572599Y-123727401D01*
X118815198Y-124970000D01*
X118672463Y-124970000D01*
X118640327Y-124937808D01*
X118296799Y-124795162D01*
X117924833Y-124794838D01*
X117581057Y-124936883D01*
X117317808Y-125199673D01*
X117175162Y-125543201D01*
X117174838Y-125915167D01*
X117280310Y-126170430D01*
X117026799Y-126065162D01*
X116654833Y-126064838D01*
X116311057Y-126206883D01*
X116047808Y-126469673D01*
X115905162Y-126813201D01*
X115904838Y-127185167D01*
X116046883Y-127528943D01*
X116309673Y-127792192D01*
X116653201Y-127934838D01*
X117025167Y-127935162D01*
X117368943Y-127793117D01*
X117402118Y-127760000D01*
X135575198Y-127760000D01*
X136622599Y-128807401D01*
X136869160Y-128972148D01*
X137160000Y-129030000D01*
X139137537Y-129030000D01*
X139169673Y-129062192D01*
X139513201Y-129204838D01*
X139885167Y-129205162D01*
X140228943Y-129063117D01*
X140492192Y-128800327D01*
X140634838Y-128456799D01*
X140634839Y-128455167D01*
X146384838Y-128455167D01*
X146526883Y-128798943D01*
X146789673Y-129062192D01*
X147133201Y-129204838D01*
X147505167Y-129205162D01*
X147848943Y-129063117D01*
X147882118Y-129030000D01*
X151837537Y-129030000D01*
X151869673Y-129062192D01*
X152213201Y-129204838D01*
X152585167Y-129205162D01*
X152928943Y-129063117D01*
X153192192Y-128800327D01*
X153334838Y-128456799D01*
X153335162Y-128084833D01*
X153193117Y-127741057D01*
X152930327Y-127477808D01*
X152586799Y-127335162D01*
X152214833Y-127334838D01*
X151871057Y-127476883D01*
X151837882Y-127510000D01*
X147882463Y-127510000D01*
X147850327Y-127477808D01*
X147506799Y-127335162D01*
X147134833Y-127334838D01*
X146791057Y-127476883D01*
X146527808Y-127739673D01*
X146385162Y-128083201D01*
X146384838Y-128455167D01*
X140634839Y-128455167D01*
X140635162Y-128084833D01*
X140493117Y-127741057D01*
X140230327Y-127477808D01*
X139886799Y-127335162D01*
X139514833Y-127334838D01*
X139259570Y-127440310D01*
X139364838Y-127186799D01*
X139365162Y-126814833D01*
X139223117Y-126471057D01*
X138960327Y-126207808D01*
X138616799Y-126065162D01*
X138569923Y-126065121D01*
X137724802Y-125220000D01*
X141677537Y-125220000D01*
X141709673Y-125252192D01*
X142053201Y-125394838D01*
X142425167Y-125395162D01*
X142768943Y-125253117D01*
X143032192Y-124990327D01*
X143174838Y-124646799D01*
X143175162Y-124274833D01*
X143033117Y-123931057D01*
X142770327Y-123667808D01*
X142426799Y-123525162D01*
X142054833Y-123524838D01*
X141711057Y-123666883D01*
X141677882Y-123700000D01*
X119694802Y-123700000D01*
X119024538Y-123029736D01*
X119124698Y-122962811D01*
X119380000Y-122580725D01*
X119635302Y-122962811D01*
X120100849Y-123273880D01*
X120650000Y-123383113D01*
X121199151Y-123273880D01*
X121664698Y-122962811D01*
X121920000Y-122580725D01*
X122175302Y-122962811D01*
X122640849Y-123273880D01*
X123190000Y-123383113D01*
X123739151Y-123273880D01*
X124204698Y-122962811D01*
X124460000Y-122580725D01*
X124715302Y-122962811D01*
X125180849Y-123273880D01*
X125730000Y-123383113D01*
X126279151Y-123273880D01*
X126744698Y-122962811D01*
X127000000Y-122580725D01*
X127255302Y-122962811D01*
X127720849Y-123273880D01*
X128270000Y-123383113D01*
X128819151Y-123273880D01*
X129284698Y-122962811D01*
X129540000Y-122580725D01*
X129795302Y-122962811D01*
X130260849Y-123273880D01*
X130810000Y-123383113D01*
X131359151Y-123273880D01*
X131824698Y-122962811D01*
X132080000Y-122580725D01*
X132335302Y-122962811D01*
X132800849Y-123273880D01*
X133350000Y-123383113D01*
X133899151Y-123273880D01*
X134364698Y-122962811D01*
X134620000Y-122580725D01*
X134875302Y-122962811D01*
X135340849Y-123273880D01*
X135890000Y-123383113D01*
X136439151Y-123273880D01*
X136904698Y-122962811D01*
X137160000Y-122580725D01*
X137415302Y-122962811D01*
X137880849Y-123273880D01*
X138430000Y-123383113D01*
X138979151Y-123273880D01*
X139444698Y-122962811D01*
X139700000Y-122580725D01*
X139955302Y-122962811D01*
X140420849Y-123273880D01*
X140970000Y-123383113D01*
X141519151Y-123273880D01*
X141984698Y-122962811D01*
X142240000Y-122580725D01*
X142495302Y-122962811D01*
X142750000Y-123132995D01*
X142750000Y-123190000D01*
X142807852Y-123480839D01*
X142972599Y-123727401D01*
X145512599Y-126267401D01*
X145759160Y-126432148D01*
X145807414Y-126441746D01*
X146050000Y-126490000D01*
X151837537Y-126490000D01*
X151869673Y-126522192D01*
X152213201Y-126664838D01*
X152585167Y-126665162D01*
X152928943Y-126523117D01*
X153192192Y-126260327D01*
X153334838Y-125916799D01*
X153335162Y-125544833D01*
X153193117Y-125201057D01*
X152930327Y-124937808D01*
X152586799Y-124795162D01*
X152214833Y-124794838D01*
X151959570Y-124900310D01*
X152064838Y-124646799D01*
X152065162Y-124274833D01*
X151923117Y-123931057D01*
X151660327Y-123667808D01*
X151316799Y-123525162D01*
X150944833Y-123524838D01*
X150601057Y-123666883D01*
X150567882Y-123700000D01*
X147634802Y-123700000D01*
X146964538Y-123029736D01*
X147064698Y-122962811D01*
X147320000Y-122580725D01*
X147575302Y-122962811D01*
X148040849Y-123273880D01*
X148590000Y-123383113D01*
X149139151Y-123273880D01*
X149604698Y-122962811D01*
X149860000Y-122580725D01*
X150115302Y-122962811D01*
X150580849Y-123273880D01*
X151130000Y-123383113D01*
X151679151Y-123273880D01*
X152144698Y-122962811D01*
X152400000Y-122580725D01*
X152655302Y-122962811D01*
X153120849Y-123273880D01*
X153670000Y-123383113D01*
X154219151Y-123273880D01*
X154684698Y-122962811D01*
X154940000Y-122580725D01*
X155195302Y-122962811D01*
X155660849Y-123273880D01*
X156210000Y-123383113D01*
X156759151Y-123273880D01*
X157224698Y-122962811D01*
X157535767Y-122497264D01*
X157645000Y-121948113D01*
X157645000Y-121891887D01*
X157535767Y-121342736D01*
X157224698Y-120877189D01*
X156970000Y-120707005D01*
X156970000Y-118081887D01*
X167475000Y-118081887D01*
X167475000Y-118138113D01*
X167584233Y-118687264D01*
X167895302Y-119152811D01*
X168360849Y-119463880D01*
X168910000Y-119573113D01*
X169459151Y-119463880D01*
X169924698Y-119152811D01*
X170180000Y-118770725D01*
X170435302Y-119152811D01*
X170900849Y-119463880D01*
X171450000Y-119573113D01*
X171999151Y-119463880D01*
X172464698Y-119152811D01*
X172720000Y-118770725D01*
X172975302Y-119152811D01*
X173440849Y-119463880D01*
X173990000Y-119573113D01*
X174539151Y-119463880D01*
X175004698Y-119152811D01*
X175260000Y-118770725D01*
X175515302Y-119152811D01*
X175980849Y-119463880D01*
X176530000Y-119573113D01*
X177079151Y-119463880D01*
X177544698Y-119152811D01*
X177800000Y-118770725D01*
X178055302Y-119152811D01*
X178520849Y-119463880D01*
X179070000Y-119573113D01*
X179619151Y-119463880D01*
X180084698Y-119152811D01*
X180340000Y-118770725D01*
X180595302Y-119152811D01*
X181060849Y-119463880D01*
X181610000Y-119573113D01*
X182159151Y-119463880D01*
X182624698Y-119152811D01*
X182880000Y-118770725D01*
X183135302Y-119152811D01*
X183390000Y-119322995D01*
X183390000Y-120335198D01*
X182740320Y-120984878D01*
X182694833Y-120984838D01*
X182351057Y-121126883D01*
X182087808Y-121389673D01*
X181945162Y-121733201D01*
X181944838Y-122105167D01*
X182050310Y-122360430D01*
X181796799Y-122255162D01*
X181424833Y-122254838D01*
X181081057Y-122396883D01*
X180817808Y-122659673D01*
X180675162Y-123003201D01*
X180674838Y-123375167D01*
X180816883Y-123718943D01*
X181079673Y-123982192D01*
X181423201Y-124124838D01*
X181795167Y-124125162D01*
X182138943Y-123983117D01*
X182172118Y-123950000D01*
X182880000Y-123950000D01*
X183170839Y-123892148D01*
X183417401Y-123727401D01*
X183772547Y-123372255D01*
X190941861Y-123372255D01*
X191770000Y-124200395D01*
X192598139Y-123372255D01*
X192524005Y-123126136D01*
X191986777Y-122933035D01*
X191416546Y-122960222D01*
X191015995Y-123126136D01*
X190941861Y-123372255D01*
X183772547Y-123372255D01*
X184289680Y-122855122D01*
X184335167Y-122855162D01*
X184678943Y-122713117D01*
X184942192Y-122450327D01*
X185084838Y-122106799D01*
X185085162Y-121734833D01*
X184943117Y-121391057D01*
X184708418Y-121155948D01*
X184852148Y-120940840D01*
X184910000Y-120650000D01*
X184910000Y-119664187D01*
X190334752Y-119664187D01*
X190552757Y-120191800D01*
X190956077Y-120595824D01*
X191483309Y-120814750D01*
X192054187Y-120815248D01*
X192581800Y-120597243D01*
X192985824Y-120193923D01*
X193204750Y-119666691D01*
X193205248Y-119095813D01*
X192987243Y-118568200D01*
X192583923Y-118164176D01*
X192056691Y-117945250D01*
X191485813Y-117944752D01*
X190958200Y-118162757D01*
X190554176Y-118566077D01*
X190335250Y-119093309D01*
X190334752Y-119664187D01*
X184910000Y-119664187D01*
X184910000Y-119322995D01*
X185164698Y-119152811D01*
X185420000Y-118770725D01*
X185675302Y-119152811D01*
X186140849Y-119463880D01*
X186690000Y-119573113D01*
X187239151Y-119463880D01*
X187704698Y-119152811D01*
X188015767Y-118687264D01*
X188125000Y-118138113D01*
X188125000Y-118081887D01*
X188015767Y-117532736D01*
X187704698Y-117067189D01*
X187239151Y-116756120D01*
X186690000Y-116646887D01*
X186140849Y-116756120D01*
X185675302Y-117067189D01*
X185420000Y-117449275D01*
X185164698Y-117067189D01*
X184699151Y-116756120D01*
X184150000Y-116646887D01*
X183600849Y-116756120D01*
X183135302Y-117067189D01*
X182880000Y-117449275D01*
X182624698Y-117067189D01*
X182159151Y-116756120D01*
X181610000Y-116646887D01*
X181060849Y-116756120D01*
X180595302Y-117067189D01*
X180340000Y-117449275D01*
X180084698Y-117067189D01*
X179619151Y-116756120D01*
X179070000Y-116646887D01*
X178520849Y-116756120D01*
X178055302Y-117067189D01*
X177800000Y-117449275D01*
X177544698Y-117067189D01*
X177079151Y-116756120D01*
X176530000Y-116646887D01*
X175980849Y-116756120D01*
X175515302Y-117067189D01*
X175260000Y-117449275D01*
X175004698Y-117067189D01*
X174539151Y-116756120D01*
X173990000Y-116646887D01*
X173440849Y-116756120D01*
X172975302Y-117067189D01*
X172720000Y-117449275D01*
X172464698Y-117067189D01*
X171999151Y-116756120D01*
X171450000Y-116646887D01*
X170900849Y-116756120D01*
X170435302Y-117067189D01*
X170180000Y-117449275D01*
X169924698Y-117067189D01*
X169459151Y-116756120D01*
X168910000Y-116646887D01*
X168360849Y-116756120D01*
X167895302Y-117067189D01*
X167584233Y-117532736D01*
X167475000Y-118081887D01*
X156970000Y-118081887D01*
X156970000Y-117154802D01*
X157619680Y-116505122D01*
X157665167Y-116505162D01*
X158008943Y-116363117D01*
X158272192Y-116100327D01*
X158414838Y-115756799D01*
X158415162Y-115384833D01*
X158273117Y-115041057D01*
X158010327Y-114777808D01*
X157666799Y-114635162D01*
X157294833Y-114634838D01*
X156951057Y-114776883D01*
X156845046Y-114882710D01*
X156740327Y-114777808D01*
X156396799Y-114635162D01*
X156024833Y-114634838D01*
X155681057Y-114776883D01*
X155417808Y-115039673D01*
X155275162Y-115383201D01*
X155275121Y-115430077D01*
X153132599Y-117572599D01*
X152967852Y-117819161D01*
X152910000Y-118110000D01*
X152910000Y-120707005D01*
X152655302Y-120877189D01*
X152400000Y-121259275D01*
X152144698Y-120877189D01*
X151679151Y-120566120D01*
X151130000Y-120456887D01*
X150580849Y-120566120D01*
X150115302Y-120877189D01*
X149860000Y-121259275D01*
X149604698Y-120877189D01*
X149139151Y-120566120D01*
X148590000Y-120456887D01*
X148040849Y-120566120D01*
X147575302Y-120877189D01*
X147320000Y-121259275D01*
X147064698Y-120877189D01*
X146599151Y-120566120D01*
X146050000Y-120456887D01*
X145500849Y-120566120D01*
X145035302Y-120877189D01*
X144780000Y-121259275D01*
X144524698Y-120877189D01*
X144059151Y-120566120D01*
X143510000Y-120456887D01*
X142960849Y-120566120D01*
X142495302Y-120877189D01*
X142240000Y-121259275D01*
X141984698Y-120877189D01*
X141519151Y-120566120D01*
X140970000Y-120456887D01*
X140420849Y-120566120D01*
X139955302Y-120877189D01*
X139700000Y-121259275D01*
X139444698Y-120877189D01*
X138979151Y-120566120D01*
X138430000Y-120456887D01*
X137880849Y-120566120D01*
X137415302Y-120877189D01*
X137160000Y-121259275D01*
X136904698Y-120877189D01*
X136439151Y-120566120D01*
X135890000Y-120456887D01*
X135340849Y-120566120D01*
X134875302Y-120877189D01*
X134620000Y-121259275D01*
X134364698Y-120877189D01*
X133899151Y-120566120D01*
X133350000Y-120456887D01*
X132800849Y-120566120D01*
X132335302Y-120877189D01*
X132080000Y-121259275D01*
X131824698Y-120877189D01*
X131359151Y-120566120D01*
X130810000Y-120456887D01*
X130260849Y-120566120D01*
X129795302Y-120877189D01*
X129540000Y-121259275D01*
X129284698Y-120877189D01*
X128819151Y-120566120D01*
X128270000Y-120456887D01*
X127720849Y-120566120D01*
X127255302Y-120877189D01*
X127000000Y-121259275D01*
X126744698Y-120877189D01*
X126279151Y-120566120D01*
X125730000Y-120456887D01*
X125180849Y-120566120D01*
X124715302Y-120877189D01*
X124460000Y-121259275D01*
X124204698Y-120877189D01*
X123739151Y-120566120D01*
X123190000Y-120456887D01*
X122640849Y-120566120D01*
X122175302Y-120877189D01*
X121920000Y-121259275D01*
X121664698Y-120877189D01*
X121199151Y-120566120D01*
X120650000Y-120456887D01*
X120100849Y-120566120D01*
X119635302Y-120877189D01*
X119380000Y-121259275D01*
X119124698Y-120877189D01*
X118659151Y-120566120D01*
X118110000Y-120456887D01*
X117560849Y-120566120D01*
X117095302Y-120877189D01*
X116840000Y-121259275D01*
X116584698Y-120877189D01*
X116119151Y-120566120D01*
X115570000Y-120456887D01*
X115020849Y-120566120D01*
X114555302Y-120877189D01*
X114300000Y-121259275D01*
X114044698Y-120877189D01*
X113790000Y-120707005D01*
X113790000Y-120180633D01*
X114113201Y-120314838D01*
X114485167Y-120315162D01*
X114828943Y-120173117D01*
X114862118Y-120140000D01*
X116277537Y-120140000D01*
X116309673Y-120172192D01*
X116653201Y-120314838D01*
X117025167Y-120315162D01*
X117368943Y-120173117D01*
X117632192Y-119910327D01*
X117774838Y-119566799D01*
X117775162Y-119194833D01*
X117633117Y-118851057D01*
X117527290Y-118745046D01*
X117632192Y-118640327D01*
X117774838Y-118296799D01*
X117775162Y-117924833D01*
X117633117Y-117581057D01*
X117527290Y-117475046D01*
X117632192Y-117370327D01*
X117774838Y-117026799D01*
X117775162Y-116654833D01*
X117633117Y-116311057D01*
X117370327Y-116047808D01*
X117026799Y-115905162D01*
X116979923Y-115905121D01*
X115235122Y-114160320D01*
X115235162Y-114114833D01*
X115093117Y-113771057D01*
X114830327Y-113507808D01*
X114486799Y-113365162D01*
X114114833Y-113364838D01*
X113771057Y-113506883D01*
X113507808Y-113769673D01*
X113365162Y-114113201D01*
X113364838Y-114485167D01*
X113506883Y-114828943D01*
X113769673Y-115092192D01*
X114113201Y-115234838D01*
X114160077Y-115234879D01*
X115904878Y-116979680D01*
X115904838Y-117025167D01*
X116039056Y-117350000D01*
X114300000Y-117350000D01*
X114009160Y-117407852D01*
X113762599Y-117572599D01*
X112492599Y-118842599D01*
X112327852Y-119089161D01*
X112270000Y-119380000D01*
X112270000Y-120707005D01*
X112015302Y-120877189D01*
X111760000Y-121259275D01*
X111504698Y-120877189D01*
X111039151Y-120566120D01*
X110490000Y-120456887D01*
X109940849Y-120566120D01*
X109475302Y-120877189D01*
X109220000Y-121259275D01*
X108964698Y-120877189D01*
X108499151Y-120566120D01*
X107950000Y-120456887D01*
X107400849Y-120566120D01*
X106935302Y-120877189D01*
X106624233Y-121342736D01*
X106515000Y-121891887D01*
X99745000Y-121891887D01*
X99745000Y-113215167D01*
X160354838Y-113215167D01*
X160496883Y-113558943D01*
X160759673Y-113822192D01*
X161103201Y-113964838D01*
X161475167Y-113965162D01*
X161818943Y-113823117D01*
X161924954Y-113717290D01*
X162029673Y-113822192D01*
X162373201Y-113964838D01*
X162745167Y-113965162D01*
X163088943Y-113823117D01*
X163352192Y-113560327D01*
X163494838Y-113216799D01*
X163494879Y-113169923D01*
X164341341Y-112323461D01*
X164569673Y-112552192D01*
X164913201Y-112694838D01*
X165285167Y-112695162D01*
X165628943Y-112553117D01*
X165892192Y-112290327D01*
X165917242Y-112230000D01*
X168732560Y-112230000D01*
X168732560Y-113830000D01*
X168776838Y-114065317D01*
X168915910Y-114281441D01*
X169128110Y-114426431D01*
X169380000Y-114477440D01*
X170980000Y-114477440D01*
X171215317Y-114433162D01*
X171431441Y-114294090D01*
X171576431Y-114081890D01*
X171607815Y-113926911D01*
X171705302Y-114072811D01*
X172170849Y-114383880D01*
X172720000Y-114493113D01*
X173269151Y-114383880D01*
X173734698Y-114072811D01*
X173990000Y-113690725D01*
X174245302Y-114072811D01*
X174710849Y-114383880D01*
X175260000Y-114493113D01*
X175809151Y-114383880D01*
X176274698Y-114072811D01*
X176530000Y-113690725D01*
X176785302Y-114072811D01*
X177250849Y-114383880D01*
X177800000Y-114493113D01*
X178349151Y-114383880D01*
X178814698Y-114072811D01*
X179070000Y-113690725D01*
X179325302Y-114072811D01*
X179790849Y-114383880D01*
X180340000Y-114493113D01*
X180889151Y-114383880D01*
X181354698Y-114072811D01*
X181610000Y-113690725D01*
X181865302Y-114072811D01*
X182330849Y-114383880D01*
X182880000Y-114493113D01*
X183429151Y-114383880D01*
X183894698Y-114072811D01*
X184164986Y-113668297D01*
X184267611Y-113885134D01*
X184682577Y-114261041D01*
X185070961Y-114421904D01*
X185293000Y-114299915D01*
X185293000Y-113157000D01*
X185547000Y-113157000D01*
X185547000Y-114299915D01*
X185769039Y-114421904D01*
X186157423Y-114261041D01*
X186572389Y-113885134D01*
X186811914Y-113379041D01*
X186690629Y-113157000D01*
X185547000Y-113157000D01*
X185293000Y-113157000D01*
X185273000Y-113157000D01*
X185273000Y-112903000D01*
X185293000Y-112903000D01*
X185293000Y-111760085D01*
X185547000Y-111760085D01*
X185547000Y-112903000D01*
X186690629Y-112903000D01*
X186808207Y-112687745D01*
X189671861Y-112687745D01*
X189745995Y-112933864D01*
X190283223Y-113126965D01*
X190853454Y-113099778D01*
X191254005Y-112933864D01*
X191328139Y-112687745D01*
X190500000Y-111859605D01*
X189671861Y-112687745D01*
X186808207Y-112687745D01*
X186811914Y-112680959D01*
X186572389Y-112174866D01*
X186157423Y-111798959D01*
X185769039Y-111638096D01*
X185547000Y-111760085D01*
X185293000Y-111760085D01*
X185070961Y-111638096D01*
X184682577Y-111798959D01*
X184267611Y-112174866D01*
X184164986Y-112391703D01*
X183894698Y-111987189D01*
X183429151Y-111676120D01*
X182880000Y-111566887D01*
X182330849Y-111676120D01*
X181865302Y-111987189D01*
X181610000Y-112369275D01*
X181354698Y-111987189D01*
X180889151Y-111676120D01*
X180340000Y-111566887D01*
X179790849Y-111676120D01*
X179325302Y-111987189D01*
X179070000Y-112369275D01*
X178814698Y-111987189D01*
X178349151Y-111676120D01*
X177800000Y-111566887D01*
X177250849Y-111676120D01*
X176785302Y-111987189D01*
X176530000Y-112369275D01*
X176274698Y-111987189D01*
X175809151Y-111676120D01*
X175260000Y-111566887D01*
X174710849Y-111676120D01*
X174245302Y-111987189D01*
X173990000Y-112369275D01*
X173734698Y-111987189D01*
X173269151Y-111676120D01*
X172720000Y-111566887D01*
X172170849Y-111676120D01*
X171705302Y-111987189D01*
X171608899Y-112131465D01*
X171583162Y-111994683D01*
X171444090Y-111778559D01*
X171231890Y-111633569D01*
X170980000Y-111582560D01*
X169380000Y-111582560D01*
X169144683Y-111626838D01*
X168928559Y-111765910D01*
X168783569Y-111978110D01*
X168732560Y-112230000D01*
X165917242Y-112230000D01*
X166034838Y-111946799D01*
X166034879Y-111899923D01*
X166471579Y-111463223D01*
X189053035Y-111463223D01*
X189080222Y-112033454D01*
X189246136Y-112434005D01*
X189492255Y-112508139D01*
X190320395Y-111680000D01*
X190679605Y-111680000D01*
X191507745Y-112508139D01*
X191753864Y-112434005D01*
X191946965Y-111896777D01*
X191919778Y-111326546D01*
X191753864Y-110925995D01*
X191507745Y-110851861D01*
X190679605Y-111680000D01*
X190320395Y-111680000D01*
X189492255Y-110851861D01*
X189246136Y-110925995D01*
X189053035Y-111463223D01*
X166471579Y-111463223D01*
X167262547Y-110672255D01*
X189671861Y-110672255D01*
X190500000Y-111500395D01*
X191328139Y-110672255D01*
X191254005Y-110426136D01*
X190716777Y-110233035D01*
X190146546Y-110260222D01*
X189745995Y-110426136D01*
X189671861Y-110672255D01*
X167262547Y-110672255D01*
X167779680Y-110155122D01*
X167825167Y-110155162D01*
X168168943Y-110013117D01*
X168432192Y-109750327D01*
X168574838Y-109406799D01*
X168575162Y-109034833D01*
X168433117Y-108691057D01*
X168170327Y-108427808D01*
X167826799Y-108285162D01*
X167454833Y-108284838D01*
X167111057Y-108426883D01*
X167005046Y-108532710D01*
X166900327Y-108427808D01*
X166556799Y-108285162D01*
X166184833Y-108284838D01*
X165841057Y-108426883D01*
X165735046Y-108532710D01*
X165630327Y-108427808D01*
X165286799Y-108285162D01*
X164914833Y-108284838D01*
X164571057Y-108426883D01*
X164307808Y-108689673D01*
X164165162Y-109033201D01*
X164165121Y-109080077D01*
X161150320Y-112094878D01*
X161104833Y-112094838D01*
X160761057Y-112236883D01*
X160497808Y-112499673D01*
X160355162Y-112843201D01*
X160354838Y-113215167D01*
X99745000Y-113215167D01*
X99745000Y-111945167D01*
X104474838Y-111945167D01*
X104616883Y-112288943D01*
X104879673Y-112552192D01*
X105223201Y-112694838D01*
X105595167Y-112695162D01*
X105938943Y-112553117D01*
X106202192Y-112290327D01*
X106344838Y-111946799D01*
X106345162Y-111574833D01*
X106203117Y-111231057D01*
X106170000Y-111197882D01*
X106170000Y-106651887D01*
X106515000Y-106651887D01*
X106515000Y-106708113D01*
X106624233Y-107257264D01*
X106935302Y-107722811D01*
X107190000Y-107892995D01*
X107190000Y-109927537D01*
X107157808Y-109959673D01*
X107015162Y-110303201D01*
X107014838Y-110675167D01*
X107156883Y-111018943D01*
X107419673Y-111282192D01*
X107763201Y-111424838D01*
X108135167Y-111425162D01*
X108478943Y-111283117D01*
X108742192Y-111020327D01*
X108884838Y-110676799D01*
X108885162Y-110304833D01*
X108743117Y-109961057D01*
X108710000Y-109927882D01*
X108710000Y-107892995D01*
X108964698Y-107722811D01*
X109220000Y-107340725D01*
X109475302Y-107722811D01*
X109730000Y-107892995D01*
X109730000Y-109220000D01*
X109787852Y-109510839D01*
X109952599Y-109757401D01*
X110824878Y-110629680D01*
X110824838Y-110675167D01*
X110966883Y-111018943D01*
X111229673Y-111282192D01*
X111573201Y-111424838D01*
X111945167Y-111425162D01*
X112288943Y-111283117D01*
X112552192Y-111020327D01*
X112694838Y-110676799D01*
X112695162Y-110304833D01*
X112553117Y-109961057D01*
X112290327Y-109697808D01*
X111946799Y-109555162D01*
X111899923Y-109555121D01*
X111250000Y-108905198D01*
X111250000Y-107892995D01*
X111504698Y-107722811D01*
X111760000Y-107340725D01*
X112015302Y-107722811D01*
X112270000Y-107892995D01*
X112270000Y-109220000D01*
X112327852Y-109510839D01*
X112492599Y-109757401D01*
X114634878Y-111899680D01*
X114634838Y-111945167D01*
X114776883Y-112288943D01*
X115039673Y-112552192D01*
X115383201Y-112694838D01*
X115755167Y-112695162D01*
X116098943Y-112553117D01*
X116362192Y-112290327D01*
X116504838Y-111946799D01*
X116505162Y-111574833D01*
X116363117Y-111231057D01*
X116100327Y-110967808D01*
X115756799Y-110825162D01*
X115709923Y-110825121D01*
X113790000Y-108905198D01*
X113790000Y-107892995D01*
X114044698Y-107722811D01*
X114300000Y-107340725D01*
X114555302Y-107722811D01*
X115020849Y-108033880D01*
X115570000Y-108143113D01*
X116119151Y-108033880D01*
X116584698Y-107722811D01*
X116840000Y-107340725D01*
X117095302Y-107722811D01*
X117560849Y-108033880D01*
X118110000Y-108143113D01*
X118659151Y-108033880D01*
X119124698Y-107722811D01*
X119380000Y-107340725D01*
X119635302Y-107722811D01*
X120100849Y-108033880D01*
X120650000Y-108143113D01*
X121199151Y-108033880D01*
X121664698Y-107722811D01*
X121920000Y-107340725D01*
X122175302Y-107722811D01*
X122640849Y-108033880D01*
X123190000Y-108143113D01*
X123739151Y-108033880D01*
X124204698Y-107722811D01*
X124460000Y-107340725D01*
X124715302Y-107722811D01*
X125180849Y-108033880D01*
X125730000Y-108143113D01*
X126279151Y-108033880D01*
X126744698Y-107722811D01*
X127000000Y-107340725D01*
X127255302Y-107722811D01*
X127720849Y-108033880D01*
X128270000Y-108143113D01*
X128819151Y-108033880D01*
X129284698Y-107722811D01*
X129540000Y-107340725D01*
X129795302Y-107722811D01*
X130260849Y-108033880D01*
X130810000Y-108143113D01*
X131359151Y-108033880D01*
X131824698Y-107722811D01*
X132080000Y-107340725D01*
X132335302Y-107722811D01*
X132800849Y-108033880D01*
X133350000Y-108143113D01*
X133899151Y-108033880D01*
X134364698Y-107722811D01*
X134620000Y-107340725D01*
X134875302Y-107722811D01*
X135340849Y-108033880D01*
X135890000Y-108143113D01*
X136439151Y-108033880D01*
X136904698Y-107722811D01*
X137160000Y-107340725D01*
X137415302Y-107722811D01*
X137880849Y-108033880D01*
X138430000Y-108143113D01*
X138979151Y-108033880D01*
X139444698Y-107722811D01*
X139700000Y-107340725D01*
X139955302Y-107722811D01*
X140420849Y-108033880D01*
X140970000Y-108143113D01*
X141519151Y-108033880D01*
X141984698Y-107722811D01*
X142240000Y-107340725D01*
X142495302Y-107722811D01*
X142960849Y-108033880D01*
X143510000Y-108143113D01*
X144059151Y-108033880D01*
X144524698Y-107722811D01*
X144780000Y-107340725D01*
X145035302Y-107722811D01*
X145500849Y-108033880D01*
X146050000Y-108143113D01*
X146599151Y-108033880D01*
X147064698Y-107722811D01*
X147320000Y-107340725D01*
X147575302Y-107722811D01*
X148040849Y-108033880D01*
X148590000Y-108143113D01*
X149139151Y-108033880D01*
X149604698Y-107722811D01*
X149860000Y-107340725D01*
X150115302Y-107722811D01*
X150580849Y-108033880D01*
X151130000Y-108143113D01*
X151679151Y-108033880D01*
X152144698Y-107722811D01*
X152400000Y-107340725D01*
X152655302Y-107722811D01*
X153120849Y-108033880D01*
X153670000Y-108143113D01*
X154219151Y-108033880D01*
X154684698Y-107722811D01*
X154775000Y-107587665D01*
X154775000Y-107606309D01*
X154871673Y-107839698D01*
X155050301Y-108018327D01*
X155283690Y-108115000D01*
X155924250Y-108115000D01*
X156083000Y-107956250D01*
X156083000Y-106807000D01*
X156337000Y-106807000D01*
X156337000Y-107956250D01*
X156495750Y-108115000D01*
X157136310Y-108115000D01*
X157369699Y-108018327D01*
X157548327Y-107839698D01*
X157645000Y-107606309D01*
X157645000Y-106965750D01*
X157643437Y-106964187D01*
X189064752Y-106964187D01*
X189282757Y-107491800D01*
X189686077Y-107895824D01*
X190213309Y-108114750D01*
X190784187Y-108115248D01*
X191311800Y-107897243D01*
X191715824Y-107493923D01*
X191934750Y-106966691D01*
X191935248Y-106395813D01*
X191717243Y-105868200D01*
X191313923Y-105464176D01*
X190786691Y-105245250D01*
X190215813Y-105244752D01*
X189688200Y-105462757D01*
X189284176Y-105866077D01*
X189065250Y-106393309D01*
X189064752Y-106964187D01*
X157643437Y-106964187D01*
X157486250Y-106807000D01*
X156337000Y-106807000D01*
X156083000Y-106807000D01*
X156063000Y-106807000D01*
X156063000Y-106553000D01*
X156083000Y-106553000D01*
X156083000Y-105403750D01*
X156337000Y-105403750D01*
X156337000Y-106553000D01*
X157486250Y-106553000D01*
X157645000Y-106394250D01*
X157645000Y-105753691D01*
X157548327Y-105520302D01*
X157409913Y-105381887D01*
X168745000Y-105381887D01*
X168745000Y-105438113D01*
X168854233Y-105987264D01*
X169165302Y-106452811D01*
X169630849Y-106763880D01*
X170180000Y-106873113D01*
X170729151Y-106763880D01*
X171194698Y-106452811D01*
X171450000Y-106070725D01*
X171705302Y-106452811D01*
X172170849Y-106763880D01*
X172720000Y-106873113D01*
X173269151Y-106763880D01*
X173734698Y-106452811D01*
X173990000Y-106070725D01*
X174245302Y-106452811D01*
X174710849Y-106763880D01*
X175260000Y-106873113D01*
X175809151Y-106763880D01*
X176274698Y-106452811D01*
X176530000Y-106070725D01*
X176785302Y-106452811D01*
X177250849Y-106763880D01*
X177800000Y-106873113D01*
X178349151Y-106763880D01*
X178814698Y-106452811D01*
X179070000Y-106070725D01*
X179325302Y-106452811D01*
X179790849Y-106763880D01*
X180340000Y-106873113D01*
X180889151Y-106763880D01*
X181354698Y-106452811D01*
X181610000Y-106070725D01*
X181865302Y-106452811D01*
X182330849Y-106763880D01*
X182880000Y-106873113D01*
X183429151Y-106763880D01*
X183894698Y-106452811D01*
X184150000Y-106070725D01*
X184405302Y-106452811D01*
X184870849Y-106763880D01*
X185420000Y-106873113D01*
X185969151Y-106763880D01*
X186434698Y-106452811D01*
X186745767Y-105987264D01*
X186855000Y-105438113D01*
X186855000Y-105381887D01*
X186745767Y-104832736D01*
X186434698Y-104367189D01*
X185969151Y-104056120D01*
X185420000Y-103946887D01*
X184870849Y-104056120D01*
X184405302Y-104367189D01*
X184150000Y-104749275D01*
X183894698Y-104367189D01*
X183429151Y-104056120D01*
X182880000Y-103946887D01*
X182330849Y-104056120D01*
X181865302Y-104367189D01*
X181610000Y-104749275D01*
X181354698Y-104367189D01*
X180889151Y-104056120D01*
X180340000Y-103946887D01*
X179790849Y-104056120D01*
X179325302Y-104367189D01*
X179070000Y-104749275D01*
X178814698Y-104367189D01*
X178349151Y-104056120D01*
X177800000Y-103946887D01*
X177250849Y-104056120D01*
X176785302Y-104367189D01*
X176530000Y-104749275D01*
X176274698Y-104367189D01*
X175809151Y-104056120D01*
X175260000Y-103946887D01*
X174710849Y-104056120D01*
X174245302Y-104367189D01*
X173990000Y-104749275D01*
X173734698Y-104367189D01*
X173269151Y-104056120D01*
X172720000Y-103946887D01*
X172170849Y-104056120D01*
X171705302Y-104367189D01*
X171450000Y-104749275D01*
X171194698Y-104367189D01*
X170729151Y-104056120D01*
X170180000Y-103946887D01*
X169630849Y-104056120D01*
X169165302Y-104367189D01*
X168854233Y-104832736D01*
X168745000Y-105381887D01*
X157409913Y-105381887D01*
X157369699Y-105341673D01*
X157136310Y-105245000D01*
X156495750Y-105245000D01*
X156337000Y-105403750D01*
X156083000Y-105403750D01*
X155924250Y-105245000D01*
X155283690Y-105245000D01*
X155050301Y-105341673D01*
X154871673Y-105520302D01*
X154775000Y-105753691D01*
X154775000Y-105772335D01*
X154684698Y-105637189D01*
X154219151Y-105326120D01*
X153670000Y-105216887D01*
X153120849Y-105326120D01*
X152655302Y-105637189D01*
X152400000Y-106019275D01*
X152144698Y-105637189D01*
X151679151Y-105326120D01*
X151130000Y-105216887D01*
X150580849Y-105326120D01*
X150115302Y-105637189D01*
X149860000Y-106019275D01*
X149604698Y-105637189D01*
X149139151Y-105326120D01*
X148590000Y-105216887D01*
X148040849Y-105326120D01*
X147575302Y-105637189D01*
X147320000Y-106019275D01*
X147064698Y-105637189D01*
X146599151Y-105326120D01*
X146050000Y-105216887D01*
X145500849Y-105326120D01*
X145035302Y-105637189D01*
X144780000Y-106019275D01*
X144524698Y-105637189D01*
X144059151Y-105326120D01*
X143510000Y-105216887D01*
X142960849Y-105326120D01*
X142495302Y-105637189D01*
X142240000Y-106019275D01*
X141984698Y-105637189D01*
X141730000Y-105467005D01*
X141730000Y-100892463D01*
X141762192Y-100860327D01*
X141904838Y-100516799D01*
X141905162Y-100144833D01*
X141763117Y-99801057D01*
X141500327Y-99537808D01*
X141156799Y-99395162D01*
X140784833Y-99394838D01*
X140529570Y-99500310D01*
X140634838Y-99246799D01*
X140635162Y-98874833D01*
X140493117Y-98531057D01*
X140230327Y-98267808D01*
X139886799Y-98125162D01*
X139514833Y-98124838D01*
X139259570Y-98230310D01*
X139364838Y-97976799D01*
X139365162Y-97604833D01*
X139230944Y-97280000D01*
X140655198Y-97280000D01*
X148052599Y-104677401D01*
X148299160Y-104842148D01*
X148590000Y-104900000D01*
X154377537Y-104900000D01*
X154409673Y-104932192D01*
X154753201Y-105074838D01*
X155125167Y-105075162D01*
X155468943Y-104933117D01*
X155732192Y-104670327D01*
X155874838Y-104326799D01*
X155874839Y-104325167D01*
X162894838Y-104325167D01*
X163036883Y-104668943D01*
X163299673Y-104932192D01*
X163643201Y-105074838D01*
X164015167Y-105075162D01*
X164358943Y-104933117D01*
X164392118Y-104900000D01*
X167640000Y-104900000D01*
X167930839Y-104842148D01*
X168177401Y-104677401D01*
X172859680Y-99995122D01*
X172905167Y-99995162D01*
X173248943Y-99853117D01*
X173512192Y-99590327D01*
X173654838Y-99246799D01*
X173655162Y-98874833D01*
X173513117Y-98531057D01*
X173250327Y-98267808D01*
X172906799Y-98125162D01*
X172534833Y-98124838D01*
X172191057Y-98266883D01*
X171927808Y-98529673D01*
X171785162Y-98873201D01*
X171785121Y-98920077D01*
X167325198Y-103380000D01*
X164392463Y-103380000D01*
X164360327Y-103347808D01*
X164016799Y-103205162D01*
X163644833Y-103204838D01*
X163301057Y-103346883D01*
X163037808Y-103609673D01*
X162895162Y-103953201D01*
X162894838Y-104325167D01*
X155874839Y-104325167D01*
X155875162Y-103954833D01*
X155733117Y-103611057D01*
X155470327Y-103347808D01*
X155126799Y-103205162D01*
X154754833Y-103204838D01*
X154411057Y-103346883D01*
X154377882Y-103380000D01*
X148904802Y-103380000D01*
X145343461Y-99818659D01*
X145572192Y-99590327D01*
X145714838Y-99246799D01*
X145715162Y-98874833D01*
X145573117Y-98531057D01*
X145310327Y-98267808D01*
X144966799Y-98125162D01*
X144919923Y-98125121D01*
X141507401Y-94712599D01*
X141260839Y-94547852D01*
X140970000Y-94490000D01*
X122482463Y-94490000D01*
X122450327Y-94457808D01*
X122106799Y-94315162D01*
X121734833Y-94314838D01*
X121391057Y-94456883D01*
X121127808Y-94719673D01*
X120985162Y-95063201D01*
X120984838Y-95435167D01*
X121119056Y-95760000D01*
X118110000Y-95760000D01*
X117867414Y-95808254D01*
X117819160Y-95817852D01*
X117572599Y-95982599D01*
X115430320Y-98124878D01*
X115384833Y-98124838D01*
X115041057Y-98266883D01*
X114777808Y-98529673D01*
X114635162Y-98873201D01*
X114634838Y-99245167D01*
X114776883Y-99588943D01*
X115039673Y-99852192D01*
X115383201Y-99994838D01*
X115755167Y-99995162D01*
X116098943Y-99853117D01*
X116362192Y-99590327D01*
X116504838Y-99246799D01*
X116504879Y-99199923D01*
X118424802Y-97280000D01*
X118815198Y-97280000D01*
X117572599Y-98522599D01*
X117407852Y-98769161D01*
X117350000Y-99060000D01*
X117350000Y-105467005D01*
X117095302Y-105637189D01*
X116840000Y-106019275D01*
X116584698Y-105637189D01*
X116119151Y-105326120D01*
X115570000Y-105216887D01*
X115020849Y-105326120D01*
X114555302Y-105637189D01*
X114300000Y-106019275D01*
X114044698Y-105637189D01*
X113579151Y-105326120D01*
X113030000Y-105216887D01*
X112480849Y-105326120D01*
X112015302Y-105637189D01*
X111760000Y-106019275D01*
X111504698Y-105637189D01*
X111039151Y-105326120D01*
X110490000Y-105216887D01*
X109940849Y-105326120D01*
X109475302Y-105637189D01*
X109220000Y-106019275D01*
X108964698Y-105637189D01*
X108499151Y-105326120D01*
X107950000Y-105216887D01*
X107400849Y-105326120D01*
X106935302Y-105637189D01*
X106624233Y-106102736D01*
X106515000Y-106651887D01*
X106170000Y-106651887D01*
X106170000Y-103184802D01*
X106837788Y-102517014D01*
X107136077Y-102815824D01*
X107663309Y-103034750D01*
X108234187Y-103035248D01*
X108761800Y-102817243D01*
X108971663Y-102607745D01*
X112121861Y-102607745D01*
X112195995Y-102853864D01*
X112733223Y-103046965D01*
X113303454Y-103019778D01*
X113704005Y-102853864D01*
X113778139Y-102607745D01*
X112950000Y-101779605D01*
X112121861Y-102607745D01*
X108971663Y-102607745D01*
X109165824Y-102413923D01*
X109384750Y-101886691D01*
X109385189Y-101383223D01*
X111503035Y-101383223D01*
X111530222Y-101953454D01*
X111696136Y-102354005D01*
X111942255Y-102428139D01*
X112770395Y-101600000D01*
X113129605Y-101600000D01*
X113957745Y-102428139D01*
X114203864Y-102354005D01*
X114396965Y-101816777D01*
X114369778Y-101246546D01*
X114203864Y-100845995D01*
X113957745Y-100771861D01*
X113129605Y-101600000D01*
X112770395Y-101600000D01*
X111942255Y-100771861D01*
X111696136Y-100845995D01*
X111503035Y-101383223D01*
X109385189Y-101383223D01*
X109385248Y-101315813D01*
X109167243Y-100788200D01*
X108971640Y-100592255D01*
X112121861Y-100592255D01*
X112950000Y-101420395D01*
X113778139Y-100592255D01*
X113704005Y-100346136D01*
X113166777Y-100153035D01*
X112596546Y-100180222D01*
X112195995Y-100346136D01*
X112121861Y-100592255D01*
X108971640Y-100592255D01*
X108763923Y-100384176D01*
X108236691Y-100165250D01*
X107665813Y-100164752D01*
X107138200Y-100382757D01*
X106734176Y-100786077D01*
X106711785Y-100840000D01*
X106680000Y-100840000D01*
X106389160Y-100897852D01*
X106142599Y-101062599D01*
X104872599Y-102332599D01*
X104707852Y-102579161D01*
X104650000Y-102870000D01*
X104650000Y-111197537D01*
X104617808Y-111229673D01*
X104475162Y-111573201D01*
X104474838Y-111945167D01*
X99745000Y-111945167D01*
X99745000Y-95534187D01*
X106594752Y-95534187D01*
X106812757Y-96061800D01*
X107216077Y-96465824D01*
X107743309Y-96684750D01*
X108314187Y-96685248D01*
X108841800Y-96467243D01*
X109245824Y-96063923D01*
X109464750Y-95536691D01*
X109464752Y-95534187D01*
X111594752Y-95534187D01*
X111812757Y-96061800D01*
X112216077Y-96465824D01*
X112743309Y-96684750D01*
X113314187Y-96685248D01*
X113841800Y-96467243D01*
X114245824Y-96063923D01*
X114464750Y-95536691D01*
X114465248Y-94965813D01*
X114247243Y-94438200D01*
X113843923Y-94034176D01*
X113316691Y-93815250D01*
X112745813Y-93814752D01*
X112218200Y-94032757D01*
X111814176Y-94436077D01*
X111595250Y-94963309D01*
X111594752Y-95534187D01*
X109464752Y-95534187D01*
X109465248Y-94965813D01*
X109247243Y-94438200D01*
X108843923Y-94034176D01*
X108316691Y-93815250D01*
X107745813Y-93814752D01*
X107218200Y-94032757D01*
X106814176Y-94436077D01*
X106595250Y-94963309D01*
X106594752Y-95534187D01*
X99745000Y-95534187D01*
X99745000Y-90519041D01*
X106558086Y-90519041D01*
X106797611Y-91025134D01*
X107212577Y-91401041D01*
X107600961Y-91561904D01*
X107823000Y-91439915D01*
X107823000Y-90297000D01*
X108077000Y-90297000D01*
X108077000Y-91439915D01*
X108299039Y-91561904D01*
X108687423Y-91401041D01*
X109102389Y-91025134D01*
X109220000Y-90776633D01*
X109337611Y-91025134D01*
X109752577Y-91401041D01*
X110140961Y-91561904D01*
X110363000Y-91439915D01*
X110363000Y-90297000D01*
X110617000Y-90297000D01*
X110617000Y-91439915D01*
X110839039Y-91561904D01*
X111227423Y-91401041D01*
X111642389Y-91025134D01*
X111760000Y-90776633D01*
X111877611Y-91025134D01*
X112292577Y-91401041D01*
X112680961Y-91561904D01*
X112903000Y-91439915D01*
X112903000Y-90297000D01*
X110617000Y-90297000D01*
X110363000Y-90297000D01*
X108077000Y-90297000D01*
X107823000Y-90297000D01*
X106679371Y-90297000D01*
X106558086Y-90519041D01*
X99745000Y-90519041D01*
X99745000Y-89820959D01*
X106558086Y-89820959D01*
X106679371Y-90043000D01*
X107823000Y-90043000D01*
X107823000Y-88900085D01*
X108077000Y-88900085D01*
X108077000Y-90043000D01*
X110363000Y-90043000D01*
X110363000Y-88900085D01*
X110617000Y-88900085D01*
X110617000Y-90043000D01*
X112903000Y-90043000D01*
X112903000Y-88900085D01*
X113157000Y-88900085D01*
X113157000Y-90043000D01*
X113177000Y-90043000D01*
X113177000Y-90297000D01*
X113157000Y-90297000D01*
X113157000Y-91439915D01*
X113379039Y-91561904D01*
X113767423Y-91401041D01*
X114182389Y-91025134D01*
X114285014Y-90808297D01*
X114555302Y-91212811D01*
X115020849Y-91523880D01*
X115570000Y-91633113D01*
X116119151Y-91523880D01*
X116584698Y-91212811D01*
X116840000Y-90830725D01*
X117095302Y-91212811D01*
X117560849Y-91523880D01*
X118110000Y-91633113D01*
X118659151Y-91523880D01*
X119124698Y-91212811D01*
X119380000Y-90830725D01*
X119635302Y-91212811D01*
X120100849Y-91523880D01*
X120650000Y-91633113D01*
X121199151Y-91523880D01*
X121664698Y-91212811D01*
X121920000Y-90830725D01*
X122175302Y-91212811D01*
X122640849Y-91523880D01*
X123190000Y-91633113D01*
X123739151Y-91523880D01*
X124204698Y-91212811D01*
X124460000Y-90830725D01*
X124715302Y-91212811D01*
X125180849Y-91523880D01*
X125730000Y-91633113D01*
X126279151Y-91523880D01*
X126744698Y-91212811D01*
X127000000Y-90830725D01*
X127255302Y-91212811D01*
X127720849Y-91523880D01*
X128270000Y-91633113D01*
X128819151Y-91523880D01*
X129284698Y-91212811D01*
X129540000Y-90830725D01*
X129795302Y-91212811D01*
X130260849Y-91523880D01*
X130810000Y-91633113D01*
X131359151Y-91523880D01*
X131824698Y-91212811D01*
X132080000Y-90830725D01*
X132335302Y-91212811D01*
X132800849Y-91523880D01*
X133350000Y-91633113D01*
X133899151Y-91523880D01*
X134364698Y-91212811D01*
X134620000Y-90830725D01*
X134875302Y-91212811D01*
X135340849Y-91523880D01*
X135890000Y-91633113D01*
X136439151Y-91523880D01*
X136904698Y-91212811D01*
X137160000Y-90830725D01*
X137415302Y-91212811D01*
X137880849Y-91523880D01*
X138430000Y-91633113D01*
X138979151Y-91523880D01*
X139444698Y-91212811D01*
X139700000Y-90830725D01*
X139955302Y-91212811D01*
X140420849Y-91523880D01*
X140970000Y-91633113D01*
X141519151Y-91523880D01*
X141984698Y-91212811D01*
X142295767Y-90747264D01*
X142405000Y-90198113D01*
X142405000Y-90141887D01*
X142295767Y-89592736D01*
X141984698Y-89127189D01*
X141519151Y-88816120D01*
X140970000Y-88706887D01*
X140420849Y-88816120D01*
X139955302Y-89127189D01*
X139700000Y-89509275D01*
X139444698Y-89127189D01*
X138979151Y-88816120D01*
X138430000Y-88706887D01*
X137880849Y-88816120D01*
X137415302Y-89127189D01*
X137160000Y-89509275D01*
X136904698Y-89127189D01*
X136439151Y-88816120D01*
X135890000Y-88706887D01*
X135340849Y-88816120D01*
X134875302Y-89127189D01*
X134620000Y-89509275D01*
X134364698Y-89127189D01*
X133899151Y-88816120D01*
X133350000Y-88706887D01*
X132800849Y-88816120D01*
X132335302Y-89127189D01*
X132080000Y-89509275D01*
X131824698Y-89127189D01*
X131359151Y-88816120D01*
X130810000Y-88706887D01*
X130260849Y-88816120D01*
X129795302Y-89127189D01*
X129540000Y-89509275D01*
X129284698Y-89127189D01*
X128819151Y-88816120D01*
X128270000Y-88706887D01*
X127720849Y-88816120D01*
X127255302Y-89127189D01*
X127000000Y-89509275D01*
X126744698Y-89127189D01*
X126279151Y-88816120D01*
X125730000Y-88706887D01*
X125180849Y-88816120D01*
X124715302Y-89127189D01*
X124460000Y-89509275D01*
X124204698Y-89127189D01*
X123739151Y-88816120D01*
X123190000Y-88706887D01*
X122640849Y-88816120D01*
X122175302Y-89127189D01*
X121920000Y-89509275D01*
X121664698Y-89127189D01*
X121199151Y-88816120D01*
X120650000Y-88706887D01*
X120100849Y-88816120D01*
X119635302Y-89127189D01*
X119380000Y-89509275D01*
X119124698Y-89127189D01*
X118659151Y-88816120D01*
X118110000Y-88706887D01*
X117560849Y-88816120D01*
X117095302Y-89127189D01*
X116840000Y-89509275D01*
X116584698Y-89127189D01*
X116119151Y-88816120D01*
X115570000Y-88706887D01*
X115020849Y-88816120D01*
X114555302Y-89127189D01*
X114285014Y-89531703D01*
X114182389Y-89314866D01*
X113767423Y-88938959D01*
X113379039Y-88778096D01*
X113157000Y-88900085D01*
X112903000Y-88900085D01*
X112680961Y-88778096D01*
X112292577Y-88938959D01*
X111877611Y-89314866D01*
X111760000Y-89563367D01*
X111642389Y-89314866D01*
X111227423Y-88938959D01*
X110839039Y-88778096D01*
X110617000Y-88900085D01*
X110363000Y-88900085D01*
X110140961Y-88778096D01*
X109752577Y-88938959D01*
X109337611Y-89314866D01*
X109220000Y-89563367D01*
X109102389Y-89314866D01*
X108687423Y-88938959D01*
X108299039Y-88778096D01*
X108077000Y-88900085D01*
X107823000Y-88900085D01*
X107600961Y-88778096D01*
X107212577Y-88938959D01*
X106797611Y-89314866D01*
X106558086Y-89820959D01*
X99745000Y-89820959D01*
X99745000Y-82521887D01*
X106515000Y-82521887D01*
X106515000Y-82578113D01*
X106624233Y-83127264D01*
X106935302Y-83592811D01*
X107400849Y-83903880D01*
X107950000Y-84013113D01*
X108499151Y-83903880D01*
X108964698Y-83592811D01*
X109220000Y-83210725D01*
X109475302Y-83592811D01*
X109940849Y-83903880D01*
X110490000Y-84013113D01*
X111039151Y-83903880D01*
X111504698Y-83592811D01*
X111760000Y-83210725D01*
X112015302Y-83592811D01*
X112480849Y-83903880D01*
X113030000Y-84013113D01*
X113579151Y-83903880D01*
X114044698Y-83592811D01*
X114300000Y-83210725D01*
X114555302Y-83592811D01*
X115020849Y-83903880D01*
X115570000Y-84013113D01*
X116119151Y-83903880D01*
X116584698Y-83592811D01*
X116854986Y-83188297D01*
X116957611Y-83405134D01*
X117372577Y-83781041D01*
X117760961Y-83941904D01*
X117983000Y-83819915D01*
X117983000Y-82677000D01*
X117963000Y-82677000D01*
X117963000Y-82423000D01*
X117983000Y-82423000D01*
X117983000Y-81280085D01*
X117938929Y-81255873D01*
X118424802Y-80770000D01*
X141925198Y-80770000D01*
X144215198Y-83060000D01*
X142417440Y-83060000D01*
X142417440Y-81750000D01*
X142373162Y-81514683D01*
X142234090Y-81298559D01*
X142021890Y-81153569D01*
X141770000Y-81102560D01*
X140170000Y-81102560D01*
X139934683Y-81146838D01*
X139718559Y-81285910D01*
X139573569Y-81498110D01*
X139542185Y-81653089D01*
X139444698Y-81507189D01*
X138979151Y-81196120D01*
X138430000Y-81086887D01*
X137880849Y-81196120D01*
X137415302Y-81507189D01*
X137160000Y-81889275D01*
X136904698Y-81507189D01*
X136439151Y-81196120D01*
X135890000Y-81086887D01*
X135340849Y-81196120D01*
X134875302Y-81507189D01*
X134620000Y-81889275D01*
X134364698Y-81507189D01*
X133899151Y-81196120D01*
X133350000Y-81086887D01*
X132800849Y-81196120D01*
X132335302Y-81507189D01*
X132080000Y-81889275D01*
X131824698Y-81507189D01*
X131359151Y-81196120D01*
X130810000Y-81086887D01*
X130260849Y-81196120D01*
X129795302Y-81507189D01*
X129540000Y-81889275D01*
X129284698Y-81507189D01*
X128819151Y-81196120D01*
X128270000Y-81086887D01*
X127720849Y-81196120D01*
X127255302Y-81507189D01*
X127000000Y-81889275D01*
X126744698Y-81507189D01*
X126279151Y-81196120D01*
X125730000Y-81086887D01*
X125180849Y-81196120D01*
X124715302Y-81507189D01*
X124460000Y-81889275D01*
X124204698Y-81507189D01*
X123739151Y-81196120D01*
X123190000Y-81086887D01*
X122640849Y-81196120D01*
X122175302Y-81507189D01*
X121920000Y-81889275D01*
X121664698Y-81507189D01*
X121199151Y-81196120D01*
X120650000Y-81086887D01*
X120100849Y-81196120D01*
X119635302Y-81507189D01*
X119365014Y-81911703D01*
X119262389Y-81694866D01*
X118847423Y-81318959D01*
X118459039Y-81158096D01*
X118237000Y-81280085D01*
X118237000Y-82423000D01*
X118257000Y-82423000D01*
X118257000Y-82677000D01*
X118237000Y-82677000D01*
X118237000Y-83819915D01*
X118459039Y-83941904D01*
X118847423Y-83781041D01*
X119262389Y-83405134D01*
X119365014Y-83188297D01*
X119635302Y-83592811D01*
X120100849Y-83903880D01*
X120650000Y-84013113D01*
X121199151Y-83903880D01*
X121664698Y-83592811D01*
X121920000Y-83210725D01*
X122175302Y-83592811D01*
X122640849Y-83903880D01*
X123190000Y-84013113D01*
X123513886Y-83948688D01*
X126462599Y-86897401D01*
X126709161Y-87062148D01*
X127000000Y-87120000D01*
X148275198Y-87120000D01*
X149100000Y-87944802D01*
X149100000Y-89855198D01*
X147180320Y-91774878D01*
X147134833Y-91774838D01*
X146791057Y-91916883D01*
X146527808Y-92179673D01*
X146385162Y-92523201D01*
X146384838Y-92895167D01*
X146526883Y-93238943D01*
X146632710Y-93344954D01*
X146527808Y-93449673D01*
X146385162Y-93793201D01*
X146384838Y-94165167D01*
X146526883Y-94508943D01*
X146632710Y-94614954D01*
X146527808Y-94719673D01*
X146385162Y-95063201D01*
X146384838Y-95435167D01*
X146526883Y-95778943D01*
X146632710Y-95884954D01*
X146527808Y-95989673D01*
X146385162Y-96333201D01*
X146384838Y-96705167D01*
X146526883Y-97048943D01*
X146789673Y-97312192D01*
X147133201Y-97454838D01*
X147505167Y-97455162D01*
X147848943Y-97313117D01*
X148112192Y-97050327D01*
X148254838Y-96706799D01*
X148254839Y-96705167D01*
X169244838Y-96705167D01*
X169386883Y-97048943D01*
X169649673Y-97312192D01*
X169993201Y-97454838D01*
X170365167Y-97455162D01*
X170708943Y-97313117D01*
X170742118Y-97280000D01*
X189937537Y-97280000D01*
X189969673Y-97312192D01*
X190313201Y-97454838D01*
X190685167Y-97455162D01*
X191028943Y-97313117D01*
X191292192Y-97050327D01*
X191434838Y-96706799D01*
X191435162Y-96334833D01*
X191293117Y-95991057D01*
X191030327Y-95727808D01*
X190686799Y-95585162D01*
X190314833Y-95584838D01*
X189971057Y-95726883D01*
X189937882Y-95760000D01*
X170742463Y-95760000D01*
X170710327Y-95727808D01*
X170366799Y-95585162D01*
X169994833Y-95584838D01*
X169651057Y-95726883D01*
X169387808Y-95989673D01*
X169245162Y-96333201D01*
X169244838Y-96705167D01*
X148254839Y-96705167D01*
X148254879Y-96659923D01*
X160159680Y-84755122D01*
X160205167Y-84755162D01*
X160548943Y-84613117D01*
X160778829Y-84383631D01*
X161624878Y-85229680D01*
X161624838Y-85275167D01*
X161766883Y-85618943D01*
X162029673Y-85882192D01*
X162373201Y-86024838D01*
X162745167Y-86025162D01*
X163088943Y-85883117D01*
X163194954Y-85777290D01*
X163299673Y-85882192D01*
X163643201Y-86024838D01*
X164015167Y-86025162D01*
X164358943Y-85883117D01*
X164464954Y-85777290D01*
X164569673Y-85882192D01*
X164913201Y-86024838D01*
X165285167Y-86025162D01*
X165628943Y-85883117D01*
X165892192Y-85620327D01*
X166034838Y-85276799D01*
X166035162Y-84904833D01*
X165893117Y-84561057D01*
X165630327Y-84297808D01*
X165286799Y-84155162D01*
X165239923Y-84155121D01*
X161287397Y-80202595D01*
X161290000Y-80203113D01*
X161839151Y-80093880D01*
X162304698Y-79782811D01*
X162574986Y-79378297D01*
X162677611Y-79595134D01*
X163092577Y-79971041D01*
X163480961Y-80131904D01*
X163703000Y-80009915D01*
X163703000Y-78867000D01*
X163683000Y-78867000D01*
X163683000Y-78613000D01*
X163703000Y-78613000D01*
X163703000Y-77470085D01*
X163480961Y-77348096D01*
X163092577Y-77508959D01*
X162677611Y-77884866D01*
X162574986Y-78101703D01*
X162304698Y-77697189D01*
X161839151Y-77386120D01*
X161290000Y-77276887D01*
X160740849Y-77386120D01*
X160275302Y-77697189D01*
X159964233Y-78162736D01*
X159855000Y-78711887D01*
X159855000Y-78768113D01*
X159950853Y-79250000D01*
X145094802Y-79250000D01*
X144270000Y-78425198D01*
X144270000Y-76133667D01*
X144552811Y-75944698D01*
X144863880Y-75479151D01*
X144973113Y-74930000D01*
X144863880Y-74380849D01*
X144552811Y-73915302D01*
X144087264Y-73604233D01*
X143538113Y-73495000D01*
X143481887Y-73495000D01*
X142932736Y-73604233D01*
X142467189Y-73915302D01*
X142156120Y-74380849D01*
X142046887Y-74930000D01*
X142156120Y-75479151D01*
X142467189Y-75944698D01*
X142750000Y-76133667D01*
X142750000Y-78184290D01*
X142530839Y-78037852D01*
X142240000Y-77980000D01*
X131124802Y-77980000D01*
X130300000Y-77155198D01*
X130300000Y-76133667D01*
X130582811Y-75944698D01*
X130893880Y-75479151D01*
X130946584Y-75214187D01*
X131914752Y-75214187D01*
X132132757Y-75741800D01*
X132536077Y-76145824D01*
X133063309Y-76364750D01*
X133634187Y-76365248D01*
X134161800Y-76147243D01*
X134565824Y-75743923D01*
X134784750Y-75216691D01*
X134785248Y-74645813D01*
X134567243Y-74118200D01*
X134163923Y-73714176D01*
X133636691Y-73495250D01*
X133065813Y-73494752D01*
X132538200Y-73712757D01*
X132134176Y-74116077D01*
X131915250Y-74643309D01*
X131914752Y-75214187D01*
X130946584Y-75214187D01*
X131003113Y-74930000D01*
X130893880Y-74380849D01*
X130582811Y-73915302D01*
X130117264Y-73604233D01*
X129568113Y-73495000D01*
X129511887Y-73495000D01*
X128962736Y-73604233D01*
X128497189Y-73915302D01*
X128186120Y-74380849D01*
X128076887Y-74930000D01*
X128186120Y-75479151D01*
X128497189Y-75944698D01*
X128780000Y-76133667D01*
X128780000Y-77470000D01*
X128837852Y-77760839D01*
X129002599Y-78007401D01*
X130245198Y-79250000D01*
X118110000Y-79250000D01*
X117867414Y-79298254D01*
X117819160Y-79307852D01*
X117603837Y-79451726D01*
X117527290Y-79375046D01*
X117632192Y-79270327D01*
X117774838Y-78926799D01*
X117775162Y-78554833D01*
X117633117Y-78211057D01*
X117527290Y-78105046D01*
X117632192Y-78000327D01*
X117774838Y-77656799D01*
X117775162Y-77284833D01*
X117633117Y-76941057D01*
X117370327Y-76677808D01*
X117026799Y-76535162D01*
X116654833Y-76534838D01*
X116311057Y-76676883D01*
X116277882Y-76710000D01*
X114862463Y-76710000D01*
X114830327Y-76677808D01*
X114486799Y-76535162D01*
X114114833Y-76534838D01*
X113771057Y-76676883D01*
X113507808Y-76939673D01*
X113365162Y-77283201D01*
X113364838Y-77655167D01*
X113506883Y-77998943D01*
X113612710Y-78104954D01*
X113507808Y-78209673D01*
X113365162Y-78553201D01*
X113364838Y-78925167D01*
X113506883Y-79268943D01*
X113612710Y-79374954D01*
X113507808Y-79479673D01*
X113365162Y-79823201D01*
X113364838Y-80195167D01*
X113506883Y-80538943D01*
X113769673Y-80802192D01*
X114113201Y-80944838D01*
X114485167Y-80945162D01*
X114828943Y-80803117D01*
X114862118Y-80770000D01*
X116275198Y-80770000D01*
X115893886Y-81151312D01*
X115570000Y-81086887D01*
X115020849Y-81196120D01*
X114555302Y-81507189D01*
X114300000Y-81889275D01*
X114044698Y-81507189D01*
X113579151Y-81196120D01*
X113030000Y-81086887D01*
X112480849Y-81196120D01*
X112015302Y-81507189D01*
X111760000Y-81889275D01*
X111504698Y-81507189D01*
X111039151Y-81196120D01*
X110490000Y-81086887D01*
X109940849Y-81196120D01*
X109475302Y-81507189D01*
X109220000Y-81889275D01*
X108964698Y-81507189D01*
X108499151Y-81196120D01*
X107950000Y-81086887D01*
X107400849Y-81196120D01*
X106935302Y-81507189D01*
X106624233Y-81972736D01*
X106515000Y-82521887D01*
X99745000Y-82521887D01*
X99745000Y-75214187D01*
X103974752Y-75214187D01*
X104192757Y-75741800D01*
X104596077Y-76145824D01*
X105123309Y-76364750D01*
X105694187Y-76365248D01*
X106221800Y-76147243D01*
X106625824Y-75743923D01*
X106844750Y-75216691D01*
X106845000Y-74930000D01*
X114106887Y-74930000D01*
X114216120Y-75479151D01*
X114527189Y-75944698D01*
X114992736Y-76255767D01*
X115541887Y-76365000D01*
X115598113Y-76365000D01*
X116147264Y-76255767D01*
X116612811Y-75944698D01*
X116923880Y-75479151D01*
X116976584Y-75214187D01*
X117944752Y-75214187D01*
X118162757Y-75741800D01*
X118566077Y-76145824D01*
X119093309Y-76364750D01*
X119664187Y-76365248D01*
X120191800Y-76147243D01*
X120595824Y-75743923D01*
X120814750Y-75216691D01*
X120815248Y-74645813D01*
X120597243Y-74118200D01*
X120193923Y-73714176D01*
X119666691Y-73495250D01*
X119095813Y-73494752D01*
X118568200Y-73712757D01*
X118164176Y-74116077D01*
X117945250Y-74643309D01*
X117944752Y-75214187D01*
X116976584Y-75214187D01*
X117033113Y-74930000D01*
X116923880Y-74380849D01*
X116612811Y-73915302D01*
X116147264Y-73604233D01*
X115598113Y-73495000D01*
X115541887Y-73495000D01*
X114992736Y-73604233D01*
X114527189Y-73915302D01*
X114216120Y-74380849D01*
X114106887Y-74930000D01*
X106845000Y-74930000D01*
X106845248Y-74645813D01*
X106627243Y-74118200D01*
X106223923Y-73714176D01*
X105696691Y-73495250D01*
X105125813Y-73494752D01*
X104598200Y-73712757D01*
X104194176Y-74116077D01*
X103975250Y-74643309D01*
X103974752Y-75214187D01*
X99745000Y-75214187D01*
X99745000Y-72517000D01*
X181461658Y-72517000D01*
X181433569Y-72558110D01*
M02*
