M48
;DRILL file {KiCad 4.0.6} date 05/15/17 22:09:31
;FORMAT={2:4/ absolute / inch / suppress leading zeros}
FMAT,2
INCH,TZ
T1C0.016
T2C0.031
T3C0.039
T4C0.043
%
G90
G05
M72
T1
X41500Y-44000
X42500Y-43500
X44000Y-43500
X45000Y-30500
X45000Y-31000
X45000Y-31500
X45000Y-45000
X45000Y-47000
X45500Y-39000
X45500Y-44000
X46000Y-30500
X46000Y-31000
X46000Y-31500
X46000Y-46000
X46000Y-46500
X46000Y-47000
X46000Y-50000
X46500Y-49500
X48000Y-37500
X50500Y-40500
X51000Y-40000
X51500Y-41000
X52000Y-39500
X53000Y-39000
X54000Y-38500
X54500Y-38500
X54500Y-50000
X55000Y-39000
X55000Y-50500
X55500Y-39500
X56000Y-49000
X57000Y-39000
X58000Y-36500
X58000Y-37000
X58000Y-37500
X58000Y-38000
X58000Y-50500
X59500Y-49000
X60000Y-49500
X60000Y-50500
X61000Y-41000
X61500Y-45500
X62000Y-45500
X62000Y-49000
X63000Y-33000
X63000Y-50500
X63500Y-44500
X63500Y-50500
X63500Y-51500
X64000Y-33500
X64000Y-44500
X64500Y-33500
X64500Y-41000
X64500Y-49000
X65000Y-33500
X65000Y-43000
X65000Y-44000
X65000Y-50500
X65500Y-43000
X66000Y-43000
X66000Y-51000
X67000Y-38000
X67500Y-29500
X68000Y-39000
X70500Y-29000
X71500Y-48500
X72000Y-48000
X72500Y-33500
X72500Y-48000
X73500Y-34000
X75000Y-34500
X75000Y-38000
X76000Y-35500
X77000Y-35000
T2
X41500Y-29500
X42500Y-32500
X42500Y-35500
X42500Y-40000
X42500Y-42000
X42500Y-48000
X42531Y-37500
X43500Y-32500
X43500Y-35500
X43500Y-42000
X43500Y-48000
X44469Y-40000
X44500Y-32500
X44500Y-35500
X44500Y-37500
X44500Y-42000
X44500Y-48000
X45500Y-29500
X45500Y-32500
X45500Y-35500
X45500Y-42000
X45500Y-48000
X46500Y-32500
X46500Y-35500
X46500Y-42000
X46500Y-48000
X47000Y-29500
X47500Y-32500
X47500Y-35500
X47500Y-42000
X47500Y-48000
X48500Y-32500
X48500Y-35500
X48500Y-42000
X48500Y-48000
X49500Y-32500
X49500Y-35500
X49500Y-42000
X49500Y-48000
X50500Y-32500
X50500Y-35500
X50500Y-42000
X50500Y-48000
X51000Y-29500
X51500Y-32500
X51500Y-35500
X51500Y-42000
X51500Y-48000
X52500Y-29500
X52500Y-32500
X52500Y-35500
X52500Y-42000
X52500Y-48000
X53500Y-32500
X53500Y-35500
X53500Y-42000
X53500Y-48000
X54500Y-32500
X54500Y-35500
X54500Y-42000
X54500Y-48000
X55500Y-32500
X55500Y-35500
X55500Y-42000
X55500Y-48000
X56500Y-29500
X56500Y-42000
X56500Y-48000
X57500Y-42000
X57500Y-48000
X58500Y-42000
X58500Y-48000
X59500Y-42000
X59500Y-48000
X60500Y-42000
X60500Y-48000
X61500Y-42000
X61500Y-48000
X63500Y-31000
X63500Y-37000
X64500Y-31000
X64500Y-37000
X65500Y-31000
X65500Y-37000
X66500Y-31000
X66500Y-37000
X66500Y-46500
X66500Y-49500
X67000Y-41500
X67000Y-44500
X67500Y-31000
X67500Y-37000
X67500Y-46500
X67500Y-49500
X68000Y-41500
X68000Y-44500
X68500Y-31000
X68500Y-37000
X68500Y-46500
X68500Y-49500
X69000Y-41500
X69000Y-44500
X69500Y-31000
X69500Y-37000
X69500Y-46500
X69500Y-49500
X70000Y-41500
X70000Y-44500
X70500Y-31000
X70500Y-37000
X70500Y-46500
X70500Y-49500
X71000Y-41500
X71000Y-44500
X71500Y-31000
X71500Y-37000
X71500Y-46500
X71500Y-49500
X72000Y-41500
X72000Y-44500
X72500Y-31000
X72500Y-37000
X72500Y-46500
X72500Y-49500
X73000Y-41500
X73000Y-44500
X73500Y-31000
X73500Y-37000
X73500Y-46500
X73500Y-49500
X74500Y-31000
X74500Y-37000
X75000Y-42000
X75000Y-43969
X75500Y-31000
X75500Y-37000
X75500Y-47000
X75500Y-48969
X76500Y-31000
X76500Y-37000
X77500Y-31000
X77500Y-37000
T3
X39500Y-52500
X40500Y-52500
X41500Y-52500
X42500Y-52500
X43500Y-52500
X44500Y-52500
X45500Y-52500
X46500Y-52500
X47500Y-52500
X48500Y-52500
X49500Y-52500
X50500Y-52500
X51500Y-52500
X52500Y-52500
X53500Y-52500
X54500Y-52500
X55500Y-52500
X56500Y-52500
X57500Y-52500
X58500Y-52500
X59500Y-52500
X60500Y-52500
X61500Y-52500
X62500Y-52500
X63500Y-52500
X64500Y-52500
X65500Y-52500
X66500Y-52500
X67500Y-52500
X68500Y-52500
X69500Y-52500
X70500Y-52500
X71500Y-52500
X72000Y-28000
X72000Y-29000
X72500Y-52500
X73500Y-52500
X74500Y-52500
X75500Y-52500
X76500Y-52500
X77500Y-39500
X77500Y-40500
X77500Y-41500
X77500Y-42500
X77500Y-43500
X77500Y-52500
T4
X74500Y-27500
X74500Y-29272
X77059Y-27500
X77059Y-29272
T0
M30
