G04 #@! TF.FileFunction,Copper,L1,Top,Signal*
%FSLAX46Y46*%
G04 Gerber Fmt 4.6, Leading zero omitted, Abs format (unit mm)*
G04 Created by KiCad (PCBNEW 4.0.6) date 06/14/17 01:07:24*
%MOMM*%
%LPD*%
G01*
G04 APERTURE LIST*
%ADD10C,0.100000*%
%ADD11R,1.727200X1.727200*%
%ADD12O,1.727200X1.727200*%
%ADD13C,1.600000*%
%ADD14R,1.700000X1.700000*%
%ADD15O,1.700000X1.700000*%
%ADD16R,1.600000X1.600000*%
%ADD17O,1.600000X1.600000*%
%ADD18C,2.000000*%
%ADD19C,0.600000*%
%ADD20C,0.250000*%
G04 APERTURE END LIST*
D10*
D11*
X106680000Y-124460000D03*
D12*
X104140000Y-124460000D03*
X106680000Y-121920000D03*
X104140000Y-121920000D03*
X106680000Y-119380000D03*
X104140000Y-119380000D03*
X106680000Y-116840000D03*
X104140000Y-116840000D03*
X106680000Y-114300000D03*
X104140000Y-114300000D03*
X106680000Y-111760000D03*
X104140000Y-111760000D03*
X106680000Y-109220000D03*
X104140000Y-109220000D03*
X106680000Y-106680000D03*
X104140000Y-106680000D03*
X106680000Y-104140000D03*
X104140000Y-104140000D03*
X106680000Y-101600000D03*
X104140000Y-101600000D03*
X106680000Y-99060000D03*
X104140000Y-99060000D03*
X106680000Y-96520000D03*
X104140000Y-96520000D03*
X106680000Y-93980000D03*
X104140000Y-93980000D03*
X106680000Y-91440000D03*
X104140000Y-91440000D03*
X106680000Y-88900000D03*
X104140000Y-88900000D03*
X106680000Y-86360000D03*
X104140000Y-86360000D03*
X106680000Y-83820000D03*
X104140000Y-83820000D03*
X106680000Y-81280000D03*
X104140000Y-81280000D03*
X106680000Y-78740000D03*
X104140000Y-78740000D03*
X106680000Y-76200000D03*
X104140000Y-76200000D03*
D13*
X156210000Y-107315000D03*
X161210000Y-107315000D03*
X141605000Y-115570000D03*
X141605000Y-120570000D03*
X178435000Y-107315000D03*
X183435000Y-107315000D03*
X145415000Y-115570000D03*
X145415000Y-120570000D03*
D14*
X196850000Y-133350000D03*
D15*
X194310000Y-133350000D03*
X191770000Y-133350000D03*
X189230000Y-133350000D03*
X186690000Y-133350000D03*
X184150000Y-133350000D03*
X181610000Y-133350000D03*
X179070000Y-133350000D03*
X176530000Y-133350000D03*
X173990000Y-133350000D03*
X171450000Y-133350000D03*
X168910000Y-133350000D03*
X166370000Y-133350000D03*
X163830000Y-133350000D03*
X161290000Y-133350000D03*
X158750000Y-133350000D03*
X156210000Y-133350000D03*
X153670000Y-133350000D03*
X151130000Y-133350000D03*
X148590000Y-133350000D03*
X146050000Y-133350000D03*
X143510000Y-133350000D03*
X140970000Y-133350000D03*
X138430000Y-133350000D03*
X135890000Y-133350000D03*
X133350000Y-133350000D03*
X130810000Y-133350000D03*
X128270000Y-133350000D03*
X125730000Y-133350000D03*
X123190000Y-133350000D03*
X120650000Y-133350000D03*
X118110000Y-133350000D03*
X115570000Y-133350000D03*
X113030000Y-133350000D03*
X110490000Y-133350000D03*
X107950000Y-133350000D03*
X105410000Y-133350000D03*
X102870000Y-133350000D03*
X100330000Y-133350000D03*
D16*
X161290000Y-92710000D03*
D17*
X194310000Y-77470000D03*
X163830000Y-92710000D03*
X191770000Y-77470000D03*
X166370000Y-92710000D03*
X189230000Y-77470000D03*
X168910000Y-92710000D03*
X186690000Y-77470000D03*
X171450000Y-92710000D03*
X184150000Y-77470000D03*
X173990000Y-92710000D03*
X181610000Y-77470000D03*
X176530000Y-92710000D03*
X179070000Y-77470000D03*
X179070000Y-92710000D03*
X176530000Y-77470000D03*
X181610000Y-92710000D03*
X173990000Y-77470000D03*
X184150000Y-92710000D03*
X171450000Y-77470000D03*
X186690000Y-92710000D03*
X168910000Y-77470000D03*
X189230000Y-92710000D03*
X166370000Y-77470000D03*
X191770000Y-92710000D03*
X163830000Y-77470000D03*
X194310000Y-92710000D03*
X161290000Y-77470000D03*
X196850000Y-92710000D03*
X196850000Y-77470000D03*
D14*
X185420000Y-73660000D03*
D15*
X185420000Y-71120000D03*
D13*
X166370000Y-88900000D03*
D17*
X176530000Y-88900000D03*
D13*
X179070000Y-88900000D03*
D17*
X189230000Y-88900000D03*
D13*
X179070000Y-85090000D03*
D17*
X189230000Y-85090000D03*
D18*
X189865000Y-74985000D03*
X189865000Y-70485000D03*
X196365000Y-74985000D03*
X196365000Y-70485000D03*
D16*
X156210000Y-120015000D03*
D17*
X171450000Y-112395000D03*
X158750000Y-120015000D03*
X168910000Y-112395000D03*
X161290000Y-120015000D03*
X166370000Y-112395000D03*
X163830000Y-120015000D03*
X163830000Y-112395000D03*
X166370000Y-120015000D03*
X161290000Y-112395000D03*
X168910000Y-120015000D03*
X158750000Y-112395000D03*
X171450000Y-120015000D03*
X156210000Y-112395000D03*
D16*
X115570000Y-72390000D03*
D17*
X130810000Y-120650000D03*
X115570000Y-74930000D03*
X130810000Y-118110000D03*
X115570000Y-77470000D03*
X130810000Y-115570000D03*
X115570000Y-80010000D03*
X130810000Y-113030000D03*
X115570000Y-82550000D03*
X130810000Y-110490000D03*
X115570000Y-85090000D03*
X130810000Y-107950000D03*
X115570000Y-87630000D03*
X130810000Y-105410000D03*
X115570000Y-90170000D03*
X130810000Y-102870000D03*
X115570000Y-92710000D03*
X130810000Y-100330000D03*
X115570000Y-95250000D03*
X130810000Y-97790000D03*
X115570000Y-97790000D03*
X130810000Y-95250000D03*
X115570000Y-100330000D03*
X130810000Y-92710000D03*
X115570000Y-102870000D03*
X130810000Y-90170000D03*
X115570000Y-105410000D03*
X130810000Y-87630000D03*
X115570000Y-107950000D03*
X130810000Y-85090000D03*
X115570000Y-110490000D03*
X130810000Y-82550000D03*
X115570000Y-113030000D03*
X130810000Y-80010000D03*
X115570000Y-115570000D03*
X130810000Y-77470000D03*
X115570000Y-118110000D03*
X130810000Y-74930000D03*
X115570000Y-120650000D03*
X130810000Y-72390000D03*
D16*
X178435000Y-120015000D03*
D17*
X196215000Y-112395000D03*
X180975000Y-120015000D03*
X193675000Y-112395000D03*
X183515000Y-120015000D03*
X191135000Y-112395000D03*
X186055000Y-120015000D03*
X188595000Y-112395000D03*
X188595000Y-120015000D03*
X186055000Y-112395000D03*
X191135000Y-120015000D03*
X183515000Y-112395000D03*
X193675000Y-120015000D03*
X180975000Y-112395000D03*
X196215000Y-120015000D03*
X178435000Y-112395000D03*
D16*
X141605000Y-72390000D03*
D17*
X149225000Y-105410000D03*
X141605000Y-74930000D03*
X149225000Y-102870000D03*
X141605000Y-77470000D03*
X149225000Y-100330000D03*
X141605000Y-80010000D03*
X149225000Y-97790000D03*
X141605000Y-82550000D03*
X149225000Y-95250000D03*
X141605000Y-85090000D03*
X149225000Y-92710000D03*
X141605000Y-87630000D03*
X149225000Y-90170000D03*
X141605000Y-90170000D03*
X149225000Y-87630000D03*
X141605000Y-92710000D03*
X149225000Y-85090000D03*
X141605000Y-95250000D03*
X149225000Y-82550000D03*
X141605000Y-97790000D03*
X149225000Y-80010000D03*
X141605000Y-100330000D03*
X149225000Y-77470000D03*
X141605000Y-102870000D03*
X149225000Y-74930000D03*
X141605000Y-105410000D03*
X149225000Y-72390000D03*
D14*
X196850000Y-95885000D03*
D15*
X196850000Y-98425000D03*
X196850000Y-100965000D03*
X196850000Y-103505000D03*
X196850000Y-106045000D03*
X196850000Y-108585000D03*
D13*
X166370000Y-81280000D03*
D17*
X176530000Y-81280000D03*
D13*
X189230000Y-81280000D03*
D17*
X179070000Y-81280000D03*
D13*
X149225000Y-115570000D03*
X149225000Y-120570000D03*
D16*
X160020000Y-88900000D03*
D17*
X160020000Y-81280000D03*
D19*
X145415000Y-104775000D03*
X145415000Y-95885000D03*
X123190000Y-113030000D03*
X128905000Y-113030000D03*
X156210000Y-95250000D03*
X156210000Y-105410000D03*
X173990000Y-103505000D03*
X151130000Y-113665000D03*
X128905000Y-111760000D03*
X144145000Y-111760000D03*
X146685000Y-111760000D03*
X123190000Y-111760000D03*
X153670000Y-127000000D03*
X138430000Y-127000000D03*
X153670000Y-129540000D03*
X142875000Y-129540000D03*
X135890000Y-114935000D03*
X135890000Y-109855000D03*
X134620000Y-93980000D03*
X155575000Y-130175000D03*
X142875000Y-128270000D03*
X137160000Y-114935000D03*
X137160000Y-109855000D03*
X135255000Y-94615000D03*
X151130000Y-130810000D03*
X146685000Y-110490000D03*
X144145000Y-110490000D03*
X134620000Y-114935000D03*
X134620000Y-109855000D03*
X133985000Y-93345000D03*
X124460000Y-90170000D03*
X123825000Y-92075000D03*
X123825000Y-125095000D03*
X123825000Y-114935000D03*
X122555000Y-125095000D03*
X122555000Y-116840000D03*
X121285000Y-125095000D03*
X121285000Y-118110000D03*
X120015000Y-125095000D03*
X120015000Y-119380000D03*
X118745000Y-125095000D03*
X118745000Y-120650000D03*
X117475000Y-125095000D03*
X117475000Y-121920000D03*
X116205000Y-125095000D03*
X116205000Y-123190000D03*
X157480000Y-92075000D03*
X154940000Y-89535000D03*
X118110000Y-74295000D03*
X113030000Y-73660000D03*
X190500000Y-96520000D03*
X194310000Y-99060000D03*
X194945000Y-101600000D03*
X193040000Y-96520000D03*
X193040000Y-95250000D03*
X149860000Y-117475000D03*
X144780000Y-117475000D03*
X142240000Y-117475000D03*
X137795000Y-116840000D03*
X146685000Y-116840000D03*
X150495000Y-116840000D03*
X153670000Y-116840000D03*
X165735000Y-116840000D03*
X161925000Y-116840000D03*
X117475000Y-90805000D03*
X128905000Y-90805000D03*
X114300000Y-96520000D03*
X132715000Y-92075000D03*
X132715000Y-89535000D03*
X113665000Y-99695000D03*
X117475000Y-88265000D03*
X128905000Y-88265000D03*
X113030000Y-102870000D03*
X132715000Y-86995000D03*
X128905000Y-85725000D03*
X117475000Y-85725000D03*
X112395000Y-106045000D03*
X132715000Y-84455000D03*
X128905000Y-83185000D03*
X117475000Y-83185000D03*
X111760000Y-109220000D03*
X132715000Y-81915000D03*
X128905000Y-80645000D03*
X117475000Y-80645000D03*
X111125000Y-112395000D03*
X132715000Y-79375000D03*
X128905000Y-78105000D03*
X117475000Y-78105000D03*
X110490000Y-115570000D03*
X132715000Y-76835000D03*
X128905000Y-75565000D03*
X117475000Y-75565000D03*
X153670000Y-123825000D03*
X162560000Y-106045000D03*
X111760000Y-130175000D03*
X153670000Y-125095000D03*
X165100000Y-106045000D03*
X154305000Y-77470000D03*
X154305000Y-74930000D03*
X154940000Y-90805000D03*
X156845000Y-92710000D03*
X156845000Y-93980000D03*
X171450000Y-82550000D03*
X172720000Y-70485000D03*
X164465000Y-70485000D03*
X165735000Y-70485000D03*
X155575000Y-94615000D03*
X162560000Y-78740000D03*
X159385000Y-78740000D03*
X154940000Y-97155000D03*
X170180000Y-78740000D03*
X150495000Y-118110000D03*
X153670000Y-118110000D03*
D20*
X172720000Y-113030000D02*
X172720000Y-113665000D01*
X145415000Y-93345000D02*
X145415000Y-95885000D01*
X145415000Y-93345000D02*
X144780000Y-92710000D01*
X141605000Y-92710000D02*
X144780000Y-92710000D01*
X145415000Y-104775000D02*
X145415000Y-115570000D01*
X130175000Y-114300000D02*
X128905000Y-113030000D01*
X123190000Y-113030000D02*
X115570000Y-120650000D01*
X156210000Y-107315000D02*
X156210000Y-105410000D01*
X158750000Y-88900000D02*
X156210000Y-91440000D01*
X158750000Y-88900000D02*
X160020000Y-88900000D01*
X156210000Y-95250000D02*
X156210000Y-91440000D01*
X160020000Y-88900000D02*
X160655000Y-89535000D01*
X160655000Y-89535000D02*
X161925000Y-89535000D01*
X177800000Y-80645000D02*
X177800000Y-80010000D01*
X177800000Y-80010000D02*
X177165000Y-79375000D01*
X177165000Y-79375000D02*
X168275000Y-79375000D01*
X163830000Y-79375000D02*
X168275000Y-79375000D01*
X163195000Y-80010000D02*
X163830000Y-79375000D01*
X163195000Y-88265000D02*
X163195000Y-80010000D01*
X161925000Y-89535000D02*
X163195000Y-88265000D01*
X177800000Y-80645000D02*
X177165000Y-80645000D01*
X177165000Y-80645000D02*
X176530000Y-81280000D01*
X179070000Y-81280000D02*
X178435000Y-80645000D01*
X178435000Y-80645000D02*
X177800000Y-80645000D01*
X179070000Y-85090000D02*
X178435000Y-84455000D01*
X178435000Y-84455000D02*
X177800000Y-84455000D01*
X177800000Y-88265000D02*
X178435000Y-88265000D01*
X178435000Y-88265000D02*
X179070000Y-88900000D01*
X177800000Y-88265000D02*
X177165000Y-88265000D01*
X177165000Y-88265000D02*
X176530000Y-88900000D01*
X177800000Y-81280000D02*
X177800000Y-84455000D01*
X177800000Y-84455000D02*
X177800000Y-85090000D01*
X177800000Y-85090000D02*
X177800000Y-88265000D01*
X177800000Y-81280000D02*
X177800000Y-80645000D01*
X178435000Y-107315000D02*
X180340000Y-109220000D01*
X196215000Y-109220000D02*
X196850000Y-108585000D01*
X180340000Y-109220000D02*
X196215000Y-109220000D01*
X133985000Y-114300000D02*
X133350000Y-114300000D01*
X130175000Y-114300000D02*
X133350000Y-114300000D01*
X156210000Y-107315000D02*
X153035000Y-110490000D01*
X153035000Y-110490000D02*
X153035000Y-131445000D01*
X156210000Y-107315000D02*
X158115000Y-105410000D01*
X176530000Y-105410000D02*
X178435000Y-107315000D01*
X158115000Y-105410000D02*
X176530000Y-105410000D01*
X178435000Y-112395000D02*
X178435000Y-107315000D01*
X156210000Y-107315000D02*
X156210000Y-112395000D01*
X143510000Y-117475000D02*
X141605000Y-115570000D01*
X153670000Y-132080000D02*
X153670000Y-133350000D01*
X153035000Y-131445000D02*
X153670000Y-132080000D01*
X144780000Y-131445000D02*
X153035000Y-131445000D01*
X143510000Y-117475000D02*
X143510000Y-130175000D01*
X143510000Y-130175000D02*
X144780000Y-131445000D01*
X130810000Y-113030000D02*
X132715000Y-113030000D01*
X133350000Y-113665000D02*
X133985000Y-114300000D01*
X132715000Y-113030000D02*
X133350000Y-113665000D01*
X140970000Y-114300000D02*
X141605000Y-114935000D01*
X133985000Y-114300000D02*
X140970000Y-114300000D01*
X141605000Y-114935000D02*
X141605000Y-115570000D01*
X145415000Y-115570000D02*
X143510000Y-117475000D01*
X157480000Y-104140000D02*
X154940000Y-104140000D01*
X173355000Y-104140000D02*
X173990000Y-103505000D01*
X157480000Y-104140000D02*
X173355000Y-104140000D01*
X151130000Y-107950000D02*
X151130000Y-109220000D01*
X154940000Y-104140000D02*
X151130000Y-107950000D01*
X151130000Y-109220000D02*
X151130000Y-113665000D01*
X115570000Y-113030000D02*
X116840000Y-111760000D01*
X144145000Y-111760000D02*
X128905000Y-111760000D01*
X149225000Y-114300000D02*
X146685000Y-111760000D01*
X149225000Y-114300000D02*
X149225000Y-115570000D01*
X123190000Y-111760000D02*
X116840000Y-111760000D01*
X115570000Y-113030000D02*
X106680000Y-121920000D01*
X196215000Y-130810000D02*
X196850000Y-131445000D01*
X196850000Y-131445000D02*
X196850000Y-132080000D01*
X196215000Y-130810000D02*
X191135000Y-125730000D01*
X191135000Y-120015000D02*
X191135000Y-125730000D01*
X196850000Y-132080000D02*
X196850000Y-133350000D01*
X194310000Y-133350000D02*
X194310000Y-131445000D01*
X194310000Y-131445000D02*
X183515000Y-120650000D01*
X183515000Y-120650000D02*
X183515000Y-120015000D01*
X191770000Y-133350000D02*
X191770000Y-131445000D01*
X191770000Y-131445000D02*
X180975000Y-120650000D01*
X180975000Y-120650000D02*
X180975000Y-120015000D01*
X189230000Y-133350000D02*
X189230000Y-131445000D01*
X189230000Y-131445000D02*
X178435000Y-120650000D01*
X178435000Y-120650000D02*
X178435000Y-120015000D01*
X168275000Y-132715000D02*
X168275000Y-129540000D01*
X168275000Y-129540000D02*
X167640000Y-128905000D01*
X167640000Y-128905000D02*
X155575000Y-128905000D01*
X155575000Y-128905000D02*
X153670000Y-127000000D01*
X168910000Y-133350000D02*
X168275000Y-132715000D01*
X132715000Y-120015000D02*
X130810000Y-118110000D01*
X132715000Y-121285000D02*
X132715000Y-120015000D01*
X138430000Y-127000000D02*
X132715000Y-121285000D01*
X160655000Y-132715000D02*
X161290000Y-133350000D01*
X160655000Y-130175000D02*
X160655000Y-132715000D01*
X160020000Y-129540000D02*
X160655000Y-130175000D01*
X153670000Y-129540000D02*
X160020000Y-129540000D01*
X139700000Y-126365000D02*
X142875000Y-129540000D01*
X139700000Y-121920000D02*
X139700000Y-126365000D01*
X135890000Y-118110000D02*
X139700000Y-121920000D01*
X135890000Y-114935000D02*
X135890000Y-118110000D01*
X134620000Y-108585000D02*
X135890000Y-109855000D01*
X134620000Y-93980000D02*
X134620000Y-108585000D01*
X158750000Y-130810000D02*
X158750000Y-133350000D01*
X158115000Y-130175000D02*
X158750000Y-130810000D01*
X155575000Y-130175000D02*
X158115000Y-130175000D01*
X140335000Y-125730000D02*
X142875000Y-128270000D01*
X140335000Y-121285000D02*
X140335000Y-125730000D01*
X137160000Y-118110000D02*
X140335000Y-121285000D01*
X137160000Y-114935000D02*
X137160000Y-118110000D01*
X135255000Y-107950000D02*
X137160000Y-109855000D01*
X135255000Y-94615000D02*
X135255000Y-107950000D01*
X130810000Y-110490000D02*
X144145000Y-110490000D01*
X151130000Y-114935000D02*
X151130000Y-130810000D01*
X146685000Y-110490000D02*
X151130000Y-114935000D01*
X148590000Y-133350000D02*
X148590000Y-132715000D01*
X148590000Y-132715000D02*
X147955000Y-132080000D01*
X147955000Y-132080000D02*
X144145000Y-132080000D01*
X144145000Y-132080000D02*
X139065000Y-127000000D01*
X139065000Y-127000000D02*
X139065000Y-122555000D01*
X139065000Y-122555000D02*
X134620000Y-118110000D01*
X134620000Y-118110000D02*
X134620000Y-114935000D01*
X134620000Y-109855000D02*
X133985000Y-109220000D01*
X133985000Y-109220000D02*
X133985000Y-93345000D01*
X123825000Y-111125000D02*
X123825000Y-114935000D01*
X123825000Y-92075000D02*
X123825000Y-111125000D01*
X130810000Y-90170000D02*
X124460000Y-90170000D01*
X123825000Y-127000000D02*
X130175000Y-133350000D01*
X123825000Y-125095000D02*
X123825000Y-127000000D01*
X130175000Y-133350000D02*
X130810000Y-133350000D01*
X123190000Y-116205000D02*
X123825000Y-116205000D01*
X123825000Y-116205000D02*
X124460000Y-115570000D01*
X122555000Y-127635000D02*
X123825000Y-128905000D01*
X122555000Y-125095000D02*
X122555000Y-127635000D01*
X123190000Y-116205000D02*
X122555000Y-116840000D01*
X128270000Y-133350000D02*
X123825000Y-128905000D01*
X125095000Y-92710000D02*
X130810000Y-92710000D01*
X124460000Y-93345000D02*
X125095000Y-92710000D01*
X124460000Y-115570000D02*
X124460000Y-93345000D01*
X123190000Y-117475000D02*
X121920000Y-117475000D01*
X121285000Y-128905000D02*
X122555000Y-130175000D01*
X121285000Y-125095000D02*
X121285000Y-128905000D01*
X121920000Y-117475000D02*
X121285000Y-118110000D01*
X125730000Y-133350000D02*
X122555000Y-130175000D01*
X125730000Y-95250000D02*
X130810000Y-95250000D01*
X125095000Y-95885000D02*
X125730000Y-95250000D01*
X125095000Y-116840000D02*
X125095000Y-95885000D01*
X124460000Y-117475000D02*
X125095000Y-116840000D01*
X123190000Y-117475000D02*
X124460000Y-117475000D01*
X121920000Y-118745000D02*
X120650000Y-118745000D01*
X120015000Y-129540000D02*
X121285000Y-130810000D01*
X120015000Y-125095000D02*
X120015000Y-129540000D01*
X120650000Y-118745000D02*
X120015000Y-119380000D01*
X123190000Y-133350000D02*
X123190000Y-132715000D01*
X123190000Y-132715000D02*
X121285000Y-130810000D01*
X121920000Y-118745000D02*
X125095000Y-118745000D01*
X125095000Y-118745000D02*
X125730000Y-118110000D01*
X125730000Y-118110000D02*
X125730000Y-98425000D01*
X125730000Y-98425000D02*
X126365000Y-97790000D01*
X126365000Y-97790000D02*
X130810000Y-97790000D01*
X120650000Y-120015000D02*
X119380000Y-120015000D01*
X118745000Y-130810000D02*
X120015000Y-132080000D01*
X118745000Y-125095000D02*
X118745000Y-130810000D01*
X119380000Y-120015000D02*
X118745000Y-120650000D01*
X120650000Y-133350000D02*
X120650000Y-132715000D01*
X120650000Y-132715000D02*
X120015000Y-132080000D01*
X130810000Y-100330000D02*
X127000000Y-100330000D01*
X125730000Y-120015000D02*
X120650000Y-120015000D01*
X126365000Y-119380000D02*
X125730000Y-120015000D01*
X126365000Y-100965000D02*
X126365000Y-119380000D01*
X127000000Y-100330000D02*
X126365000Y-100965000D01*
X119380000Y-121285000D02*
X118110000Y-121285000D01*
X116840000Y-132080000D02*
X118110000Y-133350000D01*
X116840000Y-125730000D02*
X116840000Y-132080000D01*
X117475000Y-125095000D02*
X116840000Y-125730000D01*
X118110000Y-121285000D02*
X117475000Y-121920000D01*
X119380000Y-121285000D02*
X123825000Y-121285000D01*
X127635000Y-102870000D02*
X130810000Y-102870000D01*
X123825000Y-121285000D02*
X126365000Y-121285000D01*
X126365000Y-121285000D02*
X127000000Y-120650000D01*
X127000000Y-120650000D02*
X127000000Y-103505000D01*
X127000000Y-103505000D02*
X127635000Y-102870000D01*
X118110000Y-122555000D02*
X116840000Y-122555000D01*
X115570000Y-125730000D02*
X115570000Y-127000000D01*
X116205000Y-125095000D02*
X115570000Y-125730000D01*
X116840000Y-122555000D02*
X116205000Y-123190000D01*
X118110000Y-122555000D02*
X120015000Y-122555000D01*
X123190000Y-122555000D02*
X127000000Y-122555000D01*
X120015000Y-122555000D02*
X123190000Y-122555000D01*
X127635000Y-106045000D02*
X128270000Y-105410000D01*
X127635000Y-118110000D02*
X127635000Y-106045000D01*
X128270000Y-105410000D02*
X130810000Y-105410000D01*
X127000000Y-122555000D02*
X127635000Y-121920000D01*
X127635000Y-121920000D02*
X127635000Y-118110000D01*
X115570000Y-133350000D02*
X115570000Y-127000000D01*
X115570000Y-133350000D02*
X115570000Y-132080000D01*
X128270000Y-118745000D02*
X128270000Y-123190000D01*
X127635000Y-123825000D02*
X123190000Y-123825000D01*
X128270000Y-123190000D02*
X127635000Y-123825000D01*
X113030000Y-133350000D02*
X113030000Y-127000000D01*
X128905000Y-107950000D02*
X130810000Y-107950000D01*
X128270000Y-108585000D02*
X128905000Y-107950000D01*
X128270000Y-118745000D02*
X128270000Y-108585000D01*
X116205000Y-123825000D02*
X123190000Y-123825000D01*
X113030000Y-127000000D02*
X116205000Y-123825000D01*
X113030000Y-133350000D02*
X113030000Y-132080000D01*
X154940000Y-89535000D02*
X154940000Y-76835000D01*
X171450000Y-92710000D02*
X170180000Y-93980000D01*
X170180000Y-93980000D02*
X159385000Y-93980000D01*
X159385000Y-93980000D02*
X157480000Y-92075000D01*
X139065000Y-74930000D02*
X130810000Y-74930000D01*
X140335000Y-73660000D02*
X139065000Y-74930000D01*
X151765000Y-73660000D02*
X140335000Y-73660000D01*
X154940000Y-76835000D02*
X151765000Y-73660000D01*
X106680000Y-78740000D02*
X107950000Y-78740000D01*
X129540000Y-74295000D02*
X130175000Y-74930000D01*
X118110000Y-74295000D02*
X129540000Y-74295000D01*
X107950000Y-78740000D02*
X113030000Y-73660000D01*
X130175000Y-74930000D02*
X130810000Y-74930000D01*
X189230000Y-88900000D02*
X189230000Y-92710000D01*
X189230000Y-92710000D02*
X189230000Y-93980000D01*
X191135000Y-95885000D02*
X196850000Y-95885000D01*
X189230000Y-93980000D02*
X191135000Y-95885000D01*
X168910000Y-77470000D02*
X168910000Y-76200000D01*
X171450000Y-73660000D02*
X185420000Y-73660000D01*
X168910000Y-76200000D02*
X171450000Y-73660000D01*
X144145000Y-96520000D02*
X146685000Y-96520000D01*
X172720000Y-96520000D02*
X175260000Y-96520000D01*
X142875000Y-97790000D02*
X144145000Y-96520000D01*
X146685000Y-96520000D02*
X154940000Y-96520000D01*
X157480000Y-96520000D02*
X172720000Y-96520000D01*
X175260000Y-96520000D02*
X190500000Y-96520000D01*
X142875000Y-97790000D02*
X141605000Y-97790000D01*
X154940000Y-96520000D02*
X157480000Y-96520000D01*
X189230000Y-85090000D02*
X189865000Y-85090000D01*
X189865000Y-85090000D02*
X191770000Y-86995000D01*
X191770000Y-86995000D02*
X191770000Y-92710000D01*
X144145000Y-101600000D02*
X146685000Y-101600000D01*
X194310000Y-100330000D02*
X193040000Y-101600000D01*
X175260000Y-101600000D02*
X193040000Y-101600000D01*
X157480000Y-101600000D02*
X172720000Y-101600000D01*
X172720000Y-101600000D02*
X175260000Y-101600000D01*
X142875000Y-102870000D02*
X144145000Y-101600000D01*
X142875000Y-102870000D02*
X141605000Y-102870000D01*
X154940000Y-101600000D02*
X146685000Y-101600000D01*
X154940000Y-101600000D02*
X157480000Y-101600000D01*
X194945000Y-100965000D02*
X196850000Y-100965000D01*
X194310000Y-100330000D02*
X194945000Y-100965000D01*
X194310000Y-99060000D02*
X194310000Y-100330000D01*
X144145000Y-104140000D02*
X146685000Y-104140000D01*
X144145000Y-104140000D02*
X142875000Y-105410000D01*
X141605000Y-105410000D02*
X142875000Y-105410000D01*
X153035000Y-104140000D02*
X146685000Y-104140000D01*
X154305000Y-102870000D02*
X153035000Y-104140000D01*
X157480000Y-102870000D02*
X154940000Y-102870000D01*
X172720000Y-102870000D02*
X175260000Y-102870000D01*
X172720000Y-102870000D02*
X157480000Y-102870000D01*
X175260000Y-102870000D02*
X194945000Y-102870000D01*
X154940000Y-102870000D02*
X154305000Y-102870000D01*
X195580000Y-103505000D02*
X196850000Y-103505000D01*
X194945000Y-102870000D02*
X195580000Y-103505000D01*
X194945000Y-101600000D02*
X194945000Y-102870000D01*
X144145000Y-99060000D02*
X146685000Y-99060000D01*
X172720000Y-99060000D02*
X175260000Y-99060000D01*
X193675000Y-99060000D02*
X175260000Y-99060000D01*
X172720000Y-99060000D02*
X157480000Y-99060000D01*
X154940000Y-99060000D02*
X146685000Y-99060000D01*
X144145000Y-99060000D02*
X142875000Y-100330000D01*
X141605000Y-100330000D02*
X142875000Y-100330000D01*
X193675000Y-99060000D02*
X193675000Y-97155000D01*
X157480000Y-99060000D02*
X154940000Y-99060000D01*
X196850000Y-77470000D02*
X196850000Y-78740000D01*
X194945000Y-98425000D02*
X196850000Y-98425000D01*
X193040000Y-96520000D02*
X193675000Y-97155000D01*
X193675000Y-97155000D02*
X194945000Y-98425000D01*
X193040000Y-82550000D02*
X193040000Y-95250000D01*
X196850000Y-78740000D02*
X193040000Y-82550000D01*
X144780000Y-117475000D02*
X149860000Y-117475000D01*
X138430000Y-117475000D02*
X142240000Y-117475000D01*
X137795000Y-116840000D02*
X138430000Y-117475000D01*
X141605000Y-72390000D02*
X140335000Y-72390000D01*
X139065000Y-73660000D02*
X135255000Y-73660000D01*
X140335000Y-72390000D02*
X139065000Y-73660000D01*
X115570000Y-74930000D02*
X116205000Y-74930000D01*
X116205000Y-74930000D02*
X117475000Y-73660000D01*
X117475000Y-73660000D02*
X135255000Y-73660000D01*
X106680000Y-81280000D02*
X113030000Y-74930000D01*
X113030000Y-74930000D02*
X115570000Y-74930000D01*
X141605000Y-74930000D02*
X140335000Y-74930000D01*
X139065000Y-76200000D02*
X135255000Y-76200000D01*
X140335000Y-74930000D02*
X139065000Y-76200000D01*
X115570000Y-77470000D02*
X116205000Y-77470000D01*
X116205000Y-77470000D02*
X117475000Y-76200000D01*
X117475000Y-76200000D02*
X135255000Y-76200000D01*
X106680000Y-83820000D02*
X113030000Y-77470000D01*
X113030000Y-77470000D02*
X115570000Y-77470000D01*
X155575000Y-116840000D02*
X161925000Y-116840000D01*
X146685000Y-116840000D02*
X150495000Y-116840000D01*
X153670000Y-116840000D02*
X155575000Y-116840000D01*
X193675000Y-114935000D02*
X193675000Y-112395000D01*
X191770000Y-116840000D02*
X193675000Y-114935000D01*
X165735000Y-116840000D02*
X191770000Y-116840000D01*
X141605000Y-77470000D02*
X140335000Y-77470000D01*
X139065000Y-78740000D02*
X135255000Y-78740000D01*
X140335000Y-77470000D02*
X139065000Y-78740000D01*
X115570000Y-80010000D02*
X116205000Y-80010000D01*
X116205000Y-80010000D02*
X117475000Y-78740000D01*
X117475000Y-78740000D02*
X132080000Y-78740000D01*
X132080000Y-78740000D02*
X135255000Y-78740000D01*
X106680000Y-86360000D02*
X113030000Y-80010000D01*
X113030000Y-80010000D02*
X115570000Y-80010000D01*
X141605000Y-80010000D02*
X140335000Y-80010000D01*
X139065000Y-81280000D02*
X135255000Y-81280000D01*
X140335000Y-80010000D02*
X139065000Y-81280000D01*
X115570000Y-82550000D02*
X116205000Y-82550000D01*
X116205000Y-82550000D02*
X117475000Y-81280000D01*
X117475000Y-81280000D02*
X135255000Y-81280000D01*
X106680000Y-88900000D02*
X113030000Y-82550000D01*
X113030000Y-82550000D02*
X115570000Y-82550000D01*
X141605000Y-82550000D02*
X140335000Y-82550000D01*
X139065000Y-83820000D02*
X135255000Y-83820000D01*
X140335000Y-82550000D02*
X139065000Y-83820000D01*
X115570000Y-85090000D02*
X116205000Y-85090000D01*
X116205000Y-85090000D02*
X117475000Y-83820000D01*
X117475000Y-83820000D02*
X135255000Y-83820000D01*
X106680000Y-91440000D02*
X113030000Y-85090000D01*
X113030000Y-85090000D02*
X115570000Y-85090000D01*
X141605000Y-85090000D02*
X140335000Y-85090000D01*
X139065000Y-86360000D02*
X135255000Y-86360000D01*
X140335000Y-85090000D02*
X139065000Y-86360000D01*
X115570000Y-87630000D02*
X116205000Y-87630000D01*
X116205000Y-87630000D02*
X117475000Y-86360000D01*
X117475000Y-86360000D02*
X135255000Y-86360000D01*
X106680000Y-93980000D02*
X113030000Y-87630000D01*
X113030000Y-87630000D02*
X115570000Y-87630000D01*
X141605000Y-87630000D02*
X140335000Y-87630000D01*
X139065000Y-88900000D02*
X135255000Y-88900000D01*
X140335000Y-87630000D02*
X139065000Y-88900000D01*
X115570000Y-90170000D02*
X116205000Y-90170000D01*
X116205000Y-90170000D02*
X117475000Y-88900000D01*
X117475000Y-88900000D02*
X135255000Y-88900000D01*
X106680000Y-96520000D02*
X113030000Y-90170000D01*
X113030000Y-90170000D02*
X115570000Y-90170000D01*
X141605000Y-90170000D02*
X140335000Y-90170000D01*
X139065000Y-91440000D02*
X135255000Y-91440000D01*
X140335000Y-90170000D02*
X139065000Y-91440000D01*
X115570000Y-92710000D02*
X116205000Y-92710000D01*
X116205000Y-92710000D02*
X117475000Y-91440000D01*
X117475000Y-91440000D02*
X135255000Y-91440000D01*
X106680000Y-99060000D02*
X113030000Y-92710000D01*
X113030000Y-92710000D02*
X115570000Y-92710000D01*
X115570000Y-93345000D02*
X115570000Y-92710000D01*
X128905000Y-90805000D02*
X117475000Y-90805000D01*
X142875000Y-91440000D02*
X140335000Y-91440000D01*
X147320000Y-91440000D02*
X148590000Y-90170000D01*
X142875000Y-91440000D02*
X147320000Y-91440000D01*
X139700000Y-92075000D02*
X132715000Y-92075000D01*
X140335000Y-91440000D02*
X139700000Y-92075000D01*
X148590000Y-90170000D02*
X149225000Y-90170000D01*
X115570000Y-95250000D02*
X114300000Y-96520000D01*
X114300000Y-96520000D02*
X106680000Y-104140000D01*
X140335000Y-88900000D02*
X139700000Y-89535000D01*
X139700000Y-89535000D02*
X132715000Y-89535000D01*
X147320000Y-88900000D02*
X148590000Y-87630000D01*
X142875000Y-88900000D02*
X147320000Y-88900000D01*
X142875000Y-88900000D02*
X140335000Y-88900000D01*
X128905000Y-88265000D02*
X117475000Y-88265000D01*
X148590000Y-87630000D02*
X149225000Y-87630000D01*
X115570000Y-97790000D02*
X113665000Y-99695000D01*
X113665000Y-99695000D02*
X106680000Y-106680000D01*
X142875000Y-86360000D02*
X147320000Y-86360000D01*
X148590000Y-85090000D02*
X147320000Y-86360000D01*
X132715000Y-86995000D02*
X139700000Y-86995000D01*
X139700000Y-86995000D02*
X140335000Y-86360000D01*
X140335000Y-86360000D02*
X142875000Y-86360000D01*
X117475000Y-85725000D02*
X128905000Y-85725000D01*
X148590000Y-85090000D02*
X149225000Y-85090000D01*
X115570000Y-100330000D02*
X113030000Y-102870000D01*
X113030000Y-102870000D02*
X106680000Y-109220000D01*
X142875000Y-83820000D02*
X147320000Y-83820000D01*
X148590000Y-82550000D02*
X147320000Y-83820000D01*
X132715000Y-84455000D02*
X139700000Y-84455000D01*
X139700000Y-84455000D02*
X140335000Y-83820000D01*
X140335000Y-83820000D02*
X142875000Y-83820000D01*
X117475000Y-83185000D02*
X128905000Y-83185000D01*
X148590000Y-82550000D02*
X149225000Y-82550000D01*
X115570000Y-102870000D02*
X112395000Y-106045000D01*
X112395000Y-106045000D02*
X106680000Y-111760000D01*
X142875000Y-81280000D02*
X147320000Y-81280000D01*
X148590000Y-80010000D02*
X147320000Y-81280000D01*
X132715000Y-81915000D02*
X139700000Y-81915000D01*
X139700000Y-81915000D02*
X140335000Y-81280000D01*
X140335000Y-81280000D02*
X142875000Y-81280000D01*
X117475000Y-80645000D02*
X128905000Y-80645000D01*
X148590000Y-80010000D02*
X149225000Y-80010000D01*
X115570000Y-105410000D02*
X111760000Y-109220000D01*
X111760000Y-109220000D02*
X106680000Y-114300000D01*
X147320000Y-78740000D02*
X148590000Y-77470000D01*
X142875000Y-78740000D02*
X147320000Y-78740000D01*
X132715000Y-79375000D02*
X139700000Y-79375000D01*
X139700000Y-79375000D02*
X140335000Y-78740000D01*
X140335000Y-78740000D02*
X142875000Y-78740000D01*
X117475000Y-78105000D02*
X128905000Y-78105000D01*
X148590000Y-77470000D02*
X149225000Y-77470000D01*
X115570000Y-107950000D02*
X111125000Y-112395000D01*
X111125000Y-112395000D02*
X106680000Y-116840000D01*
X147320000Y-76200000D02*
X148590000Y-74930000D01*
X142875000Y-76200000D02*
X147320000Y-76200000D01*
X132715000Y-76835000D02*
X139700000Y-76835000D01*
X139700000Y-76835000D02*
X140335000Y-76200000D01*
X140335000Y-76200000D02*
X142875000Y-76200000D01*
X117475000Y-75565000D02*
X128905000Y-75565000D01*
X148590000Y-74930000D02*
X149225000Y-74930000D01*
X115570000Y-110490000D02*
X110490000Y-115570000D01*
X110490000Y-115570000D02*
X106680000Y-119380000D01*
X138430000Y-133350000D02*
X138430000Y-128270000D01*
X138430000Y-128270000D02*
X130810000Y-120650000D01*
X162560000Y-116205000D02*
X162560000Y-117475000D01*
X162560000Y-106045000D02*
X162560000Y-116205000D01*
X162560000Y-117475000D02*
X162560000Y-121920000D01*
X162560000Y-121920000D02*
X160655000Y-123825000D01*
X160655000Y-123825000D02*
X153670000Y-123825000D01*
X165100000Y-117475000D02*
X165100000Y-116205000D01*
X108585000Y-133350000D02*
X111760000Y-130175000D01*
X165100000Y-106045000D02*
X165100000Y-116205000D01*
X165100000Y-117475000D02*
X165100000Y-121920000D01*
X165100000Y-121920000D02*
X161925000Y-125095000D01*
X161925000Y-125095000D02*
X153670000Y-125095000D01*
X108585000Y-133350000D02*
X107950000Y-133350000D01*
X114300000Y-71120000D02*
X113030000Y-72390000D01*
X105410000Y-77470000D02*
X107950000Y-77470000D01*
X107950000Y-77470000D02*
X113030000Y-72390000D01*
X105410000Y-77470000D02*
X104140000Y-78740000D01*
X133985000Y-71120000D02*
X153035000Y-71120000D01*
X114300000Y-71120000D02*
X127635000Y-71120000D01*
X130810000Y-72390000D02*
X132715000Y-72390000D01*
X154305000Y-72390000D02*
X154305000Y-73025000D01*
X153035000Y-71120000D02*
X154305000Y-72390000D01*
X132715000Y-72390000D02*
X133985000Y-71120000D01*
X130810000Y-72390000D02*
X128905000Y-72390000D01*
X128905000Y-72390000D02*
X127635000Y-71120000D01*
X130810000Y-72390000D02*
X131445000Y-72390000D01*
X154940000Y-90805000D02*
X154305000Y-90170000D01*
X154305000Y-90170000D02*
X154305000Y-77470000D01*
X154305000Y-74930000D02*
X154305000Y-73025000D01*
X159385000Y-94615000D02*
X158750000Y-94615000D01*
X174625000Y-94615000D02*
X159385000Y-94615000D01*
X176530000Y-92710000D02*
X174625000Y-94615000D01*
X158750000Y-94615000D02*
X156845000Y-92710000D01*
X159385000Y-95250000D02*
X158115000Y-95250000D01*
X158115000Y-95250000D02*
X156845000Y-93980000D01*
X179070000Y-92710000D02*
X176530000Y-95250000D01*
X176530000Y-95250000D02*
X159385000Y-95250000D01*
X166370000Y-88900000D02*
X166370000Y-87630000D01*
X166370000Y-87630000D02*
X171450000Y-82550000D01*
X166370000Y-88900000D02*
X168910000Y-91440000D01*
X168910000Y-91440000D02*
X175260000Y-91440000D01*
X153035000Y-69215000D02*
X171450000Y-69215000D01*
X171450000Y-69215000D02*
X172720000Y-70485000D01*
X153035000Y-69215000D02*
X129540000Y-69215000D01*
X102235000Y-69850000D02*
X102870000Y-69215000D01*
X102870000Y-69215000D02*
X129540000Y-69215000D01*
X104140000Y-86360000D02*
X102870000Y-85090000D01*
X102235000Y-84455000D02*
X102235000Y-70485000D01*
X102870000Y-85090000D02*
X102235000Y-84455000D01*
X102235000Y-70485000D02*
X102235000Y-69850000D01*
X181610000Y-92710000D02*
X180340000Y-91440000D01*
X180340000Y-91440000D02*
X175260000Y-91440000D01*
X107950000Y-76200000D02*
X112395000Y-71755000D01*
X106680000Y-76200000D02*
X107950000Y-76200000D01*
X113665000Y-70485000D02*
X153035000Y-70485000D01*
X112395000Y-71755000D02*
X113665000Y-70485000D01*
X164465000Y-70485000D02*
X153035000Y-70485000D01*
X184150000Y-92710000D02*
X184150000Y-91440000D01*
X173355000Y-81280000D02*
X166370000Y-81280000D01*
X174625000Y-82550000D02*
X173355000Y-81280000D01*
X174625000Y-89535000D02*
X174625000Y-82550000D01*
X175895000Y-90805000D02*
X174625000Y-89535000D01*
X183515000Y-90805000D02*
X175895000Y-90805000D01*
X184150000Y-91440000D02*
X183515000Y-90805000D01*
X153035000Y-69850000D02*
X165100000Y-69850000D01*
X102870000Y-70485000D02*
X103505000Y-69850000D01*
X103505000Y-69850000D02*
X123190000Y-69850000D01*
X104140000Y-81280000D02*
X102870000Y-80010000D01*
X102870000Y-80010000D02*
X102870000Y-75565000D01*
X102870000Y-75565000D02*
X102870000Y-70485000D01*
X153035000Y-69850000D02*
X123190000Y-69850000D01*
X165100000Y-69850000D02*
X165735000Y-70485000D01*
X155575000Y-80645000D02*
X157480000Y-78740000D01*
X155575000Y-94615000D02*
X155575000Y-80645000D01*
X149225000Y-97790000D02*
X154305000Y-97790000D01*
X165735000Y-78740000D02*
X166370000Y-78105000D01*
X162560000Y-78740000D02*
X165735000Y-78740000D01*
X157480000Y-78740000D02*
X159385000Y-78740000D01*
X154305000Y-97790000D02*
X154940000Y-97155000D01*
X166370000Y-78105000D02*
X166370000Y-77470000D01*
X187960000Y-79375000D02*
X187325000Y-78740000D01*
X187325000Y-78740000D02*
X170180000Y-78740000D01*
X189865000Y-70485000D02*
X196365000Y-70485000D01*
X189230000Y-81280000D02*
X189230000Y-80645000D01*
X189230000Y-80645000D02*
X187960000Y-79375000D01*
X187960000Y-79375000D02*
X187960000Y-72390000D01*
X187960000Y-72390000D02*
X189865000Y-70485000D01*
X158750000Y-120015000D02*
X158750000Y-118745000D01*
X149225000Y-119380000D02*
X149225000Y-120570000D01*
X150495000Y-118110000D02*
X149225000Y-119380000D01*
X158115000Y-118110000D02*
X153670000Y-118110000D01*
X158750000Y-118745000D02*
X158115000Y-118110000D01*
X160020000Y-81280000D02*
X160020000Y-73025000D01*
X171450000Y-71120000D02*
X185420000Y-71120000D01*
X161925000Y-71120000D02*
X171450000Y-71120000D01*
X160020000Y-73025000D02*
X161925000Y-71120000D01*
M02*
