G04 #@! TF.FileFunction,Soldermask,Bot*
%FSLAX46Y46*%
G04 Gerber Fmt 4.6, Leading zero omitted, Abs format (unit mm)*
G04 Created by KiCad (PCBNEW 4.0.6) date 05/15/17 22:09:24*
%MOMM*%
%LPD*%
G01*
G04 APERTURE LIST*
%ADD10C,0.100000*%
%ADD11C,1.600000*%
%ADD12R,1.700000X1.700000*%
%ADD13O,1.700000X1.700000*%
%ADD14R,1.600000X1.600000*%
%ADD15O,1.600000X1.600000*%
%ADD16C,2.000000*%
G04 APERTURE END LIST*
D10*
D11*
X190500000Y-106680000D03*
X190500000Y-111680000D03*
X107950000Y-101600000D03*
X112950000Y-101600000D03*
X191770000Y-119380000D03*
X191770000Y-124380000D03*
X113030000Y-95250000D03*
X108030000Y-95250000D03*
D12*
X196850000Y-133350000D03*
D13*
X194310000Y-133350000D03*
X191770000Y-133350000D03*
X189230000Y-133350000D03*
X186690000Y-133350000D03*
X184150000Y-133350000D03*
X181610000Y-133350000D03*
X179070000Y-133350000D03*
X176530000Y-133350000D03*
X173990000Y-133350000D03*
X171450000Y-133350000D03*
X168910000Y-133350000D03*
X166370000Y-133350000D03*
X163830000Y-133350000D03*
X161290000Y-133350000D03*
X158750000Y-133350000D03*
X156210000Y-133350000D03*
X153670000Y-133350000D03*
X151130000Y-133350000D03*
X148590000Y-133350000D03*
X146050000Y-133350000D03*
X143510000Y-133350000D03*
X140970000Y-133350000D03*
X138430000Y-133350000D03*
X135890000Y-133350000D03*
X133350000Y-133350000D03*
X130810000Y-133350000D03*
X128270000Y-133350000D03*
X125730000Y-133350000D03*
X123190000Y-133350000D03*
X120650000Y-133350000D03*
X118110000Y-133350000D03*
X115570000Y-133350000D03*
X113030000Y-133350000D03*
X110490000Y-133350000D03*
X107950000Y-133350000D03*
X105410000Y-133350000D03*
X102870000Y-133350000D03*
X100330000Y-133350000D03*
D14*
X161290000Y-93980000D03*
D15*
X194310000Y-78740000D03*
X163830000Y-93980000D03*
X191770000Y-78740000D03*
X166370000Y-93980000D03*
X189230000Y-78740000D03*
X168910000Y-93980000D03*
X186690000Y-78740000D03*
X171450000Y-93980000D03*
X184150000Y-78740000D03*
X173990000Y-93980000D03*
X181610000Y-78740000D03*
X176530000Y-93980000D03*
X179070000Y-78740000D03*
X179070000Y-93980000D03*
X176530000Y-78740000D03*
X181610000Y-93980000D03*
X173990000Y-78740000D03*
X184150000Y-93980000D03*
X171450000Y-78740000D03*
X186690000Y-93980000D03*
X168910000Y-78740000D03*
X189230000Y-93980000D03*
X166370000Y-78740000D03*
X191770000Y-93980000D03*
X163830000Y-78740000D03*
X194310000Y-93980000D03*
X161290000Y-78740000D03*
X196850000Y-93980000D03*
X196850000Y-78740000D03*
D12*
X196850000Y-110490000D03*
D13*
X196850000Y-107950000D03*
X196850000Y-105410000D03*
X196850000Y-102870000D03*
X196850000Y-100330000D03*
D12*
X182880000Y-73660000D03*
D13*
X182880000Y-71120000D03*
D11*
X133350000Y-74930000D03*
D15*
X143510000Y-74930000D03*
D11*
X119380000Y-74930000D03*
D15*
X129540000Y-74930000D03*
D11*
X105410000Y-74930000D03*
D15*
X115570000Y-74930000D03*
D16*
X189230000Y-74350000D03*
X189230000Y-69850000D03*
X195730000Y-74350000D03*
X195730000Y-69850000D03*
D14*
X170180000Y-113030000D03*
D15*
X185420000Y-105410000D03*
X172720000Y-113030000D03*
X182880000Y-105410000D03*
X175260000Y-113030000D03*
X180340000Y-105410000D03*
X177800000Y-113030000D03*
X177800000Y-105410000D03*
X180340000Y-113030000D03*
X175260000Y-105410000D03*
X182880000Y-113030000D03*
X172720000Y-105410000D03*
X185420000Y-113030000D03*
X170180000Y-105410000D03*
D14*
X156210000Y-106680000D03*
D15*
X107950000Y-121920000D03*
X153670000Y-106680000D03*
X110490000Y-121920000D03*
X151130000Y-106680000D03*
X113030000Y-121920000D03*
X148590000Y-106680000D03*
X115570000Y-121920000D03*
X146050000Y-106680000D03*
X118110000Y-121920000D03*
X143510000Y-106680000D03*
X120650000Y-121920000D03*
X140970000Y-106680000D03*
X123190000Y-121920000D03*
X138430000Y-106680000D03*
X125730000Y-121920000D03*
X135890000Y-106680000D03*
X128270000Y-121920000D03*
X133350000Y-106680000D03*
X130810000Y-121920000D03*
X130810000Y-106680000D03*
X133350000Y-121920000D03*
X128270000Y-106680000D03*
X135890000Y-121920000D03*
X125730000Y-106680000D03*
X138430000Y-121920000D03*
X123190000Y-106680000D03*
X140970000Y-121920000D03*
X120650000Y-106680000D03*
X143510000Y-121920000D03*
X118110000Y-106680000D03*
X146050000Y-121920000D03*
X115570000Y-106680000D03*
X148590000Y-121920000D03*
X113030000Y-106680000D03*
X151130000Y-121920000D03*
X110490000Y-106680000D03*
X153670000Y-121920000D03*
X107950000Y-106680000D03*
X156210000Y-121920000D03*
D14*
X168910000Y-125730000D03*
D15*
X186690000Y-118110000D03*
X171450000Y-125730000D03*
X184150000Y-118110000D03*
X173990000Y-125730000D03*
X181610000Y-118110000D03*
X176530000Y-125730000D03*
X179070000Y-118110000D03*
X179070000Y-125730000D03*
X176530000Y-118110000D03*
X181610000Y-125730000D03*
X173990000Y-118110000D03*
X184150000Y-125730000D03*
X171450000Y-118110000D03*
X186690000Y-125730000D03*
X168910000Y-118110000D03*
D14*
X140970000Y-82550000D03*
D15*
X107950000Y-90170000D03*
X138430000Y-82550000D03*
X110490000Y-90170000D03*
X135890000Y-82550000D03*
X113030000Y-90170000D03*
X133350000Y-82550000D03*
X115570000Y-90170000D03*
X130810000Y-82550000D03*
X118110000Y-90170000D03*
X128270000Y-82550000D03*
X120650000Y-90170000D03*
X125730000Y-82550000D03*
X123190000Y-90170000D03*
X123190000Y-82550000D03*
X125730000Y-90170000D03*
X120650000Y-82550000D03*
X128270000Y-90170000D03*
X118110000Y-82550000D03*
X130810000Y-90170000D03*
X115570000Y-82550000D03*
X133350000Y-90170000D03*
X113030000Y-82550000D03*
X135890000Y-90170000D03*
X110490000Y-82550000D03*
X138430000Y-90170000D03*
X107950000Y-82550000D03*
X140970000Y-90170000D03*
M02*
