G04 #@! TF.FileFunction,Soldermask,Bot*
%FSLAX46Y46*%
G04 Gerber Fmt 4.6, Leading zero omitted, Abs format (unit mm)*
G04 Created by KiCad (PCBNEW 4.0.6) date 06/14/17 01:09:41*
%MOMM*%
%LPD*%
G01*
G04 APERTURE LIST*
%ADD10C,0.100000*%
%ADD11R,2.000000X2.000000*%
%ADD12O,2.000000X2.000000*%
%ADD13C,2.000000*%
%ADD14R,2.100000X2.100000*%
%ADD15O,2.100000X2.100000*%
%ADD16R,2.127200X2.127200*%
%ADD17O,2.127200X2.127200*%
%ADD18C,1.900000*%
%ADD19O,3.597860X2.398980*%
%ADD20O,2.398980X3.597860*%
G04 APERTURE END LIST*
D10*
D11*
X160655000Y-102870000D03*
D12*
X168275000Y-135890000D03*
X160655000Y-105410000D03*
X168275000Y-133350000D03*
X160655000Y-107950000D03*
X168275000Y-130810000D03*
X160655000Y-110490000D03*
X168275000Y-128270000D03*
X160655000Y-113030000D03*
X168275000Y-125730000D03*
X160655000Y-115570000D03*
X168275000Y-123190000D03*
X160655000Y-118110000D03*
X168275000Y-120650000D03*
X160655000Y-120650000D03*
X168275000Y-118110000D03*
X160655000Y-123190000D03*
X168275000Y-115570000D03*
X160655000Y-125730000D03*
X168275000Y-113030000D03*
X160655000Y-128270000D03*
X168275000Y-110490000D03*
X160655000Y-130810000D03*
X168275000Y-107950000D03*
X160655000Y-133350000D03*
X168275000Y-105410000D03*
X160655000Y-135890000D03*
X168275000Y-102870000D03*
D13*
X153670000Y-132715000D03*
X153670000Y-127715000D03*
X213995000Y-87630000D03*
X208995000Y-87630000D03*
X151765000Y-109220000D03*
X151765000Y-114220000D03*
X146685000Y-109220000D03*
X146685000Y-114220000D03*
D11*
X181610000Y-133350000D03*
D12*
X173990000Y-133350000D03*
D11*
X181610000Y-138430000D03*
D12*
X173990000Y-138430000D03*
D14*
X213995000Y-146050000D03*
D15*
X211455000Y-146050000D03*
X208915000Y-146050000D03*
X206375000Y-146050000D03*
X203835000Y-146050000D03*
X201295000Y-146050000D03*
X198755000Y-146050000D03*
X196215000Y-146050000D03*
X193675000Y-146050000D03*
X191135000Y-146050000D03*
X188595000Y-146050000D03*
X186055000Y-146050000D03*
X183515000Y-146050000D03*
X180975000Y-146050000D03*
X178435000Y-146050000D03*
X175895000Y-146050000D03*
X173355000Y-146050000D03*
X170815000Y-146050000D03*
X168275000Y-146050000D03*
X165735000Y-146050000D03*
X163195000Y-146050000D03*
X160655000Y-146050000D03*
X158115000Y-146050000D03*
X155575000Y-146050000D03*
X153035000Y-146050000D03*
X150495000Y-146050000D03*
X147955000Y-146050000D03*
X145415000Y-146050000D03*
X142875000Y-146050000D03*
X140335000Y-146050000D03*
X137795000Y-146050000D03*
X135255000Y-146050000D03*
X132715000Y-146050000D03*
X130175000Y-146050000D03*
X127635000Y-146050000D03*
X125095000Y-146050000D03*
X122555000Y-146050000D03*
X120015000Y-146050000D03*
X117475000Y-146050000D03*
D16*
X123825000Y-137160000D03*
D17*
X121285000Y-137160000D03*
X123825000Y-134620000D03*
X121285000Y-134620000D03*
X123825000Y-132080000D03*
X121285000Y-132080000D03*
X123825000Y-129540000D03*
X121285000Y-129540000D03*
X123825000Y-127000000D03*
X121285000Y-127000000D03*
X123825000Y-124460000D03*
X121285000Y-124460000D03*
X123825000Y-121920000D03*
X121285000Y-121920000D03*
X123825000Y-119380000D03*
X121285000Y-119380000D03*
X123825000Y-116840000D03*
X121285000Y-116840000D03*
X123825000Y-114300000D03*
X121285000Y-114300000D03*
X123825000Y-111760000D03*
X121285000Y-111760000D03*
X123825000Y-109220000D03*
X121285000Y-109220000D03*
X123825000Y-106680000D03*
X121285000Y-106680000D03*
X123825000Y-104140000D03*
X121285000Y-104140000D03*
X123825000Y-101600000D03*
X121285000Y-101600000D03*
X123825000Y-99060000D03*
X121285000Y-99060000D03*
X123825000Y-96520000D03*
X121285000Y-96520000D03*
X123825000Y-93980000D03*
X121285000Y-93980000D03*
X123825000Y-91440000D03*
X121285000Y-91440000D03*
X123825000Y-88900000D03*
X121285000Y-88900000D03*
D14*
X201295000Y-82550000D03*
D15*
X203835000Y-82550000D03*
X206375000Y-82550000D03*
X208915000Y-82550000D03*
X211455000Y-82550000D03*
X213995000Y-82550000D03*
D14*
X146685000Y-105410000D03*
D15*
X146685000Y-102870000D03*
X149225000Y-105410000D03*
X149225000Y-102870000D03*
X151765000Y-105410000D03*
X151765000Y-102870000D03*
D14*
X193675000Y-82550000D03*
D15*
X196215000Y-82550000D03*
D13*
X195580000Y-133350000D03*
D12*
X185420000Y-133350000D03*
D13*
X195580000Y-138430000D03*
D12*
X185420000Y-138430000D03*
D13*
X185420000Y-128270000D03*
D12*
X195580000Y-128270000D03*
D13*
X195580000Y-123190000D03*
D12*
X185420000Y-123190000D03*
D18*
X151765000Y-119380000D03*
X146885000Y-119380000D03*
D14*
X210185000Y-128270000D03*
D15*
X212725000Y-128270000D03*
D16*
X133985000Y-89535000D03*
D17*
X133985000Y-86995000D03*
X136525000Y-89535000D03*
X136525000Y-86995000D03*
X139065000Y-89535000D03*
X139065000Y-86995000D03*
X141605000Y-89535000D03*
X141605000Y-86995000D03*
X144145000Y-89535000D03*
X144145000Y-86995000D03*
X146685000Y-89535000D03*
X146685000Y-86995000D03*
X149225000Y-89535000D03*
X149225000Y-86995000D03*
X151765000Y-89535000D03*
X151765000Y-86995000D03*
X154305000Y-89535000D03*
X154305000Y-86995000D03*
X156845000Y-89535000D03*
X156845000Y-86995000D03*
X159385000Y-89535000D03*
X159385000Y-86995000D03*
X161925000Y-89535000D03*
X161925000Y-86995000D03*
X164465000Y-89535000D03*
X164465000Y-86995000D03*
X167005000Y-89535000D03*
X167005000Y-86995000D03*
X169545000Y-89535000D03*
X169545000Y-86995000D03*
X172085000Y-89535000D03*
X172085000Y-86995000D03*
X174625000Y-89535000D03*
X174625000Y-86995000D03*
X177165000Y-89535000D03*
X177165000Y-86995000D03*
X179705000Y-89535000D03*
X179705000Y-86995000D03*
X182245000Y-89535000D03*
X182245000Y-86995000D03*
D13*
X185420000Y-118110000D03*
D12*
X195580000Y-118110000D03*
D11*
X177800000Y-110490000D03*
D12*
X210820000Y-102870000D03*
X180340000Y-110490000D03*
X208280000Y-102870000D03*
X182880000Y-110490000D03*
X205740000Y-102870000D03*
X185420000Y-110490000D03*
X203200000Y-102870000D03*
X187960000Y-110490000D03*
X200660000Y-102870000D03*
X190500000Y-110490000D03*
X198120000Y-102870000D03*
X193040000Y-110490000D03*
X195580000Y-102870000D03*
X195580000Y-110490000D03*
X193040000Y-102870000D03*
X198120000Y-110490000D03*
X190500000Y-102870000D03*
X200660000Y-110490000D03*
X187960000Y-102870000D03*
X203200000Y-110490000D03*
X185420000Y-102870000D03*
X205740000Y-110490000D03*
X182880000Y-102870000D03*
X208280000Y-110490000D03*
X180340000Y-102870000D03*
X210820000Y-110490000D03*
X177800000Y-102870000D03*
D11*
X131445000Y-102870000D03*
D12*
X139065000Y-135890000D03*
X131445000Y-105410000D03*
X139065000Y-133350000D03*
X131445000Y-107950000D03*
X139065000Y-130810000D03*
X131445000Y-110490000D03*
X139065000Y-128270000D03*
X131445000Y-113030000D03*
X139065000Y-125730000D03*
X131445000Y-115570000D03*
X139065000Y-123190000D03*
X131445000Y-118110000D03*
X139065000Y-120650000D03*
X131445000Y-120650000D03*
X139065000Y-118110000D03*
X131445000Y-123190000D03*
X139065000Y-115570000D03*
X131445000Y-125730000D03*
X139065000Y-113030000D03*
X131445000Y-128270000D03*
X139065000Y-110490000D03*
X131445000Y-130810000D03*
X139065000Y-107950000D03*
X131445000Y-133350000D03*
X139065000Y-105410000D03*
X131445000Y-135890000D03*
X139065000Y-102870000D03*
D13*
X145415000Y-132715000D03*
X145415000Y-127715000D03*
X208280000Y-118110000D03*
X203280000Y-118110000D03*
D19*
X206375000Y-132080000D03*
D20*
X208915000Y-135890000D03*
D19*
X206375000Y-139700000D03*
M02*
