G04 #@! TF.FileFunction,Copper,L2,Bot,Signal*
%FSLAX46Y46*%
G04 Gerber Fmt 4.6, Leading zero omitted, Abs format (unit mm)*
G04 Created by KiCad (PCBNEW 4.0.7) date 02/09/19 17:10:25*
%MOMM*%
%LPD*%
G01*
G04 APERTURE LIST*
%ADD10C,0.100000*%
%ADD11R,1.700000X1.700000*%
%ADD12O,1.700000X1.700000*%
%ADD13C,5.000000*%
%ADD14C,0.254000*%
G04 APERTURE END LIST*
D10*
D11*
X110490000Y-42545000D03*
D12*
X113030000Y-42545000D03*
X115570000Y-42545000D03*
X118110000Y-42545000D03*
X120650000Y-42545000D03*
X123190000Y-42545000D03*
X125730000Y-42545000D03*
X128270000Y-42545000D03*
X130810000Y-42545000D03*
X133350000Y-42545000D03*
X135890000Y-42545000D03*
X138430000Y-42545000D03*
X140970000Y-42545000D03*
X143510000Y-42545000D03*
X146050000Y-42545000D03*
X148590000Y-42545000D03*
X151130000Y-42545000D03*
X153670000Y-42545000D03*
X156210000Y-42545000D03*
X158750000Y-42545000D03*
X161290000Y-42545000D03*
X163830000Y-42545000D03*
X166370000Y-42545000D03*
X168910000Y-42545000D03*
X171450000Y-42545000D03*
X173990000Y-42545000D03*
X176530000Y-42545000D03*
X179070000Y-42545000D03*
X181610000Y-42545000D03*
X184150000Y-42545000D03*
X186690000Y-42545000D03*
X189230000Y-42545000D03*
D11*
X198120000Y-139700000D03*
D12*
X195580000Y-139700000D03*
X193040000Y-139700000D03*
X190500000Y-139700000D03*
X187960000Y-139700000D03*
X185420000Y-139700000D03*
X182880000Y-139700000D03*
X180340000Y-139700000D03*
X177800000Y-139700000D03*
X175260000Y-139700000D03*
X172720000Y-139700000D03*
X170180000Y-139700000D03*
X167640000Y-139700000D03*
X165100000Y-139700000D03*
X162560000Y-139700000D03*
X160020000Y-139700000D03*
X157480000Y-139700000D03*
X154940000Y-139700000D03*
X152400000Y-139700000D03*
X149860000Y-139700000D03*
X147320000Y-139700000D03*
X144780000Y-139700000D03*
X142240000Y-139700000D03*
X139700000Y-139700000D03*
X137160000Y-139700000D03*
X134620000Y-139700000D03*
X132080000Y-139700000D03*
X129540000Y-139700000D03*
X127000000Y-139700000D03*
X124460000Y-139700000D03*
X121920000Y-139700000D03*
X119380000Y-139700000D03*
X116840000Y-139700000D03*
X114300000Y-139700000D03*
X111760000Y-139700000D03*
X109220000Y-139700000D03*
X106680000Y-139700000D03*
X104140000Y-139700000D03*
X101600000Y-139700000D03*
D13*
X194945000Y-45720000D03*
X104775000Y-45720000D03*
D11*
X198120000Y-50165000D03*
D12*
X198120000Y-52705000D03*
X198120000Y-55245000D03*
X198120000Y-57785000D03*
X198120000Y-60325000D03*
X198120000Y-62865000D03*
X198120000Y-65405000D03*
X198120000Y-67945000D03*
X198120000Y-70485000D03*
X198120000Y-73025000D03*
X198120000Y-75565000D03*
X198120000Y-78105000D03*
X198120000Y-80645000D03*
X198120000Y-83185000D03*
X198120000Y-85725000D03*
X198120000Y-88265000D03*
X198120000Y-90805000D03*
X198120000Y-93345000D03*
X198120000Y-95885000D03*
X198120000Y-98425000D03*
X198120000Y-100965000D03*
X198120000Y-103505000D03*
X198120000Y-106045000D03*
X198120000Y-108585000D03*
X198120000Y-111125000D03*
X198120000Y-113665000D03*
X198120000Y-116205000D03*
X198120000Y-118745000D03*
X198120000Y-121285000D03*
X198120000Y-123825000D03*
X198120000Y-126365000D03*
X198120000Y-128905000D03*
D11*
X101600000Y-50165000D03*
D12*
X101600000Y-52705000D03*
X101600000Y-55245000D03*
X101600000Y-57785000D03*
X101600000Y-60325000D03*
X101600000Y-62865000D03*
X101600000Y-65405000D03*
X101600000Y-67945000D03*
X101600000Y-70485000D03*
X101600000Y-73025000D03*
X101600000Y-75565000D03*
X101600000Y-78105000D03*
X101600000Y-80645000D03*
X101600000Y-83185000D03*
X101600000Y-85725000D03*
X101600000Y-88265000D03*
X101600000Y-90805000D03*
X101600000Y-93345000D03*
X101600000Y-95885000D03*
X101600000Y-98425000D03*
X101600000Y-100965000D03*
X101600000Y-103505000D03*
X101600000Y-106045000D03*
X101600000Y-108585000D03*
X101600000Y-111125000D03*
X101600000Y-113665000D03*
X101600000Y-116205000D03*
X101600000Y-118745000D03*
X101600000Y-121285000D03*
X101600000Y-123825000D03*
X101600000Y-126365000D03*
X101600000Y-128905000D03*
X107950000Y-50165000D03*
X107950000Y-52705000D03*
X107950000Y-55245000D03*
X107950000Y-57785000D03*
X107950000Y-60325000D03*
X107950000Y-62865000D03*
X107950000Y-65405000D03*
X107950000Y-67945000D03*
X107950000Y-70485000D03*
X107950000Y-73025000D03*
X107950000Y-75565000D03*
X107950000Y-78105000D03*
X107950000Y-80645000D03*
X107950000Y-83185000D03*
X107950000Y-85725000D03*
X107950000Y-88265000D03*
X107950000Y-90805000D03*
X107950000Y-93345000D03*
X107950000Y-95885000D03*
X107950000Y-98425000D03*
X107950000Y-100965000D03*
X107950000Y-103505000D03*
X107950000Y-106045000D03*
X107950000Y-108585000D03*
X107950000Y-111125000D03*
X107950000Y-113665000D03*
X107950000Y-116205000D03*
X107950000Y-118745000D03*
X107950000Y-121285000D03*
X107950000Y-123825000D03*
X107950000Y-126365000D03*
X107950000Y-128905000D03*
X110490000Y-45085000D03*
X110490000Y-47625000D03*
X110490000Y-50165000D03*
X110490000Y-52705000D03*
X110490000Y-55245000D03*
X110490000Y-57785000D03*
X110490000Y-60325000D03*
X110490000Y-62865000D03*
X110490000Y-65405000D03*
X110490000Y-67945000D03*
X110490000Y-70485000D03*
X110490000Y-73025000D03*
X110490000Y-75565000D03*
X110490000Y-78105000D03*
X110490000Y-80645000D03*
X110490000Y-83185000D03*
X110490000Y-85725000D03*
X110490000Y-88265000D03*
X110490000Y-90805000D03*
X110490000Y-93345000D03*
X110490000Y-95885000D03*
X110490000Y-98425000D03*
X110490000Y-100965000D03*
X110490000Y-103505000D03*
X110490000Y-106045000D03*
X110490000Y-108585000D03*
X110490000Y-111125000D03*
X110490000Y-113665000D03*
X110490000Y-116205000D03*
X110490000Y-118745000D03*
X110490000Y-121285000D03*
X110490000Y-123825000D03*
X110490000Y-126365000D03*
X110490000Y-128905000D03*
X105410000Y-50165000D03*
X105410000Y-52705000D03*
X105410000Y-55245000D03*
X105410000Y-57785000D03*
X105410000Y-60325000D03*
X105410000Y-62865000D03*
X105410000Y-65405000D03*
X105410000Y-67945000D03*
X105410000Y-70485000D03*
X105410000Y-73025000D03*
X105410000Y-75565000D03*
X105410000Y-78105000D03*
X105410000Y-80645000D03*
X105410000Y-83185000D03*
X105410000Y-85725000D03*
X105410000Y-88265000D03*
X105410000Y-90805000D03*
X105410000Y-93345000D03*
X105410000Y-95885000D03*
X105410000Y-98425000D03*
X105410000Y-100965000D03*
X105410000Y-103505000D03*
X105410000Y-106045000D03*
X105410000Y-108585000D03*
X105410000Y-111125000D03*
X105410000Y-113665000D03*
X105410000Y-116205000D03*
X105410000Y-118745000D03*
X105410000Y-121285000D03*
X105410000Y-123825000D03*
X105410000Y-126365000D03*
X105410000Y-128905000D03*
X194310000Y-50165000D03*
X194310000Y-52705000D03*
X194310000Y-55245000D03*
X194310000Y-57785000D03*
X194310000Y-60325000D03*
X194310000Y-62865000D03*
X194310000Y-65405000D03*
X194310000Y-67945000D03*
X194310000Y-70485000D03*
X194310000Y-73025000D03*
X194310000Y-75565000D03*
X194310000Y-78105000D03*
X194310000Y-80645000D03*
X194310000Y-83185000D03*
X194310000Y-85725000D03*
X194310000Y-88265000D03*
X194310000Y-90805000D03*
X194310000Y-93345000D03*
X194310000Y-95885000D03*
X194310000Y-98425000D03*
X194310000Y-100965000D03*
X194310000Y-103505000D03*
X194310000Y-106045000D03*
X194310000Y-108585000D03*
X194310000Y-111125000D03*
X194310000Y-113665000D03*
X194310000Y-116205000D03*
X194310000Y-118745000D03*
X194310000Y-121285000D03*
X194310000Y-123825000D03*
X194310000Y-126365000D03*
X194310000Y-128905000D03*
X191770000Y-50165000D03*
X191770000Y-52705000D03*
X191770000Y-55245000D03*
X191770000Y-57785000D03*
X191770000Y-60325000D03*
X191770000Y-62865000D03*
X191770000Y-65405000D03*
X191770000Y-67945000D03*
X191770000Y-70485000D03*
X191770000Y-73025000D03*
X191770000Y-75565000D03*
X191770000Y-78105000D03*
X191770000Y-80645000D03*
X191770000Y-83185000D03*
X191770000Y-85725000D03*
X191770000Y-88265000D03*
X191770000Y-90805000D03*
X191770000Y-93345000D03*
X191770000Y-95885000D03*
X191770000Y-98425000D03*
X191770000Y-100965000D03*
X191770000Y-103505000D03*
X191770000Y-106045000D03*
X191770000Y-108585000D03*
X191770000Y-111125000D03*
X191770000Y-113665000D03*
X191770000Y-116205000D03*
X191770000Y-118745000D03*
X191770000Y-121285000D03*
X191770000Y-123825000D03*
X191770000Y-126365000D03*
X191770000Y-128905000D03*
X113030000Y-45085000D03*
X113030000Y-47625000D03*
X113030000Y-50165000D03*
X113030000Y-52705000D03*
X113030000Y-55245000D03*
X113030000Y-57785000D03*
X113030000Y-60325000D03*
X113030000Y-62865000D03*
X113030000Y-65405000D03*
X113030000Y-67945000D03*
X113030000Y-70485000D03*
X113030000Y-73025000D03*
X113030000Y-75565000D03*
X113030000Y-78105000D03*
X113030000Y-80645000D03*
X113030000Y-83185000D03*
X113030000Y-85725000D03*
X113030000Y-88265000D03*
X113030000Y-90805000D03*
X113030000Y-93345000D03*
X113030000Y-95885000D03*
X113030000Y-98425000D03*
X113030000Y-100965000D03*
X113030000Y-103505000D03*
X113030000Y-106045000D03*
X113030000Y-108585000D03*
X113030000Y-111125000D03*
X113030000Y-113665000D03*
X113030000Y-116205000D03*
X113030000Y-118745000D03*
X113030000Y-121285000D03*
X113030000Y-123825000D03*
X113030000Y-126365000D03*
X113030000Y-128905000D03*
X115570000Y-45085000D03*
X115570000Y-47625000D03*
X115570000Y-50165000D03*
X115570000Y-52705000D03*
X115570000Y-55245000D03*
X115570000Y-57785000D03*
X115570000Y-60325000D03*
X115570000Y-62865000D03*
X115570000Y-65405000D03*
X115570000Y-67945000D03*
X115570000Y-70485000D03*
X115570000Y-73025000D03*
X115570000Y-75565000D03*
X115570000Y-78105000D03*
X115570000Y-80645000D03*
X115570000Y-83185000D03*
X115570000Y-85725000D03*
X115570000Y-88265000D03*
X115570000Y-90805000D03*
X115570000Y-93345000D03*
X115570000Y-95885000D03*
X115570000Y-98425000D03*
X115570000Y-100965000D03*
X115570000Y-103505000D03*
X115570000Y-106045000D03*
X115570000Y-108585000D03*
X115570000Y-111125000D03*
X115570000Y-113665000D03*
X115570000Y-116205000D03*
X115570000Y-118745000D03*
X115570000Y-121285000D03*
X115570000Y-123825000D03*
X115570000Y-126365000D03*
X115570000Y-128905000D03*
X118110000Y-45085000D03*
X118110000Y-47625000D03*
X118110000Y-50165000D03*
X118110000Y-52705000D03*
X118110000Y-55245000D03*
X118110000Y-57785000D03*
X118110000Y-60325000D03*
X118110000Y-62865000D03*
X118110000Y-65405000D03*
X118110000Y-67945000D03*
X118110000Y-70485000D03*
X118110000Y-73025000D03*
X118110000Y-75565000D03*
X118110000Y-78105000D03*
X118110000Y-80645000D03*
X118110000Y-83185000D03*
X118110000Y-85725000D03*
X118110000Y-88265000D03*
X118110000Y-90805000D03*
X118110000Y-93345000D03*
X118110000Y-95885000D03*
X118110000Y-98425000D03*
X118110000Y-100965000D03*
X118110000Y-103505000D03*
X118110000Y-106045000D03*
X118110000Y-108585000D03*
X118110000Y-111125000D03*
X118110000Y-113665000D03*
X118110000Y-116205000D03*
X118110000Y-118745000D03*
X118110000Y-121285000D03*
X118110000Y-123825000D03*
X118110000Y-126365000D03*
X118110000Y-128905000D03*
X120650000Y-45085000D03*
X120650000Y-47625000D03*
X120650000Y-50165000D03*
X120650000Y-52705000D03*
X120650000Y-55245000D03*
X120650000Y-57785000D03*
X120650000Y-60325000D03*
X120650000Y-62865000D03*
X120650000Y-65405000D03*
X120650000Y-67945000D03*
X120650000Y-70485000D03*
X120650000Y-73025000D03*
X120650000Y-75565000D03*
X120650000Y-78105000D03*
X120650000Y-80645000D03*
X120650000Y-83185000D03*
X120650000Y-85725000D03*
X120650000Y-88265000D03*
X120650000Y-90805000D03*
X120650000Y-93345000D03*
X120650000Y-95885000D03*
X120650000Y-98425000D03*
X120650000Y-100965000D03*
X120650000Y-103505000D03*
X120650000Y-106045000D03*
X120650000Y-108585000D03*
X120650000Y-111125000D03*
X120650000Y-113665000D03*
X120650000Y-116205000D03*
X120650000Y-118745000D03*
X120650000Y-121285000D03*
X120650000Y-123825000D03*
X120650000Y-126365000D03*
X120650000Y-128905000D03*
X123190000Y-45085000D03*
X123190000Y-47625000D03*
X123190000Y-50165000D03*
X123190000Y-52705000D03*
X123190000Y-55245000D03*
X123190000Y-57785000D03*
X123190000Y-60325000D03*
X123190000Y-62865000D03*
X123190000Y-65405000D03*
X123190000Y-67945000D03*
X123190000Y-70485000D03*
X123190000Y-73025000D03*
X123190000Y-75565000D03*
X123190000Y-78105000D03*
X123190000Y-80645000D03*
X123190000Y-83185000D03*
X123190000Y-85725000D03*
X123190000Y-88265000D03*
X123190000Y-90805000D03*
X123190000Y-93345000D03*
X123190000Y-95885000D03*
X123190000Y-98425000D03*
X123190000Y-100965000D03*
X123190000Y-103505000D03*
X123190000Y-106045000D03*
X123190000Y-108585000D03*
X123190000Y-111125000D03*
X123190000Y-113665000D03*
X123190000Y-116205000D03*
X123190000Y-118745000D03*
X123190000Y-121285000D03*
X123190000Y-123825000D03*
X123190000Y-126365000D03*
X123190000Y-128905000D03*
X125730000Y-45085000D03*
X125730000Y-47625000D03*
X125730000Y-50165000D03*
X125730000Y-52705000D03*
X125730000Y-55245000D03*
X125730000Y-57785000D03*
X125730000Y-60325000D03*
X125730000Y-62865000D03*
X125730000Y-65405000D03*
X125730000Y-67945000D03*
X125730000Y-70485000D03*
X125730000Y-73025000D03*
X125730000Y-75565000D03*
X125730000Y-78105000D03*
X125730000Y-80645000D03*
X125730000Y-83185000D03*
X125730000Y-85725000D03*
X125730000Y-88265000D03*
X125730000Y-90805000D03*
X125730000Y-93345000D03*
X125730000Y-95885000D03*
X125730000Y-98425000D03*
X125730000Y-100965000D03*
X125730000Y-103505000D03*
X125730000Y-106045000D03*
X125730000Y-108585000D03*
X125730000Y-111125000D03*
X125730000Y-113665000D03*
X125730000Y-116205000D03*
X125730000Y-118745000D03*
X125730000Y-121285000D03*
X125730000Y-123825000D03*
X125730000Y-126365000D03*
X125730000Y-128905000D03*
X128270000Y-45085000D03*
X128270000Y-47625000D03*
X128270000Y-50165000D03*
X128270000Y-52705000D03*
X128270000Y-55245000D03*
X128270000Y-57785000D03*
X128270000Y-60325000D03*
X128270000Y-62865000D03*
X128270000Y-65405000D03*
X128270000Y-67945000D03*
X128270000Y-70485000D03*
X128270000Y-73025000D03*
X128270000Y-75565000D03*
X128270000Y-78105000D03*
X128270000Y-80645000D03*
X128270000Y-83185000D03*
X128270000Y-85725000D03*
X128270000Y-88265000D03*
X128270000Y-90805000D03*
X128270000Y-93345000D03*
X128270000Y-95885000D03*
X128270000Y-98425000D03*
X128270000Y-100965000D03*
X128270000Y-103505000D03*
X128270000Y-106045000D03*
X128270000Y-108585000D03*
X128270000Y-111125000D03*
X128270000Y-113665000D03*
X128270000Y-116205000D03*
X128270000Y-118745000D03*
X128270000Y-121285000D03*
X128270000Y-123825000D03*
X128270000Y-126365000D03*
X128270000Y-128905000D03*
X130810000Y-45085000D03*
X130810000Y-47625000D03*
X130810000Y-50165000D03*
X130810000Y-52705000D03*
X130810000Y-55245000D03*
X130810000Y-57785000D03*
X130810000Y-60325000D03*
X130810000Y-62865000D03*
X130810000Y-65405000D03*
X130810000Y-67945000D03*
X130810000Y-70485000D03*
X130810000Y-73025000D03*
X130810000Y-75565000D03*
X130810000Y-78105000D03*
X130810000Y-80645000D03*
X130810000Y-83185000D03*
X130810000Y-85725000D03*
X130810000Y-88265000D03*
X130810000Y-90805000D03*
X130810000Y-93345000D03*
X130810000Y-95885000D03*
X130810000Y-98425000D03*
X130810000Y-100965000D03*
X130810000Y-103505000D03*
X130810000Y-106045000D03*
X130810000Y-108585000D03*
X130810000Y-111125000D03*
X130810000Y-113665000D03*
X130810000Y-116205000D03*
X130810000Y-118745000D03*
X130810000Y-121285000D03*
X130810000Y-123825000D03*
X130810000Y-126365000D03*
X130810000Y-128905000D03*
X133350000Y-45085000D03*
X133350000Y-47625000D03*
X133350000Y-50165000D03*
X133350000Y-52705000D03*
X133350000Y-55245000D03*
X133350000Y-57785000D03*
X133350000Y-60325000D03*
X133350000Y-62865000D03*
X133350000Y-65405000D03*
X133350000Y-67945000D03*
X133350000Y-70485000D03*
X133350000Y-73025000D03*
X133350000Y-75565000D03*
X133350000Y-78105000D03*
X133350000Y-80645000D03*
X133350000Y-83185000D03*
X133350000Y-85725000D03*
X133350000Y-88265000D03*
X133350000Y-90805000D03*
X133350000Y-93345000D03*
X133350000Y-95885000D03*
X133350000Y-98425000D03*
X133350000Y-100965000D03*
X133350000Y-103505000D03*
X133350000Y-106045000D03*
X133350000Y-108585000D03*
X133350000Y-111125000D03*
X133350000Y-113665000D03*
X133350000Y-116205000D03*
X133350000Y-118745000D03*
X133350000Y-121285000D03*
X133350000Y-123825000D03*
X133350000Y-126365000D03*
X133350000Y-128905000D03*
X135890000Y-45085000D03*
X135890000Y-47625000D03*
X135890000Y-50165000D03*
X135890000Y-52705000D03*
X135890000Y-55245000D03*
X135890000Y-57785000D03*
X135890000Y-60325000D03*
X135890000Y-62865000D03*
X135890000Y-65405000D03*
X135890000Y-67945000D03*
X135890000Y-70485000D03*
X135890000Y-73025000D03*
X135890000Y-75565000D03*
X135890000Y-78105000D03*
X135890000Y-80645000D03*
X135890000Y-83185000D03*
X135890000Y-85725000D03*
X135890000Y-88265000D03*
X135890000Y-90805000D03*
X135890000Y-93345000D03*
X135890000Y-95885000D03*
X135890000Y-98425000D03*
X135890000Y-100965000D03*
X135890000Y-103505000D03*
X135890000Y-106045000D03*
X135890000Y-108585000D03*
X135890000Y-111125000D03*
X135890000Y-113665000D03*
X135890000Y-116205000D03*
X135890000Y-118745000D03*
X135890000Y-121285000D03*
X135890000Y-123825000D03*
X135890000Y-126365000D03*
X135890000Y-128905000D03*
X138430000Y-45085000D03*
X138430000Y-47625000D03*
X138430000Y-50165000D03*
X138430000Y-52705000D03*
X138430000Y-55245000D03*
X138430000Y-57785000D03*
X138430000Y-60325000D03*
X138430000Y-62865000D03*
X138430000Y-65405000D03*
X138430000Y-67945000D03*
X138430000Y-70485000D03*
X138430000Y-73025000D03*
X138430000Y-75565000D03*
X138430000Y-78105000D03*
X138430000Y-80645000D03*
X138430000Y-83185000D03*
X138430000Y-85725000D03*
X138430000Y-88265000D03*
X138430000Y-90805000D03*
X138430000Y-93345000D03*
X138430000Y-95885000D03*
X138430000Y-98425000D03*
X138430000Y-100965000D03*
X138430000Y-103505000D03*
X138430000Y-106045000D03*
X138430000Y-108585000D03*
X138430000Y-111125000D03*
X138430000Y-113665000D03*
X138430000Y-116205000D03*
X138430000Y-118745000D03*
X138430000Y-121285000D03*
X138430000Y-123825000D03*
X138430000Y-126365000D03*
X138430000Y-128905000D03*
X140970000Y-45085000D03*
X140970000Y-47625000D03*
X140970000Y-50165000D03*
X140970000Y-52705000D03*
X140970000Y-55245000D03*
X140970000Y-57785000D03*
X140970000Y-60325000D03*
X140970000Y-62865000D03*
X140970000Y-65405000D03*
X140970000Y-67945000D03*
X140970000Y-70485000D03*
X140970000Y-73025000D03*
X140970000Y-75565000D03*
X140970000Y-78105000D03*
X140970000Y-80645000D03*
X140970000Y-83185000D03*
X140970000Y-85725000D03*
X140970000Y-88265000D03*
X140970000Y-90805000D03*
X140970000Y-93345000D03*
X140970000Y-95885000D03*
X140970000Y-98425000D03*
X140970000Y-100965000D03*
X140970000Y-103505000D03*
X140970000Y-106045000D03*
X140970000Y-108585000D03*
X140970000Y-111125000D03*
X140970000Y-113665000D03*
X140970000Y-116205000D03*
X140970000Y-118745000D03*
X140970000Y-121285000D03*
X140970000Y-123825000D03*
X140970000Y-126365000D03*
X140970000Y-128905000D03*
X143510000Y-45085000D03*
X143510000Y-47625000D03*
X143510000Y-50165000D03*
X143510000Y-52705000D03*
X143510000Y-55245000D03*
X143510000Y-57785000D03*
X143510000Y-60325000D03*
X143510000Y-62865000D03*
X143510000Y-65405000D03*
X143510000Y-67945000D03*
X143510000Y-70485000D03*
X143510000Y-73025000D03*
X143510000Y-75565000D03*
X143510000Y-78105000D03*
X143510000Y-80645000D03*
X143510000Y-83185000D03*
X143510000Y-85725000D03*
X143510000Y-88265000D03*
X143510000Y-90805000D03*
X143510000Y-93345000D03*
X143510000Y-95885000D03*
X143510000Y-98425000D03*
X143510000Y-100965000D03*
X143510000Y-103505000D03*
X143510000Y-106045000D03*
X143510000Y-108585000D03*
X143510000Y-111125000D03*
X143510000Y-113665000D03*
X143510000Y-116205000D03*
X143510000Y-118745000D03*
X143510000Y-121285000D03*
X143510000Y-123825000D03*
X143510000Y-126365000D03*
X143510000Y-128905000D03*
X146050000Y-45085000D03*
X146050000Y-47625000D03*
X146050000Y-50165000D03*
X146050000Y-52705000D03*
X146050000Y-55245000D03*
X146050000Y-57785000D03*
X146050000Y-60325000D03*
X146050000Y-62865000D03*
X146050000Y-65405000D03*
X146050000Y-67945000D03*
X146050000Y-70485000D03*
X146050000Y-73025000D03*
X146050000Y-75565000D03*
X146050000Y-78105000D03*
X146050000Y-80645000D03*
X146050000Y-83185000D03*
X146050000Y-85725000D03*
X146050000Y-88265000D03*
X146050000Y-90805000D03*
X146050000Y-93345000D03*
X146050000Y-95885000D03*
X146050000Y-98425000D03*
X146050000Y-100965000D03*
X146050000Y-103505000D03*
X146050000Y-106045000D03*
X146050000Y-108585000D03*
X146050000Y-111125000D03*
X146050000Y-113665000D03*
X146050000Y-116205000D03*
X146050000Y-118745000D03*
X146050000Y-121285000D03*
X146050000Y-123825000D03*
X146050000Y-126365000D03*
X146050000Y-128905000D03*
X148590000Y-45085000D03*
X148590000Y-47625000D03*
X148590000Y-50165000D03*
X148590000Y-52705000D03*
X148590000Y-55245000D03*
X148590000Y-57785000D03*
X148590000Y-60325000D03*
X148590000Y-62865000D03*
X148590000Y-65405000D03*
X148590000Y-67945000D03*
X148590000Y-70485000D03*
X148590000Y-73025000D03*
X148590000Y-75565000D03*
X148590000Y-78105000D03*
X148590000Y-80645000D03*
X148590000Y-83185000D03*
X148590000Y-85725000D03*
X148590000Y-88265000D03*
X148590000Y-90805000D03*
X148590000Y-93345000D03*
X148590000Y-95885000D03*
X148590000Y-98425000D03*
X148590000Y-100965000D03*
X148590000Y-103505000D03*
X148590000Y-106045000D03*
X148590000Y-108585000D03*
X148590000Y-111125000D03*
X148590000Y-113665000D03*
X148590000Y-116205000D03*
X148590000Y-118745000D03*
X148590000Y-121285000D03*
X148590000Y-123825000D03*
X148590000Y-126365000D03*
X148590000Y-128905000D03*
X151130000Y-45085000D03*
X151130000Y-47625000D03*
X151130000Y-50165000D03*
X151130000Y-52705000D03*
X151130000Y-55245000D03*
X151130000Y-57785000D03*
X151130000Y-60325000D03*
X151130000Y-62865000D03*
X151130000Y-65405000D03*
X151130000Y-67945000D03*
X151130000Y-70485000D03*
X151130000Y-73025000D03*
X151130000Y-75565000D03*
X151130000Y-78105000D03*
X151130000Y-80645000D03*
X151130000Y-83185000D03*
X151130000Y-85725000D03*
X151130000Y-88265000D03*
X151130000Y-90805000D03*
X151130000Y-93345000D03*
X151130000Y-95885000D03*
X151130000Y-98425000D03*
X151130000Y-100965000D03*
X151130000Y-103505000D03*
X151130000Y-106045000D03*
X151130000Y-108585000D03*
X151130000Y-111125000D03*
X151130000Y-113665000D03*
X151130000Y-116205000D03*
X151130000Y-118745000D03*
X151130000Y-121285000D03*
X151130000Y-123825000D03*
X151130000Y-126365000D03*
X151130000Y-128905000D03*
X153670000Y-45085000D03*
X153670000Y-47625000D03*
X153670000Y-50165000D03*
X153670000Y-52705000D03*
X153670000Y-55245000D03*
X153670000Y-57785000D03*
X153670000Y-60325000D03*
X153670000Y-62865000D03*
X153670000Y-65405000D03*
X153670000Y-67945000D03*
X153670000Y-70485000D03*
X153670000Y-73025000D03*
X153670000Y-75565000D03*
X153670000Y-78105000D03*
X153670000Y-80645000D03*
X153670000Y-83185000D03*
X153670000Y-85725000D03*
X153670000Y-88265000D03*
X153670000Y-90805000D03*
X153670000Y-93345000D03*
X153670000Y-95885000D03*
X153670000Y-98425000D03*
X153670000Y-100965000D03*
X153670000Y-103505000D03*
X153670000Y-106045000D03*
X153670000Y-108585000D03*
X153670000Y-111125000D03*
X153670000Y-113665000D03*
X153670000Y-116205000D03*
X153670000Y-118745000D03*
X153670000Y-121285000D03*
X153670000Y-123825000D03*
X153670000Y-126365000D03*
X153670000Y-128905000D03*
X156210000Y-45085000D03*
X156210000Y-47625000D03*
X156210000Y-50165000D03*
X156210000Y-52705000D03*
X156210000Y-55245000D03*
X156210000Y-57785000D03*
X156210000Y-60325000D03*
X156210000Y-62865000D03*
X156210000Y-65405000D03*
X156210000Y-67945000D03*
X156210000Y-70485000D03*
X156210000Y-73025000D03*
X156210000Y-75565000D03*
X156210000Y-78105000D03*
X156210000Y-80645000D03*
X156210000Y-83185000D03*
X156210000Y-85725000D03*
X156210000Y-88265000D03*
X156210000Y-90805000D03*
X156210000Y-93345000D03*
X156210000Y-95885000D03*
X156210000Y-98425000D03*
X156210000Y-100965000D03*
X156210000Y-103505000D03*
X156210000Y-106045000D03*
X156210000Y-108585000D03*
X156210000Y-111125000D03*
X156210000Y-113665000D03*
X156210000Y-116205000D03*
X156210000Y-118745000D03*
X156210000Y-121285000D03*
X156210000Y-123825000D03*
X156210000Y-126365000D03*
X156210000Y-128905000D03*
X158750000Y-45085000D03*
X158750000Y-47625000D03*
X158750000Y-50165000D03*
X158750000Y-52705000D03*
X158750000Y-55245000D03*
X158750000Y-57785000D03*
X158750000Y-60325000D03*
X158750000Y-62865000D03*
X158750000Y-65405000D03*
X158750000Y-67945000D03*
X158750000Y-70485000D03*
X158750000Y-73025000D03*
X158750000Y-75565000D03*
X158750000Y-78105000D03*
X158750000Y-80645000D03*
X158750000Y-83185000D03*
X158750000Y-85725000D03*
X158750000Y-88265000D03*
X158750000Y-90805000D03*
X158750000Y-93345000D03*
X158750000Y-95885000D03*
X158750000Y-98425000D03*
X158750000Y-100965000D03*
X158750000Y-103505000D03*
X158750000Y-106045000D03*
X158750000Y-108585000D03*
X158750000Y-111125000D03*
X158750000Y-113665000D03*
X158750000Y-116205000D03*
X158750000Y-118745000D03*
X158750000Y-121285000D03*
X158750000Y-123825000D03*
X158750000Y-126365000D03*
X158750000Y-128905000D03*
X161290000Y-45085000D03*
X161290000Y-47625000D03*
X161290000Y-50165000D03*
X161290000Y-52705000D03*
X161290000Y-55245000D03*
X161290000Y-57785000D03*
X161290000Y-60325000D03*
X161290000Y-62865000D03*
X161290000Y-65405000D03*
X161290000Y-67945000D03*
X161290000Y-70485000D03*
X161290000Y-73025000D03*
X161290000Y-75565000D03*
X161290000Y-78105000D03*
X161290000Y-80645000D03*
X161290000Y-83185000D03*
X161290000Y-85725000D03*
X161290000Y-88265000D03*
X161290000Y-90805000D03*
X161290000Y-93345000D03*
X161290000Y-95885000D03*
X161290000Y-98425000D03*
X161290000Y-100965000D03*
X161290000Y-103505000D03*
X161290000Y-106045000D03*
X161290000Y-108585000D03*
X161290000Y-111125000D03*
X161290000Y-113665000D03*
X161290000Y-116205000D03*
X161290000Y-118745000D03*
X161290000Y-121285000D03*
X161290000Y-123825000D03*
X161290000Y-126365000D03*
X161290000Y-128905000D03*
X163830000Y-45085000D03*
X163830000Y-47625000D03*
X163830000Y-50165000D03*
X163830000Y-52705000D03*
X163830000Y-55245000D03*
X163830000Y-57785000D03*
X163830000Y-60325000D03*
X163830000Y-62865000D03*
X163830000Y-65405000D03*
X163830000Y-67945000D03*
X163830000Y-70485000D03*
X163830000Y-73025000D03*
X163830000Y-75565000D03*
X163830000Y-78105000D03*
X163830000Y-80645000D03*
X163830000Y-83185000D03*
X163830000Y-85725000D03*
X163830000Y-88265000D03*
X163830000Y-90805000D03*
X163830000Y-93345000D03*
X163830000Y-95885000D03*
X163830000Y-98425000D03*
X163830000Y-100965000D03*
X163830000Y-103505000D03*
X163830000Y-106045000D03*
X163830000Y-108585000D03*
X163830000Y-111125000D03*
X163830000Y-113665000D03*
X163830000Y-116205000D03*
X163830000Y-118745000D03*
X163830000Y-121285000D03*
X163830000Y-123825000D03*
X163830000Y-126365000D03*
X163830000Y-128905000D03*
X166370000Y-45085000D03*
X166370000Y-47625000D03*
X166370000Y-50165000D03*
X166370000Y-52705000D03*
X166370000Y-55245000D03*
X166370000Y-57785000D03*
X166370000Y-60325000D03*
X166370000Y-62865000D03*
X166370000Y-65405000D03*
X166370000Y-67945000D03*
X166370000Y-70485000D03*
X166370000Y-73025000D03*
X166370000Y-75565000D03*
X166370000Y-78105000D03*
X166370000Y-80645000D03*
X166370000Y-83185000D03*
X166370000Y-85725000D03*
X166370000Y-88265000D03*
X166370000Y-90805000D03*
X166370000Y-93345000D03*
X166370000Y-95885000D03*
X166370000Y-98425000D03*
X166370000Y-100965000D03*
X166370000Y-103505000D03*
X166370000Y-106045000D03*
X166370000Y-108585000D03*
X166370000Y-111125000D03*
X166370000Y-113665000D03*
X166370000Y-116205000D03*
X166370000Y-118745000D03*
X166370000Y-121285000D03*
X166370000Y-123825000D03*
X166370000Y-126365000D03*
X166370000Y-128905000D03*
X168910000Y-45085000D03*
X168910000Y-47625000D03*
X168910000Y-50165000D03*
X168910000Y-52705000D03*
X168910000Y-55245000D03*
X168910000Y-57785000D03*
X168910000Y-60325000D03*
X168910000Y-62865000D03*
X168910000Y-65405000D03*
X168910000Y-67945000D03*
X168910000Y-70485000D03*
X168910000Y-73025000D03*
X168910000Y-75565000D03*
X168910000Y-78105000D03*
X168910000Y-80645000D03*
X168910000Y-83185000D03*
X168910000Y-85725000D03*
X168910000Y-88265000D03*
X168910000Y-90805000D03*
X168910000Y-93345000D03*
X168910000Y-95885000D03*
X168910000Y-98425000D03*
X168910000Y-100965000D03*
X168910000Y-103505000D03*
X168910000Y-106045000D03*
X168910000Y-108585000D03*
X168910000Y-111125000D03*
X168910000Y-113665000D03*
X168910000Y-116205000D03*
X168910000Y-118745000D03*
X168910000Y-121285000D03*
X168910000Y-123825000D03*
X168910000Y-126365000D03*
X168910000Y-128905000D03*
X171450000Y-45085000D03*
X171450000Y-47625000D03*
X171450000Y-50165000D03*
X171450000Y-52705000D03*
X171450000Y-55245000D03*
X171450000Y-57785000D03*
X171450000Y-60325000D03*
X171450000Y-62865000D03*
X171450000Y-65405000D03*
X171450000Y-67945000D03*
X171450000Y-70485000D03*
X171450000Y-73025000D03*
X171450000Y-75565000D03*
X171450000Y-78105000D03*
X171450000Y-80645000D03*
X171450000Y-83185000D03*
X171450000Y-85725000D03*
X171450000Y-88265000D03*
X171450000Y-90805000D03*
X171450000Y-93345000D03*
X171450000Y-95885000D03*
X171450000Y-98425000D03*
X171450000Y-100965000D03*
X171450000Y-103505000D03*
X171450000Y-106045000D03*
X171450000Y-108585000D03*
X171450000Y-111125000D03*
X171450000Y-113665000D03*
X171450000Y-116205000D03*
X171450000Y-118745000D03*
X171450000Y-121285000D03*
X171450000Y-123825000D03*
X171450000Y-126365000D03*
X171450000Y-128905000D03*
X173990000Y-45085000D03*
X173990000Y-47625000D03*
X173990000Y-50165000D03*
X173990000Y-52705000D03*
X173990000Y-55245000D03*
X173990000Y-57785000D03*
X173990000Y-60325000D03*
X173990000Y-62865000D03*
X173990000Y-65405000D03*
X173990000Y-67945000D03*
X173990000Y-70485000D03*
X173990000Y-73025000D03*
X173990000Y-75565000D03*
X173990000Y-78105000D03*
X173990000Y-80645000D03*
X173990000Y-83185000D03*
X173990000Y-85725000D03*
X173990000Y-88265000D03*
X173990000Y-90805000D03*
X173990000Y-93345000D03*
X173990000Y-95885000D03*
X173990000Y-98425000D03*
X173990000Y-100965000D03*
X173990000Y-103505000D03*
X173990000Y-106045000D03*
X173990000Y-108585000D03*
X173990000Y-111125000D03*
X173990000Y-113665000D03*
X173990000Y-116205000D03*
X173990000Y-118745000D03*
X173990000Y-121285000D03*
X173990000Y-123825000D03*
X173990000Y-126365000D03*
X173990000Y-128905000D03*
X176530000Y-45085000D03*
X176530000Y-47625000D03*
X176530000Y-50165000D03*
X176530000Y-52705000D03*
X176530000Y-55245000D03*
X176530000Y-57785000D03*
X176530000Y-60325000D03*
X176530000Y-62865000D03*
X176530000Y-65405000D03*
X176530000Y-67945000D03*
X176530000Y-70485000D03*
X176530000Y-73025000D03*
X176530000Y-75565000D03*
X176530000Y-78105000D03*
X176530000Y-80645000D03*
X176530000Y-83185000D03*
X176530000Y-85725000D03*
X176530000Y-88265000D03*
X176530000Y-90805000D03*
X176530000Y-93345000D03*
X176530000Y-95885000D03*
X176530000Y-98425000D03*
X176530000Y-100965000D03*
X176530000Y-103505000D03*
X176530000Y-106045000D03*
X176530000Y-108585000D03*
X176530000Y-111125000D03*
X176530000Y-113665000D03*
X176530000Y-116205000D03*
X176530000Y-118745000D03*
X176530000Y-121285000D03*
X176530000Y-123825000D03*
X176530000Y-126365000D03*
X176530000Y-128905000D03*
X179070000Y-45085000D03*
X179070000Y-47625000D03*
X179070000Y-50165000D03*
X179070000Y-52705000D03*
X179070000Y-55245000D03*
X179070000Y-57785000D03*
X179070000Y-60325000D03*
X179070000Y-62865000D03*
X179070000Y-65405000D03*
X179070000Y-67945000D03*
X179070000Y-70485000D03*
X179070000Y-73025000D03*
X179070000Y-75565000D03*
X179070000Y-78105000D03*
X179070000Y-80645000D03*
X179070000Y-83185000D03*
X179070000Y-85725000D03*
X179070000Y-88265000D03*
X179070000Y-90805000D03*
X179070000Y-93345000D03*
X179070000Y-95885000D03*
X179070000Y-98425000D03*
X179070000Y-100965000D03*
X179070000Y-103505000D03*
X179070000Y-106045000D03*
X179070000Y-108585000D03*
X179070000Y-111125000D03*
X179070000Y-113665000D03*
X179070000Y-116205000D03*
X179070000Y-118745000D03*
X179070000Y-121285000D03*
X179070000Y-123825000D03*
X179070000Y-126365000D03*
X179070000Y-128905000D03*
X181610000Y-45085000D03*
X181610000Y-47625000D03*
X181610000Y-50165000D03*
X181610000Y-52705000D03*
X181610000Y-55245000D03*
X181610000Y-57785000D03*
X181610000Y-60325000D03*
X181610000Y-62865000D03*
X181610000Y-65405000D03*
X181610000Y-67945000D03*
X181610000Y-70485000D03*
X181610000Y-73025000D03*
X181610000Y-75565000D03*
X181610000Y-78105000D03*
X181610000Y-80645000D03*
X181610000Y-83185000D03*
X181610000Y-85725000D03*
X181610000Y-88265000D03*
X181610000Y-90805000D03*
X181610000Y-93345000D03*
X181610000Y-95885000D03*
X181610000Y-98425000D03*
X181610000Y-100965000D03*
X181610000Y-103505000D03*
X181610000Y-106045000D03*
X181610000Y-108585000D03*
X181610000Y-111125000D03*
X181610000Y-113665000D03*
X181610000Y-116205000D03*
X181610000Y-118745000D03*
X181610000Y-121285000D03*
X181610000Y-123825000D03*
X181610000Y-126365000D03*
X181610000Y-128905000D03*
X184150000Y-45085000D03*
X184150000Y-47625000D03*
X184150000Y-50165000D03*
X184150000Y-52705000D03*
X184150000Y-55245000D03*
X184150000Y-57785000D03*
X184150000Y-60325000D03*
X184150000Y-62865000D03*
X184150000Y-65405000D03*
X184150000Y-67945000D03*
X184150000Y-70485000D03*
X184150000Y-73025000D03*
X184150000Y-75565000D03*
X184150000Y-78105000D03*
X184150000Y-80645000D03*
X184150000Y-83185000D03*
X184150000Y-85725000D03*
X184150000Y-88265000D03*
X184150000Y-90805000D03*
X184150000Y-93345000D03*
X184150000Y-95885000D03*
X184150000Y-98425000D03*
X184150000Y-100965000D03*
X184150000Y-103505000D03*
X184150000Y-106045000D03*
X184150000Y-108585000D03*
X184150000Y-111125000D03*
X184150000Y-113665000D03*
X184150000Y-116205000D03*
X184150000Y-118745000D03*
X184150000Y-121285000D03*
X184150000Y-123825000D03*
X184150000Y-126365000D03*
X184150000Y-128905000D03*
X186690000Y-45085000D03*
X186690000Y-47625000D03*
X186690000Y-50165000D03*
X186690000Y-52705000D03*
X186690000Y-55245000D03*
X186690000Y-57785000D03*
X186690000Y-60325000D03*
X186690000Y-62865000D03*
X186690000Y-65405000D03*
X186690000Y-67945000D03*
X186690000Y-70485000D03*
X186690000Y-73025000D03*
X186690000Y-75565000D03*
X186690000Y-78105000D03*
X186690000Y-80645000D03*
X186690000Y-83185000D03*
X186690000Y-85725000D03*
X186690000Y-88265000D03*
X186690000Y-90805000D03*
X186690000Y-93345000D03*
X186690000Y-95885000D03*
X186690000Y-98425000D03*
X186690000Y-100965000D03*
X186690000Y-103505000D03*
X186690000Y-106045000D03*
X186690000Y-108585000D03*
X186690000Y-111125000D03*
X186690000Y-113665000D03*
X186690000Y-116205000D03*
X186690000Y-118745000D03*
X186690000Y-121285000D03*
X186690000Y-123825000D03*
X186690000Y-126365000D03*
X186690000Y-128905000D03*
X189230000Y-45085000D03*
X189230000Y-47625000D03*
X189230000Y-50165000D03*
X189230000Y-52705000D03*
X189230000Y-55245000D03*
X189230000Y-57785000D03*
X189230000Y-60325000D03*
X189230000Y-62865000D03*
X189230000Y-65405000D03*
X189230000Y-67945000D03*
X189230000Y-70485000D03*
X189230000Y-73025000D03*
X189230000Y-75565000D03*
X189230000Y-78105000D03*
X189230000Y-80645000D03*
X189230000Y-83185000D03*
X189230000Y-85725000D03*
X189230000Y-88265000D03*
X189230000Y-90805000D03*
X189230000Y-93345000D03*
X189230000Y-95885000D03*
X189230000Y-98425000D03*
X189230000Y-100965000D03*
X189230000Y-103505000D03*
X189230000Y-106045000D03*
X189230000Y-108585000D03*
X189230000Y-111125000D03*
X189230000Y-113665000D03*
X189230000Y-116205000D03*
X189230000Y-118745000D03*
X189230000Y-121285000D03*
X189230000Y-123825000D03*
X189230000Y-126365000D03*
X189230000Y-128905000D03*
X101600000Y-135255000D03*
X104140000Y-135255000D03*
X106680000Y-135255000D03*
X109220000Y-135255000D03*
X111760000Y-135255000D03*
X114300000Y-135255000D03*
X116840000Y-135255000D03*
X119380000Y-135255000D03*
X121920000Y-135255000D03*
X124460000Y-135255000D03*
X127000000Y-135255000D03*
X129540000Y-135255000D03*
X132080000Y-135255000D03*
X134620000Y-135255000D03*
X137160000Y-135255000D03*
X139700000Y-135255000D03*
X142240000Y-135255000D03*
X144780000Y-135255000D03*
X147320000Y-135255000D03*
X149860000Y-135255000D03*
X152400000Y-135255000D03*
X154940000Y-135255000D03*
X157480000Y-135255000D03*
X160020000Y-135255000D03*
X162560000Y-135255000D03*
X165100000Y-135255000D03*
X167640000Y-135255000D03*
X170180000Y-135255000D03*
X172720000Y-135255000D03*
X175260000Y-135255000D03*
X177800000Y-135255000D03*
X180340000Y-135255000D03*
X182880000Y-135255000D03*
X185420000Y-135255000D03*
X187960000Y-135255000D03*
X190500000Y-135255000D03*
X193040000Y-135255000D03*
X195580000Y-135255000D03*
X198120000Y-135255000D03*
X198120000Y-132715000D03*
X195580000Y-132715000D03*
X193040000Y-132715000D03*
X190500000Y-132715000D03*
X187960000Y-132715000D03*
X185420000Y-132715000D03*
X182880000Y-132715000D03*
X180340000Y-132715000D03*
X177800000Y-132715000D03*
X175260000Y-132715000D03*
X172720000Y-132715000D03*
X170180000Y-132715000D03*
X167640000Y-132715000D03*
X165100000Y-132715000D03*
X162560000Y-132715000D03*
X160020000Y-132715000D03*
X157480000Y-132715000D03*
X154940000Y-132715000D03*
X152400000Y-132715000D03*
X149860000Y-132715000D03*
X147320000Y-132715000D03*
X144780000Y-132715000D03*
X142240000Y-132715000D03*
X139700000Y-132715000D03*
X137160000Y-132715000D03*
X134620000Y-132715000D03*
X132080000Y-132715000D03*
X129540000Y-132715000D03*
X127000000Y-132715000D03*
X124460000Y-132715000D03*
X121920000Y-132715000D03*
X119380000Y-132715000D03*
X116840000Y-132715000D03*
X114300000Y-132715000D03*
X111760000Y-132715000D03*
X109220000Y-132715000D03*
X106680000Y-132715000D03*
X104140000Y-132715000D03*
X101600000Y-132715000D03*
D14*
G36*
X109005000Y-42259250D02*
X109163750Y-42418000D01*
X110363000Y-42418000D01*
X110363000Y-42398000D01*
X110617000Y-42398000D01*
X110617000Y-42418000D01*
X112903000Y-42418000D01*
X112903000Y-42398000D01*
X113157000Y-42398000D01*
X113157000Y-42418000D01*
X115443000Y-42418000D01*
X115443000Y-42398000D01*
X115697000Y-42398000D01*
X115697000Y-42418000D01*
X117983000Y-42418000D01*
X117983000Y-42398000D01*
X118237000Y-42398000D01*
X118237000Y-42418000D01*
X120523000Y-42418000D01*
X120523000Y-42398000D01*
X120777000Y-42398000D01*
X120777000Y-42418000D01*
X123063000Y-42418000D01*
X123063000Y-42398000D01*
X123317000Y-42398000D01*
X123317000Y-42418000D01*
X125603000Y-42418000D01*
X125603000Y-42398000D01*
X125857000Y-42398000D01*
X125857000Y-42418000D01*
X128143000Y-42418000D01*
X128143000Y-42398000D01*
X128397000Y-42398000D01*
X128397000Y-42418000D01*
X130683000Y-42418000D01*
X130683000Y-42398000D01*
X130937000Y-42398000D01*
X130937000Y-42418000D01*
X133223000Y-42418000D01*
X133223000Y-42398000D01*
X133477000Y-42398000D01*
X133477000Y-42418000D01*
X135763000Y-42418000D01*
X135763000Y-42398000D01*
X136017000Y-42398000D01*
X136017000Y-42418000D01*
X138303000Y-42418000D01*
X138303000Y-42398000D01*
X138557000Y-42398000D01*
X138557000Y-42418000D01*
X140843000Y-42418000D01*
X140843000Y-42398000D01*
X141097000Y-42398000D01*
X141097000Y-42418000D01*
X143383000Y-42418000D01*
X143383000Y-42398000D01*
X143637000Y-42398000D01*
X143637000Y-42418000D01*
X145923000Y-42418000D01*
X145923000Y-42398000D01*
X146177000Y-42398000D01*
X146177000Y-42418000D01*
X148463000Y-42418000D01*
X148463000Y-42398000D01*
X148717000Y-42398000D01*
X148717000Y-42418000D01*
X151003000Y-42418000D01*
X151003000Y-42398000D01*
X151257000Y-42398000D01*
X151257000Y-42418000D01*
X153543000Y-42418000D01*
X153543000Y-42398000D01*
X153797000Y-42398000D01*
X153797000Y-42418000D01*
X156083000Y-42418000D01*
X156083000Y-42398000D01*
X156337000Y-42398000D01*
X156337000Y-42418000D01*
X158623000Y-42418000D01*
X158623000Y-42398000D01*
X158877000Y-42398000D01*
X158877000Y-42418000D01*
X161163000Y-42418000D01*
X161163000Y-42398000D01*
X161417000Y-42398000D01*
X161417000Y-42418000D01*
X163703000Y-42418000D01*
X163703000Y-42398000D01*
X163957000Y-42398000D01*
X163957000Y-42418000D01*
X166243000Y-42418000D01*
X166243000Y-42398000D01*
X166497000Y-42398000D01*
X166497000Y-42418000D01*
X168783000Y-42418000D01*
X168783000Y-42398000D01*
X169037000Y-42398000D01*
X169037000Y-42418000D01*
X171323000Y-42418000D01*
X171323000Y-42398000D01*
X171577000Y-42398000D01*
X171577000Y-42418000D01*
X173863000Y-42418000D01*
X173863000Y-42398000D01*
X174117000Y-42398000D01*
X174117000Y-42418000D01*
X176403000Y-42418000D01*
X176403000Y-42398000D01*
X176657000Y-42398000D01*
X176657000Y-42418000D01*
X178943000Y-42418000D01*
X178943000Y-42398000D01*
X179197000Y-42398000D01*
X179197000Y-42418000D01*
X181483000Y-42418000D01*
X181483000Y-42398000D01*
X181737000Y-42398000D01*
X181737000Y-42418000D01*
X184023000Y-42418000D01*
X184023000Y-42398000D01*
X184277000Y-42398000D01*
X184277000Y-42418000D01*
X186563000Y-42418000D01*
X186563000Y-42398000D01*
X186817000Y-42398000D01*
X186817000Y-42418000D01*
X189103000Y-42418000D01*
X189103000Y-42398000D01*
X189357000Y-42398000D01*
X189357000Y-42418000D01*
X190550819Y-42418000D01*
X190671486Y-42188108D01*
X190576101Y-41985000D01*
X194875069Y-41985000D01*
X196369001Y-42282161D01*
X197576209Y-43088791D01*
X198382839Y-44296001D01*
X198680000Y-45789931D01*
X198680000Y-48667560D01*
X197270000Y-48667560D01*
X197034683Y-48711838D01*
X196818559Y-48850910D01*
X196673569Y-49063110D01*
X196622560Y-49315000D01*
X196622560Y-51015000D01*
X196666838Y-51250317D01*
X196805910Y-51466441D01*
X197018110Y-51611431D01*
X197085541Y-51625086D01*
X197040853Y-51654946D01*
X196718946Y-52136715D01*
X196605907Y-52705000D01*
X196718946Y-53273285D01*
X197040853Y-53755054D01*
X197370026Y-53975000D01*
X197040853Y-54194946D01*
X196718946Y-54676715D01*
X196605907Y-55245000D01*
X196718946Y-55813285D01*
X197040853Y-56295054D01*
X197370026Y-56515000D01*
X197040853Y-56734946D01*
X196718946Y-57216715D01*
X196605907Y-57785000D01*
X196718946Y-58353285D01*
X197040853Y-58835054D01*
X197370026Y-59055000D01*
X197040853Y-59274946D01*
X196718946Y-59756715D01*
X196605907Y-60325000D01*
X196718946Y-60893285D01*
X197040853Y-61375054D01*
X197370026Y-61595000D01*
X197040853Y-61814946D01*
X196718946Y-62296715D01*
X196605907Y-62865000D01*
X196718946Y-63433285D01*
X197040853Y-63915054D01*
X197370026Y-64135000D01*
X197040853Y-64354946D01*
X196718946Y-64836715D01*
X196605907Y-65405000D01*
X196718946Y-65973285D01*
X197040853Y-66455054D01*
X197370026Y-66675000D01*
X197040853Y-66894946D01*
X196718946Y-67376715D01*
X196605907Y-67945000D01*
X196718946Y-68513285D01*
X197040853Y-68995054D01*
X197370026Y-69215000D01*
X197040853Y-69434946D01*
X196718946Y-69916715D01*
X196605907Y-70485000D01*
X196718946Y-71053285D01*
X197040853Y-71535054D01*
X197370026Y-71755000D01*
X197040853Y-71974946D01*
X196718946Y-72456715D01*
X196605907Y-73025000D01*
X196718946Y-73593285D01*
X197040853Y-74075054D01*
X197370026Y-74295000D01*
X197040853Y-74514946D01*
X196718946Y-74996715D01*
X196605907Y-75565000D01*
X196718946Y-76133285D01*
X197040853Y-76615054D01*
X197370026Y-76835000D01*
X197040853Y-77054946D01*
X196718946Y-77536715D01*
X196605907Y-78105000D01*
X196718946Y-78673285D01*
X197040853Y-79155054D01*
X197370026Y-79375000D01*
X197040853Y-79594946D01*
X196718946Y-80076715D01*
X196605907Y-80645000D01*
X196718946Y-81213285D01*
X197040853Y-81695054D01*
X197370026Y-81915000D01*
X197040853Y-82134946D01*
X196718946Y-82616715D01*
X196605907Y-83185000D01*
X196718946Y-83753285D01*
X197040853Y-84235054D01*
X197370026Y-84455000D01*
X197040853Y-84674946D01*
X196718946Y-85156715D01*
X196605907Y-85725000D01*
X196718946Y-86293285D01*
X197040853Y-86775054D01*
X197370026Y-86995000D01*
X197040853Y-87214946D01*
X196718946Y-87696715D01*
X196605907Y-88265000D01*
X196718946Y-88833285D01*
X197040853Y-89315054D01*
X197370026Y-89535000D01*
X197040853Y-89754946D01*
X196718946Y-90236715D01*
X196605907Y-90805000D01*
X196718946Y-91373285D01*
X197040853Y-91855054D01*
X197370026Y-92075000D01*
X197040853Y-92294946D01*
X196718946Y-92776715D01*
X196605907Y-93345000D01*
X196718946Y-93913285D01*
X197040853Y-94395054D01*
X197370026Y-94615000D01*
X197040853Y-94834946D01*
X196718946Y-95316715D01*
X196605907Y-95885000D01*
X196718946Y-96453285D01*
X197040853Y-96935054D01*
X197370026Y-97155000D01*
X197040853Y-97374946D01*
X196718946Y-97856715D01*
X196605907Y-98425000D01*
X196718946Y-98993285D01*
X197040853Y-99475054D01*
X197370026Y-99695000D01*
X197040853Y-99914946D01*
X196718946Y-100396715D01*
X196605907Y-100965000D01*
X196718946Y-101533285D01*
X197040853Y-102015054D01*
X197370026Y-102235000D01*
X197040853Y-102454946D01*
X196718946Y-102936715D01*
X196605907Y-103505000D01*
X196718946Y-104073285D01*
X197040853Y-104555054D01*
X197370026Y-104775000D01*
X197040853Y-104994946D01*
X196718946Y-105476715D01*
X196605907Y-106045000D01*
X196718946Y-106613285D01*
X197040853Y-107095054D01*
X197370026Y-107315000D01*
X197040853Y-107534946D01*
X196718946Y-108016715D01*
X196605907Y-108585000D01*
X196718946Y-109153285D01*
X197040853Y-109635054D01*
X197370026Y-109855000D01*
X197040853Y-110074946D01*
X196718946Y-110556715D01*
X196605907Y-111125000D01*
X196718946Y-111693285D01*
X197040853Y-112175054D01*
X197370026Y-112395000D01*
X197040853Y-112614946D01*
X196718946Y-113096715D01*
X196605907Y-113665000D01*
X196718946Y-114233285D01*
X197040853Y-114715054D01*
X197370026Y-114935000D01*
X197040853Y-115154946D01*
X196718946Y-115636715D01*
X196605907Y-116205000D01*
X196718946Y-116773285D01*
X197040853Y-117255054D01*
X197370026Y-117475000D01*
X197040853Y-117694946D01*
X196718946Y-118176715D01*
X196605907Y-118745000D01*
X196718946Y-119313285D01*
X197040853Y-119795054D01*
X197370026Y-120015000D01*
X197040853Y-120234946D01*
X196718946Y-120716715D01*
X196605907Y-121285000D01*
X196718946Y-121853285D01*
X197040853Y-122335054D01*
X197370026Y-122555000D01*
X197040853Y-122774946D01*
X196718946Y-123256715D01*
X196605907Y-123825000D01*
X196718946Y-124393285D01*
X197040853Y-124875054D01*
X197370026Y-125095000D01*
X197040853Y-125314946D01*
X196718946Y-125796715D01*
X196605907Y-126365000D01*
X196718946Y-126933285D01*
X197040853Y-127415054D01*
X197370026Y-127635000D01*
X197040853Y-127854946D01*
X196718946Y-128336715D01*
X196605907Y-128905000D01*
X196718946Y-129473285D01*
X197040853Y-129955054D01*
X197522622Y-130276961D01*
X198090907Y-130390000D01*
X198149093Y-130390000D01*
X198680000Y-130284396D01*
X198680000Y-131312298D01*
X198120000Y-131200907D01*
X197551715Y-131313946D01*
X197069946Y-131635853D01*
X196850000Y-131965026D01*
X196630054Y-131635853D01*
X196148285Y-131313946D01*
X195580000Y-131200907D01*
X195011715Y-131313946D01*
X194529946Y-131635853D01*
X194310000Y-131965026D01*
X194090054Y-131635853D01*
X193608285Y-131313946D01*
X193040000Y-131200907D01*
X192471715Y-131313946D01*
X191989946Y-131635853D01*
X191770000Y-131965026D01*
X191550054Y-131635853D01*
X191068285Y-131313946D01*
X190500000Y-131200907D01*
X189931715Y-131313946D01*
X189449946Y-131635853D01*
X189230000Y-131965026D01*
X189010054Y-131635853D01*
X188528285Y-131313946D01*
X187960000Y-131200907D01*
X187391715Y-131313946D01*
X186909946Y-131635853D01*
X186690000Y-131965026D01*
X186470054Y-131635853D01*
X185988285Y-131313946D01*
X185420000Y-131200907D01*
X184851715Y-131313946D01*
X184369946Y-131635853D01*
X184150000Y-131965026D01*
X183930054Y-131635853D01*
X183448285Y-131313946D01*
X182880000Y-131200907D01*
X182311715Y-131313946D01*
X181829946Y-131635853D01*
X181610000Y-131965026D01*
X181390054Y-131635853D01*
X180908285Y-131313946D01*
X180340000Y-131200907D01*
X179771715Y-131313946D01*
X179289946Y-131635853D01*
X179070000Y-131965026D01*
X178850054Y-131635853D01*
X178368285Y-131313946D01*
X177800000Y-131200907D01*
X177231715Y-131313946D01*
X176749946Y-131635853D01*
X176530000Y-131965026D01*
X176310054Y-131635853D01*
X175828285Y-131313946D01*
X175260000Y-131200907D01*
X174691715Y-131313946D01*
X174209946Y-131635853D01*
X173990000Y-131965026D01*
X173770054Y-131635853D01*
X173288285Y-131313946D01*
X172720000Y-131200907D01*
X172151715Y-131313946D01*
X171669946Y-131635853D01*
X171450000Y-131965026D01*
X171230054Y-131635853D01*
X170748285Y-131313946D01*
X170180000Y-131200907D01*
X169611715Y-131313946D01*
X169129946Y-131635853D01*
X168910000Y-131965026D01*
X168690054Y-131635853D01*
X168208285Y-131313946D01*
X167640000Y-131200907D01*
X167071715Y-131313946D01*
X166589946Y-131635853D01*
X166370000Y-131965026D01*
X166150054Y-131635853D01*
X165668285Y-131313946D01*
X165100000Y-131200907D01*
X164531715Y-131313946D01*
X164049946Y-131635853D01*
X163830000Y-131965026D01*
X163610054Y-131635853D01*
X163128285Y-131313946D01*
X162560000Y-131200907D01*
X161991715Y-131313946D01*
X161509946Y-131635853D01*
X161290000Y-131965026D01*
X161070054Y-131635853D01*
X160588285Y-131313946D01*
X160020000Y-131200907D01*
X159451715Y-131313946D01*
X158969946Y-131635853D01*
X158742298Y-131976553D01*
X158675183Y-131833642D01*
X158246924Y-131443355D01*
X157836890Y-131273524D01*
X157607000Y-131394845D01*
X157607000Y-132588000D01*
X157627000Y-132588000D01*
X157627000Y-132842000D01*
X157607000Y-132842000D01*
X157607000Y-135128000D01*
X157627000Y-135128000D01*
X157627000Y-135382000D01*
X157607000Y-135382000D01*
X157607000Y-136575155D01*
X157836890Y-136696476D01*
X158246924Y-136526645D01*
X158675183Y-136136358D01*
X158742298Y-135993447D01*
X158969946Y-136334147D01*
X159451715Y-136656054D01*
X160020000Y-136769093D01*
X160588285Y-136656054D01*
X161070054Y-136334147D01*
X161290000Y-136004974D01*
X161509946Y-136334147D01*
X161991715Y-136656054D01*
X162560000Y-136769093D01*
X163128285Y-136656054D01*
X163610054Y-136334147D01*
X163830000Y-136004974D01*
X164049946Y-136334147D01*
X164531715Y-136656054D01*
X165100000Y-136769093D01*
X165668285Y-136656054D01*
X166150054Y-136334147D01*
X166370000Y-136004974D01*
X166589946Y-136334147D01*
X167071715Y-136656054D01*
X167640000Y-136769093D01*
X168208285Y-136656054D01*
X168690054Y-136334147D01*
X168910000Y-136004974D01*
X169129946Y-136334147D01*
X169611715Y-136656054D01*
X170180000Y-136769093D01*
X170748285Y-136656054D01*
X171230054Y-136334147D01*
X171450000Y-136004974D01*
X171669946Y-136334147D01*
X172151715Y-136656054D01*
X172720000Y-136769093D01*
X173288285Y-136656054D01*
X173770054Y-136334147D01*
X173990000Y-136004974D01*
X174209946Y-136334147D01*
X174691715Y-136656054D01*
X175260000Y-136769093D01*
X175828285Y-136656054D01*
X176310054Y-136334147D01*
X176530000Y-136004974D01*
X176749946Y-136334147D01*
X177231715Y-136656054D01*
X177800000Y-136769093D01*
X178368285Y-136656054D01*
X178850054Y-136334147D01*
X179070000Y-136004974D01*
X179289946Y-136334147D01*
X179771715Y-136656054D01*
X180340000Y-136769093D01*
X180908285Y-136656054D01*
X181390054Y-136334147D01*
X181610000Y-136004974D01*
X181829946Y-136334147D01*
X182311715Y-136656054D01*
X182880000Y-136769093D01*
X183448285Y-136656054D01*
X183930054Y-136334147D01*
X184150000Y-136004974D01*
X184369946Y-136334147D01*
X184851715Y-136656054D01*
X185420000Y-136769093D01*
X185988285Y-136656054D01*
X186470054Y-136334147D01*
X186690000Y-136004974D01*
X186909946Y-136334147D01*
X187391715Y-136656054D01*
X187960000Y-136769093D01*
X188528285Y-136656054D01*
X189010054Y-136334147D01*
X189230000Y-136004974D01*
X189449946Y-136334147D01*
X189931715Y-136656054D01*
X190500000Y-136769093D01*
X191068285Y-136656054D01*
X191550054Y-136334147D01*
X191770000Y-136004974D01*
X191989946Y-136334147D01*
X192471715Y-136656054D01*
X193040000Y-136769093D01*
X193608285Y-136656054D01*
X194090054Y-136334147D01*
X194310000Y-136004974D01*
X194529946Y-136334147D01*
X195011715Y-136656054D01*
X195580000Y-136769093D01*
X196148285Y-136656054D01*
X196630054Y-136334147D01*
X196850000Y-136004974D01*
X197069946Y-136334147D01*
X197551715Y-136656054D01*
X198120000Y-136769093D01*
X198680000Y-136657702D01*
X198680000Y-138202560D01*
X197270000Y-138202560D01*
X197034683Y-138246838D01*
X196818559Y-138385910D01*
X196673569Y-138598110D01*
X196659914Y-138665541D01*
X196630054Y-138620853D01*
X196148285Y-138298946D01*
X195580000Y-138185907D01*
X195011715Y-138298946D01*
X194529946Y-138620853D01*
X194310000Y-138950026D01*
X194090054Y-138620853D01*
X193608285Y-138298946D01*
X193040000Y-138185907D01*
X192471715Y-138298946D01*
X191989946Y-138620853D01*
X191770000Y-138950026D01*
X191550054Y-138620853D01*
X191068285Y-138298946D01*
X190500000Y-138185907D01*
X189931715Y-138298946D01*
X189449946Y-138620853D01*
X189230000Y-138950026D01*
X189010054Y-138620853D01*
X188528285Y-138298946D01*
X187960000Y-138185907D01*
X187391715Y-138298946D01*
X186909946Y-138620853D01*
X186690000Y-138950026D01*
X186470054Y-138620853D01*
X185988285Y-138298946D01*
X185420000Y-138185907D01*
X184851715Y-138298946D01*
X184369946Y-138620853D01*
X184150000Y-138950026D01*
X183930054Y-138620853D01*
X183448285Y-138298946D01*
X182880000Y-138185907D01*
X182311715Y-138298946D01*
X181829946Y-138620853D01*
X181610000Y-138950026D01*
X181390054Y-138620853D01*
X180908285Y-138298946D01*
X180340000Y-138185907D01*
X179771715Y-138298946D01*
X179289946Y-138620853D01*
X179070000Y-138950026D01*
X178850054Y-138620853D01*
X178368285Y-138298946D01*
X177800000Y-138185907D01*
X177231715Y-138298946D01*
X176749946Y-138620853D01*
X176530000Y-138950026D01*
X176310054Y-138620853D01*
X175828285Y-138298946D01*
X175260000Y-138185907D01*
X174691715Y-138298946D01*
X174209946Y-138620853D01*
X173990000Y-138950026D01*
X173770054Y-138620853D01*
X173288285Y-138298946D01*
X172720000Y-138185907D01*
X172151715Y-138298946D01*
X171669946Y-138620853D01*
X171450000Y-138950026D01*
X171230054Y-138620853D01*
X170748285Y-138298946D01*
X170180000Y-138185907D01*
X169611715Y-138298946D01*
X169129946Y-138620853D01*
X168910000Y-138950026D01*
X168690054Y-138620853D01*
X168208285Y-138298946D01*
X167640000Y-138185907D01*
X167071715Y-138298946D01*
X166589946Y-138620853D01*
X166370000Y-138950026D01*
X166150054Y-138620853D01*
X165668285Y-138298946D01*
X165100000Y-138185907D01*
X164531715Y-138298946D01*
X164049946Y-138620853D01*
X163830000Y-138950026D01*
X163610054Y-138620853D01*
X163128285Y-138298946D01*
X162560000Y-138185907D01*
X161991715Y-138298946D01*
X161509946Y-138620853D01*
X161290000Y-138950026D01*
X161070054Y-138620853D01*
X160588285Y-138298946D01*
X160020000Y-138185907D01*
X159451715Y-138298946D01*
X158969946Y-138620853D01*
X158742298Y-138961553D01*
X158675183Y-138818642D01*
X158246924Y-138428355D01*
X157836890Y-138258524D01*
X157607000Y-138379845D01*
X157607000Y-139573000D01*
X157627000Y-139573000D01*
X157627000Y-139827000D01*
X157607000Y-139827000D01*
X157607000Y-139847000D01*
X157353000Y-139847000D01*
X157353000Y-139827000D01*
X157333000Y-139827000D01*
X157333000Y-139573000D01*
X157353000Y-139573000D01*
X157353000Y-138379845D01*
X157123110Y-138258524D01*
X156713076Y-138428355D01*
X156284817Y-138818642D01*
X156217702Y-138961553D01*
X155990054Y-138620853D01*
X155508285Y-138298946D01*
X154940000Y-138185907D01*
X154371715Y-138298946D01*
X153889946Y-138620853D01*
X153670000Y-138950026D01*
X153450054Y-138620853D01*
X152968285Y-138298946D01*
X152400000Y-138185907D01*
X151831715Y-138298946D01*
X151349946Y-138620853D01*
X151130000Y-138950026D01*
X150910054Y-138620853D01*
X150428285Y-138298946D01*
X149860000Y-138185907D01*
X149291715Y-138298946D01*
X148809946Y-138620853D01*
X148590000Y-138950026D01*
X148370054Y-138620853D01*
X147888285Y-138298946D01*
X147320000Y-138185907D01*
X146751715Y-138298946D01*
X146269946Y-138620853D01*
X146050000Y-138950026D01*
X145830054Y-138620853D01*
X145348285Y-138298946D01*
X144780000Y-138185907D01*
X144211715Y-138298946D01*
X143729946Y-138620853D01*
X143510000Y-138950026D01*
X143290054Y-138620853D01*
X142808285Y-138298946D01*
X142240000Y-138185907D01*
X141671715Y-138298946D01*
X141189946Y-138620853D01*
X140970000Y-138950026D01*
X140750054Y-138620853D01*
X140268285Y-138298946D01*
X139700000Y-138185907D01*
X139131715Y-138298946D01*
X138649946Y-138620853D01*
X138430000Y-138950026D01*
X138210054Y-138620853D01*
X137728285Y-138298946D01*
X137160000Y-138185907D01*
X136591715Y-138298946D01*
X136109946Y-138620853D01*
X135890000Y-138950026D01*
X135670054Y-138620853D01*
X135188285Y-138298946D01*
X134620000Y-138185907D01*
X134051715Y-138298946D01*
X133569946Y-138620853D01*
X133350000Y-138950026D01*
X133130054Y-138620853D01*
X132648285Y-138298946D01*
X132080000Y-138185907D01*
X131511715Y-138298946D01*
X131029946Y-138620853D01*
X130810000Y-138950026D01*
X130590054Y-138620853D01*
X130108285Y-138298946D01*
X129540000Y-138185907D01*
X128971715Y-138298946D01*
X128489946Y-138620853D01*
X128270000Y-138950026D01*
X128050054Y-138620853D01*
X127568285Y-138298946D01*
X127000000Y-138185907D01*
X126431715Y-138298946D01*
X125949946Y-138620853D01*
X125730000Y-138950026D01*
X125510054Y-138620853D01*
X125028285Y-138298946D01*
X124460000Y-138185907D01*
X123891715Y-138298946D01*
X123409946Y-138620853D01*
X123190000Y-138950026D01*
X122970054Y-138620853D01*
X122488285Y-138298946D01*
X121920000Y-138185907D01*
X121351715Y-138298946D01*
X120869946Y-138620853D01*
X120650000Y-138950026D01*
X120430054Y-138620853D01*
X119948285Y-138298946D01*
X119380000Y-138185907D01*
X118811715Y-138298946D01*
X118329946Y-138620853D01*
X118110000Y-138950026D01*
X117890054Y-138620853D01*
X117408285Y-138298946D01*
X116840000Y-138185907D01*
X116271715Y-138298946D01*
X115789946Y-138620853D01*
X115570000Y-138950026D01*
X115350054Y-138620853D01*
X114868285Y-138298946D01*
X114300000Y-138185907D01*
X113731715Y-138298946D01*
X113249946Y-138620853D01*
X113030000Y-138950026D01*
X112810054Y-138620853D01*
X112328285Y-138298946D01*
X111760000Y-138185907D01*
X111191715Y-138298946D01*
X110709946Y-138620853D01*
X110490000Y-138950026D01*
X110270054Y-138620853D01*
X109788285Y-138298946D01*
X109220000Y-138185907D01*
X108651715Y-138298946D01*
X108169946Y-138620853D01*
X107950000Y-138950026D01*
X107730054Y-138620853D01*
X107248285Y-138298946D01*
X106680000Y-138185907D01*
X106111715Y-138298946D01*
X105629946Y-138620853D01*
X105410000Y-138950026D01*
X105190054Y-138620853D01*
X104708285Y-138298946D01*
X104140000Y-138185907D01*
X103571715Y-138298946D01*
X103089946Y-138620853D01*
X102870000Y-138950026D01*
X102650054Y-138620853D01*
X102168285Y-138298946D01*
X101600000Y-138185907D01*
X101040000Y-138297298D01*
X101040000Y-136657702D01*
X101600000Y-136769093D01*
X102168285Y-136656054D01*
X102650054Y-136334147D01*
X102870000Y-136004974D01*
X103089946Y-136334147D01*
X103571715Y-136656054D01*
X104140000Y-136769093D01*
X104708285Y-136656054D01*
X105190054Y-136334147D01*
X105410000Y-136004974D01*
X105629946Y-136334147D01*
X106111715Y-136656054D01*
X106680000Y-136769093D01*
X107248285Y-136656054D01*
X107730054Y-136334147D01*
X107950000Y-136004974D01*
X108169946Y-136334147D01*
X108651715Y-136656054D01*
X109220000Y-136769093D01*
X109788285Y-136656054D01*
X110270054Y-136334147D01*
X110490000Y-136004974D01*
X110709946Y-136334147D01*
X111191715Y-136656054D01*
X111760000Y-136769093D01*
X112328285Y-136656054D01*
X112810054Y-136334147D01*
X113030000Y-136004974D01*
X113249946Y-136334147D01*
X113731715Y-136656054D01*
X114300000Y-136769093D01*
X114868285Y-136656054D01*
X115350054Y-136334147D01*
X115570000Y-136004974D01*
X115789946Y-136334147D01*
X116271715Y-136656054D01*
X116840000Y-136769093D01*
X117408285Y-136656054D01*
X117890054Y-136334147D01*
X118110000Y-136004974D01*
X118329946Y-136334147D01*
X118811715Y-136656054D01*
X119380000Y-136769093D01*
X119948285Y-136656054D01*
X120430054Y-136334147D01*
X120650000Y-136004974D01*
X120869946Y-136334147D01*
X121351715Y-136656054D01*
X121920000Y-136769093D01*
X122488285Y-136656054D01*
X122970054Y-136334147D01*
X123190000Y-136004974D01*
X123409946Y-136334147D01*
X123891715Y-136656054D01*
X124460000Y-136769093D01*
X125028285Y-136656054D01*
X125510054Y-136334147D01*
X125730000Y-136004974D01*
X125949946Y-136334147D01*
X126431715Y-136656054D01*
X127000000Y-136769093D01*
X127568285Y-136656054D01*
X128050054Y-136334147D01*
X128270000Y-136004974D01*
X128489946Y-136334147D01*
X128971715Y-136656054D01*
X129540000Y-136769093D01*
X130108285Y-136656054D01*
X130590054Y-136334147D01*
X130810000Y-136004974D01*
X131029946Y-136334147D01*
X131511715Y-136656054D01*
X132080000Y-136769093D01*
X132648285Y-136656054D01*
X133130054Y-136334147D01*
X133350000Y-136004974D01*
X133569946Y-136334147D01*
X134051715Y-136656054D01*
X134620000Y-136769093D01*
X135188285Y-136656054D01*
X135670054Y-136334147D01*
X135890000Y-136004974D01*
X136109946Y-136334147D01*
X136591715Y-136656054D01*
X137160000Y-136769093D01*
X137728285Y-136656054D01*
X138210054Y-136334147D01*
X138430000Y-136004974D01*
X138649946Y-136334147D01*
X139131715Y-136656054D01*
X139700000Y-136769093D01*
X140268285Y-136656054D01*
X140750054Y-136334147D01*
X140970000Y-136004974D01*
X141189946Y-136334147D01*
X141671715Y-136656054D01*
X142240000Y-136769093D01*
X142808285Y-136656054D01*
X143290054Y-136334147D01*
X143510000Y-136004974D01*
X143729946Y-136334147D01*
X144211715Y-136656054D01*
X144780000Y-136769093D01*
X145348285Y-136656054D01*
X145830054Y-136334147D01*
X146050000Y-136004974D01*
X146269946Y-136334147D01*
X146751715Y-136656054D01*
X147320000Y-136769093D01*
X147888285Y-136656054D01*
X148370054Y-136334147D01*
X148590000Y-136004974D01*
X148809946Y-136334147D01*
X149291715Y-136656054D01*
X149860000Y-136769093D01*
X150428285Y-136656054D01*
X150910054Y-136334147D01*
X151130000Y-136004974D01*
X151349946Y-136334147D01*
X151831715Y-136656054D01*
X152400000Y-136769093D01*
X152968285Y-136656054D01*
X153450054Y-136334147D01*
X153670000Y-136004974D01*
X153889946Y-136334147D01*
X154371715Y-136656054D01*
X154940000Y-136769093D01*
X155508285Y-136656054D01*
X155990054Y-136334147D01*
X156217702Y-135993447D01*
X156284817Y-136136358D01*
X156713076Y-136526645D01*
X157123110Y-136696476D01*
X157353000Y-136575155D01*
X157353000Y-135382000D01*
X157333000Y-135382000D01*
X157333000Y-135128000D01*
X157353000Y-135128000D01*
X157353000Y-132842000D01*
X157333000Y-132842000D01*
X157333000Y-132588000D01*
X157353000Y-132588000D01*
X157353000Y-131394845D01*
X157123110Y-131273524D01*
X156713076Y-131443355D01*
X156284817Y-131833642D01*
X156217702Y-131976553D01*
X155990054Y-131635853D01*
X155508285Y-131313946D01*
X154940000Y-131200907D01*
X154371715Y-131313946D01*
X153889946Y-131635853D01*
X153670000Y-131965026D01*
X153450054Y-131635853D01*
X152968285Y-131313946D01*
X152400000Y-131200907D01*
X151831715Y-131313946D01*
X151349946Y-131635853D01*
X151130000Y-131965026D01*
X150910054Y-131635853D01*
X150428285Y-131313946D01*
X149860000Y-131200907D01*
X149291715Y-131313946D01*
X148809946Y-131635853D01*
X148590000Y-131965026D01*
X148370054Y-131635853D01*
X147888285Y-131313946D01*
X147320000Y-131200907D01*
X146751715Y-131313946D01*
X146269946Y-131635853D01*
X146050000Y-131965026D01*
X145830054Y-131635853D01*
X145348285Y-131313946D01*
X144780000Y-131200907D01*
X144211715Y-131313946D01*
X143729946Y-131635853D01*
X143510000Y-131965026D01*
X143290054Y-131635853D01*
X142808285Y-131313946D01*
X142240000Y-131200907D01*
X141671715Y-131313946D01*
X141189946Y-131635853D01*
X140970000Y-131965026D01*
X140750054Y-131635853D01*
X140268285Y-131313946D01*
X139700000Y-131200907D01*
X139131715Y-131313946D01*
X138649946Y-131635853D01*
X138430000Y-131965026D01*
X138210054Y-131635853D01*
X137728285Y-131313946D01*
X137160000Y-131200907D01*
X136591715Y-131313946D01*
X136109946Y-131635853D01*
X135890000Y-131965026D01*
X135670054Y-131635853D01*
X135188285Y-131313946D01*
X134620000Y-131200907D01*
X134051715Y-131313946D01*
X133569946Y-131635853D01*
X133350000Y-131965026D01*
X133130054Y-131635853D01*
X132648285Y-131313946D01*
X132080000Y-131200907D01*
X131511715Y-131313946D01*
X131029946Y-131635853D01*
X130810000Y-131965026D01*
X130590054Y-131635853D01*
X130108285Y-131313946D01*
X129540000Y-131200907D01*
X128971715Y-131313946D01*
X128489946Y-131635853D01*
X128270000Y-131965026D01*
X128050054Y-131635853D01*
X127568285Y-131313946D01*
X127000000Y-131200907D01*
X126431715Y-131313946D01*
X125949946Y-131635853D01*
X125730000Y-131965026D01*
X125510054Y-131635853D01*
X125028285Y-131313946D01*
X124460000Y-131200907D01*
X123891715Y-131313946D01*
X123409946Y-131635853D01*
X123190000Y-131965026D01*
X122970054Y-131635853D01*
X122488285Y-131313946D01*
X121920000Y-131200907D01*
X121351715Y-131313946D01*
X120869946Y-131635853D01*
X120650000Y-131965026D01*
X120430054Y-131635853D01*
X119948285Y-131313946D01*
X119380000Y-131200907D01*
X118811715Y-131313946D01*
X118329946Y-131635853D01*
X118110000Y-131965026D01*
X117890054Y-131635853D01*
X117408285Y-131313946D01*
X116840000Y-131200907D01*
X116271715Y-131313946D01*
X115789946Y-131635853D01*
X115570000Y-131965026D01*
X115350054Y-131635853D01*
X114868285Y-131313946D01*
X114300000Y-131200907D01*
X113731715Y-131313946D01*
X113249946Y-131635853D01*
X113030000Y-131965026D01*
X112810054Y-131635853D01*
X112328285Y-131313946D01*
X111760000Y-131200907D01*
X111191715Y-131313946D01*
X110709946Y-131635853D01*
X110490000Y-131965026D01*
X110270054Y-131635853D01*
X109788285Y-131313946D01*
X109220000Y-131200907D01*
X108651715Y-131313946D01*
X108169946Y-131635853D01*
X107950000Y-131965026D01*
X107730054Y-131635853D01*
X107248285Y-131313946D01*
X106680000Y-131200907D01*
X106111715Y-131313946D01*
X105629946Y-131635853D01*
X105410000Y-131965026D01*
X105190054Y-131635853D01*
X104708285Y-131313946D01*
X104140000Y-131200907D01*
X103571715Y-131313946D01*
X103089946Y-131635853D01*
X102870000Y-131965026D01*
X102650054Y-131635853D01*
X102168285Y-131313946D01*
X101600000Y-131200907D01*
X101040000Y-131312298D01*
X101040000Y-130284396D01*
X101570907Y-130390000D01*
X101629093Y-130390000D01*
X102197378Y-130276961D01*
X102679147Y-129955054D01*
X103001054Y-129473285D01*
X103114093Y-128905000D01*
X103001054Y-128336715D01*
X102679147Y-127854946D01*
X102349974Y-127635000D01*
X102679147Y-127415054D01*
X103001054Y-126933285D01*
X103114093Y-126365000D01*
X103001054Y-125796715D01*
X102679147Y-125314946D01*
X102349974Y-125095000D01*
X102679147Y-124875054D01*
X103001054Y-124393285D01*
X103114093Y-123825000D01*
X103001054Y-123256715D01*
X102679147Y-122774946D01*
X102349974Y-122555000D01*
X102679147Y-122335054D01*
X103001054Y-121853285D01*
X103114093Y-121285000D01*
X103001054Y-120716715D01*
X102679147Y-120234946D01*
X102349974Y-120015000D01*
X102679147Y-119795054D01*
X103001054Y-119313285D01*
X103114093Y-118745000D01*
X103001054Y-118176715D01*
X102679147Y-117694946D01*
X102349974Y-117475000D01*
X102679147Y-117255054D01*
X103001054Y-116773285D01*
X103114093Y-116205000D01*
X103001054Y-115636715D01*
X102679147Y-115154946D01*
X102349974Y-114935000D01*
X102679147Y-114715054D01*
X103001054Y-114233285D01*
X103114093Y-113665000D01*
X103001054Y-113096715D01*
X102679147Y-112614946D01*
X102349974Y-112395000D01*
X102679147Y-112175054D01*
X103001054Y-111693285D01*
X103114093Y-111125000D01*
X103001054Y-110556715D01*
X102679147Y-110074946D01*
X102349974Y-109855000D01*
X102679147Y-109635054D01*
X103001054Y-109153285D01*
X103114093Y-108585000D01*
X103001054Y-108016715D01*
X102679147Y-107534946D01*
X102349974Y-107315000D01*
X102679147Y-107095054D01*
X103001054Y-106613285D01*
X103114093Y-106045000D01*
X103001054Y-105476715D01*
X102679147Y-104994946D01*
X102349974Y-104775000D01*
X102679147Y-104555054D01*
X103001054Y-104073285D01*
X103114093Y-103505000D01*
X103001054Y-102936715D01*
X102679147Y-102454946D01*
X102349974Y-102235000D01*
X102679147Y-102015054D01*
X103001054Y-101533285D01*
X103114093Y-100965000D01*
X103001054Y-100396715D01*
X102679147Y-99914946D01*
X102349974Y-99695000D01*
X102679147Y-99475054D01*
X103001054Y-98993285D01*
X103114093Y-98425000D01*
X103001054Y-97856715D01*
X102679147Y-97374946D01*
X102349974Y-97155000D01*
X102679147Y-96935054D01*
X103001054Y-96453285D01*
X103114093Y-95885000D01*
X103001054Y-95316715D01*
X102679147Y-94834946D01*
X102349974Y-94615000D01*
X102679147Y-94395054D01*
X103001054Y-93913285D01*
X103114093Y-93345000D01*
X103001054Y-92776715D01*
X102679147Y-92294946D01*
X102349974Y-92075000D01*
X102679147Y-91855054D01*
X103001054Y-91373285D01*
X103114093Y-90805000D01*
X103001054Y-90236715D01*
X102679147Y-89754946D01*
X102349974Y-89535000D01*
X102679147Y-89315054D01*
X103001054Y-88833285D01*
X103114093Y-88265000D01*
X103001054Y-87696715D01*
X102679147Y-87214946D01*
X102349974Y-86995000D01*
X102679147Y-86775054D01*
X103001054Y-86293285D01*
X103114093Y-85725000D01*
X103001054Y-85156715D01*
X102679147Y-84674946D01*
X102349974Y-84455000D01*
X102679147Y-84235054D01*
X103001054Y-83753285D01*
X103114093Y-83185000D01*
X103001054Y-82616715D01*
X102679147Y-82134946D01*
X102349974Y-81915000D01*
X102679147Y-81695054D01*
X103001054Y-81213285D01*
X103114093Y-80645000D01*
X103001054Y-80076715D01*
X102679147Y-79594946D01*
X102349974Y-79375000D01*
X102679147Y-79155054D01*
X103001054Y-78673285D01*
X103114093Y-78105000D01*
X103001054Y-77536715D01*
X102679147Y-77054946D01*
X102349974Y-76835000D01*
X102679147Y-76615054D01*
X103001054Y-76133285D01*
X103114093Y-75565000D01*
X103001054Y-74996715D01*
X102679147Y-74514946D01*
X102349974Y-74295000D01*
X102679147Y-74075054D01*
X103001054Y-73593285D01*
X103114093Y-73025000D01*
X103001054Y-72456715D01*
X102679147Y-71974946D01*
X102349974Y-71755000D01*
X102679147Y-71535054D01*
X103001054Y-71053285D01*
X103114093Y-70485000D01*
X103001054Y-69916715D01*
X102679147Y-69434946D01*
X102349974Y-69215000D01*
X102679147Y-68995054D01*
X103001054Y-68513285D01*
X103114093Y-67945000D01*
X103001054Y-67376715D01*
X102679147Y-66894946D01*
X102349974Y-66675000D01*
X102679147Y-66455054D01*
X103001054Y-65973285D01*
X103114093Y-65405000D01*
X103001054Y-64836715D01*
X102679147Y-64354946D01*
X102349974Y-64135000D01*
X102679147Y-63915054D01*
X103001054Y-63433285D01*
X103114093Y-62865000D01*
X103001054Y-62296715D01*
X102679147Y-61814946D01*
X102349974Y-61595000D01*
X102679147Y-61375054D01*
X103001054Y-60893285D01*
X103114093Y-60325000D01*
X103001054Y-59756715D01*
X102679147Y-59274946D01*
X102349974Y-59055000D01*
X102679147Y-58835054D01*
X103001054Y-58353285D01*
X103114093Y-57785000D01*
X103001054Y-57216715D01*
X102679147Y-56734946D01*
X102349974Y-56515000D01*
X102679147Y-56295054D01*
X103001054Y-55813285D01*
X103114093Y-55245000D01*
X103001054Y-54676715D01*
X102679147Y-54194946D01*
X102349974Y-53975000D01*
X102679147Y-53755054D01*
X103001054Y-53273285D01*
X103114093Y-52705000D01*
X103001054Y-52136715D01*
X102679147Y-51654946D01*
X102637548Y-51627150D01*
X102685317Y-51618162D01*
X102901441Y-51479090D01*
X103046431Y-51266890D01*
X103097440Y-51015000D01*
X103097440Y-49315000D01*
X103053162Y-49079683D01*
X102914090Y-48863559D01*
X102701890Y-48718569D01*
X102450000Y-48667560D01*
X101040000Y-48667560D01*
X101040000Y-46340854D01*
X101639457Y-46340854D01*
X102115727Y-47493515D01*
X102996847Y-48376174D01*
X104148674Y-48854454D01*
X104719961Y-48854953D01*
X104330853Y-49114946D01*
X104008946Y-49596715D01*
X103895907Y-50165000D01*
X104008946Y-50733285D01*
X104330853Y-51215054D01*
X104660026Y-51435000D01*
X104330853Y-51654946D01*
X104008946Y-52136715D01*
X103895907Y-52705000D01*
X104008946Y-53273285D01*
X104330853Y-53755054D01*
X104660026Y-53975000D01*
X104330853Y-54194946D01*
X104008946Y-54676715D01*
X103895907Y-55245000D01*
X104008946Y-55813285D01*
X104330853Y-56295054D01*
X104660026Y-56515000D01*
X104330853Y-56734946D01*
X104008946Y-57216715D01*
X103895907Y-57785000D01*
X104008946Y-58353285D01*
X104330853Y-58835054D01*
X104660026Y-59055000D01*
X104330853Y-59274946D01*
X104008946Y-59756715D01*
X103895907Y-60325000D01*
X104008946Y-60893285D01*
X104330853Y-61375054D01*
X104660026Y-61595000D01*
X104330853Y-61814946D01*
X104008946Y-62296715D01*
X103895907Y-62865000D01*
X104008946Y-63433285D01*
X104330853Y-63915054D01*
X104660026Y-64135000D01*
X104330853Y-64354946D01*
X104008946Y-64836715D01*
X103895907Y-65405000D01*
X104008946Y-65973285D01*
X104330853Y-66455054D01*
X104660026Y-66675000D01*
X104330853Y-66894946D01*
X104008946Y-67376715D01*
X103895907Y-67945000D01*
X104008946Y-68513285D01*
X104330853Y-68995054D01*
X104660026Y-69215000D01*
X104330853Y-69434946D01*
X104008946Y-69916715D01*
X103895907Y-70485000D01*
X104008946Y-71053285D01*
X104330853Y-71535054D01*
X104660026Y-71755000D01*
X104330853Y-71974946D01*
X104008946Y-72456715D01*
X103895907Y-73025000D01*
X104008946Y-73593285D01*
X104330853Y-74075054D01*
X104660026Y-74295000D01*
X104330853Y-74514946D01*
X104008946Y-74996715D01*
X103895907Y-75565000D01*
X104008946Y-76133285D01*
X104330853Y-76615054D01*
X104660026Y-76835000D01*
X104330853Y-77054946D01*
X104008946Y-77536715D01*
X103895907Y-78105000D01*
X104008946Y-78673285D01*
X104330853Y-79155054D01*
X104660026Y-79375000D01*
X104330853Y-79594946D01*
X104008946Y-80076715D01*
X103895907Y-80645000D01*
X104008946Y-81213285D01*
X104330853Y-81695054D01*
X104660026Y-81915000D01*
X104330853Y-82134946D01*
X104008946Y-82616715D01*
X103895907Y-83185000D01*
X104008946Y-83753285D01*
X104330853Y-84235054D01*
X104660026Y-84455000D01*
X104330853Y-84674946D01*
X104008946Y-85156715D01*
X103895907Y-85725000D01*
X104008946Y-86293285D01*
X104330853Y-86775054D01*
X104660026Y-86995000D01*
X104330853Y-87214946D01*
X104008946Y-87696715D01*
X103895907Y-88265000D01*
X104008946Y-88833285D01*
X104330853Y-89315054D01*
X104660026Y-89535000D01*
X104330853Y-89754946D01*
X104008946Y-90236715D01*
X103895907Y-90805000D01*
X104008946Y-91373285D01*
X104330853Y-91855054D01*
X104660026Y-92075000D01*
X104330853Y-92294946D01*
X104008946Y-92776715D01*
X103895907Y-93345000D01*
X104008946Y-93913285D01*
X104330853Y-94395054D01*
X104660026Y-94615000D01*
X104330853Y-94834946D01*
X104008946Y-95316715D01*
X103895907Y-95885000D01*
X104008946Y-96453285D01*
X104330853Y-96935054D01*
X104660026Y-97155000D01*
X104330853Y-97374946D01*
X104008946Y-97856715D01*
X103895907Y-98425000D01*
X104008946Y-98993285D01*
X104330853Y-99475054D01*
X104660026Y-99695000D01*
X104330853Y-99914946D01*
X104008946Y-100396715D01*
X103895907Y-100965000D01*
X104008946Y-101533285D01*
X104330853Y-102015054D01*
X104660026Y-102235000D01*
X104330853Y-102454946D01*
X104008946Y-102936715D01*
X103895907Y-103505000D01*
X104008946Y-104073285D01*
X104330853Y-104555054D01*
X104660026Y-104775000D01*
X104330853Y-104994946D01*
X104008946Y-105476715D01*
X103895907Y-106045000D01*
X104008946Y-106613285D01*
X104330853Y-107095054D01*
X104660026Y-107315000D01*
X104330853Y-107534946D01*
X104008946Y-108016715D01*
X103895907Y-108585000D01*
X104008946Y-109153285D01*
X104330853Y-109635054D01*
X104660026Y-109855000D01*
X104330853Y-110074946D01*
X104008946Y-110556715D01*
X103895907Y-111125000D01*
X104008946Y-111693285D01*
X104330853Y-112175054D01*
X104660026Y-112395000D01*
X104330853Y-112614946D01*
X104008946Y-113096715D01*
X103895907Y-113665000D01*
X104008946Y-114233285D01*
X104330853Y-114715054D01*
X104660026Y-114935000D01*
X104330853Y-115154946D01*
X104008946Y-115636715D01*
X103895907Y-116205000D01*
X104008946Y-116773285D01*
X104330853Y-117255054D01*
X104660026Y-117475000D01*
X104330853Y-117694946D01*
X104008946Y-118176715D01*
X103895907Y-118745000D01*
X104008946Y-119313285D01*
X104330853Y-119795054D01*
X104660026Y-120015000D01*
X104330853Y-120234946D01*
X104008946Y-120716715D01*
X103895907Y-121285000D01*
X104008946Y-121853285D01*
X104330853Y-122335054D01*
X104660026Y-122555000D01*
X104330853Y-122774946D01*
X104008946Y-123256715D01*
X103895907Y-123825000D01*
X104008946Y-124393285D01*
X104330853Y-124875054D01*
X104660026Y-125095000D01*
X104330853Y-125314946D01*
X104008946Y-125796715D01*
X103895907Y-126365000D01*
X104008946Y-126933285D01*
X104330853Y-127415054D01*
X104660026Y-127635000D01*
X104330853Y-127854946D01*
X104008946Y-128336715D01*
X103895907Y-128905000D01*
X104008946Y-129473285D01*
X104330853Y-129955054D01*
X104812622Y-130276961D01*
X105380907Y-130390000D01*
X105439093Y-130390000D01*
X106007378Y-130276961D01*
X106489147Y-129955054D01*
X106680000Y-129669422D01*
X106870853Y-129955054D01*
X107352622Y-130276961D01*
X107920907Y-130390000D01*
X107979093Y-130390000D01*
X108547378Y-130276961D01*
X109029147Y-129955054D01*
X109220000Y-129669422D01*
X109410853Y-129955054D01*
X109892622Y-130276961D01*
X110460907Y-130390000D01*
X110519093Y-130390000D01*
X111087378Y-130276961D01*
X111569147Y-129955054D01*
X111760000Y-129669422D01*
X111950853Y-129955054D01*
X112432622Y-130276961D01*
X113000907Y-130390000D01*
X113059093Y-130390000D01*
X113627378Y-130276961D01*
X114109147Y-129955054D01*
X114300000Y-129669422D01*
X114490853Y-129955054D01*
X114972622Y-130276961D01*
X115540907Y-130390000D01*
X115599093Y-130390000D01*
X116167378Y-130276961D01*
X116649147Y-129955054D01*
X116840000Y-129669422D01*
X117030853Y-129955054D01*
X117512622Y-130276961D01*
X118080907Y-130390000D01*
X118139093Y-130390000D01*
X118707378Y-130276961D01*
X119189147Y-129955054D01*
X119380000Y-129669422D01*
X119570853Y-129955054D01*
X120052622Y-130276961D01*
X120620907Y-130390000D01*
X120679093Y-130390000D01*
X121247378Y-130276961D01*
X121729147Y-129955054D01*
X121920000Y-129669422D01*
X122110853Y-129955054D01*
X122592622Y-130276961D01*
X123160907Y-130390000D01*
X123219093Y-130390000D01*
X123787378Y-130276961D01*
X124269147Y-129955054D01*
X124460000Y-129669422D01*
X124650853Y-129955054D01*
X125132622Y-130276961D01*
X125700907Y-130390000D01*
X125759093Y-130390000D01*
X126327378Y-130276961D01*
X126809147Y-129955054D01*
X127000000Y-129669422D01*
X127190853Y-129955054D01*
X127672622Y-130276961D01*
X128240907Y-130390000D01*
X128299093Y-130390000D01*
X128867378Y-130276961D01*
X129349147Y-129955054D01*
X129540000Y-129669422D01*
X129730853Y-129955054D01*
X130212622Y-130276961D01*
X130780907Y-130390000D01*
X130839093Y-130390000D01*
X131407378Y-130276961D01*
X131889147Y-129955054D01*
X132080000Y-129669422D01*
X132270853Y-129955054D01*
X132752622Y-130276961D01*
X133320907Y-130390000D01*
X133379093Y-130390000D01*
X133947378Y-130276961D01*
X134429147Y-129955054D01*
X134620000Y-129669422D01*
X134810853Y-129955054D01*
X135292622Y-130276961D01*
X135860907Y-130390000D01*
X135919093Y-130390000D01*
X136487378Y-130276961D01*
X136969147Y-129955054D01*
X137160000Y-129669422D01*
X137350853Y-129955054D01*
X137832622Y-130276961D01*
X138400907Y-130390000D01*
X138459093Y-130390000D01*
X139027378Y-130276961D01*
X139509147Y-129955054D01*
X139700000Y-129669422D01*
X139890853Y-129955054D01*
X140372622Y-130276961D01*
X140940907Y-130390000D01*
X140999093Y-130390000D01*
X141567378Y-130276961D01*
X142049147Y-129955054D01*
X142240000Y-129669422D01*
X142430853Y-129955054D01*
X142912622Y-130276961D01*
X143480907Y-130390000D01*
X143539093Y-130390000D01*
X144107378Y-130276961D01*
X144589147Y-129955054D01*
X144780000Y-129669422D01*
X144970853Y-129955054D01*
X145452622Y-130276961D01*
X146020907Y-130390000D01*
X146079093Y-130390000D01*
X146647378Y-130276961D01*
X147129147Y-129955054D01*
X147320000Y-129669422D01*
X147510853Y-129955054D01*
X147992622Y-130276961D01*
X148560907Y-130390000D01*
X148619093Y-130390000D01*
X149187378Y-130276961D01*
X149669147Y-129955054D01*
X149860000Y-129669422D01*
X150050853Y-129955054D01*
X150532622Y-130276961D01*
X151100907Y-130390000D01*
X151159093Y-130390000D01*
X151727378Y-130276961D01*
X152209147Y-129955054D01*
X152400000Y-129669422D01*
X152590853Y-129955054D01*
X153072622Y-130276961D01*
X153640907Y-130390000D01*
X153699093Y-130390000D01*
X154267378Y-130276961D01*
X154749147Y-129955054D01*
X154940000Y-129669422D01*
X155130853Y-129955054D01*
X155612622Y-130276961D01*
X156180907Y-130390000D01*
X156239093Y-130390000D01*
X156807378Y-130276961D01*
X157289147Y-129955054D01*
X157480000Y-129669422D01*
X157670853Y-129955054D01*
X158152622Y-130276961D01*
X158720907Y-130390000D01*
X158779093Y-130390000D01*
X159347378Y-130276961D01*
X159829147Y-129955054D01*
X160020000Y-129669422D01*
X160210853Y-129955054D01*
X160692622Y-130276961D01*
X161260907Y-130390000D01*
X161319093Y-130390000D01*
X161887378Y-130276961D01*
X162369147Y-129955054D01*
X162560000Y-129669422D01*
X162750853Y-129955054D01*
X163232622Y-130276961D01*
X163800907Y-130390000D01*
X163859093Y-130390000D01*
X164427378Y-130276961D01*
X164909147Y-129955054D01*
X165100000Y-129669422D01*
X165290853Y-129955054D01*
X165772622Y-130276961D01*
X166340907Y-130390000D01*
X166399093Y-130390000D01*
X166967378Y-130276961D01*
X167449147Y-129955054D01*
X167640000Y-129669422D01*
X167830853Y-129955054D01*
X168312622Y-130276961D01*
X168880907Y-130390000D01*
X168939093Y-130390000D01*
X169507378Y-130276961D01*
X169989147Y-129955054D01*
X170180000Y-129669422D01*
X170370853Y-129955054D01*
X170852622Y-130276961D01*
X171420907Y-130390000D01*
X171479093Y-130390000D01*
X172047378Y-130276961D01*
X172529147Y-129955054D01*
X172720000Y-129669422D01*
X172910853Y-129955054D01*
X173392622Y-130276961D01*
X173960907Y-130390000D01*
X174019093Y-130390000D01*
X174587378Y-130276961D01*
X175069147Y-129955054D01*
X175260000Y-129669422D01*
X175450853Y-129955054D01*
X175932622Y-130276961D01*
X176500907Y-130390000D01*
X176559093Y-130390000D01*
X177127378Y-130276961D01*
X177609147Y-129955054D01*
X177800000Y-129669422D01*
X177990853Y-129955054D01*
X178472622Y-130276961D01*
X179040907Y-130390000D01*
X179099093Y-130390000D01*
X179667378Y-130276961D01*
X180149147Y-129955054D01*
X180340000Y-129669422D01*
X180530853Y-129955054D01*
X181012622Y-130276961D01*
X181580907Y-130390000D01*
X181639093Y-130390000D01*
X182207378Y-130276961D01*
X182689147Y-129955054D01*
X182880000Y-129669422D01*
X183070853Y-129955054D01*
X183552622Y-130276961D01*
X184120907Y-130390000D01*
X184179093Y-130390000D01*
X184747378Y-130276961D01*
X185229147Y-129955054D01*
X185420000Y-129669422D01*
X185610853Y-129955054D01*
X186092622Y-130276961D01*
X186660907Y-130390000D01*
X186719093Y-130390000D01*
X187287378Y-130276961D01*
X187769147Y-129955054D01*
X187960000Y-129669422D01*
X188150853Y-129955054D01*
X188632622Y-130276961D01*
X189200907Y-130390000D01*
X189259093Y-130390000D01*
X189827378Y-130276961D01*
X190309147Y-129955054D01*
X190500000Y-129669422D01*
X190690853Y-129955054D01*
X191172622Y-130276961D01*
X191740907Y-130390000D01*
X191799093Y-130390000D01*
X192367378Y-130276961D01*
X192849147Y-129955054D01*
X193040000Y-129669422D01*
X193230853Y-129955054D01*
X193712622Y-130276961D01*
X194280907Y-130390000D01*
X194339093Y-130390000D01*
X194907378Y-130276961D01*
X195389147Y-129955054D01*
X195711054Y-129473285D01*
X195824093Y-128905000D01*
X195711054Y-128336715D01*
X195389147Y-127854946D01*
X195059974Y-127635000D01*
X195389147Y-127415054D01*
X195711054Y-126933285D01*
X195824093Y-126365000D01*
X195711054Y-125796715D01*
X195389147Y-125314946D01*
X195059974Y-125095000D01*
X195389147Y-124875054D01*
X195711054Y-124393285D01*
X195824093Y-123825000D01*
X195711054Y-123256715D01*
X195389147Y-122774946D01*
X195059974Y-122555000D01*
X195389147Y-122335054D01*
X195711054Y-121853285D01*
X195824093Y-121285000D01*
X195711054Y-120716715D01*
X195389147Y-120234946D01*
X195059974Y-120015000D01*
X195389147Y-119795054D01*
X195711054Y-119313285D01*
X195824093Y-118745000D01*
X195711054Y-118176715D01*
X195389147Y-117694946D01*
X195059974Y-117475000D01*
X195389147Y-117255054D01*
X195711054Y-116773285D01*
X195824093Y-116205000D01*
X195711054Y-115636715D01*
X195389147Y-115154946D01*
X195059974Y-114935000D01*
X195389147Y-114715054D01*
X195711054Y-114233285D01*
X195824093Y-113665000D01*
X195711054Y-113096715D01*
X195389147Y-112614946D01*
X195059974Y-112395000D01*
X195389147Y-112175054D01*
X195711054Y-111693285D01*
X195824093Y-111125000D01*
X195711054Y-110556715D01*
X195389147Y-110074946D01*
X195059974Y-109855000D01*
X195389147Y-109635054D01*
X195711054Y-109153285D01*
X195824093Y-108585000D01*
X195711054Y-108016715D01*
X195389147Y-107534946D01*
X195059974Y-107315000D01*
X195389147Y-107095054D01*
X195711054Y-106613285D01*
X195824093Y-106045000D01*
X195711054Y-105476715D01*
X195389147Y-104994946D01*
X195059974Y-104775000D01*
X195389147Y-104555054D01*
X195711054Y-104073285D01*
X195824093Y-103505000D01*
X195711054Y-102936715D01*
X195389147Y-102454946D01*
X195059974Y-102235000D01*
X195389147Y-102015054D01*
X195711054Y-101533285D01*
X195824093Y-100965000D01*
X195711054Y-100396715D01*
X195389147Y-99914946D01*
X195059974Y-99695000D01*
X195389147Y-99475054D01*
X195711054Y-98993285D01*
X195824093Y-98425000D01*
X195711054Y-97856715D01*
X195389147Y-97374946D01*
X195059974Y-97155000D01*
X195389147Y-96935054D01*
X195711054Y-96453285D01*
X195824093Y-95885000D01*
X195711054Y-95316715D01*
X195389147Y-94834946D01*
X195059974Y-94615000D01*
X195389147Y-94395054D01*
X195711054Y-93913285D01*
X195824093Y-93345000D01*
X195711054Y-92776715D01*
X195389147Y-92294946D01*
X195059974Y-92075000D01*
X195389147Y-91855054D01*
X195711054Y-91373285D01*
X195824093Y-90805000D01*
X195711054Y-90236715D01*
X195389147Y-89754946D01*
X195059974Y-89535000D01*
X195389147Y-89315054D01*
X195711054Y-88833285D01*
X195824093Y-88265000D01*
X195711054Y-87696715D01*
X195389147Y-87214946D01*
X195059974Y-86995000D01*
X195389147Y-86775054D01*
X195711054Y-86293285D01*
X195824093Y-85725000D01*
X195711054Y-85156715D01*
X195389147Y-84674946D01*
X195059974Y-84455000D01*
X195389147Y-84235054D01*
X195711054Y-83753285D01*
X195824093Y-83185000D01*
X195711054Y-82616715D01*
X195389147Y-82134946D01*
X195059974Y-81915000D01*
X195389147Y-81695054D01*
X195711054Y-81213285D01*
X195824093Y-80645000D01*
X195711054Y-80076715D01*
X195389147Y-79594946D01*
X195059974Y-79375000D01*
X195389147Y-79155054D01*
X195711054Y-78673285D01*
X195824093Y-78105000D01*
X195711054Y-77536715D01*
X195389147Y-77054946D01*
X195059974Y-76835000D01*
X195389147Y-76615054D01*
X195711054Y-76133285D01*
X195824093Y-75565000D01*
X195711054Y-74996715D01*
X195389147Y-74514946D01*
X195059974Y-74295000D01*
X195389147Y-74075054D01*
X195711054Y-73593285D01*
X195824093Y-73025000D01*
X195711054Y-72456715D01*
X195389147Y-71974946D01*
X195059974Y-71755000D01*
X195389147Y-71535054D01*
X195711054Y-71053285D01*
X195824093Y-70485000D01*
X195711054Y-69916715D01*
X195389147Y-69434946D01*
X195059974Y-69215000D01*
X195389147Y-68995054D01*
X195711054Y-68513285D01*
X195824093Y-67945000D01*
X195711054Y-67376715D01*
X195389147Y-66894946D01*
X195059974Y-66675000D01*
X195389147Y-66455054D01*
X195711054Y-65973285D01*
X195824093Y-65405000D01*
X195711054Y-64836715D01*
X195389147Y-64354946D01*
X195059974Y-64135000D01*
X195389147Y-63915054D01*
X195711054Y-63433285D01*
X195824093Y-62865000D01*
X195711054Y-62296715D01*
X195389147Y-61814946D01*
X195059974Y-61595000D01*
X195389147Y-61375054D01*
X195711054Y-60893285D01*
X195824093Y-60325000D01*
X195711054Y-59756715D01*
X195389147Y-59274946D01*
X195059974Y-59055000D01*
X195389147Y-58835054D01*
X195711054Y-58353285D01*
X195824093Y-57785000D01*
X195711054Y-57216715D01*
X195389147Y-56734946D01*
X195059974Y-56515000D01*
X195389147Y-56295054D01*
X195711054Y-55813285D01*
X195824093Y-55245000D01*
X195711054Y-54676715D01*
X195389147Y-54194946D01*
X195059974Y-53975000D01*
X195389147Y-53755054D01*
X195711054Y-53273285D01*
X195824093Y-52705000D01*
X195711054Y-52136715D01*
X195389147Y-51654946D01*
X195059974Y-51435000D01*
X195389147Y-51215054D01*
X195711054Y-50733285D01*
X195824093Y-50165000D01*
X195711054Y-49596715D01*
X195389147Y-49114946D01*
X195000183Y-48855049D01*
X195565854Y-48855543D01*
X196718515Y-48379273D01*
X197601174Y-47498153D01*
X198079454Y-46346326D01*
X198080543Y-45099146D01*
X197604273Y-43946485D01*
X196723153Y-43063826D01*
X195571326Y-42585546D01*
X194324146Y-42584457D01*
X193171485Y-43060727D01*
X192288826Y-43941847D01*
X191810546Y-45093674D01*
X191809457Y-46340854D01*
X192285727Y-47493515D01*
X193166847Y-48376174D01*
X194022384Y-48731424D01*
X193712622Y-48793039D01*
X193230853Y-49114946D01*
X193040000Y-49400578D01*
X192849147Y-49114946D01*
X192367378Y-48793039D01*
X191799093Y-48680000D01*
X191740907Y-48680000D01*
X191172622Y-48793039D01*
X190690853Y-49114946D01*
X190500000Y-49400578D01*
X190309147Y-49114946D01*
X189979974Y-48895000D01*
X190309147Y-48675054D01*
X190631054Y-48193285D01*
X190744093Y-47625000D01*
X190631054Y-47056715D01*
X190309147Y-46574946D01*
X189979974Y-46355000D01*
X190309147Y-46135054D01*
X190631054Y-45653285D01*
X190744093Y-45085000D01*
X190631054Y-44516715D01*
X190309147Y-44034946D01*
X189987980Y-43820350D01*
X189996924Y-43816645D01*
X190425183Y-43426358D01*
X190671486Y-42901892D01*
X190550819Y-42672000D01*
X189357000Y-42672000D01*
X189357000Y-42692000D01*
X189103000Y-42692000D01*
X189103000Y-42672000D01*
X186817000Y-42672000D01*
X186817000Y-42692000D01*
X186563000Y-42692000D01*
X186563000Y-42672000D01*
X184277000Y-42672000D01*
X184277000Y-42692000D01*
X184023000Y-42692000D01*
X184023000Y-42672000D01*
X181737000Y-42672000D01*
X181737000Y-42692000D01*
X181483000Y-42692000D01*
X181483000Y-42672000D01*
X179197000Y-42672000D01*
X179197000Y-42692000D01*
X178943000Y-42692000D01*
X178943000Y-42672000D01*
X176657000Y-42672000D01*
X176657000Y-42692000D01*
X176403000Y-42692000D01*
X176403000Y-42672000D01*
X174117000Y-42672000D01*
X174117000Y-42692000D01*
X173863000Y-42692000D01*
X173863000Y-42672000D01*
X171577000Y-42672000D01*
X171577000Y-42692000D01*
X171323000Y-42692000D01*
X171323000Y-42672000D01*
X169037000Y-42672000D01*
X169037000Y-42692000D01*
X168783000Y-42692000D01*
X168783000Y-42672000D01*
X166497000Y-42672000D01*
X166497000Y-42692000D01*
X166243000Y-42692000D01*
X166243000Y-42672000D01*
X163957000Y-42672000D01*
X163957000Y-42692000D01*
X163703000Y-42692000D01*
X163703000Y-42672000D01*
X161417000Y-42672000D01*
X161417000Y-42692000D01*
X161163000Y-42692000D01*
X161163000Y-42672000D01*
X158877000Y-42672000D01*
X158877000Y-42692000D01*
X158623000Y-42692000D01*
X158623000Y-42672000D01*
X156337000Y-42672000D01*
X156337000Y-42692000D01*
X156083000Y-42692000D01*
X156083000Y-42672000D01*
X153797000Y-42672000D01*
X153797000Y-42692000D01*
X153543000Y-42692000D01*
X153543000Y-42672000D01*
X151257000Y-42672000D01*
X151257000Y-42692000D01*
X151003000Y-42692000D01*
X151003000Y-42672000D01*
X148717000Y-42672000D01*
X148717000Y-42692000D01*
X148463000Y-42692000D01*
X148463000Y-42672000D01*
X146177000Y-42672000D01*
X146177000Y-42692000D01*
X145923000Y-42692000D01*
X145923000Y-42672000D01*
X143637000Y-42672000D01*
X143637000Y-42692000D01*
X143383000Y-42692000D01*
X143383000Y-42672000D01*
X141097000Y-42672000D01*
X141097000Y-42692000D01*
X140843000Y-42692000D01*
X140843000Y-42672000D01*
X138557000Y-42672000D01*
X138557000Y-42692000D01*
X138303000Y-42692000D01*
X138303000Y-42672000D01*
X136017000Y-42672000D01*
X136017000Y-42692000D01*
X135763000Y-42692000D01*
X135763000Y-42672000D01*
X133477000Y-42672000D01*
X133477000Y-42692000D01*
X133223000Y-42692000D01*
X133223000Y-42672000D01*
X130937000Y-42672000D01*
X130937000Y-42692000D01*
X130683000Y-42692000D01*
X130683000Y-42672000D01*
X128397000Y-42672000D01*
X128397000Y-42692000D01*
X128143000Y-42692000D01*
X128143000Y-42672000D01*
X125857000Y-42672000D01*
X125857000Y-42692000D01*
X125603000Y-42692000D01*
X125603000Y-42672000D01*
X123317000Y-42672000D01*
X123317000Y-42692000D01*
X123063000Y-42692000D01*
X123063000Y-42672000D01*
X120777000Y-42672000D01*
X120777000Y-42692000D01*
X120523000Y-42692000D01*
X120523000Y-42672000D01*
X118237000Y-42672000D01*
X118237000Y-42692000D01*
X117983000Y-42692000D01*
X117983000Y-42672000D01*
X115697000Y-42672000D01*
X115697000Y-42692000D01*
X115443000Y-42692000D01*
X115443000Y-42672000D01*
X113157000Y-42672000D01*
X113157000Y-42692000D01*
X112903000Y-42692000D01*
X112903000Y-42672000D01*
X110617000Y-42672000D01*
X110617000Y-42692000D01*
X110363000Y-42692000D01*
X110363000Y-42672000D01*
X109163750Y-42672000D01*
X109005000Y-42830750D01*
X109005000Y-43521309D01*
X109101673Y-43754698D01*
X109280301Y-43933327D01*
X109454777Y-44005597D01*
X109410853Y-44034946D01*
X109088946Y-44516715D01*
X108975907Y-45085000D01*
X109088946Y-45653285D01*
X109410853Y-46135054D01*
X109740026Y-46355000D01*
X109410853Y-46574946D01*
X109088946Y-47056715D01*
X108975907Y-47625000D01*
X109088946Y-48193285D01*
X109410853Y-48675054D01*
X109740026Y-48895000D01*
X109410853Y-49114946D01*
X109220000Y-49400578D01*
X109029147Y-49114946D01*
X108547378Y-48793039D01*
X107979093Y-48680000D01*
X107920907Y-48680000D01*
X107352622Y-48793039D01*
X106870853Y-49114946D01*
X106680000Y-49400578D01*
X106489147Y-49114946D01*
X106007378Y-48793039D01*
X105696691Y-48731240D01*
X106548515Y-48379273D01*
X107431174Y-47498153D01*
X107909454Y-46346326D01*
X107910543Y-45099146D01*
X107434273Y-43946485D01*
X106553153Y-43063826D01*
X105401326Y-42585546D01*
X104154146Y-42584457D01*
X103001485Y-43060727D01*
X102118826Y-43941847D01*
X101640546Y-45093674D01*
X101639457Y-46340854D01*
X101040000Y-46340854D01*
X101040000Y-45789931D01*
X101337161Y-44295999D01*
X102143791Y-43088791D01*
X103351001Y-42282161D01*
X104844931Y-41985000D01*
X109005000Y-41985000D01*
X109005000Y-42259250D01*
X109005000Y-42259250D01*
G37*
X109005000Y-42259250D02*
X109163750Y-42418000D01*
X110363000Y-42418000D01*
X110363000Y-42398000D01*
X110617000Y-42398000D01*
X110617000Y-42418000D01*
X112903000Y-42418000D01*
X112903000Y-42398000D01*
X113157000Y-42398000D01*
X113157000Y-42418000D01*
X115443000Y-42418000D01*
X115443000Y-42398000D01*
X115697000Y-42398000D01*
X115697000Y-42418000D01*
X117983000Y-42418000D01*
X117983000Y-42398000D01*
X118237000Y-42398000D01*
X118237000Y-42418000D01*
X120523000Y-42418000D01*
X120523000Y-42398000D01*
X120777000Y-42398000D01*
X120777000Y-42418000D01*
X123063000Y-42418000D01*
X123063000Y-42398000D01*
X123317000Y-42398000D01*
X123317000Y-42418000D01*
X125603000Y-42418000D01*
X125603000Y-42398000D01*
X125857000Y-42398000D01*
X125857000Y-42418000D01*
X128143000Y-42418000D01*
X128143000Y-42398000D01*
X128397000Y-42398000D01*
X128397000Y-42418000D01*
X130683000Y-42418000D01*
X130683000Y-42398000D01*
X130937000Y-42398000D01*
X130937000Y-42418000D01*
X133223000Y-42418000D01*
X133223000Y-42398000D01*
X133477000Y-42398000D01*
X133477000Y-42418000D01*
X135763000Y-42418000D01*
X135763000Y-42398000D01*
X136017000Y-42398000D01*
X136017000Y-42418000D01*
X138303000Y-42418000D01*
X138303000Y-42398000D01*
X138557000Y-42398000D01*
X138557000Y-42418000D01*
X140843000Y-42418000D01*
X140843000Y-42398000D01*
X141097000Y-42398000D01*
X141097000Y-42418000D01*
X143383000Y-42418000D01*
X143383000Y-42398000D01*
X143637000Y-42398000D01*
X143637000Y-42418000D01*
X145923000Y-42418000D01*
X145923000Y-42398000D01*
X146177000Y-42398000D01*
X146177000Y-42418000D01*
X148463000Y-42418000D01*
X148463000Y-42398000D01*
X148717000Y-42398000D01*
X148717000Y-42418000D01*
X151003000Y-42418000D01*
X151003000Y-42398000D01*
X151257000Y-42398000D01*
X151257000Y-42418000D01*
X153543000Y-42418000D01*
X153543000Y-42398000D01*
X153797000Y-42398000D01*
X153797000Y-42418000D01*
X156083000Y-42418000D01*
X156083000Y-42398000D01*
X156337000Y-42398000D01*
X156337000Y-42418000D01*
X158623000Y-42418000D01*
X158623000Y-42398000D01*
X158877000Y-42398000D01*
X158877000Y-42418000D01*
X161163000Y-42418000D01*
X161163000Y-42398000D01*
X161417000Y-42398000D01*
X161417000Y-42418000D01*
X163703000Y-42418000D01*
X163703000Y-42398000D01*
X163957000Y-42398000D01*
X163957000Y-42418000D01*
X166243000Y-42418000D01*
X166243000Y-42398000D01*
X166497000Y-42398000D01*
X166497000Y-42418000D01*
X168783000Y-42418000D01*
X168783000Y-42398000D01*
X169037000Y-42398000D01*
X169037000Y-42418000D01*
X171323000Y-42418000D01*
X171323000Y-42398000D01*
X171577000Y-42398000D01*
X171577000Y-42418000D01*
X173863000Y-42418000D01*
X173863000Y-42398000D01*
X174117000Y-42398000D01*
X174117000Y-42418000D01*
X176403000Y-42418000D01*
X176403000Y-42398000D01*
X176657000Y-42398000D01*
X176657000Y-42418000D01*
X178943000Y-42418000D01*
X178943000Y-42398000D01*
X179197000Y-42398000D01*
X179197000Y-42418000D01*
X181483000Y-42418000D01*
X181483000Y-42398000D01*
X181737000Y-42398000D01*
X181737000Y-42418000D01*
X184023000Y-42418000D01*
X184023000Y-42398000D01*
X184277000Y-42398000D01*
X184277000Y-42418000D01*
X186563000Y-42418000D01*
X186563000Y-42398000D01*
X186817000Y-42398000D01*
X186817000Y-42418000D01*
X189103000Y-42418000D01*
X189103000Y-42398000D01*
X189357000Y-42398000D01*
X189357000Y-42418000D01*
X190550819Y-42418000D01*
X190671486Y-42188108D01*
X190576101Y-41985000D01*
X194875069Y-41985000D01*
X196369001Y-42282161D01*
X197576209Y-43088791D01*
X198382839Y-44296001D01*
X198680000Y-45789931D01*
X198680000Y-48667560D01*
X197270000Y-48667560D01*
X197034683Y-48711838D01*
X196818559Y-48850910D01*
X196673569Y-49063110D01*
X196622560Y-49315000D01*
X196622560Y-51015000D01*
X196666838Y-51250317D01*
X196805910Y-51466441D01*
X197018110Y-51611431D01*
X197085541Y-51625086D01*
X197040853Y-51654946D01*
X196718946Y-52136715D01*
X196605907Y-52705000D01*
X196718946Y-53273285D01*
X197040853Y-53755054D01*
X197370026Y-53975000D01*
X197040853Y-54194946D01*
X196718946Y-54676715D01*
X196605907Y-55245000D01*
X196718946Y-55813285D01*
X197040853Y-56295054D01*
X197370026Y-56515000D01*
X197040853Y-56734946D01*
X196718946Y-57216715D01*
X196605907Y-57785000D01*
X196718946Y-58353285D01*
X197040853Y-58835054D01*
X197370026Y-59055000D01*
X197040853Y-59274946D01*
X196718946Y-59756715D01*
X196605907Y-60325000D01*
X196718946Y-60893285D01*
X197040853Y-61375054D01*
X197370026Y-61595000D01*
X197040853Y-61814946D01*
X196718946Y-62296715D01*
X196605907Y-62865000D01*
X196718946Y-63433285D01*
X197040853Y-63915054D01*
X197370026Y-64135000D01*
X197040853Y-64354946D01*
X196718946Y-64836715D01*
X196605907Y-65405000D01*
X196718946Y-65973285D01*
X197040853Y-66455054D01*
X197370026Y-66675000D01*
X197040853Y-66894946D01*
X196718946Y-67376715D01*
X196605907Y-67945000D01*
X196718946Y-68513285D01*
X197040853Y-68995054D01*
X197370026Y-69215000D01*
X197040853Y-69434946D01*
X196718946Y-69916715D01*
X196605907Y-70485000D01*
X196718946Y-71053285D01*
X197040853Y-71535054D01*
X197370026Y-71755000D01*
X197040853Y-71974946D01*
X196718946Y-72456715D01*
X196605907Y-73025000D01*
X196718946Y-73593285D01*
X197040853Y-74075054D01*
X197370026Y-74295000D01*
X197040853Y-74514946D01*
X196718946Y-74996715D01*
X196605907Y-75565000D01*
X196718946Y-76133285D01*
X197040853Y-76615054D01*
X197370026Y-76835000D01*
X197040853Y-77054946D01*
X196718946Y-77536715D01*
X196605907Y-78105000D01*
X196718946Y-78673285D01*
X197040853Y-79155054D01*
X197370026Y-79375000D01*
X197040853Y-79594946D01*
X196718946Y-80076715D01*
X196605907Y-80645000D01*
X196718946Y-81213285D01*
X197040853Y-81695054D01*
X197370026Y-81915000D01*
X197040853Y-82134946D01*
X196718946Y-82616715D01*
X196605907Y-83185000D01*
X196718946Y-83753285D01*
X197040853Y-84235054D01*
X197370026Y-84455000D01*
X197040853Y-84674946D01*
X196718946Y-85156715D01*
X196605907Y-85725000D01*
X196718946Y-86293285D01*
X197040853Y-86775054D01*
X197370026Y-86995000D01*
X197040853Y-87214946D01*
X196718946Y-87696715D01*
X196605907Y-88265000D01*
X196718946Y-88833285D01*
X197040853Y-89315054D01*
X197370026Y-89535000D01*
X197040853Y-89754946D01*
X196718946Y-90236715D01*
X196605907Y-90805000D01*
X196718946Y-91373285D01*
X197040853Y-91855054D01*
X197370026Y-92075000D01*
X197040853Y-92294946D01*
X196718946Y-92776715D01*
X196605907Y-93345000D01*
X196718946Y-93913285D01*
X197040853Y-94395054D01*
X197370026Y-94615000D01*
X197040853Y-94834946D01*
X196718946Y-95316715D01*
X196605907Y-95885000D01*
X196718946Y-96453285D01*
X197040853Y-96935054D01*
X197370026Y-97155000D01*
X197040853Y-97374946D01*
X196718946Y-97856715D01*
X196605907Y-98425000D01*
X196718946Y-98993285D01*
X197040853Y-99475054D01*
X197370026Y-99695000D01*
X197040853Y-99914946D01*
X196718946Y-100396715D01*
X196605907Y-100965000D01*
X196718946Y-101533285D01*
X197040853Y-102015054D01*
X197370026Y-102235000D01*
X197040853Y-102454946D01*
X196718946Y-102936715D01*
X196605907Y-103505000D01*
X196718946Y-104073285D01*
X197040853Y-104555054D01*
X197370026Y-104775000D01*
X197040853Y-104994946D01*
X196718946Y-105476715D01*
X196605907Y-106045000D01*
X196718946Y-106613285D01*
X197040853Y-107095054D01*
X197370026Y-107315000D01*
X197040853Y-107534946D01*
X196718946Y-108016715D01*
X196605907Y-108585000D01*
X196718946Y-109153285D01*
X197040853Y-109635054D01*
X197370026Y-109855000D01*
X197040853Y-110074946D01*
X196718946Y-110556715D01*
X196605907Y-111125000D01*
X196718946Y-111693285D01*
X197040853Y-112175054D01*
X197370026Y-112395000D01*
X197040853Y-112614946D01*
X196718946Y-113096715D01*
X196605907Y-113665000D01*
X196718946Y-114233285D01*
X197040853Y-114715054D01*
X197370026Y-114935000D01*
X197040853Y-115154946D01*
X196718946Y-115636715D01*
X196605907Y-116205000D01*
X196718946Y-116773285D01*
X197040853Y-117255054D01*
X197370026Y-117475000D01*
X197040853Y-117694946D01*
X196718946Y-118176715D01*
X196605907Y-118745000D01*
X196718946Y-119313285D01*
X197040853Y-119795054D01*
X197370026Y-120015000D01*
X197040853Y-120234946D01*
X196718946Y-120716715D01*
X196605907Y-121285000D01*
X196718946Y-121853285D01*
X197040853Y-122335054D01*
X197370026Y-122555000D01*
X197040853Y-122774946D01*
X196718946Y-123256715D01*
X196605907Y-123825000D01*
X196718946Y-124393285D01*
X197040853Y-124875054D01*
X197370026Y-125095000D01*
X197040853Y-125314946D01*
X196718946Y-125796715D01*
X196605907Y-126365000D01*
X196718946Y-126933285D01*
X197040853Y-127415054D01*
X197370026Y-127635000D01*
X197040853Y-127854946D01*
X196718946Y-128336715D01*
X196605907Y-128905000D01*
X196718946Y-129473285D01*
X197040853Y-129955054D01*
X197522622Y-130276961D01*
X198090907Y-130390000D01*
X198149093Y-130390000D01*
X198680000Y-130284396D01*
X198680000Y-131312298D01*
X198120000Y-131200907D01*
X197551715Y-131313946D01*
X197069946Y-131635853D01*
X196850000Y-131965026D01*
X196630054Y-131635853D01*
X196148285Y-131313946D01*
X195580000Y-131200907D01*
X195011715Y-131313946D01*
X194529946Y-131635853D01*
X194310000Y-131965026D01*
X194090054Y-131635853D01*
X193608285Y-131313946D01*
X193040000Y-131200907D01*
X192471715Y-131313946D01*
X191989946Y-131635853D01*
X191770000Y-131965026D01*
X191550054Y-131635853D01*
X191068285Y-131313946D01*
X190500000Y-131200907D01*
X189931715Y-131313946D01*
X189449946Y-131635853D01*
X189230000Y-131965026D01*
X189010054Y-131635853D01*
X188528285Y-131313946D01*
X187960000Y-131200907D01*
X187391715Y-131313946D01*
X186909946Y-131635853D01*
X186690000Y-131965026D01*
X186470054Y-131635853D01*
X185988285Y-131313946D01*
X185420000Y-131200907D01*
X184851715Y-131313946D01*
X184369946Y-131635853D01*
X184150000Y-131965026D01*
X183930054Y-131635853D01*
X183448285Y-131313946D01*
X182880000Y-131200907D01*
X182311715Y-131313946D01*
X181829946Y-131635853D01*
X181610000Y-131965026D01*
X181390054Y-131635853D01*
X180908285Y-131313946D01*
X180340000Y-131200907D01*
X179771715Y-131313946D01*
X179289946Y-131635853D01*
X179070000Y-131965026D01*
X178850054Y-131635853D01*
X178368285Y-131313946D01*
X177800000Y-131200907D01*
X177231715Y-131313946D01*
X176749946Y-131635853D01*
X176530000Y-131965026D01*
X176310054Y-131635853D01*
X175828285Y-131313946D01*
X175260000Y-131200907D01*
X174691715Y-131313946D01*
X174209946Y-131635853D01*
X173990000Y-131965026D01*
X173770054Y-131635853D01*
X173288285Y-131313946D01*
X172720000Y-131200907D01*
X172151715Y-131313946D01*
X171669946Y-131635853D01*
X171450000Y-131965026D01*
X171230054Y-131635853D01*
X170748285Y-131313946D01*
X170180000Y-131200907D01*
X169611715Y-131313946D01*
X169129946Y-131635853D01*
X168910000Y-131965026D01*
X168690054Y-131635853D01*
X168208285Y-131313946D01*
X167640000Y-131200907D01*
X167071715Y-131313946D01*
X166589946Y-131635853D01*
X166370000Y-131965026D01*
X166150054Y-131635853D01*
X165668285Y-131313946D01*
X165100000Y-131200907D01*
X164531715Y-131313946D01*
X164049946Y-131635853D01*
X163830000Y-131965026D01*
X163610054Y-131635853D01*
X163128285Y-131313946D01*
X162560000Y-131200907D01*
X161991715Y-131313946D01*
X161509946Y-131635853D01*
X161290000Y-131965026D01*
X161070054Y-131635853D01*
X160588285Y-131313946D01*
X160020000Y-131200907D01*
X159451715Y-131313946D01*
X158969946Y-131635853D01*
X158742298Y-131976553D01*
X158675183Y-131833642D01*
X158246924Y-131443355D01*
X157836890Y-131273524D01*
X157607000Y-131394845D01*
X157607000Y-132588000D01*
X157627000Y-132588000D01*
X157627000Y-132842000D01*
X157607000Y-132842000D01*
X157607000Y-135128000D01*
X157627000Y-135128000D01*
X157627000Y-135382000D01*
X157607000Y-135382000D01*
X157607000Y-136575155D01*
X157836890Y-136696476D01*
X158246924Y-136526645D01*
X158675183Y-136136358D01*
X158742298Y-135993447D01*
X158969946Y-136334147D01*
X159451715Y-136656054D01*
X160020000Y-136769093D01*
X160588285Y-136656054D01*
X161070054Y-136334147D01*
X161290000Y-136004974D01*
X161509946Y-136334147D01*
X161991715Y-136656054D01*
X162560000Y-136769093D01*
X163128285Y-136656054D01*
X163610054Y-136334147D01*
X163830000Y-136004974D01*
X164049946Y-136334147D01*
X164531715Y-136656054D01*
X165100000Y-136769093D01*
X165668285Y-136656054D01*
X166150054Y-136334147D01*
X166370000Y-136004974D01*
X166589946Y-136334147D01*
X167071715Y-136656054D01*
X167640000Y-136769093D01*
X168208285Y-136656054D01*
X168690054Y-136334147D01*
X168910000Y-136004974D01*
X169129946Y-136334147D01*
X169611715Y-136656054D01*
X170180000Y-136769093D01*
X170748285Y-136656054D01*
X171230054Y-136334147D01*
X171450000Y-136004974D01*
X171669946Y-136334147D01*
X172151715Y-136656054D01*
X172720000Y-136769093D01*
X173288285Y-136656054D01*
X173770054Y-136334147D01*
X173990000Y-136004974D01*
X174209946Y-136334147D01*
X174691715Y-136656054D01*
X175260000Y-136769093D01*
X175828285Y-136656054D01*
X176310054Y-136334147D01*
X176530000Y-136004974D01*
X176749946Y-136334147D01*
X177231715Y-136656054D01*
X177800000Y-136769093D01*
X178368285Y-136656054D01*
X178850054Y-136334147D01*
X179070000Y-136004974D01*
X179289946Y-136334147D01*
X179771715Y-136656054D01*
X180340000Y-136769093D01*
X180908285Y-136656054D01*
X181390054Y-136334147D01*
X181610000Y-136004974D01*
X181829946Y-136334147D01*
X182311715Y-136656054D01*
X182880000Y-136769093D01*
X183448285Y-136656054D01*
X183930054Y-136334147D01*
X184150000Y-136004974D01*
X184369946Y-136334147D01*
X184851715Y-136656054D01*
X185420000Y-136769093D01*
X185988285Y-136656054D01*
X186470054Y-136334147D01*
X186690000Y-136004974D01*
X186909946Y-136334147D01*
X187391715Y-136656054D01*
X187960000Y-136769093D01*
X188528285Y-136656054D01*
X189010054Y-136334147D01*
X189230000Y-136004974D01*
X189449946Y-136334147D01*
X189931715Y-136656054D01*
X190500000Y-136769093D01*
X191068285Y-136656054D01*
X191550054Y-136334147D01*
X191770000Y-136004974D01*
X191989946Y-136334147D01*
X192471715Y-136656054D01*
X193040000Y-136769093D01*
X193608285Y-136656054D01*
X194090054Y-136334147D01*
X194310000Y-136004974D01*
X194529946Y-136334147D01*
X195011715Y-136656054D01*
X195580000Y-136769093D01*
X196148285Y-136656054D01*
X196630054Y-136334147D01*
X196850000Y-136004974D01*
X197069946Y-136334147D01*
X197551715Y-136656054D01*
X198120000Y-136769093D01*
X198680000Y-136657702D01*
X198680000Y-138202560D01*
X197270000Y-138202560D01*
X197034683Y-138246838D01*
X196818559Y-138385910D01*
X196673569Y-138598110D01*
X196659914Y-138665541D01*
X196630054Y-138620853D01*
X196148285Y-138298946D01*
X195580000Y-138185907D01*
X195011715Y-138298946D01*
X194529946Y-138620853D01*
X194310000Y-138950026D01*
X194090054Y-138620853D01*
X193608285Y-138298946D01*
X193040000Y-138185907D01*
X192471715Y-138298946D01*
X191989946Y-138620853D01*
X191770000Y-138950026D01*
X191550054Y-138620853D01*
X191068285Y-138298946D01*
X190500000Y-138185907D01*
X189931715Y-138298946D01*
X189449946Y-138620853D01*
X189230000Y-138950026D01*
X189010054Y-138620853D01*
X188528285Y-138298946D01*
X187960000Y-138185907D01*
X187391715Y-138298946D01*
X186909946Y-138620853D01*
X186690000Y-138950026D01*
X186470054Y-138620853D01*
X185988285Y-138298946D01*
X185420000Y-138185907D01*
X184851715Y-138298946D01*
X184369946Y-138620853D01*
X184150000Y-138950026D01*
X183930054Y-138620853D01*
X183448285Y-138298946D01*
X182880000Y-138185907D01*
X182311715Y-138298946D01*
X181829946Y-138620853D01*
X181610000Y-138950026D01*
X181390054Y-138620853D01*
X180908285Y-138298946D01*
X180340000Y-138185907D01*
X179771715Y-138298946D01*
X179289946Y-138620853D01*
X179070000Y-138950026D01*
X178850054Y-138620853D01*
X178368285Y-138298946D01*
X177800000Y-138185907D01*
X177231715Y-138298946D01*
X176749946Y-138620853D01*
X176530000Y-138950026D01*
X176310054Y-138620853D01*
X175828285Y-138298946D01*
X175260000Y-138185907D01*
X174691715Y-138298946D01*
X174209946Y-138620853D01*
X173990000Y-138950026D01*
X173770054Y-138620853D01*
X173288285Y-138298946D01*
X172720000Y-138185907D01*
X172151715Y-138298946D01*
X171669946Y-138620853D01*
X171450000Y-138950026D01*
X171230054Y-138620853D01*
X170748285Y-138298946D01*
X170180000Y-138185907D01*
X169611715Y-138298946D01*
X169129946Y-138620853D01*
X168910000Y-138950026D01*
X168690054Y-138620853D01*
X168208285Y-138298946D01*
X167640000Y-138185907D01*
X167071715Y-138298946D01*
X166589946Y-138620853D01*
X166370000Y-138950026D01*
X166150054Y-138620853D01*
X165668285Y-138298946D01*
X165100000Y-138185907D01*
X164531715Y-138298946D01*
X164049946Y-138620853D01*
X163830000Y-138950026D01*
X163610054Y-138620853D01*
X163128285Y-138298946D01*
X162560000Y-138185907D01*
X161991715Y-138298946D01*
X161509946Y-138620853D01*
X161290000Y-138950026D01*
X161070054Y-138620853D01*
X160588285Y-138298946D01*
X160020000Y-138185907D01*
X159451715Y-138298946D01*
X158969946Y-138620853D01*
X158742298Y-138961553D01*
X158675183Y-138818642D01*
X158246924Y-138428355D01*
X157836890Y-138258524D01*
X157607000Y-138379845D01*
X157607000Y-139573000D01*
X157627000Y-139573000D01*
X157627000Y-139827000D01*
X157607000Y-139827000D01*
X157607000Y-139847000D01*
X157353000Y-139847000D01*
X157353000Y-139827000D01*
X157333000Y-139827000D01*
X157333000Y-139573000D01*
X157353000Y-139573000D01*
X157353000Y-138379845D01*
X157123110Y-138258524D01*
X156713076Y-138428355D01*
X156284817Y-138818642D01*
X156217702Y-138961553D01*
X155990054Y-138620853D01*
X155508285Y-138298946D01*
X154940000Y-138185907D01*
X154371715Y-138298946D01*
X153889946Y-138620853D01*
X153670000Y-138950026D01*
X153450054Y-138620853D01*
X152968285Y-138298946D01*
X152400000Y-138185907D01*
X151831715Y-138298946D01*
X151349946Y-138620853D01*
X151130000Y-138950026D01*
X150910054Y-138620853D01*
X150428285Y-138298946D01*
X149860000Y-138185907D01*
X149291715Y-138298946D01*
X148809946Y-138620853D01*
X148590000Y-138950026D01*
X148370054Y-138620853D01*
X147888285Y-138298946D01*
X147320000Y-138185907D01*
X146751715Y-138298946D01*
X146269946Y-138620853D01*
X146050000Y-138950026D01*
X145830054Y-138620853D01*
X145348285Y-138298946D01*
X144780000Y-138185907D01*
X144211715Y-138298946D01*
X143729946Y-138620853D01*
X143510000Y-138950026D01*
X143290054Y-138620853D01*
X142808285Y-138298946D01*
X142240000Y-138185907D01*
X141671715Y-138298946D01*
X141189946Y-138620853D01*
X140970000Y-138950026D01*
X140750054Y-138620853D01*
X140268285Y-138298946D01*
X139700000Y-138185907D01*
X139131715Y-138298946D01*
X138649946Y-138620853D01*
X138430000Y-138950026D01*
X138210054Y-138620853D01*
X137728285Y-138298946D01*
X137160000Y-138185907D01*
X136591715Y-138298946D01*
X136109946Y-138620853D01*
X135890000Y-138950026D01*
X135670054Y-138620853D01*
X135188285Y-138298946D01*
X134620000Y-138185907D01*
X134051715Y-138298946D01*
X133569946Y-138620853D01*
X133350000Y-138950026D01*
X133130054Y-138620853D01*
X132648285Y-138298946D01*
X132080000Y-138185907D01*
X131511715Y-138298946D01*
X131029946Y-138620853D01*
X130810000Y-138950026D01*
X130590054Y-138620853D01*
X130108285Y-138298946D01*
X129540000Y-138185907D01*
X128971715Y-138298946D01*
X128489946Y-138620853D01*
X128270000Y-138950026D01*
X128050054Y-138620853D01*
X127568285Y-138298946D01*
X127000000Y-138185907D01*
X126431715Y-138298946D01*
X125949946Y-138620853D01*
X125730000Y-138950026D01*
X125510054Y-138620853D01*
X125028285Y-138298946D01*
X124460000Y-138185907D01*
X123891715Y-138298946D01*
X123409946Y-138620853D01*
X123190000Y-138950026D01*
X122970054Y-138620853D01*
X122488285Y-138298946D01*
X121920000Y-138185907D01*
X121351715Y-138298946D01*
X120869946Y-138620853D01*
X120650000Y-138950026D01*
X120430054Y-138620853D01*
X119948285Y-138298946D01*
X119380000Y-138185907D01*
X118811715Y-138298946D01*
X118329946Y-138620853D01*
X118110000Y-138950026D01*
X117890054Y-138620853D01*
X117408285Y-138298946D01*
X116840000Y-138185907D01*
X116271715Y-138298946D01*
X115789946Y-138620853D01*
X115570000Y-138950026D01*
X115350054Y-138620853D01*
X114868285Y-138298946D01*
X114300000Y-138185907D01*
X113731715Y-138298946D01*
X113249946Y-138620853D01*
X113030000Y-138950026D01*
X112810054Y-138620853D01*
X112328285Y-138298946D01*
X111760000Y-138185907D01*
X111191715Y-138298946D01*
X110709946Y-138620853D01*
X110490000Y-138950026D01*
X110270054Y-138620853D01*
X109788285Y-138298946D01*
X109220000Y-138185907D01*
X108651715Y-138298946D01*
X108169946Y-138620853D01*
X107950000Y-138950026D01*
X107730054Y-138620853D01*
X107248285Y-138298946D01*
X106680000Y-138185907D01*
X106111715Y-138298946D01*
X105629946Y-138620853D01*
X105410000Y-138950026D01*
X105190054Y-138620853D01*
X104708285Y-138298946D01*
X104140000Y-138185907D01*
X103571715Y-138298946D01*
X103089946Y-138620853D01*
X102870000Y-138950026D01*
X102650054Y-138620853D01*
X102168285Y-138298946D01*
X101600000Y-138185907D01*
X101040000Y-138297298D01*
X101040000Y-136657702D01*
X101600000Y-136769093D01*
X102168285Y-136656054D01*
X102650054Y-136334147D01*
X102870000Y-136004974D01*
X103089946Y-136334147D01*
X103571715Y-136656054D01*
X104140000Y-136769093D01*
X104708285Y-136656054D01*
X105190054Y-136334147D01*
X105410000Y-136004974D01*
X105629946Y-136334147D01*
X106111715Y-136656054D01*
X106680000Y-136769093D01*
X107248285Y-136656054D01*
X107730054Y-136334147D01*
X107950000Y-136004974D01*
X108169946Y-136334147D01*
X108651715Y-136656054D01*
X109220000Y-136769093D01*
X109788285Y-136656054D01*
X110270054Y-136334147D01*
X110490000Y-136004974D01*
X110709946Y-136334147D01*
X111191715Y-136656054D01*
X111760000Y-136769093D01*
X112328285Y-136656054D01*
X112810054Y-136334147D01*
X113030000Y-136004974D01*
X113249946Y-136334147D01*
X113731715Y-136656054D01*
X114300000Y-136769093D01*
X114868285Y-136656054D01*
X115350054Y-136334147D01*
X115570000Y-136004974D01*
X115789946Y-136334147D01*
X116271715Y-136656054D01*
X116840000Y-136769093D01*
X117408285Y-136656054D01*
X117890054Y-136334147D01*
X118110000Y-136004974D01*
X118329946Y-136334147D01*
X118811715Y-136656054D01*
X119380000Y-136769093D01*
X119948285Y-136656054D01*
X120430054Y-136334147D01*
X120650000Y-136004974D01*
X120869946Y-136334147D01*
X121351715Y-136656054D01*
X121920000Y-136769093D01*
X122488285Y-136656054D01*
X122970054Y-136334147D01*
X123190000Y-136004974D01*
X123409946Y-136334147D01*
X123891715Y-136656054D01*
X124460000Y-136769093D01*
X125028285Y-136656054D01*
X125510054Y-136334147D01*
X125730000Y-136004974D01*
X125949946Y-136334147D01*
X126431715Y-136656054D01*
X127000000Y-136769093D01*
X127568285Y-136656054D01*
X128050054Y-136334147D01*
X128270000Y-136004974D01*
X128489946Y-136334147D01*
X128971715Y-136656054D01*
X129540000Y-136769093D01*
X130108285Y-136656054D01*
X130590054Y-136334147D01*
X130810000Y-136004974D01*
X131029946Y-136334147D01*
X131511715Y-136656054D01*
X132080000Y-136769093D01*
X132648285Y-136656054D01*
X133130054Y-136334147D01*
X133350000Y-136004974D01*
X133569946Y-136334147D01*
X134051715Y-136656054D01*
X134620000Y-136769093D01*
X135188285Y-136656054D01*
X135670054Y-136334147D01*
X135890000Y-136004974D01*
X136109946Y-136334147D01*
X136591715Y-136656054D01*
X137160000Y-136769093D01*
X137728285Y-136656054D01*
X138210054Y-136334147D01*
X138430000Y-136004974D01*
X138649946Y-136334147D01*
X139131715Y-136656054D01*
X139700000Y-136769093D01*
X140268285Y-136656054D01*
X140750054Y-136334147D01*
X140970000Y-136004974D01*
X141189946Y-136334147D01*
X141671715Y-136656054D01*
X142240000Y-136769093D01*
X142808285Y-136656054D01*
X143290054Y-136334147D01*
X143510000Y-136004974D01*
X143729946Y-136334147D01*
X144211715Y-136656054D01*
X144780000Y-136769093D01*
X145348285Y-136656054D01*
X145830054Y-136334147D01*
X146050000Y-136004974D01*
X146269946Y-136334147D01*
X146751715Y-136656054D01*
X147320000Y-136769093D01*
X147888285Y-136656054D01*
X148370054Y-136334147D01*
X148590000Y-136004974D01*
X148809946Y-136334147D01*
X149291715Y-136656054D01*
X149860000Y-136769093D01*
X150428285Y-136656054D01*
X150910054Y-136334147D01*
X151130000Y-136004974D01*
X151349946Y-136334147D01*
X151831715Y-136656054D01*
X152400000Y-136769093D01*
X152968285Y-136656054D01*
X153450054Y-136334147D01*
X153670000Y-136004974D01*
X153889946Y-136334147D01*
X154371715Y-136656054D01*
X154940000Y-136769093D01*
X155508285Y-136656054D01*
X155990054Y-136334147D01*
X156217702Y-135993447D01*
X156284817Y-136136358D01*
X156713076Y-136526645D01*
X157123110Y-136696476D01*
X157353000Y-136575155D01*
X157353000Y-135382000D01*
X157333000Y-135382000D01*
X157333000Y-135128000D01*
X157353000Y-135128000D01*
X157353000Y-132842000D01*
X157333000Y-132842000D01*
X157333000Y-132588000D01*
X157353000Y-132588000D01*
X157353000Y-131394845D01*
X157123110Y-131273524D01*
X156713076Y-131443355D01*
X156284817Y-131833642D01*
X156217702Y-131976553D01*
X155990054Y-131635853D01*
X155508285Y-131313946D01*
X154940000Y-131200907D01*
X154371715Y-131313946D01*
X153889946Y-131635853D01*
X153670000Y-131965026D01*
X153450054Y-131635853D01*
X152968285Y-131313946D01*
X152400000Y-131200907D01*
X151831715Y-131313946D01*
X151349946Y-131635853D01*
X151130000Y-131965026D01*
X150910054Y-131635853D01*
X150428285Y-131313946D01*
X149860000Y-131200907D01*
X149291715Y-131313946D01*
X148809946Y-131635853D01*
X148590000Y-131965026D01*
X148370054Y-131635853D01*
X147888285Y-131313946D01*
X147320000Y-131200907D01*
X146751715Y-131313946D01*
X146269946Y-131635853D01*
X146050000Y-131965026D01*
X145830054Y-131635853D01*
X145348285Y-131313946D01*
X144780000Y-131200907D01*
X144211715Y-131313946D01*
X143729946Y-131635853D01*
X143510000Y-131965026D01*
X143290054Y-131635853D01*
X142808285Y-131313946D01*
X142240000Y-131200907D01*
X141671715Y-131313946D01*
X141189946Y-131635853D01*
X140970000Y-131965026D01*
X140750054Y-131635853D01*
X140268285Y-131313946D01*
X139700000Y-131200907D01*
X139131715Y-131313946D01*
X138649946Y-131635853D01*
X138430000Y-131965026D01*
X138210054Y-131635853D01*
X137728285Y-131313946D01*
X137160000Y-131200907D01*
X136591715Y-131313946D01*
X136109946Y-131635853D01*
X135890000Y-131965026D01*
X135670054Y-131635853D01*
X135188285Y-131313946D01*
X134620000Y-131200907D01*
X134051715Y-131313946D01*
X133569946Y-131635853D01*
X133350000Y-131965026D01*
X133130054Y-131635853D01*
X132648285Y-131313946D01*
X132080000Y-131200907D01*
X131511715Y-131313946D01*
X131029946Y-131635853D01*
X130810000Y-131965026D01*
X130590054Y-131635853D01*
X130108285Y-131313946D01*
X129540000Y-131200907D01*
X128971715Y-131313946D01*
X128489946Y-131635853D01*
X128270000Y-131965026D01*
X128050054Y-131635853D01*
X127568285Y-131313946D01*
X127000000Y-131200907D01*
X126431715Y-131313946D01*
X125949946Y-131635853D01*
X125730000Y-131965026D01*
X125510054Y-131635853D01*
X125028285Y-131313946D01*
X124460000Y-131200907D01*
X123891715Y-131313946D01*
X123409946Y-131635853D01*
X123190000Y-131965026D01*
X122970054Y-131635853D01*
X122488285Y-131313946D01*
X121920000Y-131200907D01*
X121351715Y-131313946D01*
X120869946Y-131635853D01*
X120650000Y-131965026D01*
X120430054Y-131635853D01*
X119948285Y-131313946D01*
X119380000Y-131200907D01*
X118811715Y-131313946D01*
X118329946Y-131635853D01*
X118110000Y-131965026D01*
X117890054Y-131635853D01*
X117408285Y-131313946D01*
X116840000Y-131200907D01*
X116271715Y-131313946D01*
X115789946Y-131635853D01*
X115570000Y-131965026D01*
X115350054Y-131635853D01*
X114868285Y-131313946D01*
X114300000Y-131200907D01*
X113731715Y-131313946D01*
X113249946Y-131635853D01*
X113030000Y-131965026D01*
X112810054Y-131635853D01*
X112328285Y-131313946D01*
X111760000Y-131200907D01*
X111191715Y-131313946D01*
X110709946Y-131635853D01*
X110490000Y-131965026D01*
X110270054Y-131635853D01*
X109788285Y-131313946D01*
X109220000Y-131200907D01*
X108651715Y-131313946D01*
X108169946Y-131635853D01*
X107950000Y-131965026D01*
X107730054Y-131635853D01*
X107248285Y-131313946D01*
X106680000Y-131200907D01*
X106111715Y-131313946D01*
X105629946Y-131635853D01*
X105410000Y-131965026D01*
X105190054Y-131635853D01*
X104708285Y-131313946D01*
X104140000Y-131200907D01*
X103571715Y-131313946D01*
X103089946Y-131635853D01*
X102870000Y-131965026D01*
X102650054Y-131635853D01*
X102168285Y-131313946D01*
X101600000Y-131200907D01*
X101040000Y-131312298D01*
X101040000Y-130284396D01*
X101570907Y-130390000D01*
X101629093Y-130390000D01*
X102197378Y-130276961D01*
X102679147Y-129955054D01*
X103001054Y-129473285D01*
X103114093Y-128905000D01*
X103001054Y-128336715D01*
X102679147Y-127854946D01*
X102349974Y-127635000D01*
X102679147Y-127415054D01*
X103001054Y-126933285D01*
X103114093Y-126365000D01*
X103001054Y-125796715D01*
X102679147Y-125314946D01*
X102349974Y-125095000D01*
X102679147Y-124875054D01*
X103001054Y-124393285D01*
X103114093Y-123825000D01*
X103001054Y-123256715D01*
X102679147Y-122774946D01*
X102349974Y-122555000D01*
X102679147Y-122335054D01*
X103001054Y-121853285D01*
X103114093Y-121285000D01*
X103001054Y-120716715D01*
X102679147Y-120234946D01*
X102349974Y-120015000D01*
X102679147Y-119795054D01*
X103001054Y-119313285D01*
X103114093Y-118745000D01*
X103001054Y-118176715D01*
X102679147Y-117694946D01*
X102349974Y-117475000D01*
X102679147Y-117255054D01*
X103001054Y-116773285D01*
X103114093Y-116205000D01*
X103001054Y-115636715D01*
X102679147Y-115154946D01*
X102349974Y-114935000D01*
X102679147Y-114715054D01*
X103001054Y-114233285D01*
X103114093Y-113665000D01*
X103001054Y-113096715D01*
X102679147Y-112614946D01*
X102349974Y-112395000D01*
X102679147Y-112175054D01*
X103001054Y-111693285D01*
X103114093Y-111125000D01*
X103001054Y-110556715D01*
X102679147Y-110074946D01*
X102349974Y-109855000D01*
X102679147Y-109635054D01*
X103001054Y-109153285D01*
X103114093Y-108585000D01*
X103001054Y-108016715D01*
X102679147Y-107534946D01*
X102349974Y-107315000D01*
X102679147Y-107095054D01*
X103001054Y-106613285D01*
X103114093Y-106045000D01*
X103001054Y-105476715D01*
X102679147Y-104994946D01*
X102349974Y-104775000D01*
X102679147Y-104555054D01*
X103001054Y-104073285D01*
X103114093Y-103505000D01*
X103001054Y-102936715D01*
X102679147Y-102454946D01*
X102349974Y-102235000D01*
X102679147Y-102015054D01*
X103001054Y-101533285D01*
X103114093Y-100965000D01*
X103001054Y-100396715D01*
X102679147Y-99914946D01*
X102349974Y-99695000D01*
X102679147Y-99475054D01*
X103001054Y-98993285D01*
X103114093Y-98425000D01*
X103001054Y-97856715D01*
X102679147Y-97374946D01*
X102349974Y-97155000D01*
X102679147Y-96935054D01*
X103001054Y-96453285D01*
X103114093Y-95885000D01*
X103001054Y-95316715D01*
X102679147Y-94834946D01*
X102349974Y-94615000D01*
X102679147Y-94395054D01*
X103001054Y-93913285D01*
X103114093Y-93345000D01*
X103001054Y-92776715D01*
X102679147Y-92294946D01*
X102349974Y-92075000D01*
X102679147Y-91855054D01*
X103001054Y-91373285D01*
X103114093Y-90805000D01*
X103001054Y-90236715D01*
X102679147Y-89754946D01*
X102349974Y-89535000D01*
X102679147Y-89315054D01*
X103001054Y-88833285D01*
X103114093Y-88265000D01*
X103001054Y-87696715D01*
X102679147Y-87214946D01*
X102349974Y-86995000D01*
X102679147Y-86775054D01*
X103001054Y-86293285D01*
X103114093Y-85725000D01*
X103001054Y-85156715D01*
X102679147Y-84674946D01*
X102349974Y-84455000D01*
X102679147Y-84235054D01*
X103001054Y-83753285D01*
X103114093Y-83185000D01*
X103001054Y-82616715D01*
X102679147Y-82134946D01*
X102349974Y-81915000D01*
X102679147Y-81695054D01*
X103001054Y-81213285D01*
X103114093Y-80645000D01*
X103001054Y-80076715D01*
X102679147Y-79594946D01*
X102349974Y-79375000D01*
X102679147Y-79155054D01*
X103001054Y-78673285D01*
X103114093Y-78105000D01*
X103001054Y-77536715D01*
X102679147Y-77054946D01*
X102349974Y-76835000D01*
X102679147Y-76615054D01*
X103001054Y-76133285D01*
X103114093Y-75565000D01*
X103001054Y-74996715D01*
X102679147Y-74514946D01*
X102349974Y-74295000D01*
X102679147Y-74075054D01*
X103001054Y-73593285D01*
X103114093Y-73025000D01*
X103001054Y-72456715D01*
X102679147Y-71974946D01*
X102349974Y-71755000D01*
X102679147Y-71535054D01*
X103001054Y-71053285D01*
X103114093Y-70485000D01*
X103001054Y-69916715D01*
X102679147Y-69434946D01*
X102349974Y-69215000D01*
X102679147Y-68995054D01*
X103001054Y-68513285D01*
X103114093Y-67945000D01*
X103001054Y-67376715D01*
X102679147Y-66894946D01*
X102349974Y-66675000D01*
X102679147Y-66455054D01*
X103001054Y-65973285D01*
X103114093Y-65405000D01*
X103001054Y-64836715D01*
X102679147Y-64354946D01*
X102349974Y-64135000D01*
X102679147Y-63915054D01*
X103001054Y-63433285D01*
X103114093Y-62865000D01*
X103001054Y-62296715D01*
X102679147Y-61814946D01*
X102349974Y-61595000D01*
X102679147Y-61375054D01*
X103001054Y-60893285D01*
X103114093Y-60325000D01*
X103001054Y-59756715D01*
X102679147Y-59274946D01*
X102349974Y-59055000D01*
X102679147Y-58835054D01*
X103001054Y-58353285D01*
X103114093Y-57785000D01*
X103001054Y-57216715D01*
X102679147Y-56734946D01*
X102349974Y-56515000D01*
X102679147Y-56295054D01*
X103001054Y-55813285D01*
X103114093Y-55245000D01*
X103001054Y-54676715D01*
X102679147Y-54194946D01*
X102349974Y-53975000D01*
X102679147Y-53755054D01*
X103001054Y-53273285D01*
X103114093Y-52705000D01*
X103001054Y-52136715D01*
X102679147Y-51654946D01*
X102637548Y-51627150D01*
X102685317Y-51618162D01*
X102901441Y-51479090D01*
X103046431Y-51266890D01*
X103097440Y-51015000D01*
X103097440Y-49315000D01*
X103053162Y-49079683D01*
X102914090Y-48863559D01*
X102701890Y-48718569D01*
X102450000Y-48667560D01*
X101040000Y-48667560D01*
X101040000Y-46340854D01*
X101639457Y-46340854D01*
X102115727Y-47493515D01*
X102996847Y-48376174D01*
X104148674Y-48854454D01*
X104719961Y-48854953D01*
X104330853Y-49114946D01*
X104008946Y-49596715D01*
X103895907Y-50165000D01*
X104008946Y-50733285D01*
X104330853Y-51215054D01*
X104660026Y-51435000D01*
X104330853Y-51654946D01*
X104008946Y-52136715D01*
X103895907Y-52705000D01*
X104008946Y-53273285D01*
X104330853Y-53755054D01*
X104660026Y-53975000D01*
X104330853Y-54194946D01*
X104008946Y-54676715D01*
X103895907Y-55245000D01*
X104008946Y-55813285D01*
X104330853Y-56295054D01*
X104660026Y-56515000D01*
X104330853Y-56734946D01*
X104008946Y-57216715D01*
X103895907Y-57785000D01*
X104008946Y-58353285D01*
X104330853Y-58835054D01*
X104660026Y-59055000D01*
X104330853Y-59274946D01*
X104008946Y-59756715D01*
X103895907Y-60325000D01*
X104008946Y-60893285D01*
X104330853Y-61375054D01*
X104660026Y-61595000D01*
X104330853Y-61814946D01*
X104008946Y-62296715D01*
X103895907Y-62865000D01*
X104008946Y-63433285D01*
X104330853Y-63915054D01*
X104660026Y-64135000D01*
X104330853Y-64354946D01*
X104008946Y-64836715D01*
X103895907Y-65405000D01*
X104008946Y-65973285D01*
X104330853Y-66455054D01*
X104660026Y-66675000D01*
X104330853Y-66894946D01*
X104008946Y-67376715D01*
X103895907Y-67945000D01*
X104008946Y-68513285D01*
X104330853Y-68995054D01*
X104660026Y-69215000D01*
X104330853Y-69434946D01*
X104008946Y-69916715D01*
X103895907Y-70485000D01*
X104008946Y-71053285D01*
X104330853Y-71535054D01*
X104660026Y-71755000D01*
X104330853Y-71974946D01*
X104008946Y-72456715D01*
X103895907Y-73025000D01*
X104008946Y-73593285D01*
X104330853Y-74075054D01*
X104660026Y-74295000D01*
X104330853Y-74514946D01*
X104008946Y-74996715D01*
X103895907Y-75565000D01*
X104008946Y-76133285D01*
X104330853Y-76615054D01*
X104660026Y-76835000D01*
X104330853Y-77054946D01*
X104008946Y-77536715D01*
X103895907Y-78105000D01*
X104008946Y-78673285D01*
X104330853Y-79155054D01*
X104660026Y-79375000D01*
X104330853Y-79594946D01*
X104008946Y-80076715D01*
X103895907Y-80645000D01*
X104008946Y-81213285D01*
X104330853Y-81695054D01*
X104660026Y-81915000D01*
X104330853Y-82134946D01*
X104008946Y-82616715D01*
X103895907Y-83185000D01*
X104008946Y-83753285D01*
X104330853Y-84235054D01*
X104660026Y-84455000D01*
X104330853Y-84674946D01*
X104008946Y-85156715D01*
X103895907Y-85725000D01*
X104008946Y-86293285D01*
X104330853Y-86775054D01*
X104660026Y-86995000D01*
X104330853Y-87214946D01*
X104008946Y-87696715D01*
X103895907Y-88265000D01*
X104008946Y-88833285D01*
X104330853Y-89315054D01*
X104660026Y-89535000D01*
X104330853Y-89754946D01*
X104008946Y-90236715D01*
X103895907Y-90805000D01*
X104008946Y-91373285D01*
X104330853Y-91855054D01*
X104660026Y-92075000D01*
X104330853Y-92294946D01*
X104008946Y-92776715D01*
X103895907Y-93345000D01*
X104008946Y-93913285D01*
X104330853Y-94395054D01*
X104660026Y-94615000D01*
X104330853Y-94834946D01*
X104008946Y-95316715D01*
X103895907Y-95885000D01*
X104008946Y-96453285D01*
X104330853Y-96935054D01*
X104660026Y-97155000D01*
X104330853Y-97374946D01*
X104008946Y-97856715D01*
X103895907Y-98425000D01*
X104008946Y-98993285D01*
X104330853Y-99475054D01*
X104660026Y-99695000D01*
X104330853Y-99914946D01*
X104008946Y-100396715D01*
X103895907Y-100965000D01*
X104008946Y-101533285D01*
X104330853Y-102015054D01*
X104660026Y-102235000D01*
X104330853Y-102454946D01*
X104008946Y-102936715D01*
X103895907Y-103505000D01*
X104008946Y-104073285D01*
X104330853Y-104555054D01*
X104660026Y-104775000D01*
X104330853Y-104994946D01*
X104008946Y-105476715D01*
X103895907Y-106045000D01*
X104008946Y-106613285D01*
X104330853Y-107095054D01*
X104660026Y-107315000D01*
X104330853Y-107534946D01*
X104008946Y-108016715D01*
X103895907Y-108585000D01*
X104008946Y-109153285D01*
X104330853Y-109635054D01*
X104660026Y-109855000D01*
X104330853Y-110074946D01*
X104008946Y-110556715D01*
X103895907Y-111125000D01*
X104008946Y-111693285D01*
X104330853Y-112175054D01*
X104660026Y-112395000D01*
X104330853Y-112614946D01*
X104008946Y-113096715D01*
X103895907Y-113665000D01*
X104008946Y-114233285D01*
X104330853Y-114715054D01*
X104660026Y-114935000D01*
X104330853Y-115154946D01*
X104008946Y-115636715D01*
X103895907Y-116205000D01*
X104008946Y-116773285D01*
X104330853Y-117255054D01*
X104660026Y-117475000D01*
X104330853Y-117694946D01*
X104008946Y-118176715D01*
X103895907Y-118745000D01*
X104008946Y-119313285D01*
X104330853Y-119795054D01*
X104660026Y-120015000D01*
X104330853Y-120234946D01*
X104008946Y-120716715D01*
X103895907Y-121285000D01*
X104008946Y-121853285D01*
X104330853Y-122335054D01*
X104660026Y-122555000D01*
X104330853Y-122774946D01*
X104008946Y-123256715D01*
X103895907Y-123825000D01*
X104008946Y-124393285D01*
X104330853Y-124875054D01*
X104660026Y-125095000D01*
X104330853Y-125314946D01*
X104008946Y-125796715D01*
X103895907Y-126365000D01*
X104008946Y-126933285D01*
X104330853Y-127415054D01*
X104660026Y-127635000D01*
X104330853Y-127854946D01*
X104008946Y-128336715D01*
X103895907Y-128905000D01*
X104008946Y-129473285D01*
X104330853Y-129955054D01*
X104812622Y-130276961D01*
X105380907Y-130390000D01*
X105439093Y-130390000D01*
X106007378Y-130276961D01*
X106489147Y-129955054D01*
X106680000Y-129669422D01*
X106870853Y-129955054D01*
X107352622Y-130276961D01*
X107920907Y-130390000D01*
X107979093Y-130390000D01*
X108547378Y-130276961D01*
X109029147Y-129955054D01*
X109220000Y-129669422D01*
X109410853Y-129955054D01*
X109892622Y-130276961D01*
X110460907Y-130390000D01*
X110519093Y-130390000D01*
X111087378Y-130276961D01*
X111569147Y-129955054D01*
X111760000Y-129669422D01*
X111950853Y-129955054D01*
X112432622Y-130276961D01*
X113000907Y-130390000D01*
X113059093Y-130390000D01*
X113627378Y-130276961D01*
X114109147Y-129955054D01*
X114300000Y-129669422D01*
X114490853Y-129955054D01*
X114972622Y-130276961D01*
X115540907Y-130390000D01*
X115599093Y-130390000D01*
X116167378Y-130276961D01*
X116649147Y-129955054D01*
X116840000Y-129669422D01*
X117030853Y-129955054D01*
X117512622Y-130276961D01*
X118080907Y-130390000D01*
X118139093Y-130390000D01*
X118707378Y-130276961D01*
X119189147Y-129955054D01*
X119380000Y-129669422D01*
X119570853Y-129955054D01*
X120052622Y-130276961D01*
X120620907Y-130390000D01*
X120679093Y-130390000D01*
X121247378Y-130276961D01*
X121729147Y-129955054D01*
X121920000Y-129669422D01*
X122110853Y-129955054D01*
X122592622Y-130276961D01*
X123160907Y-130390000D01*
X123219093Y-130390000D01*
X123787378Y-130276961D01*
X124269147Y-129955054D01*
X124460000Y-129669422D01*
X124650853Y-129955054D01*
X125132622Y-130276961D01*
X125700907Y-130390000D01*
X125759093Y-130390000D01*
X126327378Y-130276961D01*
X126809147Y-129955054D01*
X127000000Y-129669422D01*
X127190853Y-129955054D01*
X127672622Y-130276961D01*
X128240907Y-130390000D01*
X128299093Y-130390000D01*
X128867378Y-130276961D01*
X129349147Y-129955054D01*
X129540000Y-129669422D01*
X129730853Y-129955054D01*
X130212622Y-130276961D01*
X130780907Y-130390000D01*
X130839093Y-130390000D01*
X131407378Y-130276961D01*
X131889147Y-129955054D01*
X132080000Y-129669422D01*
X132270853Y-129955054D01*
X132752622Y-130276961D01*
X133320907Y-130390000D01*
X133379093Y-130390000D01*
X133947378Y-130276961D01*
X134429147Y-129955054D01*
X134620000Y-129669422D01*
X134810853Y-129955054D01*
X135292622Y-130276961D01*
X135860907Y-130390000D01*
X135919093Y-130390000D01*
X136487378Y-130276961D01*
X136969147Y-129955054D01*
X137160000Y-129669422D01*
X137350853Y-129955054D01*
X137832622Y-130276961D01*
X138400907Y-130390000D01*
X138459093Y-130390000D01*
X139027378Y-130276961D01*
X139509147Y-129955054D01*
X139700000Y-129669422D01*
X139890853Y-129955054D01*
X140372622Y-130276961D01*
X140940907Y-130390000D01*
X140999093Y-130390000D01*
X141567378Y-130276961D01*
X142049147Y-129955054D01*
X142240000Y-129669422D01*
X142430853Y-129955054D01*
X142912622Y-130276961D01*
X143480907Y-130390000D01*
X143539093Y-130390000D01*
X144107378Y-130276961D01*
X144589147Y-129955054D01*
X144780000Y-129669422D01*
X144970853Y-129955054D01*
X145452622Y-130276961D01*
X146020907Y-130390000D01*
X146079093Y-130390000D01*
X146647378Y-130276961D01*
X147129147Y-129955054D01*
X147320000Y-129669422D01*
X147510853Y-129955054D01*
X147992622Y-130276961D01*
X148560907Y-130390000D01*
X148619093Y-130390000D01*
X149187378Y-130276961D01*
X149669147Y-129955054D01*
X149860000Y-129669422D01*
X150050853Y-129955054D01*
X150532622Y-130276961D01*
X151100907Y-130390000D01*
X151159093Y-130390000D01*
X151727378Y-130276961D01*
X152209147Y-129955054D01*
X152400000Y-129669422D01*
X152590853Y-129955054D01*
X153072622Y-130276961D01*
X153640907Y-130390000D01*
X153699093Y-130390000D01*
X154267378Y-130276961D01*
X154749147Y-129955054D01*
X154940000Y-129669422D01*
X155130853Y-129955054D01*
X155612622Y-130276961D01*
X156180907Y-130390000D01*
X156239093Y-130390000D01*
X156807378Y-130276961D01*
X157289147Y-129955054D01*
X157480000Y-129669422D01*
X157670853Y-129955054D01*
X158152622Y-130276961D01*
X158720907Y-130390000D01*
X158779093Y-130390000D01*
X159347378Y-130276961D01*
X159829147Y-129955054D01*
X160020000Y-129669422D01*
X160210853Y-129955054D01*
X160692622Y-130276961D01*
X161260907Y-130390000D01*
X161319093Y-130390000D01*
X161887378Y-130276961D01*
X162369147Y-129955054D01*
X162560000Y-129669422D01*
X162750853Y-129955054D01*
X163232622Y-130276961D01*
X163800907Y-130390000D01*
X163859093Y-130390000D01*
X164427378Y-130276961D01*
X164909147Y-129955054D01*
X165100000Y-129669422D01*
X165290853Y-129955054D01*
X165772622Y-130276961D01*
X166340907Y-130390000D01*
X166399093Y-130390000D01*
X166967378Y-130276961D01*
X167449147Y-129955054D01*
X167640000Y-129669422D01*
X167830853Y-129955054D01*
X168312622Y-130276961D01*
X168880907Y-130390000D01*
X168939093Y-130390000D01*
X169507378Y-130276961D01*
X169989147Y-129955054D01*
X170180000Y-129669422D01*
X170370853Y-129955054D01*
X170852622Y-130276961D01*
X171420907Y-130390000D01*
X171479093Y-130390000D01*
X172047378Y-130276961D01*
X172529147Y-129955054D01*
X172720000Y-129669422D01*
X172910853Y-129955054D01*
X173392622Y-130276961D01*
X173960907Y-130390000D01*
X174019093Y-130390000D01*
X174587378Y-130276961D01*
X175069147Y-129955054D01*
X175260000Y-129669422D01*
X175450853Y-129955054D01*
X175932622Y-130276961D01*
X176500907Y-130390000D01*
X176559093Y-130390000D01*
X177127378Y-130276961D01*
X177609147Y-129955054D01*
X177800000Y-129669422D01*
X177990853Y-129955054D01*
X178472622Y-130276961D01*
X179040907Y-130390000D01*
X179099093Y-130390000D01*
X179667378Y-130276961D01*
X180149147Y-129955054D01*
X180340000Y-129669422D01*
X180530853Y-129955054D01*
X181012622Y-130276961D01*
X181580907Y-130390000D01*
X181639093Y-130390000D01*
X182207378Y-130276961D01*
X182689147Y-129955054D01*
X182880000Y-129669422D01*
X183070853Y-129955054D01*
X183552622Y-130276961D01*
X184120907Y-130390000D01*
X184179093Y-130390000D01*
X184747378Y-130276961D01*
X185229147Y-129955054D01*
X185420000Y-129669422D01*
X185610853Y-129955054D01*
X186092622Y-130276961D01*
X186660907Y-130390000D01*
X186719093Y-130390000D01*
X187287378Y-130276961D01*
X187769147Y-129955054D01*
X187960000Y-129669422D01*
X188150853Y-129955054D01*
X188632622Y-130276961D01*
X189200907Y-130390000D01*
X189259093Y-130390000D01*
X189827378Y-130276961D01*
X190309147Y-129955054D01*
X190500000Y-129669422D01*
X190690853Y-129955054D01*
X191172622Y-130276961D01*
X191740907Y-130390000D01*
X191799093Y-130390000D01*
X192367378Y-130276961D01*
X192849147Y-129955054D01*
X193040000Y-129669422D01*
X193230853Y-129955054D01*
X193712622Y-130276961D01*
X194280907Y-130390000D01*
X194339093Y-130390000D01*
X194907378Y-130276961D01*
X195389147Y-129955054D01*
X195711054Y-129473285D01*
X195824093Y-128905000D01*
X195711054Y-128336715D01*
X195389147Y-127854946D01*
X195059974Y-127635000D01*
X195389147Y-127415054D01*
X195711054Y-126933285D01*
X195824093Y-126365000D01*
X195711054Y-125796715D01*
X195389147Y-125314946D01*
X195059974Y-125095000D01*
X195389147Y-124875054D01*
X195711054Y-124393285D01*
X195824093Y-123825000D01*
X195711054Y-123256715D01*
X195389147Y-122774946D01*
X195059974Y-122555000D01*
X195389147Y-122335054D01*
X195711054Y-121853285D01*
X195824093Y-121285000D01*
X195711054Y-120716715D01*
X195389147Y-120234946D01*
X195059974Y-120015000D01*
X195389147Y-119795054D01*
X195711054Y-119313285D01*
X195824093Y-118745000D01*
X195711054Y-118176715D01*
X195389147Y-117694946D01*
X195059974Y-117475000D01*
X195389147Y-117255054D01*
X195711054Y-116773285D01*
X195824093Y-116205000D01*
X195711054Y-115636715D01*
X195389147Y-115154946D01*
X195059974Y-114935000D01*
X195389147Y-114715054D01*
X195711054Y-114233285D01*
X195824093Y-113665000D01*
X195711054Y-113096715D01*
X195389147Y-112614946D01*
X195059974Y-112395000D01*
X195389147Y-112175054D01*
X195711054Y-111693285D01*
X195824093Y-111125000D01*
X195711054Y-110556715D01*
X195389147Y-110074946D01*
X195059974Y-109855000D01*
X195389147Y-109635054D01*
X195711054Y-109153285D01*
X195824093Y-108585000D01*
X195711054Y-108016715D01*
X195389147Y-107534946D01*
X195059974Y-107315000D01*
X195389147Y-107095054D01*
X195711054Y-106613285D01*
X195824093Y-106045000D01*
X195711054Y-105476715D01*
X195389147Y-104994946D01*
X195059974Y-104775000D01*
X195389147Y-104555054D01*
X195711054Y-104073285D01*
X195824093Y-103505000D01*
X195711054Y-102936715D01*
X195389147Y-102454946D01*
X195059974Y-102235000D01*
X195389147Y-102015054D01*
X195711054Y-101533285D01*
X195824093Y-100965000D01*
X195711054Y-100396715D01*
X195389147Y-99914946D01*
X195059974Y-99695000D01*
X195389147Y-99475054D01*
X195711054Y-98993285D01*
X195824093Y-98425000D01*
X195711054Y-97856715D01*
X195389147Y-97374946D01*
X195059974Y-97155000D01*
X195389147Y-96935054D01*
X195711054Y-96453285D01*
X195824093Y-95885000D01*
X195711054Y-95316715D01*
X195389147Y-94834946D01*
X195059974Y-94615000D01*
X195389147Y-94395054D01*
X195711054Y-93913285D01*
X195824093Y-93345000D01*
X195711054Y-92776715D01*
X195389147Y-92294946D01*
X195059974Y-92075000D01*
X195389147Y-91855054D01*
X195711054Y-91373285D01*
X195824093Y-90805000D01*
X195711054Y-90236715D01*
X195389147Y-89754946D01*
X195059974Y-89535000D01*
X195389147Y-89315054D01*
X195711054Y-88833285D01*
X195824093Y-88265000D01*
X195711054Y-87696715D01*
X195389147Y-87214946D01*
X195059974Y-86995000D01*
X195389147Y-86775054D01*
X195711054Y-86293285D01*
X195824093Y-85725000D01*
X195711054Y-85156715D01*
X195389147Y-84674946D01*
X195059974Y-84455000D01*
X195389147Y-84235054D01*
X195711054Y-83753285D01*
X195824093Y-83185000D01*
X195711054Y-82616715D01*
X195389147Y-82134946D01*
X195059974Y-81915000D01*
X195389147Y-81695054D01*
X195711054Y-81213285D01*
X195824093Y-80645000D01*
X195711054Y-80076715D01*
X195389147Y-79594946D01*
X195059974Y-79375000D01*
X195389147Y-79155054D01*
X195711054Y-78673285D01*
X195824093Y-78105000D01*
X195711054Y-77536715D01*
X195389147Y-77054946D01*
X195059974Y-76835000D01*
X195389147Y-76615054D01*
X195711054Y-76133285D01*
X195824093Y-75565000D01*
X195711054Y-74996715D01*
X195389147Y-74514946D01*
X195059974Y-74295000D01*
X195389147Y-74075054D01*
X195711054Y-73593285D01*
X195824093Y-73025000D01*
X195711054Y-72456715D01*
X195389147Y-71974946D01*
X195059974Y-71755000D01*
X195389147Y-71535054D01*
X195711054Y-71053285D01*
X195824093Y-70485000D01*
X195711054Y-69916715D01*
X195389147Y-69434946D01*
X195059974Y-69215000D01*
X195389147Y-68995054D01*
X195711054Y-68513285D01*
X195824093Y-67945000D01*
X195711054Y-67376715D01*
X195389147Y-66894946D01*
X195059974Y-66675000D01*
X195389147Y-66455054D01*
X195711054Y-65973285D01*
X195824093Y-65405000D01*
X195711054Y-64836715D01*
X195389147Y-64354946D01*
X195059974Y-64135000D01*
X195389147Y-63915054D01*
X195711054Y-63433285D01*
X195824093Y-62865000D01*
X195711054Y-62296715D01*
X195389147Y-61814946D01*
X195059974Y-61595000D01*
X195389147Y-61375054D01*
X195711054Y-60893285D01*
X195824093Y-60325000D01*
X195711054Y-59756715D01*
X195389147Y-59274946D01*
X195059974Y-59055000D01*
X195389147Y-58835054D01*
X195711054Y-58353285D01*
X195824093Y-57785000D01*
X195711054Y-57216715D01*
X195389147Y-56734946D01*
X195059974Y-56515000D01*
X195389147Y-56295054D01*
X195711054Y-55813285D01*
X195824093Y-55245000D01*
X195711054Y-54676715D01*
X195389147Y-54194946D01*
X195059974Y-53975000D01*
X195389147Y-53755054D01*
X195711054Y-53273285D01*
X195824093Y-52705000D01*
X195711054Y-52136715D01*
X195389147Y-51654946D01*
X195059974Y-51435000D01*
X195389147Y-51215054D01*
X195711054Y-50733285D01*
X195824093Y-50165000D01*
X195711054Y-49596715D01*
X195389147Y-49114946D01*
X195000183Y-48855049D01*
X195565854Y-48855543D01*
X196718515Y-48379273D01*
X197601174Y-47498153D01*
X198079454Y-46346326D01*
X198080543Y-45099146D01*
X197604273Y-43946485D01*
X196723153Y-43063826D01*
X195571326Y-42585546D01*
X194324146Y-42584457D01*
X193171485Y-43060727D01*
X192288826Y-43941847D01*
X191810546Y-45093674D01*
X191809457Y-46340854D01*
X192285727Y-47493515D01*
X193166847Y-48376174D01*
X194022384Y-48731424D01*
X193712622Y-48793039D01*
X193230853Y-49114946D01*
X193040000Y-49400578D01*
X192849147Y-49114946D01*
X192367378Y-48793039D01*
X191799093Y-48680000D01*
X191740907Y-48680000D01*
X191172622Y-48793039D01*
X190690853Y-49114946D01*
X190500000Y-49400578D01*
X190309147Y-49114946D01*
X189979974Y-48895000D01*
X190309147Y-48675054D01*
X190631054Y-48193285D01*
X190744093Y-47625000D01*
X190631054Y-47056715D01*
X190309147Y-46574946D01*
X189979974Y-46355000D01*
X190309147Y-46135054D01*
X190631054Y-45653285D01*
X190744093Y-45085000D01*
X190631054Y-44516715D01*
X190309147Y-44034946D01*
X189987980Y-43820350D01*
X189996924Y-43816645D01*
X190425183Y-43426358D01*
X190671486Y-42901892D01*
X190550819Y-42672000D01*
X189357000Y-42672000D01*
X189357000Y-42692000D01*
X189103000Y-42692000D01*
X189103000Y-42672000D01*
X186817000Y-42672000D01*
X186817000Y-42692000D01*
X186563000Y-42692000D01*
X186563000Y-42672000D01*
X184277000Y-42672000D01*
X184277000Y-42692000D01*
X184023000Y-42692000D01*
X184023000Y-42672000D01*
X181737000Y-42672000D01*
X181737000Y-42692000D01*
X181483000Y-42692000D01*
X181483000Y-42672000D01*
X179197000Y-42672000D01*
X179197000Y-42692000D01*
X178943000Y-42692000D01*
X178943000Y-42672000D01*
X176657000Y-42672000D01*
X176657000Y-42692000D01*
X176403000Y-42692000D01*
X176403000Y-42672000D01*
X174117000Y-42672000D01*
X174117000Y-42692000D01*
X173863000Y-42692000D01*
X173863000Y-42672000D01*
X171577000Y-42672000D01*
X171577000Y-42692000D01*
X171323000Y-42692000D01*
X171323000Y-42672000D01*
X169037000Y-42672000D01*
X169037000Y-42692000D01*
X168783000Y-42692000D01*
X168783000Y-42672000D01*
X166497000Y-42672000D01*
X166497000Y-42692000D01*
X166243000Y-42692000D01*
X166243000Y-42672000D01*
X163957000Y-42672000D01*
X163957000Y-42692000D01*
X163703000Y-42692000D01*
X163703000Y-42672000D01*
X161417000Y-42672000D01*
X161417000Y-42692000D01*
X161163000Y-42692000D01*
X161163000Y-42672000D01*
X158877000Y-42672000D01*
X158877000Y-42692000D01*
X158623000Y-42692000D01*
X158623000Y-42672000D01*
X156337000Y-42672000D01*
X156337000Y-42692000D01*
X156083000Y-42692000D01*
X156083000Y-42672000D01*
X153797000Y-42672000D01*
X153797000Y-42692000D01*
X153543000Y-42692000D01*
X153543000Y-42672000D01*
X151257000Y-42672000D01*
X151257000Y-42692000D01*
X151003000Y-42692000D01*
X151003000Y-42672000D01*
X148717000Y-42672000D01*
X148717000Y-42692000D01*
X148463000Y-42692000D01*
X148463000Y-42672000D01*
X146177000Y-42672000D01*
X146177000Y-42692000D01*
X145923000Y-42692000D01*
X145923000Y-42672000D01*
X143637000Y-42672000D01*
X143637000Y-42692000D01*
X143383000Y-42692000D01*
X143383000Y-42672000D01*
X141097000Y-42672000D01*
X141097000Y-42692000D01*
X140843000Y-42692000D01*
X140843000Y-42672000D01*
X138557000Y-42672000D01*
X138557000Y-42692000D01*
X138303000Y-42692000D01*
X138303000Y-42672000D01*
X136017000Y-42672000D01*
X136017000Y-42692000D01*
X135763000Y-42692000D01*
X135763000Y-42672000D01*
X133477000Y-42672000D01*
X133477000Y-42692000D01*
X133223000Y-42692000D01*
X133223000Y-42672000D01*
X130937000Y-42672000D01*
X130937000Y-42692000D01*
X130683000Y-42692000D01*
X130683000Y-42672000D01*
X128397000Y-42672000D01*
X128397000Y-42692000D01*
X128143000Y-42692000D01*
X128143000Y-42672000D01*
X125857000Y-42672000D01*
X125857000Y-42692000D01*
X125603000Y-42692000D01*
X125603000Y-42672000D01*
X123317000Y-42672000D01*
X123317000Y-42692000D01*
X123063000Y-42692000D01*
X123063000Y-42672000D01*
X120777000Y-42672000D01*
X120777000Y-42692000D01*
X120523000Y-42692000D01*
X120523000Y-42672000D01*
X118237000Y-42672000D01*
X118237000Y-42692000D01*
X117983000Y-42692000D01*
X117983000Y-42672000D01*
X115697000Y-42672000D01*
X115697000Y-42692000D01*
X115443000Y-42692000D01*
X115443000Y-42672000D01*
X113157000Y-42672000D01*
X113157000Y-42692000D01*
X112903000Y-42692000D01*
X112903000Y-42672000D01*
X110617000Y-42672000D01*
X110617000Y-42692000D01*
X110363000Y-42692000D01*
X110363000Y-42672000D01*
X109163750Y-42672000D01*
X109005000Y-42830750D01*
X109005000Y-43521309D01*
X109101673Y-43754698D01*
X109280301Y-43933327D01*
X109454777Y-44005597D01*
X109410853Y-44034946D01*
X109088946Y-44516715D01*
X108975907Y-45085000D01*
X109088946Y-45653285D01*
X109410853Y-46135054D01*
X109740026Y-46355000D01*
X109410853Y-46574946D01*
X109088946Y-47056715D01*
X108975907Y-47625000D01*
X109088946Y-48193285D01*
X109410853Y-48675054D01*
X109740026Y-48895000D01*
X109410853Y-49114946D01*
X109220000Y-49400578D01*
X109029147Y-49114946D01*
X108547378Y-48793039D01*
X107979093Y-48680000D01*
X107920907Y-48680000D01*
X107352622Y-48793039D01*
X106870853Y-49114946D01*
X106680000Y-49400578D01*
X106489147Y-49114946D01*
X106007378Y-48793039D01*
X105696691Y-48731240D01*
X106548515Y-48379273D01*
X107431174Y-47498153D01*
X107909454Y-46346326D01*
X107910543Y-45099146D01*
X107434273Y-43946485D01*
X106553153Y-43063826D01*
X105401326Y-42585546D01*
X104154146Y-42584457D01*
X103001485Y-43060727D01*
X102118826Y-43941847D01*
X101640546Y-45093674D01*
X101639457Y-46340854D01*
X101040000Y-46340854D01*
X101040000Y-45789931D01*
X101337161Y-44295999D01*
X102143791Y-43088791D01*
X103351001Y-42282161D01*
X104844931Y-41985000D01*
X109005000Y-41985000D01*
X109005000Y-42259250D01*
M02*
