G04 #@! TF.FileFunction,Soldermask,Bot*
%FSLAX46Y46*%
G04 Gerber Fmt 4.6, Leading zero omitted, Abs format (unit mm)*
G04 Created by KiCad (PCBNEW 4.0.7) date 02/09/19 17:10:25*
%MOMM*%
%LPD*%
G01*
G04 APERTURE LIST*
%ADD10C,0.100000*%
%ADD11R,2.100000X2.100000*%
%ADD12O,2.100000X2.100000*%
%ADD13C,5.400000*%
G04 APERTURE END LIST*
D10*
D11*
X110490000Y-42545000D03*
D12*
X113030000Y-42545000D03*
X115570000Y-42545000D03*
X118110000Y-42545000D03*
X120650000Y-42545000D03*
X123190000Y-42545000D03*
X125730000Y-42545000D03*
X128270000Y-42545000D03*
X130810000Y-42545000D03*
X133350000Y-42545000D03*
X135890000Y-42545000D03*
X138430000Y-42545000D03*
X140970000Y-42545000D03*
X143510000Y-42545000D03*
X146050000Y-42545000D03*
X148590000Y-42545000D03*
X151130000Y-42545000D03*
X153670000Y-42545000D03*
X156210000Y-42545000D03*
X158750000Y-42545000D03*
X161290000Y-42545000D03*
X163830000Y-42545000D03*
X166370000Y-42545000D03*
X168910000Y-42545000D03*
X171450000Y-42545000D03*
X173990000Y-42545000D03*
X176530000Y-42545000D03*
X179070000Y-42545000D03*
X181610000Y-42545000D03*
X184150000Y-42545000D03*
X186690000Y-42545000D03*
X189230000Y-42545000D03*
D11*
X198120000Y-139700000D03*
D12*
X195580000Y-139700000D03*
X193040000Y-139700000D03*
X190500000Y-139700000D03*
X187960000Y-139700000D03*
X185420000Y-139700000D03*
X182880000Y-139700000D03*
X180340000Y-139700000D03*
X177800000Y-139700000D03*
X175260000Y-139700000D03*
X172720000Y-139700000D03*
X170180000Y-139700000D03*
X167640000Y-139700000D03*
X165100000Y-139700000D03*
X162560000Y-139700000D03*
X160020000Y-139700000D03*
X157480000Y-139700000D03*
X154940000Y-139700000D03*
X152400000Y-139700000D03*
X149860000Y-139700000D03*
X147320000Y-139700000D03*
X144780000Y-139700000D03*
X142240000Y-139700000D03*
X139700000Y-139700000D03*
X137160000Y-139700000D03*
X134620000Y-139700000D03*
X132080000Y-139700000D03*
X129540000Y-139700000D03*
X127000000Y-139700000D03*
X124460000Y-139700000D03*
X121920000Y-139700000D03*
X119380000Y-139700000D03*
X116840000Y-139700000D03*
X114300000Y-139700000D03*
X111760000Y-139700000D03*
X109220000Y-139700000D03*
X106680000Y-139700000D03*
X104140000Y-139700000D03*
X101600000Y-139700000D03*
D13*
X194945000Y-45720000D03*
X104775000Y-45720000D03*
D11*
X198120000Y-50165000D03*
D12*
X198120000Y-52705000D03*
X198120000Y-55245000D03*
X198120000Y-57785000D03*
X198120000Y-60325000D03*
X198120000Y-62865000D03*
X198120000Y-65405000D03*
X198120000Y-67945000D03*
X198120000Y-70485000D03*
X198120000Y-73025000D03*
X198120000Y-75565000D03*
X198120000Y-78105000D03*
X198120000Y-80645000D03*
X198120000Y-83185000D03*
X198120000Y-85725000D03*
X198120000Y-88265000D03*
X198120000Y-90805000D03*
X198120000Y-93345000D03*
X198120000Y-95885000D03*
X198120000Y-98425000D03*
X198120000Y-100965000D03*
X198120000Y-103505000D03*
X198120000Y-106045000D03*
X198120000Y-108585000D03*
X198120000Y-111125000D03*
X198120000Y-113665000D03*
X198120000Y-116205000D03*
X198120000Y-118745000D03*
X198120000Y-121285000D03*
X198120000Y-123825000D03*
X198120000Y-126365000D03*
X198120000Y-128905000D03*
D11*
X101600000Y-50165000D03*
D12*
X101600000Y-52705000D03*
X101600000Y-55245000D03*
X101600000Y-57785000D03*
X101600000Y-60325000D03*
X101600000Y-62865000D03*
X101600000Y-65405000D03*
X101600000Y-67945000D03*
X101600000Y-70485000D03*
X101600000Y-73025000D03*
X101600000Y-75565000D03*
X101600000Y-78105000D03*
X101600000Y-80645000D03*
X101600000Y-83185000D03*
X101600000Y-85725000D03*
X101600000Y-88265000D03*
X101600000Y-90805000D03*
X101600000Y-93345000D03*
X101600000Y-95885000D03*
X101600000Y-98425000D03*
X101600000Y-100965000D03*
X101600000Y-103505000D03*
X101600000Y-106045000D03*
X101600000Y-108585000D03*
X101600000Y-111125000D03*
X101600000Y-113665000D03*
X101600000Y-116205000D03*
X101600000Y-118745000D03*
X101600000Y-121285000D03*
X101600000Y-123825000D03*
X101600000Y-126365000D03*
X101600000Y-128905000D03*
X107950000Y-50165000D03*
X107950000Y-52705000D03*
X107950000Y-55245000D03*
X107950000Y-57785000D03*
X107950000Y-60325000D03*
X107950000Y-62865000D03*
X107950000Y-65405000D03*
X107950000Y-67945000D03*
X107950000Y-70485000D03*
X107950000Y-73025000D03*
X107950000Y-75565000D03*
X107950000Y-78105000D03*
X107950000Y-80645000D03*
X107950000Y-83185000D03*
X107950000Y-85725000D03*
X107950000Y-88265000D03*
X107950000Y-90805000D03*
X107950000Y-93345000D03*
X107950000Y-95885000D03*
X107950000Y-98425000D03*
X107950000Y-100965000D03*
X107950000Y-103505000D03*
X107950000Y-106045000D03*
X107950000Y-108585000D03*
X107950000Y-111125000D03*
X107950000Y-113665000D03*
X107950000Y-116205000D03*
X107950000Y-118745000D03*
X107950000Y-121285000D03*
X107950000Y-123825000D03*
X107950000Y-126365000D03*
X107950000Y-128905000D03*
X110490000Y-45085000D03*
X110490000Y-47625000D03*
X110490000Y-50165000D03*
X110490000Y-52705000D03*
X110490000Y-55245000D03*
X110490000Y-57785000D03*
X110490000Y-60325000D03*
X110490000Y-62865000D03*
X110490000Y-65405000D03*
X110490000Y-67945000D03*
X110490000Y-70485000D03*
X110490000Y-73025000D03*
X110490000Y-75565000D03*
X110490000Y-78105000D03*
X110490000Y-80645000D03*
X110490000Y-83185000D03*
X110490000Y-85725000D03*
X110490000Y-88265000D03*
X110490000Y-90805000D03*
X110490000Y-93345000D03*
X110490000Y-95885000D03*
X110490000Y-98425000D03*
X110490000Y-100965000D03*
X110490000Y-103505000D03*
X110490000Y-106045000D03*
X110490000Y-108585000D03*
X110490000Y-111125000D03*
X110490000Y-113665000D03*
X110490000Y-116205000D03*
X110490000Y-118745000D03*
X110490000Y-121285000D03*
X110490000Y-123825000D03*
X110490000Y-126365000D03*
X110490000Y-128905000D03*
X105410000Y-50165000D03*
X105410000Y-52705000D03*
X105410000Y-55245000D03*
X105410000Y-57785000D03*
X105410000Y-60325000D03*
X105410000Y-62865000D03*
X105410000Y-65405000D03*
X105410000Y-67945000D03*
X105410000Y-70485000D03*
X105410000Y-73025000D03*
X105410000Y-75565000D03*
X105410000Y-78105000D03*
X105410000Y-80645000D03*
X105410000Y-83185000D03*
X105410000Y-85725000D03*
X105410000Y-88265000D03*
X105410000Y-90805000D03*
X105410000Y-93345000D03*
X105410000Y-95885000D03*
X105410000Y-98425000D03*
X105410000Y-100965000D03*
X105410000Y-103505000D03*
X105410000Y-106045000D03*
X105410000Y-108585000D03*
X105410000Y-111125000D03*
X105410000Y-113665000D03*
X105410000Y-116205000D03*
X105410000Y-118745000D03*
X105410000Y-121285000D03*
X105410000Y-123825000D03*
X105410000Y-126365000D03*
X105410000Y-128905000D03*
X194310000Y-50165000D03*
X194310000Y-52705000D03*
X194310000Y-55245000D03*
X194310000Y-57785000D03*
X194310000Y-60325000D03*
X194310000Y-62865000D03*
X194310000Y-65405000D03*
X194310000Y-67945000D03*
X194310000Y-70485000D03*
X194310000Y-73025000D03*
X194310000Y-75565000D03*
X194310000Y-78105000D03*
X194310000Y-80645000D03*
X194310000Y-83185000D03*
X194310000Y-85725000D03*
X194310000Y-88265000D03*
X194310000Y-90805000D03*
X194310000Y-93345000D03*
X194310000Y-95885000D03*
X194310000Y-98425000D03*
X194310000Y-100965000D03*
X194310000Y-103505000D03*
X194310000Y-106045000D03*
X194310000Y-108585000D03*
X194310000Y-111125000D03*
X194310000Y-113665000D03*
X194310000Y-116205000D03*
X194310000Y-118745000D03*
X194310000Y-121285000D03*
X194310000Y-123825000D03*
X194310000Y-126365000D03*
X194310000Y-128905000D03*
X191770000Y-50165000D03*
X191770000Y-52705000D03*
X191770000Y-55245000D03*
X191770000Y-57785000D03*
X191770000Y-60325000D03*
X191770000Y-62865000D03*
X191770000Y-65405000D03*
X191770000Y-67945000D03*
X191770000Y-70485000D03*
X191770000Y-73025000D03*
X191770000Y-75565000D03*
X191770000Y-78105000D03*
X191770000Y-80645000D03*
X191770000Y-83185000D03*
X191770000Y-85725000D03*
X191770000Y-88265000D03*
X191770000Y-90805000D03*
X191770000Y-93345000D03*
X191770000Y-95885000D03*
X191770000Y-98425000D03*
X191770000Y-100965000D03*
X191770000Y-103505000D03*
X191770000Y-106045000D03*
X191770000Y-108585000D03*
X191770000Y-111125000D03*
X191770000Y-113665000D03*
X191770000Y-116205000D03*
X191770000Y-118745000D03*
X191770000Y-121285000D03*
X191770000Y-123825000D03*
X191770000Y-126365000D03*
X191770000Y-128905000D03*
X113030000Y-45085000D03*
X113030000Y-47625000D03*
X113030000Y-50165000D03*
X113030000Y-52705000D03*
X113030000Y-55245000D03*
X113030000Y-57785000D03*
X113030000Y-60325000D03*
X113030000Y-62865000D03*
X113030000Y-65405000D03*
X113030000Y-67945000D03*
X113030000Y-70485000D03*
X113030000Y-73025000D03*
X113030000Y-75565000D03*
X113030000Y-78105000D03*
X113030000Y-80645000D03*
X113030000Y-83185000D03*
X113030000Y-85725000D03*
X113030000Y-88265000D03*
X113030000Y-90805000D03*
X113030000Y-93345000D03*
X113030000Y-95885000D03*
X113030000Y-98425000D03*
X113030000Y-100965000D03*
X113030000Y-103505000D03*
X113030000Y-106045000D03*
X113030000Y-108585000D03*
X113030000Y-111125000D03*
X113030000Y-113665000D03*
X113030000Y-116205000D03*
X113030000Y-118745000D03*
X113030000Y-121285000D03*
X113030000Y-123825000D03*
X113030000Y-126365000D03*
X113030000Y-128905000D03*
X115570000Y-45085000D03*
X115570000Y-47625000D03*
X115570000Y-50165000D03*
X115570000Y-52705000D03*
X115570000Y-55245000D03*
X115570000Y-57785000D03*
X115570000Y-60325000D03*
X115570000Y-62865000D03*
X115570000Y-65405000D03*
X115570000Y-67945000D03*
X115570000Y-70485000D03*
X115570000Y-73025000D03*
X115570000Y-75565000D03*
X115570000Y-78105000D03*
X115570000Y-80645000D03*
X115570000Y-83185000D03*
X115570000Y-85725000D03*
X115570000Y-88265000D03*
X115570000Y-90805000D03*
X115570000Y-93345000D03*
X115570000Y-95885000D03*
X115570000Y-98425000D03*
X115570000Y-100965000D03*
X115570000Y-103505000D03*
X115570000Y-106045000D03*
X115570000Y-108585000D03*
X115570000Y-111125000D03*
X115570000Y-113665000D03*
X115570000Y-116205000D03*
X115570000Y-118745000D03*
X115570000Y-121285000D03*
X115570000Y-123825000D03*
X115570000Y-126365000D03*
X115570000Y-128905000D03*
X118110000Y-45085000D03*
X118110000Y-47625000D03*
X118110000Y-50165000D03*
X118110000Y-52705000D03*
X118110000Y-55245000D03*
X118110000Y-57785000D03*
X118110000Y-60325000D03*
X118110000Y-62865000D03*
X118110000Y-65405000D03*
X118110000Y-67945000D03*
X118110000Y-70485000D03*
X118110000Y-73025000D03*
X118110000Y-75565000D03*
X118110000Y-78105000D03*
X118110000Y-80645000D03*
X118110000Y-83185000D03*
X118110000Y-85725000D03*
X118110000Y-88265000D03*
X118110000Y-90805000D03*
X118110000Y-93345000D03*
X118110000Y-95885000D03*
X118110000Y-98425000D03*
X118110000Y-100965000D03*
X118110000Y-103505000D03*
X118110000Y-106045000D03*
X118110000Y-108585000D03*
X118110000Y-111125000D03*
X118110000Y-113665000D03*
X118110000Y-116205000D03*
X118110000Y-118745000D03*
X118110000Y-121285000D03*
X118110000Y-123825000D03*
X118110000Y-126365000D03*
X118110000Y-128905000D03*
X120650000Y-45085000D03*
X120650000Y-47625000D03*
X120650000Y-50165000D03*
X120650000Y-52705000D03*
X120650000Y-55245000D03*
X120650000Y-57785000D03*
X120650000Y-60325000D03*
X120650000Y-62865000D03*
X120650000Y-65405000D03*
X120650000Y-67945000D03*
X120650000Y-70485000D03*
X120650000Y-73025000D03*
X120650000Y-75565000D03*
X120650000Y-78105000D03*
X120650000Y-80645000D03*
X120650000Y-83185000D03*
X120650000Y-85725000D03*
X120650000Y-88265000D03*
X120650000Y-90805000D03*
X120650000Y-93345000D03*
X120650000Y-95885000D03*
X120650000Y-98425000D03*
X120650000Y-100965000D03*
X120650000Y-103505000D03*
X120650000Y-106045000D03*
X120650000Y-108585000D03*
X120650000Y-111125000D03*
X120650000Y-113665000D03*
X120650000Y-116205000D03*
X120650000Y-118745000D03*
X120650000Y-121285000D03*
X120650000Y-123825000D03*
X120650000Y-126365000D03*
X120650000Y-128905000D03*
X123190000Y-45085000D03*
X123190000Y-47625000D03*
X123190000Y-50165000D03*
X123190000Y-52705000D03*
X123190000Y-55245000D03*
X123190000Y-57785000D03*
X123190000Y-60325000D03*
X123190000Y-62865000D03*
X123190000Y-65405000D03*
X123190000Y-67945000D03*
X123190000Y-70485000D03*
X123190000Y-73025000D03*
X123190000Y-75565000D03*
X123190000Y-78105000D03*
X123190000Y-80645000D03*
X123190000Y-83185000D03*
X123190000Y-85725000D03*
X123190000Y-88265000D03*
X123190000Y-90805000D03*
X123190000Y-93345000D03*
X123190000Y-95885000D03*
X123190000Y-98425000D03*
X123190000Y-100965000D03*
X123190000Y-103505000D03*
X123190000Y-106045000D03*
X123190000Y-108585000D03*
X123190000Y-111125000D03*
X123190000Y-113665000D03*
X123190000Y-116205000D03*
X123190000Y-118745000D03*
X123190000Y-121285000D03*
X123190000Y-123825000D03*
X123190000Y-126365000D03*
X123190000Y-128905000D03*
X125730000Y-45085000D03*
X125730000Y-47625000D03*
X125730000Y-50165000D03*
X125730000Y-52705000D03*
X125730000Y-55245000D03*
X125730000Y-57785000D03*
X125730000Y-60325000D03*
X125730000Y-62865000D03*
X125730000Y-65405000D03*
X125730000Y-67945000D03*
X125730000Y-70485000D03*
X125730000Y-73025000D03*
X125730000Y-75565000D03*
X125730000Y-78105000D03*
X125730000Y-80645000D03*
X125730000Y-83185000D03*
X125730000Y-85725000D03*
X125730000Y-88265000D03*
X125730000Y-90805000D03*
X125730000Y-93345000D03*
X125730000Y-95885000D03*
X125730000Y-98425000D03*
X125730000Y-100965000D03*
X125730000Y-103505000D03*
X125730000Y-106045000D03*
X125730000Y-108585000D03*
X125730000Y-111125000D03*
X125730000Y-113665000D03*
X125730000Y-116205000D03*
X125730000Y-118745000D03*
X125730000Y-121285000D03*
X125730000Y-123825000D03*
X125730000Y-126365000D03*
X125730000Y-128905000D03*
X128270000Y-45085000D03*
X128270000Y-47625000D03*
X128270000Y-50165000D03*
X128270000Y-52705000D03*
X128270000Y-55245000D03*
X128270000Y-57785000D03*
X128270000Y-60325000D03*
X128270000Y-62865000D03*
X128270000Y-65405000D03*
X128270000Y-67945000D03*
X128270000Y-70485000D03*
X128270000Y-73025000D03*
X128270000Y-75565000D03*
X128270000Y-78105000D03*
X128270000Y-80645000D03*
X128270000Y-83185000D03*
X128270000Y-85725000D03*
X128270000Y-88265000D03*
X128270000Y-90805000D03*
X128270000Y-93345000D03*
X128270000Y-95885000D03*
X128270000Y-98425000D03*
X128270000Y-100965000D03*
X128270000Y-103505000D03*
X128270000Y-106045000D03*
X128270000Y-108585000D03*
X128270000Y-111125000D03*
X128270000Y-113665000D03*
X128270000Y-116205000D03*
X128270000Y-118745000D03*
X128270000Y-121285000D03*
X128270000Y-123825000D03*
X128270000Y-126365000D03*
X128270000Y-128905000D03*
X130810000Y-45085000D03*
X130810000Y-47625000D03*
X130810000Y-50165000D03*
X130810000Y-52705000D03*
X130810000Y-55245000D03*
X130810000Y-57785000D03*
X130810000Y-60325000D03*
X130810000Y-62865000D03*
X130810000Y-65405000D03*
X130810000Y-67945000D03*
X130810000Y-70485000D03*
X130810000Y-73025000D03*
X130810000Y-75565000D03*
X130810000Y-78105000D03*
X130810000Y-80645000D03*
X130810000Y-83185000D03*
X130810000Y-85725000D03*
X130810000Y-88265000D03*
X130810000Y-90805000D03*
X130810000Y-93345000D03*
X130810000Y-95885000D03*
X130810000Y-98425000D03*
X130810000Y-100965000D03*
X130810000Y-103505000D03*
X130810000Y-106045000D03*
X130810000Y-108585000D03*
X130810000Y-111125000D03*
X130810000Y-113665000D03*
X130810000Y-116205000D03*
X130810000Y-118745000D03*
X130810000Y-121285000D03*
X130810000Y-123825000D03*
X130810000Y-126365000D03*
X130810000Y-128905000D03*
X133350000Y-45085000D03*
X133350000Y-47625000D03*
X133350000Y-50165000D03*
X133350000Y-52705000D03*
X133350000Y-55245000D03*
X133350000Y-57785000D03*
X133350000Y-60325000D03*
X133350000Y-62865000D03*
X133350000Y-65405000D03*
X133350000Y-67945000D03*
X133350000Y-70485000D03*
X133350000Y-73025000D03*
X133350000Y-75565000D03*
X133350000Y-78105000D03*
X133350000Y-80645000D03*
X133350000Y-83185000D03*
X133350000Y-85725000D03*
X133350000Y-88265000D03*
X133350000Y-90805000D03*
X133350000Y-93345000D03*
X133350000Y-95885000D03*
X133350000Y-98425000D03*
X133350000Y-100965000D03*
X133350000Y-103505000D03*
X133350000Y-106045000D03*
X133350000Y-108585000D03*
X133350000Y-111125000D03*
X133350000Y-113665000D03*
X133350000Y-116205000D03*
X133350000Y-118745000D03*
X133350000Y-121285000D03*
X133350000Y-123825000D03*
X133350000Y-126365000D03*
X133350000Y-128905000D03*
X135890000Y-45085000D03*
X135890000Y-47625000D03*
X135890000Y-50165000D03*
X135890000Y-52705000D03*
X135890000Y-55245000D03*
X135890000Y-57785000D03*
X135890000Y-60325000D03*
X135890000Y-62865000D03*
X135890000Y-65405000D03*
X135890000Y-67945000D03*
X135890000Y-70485000D03*
X135890000Y-73025000D03*
X135890000Y-75565000D03*
X135890000Y-78105000D03*
X135890000Y-80645000D03*
X135890000Y-83185000D03*
X135890000Y-85725000D03*
X135890000Y-88265000D03*
X135890000Y-90805000D03*
X135890000Y-93345000D03*
X135890000Y-95885000D03*
X135890000Y-98425000D03*
X135890000Y-100965000D03*
X135890000Y-103505000D03*
X135890000Y-106045000D03*
X135890000Y-108585000D03*
X135890000Y-111125000D03*
X135890000Y-113665000D03*
X135890000Y-116205000D03*
X135890000Y-118745000D03*
X135890000Y-121285000D03*
X135890000Y-123825000D03*
X135890000Y-126365000D03*
X135890000Y-128905000D03*
X138430000Y-45085000D03*
X138430000Y-47625000D03*
X138430000Y-50165000D03*
X138430000Y-52705000D03*
X138430000Y-55245000D03*
X138430000Y-57785000D03*
X138430000Y-60325000D03*
X138430000Y-62865000D03*
X138430000Y-65405000D03*
X138430000Y-67945000D03*
X138430000Y-70485000D03*
X138430000Y-73025000D03*
X138430000Y-75565000D03*
X138430000Y-78105000D03*
X138430000Y-80645000D03*
X138430000Y-83185000D03*
X138430000Y-85725000D03*
X138430000Y-88265000D03*
X138430000Y-90805000D03*
X138430000Y-93345000D03*
X138430000Y-95885000D03*
X138430000Y-98425000D03*
X138430000Y-100965000D03*
X138430000Y-103505000D03*
X138430000Y-106045000D03*
X138430000Y-108585000D03*
X138430000Y-111125000D03*
X138430000Y-113665000D03*
X138430000Y-116205000D03*
X138430000Y-118745000D03*
X138430000Y-121285000D03*
X138430000Y-123825000D03*
X138430000Y-126365000D03*
X138430000Y-128905000D03*
X140970000Y-45085000D03*
X140970000Y-47625000D03*
X140970000Y-50165000D03*
X140970000Y-52705000D03*
X140970000Y-55245000D03*
X140970000Y-57785000D03*
X140970000Y-60325000D03*
X140970000Y-62865000D03*
X140970000Y-65405000D03*
X140970000Y-67945000D03*
X140970000Y-70485000D03*
X140970000Y-73025000D03*
X140970000Y-75565000D03*
X140970000Y-78105000D03*
X140970000Y-80645000D03*
X140970000Y-83185000D03*
X140970000Y-85725000D03*
X140970000Y-88265000D03*
X140970000Y-90805000D03*
X140970000Y-93345000D03*
X140970000Y-95885000D03*
X140970000Y-98425000D03*
X140970000Y-100965000D03*
X140970000Y-103505000D03*
X140970000Y-106045000D03*
X140970000Y-108585000D03*
X140970000Y-111125000D03*
X140970000Y-113665000D03*
X140970000Y-116205000D03*
X140970000Y-118745000D03*
X140970000Y-121285000D03*
X140970000Y-123825000D03*
X140970000Y-126365000D03*
X140970000Y-128905000D03*
X143510000Y-45085000D03*
X143510000Y-47625000D03*
X143510000Y-50165000D03*
X143510000Y-52705000D03*
X143510000Y-55245000D03*
X143510000Y-57785000D03*
X143510000Y-60325000D03*
X143510000Y-62865000D03*
X143510000Y-65405000D03*
X143510000Y-67945000D03*
X143510000Y-70485000D03*
X143510000Y-73025000D03*
X143510000Y-75565000D03*
X143510000Y-78105000D03*
X143510000Y-80645000D03*
X143510000Y-83185000D03*
X143510000Y-85725000D03*
X143510000Y-88265000D03*
X143510000Y-90805000D03*
X143510000Y-93345000D03*
X143510000Y-95885000D03*
X143510000Y-98425000D03*
X143510000Y-100965000D03*
X143510000Y-103505000D03*
X143510000Y-106045000D03*
X143510000Y-108585000D03*
X143510000Y-111125000D03*
X143510000Y-113665000D03*
X143510000Y-116205000D03*
X143510000Y-118745000D03*
X143510000Y-121285000D03*
X143510000Y-123825000D03*
X143510000Y-126365000D03*
X143510000Y-128905000D03*
X146050000Y-45085000D03*
X146050000Y-47625000D03*
X146050000Y-50165000D03*
X146050000Y-52705000D03*
X146050000Y-55245000D03*
X146050000Y-57785000D03*
X146050000Y-60325000D03*
X146050000Y-62865000D03*
X146050000Y-65405000D03*
X146050000Y-67945000D03*
X146050000Y-70485000D03*
X146050000Y-73025000D03*
X146050000Y-75565000D03*
X146050000Y-78105000D03*
X146050000Y-80645000D03*
X146050000Y-83185000D03*
X146050000Y-85725000D03*
X146050000Y-88265000D03*
X146050000Y-90805000D03*
X146050000Y-93345000D03*
X146050000Y-95885000D03*
X146050000Y-98425000D03*
X146050000Y-100965000D03*
X146050000Y-103505000D03*
X146050000Y-106045000D03*
X146050000Y-108585000D03*
X146050000Y-111125000D03*
X146050000Y-113665000D03*
X146050000Y-116205000D03*
X146050000Y-118745000D03*
X146050000Y-121285000D03*
X146050000Y-123825000D03*
X146050000Y-126365000D03*
X146050000Y-128905000D03*
X148590000Y-45085000D03*
X148590000Y-47625000D03*
X148590000Y-50165000D03*
X148590000Y-52705000D03*
X148590000Y-55245000D03*
X148590000Y-57785000D03*
X148590000Y-60325000D03*
X148590000Y-62865000D03*
X148590000Y-65405000D03*
X148590000Y-67945000D03*
X148590000Y-70485000D03*
X148590000Y-73025000D03*
X148590000Y-75565000D03*
X148590000Y-78105000D03*
X148590000Y-80645000D03*
X148590000Y-83185000D03*
X148590000Y-85725000D03*
X148590000Y-88265000D03*
X148590000Y-90805000D03*
X148590000Y-93345000D03*
X148590000Y-95885000D03*
X148590000Y-98425000D03*
X148590000Y-100965000D03*
X148590000Y-103505000D03*
X148590000Y-106045000D03*
X148590000Y-108585000D03*
X148590000Y-111125000D03*
X148590000Y-113665000D03*
X148590000Y-116205000D03*
X148590000Y-118745000D03*
X148590000Y-121285000D03*
X148590000Y-123825000D03*
X148590000Y-126365000D03*
X148590000Y-128905000D03*
X151130000Y-45085000D03*
X151130000Y-47625000D03*
X151130000Y-50165000D03*
X151130000Y-52705000D03*
X151130000Y-55245000D03*
X151130000Y-57785000D03*
X151130000Y-60325000D03*
X151130000Y-62865000D03*
X151130000Y-65405000D03*
X151130000Y-67945000D03*
X151130000Y-70485000D03*
X151130000Y-73025000D03*
X151130000Y-75565000D03*
X151130000Y-78105000D03*
X151130000Y-80645000D03*
X151130000Y-83185000D03*
X151130000Y-85725000D03*
X151130000Y-88265000D03*
X151130000Y-90805000D03*
X151130000Y-93345000D03*
X151130000Y-95885000D03*
X151130000Y-98425000D03*
X151130000Y-100965000D03*
X151130000Y-103505000D03*
X151130000Y-106045000D03*
X151130000Y-108585000D03*
X151130000Y-111125000D03*
X151130000Y-113665000D03*
X151130000Y-116205000D03*
X151130000Y-118745000D03*
X151130000Y-121285000D03*
X151130000Y-123825000D03*
X151130000Y-126365000D03*
X151130000Y-128905000D03*
X153670000Y-45085000D03*
X153670000Y-47625000D03*
X153670000Y-50165000D03*
X153670000Y-52705000D03*
X153670000Y-55245000D03*
X153670000Y-57785000D03*
X153670000Y-60325000D03*
X153670000Y-62865000D03*
X153670000Y-65405000D03*
X153670000Y-67945000D03*
X153670000Y-70485000D03*
X153670000Y-73025000D03*
X153670000Y-75565000D03*
X153670000Y-78105000D03*
X153670000Y-80645000D03*
X153670000Y-83185000D03*
X153670000Y-85725000D03*
X153670000Y-88265000D03*
X153670000Y-90805000D03*
X153670000Y-93345000D03*
X153670000Y-95885000D03*
X153670000Y-98425000D03*
X153670000Y-100965000D03*
X153670000Y-103505000D03*
X153670000Y-106045000D03*
X153670000Y-108585000D03*
X153670000Y-111125000D03*
X153670000Y-113665000D03*
X153670000Y-116205000D03*
X153670000Y-118745000D03*
X153670000Y-121285000D03*
X153670000Y-123825000D03*
X153670000Y-126365000D03*
X153670000Y-128905000D03*
X156210000Y-45085000D03*
X156210000Y-47625000D03*
X156210000Y-50165000D03*
X156210000Y-52705000D03*
X156210000Y-55245000D03*
X156210000Y-57785000D03*
X156210000Y-60325000D03*
X156210000Y-62865000D03*
X156210000Y-65405000D03*
X156210000Y-67945000D03*
X156210000Y-70485000D03*
X156210000Y-73025000D03*
X156210000Y-75565000D03*
X156210000Y-78105000D03*
X156210000Y-80645000D03*
X156210000Y-83185000D03*
X156210000Y-85725000D03*
X156210000Y-88265000D03*
X156210000Y-90805000D03*
X156210000Y-93345000D03*
X156210000Y-95885000D03*
X156210000Y-98425000D03*
X156210000Y-100965000D03*
X156210000Y-103505000D03*
X156210000Y-106045000D03*
X156210000Y-108585000D03*
X156210000Y-111125000D03*
X156210000Y-113665000D03*
X156210000Y-116205000D03*
X156210000Y-118745000D03*
X156210000Y-121285000D03*
X156210000Y-123825000D03*
X156210000Y-126365000D03*
X156210000Y-128905000D03*
X158750000Y-45085000D03*
X158750000Y-47625000D03*
X158750000Y-50165000D03*
X158750000Y-52705000D03*
X158750000Y-55245000D03*
X158750000Y-57785000D03*
X158750000Y-60325000D03*
X158750000Y-62865000D03*
X158750000Y-65405000D03*
X158750000Y-67945000D03*
X158750000Y-70485000D03*
X158750000Y-73025000D03*
X158750000Y-75565000D03*
X158750000Y-78105000D03*
X158750000Y-80645000D03*
X158750000Y-83185000D03*
X158750000Y-85725000D03*
X158750000Y-88265000D03*
X158750000Y-90805000D03*
X158750000Y-93345000D03*
X158750000Y-95885000D03*
X158750000Y-98425000D03*
X158750000Y-100965000D03*
X158750000Y-103505000D03*
X158750000Y-106045000D03*
X158750000Y-108585000D03*
X158750000Y-111125000D03*
X158750000Y-113665000D03*
X158750000Y-116205000D03*
X158750000Y-118745000D03*
X158750000Y-121285000D03*
X158750000Y-123825000D03*
X158750000Y-126365000D03*
X158750000Y-128905000D03*
X161290000Y-45085000D03*
X161290000Y-47625000D03*
X161290000Y-50165000D03*
X161290000Y-52705000D03*
X161290000Y-55245000D03*
X161290000Y-57785000D03*
X161290000Y-60325000D03*
X161290000Y-62865000D03*
X161290000Y-65405000D03*
X161290000Y-67945000D03*
X161290000Y-70485000D03*
X161290000Y-73025000D03*
X161290000Y-75565000D03*
X161290000Y-78105000D03*
X161290000Y-80645000D03*
X161290000Y-83185000D03*
X161290000Y-85725000D03*
X161290000Y-88265000D03*
X161290000Y-90805000D03*
X161290000Y-93345000D03*
X161290000Y-95885000D03*
X161290000Y-98425000D03*
X161290000Y-100965000D03*
X161290000Y-103505000D03*
X161290000Y-106045000D03*
X161290000Y-108585000D03*
X161290000Y-111125000D03*
X161290000Y-113665000D03*
X161290000Y-116205000D03*
X161290000Y-118745000D03*
X161290000Y-121285000D03*
X161290000Y-123825000D03*
X161290000Y-126365000D03*
X161290000Y-128905000D03*
X163830000Y-45085000D03*
X163830000Y-47625000D03*
X163830000Y-50165000D03*
X163830000Y-52705000D03*
X163830000Y-55245000D03*
X163830000Y-57785000D03*
X163830000Y-60325000D03*
X163830000Y-62865000D03*
X163830000Y-65405000D03*
X163830000Y-67945000D03*
X163830000Y-70485000D03*
X163830000Y-73025000D03*
X163830000Y-75565000D03*
X163830000Y-78105000D03*
X163830000Y-80645000D03*
X163830000Y-83185000D03*
X163830000Y-85725000D03*
X163830000Y-88265000D03*
X163830000Y-90805000D03*
X163830000Y-93345000D03*
X163830000Y-95885000D03*
X163830000Y-98425000D03*
X163830000Y-100965000D03*
X163830000Y-103505000D03*
X163830000Y-106045000D03*
X163830000Y-108585000D03*
X163830000Y-111125000D03*
X163830000Y-113665000D03*
X163830000Y-116205000D03*
X163830000Y-118745000D03*
X163830000Y-121285000D03*
X163830000Y-123825000D03*
X163830000Y-126365000D03*
X163830000Y-128905000D03*
X166370000Y-45085000D03*
X166370000Y-47625000D03*
X166370000Y-50165000D03*
X166370000Y-52705000D03*
X166370000Y-55245000D03*
X166370000Y-57785000D03*
X166370000Y-60325000D03*
X166370000Y-62865000D03*
X166370000Y-65405000D03*
X166370000Y-67945000D03*
X166370000Y-70485000D03*
X166370000Y-73025000D03*
X166370000Y-75565000D03*
X166370000Y-78105000D03*
X166370000Y-80645000D03*
X166370000Y-83185000D03*
X166370000Y-85725000D03*
X166370000Y-88265000D03*
X166370000Y-90805000D03*
X166370000Y-93345000D03*
X166370000Y-95885000D03*
X166370000Y-98425000D03*
X166370000Y-100965000D03*
X166370000Y-103505000D03*
X166370000Y-106045000D03*
X166370000Y-108585000D03*
X166370000Y-111125000D03*
X166370000Y-113665000D03*
X166370000Y-116205000D03*
X166370000Y-118745000D03*
X166370000Y-121285000D03*
X166370000Y-123825000D03*
X166370000Y-126365000D03*
X166370000Y-128905000D03*
X168910000Y-45085000D03*
X168910000Y-47625000D03*
X168910000Y-50165000D03*
X168910000Y-52705000D03*
X168910000Y-55245000D03*
X168910000Y-57785000D03*
X168910000Y-60325000D03*
X168910000Y-62865000D03*
X168910000Y-65405000D03*
X168910000Y-67945000D03*
X168910000Y-70485000D03*
X168910000Y-73025000D03*
X168910000Y-75565000D03*
X168910000Y-78105000D03*
X168910000Y-80645000D03*
X168910000Y-83185000D03*
X168910000Y-85725000D03*
X168910000Y-88265000D03*
X168910000Y-90805000D03*
X168910000Y-93345000D03*
X168910000Y-95885000D03*
X168910000Y-98425000D03*
X168910000Y-100965000D03*
X168910000Y-103505000D03*
X168910000Y-106045000D03*
X168910000Y-108585000D03*
X168910000Y-111125000D03*
X168910000Y-113665000D03*
X168910000Y-116205000D03*
X168910000Y-118745000D03*
X168910000Y-121285000D03*
X168910000Y-123825000D03*
X168910000Y-126365000D03*
X168910000Y-128905000D03*
X171450000Y-45085000D03*
X171450000Y-47625000D03*
X171450000Y-50165000D03*
X171450000Y-52705000D03*
X171450000Y-55245000D03*
X171450000Y-57785000D03*
X171450000Y-60325000D03*
X171450000Y-62865000D03*
X171450000Y-65405000D03*
X171450000Y-67945000D03*
X171450000Y-70485000D03*
X171450000Y-73025000D03*
X171450000Y-75565000D03*
X171450000Y-78105000D03*
X171450000Y-80645000D03*
X171450000Y-83185000D03*
X171450000Y-85725000D03*
X171450000Y-88265000D03*
X171450000Y-90805000D03*
X171450000Y-93345000D03*
X171450000Y-95885000D03*
X171450000Y-98425000D03*
X171450000Y-100965000D03*
X171450000Y-103505000D03*
X171450000Y-106045000D03*
X171450000Y-108585000D03*
X171450000Y-111125000D03*
X171450000Y-113665000D03*
X171450000Y-116205000D03*
X171450000Y-118745000D03*
X171450000Y-121285000D03*
X171450000Y-123825000D03*
X171450000Y-126365000D03*
X171450000Y-128905000D03*
X173990000Y-45085000D03*
X173990000Y-47625000D03*
X173990000Y-50165000D03*
X173990000Y-52705000D03*
X173990000Y-55245000D03*
X173990000Y-57785000D03*
X173990000Y-60325000D03*
X173990000Y-62865000D03*
X173990000Y-65405000D03*
X173990000Y-67945000D03*
X173990000Y-70485000D03*
X173990000Y-73025000D03*
X173990000Y-75565000D03*
X173990000Y-78105000D03*
X173990000Y-80645000D03*
X173990000Y-83185000D03*
X173990000Y-85725000D03*
X173990000Y-88265000D03*
X173990000Y-90805000D03*
X173990000Y-93345000D03*
X173990000Y-95885000D03*
X173990000Y-98425000D03*
X173990000Y-100965000D03*
X173990000Y-103505000D03*
X173990000Y-106045000D03*
X173990000Y-108585000D03*
X173990000Y-111125000D03*
X173990000Y-113665000D03*
X173990000Y-116205000D03*
X173990000Y-118745000D03*
X173990000Y-121285000D03*
X173990000Y-123825000D03*
X173990000Y-126365000D03*
X173990000Y-128905000D03*
X176530000Y-45085000D03*
X176530000Y-47625000D03*
X176530000Y-50165000D03*
X176530000Y-52705000D03*
X176530000Y-55245000D03*
X176530000Y-57785000D03*
X176530000Y-60325000D03*
X176530000Y-62865000D03*
X176530000Y-65405000D03*
X176530000Y-67945000D03*
X176530000Y-70485000D03*
X176530000Y-73025000D03*
X176530000Y-75565000D03*
X176530000Y-78105000D03*
X176530000Y-80645000D03*
X176530000Y-83185000D03*
X176530000Y-85725000D03*
X176530000Y-88265000D03*
X176530000Y-90805000D03*
X176530000Y-93345000D03*
X176530000Y-95885000D03*
X176530000Y-98425000D03*
X176530000Y-100965000D03*
X176530000Y-103505000D03*
X176530000Y-106045000D03*
X176530000Y-108585000D03*
X176530000Y-111125000D03*
X176530000Y-113665000D03*
X176530000Y-116205000D03*
X176530000Y-118745000D03*
X176530000Y-121285000D03*
X176530000Y-123825000D03*
X176530000Y-126365000D03*
X176530000Y-128905000D03*
X179070000Y-45085000D03*
X179070000Y-47625000D03*
X179070000Y-50165000D03*
X179070000Y-52705000D03*
X179070000Y-55245000D03*
X179070000Y-57785000D03*
X179070000Y-60325000D03*
X179070000Y-62865000D03*
X179070000Y-65405000D03*
X179070000Y-67945000D03*
X179070000Y-70485000D03*
X179070000Y-73025000D03*
X179070000Y-75565000D03*
X179070000Y-78105000D03*
X179070000Y-80645000D03*
X179070000Y-83185000D03*
X179070000Y-85725000D03*
X179070000Y-88265000D03*
X179070000Y-90805000D03*
X179070000Y-93345000D03*
X179070000Y-95885000D03*
X179070000Y-98425000D03*
X179070000Y-100965000D03*
X179070000Y-103505000D03*
X179070000Y-106045000D03*
X179070000Y-108585000D03*
X179070000Y-111125000D03*
X179070000Y-113665000D03*
X179070000Y-116205000D03*
X179070000Y-118745000D03*
X179070000Y-121285000D03*
X179070000Y-123825000D03*
X179070000Y-126365000D03*
X179070000Y-128905000D03*
X181610000Y-45085000D03*
X181610000Y-47625000D03*
X181610000Y-50165000D03*
X181610000Y-52705000D03*
X181610000Y-55245000D03*
X181610000Y-57785000D03*
X181610000Y-60325000D03*
X181610000Y-62865000D03*
X181610000Y-65405000D03*
X181610000Y-67945000D03*
X181610000Y-70485000D03*
X181610000Y-73025000D03*
X181610000Y-75565000D03*
X181610000Y-78105000D03*
X181610000Y-80645000D03*
X181610000Y-83185000D03*
X181610000Y-85725000D03*
X181610000Y-88265000D03*
X181610000Y-90805000D03*
X181610000Y-93345000D03*
X181610000Y-95885000D03*
X181610000Y-98425000D03*
X181610000Y-100965000D03*
X181610000Y-103505000D03*
X181610000Y-106045000D03*
X181610000Y-108585000D03*
X181610000Y-111125000D03*
X181610000Y-113665000D03*
X181610000Y-116205000D03*
X181610000Y-118745000D03*
X181610000Y-121285000D03*
X181610000Y-123825000D03*
X181610000Y-126365000D03*
X181610000Y-128905000D03*
X184150000Y-45085000D03*
X184150000Y-47625000D03*
X184150000Y-50165000D03*
X184150000Y-52705000D03*
X184150000Y-55245000D03*
X184150000Y-57785000D03*
X184150000Y-60325000D03*
X184150000Y-62865000D03*
X184150000Y-65405000D03*
X184150000Y-67945000D03*
X184150000Y-70485000D03*
X184150000Y-73025000D03*
X184150000Y-75565000D03*
X184150000Y-78105000D03*
X184150000Y-80645000D03*
X184150000Y-83185000D03*
X184150000Y-85725000D03*
X184150000Y-88265000D03*
X184150000Y-90805000D03*
X184150000Y-93345000D03*
X184150000Y-95885000D03*
X184150000Y-98425000D03*
X184150000Y-100965000D03*
X184150000Y-103505000D03*
X184150000Y-106045000D03*
X184150000Y-108585000D03*
X184150000Y-111125000D03*
X184150000Y-113665000D03*
X184150000Y-116205000D03*
X184150000Y-118745000D03*
X184150000Y-121285000D03*
X184150000Y-123825000D03*
X184150000Y-126365000D03*
X184150000Y-128905000D03*
X186690000Y-45085000D03*
X186690000Y-47625000D03*
X186690000Y-50165000D03*
X186690000Y-52705000D03*
X186690000Y-55245000D03*
X186690000Y-57785000D03*
X186690000Y-60325000D03*
X186690000Y-62865000D03*
X186690000Y-65405000D03*
X186690000Y-67945000D03*
X186690000Y-70485000D03*
X186690000Y-73025000D03*
X186690000Y-75565000D03*
X186690000Y-78105000D03*
X186690000Y-80645000D03*
X186690000Y-83185000D03*
X186690000Y-85725000D03*
X186690000Y-88265000D03*
X186690000Y-90805000D03*
X186690000Y-93345000D03*
X186690000Y-95885000D03*
X186690000Y-98425000D03*
X186690000Y-100965000D03*
X186690000Y-103505000D03*
X186690000Y-106045000D03*
X186690000Y-108585000D03*
X186690000Y-111125000D03*
X186690000Y-113665000D03*
X186690000Y-116205000D03*
X186690000Y-118745000D03*
X186690000Y-121285000D03*
X186690000Y-123825000D03*
X186690000Y-126365000D03*
X186690000Y-128905000D03*
X189230000Y-45085000D03*
X189230000Y-47625000D03*
X189230000Y-50165000D03*
X189230000Y-52705000D03*
X189230000Y-55245000D03*
X189230000Y-57785000D03*
X189230000Y-60325000D03*
X189230000Y-62865000D03*
X189230000Y-65405000D03*
X189230000Y-67945000D03*
X189230000Y-70485000D03*
X189230000Y-73025000D03*
X189230000Y-75565000D03*
X189230000Y-78105000D03*
X189230000Y-80645000D03*
X189230000Y-83185000D03*
X189230000Y-85725000D03*
X189230000Y-88265000D03*
X189230000Y-90805000D03*
X189230000Y-93345000D03*
X189230000Y-95885000D03*
X189230000Y-98425000D03*
X189230000Y-100965000D03*
X189230000Y-103505000D03*
X189230000Y-106045000D03*
X189230000Y-108585000D03*
X189230000Y-111125000D03*
X189230000Y-113665000D03*
X189230000Y-116205000D03*
X189230000Y-118745000D03*
X189230000Y-121285000D03*
X189230000Y-123825000D03*
X189230000Y-126365000D03*
X189230000Y-128905000D03*
X101600000Y-135255000D03*
X104140000Y-135255000D03*
X106680000Y-135255000D03*
X109220000Y-135255000D03*
X111760000Y-135255000D03*
X114300000Y-135255000D03*
X116840000Y-135255000D03*
X119380000Y-135255000D03*
X121920000Y-135255000D03*
X124460000Y-135255000D03*
X127000000Y-135255000D03*
X129540000Y-135255000D03*
X132080000Y-135255000D03*
X134620000Y-135255000D03*
X137160000Y-135255000D03*
X139700000Y-135255000D03*
X142240000Y-135255000D03*
X144780000Y-135255000D03*
X147320000Y-135255000D03*
X149860000Y-135255000D03*
X152400000Y-135255000D03*
X154940000Y-135255000D03*
X157480000Y-135255000D03*
X160020000Y-135255000D03*
X162560000Y-135255000D03*
X165100000Y-135255000D03*
X167640000Y-135255000D03*
X170180000Y-135255000D03*
X172720000Y-135255000D03*
X175260000Y-135255000D03*
X177800000Y-135255000D03*
X180340000Y-135255000D03*
X182880000Y-135255000D03*
X185420000Y-135255000D03*
X187960000Y-135255000D03*
X190500000Y-135255000D03*
X193040000Y-135255000D03*
X195580000Y-135255000D03*
X198120000Y-135255000D03*
X198120000Y-132715000D03*
X195580000Y-132715000D03*
X193040000Y-132715000D03*
X190500000Y-132715000D03*
X187960000Y-132715000D03*
X185420000Y-132715000D03*
X182880000Y-132715000D03*
X180340000Y-132715000D03*
X177800000Y-132715000D03*
X175260000Y-132715000D03*
X172720000Y-132715000D03*
X170180000Y-132715000D03*
X167640000Y-132715000D03*
X165100000Y-132715000D03*
X162560000Y-132715000D03*
X160020000Y-132715000D03*
X157480000Y-132715000D03*
X154940000Y-132715000D03*
X152400000Y-132715000D03*
X149860000Y-132715000D03*
X147320000Y-132715000D03*
X144780000Y-132715000D03*
X142240000Y-132715000D03*
X139700000Y-132715000D03*
X137160000Y-132715000D03*
X134620000Y-132715000D03*
X132080000Y-132715000D03*
X129540000Y-132715000D03*
X127000000Y-132715000D03*
X124460000Y-132715000D03*
X121920000Y-132715000D03*
X119380000Y-132715000D03*
X116840000Y-132715000D03*
X114300000Y-132715000D03*
X111760000Y-132715000D03*
X109220000Y-132715000D03*
X106680000Y-132715000D03*
X104140000Y-132715000D03*
X101600000Y-132715000D03*
M02*
