G04 #@! TF.FileFunction,Legend,Top*
%FSLAX46Y46*%
G04 Gerber Fmt 4.6, Leading zero omitted, Abs format (unit mm)*
G04 Created by KiCad (PCBNEW 4.0.7) date 01/07/19 16:06:24*
%MOMM*%
%LPD*%
G01*
G04 APERTURE LIST*
%ADD10C,0.100000*%
%ADD11C,0.300000*%
%ADD12C,0.200000*%
%ADD13C,0.120000*%
%ADD14C,0.150000*%
G04 APERTURE END LIST*
D10*
D11*
X123786429Y-95132859D02*
X124500714Y-94632859D01*
X123786429Y-94275716D02*
X125286429Y-94275716D01*
X125286429Y-94847144D01*
X125215000Y-94990002D01*
X125143571Y-95061430D01*
X125000714Y-95132859D01*
X124786429Y-95132859D01*
X124643571Y-95061430D01*
X124572143Y-94990002D01*
X124500714Y-94847144D01*
X124500714Y-94275716D01*
X123929286Y-96632859D02*
X123857857Y-96561430D01*
X123786429Y-96347144D01*
X123786429Y-96204287D01*
X123857857Y-95990002D01*
X124000714Y-95847144D01*
X124143571Y-95775716D01*
X124429286Y-95704287D01*
X124643571Y-95704287D01*
X124929286Y-95775716D01*
X125072143Y-95847144D01*
X125215000Y-95990002D01*
X125286429Y-96204287D01*
X125286429Y-96347144D01*
X125215000Y-96561430D01*
X125143571Y-96632859D01*
X125286429Y-97918573D02*
X125286429Y-97632859D01*
X125215000Y-97490002D01*
X125143571Y-97418573D01*
X124929286Y-97275716D01*
X124643571Y-97204287D01*
X124072143Y-97204287D01*
X123929286Y-97275716D01*
X123857857Y-97347144D01*
X123786429Y-97490002D01*
X123786429Y-97775716D01*
X123857857Y-97918573D01*
X123929286Y-97990002D01*
X124072143Y-98061430D01*
X124429286Y-98061430D01*
X124572143Y-97990002D01*
X124643571Y-97918573D01*
X124715000Y-97775716D01*
X124715000Y-97490002D01*
X124643571Y-97347144D01*
X124572143Y-97275716D01*
X124429286Y-97204287D01*
X125286429Y-99418573D02*
X125286429Y-98704287D01*
X124572143Y-98632858D01*
X124643571Y-98704287D01*
X124715000Y-98847144D01*
X124715000Y-99204287D01*
X124643571Y-99347144D01*
X124572143Y-99418573D01*
X124429286Y-99490001D01*
X124072143Y-99490001D01*
X123929286Y-99418573D01*
X123857857Y-99347144D01*
X123786429Y-99204287D01*
X123786429Y-98847144D01*
X123857857Y-98704287D01*
X123929286Y-98632858D01*
X125286429Y-100418572D02*
X125286429Y-100561429D01*
X125215000Y-100704286D01*
X125143571Y-100775715D01*
X125000714Y-100847144D01*
X124715000Y-100918572D01*
X124357857Y-100918572D01*
X124072143Y-100847144D01*
X123929286Y-100775715D01*
X123857857Y-100704286D01*
X123786429Y-100561429D01*
X123786429Y-100418572D01*
X123857857Y-100275715D01*
X123929286Y-100204286D01*
X124072143Y-100132858D01*
X124357857Y-100061429D01*
X124715000Y-100061429D01*
X125000714Y-100132858D01*
X125143571Y-100204286D01*
X125215000Y-100275715D01*
X125286429Y-100418572D01*
X125143571Y-101490000D02*
X125215000Y-101561429D01*
X125286429Y-101704286D01*
X125286429Y-102061429D01*
X125215000Y-102204286D01*
X125143571Y-102275715D01*
X125000714Y-102347143D01*
X124857857Y-102347143D01*
X124643571Y-102275715D01*
X123786429Y-101418572D01*
X123786429Y-102347143D01*
X123929286Y-104990000D02*
X123857857Y-104918571D01*
X123786429Y-104704285D01*
X123786429Y-104561428D01*
X123857857Y-104347143D01*
X124000714Y-104204285D01*
X124143571Y-104132857D01*
X124429286Y-104061428D01*
X124643571Y-104061428D01*
X124929286Y-104132857D01*
X125072143Y-104204285D01*
X125215000Y-104347143D01*
X125286429Y-104561428D01*
X125286429Y-104704285D01*
X125215000Y-104918571D01*
X125143571Y-104990000D01*
X123786429Y-105847143D02*
X123857857Y-105704285D01*
X123929286Y-105632857D01*
X124072143Y-105561428D01*
X124500714Y-105561428D01*
X124643571Y-105632857D01*
X124715000Y-105704285D01*
X124786429Y-105847143D01*
X124786429Y-106061428D01*
X124715000Y-106204285D01*
X124643571Y-106275714D01*
X124500714Y-106347143D01*
X124072143Y-106347143D01*
X123929286Y-106275714D01*
X123857857Y-106204285D01*
X123786429Y-106061428D01*
X123786429Y-105847143D01*
X123786429Y-106990000D02*
X124786429Y-106990000D01*
X124643571Y-106990000D02*
X124715000Y-107061428D01*
X124786429Y-107204286D01*
X124786429Y-107418571D01*
X124715000Y-107561428D01*
X124572143Y-107632857D01*
X123786429Y-107632857D01*
X124572143Y-107632857D02*
X124715000Y-107704286D01*
X124786429Y-107847143D01*
X124786429Y-108061428D01*
X124715000Y-108204286D01*
X124572143Y-108275714D01*
X123786429Y-108275714D01*
X124786429Y-108990000D02*
X123286429Y-108990000D01*
X124715000Y-108990000D02*
X124786429Y-109132857D01*
X124786429Y-109418571D01*
X124715000Y-109561428D01*
X124643571Y-109632857D01*
X124500714Y-109704286D01*
X124072143Y-109704286D01*
X123929286Y-109632857D01*
X123857857Y-109561428D01*
X123786429Y-109418571D01*
X123786429Y-109132857D01*
X123857857Y-108990000D01*
X124786429Y-110990000D02*
X123786429Y-110990000D01*
X124786429Y-110347143D02*
X124000714Y-110347143D01*
X123857857Y-110418571D01*
X123786429Y-110561429D01*
X123786429Y-110775714D01*
X123857857Y-110918571D01*
X123929286Y-110990000D01*
X124786429Y-111490000D02*
X124786429Y-112061429D01*
X125286429Y-111704286D02*
X124000714Y-111704286D01*
X123857857Y-111775714D01*
X123786429Y-111918572D01*
X123786429Y-112061429D01*
X123857857Y-113132857D02*
X123786429Y-112990000D01*
X123786429Y-112704286D01*
X123857857Y-112561429D01*
X124000714Y-112490000D01*
X124572143Y-112490000D01*
X124715000Y-112561429D01*
X124786429Y-112704286D01*
X124786429Y-112990000D01*
X124715000Y-113132857D01*
X124572143Y-113204286D01*
X124429286Y-113204286D01*
X124286429Y-112490000D01*
X123786429Y-113847143D02*
X124786429Y-113847143D01*
X124500714Y-113847143D02*
X124643571Y-113918571D01*
X124715000Y-113990000D01*
X124786429Y-114132857D01*
X124786429Y-114275714D01*
X124572143Y-116418571D02*
X124500714Y-116632857D01*
X124429286Y-116704285D01*
X124286429Y-116775714D01*
X124072143Y-116775714D01*
X123929286Y-116704285D01*
X123857857Y-116632857D01*
X123786429Y-116489999D01*
X123786429Y-115918571D01*
X125286429Y-115918571D01*
X125286429Y-116418571D01*
X125215000Y-116561428D01*
X125143571Y-116632857D01*
X125000714Y-116704285D01*
X124857857Y-116704285D01*
X124715000Y-116632857D01*
X124643571Y-116561428D01*
X124572143Y-116418571D01*
X124572143Y-115918571D01*
X123786429Y-118061428D02*
X124572143Y-118061428D01*
X124715000Y-117989999D01*
X124786429Y-117847142D01*
X124786429Y-117561428D01*
X124715000Y-117418571D01*
X123857857Y-118061428D02*
X123786429Y-117918571D01*
X123786429Y-117561428D01*
X123857857Y-117418571D01*
X124000714Y-117347142D01*
X124143571Y-117347142D01*
X124286429Y-117418571D01*
X124357857Y-117561428D01*
X124357857Y-117918571D01*
X124429286Y-118061428D01*
X123857857Y-119418571D02*
X123786429Y-119275714D01*
X123786429Y-118990000D01*
X123857857Y-118847142D01*
X123929286Y-118775714D01*
X124072143Y-118704285D01*
X124500714Y-118704285D01*
X124643571Y-118775714D01*
X124715000Y-118847142D01*
X124786429Y-118990000D01*
X124786429Y-119275714D01*
X124715000Y-119418571D01*
X123786429Y-120061428D02*
X125286429Y-120061428D01*
X124357857Y-120204285D02*
X123786429Y-120632856D01*
X124786429Y-120632856D02*
X124215000Y-120061428D01*
X124786429Y-121275714D02*
X123286429Y-121275714D01*
X124715000Y-121275714D02*
X124786429Y-121418571D01*
X124786429Y-121704285D01*
X124715000Y-121847142D01*
X124643571Y-121918571D01*
X124500714Y-121990000D01*
X124072143Y-121990000D01*
X123929286Y-121918571D01*
X123857857Y-121847142D01*
X123786429Y-121704285D01*
X123786429Y-121418571D01*
X123857857Y-121275714D01*
X123786429Y-122847143D02*
X123857857Y-122704285D01*
X124000714Y-122632857D01*
X125286429Y-122632857D01*
X123786429Y-124061428D02*
X124572143Y-124061428D01*
X124715000Y-123989999D01*
X124786429Y-123847142D01*
X124786429Y-123561428D01*
X124715000Y-123418571D01*
X123857857Y-124061428D02*
X123786429Y-123918571D01*
X123786429Y-123561428D01*
X123857857Y-123418571D01*
X124000714Y-123347142D01*
X124143571Y-123347142D01*
X124286429Y-123418571D01*
X124357857Y-123561428D01*
X124357857Y-123918571D01*
X124429286Y-124061428D01*
X124786429Y-124775714D02*
X123786429Y-124775714D01*
X124643571Y-124775714D02*
X124715000Y-124847142D01*
X124786429Y-124990000D01*
X124786429Y-125204285D01*
X124715000Y-125347142D01*
X124572143Y-125418571D01*
X123786429Y-125418571D01*
X123857857Y-126704285D02*
X123786429Y-126561428D01*
X123786429Y-126275714D01*
X123857857Y-126132857D01*
X124000714Y-126061428D01*
X124572143Y-126061428D01*
X124715000Y-126132857D01*
X124786429Y-126275714D01*
X124786429Y-126561428D01*
X124715000Y-126704285D01*
X124572143Y-126775714D01*
X124429286Y-126775714D01*
X124286429Y-126061428D01*
X121236429Y-92489999D02*
X122736429Y-92489999D01*
X121236429Y-93132856D02*
X122022143Y-93132856D01*
X122165000Y-93061427D01*
X122236429Y-92918570D01*
X122236429Y-92704285D01*
X122165000Y-92561427D01*
X122093571Y-92489999D01*
X122236429Y-93632856D02*
X122236429Y-94204285D01*
X122736429Y-93847142D02*
X121450714Y-93847142D01*
X121307857Y-93918570D01*
X121236429Y-94061428D01*
X121236429Y-94204285D01*
X122236429Y-94489999D02*
X122236429Y-95061428D01*
X122736429Y-94704285D02*
X121450714Y-94704285D01*
X121307857Y-94775713D01*
X121236429Y-94918571D01*
X121236429Y-95061428D01*
X122236429Y-95561428D02*
X120736429Y-95561428D01*
X122165000Y-95561428D02*
X122236429Y-95704285D01*
X122236429Y-95989999D01*
X122165000Y-96132856D01*
X122093571Y-96204285D01*
X121950714Y-96275714D01*
X121522143Y-96275714D01*
X121379286Y-96204285D01*
X121307857Y-96132856D01*
X121236429Y-95989999D01*
X121236429Y-95704285D01*
X121307857Y-95561428D01*
X121307857Y-96847142D02*
X121236429Y-96989999D01*
X121236429Y-97275714D01*
X121307857Y-97418571D01*
X121450714Y-97489999D01*
X121522143Y-97489999D01*
X121665000Y-97418571D01*
X121736429Y-97275714D01*
X121736429Y-97061428D01*
X121807857Y-96918571D01*
X121950714Y-96847142D01*
X122022143Y-96847142D01*
X122165000Y-96918571D01*
X122236429Y-97061428D01*
X122236429Y-97275714D01*
X122165000Y-97418571D01*
X121379286Y-98132857D02*
X121307857Y-98204285D01*
X121236429Y-98132857D01*
X121307857Y-98061428D01*
X121379286Y-98132857D01*
X121236429Y-98132857D01*
X122165000Y-98132857D02*
X122093571Y-98204285D01*
X122022143Y-98132857D01*
X122093571Y-98061428D01*
X122165000Y-98132857D01*
X122022143Y-98132857D01*
X122807857Y-99918571D02*
X120879286Y-98632857D01*
X122807857Y-101490000D02*
X120879286Y-100204286D01*
X121236429Y-101990001D02*
X122736429Y-101990001D01*
X121236429Y-102632858D02*
X122022143Y-102632858D01*
X122165000Y-102561429D01*
X122236429Y-102418572D01*
X122236429Y-102204287D01*
X122165000Y-102061429D01*
X122093571Y-101990001D01*
X122236429Y-103204287D02*
X121236429Y-103561430D01*
X122236429Y-103918572D01*
X121307857Y-105061429D02*
X121236429Y-104918572D01*
X121236429Y-104632858D01*
X121307857Y-104490001D01*
X121450714Y-104418572D01*
X122022143Y-104418572D01*
X122165000Y-104490001D01*
X122236429Y-104632858D01*
X122236429Y-104918572D01*
X122165000Y-105061429D01*
X122022143Y-105132858D01*
X121879286Y-105132858D01*
X121736429Y-104418572D01*
X122236429Y-105561429D02*
X122236429Y-106132858D01*
X122736429Y-105775715D02*
X121450714Y-105775715D01*
X121307857Y-105847143D01*
X121236429Y-105990001D01*
X121236429Y-106132858D01*
X121307857Y-107204286D02*
X121236429Y-107061429D01*
X121236429Y-106775715D01*
X121307857Y-106632858D01*
X121450714Y-106561429D01*
X122022143Y-106561429D01*
X122165000Y-106632858D01*
X122236429Y-106775715D01*
X122236429Y-107061429D01*
X122165000Y-107204286D01*
X122022143Y-107275715D01*
X121879286Y-107275715D01*
X121736429Y-106561429D01*
X121236429Y-107918572D02*
X122736429Y-107918572D01*
X122165000Y-107918572D02*
X122236429Y-108061429D01*
X122236429Y-108347143D01*
X122165000Y-108490000D01*
X122093571Y-108561429D01*
X121950714Y-108632858D01*
X121522143Y-108632858D01*
X121379286Y-108561429D01*
X121307857Y-108490000D01*
X121236429Y-108347143D01*
X121236429Y-108061429D01*
X121307857Y-107918572D01*
X121236429Y-109490001D02*
X121307857Y-109347143D01*
X121379286Y-109275715D01*
X121522143Y-109204286D01*
X121950714Y-109204286D01*
X122093571Y-109275715D01*
X122165000Y-109347143D01*
X122236429Y-109490001D01*
X122236429Y-109704286D01*
X122165000Y-109847143D01*
X122093571Y-109918572D01*
X121950714Y-109990001D01*
X121522143Y-109990001D01*
X121379286Y-109918572D01*
X121307857Y-109847143D01*
X121236429Y-109704286D01*
X121236429Y-109490001D01*
X121236429Y-110847144D02*
X121307857Y-110704286D01*
X121450714Y-110632858D01*
X122736429Y-110632858D01*
X121236429Y-111632858D02*
X121307857Y-111490000D01*
X121450714Y-111418572D01*
X122736429Y-111418572D01*
X121307857Y-112775714D02*
X121236429Y-112632857D01*
X121236429Y-112347143D01*
X121307857Y-112204286D01*
X121450714Y-112132857D01*
X122022143Y-112132857D01*
X122165000Y-112204286D01*
X122236429Y-112347143D01*
X122236429Y-112632857D01*
X122165000Y-112775714D01*
X122022143Y-112847143D01*
X121879286Y-112847143D01*
X121736429Y-112132857D01*
X121379286Y-113490000D02*
X121307857Y-113561428D01*
X121236429Y-113490000D01*
X121307857Y-113418571D01*
X121379286Y-113490000D01*
X121236429Y-113490000D01*
X121236429Y-114204286D02*
X122736429Y-114204286D01*
X122165000Y-114204286D02*
X122236429Y-114347143D01*
X122236429Y-114632857D01*
X122165000Y-114775714D01*
X122093571Y-114847143D01*
X121950714Y-114918572D01*
X121522143Y-114918572D01*
X121379286Y-114847143D01*
X121307857Y-114775714D01*
X121236429Y-114632857D01*
X121236429Y-114347143D01*
X121307857Y-114204286D01*
X121236429Y-115775715D02*
X121307857Y-115632857D01*
X121450714Y-115561429D01*
X122736429Y-115561429D01*
X121236429Y-116561429D02*
X121307857Y-116418571D01*
X121379286Y-116347143D01*
X121522143Y-116275714D01*
X121950714Y-116275714D01*
X122093571Y-116347143D01*
X122165000Y-116418571D01*
X122236429Y-116561429D01*
X122236429Y-116775714D01*
X122165000Y-116918571D01*
X122093571Y-116990000D01*
X121950714Y-117061429D01*
X121522143Y-117061429D01*
X121379286Y-116990000D01*
X121307857Y-116918571D01*
X121236429Y-116775714D01*
X121236429Y-116561429D01*
X122236429Y-118347143D02*
X121022143Y-118347143D01*
X120879286Y-118275714D01*
X120807857Y-118204286D01*
X120736429Y-118061429D01*
X120736429Y-117847143D01*
X120807857Y-117704286D01*
X121307857Y-118347143D02*
X121236429Y-118204286D01*
X121236429Y-117918572D01*
X121307857Y-117775714D01*
X121379286Y-117704286D01*
X121522143Y-117632857D01*
X121950714Y-117632857D01*
X122093571Y-117704286D01*
X122165000Y-117775714D01*
X122236429Y-117918572D01*
X122236429Y-118204286D01*
X122165000Y-118347143D01*
X121307857Y-118990000D02*
X121236429Y-119132857D01*
X121236429Y-119418572D01*
X121307857Y-119561429D01*
X121450714Y-119632857D01*
X121522143Y-119632857D01*
X121665000Y-119561429D01*
X121736429Y-119418572D01*
X121736429Y-119204286D01*
X121807857Y-119061429D01*
X121950714Y-118990000D01*
X122022143Y-118990000D01*
X122165000Y-119061429D01*
X122236429Y-119204286D01*
X122236429Y-119418572D01*
X122165000Y-119561429D01*
X122236429Y-120275715D02*
X120736429Y-120275715D01*
X122165000Y-120275715D02*
X122236429Y-120418572D01*
X122236429Y-120704286D01*
X122165000Y-120847143D01*
X122093571Y-120918572D01*
X121950714Y-120990001D01*
X121522143Y-120990001D01*
X121379286Y-120918572D01*
X121307857Y-120847143D01*
X121236429Y-120704286D01*
X121236429Y-120418572D01*
X121307857Y-120275715D01*
X121236429Y-121847144D02*
X121307857Y-121704286D01*
X121379286Y-121632858D01*
X121522143Y-121561429D01*
X121950714Y-121561429D01*
X122093571Y-121632858D01*
X122165000Y-121704286D01*
X122236429Y-121847144D01*
X122236429Y-122061429D01*
X122165000Y-122204286D01*
X122093571Y-122275715D01*
X121950714Y-122347144D01*
X121522143Y-122347144D01*
X121379286Y-122275715D01*
X121307857Y-122204286D01*
X121236429Y-122061429D01*
X121236429Y-121847144D01*
X122236429Y-122775715D02*
X122236429Y-123347144D01*
X122736429Y-122990001D02*
X121450714Y-122990001D01*
X121307857Y-123061429D01*
X121236429Y-123204287D01*
X121236429Y-123347144D01*
X121379286Y-123847144D02*
X121307857Y-123918572D01*
X121236429Y-123847144D01*
X121307857Y-123775715D01*
X121379286Y-123847144D01*
X121236429Y-123847144D01*
X121307857Y-125204287D02*
X121236429Y-125061430D01*
X121236429Y-124775716D01*
X121307857Y-124632858D01*
X121379286Y-124561430D01*
X121522143Y-124490001D01*
X121950714Y-124490001D01*
X122093571Y-124561430D01*
X122165000Y-124632858D01*
X122236429Y-124775716D01*
X122236429Y-125061430D01*
X122165000Y-125204287D01*
X121236429Y-126061430D02*
X121307857Y-125918572D01*
X121379286Y-125847144D01*
X121522143Y-125775715D01*
X121950714Y-125775715D01*
X122093571Y-125847144D01*
X122165000Y-125918572D01*
X122236429Y-126061430D01*
X122236429Y-126275715D01*
X122165000Y-126418572D01*
X122093571Y-126490001D01*
X121950714Y-126561430D01*
X121522143Y-126561430D01*
X121379286Y-126490001D01*
X121307857Y-126418572D01*
X121236429Y-126275715D01*
X121236429Y-126061430D01*
X121236429Y-127204287D02*
X122236429Y-127204287D01*
X122093571Y-127204287D02*
X122165000Y-127275715D01*
X122236429Y-127418573D01*
X122236429Y-127632858D01*
X122165000Y-127775715D01*
X122022143Y-127847144D01*
X121236429Y-127847144D01*
X122022143Y-127847144D02*
X122165000Y-127918573D01*
X122236429Y-128061430D01*
X122236429Y-128275715D01*
X122165000Y-128418573D01*
X122022143Y-128490001D01*
X121236429Y-128490001D01*
X99098571Y-125847141D02*
X98384286Y-126347141D01*
X99098571Y-126704284D02*
X97598571Y-126704284D01*
X97598571Y-126132856D01*
X97670000Y-125989998D01*
X97741429Y-125918570D01*
X97884286Y-125847141D01*
X98098571Y-125847141D01*
X98241429Y-125918570D01*
X98312857Y-125989998D01*
X98384286Y-126132856D01*
X98384286Y-126704284D01*
X98955714Y-124347141D02*
X99027143Y-124418570D01*
X99098571Y-124632856D01*
X99098571Y-124775713D01*
X99027143Y-124989998D01*
X98884286Y-125132856D01*
X98741429Y-125204284D01*
X98455714Y-125275713D01*
X98241429Y-125275713D01*
X97955714Y-125204284D01*
X97812857Y-125132856D01*
X97670000Y-124989998D01*
X97598571Y-124775713D01*
X97598571Y-124632856D01*
X97670000Y-124418570D01*
X97741429Y-124347141D01*
X97598571Y-123061427D02*
X97598571Y-123347141D01*
X97670000Y-123489998D01*
X97741429Y-123561427D01*
X97955714Y-123704284D01*
X98241429Y-123775713D01*
X98812857Y-123775713D01*
X98955714Y-123704284D01*
X99027143Y-123632856D01*
X99098571Y-123489998D01*
X99098571Y-123204284D01*
X99027143Y-123061427D01*
X98955714Y-122989998D01*
X98812857Y-122918570D01*
X98455714Y-122918570D01*
X98312857Y-122989998D01*
X98241429Y-123061427D01*
X98170000Y-123204284D01*
X98170000Y-123489998D01*
X98241429Y-123632856D01*
X98312857Y-123704284D01*
X98455714Y-123775713D01*
X97598571Y-121561427D02*
X97598571Y-122275713D01*
X98312857Y-122347142D01*
X98241429Y-122275713D01*
X98170000Y-122132856D01*
X98170000Y-121775713D01*
X98241429Y-121632856D01*
X98312857Y-121561427D01*
X98455714Y-121489999D01*
X98812857Y-121489999D01*
X98955714Y-121561427D01*
X99027143Y-121632856D01*
X99098571Y-121775713D01*
X99098571Y-122132856D01*
X99027143Y-122275713D01*
X98955714Y-122347142D01*
X97598571Y-120561428D02*
X97598571Y-120418571D01*
X97670000Y-120275714D01*
X97741429Y-120204285D01*
X97884286Y-120132856D01*
X98170000Y-120061428D01*
X98527143Y-120061428D01*
X98812857Y-120132856D01*
X98955714Y-120204285D01*
X99027143Y-120275714D01*
X99098571Y-120418571D01*
X99098571Y-120561428D01*
X99027143Y-120704285D01*
X98955714Y-120775714D01*
X98812857Y-120847142D01*
X98527143Y-120918571D01*
X98170000Y-120918571D01*
X97884286Y-120847142D01*
X97741429Y-120775714D01*
X97670000Y-120704285D01*
X97598571Y-120561428D01*
X97741429Y-119490000D02*
X97670000Y-119418571D01*
X97598571Y-119275714D01*
X97598571Y-118918571D01*
X97670000Y-118775714D01*
X97741429Y-118704285D01*
X97884286Y-118632857D01*
X98027143Y-118632857D01*
X98241429Y-118704285D01*
X99098571Y-119561428D01*
X99098571Y-118632857D01*
X98955714Y-115990000D02*
X99027143Y-116061429D01*
X99098571Y-116275715D01*
X99098571Y-116418572D01*
X99027143Y-116632857D01*
X98884286Y-116775715D01*
X98741429Y-116847143D01*
X98455714Y-116918572D01*
X98241429Y-116918572D01*
X97955714Y-116847143D01*
X97812857Y-116775715D01*
X97670000Y-116632857D01*
X97598571Y-116418572D01*
X97598571Y-116275715D01*
X97670000Y-116061429D01*
X97741429Y-115990000D01*
X99098571Y-115132857D02*
X99027143Y-115275715D01*
X98955714Y-115347143D01*
X98812857Y-115418572D01*
X98384286Y-115418572D01*
X98241429Y-115347143D01*
X98170000Y-115275715D01*
X98098571Y-115132857D01*
X98098571Y-114918572D01*
X98170000Y-114775715D01*
X98241429Y-114704286D01*
X98384286Y-114632857D01*
X98812857Y-114632857D01*
X98955714Y-114704286D01*
X99027143Y-114775715D01*
X99098571Y-114918572D01*
X99098571Y-115132857D01*
X99098571Y-113990000D02*
X98098571Y-113990000D01*
X98241429Y-113990000D02*
X98170000Y-113918572D01*
X98098571Y-113775714D01*
X98098571Y-113561429D01*
X98170000Y-113418572D01*
X98312857Y-113347143D01*
X99098571Y-113347143D01*
X98312857Y-113347143D02*
X98170000Y-113275714D01*
X98098571Y-113132857D01*
X98098571Y-112918572D01*
X98170000Y-112775714D01*
X98312857Y-112704286D01*
X99098571Y-112704286D01*
X98098571Y-111990000D02*
X99598571Y-111990000D01*
X98170000Y-111990000D02*
X98098571Y-111847143D01*
X98098571Y-111561429D01*
X98170000Y-111418572D01*
X98241429Y-111347143D01*
X98384286Y-111275714D01*
X98812857Y-111275714D01*
X98955714Y-111347143D01*
X99027143Y-111418572D01*
X99098571Y-111561429D01*
X99098571Y-111847143D01*
X99027143Y-111990000D01*
X98098571Y-109990000D02*
X99098571Y-109990000D01*
X98098571Y-110632857D02*
X98884286Y-110632857D01*
X99027143Y-110561429D01*
X99098571Y-110418571D01*
X99098571Y-110204286D01*
X99027143Y-110061429D01*
X98955714Y-109990000D01*
X98098571Y-109490000D02*
X98098571Y-108918571D01*
X97598571Y-109275714D02*
X98884286Y-109275714D01*
X99027143Y-109204286D01*
X99098571Y-109061428D01*
X99098571Y-108918571D01*
X99027143Y-107847143D02*
X99098571Y-107990000D01*
X99098571Y-108275714D01*
X99027143Y-108418571D01*
X98884286Y-108490000D01*
X98312857Y-108490000D01*
X98170000Y-108418571D01*
X98098571Y-108275714D01*
X98098571Y-107990000D01*
X98170000Y-107847143D01*
X98312857Y-107775714D01*
X98455714Y-107775714D01*
X98598571Y-108490000D01*
X99098571Y-107132857D02*
X98098571Y-107132857D01*
X98384286Y-107132857D02*
X98241429Y-107061429D01*
X98170000Y-106990000D01*
X98098571Y-106847143D01*
X98098571Y-106704286D01*
X98312857Y-104561429D02*
X98384286Y-104347143D01*
X98455714Y-104275715D01*
X98598571Y-104204286D01*
X98812857Y-104204286D01*
X98955714Y-104275715D01*
X99027143Y-104347143D01*
X99098571Y-104490001D01*
X99098571Y-105061429D01*
X97598571Y-105061429D01*
X97598571Y-104561429D01*
X97670000Y-104418572D01*
X97741429Y-104347143D01*
X97884286Y-104275715D01*
X98027143Y-104275715D01*
X98170000Y-104347143D01*
X98241429Y-104418572D01*
X98312857Y-104561429D01*
X98312857Y-105061429D01*
X99098571Y-102918572D02*
X98312857Y-102918572D01*
X98170000Y-102990001D01*
X98098571Y-103132858D01*
X98098571Y-103418572D01*
X98170000Y-103561429D01*
X99027143Y-102918572D02*
X99098571Y-103061429D01*
X99098571Y-103418572D01*
X99027143Y-103561429D01*
X98884286Y-103632858D01*
X98741429Y-103632858D01*
X98598571Y-103561429D01*
X98527143Y-103418572D01*
X98527143Y-103061429D01*
X98455714Y-102918572D01*
X99027143Y-101561429D02*
X99098571Y-101704286D01*
X99098571Y-101990000D01*
X99027143Y-102132858D01*
X98955714Y-102204286D01*
X98812857Y-102275715D01*
X98384286Y-102275715D01*
X98241429Y-102204286D01*
X98170000Y-102132858D01*
X98098571Y-101990000D01*
X98098571Y-101704286D01*
X98170000Y-101561429D01*
X99098571Y-100918572D02*
X97598571Y-100918572D01*
X98527143Y-100775715D02*
X99098571Y-100347144D01*
X98098571Y-100347144D02*
X98670000Y-100918572D01*
X98098571Y-99704286D02*
X99598571Y-99704286D01*
X98170000Y-99704286D02*
X98098571Y-99561429D01*
X98098571Y-99275715D01*
X98170000Y-99132858D01*
X98241429Y-99061429D01*
X98384286Y-98990000D01*
X98812857Y-98990000D01*
X98955714Y-99061429D01*
X99027143Y-99132858D01*
X99098571Y-99275715D01*
X99098571Y-99561429D01*
X99027143Y-99704286D01*
X99098571Y-98132857D02*
X99027143Y-98275715D01*
X98884286Y-98347143D01*
X97598571Y-98347143D01*
X99098571Y-96918572D02*
X98312857Y-96918572D01*
X98170000Y-96990001D01*
X98098571Y-97132858D01*
X98098571Y-97418572D01*
X98170000Y-97561429D01*
X99027143Y-96918572D02*
X99098571Y-97061429D01*
X99098571Y-97418572D01*
X99027143Y-97561429D01*
X98884286Y-97632858D01*
X98741429Y-97632858D01*
X98598571Y-97561429D01*
X98527143Y-97418572D01*
X98527143Y-97061429D01*
X98455714Y-96918572D01*
X98098571Y-96204286D02*
X99098571Y-96204286D01*
X98241429Y-96204286D02*
X98170000Y-96132858D01*
X98098571Y-95990000D01*
X98098571Y-95775715D01*
X98170000Y-95632858D01*
X98312857Y-95561429D01*
X99098571Y-95561429D01*
X99027143Y-94275715D02*
X99098571Y-94418572D01*
X99098571Y-94704286D01*
X99027143Y-94847143D01*
X98884286Y-94918572D01*
X98312857Y-94918572D01*
X98170000Y-94847143D01*
X98098571Y-94704286D01*
X98098571Y-94418572D01*
X98170000Y-94275715D01*
X98312857Y-94204286D01*
X98455714Y-94204286D01*
X98598571Y-94918572D01*
X101648571Y-128490001D02*
X100148571Y-128490001D01*
X101648571Y-127847144D02*
X100862857Y-127847144D01*
X100720000Y-127918573D01*
X100648571Y-128061430D01*
X100648571Y-128275715D01*
X100720000Y-128418573D01*
X100791429Y-128490001D01*
X100648571Y-127347144D02*
X100648571Y-126775715D01*
X100148571Y-127132858D02*
X101434286Y-127132858D01*
X101577143Y-127061430D01*
X101648571Y-126918572D01*
X101648571Y-126775715D01*
X100648571Y-126490001D02*
X100648571Y-125918572D01*
X100148571Y-126275715D02*
X101434286Y-126275715D01*
X101577143Y-126204287D01*
X101648571Y-126061429D01*
X101648571Y-125918572D01*
X100648571Y-125418572D02*
X102148571Y-125418572D01*
X100720000Y-125418572D02*
X100648571Y-125275715D01*
X100648571Y-124990001D01*
X100720000Y-124847144D01*
X100791429Y-124775715D01*
X100934286Y-124704286D01*
X101362857Y-124704286D01*
X101505714Y-124775715D01*
X101577143Y-124847144D01*
X101648571Y-124990001D01*
X101648571Y-125275715D01*
X101577143Y-125418572D01*
X101577143Y-124132858D02*
X101648571Y-123990001D01*
X101648571Y-123704286D01*
X101577143Y-123561429D01*
X101434286Y-123490001D01*
X101362857Y-123490001D01*
X101220000Y-123561429D01*
X101148571Y-123704286D01*
X101148571Y-123918572D01*
X101077143Y-124061429D01*
X100934286Y-124132858D01*
X100862857Y-124132858D01*
X100720000Y-124061429D01*
X100648571Y-123918572D01*
X100648571Y-123704286D01*
X100720000Y-123561429D01*
X101505714Y-122847143D02*
X101577143Y-122775715D01*
X101648571Y-122847143D01*
X101577143Y-122918572D01*
X101505714Y-122847143D01*
X101648571Y-122847143D01*
X100720000Y-122847143D02*
X100791429Y-122775715D01*
X100862857Y-122847143D01*
X100791429Y-122918572D01*
X100720000Y-122847143D01*
X100862857Y-122847143D01*
X100077143Y-121061429D02*
X102005714Y-122347143D01*
X100077143Y-119490000D02*
X102005714Y-120775714D01*
X101648571Y-118989999D02*
X100148571Y-118989999D01*
X101648571Y-118347142D02*
X100862857Y-118347142D01*
X100720000Y-118418571D01*
X100648571Y-118561428D01*
X100648571Y-118775713D01*
X100720000Y-118918571D01*
X100791429Y-118989999D01*
X100648571Y-117775713D02*
X101648571Y-117418570D01*
X100648571Y-117061428D01*
X101577143Y-115918571D02*
X101648571Y-116061428D01*
X101648571Y-116347142D01*
X101577143Y-116489999D01*
X101434286Y-116561428D01*
X100862857Y-116561428D01*
X100720000Y-116489999D01*
X100648571Y-116347142D01*
X100648571Y-116061428D01*
X100720000Y-115918571D01*
X100862857Y-115847142D01*
X101005714Y-115847142D01*
X101148571Y-116561428D01*
X100648571Y-115418571D02*
X100648571Y-114847142D01*
X100148571Y-115204285D02*
X101434286Y-115204285D01*
X101577143Y-115132857D01*
X101648571Y-114989999D01*
X101648571Y-114847142D01*
X101577143Y-113775714D02*
X101648571Y-113918571D01*
X101648571Y-114204285D01*
X101577143Y-114347142D01*
X101434286Y-114418571D01*
X100862857Y-114418571D01*
X100720000Y-114347142D01*
X100648571Y-114204285D01*
X100648571Y-113918571D01*
X100720000Y-113775714D01*
X100862857Y-113704285D01*
X101005714Y-113704285D01*
X101148571Y-114418571D01*
X101648571Y-113061428D02*
X100148571Y-113061428D01*
X100720000Y-113061428D02*
X100648571Y-112918571D01*
X100648571Y-112632857D01*
X100720000Y-112490000D01*
X100791429Y-112418571D01*
X100934286Y-112347142D01*
X101362857Y-112347142D01*
X101505714Y-112418571D01*
X101577143Y-112490000D01*
X101648571Y-112632857D01*
X101648571Y-112918571D01*
X101577143Y-113061428D01*
X101648571Y-111489999D02*
X101577143Y-111632857D01*
X101505714Y-111704285D01*
X101362857Y-111775714D01*
X100934286Y-111775714D01*
X100791429Y-111704285D01*
X100720000Y-111632857D01*
X100648571Y-111489999D01*
X100648571Y-111275714D01*
X100720000Y-111132857D01*
X100791429Y-111061428D01*
X100934286Y-110989999D01*
X101362857Y-110989999D01*
X101505714Y-111061428D01*
X101577143Y-111132857D01*
X101648571Y-111275714D01*
X101648571Y-111489999D01*
X101648571Y-110132856D02*
X101577143Y-110275714D01*
X101434286Y-110347142D01*
X100148571Y-110347142D01*
X101648571Y-109347142D02*
X101577143Y-109490000D01*
X101434286Y-109561428D01*
X100148571Y-109561428D01*
X101577143Y-108204286D02*
X101648571Y-108347143D01*
X101648571Y-108632857D01*
X101577143Y-108775714D01*
X101434286Y-108847143D01*
X100862857Y-108847143D01*
X100720000Y-108775714D01*
X100648571Y-108632857D01*
X100648571Y-108347143D01*
X100720000Y-108204286D01*
X100862857Y-108132857D01*
X101005714Y-108132857D01*
X101148571Y-108847143D01*
X101505714Y-107490000D02*
X101577143Y-107418572D01*
X101648571Y-107490000D01*
X101577143Y-107561429D01*
X101505714Y-107490000D01*
X101648571Y-107490000D01*
X101648571Y-106775714D02*
X100148571Y-106775714D01*
X100720000Y-106775714D02*
X100648571Y-106632857D01*
X100648571Y-106347143D01*
X100720000Y-106204286D01*
X100791429Y-106132857D01*
X100934286Y-106061428D01*
X101362857Y-106061428D01*
X101505714Y-106132857D01*
X101577143Y-106204286D01*
X101648571Y-106347143D01*
X101648571Y-106632857D01*
X101577143Y-106775714D01*
X101648571Y-105204285D02*
X101577143Y-105347143D01*
X101434286Y-105418571D01*
X100148571Y-105418571D01*
X101648571Y-104418571D02*
X101577143Y-104561429D01*
X101505714Y-104632857D01*
X101362857Y-104704286D01*
X100934286Y-104704286D01*
X100791429Y-104632857D01*
X100720000Y-104561429D01*
X100648571Y-104418571D01*
X100648571Y-104204286D01*
X100720000Y-104061429D01*
X100791429Y-103990000D01*
X100934286Y-103918571D01*
X101362857Y-103918571D01*
X101505714Y-103990000D01*
X101577143Y-104061429D01*
X101648571Y-104204286D01*
X101648571Y-104418571D01*
X100648571Y-102632857D02*
X101862857Y-102632857D01*
X102005714Y-102704286D01*
X102077143Y-102775714D01*
X102148571Y-102918571D01*
X102148571Y-103132857D01*
X102077143Y-103275714D01*
X101577143Y-102632857D02*
X101648571Y-102775714D01*
X101648571Y-103061428D01*
X101577143Y-103204286D01*
X101505714Y-103275714D01*
X101362857Y-103347143D01*
X100934286Y-103347143D01*
X100791429Y-103275714D01*
X100720000Y-103204286D01*
X100648571Y-103061428D01*
X100648571Y-102775714D01*
X100720000Y-102632857D01*
X101577143Y-101990000D02*
X101648571Y-101847143D01*
X101648571Y-101561428D01*
X101577143Y-101418571D01*
X101434286Y-101347143D01*
X101362857Y-101347143D01*
X101220000Y-101418571D01*
X101148571Y-101561428D01*
X101148571Y-101775714D01*
X101077143Y-101918571D01*
X100934286Y-101990000D01*
X100862857Y-101990000D01*
X100720000Y-101918571D01*
X100648571Y-101775714D01*
X100648571Y-101561428D01*
X100720000Y-101418571D01*
X100648571Y-100704285D02*
X102148571Y-100704285D01*
X100720000Y-100704285D02*
X100648571Y-100561428D01*
X100648571Y-100275714D01*
X100720000Y-100132857D01*
X100791429Y-100061428D01*
X100934286Y-99989999D01*
X101362857Y-99989999D01*
X101505714Y-100061428D01*
X101577143Y-100132857D01*
X101648571Y-100275714D01*
X101648571Y-100561428D01*
X101577143Y-100704285D01*
X101648571Y-99132856D02*
X101577143Y-99275714D01*
X101505714Y-99347142D01*
X101362857Y-99418571D01*
X100934286Y-99418571D01*
X100791429Y-99347142D01*
X100720000Y-99275714D01*
X100648571Y-99132856D01*
X100648571Y-98918571D01*
X100720000Y-98775714D01*
X100791429Y-98704285D01*
X100934286Y-98632856D01*
X101362857Y-98632856D01*
X101505714Y-98704285D01*
X101577143Y-98775714D01*
X101648571Y-98918571D01*
X101648571Y-99132856D01*
X100648571Y-98204285D02*
X100648571Y-97632856D01*
X100148571Y-97989999D02*
X101434286Y-97989999D01*
X101577143Y-97918571D01*
X101648571Y-97775713D01*
X101648571Y-97632856D01*
X101505714Y-97132856D02*
X101577143Y-97061428D01*
X101648571Y-97132856D01*
X101577143Y-97204285D01*
X101505714Y-97132856D01*
X101648571Y-97132856D01*
X101577143Y-95775713D02*
X101648571Y-95918570D01*
X101648571Y-96204284D01*
X101577143Y-96347142D01*
X101505714Y-96418570D01*
X101362857Y-96489999D01*
X100934286Y-96489999D01*
X100791429Y-96418570D01*
X100720000Y-96347142D01*
X100648571Y-96204284D01*
X100648571Y-95918570D01*
X100720000Y-95775713D01*
X101648571Y-94918570D02*
X101577143Y-95061428D01*
X101505714Y-95132856D01*
X101362857Y-95204285D01*
X100934286Y-95204285D01*
X100791429Y-95132856D01*
X100720000Y-95061428D01*
X100648571Y-94918570D01*
X100648571Y-94704285D01*
X100720000Y-94561428D01*
X100791429Y-94489999D01*
X100934286Y-94418570D01*
X101362857Y-94418570D01*
X101505714Y-94489999D01*
X101577143Y-94561428D01*
X101648571Y-94704285D01*
X101648571Y-94918570D01*
X101648571Y-93775713D02*
X100648571Y-93775713D01*
X100791429Y-93775713D02*
X100720000Y-93704285D01*
X100648571Y-93561427D01*
X100648571Y-93347142D01*
X100720000Y-93204285D01*
X100862857Y-93132856D01*
X101648571Y-93132856D01*
X100862857Y-93132856D02*
X100720000Y-93061427D01*
X100648571Y-92918570D01*
X100648571Y-92704285D01*
X100720000Y-92561427D01*
X100862857Y-92489999D01*
X101648571Y-92489999D01*
D12*
X149225000Y-155257500D02*
X149098000Y-155257500D01*
X149225000Y-156527500D02*
X149098000Y-156527500D01*
X144780000Y-156527500D02*
X144907000Y-156527500D01*
X144780000Y-155257500D02*
X144907000Y-155257500D01*
X125730000Y-156527500D02*
X125603000Y-156527500D01*
X125730000Y-155257500D02*
X125603000Y-155257500D01*
X121285000Y-156527500D02*
X121412000Y-156527500D01*
X121285000Y-155257500D02*
X121412000Y-155257500D01*
X102235000Y-155257500D02*
X102108000Y-155257500D01*
X102235000Y-156527500D02*
X102108000Y-156527500D01*
X97790000Y-156527500D02*
X97917000Y-156527500D01*
X97790000Y-155257500D02*
X97917000Y-155257500D01*
X78740000Y-156527500D02*
X78613000Y-156527500D01*
X78740000Y-155257500D02*
X78613000Y-155257500D01*
X74295000Y-156527500D02*
X74422000Y-156527500D01*
X74295000Y-155257500D02*
X74422000Y-155257500D01*
X62166500Y-156527500D02*
X74295000Y-156527500D01*
X62230000Y-155257500D02*
X74295000Y-155257500D01*
X149225000Y-155257500D02*
X161290000Y-155257500D01*
X149225000Y-156527500D02*
X161353500Y-156527500D01*
X125730000Y-156527500D02*
X144780000Y-156527500D01*
X125730000Y-155257500D02*
X144780000Y-155257500D01*
X121285000Y-156527500D02*
X102235000Y-156527500D01*
X102235000Y-155257500D02*
X121285000Y-155257500D01*
X78740000Y-156527500D02*
X97790000Y-156527500D01*
X97790000Y-155257500D02*
X78740000Y-155257500D01*
X74295000Y-155892500D02*
X62230000Y-155892500D01*
X97790000Y-155892500D02*
X78740000Y-155892500D01*
X149225000Y-155892500D02*
X161353500Y-155892500D01*
X125730000Y-155892500D02*
X144780000Y-155892500D01*
X102235000Y-155892500D02*
X121285000Y-155892500D01*
X149225000Y-155575000D02*
X149225000Y-156210000D01*
X144780000Y-156210000D02*
X144780000Y-155575000D01*
X125730000Y-156210000D02*
X125730000Y-155575000D01*
X121285000Y-156210000D02*
X121285000Y-155575000D01*
X102235000Y-155575000D02*
X102235000Y-156210000D01*
X97790000Y-156210000D02*
X97790000Y-155575000D01*
X78740000Y-156210000D02*
X78740000Y-155575000D01*
X74295000Y-156210000D02*
X74295000Y-155575000D01*
X62230000Y-156210000D02*
X74295000Y-156210000D01*
X74295000Y-155575000D02*
X62230000Y-155575000D01*
X78740000Y-156210000D02*
X97790000Y-156210000D01*
X97790000Y-155575000D02*
X78740000Y-155575000D01*
X102235000Y-156210000D02*
X121285000Y-156210000D01*
X121285000Y-155575000D02*
X102235000Y-155575000D01*
X125730000Y-156210000D02*
X144780000Y-156210000D01*
X144780000Y-155575000D02*
X125730000Y-155575000D01*
X149225000Y-156210000D02*
X161290000Y-156210000D01*
X161290000Y-155575000D02*
X149225000Y-155575000D01*
D10*
X145561238Y-156317905D02*
X145561238Y-155517905D01*
X145866000Y-155517905D01*
X145942191Y-155556000D01*
X145980286Y-155594095D01*
X146018381Y-155670286D01*
X146018381Y-155784571D01*
X145980286Y-155860762D01*
X145942191Y-155898857D01*
X145866000Y-155936952D01*
X145561238Y-155936952D01*
X146361238Y-156317905D02*
X146361238Y-155517905D01*
X146742190Y-156317905D02*
X146742190Y-155517905D01*
X147199333Y-156317905D01*
X147199333Y-155517905D01*
X148608857Y-156317905D02*
X148151714Y-156317905D01*
X148380285Y-156317905D02*
X148380285Y-155517905D01*
X148304095Y-155632190D01*
X148227904Y-155708381D01*
X148151714Y-155746476D01*
X74949238Y-156317905D02*
X74949238Y-155517905D01*
X75254000Y-155517905D01*
X75330191Y-155556000D01*
X75368286Y-155594095D01*
X75406381Y-155670286D01*
X75406381Y-155784571D01*
X75368286Y-155860762D01*
X75330191Y-155898857D01*
X75254000Y-155936952D01*
X74949238Y-155936952D01*
X75749238Y-156317905D02*
X75749238Y-155517905D01*
X76130190Y-156317905D02*
X76130190Y-155517905D01*
X76587333Y-156317905D01*
X76587333Y-155517905D01*
X77996857Y-156317905D02*
X77539714Y-156317905D01*
X77768285Y-156317905D02*
X77768285Y-155517905D01*
X77692095Y-155632190D01*
X77615904Y-155708381D01*
X77539714Y-155746476D01*
X121939238Y-156317905D02*
X121939238Y-155517905D01*
X122244000Y-155517905D01*
X122320191Y-155556000D01*
X122358286Y-155594095D01*
X122396381Y-155670286D01*
X122396381Y-155784571D01*
X122358286Y-155860762D01*
X122320191Y-155898857D01*
X122244000Y-155936952D01*
X121939238Y-155936952D01*
X122739238Y-156317905D02*
X122739238Y-155517905D01*
X123120190Y-156317905D02*
X123120190Y-155517905D01*
X123577333Y-156317905D01*
X123577333Y-155517905D01*
X124986857Y-156317905D02*
X124529714Y-156317905D01*
X124758285Y-156317905D02*
X124758285Y-155517905D01*
X124682095Y-155632190D01*
X124605904Y-155708381D01*
X124529714Y-155746476D01*
X98571238Y-156317905D02*
X98571238Y-155517905D01*
X98876000Y-155517905D01*
X98952191Y-155556000D01*
X98990286Y-155594095D01*
X99028381Y-155670286D01*
X99028381Y-155784571D01*
X98990286Y-155860762D01*
X98952191Y-155898857D01*
X98876000Y-155936952D01*
X98571238Y-155936952D01*
X99371238Y-156317905D02*
X99371238Y-155517905D01*
X99752190Y-156317905D02*
X99752190Y-155517905D01*
X100209333Y-156317905D01*
X100209333Y-155517905D01*
X101618857Y-156317905D02*
X101161714Y-156317905D01*
X101390285Y-156317905D02*
X101390285Y-155517905D01*
X101314095Y-155632190D01*
X101237904Y-155708381D01*
X101161714Y-155746476D01*
X67957619Y-67671905D02*
X67690952Y-67290952D01*
X67500476Y-67671905D02*
X67500476Y-66871905D01*
X67805238Y-66871905D01*
X67881429Y-66910000D01*
X67919524Y-66948095D01*
X67957619Y-67024286D01*
X67957619Y-67138571D01*
X67919524Y-67214762D01*
X67881429Y-67252857D01*
X67805238Y-67290952D01*
X67500476Y-67290952D01*
X68224286Y-66871905D02*
X68757619Y-67671905D01*
X68757619Y-66871905D02*
X68224286Y-67671905D01*
X67386190Y-69411905D02*
X67843333Y-69411905D01*
X67614762Y-70211905D02*
X67614762Y-69411905D01*
X68033810Y-69411905D02*
X68567143Y-70211905D01*
X68567143Y-69411905D02*
X68033810Y-70211905D01*
X67500476Y-72751905D02*
X67500476Y-71951905D01*
X67690952Y-71951905D01*
X67805238Y-71990000D01*
X67881429Y-72066190D01*
X67919524Y-72142381D01*
X67957619Y-72294762D01*
X67957619Y-72409048D01*
X67919524Y-72561429D01*
X67881429Y-72637619D01*
X67805238Y-72713810D01*
X67690952Y-72751905D01*
X67500476Y-72751905D01*
X68224286Y-71951905D02*
X68757619Y-71951905D01*
X68414762Y-72751905D01*
X67500476Y-75291905D02*
X67500476Y-74491905D01*
X67690952Y-74491905D01*
X67805238Y-74530000D01*
X67881429Y-74606190D01*
X67919524Y-74682381D01*
X67957619Y-74834762D01*
X67957619Y-74949048D01*
X67919524Y-75101429D01*
X67881429Y-75177619D01*
X67805238Y-75253810D01*
X67690952Y-75291905D01*
X67500476Y-75291905D01*
X68643333Y-74491905D02*
X68490952Y-74491905D01*
X68414762Y-74530000D01*
X68376667Y-74568095D01*
X68300476Y-74682381D01*
X68262381Y-74834762D01*
X68262381Y-75139524D01*
X68300476Y-75215714D01*
X68338571Y-75253810D01*
X68414762Y-75291905D01*
X68567143Y-75291905D01*
X68643333Y-75253810D01*
X68681429Y-75215714D01*
X68719524Y-75139524D01*
X68719524Y-74949048D01*
X68681429Y-74872857D01*
X68643333Y-74834762D01*
X68567143Y-74796667D01*
X68414762Y-74796667D01*
X68338571Y-74834762D01*
X68300476Y-74872857D01*
X68262381Y-74949048D01*
X67500476Y-77831905D02*
X67500476Y-77031905D01*
X67690952Y-77031905D01*
X67805238Y-77070000D01*
X67881429Y-77146190D01*
X67919524Y-77222381D01*
X67957619Y-77374762D01*
X67957619Y-77489048D01*
X67919524Y-77641429D01*
X67881429Y-77717619D01*
X67805238Y-77793810D01*
X67690952Y-77831905D01*
X67500476Y-77831905D01*
X68681429Y-77031905D02*
X68300476Y-77031905D01*
X68262381Y-77412857D01*
X68300476Y-77374762D01*
X68376667Y-77336667D01*
X68567143Y-77336667D01*
X68643333Y-77374762D01*
X68681429Y-77412857D01*
X68719524Y-77489048D01*
X68719524Y-77679524D01*
X68681429Y-77755714D01*
X68643333Y-77793810D01*
X68567143Y-77831905D01*
X68376667Y-77831905D01*
X68300476Y-77793810D01*
X68262381Y-77755714D01*
X67500476Y-80371905D02*
X67500476Y-79571905D01*
X67690952Y-79571905D01*
X67805238Y-79610000D01*
X67881429Y-79686190D01*
X67919524Y-79762381D01*
X67957619Y-79914762D01*
X67957619Y-80029048D01*
X67919524Y-80181429D01*
X67881429Y-80257619D01*
X67805238Y-80333810D01*
X67690952Y-80371905D01*
X67500476Y-80371905D01*
X68643333Y-79838571D02*
X68643333Y-80371905D01*
X68452857Y-79533810D02*
X68262381Y-80105238D01*
X68757619Y-80105238D01*
X67500476Y-82911905D02*
X67500476Y-82111905D01*
X67690952Y-82111905D01*
X67805238Y-82150000D01*
X67881429Y-82226190D01*
X67919524Y-82302381D01*
X67957619Y-82454762D01*
X67957619Y-82569048D01*
X67919524Y-82721429D01*
X67881429Y-82797619D01*
X67805238Y-82873810D01*
X67690952Y-82911905D01*
X67500476Y-82911905D01*
X68224286Y-82111905D02*
X68719524Y-82111905D01*
X68452857Y-82416667D01*
X68567143Y-82416667D01*
X68643333Y-82454762D01*
X68681429Y-82492857D01*
X68719524Y-82569048D01*
X68719524Y-82759524D01*
X68681429Y-82835714D01*
X68643333Y-82873810D01*
X68567143Y-82911905D01*
X68338571Y-82911905D01*
X68262381Y-82873810D01*
X68224286Y-82835714D01*
X67500476Y-85451905D02*
X67500476Y-84651905D01*
X67690952Y-84651905D01*
X67805238Y-84690000D01*
X67881429Y-84766190D01*
X67919524Y-84842381D01*
X67957619Y-84994762D01*
X67957619Y-85109048D01*
X67919524Y-85261429D01*
X67881429Y-85337619D01*
X67805238Y-85413810D01*
X67690952Y-85451905D01*
X67500476Y-85451905D01*
X68262381Y-84728095D02*
X68300476Y-84690000D01*
X68376667Y-84651905D01*
X68567143Y-84651905D01*
X68643333Y-84690000D01*
X68681429Y-84728095D01*
X68719524Y-84804286D01*
X68719524Y-84880476D01*
X68681429Y-84994762D01*
X68224286Y-85451905D01*
X68719524Y-85451905D01*
X67500476Y-87991905D02*
X67500476Y-87191905D01*
X67690952Y-87191905D01*
X67805238Y-87230000D01*
X67881429Y-87306190D01*
X67919524Y-87382381D01*
X67957619Y-87534762D01*
X67957619Y-87649048D01*
X67919524Y-87801429D01*
X67881429Y-87877619D01*
X67805238Y-87953810D01*
X67690952Y-87991905D01*
X67500476Y-87991905D01*
X68719524Y-87991905D02*
X68262381Y-87991905D01*
X68490952Y-87991905D02*
X68490952Y-87191905D01*
X68414762Y-87306190D01*
X68338571Y-87382381D01*
X68262381Y-87420476D01*
X67500476Y-90531905D02*
X67500476Y-89731905D01*
X67690952Y-89731905D01*
X67805238Y-89770000D01*
X67881429Y-89846190D01*
X67919524Y-89922381D01*
X67957619Y-90074762D01*
X67957619Y-90189048D01*
X67919524Y-90341429D01*
X67881429Y-90417619D01*
X67805238Y-90493810D01*
X67690952Y-90531905D01*
X67500476Y-90531905D01*
X68452857Y-89731905D02*
X68529048Y-89731905D01*
X68605238Y-89770000D01*
X68643333Y-89808095D01*
X68681429Y-89884286D01*
X68719524Y-90036667D01*
X68719524Y-90227143D01*
X68681429Y-90379524D01*
X68643333Y-90455714D01*
X68605238Y-90493810D01*
X68529048Y-90531905D01*
X68452857Y-90531905D01*
X68376667Y-90493810D01*
X68338571Y-90455714D01*
X68300476Y-90379524D01*
X68262381Y-90227143D01*
X68262381Y-90036667D01*
X68300476Y-89884286D01*
X68338571Y-89808095D01*
X68376667Y-89770000D01*
X68452857Y-89731905D01*
X67462381Y-93033810D02*
X67576667Y-93071905D01*
X67767143Y-93071905D01*
X67843333Y-93033810D01*
X67881429Y-92995714D01*
X67919524Y-92919524D01*
X67919524Y-92843333D01*
X67881429Y-92767143D01*
X67843333Y-92729048D01*
X67767143Y-92690952D01*
X67614762Y-92652857D01*
X67538571Y-92614762D01*
X67500476Y-92576667D01*
X67462381Y-92500476D01*
X67462381Y-92424286D01*
X67500476Y-92348095D01*
X67538571Y-92310000D01*
X67614762Y-92271905D01*
X67805238Y-92271905D01*
X67919524Y-92310000D01*
X68414762Y-92690952D02*
X68414762Y-93071905D01*
X68148095Y-92271905D02*
X68414762Y-92690952D01*
X68681429Y-92271905D01*
X68948095Y-93071905D02*
X68948095Y-92271905D01*
X69405238Y-93071905D01*
X69405238Y-92271905D01*
X70243333Y-92995714D02*
X70205238Y-93033810D01*
X70090952Y-93071905D01*
X70014762Y-93071905D01*
X69900476Y-93033810D01*
X69824285Y-92957619D01*
X69786190Y-92881429D01*
X69748095Y-92729048D01*
X69748095Y-92614762D01*
X69786190Y-92462381D01*
X69824285Y-92386190D01*
X69900476Y-92310000D01*
X70014762Y-92271905D01*
X70090952Y-92271905D01*
X70205238Y-92310000D01*
X70243333Y-92348095D01*
X67957619Y-95611905D02*
X67690952Y-95230952D01*
X67500476Y-95611905D02*
X67500476Y-94811905D01*
X67805238Y-94811905D01*
X67881429Y-94850000D01*
X67919524Y-94888095D01*
X67957619Y-94964286D01*
X67957619Y-95078571D01*
X67919524Y-95154762D01*
X67881429Y-95192857D01*
X67805238Y-95230952D01*
X67500476Y-95230952D01*
X68300476Y-95611905D02*
X68300476Y-94811905D01*
X68490952Y-94811905D01*
X68605238Y-94850000D01*
X68681429Y-94926190D01*
X68719524Y-95002381D01*
X68757619Y-95154762D01*
X68757619Y-95269048D01*
X68719524Y-95421429D01*
X68681429Y-95497619D01*
X68605238Y-95573810D01*
X68490952Y-95611905D01*
X68300476Y-95611905D01*
X69252857Y-95230952D02*
X69252857Y-95611905D01*
X68986190Y-94811905D02*
X69252857Y-95230952D01*
X69519524Y-94811905D01*
X67957619Y-98151905D02*
X67690952Y-97770952D01*
X67500476Y-98151905D02*
X67500476Y-97351905D01*
X67805238Y-97351905D01*
X67881429Y-97390000D01*
X67919524Y-97428095D01*
X67957619Y-97504286D01*
X67957619Y-97618571D01*
X67919524Y-97694762D01*
X67881429Y-97732857D01*
X67805238Y-97770952D01*
X67500476Y-97770952D01*
X68871905Y-97313810D02*
X68186190Y-98342381D01*
X69062381Y-97351905D02*
X69252857Y-98151905D01*
X69405238Y-97580476D01*
X69557619Y-98151905D01*
X69748095Y-97351905D01*
X68948095Y-97214000D02*
X69862381Y-97214000D01*
X67500476Y-103231905D02*
X67500476Y-102431905D01*
X68338571Y-103231905D02*
X68071904Y-102850952D01*
X67881428Y-103231905D02*
X67881428Y-102431905D01*
X68186190Y-102431905D01*
X68262381Y-102470000D01*
X68300476Y-102508095D01*
X68338571Y-102584286D01*
X68338571Y-102698571D01*
X68300476Y-102774762D01*
X68262381Y-102812857D01*
X68186190Y-102850952D01*
X67881428Y-102850952D01*
X69214762Y-103308095D02*
X69138571Y-103270000D01*
X69062381Y-103193810D01*
X68948095Y-103079524D01*
X68871904Y-103041429D01*
X68795714Y-103041429D01*
X68833809Y-103231905D02*
X68757619Y-103193810D01*
X68681428Y-103117619D01*
X68643333Y-102965238D01*
X68643333Y-102698571D01*
X68681428Y-102546190D01*
X68757619Y-102470000D01*
X68833809Y-102431905D01*
X68986190Y-102431905D01*
X69062381Y-102470000D01*
X69138571Y-102546190D01*
X69176666Y-102698571D01*
X69176666Y-102965238D01*
X69138571Y-103117619D01*
X69062381Y-103193810D01*
X68986190Y-103231905D01*
X68833809Y-103231905D01*
X67310000Y-102294000D02*
X69329047Y-102294000D01*
X67500476Y-105771905D02*
X67500476Y-104971905D01*
X67805238Y-104971905D01*
X67881429Y-105010000D01*
X67919524Y-105048095D01*
X67957619Y-105124286D01*
X67957619Y-105238571D01*
X67919524Y-105314762D01*
X67881429Y-105352857D01*
X67805238Y-105390952D01*
X67500476Y-105390952D01*
X68300476Y-105771905D02*
X68300476Y-104971905D01*
X68643333Y-105771905D02*
X68643333Y-105352857D01*
X68605238Y-105276667D01*
X68529048Y-105238571D01*
X68414762Y-105238571D01*
X68338571Y-105276667D01*
X68300476Y-105314762D01*
X69024286Y-105771905D02*
X69024286Y-105238571D01*
X69024286Y-104971905D02*
X68986191Y-105010000D01*
X69024286Y-105048095D01*
X69062381Y-105010000D01*
X69024286Y-104971905D01*
X69024286Y-105048095D01*
X69557619Y-104971905D02*
X69633810Y-104971905D01*
X69710000Y-105010000D01*
X69748095Y-105048095D01*
X69786191Y-105124286D01*
X69824286Y-105276667D01*
X69824286Y-105467143D01*
X69786191Y-105619524D01*
X69748095Y-105695714D01*
X69710000Y-105733810D01*
X69633810Y-105771905D01*
X69557619Y-105771905D01*
X69481429Y-105733810D01*
X69443333Y-105695714D01*
X69405238Y-105619524D01*
X69367143Y-105467143D01*
X69367143Y-105276667D01*
X69405238Y-105124286D01*
X69443333Y-105048095D01*
X69481429Y-105010000D01*
X69557619Y-104971905D01*
X67957619Y-108311905D02*
X67690952Y-107930952D01*
X67500476Y-108311905D02*
X67500476Y-107511905D01*
X67805238Y-107511905D01*
X67881429Y-107550000D01*
X67919524Y-107588095D01*
X67957619Y-107664286D01*
X67957619Y-107778571D01*
X67919524Y-107854762D01*
X67881429Y-107892857D01*
X67805238Y-107930952D01*
X67500476Y-107930952D01*
X68300476Y-107892857D02*
X68567143Y-107892857D01*
X68681429Y-108311905D02*
X68300476Y-108311905D01*
X68300476Y-107511905D01*
X68681429Y-107511905D01*
X68986191Y-108273810D02*
X69100477Y-108311905D01*
X69290953Y-108311905D01*
X69367143Y-108273810D01*
X69405239Y-108235714D01*
X69443334Y-108159524D01*
X69443334Y-108083333D01*
X69405239Y-108007143D01*
X69367143Y-107969048D01*
X69290953Y-107930952D01*
X69138572Y-107892857D01*
X69062381Y-107854762D01*
X69024286Y-107816667D01*
X68986191Y-107740476D01*
X68986191Y-107664286D01*
X69024286Y-107588095D01*
X69062381Y-107550000D01*
X69138572Y-107511905D01*
X69329048Y-107511905D01*
X69443334Y-107550000D01*
X67462381Y-120783333D02*
X67843333Y-120783333D01*
X67386190Y-121011905D02*
X67652857Y-120211905D01*
X67919524Y-121011905D01*
X68605238Y-121011905D02*
X68148095Y-121011905D01*
X68376666Y-121011905D02*
X68376666Y-120211905D01*
X68300476Y-120326190D01*
X68224285Y-120402381D01*
X68148095Y-120440476D01*
X67462381Y-123323333D02*
X67843333Y-123323333D01*
X67386190Y-123551905D02*
X67652857Y-122751905D01*
X67919524Y-123551905D01*
X68148095Y-122828095D02*
X68186190Y-122790000D01*
X68262381Y-122751905D01*
X68452857Y-122751905D01*
X68529047Y-122790000D01*
X68567143Y-122828095D01*
X68605238Y-122904286D01*
X68605238Y-122980476D01*
X68567143Y-123094762D01*
X68110000Y-123551905D01*
X68605238Y-123551905D01*
X67462381Y-125863333D02*
X67843333Y-125863333D01*
X67386190Y-126091905D02*
X67652857Y-125291905D01*
X67919524Y-126091905D01*
X68110000Y-125291905D02*
X68605238Y-125291905D01*
X68338571Y-125596667D01*
X68452857Y-125596667D01*
X68529047Y-125634762D01*
X68567143Y-125672857D01*
X68605238Y-125749048D01*
X68605238Y-125939524D01*
X68567143Y-126015714D01*
X68529047Y-126053810D01*
X68452857Y-126091905D01*
X68224285Y-126091905D01*
X68148095Y-126053810D01*
X68110000Y-126015714D01*
X67462381Y-128403333D02*
X67843333Y-128403333D01*
X67386190Y-128631905D02*
X67652857Y-127831905D01*
X67919524Y-128631905D01*
X68529047Y-128098571D02*
X68529047Y-128631905D01*
X68338571Y-127793810D02*
X68148095Y-128365238D01*
X68643333Y-128365238D01*
X67462381Y-130943333D02*
X67843333Y-130943333D01*
X67386190Y-131171905D02*
X67652857Y-130371905D01*
X67919524Y-131171905D01*
X68567143Y-130371905D02*
X68186190Y-130371905D01*
X68148095Y-130752857D01*
X68186190Y-130714762D01*
X68262381Y-130676667D01*
X68452857Y-130676667D01*
X68529047Y-130714762D01*
X68567143Y-130752857D01*
X68605238Y-130829048D01*
X68605238Y-131019524D01*
X68567143Y-131095714D01*
X68529047Y-131133810D01*
X68452857Y-131171905D01*
X68262381Y-131171905D01*
X68186190Y-131133810D01*
X68148095Y-131095714D01*
X67462381Y-133483333D02*
X67843333Y-133483333D01*
X67386190Y-133711905D02*
X67652857Y-132911905D01*
X67919524Y-133711905D01*
X68529047Y-132911905D02*
X68376666Y-132911905D01*
X68300476Y-132950000D01*
X68262381Y-132988095D01*
X68186190Y-133102381D01*
X68148095Y-133254762D01*
X68148095Y-133559524D01*
X68186190Y-133635714D01*
X68224285Y-133673810D01*
X68300476Y-133711905D01*
X68452857Y-133711905D01*
X68529047Y-133673810D01*
X68567143Y-133635714D01*
X68605238Y-133559524D01*
X68605238Y-133369048D01*
X68567143Y-133292857D01*
X68529047Y-133254762D01*
X68452857Y-133216667D01*
X68300476Y-133216667D01*
X68224285Y-133254762D01*
X68186190Y-133292857D01*
X68148095Y-133369048D01*
X67462381Y-136023333D02*
X67843333Y-136023333D01*
X67386190Y-136251905D02*
X67652857Y-135451905D01*
X67919524Y-136251905D01*
X68110000Y-135451905D02*
X68643333Y-135451905D01*
X68300476Y-136251905D01*
X84429762Y-141103333D02*
X84810714Y-141103333D01*
X84353571Y-141331905D02*
X84620238Y-140531905D01*
X84886905Y-141331905D01*
X85191666Y-141331905D02*
X85344047Y-141331905D01*
X85420238Y-141293810D01*
X85458333Y-141255714D01*
X85534524Y-141141429D01*
X85572619Y-140989048D01*
X85572619Y-140684286D01*
X85534524Y-140608095D01*
X85496428Y-140570000D01*
X85420238Y-140531905D01*
X85267857Y-140531905D01*
X85191666Y-140570000D01*
X85153571Y-140608095D01*
X85115476Y-140684286D01*
X85115476Y-140874762D01*
X85153571Y-140950952D01*
X85191666Y-140989048D01*
X85267857Y-141027143D01*
X85420238Y-141027143D01*
X85496428Y-140989048D01*
X85534524Y-140950952D01*
X85572619Y-140874762D01*
X67462381Y-138563333D02*
X67843333Y-138563333D01*
X67386190Y-138791905D02*
X67652857Y-137991905D01*
X67919524Y-138791905D01*
X68300476Y-138334762D02*
X68224285Y-138296667D01*
X68186190Y-138258571D01*
X68148095Y-138182381D01*
X68148095Y-138144286D01*
X68186190Y-138068095D01*
X68224285Y-138030000D01*
X68300476Y-137991905D01*
X68452857Y-137991905D01*
X68529047Y-138030000D01*
X68567143Y-138068095D01*
X68605238Y-138144286D01*
X68605238Y-138182381D01*
X68567143Y-138258571D01*
X68529047Y-138296667D01*
X68452857Y-138334762D01*
X68300476Y-138334762D01*
X68224285Y-138372857D01*
X68186190Y-138410952D01*
X68148095Y-138487143D01*
X68148095Y-138639524D01*
X68186190Y-138715714D01*
X68224285Y-138753810D01*
X68300476Y-138791905D01*
X68452857Y-138791905D01*
X68529047Y-138753810D01*
X68567143Y-138715714D01*
X68605238Y-138639524D01*
X68605238Y-138487143D01*
X68567143Y-138410952D01*
X68529047Y-138372857D01*
X68452857Y-138334762D01*
X67462381Y-143643333D02*
X67843333Y-143643333D01*
X67386190Y-143871905D02*
X67652857Y-143071905D01*
X67919524Y-143871905D01*
X68605238Y-143871905D02*
X68148095Y-143871905D01*
X68376666Y-143871905D02*
X68376666Y-143071905D01*
X68300476Y-143186190D01*
X68224285Y-143262381D01*
X68148095Y-143300476D01*
X69100476Y-143071905D02*
X69176667Y-143071905D01*
X69252857Y-143110000D01*
X69290952Y-143148095D01*
X69329048Y-143224286D01*
X69367143Y-143376667D01*
X69367143Y-143567143D01*
X69329048Y-143719524D01*
X69290952Y-143795714D01*
X69252857Y-143833810D01*
X69176667Y-143871905D01*
X69100476Y-143871905D01*
X69024286Y-143833810D01*
X68986190Y-143795714D01*
X68948095Y-143719524D01*
X68910000Y-143567143D01*
X68910000Y-143376667D01*
X68948095Y-143224286D01*
X68986190Y-143148095D01*
X69024286Y-143110000D01*
X69100476Y-143071905D01*
X67462381Y-146183333D02*
X67843333Y-146183333D01*
X67386190Y-146411905D02*
X67652857Y-145611905D01*
X67919524Y-146411905D01*
X68605238Y-146411905D02*
X68148095Y-146411905D01*
X68376666Y-146411905D02*
X68376666Y-145611905D01*
X68300476Y-145726190D01*
X68224285Y-145802381D01*
X68148095Y-145840476D01*
X69367143Y-146411905D02*
X68910000Y-146411905D01*
X69138571Y-146411905D02*
X69138571Y-145611905D01*
X69062381Y-145726190D01*
X68986190Y-145802381D01*
X68910000Y-145840476D01*
X67462381Y-148723333D02*
X67843333Y-148723333D01*
X67386190Y-148951905D02*
X67652857Y-148151905D01*
X67919524Y-148951905D01*
X68605238Y-148951905D02*
X68148095Y-148951905D01*
X68376666Y-148951905D02*
X68376666Y-148151905D01*
X68300476Y-148266190D01*
X68224285Y-148342381D01*
X68148095Y-148380476D01*
X68910000Y-148228095D02*
X68948095Y-148190000D01*
X69024286Y-148151905D01*
X69214762Y-148151905D01*
X69290952Y-148190000D01*
X69329048Y-148228095D01*
X69367143Y-148304286D01*
X69367143Y-148380476D01*
X69329048Y-148494762D01*
X68871905Y-148951905D01*
X69367143Y-148951905D01*
X83667857Y-153803333D02*
X84048809Y-153803333D01*
X83591666Y-154031905D02*
X83858333Y-153231905D01*
X84125000Y-154031905D01*
X84810714Y-154031905D02*
X84353571Y-154031905D01*
X84582142Y-154031905D02*
X84582142Y-153231905D01*
X84505952Y-153346190D01*
X84429761Y-153422381D01*
X84353571Y-153460476D01*
X85496428Y-153498571D02*
X85496428Y-154031905D01*
X85305952Y-153193810D02*
X85115476Y-153765238D01*
X85610714Y-153765238D01*
X83667857Y-151263333D02*
X84048809Y-151263333D01*
X83591666Y-151491905D02*
X83858333Y-150691905D01*
X84125000Y-151491905D01*
X84810714Y-151491905D02*
X84353571Y-151491905D01*
X84582142Y-151491905D02*
X84582142Y-150691905D01*
X84505952Y-150806190D01*
X84429761Y-150882381D01*
X84353571Y-150920476D01*
X85077381Y-150691905D02*
X85572619Y-150691905D01*
X85305952Y-150996667D01*
X85420238Y-150996667D01*
X85496428Y-151034762D01*
X85534524Y-151072857D01*
X85572619Y-151149048D01*
X85572619Y-151339524D01*
X85534524Y-151415714D01*
X85496428Y-151453810D01*
X85420238Y-151491905D01*
X85191666Y-151491905D01*
X85115476Y-151453810D01*
X85077381Y-151415714D01*
X83667857Y-148723333D02*
X84048809Y-148723333D01*
X83591666Y-148951905D02*
X83858333Y-148151905D01*
X84125000Y-148951905D01*
X84810714Y-148951905D02*
X84353571Y-148951905D01*
X84582142Y-148951905D02*
X84582142Y-148151905D01*
X84505952Y-148266190D01*
X84429761Y-148342381D01*
X84353571Y-148380476D01*
X85115476Y-148228095D02*
X85153571Y-148190000D01*
X85229762Y-148151905D01*
X85420238Y-148151905D01*
X85496428Y-148190000D01*
X85534524Y-148228095D01*
X85572619Y-148304286D01*
X85572619Y-148380476D01*
X85534524Y-148494762D01*
X85077381Y-148951905D01*
X85572619Y-148951905D01*
X83667857Y-146183333D02*
X84048809Y-146183333D01*
X83591666Y-146411905D02*
X83858333Y-145611905D01*
X84125000Y-146411905D01*
X84810714Y-146411905D02*
X84353571Y-146411905D01*
X84582142Y-146411905D02*
X84582142Y-145611905D01*
X84505952Y-145726190D01*
X84429761Y-145802381D01*
X84353571Y-145840476D01*
X85572619Y-146411905D02*
X85115476Y-146411905D01*
X85344047Y-146411905D02*
X85344047Y-145611905D01*
X85267857Y-145726190D01*
X85191666Y-145802381D01*
X85115476Y-145840476D01*
X83667857Y-143643333D02*
X84048809Y-143643333D01*
X83591666Y-143871905D02*
X83858333Y-143071905D01*
X84125000Y-143871905D01*
X84810714Y-143871905D02*
X84353571Y-143871905D01*
X84582142Y-143871905D02*
X84582142Y-143071905D01*
X84505952Y-143186190D01*
X84429761Y-143262381D01*
X84353571Y-143300476D01*
X85305952Y-143071905D02*
X85382143Y-143071905D01*
X85458333Y-143110000D01*
X85496428Y-143148095D01*
X85534524Y-143224286D01*
X85572619Y-143376667D01*
X85572619Y-143567143D01*
X85534524Y-143719524D01*
X85496428Y-143795714D01*
X85458333Y-143833810D01*
X85382143Y-143871905D01*
X85305952Y-143871905D01*
X85229762Y-143833810D01*
X85191666Y-143795714D01*
X85153571Y-143719524D01*
X85115476Y-143567143D01*
X85115476Y-143376667D01*
X85153571Y-143224286D01*
X85191666Y-143148095D01*
X85229762Y-143110000D01*
X85305952Y-143071905D01*
X67462381Y-141103333D02*
X67843333Y-141103333D01*
X67386190Y-141331905D02*
X67652857Y-140531905D01*
X67919524Y-141331905D01*
X68224285Y-141331905D02*
X68376666Y-141331905D01*
X68452857Y-141293810D01*
X68490952Y-141255714D01*
X68567143Y-141141429D01*
X68605238Y-140989048D01*
X68605238Y-140684286D01*
X68567143Y-140608095D01*
X68529047Y-140570000D01*
X68452857Y-140531905D01*
X68300476Y-140531905D01*
X68224285Y-140570000D01*
X68186190Y-140608095D01*
X68148095Y-140684286D01*
X68148095Y-140874762D01*
X68186190Y-140950952D01*
X68224285Y-140989048D01*
X68300476Y-141027143D01*
X68452857Y-141027143D01*
X68529047Y-140989048D01*
X68567143Y-140950952D01*
X68605238Y-140874762D01*
X84429762Y-138563333D02*
X84810714Y-138563333D01*
X84353571Y-138791905D02*
X84620238Y-137991905D01*
X84886905Y-138791905D01*
X85267857Y-138334762D02*
X85191666Y-138296667D01*
X85153571Y-138258571D01*
X85115476Y-138182381D01*
X85115476Y-138144286D01*
X85153571Y-138068095D01*
X85191666Y-138030000D01*
X85267857Y-137991905D01*
X85420238Y-137991905D01*
X85496428Y-138030000D01*
X85534524Y-138068095D01*
X85572619Y-138144286D01*
X85572619Y-138182381D01*
X85534524Y-138258571D01*
X85496428Y-138296667D01*
X85420238Y-138334762D01*
X85267857Y-138334762D01*
X85191666Y-138372857D01*
X85153571Y-138410952D01*
X85115476Y-138487143D01*
X85115476Y-138639524D01*
X85153571Y-138715714D01*
X85191666Y-138753810D01*
X85267857Y-138791905D01*
X85420238Y-138791905D01*
X85496428Y-138753810D01*
X85534524Y-138715714D01*
X85572619Y-138639524D01*
X85572619Y-138487143D01*
X85534524Y-138410952D01*
X85496428Y-138372857D01*
X85420238Y-138334762D01*
X84429762Y-136023333D02*
X84810714Y-136023333D01*
X84353571Y-136251905D02*
X84620238Y-135451905D01*
X84886905Y-136251905D01*
X85077381Y-135451905D02*
X85610714Y-135451905D01*
X85267857Y-136251905D01*
X84429762Y-133483333D02*
X84810714Y-133483333D01*
X84353571Y-133711905D02*
X84620238Y-132911905D01*
X84886905Y-133711905D01*
X85496428Y-132911905D02*
X85344047Y-132911905D01*
X85267857Y-132950000D01*
X85229762Y-132988095D01*
X85153571Y-133102381D01*
X85115476Y-133254762D01*
X85115476Y-133559524D01*
X85153571Y-133635714D01*
X85191666Y-133673810D01*
X85267857Y-133711905D01*
X85420238Y-133711905D01*
X85496428Y-133673810D01*
X85534524Y-133635714D01*
X85572619Y-133559524D01*
X85572619Y-133369048D01*
X85534524Y-133292857D01*
X85496428Y-133254762D01*
X85420238Y-133216667D01*
X85267857Y-133216667D01*
X85191666Y-133254762D01*
X85153571Y-133292857D01*
X85115476Y-133369048D01*
X84429762Y-130943333D02*
X84810714Y-130943333D01*
X84353571Y-131171905D02*
X84620238Y-130371905D01*
X84886905Y-131171905D01*
X85534524Y-130371905D02*
X85153571Y-130371905D01*
X85115476Y-130752857D01*
X85153571Y-130714762D01*
X85229762Y-130676667D01*
X85420238Y-130676667D01*
X85496428Y-130714762D01*
X85534524Y-130752857D01*
X85572619Y-130829048D01*
X85572619Y-131019524D01*
X85534524Y-131095714D01*
X85496428Y-131133810D01*
X85420238Y-131171905D01*
X85229762Y-131171905D01*
X85153571Y-131133810D01*
X85115476Y-131095714D01*
X84429762Y-128403333D02*
X84810714Y-128403333D01*
X84353571Y-128631905D02*
X84620238Y-127831905D01*
X84886905Y-128631905D01*
X85496428Y-128098571D02*
X85496428Y-128631905D01*
X85305952Y-127793810D02*
X85115476Y-128365238D01*
X85610714Y-128365238D01*
X84429762Y-125863333D02*
X84810714Y-125863333D01*
X84353571Y-126091905D02*
X84620238Y-125291905D01*
X84886905Y-126091905D01*
X85077381Y-125291905D02*
X85572619Y-125291905D01*
X85305952Y-125596667D01*
X85420238Y-125596667D01*
X85496428Y-125634762D01*
X85534524Y-125672857D01*
X85572619Y-125749048D01*
X85572619Y-125939524D01*
X85534524Y-126015714D01*
X85496428Y-126053810D01*
X85420238Y-126091905D01*
X85191666Y-126091905D01*
X85115476Y-126053810D01*
X85077381Y-126015714D01*
X84429762Y-123323333D02*
X84810714Y-123323333D01*
X84353571Y-123551905D02*
X84620238Y-122751905D01*
X84886905Y-123551905D01*
X85115476Y-122828095D02*
X85153571Y-122790000D01*
X85229762Y-122751905D01*
X85420238Y-122751905D01*
X85496428Y-122790000D01*
X85534524Y-122828095D01*
X85572619Y-122904286D01*
X85572619Y-122980476D01*
X85534524Y-123094762D01*
X85077381Y-123551905D01*
X85572619Y-123551905D01*
X84429762Y-120783333D02*
X84810714Y-120783333D01*
X84353571Y-121011905D02*
X84620238Y-120211905D01*
X84886905Y-121011905D01*
X85572619Y-121011905D02*
X85115476Y-121011905D01*
X85344047Y-121011905D02*
X85344047Y-120211905D01*
X85267857Y-120326190D01*
X85191666Y-120402381D01*
X85115476Y-120440476D01*
X84429762Y-118243333D02*
X84810714Y-118243333D01*
X84353571Y-118471905D02*
X84620238Y-117671905D01*
X84886905Y-118471905D01*
X85305952Y-117671905D02*
X85382143Y-117671905D01*
X85458333Y-117710000D01*
X85496428Y-117748095D01*
X85534524Y-117824286D01*
X85572619Y-117976667D01*
X85572619Y-118167143D01*
X85534524Y-118319524D01*
X85496428Y-118395714D01*
X85458333Y-118433810D01*
X85382143Y-118471905D01*
X85305952Y-118471905D01*
X85229762Y-118433810D01*
X85191666Y-118395714D01*
X85153571Y-118319524D01*
X85115476Y-118167143D01*
X85115476Y-117976667D01*
X85153571Y-117824286D01*
X85191666Y-117748095D01*
X85229762Y-117710000D01*
X85305952Y-117671905D01*
X130772143Y-65131905D02*
X130772143Y-64331905D01*
X131229286Y-65131905D01*
X131229286Y-64331905D01*
X131610238Y-65131905D02*
X131610238Y-64331905D01*
X131876905Y-64903333D01*
X132143572Y-64331905D01*
X132143572Y-65131905D01*
X132524524Y-65131905D02*
X132524524Y-64331905D01*
X130581667Y-64194000D02*
X132715000Y-64194000D01*
X131800714Y-67671905D02*
X131534047Y-67290952D01*
X131343571Y-67671905D02*
X131343571Y-66871905D01*
X131648333Y-66871905D01*
X131724524Y-66910000D01*
X131762619Y-66948095D01*
X131800714Y-67024286D01*
X131800714Y-67138571D01*
X131762619Y-67214762D01*
X131724524Y-67252857D01*
X131648333Y-67290952D01*
X131343571Y-67290952D01*
X132067381Y-66871905D02*
X132600714Y-67671905D01*
X132600714Y-66871905D02*
X132067381Y-67671905D01*
X131419761Y-69411905D02*
X131876904Y-69411905D01*
X131648333Y-70211905D02*
X131648333Y-69411905D01*
X132067381Y-69411905D02*
X132600714Y-70211905D01*
X132600714Y-69411905D02*
X132067381Y-70211905D01*
X131343571Y-72751905D02*
X131343571Y-71951905D01*
X131534047Y-71951905D01*
X131648333Y-71990000D01*
X131724524Y-72066190D01*
X131762619Y-72142381D01*
X131800714Y-72294762D01*
X131800714Y-72409048D01*
X131762619Y-72561429D01*
X131724524Y-72637619D01*
X131648333Y-72713810D01*
X131534047Y-72751905D01*
X131343571Y-72751905D01*
X132067381Y-71951905D02*
X132600714Y-71951905D01*
X132257857Y-72751905D01*
X131343571Y-75291905D02*
X131343571Y-74491905D01*
X131534047Y-74491905D01*
X131648333Y-74530000D01*
X131724524Y-74606190D01*
X131762619Y-74682381D01*
X131800714Y-74834762D01*
X131800714Y-74949048D01*
X131762619Y-75101429D01*
X131724524Y-75177619D01*
X131648333Y-75253810D01*
X131534047Y-75291905D01*
X131343571Y-75291905D01*
X132486428Y-74491905D02*
X132334047Y-74491905D01*
X132257857Y-74530000D01*
X132219762Y-74568095D01*
X132143571Y-74682381D01*
X132105476Y-74834762D01*
X132105476Y-75139524D01*
X132143571Y-75215714D01*
X132181666Y-75253810D01*
X132257857Y-75291905D01*
X132410238Y-75291905D01*
X132486428Y-75253810D01*
X132524524Y-75215714D01*
X132562619Y-75139524D01*
X132562619Y-74949048D01*
X132524524Y-74872857D01*
X132486428Y-74834762D01*
X132410238Y-74796667D01*
X132257857Y-74796667D01*
X132181666Y-74834762D01*
X132143571Y-74872857D01*
X132105476Y-74949048D01*
X131343571Y-77831905D02*
X131343571Y-77031905D01*
X131534047Y-77031905D01*
X131648333Y-77070000D01*
X131724524Y-77146190D01*
X131762619Y-77222381D01*
X131800714Y-77374762D01*
X131800714Y-77489048D01*
X131762619Y-77641429D01*
X131724524Y-77717619D01*
X131648333Y-77793810D01*
X131534047Y-77831905D01*
X131343571Y-77831905D01*
X132524524Y-77031905D02*
X132143571Y-77031905D01*
X132105476Y-77412857D01*
X132143571Y-77374762D01*
X132219762Y-77336667D01*
X132410238Y-77336667D01*
X132486428Y-77374762D01*
X132524524Y-77412857D01*
X132562619Y-77489048D01*
X132562619Y-77679524D01*
X132524524Y-77755714D01*
X132486428Y-77793810D01*
X132410238Y-77831905D01*
X132219762Y-77831905D01*
X132143571Y-77793810D01*
X132105476Y-77755714D01*
X131343571Y-80371905D02*
X131343571Y-79571905D01*
X131534047Y-79571905D01*
X131648333Y-79610000D01*
X131724524Y-79686190D01*
X131762619Y-79762381D01*
X131800714Y-79914762D01*
X131800714Y-80029048D01*
X131762619Y-80181429D01*
X131724524Y-80257619D01*
X131648333Y-80333810D01*
X131534047Y-80371905D01*
X131343571Y-80371905D01*
X132486428Y-79838571D02*
X132486428Y-80371905D01*
X132295952Y-79533810D02*
X132105476Y-80105238D01*
X132600714Y-80105238D01*
X131343571Y-82911905D02*
X131343571Y-82111905D01*
X131534047Y-82111905D01*
X131648333Y-82150000D01*
X131724524Y-82226190D01*
X131762619Y-82302381D01*
X131800714Y-82454762D01*
X131800714Y-82569048D01*
X131762619Y-82721429D01*
X131724524Y-82797619D01*
X131648333Y-82873810D01*
X131534047Y-82911905D01*
X131343571Y-82911905D01*
X132067381Y-82111905D02*
X132562619Y-82111905D01*
X132295952Y-82416667D01*
X132410238Y-82416667D01*
X132486428Y-82454762D01*
X132524524Y-82492857D01*
X132562619Y-82569048D01*
X132562619Y-82759524D01*
X132524524Y-82835714D01*
X132486428Y-82873810D01*
X132410238Y-82911905D01*
X132181666Y-82911905D01*
X132105476Y-82873810D01*
X132067381Y-82835714D01*
X131343571Y-85451905D02*
X131343571Y-84651905D01*
X131534047Y-84651905D01*
X131648333Y-84690000D01*
X131724524Y-84766190D01*
X131762619Y-84842381D01*
X131800714Y-84994762D01*
X131800714Y-85109048D01*
X131762619Y-85261429D01*
X131724524Y-85337619D01*
X131648333Y-85413810D01*
X131534047Y-85451905D01*
X131343571Y-85451905D01*
X132105476Y-84728095D02*
X132143571Y-84690000D01*
X132219762Y-84651905D01*
X132410238Y-84651905D01*
X132486428Y-84690000D01*
X132524524Y-84728095D01*
X132562619Y-84804286D01*
X132562619Y-84880476D01*
X132524524Y-84994762D01*
X132067381Y-85451905D01*
X132562619Y-85451905D01*
X131343571Y-87991905D02*
X131343571Y-87191905D01*
X131534047Y-87191905D01*
X131648333Y-87230000D01*
X131724524Y-87306190D01*
X131762619Y-87382381D01*
X131800714Y-87534762D01*
X131800714Y-87649048D01*
X131762619Y-87801429D01*
X131724524Y-87877619D01*
X131648333Y-87953810D01*
X131534047Y-87991905D01*
X131343571Y-87991905D01*
X132562619Y-87991905D02*
X132105476Y-87991905D01*
X132334047Y-87991905D02*
X132334047Y-87191905D01*
X132257857Y-87306190D01*
X132181666Y-87382381D01*
X132105476Y-87420476D01*
X131343571Y-90531905D02*
X131343571Y-89731905D01*
X131534047Y-89731905D01*
X131648333Y-89770000D01*
X131724524Y-89846190D01*
X131762619Y-89922381D01*
X131800714Y-90074762D01*
X131800714Y-90189048D01*
X131762619Y-90341429D01*
X131724524Y-90417619D01*
X131648333Y-90493810D01*
X131534047Y-90531905D01*
X131343571Y-90531905D01*
X132295952Y-89731905D02*
X132372143Y-89731905D01*
X132448333Y-89770000D01*
X132486428Y-89808095D01*
X132524524Y-89884286D01*
X132562619Y-90036667D01*
X132562619Y-90227143D01*
X132524524Y-90379524D01*
X132486428Y-90455714D01*
X132448333Y-90493810D01*
X132372143Y-90531905D01*
X132295952Y-90531905D01*
X132219762Y-90493810D01*
X132181666Y-90455714D01*
X132143571Y-90379524D01*
X132105476Y-90227143D01*
X132105476Y-90036667D01*
X132143571Y-89884286D01*
X132181666Y-89808095D01*
X132219762Y-89770000D01*
X132295952Y-89731905D01*
X129781667Y-93033810D02*
X129895953Y-93071905D01*
X130086429Y-93071905D01*
X130162619Y-93033810D01*
X130200715Y-92995714D01*
X130238810Y-92919524D01*
X130238810Y-92843333D01*
X130200715Y-92767143D01*
X130162619Y-92729048D01*
X130086429Y-92690952D01*
X129934048Y-92652857D01*
X129857857Y-92614762D01*
X129819762Y-92576667D01*
X129781667Y-92500476D01*
X129781667Y-92424286D01*
X129819762Y-92348095D01*
X129857857Y-92310000D01*
X129934048Y-92271905D01*
X130124524Y-92271905D01*
X130238810Y-92310000D01*
X130734048Y-92690952D02*
X130734048Y-93071905D01*
X130467381Y-92271905D02*
X130734048Y-92690952D01*
X131000715Y-92271905D01*
X131267381Y-93071905D02*
X131267381Y-92271905D01*
X131724524Y-93071905D01*
X131724524Y-92271905D01*
X132562619Y-92995714D02*
X132524524Y-93033810D01*
X132410238Y-93071905D01*
X132334048Y-93071905D01*
X132219762Y-93033810D01*
X132143571Y-92957619D01*
X132105476Y-92881429D01*
X132067381Y-92729048D01*
X132067381Y-92614762D01*
X132105476Y-92462381D01*
X132143571Y-92386190D01*
X132219762Y-92310000D01*
X132334048Y-92271905D01*
X132410238Y-92271905D01*
X132524524Y-92310000D01*
X132562619Y-92348095D01*
X154571905Y-95611905D02*
X154305238Y-95230952D01*
X154114762Y-95611905D02*
X154114762Y-94811905D01*
X154419524Y-94811905D01*
X154495715Y-94850000D01*
X154533810Y-94888095D01*
X154571905Y-94964286D01*
X154571905Y-95078571D01*
X154533810Y-95154762D01*
X154495715Y-95192857D01*
X154419524Y-95230952D01*
X154114762Y-95230952D01*
X154914762Y-95611905D02*
X154914762Y-94811905D01*
X155105238Y-94811905D01*
X155219524Y-94850000D01*
X155295715Y-94926190D01*
X155333810Y-95002381D01*
X155371905Y-95154762D01*
X155371905Y-95269048D01*
X155333810Y-95421429D01*
X155295715Y-95497619D01*
X155219524Y-95573810D01*
X155105238Y-95611905D01*
X154914762Y-95611905D01*
X155867143Y-95230952D02*
X155867143Y-95611905D01*
X155600476Y-94811905D02*
X155867143Y-95230952D01*
X156133810Y-94811905D01*
X131076905Y-95611905D02*
X130810238Y-95230952D01*
X130619762Y-95611905D02*
X130619762Y-94811905D01*
X130924524Y-94811905D01*
X131000715Y-94850000D01*
X131038810Y-94888095D01*
X131076905Y-94964286D01*
X131076905Y-95078571D01*
X131038810Y-95154762D01*
X131000715Y-95192857D01*
X130924524Y-95230952D01*
X130619762Y-95230952D01*
X131419762Y-95611905D02*
X131419762Y-94811905D01*
X131610238Y-94811905D01*
X131724524Y-94850000D01*
X131800715Y-94926190D01*
X131838810Y-95002381D01*
X131876905Y-95154762D01*
X131876905Y-95269048D01*
X131838810Y-95421429D01*
X131800715Y-95497619D01*
X131724524Y-95573810D01*
X131610238Y-95611905D01*
X131419762Y-95611905D01*
X132372143Y-95230952D02*
X132372143Y-95611905D01*
X132105476Y-94811905D02*
X132372143Y-95230952D01*
X132638810Y-94811905D01*
X154305238Y-98151905D02*
X154038571Y-97770952D01*
X153848095Y-98151905D02*
X153848095Y-97351905D01*
X154152857Y-97351905D01*
X154229048Y-97390000D01*
X154267143Y-97428095D01*
X154305238Y-97504286D01*
X154305238Y-97618571D01*
X154267143Y-97694762D01*
X154229048Y-97732857D01*
X154152857Y-97770952D01*
X153848095Y-97770952D01*
X155219524Y-97313810D02*
X154533809Y-98342381D01*
X155410000Y-97351905D02*
X155600476Y-98151905D01*
X155752857Y-97580476D01*
X155905238Y-98151905D01*
X156095714Y-97351905D01*
X155295714Y-97214000D02*
X156210000Y-97214000D01*
X130810238Y-98151905D02*
X130543571Y-97770952D01*
X130353095Y-98151905D02*
X130353095Y-97351905D01*
X130657857Y-97351905D01*
X130734048Y-97390000D01*
X130772143Y-97428095D01*
X130810238Y-97504286D01*
X130810238Y-97618571D01*
X130772143Y-97694762D01*
X130734048Y-97732857D01*
X130657857Y-97770952D01*
X130353095Y-97770952D01*
X131724524Y-97313810D02*
X131038809Y-98342381D01*
X131915000Y-97351905D02*
X132105476Y-98151905D01*
X132257857Y-97580476D01*
X132410238Y-98151905D01*
X132600714Y-97351905D01*
X131800714Y-97214000D02*
X132715000Y-97214000D01*
X83782143Y-65131905D02*
X83782143Y-64331905D01*
X84239286Y-65131905D01*
X84239286Y-64331905D01*
X84620238Y-65131905D02*
X84620238Y-64331905D01*
X84886905Y-64903333D01*
X85153572Y-64331905D01*
X85153572Y-65131905D01*
X85534524Y-65131905D02*
X85534524Y-64331905D01*
X83591667Y-64194000D02*
X85725000Y-64194000D01*
X84810714Y-67671905D02*
X84544047Y-67290952D01*
X84353571Y-67671905D02*
X84353571Y-66871905D01*
X84658333Y-66871905D01*
X84734524Y-66910000D01*
X84772619Y-66948095D01*
X84810714Y-67024286D01*
X84810714Y-67138571D01*
X84772619Y-67214762D01*
X84734524Y-67252857D01*
X84658333Y-67290952D01*
X84353571Y-67290952D01*
X85077381Y-66871905D02*
X85610714Y-67671905D01*
X85610714Y-66871905D02*
X85077381Y-67671905D01*
X84429761Y-69411905D02*
X84886904Y-69411905D01*
X84658333Y-70211905D02*
X84658333Y-69411905D01*
X85077381Y-69411905D02*
X85610714Y-70211905D01*
X85610714Y-69411905D02*
X85077381Y-70211905D01*
X84353571Y-72751905D02*
X84353571Y-71951905D01*
X84544047Y-71951905D01*
X84658333Y-71990000D01*
X84734524Y-72066190D01*
X84772619Y-72142381D01*
X84810714Y-72294762D01*
X84810714Y-72409048D01*
X84772619Y-72561429D01*
X84734524Y-72637619D01*
X84658333Y-72713810D01*
X84544047Y-72751905D01*
X84353571Y-72751905D01*
X85077381Y-71951905D02*
X85610714Y-71951905D01*
X85267857Y-72751905D01*
X84353571Y-75291905D02*
X84353571Y-74491905D01*
X84544047Y-74491905D01*
X84658333Y-74530000D01*
X84734524Y-74606190D01*
X84772619Y-74682381D01*
X84810714Y-74834762D01*
X84810714Y-74949048D01*
X84772619Y-75101429D01*
X84734524Y-75177619D01*
X84658333Y-75253810D01*
X84544047Y-75291905D01*
X84353571Y-75291905D01*
X85496428Y-74491905D02*
X85344047Y-74491905D01*
X85267857Y-74530000D01*
X85229762Y-74568095D01*
X85153571Y-74682381D01*
X85115476Y-74834762D01*
X85115476Y-75139524D01*
X85153571Y-75215714D01*
X85191666Y-75253810D01*
X85267857Y-75291905D01*
X85420238Y-75291905D01*
X85496428Y-75253810D01*
X85534524Y-75215714D01*
X85572619Y-75139524D01*
X85572619Y-74949048D01*
X85534524Y-74872857D01*
X85496428Y-74834762D01*
X85420238Y-74796667D01*
X85267857Y-74796667D01*
X85191666Y-74834762D01*
X85153571Y-74872857D01*
X85115476Y-74949048D01*
X84353571Y-77831905D02*
X84353571Y-77031905D01*
X84544047Y-77031905D01*
X84658333Y-77070000D01*
X84734524Y-77146190D01*
X84772619Y-77222381D01*
X84810714Y-77374762D01*
X84810714Y-77489048D01*
X84772619Y-77641429D01*
X84734524Y-77717619D01*
X84658333Y-77793810D01*
X84544047Y-77831905D01*
X84353571Y-77831905D01*
X85534524Y-77031905D02*
X85153571Y-77031905D01*
X85115476Y-77412857D01*
X85153571Y-77374762D01*
X85229762Y-77336667D01*
X85420238Y-77336667D01*
X85496428Y-77374762D01*
X85534524Y-77412857D01*
X85572619Y-77489048D01*
X85572619Y-77679524D01*
X85534524Y-77755714D01*
X85496428Y-77793810D01*
X85420238Y-77831905D01*
X85229762Y-77831905D01*
X85153571Y-77793810D01*
X85115476Y-77755714D01*
X84353571Y-80371905D02*
X84353571Y-79571905D01*
X84544047Y-79571905D01*
X84658333Y-79610000D01*
X84734524Y-79686190D01*
X84772619Y-79762381D01*
X84810714Y-79914762D01*
X84810714Y-80029048D01*
X84772619Y-80181429D01*
X84734524Y-80257619D01*
X84658333Y-80333810D01*
X84544047Y-80371905D01*
X84353571Y-80371905D01*
X85496428Y-79838571D02*
X85496428Y-80371905D01*
X85305952Y-79533810D02*
X85115476Y-80105238D01*
X85610714Y-80105238D01*
X84353571Y-82911905D02*
X84353571Y-82111905D01*
X84544047Y-82111905D01*
X84658333Y-82150000D01*
X84734524Y-82226190D01*
X84772619Y-82302381D01*
X84810714Y-82454762D01*
X84810714Y-82569048D01*
X84772619Y-82721429D01*
X84734524Y-82797619D01*
X84658333Y-82873810D01*
X84544047Y-82911905D01*
X84353571Y-82911905D01*
X85077381Y-82111905D02*
X85572619Y-82111905D01*
X85305952Y-82416667D01*
X85420238Y-82416667D01*
X85496428Y-82454762D01*
X85534524Y-82492857D01*
X85572619Y-82569048D01*
X85572619Y-82759524D01*
X85534524Y-82835714D01*
X85496428Y-82873810D01*
X85420238Y-82911905D01*
X85191666Y-82911905D01*
X85115476Y-82873810D01*
X85077381Y-82835714D01*
X84353571Y-85451905D02*
X84353571Y-84651905D01*
X84544047Y-84651905D01*
X84658333Y-84690000D01*
X84734524Y-84766190D01*
X84772619Y-84842381D01*
X84810714Y-84994762D01*
X84810714Y-85109048D01*
X84772619Y-85261429D01*
X84734524Y-85337619D01*
X84658333Y-85413810D01*
X84544047Y-85451905D01*
X84353571Y-85451905D01*
X85115476Y-84728095D02*
X85153571Y-84690000D01*
X85229762Y-84651905D01*
X85420238Y-84651905D01*
X85496428Y-84690000D01*
X85534524Y-84728095D01*
X85572619Y-84804286D01*
X85572619Y-84880476D01*
X85534524Y-84994762D01*
X85077381Y-85451905D01*
X85572619Y-85451905D01*
X84353571Y-87991905D02*
X84353571Y-87191905D01*
X84544047Y-87191905D01*
X84658333Y-87230000D01*
X84734524Y-87306190D01*
X84772619Y-87382381D01*
X84810714Y-87534762D01*
X84810714Y-87649048D01*
X84772619Y-87801429D01*
X84734524Y-87877619D01*
X84658333Y-87953810D01*
X84544047Y-87991905D01*
X84353571Y-87991905D01*
X85572619Y-87991905D02*
X85115476Y-87991905D01*
X85344047Y-87991905D02*
X85344047Y-87191905D01*
X85267857Y-87306190D01*
X85191666Y-87382381D01*
X85115476Y-87420476D01*
X84353571Y-90531905D02*
X84353571Y-89731905D01*
X84544047Y-89731905D01*
X84658333Y-89770000D01*
X84734524Y-89846190D01*
X84772619Y-89922381D01*
X84810714Y-90074762D01*
X84810714Y-90189048D01*
X84772619Y-90341429D01*
X84734524Y-90417619D01*
X84658333Y-90493810D01*
X84544047Y-90531905D01*
X84353571Y-90531905D01*
X85305952Y-89731905D02*
X85382143Y-89731905D01*
X85458333Y-89770000D01*
X85496428Y-89808095D01*
X85534524Y-89884286D01*
X85572619Y-90036667D01*
X85572619Y-90227143D01*
X85534524Y-90379524D01*
X85496428Y-90455714D01*
X85458333Y-90493810D01*
X85382143Y-90531905D01*
X85305952Y-90531905D01*
X85229762Y-90493810D01*
X85191666Y-90455714D01*
X85153571Y-90379524D01*
X85115476Y-90227143D01*
X85115476Y-90036667D01*
X85153571Y-89884286D01*
X85191666Y-89808095D01*
X85229762Y-89770000D01*
X85305952Y-89731905D01*
X82791667Y-93033810D02*
X82905953Y-93071905D01*
X83096429Y-93071905D01*
X83172619Y-93033810D01*
X83210715Y-92995714D01*
X83248810Y-92919524D01*
X83248810Y-92843333D01*
X83210715Y-92767143D01*
X83172619Y-92729048D01*
X83096429Y-92690952D01*
X82944048Y-92652857D01*
X82867857Y-92614762D01*
X82829762Y-92576667D01*
X82791667Y-92500476D01*
X82791667Y-92424286D01*
X82829762Y-92348095D01*
X82867857Y-92310000D01*
X82944048Y-92271905D01*
X83134524Y-92271905D01*
X83248810Y-92310000D01*
X83744048Y-92690952D02*
X83744048Y-93071905D01*
X83477381Y-92271905D02*
X83744048Y-92690952D01*
X84010715Y-92271905D01*
X84277381Y-93071905D02*
X84277381Y-92271905D01*
X84734524Y-93071905D01*
X84734524Y-92271905D01*
X85572619Y-92995714D02*
X85534524Y-93033810D01*
X85420238Y-93071905D01*
X85344048Y-93071905D01*
X85229762Y-93033810D01*
X85153571Y-92957619D01*
X85115476Y-92881429D01*
X85077381Y-92729048D01*
X85077381Y-92614762D01*
X85115476Y-92462381D01*
X85153571Y-92386190D01*
X85229762Y-92310000D01*
X85344048Y-92271905D01*
X85420238Y-92271905D01*
X85534524Y-92310000D01*
X85572619Y-92348095D01*
X84086905Y-95611905D02*
X83820238Y-95230952D01*
X83629762Y-95611905D02*
X83629762Y-94811905D01*
X83934524Y-94811905D01*
X84010715Y-94850000D01*
X84048810Y-94888095D01*
X84086905Y-94964286D01*
X84086905Y-95078571D01*
X84048810Y-95154762D01*
X84010715Y-95192857D01*
X83934524Y-95230952D01*
X83629762Y-95230952D01*
X84429762Y-95611905D02*
X84429762Y-94811905D01*
X84620238Y-94811905D01*
X84734524Y-94850000D01*
X84810715Y-94926190D01*
X84848810Y-95002381D01*
X84886905Y-95154762D01*
X84886905Y-95269048D01*
X84848810Y-95421429D01*
X84810715Y-95497619D01*
X84734524Y-95573810D01*
X84620238Y-95611905D01*
X84429762Y-95611905D01*
X85382143Y-95230952D02*
X85382143Y-95611905D01*
X85115476Y-94811905D02*
X85382143Y-95230952D01*
X85648810Y-94811905D01*
X83820238Y-98151905D02*
X83553571Y-97770952D01*
X83363095Y-98151905D02*
X83363095Y-97351905D01*
X83667857Y-97351905D01*
X83744048Y-97390000D01*
X83782143Y-97428095D01*
X83820238Y-97504286D01*
X83820238Y-97618571D01*
X83782143Y-97694762D01*
X83744048Y-97732857D01*
X83667857Y-97770952D01*
X83363095Y-97770952D01*
X84734524Y-97313810D02*
X84048809Y-98342381D01*
X84925000Y-97351905D02*
X85115476Y-98151905D01*
X85267857Y-97580476D01*
X85420238Y-98151905D01*
X85610714Y-97351905D01*
X84810714Y-97214000D02*
X85725000Y-97214000D01*
X83896429Y-103231905D02*
X83896429Y-102431905D01*
X84734524Y-103231905D02*
X84467857Y-102850952D01*
X84277381Y-103231905D02*
X84277381Y-102431905D01*
X84582143Y-102431905D01*
X84658334Y-102470000D01*
X84696429Y-102508095D01*
X84734524Y-102584286D01*
X84734524Y-102698571D01*
X84696429Y-102774762D01*
X84658334Y-102812857D01*
X84582143Y-102850952D01*
X84277381Y-102850952D01*
X85610715Y-103308095D02*
X85534524Y-103270000D01*
X85458334Y-103193810D01*
X85344048Y-103079524D01*
X85267857Y-103041429D01*
X85191667Y-103041429D01*
X85229762Y-103231905D02*
X85153572Y-103193810D01*
X85077381Y-103117619D01*
X85039286Y-102965238D01*
X85039286Y-102698571D01*
X85077381Y-102546190D01*
X85153572Y-102470000D01*
X85229762Y-102431905D01*
X85382143Y-102431905D01*
X85458334Y-102470000D01*
X85534524Y-102546190D01*
X85572619Y-102698571D01*
X85572619Y-102965238D01*
X85534524Y-103117619D01*
X85458334Y-103193810D01*
X85382143Y-103231905D01*
X85229762Y-103231905D01*
X83705953Y-102294000D02*
X85725000Y-102294000D01*
X83248809Y-105771905D02*
X83248809Y-104971905D01*
X83553571Y-104971905D01*
X83629762Y-105010000D01*
X83667857Y-105048095D01*
X83705952Y-105124286D01*
X83705952Y-105238571D01*
X83667857Y-105314762D01*
X83629762Y-105352857D01*
X83553571Y-105390952D01*
X83248809Y-105390952D01*
X84048809Y-105771905D02*
X84048809Y-104971905D01*
X84391666Y-105771905D02*
X84391666Y-105352857D01*
X84353571Y-105276667D01*
X84277381Y-105238571D01*
X84163095Y-105238571D01*
X84086904Y-105276667D01*
X84048809Y-105314762D01*
X84772619Y-105771905D02*
X84772619Y-105238571D01*
X84772619Y-104971905D02*
X84734524Y-105010000D01*
X84772619Y-105048095D01*
X84810714Y-105010000D01*
X84772619Y-104971905D01*
X84772619Y-105048095D01*
X85305952Y-104971905D02*
X85382143Y-104971905D01*
X85458333Y-105010000D01*
X85496428Y-105048095D01*
X85534524Y-105124286D01*
X85572619Y-105276667D01*
X85572619Y-105467143D01*
X85534524Y-105619524D01*
X85496428Y-105695714D01*
X85458333Y-105733810D01*
X85382143Y-105771905D01*
X85305952Y-105771905D01*
X85229762Y-105733810D01*
X85191666Y-105695714D01*
X85153571Y-105619524D01*
X85115476Y-105467143D01*
X85115476Y-105276667D01*
X85153571Y-105124286D01*
X85191666Y-105048095D01*
X85229762Y-105010000D01*
X85305952Y-104971905D01*
X84086904Y-108311905D02*
X83820237Y-107930952D01*
X83629761Y-108311905D02*
X83629761Y-107511905D01*
X83934523Y-107511905D01*
X84010714Y-107550000D01*
X84048809Y-107588095D01*
X84086904Y-107664286D01*
X84086904Y-107778571D01*
X84048809Y-107854762D01*
X84010714Y-107892857D01*
X83934523Y-107930952D01*
X83629761Y-107930952D01*
X84429761Y-107892857D02*
X84696428Y-107892857D01*
X84810714Y-108311905D02*
X84429761Y-108311905D01*
X84429761Y-107511905D01*
X84810714Y-107511905D01*
X85115476Y-108273810D02*
X85229762Y-108311905D01*
X85420238Y-108311905D01*
X85496428Y-108273810D01*
X85534524Y-108235714D01*
X85572619Y-108159524D01*
X85572619Y-108083333D01*
X85534524Y-108007143D01*
X85496428Y-107969048D01*
X85420238Y-107930952D01*
X85267857Y-107892857D01*
X85191666Y-107854762D01*
X85153571Y-107816667D01*
X85115476Y-107740476D01*
X85115476Y-107664286D01*
X85153571Y-107588095D01*
X85191666Y-107550000D01*
X85267857Y-107511905D01*
X85458333Y-107511905D01*
X85572619Y-107550000D01*
X83248809Y-110851905D02*
X83248809Y-110051905D01*
X83553571Y-110051905D01*
X83629762Y-110090000D01*
X83667857Y-110128095D01*
X83705952Y-110204286D01*
X83705952Y-110318571D01*
X83667857Y-110394762D01*
X83629762Y-110432857D01*
X83553571Y-110470952D01*
X83248809Y-110470952D01*
X84048809Y-110851905D02*
X84048809Y-110051905D01*
X84391666Y-110851905D02*
X84391666Y-110432857D01*
X84353571Y-110356667D01*
X84277381Y-110318571D01*
X84163095Y-110318571D01*
X84086904Y-110356667D01*
X84048809Y-110394762D01*
X84772619Y-110851905D02*
X84772619Y-110318571D01*
X84772619Y-110051905D02*
X84734524Y-110090000D01*
X84772619Y-110128095D01*
X84810714Y-110090000D01*
X84772619Y-110051905D01*
X84772619Y-110128095D01*
X85115476Y-110128095D02*
X85153571Y-110090000D01*
X85229762Y-110051905D01*
X85420238Y-110051905D01*
X85496428Y-110090000D01*
X85534524Y-110128095D01*
X85572619Y-110204286D01*
X85572619Y-110280476D01*
X85534524Y-110394762D01*
X85077381Y-110851905D01*
X85572619Y-110851905D01*
X83896429Y-115170000D02*
X83820238Y-115131905D01*
X83705953Y-115131905D01*
X83591667Y-115170000D01*
X83515476Y-115246190D01*
X83477381Y-115322381D01*
X83439286Y-115474762D01*
X83439286Y-115589048D01*
X83477381Y-115741429D01*
X83515476Y-115817619D01*
X83591667Y-115893810D01*
X83705953Y-115931905D01*
X83782143Y-115931905D01*
X83896429Y-115893810D01*
X83934524Y-115855714D01*
X83934524Y-115589048D01*
X83782143Y-115589048D01*
X84277381Y-115931905D02*
X84277381Y-115131905D01*
X84734524Y-115931905D01*
X84734524Y-115131905D01*
X85115476Y-115931905D02*
X85115476Y-115131905D01*
X85305952Y-115131905D01*
X85420238Y-115170000D01*
X85496429Y-115246190D01*
X85534524Y-115322381D01*
X85572619Y-115474762D01*
X85572619Y-115589048D01*
X85534524Y-115741429D01*
X85496429Y-115817619D01*
X85420238Y-115893810D01*
X85305952Y-115931905D01*
X85115476Y-115931905D01*
X83515476Y-112591905D02*
X83782143Y-113391905D01*
X84048810Y-112591905D01*
X84772619Y-113315714D02*
X84734524Y-113353810D01*
X84620238Y-113391905D01*
X84544048Y-113391905D01*
X84429762Y-113353810D01*
X84353571Y-113277619D01*
X84315476Y-113201429D01*
X84277381Y-113049048D01*
X84277381Y-112934762D01*
X84315476Y-112782381D01*
X84353571Y-112706190D01*
X84429762Y-112630000D01*
X84544048Y-112591905D01*
X84620238Y-112591905D01*
X84734524Y-112630000D01*
X84772619Y-112668095D01*
X85572619Y-113315714D02*
X85534524Y-113353810D01*
X85420238Y-113391905D01*
X85344048Y-113391905D01*
X85229762Y-113353810D01*
X85153571Y-113277619D01*
X85115476Y-113201429D01*
X85077381Y-113049048D01*
X85077381Y-112934762D01*
X85115476Y-112782381D01*
X85153571Y-112706190D01*
X85229762Y-112630000D01*
X85344048Y-112591905D01*
X85420238Y-112591905D01*
X85534524Y-112630000D01*
X85572619Y-112668095D01*
X130886429Y-115170000D02*
X130810238Y-115131905D01*
X130695953Y-115131905D01*
X130581667Y-115170000D01*
X130505476Y-115246190D01*
X130467381Y-115322381D01*
X130429286Y-115474762D01*
X130429286Y-115589048D01*
X130467381Y-115741429D01*
X130505476Y-115817619D01*
X130581667Y-115893810D01*
X130695953Y-115931905D01*
X130772143Y-115931905D01*
X130886429Y-115893810D01*
X130924524Y-115855714D01*
X130924524Y-115589048D01*
X130772143Y-115589048D01*
X131267381Y-115931905D02*
X131267381Y-115131905D01*
X131724524Y-115931905D01*
X131724524Y-115131905D01*
X132105476Y-115931905D02*
X132105476Y-115131905D01*
X132295952Y-115131905D01*
X132410238Y-115170000D01*
X132486429Y-115246190D01*
X132524524Y-115322381D01*
X132562619Y-115474762D01*
X132562619Y-115589048D01*
X132524524Y-115741429D01*
X132486429Y-115817619D01*
X132410238Y-115893810D01*
X132295952Y-115931905D01*
X132105476Y-115931905D01*
X130505476Y-112591905D02*
X130772143Y-113391905D01*
X131038810Y-112591905D01*
X131762619Y-113315714D02*
X131724524Y-113353810D01*
X131610238Y-113391905D01*
X131534048Y-113391905D01*
X131419762Y-113353810D01*
X131343571Y-113277619D01*
X131305476Y-113201429D01*
X131267381Y-113049048D01*
X131267381Y-112934762D01*
X131305476Y-112782381D01*
X131343571Y-112706190D01*
X131419762Y-112630000D01*
X131534048Y-112591905D01*
X131610238Y-112591905D01*
X131724524Y-112630000D01*
X131762619Y-112668095D01*
X132562619Y-113315714D02*
X132524524Y-113353810D01*
X132410238Y-113391905D01*
X132334048Y-113391905D01*
X132219762Y-113353810D01*
X132143571Y-113277619D01*
X132105476Y-113201429D01*
X132067381Y-113049048D01*
X132067381Y-112934762D01*
X132105476Y-112782381D01*
X132143571Y-112706190D01*
X132219762Y-112630000D01*
X132334048Y-112591905D01*
X132410238Y-112591905D01*
X132524524Y-112630000D01*
X132562619Y-112668095D01*
X130238809Y-110851905D02*
X130238809Y-110051905D01*
X130543571Y-110051905D01*
X130619762Y-110090000D01*
X130657857Y-110128095D01*
X130695952Y-110204286D01*
X130695952Y-110318571D01*
X130657857Y-110394762D01*
X130619762Y-110432857D01*
X130543571Y-110470952D01*
X130238809Y-110470952D01*
X131038809Y-110851905D02*
X131038809Y-110051905D01*
X131381666Y-110851905D02*
X131381666Y-110432857D01*
X131343571Y-110356667D01*
X131267381Y-110318571D01*
X131153095Y-110318571D01*
X131076904Y-110356667D01*
X131038809Y-110394762D01*
X131762619Y-110851905D02*
X131762619Y-110318571D01*
X131762619Y-110051905D02*
X131724524Y-110090000D01*
X131762619Y-110128095D01*
X131800714Y-110090000D01*
X131762619Y-110051905D01*
X131762619Y-110128095D01*
X132105476Y-110128095D02*
X132143571Y-110090000D01*
X132219762Y-110051905D01*
X132410238Y-110051905D01*
X132486428Y-110090000D01*
X132524524Y-110128095D01*
X132562619Y-110204286D01*
X132562619Y-110280476D01*
X132524524Y-110394762D01*
X132067381Y-110851905D01*
X132562619Y-110851905D01*
X154571904Y-108311905D02*
X154305237Y-107930952D01*
X154114761Y-108311905D02*
X154114761Y-107511905D01*
X154419523Y-107511905D01*
X154495714Y-107550000D01*
X154533809Y-107588095D01*
X154571904Y-107664286D01*
X154571904Y-107778571D01*
X154533809Y-107854762D01*
X154495714Y-107892857D01*
X154419523Y-107930952D01*
X154114761Y-107930952D01*
X154914761Y-107892857D02*
X155181428Y-107892857D01*
X155295714Y-108311905D02*
X154914761Y-108311905D01*
X154914761Y-107511905D01*
X155295714Y-107511905D01*
X155600476Y-108273810D02*
X155714762Y-108311905D01*
X155905238Y-108311905D01*
X155981428Y-108273810D01*
X156019524Y-108235714D01*
X156057619Y-108159524D01*
X156057619Y-108083333D01*
X156019524Y-108007143D01*
X155981428Y-107969048D01*
X155905238Y-107930952D01*
X155752857Y-107892857D01*
X155676666Y-107854762D01*
X155638571Y-107816667D01*
X155600476Y-107740476D01*
X155600476Y-107664286D01*
X155638571Y-107588095D01*
X155676666Y-107550000D01*
X155752857Y-107511905D01*
X155943333Y-107511905D01*
X156057619Y-107550000D01*
X131076904Y-108311905D02*
X130810237Y-107930952D01*
X130619761Y-108311905D02*
X130619761Y-107511905D01*
X130924523Y-107511905D01*
X131000714Y-107550000D01*
X131038809Y-107588095D01*
X131076904Y-107664286D01*
X131076904Y-107778571D01*
X131038809Y-107854762D01*
X131000714Y-107892857D01*
X130924523Y-107930952D01*
X130619761Y-107930952D01*
X131419761Y-107892857D02*
X131686428Y-107892857D01*
X131800714Y-108311905D02*
X131419761Y-108311905D01*
X131419761Y-107511905D01*
X131800714Y-107511905D01*
X132105476Y-108273810D02*
X132219762Y-108311905D01*
X132410238Y-108311905D01*
X132486428Y-108273810D01*
X132524524Y-108235714D01*
X132562619Y-108159524D01*
X132562619Y-108083333D01*
X132524524Y-108007143D01*
X132486428Y-107969048D01*
X132410238Y-107930952D01*
X132257857Y-107892857D01*
X132181666Y-107854762D01*
X132143571Y-107816667D01*
X132105476Y-107740476D01*
X132105476Y-107664286D01*
X132143571Y-107588095D01*
X132181666Y-107550000D01*
X132257857Y-107511905D01*
X132448333Y-107511905D01*
X132562619Y-107550000D01*
X153733809Y-105771905D02*
X153733809Y-104971905D01*
X154038571Y-104971905D01*
X154114762Y-105010000D01*
X154152857Y-105048095D01*
X154190952Y-105124286D01*
X154190952Y-105238571D01*
X154152857Y-105314762D01*
X154114762Y-105352857D01*
X154038571Y-105390952D01*
X153733809Y-105390952D01*
X154533809Y-105771905D02*
X154533809Y-104971905D01*
X154876666Y-105771905D02*
X154876666Y-105352857D01*
X154838571Y-105276667D01*
X154762381Y-105238571D01*
X154648095Y-105238571D01*
X154571904Y-105276667D01*
X154533809Y-105314762D01*
X155257619Y-105771905D02*
X155257619Y-105238571D01*
X155257619Y-104971905D02*
X155219524Y-105010000D01*
X155257619Y-105048095D01*
X155295714Y-105010000D01*
X155257619Y-104971905D01*
X155257619Y-105048095D01*
X155790952Y-104971905D02*
X155867143Y-104971905D01*
X155943333Y-105010000D01*
X155981428Y-105048095D01*
X156019524Y-105124286D01*
X156057619Y-105276667D01*
X156057619Y-105467143D01*
X156019524Y-105619524D01*
X155981428Y-105695714D01*
X155943333Y-105733810D01*
X155867143Y-105771905D01*
X155790952Y-105771905D01*
X155714762Y-105733810D01*
X155676666Y-105695714D01*
X155638571Y-105619524D01*
X155600476Y-105467143D01*
X155600476Y-105276667D01*
X155638571Y-105124286D01*
X155676666Y-105048095D01*
X155714762Y-105010000D01*
X155790952Y-104971905D01*
X130238809Y-105771905D02*
X130238809Y-104971905D01*
X130543571Y-104971905D01*
X130619762Y-105010000D01*
X130657857Y-105048095D01*
X130695952Y-105124286D01*
X130695952Y-105238571D01*
X130657857Y-105314762D01*
X130619762Y-105352857D01*
X130543571Y-105390952D01*
X130238809Y-105390952D01*
X131038809Y-105771905D02*
X131038809Y-104971905D01*
X131381666Y-105771905D02*
X131381666Y-105352857D01*
X131343571Y-105276667D01*
X131267381Y-105238571D01*
X131153095Y-105238571D01*
X131076904Y-105276667D01*
X131038809Y-105314762D01*
X131762619Y-105771905D02*
X131762619Y-105238571D01*
X131762619Y-104971905D02*
X131724524Y-105010000D01*
X131762619Y-105048095D01*
X131800714Y-105010000D01*
X131762619Y-104971905D01*
X131762619Y-105048095D01*
X132295952Y-104971905D02*
X132372143Y-104971905D01*
X132448333Y-105010000D01*
X132486428Y-105048095D01*
X132524524Y-105124286D01*
X132562619Y-105276667D01*
X132562619Y-105467143D01*
X132524524Y-105619524D01*
X132486428Y-105695714D01*
X132448333Y-105733810D01*
X132372143Y-105771905D01*
X132295952Y-105771905D01*
X132219762Y-105733810D01*
X132181666Y-105695714D01*
X132143571Y-105619524D01*
X132105476Y-105467143D01*
X132105476Y-105276667D01*
X132143571Y-105124286D01*
X132181666Y-105048095D01*
X132219762Y-105010000D01*
X132295952Y-104971905D01*
X154381429Y-103231905D02*
X154381429Y-102431905D01*
X155219524Y-103231905D02*
X154952857Y-102850952D01*
X154762381Y-103231905D02*
X154762381Y-102431905D01*
X155067143Y-102431905D01*
X155143334Y-102470000D01*
X155181429Y-102508095D01*
X155219524Y-102584286D01*
X155219524Y-102698571D01*
X155181429Y-102774762D01*
X155143334Y-102812857D01*
X155067143Y-102850952D01*
X154762381Y-102850952D01*
X156095715Y-103308095D02*
X156019524Y-103270000D01*
X155943334Y-103193810D01*
X155829048Y-103079524D01*
X155752857Y-103041429D01*
X155676667Y-103041429D01*
X155714762Y-103231905D02*
X155638572Y-103193810D01*
X155562381Y-103117619D01*
X155524286Y-102965238D01*
X155524286Y-102698571D01*
X155562381Y-102546190D01*
X155638572Y-102470000D01*
X155714762Y-102431905D01*
X155867143Y-102431905D01*
X155943334Y-102470000D01*
X156019524Y-102546190D01*
X156057619Y-102698571D01*
X156057619Y-102965238D01*
X156019524Y-103117619D01*
X155943334Y-103193810D01*
X155867143Y-103231905D01*
X155714762Y-103231905D01*
X154190953Y-102294000D02*
X156210000Y-102294000D01*
X130886429Y-103231905D02*
X130886429Y-102431905D01*
X131724524Y-103231905D02*
X131457857Y-102850952D01*
X131267381Y-103231905D02*
X131267381Y-102431905D01*
X131572143Y-102431905D01*
X131648334Y-102470000D01*
X131686429Y-102508095D01*
X131724524Y-102584286D01*
X131724524Y-102698571D01*
X131686429Y-102774762D01*
X131648334Y-102812857D01*
X131572143Y-102850952D01*
X131267381Y-102850952D01*
X132600715Y-103308095D02*
X132524524Y-103270000D01*
X132448334Y-103193810D01*
X132334048Y-103079524D01*
X132257857Y-103041429D01*
X132181667Y-103041429D01*
X132219762Y-103231905D02*
X132143572Y-103193810D01*
X132067381Y-103117619D01*
X132029286Y-102965238D01*
X132029286Y-102698571D01*
X132067381Y-102546190D01*
X132143572Y-102470000D01*
X132219762Y-102431905D01*
X132372143Y-102431905D01*
X132448334Y-102470000D01*
X132524524Y-102546190D01*
X132562619Y-102698571D01*
X132562619Y-102965238D01*
X132524524Y-103117619D01*
X132448334Y-103193810D01*
X132372143Y-103231905D01*
X132219762Y-103231905D01*
X130695953Y-102294000D02*
X132715000Y-102294000D01*
X130657857Y-153803333D02*
X131038809Y-153803333D01*
X130581666Y-154031905D02*
X130848333Y-153231905D01*
X131115000Y-154031905D01*
X131800714Y-154031905D02*
X131343571Y-154031905D01*
X131572142Y-154031905D02*
X131572142Y-153231905D01*
X131495952Y-153346190D01*
X131419761Y-153422381D01*
X131343571Y-153460476D01*
X132486428Y-153498571D02*
X132486428Y-154031905D01*
X132295952Y-153193810D02*
X132105476Y-153765238D01*
X132600714Y-153765238D01*
X154152857Y-150628333D02*
X154533809Y-150628333D01*
X154076666Y-150856905D02*
X154343333Y-150056905D01*
X154610000Y-150856905D01*
X155295714Y-150856905D02*
X154838571Y-150856905D01*
X155067142Y-150856905D02*
X155067142Y-150056905D01*
X154990952Y-150171190D01*
X154914761Y-150247381D01*
X154838571Y-150285476D01*
X155562381Y-150056905D02*
X156057619Y-150056905D01*
X155790952Y-150361667D01*
X155905238Y-150361667D01*
X155981428Y-150399762D01*
X156019524Y-150437857D01*
X156057619Y-150514048D01*
X156057619Y-150704524D01*
X156019524Y-150780714D01*
X155981428Y-150818810D01*
X155905238Y-150856905D01*
X155676666Y-150856905D01*
X155600476Y-150818810D01*
X155562381Y-150780714D01*
X130657857Y-151263333D02*
X131038809Y-151263333D01*
X130581666Y-151491905D02*
X130848333Y-150691905D01*
X131115000Y-151491905D01*
X131800714Y-151491905D02*
X131343571Y-151491905D01*
X131572142Y-151491905D02*
X131572142Y-150691905D01*
X131495952Y-150806190D01*
X131419761Y-150882381D01*
X131343571Y-150920476D01*
X132067381Y-150691905D02*
X132562619Y-150691905D01*
X132295952Y-150996667D01*
X132410238Y-150996667D01*
X132486428Y-151034762D01*
X132524524Y-151072857D01*
X132562619Y-151149048D01*
X132562619Y-151339524D01*
X132524524Y-151415714D01*
X132486428Y-151453810D01*
X132410238Y-151491905D01*
X132181666Y-151491905D01*
X132105476Y-151453810D01*
X132067381Y-151415714D01*
X154152857Y-148723333D02*
X154533809Y-148723333D01*
X154076666Y-148951905D02*
X154343333Y-148151905D01*
X154610000Y-148951905D01*
X155295714Y-148951905D02*
X154838571Y-148951905D01*
X155067142Y-148951905D02*
X155067142Y-148151905D01*
X154990952Y-148266190D01*
X154914761Y-148342381D01*
X154838571Y-148380476D01*
X155600476Y-148228095D02*
X155638571Y-148190000D01*
X155714762Y-148151905D01*
X155905238Y-148151905D01*
X155981428Y-148190000D01*
X156019524Y-148228095D01*
X156057619Y-148304286D01*
X156057619Y-148380476D01*
X156019524Y-148494762D01*
X155562381Y-148951905D01*
X156057619Y-148951905D01*
X130657857Y-148723333D02*
X131038809Y-148723333D01*
X130581666Y-148951905D02*
X130848333Y-148151905D01*
X131115000Y-148951905D01*
X131800714Y-148951905D02*
X131343571Y-148951905D01*
X131572142Y-148951905D02*
X131572142Y-148151905D01*
X131495952Y-148266190D01*
X131419761Y-148342381D01*
X131343571Y-148380476D01*
X132105476Y-148228095D02*
X132143571Y-148190000D01*
X132219762Y-148151905D01*
X132410238Y-148151905D01*
X132486428Y-148190000D01*
X132524524Y-148228095D01*
X132562619Y-148304286D01*
X132562619Y-148380476D01*
X132524524Y-148494762D01*
X132067381Y-148951905D01*
X132562619Y-148951905D01*
X154152857Y-146183333D02*
X154533809Y-146183333D01*
X154076666Y-146411905D02*
X154343333Y-145611905D01*
X154610000Y-146411905D01*
X155295714Y-146411905D02*
X154838571Y-146411905D01*
X155067142Y-146411905D02*
X155067142Y-145611905D01*
X154990952Y-145726190D01*
X154914761Y-145802381D01*
X154838571Y-145840476D01*
X156057619Y-146411905D02*
X155600476Y-146411905D01*
X155829047Y-146411905D02*
X155829047Y-145611905D01*
X155752857Y-145726190D01*
X155676666Y-145802381D01*
X155600476Y-145840476D01*
X130657857Y-146183333D02*
X131038809Y-146183333D01*
X130581666Y-146411905D02*
X130848333Y-145611905D01*
X131115000Y-146411905D01*
X131800714Y-146411905D02*
X131343571Y-146411905D01*
X131572142Y-146411905D02*
X131572142Y-145611905D01*
X131495952Y-145726190D01*
X131419761Y-145802381D01*
X131343571Y-145840476D01*
X132562619Y-146411905D02*
X132105476Y-146411905D01*
X132334047Y-146411905D02*
X132334047Y-145611905D01*
X132257857Y-145726190D01*
X132181666Y-145802381D01*
X132105476Y-145840476D01*
X154152857Y-143643333D02*
X154533809Y-143643333D01*
X154076666Y-143871905D02*
X154343333Y-143071905D01*
X154610000Y-143871905D01*
X155295714Y-143871905D02*
X154838571Y-143871905D01*
X155067142Y-143871905D02*
X155067142Y-143071905D01*
X154990952Y-143186190D01*
X154914761Y-143262381D01*
X154838571Y-143300476D01*
X155790952Y-143071905D02*
X155867143Y-143071905D01*
X155943333Y-143110000D01*
X155981428Y-143148095D01*
X156019524Y-143224286D01*
X156057619Y-143376667D01*
X156057619Y-143567143D01*
X156019524Y-143719524D01*
X155981428Y-143795714D01*
X155943333Y-143833810D01*
X155867143Y-143871905D01*
X155790952Y-143871905D01*
X155714762Y-143833810D01*
X155676666Y-143795714D01*
X155638571Y-143719524D01*
X155600476Y-143567143D01*
X155600476Y-143376667D01*
X155638571Y-143224286D01*
X155676666Y-143148095D01*
X155714762Y-143110000D01*
X155790952Y-143071905D01*
X130657857Y-143643333D02*
X131038809Y-143643333D01*
X130581666Y-143871905D02*
X130848333Y-143071905D01*
X131115000Y-143871905D01*
X131800714Y-143871905D02*
X131343571Y-143871905D01*
X131572142Y-143871905D02*
X131572142Y-143071905D01*
X131495952Y-143186190D01*
X131419761Y-143262381D01*
X131343571Y-143300476D01*
X132295952Y-143071905D02*
X132372143Y-143071905D01*
X132448333Y-143110000D01*
X132486428Y-143148095D01*
X132524524Y-143224286D01*
X132562619Y-143376667D01*
X132562619Y-143567143D01*
X132524524Y-143719524D01*
X132486428Y-143795714D01*
X132448333Y-143833810D01*
X132372143Y-143871905D01*
X132295952Y-143871905D01*
X132219762Y-143833810D01*
X132181666Y-143795714D01*
X132143571Y-143719524D01*
X132105476Y-143567143D01*
X132105476Y-143376667D01*
X132143571Y-143224286D01*
X132181666Y-143148095D01*
X132219762Y-143110000D01*
X132295952Y-143071905D01*
X154914762Y-141103333D02*
X155295714Y-141103333D01*
X154838571Y-141331905D02*
X155105238Y-140531905D01*
X155371905Y-141331905D01*
X155676666Y-141331905D02*
X155829047Y-141331905D01*
X155905238Y-141293810D01*
X155943333Y-141255714D01*
X156019524Y-141141429D01*
X156057619Y-140989048D01*
X156057619Y-140684286D01*
X156019524Y-140608095D01*
X155981428Y-140570000D01*
X155905238Y-140531905D01*
X155752857Y-140531905D01*
X155676666Y-140570000D01*
X155638571Y-140608095D01*
X155600476Y-140684286D01*
X155600476Y-140874762D01*
X155638571Y-140950952D01*
X155676666Y-140989048D01*
X155752857Y-141027143D01*
X155905238Y-141027143D01*
X155981428Y-140989048D01*
X156019524Y-140950952D01*
X156057619Y-140874762D01*
X131419762Y-141103333D02*
X131800714Y-141103333D01*
X131343571Y-141331905D02*
X131610238Y-140531905D01*
X131876905Y-141331905D01*
X132181666Y-141331905D02*
X132334047Y-141331905D01*
X132410238Y-141293810D01*
X132448333Y-141255714D01*
X132524524Y-141141429D01*
X132562619Y-140989048D01*
X132562619Y-140684286D01*
X132524524Y-140608095D01*
X132486428Y-140570000D01*
X132410238Y-140531905D01*
X132257857Y-140531905D01*
X132181666Y-140570000D01*
X132143571Y-140608095D01*
X132105476Y-140684286D01*
X132105476Y-140874762D01*
X132143571Y-140950952D01*
X132181666Y-140989048D01*
X132257857Y-141027143D01*
X132410238Y-141027143D01*
X132486428Y-140989048D01*
X132524524Y-140950952D01*
X132562619Y-140874762D01*
X154914762Y-138563333D02*
X155295714Y-138563333D01*
X154838571Y-138791905D02*
X155105238Y-137991905D01*
X155371905Y-138791905D01*
X155752857Y-138334762D02*
X155676666Y-138296667D01*
X155638571Y-138258571D01*
X155600476Y-138182381D01*
X155600476Y-138144286D01*
X155638571Y-138068095D01*
X155676666Y-138030000D01*
X155752857Y-137991905D01*
X155905238Y-137991905D01*
X155981428Y-138030000D01*
X156019524Y-138068095D01*
X156057619Y-138144286D01*
X156057619Y-138182381D01*
X156019524Y-138258571D01*
X155981428Y-138296667D01*
X155905238Y-138334762D01*
X155752857Y-138334762D01*
X155676666Y-138372857D01*
X155638571Y-138410952D01*
X155600476Y-138487143D01*
X155600476Y-138639524D01*
X155638571Y-138715714D01*
X155676666Y-138753810D01*
X155752857Y-138791905D01*
X155905238Y-138791905D01*
X155981428Y-138753810D01*
X156019524Y-138715714D01*
X156057619Y-138639524D01*
X156057619Y-138487143D01*
X156019524Y-138410952D01*
X155981428Y-138372857D01*
X155905238Y-138334762D01*
X131419762Y-138563333D02*
X131800714Y-138563333D01*
X131343571Y-138791905D02*
X131610238Y-137991905D01*
X131876905Y-138791905D01*
X132257857Y-138334762D02*
X132181666Y-138296667D01*
X132143571Y-138258571D01*
X132105476Y-138182381D01*
X132105476Y-138144286D01*
X132143571Y-138068095D01*
X132181666Y-138030000D01*
X132257857Y-137991905D01*
X132410238Y-137991905D01*
X132486428Y-138030000D01*
X132524524Y-138068095D01*
X132562619Y-138144286D01*
X132562619Y-138182381D01*
X132524524Y-138258571D01*
X132486428Y-138296667D01*
X132410238Y-138334762D01*
X132257857Y-138334762D01*
X132181666Y-138372857D01*
X132143571Y-138410952D01*
X132105476Y-138487143D01*
X132105476Y-138639524D01*
X132143571Y-138715714D01*
X132181666Y-138753810D01*
X132257857Y-138791905D01*
X132410238Y-138791905D01*
X132486428Y-138753810D01*
X132524524Y-138715714D01*
X132562619Y-138639524D01*
X132562619Y-138487143D01*
X132524524Y-138410952D01*
X132486428Y-138372857D01*
X132410238Y-138334762D01*
X154914762Y-136023333D02*
X155295714Y-136023333D01*
X154838571Y-136251905D02*
X155105238Y-135451905D01*
X155371905Y-136251905D01*
X155562381Y-135451905D02*
X156095714Y-135451905D01*
X155752857Y-136251905D01*
X131419762Y-136023333D02*
X131800714Y-136023333D01*
X131343571Y-136251905D02*
X131610238Y-135451905D01*
X131876905Y-136251905D01*
X132067381Y-135451905D02*
X132600714Y-135451905D01*
X132257857Y-136251905D01*
X154914762Y-133483333D02*
X155295714Y-133483333D01*
X154838571Y-133711905D02*
X155105238Y-132911905D01*
X155371905Y-133711905D01*
X155981428Y-132911905D02*
X155829047Y-132911905D01*
X155752857Y-132950000D01*
X155714762Y-132988095D01*
X155638571Y-133102381D01*
X155600476Y-133254762D01*
X155600476Y-133559524D01*
X155638571Y-133635714D01*
X155676666Y-133673810D01*
X155752857Y-133711905D01*
X155905238Y-133711905D01*
X155981428Y-133673810D01*
X156019524Y-133635714D01*
X156057619Y-133559524D01*
X156057619Y-133369048D01*
X156019524Y-133292857D01*
X155981428Y-133254762D01*
X155905238Y-133216667D01*
X155752857Y-133216667D01*
X155676666Y-133254762D01*
X155638571Y-133292857D01*
X155600476Y-133369048D01*
X131419762Y-133483333D02*
X131800714Y-133483333D01*
X131343571Y-133711905D02*
X131610238Y-132911905D01*
X131876905Y-133711905D01*
X132486428Y-132911905D02*
X132334047Y-132911905D01*
X132257857Y-132950000D01*
X132219762Y-132988095D01*
X132143571Y-133102381D01*
X132105476Y-133254762D01*
X132105476Y-133559524D01*
X132143571Y-133635714D01*
X132181666Y-133673810D01*
X132257857Y-133711905D01*
X132410238Y-133711905D01*
X132486428Y-133673810D01*
X132524524Y-133635714D01*
X132562619Y-133559524D01*
X132562619Y-133369048D01*
X132524524Y-133292857D01*
X132486428Y-133254762D01*
X132410238Y-133216667D01*
X132257857Y-133216667D01*
X132181666Y-133254762D01*
X132143571Y-133292857D01*
X132105476Y-133369048D01*
X154914762Y-130943333D02*
X155295714Y-130943333D01*
X154838571Y-131171905D02*
X155105238Y-130371905D01*
X155371905Y-131171905D01*
X156019524Y-130371905D02*
X155638571Y-130371905D01*
X155600476Y-130752857D01*
X155638571Y-130714762D01*
X155714762Y-130676667D01*
X155905238Y-130676667D01*
X155981428Y-130714762D01*
X156019524Y-130752857D01*
X156057619Y-130829048D01*
X156057619Y-131019524D01*
X156019524Y-131095714D01*
X155981428Y-131133810D01*
X155905238Y-131171905D01*
X155714762Y-131171905D01*
X155638571Y-131133810D01*
X155600476Y-131095714D01*
X131419762Y-130943333D02*
X131800714Y-130943333D01*
X131343571Y-131171905D02*
X131610238Y-130371905D01*
X131876905Y-131171905D01*
X132524524Y-130371905D02*
X132143571Y-130371905D01*
X132105476Y-130752857D01*
X132143571Y-130714762D01*
X132219762Y-130676667D01*
X132410238Y-130676667D01*
X132486428Y-130714762D01*
X132524524Y-130752857D01*
X132562619Y-130829048D01*
X132562619Y-131019524D01*
X132524524Y-131095714D01*
X132486428Y-131133810D01*
X132410238Y-131171905D01*
X132219762Y-131171905D01*
X132143571Y-131133810D01*
X132105476Y-131095714D01*
X154914762Y-128403333D02*
X155295714Y-128403333D01*
X154838571Y-128631905D02*
X155105238Y-127831905D01*
X155371905Y-128631905D01*
X155981428Y-128098571D02*
X155981428Y-128631905D01*
X155790952Y-127793810D02*
X155600476Y-128365238D01*
X156095714Y-128365238D01*
X131419762Y-128403333D02*
X131800714Y-128403333D01*
X131343571Y-128631905D02*
X131610238Y-127831905D01*
X131876905Y-128631905D01*
X132486428Y-128098571D02*
X132486428Y-128631905D01*
X132295952Y-127793810D02*
X132105476Y-128365238D01*
X132600714Y-128365238D01*
X154914762Y-125863333D02*
X155295714Y-125863333D01*
X154838571Y-126091905D02*
X155105238Y-125291905D01*
X155371905Y-126091905D01*
X155562381Y-125291905D02*
X156057619Y-125291905D01*
X155790952Y-125596667D01*
X155905238Y-125596667D01*
X155981428Y-125634762D01*
X156019524Y-125672857D01*
X156057619Y-125749048D01*
X156057619Y-125939524D01*
X156019524Y-126015714D01*
X155981428Y-126053810D01*
X155905238Y-126091905D01*
X155676666Y-126091905D01*
X155600476Y-126053810D01*
X155562381Y-126015714D01*
X131419762Y-125863333D02*
X131800714Y-125863333D01*
X131343571Y-126091905D02*
X131610238Y-125291905D01*
X131876905Y-126091905D01*
X132067381Y-125291905D02*
X132562619Y-125291905D01*
X132295952Y-125596667D01*
X132410238Y-125596667D01*
X132486428Y-125634762D01*
X132524524Y-125672857D01*
X132562619Y-125749048D01*
X132562619Y-125939524D01*
X132524524Y-126015714D01*
X132486428Y-126053810D01*
X132410238Y-126091905D01*
X132181666Y-126091905D01*
X132105476Y-126053810D01*
X132067381Y-126015714D01*
X154914762Y-123323333D02*
X155295714Y-123323333D01*
X154838571Y-123551905D02*
X155105238Y-122751905D01*
X155371905Y-123551905D01*
X155600476Y-122828095D02*
X155638571Y-122790000D01*
X155714762Y-122751905D01*
X155905238Y-122751905D01*
X155981428Y-122790000D01*
X156019524Y-122828095D01*
X156057619Y-122904286D01*
X156057619Y-122980476D01*
X156019524Y-123094762D01*
X155562381Y-123551905D01*
X156057619Y-123551905D01*
X131419762Y-123323333D02*
X131800714Y-123323333D01*
X131343571Y-123551905D02*
X131610238Y-122751905D01*
X131876905Y-123551905D01*
X132105476Y-122828095D02*
X132143571Y-122790000D01*
X132219762Y-122751905D01*
X132410238Y-122751905D01*
X132486428Y-122790000D01*
X132524524Y-122828095D01*
X132562619Y-122904286D01*
X132562619Y-122980476D01*
X132524524Y-123094762D01*
X132067381Y-123551905D01*
X132562619Y-123551905D01*
X154914762Y-120783333D02*
X155295714Y-120783333D01*
X154838571Y-121011905D02*
X155105238Y-120211905D01*
X155371905Y-121011905D01*
X156057619Y-121011905D02*
X155600476Y-121011905D01*
X155829047Y-121011905D02*
X155829047Y-120211905D01*
X155752857Y-120326190D01*
X155676666Y-120402381D01*
X155600476Y-120440476D01*
X131419762Y-120783333D02*
X131800714Y-120783333D01*
X131343571Y-121011905D02*
X131610238Y-120211905D01*
X131876905Y-121011905D01*
X132562619Y-121011905D02*
X132105476Y-121011905D01*
X132334047Y-121011905D02*
X132334047Y-120211905D01*
X132257857Y-120326190D01*
X132181666Y-120402381D01*
X132105476Y-120440476D01*
X131419762Y-118243333D02*
X131800714Y-118243333D01*
X131343571Y-118471905D02*
X131610238Y-117671905D01*
X131876905Y-118471905D01*
X132295952Y-117671905D02*
X132372143Y-117671905D01*
X132448333Y-117710000D01*
X132486428Y-117748095D01*
X132524524Y-117824286D01*
X132562619Y-117976667D01*
X132562619Y-118167143D01*
X132524524Y-118319524D01*
X132486428Y-118395714D01*
X132448333Y-118433810D01*
X132372143Y-118471905D01*
X132295952Y-118471905D01*
X132219762Y-118433810D01*
X132181666Y-118395714D01*
X132143571Y-118319524D01*
X132105476Y-118167143D01*
X132105476Y-117976667D01*
X132143571Y-117824286D01*
X132181666Y-117748095D01*
X132219762Y-117710000D01*
X132295952Y-117671905D01*
X107162857Y-153803333D02*
X107543809Y-153803333D01*
X107086666Y-154031905D02*
X107353333Y-153231905D01*
X107620000Y-154031905D01*
X108305714Y-154031905D02*
X107848571Y-154031905D01*
X108077142Y-154031905D02*
X108077142Y-153231905D01*
X108000952Y-153346190D01*
X107924761Y-153422381D01*
X107848571Y-153460476D01*
X108991428Y-153498571D02*
X108991428Y-154031905D01*
X108800952Y-153193810D02*
X108610476Y-153765238D01*
X109105714Y-153765238D01*
X107162857Y-151263333D02*
X107543809Y-151263333D01*
X107086666Y-151491905D02*
X107353333Y-150691905D01*
X107620000Y-151491905D01*
X108305714Y-151491905D02*
X107848571Y-151491905D01*
X108077142Y-151491905D02*
X108077142Y-150691905D01*
X108000952Y-150806190D01*
X107924761Y-150882381D01*
X107848571Y-150920476D01*
X108572381Y-150691905D02*
X109067619Y-150691905D01*
X108800952Y-150996667D01*
X108915238Y-150996667D01*
X108991428Y-151034762D01*
X109029524Y-151072857D01*
X109067619Y-151149048D01*
X109067619Y-151339524D01*
X109029524Y-151415714D01*
X108991428Y-151453810D01*
X108915238Y-151491905D01*
X108686666Y-151491905D01*
X108610476Y-151453810D01*
X108572381Y-151415714D01*
X107162857Y-148723333D02*
X107543809Y-148723333D01*
X107086666Y-148951905D02*
X107353333Y-148151905D01*
X107620000Y-148951905D01*
X108305714Y-148951905D02*
X107848571Y-148951905D01*
X108077142Y-148951905D02*
X108077142Y-148151905D01*
X108000952Y-148266190D01*
X107924761Y-148342381D01*
X107848571Y-148380476D01*
X108610476Y-148228095D02*
X108648571Y-148190000D01*
X108724762Y-148151905D01*
X108915238Y-148151905D01*
X108991428Y-148190000D01*
X109029524Y-148228095D01*
X109067619Y-148304286D01*
X109067619Y-148380476D01*
X109029524Y-148494762D01*
X108572381Y-148951905D01*
X109067619Y-148951905D01*
X107162857Y-146183333D02*
X107543809Y-146183333D01*
X107086666Y-146411905D02*
X107353333Y-145611905D01*
X107620000Y-146411905D01*
X108305714Y-146411905D02*
X107848571Y-146411905D01*
X108077142Y-146411905D02*
X108077142Y-145611905D01*
X108000952Y-145726190D01*
X107924761Y-145802381D01*
X107848571Y-145840476D01*
X109067619Y-146411905D02*
X108610476Y-146411905D01*
X108839047Y-146411905D02*
X108839047Y-145611905D01*
X108762857Y-145726190D01*
X108686666Y-145802381D01*
X108610476Y-145840476D01*
X107162857Y-143643333D02*
X107543809Y-143643333D01*
X107086666Y-143871905D02*
X107353333Y-143071905D01*
X107620000Y-143871905D01*
X108305714Y-143871905D02*
X107848571Y-143871905D01*
X108077142Y-143871905D02*
X108077142Y-143071905D01*
X108000952Y-143186190D01*
X107924761Y-143262381D01*
X107848571Y-143300476D01*
X108800952Y-143071905D02*
X108877143Y-143071905D01*
X108953333Y-143110000D01*
X108991428Y-143148095D01*
X109029524Y-143224286D01*
X109067619Y-143376667D01*
X109067619Y-143567143D01*
X109029524Y-143719524D01*
X108991428Y-143795714D01*
X108953333Y-143833810D01*
X108877143Y-143871905D01*
X108800952Y-143871905D01*
X108724762Y-143833810D01*
X108686666Y-143795714D01*
X108648571Y-143719524D01*
X108610476Y-143567143D01*
X108610476Y-143376667D01*
X108648571Y-143224286D01*
X108686666Y-143148095D01*
X108724762Y-143110000D01*
X108800952Y-143071905D01*
X107924762Y-141103333D02*
X108305714Y-141103333D01*
X107848571Y-141331905D02*
X108115238Y-140531905D01*
X108381905Y-141331905D01*
X108686666Y-141331905D02*
X108839047Y-141331905D01*
X108915238Y-141293810D01*
X108953333Y-141255714D01*
X109029524Y-141141429D01*
X109067619Y-140989048D01*
X109067619Y-140684286D01*
X109029524Y-140608095D01*
X108991428Y-140570000D01*
X108915238Y-140531905D01*
X108762857Y-140531905D01*
X108686666Y-140570000D01*
X108648571Y-140608095D01*
X108610476Y-140684286D01*
X108610476Y-140874762D01*
X108648571Y-140950952D01*
X108686666Y-140989048D01*
X108762857Y-141027143D01*
X108915238Y-141027143D01*
X108991428Y-140989048D01*
X109029524Y-140950952D01*
X109067619Y-140874762D01*
X107924762Y-138563333D02*
X108305714Y-138563333D01*
X107848571Y-138791905D02*
X108115238Y-137991905D01*
X108381905Y-138791905D01*
X108762857Y-138334762D02*
X108686666Y-138296667D01*
X108648571Y-138258571D01*
X108610476Y-138182381D01*
X108610476Y-138144286D01*
X108648571Y-138068095D01*
X108686666Y-138030000D01*
X108762857Y-137991905D01*
X108915238Y-137991905D01*
X108991428Y-138030000D01*
X109029524Y-138068095D01*
X109067619Y-138144286D01*
X109067619Y-138182381D01*
X109029524Y-138258571D01*
X108991428Y-138296667D01*
X108915238Y-138334762D01*
X108762857Y-138334762D01*
X108686666Y-138372857D01*
X108648571Y-138410952D01*
X108610476Y-138487143D01*
X108610476Y-138639524D01*
X108648571Y-138715714D01*
X108686666Y-138753810D01*
X108762857Y-138791905D01*
X108915238Y-138791905D01*
X108991428Y-138753810D01*
X109029524Y-138715714D01*
X109067619Y-138639524D01*
X109067619Y-138487143D01*
X109029524Y-138410952D01*
X108991428Y-138372857D01*
X108915238Y-138334762D01*
X107924762Y-136023333D02*
X108305714Y-136023333D01*
X107848571Y-136251905D02*
X108115238Y-135451905D01*
X108381905Y-136251905D01*
X108572381Y-135451905D02*
X109105714Y-135451905D01*
X108762857Y-136251905D01*
X107924762Y-133483333D02*
X108305714Y-133483333D01*
X107848571Y-133711905D02*
X108115238Y-132911905D01*
X108381905Y-133711905D01*
X108991428Y-132911905D02*
X108839047Y-132911905D01*
X108762857Y-132950000D01*
X108724762Y-132988095D01*
X108648571Y-133102381D01*
X108610476Y-133254762D01*
X108610476Y-133559524D01*
X108648571Y-133635714D01*
X108686666Y-133673810D01*
X108762857Y-133711905D01*
X108915238Y-133711905D01*
X108991428Y-133673810D01*
X109029524Y-133635714D01*
X109067619Y-133559524D01*
X109067619Y-133369048D01*
X109029524Y-133292857D01*
X108991428Y-133254762D01*
X108915238Y-133216667D01*
X108762857Y-133216667D01*
X108686666Y-133254762D01*
X108648571Y-133292857D01*
X108610476Y-133369048D01*
X107924762Y-130943333D02*
X108305714Y-130943333D01*
X107848571Y-131171905D02*
X108115238Y-130371905D01*
X108381905Y-131171905D01*
X109029524Y-130371905D02*
X108648571Y-130371905D01*
X108610476Y-130752857D01*
X108648571Y-130714762D01*
X108724762Y-130676667D01*
X108915238Y-130676667D01*
X108991428Y-130714762D01*
X109029524Y-130752857D01*
X109067619Y-130829048D01*
X109067619Y-131019524D01*
X109029524Y-131095714D01*
X108991428Y-131133810D01*
X108915238Y-131171905D01*
X108724762Y-131171905D01*
X108648571Y-131133810D01*
X108610476Y-131095714D01*
X107924762Y-128403333D02*
X108305714Y-128403333D01*
X107848571Y-128631905D02*
X108115238Y-127831905D01*
X108381905Y-128631905D01*
X108991428Y-128098571D02*
X108991428Y-128631905D01*
X108800952Y-127793810D02*
X108610476Y-128365238D01*
X109105714Y-128365238D01*
X107924762Y-125863333D02*
X108305714Y-125863333D01*
X107848571Y-126091905D02*
X108115238Y-125291905D01*
X108381905Y-126091905D01*
X108572381Y-125291905D02*
X109067619Y-125291905D01*
X108800952Y-125596667D01*
X108915238Y-125596667D01*
X108991428Y-125634762D01*
X109029524Y-125672857D01*
X109067619Y-125749048D01*
X109067619Y-125939524D01*
X109029524Y-126015714D01*
X108991428Y-126053810D01*
X108915238Y-126091905D01*
X108686666Y-126091905D01*
X108610476Y-126053810D01*
X108572381Y-126015714D01*
X107924762Y-123323333D02*
X108305714Y-123323333D01*
X107848571Y-123551905D02*
X108115238Y-122751905D01*
X108381905Y-123551905D01*
X108610476Y-122828095D02*
X108648571Y-122790000D01*
X108724762Y-122751905D01*
X108915238Y-122751905D01*
X108991428Y-122790000D01*
X109029524Y-122828095D01*
X109067619Y-122904286D01*
X109067619Y-122980476D01*
X109029524Y-123094762D01*
X108572381Y-123551905D01*
X109067619Y-123551905D01*
X107924762Y-120783333D02*
X108305714Y-120783333D01*
X107848571Y-121011905D02*
X108115238Y-120211905D01*
X108381905Y-121011905D01*
X109067619Y-121011905D02*
X108610476Y-121011905D01*
X108839047Y-121011905D02*
X108839047Y-120211905D01*
X108762857Y-120326190D01*
X108686666Y-120402381D01*
X108610476Y-120440476D01*
X107924762Y-118243333D02*
X108305714Y-118243333D01*
X107848571Y-118471905D02*
X108115238Y-117671905D01*
X108381905Y-118471905D01*
X108800952Y-117671905D02*
X108877143Y-117671905D01*
X108953333Y-117710000D01*
X108991428Y-117748095D01*
X109029524Y-117824286D01*
X109067619Y-117976667D01*
X109067619Y-118167143D01*
X109029524Y-118319524D01*
X108991428Y-118395714D01*
X108953333Y-118433810D01*
X108877143Y-118471905D01*
X108800952Y-118471905D01*
X108724762Y-118433810D01*
X108686666Y-118395714D01*
X108648571Y-118319524D01*
X108610476Y-118167143D01*
X108610476Y-117976667D01*
X108648571Y-117824286D01*
X108686666Y-117748095D01*
X108724762Y-117710000D01*
X108800952Y-117671905D01*
X107391429Y-115170000D02*
X107315238Y-115131905D01*
X107200953Y-115131905D01*
X107086667Y-115170000D01*
X107010476Y-115246190D01*
X106972381Y-115322381D01*
X106934286Y-115474762D01*
X106934286Y-115589048D01*
X106972381Y-115741429D01*
X107010476Y-115817619D01*
X107086667Y-115893810D01*
X107200953Y-115931905D01*
X107277143Y-115931905D01*
X107391429Y-115893810D01*
X107429524Y-115855714D01*
X107429524Y-115589048D01*
X107277143Y-115589048D01*
X107772381Y-115931905D02*
X107772381Y-115131905D01*
X108229524Y-115931905D01*
X108229524Y-115131905D01*
X108610476Y-115931905D02*
X108610476Y-115131905D01*
X108800952Y-115131905D01*
X108915238Y-115170000D01*
X108991429Y-115246190D01*
X109029524Y-115322381D01*
X109067619Y-115474762D01*
X109067619Y-115589048D01*
X109029524Y-115741429D01*
X108991429Y-115817619D01*
X108915238Y-115893810D01*
X108800952Y-115931905D01*
X108610476Y-115931905D01*
X107010476Y-112591905D02*
X107277143Y-113391905D01*
X107543810Y-112591905D01*
X108267619Y-113315714D02*
X108229524Y-113353810D01*
X108115238Y-113391905D01*
X108039048Y-113391905D01*
X107924762Y-113353810D01*
X107848571Y-113277619D01*
X107810476Y-113201429D01*
X107772381Y-113049048D01*
X107772381Y-112934762D01*
X107810476Y-112782381D01*
X107848571Y-112706190D01*
X107924762Y-112630000D01*
X108039048Y-112591905D01*
X108115238Y-112591905D01*
X108229524Y-112630000D01*
X108267619Y-112668095D01*
X109067619Y-113315714D02*
X109029524Y-113353810D01*
X108915238Y-113391905D01*
X108839048Y-113391905D01*
X108724762Y-113353810D01*
X108648571Y-113277619D01*
X108610476Y-113201429D01*
X108572381Y-113049048D01*
X108572381Y-112934762D01*
X108610476Y-112782381D01*
X108648571Y-112706190D01*
X108724762Y-112630000D01*
X108839048Y-112591905D01*
X108915238Y-112591905D01*
X109029524Y-112630000D01*
X109067619Y-112668095D01*
X106743809Y-110851905D02*
X106743809Y-110051905D01*
X107048571Y-110051905D01*
X107124762Y-110090000D01*
X107162857Y-110128095D01*
X107200952Y-110204286D01*
X107200952Y-110318571D01*
X107162857Y-110394762D01*
X107124762Y-110432857D01*
X107048571Y-110470952D01*
X106743809Y-110470952D01*
X107543809Y-110851905D02*
X107543809Y-110051905D01*
X107886666Y-110851905D02*
X107886666Y-110432857D01*
X107848571Y-110356667D01*
X107772381Y-110318571D01*
X107658095Y-110318571D01*
X107581904Y-110356667D01*
X107543809Y-110394762D01*
X108267619Y-110851905D02*
X108267619Y-110318571D01*
X108267619Y-110051905D02*
X108229524Y-110090000D01*
X108267619Y-110128095D01*
X108305714Y-110090000D01*
X108267619Y-110051905D01*
X108267619Y-110128095D01*
X108610476Y-110128095D02*
X108648571Y-110090000D01*
X108724762Y-110051905D01*
X108915238Y-110051905D01*
X108991428Y-110090000D01*
X109029524Y-110128095D01*
X109067619Y-110204286D01*
X109067619Y-110280476D01*
X109029524Y-110394762D01*
X108572381Y-110851905D01*
X109067619Y-110851905D01*
X107581904Y-108311905D02*
X107315237Y-107930952D01*
X107124761Y-108311905D02*
X107124761Y-107511905D01*
X107429523Y-107511905D01*
X107505714Y-107550000D01*
X107543809Y-107588095D01*
X107581904Y-107664286D01*
X107581904Y-107778571D01*
X107543809Y-107854762D01*
X107505714Y-107892857D01*
X107429523Y-107930952D01*
X107124761Y-107930952D01*
X107924761Y-107892857D02*
X108191428Y-107892857D01*
X108305714Y-108311905D02*
X107924761Y-108311905D01*
X107924761Y-107511905D01*
X108305714Y-107511905D01*
X108610476Y-108273810D02*
X108724762Y-108311905D01*
X108915238Y-108311905D01*
X108991428Y-108273810D01*
X109029524Y-108235714D01*
X109067619Y-108159524D01*
X109067619Y-108083333D01*
X109029524Y-108007143D01*
X108991428Y-107969048D01*
X108915238Y-107930952D01*
X108762857Y-107892857D01*
X108686666Y-107854762D01*
X108648571Y-107816667D01*
X108610476Y-107740476D01*
X108610476Y-107664286D01*
X108648571Y-107588095D01*
X108686666Y-107550000D01*
X108762857Y-107511905D01*
X108953333Y-107511905D01*
X109067619Y-107550000D01*
X106743809Y-105771905D02*
X106743809Y-104971905D01*
X107048571Y-104971905D01*
X107124762Y-105010000D01*
X107162857Y-105048095D01*
X107200952Y-105124286D01*
X107200952Y-105238571D01*
X107162857Y-105314762D01*
X107124762Y-105352857D01*
X107048571Y-105390952D01*
X106743809Y-105390952D01*
X107543809Y-105771905D02*
X107543809Y-104971905D01*
X107886666Y-105771905D02*
X107886666Y-105352857D01*
X107848571Y-105276667D01*
X107772381Y-105238571D01*
X107658095Y-105238571D01*
X107581904Y-105276667D01*
X107543809Y-105314762D01*
X108267619Y-105771905D02*
X108267619Y-105238571D01*
X108267619Y-104971905D02*
X108229524Y-105010000D01*
X108267619Y-105048095D01*
X108305714Y-105010000D01*
X108267619Y-104971905D01*
X108267619Y-105048095D01*
X108800952Y-104971905D02*
X108877143Y-104971905D01*
X108953333Y-105010000D01*
X108991428Y-105048095D01*
X109029524Y-105124286D01*
X109067619Y-105276667D01*
X109067619Y-105467143D01*
X109029524Y-105619524D01*
X108991428Y-105695714D01*
X108953333Y-105733810D01*
X108877143Y-105771905D01*
X108800952Y-105771905D01*
X108724762Y-105733810D01*
X108686666Y-105695714D01*
X108648571Y-105619524D01*
X108610476Y-105467143D01*
X108610476Y-105276667D01*
X108648571Y-105124286D01*
X108686666Y-105048095D01*
X108724762Y-105010000D01*
X108800952Y-104971905D01*
X107391429Y-103231905D02*
X107391429Y-102431905D01*
X108229524Y-103231905D02*
X107962857Y-102850952D01*
X107772381Y-103231905D02*
X107772381Y-102431905D01*
X108077143Y-102431905D01*
X108153334Y-102470000D01*
X108191429Y-102508095D01*
X108229524Y-102584286D01*
X108229524Y-102698571D01*
X108191429Y-102774762D01*
X108153334Y-102812857D01*
X108077143Y-102850952D01*
X107772381Y-102850952D01*
X109105715Y-103308095D02*
X109029524Y-103270000D01*
X108953334Y-103193810D01*
X108839048Y-103079524D01*
X108762857Y-103041429D01*
X108686667Y-103041429D01*
X108724762Y-103231905D02*
X108648572Y-103193810D01*
X108572381Y-103117619D01*
X108534286Y-102965238D01*
X108534286Y-102698571D01*
X108572381Y-102546190D01*
X108648572Y-102470000D01*
X108724762Y-102431905D01*
X108877143Y-102431905D01*
X108953334Y-102470000D01*
X109029524Y-102546190D01*
X109067619Y-102698571D01*
X109067619Y-102965238D01*
X109029524Y-103117619D01*
X108953334Y-103193810D01*
X108877143Y-103231905D01*
X108724762Y-103231905D01*
X107200953Y-102294000D02*
X109220000Y-102294000D01*
X107315238Y-98151905D02*
X107048571Y-97770952D01*
X106858095Y-98151905D02*
X106858095Y-97351905D01*
X107162857Y-97351905D01*
X107239048Y-97390000D01*
X107277143Y-97428095D01*
X107315238Y-97504286D01*
X107315238Y-97618571D01*
X107277143Y-97694762D01*
X107239048Y-97732857D01*
X107162857Y-97770952D01*
X106858095Y-97770952D01*
X108229524Y-97313810D02*
X107543809Y-98342381D01*
X108420000Y-97351905D02*
X108610476Y-98151905D01*
X108762857Y-97580476D01*
X108915238Y-98151905D01*
X109105714Y-97351905D01*
X108305714Y-97214000D02*
X109220000Y-97214000D01*
X107581905Y-95611905D02*
X107315238Y-95230952D01*
X107124762Y-95611905D02*
X107124762Y-94811905D01*
X107429524Y-94811905D01*
X107505715Y-94850000D01*
X107543810Y-94888095D01*
X107581905Y-94964286D01*
X107581905Y-95078571D01*
X107543810Y-95154762D01*
X107505715Y-95192857D01*
X107429524Y-95230952D01*
X107124762Y-95230952D01*
X107924762Y-95611905D02*
X107924762Y-94811905D01*
X108115238Y-94811905D01*
X108229524Y-94850000D01*
X108305715Y-94926190D01*
X108343810Y-95002381D01*
X108381905Y-95154762D01*
X108381905Y-95269048D01*
X108343810Y-95421429D01*
X108305715Y-95497619D01*
X108229524Y-95573810D01*
X108115238Y-95611905D01*
X107924762Y-95611905D01*
X108877143Y-95230952D02*
X108877143Y-95611905D01*
X108610476Y-94811905D02*
X108877143Y-95230952D01*
X109143810Y-94811905D01*
X106286667Y-93033810D02*
X106400953Y-93071905D01*
X106591429Y-93071905D01*
X106667619Y-93033810D01*
X106705715Y-92995714D01*
X106743810Y-92919524D01*
X106743810Y-92843333D01*
X106705715Y-92767143D01*
X106667619Y-92729048D01*
X106591429Y-92690952D01*
X106439048Y-92652857D01*
X106362857Y-92614762D01*
X106324762Y-92576667D01*
X106286667Y-92500476D01*
X106286667Y-92424286D01*
X106324762Y-92348095D01*
X106362857Y-92310000D01*
X106439048Y-92271905D01*
X106629524Y-92271905D01*
X106743810Y-92310000D01*
X107239048Y-92690952D02*
X107239048Y-93071905D01*
X106972381Y-92271905D02*
X107239048Y-92690952D01*
X107505715Y-92271905D01*
X107772381Y-93071905D02*
X107772381Y-92271905D01*
X108229524Y-93071905D01*
X108229524Y-92271905D01*
X109067619Y-92995714D02*
X109029524Y-93033810D01*
X108915238Y-93071905D01*
X108839048Y-93071905D01*
X108724762Y-93033810D01*
X108648571Y-92957619D01*
X108610476Y-92881429D01*
X108572381Y-92729048D01*
X108572381Y-92614762D01*
X108610476Y-92462381D01*
X108648571Y-92386190D01*
X108724762Y-92310000D01*
X108839048Y-92271905D01*
X108915238Y-92271905D01*
X109029524Y-92310000D01*
X109067619Y-92348095D01*
X107848571Y-90531905D02*
X107848571Y-89731905D01*
X108039047Y-89731905D01*
X108153333Y-89770000D01*
X108229524Y-89846190D01*
X108267619Y-89922381D01*
X108305714Y-90074762D01*
X108305714Y-90189048D01*
X108267619Y-90341429D01*
X108229524Y-90417619D01*
X108153333Y-90493810D01*
X108039047Y-90531905D01*
X107848571Y-90531905D01*
X108800952Y-89731905D02*
X108877143Y-89731905D01*
X108953333Y-89770000D01*
X108991428Y-89808095D01*
X109029524Y-89884286D01*
X109067619Y-90036667D01*
X109067619Y-90227143D01*
X109029524Y-90379524D01*
X108991428Y-90455714D01*
X108953333Y-90493810D01*
X108877143Y-90531905D01*
X108800952Y-90531905D01*
X108724762Y-90493810D01*
X108686666Y-90455714D01*
X108648571Y-90379524D01*
X108610476Y-90227143D01*
X108610476Y-90036667D01*
X108648571Y-89884286D01*
X108686666Y-89808095D01*
X108724762Y-89770000D01*
X108800952Y-89731905D01*
X107848571Y-87991905D02*
X107848571Y-87191905D01*
X108039047Y-87191905D01*
X108153333Y-87230000D01*
X108229524Y-87306190D01*
X108267619Y-87382381D01*
X108305714Y-87534762D01*
X108305714Y-87649048D01*
X108267619Y-87801429D01*
X108229524Y-87877619D01*
X108153333Y-87953810D01*
X108039047Y-87991905D01*
X107848571Y-87991905D01*
X109067619Y-87991905D02*
X108610476Y-87991905D01*
X108839047Y-87991905D02*
X108839047Y-87191905D01*
X108762857Y-87306190D01*
X108686666Y-87382381D01*
X108610476Y-87420476D01*
X107848571Y-85451905D02*
X107848571Y-84651905D01*
X108039047Y-84651905D01*
X108153333Y-84690000D01*
X108229524Y-84766190D01*
X108267619Y-84842381D01*
X108305714Y-84994762D01*
X108305714Y-85109048D01*
X108267619Y-85261429D01*
X108229524Y-85337619D01*
X108153333Y-85413810D01*
X108039047Y-85451905D01*
X107848571Y-85451905D01*
X108610476Y-84728095D02*
X108648571Y-84690000D01*
X108724762Y-84651905D01*
X108915238Y-84651905D01*
X108991428Y-84690000D01*
X109029524Y-84728095D01*
X109067619Y-84804286D01*
X109067619Y-84880476D01*
X109029524Y-84994762D01*
X108572381Y-85451905D01*
X109067619Y-85451905D01*
X107848571Y-82911905D02*
X107848571Y-82111905D01*
X108039047Y-82111905D01*
X108153333Y-82150000D01*
X108229524Y-82226190D01*
X108267619Y-82302381D01*
X108305714Y-82454762D01*
X108305714Y-82569048D01*
X108267619Y-82721429D01*
X108229524Y-82797619D01*
X108153333Y-82873810D01*
X108039047Y-82911905D01*
X107848571Y-82911905D01*
X108572381Y-82111905D02*
X109067619Y-82111905D01*
X108800952Y-82416667D01*
X108915238Y-82416667D01*
X108991428Y-82454762D01*
X109029524Y-82492857D01*
X109067619Y-82569048D01*
X109067619Y-82759524D01*
X109029524Y-82835714D01*
X108991428Y-82873810D01*
X108915238Y-82911905D01*
X108686666Y-82911905D01*
X108610476Y-82873810D01*
X108572381Y-82835714D01*
X107848571Y-80371905D02*
X107848571Y-79571905D01*
X108039047Y-79571905D01*
X108153333Y-79610000D01*
X108229524Y-79686190D01*
X108267619Y-79762381D01*
X108305714Y-79914762D01*
X108305714Y-80029048D01*
X108267619Y-80181429D01*
X108229524Y-80257619D01*
X108153333Y-80333810D01*
X108039047Y-80371905D01*
X107848571Y-80371905D01*
X108991428Y-79838571D02*
X108991428Y-80371905D01*
X108800952Y-79533810D02*
X108610476Y-80105238D01*
X109105714Y-80105238D01*
X107848571Y-77831905D02*
X107848571Y-77031905D01*
X108039047Y-77031905D01*
X108153333Y-77070000D01*
X108229524Y-77146190D01*
X108267619Y-77222381D01*
X108305714Y-77374762D01*
X108305714Y-77489048D01*
X108267619Y-77641429D01*
X108229524Y-77717619D01*
X108153333Y-77793810D01*
X108039047Y-77831905D01*
X107848571Y-77831905D01*
X109029524Y-77031905D02*
X108648571Y-77031905D01*
X108610476Y-77412857D01*
X108648571Y-77374762D01*
X108724762Y-77336667D01*
X108915238Y-77336667D01*
X108991428Y-77374762D01*
X109029524Y-77412857D01*
X109067619Y-77489048D01*
X109067619Y-77679524D01*
X109029524Y-77755714D01*
X108991428Y-77793810D01*
X108915238Y-77831905D01*
X108724762Y-77831905D01*
X108648571Y-77793810D01*
X108610476Y-77755714D01*
X107848571Y-75291905D02*
X107848571Y-74491905D01*
X108039047Y-74491905D01*
X108153333Y-74530000D01*
X108229524Y-74606190D01*
X108267619Y-74682381D01*
X108305714Y-74834762D01*
X108305714Y-74949048D01*
X108267619Y-75101429D01*
X108229524Y-75177619D01*
X108153333Y-75253810D01*
X108039047Y-75291905D01*
X107848571Y-75291905D01*
X108991428Y-74491905D02*
X108839047Y-74491905D01*
X108762857Y-74530000D01*
X108724762Y-74568095D01*
X108648571Y-74682381D01*
X108610476Y-74834762D01*
X108610476Y-75139524D01*
X108648571Y-75215714D01*
X108686666Y-75253810D01*
X108762857Y-75291905D01*
X108915238Y-75291905D01*
X108991428Y-75253810D01*
X109029524Y-75215714D01*
X109067619Y-75139524D01*
X109067619Y-74949048D01*
X109029524Y-74872857D01*
X108991428Y-74834762D01*
X108915238Y-74796667D01*
X108762857Y-74796667D01*
X108686666Y-74834762D01*
X108648571Y-74872857D01*
X108610476Y-74949048D01*
X107848571Y-72751905D02*
X107848571Y-71951905D01*
X108039047Y-71951905D01*
X108153333Y-71990000D01*
X108229524Y-72066190D01*
X108267619Y-72142381D01*
X108305714Y-72294762D01*
X108305714Y-72409048D01*
X108267619Y-72561429D01*
X108229524Y-72637619D01*
X108153333Y-72713810D01*
X108039047Y-72751905D01*
X107848571Y-72751905D01*
X108572381Y-71951905D02*
X109105714Y-71951905D01*
X108762857Y-72751905D01*
X107924761Y-69411905D02*
X108381904Y-69411905D01*
X108153333Y-70211905D02*
X108153333Y-69411905D01*
X108572381Y-69411905D02*
X109105714Y-70211905D01*
X109105714Y-69411905D02*
X108572381Y-70211905D01*
X108305714Y-67671905D02*
X108039047Y-67290952D01*
X107848571Y-67671905D02*
X107848571Y-66871905D01*
X108153333Y-66871905D01*
X108229524Y-66910000D01*
X108267619Y-66948095D01*
X108305714Y-67024286D01*
X108305714Y-67138571D01*
X108267619Y-67214762D01*
X108229524Y-67252857D01*
X108153333Y-67290952D01*
X107848571Y-67290952D01*
X108572381Y-66871905D02*
X109105714Y-67671905D01*
X109105714Y-66871905D02*
X108572381Y-67671905D01*
X107277143Y-65131905D02*
X107277143Y-64331905D01*
X107734286Y-65131905D01*
X107734286Y-64331905D01*
X108115238Y-65131905D02*
X108115238Y-64331905D01*
X108381905Y-64903333D01*
X108648572Y-64331905D01*
X108648572Y-65131905D01*
X109029524Y-65131905D02*
X109029524Y-64331905D01*
X107086667Y-64194000D02*
X109220000Y-64194000D01*
D12*
X62230000Y-156845000D02*
X161290000Y-156845000D01*
X62230000Y-154940000D02*
X161290000Y-154940000D01*
D13*
X66100000Y-58360000D02*
X63440000Y-58360000D01*
X66100000Y-154940000D02*
X66100000Y-58360000D01*
X63440000Y-154940000D02*
X63440000Y-58360000D01*
X66100000Y-154940000D02*
X63440000Y-154940000D01*
X66100000Y-156210000D02*
X66100000Y-157540000D01*
X66100000Y-157540000D02*
X64770000Y-157540000D01*
X150749278Y-80554723D02*
G75*
G03X155360580Y-80555000I2305722J1179723D01*
G01*
X150749278Y-78195277D02*
G75*
G02X155360580Y-78195000I2305722J-1179723D01*
G01*
X150749278Y-78195277D02*
G75*
G03X150749420Y-80555000I2305722J-1179723D01*
G01*
X153055000Y-81925000D02*
X153055000Y-76825000D01*
X153015000Y-81925000D02*
X153015000Y-76825000D01*
X152975000Y-81924000D02*
X152975000Y-76826000D01*
X152935000Y-81923000D02*
X152935000Y-76827000D01*
X152895000Y-81921000D02*
X152895000Y-76829000D01*
X152855000Y-81918000D02*
X152855000Y-76832000D01*
X152815000Y-81914000D02*
X152815000Y-76836000D01*
X152775000Y-81910000D02*
X152775000Y-80355000D01*
X152775000Y-78395000D02*
X152775000Y-76840000D01*
X152735000Y-81906000D02*
X152735000Y-80355000D01*
X152735000Y-78395000D02*
X152735000Y-76844000D01*
X152695000Y-81900000D02*
X152695000Y-80355000D01*
X152695000Y-78395000D02*
X152695000Y-76850000D01*
X152655000Y-81894000D02*
X152655000Y-80355000D01*
X152655000Y-78395000D02*
X152655000Y-76856000D01*
X152615000Y-81888000D02*
X152615000Y-80355000D01*
X152615000Y-78395000D02*
X152615000Y-76862000D01*
X152575000Y-81881000D02*
X152575000Y-80355000D01*
X152575000Y-78395000D02*
X152575000Y-76869000D01*
X152535000Y-81873000D02*
X152535000Y-80355000D01*
X152535000Y-78395000D02*
X152535000Y-76877000D01*
X152495000Y-81864000D02*
X152495000Y-80355000D01*
X152495000Y-78395000D02*
X152495000Y-76886000D01*
X152455000Y-81855000D02*
X152455000Y-80355000D01*
X152455000Y-78395000D02*
X152455000Y-76895000D01*
X152415000Y-81845000D02*
X152415000Y-80355000D01*
X152415000Y-78395000D02*
X152415000Y-76905000D01*
X152375000Y-81835000D02*
X152375000Y-80355000D01*
X152375000Y-78395000D02*
X152375000Y-76915000D01*
X152334000Y-81823000D02*
X152334000Y-80355000D01*
X152334000Y-78395000D02*
X152334000Y-76927000D01*
X152294000Y-81811000D02*
X152294000Y-80355000D01*
X152294000Y-78395000D02*
X152294000Y-76939000D01*
X152254000Y-81799000D02*
X152254000Y-80355000D01*
X152254000Y-78395000D02*
X152254000Y-76951000D01*
X152214000Y-81785000D02*
X152214000Y-80355000D01*
X152214000Y-78395000D02*
X152214000Y-76965000D01*
X152174000Y-81771000D02*
X152174000Y-80355000D01*
X152174000Y-78395000D02*
X152174000Y-76979000D01*
X152134000Y-81757000D02*
X152134000Y-80355000D01*
X152134000Y-78395000D02*
X152134000Y-76993000D01*
X152094000Y-81741000D02*
X152094000Y-80355000D01*
X152094000Y-78395000D02*
X152094000Y-77009000D01*
X152054000Y-81725000D02*
X152054000Y-80355000D01*
X152054000Y-78395000D02*
X152054000Y-77025000D01*
X152014000Y-81708000D02*
X152014000Y-80355000D01*
X152014000Y-78395000D02*
X152014000Y-77042000D01*
X151974000Y-81690000D02*
X151974000Y-80355000D01*
X151974000Y-78395000D02*
X151974000Y-77060000D01*
X151934000Y-81671000D02*
X151934000Y-80355000D01*
X151934000Y-78395000D02*
X151934000Y-77079000D01*
X151894000Y-81651000D02*
X151894000Y-80355000D01*
X151894000Y-78395000D02*
X151894000Y-77099000D01*
X151854000Y-81631000D02*
X151854000Y-80355000D01*
X151854000Y-78395000D02*
X151854000Y-77119000D01*
X151814000Y-81609000D02*
X151814000Y-80355000D01*
X151814000Y-78395000D02*
X151814000Y-77141000D01*
X151774000Y-81587000D02*
X151774000Y-80355000D01*
X151774000Y-78395000D02*
X151774000Y-77163000D01*
X151734000Y-81564000D02*
X151734000Y-80355000D01*
X151734000Y-78395000D02*
X151734000Y-77186000D01*
X151694000Y-81540000D02*
X151694000Y-80355000D01*
X151694000Y-78395000D02*
X151694000Y-77210000D01*
X151654000Y-81515000D02*
X151654000Y-80355000D01*
X151654000Y-78395000D02*
X151654000Y-77235000D01*
X151614000Y-81488000D02*
X151614000Y-80355000D01*
X151614000Y-78395000D02*
X151614000Y-77262000D01*
X151574000Y-81461000D02*
X151574000Y-80355000D01*
X151574000Y-78395000D02*
X151574000Y-77289000D01*
X151534000Y-81433000D02*
X151534000Y-80355000D01*
X151534000Y-78395000D02*
X151534000Y-77317000D01*
X151494000Y-81403000D02*
X151494000Y-80355000D01*
X151494000Y-78395000D02*
X151494000Y-77347000D01*
X151454000Y-81372000D02*
X151454000Y-80355000D01*
X151454000Y-78395000D02*
X151454000Y-77378000D01*
X151414000Y-81340000D02*
X151414000Y-80355000D01*
X151414000Y-78395000D02*
X151414000Y-77410000D01*
X151374000Y-81307000D02*
X151374000Y-80355000D01*
X151374000Y-78395000D02*
X151374000Y-77443000D01*
X151334000Y-81272000D02*
X151334000Y-80355000D01*
X151334000Y-78395000D02*
X151334000Y-77478000D01*
X151294000Y-81236000D02*
X151294000Y-80355000D01*
X151294000Y-78395000D02*
X151294000Y-77514000D01*
X151254000Y-81198000D02*
X151254000Y-80355000D01*
X151254000Y-78395000D02*
X151254000Y-77552000D01*
X151214000Y-81158000D02*
X151214000Y-80355000D01*
X151214000Y-78395000D02*
X151214000Y-77592000D01*
X151174000Y-81117000D02*
X151174000Y-80355000D01*
X151174000Y-78395000D02*
X151174000Y-77633000D01*
X151134000Y-81074000D02*
X151134000Y-80355000D01*
X151134000Y-78395000D02*
X151134000Y-77676000D01*
X151094000Y-81029000D02*
X151094000Y-80355000D01*
X151094000Y-78395000D02*
X151094000Y-77721000D01*
X151054000Y-80981000D02*
X151054000Y-80355000D01*
X151054000Y-78395000D02*
X151054000Y-77769000D01*
X151014000Y-80931000D02*
X151014000Y-80355000D01*
X151014000Y-78395000D02*
X151014000Y-77819000D01*
X150974000Y-80879000D02*
X150974000Y-80355000D01*
X150974000Y-78395000D02*
X150974000Y-77871000D01*
X150934000Y-80823000D02*
X150934000Y-80355000D01*
X150934000Y-78395000D02*
X150934000Y-77927000D01*
X150894000Y-80765000D02*
X150894000Y-80355000D01*
X150894000Y-78395000D02*
X150894000Y-77985000D01*
X150854000Y-80702000D02*
X150854000Y-80355000D01*
X150854000Y-78395000D02*
X150854000Y-78048000D01*
X150814000Y-80636000D02*
X150814000Y-78114000D01*
X150774000Y-80564000D02*
X150774000Y-78186000D01*
X150734000Y-80487000D02*
X150734000Y-78263000D01*
X150694000Y-80403000D02*
X150694000Y-78347000D01*
X150654000Y-80309000D02*
X150654000Y-78441000D01*
X150614000Y-80204000D02*
X150614000Y-78546000D01*
X150574000Y-80082000D02*
X150574000Y-78668000D01*
X150534000Y-79934000D02*
X150534000Y-78816000D01*
X150494000Y-79729000D02*
X150494000Y-79021000D01*
X156505000Y-79375000D02*
X155305000Y-79375000D01*
X155905000Y-80025000D02*
X155905000Y-78725000D01*
X150823564Y-86069170D02*
G75*
G03X154515996Y-86070000I1846436J979170D01*
G01*
X150823564Y-84110830D02*
G75*
G02X154515996Y-84110000I1846436J-979170D01*
G01*
X150823564Y-84110830D02*
G75*
G03X150824004Y-86070000I1846436J-979170D01*
G01*
X152670000Y-87140000D02*
X152670000Y-83040000D01*
X152630000Y-87140000D02*
X152630000Y-83040000D01*
X152590000Y-87139000D02*
X152590000Y-83041000D01*
X152550000Y-87137000D02*
X152550000Y-83043000D01*
X152510000Y-87134000D02*
X152510000Y-83046000D01*
X152470000Y-87131000D02*
X152470000Y-83049000D01*
X152430000Y-87127000D02*
X152430000Y-85870000D01*
X152430000Y-84310000D02*
X152430000Y-83053000D01*
X152390000Y-87122000D02*
X152390000Y-85870000D01*
X152390000Y-84310000D02*
X152390000Y-83058000D01*
X152350000Y-87116000D02*
X152350000Y-85870000D01*
X152350000Y-84310000D02*
X152350000Y-83064000D01*
X152310000Y-87109000D02*
X152310000Y-85870000D01*
X152310000Y-84310000D02*
X152310000Y-83071000D01*
X152270000Y-87102000D02*
X152270000Y-85870000D01*
X152270000Y-84310000D02*
X152270000Y-83078000D01*
X152230000Y-87094000D02*
X152230000Y-85870000D01*
X152230000Y-84310000D02*
X152230000Y-83086000D01*
X152190000Y-87085000D02*
X152190000Y-85870000D01*
X152190000Y-84310000D02*
X152190000Y-83095000D01*
X152150000Y-87075000D02*
X152150000Y-85870000D01*
X152150000Y-84310000D02*
X152150000Y-83105000D01*
X152110000Y-87064000D02*
X152110000Y-85870000D01*
X152110000Y-84310000D02*
X152110000Y-83116000D01*
X152070000Y-87053000D02*
X152070000Y-85870000D01*
X152070000Y-84310000D02*
X152070000Y-83127000D01*
X152030000Y-87040000D02*
X152030000Y-85870000D01*
X152030000Y-84310000D02*
X152030000Y-83140000D01*
X151990000Y-87027000D02*
X151990000Y-85870000D01*
X151990000Y-84310000D02*
X151990000Y-83153000D01*
X151949000Y-87013000D02*
X151949000Y-85870000D01*
X151949000Y-84310000D02*
X151949000Y-83167000D01*
X151909000Y-86997000D02*
X151909000Y-85870000D01*
X151909000Y-84310000D02*
X151909000Y-83183000D01*
X151869000Y-86981000D02*
X151869000Y-85870000D01*
X151869000Y-84310000D02*
X151869000Y-83199000D01*
X151829000Y-86964000D02*
X151829000Y-85870000D01*
X151829000Y-84310000D02*
X151829000Y-83216000D01*
X151789000Y-86946000D02*
X151789000Y-85870000D01*
X151789000Y-84310000D02*
X151789000Y-83234000D01*
X151749000Y-86927000D02*
X151749000Y-85870000D01*
X151749000Y-84310000D02*
X151749000Y-83253000D01*
X151709000Y-86907000D02*
X151709000Y-85870000D01*
X151709000Y-84310000D02*
X151709000Y-83273000D01*
X151669000Y-86886000D02*
X151669000Y-85870000D01*
X151669000Y-84310000D02*
X151669000Y-83294000D01*
X151629000Y-86863000D02*
X151629000Y-85870000D01*
X151629000Y-84310000D02*
X151629000Y-83317000D01*
X151589000Y-86840000D02*
X151589000Y-85870000D01*
X151589000Y-84310000D02*
X151589000Y-83340000D01*
X151549000Y-86815000D02*
X151549000Y-85870000D01*
X151549000Y-84310000D02*
X151549000Y-83365000D01*
X151509000Y-86789000D02*
X151509000Y-85870000D01*
X151509000Y-84310000D02*
X151509000Y-83391000D01*
X151469000Y-86762000D02*
X151469000Y-85870000D01*
X151469000Y-84310000D02*
X151469000Y-83418000D01*
X151429000Y-86733000D02*
X151429000Y-85870000D01*
X151429000Y-84310000D02*
X151429000Y-83447000D01*
X151389000Y-86703000D02*
X151389000Y-85870000D01*
X151389000Y-84310000D02*
X151389000Y-83477000D01*
X151349000Y-86671000D02*
X151349000Y-85870000D01*
X151349000Y-84310000D02*
X151349000Y-83509000D01*
X151309000Y-86637000D02*
X151309000Y-85870000D01*
X151309000Y-84310000D02*
X151309000Y-83543000D01*
X151269000Y-86602000D02*
X151269000Y-85870000D01*
X151269000Y-84310000D02*
X151269000Y-83578000D01*
X151229000Y-86565000D02*
X151229000Y-85870000D01*
X151229000Y-84310000D02*
X151229000Y-83615000D01*
X151189000Y-86526000D02*
X151189000Y-85870000D01*
X151189000Y-84310000D02*
X151189000Y-83654000D01*
X151149000Y-86485000D02*
X151149000Y-85870000D01*
X151149000Y-84310000D02*
X151149000Y-83695000D01*
X151109000Y-86441000D02*
X151109000Y-85870000D01*
X151109000Y-84310000D02*
X151109000Y-83739000D01*
X151069000Y-86395000D02*
X151069000Y-85870000D01*
X151069000Y-84310000D02*
X151069000Y-83785000D01*
X151029000Y-86346000D02*
X151029000Y-85870000D01*
X151029000Y-84310000D02*
X151029000Y-83834000D01*
X150989000Y-86294000D02*
X150989000Y-85870000D01*
X150989000Y-84310000D02*
X150989000Y-83886000D01*
X150949000Y-86238000D02*
X150949000Y-85870000D01*
X150949000Y-84310000D02*
X150949000Y-83942000D01*
X150909000Y-86178000D02*
X150909000Y-85870000D01*
X150909000Y-84310000D02*
X150909000Y-84002000D01*
X150869000Y-86113000D02*
X150869000Y-84067000D01*
X150829000Y-86042000D02*
X150829000Y-84138000D01*
X150789000Y-85964000D02*
X150789000Y-84216000D01*
X150749000Y-85876000D02*
X150749000Y-84304000D01*
X150709000Y-85776000D02*
X150709000Y-84404000D01*
X150669000Y-85657000D02*
X150669000Y-84523000D01*
X150629000Y-85505000D02*
X150629000Y-84675000D01*
X150589000Y-85255000D02*
X150589000Y-84925000D01*
X155370000Y-85090000D02*
X154470000Y-85090000D01*
X154920000Y-85540000D02*
X154920000Y-84640000D01*
X150455000Y-93890000D02*
X150455000Y-89070000D01*
X153075000Y-93890000D02*
X153075000Y-89070000D01*
X150455000Y-93890000D02*
X150769000Y-93890000D01*
X152761000Y-93890000D02*
X153075000Y-93890000D01*
X150455000Y-89070000D02*
X150769000Y-89070000D01*
X152761000Y-89070000D02*
X153075000Y-89070000D01*
X69890000Y-111850000D02*
X69890000Y-116670000D01*
X67270000Y-111850000D02*
X67270000Y-116670000D01*
X69890000Y-111850000D02*
X69576000Y-111850000D01*
X67584000Y-111850000D02*
X67270000Y-111850000D01*
X69890000Y-116670000D02*
X69576000Y-116670000D01*
X67584000Y-116670000D02*
X67270000Y-116670000D01*
X93385000Y-111850000D02*
X93385000Y-116670000D01*
X90765000Y-111850000D02*
X90765000Y-116670000D01*
X93385000Y-111850000D02*
X93071000Y-111850000D01*
X91079000Y-111850000D02*
X90765000Y-111850000D01*
X93385000Y-116670000D02*
X93071000Y-116670000D01*
X91079000Y-116670000D02*
X90765000Y-116670000D01*
X116880000Y-111850000D02*
X116880000Y-116670000D01*
X114260000Y-111850000D02*
X114260000Y-116670000D01*
X116880000Y-111850000D02*
X116566000Y-111850000D01*
X114574000Y-111850000D02*
X114260000Y-111850000D01*
X116880000Y-116670000D02*
X116566000Y-116670000D01*
X114574000Y-116670000D02*
X114260000Y-116670000D01*
X140375000Y-111850000D02*
X140375000Y-116670000D01*
X137755000Y-111850000D02*
X137755000Y-116670000D01*
X140375000Y-111850000D02*
X140061000Y-111850000D01*
X138069000Y-111850000D02*
X137755000Y-111850000D01*
X140375000Y-116670000D02*
X140061000Y-116670000D01*
X138069000Y-116670000D02*
X137755000Y-116670000D01*
X156250000Y-111850000D02*
X156250000Y-116670000D01*
X153630000Y-111850000D02*
X153630000Y-116670000D01*
X156250000Y-111850000D02*
X155936000Y-111850000D01*
X153944000Y-111850000D02*
X153630000Y-111850000D01*
X156250000Y-116670000D02*
X155936000Y-116670000D01*
X153944000Y-116670000D02*
X153630000Y-116670000D01*
X140180000Y-63580000D02*
X140180000Y-54780000D01*
X140180000Y-54780000D02*
X149380000Y-54780000D01*
X142880000Y-69480000D02*
X140180000Y-69480000D01*
X140180000Y-69480000D02*
X140180000Y-67580000D01*
X149380000Y-54780000D02*
X149380000Y-69480000D01*
X149380000Y-69480000D02*
X146780000Y-69480000D01*
X89595000Y-58360000D02*
X86935000Y-58360000D01*
X89595000Y-154940000D02*
X89595000Y-58360000D01*
X86935000Y-154940000D02*
X86935000Y-58360000D01*
X89595000Y-154940000D02*
X86935000Y-154940000D01*
X89595000Y-156210000D02*
X89595000Y-157540000D01*
X89595000Y-157540000D02*
X88265000Y-157540000D01*
X113090000Y-58360000D02*
X110430000Y-58360000D01*
X113090000Y-154940000D02*
X113090000Y-58360000D01*
X110430000Y-154940000D02*
X110430000Y-58360000D01*
X113090000Y-154940000D02*
X110430000Y-154940000D01*
X113090000Y-156210000D02*
X113090000Y-157540000D01*
X113090000Y-157540000D02*
X111760000Y-157540000D01*
X136585000Y-58360000D02*
X133925000Y-58360000D01*
X136585000Y-154940000D02*
X136585000Y-58360000D01*
X133925000Y-154940000D02*
X133925000Y-58360000D01*
X136585000Y-154940000D02*
X133925000Y-154940000D01*
X136585000Y-156210000D02*
X136585000Y-157540000D01*
X136585000Y-157540000D02*
X135255000Y-157540000D01*
X160080000Y-58360000D02*
X157420000Y-58360000D01*
X160080000Y-154940000D02*
X160080000Y-58360000D01*
X157420000Y-154940000D02*
X157420000Y-58360000D01*
X160080000Y-154940000D02*
X157420000Y-154940000D01*
X160080000Y-156210000D02*
X160080000Y-157540000D01*
X160080000Y-157540000D02*
X158750000Y-157540000D01*
X72136000Y-153670000D02*
G75*
G03X72136000Y-153670000I-2286000J0D01*
G01*
X155956000Y-153670000D02*
G75*
G03X155956000Y-153670000I-2286000J0D01*
G01*
X155956000Y-62230000D02*
G75*
G03X155956000Y-62230000I-2286000J0D01*
G01*
X72136000Y-62230000D02*
G75*
G03X72136000Y-62230000I-2286000J0D01*
G01*
X149900000Y-76715000D02*
X139660000Y-76715000D01*
X149900000Y-92605000D02*
X139660000Y-92605000D01*
X149900000Y-92605000D02*
X149900000Y-76715000D01*
X139660000Y-92605000D02*
X139660000Y-76715000D01*
X147320000Y-76715000D02*
X147320000Y-74075000D01*
X144780000Y-76715000D02*
X144780000Y-74091000D01*
X142240000Y-76715000D02*
X142240000Y-74091000D01*
X156270000Y-74990000D02*
X156270000Y-72330000D01*
X153670000Y-74990000D02*
X156270000Y-74990000D01*
X153670000Y-72330000D02*
X156270000Y-72330000D01*
X153670000Y-74990000D02*
X153670000Y-72330000D01*
X152400000Y-74990000D02*
X151070000Y-74990000D01*
X151070000Y-74990000D02*
X151070000Y-73660000D01*
D14*
X64436667Y-157992381D02*
X64436667Y-158706667D01*
X64389047Y-158849524D01*
X64293809Y-158944762D01*
X64150952Y-158992381D01*
X64055714Y-158992381D01*
X65436667Y-158992381D02*
X64865238Y-158992381D01*
X65150952Y-158992381D02*
X65150952Y-157992381D01*
X65055714Y-158135238D01*
X64960476Y-158230476D01*
X64865238Y-158278095D01*
X166838334Y-79732143D02*
X166790715Y-79779762D01*
X166647858Y-79827381D01*
X166552620Y-79827381D01*
X166409762Y-79779762D01*
X166314524Y-79684524D01*
X166266905Y-79589286D01*
X166219286Y-79398810D01*
X166219286Y-79255952D01*
X166266905Y-79065476D01*
X166314524Y-78970238D01*
X166409762Y-78875000D01*
X166552620Y-78827381D01*
X166647858Y-78827381D01*
X166790715Y-78875000D01*
X166838334Y-78922619D01*
X167790715Y-79827381D02*
X167219286Y-79827381D01*
X167505000Y-79827381D02*
X167505000Y-78827381D01*
X167409762Y-78970238D01*
X167314524Y-79065476D01*
X167219286Y-79113095D01*
X163028334Y-85447143D02*
X162980715Y-85494762D01*
X162837858Y-85542381D01*
X162742620Y-85542381D01*
X162599762Y-85494762D01*
X162504524Y-85399524D01*
X162456905Y-85304286D01*
X162409286Y-85113810D01*
X162409286Y-84970952D01*
X162456905Y-84780476D01*
X162504524Y-84685238D01*
X162599762Y-84590000D01*
X162742620Y-84542381D01*
X162837858Y-84542381D01*
X162980715Y-84590000D01*
X163028334Y-84637619D01*
X163409286Y-84637619D02*
X163456905Y-84590000D01*
X163552143Y-84542381D01*
X163790239Y-84542381D01*
X163885477Y-84590000D01*
X163933096Y-84637619D01*
X163980715Y-84732857D01*
X163980715Y-84828095D01*
X163933096Y-84970952D01*
X163361667Y-85542381D01*
X163980715Y-85542381D01*
X152122143Y-91606666D02*
X152169762Y-91654285D01*
X152217381Y-91797142D01*
X152217381Y-91892380D01*
X152169762Y-92035238D01*
X152074524Y-92130476D01*
X151979286Y-92178095D01*
X151788810Y-92225714D01*
X151645952Y-92225714D01*
X151455476Y-92178095D01*
X151360238Y-92130476D01*
X151265000Y-92035238D01*
X151217381Y-91892380D01*
X151217381Y-91797142D01*
X151265000Y-91654285D01*
X151312619Y-91606666D01*
X151217381Y-91273333D02*
X151217381Y-90654285D01*
X151598333Y-90987619D01*
X151598333Y-90844761D01*
X151645952Y-90749523D01*
X151693571Y-90701904D01*
X151788810Y-90654285D01*
X152026905Y-90654285D01*
X152122143Y-90701904D01*
X152169762Y-90749523D01*
X152217381Y-90844761D01*
X152217381Y-91130476D01*
X152169762Y-91225714D01*
X152122143Y-91273333D01*
X68937143Y-114466666D02*
X68984762Y-114514285D01*
X69032381Y-114657142D01*
X69032381Y-114752380D01*
X68984762Y-114895238D01*
X68889524Y-114990476D01*
X68794286Y-115038095D01*
X68603810Y-115085714D01*
X68460952Y-115085714D01*
X68270476Y-115038095D01*
X68175238Y-114990476D01*
X68080000Y-114895238D01*
X68032381Y-114752380D01*
X68032381Y-114657142D01*
X68080000Y-114514285D01*
X68127619Y-114466666D01*
X68365714Y-113609523D02*
X69032381Y-113609523D01*
X67984762Y-113847619D02*
X68699048Y-114085714D01*
X68699048Y-113466666D01*
X92432143Y-114466666D02*
X92479762Y-114514285D01*
X92527381Y-114657142D01*
X92527381Y-114752380D01*
X92479762Y-114895238D01*
X92384524Y-114990476D01*
X92289286Y-115038095D01*
X92098810Y-115085714D01*
X91955952Y-115085714D01*
X91765476Y-115038095D01*
X91670238Y-114990476D01*
X91575000Y-114895238D01*
X91527381Y-114752380D01*
X91527381Y-114657142D01*
X91575000Y-114514285D01*
X91622619Y-114466666D01*
X91527381Y-113561904D02*
X91527381Y-114038095D01*
X92003571Y-114085714D01*
X91955952Y-114038095D01*
X91908333Y-113942857D01*
X91908333Y-113704761D01*
X91955952Y-113609523D01*
X92003571Y-113561904D01*
X92098810Y-113514285D01*
X92336905Y-113514285D01*
X92432143Y-113561904D01*
X92479762Y-113609523D01*
X92527381Y-113704761D01*
X92527381Y-113942857D01*
X92479762Y-114038095D01*
X92432143Y-114085714D01*
X115927143Y-114466666D02*
X115974762Y-114514285D01*
X116022381Y-114657142D01*
X116022381Y-114752380D01*
X115974762Y-114895238D01*
X115879524Y-114990476D01*
X115784286Y-115038095D01*
X115593810Y-115085714D01*
X115450952Y-115085714D01*
X115260476Y-115038095D01*
X115165238Y-114990476D01*
X115070000Y-114895238D01*
X115022381Y-114752380D01*
X115022381Y-114657142D01*
X115070000Y-114514285D01*
X115117619Y-114466666D01*
X115022381Y-113609523D02*
X115022381Y-113800000D01*
X115070000Y-113895238D01*
X115117619Y-113942857D01*
X115260476Y-114038095D01*
X115450952Y-114085714D01*
X115831905Y-114085714D01*
X115927143Y-114038095D01*
X115974762Y-113990476D01*
X116022381Y-113895238D01*
X116022381Y-113704761D01*
X115974762Y-113609523D01*
X115927143Y-113561904D01*
X115831905Y-113514285D01*
X115593810Y-113514285D01*
X115498571Y-113561904D01*
X115450952Y-113609523D01*
X115403333Y-113704761D01*
X115403333Y-113895238D01*
X115450952Y-113990476D01*
X115498571Y-114038095D01*
X115593810Y-114085714D01*
X139422143Y-114466666D02*
X139469762Y-114514285D01*
X139517381Y-114657142D01*
X139517381Y-114752380D01*
X139469762Y-114895238D01*
X139374524Y-114990476D01*
X139279286Y-115038095D01*
X139088810Y-115085714D01*
X138945952Y-115085714D01*
X138755476Y-115038095D01*
X138660238Y-114990476D01*
X138565000Y-114895238D01*
X138517381Y-114752380D01*
X138517381Y-114657142D01*
X138565000Y-114514285D01*
X138612619Y-114466666D01*
X138517381Y-114133333D02*
X138517381Y-113466666D01*
X139517381Y-113895238D01*
X155297143Y-114466666D02*
X155344762Y-114514285D01*
X155392381Y-114657142D01*
X155392381Y-114752380D01*
X155344762Y-114895238D01*
X155249524Y-114990476D01*
X155154286Y-115038095D01*
X154963810Y-115085714D01*
X154820952Y-115085714D01*
X154630476Y-115038095D01*
X154535238Y-114990476D01*
X154440000Y-114895238D01*
X154392381Y-114752380D01*
X154392381Y-114657142D01*
X154440000Y-114514285D01*
X154487619Y-114466666D01*
X154820952Y-113895238D02*
X154773333Y-113990476D01*
X154725714Y-114038095D01*
X154630476Y-114085714D01*
X154582857Y-114085714D01*
X154487619Y-114038095D01*
X154440000Y-113990476D01*
X154392381Y-113895238D01*
X154392381Y-113704761D01*
X154440000Y-113609523D01*
X154487619Y-113561904D01*
X154582857Y-113514285D01*
X154630476Y-113514285D01*
X154725714Y-113561904D01*
X154773333Y-113609523D01*
X154820952Y-113704761D01*
X154820952Y-113895238D01*
X154868571Y-113990476D01*
X154916190Y-114038095D01*
X155011429Y-114085714D01*
X155201905Y-114085714D01*
X155297143Y-114038095D01*
X155344762Y-113990476D01*
X155392381Y-113895238D01*
X155392381Y-113704761D01*
X155344762Y-113609523D01*
X155297143Y-113561904D01*
X155201905Y-113514285D01*
X155011429Y-113514285D01*
X154916190Y-113561904D01*
X154868571Y-113609523D01*
X154820952Y-113704761D01*
X144446667Y-55967381D02*
X144446667Y-56681667D01*
X144399047Y-56824524D01*
X144303809Y-56919762D01*
X144160952Y-56967381D01*
X144065714Y-56967381D01*
X144875238Y-56062619D02*
X144922857Y-56015000D01*
X145018095Y-55967381D01*
X145256191Y-55967381D01*
X145351429Y-56015000D01*
X145399048Y-56062619D01*
X145446667Y-56157857D01*
X145446667Y-56253095D01*
X145399048Y-56395952D01*
X144827619Y-56967381D01*
X145446667Y-56967381D01*
X87931667Y-157992381D02*
X87931667Y-158706667D01*
X87884047Y-158849524D01*
X87788809Y-158944762D01*
X87645952Y-158992381D01*
X87550714Y-158992381D01*
X88312619Y-157992381D02*
X88931667Y-157992381D01*
X88598333Y-158373333D01*
X88741191Y-158373333D01*
X88836429Y-158420952D01*
X88884048Y-158468571D01*
X88931667Y-158563810D01*
X88931667Y-158801905D01*
X88884048Y-158897143D01*
X88836429Y-158944762D01*
X88741191Y-158992381D01*
X88455476Y-158992381D01*
X88360238Y-158944762D01*
X88312619Y-158897143D01*
X111426667Y-157992381D02*
X111426667Y-158706667D01*
X111379047Y-158849524D01*
X111283809Y-158944762D01*
X111140952Y-158992381D01*
X111045714Y-158992381D01*
X112331429Y-158325714D02*
X112331429Y-158992381D01*
X112093333Y-157944762D02*
X111855238Y-158659048D01*
X112474286Y-158659048D01*
X134921667Y-157992381D02*
X134921667Y-158706667D01*
X134874047Y-158849524D01*
X134778809Y-158944762D01*
X134635952Y-158992381D01*
X134540714Y-158992381D01*
X135874048Y-157992381D02*
X135397857Y-157992381D01*
X135350238Y-158468571D01*
X135397857Y-158420952D01*
X135493095Y-158373333D01*
X135731191Y-158373333D01*
X135826429Y-158420952D01*
X135874048Y-158468571D01*
X135921667Y-158563810D01*
X135921667Y-158801905D01*
X135874048Y-158897143D01*
X135826429Y-158944762D01*
X135731191Y-158992381D01*
X135493095Y-158992381D01*
X135397857Y-158944762D01*
X135350238Y-158897143D01*
X158416667Y-157992381D02*
X158416667Y-158706667D01*
X158369047Y-158849524D01*
X158273809Y-158944762D01*
X158130952Y-158992381D01*
X158035714Y-158992381D01*
X159321429Y-157992381D02*
X159130952Y-157992381D01*
X159035714Y-158040000D01*
X158988095Y-158087619D01*
X158892857Y-158230476D01*
X158845238Y-158420952D01*
X158845238Y-158801905D01*
X158892857Y-158897143D01*
X158940476Y-158944762D01*
X159035714Y-158992381D01*
X159226191Y-158992381D01*
X159321429Y-158944762D01*
X159369048Y-158897143D01*
X159416667Y-158801905D01*
X159416667Y-158563810D01*
X159369048Y-158468571D01*
X159321429Y-158420952D01*
X159226191Y-158373333D01*
X159035714Y-158373333D01*
X158940476Y-158420952D01*
X158892857Y-158468571D01*
X158845238Y-158563810D01*
X144018095Y-79462381D02*
X144018095Y-80271905D01*
X144065714Y-80367143D01*
X144113333Y-80414762D01*
X144208571Y-80462381D01*
X144399048Y-80462381D01*
X144494286Y-80414762D01*
X144541905Y-80367143D01*
X144589524Y-80271905D01*
X144589524Y-79462381D01*
X145589524Y-80462381D02*
X145018095Y-80462381D01*
X145303809Y-80462381D02*
X145303809Y-79462381D01*
X145208571Y-79605238D01*
X145113333Y-79700476D01*
X145018095Y-79748095D01*
X142613334Y-78557381D02*
X142137143Y-78557381D01*
X142137143Y-77557381D01*
X142946667Y-78557381D02*
X142946667Y-77557381D01*
X143280001Y-78271667D01*
X143613334Y-77557381D01*
X143613334Y-78557381D01*
X143994286Y-77557381D02*
X144660953Y-77557381D01*
X144232381Y-78557381D01*
X145184762Y-77985952D02*
X145089524Y-77938333D01*
X145041905Y-77890714D01*
X144994286Y-77795476D01*
X144994286Y-77747857D01*
X145041905Y-77652619D01*
X145089524Y-77605000D01*
X145184762Y-77557381D01*
X145375239Y-77557381D01*
X145470477Y-77605000D01*
X145518096Y-77652619D01*
X145565715Y-77747857D01*
X145565715Y-77795476D01*
X145518096Y-77890714D01*
X145470477Y-77938333D01*
X145375239Y-77985952D01*
X145184762Y-77985952D01*
X145089524Y-78033571D01*
X145041905Y-78081190D01*
X144994286Y-78176429D01*
X144994286Y-78366905D01*
X145041905Y-78462143D01*
X145089524Y-78509762D01*
X145184762Y-78557381D01*
X145375239Y-78557381D01*
X145470477Y-78509762D01*
X145518096Y-78462143D01*
X145565715Y-78366905D01*
X145565715Y-78176429D01*
X145518096Y-78081190D01*
X145470477Y-78033571D01*
X145375239Y-77985952D01*
X146184762Y-77557381D02*
X146280001Y-77557381D01*
X146375239Y-77605000D01*
X146422858Y-77652619D01*
X146470477Y-77747857D01*
X146518096Y-77938333D01*
X146518096Y-78176429D01*
X146470477Y-78366905D01*
X146422858Y-78462143D01*
X146375239Y-78509762D01*
X146280001Y-78557381D01*
X146184762Y-78557381D01*
X146089524Y-78509762D01*
X146041905Y-78462143D01*
X145994286Y-78366905D01*
X145946667Y-78176429D01*
X145946667Y-77938333D01*
X145994286Y-77747857D01*
X146041905Y-77652619D01*
X146089524Y-77605000D01*
X146184762Y-77557381D01*
X147422858Y-77557381D02*
X146946667Y-77557381D01*
X146899048Y-78033571D01*
X146946667Y-77985952D01*
X147041905Y-77938333D01*
X147280001Y-77938333D01*
X147375239Y-77985952D01*
X147422858Y-78033571D01*
X147470477Y-78128810D01*
X147470477Y-78366905D01*
X147422858Y-78462143D01*
X147375239Y-78509762D01*
X147280001Y-78557381D01*
X147041905Y-78557381D01*
X146946667Y-78509762D01*
X146899048Y-78462143D01*
X162361667Y-73112381D02*
X162361667Y-73826667D01*
X162314047Y-73969524D01*
X162218809Y-74064762D01*
X162075952Y-74112381D01*
X161980714Y-74112381D01*
X162837857Y-74112381D02*
X162837857Y-73112381D01*
X163218810Y-73112381D01*
X163314048Y-73160000D01*
X163361667Y-73207619D01*
X163409286Y-73302857D01*
X163409286Y-73445714D01*
X163361667Y-73540952D01*
X163314048Y-73588571D01*
X163218810Y-73636190D01*
X162837857Y-73636190D01*
X164361667Y-74112381D02*
X163790238Y-74112381D01*
X164075952Y-74112381D02*
X164075952Y-73112381D01*
X163980714Y-73255238D01*
X163885476Y-73350476D01*
X163790238Y-73398095D01*
X151027143Y-71572381D02*
X151027143Y-70572381D01*
X151598572Y-71572381D01*
X151598572Y-70572381D01*
X152265238Y-70572381D02*
X152455715Y-70572381D01*
X152550953Y-70620000D01*
X152646191Y-70715238D01*
X152693810Y-70905714D01*
X152693810Y-71239048D01*
X152646191Y-71429524D01*
X152550953Y-71524762D01*
X152455715Y-71572381D01*
X152265238Y-71572381D01*
X152170000Y-71524762D01*
X152074762Y-71429524D01*
X152027143Y-71239048D01*
X152027143Y-70905714D01*
X152074762Y-70715238D01*
X152170000Y-70620000D01*
X152265238Y-70572381D01*
X152884286Y-71667619D02*
X153646191Y-71667619D01*
X154455715Y-71572381D02*
X154122381Y-71096190D01*
X153884286Y-71572381D02*
X153884286Y-70572381D01*
X154265239Y-70572381D01*
X154360477Y-70620000D01*
X154408096Y-70667619D01*
X154455715Y-70762857D01*
X154455715Y-70905714D01*
X154408096Y-71000952D01*
X154360477Y-71048571D01*
X154265239Y-71096190D01*
X153884286Y-71096190D01*
X154884286Y-71048571D02*
X155217620Y-71048571D01*
X155360477Y-71572381D02*
X154884286Y-71572381D01*
X154884286Y-70572381D01*
X155360477Y-70572381D01*
X156312858Y-70620000D02*
X156217620Y-70572381D01*
X156074763Y-70572381D01*
X155931905Y-70620000D01*
X155836667Y-70715238D01*
X155789048Y-70810476D01*
X155741429Y-71000952D01*
X155741429Y-71143810D01*
X155789048Y-71334286D01*
X155836667Y-71429524D01*
X155931905Y-71524762D01*
X156074763Y-71572381D01*
X156170001Y-71572381D01*
X156312858Y-71524762D01*
X156360477Y-71477143D01*
X156360477Y-71143810D01*
X156170001Y-71143810D01*
M02*
