M48
;DRILL file {KiCad 4.0.7} date 02/11/19 21:11:50
;FORMAT={2:4/ absolute / inch / suppress leading zeros}
FMAT,2
INCH,TZ
T1C0.016
T2C0.024
T3C0.031
T4C0.035
T5C0.039
T6C0.126
T7C0.138
%
G90
G05
M72
T1
X56750Y-33000
X58250Y-28750
X59000Y-46000
X59750Y-44000
T2
X59713Y-33500
X60500Y-33500
T3
X27000Y-44000
X27000Y-45969
X36250Y-44000
X36250Y-45969
X45500Y-44000
X45500Y-45969
X54750Y-44000
X54750Y-45969
X55000Y-29250
X59000Y-29250
X59750Y-35031
X59750Y-37000
X59766Y-31250
X60750Y-31250
X61000Y-44000
X61000Y-45969
T4
X60500Y-26500
X60500Y-27500
T5
X25500Y-23500
X25500Y-24500
X25500Y-25500
X25500Y-26500
X25500Y-27500
X25500Y-28500
X25500Y-29500
X25500Y-30500
X25500Y-31500
X25500Y-32500
X25500Y-33500
X25500Y-34500
X25500Y-35500
X25500Y-36500
X25500Y-37500
X25500Y-38500
X25500Y-39500
X25500Y-40500
X25500Y-41500
X25500Y-42500
X25500Y-43500
X25500Y-44500
X25500Y-45500
X25500Y-46500
X25500Y-47500
X25500Y-48500
X25500Y-49500
X25500Y-50500
X25500Y-51500
X25500Y-52500
X25500Y-53500
X25500Y-54500
X25500Y-55500
X25500Y-56500
X25500Y-57500
X25500Y-58500
X25500Y-59500
X25500Y-60500
X25500Y-61500
X34750Y-23500
X34750Y-24500
X34750Y-25500
X34750Y-26500
X34750Y-27500
X34750Y-28500
X34750Y-29500
X34750Y-30500
X34750Y-31500
X34750Y-32500
X34750Y-33500
X34750Y-34500
X34750Y-35500
X34750Y-36500
X34750Y-37500
X34750Y-38500
X34750Y-39500
X34750Y-40500
X34750Y-41500
X34750Y-42500
X34750Y-43500
X34750Y-44500
X34750Y-45500
X34750Y-46500
X34750Y-47500
X34750Y-48500
X34750Y-49500
X34750Y-50500
X34750Y-51500
X34750Y-52500
X34750Y-53500
X34750Y-54500
X34750Y-55500
X34750Y-56500
X34750Y-57500
X34750Y-58500
X34750Y-59500
X34750Y-60500
X34750Y-61500
X44000Y-23500
X44000Y-24500
X44000Y-25500
X44000Y-26500
X44000Y-27500
X44000Y-28500
X44000Y-29500
X44000Y-30500
X44000Y-31500
X44000Y-32500
X44000Y-33500
X44000Y-34500
X44000Y-35500
X44000Y-36500
X44000Y-37500
X44000Y-38500
X44000Y-39500
X44000Y-40500
X44000Y-41500
X44000Y-42500
X44000Y-43500
X44000Y-44500
X44000Y-45500
X44000Y-46500
X44000Y-47500
X44000Y-48500
X44000Y-49500
X44000Y-50500
X44000Y-51500
X44000Y-52500
X44000Y-53500
X44000Y-54500
X44000Y-55500
X44000Y-56500
X44000Y-57500
X44000Y-58500
X44000Y-59500
X44000Y-60500
X44000Y-61500
X53250Y-23500
X53250Y-24500
X53250Y-25500
X53250Y-26500
X53250Y-27500
X53250Y-28500
X53250Y-29500
X53250Y-30500
X53250Y-31500
X53250Y-32500
X53250Y-33500
X53250Y-34500
X53250Y-35500
X53250Y-36500
X53250Y-37500
X53250Y-38500
X53250Y-39500
X53250Y-40500
X53250Y-41500
X53250Y-42500
X53250Y-43500
X53250Y-44500
X53250Y-45500
X53250Y-46500
X53250Y-47500
X53250Y-48500
X53250Y-49500
X53250Y-50500
X53250Y-51500
X53250Y-52500
X53250Y-53500
X53250Y-54500
X53250Y-55500
X53250Y-56500
X53250Y-57500
X53250Y-58500
X53250Y-59500
X53250Y-60500
X53250Y-61500
X56000Y-30500
X56500Y-33750
X57000Y-30500
X57500Y-33750
X58000Y-30500
X62500Y-23500
X62500Y-24500
X62500Y-25500
X62500Y-26500
X62500Y-27500
X62500Y-28500
X62500Y-29500
X62500Y-30500
X62500Y-31500
X62500Y-32500
X62500Y-33500
X62500Y-34500
X62500Y-35500
X62500Y-36500
X62500Y-37500
X62500Y-38500
X62500Y-39500
X62500Y-40500
X62500Y-41500
X62500Y-42500
X62500Y-43500
X62500Y-44500
X62500Y-45500
X62500Y-46500
X62500Y-47500
X62500Y-48500
X62500Y-49500
X62500Y-50500
X62500Y-51500
X62500Y-52500
X62500Y-53500
X62500Y-54500
X62500Y-55500
X62500Y-56500
X62500Y-57500
X62500Y-58500
X62500Y-59500
X62500Y-60500
X62500Y-61500
T6
X27500Y-24500
X27500Y-60500
X60500Y-24500
X60500Y-60500
T7
X57000Y-37059
T5
X55400Y-25425G85X55400Y-26213
G05
X57644Y-24638G85X56856Y-24638
G05
X57644Y-27000G85X56856Y-27000
G05
T0
M30
