G04 #@! TF.FileFunction,Copper,L2,Bot,Signal*
%FSLAX46Y46*%
G04 Gerber Fmt 4.6, Leading zero omitted, Abs format (unit mm)*
G04 Created by KiCad (PCBNEW 4.0.7) date 01/07/19 16:06:23*
%MOMM*%
%LPD*%
G01*
G04 APERTURE LIST*
%ADD10C,0.100000*%
%ADD11R,1.700000X1.700000*%
%ADD12O,1.700000X1.700000*%
%ADD13R,1.600000X1.600000*%
%ADD14C,1.600000*%
%ADD15R,1.200000X1.200000*%
%ADD16C,1.200000*%
%ADD17R,3.500000X3.500000*%
%ADD18C,5.000000*%
%ADD19R,1.800000X1.800000*%
%ADD20O,1.800000X1.800000*%
%ADD21C,0.600000*%
%ADD22C,0.250000*%
G04 APERTURE END LIST*
D10*
D11*
X64770000Y-156210000D03*
D12*
X64770000Y-153670000D03*
X64770000Y-151130000D03*
X64770000Y-148590000D03*
X64770000Y-146050000D03*
X64770000Y-143510000D03*
X64770000Y-140970000D03*
X64770000Y-138430000D03*
X64770000Y-135890000D03*
X64770000Y-133350000D03*
X64770000Y-130810000D03*
X64770000Y-128270000D03*
X64770000Y-125730000D03*
X64770000Y-123190000D03*
X64770000Y-120650000D03*
X64770000Y-118110000D03*
X64770000Y-115570000D03*
X64770000Y-113030000D03*
X64770000Y-110490000D03*
X64770000Y-107950000D03*
X64770000Y-105410000D03*
X64770000Y-102870000D03*
X64770000Y-100330000D03*
X64770000Y-97790000D03*
X64770000Y-95250000D03*
X64770000Y-92710000D03*
X64770000Y-90170000D03*
X64770000Y-87630000D03*
X64770000Y-85090000D03*
X64770000Y-82550000D03*
X64770000Y-80010000D03*
X64770000Y-77470000D03*
X64770000Y-74930000D03*
X64770000Y-72390000D03*
X64770000Y-69850000D03*
X64770000Y-67310000D03*
X64770000Y-64770000D03*
X64770000Y-62230000D03*
X64770000Y-59690000D03*
D13*
X154305000Y-79375000D03*
D14*
X151805000Y-79375000D03*
D15*
X153670000Y-85090000D03*
D16*
X151670000Y-85090000D03*
D14*
X151765000Y-93980000D03*
X151765000Y-88980000D03*
X68580000Y-111760000D03*
X68580000Y-116760000D03*
X92075000Y-111760000D03*
X92075000Y-116760000D03*
X115570000Y-111760000D03*
X115570000Y-116760000D03*
X139065000Y-111760000D03*
X139065000Y-116760000D03*
X154940000Y-111760000D03*
X154940000Y-116760000D03*
D17*
X144780000Y-68580000D03*
X144780000Y-62580000D03*
X140080000Y-65580000D03*
D11*
X88265000Y-156210000D03*
D12*
X88265000Y-153670000D03*
X88265000Y-151130000D03*
X88265000Y-148590000D03*
X88265000Y-146050000D03*
X88265000Y-143510000D03*
X88265000Y-140970000D03*
X88265000Y-138430000D03*
X88265000Y-135890000D03*
X88265000Y-133350000D03*
X88265000Y-130810000D03*
X88265000Y-128270000D03*
X88265000Y-125730000D03*
X88265000Y-123190000D03*
X88265000Y-120650000D03*
X88265000Y-118110000D03*
X88265000Y-115570000D03*
X88265000Y-113030000D03*
X88265000Y-110490000D03*
X88265000Y-107950000D03*
X88265000Y-105410000D03*
X88265000Y-102870000D03*
X88265000Y-100330000D03*
X88265000Y-97790000D03*
X88265000Y-95250000D03*
X88265000Y-92710000D03*
X88265000Y-90170000D03*
X88265000Y-87630000D03*
X88265000Y-85090000D03*
X88265000Y-82550000D03*
X88265000Y-80010000D03*
X88265000Y-77470000D03*
X88265000Y-74930000D03*
X88265000Y-72390000D03*
X88265000Y-69850000D03*
X88265000Y-67310000D03*
X88265000Y-64770000D03*
X88265000Y-62230000D03*
X88265000Y-59690000D03*
D11*
X111760000Y-156210000D03*
D12*
X111760000Y-153670000D03*
X111760000Y-151130000D03*
X111760000Y-148590000D03*
X111760000Y-146050000D03*
X111760000Y-143510000D03*
X111760000Y-140970000D03*
X111760000Y-138430000D03*
X111760000Y-135890000D03*
X111760000Y-133350000D03*
X111760000Y-130810000D03*
X111760000Y-128270000D03*
X111760000Y-125730000D03*
X111760000Y-123190000D03*
X111760000Y-120650000D03*
X111760000Y-118110000D03*
X111760000Y-115570000D03*
X111760000Y-113030000D03*
X111760000Y-110490000D03*
X111760000Y-107950000D03*
X111760000Y-105410000D03*
X111760000Y-102870000D03*
X111760000Y-100330000D03*
X111760000Y-97790000D03*
X111760000Y-95250000D03*
X111760000Y-92710000D03*
X111760000Y-90170000D03*
X111760000Y-87630000D03*
X111760000Y-85090000D03*
X111760000Y-82550000D03*
X111760000Y-80010000D03*
X111760000Y-77470000D03*
X111760000Y-74930000D03*
X111760000Y-72390000D03*
X111760000Y-69850000D03*
X111760000Y-67310000D03*
X111760000Y-64770000D03*
X111760000Y-62230000D03*
X111760000Y-59690000D03*
D11*
X135255000Y-156210000D03*
D12*
X135255000Y-153670000D03*
X135255000Y-151130000D03*
X135255000Y-148590000D03*
X135255000Y-146050000D03*
X135255000Y-143510000D03*
X135255000Y-140970000D03*
X135255000Y-138430000D03*
X135255000Y-135890000D03*
X135255000Y-133350000D03*
X135255000Y-130810000D03*
X135255000Y-128270000D03*
X135255000Y-125730000D03*
X135255000Y-123190000D03*
X135255000Y-120650000D03*
X135255000Y-118110000D03*
X135255000Y-115570000D03*
X135255000Y-113030000D03*
X135255000Y-110490000D03*
X135255000Y-107950000D03*
X135255000Y-105410000D03*
X135255000Y-102870000D03*
X135255000Y-100330000D03*
X135255000Y-97790000D03*
X135255000Y-95250000D03*
X135255000Y-92710000D03*
X135255000Y-90170000D03*
X135255000Y-87630000D03*
X135255000Y-85090000D03*
X135255000Y-82550000D03*
X135255000Y-80010000D03*
X135255000Y-77470000D03*
X135255000Y-74930000D03*
X135255000Y-72390000D03*
X135255000Y-69850000D03*
X135255000Y-67310000D03*
X135255000Y-64770000D03*
X135255000Y-62230000D03*
X135255000Y-59690000D03*
D11*
X158750000Y-156210000D03*
D12*
X158750000Y-153670000D03*
X158750000Y-151130000D03*
X158750000Y-148590000D03*
X158750000Y-146050000D03*
X158750000Y-143510000D03*
X158750000Y-140970000D03*
X158750000Y-138430000D03*
X158750000Y-135890000D03*
X158750000Y-133350000D03*
X158750000Y-130810000D03*
X158750000Y-128270000D03*
X158750000Y-125730000D03*
X158750000Y-123190000D03*
X158750000Y-120650000D03*
X158750000Y-118110000D03*
X158750000Y-115570000D03*
X158750000Y-113030000D03*
X158750000Y-110490000D03*
X158750000Y-107950000D03*
X158750000Y-105410000D03*
X158750000Y-102870000D03*
X158750000Y-100330000D03*
X158750000Y-97790000D03*
X158750000Y-95250000D03*
X158750000Y-92710000D03*
X158750000Y-90170000D03*
X158750000Y-87630000D03*
X158750000Y-85090000D03*
X158750000Y-82550000D03*
X158750000Y-80010000D03*
X158750000Y-77470000D03*
X158750000Y-74930000D03*
X158750000Y-72390000D03*
X158750000Y-69850000D03*
X158750000Y-67310000D03*
X158750000Y-64770000D03*
X158750000Y-62230000D03*
X158750000Y-59690000D03*
D18*
X69850000Y-153670000D03*
X153670000Y-153670000D03*
X153670000Y-62230000D03*
X69850000Y-62230000D03*
D19*
X147320000Y-73025000D03*
D20*
X144780000Y-73025000D03*
X142240000Y-73025000D03*
D11*
X152400000Y-73660000D03*
D12*
X154940000Y-73660000D03*
D21*
X149860000Y-116840000D03*
X153670000Y-75565000D03*
X151765000Y-111760000D03*
D22*
X149860000Y-116840000D02*
X149860000Y-95250000D01*
X149860000Y-93345000D02*
X149860000Y-95250000D01*
X151765000Y-90805000D02*
X151765000Y-88980000D01*
X149860000Y-92710000D02*
X150495000Y-92075000D01*
X149860000Y-93345000D02*
X149860000Y-92710000D01*
X151130000Y-92075000D02*
X151765000Y-91440000D01*
X151765000Y-91440000D02*
X151765000Y-90805000D01*
X150495000Y-92075000D02*
X151130000Y-92075000D01*
X151670000Y-85090000D02*
X151670000Y-88885000D01*
X151670000Y-88885000D02*
X151765000Y-88980000D01*
X151670000Y-85090000D02*
X151670000Y-79510000D01*
X151670000Y-79510000D02*
X151805000Y-79375000D01*
X153670000Y-85090000D02*
X156210000Y-82550000D01*
X156210000Y-78105000D02*
X156210000Y-82550000D01*
X156210000Y-78105000D02*
X153670000Y-75565000D01*
X151765000Y-93980000D02*
X151765000Y-111760000D01*
X151765000Y-93980000D02*
X152400000Y-93980000D01*
X152400000Y-93980000D02*
X153035000Y-93345000D01*
X153035000Y-93345000D02*
X153670000Y-92710000D01*
X153670000Y-92710000D02*
X153670000Y-85090000D01*
X158750000Y-153670000D02*
X158115000Y-153670000D01*
X158115000Y-153670000D02*
X156845000Y-154940000D01*
X156845000Y-154940000D02*
X156845000Y-156210000D01*
X156845000Y-156210000D02*
X156210000Y-156845000D01*
X156210000Y-156845000D02*
X137795000Y-156845000D01*
X137795000Y-156845000D02*
X137160000Y-156210000D01*
X137160000Y-156210000D02*
X137160000Y-154940000D01*
X137160000Y-154940000D02*
X135890000Y-153670000D01*
X135890000Y-153670000D02*
X135255000Y-153670000D01*
X87630000Y-153670000D02*
X86360000Y-154940000D01*
X86360000Y-156210000D02*
X86360000Y-154940000D01*
X85725000Y-156845000D02*
X86360000Y-156210000D01*
X67310000Y-156845000D02*
X85725000Y-156845000D01*
X66675000Y-156210000D02*
X67310000Y-156845000D01*
X66675000Y-154940000D02*
X66675000Y-156210000D01*
X66675000Y-154940000D02*
X65405000Y-153670000D01*
X87630000Y-153670000D02*
X88265000Y-153670000D01*
X64770000Y-153670000D02*
X65405000Y-153670000D01*
X135255000Y-72390000D02*
X139700000Y-72390000D01*
X157480000Y-71755000D02*
X158115000Y-72390000D01*
X157480000Y-71120000D02*
X157480000Y-71755000D01*
X156845000Y-70485000D02*
X157480000Y-71120000D01*
X151130000Y-70485000D02*
X156845000Y-70485000D01*
X149860000Y-71755000D02*
X151130000Y-70485000D01*
X149860000Y-74295000D02*
X149860000Y-71755000D01*
X149225000Y-74930000D02*
X149860000Y-74295000D01*
X140970000Y-74930000D02*
X149225000Y-74930000D01*
X140335000Y-74295000D02*
X140970000Y-74930000D01*
X140335000Y-73025000D02*
X140335000Y-74295000D01*
X139700000Y-72390000D02*
X140335000Y-73025000D01*
X158115000Y-72390000D02*
X158750000Y-72390000D01*
X158750000Y-69850000D02*
X150495000Y-69850000D01*
X136525000Y-69850000D02*
X135255000Y-69850000D01*
X138430000Y-71755000D02*
X136525000Y-69850000D01*
X148590000Y-71755000D02*
X138430000Y-71755000D01*
X150495000Y-69850000D02*
X148590000Y-71755000D01*
X148590000Y-70485000D02*
X148590000Y-67945000D01*
X149225000Y-67310000D02*
X151765000Y-67310000D01*
X148590000Y-67945000D02*
X149225000Y-67310000D01*
X158750000Y-67310000D02*
X151765000Y-67310000D01*
X136525000Y-67310000D02*
X135255000Y-67310000D01*
X137160000Y-67945000D02*
X136525000Y-67310000D01*
X137160000Y-69215000D02*
X137160000Y-67945000D01*
X139065000Y-71120000D02*
X137160000Y-69215000D01*
X147955000Y-71120000D02*
X139065000Y-71120000D01*
X148590000Y-70485000D02*
X147955000Y-71120000D01*
X158750000Y-64770000D02*
X157480000Y-64770000D01*
X136525000Y-64770000D02*
X137160000Y-64135000D01*
X137160000Y-64135000D02*
X137160000Y-62865000D01*
X137160000Y-62865000D02*
X137795000Y-62230000D01*
X137795000Y-62230000D02*
X137795000Y-60325000D01*
X137795000Y-60325000D02*
X138430000Y-59690000D01*
X138430000Y-59690000D02*
X149860000Y-59690000D01*
X149860000Y-59690000D02*
X150495000Y-60325000D01*
X150495000Y-60325000D02*
X150495000Y-64770000D01*
X150495000Y-64770000D02*
X151130000Y-65405000D01*
X136525000Y-64770000D02*
X135255000Y-64770000D01*
X156845000Y-65405000D02*
X151130000Y-65405000D01*
X157480000Y-64770000D02*
X156845000Y-65405000D01*
X158750000Y-62230000D02*
X157480000Y-62230000D01*
X136525000Y-62230000D02*
X135255000Y-62230000D01*
X137160000Y-61595000D02*
X136525000Y-62230000D01*
X137160000Y-59690000D02*
X137160000Y-61595000D01*
X137795000Y-59055000D02*
X137160000Y-59690000D01*
X156210000Y-59055000D02*
X137795000Y-59055000D01*
X156845000Y-59690000D02*
X156210000Y-59055000D01*
X156845000Y-61595000D02*
X156845000Y-59690000D01*
X157480000Y-62230000D02*
X156845000Y-61595000D01*
X64770000Y-62230000D02*
X65405000Y-62230000D01*
X65405000Y-62230000D02*
X66675000Y-60960000D01*
X66675000Y-60960000D02*
X66675000Y-59690000D01*
X66675000Y-59690000D02*
X67310000Y-59055000D01*
X67310000Y-59055000D02*
X85725000Y-59055000D01*
X85725000Y-59055000D02*
X86360000Y-59690000D01*
X86360000Y-59690000D02*
X86360000Y-60960000D01*
X86360000Y-60960000D02*
X87630000Y-62230000D01*
X87630000Y-62230000D02*
X88265000Y-62230000D01*
M02*
