G04 #@! TF.FileFunction,Copper,L1,Top,Signal*
%FSLAX46Y46*%
G04 Gerber Fmt 4.6, Leading zero omitted, Abs format (unit mm)*
G04 Created by KiCad (PCBNEW 4.0.6) date 05/15/17 21:45:34*
%MOMM*%
%LPD*%
G01*
G04 APERTURE LIST*
%ADD10C,0.100000*%
%ADD11R,1.600000X1.600000*%
%ADD12O,1.600000X1.600000*%
%ADD13R,1.700000X1.700000*%
%ADD14O,1.700000X1.700000*%
%ADD15C,1.600000*%
%ADD16C,0.600000*%
%ADD17C,0.250000*%
%ADD18C,0.254000*%
G04 APERTURE END LIST*
D10*
D11*
X144780000Y-130810000D03*
D12*
X177800000Y-115570000D03*
X147320000Y-130810000D03*
X175260000Y-115570000D03*
X149860000Y-130810000D03*
X172720000Y-115570000D03*
X152400000Y-130810000D03*
X170180000Y-115570000D03*
X154940000Y-130810000D03*
X167640000Y-115570000D03*
X157480000Y-130810000D03*
X165100000Y-115570000D03*
X160020000Y-130810000D03*
X162560000Y-115570000D03*
X162560000Y-130810000D03*
X160020000Y-115570000D03*
X165100000Y-130810000D03*
X157480000Y-115570000D03*
X167640000Y-130810000D03*
X154940000Y-115570000D03*
X170180000Y-130810000D03*
X152400000Y-115570000D03*
X172720000Y-130810000D03*
X149860000Y-115570000D03*
X175260000Y-130810000D03*
X147320000Y-115570000D03*
X177800000Y-130810000D03*
X144780000Y-115570000D03*
D13*
X101600000Y-102870000D03*
D14*
X104140000Y-102870000D03*
D15*
X111760000Y-128270000D03*
D12*
X111760000Y-118110000D03*
D15*
X140970000Y-115570000D03*
X135970000Y-115570000D03*
X99060000Y-137160000D03*
X104060000Y-137160000D03*
D13*
X93980000Y-102870000D03*
D14*
X96520000Y-102870000D03*
D13*
X186690000Y-148590000D03*
D14*
X184150000Y-148590000D03*
X181610000Y-148590000D03*
X179070000Y-148590000D03*
X176530000Y-148590000D03*
X173990000Y-148590000D03*
X171450000Y-148590000D03*
X168910000Y-148590000D03*
X166370000Y-148590000D03*
X163830000Y-148590000D03*
X161290000Y-148590000D03*
X158750000Y-148590000D03*
X156210000Y-148590000D03*
X153670000Y-148590000D03*
X151130000Y-148590000D03*
X148590000Y-148590000D03*
X146050000Y-148590000D03*
X143510000Y-148590000D03*
X140970000Y-148590000D03*
X138430000Y-148590000D03*
X135890000Y-148590000D03*
X133350000Y-148590000D03*
X130810000Y-148590000D03*
X128270000Y-148590000D03*
X125730000Y-148590000D03*
X123190000Y-148590000D03*
X120650000Y-148590000D03*
X118110000Y-148590000D03*
X115570000Y-148590000D03*
X113030000Y-148590000D03*
X110490000Y-148590000D03*
X107950000Y-148590000D03*
X105410000Y-148590000D03*
X102870000Y-148590000D03*
X100330000Y-148590000D03*
X97790000Y-148590000D03*
X95250000Y-148590000D03*
X92710000Y-148590000D03*
X90170000Y-148590000D03*
D13*
X109220000Y-102870000D03*
D14*
X111760000Y-102870000D03*
X114300000Y-102870000D03*
D11*
X105410000Y-130810000D03*
D12*
X97790000Y-115570000D03*
X105410000Y-128270000D03*
X97790000Y-118110000D03*
X105410000Y-125730000D03*
X97790000Y-120650000D03*
X105410000Y-123190000D03*
X97790000Y-123190000D03*
X105410000Y-120650000D03*
X97790000Y-125730000D03*
X105410000Y-118110000D03*
X97790000Y-128270000D03*
X105410000Y-115570000D03*
X97790000Y-130810000D03*
D16*
X109220000Y-132080000D03*
X168910000Y-133350000D03*
X171450000Y-133350000D03*
X173990000Y-138430000D03*
X167640000Y-144780000D03*
X128270000Y-111760000D03*
X116840000Y-129540000D03*
X113030000Y-113030000D03*
X184150000Y-135890000D03*
X184150000Y-124460000D03*
X180340000Y-138430000D03*
X166370000Y-119380000D03*
X163830000Y-120650000D03*
X161290000Y-121920000D03*
X163830000Y-123190000D03*
X115570000Y-120650000D03*
X121920000Y-143510000D03*
X149860000Y-118110000D03*
X165100000Y-125730000D03*
X121920000Y-139700000D03*
X171450000Y-135890000D03*
X119380000Y-138430000D03*
X160020000Y-138430000D03*
X168910000Y-138430000D03*
X158750000Y-137160000D03*
X118110000Y-137160000D03*
X115570000Y-138430000D03*
X115570000Y-130810000D03*
X113030000Y-139700000D03*
X113030000Y-132080000D03*
X110490000Y-140970000D03*
X110490000Y-135890000D03*
X107950000Y-142240000D03*
X107950000Y-139700000D03*
X105410000Y-109220000D03*
X129540000Y-110490000D03*
X161290000Y-106680000D03*
D17*
X171450000Y-133350000D02*
X168910000Y-133350000D01*
X167640000Y-144780000D02*
X173990000Y-138430000D01*
X99060000Y-137160000D02*
X99060000Y-134620000D01*
X97790000Y-133350000D02*
X97790000Y-130810000D01*
X99060000Y-134620000D02*
X97790000Y-133350000D01*
X140970000Y-115570000D02*
X144780000Y-115570000D01*
X105410000Y-128270000D02*
X107950000Y-128270000D01*
X115570000Y-129540000D02*
X116840000Y-129540000D01*
X114300000Y-130810000D02*
X115570000Y-129540000D01*
X110490000Y-130810000D02*
X114300000Y-130810000D01*
X107950000Y-128270000D02*
X110490000Y-130810000D01*
X116840000Y-116840000D02*
X116840000Y-129540000D01*
X113030000Y-113030000D02*
X116840000Y-116840000D01*
X184150000Y-148590000D02*
X184150000Y-135890000D01*
X181610000Y-148590000D02*
X181610000Y-137160000D01*
X185420000Y-125730000D02*
X184150000Y-124460000D01*
X186690000Y-127000000D02*
X185420000Y-125730000D01*
X186690000Y-132080000D02*
X186690000Y-127000000D01*
X181610000Y-137160000D02*
X186690000Y-132080000D01*
X179070000Y-139700000D02*
X179070000Y-148590000D01*
X180340000Y-138430000D02*
X179070000Y-139700000D01*
X176530000Y-148590000D02*
X176530000Y-140970000D01*
X177800000Y-119380000D02*
X166370000Y-119380000D01*
X185420000Y-127000000D02*
X177800000Y-119380000D01*
X185420000Y-132080000D02*
X185420000Y-127000000D01*
X176530000Y-140970000D02*
X185420000Y-132080000D01*
X173990000Y-142240000D02*
X173990000Y-148590000D01*
X184150000Y-132080000D02*
X173990000Y-142240000D01*
X184150000Y-127000000D02*
X184150000Y-132080000D01*
X177800000Y-120650000D02*
X184150000Y-127000000D01*
X163830000Y-120650000D02*
X177800000Y-120650000D01*
X171450000Y-143510000D02*
X171450000Y-148590000D01*
X182880000Y-132080000D02*
X171450000Y-143510000D01*
X182880000Y-127000000D02*
X182880000Y-132080000D01*
X177800000Y-121920000D02*
X182880000Y-127000000D01*
X161290000Y-121920000D02*
X177800000Y-121920000D01*
X168910000Y-144780000D02*
X181610000Y-132080000D01*
X181610000Y-132080000D02*
X181610000Y-127000000D01*
X181610000Y-127000000D02*
X177800000Y-123190000D01*
X177800000Y-123190000D02*
X163830000Y-123190000D01*
X168910000Y-144780000D02*
X168910000Y-148590000D01*
X143510000Y-134620000D02*
X154940000Y-134620000D01*
X166370000Y-146050000D02*
X166370000Y-148590000D01*
X166370000Y-146050000D02*
X154940000Y-134620000D01*
X142240000Y-134620000D02*
X134620000Y-134620000D01*
X142240000Y-128270000D02*
X148590000Y-128270000D01*
X149860000Y-130810000D02*
X149860000Y-129540000D01*
X148590000Y-128270000D02*
X149860000Y-129540000D01*
X142240000Y-134620000D02*
X143510000Y-134620000D01*
X134620000Y-128270000D02*
X142240000Y-128270000D01*
X133350000Y-129540000D02*
X134620000Y-128270000D01*
X133350000Y-133350000D02*
X133350000Y-129540000D01*
X134620000Y-134620000D02*
X133350000Y-133350000D01*
X140970000Y-127000000D02*
X133350000Y-127000000D01*
X163830000Y-146050000D02*
X153670000Y-135890000D01*
X143510000Y-135890000D02*
X153670000Y-135890000D01*
X142240000Y-135890000D02*
X143510000Y-135890000D01*
X163830000Y-146050000D02*
X163830000Y-148590000D01*
X140970000Y-135890000D02*
X142240000Y-135890000D01*
X133350000Y-135890000D02*
X140970000Y-135890000D01*
X132080000Y-134620000D02*
X133350000Y-135890000D01*
X132080000Y-128270000D02*
X132080000Y-134620000D01*
X133350000Y-127000000D02*
X132080000Y-128270000D01*
X149860000Y-127000000D02*
X140970000Y-127000000D01*
X152400000Y-130810000D02*
X152400000Y-129540000D01*
X149860000Y-127000000D02*
X152400000Y-129540000D01*
X161290000Y-146050000D02*
X152400000Y-137160000D01*
X143510000Y-137160000D02*
X152400000Y-137160000D01*
X142240000Y-137160000D02*
X143510000Y-137160000D01*
X161290000Y-146050000D02*
X161290000Y-148590000D01*
X139700000Y-137160000D02*
X142240000Y-137160000D01*
X132080000Y-137160000D02*
X139700000Y-137160000D01*
X130810000Y-135890000D02*
X132080000Y-137160000D01*
X130810000Y-134620000D02*
X130810000Y-135890000D01*
X130810000Y-127000000D02*
X130810000Y-134620000D01*
X132080000Y-125730000D02*
X130810000Y-127000000D01*
X139700000Y-125730000D02*
X132080000Y-125730000D01*
X151130000Y-125730000D02*
X140970000Y-125730000D01*
X154940000Y-130810000D02*
X154940000Y-129540000D01*
X151130000Y-125730000D02*
X154940000Y-129540000D01*
X139700000Y-125730000D02*
X140970000Y-125730000D01*
X138430000Y-138430000D02*
X130810000Y-138430000D01*
X158750000Y-146050000D02*
X158750000Y-148590000D01*
X158750000Y-146050000D02*
X151130000Y-138430000D01*
X143510000Y-138430000D02*
X151130000Y-138430000D01*
X143510000Y-138430000D02*
X142240000Y-138430000D01*
X138430000Y-138430000D02*
X142240000Y-138430000D01*
X152400000Y-124460000D02*
X140970000Y-124460000D01*
X157480000Y-130810000D02*
X157480000Y-129540000D01*
X152400000Y-124460000D02*
X157480000Y-129540000D01*
X138430000Y-124460000D02*
X140970000Y-124460000D01*
X130810000Y-124460000D02*
X138430000Y-124460000D01*
X129540000Y-125730000D02*
X130810000Y-124460000D01*
X129540000Y-137160000D02*
X129540000Y-125730000D01*
X130810000Y-138430000D02*
X129540000Y-137160000D01*
X156210000Y-146050000D02*
X149860000Y-139700000D01*
X143510000Y-139700000D02*
X149860000Y-139700000D01*
X142240000Y-139700000D02*
X143510000Y-139700000D01*
X156210000Y-146050000D02*
X156210000Y-148590000D01*
X137160000Y-139700000D02*
X142240000Y-139700000D01*
X129540000Y-139700000D02*
X137160000Y-139700000D01*
X128270000Y-138430000D02*
X129540000Y-139700000D01*
X128270000Y-124460000D02*
X128270000Y-138430000D01*
X129540000Y-123190000D02*
X128270000Y-124460000D01*
X137160000Y-123190000D02*
X129540000Y-123190000D01*
X153670000Y-123190000D02*
X140970000Y-123190000D01*
X160020000Y-130810000D02*
X160020000Y-129540000D01*
X153670000Y-123190000D02*
X160020000Y-129540000D01*
X137160000Y-123190000D02*
X140970000Y-123190000D01*
X135890000Y-140970000D02*
X129540000Y-140970000D01*
X154940000Y-121920000D02*
X140970000Y-121920000D01*
X162560000Y-130810000D02*
X162560000Y-129540000D01*
X154940000Y-121920000D02*
X162560000Y-129540000D01*
X153670000Y-146050000D02*
X153670000Y-148590000D01*
X153670000Y-146050000D02*
X148590000Y-140970000D01*
X143510000Y-140970000D02*
X148590000Y-140970000D01*
X143510000Y-140970000D02*
X142240000Y-140970000D01*
X135890000Y-140970000D02*
X142240000Y-140970000D01*
X135890000Y-121920000D02*
X140970000Y-121920000D01*
X128270000Y-121920000D02*
X135890000Y-121920000D01*
X127000000Y-123190000D02*
X128270000Y-121920000D01*
X127000000Y-124460000D02*
X127000000Y-123190000D01*
X127000000Y-139700000D02*
X127000000Y-124460000D01*
X128270000Y-140970000D02*
X127000000Y-139700000D01*
X129540000Y-140970000D02*
X128270000Y-140970000D01*
X134620000Y-120650000D02*
X127000000Y-120650000D01*
X156210000Y-120650000D02*
X140970000Y-120650000D01*
X151130000Y-148590000D02*
X151130000Y-146050000D01*
X143510000Y-142240000D02*
X147320000Y-142240000D01*
X142240000Y-142240000D02*
X143510000Y-142240000D01*
X151130000Y-146050000D02*
X147320000Y-142240000D01*
X165100000Y-129540000D02*
X165100000Y-130810000D01*
X156210000Y-120650000D02*
X165100000Y-129540000D01*
X134620000Y-142240000D02*
X142240000Y-142240000D01*
X134620000Y-120650000D02*
X140970000Y-120650000D01*
X127000000Y-142240000D02*
X134620000Y-142240000D01*
X125730000Y-140970000D02*
X127000000Y-142240000D01*
X125730000Y-121920000D02*
X125730000Y-140970000D01*
X127000000Y-120650000D02*
X125730000Y-121920000D01*
X133350000Y-143510000D02*
X125730000Y-143510000D01*
X133350000Y-143510000D02*
X134620000Y-143510000D01*
X134620000Y-143510000D02*
X142240000Y-143510000D01*
X143510000Y-143510000D02*
X142240000Y-143510000D01*
X143510000Y-143510000D02*
X146050000Y-143510000D01*
X148590000Y-148590000D02*
X148590000Y-146050000D01*
X146050000Y-143510000D02*
X148590000Y-146050000D01*
X167640000Y-129540000D02*
X157480000Y-119380000D01*
X167640000Y-129540000D02*
X167640000Y-130810000D01*
X140970000Y-119380000D02*
X157480000Y-119380000D01*
X140970000Y-119380000D02*
X133350000Y-119380000D01*
X125730000Y-119380000D02*
X133350000Y-119380000D01*
X124460000Y-120650000D02*
X125730000Y-119380000D01*
X124460000Y-121920000D02*
X124460000Y-120650000D01*
X124460000Y-142240000D02*
X124460000Y-121920000D01*
X125730000Y-143510000D02*
X124460000Y-142240000D01*
X106680000Y-115570000D02*
X105410000Y-115570000D01*
X109220000Y-118110000D02*
X106680000Y-115570000D01*
X109220000Y-120650000D02*
X109220000Y-118110000D01*
X115570000Y-120650000D02*
X109220000Y-120650000D01*
X146050000Y-148590000D02*
X142240000Y-144780000D01*
X123190000Y-144780000D02*
X121920000Y-143510000D01*
X142240000Y-144780000D02*
X123190000Y-144780000D01*
X172720000Y-125730000D02*
X165100000Y-125730000D01*
X177800000Y-130810000D02*
X172720000Y-125730000D01*
X135970000Y-116920000D02*
X135970000Y-115570000D01*
X137160000Y-118110000D02*
X135970000Y-116920000D01*
X149860000Y-118110000D02*
X137160000Y-118110000D01*
X104060000Y-137160000D02*
X104060000Y-133270000D01*
X102870000Y-118110000D02*
X105410000Y-115570000D01*
X102870000Y-132080000D02*
X102870000Y-118110000D01*
X104060000Y-133270000D02*
X102870000Y-132080000D01*
X120650000Y-140970000D02*
X121920000Y-139700000D01*
X120650000Y-140970000D02*
X120650000Y-148590000D01*
X172720000Y-133350000D02*
X172720000Y-134620000D01*
X172720000Y-134620000D02*
X171450000Y-135890000D01*
X172720000Y-130810000D02*
X172720000Y-133350000D01*
X118110000Y-139700000D02*
X118110000Y-148590000D01*
X119380000Y-138430000D02*
X118110000Y-139700000D01*
X168910000Y-138430000D02*
X160020000Y-138430000D01*
X115570000Y-148590000D02*
X115570000Y-139700000D01*
X175260000Y-135890000D02*
X175260000Y-130810000D01*
X175260000Y-135890000D02*
X173990000Y-137160000D01*
X158750000Y-137160000D02*
X173990000Y-137160000D01*
X115570000Y-139700000D02*
X118110000Y-137160000D01*
X142240000Y-107950000D02*
X133350000Y-107950000D01*
X113030000Y-140970000D02*
X115570000Y-138430000D01*
X113030000Y-148590000D02*
X113030000Y-140970000D01*
X177800000Y-114300000D02*
X171450000Y-107950000D01*
X171450000Y-107950000D02*
X142240000Y-107950000D01*
X119380000Y-113030000D02*
X118110000Y-114300000D01*
X118110000Y-114300000D02*
X118110000Y-129540000D01*
X118110000Y-129540000D02*
X116840000Y-130810000D01*
X116840000Y-130810000D02*
X115570000Y-130810000D01*
X177800000Y-114300000D02*
X177800000Y-115570000D01*
X128270000Y-113030000D02*
X119380000Y-113030000D01*
X133350000Y-107950000D02*
X128270000Y-113030000D01*
X142240000Y-109220000D02*
X133350000Y-109220000D01*
X113030000Y-139700000D02*
X110490000Y-142240000D01*
X110490000Y-148590000D02*
X110490000Y-142240000D01*
X175260000Y-114300000D02*
X170180000Y-109220000D01*
X170180000Y-109220000D02*
X142240000Y-109220000D01*
X120650000Y-114300000D02*
X119380000Y-115570000D01*
X119380000Y-115570000D02*
X119380000Y-130810000D01*
X119380000Y-130810000D02*
X118110000Y-132080000D01*
X118110000Y-132080000D02*
X113030000Y-132080000D01*
X175260000Y-114300000D02*
X175260000Y-115570000D01*
X128270000Y-114300000D02*
X120650000Y-114300000D01*
X133350000Y-109220000D02*
X128270000Y-114300000D01*
X142240000Y-110490000D02*
X133350000Y-110490000D01*
X110490000Y-140970000D02*
X107950000Y-143510000D01*
X107950000Y-148590000D02*
X107950000Y-143510000D01*
X172720000Y-114300000D02*
X168910000Y-110490000D01*
X168910000Y-110490000D02*
X142240000Y-110490000D01*
X121920000Y-115570000D02*
X120650000Y-116840000D01*
X120650000Y-116840000D02*
X120650000Y-132080000D01*
X120650000Y-132080000D02*
X119380000Y-133350000D01*
X119380000Y-133350000D02*
X113030000Y-133350000D01*
X113030000Y-133350000D02*
X110490000Y-135890000D01*
X172720000Y-114300000D02*
X172720000Y-115570000D01*
X128270000Y-115570000D02*
X121920000Y-115570000D01*
X133350000Y-110490000D02*
X128270000Y-115570000D01*
X142240000Y-111760000D02*
X133350000Y-111760000D01*
X105410000Y-144780000D02*
X107950000Y-142240000D01*
X105410000Y-148590000D02*
X105410000Y-144780000D01*
X170180000Y-114300000D02*
X167640000Y-111760000D01*
X167640000Y-111760000D02*
X142240000Y-111760000D01*
X123190000Y-116840000D02*
X121920000Y-118110000D01*
X121920000Y-118110000D02*
X121920000Y-133350000D01*
X121920000Y-133350000D02*
X120650000Y-134620000D01*
X120650000Y-134620000D02*
X113030000Y-134620000D01*
X113030000Y-134620000D02*
X107950000Y-139700000D01*
X170180000Y-114300000D02*
X170180000Y-115570000D01*
X128270000Y-116840000D02*
X123190000Y-116840000D01*
X133350000Y-111760000D02*
X128270000Y-116840000D01*
X142240000Y-113030000D02*
X133350000Y-113030000D01*
X105410000Y-143510000D02*
X102870000Y-146050000D01*
X102870000Y-148590000D02*
X102870000Y-146050000D01*
X167640000Y-114300000D02*
X166370000Y-113030000D01*
X166370000Y-113030000D02*
X142240000Y-113030000D01*
X125730000Y-118110000D02*
X124460000Y-118110000D01*
X124460000Y-118110000D02*
X123190000Y-119380000D01*
X123190000Y-119380000D02*
X123190000Y-134620000D01*
X123190000Y-134620000D02*
X121920000Y-135890000D01*
X121920000Y-135890000D02*
X113030000Y-135890000D01*
X113030000Y-135890000D02*
X105410000Y-143510000D01*
X167640000Y-114300000D02*
X167640000Y-115570000D01*
X128270000Y-118110000D02*
X125730000Y-118110000D01*
X133350000Y-113030000D02*
X128270000Y-118110000D01*
X101600000Y-105410000D02*
X101600000Y-102870000D01*
X105410000Y-109220000D02*
X101600000Y-105410000D01*
X105410000Y-123190000D02*
X105410000Y-120650000D01*
X96520000Y-102870000D02*
X96520000Y-111760000D01*
X96520000Y-111760000D02*
X92710000Y-115570000D01*
X92710000Y-115570000D02*
X92710000Y-148590000D01*
X97790000Y-111760000D02*
X97790000Y-115570000D01*
X99060000Y-110490000D02*
X97790000Y-111760000D01*
X129540000Y-110490000D02*
X99060000Y-110490000D01*
X111760000Y-102870000D02*
X111760000Y-107950000D01*
X113030000Y-109220000D02*
X111760000Y-107950000D01*
X130810000Y-109220000D02*
X116840000Y-109220000D01*
X133350000Y-106680000D02*
X130810000Y-109220000D01*
X161290000Y-106680000D02*
X133350000Y-106680000D01*
X116840000Y-109220000D02*
X113030000Y-109220000D01*
D18*
G36*
X162895162Y-123003201D02*
X162894838Y-123375167D01*
X163036883Y-123718943D01*
X163299673Y-123982192D01*
X163643201Y-124124838D01*
X164015167Y-124125162D01*
X164358943Y-123983117D01*
X164392118Y-123950000D01*
X177485198Y-123950000D01*
X180850000Y-127314802D01*
X180850000Y-131765198D01*
X168372599Y-144242599D01*
X168207852Y-144489161D01*
X168150000Y-144780000D01*
X168150000Y-145923000D01*
X167104738Y-145923000D01*
X167072148Y-145759161D01*
X166907401Y-145512599D01*
X160584802Y-139190000D01*
X168347537Y-139190000D01*
X168379673Y-139222192D01*
X168723201Y-139364838D01*
X169095167Y-139365162D01*
X169438943Y-139223117D01*
X169702192Y-138960327D01*
X169844838Y-138616799D01*
X169845162Y-138244833D01*
X169710944Y-137920000D01*
X173990000Y-137920000D01*
X174280839Y-137862148D01*
X174527401Y-137697401D01*
X175797401Y-136427401D01*
X175962148Y-136180840D01*
X176020000Y-135890000D01*
X176020000Y-132022995D01*
X176274698Y-131852811D01*
X176530000Y-131470725D01*
X176785302Y-131852811D01*
X177250849Y-132163880D01*
X177800000Y-132273113D01*
X178349151Y-132163880D01*
X178814698Y-131852811D01*
X179125767Y-131387264D01*
X179235000Y-130838113D01*
X179235000Y-130781887D01*
X179125767Y-130232736D01*
X178814698Y-129767189D01*
X178349151Y-129456120D01*
X177800000Y-129346887D01*
X177476114Y-129411312D01*
X173257401Y-125192599D01*
X173010839Y-125027852D01*
X172720000Y-124970000D01*
X165662463Y-124970000D01*
X165630327Y-124937808D01*
X165286799Y-124795162D01*
X164914833Y-124794838D01*
X164571057Y-124936883D01*
X164341171Y-125166369D01*
X161854802Y-122680000D01*
X163029367Y-122680000D01*
X162895162Y-123003201D01*
X162895162Y-123003201D01*
G37*
X162895162Y-123003201D02*
X162894838Y-123375167D01*
X163036883Y-123718943D01*
X163299673Y-123982192D01*
X163643201Y-124124838D01*
X164015167Y-124125162D01*
X164358943Y-123983117D01*
X164392118Y-123950000D01*
X177485198Y-123950000D01*
X180850000Y-127314802D01*
X180850000Y-131765198D01*
X168372599Y-144242599D01*
X168207852Y-144489161D01*
X168150000Y-144780000D01*
X168150000Y-145923000D01*
X167104738Y-145923000D01*
X167072148Y-145759161D01*
X166907401Y-145512599D01*
X160584802Y-139190000D01*
X168347537Y-139190000D01*
X168379673Y-139222192D01*
X168723201Y-139364838D01*
X169095167Y-139365162D01*
X169438943Y-139223117D01*
X169702192Y-138960327D01*
X169844838Y-138616799D01*
X169845162Y-138244833D01*
X169710944Y-137920000D01*
X173990000Y-137920000D01*
X174280839Y-137862148D01*
X174527401Y-137697401D01*
X175797401Y-136427401D01*
X175962148Y-136180840D01*
X176020000Y-135890000D01*
X176020000Y-132022995D01*
X176274698Y-131852811D01*
X176530000Y-131470725D01*
X176785302Y-131852811D01*
X177250849Y-132163880D01*
X177800000Y-132273113D01*
X178349151Y-132163880D01*
X178814698Y-131852811D01*
X179125767Y-131387264D01*
X179235000Y-130838113D01*
X179235000Y-130781887D01*
X179125767Y-130232736D01*
X178814698Y-129767189D01*
X178349151Y-129456120D01*
X177800000Y-129346887D01*
X177476114Y-129411312D01*
X173257401Y-125192599D01*
X173010839Y-125027852D01*
X172720000Y-124970000D01*
X165662463Y-124970000D01*
X165630327Y-124937808D01*
X165286799Y-124795162D01*
X164914833Y-124794838D01*
X164571057Y-124936883D01*
X164341171Y-125166369D01*
X161854802Y-122680000D01*
X163029367Y-122680000D01*
X162895162Y-123003201D01*
G36*
X127955198Y-112270000D02*
X119380000Y-112270000D01*
X119089160Y-112327852D01*
X118842599Y-112492599D01*
X117572599Y-113762599D01*
X117407852Y-114009161D01*
X117350000Y-114300000D01*
X117350000Y-116275198D01*
X113965122Y-112890320D01*
X113965162Y-112844833D01*
X113823117Y-112501057D01*
X113560327Y-112237808D01*
X113216799Y-112095162D01*
X112844833Y-112094838D01*
X112501057Y-112236883D01*
X112237808Y-112499673D01*
X112095162Y-112843201D01*
X112094838Y-113215167D01*
X112236883Y-113558943D01*
X112499673Y-113822192D01*
X112843201Y-113964838D01*
X112890077Y-113964879D01*
X116080000Y-117154802D01*
X116080000Y-119849367D01*
X115756799Y-119715162D01*
X115384833Y-119714838D01*
X115041057Y-119856883D01*
X115007882Y-119890000D01*
X109980000Y-119890000D01*
X109980000Y-118110000D01*
X109974408Y-118081887D01*
X110325000Y-118081887D01*
X110325000Y-118138113D01*
X110434233Y-118687264D01*
X110745302Y-119152811D01*
X111210849Y-119463880D01*
X111760000Y-119573113D01*
X112309151Y-119463880D01*
X112774698Y-119152811D01*
X113085767Y-118687264D01*
X113195000Y-118138113D01*
X113195000Y-118081887D01*
X113085767Y-117532736D01*
X112774698Y-117067189D01*
X112309151Y-116756120D01*
X111760000Y-116646887D01*
X111210849Y-116756120D01*
X110745302Y-117067189D01*
X110434233Y-117532736D01*
X110325000Y-118081887D01*
X109974408Y-118081887D01*
X109922148Y-117819161D01*
X109922148Y-117819160D01*
X109757401Y-117572599D01*
X107217401Y-115032599D01*
X106970839Y-114867852D01*
X106680000Y-114810000D01*
X106622995Y-114810000D01*
X106452811Y-114555302D01*
X105987264Y-114244233D01*
X105438113Y-114135000D01*
X105381887Y-114135000D01*
X104832736Y-114244233D01*
X104367189Y-114555302D01*
X104056120Y-115020849D01*
X103946887Y-115570000D01*
X104011312Y-115893886D01*
X102332599Y-117572599D01*
X102167852Y-117819161D01*
X102110000Y-118110000D01*
X102110000Y-132080000D01*
X102167852Y-132370839D01*
X102332599Y-132617401D01*
X103300000Y-133584802D01*
X103300000Y-135921354D01*
X103248200Y-135942757D01*
X102844176Y-136346077D01*
X102625250Y-136873309D01*
X102624752Y-137444187D01*
X102842757Y-137971800D01*
X103246077Y-138375824D01*
X103773309Y-138594750D01*
X104344187Y-138595248D01*
X104871800Y-138377243D01*
X105275824Y-137973923D01*
X105494750Y-137446691D01*
X105495248Y-136875813D01*
X105277243Y-136348200D01*
X104873923Y-135944176D01*
X104820000Y-135921785D01*
X104820000Y-133270000D01*
X104762148Y-132979161D01*
X104597401Y-132732599D01*
X103630000Y-131765198D01*
X103630000Y-118424802D01*
X103947405Y-118107397D01*
X103946887Y-118110000D01*
X104056120Y-118659151D01*
X104367189Y-119124698D01*
X104749275Y-119380000D01*
X104367189Y-119635302D01*
X104056120Y-120100849D01*
X103946887Y-120650000D01*
X104056120Y-121199151D01*
X104367189Y-121664698D01*
X104650000Y-121853667D01*
X104650000Y-121986333D01*
X104367189Y-122175302D01*
X104056120Y-122640849D01*
X103946887Y-123190000D01*
X104056120Y-123739151D01*
X104367189Y-124204698D01*
X104749275Y-124460000D01*
X104367189Y-124715302D01*
X104056120Y-125180849D01*
X103946887Y-125730000D01*
X104056120Y-126279151D01*
X104367189Y-126744698D01*
X104749275Y-127000000D01*
X104367189Y-127255302D01*
X104056120Y-127720849D01*
X103946887Y-128270000D01*
X104056120Y-128819151D01*
X104367189Y-129284698D01*
X104511465Y-129381101D01*
X104374683Y-129406838D01*
X104158559Y-129545910D01*
X104013569Y-129758110D01*
X103962560Y-130010000D01*
X103962560Y-131610000D01*
X104006838Y-131845317D01*
X104145910Y-132061441D01*
X104358110Y-132206431D01*
X104610000Y-132257440D01*
X106210000Y-132257440D01*
X106445317Y-132213162D01*
X106661441Y-132074090D01*
X106806431Y-131861890D01*
X106857440Y-131610000D01*
X106857440Y-130010000D01*
X106813162Y-129774683D01*
X106674090Y-129558559D01*
X106461890Y-129413569D01*
X106306911Y-129382185D01*
X106452811Y-129284698D01*
X106622995Y-129030000D01*
X107635198Y-129030000D01*
X109952599Y-131347401D01*
X110199160Y-131512148D01*
X110247414Y-131521746D01*
X110490000Y-131570000D01*
X112229367Y-131570000D01*
X112095162Y-131893201D01*
X112094838Y-132265167D01*
X112236883Y-132608943D01*
X112466369Y-132838829D01*
X110350320Y-134954878D01*
X110304833Y-134954838D01*
X109961057Y-135096883D01*
X109697808Y-135359673D01*
X109555162Y-135703201D01*
X109554838Y-136075167D01*
X109696883Y-136418943D01*
X109926369Y-136648829D01*
X107810320Y-138764878D01*
X107764833Y-138764838D01*
X107421057Y-138906883D01*
X107157808Y-139169673D01*
X107015162Y-139513201D01*
X107014838Y-139885167D01*
X107156883Y-140228943D01*
X107386369Y-140458829D01*
X102332599Y-145512599D01*
X102167852Y-145759161D01*
X102135262Y-145923000D01*
X93470000Y-145923000D01*
X93470000Y-138167745D01*
X98231861Y-138167745D01*
X98305995Y-138413864D01*
X98843223Y-138606965D01*
X99413454Y-138579778D01*
X99814005Y-138413864D01*
X99888139Y-138167745D01*
X99060000Y-137339605D01*
X98231861Y-138167745D01*
X93470000Y-138167745D01*
X93470000Y-136943223D01*
X97613035Y-136943223D01*
X97640222Y-137513454D01*
X97806136Y-137914005D01*
X98052255Y-137988139D01*
X98880395Y-137160000D01*
X99239605Y-137160000D01*
X100067745Y-137988139D01*
X100313864Y-137914005D01*
X100506965Y-137376777D01*
X100479778Y-136806546D01*
X100313864Y-136405995D01*
X100067745Y-136331861D01*
X99239605Y-137160000D01*
X98880395Y-137160000D01*
X98052255Y-136331861D01*
X97806136Y-136405995D01*
X97613035Y-136943223D01*
X93470000Y-136943223D01*
X93470000Y-136152255D01*
X98231861Y-136152255D01*
X99060000Y-136980395D01*
X99888139Y-136152255D01*
X99814005Y-135906136D01*
X99276777Y-135713035D01*
X98706546Y-135740222D01*
X98305995Y-135906136D01*
X98231861Y-136152255D01*
X93470000Y-136152255D01*
X93470000Y-131159039D01*
X96398096Y-131159039D01*
X96558959Y-131547423D01*
X96934866Y-131962389D01*
X97440959Y-132201914D01*
X97663000Y-132080629D01*
X97663000Y-130937000D01*
X97917000Y-130937000D01*
X97917000Y-132080629D01*
X98139041Y-132201914D01*
X98645134Y-131962389D01*
X99021041Y-131547423D01*
X99181904Y-131159039D01*
X99059915Y-130937000D01*
X97917000Y-130937000D01*
X97663000Y-130937000D01*
X96520085Y-130937000D01*
X96398096Y-131159039D01*
X93470000Y-131159039D01*
X93470000Y-115884802D01*
X97030000Y-112324802D01*
X97030000Y-114366333D01*
X96747189Y-114555302D01*
X96436120Y-115020849D01*
X96326887Y-115570000D01*
X96436120Y-116119151D01*
X96747189Y-116584698D01*
X97129275Y-116840000D01*
X96747189Y-117095302D01*
X96436120Y-117560849D01*
X96326887Y-118110000D01*
X96436120Y-118659151D01*
X96747189Y-119124698D01*
X97129275Y-119380000D01*
X96747189Y-119635302D01*
X96436120Y-120100849D01*
X96326887Y-120650000D01*
X96436120Y-121199151D01*
X96747189Y-121664698D01*
X97129275Y-121920000D01*
X96747189Y-122175302D01*
X96436120Y-122640849D01*
X96326887Y-123190000D01*
X96436120Y-123739151D01*
X96747189Y-124204698D01*
X97129275Y-124460000D01*
X96747189Y-124715302D01*
X96436120Y-125180849D01*
X96326887Y-125730000D01*
X96436120Y-126279151D01*
X96747189Y-126744698D01*
X97129275Y-127000000D01*
X96747189Y-127255302D01*
X96436120Y-127720849D01*
X96326887Y-128270000D01*
X96436120Y-128819151D01*
X96747189Y-129284698D01*
X97151703Y-129554986D01*
X96934866Y-129657611D01*
X96558959Y-130072577D01*
X96398096Y-130460961D01*
X96520085Y-130683000D01*
X97663000Y-130683000D01*
X97663000Y-130663000D01*
X97917000Y-130663000D01*
X97917000Y-130683000D01*
X99059915Y-130683000D01*
X99181904Y-130460961D01*
X99021041Y-130072577D01*
X98645134Y-129657611D01*
X98428297Y-129554986D01*
X98832811Y-129284698D01*
X99143880Y-128819151D01*
X99253113Y-128270000D01*
X99143880Y-127720849D01*
X98832811Y-127255302D01*
X98450725Y-127000000D01*
X98832811Y-126744698D01*
X99143880Y-126279151D01*
X99253113Y-125730000D01*
X99143880Y-125180849D01*
X98832811Y-124715302D01*
X98450725Y-124460000D01*
X98832811Y-124204698D01*
X99143880Y-123739151D01*
X99253113Y-123190000D01*
X99143880Y-122640849D01*
X98832811Y-122175302D01*
X98450725Y-121920000D01*
X98832811Y-121664698D01*
X99143880Y-121199151D01*
X99253113Y-120650000D01*
X99143880Y-120100849D01*
X98832811Y-119635302D01*
X98450725Y-119380000D01*
X98832811Y-119124698D01*
X99143880Y-118659151D01*
X99253113Y-118110000D01*
X99143880Y-117560849D01*
X98832811Y-117095302D01*
X98450725Y-116840000D01*
X98832811Y-116584698D01*
X99143880Y-116119151D01*
X99253113Y-115570000D01*
X99143880Y-115020849D01*
X98832811Y-114555302D01*
X98550000Y-114366333D01*
X98550000Y-112074802D01*
X99374802Y-111250000D01*
X128975198Y-111250000D01*
X127955198Y-112270000D01*
X127955198Y-112270000D01*
G37*
X127955198Y-112270000D02*
X119380000Y-112270000D01*
X119089160Y-112327852D01*
X118842599Y-112492599D01*
X117572599Y-113762599D01*
X117407852Y-114009161D01*
X117350000Y-114300000D01*
X117350000Y-116275198D01*
X113965122Y-112890320D01*
X113965162Y-112844833D01*
X113823117Y-112501057D01*
X113560327Y-112237808D01*
X113216799Y-112095162D01*
X112844833Y-112094838D01*
X112501057Y-112236883D01*
X112237808Y-112499673D01*
X112095162Y-112843201D01*
X112094838Y-113215167D01*
X112236883Y-113558943D01*
X112499673Y-113822192D01*
X112843201Y-113964838D01*
X112890077Y-113964879D01*
X116080000Y-117154802D01*
X116080000Y-119849367D01*
X115756799Y-119715162D01*
X115384833Y-119714838D01*
X115041057Y-119856883D01*
X115007882Y-119890000D01*
X109980000Y-119890000D01*
X109980000Y-118110000D01*
X109974408Y-118081887D01*
X110325000Y-118081887D01*
X110325000Y-118138113D01*
X110434233Y-118687264D01*
X110745302Y-119152811D01*
X111210849Y-119463880D01*
X111760000Y-119573113D01*
X112309151Y-119463880D01*
X112774698Y-119152811D01*
X113085767Y-118687264D01*
X113195000Y-118138113D01*
X113195000Y-118081887D01*
X113085767Y-117532736D01*
X112774698Y-117067189D01*
X112309151Y-116756120D01*
X111760000Y-116646887D01*
X111210849Y-116756120D01*
X110745302Y-117067189D01*
X110434233Y-117532736D01*
X110325000Y-118081887D01*
X109974408Y-118081887D01*
X109922148Y-117819161D01*
X109922148Y-117819160D01*
X109757401Y-117572599D01*
X107217401Y-115032599D01*
X106970839Y-114867852D01*
X106680000Y-114810000D01*
X106622995Y-114810000D01*
X106452811Y-114555302D01*
X105987264Y-114244233D01*
X105438113Y-114135000D01*
X105381887Y-114135000D01*
X104832736Y-114244233D01*
X104367189Y-114555302D01*
X104056120Y-115020849D01*
X103946887Y-115570000D01*
X104011312Y-115893886D01*
X102332599Y-117572599D01*
X102167852Y-117819161D01*
X102110000Y-118110000D01*
X102110000Y-132080000D01*
X102167852Y-132370839D01*
X102332599Y-132617401D01*
X103300000Y-133584802D01*
X103300000Y-135921354D01*
X103248200Y-135942757D01*
X102844176Y-136346077D01*
X102625250Y-136873309D01*
X102624752Y-137444187D01*
X102842757Y-137971800D01*
X103246077Y-138375824D01*
X103773309Y-138594750D01*
X104344187Y-138595248D01*
X104871800Y-138377243D01*
X105275824Y-137973923D01*
X105494750Y-137446691D01*
X105495248Y-136875813D01*
X105277243Y-136348200D01*
X104873923Y-135944176D01*
X104820000Y-135921785D01*
X104820000Y-133270000D01*
X104762148Y-132979161D01*
X104597401Y-132732599D01*
X103630000Y-131765198D01*
X103630000Y-118424802D01*
X103947405Y-118107397D01*
X103946887Y-118110000D01*
X104056120Y-118659151D01*
X104367189Y-119124698D01*
X104749275Y-119380000D01*
X104367189Y-119635302D01*
X104056120Y-120100849D01*
X103946887Y-120650000D01*
X104056120Y-121199151D01*
X104367189Y-121664698D01*
X104650000Y-121853667D01*
X104650000Y-121986333D01*
X104367189Y-122175302D01*
X104056120Y-122640849D01*
X103946887Y-123190000D01*
X104056120Y-123739151D01*
X104367189Y-124204698D01*
X104749275Y-124460000D01*
X104367189Y-124715302D01*
X104056120Y-125180849D01*
X103946887Y-125730000D01*
X104056120Y-126279151D01*
X104367189Y-126744698D01*
X104749275Y-127000000D01*
X104367189Y-127255302D01*
X104056120Y-127720849D01*
X103946887Y-128270000D01*
X104056120Y-128819151D01*
X104367189Y-129284698D01*
X104511465Y-129381101D01*
X104374683Y-129406838D01*
X104158559Y-129545910D01*
X104013569Y-129758110D01*
X103962560Y-130010000D01*
X103962560Y-131610000D01*
X104006838Y-131845317D01*
X104145910Y-132061441D01*
X104358110Y-132206431D01*
X104610000Y-132257440D01*
X106210000Y-132257440D01*
X106445317Y-132213162D01*
X106661441Y-132074090D01*
X106806431Y-131861890D01*
X106857440Y-131610000D01*
X106857440Y-130010000D01*
X106813162Y-129774683D01*
X106674090Y-129558559D01*
X106461890Y-129413569D01*
X106306911Y-129382185D01*
X106452811Y-129284698D01*
X106622995Y-129030000D01*
X107635198Y-129030000D01*
X109952599Y-131347401D01*
X110199160Y-131512148D01*
X110247414Y-131521746D01*
X110490000Y-131570000D01*
X112229367Y-131570000D01*
X112095162Y-131893201D01*
X112094838Y-132265167D01*
X112236883Y-132608943D01*
X112466369Y-132838829D01*
X110350320Y-134954878D01*
X110304833Y-134954838D01*
X109961057Y-135096883D01*
X109697808Y-135359673D01*
X109555162Y-135703201D01*
X109554838Y-136075167D01*
X109696883Y-136418943D01*
X109926369Y-136648829D01*
X107810320Y-138764878D01*
X107764833Y-138764838D01*
X107421057Y-138906883D01*
X107157808Y-139169673D01*
X107015162Y-139513201D01*
X107014838Y-139885167D01*
X107156883Y-140228943D01*
X107386369Y-140458829D01*
X102332599Y-145512599D01*
X102167852Y-145759161D01*
X102135262Y-145923000D01*
X93470000Y-145923000D01*
X93470000Y-138167745D01*
X98231861Y-138167745D01*
X98305995Y-138413864D01*
X98843223Y-138606965D01*
X99413454Y-138579778D01*
X99814005Y-138413864D01*
X99888139Y-138167745D01*
X99060000Y-137339605D01*
X98231861Y-138167745D01*
X93470000Y-138167745D01*
X93470000Y-136943223D01*
X97613035Y-136943223D01*
X97640222Y-137513454D01*
X97806136Y-137914005D01*
X98052255Y-137988139D01*
X98880395Y-137160000D01*
X99239605Y-137160000D01*
X100067745Y-137988139D01*
X100313864Y-137914005D01*
X100506965Y-137376777D01*
X100479778Y-136806546D01*
X100313864Y-136405995D01*
X100067745Y-136331861D01*
X99239605Y-137160000D01*
X98880395Y-137160000D01*
X98052255Y-136331861D01*
X97806136Y-136405995D01*
X97613035Y-136943223D01*
X93470000Y-136943223D01*
X93470000Y-136152255D01*
X98231861Y-136152255D01*
X99060000Y-136980395D01*
X99888139Y-136152255D01*
X99814005Y-135906136D01*
X99276777Y-135713035D01*
X98706546Y-135740222D01*
X98305995Y-135906136D01*
X98231861Y-136152255D01*
X93470000Y-136152255D01*
X93470000Y-131159039D01*
X96398096Y-131159039D01*
X96558959Y-131547423D01*
X96934866Y-131962389D01*
X97440959Y-132201914D01*
X97663000Y-132080629D01*
X97663000Y-130937000D01*
X97917000Y-130937000D01*
X97917000Y-132080629D01*
X98139041Y-132201914D01*
X98645134Y-131962389D01*
X99021041Y-131547423D01*
X99181904Y-131159039D01*
X99059915Y-130937000D01*
X97917000Y-130937000D01*
X97663000Y-130937000D01*
X96520085Y-130937000D01*
X96398096Y-131159039D01*
X93470000Y-131159039D01*
X93470000Y-115884802D01*
X97030000Y-112324802D01*
X97030000Y-114366333D01*
X96747189Y-114555302D01*
X96436120Y-115020849D01*
X96326887Y-115570000D01*
X96436120Y-116119151D01*
X96747189Y-116584698D01*
X97129275Y-116840000D01*
X96747189Y-117095302D01*
X96436120Y-117560849D01*
X96326887Y-118110000D01*
X96436120Y-118659151D01*
X96747189Y-119124698D01*
X97129275Y-119380000D01*
X96747189Y-119635302D01*
X96436120Y-120100849D01*
X96326887Y-120650000D01*
X96436120Y-121199151D01*
X96747189Y-121664698D01*
X97129275Y-121920000D01*
X96747189Y-122175302D01*
X96436120Y-122640849D01*
X96326887Y-123190000D01*
X96436120Y-123739151D01*
X96747189Y-124204698D01*
X97129275Y-124460000D01*
X96747189Y-124715302D01*
X96436120Y-125180849D01*
X96326887Y-125730000D01*
X96436120Y-126279151D01*
X96747189Y-126744698D01*
X97129275Y-127000000D01*
X96747189Y-127255302D01*
X96436120Y-127720849D01*
X96326887Y-128270000D01*
X96436120Y-128819151D01*
X96747189Y-129284698D01*
X97151703Y-129554986D01*
X96934866Y-129657611D01*
X96558959Y-130072577D01*
X96398096Y-130460961D01*
X96520085Y-130683000D01*
X97663000Y-130683000D01*
X97663000Y-130663000D01*
X97917000Y-130663000D01*
X97917000Y-130683000D01*
X99059915Y-130683000D01*
X99181904Y-130460961D01*
X99021041Y-130072577D01*
X98645134Y-129657611D01*
X98428297Y-129554986D01*
X98832811Y-129284698D01*
X99143880Y-128819151D01*
X99253113Y-128270000D01*
X99143880Y-127720849D01*
X98832811Y-127255302D01*
X98450725Y-127000000D01*
X98832811Y-126744698D01*
X99143880Y-126279151D01*
X99253113Y-125730000D01*
X99143880Y-125180849D01*
X98832811Y-124715302D01*
X98450725Y-124460000D01*
X98832811Y-124204698D01*
X99143880Y-123739151D01*
X99253113Y-123190000D01*
X99143880Y-122640849D01*
X98832811Y-122175302D01*
X98450725Y-121920000D01*
X98832811Y-121664698D01*
X99143880Y-121199151D01*
X99253113Y-120650000D01*
X99143880Y-120100849D01*
X98832811Y-119635302D01*
X98450725Y-119380000D01*
X98832811Y-119124698D01*
X99143880Y-118659151D01*
X99253113Y-118110000D01*
X99143880Y-117560849D01*
X98832811Y-117095302D01*
X98450725Y-116840000D01*
X98832811Y-116584698D01*
X99143880Y-116119151D01*
X99253113Y-115570000D01*
X99143880Y-115020849D01*
X98832811Y-114555302D01*
X98550000Y-114366333D01*
X98550000Y-112074802D01*
X99374802Y-111250000D01*
X128975198Y-111250000D01*
X127955198Y-112270000D01*
G36*
X148945462Y-129700264D02*
X148845302Y-129767189D01*
X148590000Y-130149275D01*
X148334698Y-129767189D01*
X147869151Y-129456120D01*
X147320000Y-129346887D01*
X146770849Y-129456120D01*
X146305302Y-129767189D01*
X146208899Y-129911465D01*
X146183162Y-129774683D01*
X146044090Y-129558559D01*
X145831890Y-129413569D01*
X145580000Y-129362560D01*
X143980000Y-129362560D01*
X143744683Y-129406838D01*
X143528559Y-129545910D01*
X143383569Y-129758110D01*
X143332560Y-130010000D01*
X143332560Y-131610000D01*
X143376838Y-131845317D01*
X143515910Y-132061441D01*
X143728110Y-132206431D01*
X143980000Y-132257440D01*
X145580000Y-132257440D01*
X145815317Y-132213162D01*
X146031441Y-132074090D01*
X146176431Y-131861890D01*
X146207815Y-131706911D01*
X146305302Y-131852811D01*
X146770849Y-132163880D01*
X147320000Y-132273113D01*
X147869151Y-132163880D01*
X148334698Y-131852811D01*
X148590000Y-131470725D01*
X148845302Y-131852811D01*
X149310849Y-132163880D01*
X149860000Y-132273113D01*
X150409151Y-132163880D01*
X150874698Y-131852811D01*
X151130000Y-131470725D01*
X151385302Y-131852811D01*
X151850849Y-132163880D01*
X152400000Y-132273113D01*
X152949151Y-132163880D01*
X153414698Y-131852811D01*
X153670000Y-131470725D01*
X153925302Y-131852811D01*
X154390849Y-132163880D01*
X154940000Y-132273113D01*
X155489151Y-132163880D01*
X155954698Y-131852811D01*
X156210000Y-131470725D01*
X156465302Y-131852811D01*
X156930849Y-132163880D01*
X157480000Y-132273113D01*
X158029151Y-132163880D01*
X158494698Y-131852811D01*
X158750000Y-131470725D01*
X159005302Y-131852811D01*
X159470849Y-132163880D01*
X160020000Y-132273113D01*
X160569151Y-132163880D01*
X161034698Y-131852811D01*
X161290000Y-131470725D01*
X161545302Y-131852811D01*
X162010849Y-132163880D01*
X162560000Y-132273113D01*
X163109151Y-132163880D01*
X163574698Y-131852811D01*
X163830000Y-131470725D01*
X164085302Y-131852811D01*
X164550849Y-132163880D01*
X165100000Y-132273113D01*
X165649151Y-132163880D01*
X166114698Y-131852811D01*
X166370000Y-131470725D01*
X166625302Y-131852811D01*
X167090849Y-132163880D01*
X167640000Y-132273113D01*
X168189151Y-132163880D01*
X168654698Y-131852811D01*
X168910000Y-131470725D01*
X169165302Y-131852811D01*
X169630849Y-132163880D01*
X170180000Y-132273113D01*
X170729151Y-132163880D01*
X171194698Y-131852811D01*
X171450000Y-131470725D01*
X171705302Y-131852811D01*
X171960000Y-132022995D01*
X171960000Y-134305198D01*
X171310320Y-134954878D01*
X171264833Y-134954838D01*
X170921057Y-135096883D01*
X170657808Y-135359673D01*
X170515162Y-135703201D01*
X170514838Y-136075167D01*
X170649056Y-136400000D01*
X159312463Y-136400000D01*
X159280327Y-136367808D01*
X158936799Y-136225162D01*
X158564833Y-136224838D01*
X158221057Y-136366883D01*
X157991171Y-136596369D01*
X155477401Y-134082599D01*
X155230839Y-133917852D01*
X154940000Y-133860000D01*
X134934802Y-133860000D01*
X134110000Y-133035198D01*
X134110000Y-129854802D01*
X134934802Y-129030000D01*
X148275198Y-129030000D01*
X148945462Y-129700264D01*
X148945462Y-129700264D01*
G37*
X148945462Y-129700264D02*
X148845302Y-129767189D01*
X148590000Y-130149275D01*
X148334698Y-129767189D01*
X147869151Y-129456120D01*
X147320000Y-129346887D01*
X146770849Y-129456120D01*
X146305302Y-129767189D01*
X146208899Y-129911465D01*
X146183162Y-129774683D01*
X146044090Y-129558559D01*
X145831890Y-129413569D01*
X145580000Y-129362560D01*
X143980000Y-129362560D01*
X143744683Y-129406838D01*
X143528559Y-129545910D01*
X143383569Y-129758110D01*
X143332560Y-130010000D01*
X143332560Y-131610000D01*
X143376838Y-131845317D01*
X143515910Y-132061441D01*
X143728110Y-132206431D01*
X143980000Y-132257440D01*
X145580000Y-132257440D01*
X145815317Y-132213162D01*
X146031441Y-132074090D01*
X146176431Y-131861890D01*
X146207815Y-131706911D01*
X146305302Y-131852811D01*
X146770849Y-132163880D01*
X147320000Y-132273113D01*
X147869151Y-132163880D01*
X148334698Y-131852811D01*
X148590000Y-131470725D01*
X148845302Y-131852811D01*
X149310849Y-132163880D01*
X149860000Y-132273113D01*
X150409151Y-132163880D01*
X150874698Y-131852811D01*
X151130000Y-131470725D01*
X151385302Y-131852811D01*
X151850849Y-132163880D01*
X152400000Y-132273113D01*
X152949151Y-132163880D01*
X153414698Y-131852811D01*
X153670000Y-131470725D01*
X153925302Y-131852811D01*
X154390849Y-132163880D01*
X154940000Y-132273113D01*
X155489151Y-132163880D01*
X155954698Y-131852811D01*
X156210000Y-131470725D01*
X156465302Y-131852811D01*
X156930849Y-132163880D01*
X157480000Y-132273113D01*
X158029151Y-132163880D01*
X158494698Y-131852811D01*
X158750000Y-131470725D01*
X159005302Y-131852811D01*
X159470849Y-132163880D01*
X160020000Y-132273113D01*
X160569151Y-132163880D01*
X161034698Y-131852811D01*
X161290000Y-131470725D01*
X161545302Y-131852811D01*
X162010849Y-132163880D01*
X162560000Y-132273113D01*
X163109151Y-132163880D01*
X163574698Y-131852811D01*
X163830000Y-131470725D01*
X164085302Y-131852811D01*
X164550849Y-132163880D01*
X165100000Y-132273113D01*
X165649151Y-132163880D01*
X166114698Y-131852811D01*
X166370000Y-131470725D01*
X166625302Y-131852811D01*
X167090849Y-132163880D01*
X167640000Y-132273113D01*
X168189151Y-132163880D01*
X168654698Y-131852811D01*
X168910000Y-131470725D01*
X169165302Y-131852811D01*
X169630849Y-132163880D01*
X170180000Y-132273113D01*
X170729151Y-132163880D01*
X171194698Y-131852811D01*
X171450000Y-131470725D01*
X171705302Y-131852811D01*
X171960000Y-132022995D01*
X171960000Y-134305198D01*
X171310320Y-134954878D01*
X171264833Y-134954838D01*
X170921057Y-135096883D01*
X170657808Y-135359673D01*
X170515162Y-135703201D01*
X170514838Y-136075167D01*
X170649056Y-136400000D01*
X159312463Y-136400000D01*
X159280327Y-136367808D01*
X158936799Y-136225162D01*
X158564833Y-136224838D01*
X158221057Y-136366883D01*
X157991171Y-136596369D01*
X155477401Y-134082599D01*
X155230839Y-133917852D01*
X154940000Y-133860000D01*
X134934802Y-133860000D01*
X134110000Y-133035198D01*
X134110000Y-129854802D01*
X134934802Y-129030000D01*
X148275198Y-129030000D01*
X148945462Y-129700264D01*
G36*
X108460000Y-118424802D02*
X108460000Y-120650000D01*
X108517852Y-120940839D01*
X108682599Y-121187401D01*
X108929161Y-121352148D01*
X109220000Y-121410000D01*
X115007537Y-121410000D01*
X115039673Y-121442192D01*
X115383201Y-121584838D01*
X115755167Y-121585162D01*
X116080000Y-121450944D01*
X116080000Y-128780000D01*
X115570000Y-128780000D01*
X115279160Y-128837852D01*
X115032599Y-129002599D01*
X113985198Y-130050000D01*
X110804802Y-130050000D01*
X110032547Y-129277745D01*
X110931861Y-129277745D01*
X111005995Y-129523864D01*
X111543223Y-129716965D01*
X112113454Y-129689778D01*
X112514005Y-129523864D01*
X112588139Y-129277745D01*
X111760000Y-128449605D01*
X110931861Y-129277745D01*
X110032547Y-129277745D01*
X108808025Y-128053223D01*
X110313035Y-128053223D01*
X110340222Y-128623454D01*
X110506136Y-129024005D01*
X110752255Y-129098139D01*
X111580395Y-128270000D01*
X111939605Y-128270000D01*
X112767745Y-129098139D01*
X113013864Y-129024005D01*
X113206965Y-128486777D01*
X113179778Y-127916546D01*
X113013864Y-127515995D01*
X112767745Y-127441861D01*
X111939605Y-128270000D01*
X111580395Y-128270000D01*
X110752255Y-127441861D01*
X110506136Y-127515995D01*
X110313035Y-128053223D01*
X108808025Y-128053223D01*
X108487401Y-127732599D01*
X108240839Y-127567852D01*
X107950000Y-127510000D01*
X106622995Y-127510000D01*
X106457457Y-127262255D01*
X110931861Y-127262255D01*
X111760000Y-128090395D01*
X112588139Y-127262255D01*
X112514005Y-127016136D01*
X111976777Y-126823035D01*
X111406546Y-126850222D01*
X111005995Y-127016136D01*
X110931861Y-127262255D01*
X106457457Y-127262255D01*
X106452811Y-127255302D01*
X106070725Y-127000000D01*
X106452811Y-126744698D01*
X106763880Y-126279151D01*
X106873113Y-125730000D01*
X106763880Y-125180849D01*
X106452811Y-124715302D01*
X106070725Y-124460000D01*
X106452811Y-124204698D01*
X106763880Y-123739151D01*
X106873113Y-123190000D01*
X106763880Y-122640849D01*
X106452811Y-122175302D01*
X106170000Y-121986333D01*
X106170000Y-121853667D01*
X106452811Y-121664698D01*
X106763880Y-121199151D01*
X106873113Y-120650000D01*
X106763880Y-120100849D01*
X106452811Y-119635302D01*
X106070725Y-119380000D01*
X106452811Y-119124698D01*
X106763880Y-118659151D01*
X106873113Y-118110000D01*
X106763880Y-117560849D01*
X106452811Y-117095302D01*
X106070725Y-116840000D01*
X106452811Y-116584698D01*
X106519736Y-116484538D01*
X108460000Y-118424802D01*
X108460000Y-118424802D01*
G37*
X108460000Y-118424802D02*
X108460000Y-120650000D01*
X108517852Y-120940839D01*
X108682599Y-121187401D01*
X108929161Y-121352148D01*
X109220000Y-121410000D01*
X115007537Y-121410000D01*
X115039673Y-121442192D01*
X115383201Y-121584838D01*
X115755167Y-121585162D01*
X116080000Y-121450944D01*
X116080000Y-128780000D01*
X115570000Y-128780000D01*
X115279160Y-128837852D01*
X115032599Y-129002599D01*
X113985198Y-130050000D01*
X110804802Y-130050000D01*
X110032547Y-129277745D01*
X110931861Y-129277745D01*
X111005995Y-129523864D01*
X111543223Y-129716965D01*
X112113454Y-129689778D01*
X112514005Y-129523864D01*
X112588139Y-129277745D01*
X111760000Y-128449605D01*
X110931861Y-129277745D01*
X110032547Y-129277745D01*
X108808025Y-128053223D01*
X110313035Y-128053223D01*
X110340222Y-128623454D01*
X110506136Y-129024005D01*
X110752255Y-129098139D01*
X111580395Y-128270000D01*
X111939605Y-128270000D01*
X112767745Y-129098139D01*
X113013864Y-129024005D01*
X113206965Y-128486777D01*
X113179778Y-127916546D01*
X113013864Y-127515995D01*
X112767745Y-127441861D01*
X111939605Y-128270000D01*
X111580395Y-128270000D01*
X110752255Y-127441861D01*
X110506136Y-127515995D01*
X110313035Y-128053223D01*
X108808025Y-128053223D01*
X108487401Y-127732599D01*
X108240839Y-127567852D01*
X107950000Y-127510000D01*
X106622995Y-127510000D01*
X106457457Y-127262255D01*
X110931861Y-127262255D01*
X111760000Y-128090395D01*
X112588139Y-127262255D01*
X112514005Y-127016136D01*
X111976777Y-126823035D01*
X111406546Y-126850222D01*
X111005995Y-127016136D01*
X110931861Y-127262255D01*
X106457457Y-127262255D01*
X106452811Y-127255302D01*
X106070725Y-127000000D01*
X106452811Y-126744698D01*
X106763880Y-126279151D01*
X106873113Y-125730000D01*
X106763880Y-125180849D01*
X106452811Y-124715302D01*
X106070725Y-124460000D01*
X106452811Y-124204698D01*
X106763880Y-123739151D01*
X106873113Y-123190000D01*
X106763880Y-122640849D01*
X106452811Y-122175302D01*
X106170000Y-121986333D01*
X106170000Y-121853667D01*
X106452811Y-121664698D01*
X106763880Y-121199151D01*
X106873113Y-120650000D01*
X106763880Y-120100849D01*
X106452811Y-119635302D01*
X106070725Y-119380000D01*
X106452811Y-119124698D01*
X106763880Y-118659151D01*
X106873113Y-118110000D01*
X106763880Y-117560849D01*
X106452811Y-117095302D01*
X106070725Y-116840000D01*
X106452811Y-116584698D01*
X106519736Y-116484538D01*
X108460000Y-118424802D01*
G36*
X186563000Y-125798198D02*
X185085122Y-124320320D01*
X185085162Y-124274833D01*
X184943117Y-123931057D01*
X184680327Y-123667808D01*
X184336799Y-123525162D01*
X183964833Y-123524838D01*
X183621057Y-123666883D01*
X183391171Y-123896369D01*
X178337401Y-118842599D01*
X178090839Y-118677852D01*
X177800000Y-118620000D01*
X166932463Y-118620000D01*
X166900327Y-118587808D01*
X166556799Y-118445162D01*
X166184833Y-118444838D01*
X165841057Y-118586883D01*
X165577808Y-118849673D01*
X165435162Y-119193201D01*
X165434838Y-119565167D01*
X165569056Y-119890000D01*
X164392463Y-119890000D01*
X164360327Y-119857808D01*
X164016799Y-119715162D01*
X163644833Y-119714838D01*
X163301057Y-119856883D01*
X163037808Y-120119673D01*
X162895162Y-120463201D01*
X162894838Y-120835167D01*
X163029056Y-121160000D01*
X161852463Y-121160000D01*
X161820327Y-121127808D01*
X161476799Y-120985162D01*
X161104833Y-120984838D01*
X160761057Y-121126883D01*
X160531171Y-121356369D01*
X158017401Y-118842599D01*
X157770839Y-118677852D01*
X157480000Y-118620000D01*
X150660633Y-118620000D01*
X150794838Y-118296799D01*
X150795162Y-117924833D01*
X150653117Y-117581057D01*
X150390327Y-117317808D01*
X150046799Y-117175162D01*
X149674833Y-117174838D01*
X149331057Y-117316883D01*
X149297882Y-117350000D01*
X137474802Y-117350000D01*
X136846979Y-116722177D01*
X136991663Y-116577745D01*
X140141861Y-116577745D01*
X140215995Y-116823864D01*
X140753223Y-117016965D01*
X141323454Y-116989778D01*
X141724005Y-116823864D01*
X141798139Y-116577745D01*
X140970000Y-115749605D01*
X140141861Y-116577745D01*
X136991663Y-116577745D01*
X137185824Y-116383923D01*
X137404750Y-115856691D01*
X137405189Y-115353223D01*
X139523035Y-115353223D01*
X139550222Y-115923454D01*
X139716136Y-116324005D01*
X139962255Y-116398139D01*
X140790395Y-115570000D01*
X141149605Y-115570000D01*
X141977745Y-116398139D01*
X142223864Y-116324005D01*
X142369424Y-115919041D01*
X143388086Y-115919041D01*
X143627611Y-116425134D01*
X144042577Y-116801041D01*
X144430961Y-116961904D01*
X144653000Y-116839915D01*
X144653000Y-115697000D01*
X143509371Y-115697000D01*
X143388086Y-115919041D01*
X142369424Y-115919041D01*
X142416965Y-115786777D01*
X142389989Y-115220959D01*
X143388086Y-115220959D01*
X143509371Y-115443000D01*
X144653000Y-115443000D01*
X144653000Y-114300085D01*
X144430961Y-114178096D01*
X144042577Y-114338959D01*
X143627611Y-114714866D01*
X143388086Y-115220959D01*
X142389989Y-115220959D01*
X142389778Y-115216546D01*
X142223864Y-114815995D01*
X141977745Y-114741861D01*
X141149605Y-115570000D01*
X140790395Y-115570000D01*
X139962255Y-114741861D01*
X139716136Y-114815995D01*
X139523035Y-115353223D01*
X137405189Y-115353223D01*
X137405248Y-115285813D01*
X137187243Y-114758200D01*
X136991640Y-114562255D01*
X140141861Y-114562255D01*
X140970000Y-115390395D01*
X141798139Y-114562255D01*
X141724005Y-114316136D01*
X141186777Y-114123035D01*
X140616546Y-114150222D01*
X140215995Y-114316136D01*
X140141861Y-114562255D01*
X136991640Y-114562255D01*
X136783923Y-114354176D01*
X136256691Y-114135250D01*
X135685813Y-114134752D01*
X135158200Y-114352757D01*
X134754176Y-114756077D01*
X134535250Y-115283309D01*
X134534752Y-115854187D01*
X134752757Y-116381800D01*
X135156077Y-116785824D01*
X135210000Y-116808215D01*
X135210000Y-116920000D01*
X135267852Y-117210839D01*
X135432599Y-117457401D01*
X136595198Y-118620000D01*
X128834802Y-118620000D01*
X133664802Y-113790000D01*
X166055198Y-113790000D01*
X166725462Y-114460264D01*
X166625302Y-114527189D01*
X166370000Y-114909275D01*
X166114698Y-114527189D01*
X165649151Y-114216120D01*
X165100000Y-114106887D01*
X164550849Y-114216120D01*
X164085302Y-114527189D01*
X163830000Y-114909275D01*
X163574698Y-114527189D01*
X163109151Y-114216120D01*
X162560000Y-114106887D01*
X162010849Y-114216120D01*
X161545302Y-114527189D01*
X161290000Y-114909275D01*
X161034698Y-114527189D01*
X160569151Y-114216120D01*
X160020000Y-114106887D01*
X159470849Y-114216120D01*
X159005302Y-114527189D01*
X158750000Y-114909275D01*
X158494698Y-114527189D01*
X158029151Y-114216120D01*
X157480000Y-114106887D01*
X156930849Y-114216120D01*
X156465302Y-114527189D01*
X156210000Y-114909275D01*
X155954698Y-114527189D01*
X155489151Y-114216120D01*
X154940000Y-114106887D01*
X154390849Y-114216120D01*
X153925302Y-114527189D01*
X153670000Y-114909275D01*
X153414698Y-114527189D01*
X152949151Y-114216120D01*
X152400000Y-114106887D01*
X151850849Y-114216120D01*
X151385302Y-114527189D01*
X151130000Y-114909275D01*
X150874698Y-114527189D01*
X150409151Y-114216120D01*
X149860000Y-114106887D01*
X149310849Y-114216120D01*
X148845302Y-114527189D01*
X148590000Y-114909275D01*
X148334698Y-114527189D01*
X147869151Y-114216120D01*
X147320000Y-114106887D01*
X146770849Y-114216120D01*
X146305302Y-114527189D01*
X146035014Y-114931703D01*
X145932389Y-114714866D01*
X145517423Y-114338959D01*
X145129039Y-114178096D01*
X144907000Y-114300085D01*
X144907000Y-115443000D01*
X144927000Y-115443000D01*
X144927000Y-115697000D01*
X144907000Y-115697000D01*
X144907000Y-116839915D01*
X145129039Y-116961904D01*
X145517423Y-116801041D01*
X145932389Y-116425134D01*
X146035014Y-116208297D01*
X146305302Y-116612811D01*
X146770849Y-116923880D01*
X147320000Y-117033113D01*
X147869151Y-116923880D01*
X148334698Y-116612811D01*
X148590000Y-116230725D01*
X148845302Y-116612811D01*
X149310849Y-116923880D01*
X149860000Y-117033113D01*
X150409151Y-116923880D01*
X150874698Y-116612811D01*
X151130000Y-116230725D01*
X151385302Y-116612811D01*
X151850849Y-116923880D01*
X152400000Y-117033113D01*
X152949151Y-116923880D01*
X153414698Y-116612811D01*
X153670000Y-116230725D01*
X153925302Y-116612811D01*
X154390849Y-116923880D01*
X154940000Y-117033113D01*
X155489151Y-116923880D01*
X155954698Y-116612811D01*
X156210000Y-116230725D01*
X156465302Y-116612811D01*
X156930849Y-116923880D01*
X157480000Y-117033113D01*
X158029151Y-116923880D01*
X158494698Y-116612811D01*
X158750000Y-116230725D01*
X159005302Y-116612811D01*
X159470849Y-116923880D01*
X160020000Y-117033113D01*
X160569151Y-116923880D01*
X161034698Y-116612811D01*
X161290000Y-116230725D01*
X161545302Y-116612811D01*
X162010849Y-116923880D01*
X162560000Y-117033113D01*
X163109151Y-116923880D01*
X163574698Y-116612811D01*
X163830000Y-116230725D01*
X164085302Y-116612811D01*
X164550849Y-116923880D01*
X165100000Y-117033113D01*
X165649151Y-116923880D01*
X166114698Y-116612811D01*
X166370000Y-116230725D01*
X166625302Y-116612811D01*
X167090849Y-116923880D01*
X167640000Y-117033113D01*
X168189151Y-116923880D01*
X168654698Y-116612811D01*
X168910000Y-116230725D01*
X169165302Y-116612811D01*
X169630849Y-116923880D01*
X170180000Y-117033113D01*
X170729151Y-116923880D01*
X171194698Y-116612811D01*
X171450000Y-116230725D01*
X171705302Y-116612811D01*
X172170849Y-116923880D01*
X172720000Y-117033113D01*
X173269151Y-116923880D01*
X173734698Y-116612811D01*
X173990000Y-116230725D01*
X174245302Y-116612811D01*
X174710849Y-116923880D01*
X175260000Y-117033113D01*
X175809151Y-116923880D01*
X176274698Y-116612811D01*
X176530000Y-116230725D01*
X176785302Y-116612811D01*
X177250849Y-116923880D01*
X177800000Y-117033113D01*
X178349151Y-116923880D01*
X178814698Y-116612811D01*
X179125767Y-116147264D01*
X179235000Y-115598113D01*
X179235000Y-115541887D01*
X179125767Y-114992736D01*
X178814698Y-114527189D01*
X178560000Y-114357005D01*
X178560000Y-114300000D01*
X178502148Y-114009161D01*
X178337401Y-113762599D01*
X171987401Y-107412599D01*
X171740839Y-107247852D01*
X171450000Y-107190000D01*
X162090633Y-107190000D01*
X162224838Y-106866799D01*
X162225162Y-106494833D01*
X162083117Y-106151057D01*
X161820327Y-105887808D01*
X161476799Y-105745162D01*
X161104833Y-105744838D01*
X160761057Y-105886883D01*
X160727882Y-105920000D01*
X133350000Y-105920000D01*
X133107414Y-105968254D01*
X133059160Y-105977852D01*
X132812599Y-106142599D01*
X130495198Y-108460000D01*
X113344802Y-108460000D01*
X112520000Y-107635198D01*
X112520000Y-104142954D01*
X112810054Y-103949147D01*
X113030000Y-103619974D01*
X113249946Y-103949147D01*
X113731715Y-104271054D01*
X114300000Y-104384093D01*
X114868285Y-104271054D01*
X115350054Y-103949147D01*
X115671961Y-103467378D01*
X115785000Y-102899093D01*
X115785000Y-102840907D01*
X115679396Y-102310000D01*
X186563000Y-102310000D01*
X186563000Y-125798198D01*
X186563000Y-125798198D01*
G37*
X186563000Y-125798198D02*
X185085122Y-124320320D01*
X185085162Y-124274833D01*
X184943117Y-123931057D01*
X184680327Y-123667808D01*
X184336799Y-123525162D01*
X183964833Y-123524838D01*
X183621057Y-123666883D01*
X183391171Y-123896369D01*
X178337401Y-118842599D01*
X178090839Y-118677852D01*
X177800000Y-118620000D01*
X166932463Y-118620000D01*
X166900327Y-118587808D01*
X166556799Y-118445162D01*
X166184833Y-118444838D01*
X165841057Y-118586883D01*
X165577808Y-118849673D01*
X165435162Y-119193201D01*
X165434838Y-119565167D01*
X165569056Y-119890000D01*
X164392463Y-119890000D01*
X164360327Y-119857808D01*
X164016799Y-119715162D01*
X163644833Y-119714838D01*
X163301057Y-119856883D01*
X163037808Y-120119673D01*
X162895162Y-120463201D01*
X162894838Y-120835167D01*
X163029056Y-121160000D01*
X161852463Y-121160000D01*
X161820327Y-121127808D01*
X161476799Y-120985162D01*
X161104833Y-120984838D01*
X160761057Y-121126883D01*
X160531171Y-121356369D01*
X158017401Y-118842599D01*
X157770839Y-118677852D01*
X157480000Y-118620000D01*
X150660633Y-118620000D01*
X150794838Y-118296799D01*
X150795162Y-117924833D01*
X150653117Y-117581057D01*
X150390327Y-117317808D01*
X150046799Y-117175162D01*
X149674833Y-117174838D01*
X149331057Y-117316883D01*
X149297882Y-117350000D01*
X137474802Y-117350000D01*
X136846979Y-116722177D01*
X136991663Y-116577745D01*
X140141861Y-116577745D01*
X140215995Y-116823864D01*
X140753223Y-117016965D01*
X141323454Y-116989778D01*
X141724005Y-116823864D01*
X141798139Y-116577745D01*
X140970000Y-115749605D01*
X140141861Y-116577745D01*
X136991663Y-116577745D01*
X137185824Y-116383923D01*
X137404750Y-115856691D01*
X137405189Y-115353223D01*
X139523035Y-115353223D01*
X139550222Y-115923454D01*
X139716136Y-116324005D01*
X139962255Y-116398139D01*
X140790395Y-115570000D01*
X141149605Y-115570000D01*
X141977745Y-116398139D01*
X142223864Y-116324005D01*
X142369424Y-115919041D01*
X143388086Y-115919041D01*
X143627611Y-116425134D01*
X144042577Y-116801041D01*
X144430961Y-116961904D01*
X144653000Y-116839915D01*
X144653000Y-115697000D01*
X143509371Y-115697000D01*
X143388086Y-115919041D01*
X142369424Y-115919041D01*
X142416965Y-115786777D01*
X142389989Y-115220959D01*
X143388086Y-115220959D01*
X143509371Y-115443000D01*
X144653000Y-115443000D01*
X144653000Y-114300085D01*
X144430961Y-114178096D01*
X144042577Y-114338959D01*
X143627611Y-114714866D01*
X143388086Y-115220959D01*
X142389989Y-115220959D01*
X142389778Y-115216546D01*
X142223864Y-114815995D01*
X141977745Y-114741861D01*
X141149605Y-115570000D01*
X140790395Y-115570000D01*
X139962255Y-114741861D01*
X139716136Y-114815995D01*
X139523035Y-115353223D01*
X137405189Y-115353223D01*
X137405248Y-115285813D01*
X137187243Y-114758200D01*
X136991640Y-114562255D01*
X140141861Y-114562255D01*
X140970000Y-115390395D01*
X141798139Y-114562255D01*
X141724005Y-114316136D01*
X141186777Y-114123035D01*
X140616546Y-114150222D01*
X140215995Y-114316136D01*
X140141861Y-114562255D01*
X136991640Y-114562255D01*
X136783923Y-114354176D01*
X136256691Y-114135250D01*
X135685813Y-114134752D01*
X135158200Y-114352757D01*
X134754176Y-114756077D01*
X134535250Y-115283309D01*
X134534752Y-115854187D01*
X134752757Y-116381800D01*
X135156077Y-116785824D01*
X135210000Y-116808215D01*
X135210000Y-116920000D01*
X135267852Y-117210839D01*
X135432599Y-117457401D01*
X136595198Y-118620000D01*
X128834802Y-118620000D01*
X133664802Y-113790000D01*
X166055198Y-113790000D01*
X166725462Y-114460264D01*
X166625302Y-114527189D01*
X166370000Y-114909275D01*
X166114698Y-114527189D01*
X165649151Y-114216120D01*
X165100000Y-114106887D01*
X164550849Y-114216120D01*
X164085302Y-114527189D01*
X163830000Y-114909275D01*
X163574698Y-114527189D01*
X163109151Y-114216120D01*
X162560000Y-114106887D01*
X162010849Y-114216120D01*
X161545302Y-114527189D01*
X161290000Y-114909275D01*
X161034698Y-114527189D01*
X160569151Y-114216120D01*
X160020000Y-114106887D01*
X159470849Y-114216120D01*
X159005302Y-114527189D01*
X158750000Y-114909275D01*
X158494698Y-114527189D01*
X158029151Y-114216120D01*
X157480000Y-114106887D01*
X156930849Y-114216120D01*
X156465302Y-114527189D01*
X156210000Y-114909275D01*
X155954698Y-114527189D01*
X155489151Y-114216120D01*
X154940000Y-114106887D01*
X154390849Y-114216120D01*
X153925302Y-114527189D01*
X153670000Y-114909275D01*
X153414698Y-114527189D01*
X152949151Y-114216120D01*
X152400000Y-114106887D01*
X151850849Y-114216120D01*
X151385302Y-114527189D01*
X151130000Y-114909275D01*
X150874698Y-114527189D01*
X150409151Y-114216120D01*
X149860000Y-114106887D01*
X149310849Y-114216120D01*
X148845302Y-114527189D01*
X148590000Y-114909275D01*
X148334698Y-114527189D01*
X147869151Y-114216120D01*
X147320000Y-114106887D01*
X146770849Y-114216120D01*
X146305302Y-114527189D01*
X146035014Y-114931703D01*
X145932389Y-114714866D01*
X145517423Y-114338959D01*
X145129039Y-114178096D01*
X144907000Y-114300085D01*
X144907000Y-115443000D01*
X144927000Y-115443000D01*
X144927000Y-115697000D01*
X144907000Y-115697000D01*
X144907000Y-116839915D01*
X145129039Y-116961904D01*
X145517423Y-116801041D01*
X145932389Y-116425134D01*
X146035014Y-116208297D01*
X146305302Y-116612811D01*
X146770849Y-116923880D01*
X147320000Y-117033113D01*
X147869151Y-116923880D01*
X148334698Y-116612811D01*
X148590000Y-116230725D01*
X148845302Y-116612811D01*
X149310849Y-116923880D01*
X149860000Y-117033113D01*
X150409151Y-116923880D01*
X150874698Y-116612811D01*
X151130000Y-116230725D01*
X151385302Y-116612811D01*
X151850849Y-116923880D01*
X152400000Y-117033113D01*
X152949151Y-116923880D01*
X153414698Y-116612811D01*
X153670000Y-116230725D01*
X153925302Y-116612811D01*
X154390849Y-116923880D01*
X154940000Y-117033113D01*
X155489151Y-116923880D01*
X155954698Y-116612811D01*
X156210000Y-116230725D01*
X156465302Y-116612811D01*
X156930849Y-116923880D01*
X157480000Y-117033113D01*
X158029151Y-116923880D01*
X158494698Y-116612811D01*
X158750000Y-116230725D01*
X159005302Y-116612811D01*
X159470849Y-116923880D01*
X160020000Y-117033113D01*
X160569151Y-116923880D01*
X161034698Y-116612811D01*
X161290000Y-116230725D01*
X161545302Y-116612811D01*
X162010849Y-116923880D01*
X162560000Y-117033113D01*
X163109151Y-116923880D01*
X163574698Y-116612811D01*
X163830000Y-116230725D01*
X164085302Y-116612811D01*
X164550849Y-116923880D01*
X165100000Y-117033113D01*
X165649151Y-116923880D01*
X166114698Y-116612811D01*
X166370000Y-116230725D01*
X166625302Y-116612811D01*
X167090849Y-116923880D01*
X167640000Y-117033113D01*
X168189151Y-116923880D01*
X168654698Y-116612811D01*
X168910000Y-116230725D01*
X169165302Y-116612811D01*
X169630849Y-116923880D01*
X170180000Y-117033113D01*
X170729151Y-116923880D01*
X171194698Y-116612811D01*
X171450000Y-116230725D01*
X171705302Y-116612811D01*
X172170849Y-116923880D01*
X172720000Y-117033113D01*
X173269151Y-116923880D01*
X173734698Y-116612811D01*
X173990000Y-116230725D01*
X174245302Y-116612811D01*
X174710849Y-116923880D01*
X175260000Y-117033113D01*
X175809151Y-116923880D01*
X176274698Y-116612811D01*
X176530000Y-116230725D01*
X176785302Y-116612811D01*
X177250849Y-116923880D01*
X177800000Y-117033113D01*
X178349151Y-116923880D01*
X178814698Y-116612811D01*
X179125767Y-116147264D01*
X179235000Y-115598113D01*
X179235000Y-115541887D01*
X179125767Y-114992736D01*
X178814698Y-114527189D01*
X178560000Y-114357005D01*
X178560000Y-114300000D01*
X178502148Y-114009161D01*
X178337401Y-113762599D01*
X171987401Y-107412599D01*
X171740839Y-107247852D01*
X171450000Y-107190000D01*
X162090633Y-107190000D01*
X162224838Y-106866799D01*
X162225162Y-106494833D01*
X162083117Y-106151057D01*
X161820327Y-105887808D01*
X161476799Y-105745162D01*
X161104833Y-105744838D01*
X160761057Y-105886883D01*
X160727882Y-105920000D01*
X133350000Y-105920000D01*
X133107414Y-105968254D01*
X133059160Y-105977852D01*
X132812599Y-106142599D01*
X130495198Y-108460000D01*
X113344802Y-108460000D01*
X112520000Y-107635198D01*
X112520000Y-104142954D01*
X112810054Y-103949147D01*
X113030000Y-103619974D01*
X113249946Y-103949147D01*
X113731715Y-104271054D01*
X114300000Y-104384093D01*
X114868285Y-104271054D01*
X115350054Y-103949147D01*
X115671961Y-103467378D01*
X115785000Y-102899093D01*
X115785000Y-102840907D01*
X115679396Y-102310000D01*
X186563000Y-102310000D01*
X186563000Y-125798198D01*
M02*
