G04 #@! TF.FileFunction,Soldermask,Bot*
%FSLAX46Y46*%
G04 Gerber Fmt 4.6, Leading zero omitted, Abs format (unit mm)*
G04 Created by KiCad (PCBNEW 4.0.6) date 05/15/17 21:45:34*
%MOMM*%
%LPD*%
G01*
G04 APERTURE LIST*
%ADD10C,0.100000*%
%ADD11R,2.000000X2.000000*%
%ADD12O,2.000000X2.000000*%
%ADD13R,2.100000X2.100000*%
%ADD14O,2.100000X2.100000*%
%ADD15C,2.000000*%
G04 APERTURE END LIST*
D10*
D11*
X144780000Y-130810000D03*
D12*
X177800000Y-115570000D03*
X147320000Y-130810000D03*
X175260000Y-115570000D03*
X149860000Y-130810000D03*
X172720000Y-115570000D03*
X152400000Y-130810000D03*
X170180000Y-115570000D03*
X154940000Y-130810000D03*
X167640000Y-115570000D03*
X157480000Y-130810000D03*
X165100000Y-115570000D03*
X160020000Y-130810000D03*
X162560000Y-115570000D03*
X162560000Y-130810000D03*
X160020000Y-115570000D03*
X165100000Y-130810000D03*
X157480000Y-115570000D03*
X167640000Y-130810000D03*
X154940000Y-115570000D03*
X170180000Y-130810000D03*
X152400000Y-115570000D03*
X172720000Y-130810000D03*
X149860000Y-115570000D03*
X175260000Y-130810000D03*
X147320000Y-115570000D03*
X177800000Y-130810000D03*
X144780000Y-115570000D03*
D13*
X101600000Y-102870000D03*
D14*
X104140000Y-102870000D03*
D15*
X111760000Y-128270000D03*
D12*
X111760000Y-118110000D03*
D15*
X140970000Y-115570000D03*
X135970000Y-115570000D03*
X99060000Y-137160000D03*
X104060000Y-137160000D03*
D13*
X93980000Y-102870000D03*
D14*
X96520000Y-102870000D03*
D13*
X186690000Y-148590000D03*
D14*
X184150000Y-148590000D03*
X181610000Y-148590000D03*
X179070000Y-148590000D03*
X176530000Y-148590000D03*
X173990000Y-148590000D03*
X171450000Y-148590000D03*
X168910000Y-148590000D03*
X166370000Y-148590000D03*
X163830000Y-148590000D03*
X161290000Y-148590000D03*
X158750000Y-148590000D03*
X156210000Y-148590000D03*
X153670000Y-148590000D03*
X151130000Y-148590000D03*
X148590000Y-148590000D03*
X146050000Y-148590000D03*
X143510000Y-148590000D03*
X140970000Y-148590000D03*
X138430000Y-148590000D03*
X135890000Y-148590000D03*
X133350000Y-148590000D03*
X130810000Y-148590000D03*
X128270000Y-148590000D03*
X125730000Y-148590000D03*
X123190000Y-148590000D03*
X120650000Y-148590000D03*
X118110000Y-148590000D03*
X115570000Y-148590000D03*
X113030000Y-148590000D03*
X110490000Y-148590000D03*
X107950000Y-148590000D03*
X105410000Y-148590000D03*
X102870000Y-148590000D03*
X100330000Y-148590000D03*
X97790000Y-148590000D03*
X95250000Y-148590000D03*
X92710000Y-148590000D03*
X90170000Y-148590000D03*
D13*
X109220000Y-102870000D03*
D14*
X111760000Y-102870000D03*
X114300000Y-102870000D03*
D11*
X105410000Y-130810000D03*
D12*
X97790000Y-115570000D03*
X105410000Y-128270000D03*
X97790000Y-118110000D03*
X105410000Y-125730000D03*
X97790000Y-120650000D03*
X105410000Y-123190000D03*
X97790000Y-123190000D03*
X105410000Y-120650000D03*
X97790000Y-125730000D03*
X105410000Y-118110000D03*
X97790000Y-128270000D03*
X105410000Y-115570000D03*
X97790000Y-130810000D03*
M02*
