M48
;DRILL file {KiCad 4.0.6} date 05/15/17 21:45:45
;FORMAT={2:4/ absolute / inch / suppress leading zeros}
FMAT,2
INCH,TZ
T1C0.016
T2C0.031
T3C0.039
%
G90
G05
M72
T1
X41500Y-43000
X42500Y-55000
X42500Y-56000
X43000Y-52000
X43500Y-53500
X43500Y-55500
X44500Y-44500
X44500Y-52000
X44500Y-55000
X45500Y-47500
X45500Y-51500
X45500Y-54500
X46000Y-51000
X46500Y-54000
X47000Y-54500
X48000Y-55000
X48000Y-56500
X50500Y-44000
X51000Y-43500
X59000Y-46500
X62500Y-54000
X63000Y-54500
X63500Y-42000
X63500Y-48000
X64500Y-47500
X64500Y-48500
X65000Y-49500
X65500Y-47000
X66000Y-57000
X66500Y-52500
X66500Y-54500
X67500Y-52500
X67500Y-53500
X68500Y-54500
X71000Y-54500
X72500Y-49000
X72500Y-53500
T2
X38500Y-45500
X38500Y-46500
X38500Y-47500
X38500Y-48500
X38500Y-49500
X38500Y-50500
X38500Y-51500
X39000Y-54000
X40969Y-54000
X41500Y-45500
X41500Y-46500
X41500Y-47500
X41500Y-48500
X41500Y-49500
X41500Y-50500
X41500Y-51500
X44000Y-46500
X44000Y-50500
X53531Y-45500
X55500Y-45500
X57000Y-45500
X57000Y-51500
X58000Y-45500
X58000Y-51500
X59000Y-45500
X59000Y-51500
X60000Y-45500
X60000Y-51500
X61000Y-45500
X61000Y-51500
X62000Y-45500
X62000Y-51500
X63000Y-45500
X63000Y-51500
X64000Y-45500
X64000Y-51500
X65000Y-45500
X65000Y-51500
X66000Y-45500
X66000Y-51500
X67000Y-45500
X67000Y-51500
X68000Y-45500
X68000Y-51500
X69000Y-45500
X69000Y-51500
X70000Y-45500
X70000Y-51500
T3
X35500Y-58500
X36500Y-58500
X37000Y-40500
X37500Y-58500
X38000Y-40500
X38500Y-58500
X39500Y-58500
X40000Y-40500
X40500Y-58500
X41000Y-40500
X41500Y-58500
X42500Y-58500
X43000Y-40500
X43500Y-58500
X44000Y-40500
X44500Y-58500
X45000Y-40500
X45500Y-58500
X46500Y-58500
X47500Y-58500
X48500Y-58500
X49500Y-58500
X50500Y-58500
X51500Y-58500
X52500Y-58500
X53500Y-58500
X54500Y-58500
X55500Y-58500
X56500Y-58500
X57500Y-58500
X58500Y-58500
X59500Y-58500
X60500Y-58500
X61500Y-58500
X62500Y-58500
X63500Y-58500
X64500Y-58500
X65500Y-58500
X66500Y-58500
X67500Y-58500
X68500Y-58500
X69500Y-58500
X70500Y-58500
X71500Y-58500
X72500Y-58500
X73500Y-58500
T0
M30
