M48
;DRILL file {KiCad 4.0.7} date 02/16/19 22:22:28
;FORMAT={2:4/ absolute / inch / suppress leading zeros}
FMAT,2
INCH,TZ
T1C0.016
T2C0.031
T3C0.039
%
G90
G05
M72
T1
X37000Y-42500
X37000Y-43500
X38000Y-42750
X38000Y-50750
X38500Y-43250
X38750Y-43000
X38750Y-43500
X41500Y-57000
X41750Y-41500
X41750Y-51250
X41750Y-51750
X41750Y-56500
X42500Y-57000
X42750Y-56250
X43250Y-43500
X43500Y-53250
X43500Y-57000
X43750Y-41750
X43750Y-56000
X44500Y-57000
X44750Y-55750
X45000Y-42000
X45500Y-57000
X45750Y-50250
X45750Y-55500
X46000Y-42250
X46500Y-49000
X46500Y-57000
X46750Y-55250
X47000Y-42500
X47250Y-43500
X47500Y-57000
X47750Y-55000
X48000Y-42750
X48000Y-54750
X48000Y-57000
X48250Y-41250
X48250Y-54500
X48500Y-41000
X48500Y-41500
X48500Y-57000
X48750Y-42750
X49000Y-42000
X49000Y-42500
X49250Y-41750
X49500Y-45250
X50000Y-46750
X50000Y-48250
X50250Y-47000
X50250Y-48500
X50500Y-47250
X50500Y-48250
X51000Y-46500
X51250Y-47000
X51250Y-48000
X52000Y-42500
X52250Y-43500
X52750Y-54750
X53000Y-47750
X53000Y-48500
X53000Y-54500
X53250Y-42500
X53500Y-42750
X53500Y-43250
X55250Y-46500
X55500Y-44000
X55500Y-47750
X55500Y-54250
X55500Y-54750
X55750Y-43250
X55750Y-43750
X56000Y-43000
X56250Y-42750
X57250Y-48000
X59750Y-49250
X60000Y-49500
X62500Y-49500
X62500Y-52250
X63250Y-47750
X63250Y-48500
X63500Y-49500
X63500Y-52250
X64250Y-47500
X64500Y-47750
X65500Y-55000
X66250Y-47750
X66500Y-49750
X66500Y-52250
X69000Y-44250
X69500Y-46250
X70250Y-44500
X70500Y-46250
X70500Y-55500
X71500Y-45250
X71500Y-46250
T2
X35750Y-46000
X35750Y-47000
X35750Y-48000
X35750Y-49000
X35750Y-50000
X35750Y-51000
X35750Y-52000
X36281Y-44500
X38250Y-44500
X38750Y-46000
X38750Y-47000
X38750Y-48000
X38750Y-49000
X38750Y-50000
X38750Y-51000
X38750Y-52000
X40250Y-46000
X40250Y-47000
X40250Y-48000
X40250Y-49000
X40250Y-50000
X40250Y-51000
X40250Y-52000
X40781Y-44500
X42750Y-44500
X43250Y-46000
X43250Y-47000
X43250Y-48000
X43250Y-49000
X43250Y-50000
X43250Y-51000
X43250Y-52000
X44750Y-46000
X44750Y-47000
X44750Y-48000
X44750Y-49000
X44750Y-50000
X44750Y-51000
X44750Y-52000
X45281Y-44500
X47250Y-44500
X47750Y-46000
X47750Y-47000
X47750Y-48000
X47750Y-49000
X47750Y-50000
X47750Y-51000
X47750Y-52000
X49250Y-46000
X49250Y-47000
X49250Y-48000
X49250Y-49000
X49250Y-50000
X49250Y-51000
X49250Y-52000
X49250Y-53000
X49781Y-44500
X51750Y-44500
X52250Y-46000
X52250Y-47000
X52250Y-48000
X52250Y-49000
X52250Y-50000
X52250Y-51000
X52250Y-52000
X52250Y-53000
X57500Y-46750
X57500Y-48719
X59000Y-46750
X59000Y-52750
X60000Y-46750
X60000Y-52750
X61000Y-46750
X61000Y-52750
X62000Y-46750
X62000Y-52750
X63000Y-46750
X63000Y-52750
X64000Y-46750
X64000Y-52750
X65000Y-46750
X65000Y-52750
X66000Y-46750
X66000Y-52750
X67000Y-46750
X67000Y-52750
X68000Y-46750
X68000Y-52750
X69000Y-46750
X69000Y-52750
X70000Y-46750
X70000Y-52750
X71000Y-46750
X71000Y-52750
X72000Y-46750
X72000Y-52750
T3
X35500Y-58500
X36500Y-58500
X36750Y-38500
X36750Y-39500
X36750Y-40500
X37500Y-58500
X37750Y-38500
X37750Y-39500
X37750Y-40500
X38500Y-58500
X39500Y-58500
X40500Y-58500
X40750Y-38500
X40750Y-39500
X40750Y-40500
X41500Y-58500
X41750Y-38500
X41750Y-39500
X41750Y-40500
X42500Y-58500
X42750Y-38500
X42750Y-39500
X42750Y-40500
X43500Y-58500
X43750Y-38500
X43750Y-39500
X43750Y-40500
X44500Y-58500
X44750Y-38500
X44750Y-39500
X44750Y-40500
X45500Y-58500
X45750Y-38500
X45750Y-39500
X45750Y-40500
X46500Y-58500
X46750Y-38500
X46750Y-39500
X46750Y-40500
X47500Y-58500
X47750Y-38500
X47750Y-39500
X47750Y-40500
X48500Y-58500
X49500Y-58500
X50000Y-39500
X50000Y-40500
X50500Y-58500
X51500Y-58500
X52250Y-39500
X52250Y-40500
X52500Y-58500
X53500Y-58500
X54500Y-58500
X55500Y-58500
X56500Y-58500
X57500Y-58500
X58500Y-58500
X59500Y-58500
X60500Y-58500
X61500Y-58500
X62500Y-58500
X63500Y-58500
X64500Y-58500
X65500Y-58500
X66500Y-58500
X67500Y-58500
X68500Y-58500
X69500Y-58500
X70500Y-58500
X71500Y-58500
X72500Y-58500
X73500Y-58500
T0
M30
