M48
;DRILL file {KiCad 4.0.6} date 06/10/17 17:46:57
;FORMAT={2:4/ absolute / inch / suppress leading zeros}
FMAT,2
INCH,TZ
T1C0.016
T2C0.031
T3C0.039
%
G90
G05
M72
T1
X40000Y-44500
X40000Y-45250
X40000Y-46250
X41000Y-43750
X41000Y-44750
X41500Y-57000
X42000Y-46250
X42000Y-56500
X42500Y-57000
X43000Y-45250
X43250Y-56250
X43500Y-57000
X44500Y-44250
X44500Y-56000
X44500Y-57000
X45000Y-45000
X45000Y-46250
X45500Y-57000
X45750Y-45500
X45750Y-55750
X46000Y-44250
X46500Y-48000
X46500Y-57000
X47000Y-55500
X47500Y-57000
X48250Y-55250
X49500Y-55000
X50500Y-54750
X50500Y-57000
X52000Y-47500
X52000Y-54500
X52250Y-45750
X52250Y-47250
X54250Y-56750
X55250Y-46750
X55500Y-47500
X55750Y-47250
X61500Y-47250
X62250Y-47500
X62500Y-50000
X62500Y-52250
X63500Y-50000
X63500Y-52250
X64250Y-47250
X65750Y-54750
X66500Y-49000
X66500Y-52250
X66500Y-55500
X66750Y-54750
X67500Y-55500
X67750Y-54750
X68500Y-55500
X68750Y-54750
X69000Y-44250
X69000Y-51500
X69500Y-46250
X69500Y-55500
X70000Y-55000
X70250Y-44500
X70500Y-46250
X70500Y-55500
X71000Y-55000
X71500Y-45250
X71500Y-46250
X71500Y-55500
T2
X37750Y-46750
X37750Y-48719
X39500Y-46750
X39500Y-49750
X40500Y-46750
X40500Y-49750
X41500Y-46750
X41500Y-49750
X42500Y-46750
X42500Y-49750
X43500Y-46750
X43500Y-49750
X44500Y-46750
X44500Y-49750
X45500Y-46750
X45500Y-49750
X47500Y-46250
X47500Y-50250
X57250Y-46750
X57250Y-48719
X59000Y-46750
X59000Y-52750
X60000Y-46750
X60000Y-52750
X61000Y-46750
X61000Y-52750
X62000Y-46750
X62000Y-52750
X63000Y-46750
X63000Y-52750
X64000Y-46750
X64000Y-52750
X65000Y-46750
X65000Y-52750
X66000Y-46750
X66000Y-52750
X67000Y-46750
X67000Y-52750
X68000Y-46750
X68000Y-52750
X69000Y-46750
X69000Y-52750
X70000Y-46750
X70000Y-52750
X71000Y-46750
X71000Y-52750
X72000Y-46750
X72000Y-52750
T3
X35500Y-58500
X36500Y-58500
X37000Y-40500
X37500Y-58500
X38000Y-40500
X38500Y-58500
X39500Y-58500
X40000Y-40500
X40500Y-58500
X41000Y-40500
X41500Y-58500
X42500Y-58500
X43000Y-40500
X43500Y-58500
X44000Y-40500
X44500Y-58500
X45000Y-40500
X45500Y-58500
X46500Y-58500
X47500Y-58500
X48500Y-58500
X49500Y-58500
X50500Y-58500
X51500Y-58500
X52500Y-58500
X53500Y-58500
X54500Y-58500
X55500Y-58500
X56500Y-58500
X57500Y-58500
X58500Y-58500
X59500Y-58500
X60500Y-58500
X61500Y-58500
X62500Y-58500
X63500Y-58500
X64500Y-58500
X65500Y-58500
X66500Y-58500
X67500Y-58500
X68500Y-58500
X69500Y-58500
X70500Y-58500
X71500Y-58500
X72500Y-58500
X73500Y-58500
T0
M30
