M48
;DRILL file {KiCad 4.0.6} date 05/15/17 22:27:42
;FORMAT={2:4/ absolute / inch / suppress leading zeros}
FMAT,2
INCH,TZ
T1C0.016
T2C0.024
T3C0.031
T4C0.039
T5C0.043
%
G90
G05
M72
T1
X49000Y-56000
X49500Y-54500
X51500Y-54500
X55500Y-54500
T2
X65000Y-52500
X65000Y-53287
T3
X38500Y-48500
X38500Y-54500
X41500Y-48500
X41500Y-54500
X45000Y-47000
X45000Y-48000
X45000Y-49000
X45000Y-50000
X45000Y-51000
X45000Y-52000
X45000Y-53000
X46016Y-54750
X47000Y-54750
X48000Y-47000
X48000Y-48000
X48000Y-49000
X48000Y-50000
X48000Y-51000
X48000Y-52000
X48000Y-53000
X51500Y-47000
X51500Y-48000
X51500Y-49000
X51500Y-50000
X51500Y-52000
X51500Y-52984
X54500Y-47000
X54500Y-48000
X54500Y-49000
X54500Y-50000
X54500Y-52000
X54500Y-52984
X58000Y-47000
X58000Y-50000
X58000Y-52500
X62000Y-47000
X62000Y-50000
X62000Y-52500
T4
X37000Y-57500
X38000Y-57500
X39000Y-57500
X39500Y-45500
X40000Y-57500
X40500Y-45500
X41000Y-57500
X42000Y-57500
X43000Y-57500
X44000Y-57500
X45000Y-57500
X46000Y-57500
X47000Y-57500
X48000Y-57500
X49000Y-57500
X50000Y-57500
X51000Y-57500
X52000Y-57500
X53000Y-57500
X54000Y-57500
X55000Y-57500
X56000Y-57500
X57000Y-57500
X58000Y-57500
X59000Y-57500
X60000Y-57500
X61000Y-57500
X62000Y-57500
X63000Y-57500
X64000Y-57500
X65000Y-57500
X66000Y-57500
X67000Y-57500
X68000Y-57500
X69000Y-57500
X70000Y-57500
X71000Y-57500
X72000Y-57500
X73000Y-57500
X74000Y-57500
X75000Y-57500
T5
X71000Y-46500
X71000Y-48272
X73559Y-46500
X73559Y-48272
T0
M30
