G04 #@! TF.FileFunction,Soldermask,Top*
%FSLAX46Y46*%
G04 Gerber Fmt 4.6, Leading zero omitted, Abs format (unit mm)*
G04 Created by KiCad (PCBNEW 4.0.6) date 06/14/17 15:23:26*
%MOMM*%
%LPD*%
G01*
G04 APERTURE LIST*
%ADD10C,0.100000*%
%ADD11R,2.100000X2.100000*%
%ADD12O,2.100000X2.100000*%
%ADD13C,2.000000*%
%ADD14O,2.000000X2.000000*%
%ADD15R,2.000000X2.000000*%
G04 APERTURE END LIST*
D10*
D11*
X190500000Y-139700000D03*
D12*
X187960000Y-139700000D03*
X185420000Y-139700000D03*
X182880000Y-139700000D03*
X180340000Y-139700000D03*
X177800000Y-139700000D03*
X175260000Y-139700000D03*
X172720000Y-139700000D03*
X170180000Y-139700000D03*
X167640000Y-139700000D03*
X165100000Y-139700000D03*
X162560000Y-139700000D03*
X160020000Y-139700000D03*
X157480000Y-139700000D03*
X154940000Y-139700000D03*
X152400000Y-139700000D03*
X149860000Y-139700000D03*
X147320000Y-139700000D03*
X144780000Y-139700000D03*
X142240000Y-139700000D03*
X139700000Y-139700000D03*
X137160000Y-139700000D03*
X134620000Y-139700000D03*
X132080000Y-139700000D03*
X129540000Y-139700000D03*
X127000000Y-139700000D03*
X124460000Y-139700000D03*
X121920000Y-139700000D03*
X119380000Y-139700000D03*
X116840000Y-139700000D03*
X114300000Y-139700000D03*
X111760000Y-139700000D03*
X109220000Y-139700000D03*
X106680000Y-139700000D03*
X104140000Y-139700000D03*
X101600000Y-139700000D03*
X99060000Y-139700000D03*
X96520000Y-139700000D03*
X93980000Y-139700000D03*
D11*
X132715000Y-92710000D03*
D12*
X135255000Y-92710000D03*
D11*
X122555000Y-92710000D03*
D12*
X125095000Y-92710000D03*
D13*
X106680000Y-95250000D03*
D14*
X96520000Y-95250000D03*
D13*
X106680000Y-100330000D03*
D14*
X96520000Y-100330000D03*
D13*
X106680000Y-105410000D03*
D14*
X96520000Y-105410000D03*
D15*
X132080000Y-124460000D03*
D14*
X180340000Y-109220000D03*
X134620000Y-124460000D03*
X177800000Y-109220000D03*
X137160000Y-124460000D03*
X175260000Y-109220000D03*
X139700000Y-124460000D03*
X172720000Y-109220000D03*
X142240000Y-124460000D03*
X170180000Y-109220000D03*
X144780000Y-124460000D03*
X167640000Y-109220000D03*
X147320000Y-124460000D03*
X165100000Y-109220000D03*
X149860000Y-124460000D03*
X162560000Y-109220000D03*
X152400000Y-124460000D03*
X160020000Y-109220000D03*
X154940000Y-124460000D03*
X157480000Y-109220000D03*
X157480000Y-124460000D03*
X154940000Y-109220000D03*
X160020000Y-124460000D03*
X152400000Y-109220000D03*
X162560000Y-124460000D03*
X149860000Y-109220000D03*
X165100000Y-124460000D03*
X147320000Y-109220000D03*
X167640000Y-124460000D03*
X144780000Y-109220000D03*
X170180000Y-124460000D03*
X142240000Y-109220000D03*
X172720000Y-124460000D03*
X139700000Y-109220000D03*
X175260000Y-124460000D03*
X137160000Y-109220000D03*
X177800000Y-124460000D03*
X134620000Y-109220000D03*
X180340000Y-124460000D03*
X132080000Y-109220000D03*
D13*
X128270000Y-119380000D03*
X128270000Y-114380000D03*
D11*
X165100000Y-92710000D03*
D12*
X167640000Y-92710000D03*
D11*
X154940000Y-92710000D03*
D12*
X157480000Y-92710000D03*
D15*
X172720000Y-102870000D03*
D13*
X172720000Y-95250000D03*
X187960000Y-95250000D03*
X187960000Y-102870000D03*
D11*
X142875000Y-92710000D03*
D12*
X145415000Y-92710000D03*
M02*
