G04 #@! TF.FileFunction,Copper,L1,Top,Signal*
%FSLAX46Y46*%
G04 Gerber Fmt 4.6, Leading zero omitted, Abs format (unit mm)*
G04 Created by KiCad (PCBNEW 4.0.6) date 05/15/17 21:37:23*
%MOMM*%
%LPD*%
G01*
G04 APERTURE LIST*
%ADD10C,0.100000*%
%ADD11R,1.700000X1.700000*%
%ADD12O,1.700000X1.700000*%
%ADD13C,1.600000*%
%ADD14O,1.600000X1.600000*%
%ADD15R,1.600000X1.600000*%
%ADD16C,0.600000*%
%ADD17C,0.250000*%
G04 APERTURE END LIST*
D10*
D11*
X190500000Y-139700000D03*
D12*
X187960000Y-139700000D03*
X185420000Y-139700000D03*
X182880000Y-139700000D03*
X180340000Y-139700000D03*
X177800000Y-139700000D03*
X175260000Y-139700000D03*
X172720000Y-139700000D03*
X170180000Y-139700000D03*
X167640000Y-139700000D03*
X165100000Y-139700000D03*
X162560000Y-139700000D03*
X160020000Y-139700000D03*
X157480000Y-139700000D03*
X154940000Y-139700000D03*
X152400000Y-139700000D03*
X149860000Y-139700000D03*
X147320000Y-139700000D03*
X144780000Y-139700000D03*
X142240000Y-139700000D03*
X139700000Y-139700000D03*
X137160000Y-139700000D03*
X134620000Y-139700000D03*
X132080000Y-139700000D03*
X129540000Y-139700000D03*
X127000000Y-139700000D03*
X124460000Y-139700000D03*
X121920000Y-139700000D03*
X119380000Y-139700000D03*
X116840000Y-139700000D03*
X114300000Y-139700000D03*
X111760000Y-139700000D03*
X109220000Y-139700000D03*
X106680000Y-139700000D03*
X104140000Y-139700000D03*
X101600000Y-139700000D03*
X99060000Y-139700000D03*
X96520000Y-139700000D03*
X93980000Y-139700000D03*
D11*
X124460000Y-92710000D03*
D12*
X127000000Y-92710000D03*
D11*
X114300000Y-92710000D03*
D12*
X116840000Y-92710000D03*
D13*
X106680000Y-93980000D03*
D14*
X96520000Y-93980000D03*
D13*
X106680000Y-99060000D03*
D14*
X96520000Y-99060000D03*
D13*
X106680000Y-104140000D03*
D14*
X96520000Y-104140000D03*
D15*
X129540000Y-125730000D03*
D14*
X177800000Y-110490000D03*
X132080000Y-125730000D03*
X175260000Y-110490000D03*
X134620000Y-125730000D03*
X172720000Y-110490000D03*
X137160000Y-125730000D03*
X170180000Y-110490000D03*
X139700000Y-125730000D03*
X167640000Y-110490000D03*
X142240000Y-125730000D03*
X165100000Y-110490000D03*
X144780000Y-125730000D03*
X162560000Y-110490000D03*
X147320000Y-125730000D03*
X160020000Y-110490000D03*
X149860000Y-125730000D03*
X157480000Y-110490000D03*
X152400000Y-125730000D03*
X154940000Y-110490000D03*
X154940000Y-125730000D03*
X152400000Y-110490000D03*
X157480000Y-125730000D03*
X149860000Y-110490000D03*
X160020000Y-125730000D03*
X147320000Y-110490000D03*
X162560000Y-125730000D03*
X144780000Y-110490000D03*
X165100000Y-125730000D03*
X142240000Y-110490000D03*
X167640000Y-125730000D03*
X139700000Y-110490000D03*
X170180000Y-125730000D03*
X137160000Y-110490000D03*
X172720000Y-125730000D03*
X134620000Y-110490000D03*
X175260000Y-125730000D03*
X132080000Y-110490000D03*
X177800000Y-125730000D03*
X129540000Y-110490000D03*
D15*
X97790000Y-110490000D03*
D14*
X105410000Y-125730000D03*
X97790000Y-113030000D03*
X105410000Y-123190000D03*
X97790000Y-115570000D03*
X105410000Y-120650000D03*
X97790000Y-118110000D03*
X105410000Y-118110000D03*
X97790000Y-120650000D03*
X105410000Y-115570000D03*
X97790000Y-123190000D03*
X105410000Y-113030000D03*
X97790000Y-125730000D03*
X105410000Y-110490000D03*
D13*
X109220000Y-115570000D03*
X109220000Y-120570000D03*
X146050000Y-129540000D03*
X151050000Y-129540000D03*
D11*
X165100000Y-92710000D03*
D12*
X167640000Y-92710000D03*
D11*
X154940000Y-92710000D03*
D12*
X157480000Y-92710000D03*
D15*
X172720000Y-102870000D03*
D13*
X172720000Y-95250000D03*
X187960000Y-95250000D03*
X187960000Y-102870000D03*
D16*
X182880000Y-121920000D03*
X187960000Y-127000000D03*
X173990000Y-114300000D03*
X182880000Y-123190000D03*
X187960000Y-128270000D03*
X186690000Y-124460000D03*
X182880000Y-120650000D03*
X181610000Y-114300000D03*
X165100000Y-106680000D03*
X151130000Y-133350000D03*
X130810000Y-93980000D03*
X127000000Y-113030000D03*
X128270000Y-133350000D03*
X124460000Y-118110000D03*
X114300000Y-107950000D03*
X129540000Y-95250000D03*
X133350000Y-106680000D03*
X125730000Y-135890000D03*
X99060000Y-96520000D03*
X130810000Y-121920000D03*
X111760000Y-100330000D03*
D17*
X190500000Y-139700000D02*
X190500000Y-129540000D01*
X170180000Y-113030000D02*
X167640000Y-110490000D01*
X173990000Y-113030000D02*
X170180000Y-113030000D01*
X182880000Y-121920000D02*
X173990000Y-113030000D01*
X190500000Y-129540000D02*
X187960000Y-127000000D01*
X187960000Y-139700000D02*
X187960000Y-128270000D01*
X182880000Y-123190000D02*
X173990000Y-114300000D01*
X186690000Y-132080000D02*
X186690000Y-124460000D01*
X185420000Y-139700000D02*
X185420000Y-133350000D01*
X186690000Y-132080000D02*
X185420000Y-133350000D01*
X182880000Y-120650000D02*
X172720000Y-110490000D01*
X182880000Y-118110000D02*
X185420000Y-120650000D01*
X175260000Y-110490000D02*
X182880000Y-118110000D01*
X182880000Y-134620000D02*
X182880000Y-139700000D01*
X185420000Y-132080000D02*
X182880000Y-134620000D01*
X185420000Y-120650000D02*
X185420000Y-132080000D01*
X180340000Y-139700000D02*
X180340000Y-128270000D01*
X180340000Y-128270000D02*
X177800000Y-125730000D01*
X177800000Y-139700000D02*
X177800000Y-128270000D01*
X177800000Y-128270000D02*
X175260000Y-125730000D01*
X175260000Y-139700000D02*
X175260000Y-128270000D01*
X175260000Y-128270000D02*
X172720000Y-125730000D01*
X172720000Y-139700000D02*
X172720000Y-128270000D01*
X172720000Y-128270000D02*
X170180000Y-125730000D01*
X170180000Y-139700000D02*
X170180000Y-128270000D01*
X170180000Y-128270000D02*
X167640000Y-125730000D01*
X167640000Y-139700000D02*
X167640000Y-128270000D01*
X167640000Y-128270000D02*
X165100000Y-125730000D01*
X165100000Y-139700000D02*
X165100000Y-128270000D01*
X165100000Y-128270000D02*
X162560000Y-125730000D01*
X162560000Y-139700000D02*
X162560000Y-128270000D01*
X162560000Y-128270000D02*
X160020000Y-125730000D01*
X160020000Y-139700000D02*
X160020000Y-128270000D01*
X160020000Y-128270000D02*
X157480000Y-125730000D01*
X157480000Y-128270000D02*
X154940000Y-125730000D01*
X157480000Y-139700000D02*
X157480000Y-128270000D01*
X154940000Y-128270000D02*
X152400000Y-125730000D01*
X154940000Y-139700000D02*
X154940000Y-128270000D01*
X152400000Y-128270000D02*
X149860000Y-125730000D01*
X152400000Y-139700000D02*
X152400000Y-128270000D01*
X187960000Y-102870000D02*
X187960000Y-105410000D01*
X181610000Y-111760000D02*
X181610000Y-114300000D01*
X187960000Y-105410000D02*
X181610000Y-111760000D01*
X130810000Y-93980000D02*
X152400000Y-93980000D01*
X152400000Y-93980000D02*
X165100000Y-106680000D01*
X147320000Y-125730000D02*
X147320000Y-128270000D01*
X147320000Y-128270000D02*
X146050000Y-129540000D01*
X147320000Y-137160000D02*
X147320000Y-130810000D01*
X147320000Y-130810000D02*
X146050000Y-129540000D01*
X147320000Y-137160000D02*
X151130000Y-133350000D01*
X109220000Y-115570000D02*
X109220000Y-114300000D01*
X109220000Y-114300000D02*
X105410000Y-110490000D01*
X110490000Y-110490000D02*
X110490000Y-114300000D01*
X110490000Y-114300000D02*
X109220000Y-115570000D01*
X105410000Y-109220000D02*
X102870000Y-106680000D01*
X105410000Y-109220000D02*
X105410000Y-110490000D01*
X96520000Y-105410000D02*
X97790000Y-106680000D01*
X96520000Y-104140000D02*
X96520000Y-105410000D01*
X102870000Y-106680000D02*
X97790000Y-106680000D01*
X110490000Y-110490000D02*
X127000000Y-93980000D01*
X127000000Y-93980000D02*
X130810000Y-93980000D01*
X96520000Y-104140000D02*
X96520000Y-99060000D01*
X96520000Y-93980000D02*
X96520000Y-99060000D01*
X147320000Y-125730000D02*
X147320000Y-123190000D01*
X147320000Y-123190000D02*
X134620000Y-110490000D01*
X147320000Y-139700000D02*
X147320000Y-137160000D01*
X127000000Y-128270000D02*
X127000000Y-115570000D01*
X144780000Y-139700000D02*
X144780000Y-134620000D01*
X127000000Y-115570000D02*
X132080000Y-110490000D01*
X128270000Y-129540000D02*
X127000000Y-128270000D01*
X129540000Y-129540000D02*
X128270000Y-129540000D01*
X139700000Y-129540000D02*
X129540000Y-129540000D01*
X144780000Y-134620000D02*
X139700000Y-129540000D01*
X125730000Y-115570000D02*
X125730000Y-129540000D01*
X142240000Y-139700000D02*
X142240000Y-134620000D01*
X128270000Y-132080000D02*
X125730000Y-129540000D01*
X139700000Y-132080000D02*
X128270000Y-132080000D01*
X142240000Y-134620000D02*
X139700000Y-132080000D01*
X129540000Y-111760000D02*
X129540000Y-110490000D01*
X125730000Y-115570000D02*
X129540000Y-111760000D01*
X124460000Y-130810000D02*
X123190000Y-129540000D01*
X124460000Y-130810000D02*
X128270000Y-134620000D01*
X128270000Y-134620000D02*
X137160000Y-134620000D01*
X139700000Y-137160000D02*
X139700000Y-139700000D01*
X127000000Y-113030000D02*
X124460000Y-115570000D01*
X139700000Y-135890000D02*
X138430000Y-134620000D01*
X138430000Y-134620000D02*
X137160000Y-134620000D01*
X139700000Y-137160000D02*
X139700000Y-135890000D01*
X123190000Y-129540000D02*
X123190000Y-116840000D01*
X123190000Y-116840000D02*
X124460000Y-115570000D01*
X128270000Y-133350000D02*
X124460000Y-129540000D01*
X124460000Y-129540000D02*
X124460000Y-118110000D01*
X114300000Y-107950000D02*
X127000000Y-95250000D01*
X127000000Y-95250000D02*
X129540000Y-95250000D01*
X125730000Y-107950000D02*
X121920000Y-111760000D01*
X121920000Y-129540000D02*
X132080000Y-139700000D01*
X121920000Y-111760000D02*
X121920000Y-129540000D01*
X144780000Y-110490000D02*
X140970000Y-106680000D01*
X127000000Y-106680000D02*
X125730000Y-107950000D01*
X140970000Y-106680000D02*
X133350000Y-106680000D01*
X133350000Y-106680000D02*
X127000000Y-106680000D01*
X129540000Y-139700000D02*
X125730000Y-135890000D01*
X124460000Y-107950000D02*
X120650000Y-111760000D01*
X124460000Y-133350000D02*
X124460000Y-134620000D01*
X120650000Y-129540000D02*
X124460000Y-133350000D01*
X120650000Y-111760000D02*
X120650000Y-129540000D01*
X147320000Y-110490000D02*
X143510000Y-106680000D01*
X143510000Y-106680000D02*
X142240000Y-105410000D01*
X124460000Y-134620000D02*
X124460000Y-139700000D01*
X127000000Y-105410000D02*
X124460000Y-107950000D01*
X142240000Y-105410000D02*
X127000000Y-105410000D01*
X123190000Y-107950000D02*
X119380000Y-111760000D01*
X121920000Y-132080000D02*
X121920000Y-133350000D01*
X119380000Y-129540000D02*
X121920000Y-132080000D01*
X119380000Y-111760000D02*
X119380000Y-129540000D01*
X149860000Y-110490000D02*
X143510000Y-104140000D01*
X121920000Y-133350000D02*
X121920000Y-139700000D01*
X127000000Y-104140000D02*
X123190000Y-107950000D01*
X143510000Y-104140000D02*
X127000000Y-104140000D01*
X119380000Y-132080000D02*
X119380000Y-130810000D01*
X118110000Y-111760000D02*
X121920000Y-107950000D01*
X118110000Y-129540000D02*
X118110000Y-111760000D01*
X119380000Y-130810000D02*
X118110000Y-129540000D01*
X152400000Y-110490000D02*
X146050000Y-104140000D01*
X121920000Y-107950000D02*
X127000000Y-102870000D01*
X127000000Y-102870000D02*
X144780000Y-102870000D01*
X146050000Y-104140000D02*
X144780000Y-102870000D01*
X119380000Y-139700000D02*
X119380000Y-132080000D01*
X120650000Y-107950000D02*
X116840000Y-111760000D01*
X116840000Y-111760000D02*
X116840000Y-133350000D01*
X154940000Y-110490000D02*
X147320000Y-102870000D01*
X147320000Y-102870000D02*
X146050000Y-101600000D01*
X116840000Y-133350000D02*
X116840000Y-139700000D01*
X127000000Y-101600000D02*
X120650000Y-107950000D01*
X146050000Y-101600000D02*
X127000000Y-101600000D01*
X119380000Y-107950000D02*
X115570000Y-111760000D01*
X115570000Y-111760000D02*
X115570000Y-133350000D01*
X157480000Y-110490000D02*
X149860000Y-102870000D01*
X114300000Y-134620000D02*
X114300000Y-139700000D01*
X115570000Y-133350000D02*
X114300000Y-134620000D01*
X127000000Y-100330000D02*
X119380000Y-107950000D01*
X147320000Y-100330000D02*
X127000000Y-100330000D01*
X148590000Y-101600000D02*
X147320000Y-100330000D01*
X149860000Y-102870000D02*
X148590000Y-101600000D01*
X118110000Y-107950000D02*
X114300000Y-111760000D01*
X114300000Y-111760000D02*
X114300000Y-133350000D01*
X160020000Y-110490000D02*
X148590000Y-99060000D01*
X111760000Y-135890000D02*
X111760000Y-139700000D01*
X114300000Y-133350000D02*
X111760000Y-135890000D01*
X127000000Y-99060000D02*
X118110000Y-107950000D01*
X148590000Y-99060000D02*
X127000000Y-99060000D01*
X116840000Y-107950000D02*
X113030000Y-111760000D01*
X113030000Y-111760000D02*
X113030000Y-133350000D01*
X162560000Y-110490000D02*
X149860000Y-97790000D01*
X109220000Y-137160000D02*
X109220000Y-139700000D01*
X113030000Y-133350000D02*
X109220000Y-137160000D01*
X127000000Y-97790000D02*
X116840000Y-107950000D01*
X149860000Y-97790000D02*
X127000000Y-97790000D01*
X115570000Y-107950000D02*
X111760000Y-111760000D01*
X111760000Y-111760000D02*
X111760000Y-133350000D01*
X165100000Y-110490000D02*
X151130000Y-96520000D01*
X106680000Y-138430000D02*
X106680000Y-139700000D01*
X111760000Y-133350000D02*
X106680000Y-138430000D01*
X127000000Y-96520000D02*
X115570000Y-107950000D01*
X151130000Y-96520000D02*
X127000000Y-96520000D01*
X114300000Y-92710000D02*
X113030000Y-92710000D01*
X109220000Y-96520000D02*
X99060000Y-96520000D01*
X113030000Y-92710000D02*
X109220000Y-96520000D01*
X116840000Y-99060000D02*
X118110000Y-99060000D01*
X106680000Y-99060000D02*
X116840000Y-99060000D01*
X118110000Y-99060000D02*
X124460000Y-92710000D01*
X142240000Y-125730000D02*
X138430000Y-121920000D01*
X138430000Y-121920000D02*
X130810000Y-121920000D01*
X106680000Y-104140000D02*
X107950000Y-104140000D01*
X107950000Y-104140000D02*
X111760000Y-100330000D01*
X165100000Y-92710000D02*
X165100000Y-93980000D01*
X166370000Y-95250000D02*
X172720000Y-95250000D01*
X165100000Y-93980000D02*
X166370000Y-95250000D01*
X157480000Y-92710000D02*
X157480000Y-93980000D01*
X186690000Y-97790000D02*
X187960000Y-96520000D01*
X187960000Y-96520000D02*
X187960000Y-95250000D01*
X161290000Y-97790000D02*
X186690000Y-97790000D01*
X157480000Y-93980000D02*
X161290000Y-97790000D01*
M02*
