M48
;DRILL file {KiCad 4.0.6} date 05/15/17 21:37:35
;FORMAT={2:4/ absolute / inch / suppress leading zeros}
FMAT,2
INCH,TZ
T1C0.016
T2C0.031
T3C0.039
%
G90
G05
M72
T1
X39000Y-38000
X44000Y-39500
X45000Y-42500
X49000Y-46500
X49500Y-53500
X50000Y-44500
X50500Y-52500
X51000Y-37500
X51500Y-37000
X51500Y-48000
X52500Y-42000
X59500Y-52500
X65000Y-42000
X68500Y-45000
X71500Y-45000
X72000Y-47500
X72000Y-48000
X72000Y-48500
X73500Y-49000
X74000Y-50000
X74000Y-50500
T2
X38000Y-37000
X38000Y-39000
X38000Y-41000
X38500Y-43500
X38500Y-44500
X38500Y-45500
X38500Y-46500
X38500Y-47500
X38500Y-48500
X38500Y-49500
X41500Y-43500
X41500Y-44500
X41500Y-45500
X41500Y-46500
X41500Y-47500
X41500Y-48500
X41500Y-49500
X42000Y-37000
X42000Y-39000
X42000Y-41000
X43000Y-45500
X43000Y-47469
X51000Y-43500
X51000Y-49500
X52000Y-43500
X52000Y-49500
X53000Y-43500
X53000Y-49500
X54000Y-43500
X54000Y-49500
X55000Y-43500
X55000Y-49500
X56000Y-43500
X56000Y-49500
X57000Y-43500
X57000Y-49500
X57500Y-51000
X58000Y-43500
X58000Y-49500
X59000Y-43500
X59000Y-49500
X59469Y-51000
X60000Y-43500
X60000Y-49500
X61000Y-43500
X61000Y-49500
X62000Y-43500
X62000Y-49500
X63000Y-43500
X63000Y-49500
X64000Y-43500
X64000Y-49500
X65000Y-43500
X65000Y-49500
X66000Y-43500
X66000Y-49500
X67000Y-43500
X67000Y-49500
X68000Y-37500
X68000Y-40500
X68000Y-43500
X68000Y-49500
X69000Y-43500
X69000Y-49500
X70000Y-43500
X70000Y-49500
X74000Y-37500
X74000Y-40500
T3
X37000Y-55000
X38000Y-55000
X39000Y-55000
X40000Y-55000
X41000Y-55000
X42000Y-55000
X43000Y-55000
X44000Y-55000
X45000Y-36500
X45000Y-55000
X46000Y-36500
X46000Y-55000
X47000Y-55000
X48000Y-55000
X49000Y-36500
X49000Y-55000
X50000Y-36500
X50000Y-55000
X51000Y-55000
X52000Y-55000
X53000Y-55000
X54000Y-55000
X55000Y-55000
X56000Y-55000
X57000Y-55000
X58000Y-55000
X59000Y-55000
X60000Y-55000
X61000Y-36500
X61000Y-55000
X62000Y-36500
X62000Y-55000
X63000Y-55000
X64000Y-55000
X65000Y-36500
X65000Y-55000
X66000Y-36500
X66000Y-55000
X67000Y-55000
X68000Y-55000
X69000Y-55000
X70000Y-55000
X71000Y-55000
X72000Y-55000
X73000Y-55000
X74000Y-55000
X75000Y-55000
T0
M30
