M48
;DRILL file {KiCad 4.0.6} date 06/14/17 15:23:29
;FORMAT={2:4/ absolute / inch / suppress leading zeros}
FMAT,2
INCH,TZ
T1C0.016
T2C0.031
T3C0.039
%
G90
G05
M72
T1
X43750Y-43750
X43750Y-44500
X43750Y-47000
X49250Y-39000
X49250Y-44500
X49500Y-43750
X50750Y-53750
X51000Y-53250
X51750Y-43750
X51750Y-44500
X52750Y-42250
X53250Y-39000
X53500Y-39750
X53750Y-46750
X54250Y-46250
X54500Y-43500
X55000Y-44250
X55000Y-46250
X55000Y-46750
X55500Y-46250
X55500Y-46750
X55500Y-50250
X55500Y-52500
X57250Y-39750
X58000Y-39750
X65000Y-38000
X65000Y-39000
T2
X38000Y-37500
X38000Y-39500
X38000Y-41500
X42000Y-37500
X42000Y-39500
X42000Y-41500
X50500Y-45031
X50500Y-47000
X52000Y-43000
X52000Y-49000
X53000Y-43000
X53000Y-49000
X54000Y-43000
X54000Y-49000
X55000Y-43000
X55000Y-49000
X56000Y-43000
X56000Y-49000
X57000Y-43000
X57000Y-49000
X58000Y-43000
X58000Y-49000
X59000Y-43000
X59000Y-49000
X60000Y-43000
X60000Y-49000
X61000Y-43000
X61000Y-49000
X62000Y-43000
X62000Y-49000
X63000Y-43000
X63000Y-49000
X64000Y-43000
X64000Y-49000
X65000Y-43000
X65000Y-49000
X66000Y-43000
X66000Y-49000
X67000Y-43000
X67000Y-49000
X68000Y-37500
X68000Y-40500
X68000Y-43000
X68000Y-49000
X69000Y-43000
X69000Y-49000
X70000Y-43000
X70000Y-49000
X71000Y-43000
X71000Y-49000
X74000Y-37500
X74000Y-40500
T3
X37000Y-55000
X38000Y-55000
X39000Y-55000
X40000Y-55000
X41000Y-55000
X42000Y-55000
X43000Y-55000
X44000Y-55000
X45000Y-55000
X46000Y-55000
X47000Y-55000
X48000Y-55000
X48250Y-36500
X49000Y-55000
X49250Y-36500
X50000Y-55000
X51000Y-55000
X52000Y-55000
X52250Y-36500
X53000Y-55000
X53250Y-36500
X54000Y-55000
X55000Y-55000
X56000Y-55000
X56250Y-36500
X57000Y-55000
X57250Y-36500
X58000Y-55000
X59000Y-55000
X60000Y-55000
X61000Y-36500
X61000Y-55000
X62000Y-36500
X62000Y-55000
X63000Y-55000
X64000Y-55000
X65000Y-36500
X65000Y-55000
X66000Y-36500
X66000Y-55000
X67000Y-55000
X68000Y-55000
X69000Y-55000
X70000Y-55000
X71000Y-55000
X72000Y-55000
X73000Y-55000
X74000Y-55000
X75000Y-55000
T0
M30
