G04 #@! TF.FileFunction,Copper,L1,Top,Signal*
%FSLAX46Y46*%
G04 Gerber Fmt 4.6, Leading zero omitted, Abs format (unit mm)*
G04 Created by KiCad (PCBNEW 4.0.6) date 06/14/17 15:23:26*
%MOMM*%
%LPD*%
G01*
G04 APERTURE LIST*
%ADD10C,0.100000*%
%ADD11R,1.700000X1.700000*%
%ADD12O,1.700000X1.700000*%
%ADD13C,1.600000*%
%ADD14O,1.600000X1.600000*%
%ADD15R,1.600000X1.600000*%
%ADD16C,0.600000*%
%ADD17C,0.250000*%
G04 APERTURE END LIST*
D10*
D11*
X190500000Y-139700000D03*
D12*
X187960000Y-139700000D03*
X185420000Y-139700000D03*
X182880000Y-139700000D03*
X180340000Y-139700000D03*
X177800000Y-139700000D03*
X175260000Y-139700000D03*
X172720000Y-139700000D03*
X170180000Y-139700000D03*
X167640000Y-139700000D03*
X165100000Y-139700000D03*
X162560000Y-139700000D03*
X160020000Y-139700000D03*
X157480000Y-139700000D03*
X154940000Y-139700000D03*
X152400000Y-139700000D03*
X149860000Y-139700000D03*
X147320000Y-139700000D03*
X144780000Y-139700000D03*
X142240000Y-139700000D03*
X139700000Y-139700000D03*
X137160000Y-139700000D03*
X134620000Y-139700000D03*
X132080000Y-139700000D03*
X129540000Y-139700000D03*
X127000000Y-139700000D03*
X124460000Y-139700000D03*
X121920000Y-139700000D03*
X119380000Y-139700000D03*
X116840000Y-139700000D03*
X114300000Y-139700000D03*
X111760000Y-139700000D03*
X109220000Y-139700000D03*
X106680000Y-139700000D03*
X104140000Y-139700000D03*
X101600000Y-139700000D03*
X99060000Y-139700000D03*
X96520000Y-139700000D03*
X93980000Y-139700000D03*
D11*
X132715000Y-92710000D03*
D12*
X135255000Y-92710000D03*
D11*
X122555000Y-92710000D03*
D12*
X125095000Y-92710000D03*
D13*
X106680000Y-95250000D03*
D14*
X96520000Y-95250000D03*
D13*
X106680000Y-100330000D03*
D14*
X96520000Y-100330000D03*
D13*
X106680000Y-105410000D03*
D14*
X96520000Y-105410000D03*
D15*
X132080000Y-124460000D03*
D14*
X180340000Y-109220000D03*
X134620000Y-124460000D03*
X177800000Y-109220000D03*
X137160000Y-124460000D03*
X175260000Y-109220000D03*
X139700000Y-124460000D03*
X172720000Y-109220000D03*
X142240000Y-124460000D03*
X170180000Y-109220000D03*
X144780000Y-124460000D03*
X167640000Y-109220000D03*
X147320000Y-124460000D03*
X165100000Y-109220000D03*
X149860000Y-124460000D03*
X162560000Y-109220000D03*
X152400000Y-124460000D03*
X160020000Y-109220000D03*
X154940000Y-124460000D03*
X157480000Y-109220000D03*
X157480000Y-124460000D03*
X154940000Y-109220000D03*
X160020000Y-124460000D03*
X152400000Y-109220000D03*
X162560000Y-124460000D03*
X149860000Y-109220000D03*
X165100000Y-124460000D03*
X147320000Y-109220000D03*
X167640000Y-124460000D03*
X144780000Y-109220000D03*
X170180000Y-124460000D03*
X142240000Y-109220000D03*
X172720000Y-124460000D03*
X139700000Y-109220000D03*
X175260000Y-124460000D03*
X137160000Y-109220000D03*
X177800000Y-124460000D03*
X134620000Y-109220000D03*
X180340000Y-124460000D03*
X132080000Y-109220000D03*
D13*
X128270000Y-119380000D03*
X128270000Y-114380000D03*
D11*
X165100000Y-92710000D03*
D12*
X167640000Y-92710000D03*
D11*
X154940000Y-92710000D03*
D12*
X157480000Y-92710000D03*
D15*
X172720000Y-102870000D03*
D13*
X172720000Y-95250000D03*
X187960000Y-95250000D03*
X187960000Y-102870000D03*
D11*
X142875000Y-92710000D03*
D12*
X145415000Y-92710000D03*
D16*
X111125000Y-119380000D03*
X165100000Y-96520000D03*
X165100000Y-99060000D03*
X140970000Y-127635000D03*
X140970000Y-133350000D03*
X140970000Y-118745000D03*
X140970000Y-117475000D03*
X147320000Y-100965000D03*
X133985000Y-107315000D03*
X135255000Y-99060000D03*
X135890000Y-100965000D03*
X139700000Y-112395000D03*
X139700000Y-117475000D03*
X139700000Y-118745000D03*
X125095000Y-99060000D03*
X111125000Y-111125000D03*
X125730000Y-111125000D03*
X131445000Y-111125000D03*
X129540000Y-135255000D03*
X111125000Y-113030000D03*
X125095000Y-113030000D03*
X131445000Y-113030000D03*
X128905000Y-136525000D03*
X145415000Y-100965000D03*
X137795000Y-117475000D03*
X136525000Y-118745000D03*
X138430000Y-110490000D03*
D17*
X190500000Y-129540000D02*
X190500000Y-105410000D01*
X190500000Y-139700000D02*
X190500000Y-129540000D01*
X170180000Y-105410000D02*
X170180000Y-109220000D01*
X170815000Y-104775000D02*
X170180000Y-105410000D01*
X189865000Y-104775000D02*
X170815000Y-104775000D01*
X190500000Y-105410000D02*
X189865000Y-104775000D01*
X187960000Y-139700000D02*
X187960000Y-106680000D01*
X172720000Y-106045000D02*
X172720000Y-109220000D01*
X173355000Y-105410000D02*
X172720000Y-106045000D01*
X187325000Y-105410000D02*
X173355000Y-105410000D01*
X187960000Y-106045000D02*
X187325000Y-105410000D01*
X187960000Y-106680000D02*
X187960000Y-106045000D01*
X185420000Y-133350000D02*
X185420000Y-106680000D01*
X185420000Y-139700000D02*
X185420000Y-133350000D01*
X175260000Y-106680000D02*
X175260000Y-109220000D01*
X175895000Y-106045000D02*
X175260000Y-106680000D01*
X184785000Y-106045000D02*
X175895000Y-106045000D01*
X185420000Y-106680000D02*
X184785000Y-106045000D01*
X178435000Y-106680000D02*
X182245000Y-106680000D01*
X182880000Y-107315000D02*
X182245000Y-106680000D01*
X178435000Y-106680000D02*
X177800000Y-107315000D01*
X177800000Y-109220000D02*
X177800000Y-107315000D01*
X182880000Y-134620000D02*
X182880000Y-112395000D01*
X182880000Y-134620000D02*
X182880000Y-139700000D01*
X182880000Y-112395000D02*
X182880000Y-107315000D01*
X180340000Y-124460000D02*
X180340000Y-128270000D01*
X180340000Y-128270000D02*
X180340000Y-139700000D01*
X177800000Y-124460000D02*
X177800000Y-128270000D01*
X177800000Y-128270000D02*
X177800000Y-139700000D01*
X175260000Y-124460000D02*
X175260000Y-128270000D01*
X175260000Y-128270000D02*
X175260000Y-139700000D01*
X172720000Y-124460000D02*
X172720000Y-128270000D01*
X172720000Y-128270000D02*
X172720000Y-139700000D01*
X170180000Y-124460000D02*
X170180000Y-128270000D01*
X170180000Y-128270000D02*
X170180000Y-139700000D01*
X167640000Y-124460000D02*
X167640000Y-128270000D01*
X167640000Y-128270000D02*
X167640000Y-139700000D01*
X165100000Y-124460000D02*
X165100000Y-128270000D01*
X165100000Y-128270000D02*
X165100000Y-139700000D01*
X162560000Y-124460000D02*
X162560000Y-128270000D01*
X162560000Y-128270000D02*
X162560000Y-139700000D01*
X160020000Y-124460000D02*
X160020000Y-128270000D01*
X160020000Y-128270000D02*
X160020000Y-139700000D01*
X157480000Y-124460000D02*
X157480000Y-128270000D01*
X157480000Y-128270000D02*
X157480000Y-139700000D01*
X154940000Y-124460000D02*
X154940000Y-128270000D01*
X154940000Y-128270000D02*
X154940000Y-139700000D01*
X152400000Y-124460000D02*
X152400000Y-128270000D01*
X152400000Y-128270000D02*
X152400000Y-139700000D01*
X140970000Y-128270000D02*
X146050000Y-128270000D01*
X128270000Y-119380000D02*
X128270000Y-127635000D01*
X147320000Y-134620000D02*
X147320000Y-137160000D01*
X128905000Y-128270000D02*
X140970000Y-128270000D01*
X128270000Y-127635000D02*
X128905000Y-128270000D01*
X147320000Y-137160000D02*
X147320000Y-139700000D01*
X147320000Y-129540000D02*
X147320000Y-134620000D01*
X146050000Y-128270000D02*
X147320000Y-129540000D01*
X96520000Y-105410000D02*
X96520000Y-117475000D01*
X98425000Y-119380000D02*
X111125000Y-119380000D01*
X96520000Y-117475000D02*
X98425000Y-119380000D01*
X149225000Y-118110000D02*
X168275000Y-118110000D01*
X165100000Y-96520000D02*
X165100000Y-92710000D01*
X165735000Y-99695000D02*
X165100000Y-99060000D01*
X167005000Y-99695000D02*
X165735000Y-99695000D01*
X168910000Y-101600000D02*
X167005000Y-99695000D01*
X168910000Y-117475000D02*
X168910000Y-101600000D01*
X168275000Y-118110000D02*
X168910000Y-117475000D01*
X135255000Y-118110000D02*
X137160000Y-116205000D01*
X137160000Y-118110000D02*
X149225000Y-118110000D01*
X149860000Y-118745000D02*
X149860000Y-121285000D01*
X149225000Y-118110000D02*
X149860000Y-118745000D01*
X128270000Y-119380000D02*
X129540000Y-118110000D01*
X129540000Y-118110000D02*
X135255000Y-118110000D01*
X135255000Y-118110000D02*
X137160000Y-118110000D01*
X137160000Y-109220000D02*
X137160000Y-116205000D01*
X149860000Y-121285000D02*
X149860000Y-124460000D01*
X96520000Y-105410000D02*
X96520000Y-100330000D01*
X96520000Y-95250000D02*
X96520000Y-100330000D01*
X144780000Y-134620000D02*
X144780000Y-130810000D01*
X143510000Y-129540000D02*
X139700000Y-129540000D01*
X144780000Y-130810000D02*
X143510000Y-129540000D01*
X134620000Y-109220000D02*
X134620000Y-115570000D01*
X139700000Y-129540000D02*
X129540000Y-129540000D01*
X129540000Y-129540000D02*
X128270000Y-129540000D01*
X128270000Y-129540000D02*
X127000000Y-128270000D01*
X144780000Y-134620000D02*
X144780000Y-139700000D01*
X127000000Y-117475000D02*
X127000000Y-128270000D01*
X127635000Y-116840000D02*
X127000000Y-117475000D01*
X133350000Y-116840000D02*
X127635000Y-116840000D01*
X134620000Y-115570000D02*
X133350000Y-116840000D01*
X142240000Y-133350000D02*
X142240000Y-131445000D01*
X140970000Y-130175000D02*
X139065000Y-130175000D01*
X142240000Y-131445000D02*
X140970000Y-130175000D01*
X142240000Y-134620000D02*
X142240000Y-133350000D01*
X142240000Y-139700000D02*
X142240000Y-134620000D01*
X132080000Y-114935000D02*
X132080000Y-109220000D01*
X139065000Y-130175000D02*
X128270000Y-130175000D01*
X128270000Y-130175000D02*
X127635000Y-130175000D01*
X127635000Y-130175000D02*
X126365000Y-128905000D01*
X126365000Y-128905000D02*
X125730000Y-128270000D01*
X125730000Y-128270000D02*
X125730000Y-116840000D01*
X125730000Y-116840000D02*
X127000000Y-115570000D01*
X127000000Y-115570000D02*
X131445000Y-115570000D01*
X131445000Y-115570000D02*
X132080000Y-114935000D01*
X140970000Y-120015000D02*
X140970000Y-118745000D01*
X140970000Y-120015000D02*
X140970000Y-127635000D01*
X140970000Y-133350000D02*
X140970000Y-137795000D01*
X140970000Y-137795000D02*
X139700000Y-139065000D01*
X140970000Y-117475000D02*
X140970000Y-110490000D01*
X140970000Y-110490000D02*
X139700000Y-109220000D01*
X139700000Y-139065000D02*
X139700000Y-139700000D01*
X147320000Y-100965000D02*
X153035000Y-100965000D01*
X153035000Y-100965000D02*
X154305000Y-100965000D01*
X154305000Y-100965000D02*
X154940000Y-100330000D01*
X154940000Y-100330000D02*
X154940000Y-92710000D01*
X137160000Y-136525000D02*
X137160000Y-132080000D01*
X137160000Y-139700000D02*
X137160000Y-136525000D01*
X127000000Y-130810000D02*
X124460000Y-128270000D01*
X135890000Y-130810000D02*
X127000000Y-130810000D01*
X127000000Y-107950000D02*
X127635000Y-107315000D01*
X124460000Y-110490000D02*
X127000000Y-107950000D01*
X124460000Y-128270000D02*
X124460000Y-118110000D01*
X124460000Y-118110000D02*
X124460000Y-110490000D01*
X127635000Y-107315000D02*
X133985000Y-107315000D01*
X135890000Y-130810000D02*
X137160000Y-132080000D01*
X135255000Y-99060000D02*
X135255000Y-92710000D01*
X149860000Y-106680000D02*
X149225000Y-106045000D01*
X149225000Y-106045000D02*
X126365000Y-106045000D01*
X126365000Y-106045000D02*
X124460000Y-107950000D01*
X124460000Y-139700000D02*
X124460000Y-134620000D01*
X120650000Y-111760000D02*
X120650000Y-129540000D01*
X120650000Y-129540000D02*
X124460000Y-133350000D01*
X124460000Y-133350000D02*
X124460000Y-134620000D01*
X124460000Y-107950000D02*
X120650000Y-111760000D01*
X149860000Y-106680000D02*
X149860000Y-109220000D01*
X152400000Y-106045000D02*
X151765000Y-105410000D01*
X151765000Y-105410000D02*
X125730000Y-105410000D01*
X125730000Y-105410000D02*
X123190000Y-107950000D01*
X121920000Y-139700000D02*
X121920000Y-133350000D01*
X119380000Y-111760000D02*
X119380000Y-129540000D01*
X119380000Y-129540000D02*
X121920000Y-132080000D01*
X121920000Y-132080000D02*
X121920000Y-133350000D01*
X123190000Y-107950000D02*
X119380000Y-111760000D01*
X152400000Y-106045000D02*
X152400000Y-109220000D01*
X154940000Y-105410000D02*
X154305000Y-104775000D01*
X154305000Y-104775000D02*
X125095000Y-104775000D01*
X154940000Y-106680000D02*
X154940000Y-105410000D01*
X154940000Y-109220000D02*
X154940000Y-106680000D01*
X119380000Y-132080000D02*
X119380000Y-130810000D01*
X119380000Y-132080000D02*
X119380000Y-139700000D01*
X121920000Y-107950000D02*
X125095000Y-104775000D01*
X119380000Y-130810000D02*
X118110000Y-129540000D01*
X118110000Y-129540000D02*
X118110000Y-111760000D01*
X118110000Y-111760000D02*
X121920000Y-107950000D01*
X157480000Y-104775000D02*
X156845000Y-104140000D01*
X156845000Y-104140000D02*
X124460000Y-104140000D01*
X124460000Y-104140000D02*
X120650000Y-107950000D01*
X116840000Y-139700000D02*
X116840000Y-133350000D01*
X116840000Y-111760000D02*
X116840000Y-133350000D01*
X120650000Y-107950000D02*
X116840000Y-111760000D01*
X157480000Y-104775000D02*
X157480000Y-109220000D01*
X159385000Y-103505000D02*
X123825000Y-103505000D01*
X159385000Y-103505000D02*
X160020000Y-104140000D01*
X160020000Y-104140000D02*
X160020000Y-106045000D01*
X123825000Y-103505000D02*
X119380000Y-107950000D01*
X115570000Y-133350000D02*
X114300000Y-134620000D01*
X114300000Y-139700000D02*
X114300000Y-134620000D01*
X115570000Y-111760000D02*
X115570000Y-133350000D01*
X119380000Y-107950000D02*
X115570000Y-111760000D01*
X160020000Y-106045000D02*
X160020000Y-109220000D01*
X161925000Y-102870000D02*
X123190000Y-102870000D01*
X162560000Y-107315000D02*
X162560000Y-103505000D01*
X162560000Y-109220000D02*
X162560000Y-107315000D01*
X118110000Y-107950000D02*
X114300000Y-111760000D01*
X114300000Y-111760000D02*
X114300000Y-133350000D01*
X111760000Y-135890000D02*
X111760000Y-139700000D01*
X114300000Y-133350000D02*
X111760000Y-135890000D01*
X123190000Y-102870000D02*
X118110000Y-107950000D01*
X162560000Y-103505000D02*
X161925000Y-102870000D01*
X159385000Y-102235000D02*
X122555000Y-102235000D01*
X165100000Y-107950000D02*
X165100000Y-102870000D01*
X165100000Y-109220000D02*
X165100000Y-107950000D01*
X116840000Y-107950000D02*
X113030000Y-111760000D01*
X113030000Y-111760000D02*
X113030000Y-133350000D01*
X109220000Y-137160000D02*
X109220000Y-139700000D01*
X113030000Y-133350000D02*
X109220000Y-137160000D01*
X122555000Y-102235000D02*
X116840000Y-107950000D01*
X164465000Y-102235000D02*
X159385000Y-102235000D01*
X165100000Y-102870000D02*
X164465000Y-102235000D01*
X160655000Y-101600000D02*
X121920000Y-101600000D01*
X167640000Y-109220000D02*
X167640000Y-102235000D01*
X115570000Y-107950000D02*
X111760000Y-111760000D01*
X111760000Y-111760000D02*
X111760000Y-133350000D01*
X106680000Y-138430000D02*
X106680000Y-139700000D01*
X111760000Y-133350000D02*
X106680000Y-138430000D01*
X121920000Y-101600000D02*
X115570000Y-107950000D01*
X167005000Y-101600000D02*
X160655000Y-101600000D01*
X167640000Y-102235000D02*
X167005000Y-101600000D01*
X167640000Y-108585000D02*
X167640000Y-109220000D01*
X122555000Y-92710000D02*
X114300000Y-92710000D01*
X97790000Y-137160000D02*
X99060000Y-138430000D01*
X99060000Y-138430000D02*
X99060000Y-139700000D01*
X95250000Y-92710000D02*
X93980000Y-93980000D01*
X93980000Y-93980000D02*
X93980000Y-133350000D01*
X114300000Y-92710000D02*
X95250000Y-92710000D01*
X94615000Y-133985000D02*
X93980000Y-133350000D01*
X97790000Y-137160000D02*
X94615000Y-133985000D01*
X106680000Y-100330000D02*
X135255000Y-100330000D01*
X133350000Y-98425000D02*
X132715000Y-97790000D01*
X135890000Y-100965000D02*
X135255000Y-100330000D01*
X135255000Y-100330000D02*
X133350000Y-98425000D01*
X139700000Y-124460000D02*
X139700000Y-118745000D01*
X139700000Y-117475000D02*
X139700000Y-112395000D01*
X132715000Y-97790000D02*
X132715000Y-92710000D01*
X125095000Y-99060000D02*
X125095000Y-92710000D01*
X106680000Y-109855000D02*
X106680000Y-105410000D01*
X107950000Y-111125000D02*
X106680000Y-109855000D01*
X111125000Y-111125000D02*
X107950000Y-111125000D01*
X131445000Y-111125000D02*
X125730000Y-111125000D01*
X157480000Y-92710000D02*
X157480000Y-93980000D01*
X186690000Y-97790000D02*
X187960000Y-96520000D01*
X187960000Y-96520000D02*
X187960000Y-95250000D01*
X161290000Y-97790000D02*
X186690000Y-97790000D01*
X157480000Y-93980000D02*
X161290000Y-97790000D01*
X132080000Y-139700000D02*
X132080000Y-135255000D01*
X123190000Y-129540000D02*
X123190000Y-110490000D01*
X127635000Y-133985000D02*
X123190000Y-129540000D01*
X130810000Y-133985000D02*
X127635000Y-133985000D01*
X132080000Y-135255000D02*
X130810000Y-133985000D01*
X140970000Y-106680000D02*
X146685000Y-106680000D01*
X125730000Y-107950000D02*
X123190000Y-110490000D01*
X133350000Y-106680000D02*
X127000000Y-106680000D01*
X140970000Y-106680000D02*
X133350000Y-106680000D01*
X127000000Y-106680000D02*
X125730000Y-107950000D01*
X147320000Y-107315000D02*
X147320000Y-109220000D01*
X146685000Y-106680000D02*
X147320000Y-107315000D01*
X129540000Y-139700000D02*
X129540000Y-135255000D01*
X111125000Y-113030000D02*
X104140000Y-113030000D01*
X104140000Y-113030000D02*
X103505000Y-112395000D01*
X103505000Y-112395000D02*
X103505000Y-95885000D01*
X103505000Y-95885000D02*
X104140000Y-95250000D01*
X106680000Y-95250000D02*
X104140000Y-95250000D01*
X131445000Y-113030000D02*
X125095000Y-113030000D01*
X127000000Y-138430000D02*
X127000000Y-139700000D01*
X128905000Y-136525000D02*
X127000000Y-138430000D01*
X145415000Y-92710000D02*
X145415000Y-100965000D01*
X132080000Y-123190000D02*
X136525000Y-118745000D01*
X137795000Y-117475000D02*
X138430000Y-116840000D01*
X138430000Y-116840000D02*
X138430000Y-110490000D01*
X132080000Y-123190000D02*
X132080000Y-124460000D01*
X167640000Y-92710000D02*
X167640000Y-94615000D01*
X168275000Y-95250000D02*
X172720000Y-95250000D01*
X167640000Y-94615000D02*
X168275000Y-95250000D01*
M02*
