M48
;DRILL file {KiCad 4.0.6} date 05/04/17 15:53:27
;FORMAT={2:4/ absolute / inch / suppress trailing zeros}
FMAT,2
INCH,LZ
T1C0.016
T2C0.031
T3C0.039
%
G90
G05
M72
T1
X0595Y-0485
X063Y-0485
T2
X0525Y-04
X0525Y-041496
X054Y-045
X055969Y-045
X056Y-039
X056Y-040969
X059Y-0395
X059Y-0405
X059Y-0415
X059Y-0425
X062Y-0395
X062Y-0405
X062Y-0415
X062Y-0425
X068Y-042
X068Y-046
X073Y-0425
X073Y-046
X074969Y-046
X077Y-0425
T3
X0395Y-05
X0405Y-05
X0415Y-05
X0425Y-05
X0435Y-05
X0445Y-05
X0455Y-05
X0465Y-05
X0475Y-05
X0485Y-05
X0495Y-05
X0505Y-05
X0515Y-05
X0525Y-05
X0535Y-05
X0545Y-05
X0555Y-05
X0565Y-05
X0575Y-05
X0585Y-05
X0595Y-05
X0605Y-05
X0615Y-05
X062Y-045
X062Y-046
X0625Y-05
X0635Y-05
X0645Y-038
X0645Y-05
X0655Y-038
X0655Y-05
X0665Y-038
X0665Y-05
X0675Y-038
X0675Y-05
X0685Y-038
X0685Y-05
X0695Y-038
X0695Y-05
X0705Y-05
X0715Y-05
X0725Y-05
X0735Y-05
X0745Y-05
X0755Y-05
X0765Y-05
X0775Y-05
T0
M30
