G04 #@! TF.FileFunction,Legend,Bot*
%FSLAX46Y46*%
G04 Gerber Fmt 4.6, Leading zero omitted, Abs format (unit mm)*
G04 Created by KiCad (PCBNEW 4.0.7) date 02/13/19 15:00:39*
%MOMM*%
%LPD*%
G01*
G04 APERTURE LIST*
%ADD10C,0.100000*%
%ADD11C,0.150000*%
%ADD12C,0.200000*%
%ADD13C,0.300000*%
G04 APERTURE END LIST*
D10*
D11*
X150042619Y-140945952D02*
X151042619Y-140945952D01*
X151042619Y-140564999D01*
X150995000Y-140469761D01*
X150947381Y-140422142D01*
X150852143Y-140374523D01*
X150709286Y-140374523D01*
X150614048Y-140422142D01*
X150566429Y-140469761D01*
X150518810Y-140564999D01*
X150518810Y-140945952D01*
X150042619Y-139945952D02*
X151042619Y-139945952D01*
X150042619Y-139469762D02*
X151042619Y-139469762D01*
X150042619Y-138898333D01*
X151042619Y-138898333D01*
X150042619Y-137136428D02*
X150042619Y-137707857D01*
X150042619Y-137422143D02*
X151042619Y-137422143D01*
X150899762Y-137517381D01*
X150804524Y-137612619D01*
X150756905Y-137707857D01*
D12*
X149225000Y-135890000D02*
X151765000Y-135890000D01*
X149225000Y-144145000D02*
X149225000Y-135890000D01*
D13*
X95594284Y-95063571D02*
X94665713Y-95063571D01*
X95165713Y-95635000D01*
X94951427Y-95635000D01*
X94808570Y-95706429D01*
X94737141Y-95777857D01*
X94665713Y-95920714D01*
X94665713Y-96277857D01*
X94737141Y-96420714D01*
X94808570Y-96492143D01*
X94951427Y-96563571D01*
X95379999Y-96563571D01*
X95522856Y-96492143D01*
X95594284Y-96420714D01*
X94022856Y-96420714D02*
X93951428Y-96492143D01*
X94022856Y-96563571D01*
X94094285Y-96492143D01*
X94022856Y-96420714D01*
X94022856Y-96563571D01*
X92594284Y-95063571D02*
X93308570Y-95063571D01*
X93379999Y-95777857D01*
X93308570Y-95706429D01*
X93165713Y-95635000D01*
X92808570Y-95635000D01*
X92665713Y-95706429D01*
X92594284Y-95777857D01*
X92522856Y-95920714D01*
X92522856Y-96277857D01*
X92594284Y-96420714D01*
X92665713Y-96492143D01*
X92808570Y-96563571D01*
X93165713Y-96563571D01*
X93308570Y-96492143D01*
X93379999Y-96420714D01*
X92022856Y-95063571D02*
X91022856Y-95063571D01*
X91665713Y-96563571D01*
X90380000Y-96563571D02*
X90094285Y-96563571D01*
X89951428Y-96492143D01*
X89880000Y-96420714D01*
X89737142Y-96206429D01*
X89665714Y-95920714D01*
X89665714Y-95349286D01*
X89737142Y-95206429D01*
X89808571Y-95135000D01*
X89951428Y-95063571D01*
X90237142Y-95063571D01*
X90380000Y-95135000D01*
X90451428Y-95206429D01*
X90522857Y-95349286D01*
X90522857Y-95706429D01*
X90451428Y-95849286D01*
X90380000Y-95920714D01*
X90237142Y-95992143D01*
X89951428Y-95992143D01*
X89808571Y-95920714D01*
X89737142Y-95849286D01*
X89665714Y-95706429D01*
X88308571Y-95063571D02*
X89022857Y-95063571D01*
X89094286Y-95777857D01*
X89022857Y-95706429D01*
X88880000Y-95635000D01*
X88522857Y-95635000D01*
X88380000Y-95706429D01*
X88308571Y-95777857D01*
X88237143Y-95920714D01*
X88237143Y-96277857D01*
X88308571Y-96420714D01*
X88380000Y-96492143D01*
X88522857Y-96563571D01*
X88880000Y-96563571D01*
X89022857Y-96492143D01*
X89094286Y-96420714D01*
X86951429Y-95563571D02*
X86951429Y-96563571D01*
X87308572Y-94992143D02*
X87665715Y-96063571D01*
X86737143Y-96063571D01*
X85451429Y-95063571D02*
X86165715Y-95063571D01*
X86237144Y-95777857D01*
X86165715Y-95706429D01*
X86022858Y-95635000D01*
X85665715Y-95635000D01*
X85522858Y-95706429D01*
X85451429Y-95777857D01*
X85380001Y-95920714D01*
X85380001Y-96277857D01*
X85451429Y-96420714D01*
X85522858Y-96492143D01*
X85665715Y-96563571D01*
X86022858Y-96563571D01*
X86165715Y-96492143D01*
X86237144Y-96420714D01*
X83594287Y-96563571D02*
X83594287Y-95063571D01*
X83094287Y-96135000D01*
X82594287Y-95063571D01*
X82594287Y-96563571D01*
X81880001Y-96563571D02*
X81880001Y-95063571D01*
X81880001Y-95777857D02*
X81022858Y-95777857D01*
X81022858Y-96563571D02*
X81022858Y-95063571D01*
X80451429Y-95563571D02*
X79665715Y-95563571D01*
X80451429Y-96563571D01*
X79665715Y-96563571D01*
X96094285Y-88943571D02*
X96094285Y-87443571D01*
X95237142Y-88943571D01*
X95237142Y-87443571D01*
X94737142Y-87443571D02*
X93879999Y-87443571D01*
X94308570Y-88943571D02*
X94308570Y-87443571D01*
X93451428Y-88872143D02*
X93237142Y-88943571D01*
X92879999Y-88943571D01*
X92737142Y-88872143D01*
X92665713Y-88800714D01*
X92594285Y-88657857D01*
X92594285Y-88515000D01*
X92665713Y-88372143D01*
X92737142Y-88300714D01*
X92879999Y-88229286D01*
X93165713Y-88157857D01*
X93308571Y-88086429D01*
X93379999Y-88015000D01*
X93451428Y-87872143D01*
X93451428Y-87729286D01*
X93379999Y-87586429D01*
X93308571Y-87515000D01*
X93165713Y-87443571D01*
X92808571Y-87443571D01*
X92594285Y-87515000D01*
X91094285Y-88800714D02*
X91165714Y-88872143D01*
X91380000Y-88943571D01*
X91522857Y-88943571D01*
X91737142Y-88872143D01*
X91880000Y-88729286D01*
X91951428Y-88586429D01*
X92022857Y-88300714D01*
X92022857Y-88086429D01*
X91951428Y-87800714D01*
X91880000Y-87657857D01*
X91737142Y-87515000D01*
X91522857Y-87443571D01*
X91380000Y-87443571D01*
X91165714Y-87515000D01*
X91094285Y-87586429D01*
X89022857Y-87443571D02*
X88737143Y-87443571D01*
X88594285Y-87515000D01*
X88451428Y-87657857D01*
X88380000Y-87943571D01*
X88380000Y-88443571D01*
X88451428Y-88729286D01*
X88594285Y-88872143D01*
X88737143Y-88943571D01*
X89022857Y-88943571D01*
X89165714Y-88872143D01*
X89308571Y-88729286D01*
X89380000Y-88443571D01*
X89380000Y-87943571D01*
X89308571Y-87657857D01*
X89165714Y-87515000D01*
X89022857Y-87443571D01*
X87808571Y-88872143D02*
X87665714Y-88943571D01*
X87379999Y-88943571D01*
X87237142Y-88872143D01*
X87165714Y-88729286D01*
X87165714Y-88657857D01*
X87237142Y-88515000D01*
X87379999Y-88443571D01*
X87594285Y-88443571D01*
X87737142Y-88372143D01*
X87808571Y-88229286D01*
X87808571Y-88157857D01*
X87737142Y-88015000D01*
X87594285Y-87943571D01*
X87379999Y-87943571D01*
X87237142Y-88015000D01*
X85879999Y-88872143D02*
X86022856Y-88943571D01*
X86308570Y-88943571D01*
X86451428Y-88872143D01*
X86522856Y-88800714D01*
X86594285Y-88657857D01*
X86594285Y-88229286D01*
X86522856Y-88086429D01*
X86451428Y-88015000D01*
X86308570Y-87943571D01*
X86022856Y-87943571D01*
X85879999Y-88015000D01*
X85237142Y-88943571D02*
X85237142Y-87943571D01*
X85237142Y-87443571D02*
X85308571Y-87515000D01*
X85237142Y-87586429D01*
X85165714Y-87515000D01*
X85237142Y-87443571D01*
X85237142Y-87586429D01*
X84308570Y-88943571D02*
X84451428Y-88872143D01*
X84522856Y-88729286D01*
X84522856Y-87443571D01*
X83522856Y-88943571D02*
X83665714Y-88872143D01*
X83737142Y-88729286D01*
X83737142Y-87443571D01*
X82308571Y-88943571D02*
X82308571Y-88157857D01*
X82380000Y-88015000D01*
X82522857Y-87943571D01*
X82808571Y-87943571D01*
X82951428Y-88015000D01*
X82308571Y-88872143D02*
X82451428Y-88943571D01*
X82808571Y-88943571D01*
X82951428Y-88872143D01*
X83022857Y-88729286D01*
X83022857Y-88586429D01*
X82951428Y-88443571D01*
X82808571Y-88372143D01*
X82451428Y-88372143D01*
X82308571Y-88300714D01*
X81808571Y-87943571D02*
X81237142Y-87943571D01*
X81594285Y-87443571D02*
X81594285Y-88729286D01*
X81522857Y-88872143D01*
X81379999Y-88943571D01*
X81237142Y-88943571D01*
X80522856Y-88943571D02*
X80665714Y-88872143D01*
X80737142Y-88800714D01*
X80808571Y-88657857D01*
X80808571Y-88229286D01*
X80737142Y-88086429D01*
X80665714Y-88015000D01*
X80522856Y-87943571D01*
X80308571Y-87943571D01*
X80165714Y-88015000D01*
X80094285Y-88086429D01*
X80022856Y-88229286D01*
X80022856Y-88657857D01*
X80094285Y-88800714D01*
X80165714Y-88872143D01*
X80308571Y-88943571D01*
X80522856Y-88943571D01*
X79379999Y-88943571D02*
X79379999Y-87943571D01*
X79379999Y-88229286D02*
X79308571Y-88086429D01*
X79237142Y-88015000D01*
X79094285Y-87943571D01*
X78951428Y-87943571D01*
D12*
X98425000Y-100965000D02*
X98425000Y-83185000D01*
X76835000Y-100965000D02*
X98425000Y-100965000D01*
X76835000Y-83185000D02*
X76835000Y-100965000D01*
X98425000Y-83185000D02*
X76835000Y-83185000D01*
X139700000Y-86360000D02*
X139700000Y-83185000D01*
X140970000Y-86360000D02*
X139700000Y-86360000D01*
X140970000Y-90170000D02*
X140970000Y-86360000D01*
X139700000Y-90170000D02*
X140970000Y-90170000D01*
X139700000Y-93345000D02*
X139700000Y-90170000D01*
X139700000Y-99060000D02*
X139700000Y-95885000D01*
X140970000Y-99060000D02*
X139700000Y-99060000D01*
X140970000Y-102870000D02*
X140970000Y-99060000D01*
X139700000Y-102870000D02*
X140970000Y-102870000D01*
X139700000Y-106045000D02*
X139700000Y-102870000D01*
X139700000Y-106045000D02*
X151765000Y-106045000D01*
X139700000Y-95885000D02*
X151765000Y-95885000D01*
X139700000Y-93345000D02*
X151765000Y-93345000D01*
X139700000Y-83185000D02*
X151765000Y-83185000D01*
D13*
X131189285Y-86895714D02*
X131260714Y-86967143D01*
X131475000Y-87038571D01*
X131617857Y-87038571D01*
X131832142Y-86967143D01*
X131975000Y-86824286D01*
X132046428Y-86681429D01*
X132117857Y-86395714D01*
X132117857Y-86181429D01*
X132046428Y-85895714D01*
X131975000Y-85752857D01*
X131832142Y-85610000D01*
X131617857Y-85538571D01*
X131475000Y-85538571D01*
X131260714Y-85610000D01*
X131189285Y-85681429D01*
X130332142Y-87038571D02*
X130475000Y-86967143D01*
X130546428Y-86895714D01*
X130617857Y-86752857D01*
X130617857Y-86324286D01*
X130546428Y-86181429D01*
X130475000Y-86110000D01*
X130332142Y-86038571D01*
X130117857Y-86038571D01*
X129975000Y-86110000D01*
X129903571Y-86181429D01*
X129832142Y-86324286D01*
X129832142Y-86752857D01*
X129903571Y-86895714D01*
X129975000Y-86967143D01*
X130117857Y-87038571D01*
X130332142Y-87038571D01*
X129189285Y-87038571D02*
X129189285Y-86038571D01*
X129189285Y-86181429D02*
X129117857Y-86110000D01*
X128974999Y-86038571D01*
X128760714Y-86038571D01*
X128617857Y-86110000D01*
X128546428Y-86252857D01*
X128546428Y-87038571D01*
X128546428Y-86252857D02*
X128474999Y-86110000D01*
X128332142Y-86038571D01*
X128117857Y-86038571D01*
X127974999Y-86110000D01*
X127903571Y-86252857D01*
X127903571Y-87038571D01*
X127189285Y-86038571D02*
X127189285Y-87538571D01*
X127189285Y-86110000D02*
X127046428Y-86038571D01*
X126760714Y-86038571D01*
X126617857Y-86110000D01*
X126546428Y-86181429D01*
X126474999Y-86324286D01*
X126474999Y-86752857D01*
X126546428Y-86895714D01*
X126617857Y-86967143D01*
X126760714Y-87038571D01*
X127046428Y-87038571D01*
X127189285Y-86967143D01*
X125617856Y-87038571D02*
X125760714Y-86967143D01*
X125832142Y-86895714D01*
X125903571Y-86752857D01*
X125903571Y-86324286D01*
X125832142Y-86181429D01*
X125760714Y-86110000D01*
X125617856Y-86038571D01*
X125403571Y-86038571D01*
X125260714Y-86110000D01*
X125189285Y-86181429D01*
X125117856Y-86324286D01*
X125117856Y-86752857D01*
X125189285Y-86895714D01*
X125260714Y-86967143D01*
X125403571Y-87038571D01*
X125617856Y-87038571D01*
X124546428Y-86967143D02*
X124403571Y-87038571D01*
X124117856Y-87038571D01*
X123974999Y-86967143D01*
X123903571Y-86824286D01*
X123903571Y-86752857D01*
X123974999Y-86610000D01*
X124117856Y-86538571D01*
X124332142Y-86538571D01*
X124474999Y-86467143D01*
X124546428Y-86324286D01*
X124546428Y-86252857D01*
X124474999Y-86110000D01*
X124332142Y-86038571D01*
X124117856Y-86038571D01*
X123974999Y-86110000D01*
X123260713Y-87038571D02*
X123260713Y-86038571D01*
X123260713Y-85538571D02*
X123332142Y-85610000D01*
X123260713Y-85681429D01*
X123189285Y-85610000D01*
X123260713Y-85538571D01*
X123260713Y-85681429D01*
X122760713Y-86038571D02*
X122189284Y-86038571D01*
X122546427Y-85538571D02*
X122546427Y-86824286D01*
X122474999Y-86967143D01*
X122332141Y-87038571D01*
X122189284Y-87038571D01*
X121117856Y-86967143D02*
X121260713Y-87038571D01*
X121546427Y-87038571D01*
X121689284Y-86967143D01*
X121760713Y-86824286D01*
X121760713Y-86252857D01*
X121689284Y-86110000D01*
X121546427Y-86038571D01*
X121260713Y-86038571D01*
X121117856Y-86110000D01*
X121046427Y-86252857D01*
X121046427Y-86395714D01*
X121760713Y-86538571D01*
X119474999Y-85538571D02*
X118974999Y-87038571D01*
X118474999Y-85538571D01*
X117974999Y-87038571D02*
X117974999Y-86038571D01*
X117974999Y-85538571D02*
X118046428Y-85610000D01*
X117974999Y-85681429D01*
X117903571Y-85610000D01*
X117974999Y-85538571D01*
X117974999Y-85681429D01*
X116617856Y-87038571D02*
X116617856Y-85538571D01*
X116617856Y-86967143D02*
X116760713Y-87038571D01*
X117046427Y-87038571D01*
X117189285Y-86967143D01*
X117260713Y-86895714D01*
X117332142Y-86752857D01*
X117332142Y-86324286D01*
X117260713Y-86181429D01*
X117189285Y-86110000D01*
X117046427Y-86038571D01*
X116760713Y-86038571D01*
X116617856Y-86110000D01*
X115332142Y-86967143D02*
X115474999Y-87038571D01*
X115760713Y-87038571D01*
X115903570Y-86967143D01*
X115974999Y-86824286D01*
X115974999Y-86252857D01*
X115903570Y-86110000D01*
X115760713Y-86038571D01*
X115474999Y-86038571D01*
X115332142Y-86110000D01*
X115260713Y-86252857D01*
X115260713Y-86395714D01*
X115974999Y-86538571D01*
X114403570Y-87038571D02*
X114546428Y-86967143D01*
X114617856Y-86895714D01*
X114689285Y-86752857D01*
X114689285Y-86324286D01*
X114617856Y-86181429D01*
X114546428Y-86110000D01*
X114403570Y-86038571D01*
X114189285Y-86038571D01*
X114046428Y-86110000D01*
X113974999Y-86181429D01*
X113903570Y-86324286D01*
X113903570Y-86752857D01*
X113974999Y-86895714D01*
X114046428Y-86967143D01*
X114189285Y-87038571D01*
X114403570Y-87038571D01*
X112189285Y-86610000D02*
X111474999Y-86610000D01*
X112332142Y-87038571D02*
X111832142Y-85538571D01*
X111332142Y-87038571D01*
X110832142Y-87038571D02*
X110832142Y-86038571D01*
X110832142Y-86181429D02*
X110760714Y-86110000D01*
X110617856Y-86038571D01*
X110403571Y-86038571D01*
X110260714Y-86110000D01*
X110189285Y-86252857D01*
X110189285Y-87038571D01*
X110189285Y-86252857D02*
X110117856Y-86110000D01*
X109974999Y-86038571D01*
X109760714Y-86038571D01*
X109617856Y-86110000D01*
X109546428Y-86252857D01*
X109546428Y-87038571D01*
X108832142Y-86038571D02*
X108832142Y-87538571D01*
X108832142Y-86110000D02*
X108689285Y-86038571D01*
X108403571Y-86038571D01*
X108260714Y-86110000D01*
X108189285Y-86181429D01*
X108117856Y-86324286D01*
X108117856Y-86752857D01*
X108189285Y-86895714D01*
X108260714Y-86967143D01*
X108403571Y-87038571D01*
X108689285Y-87038571D01*
X108832142Y-86967143D01*
X107260713Y-87038571D02*
X107403571Y-86967143D01*
X107474999Y-86824286D01*
X107474999Y-85538571D01*
X106689285Y-87038571D02*
X106689285Y-86038571D01*
X106689285Y-85538571D02*
X106760714Y-85610000D01*
X106689285Y-85681429D01*
X106617857Y-85610000D01*
X106689285Y-85538571D01*
X106689285Y-85681429D01*
X106189285Y-86038571D02*
X105617856Y-86038571D01*
X105974999Y-87038571D02*
X105974999Y-85752857D01*
X105903571Y-85610000D01*
X105760713Y-85538571D01*
X105617856Y-85538571D01*
X105117856Y-87038571D02*
X105117856Y-86038571D01*
X105117856Y-85538571D02*
X105189285Y-85610000D01*
X105117856Y-85681429D01*
X105046428Y-85610000D01*
X105117856Y-85538571D01*
X105117856Y-85681429D01*
X103832142Y-86967143D02*
X103974999Y-87038571D01*
X104260713Y-87038571D01*
X104403570Y-86967143D01*
X104474999Y-86824286D01*
X104474999Y-86252857D01*
X104403570Y-86110000D01*
X104260713Y-86038571D01*
X103974999Y-86038571D01*
X103832142Y-86110000D01*
X103760713Y-86252857D01*
X103760713Y-86395714D01*
X104474999Y-86538571D01*
X103117856Y-87038571D02*
X103117856Y-86038571D01*
X103117856Y-86324286D02*
X103046428Y-86181429D01*
X102974999Y-86110000D01*
X102832142Y-86038571D01*
X102689285Y-86038571D01*
D12*
X99060000Y-100965000D02*
X135890000Y-100965000D01*
X99060000Y-83185000D02*
X99060000Y-100965000D01*
X135890000Y-83185000D02*
X99060000Y-83185000D01*
X135890000Y-100965000D02*
X135890000Y-83185000D01*
D11*
X138342619Y-90312619D02*
X137342619Y-89979286D01*
X138342619Y-89645952D01*
X137342619Y-89312619D02*
X138342619Y-89312619D01*
X137342619Y-88836429D02*
X138342619Y-88836429D01*
X138342619Y-88598334D01*
X138295000Y-88455476D01*
X138199762Y-88360238D01*
X138104524Y-88312619D01*
X137914048Y-88265000D01*
X137771190Y-88265000D01*
X137580714Y-88312619D01*
X137485476Y-88360238D01*
X137390238Y-88455476D01*
X137342619Y-88598334D01*
X137342619Y-88836429D01*
X137866429Y-87836429D02*
X137866429Y-87503095D01*
X137342619Y-87360238D02*
X137342619Y-87836429D01*
X138342619Y-87836429D01*
X138342619Y-87360238D01*
X138342619Y-86741191D02*
X138342619Y-86550714D01*
X138295000Y-86455476D01*
X138199762Y-86360238D01*
X138009286Y-86312619D01*
X137675952Y-86312619D01*
X137485476Y-86360238D01*
X137390238Y-86455476D01*
X137342619Y-86550714D01*
X137342619Y-86741191D01*
X137390238Y-86836429D01*
X137485476Y-86931667D01*
X137675952Y-86979286D01*
X138009286Y-86979286D01*
X138199762Y-86931667D01*
X138295000Y-86836429D01*
X138342619Y-86741191D01*
X137628333Y-102988809D02*
X137628333Y-102512618D01*
X137342619Y-103084047D02*
X138342619Y-102750714D01*
X137342619Y-102417380D01*
X138342619Y-102084047D02*
X137533095Y-102084047D01*
X137437857Y-102036428D01*
X137390238Y-101988809D01*
X137342619Y-101893571D01*
X137342619Y-101703094D01*
X137390238Y-101607856D01*
X137437857Y-101560237D01*
X137533095Y-101512618D01*
X138342619Y-101512618D01*
X137342619Y-101036428D02*
X138342619Y-101036428D01*
X138342619Y-100798333D01*
X138295000Y-100655475D01*
X138199762Y-100560237D01*
X138104524Y-100512618D01*
X137914048Y-100464999D01*
X137771190Y-100464999D01*
X137580714Y-100512618D01*
X137485476Y-100560237D01*
X137390238Y-100655475D01*
X137342619Y-100798333D01*
X137342619Y-101036428D01*
X137342619Y-100036428D02*
X138342619Y-100036428D01*
X138342619Y-99369762D02*
X138342619Y-99179285D01*
X138295000Y-99084047D01*
X138199762Y-98988809D01*
X138009286Y-98941190D01*
X137675952Y-98941190D01*
X137485476Y-98988809D01*
X137390238Y-99084047D01*
X137342619Y-99179285D01*
X137342619Y-99369762D01*
X137390238Y-99465000D01*
X137485476Y-99560238D01*
X137675952Y-99607857D01*
X138009286Y-99607857D01*
X138199762Y-99560238D01*
X138295000Y-99465000D01*
X138342619Y-99369762D01*
D13*
X69406429Y-127406428D02*
X69406429Y-126549285D01*
X67906429Y-126977856D02*
X69406429Y-126977856D01*
X67977857Y-125477857D02*
X67906429Y-125620714D01*
X67906429Y-125906428D01*
X67977857Y-126049285D01*
X68120714Y-126120714D01*
X68692143Y-126120714D01*
X68835000Y-126049285D01*
X68906429Y-125906428D01*
X68906429Y-125620714D01*
X68835000Y-125477857D01*
X68692143Y-125406428D01*
X68549286Y-125406428D01*
X68406429Y-126120714D01*
X67906429Y-124549285D02*
X67977857Y-124692143D01*
X68120714Y-124763571D01*
X69406429Y-124763571D01*
X67977857Y-123406429D02*
X67906429Y-123549286D01*
X67906429Y-123835000D01*
X67977857Y-123977857D01*
X68120714Y-124049286D01*
X68692143Y-124049286D01*
X68835000Y-123977857D01*
X68906429Y-123835000D01*
X68906429Y-123549286D01*
X68835000Y-123406429D01*
X68692143Y-123335000D01*
X68549286Y-123335000D01*
X68406429Y-124049286D01*
X68906429Y-122835000D02*
X67906429Y-122477857D01*
X68906429Y-122120715D01*
X67906429Y-121549286D02*
X68906429Y-121549286D01*
X69406429Y-121549286D02*
X69335000Y-121620715D01*
X69263571Y-121549286D01*
X69335000Y-121477858D01*
X69406429Y-121549286D01*
X69263571Y-121549286D01*
X67977857Y-120906429D02*
X67906429Y-120763572D01*
X67906429Y-120477857D01*
X67977857Y-120335000D01*
X68120714Y-120263572D01*
X68192143Y-120263572D01*
X68335000Y-120335000D01*
X68406429Y-120477857D01*
X68406429Y-120692143D01*
X68477857Y-120835000D01*
X68620714Y-120906429D01*
X68692143Y-120906429D01*
X68835000Y-120835000D01*
X68906429Y-120692143D01*
X68906429Y-120477857D01*
X68835000Y-120335000D01*
X67906429Y-119620714D02*
X68906429Y-119620714D01*
X69406429Y-119620714D02*
X69335000Y-119692143D01*
X69263571Y-119620714D01*
X69335000Y-119549286D01*
X69406429Y-119620714D01*
X69263571Y-119620714D01*
X67906429Y-118692142D02*
X67977857Y-118835000D01*
X68049286Y-118906428D01*
X68192143Y-118977857D01*
X68620714Y-118977857D01*
X68763571Y-118906428D01*
X68835000Y-118835000D01*
X68906429Y-118692142D01*
X68906429Y-118477857D01*
X68835000Y-118335000D01*
X68763571Y-118263571D01*
X68620714Y-118192142D01*
X68192143Y-118192142D01*
X68049286Y-118263571D01*
X67977857Y-118335000D01*
X67906429Y-118477857D01*
X67906429Y-118692142D01*
X68906429Y-117549285D02*
X67906429Y-117549285D01*
X68763571Y-117549285D02*
X68835000Y-117477857D01*
X68906429Y-117334999D01*
X68906429Y-117120714D01*
X68835000Y-116977857D01*
X68692143Y-116906428D01*
X67906429Y-116906428D01*
X67906429Y-115049285D02*
X69406429Y-115049285D01*
X68906429Y-114334999D02*
X67906429Y-114334999D01*
X68763571Y-114334999D02*
X68835000Y-114263571D01*
X68906429Y-114120713D01*
X68906429Y-113906428D01*
X68835000Y-113763571D01*
X68692143Y-113692142D01*
X67906429Y-113692142D01*
X68906429Y-113192142D02*
X68906429Y-112620713D01*
X69406429Y-112977856D02*
X68120714Y-112977856D01*
X67977857Y-112906428D01*
X67906429Y-112763570D01*
X67906429Y-112620713D01*
X67977857Y-111549285D02*
X67906429Y-111692142D01*
X67906429Y-111977856D01*
X67977857Y-112120713D01*
X68120714Y-112192142D01*
X68692143Y-112192142D01*
X68835000Y-112120713D01*
X68906429Y-111977856D01*
X68906429Y-111692142D01*
X68835000Y-111549285D01*
X68692143Y-111477856D01*
X68549286Y-111477856D01*
X68406429Y-112192142D01*
X67906429Y-110834999D02*
X68906429Y-110834999D01*
X68620714Y-110834999D02*
X68763571Y-110763571D01*
X68835000Y-110692142D01*
X68906429Y-110549285D01*
X68906429Y-110406428D01*
X68906429Y-110120714D02*
X68906429Y-109549285D01*
X67906429Y-109906428D02*
X69192143Y-109906428D01*
X69335000Y-109835000D01*
X69406429Y-109692142D01*
X69406429Y-109549285D01*
X67906429Y-108406428D02*
X68692143Y-108406428D01*
X68835000Y-108477857D01*
X68906429Y-108620714D01*
X68906429Y-108906428D01*
X68835000Y-109049285D01*
X67977857Y-108406428D02*
X67906429Y-108549285D01*
X67906429Y-108906428D01*
X67977857Y-109049285D01*
X68120714Y-109120714D01*
X68263571Y-109120714D01*
X68406429Y-109049285D01*
X68477857Y-108906428D01*
X68477857Y-108549285D01*
X68549286Y-108406428D01*
X67977857Y-107049285D02*
X67906429Y-107192142D01*
X67906429Y-107477856D01*
X67977857Y-107620714D01*
X68049286Y-107692142D01*
X68192143Y-107763571D01*
X68620714Y-107763571D01*
X68763571Y-107692142D01*
X68835000Y-107620714D01*
X68906429Y-107477856D01*
X68906429Y-107192142D01*
X68835000Y-107049285D01*
X67977857Y-105835000D02*
X67906429Y-105977857D01*
X67906429Y-106263571D01*
X67977857Y-106406428D01*
X68120714Y-106477857D01*
X68692143Y-106477857D01*
X68835000Y-106406428D01*
X68906429Y-106263571D01*
X68906429Y-105977857D01*
X68835000Y-105835000D01*
X68692143Y-105763571D01*
X68549286Y-105763571D01*
X68406429Y-106477857D01*
X68335000Y-104049286D02*
X68335000Y-103335000D01*
X67906429Y-104192143D02*
X69406429Y-103692143D01*
X67906429Y-103192143D01*
X67906429Y-102049286D02*
X69406429Y-102049286D01*
X67977857Y-102049286D02*
X67906429Y-102192143D01*
X67906429Y-102477857D01*
X67977857Y-102620715D01*
X68049286Y-102692143D01*
X68192143Y-102763572D01*
X68620714Y-102763572D01*
X68763571Y-102692143D01*
X68835000Y-102620715D01*
X68906429Y-102477857D01*
X68906429Y-102192143D01*
X68835000Y-102049286D01*
X67906429Y-100692143D02*
X68692143Y-100692143D01*
X68835000Y-100763572D01*
X68906429Y-100906429D01*
X68906429Y-101192143D01*
X68835000Y-101335000D01*
X67977857Y-100692143D02*
X67906429Y-100835000D01*
X67906429Y-101192143D01*
X67977857Y-101335000D01*
X68120714Y-101406429D01*
X68263571Y-101406429D01*
X68406429Y-101335000D01*
X68477857Y-101192143D01*
X68477857Y-100835000D01*
X68549286Y-100692143D01*
X68906429Y-99977857D02*
X67406429Y-99977857D01*
X68835000Y-99977857D02*
X68906429Y-99835000D01*
X68906429Y-99549286D01*
X68835000Y-99406429D01*
X68763571Y-99335000D01*
X68620714Y-99263571D01*
X68192143Y-99263571D01*
X68049286Y-99335000D01*
X67977857Y-99406429D01*
X67906429Y-99549286D01*
X67906429Y-99835000D01*
X67977857Y-99977857D01*
X68906429Y-98835000D02*
X68906429Y-98263571D01*
X69406429Y-98620714D02*
X68120714Y-98620714D01*
X67977857Y-98549286D01*
X67906429Y-98406428D01*
X67906429Y-98263571D01*
X67977857Y-97192143D02*
X67906429Y-97335000D01*
X67906429Y-97620714D01*
X67977857Y-97763571D01*
X68120714Y-97835000D01*
X68692143Y-97835000D01*
X68835000Y-97763571D01*
X68906429Y-97620714D01*
X68906429Y-97335000D01*
X68835000Y-97192143D01*
X68692143Y-97120714D01*
X68549286Y-97120714D01*
X68406429Y-97835000D01*
X67906429Y-96477857D02*
X68906429Y-96477857D01*
X68620714Y-96477857D02*
X68763571Y-96406429D01*
X68835000Y-96335000D01*
X68906429Y-96192143D01*
X68906429Y-96049286D01*
X67335000Y-93977858D02*
X67406429Y-94049286D01*
X67620714Y-94192143D01*
X67763571Y-94263572D01*
X67977857Y-94335001D01*
X68335000Y-94406429D01*
X68620714Y-94406429D01*
X68977857Y-94335001D01*
X69192143Y-94263572D01*
X69335000Y-94192143D01*
X69549286Y-94049286D01*
X69620714Y-93977858D01*
X69406429Y-93620715D02*
X69406429Y-92763572D01*
X67906429Y-93192143D02*
X69406429Y-93192143D01*
X67906429Y-92263572D02*
X69406429Y-92263572D01*
X68335000Y-91620715D02*
X68335000Y-90906429D01*
X67906429Y-91763572D02*
X69406429Y-91263572D01*
X67906429Y-90763572D01*
X67335000Y-90406429D02*
X67406429Y-90335001D01*
X67620714Y-90192144D01*
X67763571Y-90120715D01*
X67977857Y-90049286D01*
X68335000Y-89977858D01*
X68620714Y-89977858D01*
X68977857Y-90049286D01*
X69192143Y-90120715D01*
X69335000Y-90192144D01*
X69549286Y-90335001D01*
X69620714Y-90406429D01*
X65499286Y-112477856D02*
X65427857Y-112549285D01*
X65356429Y-112763571D01*
X65356429Y-112906428D01*
X65427857Y-113120713D01*
X65570714Y-113263571D01*
X65713571Y-113334999D01*
X65999286Y-113406428D01*
X66213571Y-113406428D01*
X66499286Y-113334999D01*
X66642143Y-113263571D01*
X66785000Y-113120713D01*
X66856429Y-112906428D01*
X66856429Y-112763571D01*
X66785000Y-112549285D01*
X66713571Y-112477856D01*
X66856429Y-111549285D02*
X66856429Y-111263571D01*
X66785000Y-111120713D01*
X66642143Y-110977856D01*
X66356429Y-110906428D01*
X65856429Y-110906428D01*
X65570714Y-110977856D01*
X65427857Y-111120713D01*
X65356429Y-111263571D01*
X65356429Y-111549285D01*
X65427857Y-111692142D01*
X65570714Y-111834999D01*
X65856429Y-111906428D01*
X66356429Y-111906428D01*
X66642143Y-111834999D01*
X66785000Y-111692142D01*
X66856429Y-111549285D01*
X65356429Y-109477856D02*
X65356429Y-110334999D01*
X65356429Y-109906427D02*
X66856429Y-109906427D01*
X66642143Y-110049284D01*
X66499286Y-110192142D01*
X66427857Y-110334999D01*
X66856429Y-108549285D02*
X66856429Y-108406428D01*
X66785000Y-108263571D01*
X66713571Y-108192142D01*
X66570714Y-108120713D01*
X66285000Y-108049285D01*
X65927857Y-108049285D01*
X65642143Y-108120713D01*
X65499286Y-108192142D01*
X65427857Y-108263571D01*
X65356429Y-108406428D01*
X65356429Y-108549285D01*
X65427857Y-108692142D01*
X65499286Y-108763571D01*
X65642143Y-108834999D01*
X65927857Y-108906428D01*
X66285000Y-108906428D01*
X66570714Y-108834999D01*
X66713571Y-108763571D01*
X66785000Y-108692142D01*
X66856429Y-108549285D01*
X66356429Y-106763571D02*
X65356429Y-106763571D01*
X66927857Y-107120714D02*
X65856429Y-107477857D01*
X65856429Y-106549285D01*
X66356429Y-105335000D02*
X65356429Y-105335000D01*
X66927857Y-105692143D02*
X65856429Y-106049286D01*
X65856429Y-105120714D01*
X66356429Y-103906429D02*
X65356429Y-103906429D01*
X66927857Y-104263572D02*
X65856429Y-104620715D01*
X65856429Y-103692143D01*
D12*
X76200000Y-83185000D02*
X58420000Y-83185000D01*
X76200000Y-133985000D02*
X76200000Y-83185000D01*
X58420000Y-133985000D02*
X76200000Y-133985000D01*
X58420000Y-83185000D02*
X58420000Y-133985000D01*
D11*
X93416429Y-81660714D02*
X93368810Y-81517857D01*
X93321190Y-81470238D01*
X93225952Y-81422619D01*
X93083095Y-81422619D01*
X92987857Y-81470238D01*
X92940238Y-81517857D01*
X92892619Y-81613095D01*
X92892619Y-81994048D01*
X93892619Y-81994048D01*
X93892619Y-81660714D01*
X93845000Y-81565476D01*
X93797381Y-81517857D01*
X93702143Y-81470238D01*
X93606905Y-81470238D01*
X93511667Y-81517857D01*
X93464048Y-81565476D01*
X93416429Y-81660714D01*
X93416429Y-81994048D01*
X93892619Y-80994048D02*
X93083095Y-80994048D01*
X92987857Y-80946429D01*
X92940238Y-80898810D01*
X92892619Y-80803572D01*
X92892619Y-80613095D01*
X92940238Y-80517857D01*
X92987857Y-80470238D01*
X93083095Y-80422619D01*
X93892619Y-80422619D01*
X92940238Y-79994048D02*
X92892619Y-79851191D01*
X92892619Y-79613095D01*
X92940238Y-79517857D01*
X92987857Y-79470238D01*
X93083095Y-79422619D01*
X93178333Y-79422619D01*
X93273571Y-79470238D01*
X93321190Y-79517857D01*
X93368810Y-79613095D01*
X93416429Y-79803572D01*
X93464048Y-79898810D01*
X93511667Y-79946429D01*
X93606905Y-79994048D01*
X93702143Y-79994048D01*
X93797381Y-79946429D01*
X93845000Y-79898810D01*
X93892619Y-79803572D01*
X93892619Y-79565476D01*
X93845000Y-79422619D01*
X93416429Y-78232143D02*
X93416429Y-77898809D01*
X92892619Y-77755952D02*
X92892619Y-78232143D01*
X93892619Y-78232143D01*
X93892619Y-77755952D01*
X92892619Y-77327381D02*
X93892619Y-77327381D01*
X92892619Y-76755952D01*
X93892619Y-76755952D01*
D12*
X87630000Y-80645000D02*
X90170000Y-80645000D01*
X87630000Y-76835000D02*
X90170000Y-76835000D01*
X92075000Y-82550000D02*
X92075000Y-78740000D01*
X85725000Y-82550000D02*
X92075000Y-82550000D01*
X85725000Y-78740000D02*
X85725000Y-82550000D01*
X85725000Y-78740000D02*
X85725000Y-74930000D01*
X92075000Y-78740000D02*
X85725000Y-78740000D01*
X92075000Y-74930000D02*
X92075000Y-78740000D01*
X85725000Y-74930000D02*
X92075000Y-74930000D01*
D11*
X56347857Y-102630715D02*
X56300238Y-102678334D01*
X56252619Y-102821191D01*
X56252619Y-102916429D01*
X56300238Y-103059287D01*
X56395476Y-103154525D01*
X56490714Y-103202144D01*
X56681190Y-103249763D01*
X56824048Y-103249763D01*
X57014524Y-103202144D01*
X57109762Y-103154525D01*
X57205000Y-103059287D01*
X57252619Y-102916429D01*
X57252619Y-102821191D01*
X57205000Y-102678334D01*
X57157381Y-102630715D01*
X57252619Y-102011668D02*
X57252619Y-101821191D01*
X57205000Y-101725953D01*
X57109762Y-101630715D01*
X56919286Y-101583096D01*
X56585952Y-101583096D01*
X56395476Y-101630715D01*
X56300238Y-101725953D01*
X56252619Y-101821191D01*
X56252619Y-102011668D01*
X56300238Y-102106906D01*
X56395476Y-102202144D01*
X56585952Y-102249763D01*
X56919286Y-102249763D01*
X57109762Y-102202144D01*
X57205000Y-102106906D01*
X57252619Y-102011668D01*
X56252619Y-100678334D02*
X56252619Y-101154525D01*
X57252619Y-101154525D01*
X57252619Y-100154525D02*
X57252619Y-99964048D01*
X57205000Y-99868810D01*
X57109762Y-99773572D01*
X56919286Y-99725953D01*
X56585952Y-99725953D01*
X56395476Y-99773572D01*
X56300238Y-99868810D01*
X56252619Y-99964048D01*
X56252619Y-100154525D01*
X56300238Y-100249763D01*
X56395476Y-100345001D01*
X56585952Y-100392620D01*
X56919286Y-100392620D01*
X57109762Y-100345001D01*
X57205000Y-100249763D01*
X57252619Y-100154525D01*
X56252619Y-98725953D02*
X56728810Y-99059287D01*
X56252619Y-99297382D02*
X57252619Y-99297382D01*
X57252619Y-98916429D01*
X57205000Y-98821191D01*
X57157381Y-98773572D01*
X57062143Y-98725953D01*
X56919286Y-98725953D01*
X56824048Y-98773572D01*
X56776429Y-98821191D01*
X56728810Y-98916429D01*
X56728810Y-99297382D01*
X56252619Y-97535477D02*
X57252619Y-97535477D01*
X57252619Y-97297382D01*
X57205000Y-97154524D01*
X57109762Y-97059286D01*
X57014524Y-97011667D01*
X56824048Y-96964048D01*
X56681190Y-96964048D01*
X56490714Y-97011667D01*
X56395476Y-97059286D01*
X56300238Y-97154524D01*
X56252619Y-97297382D01*
X56252619Y-97535477D01*
X56776429Y-96535477D02*
X56776429Y-96202143D01*
X56252619Y-96059286D02*
X56252619Y-96535477D01*
X57252619Y-96535477D01*
X57252619Y-96059286D01*
X56252619Y-95154524D02*
X56252619Y-95630715D01*
X57252619Y-95630715D01*
X56538333Y-94868810D02*
X56538333Y-94392619D01*
X56252619Y-94964048D02*
X57252619Y-94630715D01*
X56252619Y-94297381D01*
X56728810Y-93773572D02*
X56252619Y-93773572D01*
X57252619Y-94106905D02*
X56728810Y-93773572D01*
X57252619Y-93440238D01*
X54888333Y-98535477D02*
X54888333Y-98059286D01*
X54602619Y-98630715D02*
X55602619Y-98297382D01*
X54602619Y-97964048D01*
X54602619Y-97630715D02*
X55602619Y-97630715D01*
X55602619Y-97392620D01*
X55555000Y-97249762D01*
X55459762Y-97154524D01*
X55364524Y-97106905D01*
X55174048Y-97059286D01*
X55031190Y-97059286D01*
X54840714Y-97106905D01*
X54745476Y-97154524D01*
X54650238Y-97249762D01*
X54602619Y-97392620D01*
X54602619Y-97630715D01*
X55602619Y-96345000D02*
X54888333Y-96345000D01*
X54745476Y-96392620D01*
X54650238Y-96487858D01*
X54602619Y-96630715D01*
X54602619Y-96725953D01*
X55602619Y-95868810D02*
X54793095Y-95868810D01*
X54697857Y-95821191D01*
X54650238Y-95773572D01*
X54602619Y-95678334D01*
X54602619Y-95487857D01*
X54650238Y-95392619D01*
X54697857Y-95345000D01*
X54793095Y-95297381D01*
X55602619Y-95297381D01*
X54650238Y-94868810D02*
X54602619Y-94725953D01*
X54602619Y-94487857D01*
X54650238Y-94392619D01*
X54697857Y-94345000D01*
X54793095Y-94297381D01*
X54888333Y-94297381D01*
X54983571Y-94345000D01*
X55031190Y-94392619D01*
X55078810Y-94487857D01*
X55126429Y-94678334D01*
X55174048Y-94773572D01*
X55221667Y-94821191D01*
X55316905Y-94868810D01*
X55412143Y-94868810D01*
X55507381Y-94821191D01*
X55555000Y-94773572D01*
X55602619Y-94678334D01*
X55602619Y-94440238D01*
X55555000Y-94297381D01*
X55602619Y-94011667D02*
X55602619Y-93440238D01*
X54602619Y-93725953D02*
X55602619Y-93725953D01*
D12*
X58420000Y-74930000D02*
X58420000Y-92710000D01*
X52705000Y-74930000D02*
X58420000Y-74930000D01*
X52705000Y-92710000D02*
X52705000Y-74930000D01*
X58420000Y-92710000D02*
X52705000Y-92710000D01*
D11*
X76921667Y-81446667D02*
X76445476Y-81446667D01*
X77016905Y-81732381D02*
X76683572Y-80732381D01*
X76350238Y-81732381D01*
X76016905Y-81732381D02*
X76016905Y-80732381D01*
X75445476Y-81732381D01*
X75445476Y-80732381D01*
X75016905Y-81446667D02*
X74540714Y-81446667D01*
X75112143Y-81732381D02*
X74778810Y-80732381D01*
X74445476Y-81732381D01*
X73635952Y-81732381D02*
X74112143Y-81732381D01*
X74112143Y-80732381D01*
X73112143Y-80732381D02*
X72921666Y-80732381D01*
X72826428Y-80780000D01*
X72731190Y-80875238D01*
X72683571Y-81065714D01*
X72683571Y-81399048D01*
X72731190Y-81589524D01*
X72826428Y-81684762D01*
X72921666Y-81732381D01*
X73112143Y-81732381D01*
X73207381Y-81684762D01*
X73302619Y-81589524D01*
X73350238Y-81399048D01*
X73350238Y-81065714D01*
X73302619Y-80875238D01*
X73207381Y-80780000D01*
X73112143Y-80732381D01*
X71731190Y-80780000D02*
X71826428Y-80732381D01*
X71969285Y-80732381D01*
X72112143Y-80780000D01*
X72207381Y-80875238D01*
X72255000Y-80970476D01*
X72302619Y-81160952D01*
X72302619Y-81303810D01*
X72255000Y-81494286D01*
X72207381Y-81589524D01*
X72112143Y-81684762D01*
X71969285Y-81732381D01*
X71874047Y-81732381D01*
X71731190Y-81684762D01*
X71683571Y-81637143D01*
X71683571Y-81303810D01*
X71874047Y-81303810D01*
X70493095Y-81732381D02*
X70493095Y-80732381D01*
X70016905Y-81732381D02*
X70016905Y-80732381D01*
X69445476Y-81732381D01*
X69445476Y-80732381D01*
X68969286Y-81732381D02*
X68969286Y-80732381D01*
X68588333Y-80732381D01*
X68493095Y-80780000D01*
X68445476Y-80827619D01*
X68397857Y-80922857D01*
X68397857Y-81065714D01*
X68445476Y-81160952D01*
X68493095Y-81208571D01*
X68588333Y-81256190D01*
X68969286Y-81256190D01*
X67969286Y-80732381D02*
X67969286Y-81541905D01*
X67921667Y-81637143D01*
X67874048Y-81684762D01*
X67778810Y-81732381D01*
X67588333Y-81732381D01*
X67493095Y-81684762D01*
X67445476Y-81637143D01*
X67397857Y-81541905D01*
X67397857Y-80732381D01*
X67064524Y-80732381D02*
X66493095Y-80732381D01*
X66778810Y-81732381D02*
X66778810Y-80732381D01*
D12*
X66040000Y-80010000D02*
X66040000Y-76200000D01*
X77470000Y-80010000D02*
X66040000Y-80010000D01*
X77470000Y-76200000D02*
X77470000Y-80010000D01*
X66040000Y-76200000D02*
X77470000Y-76200000D01*
D11*
X129547857Y-124817143D02*
X129595476Y-124864762D01*
X129738333Y-124912381D01*
X129833571Y-124912381D01*
X129976429Y-124864762D01*
X130071667Y-124769524D01*
X130119286Y-124674286D01*
X130166905Y-124483810D01*
X130166905Y-124340952D01*
X130119286Y-124150476D01*
X130071667Y-124055238D01*
X129976429Y-123960000D01*
X129833571Y-123912381D01*
X129738333Y-123912381D01*
X129595476Y-123960000D01*
X129547857Y-124007619D01*
X129166905Y-124864762D02*
X129024048Y-124912381D01*
X128785952Y-124912381D01*
X128690714Y-124864762D01*
X128643095Y-124817143D01*
X128595476Y-124721905D01*
X128595476Y-124626667D01*
X128643095Y-124531429D01*
X128690714Y-124483810D01*
X128785952Y-124436190D01*
X128976429Y-124388571D01*
X129071667Y-124340952D01*
X129119286Y-124293333D01*
X129166905Y-124198095D01*
X129166905Y-124102857D01*
X129119286Y-124007619D01*
X129071667Y-123960000D01*
X128976429Y-123912381D01*
X128738333Y-123912381D01*
X128595476Y-123960000D01*
X128262143Y-123912381D02*
X127643095Y-123912381D01*
X127976429Y-124293333D01*
X127833571Y-124293333D01*
X127738333Y-124340952D01*
X127690714Y-124388571D01*
X127643095Y-124483810D01*
X127643095Y-124721905D01*
X127690714Y-124817143D01*
X127738333Y-124864762D01*
X127833571Y-124912381D01*
X128119286Y-124912381D01*
X128214524Y-124864762D01*
X128262143Y-124817143D01*
X130357381Y-123740000D02*
X127452619Y-123740000D01*
X129547857Y-112117143D02*
X129595476Y-112164762D01*
X129738333Y-112212381D01*
X129833571Y-112212381D01*
X129976429Y-112164762D01*
X130071667Y-112069524D01*
X130119286Y-111974286D01*
X130166905Y-111783810D01*
X130166905Y-111640952D01*
X130119286Y-111450476D01*
X130071667Y-111355238D01*
X129976429Y-111260000D01*
X129833571Y-111212381D01*
X129738333Y-111212381D01*
X129595476Y-111260000D01*
X129547857Y-111307619D01*
X129166905Y-112164762D02*
X129024048Y-112212381D01*
X128785952Y-112212381D01*
X128690714Y-112164762D01*
X128643095Y-112117143D01*
X128595476Y-112021905D01*
X128595476Y-111926667D01*
X128643095Y-111831429D01*
X128690714Y-111783810D01*
X128785952Y-111736190D01*
X128976429Y-111688571D01*
X129071667Y-111640952D01*
X129119286Y-111593333D01*
X129166905Y-111498095D01*
X129166905Y-111402857D01*
X129119286Y-111307619D01*
X129071667Y-111260000D01*
X128976429Y-111212381D01*
X128738333Y-111212381D01*
X128595476Y-111260000D01*
X127976429Y-111212381D02*
X127881190Y-111212381D01*
X127785952Y-111260000D01*
X127738333Y-111307619D01*
X127690714Y-111402857D01*
X127643095Y-111593333D01*
X127643095Y-111831429D01*
X127690714Y-112021905D01*
X127738333Y-112117143D01*
X127785952Y-112164762D01*
X127881190Y-112212381D01*
X127976429Y-112212381D01*
X128071667Y-112164762D01*
X128119286Y-112117143D01*
X128166905Y-112021905D01*
X128214524Y-111831429D01*
X128214524Y-111593333D01*
X128166905Y-111402857D01*
X128119286Y-111307619D01*
X128071667Y-111260000D01*
X127976429Y-111212381D01*
X130357381Y-111040000D02*
X127452619Y-111040000D01*
X149764762Y-114387381D02*
X149431429Y-115387381D01*
X149098095Y-114387381D01*
X148764762Y-115387381D02*
X148764762Y-114387381D01*
X148526667Y-114387381D01*
X148383809Y-114435000D01*
X148288571Y-114530238D01*
X148240952Y-114625476D01*
X148193333Y-114815952D01*
X148193333Y-114958810D01*
X148240952Y-115149286D01*
X148288571Y-115244524D01*
X148383809Y-115339762D01*
X148526667Y-115387381D01*
X148764762Y-115387381D01*
X147764762Y-114387381D02*
X147764762Y-115196905D01*
X147717143Y-115292143D01*
X147669524Y-115339762D01*
X147574286Y-115387381D01*
X147383809Y-115387381D01*
X147288571Y-115339762D01*
X147240952Y-115292143D01*
X147193333Y-115196905D01*
X147193333Y-114387381D01*
X145621904Y-114863571D02*
X145479047Y-114911190D01*
X145431428Y-114958810D01*
X145383809Y-115054048D01*
X145383809Y-115196905D01*
X145431428Y-115292143D01*
X145479047Y-115339762D01*
X145574285Y-115387381D01*
X145955238Y-115387381D01*
X145955238Y-114387381D01*
X145621904Y-114387381D01*
X145526666Y-114435000D01*
X145479047Y-114482619D01*
X145431428Y-114577857D01*
X145431428Y-114673095D01*
X145479047Y-114768333D01*
X145526666Y-114815952D01*
X145621904Y-114863571D01*
X145955238Y-114863571D01*
X145002857Y-115101667D02*
X144526666Y-115101667D01*
X145098095Y-115387381D02*
X144764762Y-114387381D01*
X144431428Y-115387381D01*
X144145714Y-115339762D02*
X144002857Y-115387381D01*
X143764761Y-115387381D01*
X143669523Y-115339762D01*
X143621904Y-115292143D01*
X143574285Y-115196905D01*
X143574285Y-115101667D01*
X143621904Y-115006429D01*
X143669523Y-114958810D01*
X143764761Y-114911190D01*
X143955238Y-114863571D01*
X144050476Y-114815952D01*
X144098095Y-114768333D01*
X144145714Y-114673095D01*
X144145714Y-114577857D01*
X144098095Y-114482619D01*
X144050476Y-114435000D01*
X143955238Y-114387381D01*
X143717142Y-114387381D01*
X143574285Y-114435000D01*
X143145714Y-114863571D02*
X142812380Y-114863571D01*
X142669523Y-115387381D02*
X143145714Y-115387381D01*
X143145714Y-114387381D01*
X142669523Y-114387381D01*
X125603095Y-120277381D02*
X126174524Y-120277381D01*
X125888810Y-120277381D02*
X125888810Y-119277381D01*
X125984048Y-119420238D01*
X126079286Y-119515476D01*
X126174524Y-119563095D01*
X125174524Y-119896429D02*
X124412619Y-119896429D01*
X123984048Y-119372619D02*
X123936429Y-119325000D01*
X123841191Y-119277381D01*
X123603095Y-119277381D01*
X123507857Y-119325000D01*
X123460238Y-119372619D01*
X123412619Y-119467857D01*
X123412619Y-119563095D01*
X123460238Y-119705952D01*
X124031667Y-120277381D01*
X123412619Y-120277381D01*
X122269762Y-119991667D02*
X121793571Y-119991667D01*
X122365000Y-120277381D02*
X122031667Y-119277381D01*
X121698333Y-120277381D01*
X121507857Y-119610714D02*
X121126905Y-119610714D01*
X121365000Y-119277381D02*
X121365000Y-120134524D01*
X121317381Y-120229762D01*
X121222143Y-120277381D01*
X121126905Y-120277381D01*
X120364999Y-120277381D02*
X120364999Y-119753571D01*
X120412618Y-119658333D01*
X120507856Y-119610714D01*
X120698333Y-119610714D01*
X120793571Y-119658333D01*
X120364999Y-120229762D02*
X120460237Y-120277381D01*
X120698333Y-120277381D01*
X120793571Y-120229762D01*
X120841190Y-120134524D01*
X120841190Y-120039286D01*
X120793571Y-119944048D01*
X120698333Y-119896429D01*
X120460237Y-119896429D01*
X120364999Y-119848810D01*
X119888809Y-120277381D02*
X119888809Y-119610714D01*
X119888809Y-119801190D02*
X119841190Y-119705952D01*
X119793571Y-119658333D01*
X119698333Y-119610714D01*
X119603094Y-119610714D01*
X119269761Y-120277381D02*
X119269761Y-119610714D01*
X119269761Y-119277381D02*
X119317380Y-119325000D01*
X119269761Y-119372619D01*
X119222142Y-119325000D01*
X119269761Y-119277381D01*
X119269761Y-119372619D01*
X118079285Y-119372619D02*
X118031666Y-119325000D01*
X117936428Y-119277381D01*
X117698332Y-119277381D01*
X117603094Y-119325000D01*
X117555475Y-119372619D01*
X117507856Y-119467857D01*
X117507856Y-119563095D01*
X117555475Y-119705952D01*
X118126904Y-120277381D01*
X117507856Y-120277381D01*
X116650713Y-119277381D02*
X116841190Y-119277381D01*
X116936428Y-119325000D01*
X116984047Y-119372619D01*
X117079285Y-119515476D01*
X117126904Y-119705952D01*
X117126904Y-120086905D01*
X117079285Y-120182143D01*
X117031666Y-120229762D01*
X116936428Y-120277381D01*
X116745951Y-120277381D01*
X116650713Y-120229762D01*
X116603094Y-120182143D01*
X116555475Y-120086905D01*
X116555475Y-119848810D01*
X116603094Y-119753571D01*
X116650713Y-119705952D01*
X116745951Y-119658333D01*
X116936428Y-119658333D01*
X117031666Y-119705952D01*
X117079285Y-119753571D01*
X117126904Y-119848810D01*
X115936428Y-119277381D02*
X115841189Y-119277381D01*
X115745951Y-119325000D01*
X115698332Y-119372619D01*
X115650713Y-119467857D01*
X115603094Y-119658333D01*
X115603094Y-119896429D01*
X115650713Y-120086905D01*
X115698332Y-120182143D01*
X115745951Y-120229762D01*
X115841189Y-120277381D01*
X115936428Y-120277381D01*
X116031666Y-120229762D01*
X116079285Y-120182143D01*
X116126904Y-120086905D01*
X116174523Y-119896429D01*
X116174523Y-119658333D01*
X116126904Y-119467857D01*
X116079285Y-119372619D01*
X116031666Y-119325000D01*
X115936428Y-119277381D01*
X114984047Y-119277381D02*
X114888808Y-119277381D01*
X114793570Y-119325000D01*
X114745951Y-119372619D01*
X114698332Y-119467857D01*
X114650713Y-119658333D01*
X114650713Y-119896429D01*
X114698332Y-120086905D01*
X114745951Y-120182143D01*
X114793570Y-120229762D01*
X114888808Y-120277381D01*
X114984047Y-120277381D01*
X115079285Y-120229762D01*
X115126904Y-120182143D01*
X115174523Y-120086905D01*
X115222142Y-119896429D01*
X115222142Y-119658333D01*
X115174523Y-119467857D01*
X115126904Y-119372619D01*
X115079285Y-119325000D01*
X114984047Y-119277381D01*
X126174524Y-121022619D02*
X126126905Y-120975000D01*
X126031667Y-120927381D01*
X125793571Y-120927381D01*
X125698333Y-120975000D01*
X125650714Y-121022619D01*
X125603095Y-121117857D01*
X125603095Y-121213095D01*
X125650714Y-121355952D01*
X126222143Y-121927381D01*
X125603095Y-121927381D01*
X125174524Y-121546429D02*
X124412619Y-121546429D01*
X124031667Y-120927381D02*
X123412619Y-120927381D01*
X123745953Y-121308333D01*
X123603095Y-121308333D01*
X123507857Y-121355952D01*
X123460238Y-121403571D01*
X123412619Y-121498810D01*
X123412619Y-121736905D01*
X123460238Y-121832143D01*
X123507857Y-121879762D01*
X123603095Y-121927381D01*
X123888810Y-121927381D01*
X123984048Y-121879762D01*
X124031667Y-121832143D01*
X121650714Y-121927381D02*
X121984048Y-121451190D01*
X122222143Y-121927381D02*
X122222143Y-120927381D01*
X121841190Y-120927381D01*
X121745952Y-120975000D01*
X121698333Y-121022619D01*
X121650714Y-121117857D01*
X121650714Y-121260714D01*
X121698333Y-121355952D01*
X121745952Y-121403571D01*
X121841190Y-121451190D01*
X122222143Y-121451190D01*
X120650714Y-121832143D02*
X120698333Y-121879762D01*
X120841190Y-121927381D01*
X120936428Y-121927381D01*
X121079286Y-121879762D01*
X121174524Y-121784524D01*
X121222143Y-121689286D01*
X121269762Y-121498810D01*
X121269762Y-121355952D01*
X121222143Y-121165476D01*
X121174524Y-121070238D01*
X121079286Y-120975000D01*
X120936428Y-120927381D01*
X120841190Y-120927381D01*
X120698333Y-120975000D01*
X120650714Y-121022619D01*
X119793571Y-120927381D02*
X119984048Y-120927381D01*
X120079286Y-120975000D01*
X120126905Y-121022619D01*
X120222143Y-121165476D01*
X120269762Y-121355952D01*
X120269762Y-121736905D01*
X120222143Y-121832143D01*
X120174524Y-121879762D01*
X120079286Y-121927381D01*
X119888809Y-121927381D01*
X119793571Y-121879762D01*
X119745952Y-121832143D01*
X119698333Y-121736905D01*
X119698333Y-121498810D01*
X119745952Y-121403571D01*
X119793571Y-121355952D01*
X119888809Y-121308333D01*
X120079286Y-121308333D01*
X120174524Y-121355952D01*
X120222143Y-121403571D01*
X120269762Y-121498810D01*
X118793571Y-120927381D02*
X119269762Y-120927381D01*
X119317381Y-121403571D01*
X119269762Y-121355952D01*
X119174524Y-121308333D01*
X118936428Y-121308333D01*
X118841190Y-121355952D01*
X118793571Y-121403571D01*
X118745952Y-121498810D01*
X118745952Y-121736905D01*
X118793571Y-121832143D01*
X118841190Y-121879762D01*
X118936428Y-121927381D01*
X119174524Y-121927381D01*
X119269762Y-121879762D01*
X119317381Y-121832143D01*
X118126905Y-120927381D02*
X118031666Y-120927381D01*
X117936428Y-120975000D01*
X117888809Y-121022619D01*
X117841190Y-121117857D01*
X117793571Y-121308333D01*
X117793571Y-121546429D01*
X117841190Y-121736905D01*
X117888809Y-121832143D01*
X117936428Y-121879762D01*
X118031666Y-121927381D01*
X118126905Y-121927381D01*
X118222143Y-121879762D01*
X118269762Y-121832143D01*
X118317381Y-121736905D01*
X118365000Y-121546429D01*
X118365000Y-121308333D01*
X118317381Y-121117857D01*
X118269762Y-121022619D01*
X118222143Y-120975000D01*
X118126905Y-120927381D01*
X117412619Y-121022619D02*
X117365000Y-120975000D01*
X117269762Y-120927381D01*
X117031666Y-120927381D01*
X116936428Y-120975000D01*
X116888809Y-121022619D01*
X116841190Y-121117857D01*
X116841190Y-121213095D01*
X116888809Y-121355952D01*
X117460238Y-121927381D01*
X116841190Y-121927381D01*
X125603095Y-132977381D02*
X126174524Y-132977381D01*
X125888810Y-132977381D02*
X125888810Y-131977381D01*
X125984048Y-132120238D01*
X126079286Y-132215476D01*
X126174524Y-132263095D01*
X125174524Y-132596429D02*
X124412619Y-132596429D01*
X123984048Y-132072619D02*
X123936429Y-132025000D01*
X123841191Y-131977381D01*
X123603095Y-131977381D01*
X123507857Y-132025000D01*
X123460238Y-132072619D01*
X123412619Y-132167857D01*
X123412619Y-132263095D01*
X123460238Y-132405952D01*
X124031667Y-132977381D01*
X123412619Y-132977381D01*
X122269762Y-132691667D02*
X121793571Y-132691667D01*
X122365000Y-132977381D02*
X122031667Y-131977381D01*
X121698333Y-132977381D01*
X121507857Y-132310714D02*
X121126905Y-132310714D01*
X121365000Y-131977381D02*
X121365000Y-132834524D01*
X121317381Y-132929762D01*
X121222143Y-132977381D01*
X121126905Y-132977381D01*
X120364999Y-132977381D02*
X120364999Y-132453571D01*
X120412618Y-132358333D01*
X120507856Y-132310714D01*
X120698333Y-132310714D01*
X120793571Y-132358333D01*
X120364999Y-132929762D02*
X120460237Y-132977381D01*
X120698333Y-132977381D01*
X120793571Y-132929762D01*
X120841190Y-132834524D01*
X120841190Y-132739286D01*
X120793571Y-132644048D01*
X120698333Y-132596429D01*
X120460237Y-132596429D01*
X120364999Y-132548810D01*
X119888809Y-132977381D02*
X119888809Y-132310714D01*
X119888809Y-132501190D02*
X119841190Y-132405952D01*
X119793571Y-132358333D01*
X119698333Y-132310714D01*
X119603094Y-132310714D01*
X119269761Y-132977381D02*
X119269761Y-132310714D01*
X119269761Y-131977381D02*
X119317380Y-132025000D01*
X119269761Y-132072619D01*
X119222142Y-132025000D01*
X119269761Y-131977381D01*
X119269761Y-132072619D01*
X118079285Y-132072619D02*
X118031666Y-132025000D01*
X117936428Y-131977381D01*
X117698332Y-131977381D01*
X117603094Y-132025000D01*
X117555475Y-132072619D01*
X117507856Y-132167857D01*
X117507856Y-132263095D01*
X117555475Y-132405952D01*
X118126904Y-132977381D01*
X117507856Y-132977381D01*
X116650713Y-131977381D02*
X116841190Y-131977381D01*
X116936428Y-132025000D01*
X116984047Y-132072619D01*
X117079285Y-132215476D01*
X117126904Y-132405952D01*
X117126904Y-132786905D01*
X117079285Y-132882143D01*
X117031666Y-132929762D01*
X116936428Y-132977381D01*
X116745951Y-132977381D01*
X116650713Y-132929762D01*
X116603094Y-132882143D01*
X116555475Y-132786905D01*
X116555475Y-132548810D01*
X116603094Y-132453571D01*
X116650713Y-132405952D01*
X116745951Y-132358333D01*
X116936428Y-132358333D01*
X117031666Y-132405952D01*
X117079285Y-132453571D01*
X117126904Y-132548810D01*
X115936428Y-131977381D02*
X115841189Y-131977381D01*
X115745951Y-132025000D01*
X115698332Y-132072619D01*
X115650713Y-132167857D01*
X115603094Y-132358333D01*
X115603094Y-132596429D01*
X115650713Y-132786905D01*
X115698332Y-132882143D01*
X115745951Y-132929762D01*
X115841189Y-132977381D01*
X115936428Y-132977381D01*
X116031666Y-132929762D01*
X116079285Y-132882143D01*
X116126904Y-132786905D01*
X116174523Y-132596429D01*
X116174523Y-132358333D01*
X116126904Y-132167857D01*
X116079285Y-132072619D01*
X116031666Y-132025000D01*
X115936428Y-131977381D01*
X114984047Y-131977381D02*
X114888808Y-131977381D01*
X114793570Y-132025000D01*
X114745951Y-132072619D01*
X114698332Y-132167857D01*
X114650713Y-132358333D01*
X114650713Y-132596429D01*
X114698332Y-132786905D01*
X114745951Y-132882143D01*
X114793570Y-132929762D01*
X114888808Y-132977381D01*
X114984047Y-132977381D01*
X115079285Y-132929762D01*
X115126904Y-132882143D01*
X115174523Y-132786905D01*
X115222142Y-132596429D01*
X115222142Y-132358333D01*
X115174523Y-132167857D01*
X115126904Y-132072619D01*
X115079285Y-132025000D01*
X114984047Y-131977381D01*
X126174524Y-133722619D02*
X126126905Y-133675000D01*
X126031667Y-133627381D01*
X125793571Y-133627381D01*
X125698333Y-133675000D01*
X125650714Y-133722619D01*
X125603095Y-133817857D01*
X125603095Y-133913095D01*
X125650714Y-134055952D01*
X126222143Y-134627381D01*
X125603095Y-134627381D01*
X125174524Y-134246429D02*
X124412619Y-134246429D01*
X124031667Y-133627381D02*
X123412619Y-133627381D01*
X123745953Y-134008333D01*
X123603095Y-134008333D01*
X123507857Y-134055952D01*
X123460238Y-134103571D01*
X123412619Y-134198810D01*
X123412619Y-134436905D01*
X123460238Y-134532143D01*
X123507857Y-134579762D01*
X123603095Y-134627381D01*
X123888810Y-134627381D01*
X123984048Y-134579762D01*
X124031667Y-134532143D01*
X121650714Y-134627381D02*
X121984048Y-134151190D01*
X122222143Y-134627381D02*
X122222143Y-133627381D01*
X121841190Y-133627381D01*
X121745952Y-133675000D01*
X121698333Y-133722619D01*
X121650714Y-133817857D01*
X121650714Y-133960714D01*
X121698333Y-134055952D01*
X121745952Y-134103571D01*
X121841190Y-134151190D01*
X122222143Y-134151190D01*
X120650714Y-134532143D02*
X120698333Y-134579762D01*
X120841190Y-134627381D01*
X120936428Y-134627381D01*
X121079286Y-134579762D01*
X121174524Y-134484524D01*
X121222143Y-134389286D01*
X121269762Y-134198810D01*
X121269762Y-134055952D01*
X121222143Y-133865476D01*
X121174524Y-133770238D01*
X121079286Y-133675000D01*
X120936428Y-133627381D01*
X120841190Y-133627381D01*
X120698333Y-133675000D01*
X120650714Y-133722619D01*
X119793571Y-133627381D02*
X119984048Y-133627381D01*
X120079286Y-133675000D01*
X120126905Y-133722619D01*
X120222143Y-133865476D01*
X120269762Y-134055952D01*
X120269762Y-134436905D01*
X120222143Y-134532143D01*
X120174524Y-134579762D01*
X120079286Y-134627381D01*
X119888809Y-134627381D01*
X119793571Y-134579762D01*
X119745952Y-134532143D01*
X119698333Y-134436905D01*
X119698333Y-134198810D01*
X119745952Y-134103571D01*
X119793571Y-134055952D01*
X119888809Y-134008333D01*
X120079286Y-134008333D01*
X120174524Y-134055952D01*
X120222143Y-134103571D01*
X120269762Y-134198810D01*
X118793571Y-133627381D02*
X119269762Y-133627381D01*
X119317381Y-134103571D01*
X119269762Y-134055952D01*
X119174524Y-134008333D01*
X118936428Y-134008333D01*
X118841190Y-134055952D01*
X118793571Y-134103571D01*
X118745952Y-134198810D01*
X118745952Y-134436905D01*
X118793571Y-134532143D01*
X118841190Y-134579762D01*
X118936428Y-134627381D01*
X119174524Y-134627381D01*
X119269762Y-134579762D01*
X119317381Y-134532143D01*
X118126905Y-133627381D02*
X118031666Y-133627381D01*
X117936428Y-133675000D01*
X117888809Y-133722619D01*
X117841190Y-133817857D01*
X117793571Y-134008333D01*
X117793571Y-134246429D01*
X117841190Y-134436905D01*
X117888809Y-134532143D01*
X117936428Y-134579762D01*
X118031666Y-134627381D01*
X118126905Y-134627381D01*
X118222143Y-134579762D01*
X118269762Y-134532143D01*
X118317381Y-134436905D01*
X118365000Y-134246429D01*
X118365000Y-134008333D01*
X118317381Y-133817857D01*
X118269762Y-133722619D01*
X118222143Y-133675000D01*
X118126905Y-133627381D01*
X117412619Y-133722619D02*
X117365000Y-133675000D01*
X117269762Y-133627381D01*
X117031666Y-133627381D01*
X116936428Y-133675000D01*
X116888809Y-133722619D01*
X116841190Y-133817857D01*
X116841190Y-133913095D01*
X116888809Y-134055952D01*
X117460238Y-134627381D01*
X116841190Y-134627381D01*
D12*
X128905000Y-130175000D02*
X128905000Y-132715000D01*
X128905000Y-117475000D02*
X128905000Y-120015000D01*
X127000000Y-128905000D02*
X130810000Y-128905000D01*
X127000000Y-116205000D02*
X130810000Y-116205000D01*
X127000000Y-113030000D02*
X127000000Y-121920000D01*
X130810000Y-113030000D02*
X127000000Y-113030000D01*
X130810000Y-121920000D02*
X130810000Y-113030000D01*
X127000000Y-121920000D02*
X130810000Y-121920000D01*
X127000000Y-134620000D02*
X127000000Y-125730000D01*
X130810000Y-134620000D02*
X127000000Y-134620000D01*
X130810000Y-125730000D02*
X130810000Y-134620000D01*
X127000000Y-125730000D02*
X130810000Y-125730000D01*
X56261000Y-87376000D02*
X56261000Y-89916000D01*
X57912000Y-91948000D02*
X54356000Y-91948000D01*
X57912000Y-85344000D02*
X57912000Y-91948000D01*
X57912000Y-85344000D02*
X54356000Y-85344000D01*
X54356000Y-91948000D02*
X54356000Y-85344000D01*
X149860000Y-133985000D02*
X134620000Y-133985000D01*
X149860000Y-116205000D02*
X134620000Y-116205000D01*
X149860000Y-133985000D02*
X149860000Y-116205000D01*
X134620000Y-116205000D02*
X134620000Y-133985000D01*
D10*
X138893334Y-133038810D02*
X138779048Y-133076905D01*
X138588572Y-133076905D01*
X138512382Y-133038810D01*
X138474286Y-133000714D01*
X138436191Y-132924524D01*
X138436191Y-132848333D01*
X138474286Y-132772143D01*
X138512382Y-132734048D01*
X138588572Y-132695952D01*
X138740953Y-132657857D01*
X138817144Y-132619762D01*
X138855239Y-132581667D01*
X138893334Y-132505476D01*
X138893334Y-132429286D01*
X138855239Y-132353095D01*
X138817144Y-132315000D01*
X138740953Y-132276905D01*
X138550477Y-132276905D01*
X138436191Y-132315000D01*
X138664763Y-132162619D02*
X138664763Y-133191190D01*
X138093334Y-132657857D02*
X137826667Y-132657857D01*
X137712381Y-133076905D02*
X138093334Y-133076905D01*
X138093334Y-132276905D01*
X137712381Y-132276905D01*
X137217143Y-132276905D02*
X137140952Y-132276905D01*
X137064762Y-132315000D01*
X137026667Y-132353095D01*
X136988571Y-132429286D01*
X136950476Y-132581667D01*
X136950476Y-132772143D01*
X136988571Y-132924524D01*
X137026667Y-133000714D01*
X137064762Y-133038810D01*
X137140952Y-133076905D01*
X137217143Y-133076905D01*
X137293333Y-133038810D01*
X137331429Y-133000714D01*
X137369524Y-132924524D01*
X137407619Y-132772143D01*
X137407619Y-132581667D01*
X137369524Y-132429286D01*
X137331429Y-132353095D01*
X137293333Y-132315000D01*
X137217143Y-132276905D01*
X136455238Y-132276905D02*
X136379047Y-132276905D01*
X136302857Y-132315000D01*
X136264762Y-132353095D01*
X136226666Y-132429286D01*
X136188571Y-132581667D01*
X136188571Y-132772143D01*
X136226666Y-132924524D01*
X136264762Y-133000714D01*
X136302857Y-133038810D01*
X136379047Y-133076905D01*
X136455238Y-133076905D01*
X136531428Y-133038810D01*
X136569524Y-133000714D01*
X136607619Y-132924524D01*
X136645714Y-132772143D01*
X136645714Y-132581667D01*
X136607619Y-132429286D01*
X136569524Y-132353095D01*
X136531428Y-132315000D01*
X136455238Y-132276905D01*
X135693333Y-132276905D02*
X135617142Y-132276905D01*
X135540952Y-132315000D01*
X135502857Y-132353095D01*
X135464761Y-132429286D01*
X135426666Y-132581667D01*
X135426666Y-132772143D01*
X135464761Y-132924524D01*
X135502857Y-133000714D01*
X135540952Y-133038810D01*
X135617142Y-133076905D01*
X135693333Y-133076905D01*
X135769523Y-133038810D01*
X135807619Y-133000714D01*
X135845714Y-132924524D01*
X135883809Y-132772143D01*
X135883809Y-132581667D01*
X135845714Y-132429286D01*
X135807619Y-132353095D01*
X135769523Y-132315000D01*
X135693333Y-132276905D01*
X138931429Y-130498810D02*
X138817143Y-130536905D01*
X138626667Y-130536905D01*
X138550477Y-130498810D01*
X138512381Y-130460714D01*
X138474286Y-130384524D01*
X138474286Y-130308333D01*
X138512381Y-130232143D01*
X138550477Y-130194048D01*
X138626667Y-130155952D01*
X138779048Y-130117857D01*
X138855239Y-130079762D01*
X138893334Y-130041667D01*
X138931429Y-129965476D01*
X138931429Y-129889286D01*
X138893334Y-129813095D01*
X138855239Y-129775000D01*
X138779048Y-129736905D01*
X138588572Y-129736905D01*
X138474286Y-129775000D01*
X138702858Y-129622619D02*
X138702858Y-130651190D01*
X138131429Y-130536905D02*
X138131429Y-129736905D01*
X137940953Y-129736905D01*
X137826667Y-129775000D01*
X137750476Y-129851190D01*
X137712381Y-129927381D01*
X137674286Y-130079762D01*
X137674286Y-130194048D01*
X137712381Y-130346429D01*
X137750476Y-130422619D01*
X137826667Y-130498810D01*
X137940953Y-130536905D01*
X138131429Y-130536905D01*
X137179048Y-129736905D02*
X137102857Y-129736905D01*
X137026667Y-129775000D01*
X136988572Y-129813095D01*
X136950476Y-129889286D01*
X136912381Y-130041667D01*
X136912381Y-130232143D01*
X136950476Y-130384524D01*
X136988572Y-130460714D01*
X137026667Y-130498810D01*
X137102857Y-130536905D01*
X137179048Y-130536905D01*
X137255238Y-130498810D01*
X137293334Y-130460714D01*
X137331429Y-130384524D01*
X137369524Y-130232143D01*
X137369524Y-130041667D01*
X137331429Y-129889286D01*
X137293334Y-129813095D01*
X137255238Y-129775000D01*
X137179048Y-129736905D01*
X136417143Y-129736905D02*
X136340952Y-129736905D01*
X136264762Y-129775000D01*
X136226667Y-129813095D01*
X136188571Y-129889286D01*
X136150476Y-130041667D01*
X136150476Y-130232143D01*
X136188571Y-130384524D01*
X136226667Y-130460714D01*
X136264762Y-130498810D01*
X136340952Y-130536905D01*
X136417143Y-130536905D01*
X136493333Y-130498810D01*
X136531429Y-130460714D01*
X136569524Y-130384524D01*
X136607619Y-130232143D01*
X136607619Y-130041667D01*
X136569524Y-129889286D01*
X136531429Y-129813095D01*
X136493333Y-129775000D01*
X136417143Y-129736905D01*
X135655238Y-129736905D02*
X135579047Y-129736905D01*
X135502857Y-129775000D01*
X135464762Y-129813095D01*
X135426666Y-129889286D01*
X135388571Y-130041667D01*
X135388571Y-130232143D01*
X135426666Y-130384524D01*
X135464762Y-130460714D01*
X135502857Y-130498810D01*
X135579047Y-130536905D01*
X135655238Y-130536905D01*
X135731428Y-130498810D01*
X135769524Y-130460714D01*
X135807619Y-130384524D01*
X135845714Y-130232143D01*
X135845714Y-130041667D01*
X135807619Y-129889286D01*
X135769524Y-129813095D01*
X135731428Y-129775000D01*
X135655238Y-129736905D01*
X138931429Y-127958810D02*
X138817143Y-127996905D01*
X138626667Y-127996905D01*
X138550477Y-127958810D01*
X138512381Y-127920714D01*
X138474286Y-127844524D01*
X138474286Y-127768333D01*
X138512381Y-127692143D01*
X138550477Y-127654048D01*
X138626667Y-127615952D01*
X138779048Y-127577857D01*
X138855239Y-127539762D01*
X138893334Y-127501667D01*
X138931429Y-127425476D01*
X138931429Y-127349286D01*
X138893334Y-127273095D01*
X138855239Y-127235000D01*
X138779048Y-127196905D01*
X138588572Y-127196905D01*
X138474286Y-127235000D01*
X138702858Y-127082619D02*
X138702858Y-128111190D01*
X137674286Y-127920714D02*
X137712381Y-127958810D01*
X137826667Y-127996905D01*
X137902857Y-127996905D01*
X138017143Y-127958810D01*
X138093334Y-127882619D01*
X138131429Y-127806429D01*
X138169524Y-127654048D01*
X138169524Y-127539762D01*
X138131429Y-127387381D01*
X138093334Y-127311190D01*
X138017143Y-127235000D01*
X137902857Y-127196905D01*
X137826667Y-127196905D01*
X137712381Y-127235000D01*
X137674286Y-127273095D01*
X137179048Y-127196905D02*
X137102857Y-127196905D01*
X137026667Y-127235000D01*
X136988572Y-127273095D01*
X136950476Y-127349286D01*
X136912381Y-127501667D01*
X136912381Y-127692143D01*
X136950476Y-127844524D01*
X136988572Y-127920714D01*
X137026667Y-127958810D01*
X137102857Y-127996905D01*
X137179048Y-127996905D01*
X137255238Y-127958810D01*
X137293334Y-127920714D01*
X137331429Y-127844524D01*
X137369524Y-127692143D01*
X137369524Y-127501667D01*
X137331429Y-127349286D01*
X137293334Y-127273095D01*
X137255238Y-127235000D01*
X137179048Y-127196905D01*
X136417143Y-127196905D02*
X136340952Y-127196905D01*
X136264762Y-127235000D01*
X136226667Y-127273095D01*
X136188571Y-127349286D01*
X136150476Y-127501667D01*
X136150476Y-127692143D01*
X136188571Y-127844524D01*
X136226667Y-127920714D01*
X136264762Y-127958810D01*
X136340952Y-127996905D01*
X136417143Y-127996905D01*
X136493333Y-127958810D01*
X136531429Y-127920714D01*
X136569524Y-127844524D01*
X136607619Y-127692143D01*
X136607619Y-127501667D01*
X136569524Y-127349286D01*
X136531429Y-127273095D01*
X136493333Y-127235000D01*
X136417143Y-127196905D01*
X135655238Y-127196905D02*
X135579047Y-127196905D01*
X135502857Y-127235000D01*
X135464762Y-127273095D01*
X135426666Y-127349286D01*
X135388571Y-127501667D01*
X135388571Y-127692143D01*
X135426666Y-127844524D01*
X135464762Y-127920714D01*
X135502857Y-127958810D01*
X135579047Y-127996905D01*
X135655238Y-127996905D01*
X135731428Y-127958810D01*
X135769524Y-127920714D01*
X135807619Y-127844524D01*
X135845714Y-127692143D01*
X135845714Y-127501667D01*
X135807619Y-127349286D01*
X135769524Y-127273095D01*
X135731428Y-127235000D01*
X135655238Y-127196905D01*
X138874286Y-122878810D02*
X138760000Y-122916905D01*
X138569524Y-122916905D01*
X138493334Y-122878810D01*
X138455238Y-122840714D01*
X138417143Y-122764524D01*
X138417143Y-122688333D01*
X138455238Y-122612143D01*
X138493334Y-122574048D01*
X138569524Y-122535952D01*
X138721905Y-122497857D01*
X138798096Y-122459762D01*
X138836191Y-122421667D01*
X138874286Y-122345476D01*
X138874286Y-122269286D01*
X138836191Y-122193095D01*
X138798096Y-122155000D01*
X138721905Y-122116905D01*
X138531429Y-122116905D01*
X138417143Y-122155000D01*
X138645715Y-122002619D02*
X138645715Y-123031190D01*
X138112381Y-122688333D02*
X137731429Y-122688333D01*
X138188572Y-122916905D02*
X137921905Y-122116905D01*
X137655238Y-122916905D01*
X137236191Y-122116905D02*
X137160000Y-122116905D01*
X137083810Y-122155000D01*
X137045715Y-122193095D01*
X137007619Y-122269286D01*
X136969524Y-122421667D01*
X136969524Y-122612143D01*
X137007619Y-122764524D01*
X137045715Y-122840714D01*
X137083810Y-122878810D01*
X137160000Y-122916905D01*
X137236191Y-122916905D01*
X137312381Y-122878810D01*
X137350477Y-122840714D01*
X137388572Y-122764524D01*
X137426667Y-122612143D01*
X137426667Y-122421667D01*
X137388572Y-122269286D01*
X137350477Y-122193095D01*
X137312381Y-122155000D01*
X137236191Y-122116905D01*
X136474286Y-122116905D02*
X136398095Y-122116905D01*
X136321905Y-122155000D01*
X136283810Y-122193095D01*
X136245714Y-122269286D01*
X136207619Y-122421667D01*
X136207619Y-122612143D01*
X136245714Y-122764524D01*
X136283810Y-122840714D01*
X136321905Y-122878810D01*
X136398095Y-122916905D01*
X136474286Y-122916905D01*
X136550476Y-122878810D01*
X136588572Y-122840714D01*
X136626667Y-122764524D01*
X136664762Y-122612143D01*
X136664762Y-122421667D01*
X136626667Y-122269286D01*
X136588572Y-122193095D01*
X136550476Y-122155000D01*
X136474286Y-122116905D01*
X135712381Y-122116905D02*
X135636190Y-122116905D01*
X135560000Y-122155000D01*
X135521905Y-122193095D01*
X135483809Y-122269286D01*
X135445714Y-122421667D01*
X135445714Y-122612143D01*
X135483809Y-122764524D01*
X135521905Y-122840714D01*
X135560000Y-122878810D01*
X135636190Y-122916905D01*
X135712381Y-122916905D01*
X135788571Y-122878810D01*
X135826667Y-122840714D01*
X135864762Y-122764524D01*
X135902857Y-122612143D01*
X135902857Y-122421667D01*
X135864762Y-122269286D01*
X135826667Y-122193095D01*
X135788571Y-122155000D01*
X135712381Y-122116905D01*
X138912381Y-120338810D02*
X138798095Y-120376905D01*
X138607619Y-120376905D01*
X138531429Y-120338810D01*
X138493333Y-120300714D01*
X138455238Y-120224524D01*
X138455238Y-120148333D01*
X138493333Y-120072143D01*
X138531429Y-120034048D01*
X138607619Y-119995952D01*
X138760000Y-119957857D01*
X138836191Y-119919762D01*
X138874286Y-119881667D01*
X138912381Y-119805476D01*
X138912381Y-119729286D01*
X138874286Y-119653095D01*
X138836191Y-119615000D01*
X138760000Y-119576905D01*
X138569524Y-119576905D01*
X138455238Y-119615000D01*
X138683810Y-119462619D02*
X138683810Y-120491190D01*
X138074286Y-120376905D02*
X137921905Y-120376905D01*
X137845714Y-120338810D01*
X137807619Y-120300714D01*
X137731428Y-120186429D01*
X137693333Y-120034048D01*
X137693333Y-119729286D01*
X137731428Y-119653095D01*
X137769524Y-119615000D01*
X137845714Y-119576905D01*
X137998095Y-119576905D01*
X138074286Y-119615000D01*
X138112381Y-119653095D01*
X138150476Y-119729286D01*
X138150476Y-119919762D01*
X138112381Y-119995952D01*
X138074286Y-120034048D01*
X137998095Y-120072143D01*
X137845714Y-120072143D01*
X137769524Y-120034048D01*
X137731428Y-119995952D01*
X137693333Y-119919762D01*
X137198095Y-119576905D02*
X137121904Y-119576905D01*
X137045714Y-119615000D01*
X137007619Y-119653095D01*
X136969523Y-119729286D01*
X136931428Y-119881667D01*
X136931428Y-120072143D01*
X136969523Y-120224524D01*
X137007619Y-120300714D01*
X137045714Y-120338810D01*
X137121904Y-120376905D01*
X137198095Y-120376905D01*
X137274285Y-120338810D01*
X137312381Y-120300714D01*
X137350476Y-120224524D01*
X137388571Y-120072143D01*
X137388571Y-119881667D01*
X137350476Y-119729286D01*
X137312381Y-119653095D01*
X137274285Y-119615000D01*
X137198095Y-119576905D01*
X136436190Y-119576905D02*
X136359999Y-119576905D01*
X136283809Y-119615000D01*
X136245714Y-119653095D01*
X136207618Y-119729286D01*
X136169523Y-119881667D01*
X136169523Y-120072143D01*
X136207618Y-120224524D01*
X136245714Y-120300714D01*
X136283809Y-120338810D01*
X136359999Y-120376905D01*
X136436190Y-120376905D01*
X136512380Y-120338810D01*
X136550476Y-120300714D01*
X136588571Y-120224524D01*
X136626666Y-120072143D01*
X136626666Y-119881667D01*
X136588571Y-119729286D01*
X136550476Y-119653095D01*
X136512380Y-119615000D01*
X136436190Y-119576905D01*
X135674285Y-119576905D02*
X135598094Y-119576905D01*
X135521904Y-119615000D01*
X135483809Y-119653095D01*
X135445713Y-119729286D01*
X135407618Y-119881667D01*
X135407618Y-120072143D01*
X135445713Y-120224524D01*
X135483809Y-120300714D01*
X135521904Y-120338810D01*
X135598094Y-120376905D01*
X135674285Y-120376905D01*
X135750475Y-120338810D01*
X135788571Y-120300714D01*
X135826666Y-120224524D01*
X135864761Y-120072143D01*
X135864761Y-119881667D01*
X135826666Y-119729286D01*
X135788571Y-119653095D01*
X135750475Y-119615000D01*
X135674285Y-119576905D01*
X138912381Y-117798810D02*
X138798095Y-117836905D01*
X138607619Y-117836905D01*
X138531429Y-117798810D01*
X138493333Y-117760714D01*
X138455238Y-117684524D01*
X138455238Y-117608333D01*
X138493333Y-117532143D01*
X138531429Y-117494048D01*
X138607619Y-117455952D01*
X138760000Y-117417857D01*
X138836191Y-117379762D01*
X138874286Y-117341667D01*
X138912381Y-117265476D01*
X138912381Y-117189286D01*
X138874286Y-117113095D01*
X138836191Y-117075000D01*
X138760000Y-117036905D01*
X138569524Y-117036905D01*
X138455238Y-117075000D01*
X138683810Y-116922619D02*
X138683810Y-117951190D01*
X137998095Y-117379762D02*
X138074286Y-117341667D01*
X138112381Y-117303571D01*
X138150476Y-117227381D01*
X138150476Y-117189286D01*
X138112381Y-117113095D01*
X138074286Y-117075000D01*
X137998095Y-117036905D01*
X137845714Y-117036905D01*
X137769524Y-117075000D01*
X137731428Y-117113095D01*
X137693333Y-117189286D01*
X137693333Y-117227381D01*
X137731428Y-117303571D01*
X137769524Y-117341667D01*
X137845714Y-117379762D01*
X137998095Y-117379762D01*
X138074286Y-117417857D01*
X138112381Y-117455952D01*
X138150476Y-117532143D01*
X138150476Y-117684524D01*
X138112381Y-117760714D01*
X138074286Y-117798810D01*
X137998095Y-117836905D01*
X137845714Y-117836905D01*
X137769524Y-117798810D01*
X137731428Y-117760714D01*
X137693333Y-117684524D01*
X137693333Y-117532143D01*
X137731428Y-117455952D01*
X137769524Y-117417857D01*
X137845714Y-117379762D01*
X137198095Y-117036905D02*
X137121904Y-117036905D01*
X137045714Y-117075000D01*
X137007619Y-117113095D01*
X136969523Y-117189286D01*
X136931428Y-117341667D01*
X136931428Y-117532143D01*
X136969523Y-117684524D01*
X137007619Y-117760714D01*
X137045714Y-117798810D01*
X137121904Y-117836905D01*
X137198095Y-117836905D01*
X137274285Y-117798810D01*
X137312381Y-117760714D01*
X137350476Y-117684524D01*
X137388571Y-117532143D01*
X137388571Y-117341667D01*
X137350476Y-117189286D01*
X137312381Y-117113095D01*
X137274285Y-117075000D01*
X137198095Y-117036905D01*
X136436190Y-117036905D02*
X136359999Y-117036905D01*
X136283809Y-117075000D01*
X136245714Y-117113095D01*
X136207618Y-117189286D01*
X136169523Y-117341667D01*
X136169523Y-117532143D01*
X136207618Y-117684524D01*
X136245714Y-117760714D01*
X136283809Y-117798810D01*
X136359999Y-117836905D01*
X136436190Y-117836905D01*
X136512380Y-117798810D01*
X136550476Y-117760714D01*
X136588571Y-117684524D01*
X136626666Y-117532143D01*
X136626666Y-117341667D01*
X136588571Y-117189286D01*
X136550476Y-117113095D01*
X136512380Y-117075000D01*
X136436190Y-117036905D01*
X135674285Y-117036905D02*
X135598094Y-117036905D01*
X135521904Y-117075000D01*
X135483809Y-117113095D01*
X135445713Y-117189286D01*
X135407618Y-117341667D01*
X135407618Y-117532143D01*
X135445713Y-117684524D01*
X135483809Y-117760714D01*
X135521904Y-117798810D01*
X135598094Y-117836905D01*
X135674285Y-117836905D01*
X135750475Y-117798810D01*
X135788571Y-117760714D01*
X135826666Y-117684524D01*
X135864761Y-117532143D01*
X135864761Y-117341667D01*
X135826666Y-117189286D01*
X135788571Y-117113095D01*
X135750475Y-117075000D01*
X135674285Y-117036905D01*
X138931429Y-125418810D02*
X138817143Y-125456905D01*
X138626667Y-125456905D01*
X138550477Y-125418810D01*
X138512381Y-125380714D01*
X138474286Y-125304524D01*
X138474286Y-125228333D01*
X138512381Y-125152143D01*
X138550477Y-125114048D01*
X138626667Y-125075952D01*
X138779048Y-125037857D01*
X138855239Y-124999762D01*
X138893334Y-124961667D01*
X138931429Y-124885476D01*
X138931429Y-124809286D01*
X138893334Y-124733095D01*
X138855239Y-124695000D01*
X138779048Y-124656905D01*
X138588572Y-124656905D01*
X138474286Y-124695000D01*
X138702858Y-124542619D02*
X138702858Y-125571190D01*
X137864762Y-125037857D02*
X137750476Y-125075952D01*
X137712381Y-125114048D01*
X137674286Y-125190238D01*
X137674286Y-125304524D01*
X137712381Y-125380714D01*
X137750476Y-125418810D01*
X137826667Y-125456905D01*
X138131429Y-125456905D01*
X138131429Y-124656905D01*
X137864762Y-124656905D01*
X137788572Y-124695000D01*
X137750476Y-124733095D01*
X137712381Y-124809286D01*
X137712381Y-124885476D01*
X137750476Y-124961667D01*
X137788572Y-124999762D01*
X137864762Y-125037857D01*
X138131429Y-125037857D01*
X137179048Y-124656905D02*
X137102857Y-124656905D01*
X137026667Y-124695000D01*
X136988572Y-124733095D01*
X136950476Y-124809286D01*
X136912381Y-124961667D01*
X136912381Y-125152143D01*
X136950476Y-125304524D01*
X136988572Y-125380714D01*
X137026667Y-125418810D01*
X137102857Y-125456905D01*
X137179048Y-125456905D01*
X137255238Y-125418810D01*
X137293334Y-125380714D01*
X137331429Y-125304524D01*
X137369524Y-125152143D01*
X137369524Y-124961667D01*
X137331429Y-124809286D01*
X137293334Y-124733095D01*
X137255238Y-124695000D01*
X137179048Y-124656905D01*
X136417143Y-124656905D02*
X136340952Y-124656905D01*
X136264762Y-124695000D01*
X136226667Y-124733095D01*
X136188571Y-124809286D01*
X136150476Y-124961667D01*
X136150476Y-125152143D01*
X136188571Y-125304524D01*
X136226667Y-125380714D01*
X136264762Y-125418810D01*
X136340952Y-125456905D01*
X136417143Y-125456905D01*
X136493333Y-125418810D01*
X136531429Y-125380714D01*
X136569524Y-125304524D01*
X136607619Y-125152143D01*
X136607619Y-124961667D01*
X136569524Y-124809286D01*
X136531429Y-124733095D01*
X136493333Y-124695000D01*
X136417143Y-124656905D01*
X135655238Y-124656905D02*
X135579047Y-124656905D01*
X135502857Y-124695000D01*
X135464762Y-124733095D01*
X135426666Y-124809286D01*
X135388571Y-124961667D01*
X135388571Y-125152143D01*
X135426666Y-125304524D01*
X135464762Y-125380714D01*
X135502857Y-125418810D01*
X135579047Y-125456905D01*
X135655238Y-125456905D01*
X135731428Y-125418810D01*
X135769524Y-125380714D01*
X135807619Y-125304524D01*
X135845714Y-125152143D01*
X135845714Y-124961667D01*
X135807619Y-124809286D01*
X135769524Y-124733095D01*
X135731428Y-124695000D01*
X135655238Y-124656905D01*
M02*
