G04 #@! TF.FileFunction,Copper,L2,Bot,Signal*
%FSLAX46Y46*%
G04 Gerber Fmt 4.6, Leading zero omitted, Abs format (unit mm)*
G04 Created by KiCad (PCBNEW 4.0.7) date 02/13/19 15:00:39*
%MOMM*%
%LPD*%
G01*
G04 APERTURE LIST*
%ADD10C,0.100000*%
%ADD11C,1.600000*%
%ADD12R,1.600000X1.600000*%
%ADD13O,1.600000X1.600000*%
%ADD14C,1.524000*%
%ADD15R,1.700000X1.700000*%
%ADD16O,1.700000X1.700000*%
%ADD17O,3.197860X1.998980*%
%ADD18O,1.998980X3.197860*%
%ADD19C,1.440000*%
%ADD20C,0.600000*%
%ADD21C,0.250000*%
%ADD22C,0.254000*%
G04 APERTURE END LIST*
D10*
D11*
X54610000Y-132715000D03*
X54610000Y-127715000D03*
X139700000Y-111125000D03*
X134700000Y-111125000D03*
D12*
X133350000Y-114935000D03*
D13*
X140970000Y-132715000D03*
X133350000Y-117475000D03*
X140970000Y-130175000D03*
X133350000Y-120015000D03*
X140970000Y-127635000D03*
X133350000Y-122555000D03*
X140970000Y-125095000D03*
X133350000Y-125095000D03*
X140970000Y-122555000D03*
X133350000Y-127635000D03*
X140970000Y-120015000D03*
X133350000Y-130175000D03*
X140970000Y-117475000D03*
X133350000Y-132715000D03*
X140970000Y-114935000D03*
D11*
X87630000Y-85725000D03*
X87630000Y-93345000D03*
D12*
X95250000Y-85725000D03*
D11*
X95250000Y-93345000D03*
X80010000Y-93345000D03*
X80010000Y-85725000D03*
D14*
X100330000Y-91440000D03*
X100330000Y-93980000D03*
X100330000Y-96520000D03*
X100330000Y-99060000D03*
X134620000Y-91440000D03*
X134620000Y-93980000D03*
X134620000Y-96520000D03*
X134620000Y-99060000D03*
D15*
X146050000Y-117475000D03*
D16*
X148590000Y-117475000D03*
X146050000Y-120015000D03*
X148590000Y-120015000D03*
X146050000Y-122555000D03*
X148590000Y-122555000D03*
X146050000Y-125095000D03*
X148590000Y-125095000D03*
X146050000Y-127635000D03*
X148590000Y-127635000D03*
X146050000Y-130175000D03*
X148590000Y-130175000D03*
X146050000Y-132715000D03*
X148590000Y-132715000D03*
D11*
X83820000Y-81280000D03*
X83820000Y-76280000D03*
X80645000Y-81280000D03*
X80645000Y-76280000D03*
X62865000Y-81280000D03*
X62865000Y-76280000D03*
X59690000Y-81280000D03*
X59690000Y-76280000D03*
X111760000Y-113792000D03*
X106760000Y-113792000D03*
X123952000Y-113792000D03*
X118952000Y-113792000D03*
X99695000Y-80645000D03*
X104695000Y-80645000D03*
X99695000Y-76835000D03*
X104695000Y-76835000D03*
X103632000Y-106680000D03*
X98632000Y-106680000D03*
X103632000Y-113792000D03*
X98632000Y-113792000D03*
D17*
X142875000Y-97155000D03*
D18*
X145415000Y-100965000D03*
D17*
X142875000Y-104775000D03*
X142875000Y-84455000D03*
D18*
X145415000Y-88265000D03*
D17*
X142875000Y-92075000D03*
D15*
X150495000Y-142875000D03*
D16*
X147955000Y-142875000D03*
X145415000Y-142875000D03*
X142875000Y-142875000D03*
X140335000Y-142875000D03*
X137795000Y-142875000D03*
X135255000Y-142875000D03*
X132715000Y-142875000D03*
X130175000Y-142875000D03*
X127635000Y-142875000D03*
X125095000Y-142875000D03*
X122555000Y-142875000D03*
X120015000Y-142875000D03*
X117475000Y-142875000D03*
X114935000Y-142875000D03*
X112395000Y-142875000D03*
X109855000Y-142875000D03*
X107315000Y-142875000D03*
X104775000Y-142875000D03*
X102235000Y-142875000D03*
X99695000Y-142875000D03*
X97155000Y-142875000D03*
X94615000Y-142875000D03*
X92075000Y-142875000D03*
X89535000Y-142875000D03*
X86995000Y-142875000D03*
X84455000Y-142875000D03*
X81915000Y-142875000D03*
X79375000Y-142875000D03*
X76835000Y-142875000D03*
X74295000Y-142875000D03*
X71755000Y-142875000D03*
X69215000Y-142875000D03*
X66675000Y-142875000D03*
X64135000Y-142875000D03*
X61595000Y-142875000D03*
X59055000Y-142875000D03*
X56515000Y-142875000D03*
X53975000Y-142875000D03*
D15*
X56261000Y-87376000D03*
D16*
X56261000Y-89916000D03*
D15*
X128905000Y-114935000D03*
D16*
X128905000Y-117475000D03*
X128905000Y-120015000D03*
D15*
X128905000Y-127635000D03*
D16*
X128905000Y-130175000D03*
X128905000Y-132715000D03*
D15*
X90170000Y-76835000D03*
D16*
X87630000Y-76835000D03*
D15*
X90170000Y-80645000D03*
D16*
X87630000Y-80645000D03*
D11*
X82804000Y-117856000D03*
D13*
X82804000Y-128016000D03*
D11*
X86868000Y-117856000D03*
D13*
X86868000Y-128016000D03*
D11*
X90932000Y-117856000D03*
D13*
X90932000Y-128016000D03*
D11*
X94996000Y-117856000D03*
D13*
X94996000Y-128016000D03*
D11*
X99060000Y-117856000D03*
D13*
X99060000Y-128016000D03*
D11*
X103124000Y-117856000D03*
D13*
X103124000Y-128016000D03*
D11*
X107188000Y-117856000D03*
D13*
X107188000Y-128016000D03*
D11*
X111252000Y-117856000D03*
D13*
X111252000Y-128016000D03*
D11*
X115316000Y-117856000D03*
D13*
X115316000Y-128016000D03*
D11*
X119380000Y-117856000D03*
D13*
X119380000Y-128016000D03*
D11*
X123444000Y-117856000D03*
D13*
X123444000Y-128016000D03*
D11*
X86868000Y-104140000D03*
D13*
X86868000Y-114300000D03*
D11*
X94996000Y-104140000D03*
D13*
X94996000Y-114300000D03*
D11*
X90932000Y-104140000D03*
D13*
X90932000Y-114300000D03*
D11*
X117475000Y-80645000D03*
D13*
X107315000Y-80645000D03*
D11*
X117475000Y-76835000D03*
D13*
X107315000Y-76835000D03*
D11*
X130175000Y-80645000D03*
D13*
X120015000Y-80645000D03*
D11*
X130175000Y-76835000D03*
D13*
X120015000Y-76835000D03*
D19*
X55372000Y-77724000D03*
X55372000Y-80264000D03*
X55372000Y-82804000D03*
D12*
X59690000Y-84455000D03*
D13*
X74930000Y-132715000D03*
X59690000Y-86995000D03*
X74930000Y-130175000D03*
X59690000Y-89535000D03*
X74930000Y-127635000D03*
X59690000Y-92075000D03*
X74930000Y-125095000D03*
X59690000Y-94615000D03*
X74930000Y-122555000D03*
X59690000Y-97155000D03*
X74930000Y-120015000D03*
X59690000Y-99695000D03*
X74930000Y-117475000D03*
X59690000Y-102235000D03*
X74930000Y-114935000D03*
X59690000Y-104775000D03*
X74930000Y-112395000D03*
X59690000Y-107315000D03*
X74930000Y-109855000D03*
X59690000Y-109855000D03*
X74930000Y-107315000D03*
X59690000Y-112395000D03*
X74930000Y-104775000D03*
X59690000Y-114935000D03*
X74930000Y-102235000D03*
X59690000Y-117475000D03*
X74930000Y-99695000D03*
X59690000Y-120015000D03*
X74930000Y-97155000D03*
X59690000Y-122555000D03*
X74930000Y-94615000D03*
X59690000Y-125095000D03*
X74930000Y-92075000D03*
X59690000Y-127635000D03*
X74930000Y-89535000D03*
X59690000Y-130175000D03*
X74930000Y-86995000D03*
X59690000Y-132715000D03*
X74930000Y-84455000D03*
D15*
X75565000Y-78105000D03*
D16*
X73025000Y-78105000D03*
X70485000Y-78105000D03*
X67945000Y-78105000D03*
D20*
X67945000Y-128270000D03*
X67945000Y-134620000D03*
X84328000Y-97536000D03*
X84328000Y-99568000D03*
X86868000Y-122428000D03*
X103632000Y-134620000D03*
X67310000Y-140970000D03*
X70485000Y-140970000D03*
X104140000Y-140970000D03*
X112395000Y-140970000D03*
X64770000Y-104775000D03*
X72390000Y-111125000D03*
X114300000Y-125095000D03*
X112395000Y-125095000D03*
X106680000Y-125095000D03*
X104140000Y-125095000D03*
X64770000Y-98425000D03*
X67945000Y-98425000D03*
X72390000Y-135255000D03*
X103505000Y-137795000D03*
X71755000Y-134620000D03*
X104140000Y-138430000D03*
X71120000Y-135255000D03*
X103505000Y-139065000D03*
X70485000Y-134620000D03*
X104140000Y-139700000D03*
X103505000Y-140335000D03*
X69850000Y-135255000D03*
X102870000Y-137160000D03*
X102235000Y-134620000D03*
X92075000Y-137160000D03*
X91440000Y-133350000D03*
X89535000Y-137160000D03*
X88900000Y-135890000D03*
X69215000Y-134620000D03*
X68580000Y-135255000D03*
X53975000Y-79375000D03*
X57785000Y-78105000D03*
X66040000Y-80645000D03*
X73025000Y-80645000D03*
X66675000Y-80010000D03*
X74930000Y-80010000D03*
X53975000Y-94615000D03*
X53340000Y-77724000D03*
X55880000Y-106680000D03*
X67945000Y-99695000D03*
X69215000Y-100965000D03*
X66675000Y-99695000D03*
X70485000Y-103505000D03*
X64770000Y-94615000D03*
X66675000Y-95885000D03*
X64770000Y-99695000D03*
X71120000Y-105410000D03*
X67945000Y-102235000D03*
X103505000Y-124460000D03*
X106045000Y-124460000D03*
X64770000Y-102235000D03*
X71755000Y-108585000D03*
X73660000Y-93345000D03*
X67310000Y-93345000D03*
X64770000Y-93345000D03*
X56515000Y-109220000D03*
X139700000Y-134620000D03*
X135255000Y-133985000D03*
X140335000Y-135255000D03*
X136525000Y-135255000D03*
X140970000Y-135890000D03*
X138430000Y-135890000D03*
D21*
X132080000Y-76835000D02*
X132715000Y-76835000D01*
X149860000Y-81915000D02*
X150495000Y-82550000D01*
X137795000Y-81915000D02*
X149860000Y-81915000D01*
X132715000Y-76835000D02*
X137795000Y-81915000D01*
X130175000Y-76835000D02*
X132080000Y-76835000D01*
X150495000Y-82550000D02*
X151130000Y-83185000D01*
X151130000Y-111760000D02*
X151130000Y-83185000D01*
X68580000Y-127635000D02*
X67945000Y-128270000D01*
X74930000Y-127635000D02*
X68580000Y-127635000D01*
X67945000Y-140335000D02*
X67310000Y-140970000D01*
X67945000Y-134620000D02*
X67945000Y-140335000D01*
X84328000Y-99568000D02*
X84328000Y-97536000D01*
X86868000Y-128016000D02*
X86868000Y-122428000D01*
X104140000Y-140970000D02*
X104140000Y-140716000D01*
X103632000Y-136144000D02*
X103632000Y-134620000D01*
X105156000Y-137668000D02*
X103632000Y-136144000D01*
X105156000Y-139700000D02*
X105156000Y-137668000D01*
X104140000Y-140716000D02*
X105156000Y-139700000D01*
X55245000Y-140970000D02*
X54610000Y-140335000D01*
X67310000Y-140970000D02*
X55245000Y-140970000D01*
X54610000Y-132715000D02*
X54610000Y-140335000D01*
X86995000Y-140970000D02*
X70485000Y-140970000D01*
X99060000Y-140970000D02*
X104140000Y-140970000D01*
X86995000Y-140970000D02*
X99060000Y-140970000D01*
X74295000Y-127635000D02*
X74930000Y-127635000D01*
X151130000Y-139700000D02*
X151130000Y-111760000D01*
X151130000Y-111760000D02*
X150495000Y-111125000D01*
X150495000Y-111125000D02*
X139700000Y-111125000D01*
X118745000Y-140970000D02*
X112395000Y-140970000D01*
X149860000Y-140970000D02*
X118745000Y-140970000D01*
X151130000Y-139700000D02*
X149860000Y-140970000D01*
X54610000Y-132715000D02*
X59690000Y-132715000D01*
X64770000Y-104775000D02*
X66675000Y-104775000D01*
X70485000Y-109220000D02*
X71120000Y-109855000D01*
X71120000Y-109855000D02*
X72390000Y-111125000D01*
X67945000Y-104775000D02*
X70485000Y-107315000D01*
X70485000Y-107315000D02*
X70485000Y-109220000D01*
X66675000Y-104775000D02*
X67945000Y-104775000D01*
X112395000Y-125095000D02*
X114300000Y-125095000D01*
X104140000Y-125095000D02*
X106680000Y-125095000D01*
X64770000Y-98425000D02*
X67945000Y-98425000D01*
X100330000Y-137795000D02*
X103505000Y-137795000D01*
X72390000Y-135255000D02*
X72390000Y-137160000D01*
X72390000Y-137160000D02*
X73025000Y-137795000D01*
X73025000Y-137795000D02*
X100330000Y-137795000D01*
X100330000Y-138430000D02*
X104140000Y-138430000D01*
X71755000Y-134620000D02*
X71755000Y-137795000D01*
X71755000Y-137795000D02*
X72390000Y-138430000D01*
X72390000Y-138430000D02*
X100330000Y-138430000D01*
X100330000Y-139065000D02*
X103505000Y-139065000D01*
X71120000Y-135255000D02*
X71120000Y-138430000D01*
X71120000Y-138430000D02*
X71755000Y-139065000D01*
X71755000Y-139065000D02*
X100330000Y-139065000D01*
X100965000Y-139700000D02*
X104140000Y-139700000D01*
X71120000Y-139700000D02*
X93345000Y-139700000D01*
X70485000Y-139065000D02*
X71120000Y-139700000D01*
X70485000Y-134620000D02*
X70485000Y-139065000D01*
X100965000Y-139700000D02*
X93345000Y-139700000D01*
X101600000Y-140335000D02*
X90170000Y-140335000D01*
X69850000Y-135255000D02*
X69850000Y-139700000D01*
X69850000Y-139700000D02*
X70485000Y-140335000D01*
X70485000Y-140335000D02*
X90170000Y-140335000D01*
X101600000Y-140335000D02*
X103505000Y-140335000D01*
X102870000Y-137160000D02*
X102870000Y-135255000D01*
X102870000Y-135255000D02*
X102235000Y-134620000D01*
X92075000Y-136525000D02*
X92075000Y-133985000D01*
X92075000Y-137160000D02*
X92075000Y-136525000D01*
X92075000Y-133985000D02*
X91440000Y-133350000D01*
X89535000Y-136525000D02*
X89535000Y-137160000D01*
X88900000Y-135890000D02*
X89535000Y-136525000D01*
X69215000Y-134620000D02*
X69215000Y-142875000D01*
X66675000Y-142875000D02*
X68580000Y-140970000D01*
X68580000Y-140970000D02*
X68580000Y-135255000D01*
X72390000Y-80645000D02*
X73025000Y-80645000D01*
X57785000Y-77470000D02*
X57785000Y-78105000D01*
X55245000Y-76200000D02*
X54610000Y-76200000D01*
X53975000Y-76835000D02*
X53975000Y-77470000D01*
X54610000Y-76200000D02*
X53975000Y-76835000D01*
X53975000Y-79375000D02*
X53975000Y-77470000D01*
X57785000Y-76835000D02*
X57785000Y-77470000D01*
X57150000Y-76200000D02*
X57785000Y-76835000D01*
X55245000Y-76200000D02*
X57150000Y-76200000D01*
X66040000Y-80645000D02*
X72390000Y-80645000D01*
X74295000Y-80010000D02*
X74930000Y-80010000D01*
X66675000Y-80010000D02*
X74295000Y-80010000D01*
X53975000Y-94615000D02*
X53340000Y-93980000D01*
X53340000Y-93980000D02*
X53340000Y-93345000D01*
X53340000Y-77724000D02*
X53340000Y-93345000D01*
X53340000Y-93345000D02*
X53340000Y-93472000D01*
X59690000Y-107315000D02*
X56515000Y-107315000D01*
X55880000Y-106680000D02*
X56515000Y-107315000D01*
X67945000Y-99695000D02*
X69215000Y-100965000D01*
X66675000Y-99695000D02*
X70485000Y-103505000D01*
X65405000Y-94615000D02*
X64770000Y-94615000D01*
X66675000Y-95885000D02*
X65405000Y-94615000D01*
X66675000Y-100965000D02*
X67945000Y-102235000D01*
X64770000Y-99695000D02*
X65405000Y-99695000D01*
X67945000Y-102235000D02*
X71120000Y-105410000D01*
X66675000Y-100965000D02*
X65405000Y-99695000D01*
X103505000Y-124460000D02*
X106045000Y-124460000D01*
X66675000Y-102235000D02*
X71120000Y-106680000D01*
X64770000Y-102235000D02*
X66675000Y-102235000D01*
X71120000Y-107950000D02*
X71755000Y-108585000D01*
X71120000Y-106680000D02*
X71120000Y-107950000D01*
X59690000Y-109855000D02*
X57150000Y-109855000D01*
X73660000Y-93345000D02*
X80010000Y-93345000D01*
X64770000Y-93345000D02*
X67310000Y-93345000D01*
X57150000Y-109855000D02*
X56515000Y-109220000D01*
X139700000Y-134620000D02*
X137795000Y-134620000D01*
X135890000Y-134620000D02*
X135255000Y-133985000D01*
X137795000Y-134620000D02*
X135890000Y-134620000D01*
X140335000Y-135255000D02*
X137795000Y-135255000D01*
X136525000Y-135255000D02*
X137795000Y-135255000D01*
X138430000Y-135890000D02*
X140970000Y-135890000D01*
D22*
G36*
X61430250Y-75993309D02*
X61429752Y-76564187D01*
X61647757Y-77091800D01*
X62051077Y-77495824D01*
X62578309Y-77714750D01*
X63149187Y-77715248D01*
X63676800Y-77497243D01*
X64080824Y-77093923D01*
X64299750Y-76566691D01*
X64300248Y-75995813D01*
X64153229Y-75640000D01*
X79356957Y-75640000D01*
X79210250Y-75993309D01*
X79209752Y-76564187D01*
X79427757Y-77091800D01*
X79831077Y-77495824D01*
X80358309Y-77714750D01*
X80929187Y-77715248D01*
X81456800Y-77497243D01*
X81860824Y-77093923D01*
X82079750Y-76566691D01*
X82080248Y-75995813D01*
X81933229Y-75640000D01*
X82531957Y-75640000D01*
X82385250Y-75993309D01*
X82384752Y-76564187D01*
X82602757Y-77091800D01*
X83006077Y-77495824D01*
X83533309Y-77714750D01*
X84104187Y-77715248D01*
X84631800Y-77497243D01*
X85035824Y-77093923D01*
X85254750Y-76566691D01*
X85255248Y-75995813D01*
X85108229Y-75640000D01*
X86753333Y-75640000D01*
X86579946Y-75755853D01*
X86258039Y-76237622D01*
X86145000Y-76805907D01*
X86145000Y-76864093D01*
X86258039Y-77432378D01*
X86579946Y-77914147D01*
X87061715Y-78236054D01*
X87630000Y-78349093D01*
X88198285Y-78236054D01*
X88680054Y-77914147D01*
X88707850Y-77872548D01*
X88716838Y-77920317D01*
X88855910Y-78136441D01*
X89068110Y-78281431D01*
X89320000Y-78332440D01*
X91020000Y-78332440D01*
X91255317Y-78288162D01*
X91471441Y-78149090D01*
X91616431Y-77936890D01*
X91667440Y-77685000D01*
X91667440Y-75985000D01*
X91623162Y-75749683D01*
X91552583Y-75640000D01*
X98860918Y-75640000D01*
X98479176Y-76021077D01*
X98260250Y-76548309D01*
X98259752Y-77119187D01*
X98477757Y-77646800D01*
X98881077Y-78050824D01*
X99408309Y-78269750D01*
X99979187Y-78270248D01*
X100506800Y-78052243D01*
X100716663Y-77842745D01*
X103866861Y-77842745D01*
X103940995Y-78088864D01*
X104478223Y-78281965D01*
X105048454Y-78254778D01*
X105449005Y-78088864D01*
X105523139Y-77842745D01*
X104695000Y-77014605D01*
X103866861Y-77842745D01*
X100716663Y-77842745D01*
X100910824Y-77648923D01*
X101129750Y-77121691D01*
X101130189Y-76618223D01*
X103248035Y-76618223D01*
X103275222Y-77188454D01*
X103441136Y-77589005D01*
X103687255Y-77663139D01*
X104515395Y-76835000D01*
X103687255Y-76006861D01*
X103441136Y-76080995D01*
X103248035Y-76618223D01*
X101130189Y-76618223D01*
X101130248Y-76550813D01*
X100912243Y-76023200D01*
X100529711Y-75640000D01*
X103923264Y-75640000D01*
X103866861Y-75827255D01*
X104695000Y-76655395D01*
X105523139Y-75827255D01*
X105466736Y-75640000D01*
X106542030Y-75640000D01*
X106272189Y-75820302D01*
X106005936Y-76218778D01*
X105948864Y-76080995D01*
X105702745Y-76006861D01*
X104874605Y-76835000D01*
X105702745Y-77663139D01*
X105948864Y-77589005D01*
X106001028Y-77443878D01*
X106272189Y-77849698D01*
X106737736Y-78160767D01*
X107286887Y-78270000D01*
X107343113Y-78270000D01*
X107892264Y-78160767D01*
X108357811Y-77849698D01*
X108668880Y-77384151D01*
X108778113Y-76835000D01*
X108668880Y-76285849D01*
X108357811Y-75820302D01*
X108087970Y-75640000D01*
X116640918Y-75640000D01*
X116259176Y-76021077D01*
X116040250Y-76548309D01*
X116039752Y-77119187D01*
X116257757Y-77646800D01*
X116661077Y-78050824D01*
X117188309Y-78269750D01*
X117759187Y-78270248D01*
X118286800Y-78052243D01*
X118690824Y-77648923D01*
X118747245Y-77513046D01*
X118972189Y-77849698D01*
X119437736Y-78160767D01*
X119986887Y-78270000D01*
X120043113Y-78270000D01*
X120592264Y-78160767D01*
X121057811Y-77849698D01*
X121368880Y-77384151D01*
X121478113Y-76835000D01*
X121368880Y-76285849D01*
X121057811Y-75820302D01*
X120787970Y-75640000D01*
X129340918Y-75640000D01*
X128959176Y-76021077D01*
X128740250Y-76548309D01*
X128739752Y-77119187D01*
X128957757Y-77646800D01*
X129361077Y-78050824D01*
X129888309Y-78269750D01*
X130459187Y-78270248D01*
X130986800Y-78052243D01*
X131390824Y-77648923D01*
X131413215Y-77595000D01*
X132400198Y-77595000D01*
X137257599Y-82452401D01*
X137504161Y-82617148D01*
X137795000Y-82675000D01*
X149545198Y-82675000D01*
X150370000Y-83499802D01*
X150370000Y-110365000D01*
X140938646Y-110365000D01*
X140917243Y-110313200D01*
X140513923Y-109909176D01*
X139986691Y-109690250D01*
X139415813Y-109689752D01*
X138888200Y-109907757D01*
X138484176Y-110311077D01*
X138265250Y-110838309D01*
X138264752Y-111409187D01*
X138482757Y-111936800D01*
X138886077Y-112340824D01*
X139413309Y-112559750D01*
X139984187Y-112560248D01*
X140511800Y-112342243D01*
X140915824Y-111938923D01*
X140938215Y-111885000D01*
X150180198Y-111885000D01*
X150370000Y-112074802D01*
X150370000Y-139385198D01*
X149545198Y-140210000D01*
X112957463Y-140210000D01*
X112925327Y-140177808D01*
X112581799Y-140035162D01*
X112209833Y-140034838D01*
X111866057Y-140176883D01*
X111602808Y-140439673D01*
X111460162Y-140783201D01*
X111459838Y-141155167D01*
X111601883Y-141498943D01*
X111676875Y-141574066D01*
X111344946Y-141795853D01*
X111117298Y-142136553D01*
X111050183Y-141993642D01*
X110621924Y-141603355D01*
X110211890Y-141433524D01*
X109982000Y-141554845D01*
X109982000Y-142748000D01*
X110002000Y-142748000D01*
X110002000Y-143002000D01*
X109982000Y-143002000D01*
X109982000Y-143022000D01*
X109728000Y-143022000D01*
X109728000Y-143002000D01*
X109708000Y-143002000D01*
X109708000Y-142748000D01*
X109728000Y-142748000D01*
X109728000Y-141554845D01*
X109498110Y-141433524D01*
X109088076Y-141603355D01*
X108659817Y-141993642D01*
X108592702Y-142136553D01*
X108365054Y-141795853D01*
X107883285Y-141473946D01*
X107315000Y-141360907D01*
X106746715Y-141473946D01*
X106264946Y-141795853D01*
X106045000Y-142125026D01*
X105825054Y-141795853D01*
X105343285Y-141473946D01*
X104973675Y-141400426D01*
X105074838Y-141156799D01*
X105075100Y-140855702D01*
X105693401Y-140237401D01*
X105858148Y-139990839D01*
X105916000Y-139700000D01*
X105916000Y-137668000D01*
X105858148Y-137377161D01*
X105858148Y-137377160D01*
X105693401Y-137130599D01*
X104392000Y-135829198D01*
X104392000Y-135182463D01*
X104424192Y-135150327D01*
X104566838Y-134806799D01*
X104567162Y-134434833D01*
X104425117Y-134091057D01*
X104162327Y-133827808D01*
X103818799Y-133685162D01*
X103446833Y-133684838D01*
X103103057Y-133826883D01*
X102933435Y-133996209D01*
X102765327Y-133827808D01*
X102421799Y-133685162D01*
X102049833Y-133684838D01*
X101706057Y-133826883D01*
X101442808Y-134089673D01*
X101300162Y-134433201D01*
X101299838Y-134805167D01*
X101441883Y-135148943D01*
X101704673Y-135412192D01*
X102048201Y-135554838D01*
X102095077Y-135554879D01*
X102110000Y-135569802D01*
X102110000Y-136597537D01*
X102077808Y-136629673D01*
X101935162Y-136973201D01*
X101935108Y-137035000D01*
X93010110Y-137035000D01*
X93010162Y-136974833D01*
X92868117Y-136631057D01*
X92835000Y-136597882D01*
X92835000Y-133985000D01*
X92777148Y-133694161D01*
X92612401Y-133447599D01*
X92375122Y-133210320D01*
X92375162Y-133164833D01*
X92336759Y-133071890D01*
X127463524Y-133071890D01*
X127633355Y-133481924D01*
X128023642Y-133910183D01*
X128548108Y-134156486D01*
X128778000Y-134035819D01*
X128778000Y-132842000D01*
X129032000Y-132842000D01*
X129032000Y-134035819D01*
X129261892Y-134156486D01*
X129786358Y-133910183D01*
X130176645Y-133481924D01*
X130346476Y-133071890D01*
X130342333Y-133064039D01*
X131958096Y-133064039D01*
X132118959Y-133452423D01*
X132494866Y-133867389D01*
X133000959Y-134106914D01*
X133223000Y-133985629D01*
X133223000Y-132842000D01*
X133477000Y-132842000D01*
X133477000Y-133985629D01*
X133699041Y-134106914D01*
X134205134Y-133867389D01*
X134364469Y-133691498D01*
X134320162Y-133798201D01*
X134319838Y-134170167D01*
X134461883Y-134513943D01*
X134724673Y-134777192D01*
X135068201Y-134919838D01*
X135115077Y-134919879D01*
X135352599Y-135157401D01*
X135589946Y-135315991D01*
X135589838Y-135440167D01*
X135731883Y-135783943D01*
X135994673Y-136047192D01*
X136338201Y-136189838D01*
X136710167Y-136190162D01*
X137053943Y-136048117D01*
X137087118Y-136015000D01*
X137494890Y-136015000D01*
X137494838Y-136075167D01*
X137636883Y-136418943D01*
X137899673Y-136682192D01*
X138243201Y-136824838D01*
X138615167Y-136825162D01*
X138958943Y-136683117D01*
X138992118Y-136650000D01*
X140407537Y-136650000D01*
X140439673Y-136682192D01*
X140783201Y-136824838D01*
X141155167Y-136825162D01*
X141498943Y-136683117D01*
X141762192Y-136420327D01*
X141904838Y-136076799D01*
X141905162Y-135704833D01*
X141763117Y-135361057D01*
X141500327Y-135097808D01*
X141236446Y-134988235D01*
X141128117Y-134726057D01*
X140865327Y-134462808D01*
X140601446Y-134353235D01*
X140493117Y-134091057D01*
X140455347Y-134053221D01*
X140941887Y-134150000D01*
X140998113Y-134150000D01*
X141547264Y-134040767D01*
X142012811Y-133729698D01*
X142323880Y-133264151D01*
X142433113Y-132715000D01*
X142323880Y-132165849D01*
X142012811Y-131700302D01*
X141630725Y-131445000D01*
X142012811Y-131189698D01*
X142323880Y-130724151D01*
X142433113Y-130175000D01*
X142323880Y-129625849D01*
X142012811Y-129160302D01*
X141630725Y-128905000D01*
X142012811Y-128649698D01*
X142323880Y-128184151D01*
X142433113Y-127635000D01*
X142323880Y-127085849D01*
X142012811Y-126620302D01*
X141630725Y-126365000D01*
X142012811Y-126109698D01*
X142323880Y-125644151D01*
X142433113Y-125095000D01*
X142323880Y-124545849D01*
X142012811Y-124080302D01*
X141630725Y-123825000D01*
X142012811Y-123569698D01*
X142323880Y-123104151D01*
X142433113Y-122555000D01*
X142323880Y-122005849D01*
X142012811Y-121540302D01*
X141630725Y-121285000D01*
X142012811Y-121029698D01*
X142323880Y-120564151D01*
X142433113Y-120015000D01*
X144535907Y-120015000D01*
X144648946Y-120583285D01*
X144970853Y-121065054D01*
X145300026Y-121285000D01*
X144970853Y-121504946D01*
X144648946Y-121986715D01*
X144535907Y-122555000D01*
X144648946Y-123123285D01*
X144970853Y-123605054D01*
X145300026Y-123825000D01*
X144970853Y-124044946D01*
X144648946Y-124526715D01*
X144535907Y-125095000D01*
X144648946Y-125663285D01*
X144970853Y-126145054D01*
X145300026Y-126365000D01*
X144970853Y-126584946D01*
X144648946Y-127066715D01*
X144535907Y-127635000D01*
X144648946Y-128203285D01*
X144970853Y-128685054D01*
X145300026Y-128905000D01*
X144970853Y-129124946D01*
X144648946Y-129606715D01*
X144535907Y-130175000D01*
X144648946Y-130743285D01*
X144970853Y-131225054D01*
X145300026Y-131445000D01*
X144970853Y-131664946D01*
X144648946Y-132146715D01*
X144535907Y-132715000D01*
X144648946Y-133283285D01*
X144970853Y-133765054D01*
X145452622Y-134086961D01*
X146020907Y-134200000D01*
X146079093Y-134200000D01*
X146647378Y-134086961D01*
X147129147Y-133765054D01*
X147320000Y-133479422D01*
X147510853Y-133765054D01*
X147992622Y-134086961D01*
X148560907Y-134200000D01*
X148619093Y-134200000D01*
X149187378Y-134086961D01*
X149669147Y-133765054D01*
X149991054Y-133283285D01*
X150104093Y-132715000D01*
X149991054Y-132146715D01*
X149669147Y-131664946D01*
X149339974Y-131445000D01*
X149669147Y-131225054D01*
X149991054Y-130743285D01*
X150104093Y-130175000D01*
X149991054Y-129606715D01*
X149669147Y-129124946D01*
X149339974Y-128905000D01*
X149669147Y-128685054D01*
X149991054Y-128203285D01*
X150104093Y-127635000D01*
X149991054Y-127066715D01*
X149669147Y-126584946D01*
X149339974Y-126365000D01*
X149669147Y-126145054D01*
X149991054Y-125663285D01*
X150104093Y-125095000D01*
X149991054Y-124526715D01*
X149669147Y-124044946D01*
X149339974Y-123825000D01*
X149669147Y-123605054D01*
X149991054Y-123123285D01*
X150104093Y-122555000D01*
X149991054Y-121986715D01*
X149669147Y-121504946D01*
X149339974Y-121285000D01*
X149669147Y-121065054D01*
X149991054Y-120583285D01*
X150104093Y-120015000D01*
X149991054Y-119446715D01*
X149669147Y-118964946D01*
X149339974Y-118745000D01*
X149669147Y-118525054D01*
X149991054Y-118043285D01*
X150104093Y-117475000D01*
X149991054Y-116906715D01*
X149669147Y-116424946D01*
X149187378Y-116103039D01*
X148619093Y-115990000D01*
X148560907Y-115990000D01*
X147992622Y-116103039D01*
X147510853Y-116424946D01*
X147510029Y-116426179D01*
X147503162Y-116389683D01*
X147364090Y-116173559D01*
X147151890Y-116028569D01*
X146900000Y-115977560D01*
X145200000Y-115977560D01*
X144964683Y-116021838D01*
X144748559Y-116160910D01*
X144603569Y-116373110D01*
X144552560Y-116625000D01*
X144552560Y-118325000D01*
X144596838Y-118560317D01*
X144735910Y-118776441D01*
X144948110Y-118921431D01*
X145015541Y-118935086D01*
X144970853Y-118964946D01*
X144648946Y-119446715D01*
X144535907Y-120015000D01*
X142433113Y-120015000D01*
X142323880Y-119465849D01*
X142012811Y-119000302D01*
X141630725Y-118745000D01*
X142012811Y-118489698D01*
X142323880Y-118024151D01*
X142433113Y-117475000D01*
X142323880Y-116925849D01*
X142012811Y-116460302D01*
X141630725Y-116205000D01*
X142012811Y-115949698D01*
X142323880Y-115484151D01*
X142433113Y-114935000D01*
X142323880Y-114385849D01*
X142012811Y-113920302D01*
X141547264Y-113609233D01*
X140998113Y-113500000D01*
X140941887Y-113500000D01*
X140392736Y-113609233D01*
X139927189Y-113920302D01*
X139616120Y-114385849D01*
X139506887Y-114935000D01*
X139616120Y-115484151D01*
X139927189Y-115949698D01*
X140309275Y-116205000D01*
X139927189Y-116460302D01*
X139616120Y-116925849D01*
X139506887Y-117475000D01*
X139616120Y-118024151D01*
X139927189Y-118489698D01*
X140309275Y-118745000D01*
X139927189Y-119000302D01*
X139616120Y-119465849D01*
X139506887Y-120015000D01*
X139616120Y-120564151D01*
X139927189Y-121029698D01*
X140309275Y-121285000D01*
X139927189Y-121540302D01*
X139616120Y-122005849D01*
X139506887Y-122555000D01*
X139616120Y-123104151D01*
X139927189Y-123569698D01*
X140309275Y-123825000D01*
X139927189Y-124080302D01*
X139616120Y-124545849D01*
X139506887Y-125095000D01*
X139616120Y-125644151D01*
X139927189Y-126109698D01*
X140309275Y-126365000D01*
X139927189Y-126620302D01*
X139616120Y-127085849D01*
X139506887Y-127635000D01*
X139616120Y-128184151D01*
X139927189Y-128649698D01*
X140309275Y-128905000D01*
X139927189Y-129160302D01*
X139616120Y-129625849D01*
X139506887Y-130175000D01*
X139616120Y-130724151D01*
X139927189Y-131189698D01*
X140309275Y-131445000D01*
X139927189Y-131700302D01*
X139616120Y-132165849D01*
X139506887Y-132715000D01*
X139616120Y-133264151D01*
X139901514Y-133691272D01*
X139886799Y-133685162D01*
X139514833Y-133684838D01*
X139171057Y-133826883D01*
X139137882Y-133860000D01*
X136204802Y-133860000D01*
X136190122Y-133845320D01*
X136190162Y-133799833D01*
X136048117Y-133456057D01*
X135785327Y-133192808D01*
X135441799Y-133050162D01*
X135069833Y-133049838D01*
X134726057Y-133191883D01*
X134662797Y-133255032D01*
X134741904Y-133064039D01*
X134619915Y-132842000D01*
X133477000Y-132842000D01*
X133223000Y-132842000D01*
X132080085Y-132842000D01*
X131958096Y-133064039D01*
X130342333Y-133064039D01*
X130225155Y-132842000D01*
X129032000Y-132842000D01*
X128778000Y-132842000D01*
X127584845Y-132842000D01*
X127463524Y-133071890D01*
X92336759Y-133071890D01*
X92233117Y-132821057D01*
X91970327Y-132557808D01*
X91626799Y-132415162D01*
X91254833Y-132414838D01*
X90911057Y-132556883D01*
X90647808Y-132819673D01*
X90505162Y-133163201D01*
X90504838Y-133535167D01*
X90646883Y-133878943D01*
X90909673Y-134142192D01*
X91253201Y-134284838D01*
X91300077Y-134284879D01*
X91315000Y-134299802D01*
X91315000Y-136597537D01*
X91282808Y-136629673D01*
X91140162Y-136973201D01*
X91140108Y-137035000D01*
X90470110Y-137035000D01*
X90470162Y-136974833D01*
X90328117Y-136631057D01*
X90295000Y-136597882D01*
X90295000Y-136525000D01*
X90237148Y-136234161D01*
X90072401Y-135987599D01*
X89835122Y-135750320D01*
X89835162Y-135704833D01*
X89693117Y-135361057D01*
X89430327Y-135097808D01*
X89086799Y-134955162D01*
X88714833Y-134954838D01*
X88371057Y-135096883D01*
X88107808Y-135359673D01*
X87965162Y-135703201D01*
X87964838Y-136075167D01*
X88106883Y-136418943D01*
X88369673Y-136682192D01*
X88669332Y-136806622D01*
X88600162Y-136973201D01*
X88600108Y-137035000D01*
X73339802Y-137035000D01*
X73150000Y-136845198D01*
X73150000Y-135817463D01*
X73182192Y-135785327D01*
X73324838Y-135441799D01*
X73325162Y-135069833D01*
X73183117Y-134726057D01*
X72920327Y-134462808D01*
X72656446Y-134353235D01*
X72548117Y-134091057D01*
X72285327Y-133827808D01*
X71941799Y-133685162D01*
X71569833Y-133684838D01*
X71226057Y-133826883D01*
X71120046Y-133932710D01*
X71015327Y-133827808D01*
X70671799Y-133685162D01*
X70299833Y-133684838D01*
X69956057Y-133826883D01*
X69850046Y-133932710D01*
X69745327Y-133827808D01*
X69401799Y-133685162D01*
X69029833Y-133684838D01*
X68686057Y-133826883D01*
X68580046Y-133932710D01*
X68475327Y-133827808D01*
X68131799Y-133685162D01*
X67759833Y-133684838D01*
X67416057Y-133826883D01*
X67152808Y-134089673D01*
X67010162Y-134433201D01*
X67009838Y-134805167D01*
X67151883Y-135148943D01*
X67185000Y-135182118D01*
X67185000Y-140020198D01*
X67170320Y-140034878D01*
X67124833Y-140034838D01*
X66781057Y-140176883D01*
X66747882Y-140210000D01*
X55559802Y-140210000D01*
X55370000Y-140020198D01*
X55370000Y-133953646D01*
X55421800Y-133932243D01*
X55825824Y-133528923D01*
X55848215Y-133475000D01*
X58477005Y-133475000D01*
X58647189Y-133729698D01*
X59112736Y-134040767D01*
X59661887Y-134150000D01*
X59718113Y-134150000D01*
X60267264Y-134040767D01*
X60732811Y-133729698D01*
X61043880Y-133264151D01*
X61153113Y-132715000D01*
X73466887Y-132715000D01*
X73576120Y-133264151D01*
X73887189Y-133729698D01*
X74352736Y-134040767D01*
X74901887Y-134150000D01*
X74958113Y-134150000D01*
X75507264Y-134040767D01*
X75972811Y-133729698D01*
X76283880Y-133264151D01*
X76393113Y-132715000D01*
X76283880Y-132165849D01*
X75972811Y-131700302D01*
X75568297Y-131430014D01*
X75785134Y-131327389D01*
X76161041Y-130912423D01*
X76321904Y-130524039D01*
X76199915Y-130302000D01*
X75057000Y-130302000D01*
X75057000Y-130322000D01*
X74803000Y-130322000D01*
X74803000Y-130302000D01*
X73660085Y-130302000D01*
X73538096Y-130524039D01*
X73698959Y-130912423D01*
X74074866Y-131327389D01*
X74291703Y-131430014D01*
X73887189Y-131700302D01*
X73576120Y-132165849D01*
X73466887Y-132715000D01*
X61153113Y-132715000D01*
X61043880Y-132165849D01*
X60732811Y-131700302D01*
X60350725Y-131445000D01*
X60732811Y-131189698D01*
X61043880Y-130724151D01*
X61153113Y-130175000D01*
X127390907Y-130175000D01*
X127503946Y-130743285D01*
X127825853Y-131225054D01*
X128166553Y-131452702D01*
X128023642Y-131519817D01*
X127633355Y-131948076D01*
X127463524Y-132358110D01*
X127584845Y-132588000D01*
X128778000Y-132588000D01*
X128778000Y-132568000D01*
X129032000Y-132568000D01*
X129032000Y-132588000D01*
X130225155Y-132588000D01*
X130346476Y-132358110D01*
X130176645Y-131948076D01*
X129786358Y-131519817D01*
X129643447Y-131452702D01*
X129984147Y-131225054D01*
X130306054Y-130743285D01*
X130419093Y-130175000D01*
X130306054Y-129606715D01*
X129984147Y-129124946D01*
X129942548Y-129097150D01*
X129990317Y-129088162D01*
X130206441Y-128949090D01*
X130351431Y-128736890D01*
X130402440Y-128485000D01*
X130402440Y-127635000D01*
X131886887Y-127635000D01*
X131996120Y-128184151D01*
X132307189Y-128649698D01*
X132689275Y-128905000D01*
X132307189Y-129160302D01*
X131996120Y-129625849D01*
X131886887Y-130175000D01*
X131996120Y-130724151D01*
X132307189Y-131189698D01*
X132711703Y-131459986D01*
X132494866Y-131562611D01*
X132118959Y-131977577D01*
X131958096Y-132365961D01*
X132080085Y-132588000D01*
X133223000Y-132588000D01*
X133223000Y-132568000D01*
X133477000Y-132568000D01*
X133477000Y-132588000D01*
X134619915Y-132588000D01*
X134741904Y-132365961D01*
X134581041Y-131977577D01*
X134205134Y-131562611D01*
X133988297Y-131459986D01*
X134392811Y-131189698D01*
X134703880Y-130724151D01*
X134813113Y-130175000D01*
X134703880Y-129625849D01*
X134392811Y-129160302D01*
X134010725Y-128905000D01*
X134392811Y-128649698D01*
X134703880Y-128184151D01*
X134813113Y-127635000D01*
X134703880Y-127085849D01*
X134392811Y-126620302D01*
X133988297Y-126350014D01*
X134205134Y-126247389D01*
X134581041Y-125832423D01*
X134741904Y-125444039D01*
X134619915Y-125222000D01*
X133477000Y-125222000D01*
X133477000Y-125242000D01*
X133223000Y-125242000D01*
X133223000Y-125222000D01*
X132080085Y-125222000D01*
X131958096Y-125444039D01*
X132118959Y-125832423D01*
X132494866Y-126247389D01*
X132711703Y-126350014D01*
X132307189Y-126620302D01*
X131996120Y-127085849D01*
X131886887Y-127635000D01*
X130402440Y-127635000D01*
X130402440Y-126785000D01*
X130358162Y-126549683D01*
X130219090Y-126333559D01*
X130006890Y-126188569D01*
X129755000Y-126137560D01*
X128055000Y-126137560D01*
X127819683Y-126181838D01*
X127603559Y-126320910D01*
X127458569Y-126533110D01*
X127407560Y-126785000D01*
X127407560Y-128485000D01*
X127451838Y-128720317D01*
X127590910Y-128936441D01*
X127803110Y-129081431D01*
X127870541Y-129095086D01*
X127825853Y-129124946D01*
X127503946Y-129606715D01*
X127390907Y-130175000D01*
X61153113Y-130175000D01*
X61043880Y-129625849D01*
X60732811Y-129160302D01*
X60350725Y-128905000D01*
X60732811Y-128649698D01*
X60862792Y-128455167D01*
X67009838Y-128455167D01*
X67151883Y-128798943D01*
X67414673Y-129062192D01*
X67758201Y-129204838D01*
X68130167Y-129205162D01*
X68473943Y-129063117D01*
X68737192Y-128800327D01*
X68879838Y-128456799D01*
X68879879Y-128409923D01*
X68894802Y-128395000D01*
X73717005Y-128395000D01*
X73887189Y-128649698D01*
X74291703Y-128919986D01*
X74074866Y-129022611D01*
X73698959Y-129437577D01*
X73538096Y-129825961D01*
X73660085Y-130048000D01*
X74803000Y-130048000D01*
X74803000Y-130028000D01*
X75057000Y-130028000D01*
X75057000Y-130048000D01*
X76199915Y-130048000D01*
X76321904Y-129825961D01*
X76161041Y-129437577D01*
X75785134Y-129022611D01*
X75568297Y-128919986D01*
X75972811Y-128649698D01*
X76283880Y-128184151D01*
X76322919Y-127987887D01*
X81369000Y-127987887D01*
X81369000Y-128044113D01*
X81478233Y-128593264D01*
X81789302Y-129058811D01*
X82254849Y-129369880D01*
X82804000Y-129479113D01*
X83353151Y-129369880D01*
X83818698Y-129058811D01*
X84129767Y-128593264D01*
X84239000Y-128044113D01*
X84239000Y-127987887D01*
X85433000Y-127987887D01*
X85433000Y-128044113D01*
X85542233Y-128593264D01*
X85853302Y-129058811D01*
X86318849Y-129369880D01*
X86868000Y-129479113D01*
X87417151Y-129369880D01*
X87882698Y-129058811D01*
X88193767Y-128593264D01*
X88303000Y-128044113D01*
X88303000Y-127987887D01*
X89497000Y-127987887D01*
X89497000Y-128044113D01*
X89606233Y-128593264D01*
X89917302Y-129058811D01*
X90382849Y-129369880D01*
X90932000Y-129479113D01*
X91481151Y-129369880D01*
X91946698Y-129058811D01*
X92257767Y-128593264D01*
X92367000Y-128044113D01*
X92367000Y-127987887D01*
X93561000Y-127987887D01*
X93561000Y-128044113D01*
X93670233Y-128593264D01*
X93981302Y-129058811D01*
X94446849Y-129369880D01*
X94996000Y-129479113D01*
X95545151Y-129369880D01*
X96010698Y-129058811D01*
X96321767Y-128593264D01*
X96431000Y-128044113D01*
X96431000Y-127987887D01*
X97625000Y-127987887D01*
X97625000Y-128044113D01*
X97734233Y-128593264D01*
X98045302Y-129058811D01*
X98510849Y-129369880D01*
X99060000Y-129479113D01*
X99609151Y-129369880D01*
X100074698Y-129058811D01*
X100385767Y-128593264D01*
X100495000Y-128044113D01*
X100495000Y-127987887D01*
X101689000Y-127987887D01*
X101689000Y-128044113D01*
X101798233Y-128593264D01*
X102109302Y-129058811D01*
X102574849Y-129369880D01*
X103124000Y-129479113D01*
X103673151Y-129369880D01*
X104138698Y-129058811D01*
X104449767Y-128593264D01*
X104559000Y-128044113D01*
X104559000Y-127987887D01*
X105753000Y-127987887D01*
X105753000Y-128044113D01*
X105862233Y-128593264D01*
X106173302Y-129058811D01*
X106638849Y-129369880D01*
X107188000Y-129479113D01*
X107737151Y-129369880D01*
X108202698Y-129058811D01*
X108513767Y-128593264D01*
X108623000Y-128044113D01*
X108623000Y-127987887D01*
X109817000Y-127987887D01*
X109817000Y-128044113D01*
X109926233Y-128593264D01*
X110237302Y-129058811D01*
X110702849Y-129369880D01*
X111252000Y-129479113D01*
X111801151Y-129369880D01*
X112266698Y-129058811D01*
X112577767Y-128593264D01*
X112687000Y-128044113D01*
X112687000Y-127987887D01*
X113881000Y-127987887D01*
X113881000Y-128044113D01*
X113990233Y-128593264D01*
X114301302Y-129058811D01*
X114766849Y-129369880D01*
X115316000Y-129479113D01*
X115865151Y-129369880D01*
X116330698Y-129058811D01*
X116641767Y-128593264D01*
X116751000Y-128044113D01*
X116751000Y-127987887D01*
X117945000Y-127987887D01*
X117945000Y-128044113D01*
X118054233Y-128593264D01*
X118365302Y-129058811D01*
X118830849Y-129369880D01*
X119380000Y-129479113D01*
X119929151Y-129369880D01*
X120394698Y-129058811D01*
X120705767Y-128593264D01*
X120815000Y-128044113D01*
X120815000Y-127987887D01*
X122009000Y-127987887D01*
X122009000Y-128044113D01*
X122118233Y-128593264D01*
X122429302Y-129058811D01*
X122894849Y-129369880D01*
X123444000Y-129479113D01*
X123993151Y-129369880D01*
X124458698Y-129058811D01*
X124769767Y-128593264D01*
X124879000Y-128044113D01*
X124879000Y-127987887D01*
X124769767Y-127438736D01*
X124458698Y-126973189D01*
X123993151Y-126662120D01*
X123444000Y-126552887D01*
X122894849Y-126662120D01*
X122429302Y-126973189D01*
X122118233Y-127438736D01*
X122009000Y-127987887D01*
X120815000Y-127987887D01*
X120705767Y-127438736D01*
X120394698Y-126973189D01*
X119929151Y-126662120D01*
X119380000Y-126552887D01*
X118830849Y-126662120D01*
X118365302Y-126973189D01*
X118054233Y-127438736D01*
X117945000Y-127987887D01*
X116751000Y-127987887D01*
X116641767Y-127438736D01*
X116330698Y-126973189D01*
X115865151Y-126662120D01*
X115316000Y-126552887D01*
X114766849Y-126662120D01*
X114301302Y-126973189D01*
X113990233Y-127438736D01*
X113881000Y-127987887D01*
X112687000Y-127987887D01*
X112577767Y-127438736D01*
X112266698Y-126973189D01*
X111801151Y-126662120D01*
X111252000Y-126552887D01*
X110702849Y-126662120D01*
X110237302Y-126973189D01*
X109926233Y-127438736D01*
X109817000Y-127987887D01*
X108623000Y-127987887D01*
X108513767Y-127438736D01*
X108202698Y-126973189D01*
X107737151Y-126662120D01*
X107188000Y-126552887D01*
X106638849Y-126662120D01*
X106173302Y-126973189D01*
X105862233Y-127438736D01*
X105753000Y-127987887D01*
X104559000Y-127987887D01*
X104449767Y-127438736D01*
X104138698Y-126973189D01*
X103673151Y-126662120D01*
X103124000Y-126552887D01*
X102574849Y-126662120D01*
X102109302Y-126973189D01*
X101798233Y-127438736D01*
X101689000Y-127987887D01*
X100495000Y-127987887D01*
X100385767Y-127438736D01*
X100074698Y-126973189D01*
X99609151Y-126662120D01*
X99060000Y-126552887D01*
X98510849Y-126662120D01*
X98045302Y-126973189D01*
X97734233Y-127438736D01*
X97625000Y-127987887D01*
X96431000Y-127987887D01*
X96321767Y-127438736D01*
X96010698Y-126973189D01*
X95545151Y-126662120D01*
X94996000Y-126552887D01*
X94446849Y-126662120D01*
X93981302Y-126973189D01*
X93670233Y-127438736D01*
X93561000Y-127987887D01*
X92367000Y-127987887D01*
X92257767Y-127438736D01*
X91946698Y-126973189D01*
X91481151Y-126662120D01*
X90932000Y-126552887D01*
X90382849Y-126662120D01*
X89917302Y-126973189D01*
X89606233Y-127438736D01*
X89497000Y-127987887D01*
X88303000Y-127987887D01*
X88193767Y-127438736D01*
X87882698Y-126973189D01*
X87628000Y-126803005D01*
X87628000Y-124645167D01*
X102569838Y-124645167D01*
X102711883Y-124988943D01*
X102974673Y-125252192D01*
X103238554Y-125361765D01*
X103346883Y-125623943D01*
X103609673Y-125887192D01*
X103953201Y-126029838D01*
X104325167Y-126030162D01*
X104668943Y-125888117D01*
X104702118Y-125855000D01*
X106117537Y-125855000D01*
X106149673Y-125887192D01*
X106493201Y-126029838D01*
X106865167Y-126030162D01*
X107208943Y-125888117D01*
X107472192Y-125625327D01*
X107614838Y-125281799D01*
X107614839Y-125280167D01*
X111459838Y-125280167D01*
X111601883Y-125623943D01*
X111864673Y-125887192D01*
X112208201Y-126029838D01*
X112580167Y-126030162D01*
X112923943Y-125888117D01*
X112957118Y-125855000D01*
X113737537Y-125855000D01*
X113769673Y-125887192D01*
X114113201Y-126029838D01*
X114485167Y-126030162D01*
X114828943Y-125888117D01*
X115092192Y-125625327D01*
X115234838Y-125281799D01*
X115235162Y-124909833D01*
X115093117Y-124566057D01*
X114830327Y-124302808D01*
X114486799Y-124160162D01*
X114114833Y-124159838D01*
X113771057Y-124301883D01*
X113737882Y-124335000D01*
X112957463Y-124335000D01*
X112925327Y-124302808D01*
X112581799Y-124160162D01*
X112209833Y-124159838D01*
X111866057Y-124301883D01*
X111602808Y-124564673D01*
X111460162Y-124908201D01*
X111459838Y-125280167D01*
X107614839Y-125280167D01*
X107615162Y-124909833D01*
X107473117Y-124566057D01*
X107210327Y-124302808D01*
X106946446Y-124193235D01*
X106838117Y-123931057D01*
X106575327Y-123667808D01*
X106231799Y-123525162D01*
X105859833Y-123524838D01*
X105516057Y-123666883D01*
X105482882Y-123700000D01*
X104067463Y-123700000D01*
X104035327Y-123667808D01*
X103691799Y-123525162D01*
X103319833Y-123524838D01*
X102976057Y-123666883D01*
X102712808Y-123929673D01*
X102570162Y-124273201D01*
X102569838Y-124645167D01*
X87628000Y-124645167D01*
X87628000Y-122990463D01*
X87660192Y-122958327D01*
X87682734Y-122904039D01*
X131958096Y-122904039D01*
X132118959Y-123292423D01*
X132494866Y-123707389D01*
X132743367Y-123825000D01*
X132494866Y-123942611D01*
X132118959Y-124357577D01*
X131958096Y-124745961D01*
X132080085Y-124968000D01*
X133223000Y-124968000D01*
X133223000Y-122682000D01*
X133477000Y-122682000D01*
X133477000Y-124968000D01*
X134619915Y-124968000D01*
X134741904Y-124745961D01*
X134581041Y-124357577D01*
X134205134Y-123942611D01*
X133956633Y-123825000D01*
X134205134Y-123707389D01*
X134581041Y-123292423D01*
X134741904Y-122904039D01*
X134619915Y-122682000D01*
X133477000Y-122682000D01*
X133223000Y-122682000D01*
X132080085Y-122682000D01*
X131958096Y-122904039D01*
X87682734Y-122904039D01*
X87802838Y-122614799D01*
X87803162Y-122242833D01*
X87661117Y-121899057D01*
X87398327Y-121635808D01*
X87054799Y-121493162D01*
X86682833Y-121492838D01*
X86339057Y-121634883D01*
X86075808Y-121897673D01*
X85933162Y-122241201D01*
X85932838Y-122613167D01*
X86074883Y-122956943D01*
X86108000Y-122990118D01*
X86108000Y-126803005D01*
X85853302Y-126973189D01*
X85542233Y-127438736D01*
X85433000Y-127987887D01*
X84239000Y-127987887D01*
X84129767Y-127438736D01*
X83818698Y-126973189D01*
X83353151Y-126662120D01*
X82804000Y-126552887D01*
X82254849Y-126662120D01*
X81789302Y-126973189D01*
X81478233Y-127438736D01*
X81369000Y-127987887D01*
X76322919Y-127987887D01*
X76393113Y-127635000D01*
X76283880Y-127085849D01*
X75972811Y-126620302D01*
X75590725Y-126365000D01*
X75972811Y-126109698D01*
X76283880Y-125644151D01*
X76393113Y-125095000D01*
X76283880Y-124545849D01*
X75972811Y-124080302D01*
X75590725Y-123825000D01*
X75972811Y-123569698D01*
X76283880Y-123104151D01*
X76393113Y-122555000D01*
X76283880Y-122005849D01*
X75972811Y-121540302D01*
X75590725Y-121285000D01*
X75972811Y-121029698D01*
X76283880Y-120564151D01*
X76393113Y-120015000D01*
X76283880Y-119465849D01*
X75972811Y-119000302D01*
X75590725Y-118745000D01*
X75972811Y-118489698D01*
X76206347Y-118140187D01*
X81368752Y-118140187D01*
X81586757Y-118667800D01*
X81990077Y-119071824D01*
X82517309Y-119290750D01*
X83088187Y-119291248D01*
X83615800Y-119073243D01*
X84019824Y-118669923D01*
X84238750Y-118142691D01*
X84238752Y-118140187D01*
X85432752Y-118140187D01*
X85650757Y-118667800D01*
X86054077Y-119071824D01*
X86581309Y-119290750D01*
X87152187Y-119291248D01*
X87679800Y-119073243D01*
X88083824Y-118669923D01*
X88302750Y-118142691D01*
X88302752Y-118140187D01*
X89496752Y-118140187D01*
X89714757Y-118667800D01*
X90118077Y-119071824D01*
X90645309Y-119290750D01*
X91216187Y-119291248D01*
X91743800Y-119073243D01*
X92147824Y-118669923D01*
X92366750Y-118142691D01*
X92366752Y-118140187D01*
X93560752Y-118140187D01*
X93778757Y-118667800D01*
X94182077Y-119071824D01*
X94709309Y-119290750D01*
X95280187Y-119291248D01*
X95807800Y-119073243D01*
X96211824Y-118669923D01*
X96430750Y-118142691D01*
X96430752Y-118140187D01*
X97624752Y-118140187D01*
X97842757Y-118667800D01*
X98246077Y-119071824D01*
X98773309Y-119290750D01*
X99344187Y-119291248D01*
X99871800Y-119073243D01*
X100275824Y-118669923D01*
X100494750Y-118142691D01*
X100494752Y-118140187D01*
X101688752Y-118140187D01*
X101906757Y-118667800D01*
X102310077Y-119071824D01*
X102837309Y-119290750D01*
X103408187Y-119291248D01*
X103935800Y-119073243D01*
X104339824Y-118669923D01*
X104558750Y-118142691D01*
X104558752Y-118140187D01*
X105752752Y-118140187D01*
X105970757Y-118667800D01*
X106374077Y-119071824D01*
X106901309Y-119290750D01*
X107472187Y-119291248D01*
X107999800Y-119073243D01*
X108403824Y-118669923D01*
X108622750Y-118142691D01*
X108622752Y-118140187D01*
X109816752Y-118140187D01*
X110034757Y-118667800D01*
X110438077Y-119071824D01*
X110965309Y-119290750D01*
X111536187Y-119291248D01*
X112063800Y-119073243D01*
X112467824Y-118669923D01*
X112686750Y-118142691D01*
X112686752Y-118140187D01*
X113880752Y-118140187D01*
X114098757Y-118667800D01*
X114502077Y-119071824D01*
X115029309Y-119290750D01*
X115600187Y-119291248D01*
X116127800Y-119073243D01*
X116531824Y-118669923D01*
X116750750Y-118142691D01*
X116750752Y-118140187D01*
X117944752Y-118140187D01*
X118162757Y-118667800D01*
X118566077Y-119071824D01*
X119093309Y-119290750D01*
X119664187Y-119291248D01*
X120191800Y-119073243D01*
X120595824Y-118669923D01*
X120814750Y-118142691D01*
X120814752Y-118140187D01*
X122008752Y-118140187D01*
X122226757Y-118667800D01*
X122630077Y-119071824D01*
X123157309Y-119290750D01*
X123728187Y-119291248D01*
X124255800Y-119073243D01*
X124659824Y-118669923D01*
X124878750Y-118142691D01*
X124879248Y-117571813D01*
X124839246Y-117475000D01*
X127390907Y-117475000D01*
X127503946Y-118043285D01*
X127825853Y-118525054D01*
X128155026Y-118745000D01*
X127825853Y-118964946D01*
X127503946Y-119446715D01*
X127390907Y-120015000D01*
X127503946Y-120583285D01*
X127825853Y-121065054D01*
X128307622Y-121386961D01*
X128875907Y-121500000D01*
X128934093Y-121500000D01*
X129502378Y-121386961D01*
X129984147Y-121065054D01*
X130306054Y-120583285D01*
X130419093Y-120015000D01*
X130306054Y-119446715D01*
X129984147Y-118964946D01*
X129654974Y-118745000D01*
X129984147Y-118525054D01*
X130306054Y-118043285D01*
X130419093Y-117475000D01*
X131886887Y-117475000D01*
X131996120Y-118024151D01*
X132307189Y-118489698D01*
X132689275Y-118745000D01*
X132307189Y-119000302D01*
X131996120Y-119465849D01*
X131886887Y-120015000D01*
X131996120Y-120564151D01*
X132307189Y-121029698D01*
X132711703Y-121299986D01*
X132494866Y-121402611D01*
X132118959Y-121817577D01*
X131958096Y-122205961D01*
X132080085Y-122428000D01*
X133223000Y-122428000D01*
X133223000Y-122408000D01*
X133477000Y-122408000D01*
X133477000Y-122428000D01*
X134619915Y-122428000D01*
X134741904Y-122205961D01*
X134581041Y-121817577D01*
X134205134Y-121402611D01*
X133988297Y-121299986D01*
X134392811Y-121029698D01*
X134703880Y-120564151D01*
X134813113Y-120015000D01*
X134703880Y-119465849D01*
X134392811Y-119000302D01*
X134010725Y-118745000D01*
X134392811Y-118489698D01*
X134703880Y-118024151D01*
X134813113Y-117475000D01*
X134703880Y-116925849D01*
X134392811Y-116460302D01*
X134248535Y-116363899D01*
X134385317Y-116338162D01*
X134601441Y-116199090D01*
X134746431Y-115986890D01*
X134797440Y-115735000D01*
X134797440Y-114135000D01*
X134753162Y-113899683D01*
X134614090Y-113683559D01*
X134401890Y-113538569D01*
X134150000Y-113487560D01*
X132550000Y-113487560D01*
X132314683Y-113531838D01*
X132098559Y-113670910D01*
X131953569Y-113883110D01*
X131902560Y-114135000D01*
X131902560Y-115735000D01*
X131946838Y-115970317D01*
X132085910Y-116186441D01*
X132298110Y-116331431D01*
X132453089Y-116362815D01*
X132307189Y-116460302D01*
X131996120Y-116925849D01*
X131886887Y-117475000D01*
X130419093Y-117475000D01*
X130306054Y-116906715D01*
X129984147Y-116424946D01*
X129942548Y-116397150D01*
X129990317Y-116388162D01*
X130206441Y-116249090D01*
X130351431Y-116036890D01*
X130402440Y-115785000D01*
X130402440Y-114085000D01*
X130358162Y-113849683D01*
X130219090Y-113633559D01*
X130006890Y-113488569D01*
X129755000Y-113437560D01*
X128055000Y-113437560D01*
X127819683Y-113481838D01*
X127603559Y-113620910D01*
X127458569Y-113833110D01*
X127407560Y-114085000D01*
X127407560Y-115785000D01*
X127451838Y-116020317D01*
X127590910Y-116236441D01*
X127803110Y-116381431D01*
X127870541Y-116395086D01*
X127825853Y-116424946D01*
X127503946Y-116906715D01*
X127390907Y-117475000D01*
X124839246Y-117475000D01*
X124661243Y-117044200D01*
X124257923Y-116640176D01*
X123730691Y-116421250D01*
X123159813Y-116420752D01*
X122632200Y-116638757D01*
X122228176Y-117042077D01*
X122009250Y-117569309D01*
X122008752Y-118140187D01*
X120814752Y-118140187D01*
X120815248Y-117571813D01*
X120597243Y-117044200D01*
X120193923Y-116640176D01*
X119666691Y-116421250D01*
X119095813Y-116420752D01*
X118568200Y-116638757D01*
X118164176Y-117042077D01*
X117945250Y-117569309D01*
X117944752Y-118140187D01*
X116750752Y-118140187D01*
X116751248Y-117571813D01*
X116533243Y-117044200D01*
X116129923Y-116640176D01*
X115602691Y-116421250D01*
X115031813Y-116420752D01*
X114504200Y-116638757D01*
X114100176Y-117042077D01*
X113881250Y-117569309D01*
X113880752Y-118140187D01*
X112686752Y-118140187D01*
X112687248Y-117571813D01*
X112469243Y-117044200D01*
X112065923Y-116640176D01*
X111538691Y-116421250D01*
X110967813Y-116420752D01*
X110440200Y-116638757D01*
X110036176Y-117042077D01*
X109817250Y-117569309D01*
X109816752Y-118140187D01*
X108622752Y-118140187D01*
X108623248Y-117571813D01*
X108405243Y-117044200D01*
X108001923Y-116640176D01*
X107474691Y-116421250D01*
X106903813Y-116420752D01*
X106376200Y-116638757D01*
X105972176Y-117042077D01*
X105753250Y-117569309D01*
X105752752Y-118140187D01*
X104558752Y-118140187D01*
X104559248Y-117571813D01*
X104341243Y-117044200D01*
X103937923Y-116640176D01*
X103410691Y-116421250D01*
X102839813Y-116420752D01*
X102312200Y-116638757D01*
X101908176Y-117042077D01*
X101689250Y-117569309D01*
X101688752Y-118140187D01*
X100494752Y-118140187D01*
X100495248Y-117571813D01*
X100277243Y-117044200D01*
X99873923Y-116640176D01*
X99346691Y-116421250D01*
X98775813Y-116420752D01*
X98248200Y-116638757D01*
X97844176Y-117042077D01*
X97625250Y-117569309D01*
X97624752Y-118140187D01*
X96430752Y-118140187D01*
X96431248Y-117571813D01*
X96213243Y-117044200D01*
X95809923Y-116640176D01*
X95282691Y-116421250D01*
X94711813Y-116420752D01*
X94184200Y-116638757D01*
X93780176Y-117042077D01*
X93561250Y-117569309D01*
X93560752Y-118140187D01*
X92366752Y-118140187D01*
X92367248Y-117571813D01*
X92149243Y-117044200D01*
X91745923Y-116640176D01*
X91218691Y-116421250D01*
X90647813Y-116420752D01*
X90120200Y-116638757D01*
X89716176Y-117042077D01*
X89497250Y-117569309D01*
X89496752Y-118140187D01*
X88302752Y-118140187D01*
X88303248Y-117571813D01*
X88085243Y-117044200D01*
X87681923Y-116640176D01*
X87154691Y-116421250D01*
X86583813Y-116420752D01*
X86056200Y-116638757D01*
X85652176Y-117042077D01*
X85433250Y-117569309D01*
X85432752Y-118140187D01*
X84238752Y-118140187D01*
X84239248Y-117571813D01*
X84021243Y-117044200D01*
X83617923Y-116640176D01*
X83090691Y-116421250D01*
X82519813Y-116420752D01*
X81992200Y-116638757D01*
X81588176Y-117042077D01*
X81369250Y-117569309D01*
X81368752Y-118140187D01*
X76206347Y-118140187D01*
X76283880Y-118024151D01*
X76393113Y-117475000D01*
X76283880Y-116925849D01*
X75972811Y-116460302D01*
X75590725Y-116205000D01*
X75972811Y-115949698D01*
X76283880Y-115484151D01*
X76393113Y-114935000D01*
X76283880Y-114385849D01*
X76207733Y-114271887D01*
X85433000Y-114271887D01*
X85433000Y-114328113D01*
X85542233Y-114877264D01*
X85853302Y-115342811D01*
X86318849Y-115653880D01*
X86868000Y-115763113D01*
X87417151Y-115653880D01*
X87882698Y-115342811D01*
X88193767Y-114877264D01*
X88239163Y-114649041D01*
X89540086Y-114649041D01*
X89779611Y-115155134D01*
X90194577Y-115531041D01*
X90582961Y-115691904D01*
X90805000Y-115569915D01*
X90805000Y-114427000D01*
X91059000Y-114427000D01*
X91059000Y-115569915D01*
X91281039Y-115691904D01*
X91669423Y-115531041D01*
X92084389Y-115155134D01*
X92323914Y-114649041D01*
X92202629Y-114427000D01*
X91059000Y-114427000D01*
X90805000Y-114427000D01*
X89661371Y-114427000D01*
X89540086Y-114649041D01*
X88239163Y-114649041D01*
X88303000Y-114328113D01*
X88303000Y-114271887D01*
X93561000Y-114271887D01*
X93561000Y-114328113D01*
X93670233Y-114877264D01*
X93981302Y-115342811D01*
X94446849Y-115653880D01*
X94996000Y-115763113D01*
X95545151Y-115653880D01*
X96010698Y-115342811D01*
X96321767Y-114877264D01*
X96431000Y-114328113D01*
X96431000Y-114271887D01*
X96392073Y-114076187D01*
X97196752Y-114076187D01*
X97414757Y-114603800D01*
X97818077Y-115007824D01*
X98345309Y-115226750D01*
X98916187Y-115227248D01*
X99443800Y-115009243D01*
X99847824Y-114605923D01*
X100066750Y-114078691D01*
X100066752Y-114076187D01*
X102196752Y-114076187D01*
X102414757Y-114603800D01*
X102818077Y-115007824D01*
X103345309Y-115226750D01*
X103916187Y-115227248D01*
X104443800Y-115009243D01*
X104847824Y-114605923D01*
X105066750Y-114078691D01*
X105066752Y-114076187D01*
X105324752Y-114076187D01*
X105542757Y-114603800D01*
X105946077Y-115007824D01*
X106473309Y-115226750D01*
X107044187Y-115227248D01*
X107571800Y-115009243D01*
X107975824Y-114605923D01*
X108194750Y-114078691D01*
X108194752Y-114076187D01*
X110324752Y-114076187D01*
X110542757Y-114603800D01*
X110946077Y-115007824D01*
X111473309Y-115226750D01*
X112044187Y-115227248D01*
X112571800Y-115009243D01*
X112975824Y-114605923D01*
X113194750Y-114078691D01*
X113194752Y-114076187D01*
X117516752Y-114076187D01*
X117734757Y-114603800D01*
X118138077Y-115007824D01*
X118665309Y-115226750D01*
X119236187Y-115227248D01*
X119763800Y-115009243D01*
X120167824Y-114605923D01*
X120386750Y-114078691D01*
X120386752Y-114076187D01*
X122516752Y-114076187D01*
X122734757Y-114603800D01*
X123138077Y-115007824D01*
X123665309Y-115226750D01*
X124236187Y-115227248D01*
X124763800Y-115009243D01*
X125167824Y-114605923D01*
X125386750Y-114078691D01*
X125387248Y-113507813D01*
X125169243Y-112980200D01*
X124765923Y-112576176D01*
X124238691Y-112357250D01*
X123667813Y-112356752D01*
X123140200Y-112574757D01*
X122736176Y-112978077D01*
X122517250Y-113505309D01*
X122516752Y-114076187D01*
X120386752Y-114076187D01*
X120387248Y-113507813D01*
X120169243Y-112980200D01*
X119765923Y-112576176D01*
X119238691Y-112357250D01*
X118667813Y-112356752D01*
X118140200Y-112574757D01*
X117736176Y-112978077D01*
X117517250Y-113505309D01*
X117516752Y-114076187D01*
X113194752Y-114076187D01*
X113195248Y-113507813D01*
X112977243Y-112980200D01*
X112573923Y-112576176D01*
X112046691Y-112357250D01*
X111475813Y-112356752D01*
X110948200Y-112574757D01*
X110544176Y-112978077D01*
X110325250Y-113505309D01*
X110324752Y-114076187D01*
X108194752Y-114076187D01*
X108195248Y-113507813D01*
X107977243Y-112980200D01*
X107573923Y-112576176D01*
X107046691Y-112357250D01*
X106475813Y-112356752D01*
X105948200Y-112574757D01*
X105544176Y-112978077D01*
X105325250Y-113505309D01*
X105324752Y-114076187D01*
X105066752Y-114076187D01*
X105067248Y-113507813D01*
X104849243Y-112980200D01*
X104445923Y-112576176D01*
X103918691Y-112357250D01*
X103347813Y-112356752D01*
X102820200Y-112574757D01*
X102416176Y-112978077D01*
X102197250Y-113505309D01*
X102196752Y-114076187D01*
X100066752Y-114076187D01*
X100067248Y-113507813D01*
X99849243Y-112980200D01*
X99445923Y-112576176D01*
X98918691Y-112357250D01*
X98347813Y-112356752D01*
X97820200Y-112574757D01*
X97416176Y-112978077D01*
X97197250Y-113505309D01*
X97196752Y-114076187D01*
X96392073Y-114076187D01*
X96321767Y-113722736D01*
X96010698Y-113257189D01*
X95545151Y-112946120D01*
X94996000Y-112836887D01*
X94446849Y-112946120D01*
X93981302Y-113257189D01*
X93670233Y-113722736D01*
X93561000Y-114271887D01*
X88303000Y-114271887D01*
X88239164Y-113950959D01*
X89540086Y-113950959D01*
X89661371Y-114173000D01*
X90805000Y-114173000D01*
X90805000Y-113030085D01*
X91059000Y-113030085D01*
X91059000Y-114173000D01*
X92202629Y-114173000D01*
X92323914Y-113950959D01*
X92084389Y-113444866D01*
X91669423Y-113068959D01*
X91281039Y-112908096D01*
X91059000Y-113030085D01*
X90805000Y-113030085D01*
X90582961Y-112908096D01*
X90194577Y-113068959D01*
X89779611Y-113444866D01*
X89540086Y-113950959D01*
X88239164Y-113950959D01*
X88193767Y-113722736D01*
X87882698Y-113257189D01*
X87417151Y-112946120D01*
X86868000Y-112836887D01*
X86318849Y-112946120D01*
X85853302Y-113257189D01*
X85542233Y-113722736D01*
X85433000Y-114271887D01*
X76207733Y-114271887D01*
X75972811Y-113920302D01*
X75590725Y-113665000D01*
X75972811Y-113409698D01*
X76283880Y-112944151D01*
X76393113Y-112395000D01*
X76340948Y-112132745D01*
X133871861Y-112132745D01*
X133945995Y-112378864D01*
X134483223Y-112571965D01*
X135053454Y-112544778D01*
X135454005Y-112378864D01*
X135528139Y-112132745D01*
X134700000Y-111304605D01*
X133871861Y-112132745D01*
X76340948Y-112132745D01*
X76283880Y-111845849D01*
X75972811Y-111380302D01*
X75590725Y-111125000D01*
X75915154Y-110908223D01*
X133253035Y-110908223D01*
X133280222Y-111478454D01*
X133446136Y-111879005D01*
X133692255Y-111953139D01*
X134520395Y-111125000D01*
X134879605Y-111125000D01*
X135707745Y-111953139D01*
X135953864Y-111879005D01*
X136146965Y-111341777D01*
X136119778Y-110771546D01*
X135953864Y-110370995D01*
X135707745Y-110296861D01*
X134879605Y-111125000D01*
X134520395Y-111125000D01*
X133692255Y-110296861D01*
X133446136Y-110370995D01*
X133253035Y-110908223D01*
X75915154Y-110908223D01*
X75972811Y-110869698D01*
X76283880Y-110404151D01*
X76340947Y-110117255D01*
X133871861Y-110117255D01*
X134700000Y-110945395D01*
X135528139Y-110117255D01*
X135454005Y-109871136D01*
X134916777Y-109678035D01*
X134346546Y-109705222D01*
X133945995Y-109871136D01*
X133871861Y-110117255D01*
X76340947Y-110117255D01*
X76393113Y-109855000D01*
X76283880Y-109305849D01*
X75972811Y-108840302D01*
X75590725Y-108585000D01*
X75972811Y-108329698D01*
X76283880Y-107864151D01*
X76393113Y-107315000D01*
X76323332Y-106964187D01*
X97196752Y-106964187D01*
X97414757Y-107491800D01*
X97818077Y-107895824D01*
X98345309Y-108114750D01*
X98916187Y-108115248D01*
X99443800Y-107897243D01*
X99847824Y-107493923D01*
X100066750Y-106966691D01*
X100066752Y-106964187D01*
X102196752Y-106964187D01*
X102414757Y-107491800D01*
X102818077Y-107895824D01*
X103345309Y-108114750D01*
X103916187Y-108115248D01*
X104443800Y-107897243D01*
X104847824Y-107493923D01*
X105066750Y-106966691D01*
X105067248Y-106395813D01*
X104849243Y-105868200D01*
X104445923Y-105464176D01*
X103918691Y-105245250D01*
X103347813Y-105244752D01*
X102820200Y-105462757D01*
X102416176Y-105866077D01*
X102197250Y-106393309D01*
X102196752Y-106964187D01*
X100066752Y-106964187D01*
X100067248Y-106395813D01*
X99849243Y-105868200D01*
X99445923Y-105464176D01*
X98918691Y-105245250D01*
X98347813Y-105244752D01*
X97820200Y-105462757D01*
X97416176Y-105866077D01*
X97197250Y-106393309D01*
X97196752Y-106964187D01*
X76323332Y-106964187D01*
X76283880Y-106765849D01*
X75972811Y-106300302D01*
X75590725Y-106045000D01*
X75972811Y-105789698D01*
X76283880Y-105324151D01*
X76393113Y-104775000D01*
X76323332Y-104424187D01*
X85432752Y-104424187D01*
X85650757Y-104951800D01*
X86054077Y-105355824D01*
X86581309Y-105574750D01*
X87152187Y-105575248D01*
X87679800Y-105357243D01*
X88083824Y-104953923D01*
X88302750Y-104426691D01*
X88302752Y-104424187D01*
X89496752Y-104424187D01*
X89714757Y-104951800D01*
X90118077Y-105355824D01*
X90645309Y-105574750D01*
X91216187Y-105575248D01*
X91743800Y-105357243D01*
X92147824Y-104953923D01*
X92366750Y-104426691D01*
X92366752Y-104424187D01*
X93560752Y-104424187D01*
X93778757Y-104951800D01*
X94182077Y-105355824D01*
X94709309Y-105574750D01*
X95280187Y-105575248D01*
X95807800Y-105357243D01*
X96211824Y-104953923D01*
X96286119Y-104775000D01*
X140597305Y-104775000D01*
X140721723Y-105400492D01*
X141076036Y-105930759D01*
X141606303Y-106285072D01*
X142231795Y-106409490D01*
X143518205Y-106409490D01*
X144143697Y-106285072D01*
X144673964Y-105930759D01*
X145028277Y-105400492D01*
X145152695Y-104775000D01*
X145028277Y-104149508D01*
X144673964Y-103619241D01*
X144143697Y-103264928D01*
X143518205Y-103140510D01*
X142231795Y-103140510D01*
X141606303Y-103264928D01*
X141076036Y-103619241D01*
X140721723Y-104149508D01*
X140597305Y-104775000D01*
X96286119Y-104775000D01*
X96430750Y-104426691D01*
X96431248Y-103855813D01*
X96213243Y-103328200D01*
X95809923Y-102924176D01*
X95282691Y-102705250D01*
X94711813Y-102704752D01*
X94184200Y-102922757D01*
X93780176Y-103326077D01*
X93561250Y-103853309D01*
X93560752Y-104424187D01*
X92366752Y-104424187D01*
X92367248Y-103855813D01*
X92149243Y-103328200D01*
X91745923Y-102924176D01*
X91218691Y-102705250D01*
X90647813Y-102704752D01*
X90120200Y-102922757D01*
X89716176Y-103326077D01*
X89497250Y-103853309D01*
X89496752Y-104424187D01*
X88302752Y-104424187D01*
X88303248Y-103855813D01*
X88085243Y-103328200D01*
X87681923Y-102924176D01*
X87154691Y-102705250D01*
X86583813Y-102704752D01*
X86056200Y-102922757D01*
X85652176Y-103326077D01*
X85433250Y-103853309D01*
X85432752Y-104424187D01*
X76323332Y-104424187D01*
X76283880Y-104225849D01*
X75972811Y-103760302D01*
X75590725Y-103505000D01*
X75972811Y-103249698D01*
X76283880Y-102784151D01*
X76393113Y-102235000D01*
X76283880Y-101685849D01*
X75972811Y-101220302D01*
X75780794Y-101092000D01*
X143780510Y-101092000D01*
X143780510Y-101691440D01*
X143953529Y-102307265D01*
X144349044Y-102810002D01*
X144906841Y-103123113D01*
X145034646Y-103154059D01*
X145288000Y-103034705D01*
X145288000Y-101092000D01*
X145542000Y-101092000D01*
X145542000Y-103034705D01*
X145795354Y-103154059D01*
X145923159Y-103123113D01*
X146480956Y-102810002D01*
X146876471Y-102307265D01*
X147049490Y-101691440D01*
X147049490Y-101092000D01*
X145542000Y-101092000D01*
X145288000Y-101092000D01*
X143780510Y-101092000D01*
X75780794Y-101092000D01*
X75590725Y-100965000D01*
X75972811Y-100709698D01*
X76283880Y-100244151D01*
X76393113Y-99695000D01*
X76283880Y-99145849D01*
X75972811Y-98680302D01*
X75590725Y-98425000D01*
X75972811Y-98169698D01*
X76272510Y-97721167D01*
X83392838Y-97721167D01*
X83534883Y-98064943D01*
X83568000Y-98098118D01*
X83568000Y-99005537D01*
X83535808Y-99037673D01*
X83393162Y-99381201D01*
X83392838Y-99753167D01*
X83534883Y-100096943D01*
X83797673Y-100360192D01*
X84141201Y-100502838D01*
X84513167Y-100503162D01*
X84856943Y-100361117D01*
X85120192Y-100098327D01*
X85144323Y-100040213D01*
X99529392Y-100040213D01*
X99598857Y-100282397D01*
X100122302Y-100469144D01*
X100677368Y-100441362D01*
X101061143Y-100282397D01*
X101130608Y-100040213D01*
X100330000Y-99239605D01*
X99529392Y-100040213D01*
X85144323Y-100040213D01*
X85262838Y-99754799D01*
X85263162Y-99382833D01*
X85121117Y-99039057D01*
X85088000Y-99005882D01*
X85088000Y-98852302D01*
X98920856Y-98852302D01*
X98948638Y-99407368D01*
X99107603Y-99791143D01*
X99349787Y-99860608D01*
X100150395Y-99060000D01*
X100509605Y-99060000D01*
X101310213Y-99860608D01*
X101552397Y-99791143D01*
X101714540Y-99336661D01*
X133222758Y-99336661D01*
X133434990Y-99850303D01*
X133827630Y-100243629D01*
X134340900Y-100456757D01*
X134896661Y-100457242D01*
X135410303Y-100245010D01*
X135416764Y-100238560D01*
X143780510Y-100238560D01*
X143780510Y-100838000D01*
X145288000Y-100838000D01*
X145288000Y-98895295D01*
X145542000Y-98895295D01*
X145542000Y-100838000D01*
X147049490Y-100838000D01*
X147049490Y-100238560D01*
X146876471Y-99622735D01*
X146480956Y-99119998D01*
X145923159Y-98806887D01*
X145795354Y-98775941D01*
X145542000Y-98895295D01*
X145288000Y-98895295D01*
X145034646Y-98775941D01*
X144906841Y-98806887D01*
X144349044Y-99119998D01*
X143953529Y-99622735D01*
X143780510Y-100238560D01*
X135416764Y-100238560D01*
X135803629Y-99852370D01*
X136016757Y-99339100D01*
X136017242Y-98783339D01*
X135805010Y-98269697D01*
X135412370Y-97876371D01*
X135220273Y-97796605D01*
X135351143Y-97742397D01*
X135420608Y-97500213D01*
X134620000Y-96699605D01*
X133819392Y-97500213D01*
X133888857Y-97742397D01*
X134029318Y-97792509D01*
X133829697Y-97874990D01*
X133436371Y-98267630D01*
X133223243Y-98780900D01*
X133222758Y-99336661D01*
X101714540Y-99336661D01*
X101739144Y-99267698D01*
X101711362Y-98712632D01*
X101552397Y-98328857D01*
X101310213Y-98259392D01*
X100509605Y-99060000D01*
X100150395Y-99060000D01*
X99349787Y-98259392D01*
X99107603Y-98328857D01*
X98920856Y-98852302D01*
X85088000Y-98852302D01*
X85088000Y-98098463D01*
X85120192Y-98066327D01*
X85262838Y-97722799D01*
X85263162Y-97350833D01*
X85121117Y-97007057D01*
X84858327Y-96743808D01*
X84514799Y-96601162D01*
X84142833Y-96600838D01*
X83799057Y-96742883D01*
X83535808Y-97005673D01*
X83393162Y-97349201D01*
X83392838Y-97721167D01*
X76272510Y-97721167D01*
X76283880Y-97704151D01*
X76393113Y-97155000D01*
X76283880Y-96605849D01*
X75972811Y-96140302D01*
X75590725Y-95885000D01*
X75972811Y-95629698D01*
X76283880Y-95164151D01*
X76393113Y-94615000D01*
X76291668Y-94105000D01*
X78771354Y-94105000D01*
X78792757Y-94156800D01*
X79196077Y-94560824D01*
X79723309Y-94779750D01*
X80294187Y-94780248D01*
X80821800Y-94562243D01*
X81225824Y-94158923D01*
X81444750Y-93631691D01*
X81444752Y-93629187D01*
X86194752Y-93629187D01*
X86412757Y-94156800D01*
X86816077Y-94560824D01*
X87343309Y-94779750D01*
X87914187Y-94780248D01*
X88441800Y-94562243D01*
X88845824Y-94158923D01*
X89064750Y-93631691D01*
X89064752Y-93629187D01*
X93814752Y-93629187D01*
X94032757Y-94156800D01*
X94436077Y-94560824D01*
X94963309Y-94779750D01*
X95534187Y-94780248D01*
X96061800Y-94562243D01*
X96465824Y-94158923D01*
X96684750Y-93631691D01*
X96685248Y-93060813D01*
X96467243Y-92533200D01*
X96063923Y-92129176D01*
X95536691Y-91910250D01*
X94965813Y-91909752D01*
X94438200Y-92127757D01*
X94034176Y-92531077D01*
X93815250Y-93058309D01*
X93814752Y-93629187D01*
X89064752Y-93629187D01*
X89065248Y-93060813D01*
X88847243Y-92533200D01*
X88443923Y-92129176D01*
X87916691Y-91910250D01*
X87345813Y-91909752D01*
X86818200Y-92127757D01*
X86414176Y-92531077D01*
X86195250Y-93058309D01*
X86194752Y-93629187D01*
X81444752Y-93629187D01*
X81445248Y-93060813D01*
X81227243Y-92533200D01*
X80823923Y-92129176D01*
X80296691Y-91910250D01*
X79725813Y-91909752D01*
X79198200Y-92127757D01*
X78794176Y-92531077D01*
X78771785Y-92585000D01*
X76291668Y-92585000D01*
X76393113Y-92075000D01*
X76321835Y-91716661D01*
X98932758Y-91716661D01*
X99144990Y-92230303D01*
X99537630Y-92623629D01*
X99745512Y-92709949D01*
X99539697Y-92794990D01*
X99146371Y-93187630D01*
X98933243Y-93700900D01*
X98932758Y-94256661D01*
X99144990Y-94770303D01*
X99537630Y-95163629D01*
X99745512Y-95249949D01*
X99539697Y-95334990D01*
X99146371Y-95727630D01*
X98933243Y-96240900D01*
X98932758Y-96796661D01*
X99144990Y-97310303D01*
X99537630Y-97703629D01*
X99729727Y-97783395D01*
X99598857Y-97837603D01*
X99529392Y-98079787D01*
X100330000Y-98880395D01*
X101130608Y-98079787D01*
X101061143Y-97837603D01*
X100920682Y-97787491D01*
X101120303Y-97705010D01*
X101513629Y-97312370D01*
X101726757Y-96799100D01*
X101727181Y-96312302D01*
X133210856Y-96312302D01*
X133238638Y-96867368D01*
X133397603Y-97251143D01*
X133639787Y-97320608D01*
X134440395Y-96520000D01*
X134799605Y-96520000D01*
X135600213Y-97320608D01*
X135842397Y-97251143D01*
X135876697Y-97155000D01*
X140597305Y-97155000D01*
X140721723Y-97780492D01*
X141076036Y-98310759D01*
X141606303Y-98665072D01*
X142231795Y-98789490D01*
X143518205Y-98789490D01*
X144143697Y-98665072D01*
X144673964Y-98310759D01*
X145028277Y-97780492D01*
X145152695Y-97155000D01*
X145028277Y-96529508D01*
X144673964Y-95999241D01*
X144143697Y-95644928D01*
X143518205Y-95520510D01*
X142231795Y-95520510D01*
X141606303Y-95644928D01*
X141076036Y-95999241D01*
X140721723Y-96529508D01*
X140597305Y-97155000D01*
X135876697Y-97155000D01*
X136029144Y-96727698D01*
X136001362Y-96172632D01*
X135842397Y-95788857D01*
X135600213Y-95719392D01*
X134799605Y-96520000D01*
X134440395Y-96520000D01*
X133639787Y-95719392D01*
X133397603Y-95788857D01*
X133210856Y-96312302D01*
X101727181Y-96312302D01*
X101727242Y-96243339D01*
X101515010Y-95729697D01*
X101122370Y-95336371D01*
X100914488Y-95250051D01*
X101120303Y-95165010D01*
X101325457Y-94960213D01*
X133819392Y-94960213D01*
X133888857Y-95202397D01*
X134012344Y-95246453D01*
X133888857Y-95297603D01*
X133819392Y-95539787D01*
X134620000Y-96340395D01*
X135420608Y-95539787D01*
X135351143Y-95297603D01*
X135227656Y-95253547D01*
X135351143Y-95202397D01*
X135420608Y-94960213D01*
X134620000Y-94159605D01*
X133819392Y-94960213D01*
X101325457Y-94960213D01*
X101513629Y-94772370D01*
X101726757Y-94259100D01*
X101727181Y-93772302D01*
X133210856Y-93772302D01*
X133238638Y-94327368D01*
X133397603Y-94711143D01*
X133639787Y-94780608D01*
X134440395Y-93980000D01*
X134799605Y-93980000D01*
X135600213Y-94780608D01*
X135842397Y-94711143D01*
X136029144Y-94187698D01*
X136001362Y-93632632D01*
X135842397Y-93248857D01*
X135600213Y-93179392D01*
X134799605Y-93980000D01*
X134440395Y-93980000D01*
X133639787Y-93179392D01*
X133397603Y-93248857D01*
X133210856Y-93772302D01*
X101727181Y-93772302D01*
X101727242Y-93703339D01*
X101515010Y-93189697D01*
X101122370Y-92796371D01*
X100914488Y-92710051D01*
X101120303Y-92625010D01*
X101513629Y-92232370D01*
X101726757Y-91719100D01*
X101726759Y-91716661D01*
X133222758Y-91716661D01*
X133434990Y-92230303D01*
X133827630Y-92623629D01*
X134019727Y-92703395D01*
X133888857Y-92757603D01*
X133819392Y-92999787D01*
X134620000Y-93800395D01*
X135420608Y-92999787D01*
X135351143Y-92757603D01*
X135210682Y-92707491D01*
X135410303Y-92625010D01*
X135803629Y-92232370D01*
X135868974Y-92075000D01*
X140597305Y-92075000D01*
X140721723Y-92700492D01*
X141076036Y-93230759D01*
X141606303Y-93585072D01*
X142231795Y-93709490D01*
X143518205Y-93709490D01*
X144143697Y-93585072D01*
X144673964Y-93230759D01*
X145028277Y-92700492D01*
X145152695Y-92075000D01*
X145028277Y-91449508D01*
X144673964Y-90919241D01*
X144143697Y-90564928D01*
X143518205Y-90440510D01*
X142231795Y-90440510D01*
X141606303Y-90564928D01*
X141076036Y-90919241D01*
X140721723Y-91449508D01*
X140597305Y-92075000D01*
X135868974Y-92075000D01*
X136016757Y-91719100D01*
X136017242Y-91163339D01*
X135805010Y-90649697D01*
X135412370Y-90256371D01*
X134899100Y-90043243D01*
X134343339Y-90042758D01*
X133829697Y-90254990D01*
X133436371Y-90647630D01*
X133223243Y-91160900D01*
X133222758Y-91716661D01*
X101726759Y-91716661D01*
X101727242Y-91163339D01*
X101515010Y-90649697D01*
X101122370Y-90256371D01*
X100609100Y-90043243D01*
X100053339Y-90042758D01*
X99539697Y-90254990D01*
X99146371Y-90647630D01*
X98933243Y-91160900D01*
X98932758Y-91716661D01*
X76321835Y-91716661D01*
X76283880Y-91525849D01*
X75972811Y-91060302D01*
X75590725Y-90805000D01*
X75972811Y-90549698D01*
X76283880Y-90084151D01*
X76393113Y-89535000D01*
X76283880Y-88985849D01*
X75972811Y-88520302D01*
X75780794Y-88392000D01*
X143780510Y-88392000D01*
X143780510Y-88991440D01*
X143953529Y-89607265D01*
X144349044Y-90110002D01*
X144906841Y-90423113D01*
X145034646Y-90454059D01*
X145288000Y-90334705D01*
X145288000Y-88392000D01*
X145542000Y-88392000D01*
X145542000Y-90334705D01*
X145795354Y-90454059D01*
X145923159Y-90423113D01*
X146480956Y-90110002D01*
X146876471Y-89607265D01*
X147049490Y-88991440D01*
X147049490Y-88392000D01*
X145542000Y-88392000D01*
X145288000Y-88392000D01*
X143780510Y-88392000D01*
X75780794Y-88392000D01*
X75590725Y-88265000D01*
X75972811Y-88009698D01*
X76283880Y-87544151D01*
X76284992Y-87538560D01*
X143780510Y-87538560D01*
X143780510Y-88138000D01*
X145288000Y-88138000D01*
X145288000Y-86195295D01*
X145542000Y-86195295D01*
X145542000Y-88138000D01*
X147049490Y-88138000D01*
X147049490Y-87538560D01*
X146876471Y-86922735D01*
X146480956Y-86419998D01*
X145923159Y-86106887D01*
X145795354Y-86075941D01*
X145542000Y-86195295D01*
X145288000Y-86195295D01*
X145034646Y-86075941D01*
X144906841Y-86106887D01*
X144349044Y-86419998D01*
X143953529Y-86922735D01*
X143780510Y-87538560D01*
X76284992Y-87538560D01*
X76393113Y-86995000D01*
X76340948Y-86732745D01*
X79181861Y-86732745D01*
X79255995Y-86978864D01*
X79793223Y-87171965D01*
X80363454Y-87144778D01*
X80764005Y-86978864D01*
X80838139Y-86732745D01*
X86801861Y-86732745D01*
X86875995Y-86978864D01*
X87413223Y-87171965D01*
X87983454Y-87144778D01*
X88384005Y-86978864D01*
X88458139Y-86732745D01*
X87630000Y-85904605D01*
X86801861Y-86732745D01*
X80838139Y-86732745D01*
X80010000Y-85904605D01*
X79181861Y-86732745D01*
X76340948Y-86732745D01*
X76283880Y-86445849D01*
X75972811Y-85980302D01*
X75590725Y-85725000D01*
X75915154Y-85508223D01*
X78563035Y-85508223D01*
X78590222Y-86078454D01*
X78756136Y-86479005D01*
X79002255Y-86553139D01*
X79830395Y-85725000D01*
X80189605Y-85725000D01*
X81017745Y-86553139D01*
X81263864Y-86479005D01*
X81456965Y-85941777D01*
X81436295Y-85508223D01*
X86183035Y-85508223D01*
X86210222Y-86078454D01*
X86376136Y-86479005D01*
X86622255Y-86553139D01*
X87450395Y-85725000D01*
X87809605Y-85725000D01*
X88637745Y-86553139D01*
X88883864Y-86479005D01*
X89076965Y-85941777D01*
X89049778Y-85371546D01*
X88883864Y-84970995D01*
X88731165Y-84925000D01*
X93802560Y-84925000D01*
X93802560Y-86525000D01*
X93846838Y-86760317D01*
X93985910Y-86976441D01*
X94198110Y-87121431D01*
X94450000Y-87172440D01*
X96050000Y-87172440D01*
X96285317Y-87128162D01*
X96501441Y-86989090D01*
X96646431Y-86776890D01*
X96697440Y-86525000D01*
X96697440Y-84925000D01*
X96653162Y-84689683D01*
X96514090Y-84473559D01*
X96486928Y-84455000D01*
X140597305Y-84455000D01*
X140721723Y-85080492D01*
X141076036Y-85610759D01*
X141606303Y-85965072D01*
X142231795Y-86089490D01*
X143518205Y-86089490D01*
X144143697Y-85965072D01*
X144673964Y-85610759D01*
X145028277Y-85080492D01*
X145152695Y-84455000D01*
X145028277Y-83829508D01*
X144673964Y-83299241D01*
X144143697Y-82944928D01*
X143518205Y-82820510D01*
X142231795Y-82820510D01*
X141606303Y-82944928D01*
X141076036Y-83299241D01*
X140721723Y-83829508D01*
X140597305Y-84455000D01*
X96486928Y-84455000D01*
X96301890Y-84328569D01*
X96050000Y-84277560D01*
X94450000Y-84277560D01*
X94214683Y-84321838D01*
X93998559Y-84460910D01*
X93853569Y-84673110D01*
X93802560Y-84925000D01*
X88731165Y-84925000D01*
X88637745Y-84896861D01*
X87809605Y-85725000D01*
X87450395Y-85725000D01*
X86622255Y-84896861D01*
X86376136Y-84970995D01*
X86183035Y-85508223D01*
X81436295Y-85508223D01*
X81429778Y-85371546D01*
X81263864Y-84970995D01*
X81017745Y-84896861D01*
X80189605Y-85725000D01*
X79830395Y-85725000D01*
X79002255Y-84896861D01*
X78756136Y-84970995D01*
X78563035Y-85508223D01*
X75915154Y-85508223D01*
X75972811Y-85469698D01*
X76283880Y-85004151D01*
X76340947Y-84717255D01*
X79181861Y-84717255D01*
X80010000Y-85545395D01*
X80838139Y-84717255D01*
X86801861Y-84717255D01*
X87630000Y-85545395D01*
X88458139Y-84717255D01*
X88384005Y-84471136D01*
X87846777Y-84278035D01*
X87276546Y-84305222D01*
X86875995Y-84471136D01*
X86801861Y-84717255D01*
X80838139Y-84717255D01*
X80764005Y-84471136D01*
X80226777Y-84278035D01*
X79656546Y-84305222D01*
X79255995Y-84471136D01*
X79181861Y-84717255D01*
X76340947Y-84717255D01*
X76393113Y-84455000D01*
X76283880Y-83905849D01*
X75972811Y-83440302D01*
X75507264Y-83129233D01*
X74958113Y-83020000D01*
X74901887Y-83020000D01*
X74352736Y-83129233D01*
X73887189Y-83440302D01*
X73576120Y-83905849D01*
X73466887Y-84455000D01*
X73576120Y-85004151D01*
X73887189Y-85469698D01*
X74269275Y-85725000D01*
X73887189Y-85980302D01*
X73576120Y-86445849D01*
X73466887Y-86995000D01*
X73576120Y-87544151D01*
X73887189Y-88009698D01*
X74269275Y-88265000D01*
X73887189Y-88520302D01*
X73576120Y-88985849D01*
X73466887Y-89535000D01*
X73576120Y-90084151D01*
X73887189Y-90549698D01*
X74269275Y-90805000D01*
X73887189Y-91060302D01*
X73576120Y-91525849D01*
X73466887Y-92075000D01*
X73533501Y-92409889D01*
X73474833Y-92409838D01*
X73131057Y-92551883D01*
X72867808Y-92814673D01*
X72725162Y-93158201D01*
X72724838Y-93530167D01*
X72866883Y-93873943D01*
X73129673Y-94137192D01*
X73473201Y-94279838D01*
X73533544Y-94279891D01*
X73466887Y-94615000D01*
X73576120Y-95164151D01*
X73887189Y-95629698D01*
X74269275Y-95885000D01*
X73887189Y-96140302D01*
X73576120Y-96605849D01*
X73466887Y-97155000D01*
X73576120Y-97704151D01*
X73887189Y-98169698D01*
X74269275Y-98425000D01*
X73887189Y-98680302D01*
X73576120Y-99145849D01*
X73466887Y-99695000D01*
X73576120Y-100244151D01*
X73887189Y-100709698D01*
X74269275Y-100965000D01*
X73887189Y-101220302D01*
X73576120Y-101685849D01*
X73466887Y-102235000D01*
X73576120Y-102784151D01*
X73887189Y-103249698D01*
X74269275Y-103505000D01*
X73887189Y-103760302D01*
X73576120Y-104225849D01*
X73466887Y-104775000D01*
X73576120Y-105324151D01*
X73887189Y-105789698D01*
X74269275Y-106045000D01*
X73887189Y-106300302D01*
X73576120Y-106765849D01*
X73466887Y-107315000D01*
X73576120Y-107864151D01*
X73887189Y-108329698D01*
X74269275Y-108585000D01*
X73887189Y-108840302D01*
X73576120Y-109305849D01*
X73466887Y-109855000D01*
X73576120Y-110404151D01*
X73887189Y-110869698D01*
X74269275Y-111125000D01*
X73887189Y-111380302D01*
X73576120Y-111845849D01*
X73466887Y-112395000D01*
X73576120Y-112944151D01*
X73887189Y-113409698D01*
X74269275Y-113665000D01*
X73887189Y-113920302D01*
X73576120Y-114385849D01*
X73466887Y-114935000D01*
X73576120Y-115484151D01*
X73887189Y-115949698D01*
X74269275Y-116205000D01*
X73887189Y-116460302D01*
X73576120Y-116925849D01*
X73466887Y-117475000D01*
X73576120Y-118024151D01*
X73887189Y-118489698D01*
X74269275Y-118745000D01*
X73887189Y-119000302D01*
X73576120Y-119465849D01*
X73466887Y-120015000D01*
X73576120Y-120564151D01*
X73887189Y-121029698D01*
X74269275Y-121285000D01*
X73887189Y-121540302D01*
X73576120Y-122005849D01*
X73466887Y-122555000D01*
X73576120Y-123104151D01*
X73887189Y-123569698D01*
X74269275Y-123825000D01*
X73887189Y-124080302D01*
X73576120Y-124545849D01*
X73466887Y-125095000D01*
X73576120Y-125644151D01*
X73887189Y-126109698D01*
X74269275Y-126365000D01*
X73887189Y-126620302D01*
X73717005Y-126875000D01*
X68580000Y-126875000D01*
X68289161Y-126932852D01*
X68042599Y-127097599D01*
X67805320Y-127334878D01*
X67759833Y-127334838D01*
X67416057Y-127476883D01*
X67152808Y-127739673D01*
X67010162Y-128083201D01*
X67009838Y-128455167D01*
X60862792Y-128455167D01*
X61043880Y-128184151D01*
X61153113Y-127635000D01*
X61043880Y-127085849D01*
X60732811Y-126620302D01*
X60350725Y-126365000D01*
X60732811Y-126109698D01*
X61043880Y-125644151D01*
X61153113Y-125095000D01*
X61043880Y-124545849D01*
X60732811Y-124080302D01*
X60350725Y-123825000D01*
X60732811Y-123569698D01*
X61043880Y-123104151D01*
X61153113Y-122555000D01*
X61043880Y-122005849D01*
X60732811Y-121540302D01*
X60350725Y-121285000D01*
X60732811Y-121029698D01*
X61043880Y-120564151D01*
X61153113Y-120015000D01*
X61043880Y-119465849D01*
X60732811Y-119000302D01*
X60350725Y-118745000D01*
X60732811Y-118489698D01*
X61043880Y-118024151D01*
X61153113Y-117475000D01*
X61043880Y-116925849D01*
X60732811Y-116460302D01*
X60350725Y-116205000D01*
X60732811Y-115949698D01*
X61043880Y-115484151D01*
X61153113Y-114935000D01*
X61043880Y-114385849D01*
X60732811Y-113920302D01*
X60350725Y-113665000D01*
X60732811Y-113409698D01*
X61043880Y-112944151D01*
X61153113Y-112395000D01*
X61043880Y-111845849D01*
X60732811Y-111380302D01*
X60350725Y-111125000D01*
X60732811Y-110869698D01*
X61043880Y-110404151D01*
X61153113Y-109855000D01*
X61043880Y-109305849D01*
X60732811Y-108840302D01*
X60350725Y-108585000D01*
X60732811Y-108329698D01*
X61043880Y-107864151D01*
X61153113Y-107315000D01*
X61043880Y-106765849D01*
X60732811Y-106300302D01*
X60350725Y-106045000D01*
X60732811Y-105789698D01*
X61043880Y-105324151D01*
X61153113Y-104775000D01*
X61043880Y-104225849D01*
X60732811Y-103760302D01*
X60350725Y-103505000D01*
X60732811Y-103249698D01*
X61043880Y-102784151D01*
X61153113Y-102235000D01*
X61043880Y-101685849D01*
X60732811Y-101220302D01*
X60350725Y-100965000D01*
X60732811Y-100709698D01*
X61043880Y-100244151D01*
X61153113Y-99695000D01*
X61043880Y-99145849D01*
X60732811Y-98680302D01*
X60627847Y-98610167D01*
X63834838Y-98610167D01*
X63976883Y-98953943D01*
X64082710Y-99059954D01*
X63977808Y-99164673D01*
X63835162Y-99508201D01*
X63834838Y-99880167D01*
X63976883Y-100223943D01*
X64239673Y-100487192D01*
X64583201Y-100629838D01*
X64955167Y-100630162D01*
X65174665Y-100539467D01*
X66110198Y-101475000D01*
X65332463Y-101475000D01*
X65300327Y-101442808D01*
X64956799Y-101300162D01*
X64584833Y-101299838D01*
X64241057Y-101441883D01*
X63977808Y-101704673D01*
X63835162Y-102048201D01*
X63834838Y-102420167D01*
X63976883Y-102763943D01*
X64239673Y-103027192D01*
X64583201Y-103169838D01*
X64955167Y-103170162D01*
X65298943Y-103028117D01*
X65332118Y-102995000D01*
X66360198Y-102995000D01*
X67380198Y-104015000D01*
X65332463Y-104015000D01*
X65300327Y-103982808D01*
X64956799Y-103840162D01*
X64584833Y-103839838D01*
X64241057Y-103981883D01*
X63977808Y-104244673D01*
X63835162Y-104588201D01*
X63834838Y-104960167D01*
X63976883Y-105303943D01*
X64239673Y-105567192D01*
X64583201Y-105709838D01*
X64955167Y-105710162D01*
X65298943Y-105568117D01*
X65332118Y-105535000D01*
X67630198Y-105535000D01*
X69725000Y-107629802D01*
X69725000Y-109220000D01*
X69782852Y-109510839D01*
X69947599Y-109757401D01*
X71454878Y-111264680D01*
X71454838Y-111310167D01*
X71596883Y-111653943D01*
X71859673Y-111917192D01*
X72203201Y-112059838D01*
X72575167Y-112060162D01*
X72918943Y-111918117D01*
X73182192Y-111655327D01*
X73324838Y-111311799D01*
X73325162Y-110939833D01*
X73183117Y-110596057D01*
X72920327Y-110332808D01*
X72576799Y-110190162D01*
X72529923Y-110190121D01*
X71859894Y-109520092D01*
X71940167Y-109520162D01*
X72283943Y-109378117D01*
X72547192Y-109115327D01*
X72689838Y-108771799D01*
X72690162Y-108399833D01*
X72548117Y-108056057D01*
X72285327Y-107792808D01*
X71941799Y-107650162D01*
X71894923Y-107650121D01*
X71880000Y-107635198D01*
X71880000Y-106680000D01*
X71822148Y-106389161D01*
X71822148Y-106389160D01*
X71678274Y-106173837D01*
X71912192Y-105940327D01*
X72054838Y-105596799D01*
X72055162Y-105224833D01*
X71913117Y-104881057D01*
X71650327Y-104617808D01*
X71306799Y-104475162D01*
X71259923Y-104475121D01*
X71048461Y-104263659D01*
X71277192Y-104035327D01*
X71419838Y-103691799D01*
X71420162Y-103319833D01*
X71278117Y-102976057D01*
X71015327Y-102712808D01*
X70671799Y-102570162D01*
X70624923Y-102570121D01*
X69778461Y-101723659D01*
X70007192Y-101495327D01*
X70149838Y-101151799D01*
X70150162Y-100779833D01*
X70008117Y-100436057D01*
X69745327Y-100172808D01*
X69401799Y-100030162D01*
X69354923Y-100030121D01*
X68880122Y-99555320D01*
X68880162Y-99509833D01*
X68738117Y-99166057D01*
X68632290Y-99060046D01*
X68737192Y-98955327D01*
X68879838Y-98611799D01*
X68880162Y-98239833D01*
X68738117Y-97896057D01*
X68475327Y-97632808D01*
X68131799Y-97490162D01*
X67759833Y-97489838D01*
X67416057Y-97631883D01*
X67382882Y-97665000D01*
X65332463Y-97665000D01*
X65300327Y-97632808D01*
X64956799Y-97490162D01*
X64584833Y-97489838D01*
X64241057Y-97631883D01*
X63977808Y-97894673D01*
X63835162Y-98238201D01*
X63834838Y-98610167D01*
X60627847Y-98610167D01*
X60350725Y-98425000D01*
X60732811Y-98169698D01*
X61043880Y-97704151D01*
X61153113Y-97155000D01*
X61043880Y-96605849D01*
X60732811Y-96140302D01*
X60350725Y-95885000D01*
X60732811Y-95629698D01*
X61043880Y-95164151D01*
X61153113Y-94615000D01*
X61043880Y-94065849D01*
X60732811Y-93600302D01*
X60627847Y-93530167D01*
X63834838Y-93530167D01*
X63976883Y-93873943D01*
X64082710Y-93979954D01*
X63977808Y-94084673D01*
X63835162Y-94428201D01*
X63834838Y-94800167D01*
X63976883Y-95143943D01*
X64239673Y-95407192D01*
X64583201Y-95549838D01*
X64955167Y-95550162D01*
X65174665Y-95459467D01*
X65739878Y-96024680D01*
X65739838Y-96070167D01*
X65881883Y-96413943D01*
X66144673Y-96677192D01*
X66488201Y-96819838D01*
X66860167Y-96820162D01*
X67203943Y-96678117D01*
X67467192Y-96415327D01*
X67609838Y-96071799D01*
X67610162Y-95699833D01*
X67468117Y-95356057D01*
X67205327Y-95092808D01*
X66861799Y-94950162D01*
X66814923Y-94950121D01*
X65969802Y-94105000D01*
X66747537Y-94105000D01*
X66779673Y-94137192D01*
X67123201Y-94279838D01*
X67495167Y-94280162D01*
X67838943Y-94138117D01*
X68102192Y-93875327D01*
X68244838Y-93531799D01*
X68245162Y-93159833D01*
X68103117Y-92816057D01*
X67840327Y-92552808D01*
X67496799Y-92410162D01*
X67124833Y-92409838D01*
X66781057Y-92551883D01*
X66747882Y-92585000D01*
X65332463Y-92585000D01*
X65300327Y-92552808D01*
X64956799Y-92410162D01*
X64584833Y-92409838D01*
X64241057Y-92551883D01*
X63977808Y-92814673D01*
X63835162Y-93158201D01*
X63834838Y-93530167D01*
X60627847Y-93530167D01*
X60350725Y-93345000D01*
X60732811Y-93089698D01*
X61043880Y-92624151D01*
X61153113Y-92075000D01*
X61043880Y-91525849D01*
X60732811Y-91060302D01*
X60350725Y-90805000D01*
X60732811Y-90549698D01*
X61043880Y-90084151D01*
X61153113Y-89535000D01*
X61043880Y-88985849D01*
X60732811Y-88520302D01*
X60350725Y-88265000D01*
X60732811Y-88009698D01*
X61043880Y-87544151D01*
X61153113Y-86995000D01*
X61043880Y-86445849D01*
X60732811Y-85980302D01*
X60597665Y-85890000D01*
X60616309Y-85890000D01*
X60849698Y-85793327D01*
X61028327Y-85614699D01*
X61125000Y-85381310D01*
X61125000Y-84740750D01*
X60966250Y-84582000D01*
X59817000Y-84582000D01*
X59817000Y-84602000D01*
X59563000Y-84602000D01*
X59563000Y-84582000D01*
X58413750Y-84582000D01*
X58255000Y-84740750D01*
X58255000Y-85381310D01*
X58351673Y-85614699D01*
X58530302Y-85793327D01*
X58763691Y-85890000D01*
X58782335Y-85890000D01*
X58647189Y-85980302D01*
X58336120Y-86445849D01*
X58226887Y-86995000D01*
X58336120Y-87544151D01*
X58647189Y-88009698D01*
X59029275Y-88265000D01*
X58647189Y-88520302D01*
X58336120Y-88985849D01*
X58226887Y-89535000D01*
X58336120Y-90084151D01*
X58647189Y-90549698D01*
X59029275Y-90805000D01*
X58647189Y-91060302D01*
X58336120Y-91525849D01*
X58226887Y-92075000D01*
X58336120Y-92624151D01*
X58647189Y-93089698D01*
X59029275Y-93345000D01*
X58647189Y-93600302D01*
X58336120Y-94065849D01*
X58226887Y-94615000D01*
X58336120Y-95164151D01*
X58647189Y-95629698D01*
X59029275Y-95885000D01*
X58647189Y-96140302D01*
X58336120Y-96605849D01*
X58226887Y-97155000D01*
X58336120Y-97704151D01*
X58647189Y-98169698D01*
X59029275Y-98425000D01*
X58647189Y-98680302D01*
X58336120Y-99145849D01*
X58226887Y-99695000D01*
X58336120Y-100244151D01*
X58647189Y-100709698D01*
X59029275Y-100965000D01*
X58647189Y-101220302D01*
X58336120Y-101685849D01*
X58226887Y-102235000D01*
X58336120Y-102784151D01*
X58647189Y-103249698D01*
X59029275Y-103505000D01*
X58647189Y-103760302D01*
X58336120Y-104225849D01*
X58226887Y-104775000D01*
X58336120Y-105324151D01*
X58647189Y-105789698D01*
X59029275Y-106045000D01*
X58647189Y-106300302D01*
X58477005Y-106555000D01*
X56829802Y-106555000D01*
X56815122Y-106540320D01*
X56815162Y-106494833D01*
X56673117Y-106151057D01*
X56410327Y-105887808D01*
X56066799Y-105745162D01*
X55694833Y-105744838D01*
X55351057Y-105886883D01*
X55087808Y-106149673D01*
X54945162Y-106493201D01*
X54944838Y-106865167D01*
X55086883Y-107208943D01*
X55349673Y-107472192D01*
X55693201Y-107614838D01*
X55740077Y-107614879D01*
X55977599Y-107852401D01*
X56224161Y-108017148D01*
X56515000Y-108075000D01*
X58477005Y-108075000D01*
X58647189Y-108329698D01*
X59029275Y-108585000D01*
X58647189Y-108840302D01*
X58477005Y-109095000D01*
X57464802Y-109095000D01*
X57450122Y-109080320D01*
X57450162Y-109034833D01*
X57308117Y-108691057D01*
X57045327Y-108427808D01*
X56701799Y-108285162D01*
X56329833Y-108284838D01*
X55986057Y-108426883D01*
X55722808Y-108689673D01*
X55580162Y-109033201D01*
X55579838Y-109405167D01*
X55721883Y-109748943D01*
X55984673Y-110012192D01*
X56328201Y-110154838D01*
X56375077Y-110154879D01*
X56612599Y-110392401D01*
X56859161Y-110557148D01*
X57150000Y-110615000D01*
X58477005Y-110615000D01*
X58647189Y-110869698D01*
X59029275Y-111125000D01*
X58647189Y-111380302D01*
X58336120Y-111845849D01*
X58226887Y-112395000D01*
X58336120Y-112944151D01*
X58647189Y-113409698D01*
X59029275Y-113665000D01*
X58647189Y-113920302D01*
X58336120Y-114385849D01*
X58226887Y-114935000D01*
X58336120Y-115484151D01*
X58647189Y-115949698D01*
X59029275Y-116205000D01*
X58647189Y-116460302D01*
X58336120Y-116925849D01*
X58226887Y-117475000D01*
X58336120Y-118024151D01*
X58647189Y-118489698D01*
X59029275Y-118745000D01*
X58647189Y-119000302D01*
X58336120Y-119465849D01*
X58226887Y-120015000D01*
X58336120Y-120564151D01*
X58647189Y-121029698D01*
X59029275Y-121285000D01*
X58647189Y-121540302D01*
X58336120Y-122005849D01*
X58226887Y-122555000D01*
X58336120Y-123104151D01*
X58647189Y-123569698D01*
X59029275Y-123825000D01*
X58647189Y-124080302D01*
X58336120Y-124545849D01*
X58226887Y-125095000D01*
X58336120Y-125644151D01*
X58647189Y-126109698D01*
X59029275Y-126365000D01*
X58647189Y-126620302D01*
X58336120Y-127085849D01*
X58226887Y-127635000D01*
X58336120Y-128184151D01*
X58647189Y-128649698D01*
X59029275Y-128905000D01*
X58647189Y-129160302D01*
X58336120Y-129625849D01*
X58226887Y-130175000D01*
X58336120Y-130724151D01*
X58647189Y-131189698D01*
X59029275Y-131445000D01*
X58647189Y-131700302D01*
X58477005Y-131955000D01*
X55848646Y-131955000D01*
X55827243Y-131903200D01*
X55423923Y-131499176D01*
X54896691Y-131280250D01*
X54325813Y-131279752D01*
X53798200Y-131497757D01*
X53415000Y-131880289D01*
X53415000Y-128722745D01*
X53781861Y-128722745D01*
X53855995Y-128968864D01*
X54393223Y-129161965D01*
X54963454Y-129134778D01*
X55364005Y-128968864D01*
X55438139Y-128722745D01*
X54610000Y-127894605D01*
X53781861Y-128722745D01*
X53415000Y-128722745D01*
X53415000Y-128486736D01*
X53602255Y-128543139D01*
X54430395Y-127715000D01*
X54789605Y-127715000D01*
X55617745Y-128543139D01*
X55863864Y-128469005D01*
X56056965Y-127931777D01*
X56029778Y-127361546D01*
X55863864Y-126960995D01*
X55617745Y-126886861D01*
X54789605Y-127715000D01*
X54430395Y-127715000D01*
X53602255Y-126886861D01*
X53415000Y-126943264D01*
X53415000Y-126707255D01*
X53781861Y-126707255D01*
X54610000Y-127535395D01*
X55438139Y-126707255D01*
X55364005Y-126461136D01*
X54826777Y-126268035D01*
X54256546Y-126295222D01*
X53855995Y-126461136D01*
X53781861Y-126707255D01*
X53415000Y-126707255D01*
X53415000Y-95377467D01*
X53444673Y-95407192D01*
X53788201Y-95549838D01*
X54160167Y-95550162D01*
X54503943Y-95408117D01*
X54767192Y-95145327D01*
X54909838Y-94801799D01*
X54910162Y-94429833D01*
X54768117Y-94086057D01*
X54505327Y-93822808D01*
X54161799Y-93680162D01*
X54114923Y-93680121D01*
X54100000Y-93665198D01*
X54100000Y-89916000D01*
X54746907Y-89916000D01*
X54859946Y-90484285D01*
X55181853Y-90966054D01*
X55663622Y-91287961D01*
X56231907Y-91401000D01*
X56290093Y-91401000D01*
X56858378Y-91287961D01*
X57340147Y-90966054D01*
X57662054Y-90484285D01*
X57775093Y-89916000D01*
X57662054Y-89347715D01*
X57340147Y-88865946D01*
X57298548Y-88838150D01*
X57346317Y-88829162D01*
X57562441Y-88690090D01*
X57707431Y-88477890D01*
X57758440Y-88226000D01*
X57758440Y-86526000D01*
X57714162Y-86290683D01*
X57575090Y-86074559D01*
X57362890Y-85929569D01*
X57111000Y-85878560D01*
X55411000Y-85878560D01*
X55175683Y-85922838D01*
X54959559Y-86061910D01*
X54814569Y-86274110D01*
X54763560Y-86526000D01*
X54763560Y-88226000D01*
X54807838Y-88461317D01*
X54946910Y-88677441D01*
X55159110Y-88822431D01*
X55226541Y-88836086D01*
X55181853Y-88865946D01*
X54859946Y-89347715D01*
X54746907Y-89916000D01*
X54100000Y-89916000D01*
X54100000Y-83753774D01*
X54601831Y-83753774D01*
X54666131Y-83991611D01*
X55174342Y-84171333D01*
X55712644Y-84142892D01*
X56077869Y-83991611D01*
X56142169Y-83753774D01*
X55372000Y-82983605D01*
X54601831Y-83753774D01*
X54100000Y-83753774D01*
X54100000Y-83306136D01*
X54184389Y-83509869D01*
X54422226Y-83574169D01*
X55192395Y-82804000D01*
X55551605Y-82804000D01*
X56321774Y-83574169D01*
X56489994Y-83528690D01*
X58255000Y-83528690D01*
X58255000Y-84169250D01*
X58413750Y-84328000D01*
X59563000Y-84328000D01*
X59563000Y-83178750D01*
X59817000Y-83178750D01*
X59817000Y-84328000D01*
X60966250Y-84328000D01*
X61125000Y-84169250D01*
X61125000Y-83528690D01*
X61028327Y-83295301D01*
X60849698Y-83116673D01*
X60616309Y-83020000D01*
X59975750Y-83020000D01*
X59817000Y-83178750D01*
X59563000Y-83178750D01*
X59404250Y-83020000D01*
X58763691Y-83020000D01*
X58530302Y-83116673D01*
X58351673Y-83295301D01*
X58255000Y-83528690D01*
X56489994Y-83528690D01*
X56559611Y-83509869D01*
X56739333Y-83001658D01*
X56710892Y-82463356D01*
X56638152Y-82287745D01*
X58861861Y-82287745D01*
X58935995Y-82533864D01*
X59473223Y-82726965D01*
X60043454Y-82699778D01*
X60444005Y-82533864D01*
X60518139Y-82287745D01*
X62036861Y-82287745D01*
X62110995Y-82533864D01*
X62648223Y-82726965D01*
X63218454Y-82699778D01*
X63619005Y-82533864D01*
X63693139Y-82287745D01*
X79816861Y-82287745D01*
X79890995Y-82533864D01*
X80428223Y-82726965D01*
X80998454Y-82699778D01*
X81399005Y-82533864D01*
X81473139Y-82287745D01*
X82991861Y-82287745D01*
X83065995Y-82533864D01*
X83603223Y-82726965D01*
X84173454Y-82699778D01*
X84574005Y-82533864D01*
X84648139Y-82287745D01*
X83820000Y-81459605D01*
X82991861Y-82287745D01*
X81473139Y-82287745D01*
X80645000Y-81459605D01*
X79816861Y-82287745D01*
X63693139Y-82287745D01*
X62865000Y-81459605D01*
X62036861Y-82287745D01*
X60518139Y-82287745D01*
X59690000Y-81459605D01*
X58861861Y-82287745D01*
X56638152Y-82287745D01*
X56559611Y-82098131D01*
X56321774Y-82033831D01*
X55551605Y-82804000D01*
X55192395Y-82804000D01*
X54422226Y-82033831D01*
X54184389Y-82098131D01*
X54100000Y-82336763D01*
X54100000Y-80733788D01*
X54222617Y-81030543D01*
X54603452Y-81412043D01*
X54881116Y-81527339D01*
X54666131Y-81616389D01*
X54601831Y-81854226D01*
X55372000Y-82624395D01*
X56142169Y-81854226D01*
X56077869Y-81616389D01*
X55845828Y-81534331D01*
X56138543Y-81413383D01*
X56489314Y-81063223D01*
X58243035Y-81063223D01*
X58270222Y-81633454D01*
X58436136Y-82034005D01*
X58682255Y-82108139D01*
X59510395Y-81280000D01*
X59869605Y-81280000D01*
X60697745Y-82108139D01*
X60943864Y-82034005D01*
X61136965Y-81496777D01*
X61116295Y-81063223D01*
X61418035Y-81063223D01*
X61445222Y-81633454D01*
X61611136Y-82034005D01*
X61857255Y-82108139D01*
X62685395Y-81280000D01*
X63044605Y-81280000D01*
X63872745Y-82108139D01*
X64118864Y-82034005D01*
X64311965Y-81496777D01*
X64284778Y-80926546D01*
X64244857Y-80830167D01*
X65104838Y-80830167D01*
X65246883Y-81173943D01*
X65509673Y-81437192D01*
X65853201Y-81579838D01*
X66225167Y-81580162D01*
X66568943Y-81438117D01*
X66602118Y-81405000D01*
X72462537Y-81405000D01*
X72494673Y-81437192D01*
X72838201Y-81579838D01*
X73210167Y-81580162D01*
X73553943Y-81438117D01*
X73817192Y-81175327D01*
X73863741Y-81063223D01*
X79198035Y-81063223D01*
X79225222Y-81633454D01*
X79391136Y-82034005D01*
X79637255Y-82108139D01*
X80465395Y-81280000D01*
X80824605Y-81280000D01*
X81652745Y-82108139D01*
X81898864Y-82034005D01*
X82091965Y-81496777D01*
X82071295Y-81063223D01*
X82373035Y-81063223D01*
X82400222Y-81633454D01*
X82566136Y-82034005D01*
X82812255Y-82108139D01*
X83640395Y-81280000D01*
X83999605Y-81280000D01*
X84827745Y-82108139D01*
X85073864Y-82034005D01*
X85266965Y-81496777D01*
X85239778Y-80926546D01*
X85111107Y-80615907D01*
X86145000Y-80615907D01*
X86145000Y-80674093D01*
X86258039Y-81242378D01*
X86579946Y-81724147D01*
X87061715Y-82046054D01*
X87630000Y-82159093D01*
X88198285Y-82046054D01*
X88680054Y-81724147D01*
X88707850Y-81682548D01*
X88716838Y-81730317D01*
X88855910Y-81946441D01*
X89068110Y-82091431D01*
X89320000Y-82142440D01*
X91020000Y-82142440D01*
X91255317Y-82098162D01*
X91471441Y-81959090D01*
X91616431Y-81746890D01*
X91667440Y-81495000D01*
X91667440Y-80929187D01*
X98259752Y-80929187D01*
X98477757Y-81456800D01*
X98881077Y-81860824D01*
X99408309Y-82079750D01*
X99979187Y-82080248D01*
X100506800Y-81862243D01*
X100716663Y-81652745D01*
X103866861Y-81652745D01*
X103940995Y-81898864D01*
X104478223Y-82091965D01*
X105048454Y-82064778D01*
X105449005Y-81898864D01*
X105523139Y-81652745D01*
X104695000Y-80824605D01*
X103866861Y-81652745D01*
X100716663Y-81652745D01*
X100910824Y-81458923D01*
X101129750Y-80931691D01*
X101130189Y-80428223D01*
X103248035Y-80428223D01*
X103275222Y-80998454D01*
X103441136Y-81399005D01*
X103687255Y-81473139D01*
X104515395Y-80645000D01*
X104874605Y-80645000D01*
X105702745Y-81473139D01*
X105948864Y-81399005D01*
X106001028Y-81253878D01*
X106272189Y-81659698D01*
X106737736Y-81970767D01*
X107286887Y-82080000D01*
X107343113Y-82080000D01*
X107892264Y-81970767D01*
X108357811Y-81659698D01*
X108668880Y-81194151D01*
X108721584Y-80929187D01*
X116039752Y-80929187D01*
X116257757Y-81456800D01*
X116661077Y-81860824D01*
X117188309Y-82079750D01*
X117759187Y-82080248D01*
X118286800Y-81862243D01*
X118690824Y-81458923D01*
X118747245Y-81323046D01*
X118972189Y-81659698D01*
X119437736Y-81970767D01*
X119986887Y-82080000D01*
X120043113Y-82080000D01*
X120592264Y-81970767D01*
X121057811Y-81659698D01*
X121368880Y-81194151D01*
X121421584Y-80929187D01*
X128739752Y-80929187D01*
X128957757Y-81456800D01*
X129361077Y-81860824D01*
X129888309Y-82079750D01*
X130459187Y-82080248D01*
X130986800Y-81862243D01*
X131390824Y-81458923D01*
X131609750Y-80931691D01*
X131610248Y-80360813D01*
X131392243Y-79833200D01*
X130988923Y-79429176D01*
X130461691Y-79210250D01*
X129890813Y-79209752D01*
X129363200Y-79427757D01*
X128959176Y-79831077D01*
X128740250Y-80358309D01*
X128739752Y-80929187D01*
X121421584Y-80929187D01*
X121478113Y-80645000D01*
X121368880Y-80095849D01*
X121057811Y-79630302D01*
X120592264Y-79319233D01*
X120043113Y-79210000D01*
X119986887Y-79210000D01*
X119437736Y-79319233D01*
X118972189Y-79630302D01*
X118747408Y-79966710D01*
X118692243Y-79833200D01*
X118288923Y-79429176D01*
X117761691Y-79210250D01*
X117190813Y-79209752D01*
X116663200Y-79427757D01*
X116259176Y-79831077D01*
X116040250Y-80358309D01*
X116039752Y-80929187D01*
X108721584Y-80929187D01*
X108778113Y-80645000D01*
X108668880Y-80095849D01*
X108357811Y-79630302D01*
X107892264Y-79319233D01*
X107343113Y-79210000D01*
X107286887Y-79210000D01*
X106737736Y-79319233D01*
X106272189Y-79630302D01*
X106005936Y-80028778D01*
X105948864Y-79890995D01*
X105702745Y-79816861D01*
X104874605Y-80645000D01*
X104515395Y-80645000D01*
X103687255Y-79816861D01*
X103441136Y-79890995D01*
X103248035Y-80428223D01*
X101130189Y-80428223D01*
X101130248Y-80360813D01*
X100912243Y-79833200D01*
X100716640Y-79637255D01*
X103866861Y-79637255D01*
X104695000Y-80465395D01*
X105523139Y-79637255D01*
X105449005Y-79391136D01*
X104911777Y-79198035D01*
X104341546Y-79225222D01*
X103940995Y-79391136D01*
X103866861Y-79637255D01*
X100716640Y-79637255D01*
X100508923Y-79429176D01*
X99981691Y-79210250D01*
X99410813Y-79209752D01*
X98883200Y-79427757D01*
X98479176Y-79831077D01*
X98260250Y-80358309D01*
X98259752Y-80929187D01*
X91667440Y-80929187D01*
X91667440Y-79795000D01*
X91623162Y-79559683D01*
X91484090Y-79343559D01*
X91271890Y-79198569D01*
X91020000Y-79147560D01*
X89320000Y-79147560D01*
X89084683Y-79191838D01*
X88868559Y-79330910D01*
X88723569Y-79543110D01*
X88709914Y-79610541D01*
X88680054Y-79565853D01*
X88198285Y-79243946D01*
X87630000Y-79130907D01*
X87061715Y-79243946D01*
X86579946Y-79565853D01*
X86258039Y-80047622D01*
X86145000Y-80615907D01*
X85111107Y-80615907D01*
X85073864Y-80525995D01*
X84827745Y-80451861D01*
X83999605Y-81280000D01*
X83640395Y-81280000D01*
X82812255Y-80451861D01*
X82566136Y-80525995D01*
X82373035Y-81063223D01*
X82071295Y-81063223D01*
X82064778Y-80926546D01*
X81898864Y-80525995D01*
X81652745Y-80451861D01*
X80824605Y-81280000D01*
X80465395Y-81280000D01*
X79637255Y-80451861D01*
X79391136Y-80525995D01*
X79198035Y-81063223D01*
X73863741Y-81063223D01*
X73959838Y-80831799D01*
X73959892Y-80770000D01*
X74367537Y-80770000D01*
X74399673Y-80802192D01*
X74743201Y-80944838D01*
X75115167Y-80945162D01*
X75458943Y-80803117D01*
X75722192Y-80540327D01*
X75833505Y-80272255D01*
X79816861Y-80272255D01*
X80645000Y-81100395D01*
X81473139Y-80272255D01*
X82991861Y-80272255D01*
X83820000Y-81100395D01*
X84648139Y-80272255D01*
X84574005Y-80026136D01*
X84036777Y-79833035D01*
X83466546Y-79860222D01*
X83065995Y-80026136D01*
X82991861Y-80272255D01*
X81473139Y-80272255D01*
X81399005Y-80026136D01*
X80861777Y-79833035D01*
X80291546Y-79860222D01*
X79890995Y-80026136D01*
X79816861Y-80272255D01*
X75833505Y-80272255D01*
X75864838Y-80196799D01*
X75865162Y-79824833D01*
X75773271Y-79602440D01*
X76415000Y-79602440D01*
X76650317Y-79558162D01*
X76866441Y-79419090D01*
X77011431Y-79206890D01*
X77062440Y-78955000D01*
X77062440Y-77255000D01*
X77018162Y-77019683D01*
X76879090Y-76803559D01*
X76666890Y-76658569D01*
X76415000Y-76607560D01*
X74715000Y-76607560D01*
X74479683Y-76651838D01*
X74263559Y-76790910D01*
X74118569Y-77003110D01*
X74104914Y-77070541D01*
X74075054Y-77025853D01*
X73593285Y-76703946D01*
X73025000Y-76590907D01*
X72456715Y-76703946D01*
X71974946Y-77025853D01*
X71755000Y-77355026D01*
X71535054Y-77025853D01*
X71053285Y-76703946D01*
X70485000Y-76590907D01*
X69916715Y-76703946D01*
X69434946Y-77025853D01*
X69215000Y-77355026D01*
X68995054Y-77025853D01*
X68513285Y-76703946D01*
X67945000Y-76590907D01*
X67376715Y-76703946D01*
X66894946Y-77025853D01*
X66573039Y-77507622D01*
X66460000Y-78075907D01*
X66460000Y-78134093D01*
X66573039Y-78702378D01*
X66822102Y-79075127D01*
X66489833Y-79074838D01*
X66146057Y-79216883D01*
X65882808Y-79479673D01*
X65773235Y-79743554D01*
X65511057Y-79851883D01*
X65247808Y-80114673D01*
X65105162Y-80458201D01*
X65104838Y-80830167D01*
X64244857Y-80830167D01*
X64118864Y-80525995D01*
X63872745Y-80451861D01*
X63044605Y-81280000D01*
X62685395Y-81280000D01*
X61857255Y-80451861D01*
X61611136Y-80525995D01*
X61418035Y-81063223D01*
X61116295Y-81063223D01*
X61109778Y-80926546D01*
X60943864Y-80525995D01*
X60697745Y-80451861D01*
X59869605Y-81280000D01*
X59510395Y-81280000D01*
X58682255Y-80451861D01*
X58436136Y-80525995D01*
X58243035Y-81063223D01*
X56489314Y-81063223D01*
X56520043Y-81032548D01*
X56726764Y-80534709D01*
X56726993Y-80272255D01*
X58861861Y-80272255D01*
X59690000Y-81100395D01*
X60518139Y-80272255D01*
X62036861Y-80272255D01*
X62865000Y-81100395D01*
X63693139Y-80272255D01*
X63619005Y-80026136D01*
X63081777Y-79833035D01*
X62511546Y-79860222D01*
X62110995Y-80026136D01*
X62036861Y-80272255D01*
X60518139Y-80272255D01*
X60444005Y-80026136D01*
X59906777Y-79833035D01*
X59336546Y-79860222D01*
X58935995Y-80026136D01*
X58861861Y-80272255D01*
X56726993Y-80272255D01*
X56727235Y-79995656D01*
X56521383Y-79497457D01*
X56140548Y-79115957D01*
X55846736Y-78993955D01*
X56138543Y-78873383D01*
X56520043Y-78492548D01*
X56726764Y-77994709D01*
X56727235Y-77455656D01*
X56522434Y-76960000D01*
X56835198Y-76960000D01*
X57025000Y-77149802D01*
X57025000Y-77542537D01*
X56992808Y-77574673D01*
X56850162Y-77918201D01*
X56849838Y-78290167D01*
X56991883Y-78633943D01*
X57254673Y-78897192D01*
X57598201Y-79039838D01*
X57970167Y-79040162D01*
X58313943Y-78898117D01*
X58577192Y-78635327D01*
X58719838Y-78291799D01*
X58720162Y-77919833D01*
X58578117Y-77576057D01*
X58545000Y-77542882D01*
X58545000Y-77164169D01*
X58876077Y-77495824D01*
X59403309Y-77714750D01*
X59974187Y-77715248D01*
X60501800Y-77497243D01*
X60905824Y-77093923D01*
X61124750Y-76566691D01*
X61125248Y-75995813D01*
X60978229Y-75640000D01*
X61576957Y-75640000D01*
X61430250Y-75993309D01*
X61430250Y-75993309D01*
G37*
X61430250Y-75993309D02*
X61429752Y-76564187D01*
X61647757Y-77091800D01*
X62051077Y-77495824D01*
X62578309Y-77714750D01*
X63149187Y-77715248D01*
X63676800Y-77497243D01*
X64080824Y-77093923D01*
X64299750Y-76566691D01*
X64300248Y-75995813D01*
X64153229Y-75640000D01*
X79356957Y-75640000D01*
X79210250Y-75993309D01*
X79209752Y-76564187D01*
X79427757Y-77091800D01*
X79831077Y-77495824D01*
X80358309Y-77714750D01*
X80929187Y-77715248D01*
X81456800Y-77497243D01*
X81860824Y-77093923D01*
X82079750Y-76566691D01*
X82080248Y-75995813D01*
X81933229Y-75640000D01*
X82531957Y-75640000D01*
X82385250Y-75993309D01*
X82384752Y-76564187D01*
X82602757Y-77091800D01*
X83006077Y-77495824D01*
X83533309Y-77714750D01*
X84104187Y-77715248D01*
X84631800Y-77497243D01*
X85035824Y-77093923D01*
X85254750Y-76566691D01*
X85255248Y-75995813D01*
X85108229Y-75640000D01*
X86753333Y-75640000D01*
X86579946Y-75755853D01*
X86258039Y-76237622D01*
X86145000Y-76805907D01*
X86145000Y-76864093D01*
X86258039Y-77432378D01*
X86579946Y-77914147D01*
X87061715Y-78236054D01*
X87630000Y-78349093D01*
X88198285Y-78236054D01*
X88680054Y-77914147D01*
X88707850Y-77872548D01*
X88716838Y-77920317D01*
X88855910Y-78136441D01*
X89068110Y-78281431D01*
X89320000Y-78332440D01*
X91020000Y-78332440D01*
X91255317Y-78288162D01*
X91471441Y-78149090D01*
X91616431Y-77936890D01*
X91667440Y-77685000D01*
X91667440Y-75985000D01*
X91623162Y-75749683D01*
X91552583Y-75640000D01*
X98860918Y-75640000D01*
X98479176Y-76021077D01*
X98260250Y-76548309D01*
X98259752Y-77119187D01*
X98477757Y-77646800D01*
X98881077Y-78050824D01*
X99408309Y-78269750D01*
X99979187Y-78270248D01*
X100506800Y-78052243D01*
X100716663Y-77842745D01*
X103866861Y-77842745D01*
X103940995Y-78088864D01*
X104478223Y-78281965D01*
X105048454Y-78254778D01*
X105449005Y-78088864D01*
X105523139Y-77842745D01*
X104695000Y-77014605D01*
X103866861Y-77842745D01*
X100716663Y-77842745D01*
X100910824Y-77648923D01*
X101129750Y-77121691D01*
X101130189Y-76618223D01*
X103248035Y-76618223D01*
X103275222Y-77188454D01*
X103441136Y-77589005D01*
X103687255Y-77663139D01*
X104515395Y-76835000D01*
X103687255Y-76006861D01*
X103441136Y-76080995D01*
X103248035Y-76618223D01*
X101130189Y-76618223D01*
X101130248Y-76550813D01*
X100912243Y-76023200D01*
X100529711Y-75640000D01*
X103923264Y-75640000D01*
X103866861Y-75827255D01*
X104695000Y-76655395D01*
X105523139Y-75827255D01*
X105466736Y-75640000D01*
X106542030Y-75640000D01*
X106272189Y-75820302D01*
X106005936Y-76218778D01*
X105948864Y-76080995D01*
X105702745Y-76006861D01*
X104874605Y-76835000D01*
X105702745Y-77663139D01*
X105948864Y-77589005D01*
X106001028Y-77443878D01*
X106272189Y-77849698D01*
X106737736Y-78160767D01*
X107286887Y-78270000D01*
X107343113Y-78270000D01*
X107892264Y-78160767D01*
X108357811Y-77849698D01*
X108668880Y-77384151D01*
X108778113Y-76835000D01*
X108668880Y-76285849D01*
X108357811Y-75820302D01*
X108087970Y-75640000D01*
X116640918Y-75640000D01*
X116259176Y-76021077D01*
X116040250Y-76548309D01*
X116039752Y-77119187D01*
X116257757Y-77646800D01*
X116661077Y-78050824D01*
X117188309Y-78269750D01*
X117759187Y-78270248D01*
X118286800Y-78052243D01*
X118690824Y-77648923D01*
X118747245Y-77513046D01*
X118972189Y-77849698D01*
X119437736Y-78160767D01*
X119986887Y-78270000D01*
X120043113Y-78270000D01*
X120592264Y-78160767D01*
X121057811Y-77849698D01*
X121368880Y-77384151D01*
X121478113Y-76835000D01*
X121368880Y-76285849D01*
X121057811Y-75820302D01*
X120787970Y-75640000D01*
X129340918Y-75640000D01*
X128959176Y-76021077D01*
X128740250Y-76548309D01*
X128739752Y-77119187D01*
X128957757Y-77646800D01*
X129361077Y-78050824D01*
X129888309Y-78269750D01*
X130459187Y-78270248D01*
X130986800Y-78052243D01*
X131390824Y-77648923D01*
X131413215Y-77595000D01*
X132400198Y-77595000D01*
X137257599Y-82452401D01*
X137504161Y-82617148D01*
X137795000Y-82675000D01*
X149545198Y-82675000D01*
X150370000Y-83499802D01*
X150370000Y-110365000D01*
X140938646Y-110365000D01*
X140917243Y-110313200D01*
X140513923Y-109909176D01*
X139986691Y-109690250D01*
X139415813Y-109689752D01*
X138888200Y-109907757D01*
X138484176Y-110311077D01*
X138265250Y-110838309D01*
X138264752Y-111409187D01*
X138482757Y-111936800D01*
X138886077Y-112340824D01*
X139413309Y-112559750D01*
X139984187Y-112560248D01*
X140511800Y-112342243D01*
X140915824Y-111938923D01*
X140938215Y-111885000D01*
X150180198Y-111885000D01*
X150370000Y-112074802D01*
X150370000Y-139385198D01*
X149545198Y-140210000D01*
X112957463Y-140210000D01*
X112925327Y-140177808D01*
X112581799Y-140035162D01*
X112209833Y-140034838D01*
X111866057Y-140176883D01*
X111602808Y-140439673D01*
X111460162Y-140783201D01*
X111459838Y-141155167D01*
X111601883Y-141498943D01*
X111676875Y-141574066D01*
X111344946Y-141795853D01*
X111117298Y-142136553D01*
X111050183Y-141993642D01*
X110621924Y-141603355D01*
X110211890Y-141433524D01*
X109982000Y-141554845D01*
X109982000Y-142748000D01*
X110002000Y-142748000D01*
X110002000Y-143002000D01*
X109982000Y-143002000D01*
X109982000Y-143022000D01*
X109728000Y-143022000D01*
X109728000Y-143002000D01*
X109708000Y-143002000D01*
X109708000Y-142748000D01*
X109728000Y-142748000D01*
X109728000Y-141554845D01*
X109498110Y-141433524D01*
X109088076Y-141603355D01*
X108659817Y-141993642D01*
X108592702Y-142136553D01*
X108365054Y-141795853D01*
X107883285Y-141473946D01*
X107315000Y-141360907D01*
X106746715Y-141473946D01*
X106264946Y-141795853D01*
X106045000Y-142125026D01*
X105825054Y-141795853D01*
X105343285Y-141473946D01*
X104973675Y-141400426D01*
X105074838Y-141156799D01*
X105075100Y-140855702D01*
X105693401Y-140237401D01*
X105858148Y-139990839D01*
X105916000Y-139700000D01*
X105916000Y-137668000D01*
X105858148Y-137377161D01*
X105858148Y-137377160D01*
X105693401Y-137130599D01*
X104392000Y-135829198D01*
X104392000Y-135182463D01*
X104424192Y-135150327D01*
X104566838Y-134806799D01*
X104567162Y-134434833D01*
X104425117Y-134091057D01*
X104162327Y-133827808D01*
X103818799Y-133685162D01*
X103446833Y-133684838D01*
X103103057Y-133826883D01*
X102933435Y-133996209D01*
X102765327Y-133827808D01*
X102421799Y-133685162D01*
X102049833Y-133684838D01*
X101706057Y-133826883D01*
X101442808Y-134089673D01*
X101300162Y-134433201D01*
X101299838Y-134805167D01*
X101441883Y-135148943D01*
X101704673Y-135412192D01*
X102048201Y-135554838D01*
X102095077Y-135554879D01*
X102110000Y-135569802D01*
X102110000Y-136597537D01*
X102077808Y-136629673D01*
X101935162Y-136973201D01*
X101935108Y-137035000D01*
X93010110Y-137035000D01*
X93010162Y-136974833D01*
X92868117Y-136631057D01*
X92835000Y-136597882D01*
X92835000Y-133985000D01*
X92777148Y-133694161D01*
X92612401Y-133447599D01*
X92375122Y-133210320D01*
X92375162Y-133164833D01*
X92336759Y-133071890D01*
X127463524Y-133071890D01*
X127633355Y-133481924D01*
X128023642Y-133910183D01*
X128548108Y-134156486D01*
X128778000Y-134035819D01*
X128778000Y-132842000D01*
X129032000Y-132842000D01*
X129032000Y-134035819D01*
X129261892Y-134156486D01*
X129786358Y-133910183D01*
X130176645Y-133481924D01*
X130346476Y-133071890D01*
X130342333Y-133064039D01*
X131958096Y-133064039D01*
X132118959Y-133452423D01*
X132494866Y-133867389D01*
X133000959Y-134106914D01*
X133223000Y-133985629D01*
X133223000Y-132842000D01*
X133477000Y-132842000D01*
X133477000Y-133985629D01*
X133699041Y-134106914D01*
X134205134Y-133867389D01*
X134364469Y-133691498D01*
X134320162Y-133798201D01*
X134319838Y-134170167D01*
X134461883Y-134513943D01*
X134724673Y-134777192D01*
X135068201Y-134919838D01*
X135115077Y-134919879D01*
X135352599Y-135157401D01*
X135589946Y-135315991D01*
X135589838Y-135440167D01*
X135731883Y-135783943D01*
X135994673Y-136047192D01*
X136338201Y-136189838D01*
X136710167Y-136190162D01*
X137053943Y-136048117D01*
X137087118Y-136015000D01*
X137494890Y-136015000D01*
X137494838Y-136075167D01*
X137636883Y-136418943D01*
X137899673Y-136682192D01*
X138243201Y-136824838D01*
X138615167Y-136825162D01*
X138958943Y-136683117D01*
X138992118Y-136650000D01*
X140407537Y-136650000D01*
X140439673Y-136682192D01*
X140783201Y-136824838D01*
X141155167Y-136825162D01*
X141498943Y-136683117D01*
X141762192Y-136420327D01*
X141904838Y-136076799D01*
X141905162Y-135704833D01*
X141763117Y-135361057D01*
X141500327Y-135097808D01*
X141236446Y-134988235D01*
X141128117Y-134726057D01*
X140865327Y-134462808D01*
X140601446Y-134353235D01*
X140493117Y-134091057D01*
X140455347Y-134053221D01*
X140941887Y-134150000D01*
X140998113Y-134150000D01*
X141547264Y-134040767D01*
X142012811Y-133729698D01*
X142323880Y-133264151D01*
X142433113Y-132715000D01*
X142323880Y-132165849D01*
X142012811Y-131700302D01*
X141630725Y-131445000D01*
X142012811Y-131189698D01*
X142323880Y-130724151D01*
X142433113Y-130175000D01*
X142323880Y-129625849D01*
X142012811Y-129160302D01*
X141630725Y-128905000D01*
X142012811Y-128649698D01*
X142323880Y-128184151D01*
X142433113Y-127635000D01*
X142323880Y-127085849D01*
X142012811Y-126620302D01*
X141630725Y-126365000D01*
X142012811Y-126109698D01*
X142323880Y-125644151D01*
X142433113Y-125095000D01*
X142323880Y-124545849D01*
X142012811Y-124080302D01*
X141630725Y-123825000D01*
X142012811Y-123569698D01*
X142323880Y-123104151D01*
X142433113Y-122555000D01*
X142323880Y-122005849D01*
X142012811Y-121540302D01*
X141630725Y-121285000D01*
X142012811Y-121029698D01*
X142323880Y-120564151D01*
X142433113Y-120015000D01*
X144535907Y-120015000D01*
X144648946Y-120583285D01*
X144970853Y-121065054D01*
X145300026Y-121285000D01*
X144970853Y-121504946D01*
X144648946Y-121986715D01*
X144535907Y-122555000D01*
X144648946Y-123123285D01*
X144970853Y-123605054D01*
X145300026Y-123825000D01*
X144970853Y-124044946D01*
X144648946Y-124526715D01*
X144535907Y-125095000D01*
X144648946Y-125663285D01*
X144970853Y-126145054D01*
X145300026Y-126365000D01*
X144970853Y-126584946D01*
X144648946Y-127066715D01*
X144535907Y-127635000D01*
X144648946Y-128203285D01*
X144970853Y-128685054D01*
X145300026Y-128905000D01*
X144970853Y-129124946D01*
X144648946Y-129606715D01*
X144535907Y-130175000D01*
X144648946Y-130743285D01*
X144970853Y-131225054D01*
X145300026Y-131445000D01*
X144970853Y-131664946D01*
X144648946Y-132146715D01*
X144535907Y-132715000D01*
X144648946Y-133283285D01*
X144970853Y-133765054D01*
X145452622Y-134086961D01*
X146020907Y-134200000D01*
X146079093Y-134200000D01*
X146647378Y-134086961D01*
X147129147Y-133765054D01*
X147320000Y-133479422D01*
X147510853Y-133765054D01*
X147992622Y-134086961D01*
X148560907Y-134200000D01*
X148619093Y-134200000D01*
X149187378Y-134086961D01*
X149669147Y-133765054D01*
X149991054Y-133283285D01*
X150104093Y-132715000D01*
X149991054Y-132146715D01*
X149669147Y-131664946D01*
X149339974Y-131445000D01*
X149669147Y-131225054D01*
X149991054Y-130743285D01*
X150104093Y-130175000D01*
X149991054Y-129606715D01*
X149669147Y-129124946D01*
X149339974Y-128905000D01*
X149669147Y-128685054D01*
X149991054Y-128203285D01*
X150104093Y-127635000D01*
X149991054Y-127066715D01*
X149669147Y-126584946D01*
X149339974Y-126365000D01*
X149669147Y-126145054D01*
X149991054Y-125663285D01*
X150104093Y-125095000D01*
X149991054Y-124526715D01*
X149669147Y-124044946D01*
X149339974Y-123825000D01*
X149669147Y-123605054D01*
X149991054Y-123123285D01*
X150104093Y-122555000D01*
X149991054Y-121986715D01*
X149669147Y-121504946D01*
X149339974Y-121285000D01*
X149669147Y-121065054D01*
X149991054Y-120583285D01*
X150104093Y-120015000D01*
X149991054Y-119446715D01*
X149669147Y-118964946D01*
X149339974Y-118745000D01*
X149669147Y-118525054D01*
X149991054Y-118043285D01*
X150104093Y-117475000D01*
X149991054Y-116906715D01*
X149669147Y-116424946D01*
X149187378Y-116103039D01*
X148619093Y-115990000D01*
X148560907Y-115990000D01*
X147992622Y-116103039D01*
X147510853Y-116424946D01*
X147510029Y-116426179D01*
X147503162Y-116389683D01*
X147364090Y-116173559D01*
X147151890Y-116028569D01*
X146900000Y-115977560D01*
X145200000Y-115977560D01*
X144964683Y-116021838D01*
X144748559Y-116160910D01*
X144603569Y-116373110D01*
X144552560Y-116625000D01*
X144552560Y-118325000D01*
X144596838Y-118560317D01*
X144735910Y-118776441D01*
X144948110Y-118921431D01*
X145015541Y-118935086D01*
X144970853Y-118964946D01*
X144648946Y-119446715D01*
X144535907Y-120015000D01*
X142433113Y-120015000D01*
X142323880Y-119465849D01*
X142012811Y-119000302D01*
X141630725Y-118745000D01*
X142012811Y-118489698D01*
X142323880Y-118024151D01*
X142433113Y-117475000D01*
X142323880Y-116925849D01*
X142012811Y-116460302D01*
X141630725Y-116205000D01*
X142012811Y-115949698D01*
X142323880Y-115484151D01*
X142433113Y-114935000D01*
X142323880Y-114385849D01*
X142012811Y-113920302D01*
X141547264Y-113609233D01*
X140998113Y-113500000D01*
X140941887Y-113500000D01*
X140392736Y-113609233D01*
X139927189Y-113920302D01*
X139616120Y-114385849D01*
X139506887Y-114935000D01*
X139616120Y-115484151D01*
X139927189Y-115949698D01*
X140309275Y-116205000D01*
X139927189Y-116460302D01*
X139616120Y-116925849D01*
X139506887Y-117475000D01*
X139616120Y-118024151D01*
X139927189Y-118489698D01*
X140309275Y-118745000D01*
X139927189Y-119000302D01*
X139616120Y-119465849D01*
X139506887Y-120015000D01*
X139616120Y-120564151D01*
X139927189Y-121029698D01*
X140309275Y-121285000D01*
X139927189Y-121540302D01*
X139616120Y-122005849D01*
X139506887Y-122555000D01*
X139616120Y-123104151D01*
X139927189Y-123569698D01*
X140309275Y-123825000D01*
X139927189Y-124080302D01*
X139616120Y-124545849D01*
X139506887Y-125095000D01*
X139616120Y-125644151D01*
X139927189Y-126109698D01*
X140309275Y-126365000D01*
X139927189Y-126620302D01*
X139616120Y-127085849D01*
X139506887Y-127635000D01*
X139616120Y-128184151D01*
X139927189Y-128649698D01*
X140309275Y-128905000D01*
X139927189Y-129160302D01*
X139616120Y-129625849D01*
X139506887Y-130175000D01*
X139616120Y-130724151D01*
X139927189Y-131189698D01*
X140309275Y-131445000D01*
X139927189Y-131700302D01*
X139616120Y-132165849D01*
X139506887Y-132715000D01*
X139616120Y-133264151D01*
X139901514Y-133691272D01*
X139886799Y-133685162D01*
X139514833Y-133684838D01*
X139171057Y-133826883D01*
X139137882Y-133860000D01*
X136204802Y-133860000D01*
X136190122Y-133845320D01*
X136190162Y-133799833D01*
X136048117Y-133456057D01*
X135785327Y-133192808D01*
X135441799Y-133050162D01*
X135069833Y-133049838D01*
X134726057Y-133191883D01*
X134662797Y-133255032D01*
X134741904Y-133064039D01*
X134619915Y-132842000D01*
X133477000Y-132842000D01*
X133223000Y-132842000D01*
X132080085Y-132842000D01*
X131958096Y-133064039D01*
X130342333Y-133064039D01*
X130225155Y-132842000D01*
X129032000Y-132842000D01*
X128778000Y-132842000D01*
X127584845Y-132842000D01*
X127463524Y-133071890D01*
X92336759Y-133071890D01*
X92233117Y-132821057D01*
X91970327Y-132557808D01*
X91626799Y-132415162D01*
X91254833Y-132414838D01*
X90911057Y-132556883D01*
X90647808Y-132819673D01*
X90505162Y-133163201D01*
X90504838Y-133535167D01*
X90646883Y-133878943D01*
X90909673Y-134142192D01*
X91253201Y-134284838D01*
X91300077Y-134284879D01*
X91315000Y-134299802D01*
X91315000Y-136597537D01*
X91282808Y-136629673D01*
X91140162Y-136973201D01*
X91140108Y-137035000D01*
X90470110Y-137035000D01*
X90470162Y-136974833D01*
X90328117Y-136631057D01*
X90295000Y-136597882D01*
X90295000Y-136525000D01*
X90237148Y-136234161D01*
X90072401Y-135987599D01*
X89835122Y-135750320D01*
X89835162Y-135704833D01*
X89693117Y-135361057D01*
X89430327Y-135097808D01*
X89086799Y-134955162D01*
X88714833Y-134954838D01*
X88371057Y-135096883D01*
X88107808Y-135359673D01*
X87965162Y-135703201D01*
X87964838Y-136075167D01*
X88106883Y-136418943D01*
X88369673Y-136682192D01*
X88669332Y-136806622D01*
X88600162Y-136973201D01*
X88600108Y-137035000D01*
X73339802Y-137035000D01*
X73150000Y-136845198D01*
X73150000Y-135817463D01*
X73182192Y-135785327D01*
X73324838Y-135441799D01*
X73325162Y-135069833D01*
X73183117Y-134726057D01*
X72920327Y-134462808D01*
X72656446Y-134353235D01*
X72548117Y-134091057D01*
X72285327Y-133827808D01*
X71941799Y-133685162D01*
X71569833Y-133684838D01*
X71226057Y-133826883D01*
X71120046Y-133932710D01*
X71015327Y-133827808D01*
X70671799Y-133685162D01*
X70299833Y-133684838D01*
X69956057Y-133826883D01*
X69850046Y-133932710D01*
X69745327Y-133827808D01*
X69401799Y-133685162D01*
X69029833Y-133684838D01*
X68686057Y-133826883D01*
X68580046Y-133932710D01*
X68475327Y-133827808D01*
X68131799Y-133685162D01*
X67759833Y-133684838D01*
X67416057Y-133826883D01*
X67152808Y-134089673D01*
X67010162Y-134433201D01*
X67009838Y-134805167D01*
X67151883Y-135148943D01*
X67185000Y-135182118D01*
X67185000Y-140020198D01*
X67170320Y-140034878D01*
X67124833Y-140034838D01*
X66781057Y-140176883D01*
X66747882Y-140210000D01*
X55559802Y-140210000D01*
X55370000Y-140020198D01*
X55370000Y-133953646D01*
X55421800Y-133932243D01*
X55825824Y-133528923D01*
X55848215Y-133475000D01*
X58477005Y-133475000D01*
X58647189Y-133729698D01*
X59112736Y-134040767D01*
X59661887Y-134150000D01*
X59718113Y-134150000D01*
X60267264Y-134040767D01*
X60732811Y-133729698D01*
X61043880Y-133264151D01*
X61153113Y-132715000D01*
X73466887Y-132715000D01*
X73576120Y-133264151D01*
X73887189Y-133729698D01*
X74352736Y-134040767D01*
X74901887Y-134150000D01*
X74958113Y-134150000D01*
X75507264Y-134040767D01*
X75972811Y-133729698D01*
X76283880Y-133264151D01*
X76393113Y-132715000D01*
X76283880Y-132165849D01*
X75972811Y-131700302D01*
X75568297Y-131430014D01*
X75785134Y-131327389D01*
X76161041Y-130912423D01*
X76321904Y-130524039D01*
X76199915Y-130302000D01*
X75057000Y-130302000D01*
X75057000Y-130322000D01*
X74803000Y-130322000D01*
X74803000Y-130302000D01*
X73660085Y-130302000D01*
X73538096Y-130524039D01*
X73698959Y-130912423D01*
X74074866Y-131327389D01*
X74291703Y-131430014D01*
X73887189Y-131700302D01*
X73576120Y-132165849D01*
X73466887Y-132715000D01*
X61153113Y-132715000D01*
X61043880Y-132165849D01*
X60732811Y-131700302D01*
X60350725Y-131445000D01*
X60732811Y-131189698D01*
X61043880Y-130724151D01*
X61153113Y-130175000D01*
X127390907Y-130175000D01*
X127503946Y-130743285D01*
X127825853Y-131225054D01*
X128166553Y-131452702D01*
X128023642Y-131519817D01*
X127633355Y-131948076D01*
X127463524Y-132358110D01*
X127584845Y-132588000D01*
X128778000Y-132588000D01*
X128778000Y-132568000D01*
X129032000Y-132568000D01*
X129032000Y-132588000D01*
X130225155Y-132588000D01*
X130346476Y-132358110D01*
X130176645Y-131948076D01*
X129786358Y-131519817D01*
X129643447Y-131452702D01*
X129984147Y-131225054D01*
X130306054Y-130743285D01*
X130419093Y-130175000D01*
X130306054Y-129606715D01*
X129984147Y-129124946D01*
X129942548Y-129097150D01*
X129990317Y-129088162D01*
X130206441Y-128949090D01*
X130351431Y-128736890D01*
X130402440Y-128485000D01*
X130402440Y-127635000D01*
X131886887Y-127635000D01*
X131996120Y-128184151D01*
X132307189Y-128649698D01*
X132689275Y-128905000D01*
X132307189Y-129160302D01*
X131996120Y-129625849D01*
X131886887Y-130175000D01*
X131996120Y-130724151D01*
X132307189Y-131189698D01*
X132711703Y-131459986D01*
X132494866Y-131562611D01*
X132118959Y-131977577D01*
X131958096Y-132365961D01*
X132080085Y-132588000D01*
X133223000Y-132588000D01*
X133223000Y-132568000D01*
X133477000Y-132568000D01*
X133477000Y-132588000D01*
X134619915Y-132588000D01*
X134741904Y-132365961D01*
X134581041Y-131977577D01*
X134205134Y-131562611D01*
X133988297Y-131459986D01*
X134392811Y-131189698D01*
X134703880Y-130724151D01*
X134813113Y-130175000D01*
X134703880Y-129625849D01*
X134392811Y-129160302D01*
X134010725Y-128905000D01*
X134392811Y-128649698D01*
X134703880Y-128184151D01*
X134813113Y-127635000D01*
X134703880Y-127085849D01*
X134392811Y-126620302D01*
X133988297Y-126350014D01*
X134205134Y-126247389D01*
X134581041Y-125832423D01*
X134741904Y-125444039D01*
X134619915Y-125222000D01*
X133477000Y-125222000D01*
X133477000Y-125242000D01*
X133223000Y-125242000D01*
X133223000Y-125222000D01*
X132080085Y-125222000D01*
X131958096Y-125444039D01*
X132118959Y-125832423D01*
X132494866Y-126247389D01*
X132711703Y-126350014D01*
X132307189Y-126620302D01*
X131996120Y-127085849D01*
X131886887Y-127635000D01*
X130402440Y-127635000D01*
X130402440Y-126785000D01*
X130358162Y-126549683D01*
X130219090Y-126333559D01*
X130006890Y-126188569D01*
X129755000Y-126137560D01*
X128055000Y-126137560D01*
X127819683Y-126181838D01*
X127603559Y-126320910D01*
X127458569Y-126533110D01*
X127407560Y-126785000D01*
X127407560Y-128485000D01*
X127451838Y-128720317D01*
X127590910Y-128936441D01*
X127803110Y-129081431D01*
X127870541Y-129095086D01*
X127825853Y-129124946D01*
X127503946Y-129606715D01*
X127390907Y-130175000D01*
X61153113Y-130175000D01*
X61043880Y-129625849D01*
X60732811Y-129160302D01*
X60350725Y-128905000D01*
X60732811Y-128649698D01*
X60862792Y-128455167D01*
X67009838Y-128455167D01*
X67151883Y-128798943D01*
X67414673Y-129062192D01*
X67758201Y-129204838D01*
X68130167Y-129205162D01*
X68473943Y-129063117D01*
X68737192Y-128800327D01*
X68879838Y-128456799D01*
X68879879Y-128409923D01*
X68894802Y-128395000D01*
X73717005Y-128395000D01*
X73887189Y-128649698D01*
X74291703Y-128919986D01*
X74074866Y-129022611D01*
X73698959Y-129437577D01*
X73538096Y-129825961D01*
X73660085Y-130048000D01*
X74803000Y-130048000D01*
X74803000Y-130028000D01*
X75057000Y-130028000D01*
X75057000Y-130048000D01*
X76199915Y-130048000D01*
X76321904Y-129825961D01*
X76161041Y-129437577D01*
X75785134Y-129022611D01*
X75568297Y-128919986D01*
X75972811Y-128649698D01*
X76283880Y-128184151D01*
X76322919Y-127987887D01*
X81369000Y-127987887D01*
X81369000Y-128044113D01*
X81478233Y-128593264D01*
X81789302Y-129058811D01*
X82254849Y-129369880D01*
X82804000Y-129479113D01*
X83353151Y-129369880D01*
X83818698Y-129058811D01*
X84129767Y-128593264D01*
X84239000Y-128044113D01*
X84239000Y-127987887D01*
X85433000Y-127987887D01*
X85433000Y-128044113D01*
X85542233Y-128593264D01*
X85853302Y-129058811D01*
X86318849Y-129369880D01*
X86868000Y-129479113D01*
X87417151Y-129369880D01*
X87882698Y-129058811D01*
X88193767Y-128593264D01*
X88303000Y-128044113D01*
X88303000Y-127987887D01*
X89497000Y-127987887D01*
X89497000Y-128044113D01*
X89606233Y-128593264D01*
X89917302Y-129058811D01*
X90382849Y-129369880D01*
X90932000Y-129479113D01*
X91481151Y-129369880D01*
X91946698Y-129058811D01*
X92257767Y-128593264D01*
X92367000Y-128044113D01*
X92367000Y-127987887D01*
X93561000Y-127987887D01*
X93561000Y-128044113D01*
X93670233Y-128593264D01*
X93981302Y-129058811D01*
X94446849Y-129369880D01*
X94996000Y-129479113D01*
X95545151Y-129369880D01*
X96010698Y-129058811D01*
X96321767Y-128593264D01*
X96431000Y-128044113D01*
X96431000Y-127987887D01*
X97625000Y-127987887D01*
X97625000Y-128044113D01*
X97734233Y-128593264D01*
X98045302Y-129058811D01*
X98510849Y-129369880D01*
X99060000Y-129479113D01*
X99609151Y-129369880D01*
X100074698Y-129058811D01*
X100385767Y-128593264D01*
X100495000Y-128044113D01*
X100495000Y-127987887D01*
X101689000Y-127987887D01*
X101689000Y-128044113D01*
X101798233Y-128593264D01*
X102109302Y-129058811D01*
X102574849Y-129369880D01*
X103124000Y-129479113D01*
X103673151Y-129369880D01*
X104138698Y-129058811D01*
X104449767Y-128593264D01*
X104559000Y-128044113D01*
X104559000Y-127987887D01*
X105753000Y-127987887D01*
X105753000Y-128044113D01*
X105862233Y-128593264D01*
X106173302Y-129058811D01*
X106638849Y-129369880D01*
X107188000Y-129479113D01*
X107737151Y-129369880D01*
X108202698Y-129058811D01*
X108513767Y-128593264D01*
X108623000Y-128044113D01*
X108623000Y-127987887D01*
X109817000Y-127987887D01*
X109817000Y-128044113D01*
X109926233Y-128593264D01*
X110237302Y-129058811D01*
X110702849Y-129369880D01*
X111252000Y-129479113D01*
X111801151Y-129369880D01*
X112266698Y-129058811D01*
X112577767Y-128593264D01*
X112687000Y-128044113D01*
X112687000Y-127987887D01*
X113881000Y-127987887D01*
X113881000Y-128044113D01*
X113990233Y-128593264D01*
X114301302Y-129058811D01*
X114766849Y-129369880D01*
X115316000Y-129479113D01*
X115865151Y-129369880D01*
X116330698Y-129058811D01*
X116641767Y-128593264D01*
X116751000Y-128044113D01*
X116751000Y-127987887D01*
X117945000Y-127987887D01*
X117945000Y-128044113D01*
X118054233Y-128593264D01*
X118365302Y-129058811D01*
X118830849Y-129369880D01*
X119380000Y-129479113D01*
X119929151Y-129369880D01*
X120394698Y-129058811D01*
X120705767Y-128593264D01*
X120815000Y-128044113D01*
X120815000Y-127987887D01*
X122009000Y-127987887D01*
X122009000Y-128044113D01*
X122118233Y-128593264D01*
X122429302Y-129058811D01*
X122894849Y-129369880D01*
X123444000Y-129479113D01*
X123993151Y-129369880D01*
X124458698Y-129058811D01*
X124769767Y-128593264D01*
X124879000Y-128044113D01*
X124879000Y-127987887D01*
X124769767Y-127438736D01*
X124458698Y-126973189D01*
X123993151Y-126662120D01*
X123444000Y-126552887D01*
X122894849Y-126662120D01*
X122429302Y-126973189D01*
X122118233Y-127438736D01*
X122009000Y-127987887D01*
X120815000Y-127987887D01*
X120705767Y-127438736D01*
X120394698Y-126973189D01*
X119929151Y-126662120D01*
X119380000Y-126552887D01*
X118830849Y-126662120D01*
X118365302Y-126973189D01*
X118054233Y-127438736D01*
X117945000Y-127987887D01*
X116751000Y-127987887D01*
X116641767Y-127438736D01*
X116330698Y-126973189D01*
X115865151Y-126662120D01*
X115316000Y-126552887D01*
X114766849Y-126662120D01*
X114301302Y-126973189D01*
X113990233Y-127438736D01*
X113881000Y-127987887D01*
X112687000Y-127987887D01*
X112577767Y-127438736D01*
X112266698Y-126973189D01*
X111801151Y-126662120D01*
X111252000Y-126552887D01*
X110702849Y-126662120D01*
X110237302Y-126973189D01*
X109926233Y-127438736D01*
X109817000Y-127987887D01*
X108623000Y-127987887D01*
X108513767Y-127438736D01*
X108202698Y-126973189D01*
X107737151Y-126662120D01*
X107188000Y-126552887D01*
X106638849Y-126662120D01*
X106173302Y-126973189D01*
X105862233Y-127438736D01*
X105753000Y-127987887D01*
X104559000Y-127987887D01*
X104449767Y-127438736D01*
X104138698Y-126973189D01*
X103673151Y-126662120D01*
X103124000Y-126552887D01*
X102574849Y-126662120D01*
X102109302Y-126973189D01*
X101798233Y-127438736D01*
X101689000Y-127987887D01*
X100495000Y-127987887D01*
X100385767Y-127438736D01*
X100074698Y-126973189D01*
X99609151Y-126662120D01*
X99060000Y-126552887D01*
X98510849Y-126662120D01*
X98045302Y-126973189D01*
X97734233Y-127438736D01*
X97625000Y-127987887D01*
X96431000Y-127987887D01*
X96321767Y-127438736D01*
X96010698Y-126973189D01*
X95545151Y-126662120D01*
X94996000Y-126552887D01*
X94446849Y-126662120D01*
X93981302Y-126973189D01*
X93670233Y-127438736D01*
X93561000Y-127987887D01*
X92367000Y-127987887D01*
X92257767Y-127438736D01*
X91946698Y-126973189D01*
X91481151Y-126662120D01*
X90932000Y-126552887D01*
X90382849Y-126662120D01*
X89917302Y-126973189D01*
X89606233Y-127438736D01*
X89497000Y-127987887D01*
X88303000Y-127987887D01*
X88193767Y-127438736D01*
X87882698Y-126973189D01*
X87628000Y-126803005D01*
X87628000Y-124645167D01*
X102569838Y-124645167D01*
X102711883Y-124988943D01*
X102974673Y-125252192D01*
X103238554Y-125361765D01*
X103346883Y-125623943D01*
X103609673Y-125887192D01*
X103953201Y-126029838D01*
X104325167Y-126030162D01*
X104668943Y-125888117D01*
X104702118Y-125855000D01*
X106117537Y-125855000D01*
X106149673Y-125887192D01*
X106493201Y-126029838D01*
X106865167Y-126030162D01*
X107208943Y-125888117D01*
X107472192Y-125625327D01*
X107614838Y-125281799D01*
X107614839Y-125280167D01*
X111459838Y-125280167D01*
X111601883Y-125623943D01*
X111864673Y-125887192D01*
X112208201Y-126029838D01*
X112580167Y-126030162D01*
X112923943Y-125888117D01*
X112957118Y-125855000D01*
X113737537Y-125855000D01*
X113769673Y-125887192D01*
X114113201Y-126029838D01*
X114485167Y-126030162D01*
X114828943Y-125888117D01*
X115092192Y-125625327D01*
X115234838Y-125281799D01*
X115235162Y-124909833D01*
X115093117Y-124566057D01*
X114830327Y-124302808D01*
X114486799Y-124160162D01*
X114114833Y-124159838D01*
X113771057Y-124301883D01*
X113737882Y-124335000D01*
X112957463Y-124335000D01*
X112925327Y-124302808D01*
X112581799Y-124160162D01*
X112209833Y-124159838D01*
X111866057Y-124301883D01*
X111602808Y-124564673D01*
X111460162Y-124908201D01*
X111459838Y-125280167D01*
X107614839Y-125280167D01*
X107615162Y-124909833D01*
X107473117Y-124566057D01*
X107210327Y-124302808D01*
X106946446Y-124193235D01*
X106838117Y-123931057D01*
X106575327Y-123667808D01*
X106231799Y-123525162D01*
X105859833Y-123524838D01*
X105516057Y-123666883D01*
X105482882Y-123700000D01*
X104067463Y-123700000D01*
X104035327Y-123667808D01*
X103691799Y-123525162D01*
X103319833Y-123524838D01*
X102976057Y-123666883D01*
X102712808Y-123929673D01*
X102570162Y-124273201D01*
X102569838Y-124645167D01*
X87628000Y-124645167D01*
X87628000Y-122990463D01*
X87660192Y-122958327D01*
X87682734Y-122904039D01*
X131958096Y-122904039D01*
X132118959Y-123292423D01*
X132494866Y-123707389D01*
X132743367Y-123825000D01*
X132494866Y-123942611D01*
X132118959Y-124357577D01*
X131958096Y-124745961D01*
X132080085Y-124968000D01*
X133223000Y-124968000D01*
X133223000Y-122682000D01*
X133477000Y-122682000D01*
X133477000Y-124968000D01*
X134619915Y-124968000D01*
X134741904Y-124745961D01*
X134581041Y-124357577D01*
X134205134Y-123942611D01*
X133956633Y-123825000D01*
X134205134Y-123707389D01*
X134581041Y-123292423D01*
X134741904Y-122904039D01*
X134619915Y-122682000D01*
X133477000Y-122682000D01*
X133223000Y-122682000D01*
X132080085Y-122682000D01*
X131958096Y-122904039D01*
X87682734Y-122904039D01*
X87802838Y-122614799D01*
X87803162Y-122242833D01*
X87661117Y-121899057D01*
X87398327Y-121635808D01*
X87054799Y-121493162D01*
X86682833Y-121492838D01*
X86339057Y-121634883D01*
X86075808Y-121897673D01*
X85933162Y-122241201D01*
X85932838Y-122613167D01*
X86074883Y-122956943D01*
X86108000Y-122990118D01*
X86108000Y-126803005D01*
X85853302Y-126973189D01*
X85542233Y-127438736D01*
X85433000Y-127987887D01*
X84239000Y-127987887D01*
X84129767Y-127438736D01*
X83818698Y-126973189D01*
X83353151Y-126662120D01*
X82804000Y-126552887D01*
X82254849Y-126662120D01*
X81789302Y-126973189D01*
X81478233Y-127438736D01*
X81369000Y-127987887D01*
X76322919Y-127987887D01*
X76393113Y-127635000D01*
X76283880Y-127085849D01*
X75972811Y-126620302D01*
X75590725Y-126365000D01*
X75972811Y-126109698D01*
X76283880Y-125644151D01*
X76393113Y-125095000D01*
X76283880Y-124545849D01*
X75972811Y-124080302D01*
X75590725Y-123825000D01*
X75972811Y-123569698D01*
X76283880Y-123104151D01*
X76393113Y-122555000D01*
X76283880Y-122005849D01*
X75972811Y-121540302D01*
X75590725Y-121285000D01*
X75972811Y-121029698D01*
X76283880Y-120564151D01*
X76393113Y-120015000D01*
X76283880Y-119465849D01*
X75972811Y-119000302D01*
X75590725Y-118745000D01*
X75972811Y-118489698D01*
X76206347Y-118140187D01*
X81368752Y-118140187D01*
X81586757Y-118667800D01*
X81990077Y-119071824D01*
X82517309Y-119290750D01*
X83088187Y-119291248D01*
X83615800Y-119073243D01*
X84019824Y-118669923D01*
X84238750Y-118142691D01*
X84238752Y-118140187D01*
X85432752Y-118140187D01*
X85650757Y-118667800D01*
X86054077Y-119071824D01*
X86581309Y-119290750D01*
X87152187Y-119291248D01*
X87679800Y-119073243D01*
X88083824Y-118669923D01*
X88302750Y-118142691D01*
X88302752Y-118140187D01*
X89496752Y-118140187D01*
X89714757Y-118667800D01*
X90118077Y-119071824D01*
X90645309Y-119290750D01*
X91216187Y-119291248D01*
X91743800Y-119073243D01*
X92147824Y-118669923D01*
X92366750Y-118142691D01*
X92366752Y-118140187D01*
X93560752Y-118140187D01*
X93778757Y-118667800D01*
X94182077Y-119071824D01*
X94709309Y-119290750D01*
X95280187Y-119291248D01*
X95807800Y-119073243D01*
X96211824Y-118669923D01*
X96430750Y-118142691D01*
X96430752Y-118140187D01*
X97624752Y-118140187D01*
X97842757Y-118667800D01*
X98246077Y-119071824D01*
X98773309Y-119290750D01*
X99344187Y-119291248D01*
X99871800Y-119073243D01*
X100275824Y-118669923D01*
X100494750Y-118142691D01*
X100494752Y-118140187D01*
X101688752Y-118140187D01*
X101906757Y-118667800D01*
X102310077Y-119071824D01*
X102837309Y-119290750D01*
X103408187Y-119291248D01*
X103935800Y-119073243D01*
X104339824Y-118669923D01*
X104558750Y-118142691D01*
X104558752Y-118140187D01*
X105752752Y-118140187D01*
X105970757Y-118667800D01*
X106374077Y-119071824D01*
X106901309Y-119290750D01*
X107472187Y-119291248D01*
X107999800Y-119073243D01*
X108403824Y-118669923D01*
X108622750Y-118142691D01*
X108622752Y-118140187D01*
X109816752Y-118140187D01*
X110034757Y-118667800D01*
X110438077Y-119071824D01*
X110965309Y-119290750D01*
X111536187Y-119291248D01*
X112063800Y-119073243D01*
X112467824Y-118669923D01*
X112686750Y-118142691D01*
X112686752Y-118140187D01*
X113880752Y-118140187D01*
X114098757Y-118667800D01*
X114502077Y-119071824D01*
X115029309Y-119290750D01*
X115600187Y-119291248D01*
X116127800Y-119073243D01*
X116531824Y-118669923D01*
X116750750Y-118142691D01*
X116750752Y-118140187D01*
X117944752Y-118140187D01*
X118162757Y-118667800D01*
X118566077Y-119071824D01*
X119093309Y-119290750D01*
X119664187Y-119291248D01*
X120191800Y-119073243D01*
X120595824Y-118669923D01*
X120814750Y-118142691D01*
X120814752Y-118140187D01*
X122008752Y-118140187D01*
X122226757Y-118667800D01*
X122630077Y-119071824D01*
X123157309Y-119290750D01*
X123728187Y-119291248D01*
X124255800Y-119073243D01*
X124659824Y-118669923D01*
X124878750Y-118142691D01*
X124879248Y-117571813D01*
X124839246Y-117475000D01*
X127390907Y-117475000D01*
X127503946Y-118043285D01*
X127825853Y-118525054D01*
X128155026Y-118745000D01*
X127825853Y-118964946D01*
X127503946Y-119446715D01*
X127390907Y-120015000D01*
X127503946Y-120583285D01*
X127825853Y-121065054D01*
X128307622Y-121386961D01*
X128875907Y-121500000D01*
X128934093Y-121500000D01*
X129502378Y-121386961D01*
X129984147Y-121065054D01*
X130306054Y-120583285D01*
X130419093Y-120015000D01*
X130306054Y-119446715D01*
X129984147Y-118964946D01*
X129654974Y-118745000D01*
X129984147Y-118525054D01*
X130306054Y-118043285D01*
X130419093Y-117475000D01*
X131886887Y-117475000D01*
X131996120Y-118024151D01*
X132307189Y-118489698D01*
X132689275Y-118745000D01*
X132307189Y-119000302D01*
X131996120Y-119465849D01*
X131886887Y-120015000D01*
X131996120Y-120564151D01*
X132307189Y-121029698D01*
X132711703Y-121299986D01*
X132494866Y-121402611D01*
X132118959Y-121817577D01*
X131958096Y-122205961D01*
X132080085Y-122428000D01*
X133223000Y-122428000D01*
X133223000Y-122408000D01*
X133477000Y-122408000D01*
X133477000Y-122428000D01*
X134619915Y-122428000D01*
X134741904Y-122205961D01*
X134581041Y-121817577D01*
X134205134Y-121402611D01*
X133988297Y-121299986D01*
X134392811Y-121029698D01*
X134703880Y-120564151D01*
X134813113Y-120015000D01*
X134703880Y-119465849D01*
X134392811Y-119000302D01*
X134010725Y-118745000D01*
X134392811Y-118489698D01*
X134703880Y-118024151D01*
X134813113Y-117475000D01*
X134703880Y-116925849D01*
X134392811Y-116460302D01*
X134248535Y-116363899D01*
X134385317Y-116338162D01*
X134601441Y-116199090D01*
X134746431Y-115986890D01*
X134797440Y-115735000D01*
X134797440Y-114135000D01*
X134753162Y-113899683D01*
X134614090Y-113683559D01*
X134401890Y-113538569D01*
X134150000Y-113487560D01*
X132550000Y-113487560D01*
X132314683Y-113531838D01*
X132098559Y-113670910D01*
X131953569Y-113883110D01*
X131902560Y-114135000D01*
X131902560Y-115735000D01*
X131946838Y-115970317D01*
X132085910Y-116186441D01*
X132298110Y-116331431D01*
X132453089Y-116362815D01*
X132307189Y-116460302D01*
X131996120Y-116925849D01*
X131886887Y-117475000D01*
X130419093Y-117475000D01*
X130306054Y-116906715D01*
X129984147Y-116424946D01*
X129942548Y-116397150D01*
X129990317Y-116388162D01*
X130206441Y-116249090D01*
X130351431Y-116036890D01*
X130402440Y-115785000D01*
X130402440Y-114085000D01*
X130358162Y-113849683D01*
X130219090Y-113633559D01*
X130006890Y-113488569D01*
X129755000Y-113437560D01*
X128055000Y-113437560D01*
X127819683Y-113481838D01*
X127603559Y-113620910D01*
X127458569Y-113833110D01*
X127407560Y-114085000D01*
X127407560Y-115785000D01*
X127451838Y-116020317D01*
X127590910Y-116236441D01*
X127803110Y-116381431D01*
X127870541Y-116395086D01*
X127825853Y-116424946D01*
X127503946Y-116906715D01*
X127390907Y-117475000D01*
X124839246Y-117475000D01*
X124661243Y-117044200D01*
X124257923Y-116640176D01*
X123730691Y-116421250D01*
X123159813Y-116420752D01*
X122632200Y-116638757D01*
X122228176Y-117042077D01*
X122009250Y-117569309D01*
X122008752Y-118140187D01*
X120814752Y-118140187D01*
X120815248Y-117571813D01*
X120597243Y-117044200D01*
X120193923Y-116640176D01*
X119666691Y-116421250D01*
X119095813Y-116420752D01*
X118568200Y-116638757D01*
X118164176Y-117042077D01*
X117945250Y-117569309D01*
X117944752Y-118140187D01*
X116750752Y-118140187D01*
X116751248Y-117571813D01*
X116533243Y-117044200D01*
X116129923Y-116640176D01*
X115602691Y-116421250D01*
X115031813Y-116420752D01*
X114504200Y-116638757D01*
X114100176Y-117042077D01*
X113881250Y-117569309D01*
X113880752Y-118140187D01*
X112686752Y-118140187D01*
X112687248Y-117571813D01*
X112469243Y-117044200D01*
X112065923Y-116640176D01*
X111538691Y-116421250D01*
X110967813Y-116420752D01*
X110440200Y-116638757D01*
X110036176Y-117042077D01*
X109817250Y-117569309D01*
X109816752Y-118140187D01*
X108622752Y-118140187D01*
X108623248Y-117571813D01*
X108405243Y-117044200D01*
X108001923Y-116640176D01*
X107474691Y-116421250D01*
X106903813Y-116420752D01*
X106376200Y-116638757D01*
X105972176Y-117042077D01*
X105753250Y-117569309D01*
X105752752Y-118140187D01*
X104558752Y-118140187D01*
X104559248Y-117571813D01*
X104341243Y-117044200D01*
X103937923Y-116640176D01*
X103410691Y-116421250D01*
X102839813Y-116420752D01*
X102312200Y-116638757D01*
X101908176Y-117042077D01*
X101689250Y-117569309D01*
X101688752Y-118140187D01*
X100494752Y-118140187D01*
X100495248Y-117571813D01*
X100277243Y-117044200D01*
X99873923Y-116640176D01*
X99346691Y-116421250D01*
X98775813Y-116420752D01*
X98248200Y-116638757D01*
X97844176Y-117042077D01*
X97625250Y-117569309D01*
X97624752Y-118140187D01*
X96430752Y-118140187D01*
X96431248Y-117571813D01*
X96213243Y-117044200D01*
X95809923Y-116640176D01*
X95282691Y-116421250D01*
X94711813Y-116420752D01*
X94184200Y-116638757D01*
X93780176Y-117042077D01*
X93561250Y-117569309D01*
X93560752Y-118140187D01*
X92366752Y-118140187D01*
X92367248Y-117571813D01*
X92149243Y-117044200D01*
X91745923Y-116640176D01*
X91218691Y-116421250D01*
X90647813Y-116420752D01*
X90120200Y-116638757D01*
X89716176Y-117042077D01*
X89497250Y-117569309D01*
X89496752Y-118140187D01*
X88302752Y-118140187D01*
X88303248Y-117571813D01*
X88085243Y-117044200D01*
X87681923Y-116640176D01*
X87154691Y-116421250D01*
X86583813Y-116420752D01*
X86056200Y-116638757D01*
X85652176Y-117042077D01*
X85433250Y-117569309D01*
X85432752Y-118140187D01*
X84238752Y-118140187D01*
X84239248Y-117571813D01*
X84021243Y-117044200D01*
X83617923Y-116640176D01*
X83090691Y-116421250D01*
X82519813Y-116420752D01*
X81992200Y-116638757D01*
X81588176Y-117042077D01*
X81369250Y-117569309D01*
X81368752Y-118140187D01*
X76206347Y-118140187D01*
X76283880Y-118024151D01*
X76393113Y-117475000D01*
X76283880Y-116925849D01*
X75972811Y-116460302D01*
X75590725Y-116205000D01*
X75972811Y-115949698D01*
X76283880Y-115484151D01*
X76393113Y-114935000D01*
X76283880Y-114385849D01*
X76207733Y-114271887D01*
X85433000Y-114271887D01*
X85433000Y-114328113D01*
X85542233Y-114877264D01*
X85853302Y-115342811D01*
X86318849Y-115653880D01*
X86868000Y-115763113D01*
X87417151Y-115653880D01*
X87882698Y-115342811D01*
X88193767Y-114877264D01*
X88239163Y-114649041D01*
X89540086Y-114649041D01*
X89779611Y-115155134D01*
X90194577Y-115531041D01*
X90582961Y-115691904D01*
X90805000Y-115569915D01*
X90805000Y-114427000D01*
X91059000Y-114427000D01*
X91059000Y-115569915D01*
X91281039Y-115691904D01*
X91669423Y-115531041D01*
X92084389Y-115155134D01*
X92323914Y-114649041D01*
X92202629Y-114427000D01*
X91059000Y-114427000D01*
X90805000Y-114427000D01*
X89661371Y-114427000D01*
X89540086Y-114649041D01*
X88239163Y-114649041D01*
X88303000Y-114328113D01*
X88303000Y-114271887D01*
X93561000Y-114271887D01*
X93561000Y-114328113D01*
X93670233Y-114877264D01*
X93981302Y-115342811D01*
X94446849Y-115653880D01*
X94996000Y-115763113D01*
X95545151Y-115653880D01*
X96010698Y-115342811D01*
X96321767Y-114877264D01*
X96431000Y-114328113D01*
X96431000Y-114271887D01*
X96392073Y-114076187D01*
X97196752Y-114076187D01*
X97414757Y-114603800D01*
X97818077Y-115007824D01*
X98345309Y-115226750D01*
X98916187Y-115227248D01*
X99443800Y-115009243D01*
X99847824Y-114605923D01*
X100066750Y-114078691D01*
X100066752Y-114076187D01*
X102196752Y-114076187D01*
X102414757Y-114603800D01*
X102818077Y-115007824D01*
X103345309Y-115226750D01*
X103916187Y-115227248D01*
X104443800Y-115009243D01*
X104847824Y-114605923D01*
X105066750Y-114078691D01*
X105066752Y-114076187D01*
X105324752Y-114076187D01*
X105542757Y-114603800D01*
X105946077Y-115007824D01*
X106473309Y-115226750D01*
X107044187Y-115227248D01*
X107571800Y-115009243D01*
X107975824Y-114605923D01*
X108194750Y-114078691D01*
X108194752Y-114076187D01*
X110324752Y-114076187D01*
X110542757Y-114603800D01*
X110946077Y-115007824D01*
X111473309Y-115226750D01*
X112044187Y-115227248D01*
X112571800Y-115009243D01*
X112975824Y-114605923D01*
X113194750Y-114078691D01*
X113194752Y-114076187D01*
X117516752Y-114076187D01*
X117734757Y-114603800D01*
X118138077Y-115007824D01*
X118665309Y-115226750D01*
X119236187Y-115227248D01*
X119763800Y-115009243D01*
X120167824Y-114605923D01*
X120386750Y-114078691D01*
X120386752Y-114076187D01*
X122516752Y-114076187D01*
X122734757Y-114603800D01*
X123138077Y-115007824D01*
X123665309Y-115226750D01*
X124236187Y-115227248D01*
X124763800Y-115009243D01*
X125167824Y-114605923D01*
X125386750Y-114078691D01*
X125387248Y-113507813D01*
X125169243Y-112980200D01*
X124765923Y-112576176D01*
X124238691Y-112357250D01*
X123667813Y-112356752D01*
X123140200Y-112574757D01*
X122736176Y-112978077D01*
X122517250Y-113505309D01*
X122516752Y-114076187D01*
X120386752Y-114076187D01*
X120387248Y-113507813D01*
X120169243Y-112980200D01*
X119765923Y-112576176D01*
X119238691Y-112357250D01*
X118667813Y-112356752D01*
X118140200Y-112574757D01*
X117736176Y-112978077D01*
X117517250Y-113505309D01*
X117516752Y-114076187D01*
X113194752Y-114076187D01*
X113195248Y-113507813D01*
X112977243Y-112980200D01*
X112573923Y-112576176D01*
X112046691Y-112357250D01*
X111475813Y-112356752D01*
X110948200Y-112574757D01*
X110544176Y-112978077D01*
X110325250Y-113505309D01*
X110324752Y-114076187D01*
X108194752Y-114076187D01*
X108195248Y-113507813D01*
X107977243Y-112980200D01*
X107573923Y-112576176D01*
X107046691Y-112357250D01*
X106475813Y-112356752D01*
X105948200Y-112574757D01*
X105544176Y-112978077D01*
X105325250Y-113505309D01*
X105324752Y-114076187D01*
X105066752Y-114076187D01*
X105067248Y-113507813D01*
X104849243Y-112980200D01*
X104445923Y-112576176D01*
X103918691Y-112357250D01*
X103347813Y-112356752D01*
X102820200Y-112574757D01*
X102416176Y-112978077D01*
X102197250Y-113505309D01*
X102196752Y-114076187D01*
X100066752Y-114076187D01*
X100067248Y-113507813D01*
X99849243Y-112980200D01*
X99445923Y-112576176D01*
X98918691Y-112357250D01*
X98347813Y-112356752D01*
X97820200Y-112574757D01*
X97416176Y-112978077D01*
X97197250Y-113505309D01*
X97196752Y-114076187D01*
X96392073Y-114076187D01*
X96321767Y-113722736D01*
X96010698Y-113257189D01*
X95545151Y-112946120D01*
X94996000Y-112836887D01*
X94446849Y-112946120D01*
X93981302Y-113257189D01*
X93670233Y-113722736D01*
X93561000Y-114271887D01*
X88303000Y-114271887D01*
X88239164Y-113950959D01*
X89540086Y-113950959D01*
X89661371Y-114173000D01*
X90805000Y-114173000D01*
X90805000Y-113030085D01*
X91059000Y-113030085D01*
X91059000Y-114173000D01*
X92202629Y-114173000D01*
X92323914Y-113950959D01*
X92084389Y-113444866D01*
X91669423Y-113068959D01*
X91281039Y-112908096D01*
X91059000Y-113030085D01*
X90805000Y-113030085D01*
X90582961Y-112908096D01*
X90194577Y-113068959D01*
X89779611Y-113444866D01*
X89540086Y-113950959D01*
X88239164Y-113950959D01*
X88193767Y-113722736D01*
X87882698Y-113257189D01*
X87417151Y-112946120D01*
X86868000Y-112836887D01*
X86318849Y-112946120D01*
X85853302Y-113257189D01*
X85542233Y-113722736D01*
X85433000Y-114271887D01*
X76207733Y-114271887D01*
X75972811Y-113920302D01*
X75590725Y-113665000D01*
X75972811Y-113409698D01*
X76283880Y-112944151D01*
X76393113Y-112395000D01*
X76340948Y-112132745D01*
X133871861Y-112132745D01*
X133945995Y-112378864D01*
X134483223Y-112571965D01*
X135053454Y-112544778D01*
X135454005Y-112378864D01*
X135528139Y-112132745D01*
X134700000Y-111304605D01*
X133871861Y-112132745D01*
X76340948Y-112132745D01*
X76283880Y-111845849D01*
X75972811Y-111380302D01*
X75590725Y-111125000D01*
X75915154Y-110908223D01*
X133253035Y-110908223D01*
X133280222Y-111478454D01*
X133446136Y-111879005D01*
X133692255Y-111953139D01*
X134520395Y-111125000D01*
X134879605Y-111125000D01*
X135707745Y-111953139D01*
X135953864Y-111879005D01*
X136146965Y-111341777D01*
X136119778Y-110771546D01*
X135953864Y-110370995D01*
X135707745Y-110296861D01*
X134879605Y-111125000D01*
X134520395Y-111125000D01*
X133692255Y-110296861D01*
X133446136Y-110370995D01*
X133253035Y-110908223D01*
X75915154Y-110908223D01*
X75972811Y-110869698D01*
X76283880Y-110404151D01*
X76340947Y-110117255D01*
X133871861Y-110117255D01*
X134700000Y-110945395D01*
X135528139Y-110117255D01*
X135454005Y-109871136D01*
X134916777Y-109678035D01*
X134346546Y-109705222D01*
X133945995Y-109871136D01*
X133871861Y-110117255D01*
X76340947Y-110117255D01*
X76393113Y-109855000D01*
X76283880Y-109305849D01*
X75972811Y-108840302D01*
X75590725Y-108585000D01*
X75972811Y-108329698D01*
X76283880Y-107864151D01*
X76393113Y-107315000D01*
X76323332Y-106964187D01*
X97196752Y-106964187D01*
X97414757Y-107491800D01*
X97818077Y-107895824D01*
X98345309Y-108114750D01*
X98916187Y-108115248D01*
X99443800Y-107897243D01*
X99847824Y-107493923D01*
X100066750Y-106966691D01*
X100066752Y-106964187D01*
X102196752Y-106964187D01*
X102414757Y-107491800D01*
X102818077Y-107895824D01*
X103345309Y-108114750D01*
X103916187Y-108115248D01*
X104443800Y-107897243D01*
X104847824Y-107493923D01*
X105066750Y-106966691D01*
X105067248Y-106395813D01*
X104849243Y-105868200D01*
X104445923Y-105464176D01*
X103918691Y-105245250D01*
X103347813Y-105244752D01*
X102820200Y-105462757D01*
X102416176Y-105866077D01*
X102197250Y-106393309D01*
X102196752Y-106964187D01*
X100066752Y-106964187D01*
X100067248Y-106395813D01*
X99849243Y-105868200D01*
X99445923Y-105464176D01*
X98918691Y-105245250D01*
X98347813Y-105244752D01*
X97820200Y-105462757D01*
X97416176Y-105866077D01*
X97197250Y-106393309D01*
X97196752Y-106964187D01*
X76323332Y-106964187D01*
X76283880Y-106765849D01*
X75972811Y-106300302D01*
X75590725Y-106045000D01*
X75972811Y-105789698D01*
X76283880Y-105324151D01*
X76393113Y-104775000D01*
X76323332Y-104424187D01*
X85432752Y-104424187D01*
X85650757Y-104951800D01*
X86054077Y-105355824D01*
X86581309Y-105574750D01*
X87152187Y-105575248D01*
X87679800Y-105357243D01*
X88083824Y-104953923D01*
X88302750Y-104426691D01*
X88302752Y-104424187D01*
X89496752Y-104424187D01*
X89714757Y-104951800D01*
X90118077Y-105355824D01*
X90645309Y-105574750D01*
X91216187Y-105575248D01*
X91743800Y-105357243D01*
X92147824Y-104953923D01*
X92366750Y-104426691D01*
X92366752Y-104424187D01*
X93560752Y-104424187D01*
X93778757Y-104951800D01*
X94182077Y-105355824D01*
X94709309Y-105574750D01*
X95280187Y-105575248D01*
X95807800Y-105357243D01*
X96211824Y-104953923D01*
X96286119Y-104775000D01*
X140597305Y-104775000D01*
X140721723Y-105400492D01*
X141076036Y-105930759D01*
X141606303Y-106285072D01*
X142231795Y-106409490D01*
X143518205Y-106409490D01*
X144143697Y-106285072D01*
X144673964Y-105930759D01*
X145028277Y-105400492D01*
X145152695Y-104775000D01*
X145028277Y-104149508D01*
X144673964Y-103619241D01*
X144143697Y-103264928D01*
X143518205Y-103140510D01*
X142231795Y-103140510D01*
X141606303Y-103264928D01*
X141076036Y-103619241D01*
X140721723Y-104149508D01*
X140597305Y-104775000D01*
X96286119Y-104775000D01*
X96430750Y-104426691D01*
X96431248Y-103855813D01*
X96213243Y-103328200D01*
X95809923Y-102924176D01*
X95282691Y-102705250D01*
X94711813Y-102704752D01*
X94184200Y-102922757D01*
X93780176Y-103326077D01*
X93561250Y-103853309D01*
X93560752Y-104424187D01*
X92366752Y-104424187D01*
X92367248Y-103855813D01*
X92149243Y-103328200D01*
X91745923Y-102924176D01*
X91218691Y-102705250D01*
X90647813Y-102704752D01*
X90120200Y-102922757D01*
X89716176Y-103326077D01*
X89497250Y-103853309D01*
X89496752Y-104424187D01*
X88302752Y-104424187D01*
X88303248Y-103855813D01*
X88085243Y-103328200D01*
X87681923Y-102924176D01*
X87154691Y-102705250D01*
X86583813Y-102704752D01*
X86056200Y-102922757D01*
X85652176Y-103326077D01*
X85433250Y-103853309D01*
X85432752Y-104424187D01*
X76323332Y-104424187D01*
X76283880Y-104225849D01*
X75972811Y-103760302D01*
X75590725Y-103505000D01*
X75972811Y-103249698D01*
X76283880Y-102784151D01*
X76393113Y-102235000D01*
X76283880Y-101685849D01*
X75972811Y-101220302D01*
X75780794Y-101092000D01*
X143780510Y-101092000D01*
X143780510Y-101691440D01*
X143953529Y-102307265D01*
X144349044Y-102810002D01*
X144906841Y-103123113D01*
X145034646Y-103154059D01*
X145288000Y-103034705D01*
X145288000Y-101092000D01*
X145542000Y-101092000D01*
X145542000Y-103034705D01*
X145795354Y-103154059D01*
X145923159Y-103123113D01*
X146480956Y-102810002D01*
X146876471Y-102307265D01*
X147049490Y-101691440D01*
X147049490Y-101092000D01*
X145542000Y-101092000D01*
X145288000Y-101092000D01*
X143780510Y-101092000D01*
X75780794Y-101092000D01*
X75590725Y-100965000D01*
X75972811Y-100709698D01*
X76283880Y-100244151D01*
X76393113Y-99695000D01*
X76283880Y-99145849D01*
X75972811Y-98680302D01*
X75590725Y-98425000D01*
X75972811Y-98169698D01*
X76272510Y-97721167D01*
X83392838Y-97721167D01*
X83534883Y-98064943D01*
X83568000Y-98098118D01*
X83568000Y-99005537D01*
X83535808Y-99037673D01*
X83393162Y-99381201D01*
X83392838Y-99753167D01*
X83534883Y-100096943D01*
X83797673Y-100360192D01*
X84141201Y-100502838D01*
X84513167Y-100503162D01*
X84856943Y-100361117D01*
X85120192Y-100098327D01*
X85144323Y-100040213D01*
X99529392Y-100040213D01*
X99598857Y-100282397D01*
X100122302Y-100469144D01*
X100677368Y-100441362D01*
X101061143Y-100282397D01*
X101130608Y-100040213D01*
X100330000Y-99239605D01*
X99529392Y-100040213D01*
X85144323Y-100040213D01*
X85262838Y-99754799D01*
X85263162Y-99382833D01*
X85121117Y-99039057D01*
X85088000Y-99005882D01*
X85088000Y-98852302D01*
X98920856Y-98852302D01*
X98948638Y-99407368D01*
X99107603Y-99791143D01*
X99349787Y-99860608D01*
X100150395Y-99060000D01*
X100509605Y-99060000D01*
X101310213Y-99860608D01*
X101552397Y-99791143D01*
X101714540Y-99336661D01*
X133222758Y-99336661D01*
X133434990Y-99850303D01*
X133827630Y-100243629D01*
X134340900Y-100456757D01*
X134896661Y-100457242D01*
X135410303Y-100245010D01*
X135416764Y-100238560D01*
X143780510Y-100238560D01*
X143780510Y-100838000D01*
X145288000Y-100838000D01*
X145288000Y-98895295D01*
X145542000Y-98895295D01*
X145542000Y-100838000D01*
X147049490Y-100838000D01*
X147049490Y-100238560D01*
X146876471Y-99622735D01*
X146480956Y-99119998D01*
X145923159Y-98806887D01*
X145795354Y-98775941D01*
X145542000Y-98895295D01*
X145288000Y-98895295D01*
X145034646Y-98775941D01*
X144906841Y-98806887D01*
X144349044Y-99119998D01*
X143953529Y-99622735D01*
X143780510Y-100238560D01*
X135416764Y-100238560D01*
X135803629Y-99852370D01*
X136016757Y-99339100D01*
X136017242Y-98783339D01*
X135805010Y-98269697D01*
X135412370Y-97876371D01*
X135220273Y-97796605D01*
X135351143Y-97742397D01*
X135420608Y-97500213D01*
X134620000Y-96699605D01*
X133819392Y-97500213D01*
X133888857Y-97742397D01*
X134029318Y-97792509D01*
X133829697Y-97874990D01*
X133436371Y-98267630D01*
X133223243Y-98780900D01*
X133222758Y-99336661D01*
X101714540Y-99336661D01*
X101739144Y-99267698D01*
X101711362Y-98712632D01*
X101552397Y-98328857D01*
X101310213Y-98259392D01*
X100509605Y-99060000D01*
X100150395Y-99060000D01*
X99349787Y-98259392D01*
X99107603Y-98328857D01*
X98920856Y-98852302D01*
X85088000Y-98852302D01*
X85088000Y-98098463D01*
X85120192Y-98066327D01*
X85262838Y-97722799D01*
X85263162Y-97350833D01*
X85121117Y-97007057D01*
X84858327Y-96743808D01*
X84514799Y-96601162D01*
X84142833Y-96600838D01*
X83799057Y-96742883D01*
X83535808Y-97005673D01*
X83393162Y-97349201D01*
X83392838Y-97721167D01*
X76272510Y-97721167D01*
X76283880Y-97704151D01*
X76393113Y-97155000D01*
X76283880Y-96605849D01*
X75972811Y-96140302D01*
X75590725Y-95885000D01*
X75972811Y-95629698D01*
X76283880Y-95164151D01*
X76393113Y-94615000D01*
X76291668Y-94105000D01*
X78771354Y-94105000D01*
X78792757Y-94156800D01*
X79196077Y-94560824D01*
X79723309Y-94779750D01*
X80294187Y-94780248D01*
X80821800Y-94562243D01*
X81225824Y-94158923D01*
X81444750Y-93631691D01*
X81444752Y-93629187D01*
X86194752Y-93629187D01*
X86412757Y-94156800D01*
X86816077Y-94560824D01*
X87343309Y-94779750D01*
X87914187Y-94780248D01*
X88441800Y-94562243D01*
X88845824Y-94158923D01*
X89064750Y-93631691D01*
X89064752Y-93629187D01*
X93814752Y-93629187D01*
X94032757Y-94156800D01*
X94436077Y-94560824D01*
X94963309Y-94779750D01*
X95534187Y-94780248D01*
X96061800Y-94562243D01*
X96465824Y-94158923D01*
X96684750Y-93631691D01*
X96685248Y-93060813D01*
X96467243Y-92533200D01*
X96063923Y-92129176D01*
X95536691Y-91910250D01*
X94965813Y-91909752D01*
X94438200Y-92127757D01*
X94034176Y-92531077D01*
X93815250Y-93058309D01*
X93814752Y-93629187D01*
X89064752Y-93629187D01*
X89065248Y-93060813D01*
X88847243Y-92533200D01*
X88443923Y-92129176D01*
X87916691Y-91910250D01*
X87345813Y-91909752D01*
X86818200Y-92127757D01*
X86414176Y-92531077D01*
X86195250Y-93058309D01*
X86194752Y-93629187D01*
X81444752Y-93629187D01*
X81445248Y-93060813D01*
X81227243Y-92533200D01*
X80823923Y-92129176D01*
X80296691Y-91910250D01*
X79725813Y-91909752D01*
X79198200Y-92127757D01*
X78794176Y-92531077D01*
X78771785Y-92585000D01*
X76291668Y-92585000D01*
X76393113Y-92075000D01*
X76321835Y-91716661D01*
X98932758Y-91716661D01*
X99144990Y-92230303D01*
X99537630Y-92623629D01*
X99745512Y-92709949D01*
X99539697Y-92794990D01*
X99146371Y-93187630D01*
X98933243Y-93700900D01*
X98932758Y-94256661D01*
X99144990Y-94770303D01*
X99537630Y-95163629D01*
X99745512Y-95249949D01*
X99539697Y-95334990D01*
X99146371Y-95727630D01*
X98933243Y-96240900D01*
X98932758Y-96796661D01*
X99144990Y-97310303D01*
X99537630Y-97703629D01*
X99729727Y-97783395D01*
X99598857Y-97837603D01*
X99529392Y-98079787D01*
X100330000Y-98880395D01*
X101130608Y-98079787D01*
X101061143Y-97837603D01*
X100920682Y-97787491D01*
X101120303Y-97705010D01*
X101513629Y-97312370D01*
X101726757Y-96799100D01*
X101727181Y-96312302D01*
X133210856Y-96312302D01*
X133238638Y-96867368D01*
X133397603Y-97251143D01*
X133639787Y-97320608D01*
X134440395Y-96520000D01*
X134799605Y-96520000D01*
X135600213Y-97320608D01*
X135842397Y-97251143D01*
X135876697Y-97155000D01*
X140597305Y-97155000D01*
X140721723Y-97780492D01*
X141076036Y-98310759D01*
X141606303Y-98665072D01*
X142231795Y-98789490D01*
X143518205Y-98789490D01*
X144143697Y-98665072D01*
X144673964Y-98310759D01*
X145028277Y-97780492D01*
X145152695Y-97155000D01*
X145028277Y-96529508D01*
X144673964Y-95999241D01*
X144143697Y-95644928D01*
X143518205Y-95520510D01*
X142231795Y-95520510D01*
X141606303Y-95644928D01*
X141076036Y-95999241D01*
X140721723Y-96529508D01*
X140597305Y-97155000D01*
X135876697Y-97155000D01*
X136029144Y-96727698D01*
X136001362Y-96172632D01*
X135842397Y-95788857D01*
X135600213Y-95719392D01*
X134799605Y-96520000D01*
X134440395Y-96520000D01*
X133639787Y-95719392D01*
X133397603Y-95788857D01*
X133210856Y-96312302D01*
X101727181Y-96312302D01*
X101727242Y-96243339D01*
X101515010Y-95729697D01*
X101122370Y-95336371D01*
X100914488Y-95250051D01*
X101120303Y-95165010D01*
X101325457Y-94960213D01*
X133819392Y-94960213D01*
X133888857Y-95202397D01*
X134012344Y-95246453D01*
X133888857Y-95297603D01*
X133819392Y-95539787D01*
X134620000Y-96340395D01*
X135420608Y-95539787D01*
X135351143Y-95297603D01*
X135227656Y-95253547D01*
X135351143Y-95202397D01*
X135420608Y-94960213D01*
X134620000Y-94159605D01*
X133819392Y-94960213D01*
X101325457Y-94960213D01*
X101513629Y-94772370D01*
X101726757Y-94259100D01*
X101727181Y-93772302D01*
X133210856Y-93772302D01*
X133238638Y-94327368D01*
X133397603Y-94711143D01*
X133639787Y-94780608D01*
X134440395Y-93980000D01*
X134799605Y-93980000D01*
X135600213Y-94780608D01*
X135842397Y-94711143D01*
X136029144Y-94187698D01*
X136001362Y-93632632D01*
X135842397Y-93248857D01*
X135600213Y-93179392D01*
X134799605Y-93980000D01*
X134440395Y-93980000D01*
X133639787Y-93179392D01*
X133397603Y-93248857D01*
X133210856Y-93772302D01*
X101727181Y-93772302D01*
X101727242Y-93703339D01*
X101515010Y-93189697D01*
X101122370Y-92796371D01*
X100914488Y-92710051D01*
X101120303Y-92625010D01*
X101513629Y-92232370D01*
X101726757Y-91719100D01*
X101726759Y-91716661D01*
X133222758Y-91716661D01*
X133434990Y-92230303D01*
X133827630Y-92623629D01*
X134019727Y-92703395D01*
X133888857Y-92757603D01*
X133819392Y-92999787D01*
X134620000Y-93800395D01*
X135420608Y-92999787D01*
X135351143Y-92757603D01*
X135210682Y-92707491D01*
X135410303Y-92625010D01*
X135803629Y-92232370D01*
X135868974Y-92075000D01*
X140597305Y-92075000D01*
X140721723Y-92700492D01*
X141076036Y-93230759D01*
X141606303Y-93585072D01*
X142231795Y-93709490D01*
X143518205Y-93709490D01*
X144143697Y-93585072D01*
X144673964Y-93230759D01*
X145028277Y-92700492D01*
X145152695Y-92075000D01*
X145028277Y-91449508D01*
X144673964Y-90919241D01*
X144143697Y-90564928D01*
X143518205Y-90440510D01*
X142231795Y-90440510D01*
X141606303Y-90564928D01*
X141076036Y-90919241D01*
X140721723Y-91449508D01*
X140597305Y-92075000D01*
X135868974Y-92075000D01*
X136016757Y-91719100D01*
X136017242Y-91163339D01*
X135805010Y-90649697D01*
X135412370Y-90256371D01*
X134899100Y-90043243D01*
X134343339Y-90042758D01*
X133829697Y-90254990D01*
X133436371Y-90647630D01*
X133223243Y-91160900D01*
X133222758Y-91716661D01*
X101726759Y-91716661D01*
X101727242Y-91163339D01*
X101515010Y-90649697D01*
X101122370Y-90256371D01*
X100609100Y-90043243D01*
X100053339Y-90042758D01*
X99539697Y-90254990D01*
X99146371Y-90647630D01*
X98933243Y-91160900D01*
X98932758Y-91716661D01*
X76321835Y-91716661D01*
X76283880Y-91525849D01*
X75972811Y-91060302D01*
X75590725Y-90805000D01*
X75972811Y-90549698D01*
X76283880Y-90084151D01*
X76393113Y-89535000D01*
X76283880Y-88985849D01*
X75972811Y-88520302D01*
X75780794Y-88392000D01*
X143780510Y-88392000D01*
X143780510Y-88991440D01*
X143953529Y-89607265D01*
X144349044Y-90110002D01*
X144906841Y-90423113D01*
X145034646Y-90454059D01*
X145288000Y-90334705D01*
X145288000Y-88392000D01*
X145542000Y-88392000D01*
X145542000Y-90334705D01*
X145795354Y-90454059D01*
X145923159Y-90423113D01*
X146480956Y-90110002D01*
X146876471Y-89607265D01*
X147049490Y-88991440D01*
X147049490Y-88392000D01*
X145542000Y-88392000D01*
X145288000Y-88392000D01*
X143780510Y-88392000D01*
X75780794Y-88392000D01*
X75590725Y-88265000D01*
X75972811Y-88009698D01*
X76283880Y-87544151D01*
X76284992Y-87538560D01*
X143780510Y-87538560D01*
X143780510Y-88138000D01*
X145288000Y-88138000D01*
X145288000Y-86195295D01*
X145542000Y-86195295D01*
X145542000Y-88138000D01*
X147049490Y-88138000D01*
X147049490Y-87538560D01*
X146876471Y-86922735D01*
X146480956Y-86419998D01*
X145923159Y-86106887D01*
X145795354Y-86075941D01*
X145542000Y-86195295D01*
X145288000Y-86195295D01*
X145034646Y-86075941D01*
X144906841Y-86106887D01*
X144349044Y-86419998D01*
X143953529Y-86922735D01*
X143780510Y-87538560D01*
X76284992Y-87538560D01*
X76393113Y-86995000D01*
X76340948Y-86732745D01*
X79181861Y-86732745D01*
X79255995Y-86978864D01*
X79793223Y-87171965D01*
X80363454Y-87144778D01*
X80764005Y-86978864D01*
X80838139Y-86732745D01*
X86801861Y-86732745D01*
X86875995Y-86978864D01*
X87413223Y-87171965D01*
X87983454Y-87144778D01*
X88384005Y-86978864D01*
X88458139Y-86732745D01*
X87630000Y-85904605D01*
X86801861Y-86732745D01*
X80838139Y-86732745D01*
X80010000Y-85904605D01*
X79181861Y-86732745D01*
X76340948Y-86732745D01*
X76283880Y-86445849D01*
X75972811Y-85980302D01*
X75590725Y-85725000D01*
X75915154Y-85508223D01*
X78563035Y-85508223D01*
X78590222Y-86078454D01*
X78756136Y-86479005D01*
X79002255Y-86553139D01*
X79830395Y-85725000D01*
X80189605Y-85725000D01*
X81017745Y-86553139D01*
X81263864Y-86479005D01*
X81456965Y-85941777D01*
X81436295Y-85508223D01*
X86183035Y-85508223D01*
X86210222Y-86078454D01*
X86376136Y-86479005D01*
X86622255Y-86553139D01*
X87450395Y-85725000D01*
X87809605Y-85725000D01*
X88637745Y-86553139D01*
X88883864Y-86479005D01*
X89076965Y-85941777D01*
X89049778Y-85371546D01*
X88883864Y-84970995D01*
X88731165Y-84925000D01*
X93802560Y-84925000D01*
X93802560Y-86525000D01*
X93846838Y-86760317D01*
X93985910Y-86976441D01*
X94198110Y-87121431D01*
X94450000Y-87172440D01*
X96050000Y-87172440D01*
X96285317Y-87128162D01*
X96501441Y-86989090D01*
X96646431Y-86776890D01*
X96697440Y-86525000D01*
X96697440Y-84925000D01*
X96653162Y-84689683D01*
X96514090Y-84473559D01*
X96486928Y-84455000D01*
X140597305Y-84455000D01*
X140721723Y-85080492D01*
X141076036Y-85610759D01*
X141606303Y-85965072D01*
X142231795Y-86089490D01*
X143518205Y-86089490D01*
X144143697Y-85965072D01*
X144673964Y-85610759D01*
X145028277Y-85080492D01*
X145152695Y-84455000D01*
X145028277Y-83829508D01*
X144673964Y-83299241D01*
X144143697Y-82944928D01*
X143518205Y-82820510D01*
X142231795Y-82820510D01*
X141606303Y-82944928D01*
X141076036Y-83299241D01*
X140721723Y-83829508D01*
X140597305Y-84455000D01*
X96486928Y-84455000D01*
X96301890Y-84328569D01*
X96050000Y-84277560D01*
X94450000Y-84277560D01*
X94214683Y-84321838D01*
X93998559Y-84460910D01*
X93853569Y-84673110D01*
X93802560Y-84925000D01*
X88731165Y-84925000D01*
X88637745Y-84896861D01*
X87809605Y-85725000D01*
X87450395Y-85725000D01*
X86622255Y-84896861D01*
X86376136Y-84970995D01*
X86183035Y-85508223D01*
X81436295Y-85508223D01*
X81429778Y-85371546D01*
X81263864Y-84970995D01*
X81017745Y-84896861D01*
X80189605Y-85725000D01*
X79830395Y-85725000D01*
X79002255Y-84896861D01*
X78756136Y-84970995D01*
X78563035Y-85508223D01*
X75915154Y-85508223D01*
X75972811Y-85469698D01*
X76283880Y-85004151D01*
X76340947Y-84717255D01*
X79181861Y-84717255D01*
X80010000Y-85545395D01*
X80838139Y-84717255D01*
X86801861Y-84717255D01*
X87630000Y-85545395D01*
X88458139Y-84717255D01*
X88384005Y-84471136D01*
X87846777Y-84278035D01*
X87276546Y-84305222D01*
X86875995Y-84471136D01*
X86801861Y-84717255D01*
X80838139Y-84717255D01*
X80764005Y-84471136D01*
X80226777Y-84278035D01*
X79656546Y-84305222D01*
X79255995Y-84471136D01*
X79181861Y-84717255D01*
X76340947Y-84717255D01*
X76393113Y-84455000D01*
X76283880Y-83905849D01*
X75972811Y-83440302D01*
X75507264Y-83129233D01*
X74958113Y-83020000D01*
X74901887Y-83020000D01*
X74352736Y-83129233D01*
X73887189Y-83440302D01*
X73576120Y-83905849D01*
X73466887Y-84455000D01*
X73576120Y-85004151D01*
X73887189Y-85469698D01*
X74269275Y-85725000D01*
X73887189Y-85980302D01*
X73576120Y-86445849D01*
X73466887Y-86995000D01*
X73576120Y-87544151D01*
X73887189Y-88009698D01*
X74269275Y-88265000D01*
X73887189Y-88520302D01*
X73576120Y-88985849D01*
X73466887Y-89535000D01*
X73576120Y-90084151D01*
X73887189Y-90549698D01*
X74269275Y-90805000D01*
X73887189Y-91060302D01*
X73576120Y-91525849D01*
X73466887Y-92075000D01*
X73533501Y-92409889D01*
X73474833Y-92409838D01*
X73131057Y-92551883D01*
X72867808Y-92814673D01*
X72725162Y-93158201D01*
X72724838Y-93530167D01*
X72866883Y-93873943D01*
X73129673Y-94137192D01*
X73473201Y-94279838D01*
X73533544Y-94279891D01*
X73466887Y-94615000D01*
X73576120Y-95164151D01*
X73887189Y-95629698D01*
X74269275Y-95885000D01*
X73887189Y-96140302D01*
X73576120Y-96605849D01*
X73466887Y-97155000D01*
X73576120Y-97704151D01*
X73887189Y-98169698D01*
X74269275Y-98425000D01*
X73887189Y-98680302D01*
X73576120Y-99145849D01*
X73466887Y-99695000D01*
X73576120Y-100244151D01*
X73887189Y-100709698D01*
X74269275Y-100965000D01*
X73887189Y-101220302D01*
X73576120Y-101685849D01*
X73466887Y-102235000D01*
X73576120Y-102784151D01*
X73887189Y-103249698D01*
X74269275Y-103505000D01*
X73887189Y-103760302D01*
X73576120Y-104225849D01*
X73466887Y-104775000D01*
X73576120Y-105324151D01*
X73887189Y-105789698D01*
X74269275Y-106045000D01*
X73887189Y-106300302D01*
X73576120Y-106765849D01*
X73466887Y-107315000D01*
X73576120Y-107864151D01*
X73887189Y-108329698D01*
X74269275Y-108585000D01*
X73887189Y-108840302D01*
X73576120Y-109305849D01*
X73466887Y-109855000D01*
X73576120Y-110404151D01*
X73887189Y-110869698D01*
X74269275Y-111125000D01*
X73887189Y-111380302D01*
X73576120Y-111845849D01*
X73466887Y-112395000D01*
X73576120Y-112944151D01*
X73887189Y-113409698D01*
X74269275Y-113665000D01*
X73887189Y-113920302D01*
X73576120Y-114385849D01*
X73466887Y-114935000D01*
X73576120Y-115484151D01*
X73887189Y-115949698D01*
X74269275Y-116205000D01*
X73887189Y-116460302D01*
X73576120Y-116925849D01*
X73466887Y-117475000D01*
X73576120Y-118024151D01*
X73887189Y-118489698D01*
X74269275Y-118745000D01*
X73887189Y-119000302D01*
X73576120Y-119465849D01*
X73466887Y-120015000D01*
X73576120Y-120564151D01*
X73887189Y-121029698D01*
X74269275Y-121285000D01*
X73887189Y-121540302D01*
X73576120Y-122005849D01*
X73466887Y-122555000D01*
X73576120Y-123104151D01*
X73887189Y-123569698D01*
X74269275Y-123825000D01*
X73887189Y-124080302D01*
X73576120Y-124545849D01*
X73466887Y-125095000D01*
X73576120Y-125644151D01*
X73887189Y-126109698D01*
X74269275Y-126365000D01*
X73887189Y-126620302D01*
X73717005Y-126875000D01*
X68580000Y-126875000D01*
X68289161Y-126932852D01*
X68042599Y-127097599D01*
X67805320Y-127334878D01*
X67759833Y-127334838D01*
X67416057Y-127476883D01*
X67152808Y-127739673D01*
X67010162Y-128083201D01*
X67009838Y-128455167D01*
X60862792Y-128455167D01*
X61043880Y-128184151D01*
X61153113Y-127635000D01*
X61043880Y-127085849D01*
X60732811Y-126620302D01*
X60350725Y-126365000D01*
X60732811Y-126109698D01*
X61043880Y-125644151D01*
X61153113Y-125095000D01*
X61043880Y-124545849D01*
X60732811Y-124080302D01*
X60350725Y-123825000D01*
X60732811Y-123569698D01*
X61043880Y-123104151D01*
X61153113Y-122555000D01*
X61043880Y-122005849D01*
X60732811Y-121540302D01*
X60350725Y-121285000D01*
X60732811Y-121029698D01*
X61043880Y-120564151D01*
X61153113Y-120015000D01*
X61043880Y-119465849D01*
X60732811Y-119000302D01*
X60350725Y-118745000D01*
X60732811Y-118489698D01*
X61043880Y-118024151D01*
X61153113Y-117475000D01*
X61043880Y-116925849D01*
X60732811Y-116460302D01*
X60350725Y-116205000D01*
X60732811Y-115949698D01*
X61043880Y-115484151D01*
X61153113Y-114935000D01*
X61043880Y-114385849D01*
X60732811Y-113920302D01*
X60350725Y-113665000D01*
X60732811Y-113409698D01*
X61043880Y-112944151D01*
X61153113Y-112395000D01*
X61043880Y-111845849D01*
X60732811Y-111380302D01*
X60350725Y-111125000D01*
X60732811Y-110869698D01*
X61043880Y-110404151D01*
X61153113Y-109855000D01*
X61043880Y-109305849D01*
X60732811Y-108840302D01*
X60350725Y-108585000D01*
X60732811Y-108329698D01*
X61043880Y-107864151D01*
X61153113Y-107315000D01*
X61043880Y-106765849D01*
X60732811Y-106300302D01*
X60350725Y-106045000D01*
X60732811Y-105789698D01*
X61043880Y-105324151D01*
X61153113Y-104775000D01*
X61043880Y-104225849D01*
X60732811Y-103760302D01*
X60350725Y-103505000D01*
X60732811Y-103249698D01*
X61043880Y-102784151D01*
X61153113Y-102235000D01*
X61043880Y-101685849D01*
X60732811Y-101220302D01*
X60350725Y-100965000D01*
X60732811Y-100709698D01*
X61043880Y-100244151D01*
X61153113Y-99695000D01*
X61043880Y-99145849D01*
X60732811Y-98680302D01*
X60627847Y-98610167D01*
X63834838Y-98610167D01*
X63976883Y-98953943D01*
X64082710Y-99059954D01*
X63977808Y-99164673D01*
X63835162Y-99508201D01*
X63834838Y-99880167D01*
X63976883Y-100223943D01*
X64239673Y-100487192D01*
X64583201Y-100629838D01*
X64955167Y-100630162D01*
X65174665Y-100539467D01*
X66110198Y-101475000D01*
X65332463Y-101475000D01*
X65300327Y-101442808D01*
X64956799Y-101300162D01*
X64584833Y-101299838D01*
X64241057Y-101441883D01*
X63977808Y-101704673D01*
X63835162Y-102048201D01*
X63834838Y-102420167D01*
X63976883Y-102763943D01*
X64239673Y-103027192D01*
X64583201Y-103169838D01*
X64955167Y-103170162D01*
X65298943Y-103028117D01*
X65332118Y-102995000D01*
X66360198Y-102995000D01*
X67380198Y-104015000D01*
X65332463Y-104015000D01*
X65300327Y-103982808D01*
X64956799Y-103840162D01*
X64584833Y-103839838D01*
X64241057Y-103981883D01*
X63977808Y-104244673D01*
X63835162Y-104588201D01*
X63834838Y-104960167D01*
X63976883Y-105303943D01*
X64239673Y-105567192D01*
X64583201Y-105709838D01*
X64955167Y-105710162D01*
X65298943Y-105568117D01*
X65332118Y-105535000D01*
X67630198Y-105535000D01*
X69725000Y-107629802D01*
X69725000Y-109220000D01*
X69782852Y-109510839D01*
X69947599Y-109757401D01*
X71454878Y-111264680D01*
X71454838Y-111310167D01*
X71596883Y-111653943D01*
X71859673Y-111917192D01*
X72203201Y-112059838D01*
X72575167Y-112060162D01*
X72918943Y-111918117D01*
X73182192Y-111655327D01*
X73324838Y-111311799D01*
X73325162Y-110939833D01*
X73183117Y-110596057D01*
X72920327Y-110332808D01*
X72576799Y-110190162D01*
X72529923Y-110190121D01*
X71859894Y-109520092D01*
X71940167Y-109520162D01*
X72283943Y-109378117D01*
X72547192Y-109115327D01*
X72689838Y-108771799D01*
X72690162Y-108399833D01*
X72548117Y-108056057D01*
X72285327Y-107792808D01*
X71941799Y-107650162D01*
X71894923Y-107650121D01*
X71880000Y-107635198D01*
X71880000Y-106680000D01*
X71822148Y-106389161D01*
X71822148Y-106389160D01*
X71678274Y-106173837D01*
X71912192Y-105940327D01*
X72054838Y-105596799D01*
X72055162Y-105224833D01*
X71913117Y-104881057D01*
X71650327Y-104617808D01*
X71306799Y-104475162D01*
X71259923Y-104475121D01*
X71048461Y-104263659D01*
X71277192Y-104035327D01*
X71419838Y-103691799D01*
X71420162Y-103319833D01*
X71278117Y-102976057D01*
X71015327Y-102712808D01*
X70671799Y-102570162D01*
X70624923Y-102570121D01*
X69778461Y-101723659D01*
X70007192Y-101495327D01*
X70149838Y-101151799D01*
X70150162Y-100779833D01*
X70008117Y-100436057D01*
X69745327Y-100172808D01*
X69401799Y-100030162D01*
X69354923Y-100030121D01*
X68880122Y-99555320D01*
X68880162Y-99509833D01*
X68738117Y-99166057D01*
X68632290Y-99060046D01*
X68737192Y-98955327D01*
X68879838Y-98611799D01*
X68880162Y-98239833D01*
X68738117Y-97896057D01*
X68475327Y-97632808D01*
X68131799Y-97490162D01*
X67759833Y-97489838D01*
X67416057Y-97631883D01*
X67382882Y-97665000D01*
X65332463Y-97665000D01*
X65300327Y-97632808D01*
X64956799Y-97490162D01*
X64584833Y-97489838D01*
X64241057Y-97631883D01*
X63977808Y-97894673D01*
X63835162Y-98238201D01*
X63834838Y-98610167D01*
X60627847Y-98610167D01*
X60350725Y-98425000D01*
X60732811Y-98169698D01*
X61043880Y-97704151D01*
X61153113Y-97155000D01*
X61043880Y-96605849D01*
X60732811Y-96140302D01*
X60350725Y-95885000D01*
X60732811Y-95629698D01*
X61043880Y-95164151D01*
X61153113Y-94615000D01*
X61043880Y-94065849D01*
X60732811Y-93600302D01*
X60627847Y-93530167D01*
X63834838Y-93530167D01*
X63976883Y-93873943D01*
X64082710Y-93979954D01*
X63977808Y-94084673D01*
X63835162Y-94428201D01*
X63834838Y-94800167D01*
X63976883Y-95143943D01*
X64239673Y-95407192D01*
X64583201Y-95549838D01*
X64955167Y-95550162D01*
X65174665Y-95459467D01*
X65739878Y-96024680D01*
X65739838Y-96070167D01*
X65881883Y-96413943D01*
X66144673Y-96677192D01*
X66488201Y-96819838D01*
X66860167Y-96820162D01*
X67203943Y-96678117D01*
X67467192Y-96415327D01*
X67609838Y-96071799D01*
X67610162Y-95699833D01*
X67468117Y-95356057D01*
X67205327Y-95092808D01*
X66861799Y-94950162D01*
X66814923Y-94950121D01*
X65969802Y-94105000D01*
X66747537Y-94105000D01*
X66779673Y-94137192D01*
X67123201Y-94279838D01*
X67495167Y-94280162D01*
X67838943Y-94138117D01*
X68102192Y-93875327D01*
X68244838Y-93531799D01*
X68245162Y-93159833D01*
X68103117Y-92816057D01*
X67840327Y-92552808D01*
X67496799Y-92410162D01*
X67124833Y-92409838D01*
X66781057Y-92551883D01*
X66747882Y-92585000D01*
X65332463Y-92585000D01*
X65300327Y-92552808D01*
X64956799Y-92410162D01*
X64584833Y-92409838D01*
X64241057Y-92551883D01*
X63977808Y-92814673D01*
X63835162Y-93158201D01*
X63834838Y-93530167D01*
X60627847Y-93530167D01*
X60350725Y-93345000D01*
X60732811Y-93089698D01*
X61043880Y-92624151D01*
X61153113Y-92075000D01*
X61043880Y-91525849D01*
X60732811Y-91060302D01*
X60350725Y-90805000D01*
X60732811Y-90549698D01*
X61043880Y-90084151D01*
X61153113Y-89535000D01*
X61043880Y-88985849D01*
X60732811Y-88520302D01*
X60350725Y-88265000D01*
X60732811Y-88009698D01*
X61043880Y-87544151D01*
X61153113Y-86995000D01*
X61043880Y-86445849D01*
X60732811Y-85980302D01*
X60597665Y-85890000D01*
X60616309Y-85890000D01*
X60849698Y-85793327D01*
X61028327Y-85614699D01*
X61125000Y-85381310D01*
X61125000Y-84740750D01*
X60966250Y-84582000D01*
X59817000Y-84582000D01*
X59817000Y-84602000D01*
X59563000Y-84602000D01*
X59563000Y-84582000D01*
X58413750Y-84582000D01*
X58255000Y-84740750D01*
X58255000Y-85381310D01*
X58351673Y-85614699D01*
X58530302Y-85793327D01*
X58763691Y-85890000D01*
X58782335Y-85890000D01*
X58647189Y-85980302D01*
X58336120Y-86445849D01*
X58226887Y-86995000D01*
X58336120Y-87544151D01*
X58647189Y-88009698D01*
X59029275Y-88265000D01*
X58647189Y-88520302D01*
X58336120Y-88985849D01*
X58226887Y-89535000D01*
X58336120Y-90084151D01*
X58647189Y-90549698D01*
X59029275Y-90805000D01*
X58647189Y-91060302D01*
X58336120Y-91525849D01*
X58226887Y-92075000D01*
X58336120Y-92624151D01*
X58647189Y-93089698D01*
X59029275Y-93345000D01*
X58647189Y-93600302D01*
X58336120Y-94065849D01*
X58226887Y-94615000D01*
X58336120Y-95164151D01*
X58647189Y-95629698D01*
X59029275Y-95885000D01*
X58647189Y-96140302D01*
X58336120Y-96605849D01*
X58226887Y-97155000D01*
X58336120Y-97704151D01*
X58647189Y-98169698D01*
X59029275Y-98425000D01*
X58647189Y-98680302D01*
X58336120Y-99145849D01*
X58226887Y-99695000D01*
X58336120Y-100244151D01*
X58647189Y-100709698D01*
X59029275Y-100965000D01*
X58647189Y-101220302D01*
X58336120Y-101685849D01*
X58226887Y-102235000D01*
X58336120Y-102784151D01*
X58647189Y-103249698D01*
X59029275Y-103505000D01*
X58647189Y-103760302D01*
X58336120Y-104225849D01*
X58226887Y-104775000D01*
X58336120Y-105324151D01*
X58647189Y-105789698D01*
X59029275Y-106045000D01*
X58647189Y-106300302D01*
X58477005Y-106555000D01*
X56829802Y-106555000D01*
X56815122Y-106540320D01*
X56815162Y-106494833D01*
X56673117Y-106151057D01*
X56410327Y-105887808D01*
X56066799Y-105745162D01*
X55694833Y-105744838D01*
X55351057Y-105886883D01*
X55087808Y-106149673D01*
X54945162Y-106493201D01*
X54944838Y-106865167D01*
X55086883Y-107208943D01*
X55349673Y-107472192D01*
X55693201Y-107614838D01*
X55740077Y-107614879D01*
X55977599Y-107852401D01*
X56224161Y-108017148D01*
X56515000Y-108075000D01*
X58477005Y-108075000D01*
X58647189Y-108329698D01*
X59029275Y-108585000D01*
X58647189Y-108840302D01*
X58477005Y-109095000D01*
X57464802Y-109095000D01*
X57450122Y-109080320D01*
X57450162Y-109034833D01*
X57308117Y-108691057D01*
X57045327Y-108427808D01*
X56701799Y-108285162D01*
X56329833Y-108284838D01*
X55986057Y-108426883D01*
X55722808Y-108689673D01*
X55580162Y-109033201D01*
X55579838Y-109405167D01*
X55721883Y-109748943D01*
X55984673Y-110012192D01*
X56328201Y-110154838D01*
X56375077Y-110154879D01*
X56612599Y-110392401D01*
X56859161Y-110557148D01*
X57150000Y-110615000D01*
X58477005Y-110615000D01*
X58647189Y-110869698D01*
X59029275Y-111125000D01*
X58647189Y-111380302D01*
X58336120Y-111845849D01*
X58226887Y-112395000D01*
X58336120Y-112944151D01*
X58647189Y-113409698D01*
X59029275Y-113665000D01*
X58647189Y-113920302D01*
X58336120Y-114385849D01*
X58226887Y-114935000D01*
X58336120Y-115484151D01*
X58647189Y-115949698D01*
X59029275Y-116205000D01*
X58647189Y-116460302D01*
X58336120Y-116925849D01*
X58226887Y-117475000D01*
X58336120Y-118024151D01*
X58647189Y-118489698D01*
X59029275Y-118745000D01*
X58647189Y-119000302D01*
X58336120Y-119465849D01*
X58226887Y-120015000D01*
X58336120Y-120564151D01*
X58647189Y-121029698D01*
X59029275Y-121285000D01*
X58647189Y-121540302D01*
X58336120Y-122005849D01*
X58226887Y-122555000D01*
X58336120Y-123104151D01*
X58647189Y-123569698D01*
X59029275Y-123825000D01*
X58647189Y-124080302D01*
X58336120Y-124545849D01*
X58226887Y-125095000D01*
X58336120Y-125644151D01*
X58647189Y-126109698D01*
X59029275Y-126365000D01*
X58647189Y-126620302D01*
X58336120Y-127085849D01*
X58226887Y-127635000D01*
X58336120Y-128184151D01*
X58647189Y-128649698D01*
X59029275Y-128905000D01*
X58647189Y-129160302D01*
X58336120Y-129625849D01*
X58226887Y-130175000D01*
X58336120Y-130724151D01*
X58647189Y-131189698D01*
X59029275Y-131445000D01*
X58647189Y-131700302D01*
X58477005Y-131955000D01*
X55848646Y-131955000D01*
X55827243Y-131903200D01*
X55423923Y-131499176D01*
X54896691Y-131280250D01*
X54325813Y-131279752D01*
X53798200Y-131497757D01*
X53415000Y-131880289D01*
X53415000Y-128722745D01*
X53781861Y-128722745D01*
X53855995Y-128968864D01*
X54393223Y-129161965D01*
X54963454Y-129134778D01*
X55364005Y-128968864D01*
X55438139Y-128722745D01*
X54610000Y-127894605D01*
X53781861Y-128722745D01*
X53415000Y-128722745D01*
X53415000Y-128486736D01*
X53602255Y-128543139D01*
X54430395Y-127715000D01*
X54789605Y-127715000D01*
X55617745Y-128543139D01*
X55863864Y-128469005D01*
X56056965Y-127931777D01*
X56029778Y-127361546D01*
X55863864Y-126960995D01*
X55617745Y-126886861D01*
X54789605Y-127715000D01*
X54430395Y-127715000D01*
X53602255Y-126886861D01*
X53415000Y-126943264D01*
X53415000Y-126707255D01*
X53781861Y-126707255D01*
X54610000Y-127535395D01*
X55438139Y-126707255D01*
X55364005Y-126461136D01*
X54826777Y-126268035D01*
X54256546Y-126295222D01*
X53855995Y-126461136D01*
X53781861Y-126707255D01*
X53415000Y-126707255D01*
X53415000Y-95377467D01*
X53444673Y-95407192D01*
X53788201Y-95549838D01*
X54160167Y-95550162D01*
X54503943Y-95408117D01*
X54767192Y-95145327D01*
X54909838Y-94801799D01*
X54910162Y-94429833D01*
X54768117Y-94086057D01*
X54505327Y-93822808D01*
X54161799Y-93680162D01*
X54114923Y-93680121D01*
X54100000Y-93665198D01*
X54100000Y-89916000D01*
X54746907Y-89916000D01*
X54859946Y-90484285D01*
X55181853Y-90966054D01*
X55663622Y-91287961D01*
X56231907Y-91401000D01*
X56290093Y-91401000D01*
X56858378Y-91287961D01*
X57340147Y-90966054D01*
X57662054Y-90484285D01*
X57775093Y-89916000D01*
X57662054Y-89347715D01*
X57340147Y-88865946D01*
X57298548Y-88838150D01*
X57346317Y-88829162D01*
X57562441Y-88690090D01*
X57707431Y-88477890D01*
X57758440Y-88226000D01*
X57758440Y-86526000D01*
X57714162Y-86290683D01*
X57575090Y-86074559D01*
X57362890Y-85929569D01*
X57111000Y-85878560D01*
X55411000Y-85878560D01*
X55175683Y-85922838D01*
X54959559Y-86061910D01*
X54814569Y-86274110D01*
X54763560Y-86526000D01*
X54763560Y-88226000D01*
X54807838Y-88461317D01*
X54946910Y-88677441D01*
X55159110Y-88822431D01*
X55226541Y-88836086D01*
X55181853Y-88865946D01*
X54859946Y-89347715D01*
X54746907Y-89916000D01*
X54100000Y-89916000D01*
X54100000Y-83753774D01*
X54601831Y-83753774D01*
X54666131Y-83991611D01*
X55174342Y-84171333D01*
X55712644Y-84142892D01*
X56077869Y-83991611D01*
X56142169Y-83753774D01*
X55372000Y-82983605D01*
X54601831Y-83753774D01*
X54100000Y-83753774D01*
X54100000Y-83306136D01*
X54184389Y-83509869D01*
X54422226Y-83574169D01*
X55192395Y-82804000D01*
X55551605Y-82804000D01*
X56321774Y-83574169D01*
X56489994Y-83528690D01*
X58255000Y-83528690D01*
X58255000Y-84169250D01*
X58413750Y-84328000D01*
X59563000Y-84328000D01*
X59563000Y-83178750D01*
X59817000Y-83178750D01*
X59817000Y-84328000D01*
X60966250Y-84328000D01*
X61125000Y-84169250D01*
X61125000Y-83528690D01*
X61028327Y-83295301D01*
X60849698Y-83116673D01*
X60616309Y-83020000D01*
X59975750Y-83020000D01*
X59817000Y-83178750D01*
X59563000Y-83178750D01*
X59404250Y-83020000D01*
X58763691Y-83020000D01*
X58530302Y-83116673D01*
X58351673Y-83295301D01*
X58255000Y-83528690D01*
X56489994Y-83528690D01*
X56559611Y-83509869D01*
X56739333Y-83001658D01*
X56710892Y-82463356D01*
X56638152Y-82287745D01*
X58861861Y-82287745D01*
X58935995Y-82533864D01*
X59473223Y-82726965D01*
X60043454Y-82699778D01*
X60444005Y-82533864D01*
X60518139Y-82287745D01*
X62036861Y-82287745D01*
X62110995Y-82533864D01*
X62648223Y-82726965D01*
X63218454Y-82699778D01*
X63619005Y-82533864D01*
X63693139Y-82287745D01*
X79816861Y-82287745D01*
X79890995Y-82533864D01*
X80428223Y-82726965D01*
X80998454Y-82699778D01*
X81399005Y-82533864D01*
X81473139Y-82287745D01*
X82991861Y-82287745D01*
X83065995Y-82533864D01*
X83603223Y-82726965D01*
X84173454Y-82699778D01*
X84574005Y-82533864D01*
X84648139Y-82287745D01*
X83820000Y-81459605D01*
X82991861Y-82287745D01*
X81473139Y-82287745D01*
X80645000Y-81459605D01*
X79816861Y-82287745D01*
X63693139Y-82287745D01*
X62865000Y-81459605D01*
X62036861Y-82287745D01*
X60518139Y-82287745D01*
X59690000Y-81459605D01*
X58861861Y-82287745D01*
X56638152Y-82287745D01*
X56559611Y-82098131D01*
X56321774Y-82033831D01*
X55551605Y-82804000D01*
X55192395Y-82804000D01*
X54422226Y-82033831D01*
X54184389Y-82098131D01*
X54100000Y-82336763D01*
X54100000Y-80733788D01*
X54222617Y-81030543D01*
X54603452Y-81412043D01*
X54881116Y-81527339D01*
X54666131Y-81616389D01*
X54601831Y-81854226D01*
X55372000Y-82624395D01*
X56142169Y-81854226D01*
X56077869Y-81616389D01*
X55845828Y-81534331D01*
X56138543Y-81413383D01*
X56489314Y-81063223D01*
X58243035Y-81063223D01*
X58270222Y-81633454D01*
X58436136Y-82034005D01*
X58682255Y-82108139D01*
X59510395Y-81280000D01*
X59869605Y-81280000D01*
X60697745Y-82108139D01*
X60943864Y-82034005D01*
X61136965Y-81496777D01*
X61116295Y-81063223D01*
X61418035Y-81063223D01*
X61445222Y-81633454D01*
X61611136Y-82034005D01*
X61857255Y-82108139D01*
X62685395Y-81280000D01*
X63044605Y-81280000D01*
X63872745Y-82108139D01*
X64118864Y-82034005D01*
X64311965Y-81496777D01*
X64284778Y-80926546D01*
X64244857Y-80830167D01*
X65104838Y-80830167D01*
X65246883Y-81173943D01*
X65509673Y-81437192D01*
X65853201Y-81579838D01*
X66225167Y-81580162D01*
X66568943Y-81438117D01*
X66602118Y-81405000D01*
X72462537Y-81405000D01*
X72494673Y-81437192D01*
X72838201Y-81579838D01*
X73210167Y-81580162D01*
X73553943Y-81438117D01*
X73817192Y-81175327D01*
X73863741Y-81063223D01*
X79198035Y-81063223D01*
X79225222Y-81633454D01*
X79391136Y-82034005D01*
X79637255Y-82108139D01*
X80465395Y-81280000D01*
X80824605Y-81280000D01*
X81652745Y-82108139D01*
X81898864Y-82034005D01*
X82091965Y-81496777D01*
X82071295Y-81063223D01*
X82373035Y-81063223D01*
X82400222Y-81633454D01*
X82566136Y-82034005D01*
X82812255Y-82108139D01*
X83640395Y-81280000D01*
X83999605Y-81280000D01*
X84827745Y-82108139D01*
X85073864Y-82034005D01*
X85266965Y-81496777D01*
X85239778Y-80926546D01*
X85111107Y-80615907D01*
X86145000Y-80615907D01*
X86145000Y-80674093D01*
X86258039Y-81242378D01*
X86579946Y-81724147D01*
X87061715Y-82046054D01*
X87630000Y-82159093D01*
X88198285Y-82046054D01*
X88680054Y-81724147D01*
X88707850Y-81682548D01*
X88716838Y-81730317D01*
X88855910Y-81946441D01*
X89068110Y-82091431D01*
X89320000Y-82142440D01*
X91020000Y-82142440D01*
X91255317Y-82098162D01*
X91471441Y-81959090D01*
X91616431Y-81746890D01*
X91667440Y-81495000D01*
X91667440Y-80929187D01*
X98259752Y-80929187D01*
X98477757Y-81456800D01*
X98881077Y-81860824D01*
X99408309Y-82079750D01*
X99979187Y-82080248D01*
X100506800Y-81862243D01*
X100716663Y-81652745D01*
X103866861Y-81652745D01*
X103940995Y-81898864D01*
X104478223Y-82091965D01*
X105048454Y-82064778D01*
X105449005Y-81898864D01*
X105523139Y-81652745D01*
X104695000Y-80824605D01*
X103866861Y-81652745D01*
X100716663Y-81652745D01*
X100910824Y-81458923D01*
X101129750Y-80931691D01*
X101130189Y-80428223D01*
X103248035Y-80428223D01*
X103275222Y-80998454D01*
X103441136Y-81399005D01*
X103687255Y-81473139D01*
X104515395Y-80645000D01*
X104874605Y-80645000D01*
X105702745Y-81473139D01*
X105948864Y-81399005D01*
X106001028Y-81253878D01*
X106272189Y-81659698D01*
X106737736Y-81970767D01*
X107286887Y-82080000D01*
X107343113Y-82080000D01*
X107892264Y-81970767D01*
X108357811Y-81659698D01*
X108668880Y-81194151D01*
X108721584Y-80929187D01*
X116039752Y-80929187D01*
X116257757Y-81456800D01*
X116661077Y-81860824D01*
X117188309Y-82079750D01*
X117759187Y-82080248D01*
X118286800Y-81862243D01*
X118690824Y-81458923D01*
X118747245Y-81323046D01*
X118972189Y-81659698D01*
X119437736Y-81970767D01*
X119986887Y-82080000D01*
X120043113Y-82080000D01*
X120592264Y-81970767D01*
X121057811Y-81659698D01*
X121368880Y-81194151D01*
X121421584Y-80929187D01*
X128739752Y-80929187D01*
X128957757Y-81456800D01*
X129361077Y-81860824D01*
X129888309Y-82079750D01*
X130459187Y-82080248D01*
X130986800Y-81862243D01*
X131390824Y-81458923D01*
X131609750Y-80931691D01*
X131610248Y-80360813D01*
X131392243Y-79833200D01*
X130988923Y-79429176D01*
X130461691Y-79210250D01*
X129890813Y-79209752D01*
X129363200Y-79427757D01*
X128959176Y-79831077D01*
X128740250Y-80358309D01*
X128739752Y-80929187D01*
X121421584Y-80929187D01*
X121478113Y-80645000D01*
X121368880Y-80095849D01*
X121057811Y-79630302D01*
X120592264Y-79319233D01*
X120043113Y-79210000D01*
X119986887Y-79210000D01*
X119437736Y-79319233D01*
X118972189Y-79630302D01*
X118747408Y-79966710D01*
X118692243Y-79833200D01*
X118288923Y-79429176D01*
X117761691Y-79210250D01*
X117190813Y-79209752D01*
X116663200Y-79427757D01*
X116259176Y-79831077D01*
X116040250Y-80358309D01*
X116039752Y-80929187D01*
X108721584Y-80929187D01*
X108778113Y-80645000D01*
X108668880Y-80095849D01*
X108357811Y-79630302D01*
X107892264Y-79319233D01*
X107343113Y-79210000D01*
X107286887Y-79210000D01*
X106737736Y-79319233D01*
X106272189Y-79630302D01*
X106005936Y-80028778D01*
X105948864Y-79890995D01*
X105702745Y-79816861D01*
X104874605Y-80645000D01*
X104515395Y-80645000D01*
X103687255Y-79816861D01*
X103441136Y-79890995D01*
X103248035Y-80428223D01*
X101130189Y-80428223D01*
X101130248Y-80360813D01*
X100912243Y-79833200D01*
X100716640Y-79637255D01*
X103866861Y-79637255D01*
X104695000Y-80465395D01*
X105523139Y-79637255D01*
X105449005Y-79391136D01*
X104911777Y-79198035D01*
X104341546Y-79225222D01*
X103940995Y-79391136D01*
X103866861Y-79637255D01*
X100716640Y-79637255D01*
X100508923Y-79429176D01*
X99981691Y-79210250D01*
X99410813Y-79209752D01*
X98883200Y-79427757D01*
X98479176Y-79831077D01*
X98260250Y-80358309D01*
X98259752Y-80929187D01*
X91667440Y-80929187D01*
X91667440Y-79795000D01*
X91623162Y-79559683D01*
X91484090Y-79343559D01*
X91271890Y-79198569D01*
X91020000Y-79147560D01*
X89320000Y-79147560D01*
X89084683Y-79191838D01*
X88868559Y-79330910D01*
X88723569Y-79543110D01*
X88709914Y-79610541D01*
X88680054Y-79565853D01*
X88198285Y-79243946D01*
X87630000Y-79130907D01*
X87061715Y-79243946D01*
X86579946Y-79565853D01*
X86258039Y-80047622D01*
X86145000Y-80615907D01*
X85111107Y-80615907D01*
X85073864Y-80525995D01*
X84827745Y-80451861D01*
X83999605Y-81280000D01*
X83640395Y-81280000D01*
X82812255Y-80451861D01*
X82566136Y-80525995D01*
X82373035Y-81063223D01*
X82071295Y-81063223D01*
X82064778Y-80926546D01*
X81898864Y-80525995D01*
X81652745Y-80451861D01*
X80824605Y-81280000D01*
X80465395Y-81280000D01*
X79637255Y-80451861D01*
X79391136Y-80525995D01*
X79198035Y-81063223D01*
X73863741Y-81063223D01*
X73959838Y-80831799D01*
X73959892Y-80770000D01*
X74367537Y-80770000D01*
X74399673Y-80802192D01*
X74743201Y-80944838D01*
X75115167Y-80945162D01*
X75458943Y-80803117D01*
X75722192Y-80540327D01*
X75833505Y-80272255D01*
X79816861Y-80272255D01*
X80645000Y-81100395D01*
X81473139Y-80272255D01*
X82991861Y-80272255D01*
X83820000Y-81100395D01*
X84648139Y-80272255D01*
X84574005Y-80026136D01*
X84036777Y-79833035D01*
X83466546Y-79860222D01*
X83065995Y-80026136D01*
X82991861Y-80272255D01*
X81473139Y-80272255D01*
X81399005Y-80026136D01*
X80861777Y-79833035D01*
X80291546Y-79860222D01*
X79890995Y-80026136D01*
X79816861Y-80272255D01*
X75833505Y-80272255D01*
X75864838Y-80196799D01*
X75865162Y-79824833D01*
X75773271Y-79602440D01*
X76415000Y-79602440D01*
X76650317Y-79558162D01*
X76866441Y-79419090D01*
X77011431Y-79206890D01*
X77062440Y-78955000D01*
X77062440Y-77255000D01*
X77018162Y-77019683D01*
X76879090Y-76803559D01*
X76666890Y-76658569D01*
X76415000Y-76607560D01*
X74715000Y-76607560D01*
X74479683Y-76651838D01*
X74263559Y-76790910D01*
X74118569Y-77003110D01*
X74104914Y-77070541D01*
X74075054Y-77025853D01*
X73593285Y-76703946D01*
X73025000Y-76590907D01*
X72456715Y-76703946D01*
X71974946Y-77025853D01*
X71755000Y-77355026D01*
X71535054Y-77025853D01*
X71053285Y-76703946D01*
X70485000Y-76590907D01*
X69916715Y-76703946D01*
X69434946Y-77025853D01*
X69215000Y-77355026D01*
X68995054Y-77025853D01*
X68513285Y-76703946D01*
X67945000Y-76590907D01*
X67376715Y-76703946D01*
X66894946Y-77025853D01*
X66573039Y-77507622D01*
X66460000Y-78075907D01*
X66460000Y-78134093D01*
X66573039Y-78702378D01*
X66822102Y-79075127D01*
X66489833Y-79074838D01*
X66146057Y-79216883D01*
X65882808Y-79479673D01*
X65773235Y-79743554D01*
X65511057Y-79851883D01*
X65247808Y-80114673D01*
X65105162Y-80458201D01*
X65104838Y-80830167D01*
X64244857Y-80830167D01*
X64118864Y-80525995D01*
X63872745Y-80451861D01*
X63044605Y-81280000D01*
X62685395Y-81280000D01*
X61857255Y-80451861D01*
X61611136Y-80525995D01*
X61418035Y-81063223D01*
X61116295Y-81063223D01*
X61109778Y-80926546D01*
X60943864Y-80525995D01*
X60697745Y-80451861D01*
X59869605Y-81280000D01*
X59510395Y-81280000D01*
X58682255Y-80451861D01*
X58436136Y-80525995D01*
X58243035Y-81063223D01*
X56489314Y-81063223D01*
X56520043Y-81032548D01*
X56726764Y-80534709D01*
X56726993Y-80272255D01*
X58861861Y-80272255D01*
X59690000Y-81100395D01*
X60518139Y-80272255D01*
X62036861Y-80272255D01*
X62865000Y-81100395D01*
X63693139Y-80272255D01*
X63619005Y-80026136D01*
X63081777Y-79833035D01*
X62511546Y-79860222D01*
X62110995Y-80026136D01*
X62036861Y-80272255D01*
X60518139Y-80272255D01*
X60444005Y-80026136D01*
X59906777Y-79833035D01*
X59336546Y-79860222D01*
X58935995Y-80026136D01*
X58861861Y-80272255D01*
X56726993Y-80272255D01*
X56727235Y-79995656D01*
X56521383Y-79497457D01*
X56140548Y-79115957D01*
X55846736Y-78993955D01*
X56138543Y-78873383D01*
X56520043Y-78492548D01*
X56726764Y-77994709D01*
X56727235Y-77455656D01*
X56522434Y-76960000D01*
X56835198Y-76960000D01*
X57025000Y-77149802D01*
X57025000Y-77542537D01*
X56992808Y-77574673D01*
X56850162Y-77918201D01*
X56849838Y-78290167D01*
X56991883Y-78633943D01*
X57254673Y-78897192D01*
X57598201Y-79039838D01*
X57970167Y-79040162D01*
X58313943Y-78898117D01*
X58577192Y-78635327D01*
X58719838Y-78291799D01*
X58720162Y-77919833D01*
X58578117Y-77576057D01*
X58545000Y-77542882D01*
X58545000Y-77164169D01*
X58876077Y-77495824D01*
X59403309Y-77714750D01*
X59974187Y-77715248D01*
X60501800Y-77497243D01*
X60905824Y-77093923D01*
X61124750Y-76566691D01*
X61125248Y-75995813D01*
X60978229Y-75640000D01*
X61576957Y-75640000D01*
X61430250Y-75993309D01*
M02*
