M48
;DRILL file {KiCad 4.0.7} date 02/13/19 20:33:06
;FORMAT={2:4/ absolute / inch / suppress leading zeros}
FMAT,2
INCH,TZ
T1C0.016
T2C0.030
T3C0.031
T4C0.039
T5C0.039
%
G90
G05
M72
T1
X21000Y-30600
X21250Y-31250
X21250Y-37250
X22000Y-42000
X22250Y-43000
X22750Y-30750
X25500Y-36750
X25500Y-37250
X25500Y-38750
X25500Y-39250
X25500Y-40250
X25500Y-41250
X26000Y-31750
X26250Y-31500
X26250Y-37750
X26250Y-39250
X26500Y-36750
X26500Y-55500
X26750Y-38750
X26750Y-39250
X26750Y-40250
X26750Y-50500
X26750Y-53000
X27000Y-53250
X27250Y-39750
X27250Y-53000
X27500Y-53250
X27750Y-40750
X27750Y-53000
X27750Y-55500
X28000Y-41500
X28000Y-53250
X28250Y-42750
X28250Y-53000
X28500Y-43750
X28500Y-53250
X28750Y-31750
X29000Y-36750
X29500Y-31500
X33200Y-38400
X33200Y-39200
X34200Y-48200
X35000Y-53500
X35250Y-54000
X36000Y-52500
X36250Y-54000
X40250Y-53000
X40500Y-54000
X40750Y-49000
X40750Y-54250
X40750Y-54750
X40750Y-55250
X40800Y-53000
X41000Y-49250
X41000Y-54500
X41000Y-55000
X41000Y-55500
X41750Y-49000
X42000Y-49250
X44250Y-49250
X44250Y-55500
X45000Y-49250
X53250Y-52750
X53750Y-53250
X54500Y-53500
X55000Y-53000
X55250Y-53250
X55500Y-53500
T2
X39500Y-36000
X39500Y-37000
X39500Y-38000
X39500Y-39000
X53000Y-36000
X53000Y-37000
X53000Y-38000
X53000Y-39000
T3
X21500Y-50281
X21500Y-52250
X21800Y-30600
X21800Y-31600
X21800Y-32600
X23500Y-30031
X23500Y-32000
X23500Y-33250
X23500Y-34250
X23500Y-35250
X23500Y-36250
X23500Y-37250
X23500Y-38250
X23500Y-39250
X23500Y-40250
X23500Y-41250
X23500Y-42250
X23500Y-43250
X23500Y-44250
X23500Y-45250
X23500Y-46250
X23500Y-47250
X23500Y-48250
X23500Y-49250
X23500Y-50250
X23500Y-51250
X23500Y-52250
X24750Y-30031
X24750Y-32000
X29500Y-33250
X29500Y-34250
X29500Y-35250
X29500Y-36250
X29500Y-37250
X29500Y-38250
X29500Y-39250
X29500Y-40250
X29500Y-41250
X29500Y-42250
X29500Y-43250
X29500Y-44250
X29500Y-45250
X29500Y-46250
X29500Y-47250
X29500Y-48250
X29500Y-49250
X29500Y-50250
X29500Y-51250
X29500Y-52250
X31500Y-33750
X31500Y-36750
X31750Y-30031
X31750Y-32000
X32600Y-46400
X32600Y-50400
X33000Y-30031
X33000Y-32000
X34200Y-41000
X34200Y-45000
X34200Y-46400
X34200Y-50400
X34500Y-33750
X34500Y-36750
X35800Y-41000
X35800Y-45000
X35800Y-46400
X35800Y-50400
X37400Y-41000
X37400Y-45000
X37400Y-46400
X37400Y-50400
X37500Y-33750
X37500Y-36750
X38831Y-42000
X38831Y-44800
X39000Y-46400
X39000Y-50400
X39250Y-30250
X39250Y-31750
X40600Y-46400
X40600Y-50400
X40800Y-42000
X40800Y-44800
X41219Y-30250
X41219Y-31750
X42031Y-44800
X42200Y-46400
X42200Y-50400
X42250Y-30250
X42250Y-31750
X43800Y-46400
X43800Y-50400
X44000Y-44800
X45400Y-46400
X45400Y-50400
X46250Y-30250
X46250Y-31750
X46831Y-44800
X47000Y-46400
X47000Y-50400
X47250Y-30250
X47250Y-31750
X48600Y-46400
X48600Y-50400
X48800Y-44800
X51250Y-30250
X51250Y-31750
X52500Y-45250
X52500Y-46250
X52500Y-47250
X52500Y-48250
X52500Y-49250
X52500Y-50250
X52500Y-51250
X52500Y-52250
X53031Y-43750
X55000Y-43750
X55500Y-45250
X55500Y-46250
X55500Y-47250
X55500Y-48250
X55500Y-49250
X55500Y-50250
X55500Y-51250
X55500Y-52250
T5
X21250Y-56250
X22150Y-34400
X22150Y-35400
X22250Y-56250
X23250Y-56250
X24250Y-56250
X25250Y-56250
X26250Y-56250
X26750Y-30750
X27250Y-56250
X27750Y-30750
X28250Y-56250
X28750Y-30750
X29250Y-56250
X29750Y-30750
X30250Y-56250
X31250Y-56250
X32250Y-56250
X33250Y-56250
X34250Y-56250
X34500Y-30250
X34500Y-31750
X35250Y-56250
X35500Y-30250
X35500Y-31750
X36250Y-56250
X37250Y-56250
X38250Y-56250
X39250Y-56250
X40250Y-56250
X41250Y-56250
X42250Y-56250
X43250Y-56250
X44250Y-56250
X45250Y-56250
X46250Y-56250
X47250Y-56250
X48250Y-56250
X49250Y-56250
X50250Y-56250
X50750Y-45250
X50750Y-46250
X50750Y-47250
X50750Y-50250
X50750Y-51250
X50750Y-52250
X51250Y-56250
X52250Y-56250
X53250Y-56250
X54250Y-56250
X55250Y-56250
X56250Y-56250
X57250Y-56250
X57500Y-46250
X57500Y-47250
X57500Y-48250
X57500Y-49250
X57500Y-50250
X57500Y-51250
X57500Y-52250
X58250Y-56250
X58500Y-46250
X58500Y-47250
X58500Y-48250
X58500Y-49250
X58500Y-50250
X58500Y-51250
X58500Y-52250
X59250Y-56250
T4
X56014Y-33250G85X56487Y-33250
G05
X56014Y-36250G85X56487Y-36250
G05
X56014Y-38250G85X56487Y-38250
G05
X56014Y-41250G85X56487Y-41250
G05
X57250Y-34987G85X57250Y-34514
G05
X57250Y-39987G85X57250Y-39513
G05
T0
M30
