M48
;DRILL file {KiCad 4.0.6} date 05/15/17 22:01:57
;FORMAT={2:4/ absolute / inch / suppress leading zeros}
FMAT,2
INCH,TZ
T1C0.016
T2C0.031
T3C0.039
%
G90
G05
M72
T1
X55000Y-48500
X55500Y-48500
X59000Y-50500
X69500Y-43500
X70000Y-37500
X77000Y-53500
X78500Y-53500
X79000Y-44000
X79000Y-46500
X79500Y-46500
X80000Y-47000
X81500Y-43500
T2
X44000Y-40500
X44000Y-42469
X44000Y-46500
X44000Y-48469
X47000Y-40000
X47000Y-43000
X47000Y-46000
X47000Y-49000
X48000Y-40000
X48000Y-43000
X48000Y-46000
X48000Y-49000
X49000Y-40000
X49000Y-43000
X49000Y-46000
X49000Y-49000
X50000Y-40000
X50000Y-43000
X50000Y-46000
X50000Y-49000
X51000Y-40000
X51000Y-43000
X51000Y-46000
X51000Y-49000
X52000Y-40000
X52000Y-43000
X52000Y-46000
X52000Y-49000
X53000Y-40000
X53000Y-43000
X53000Y-46000
X53000Y-49000
X61031Y-44500
X63000Y-44500
X65000Y-44500
X65000Y-50500
X66000Y-36500
X66000Y-40500
X66000Y-44500
X66000Y-50500
X67000Y-44500
X67000Y-50500
X68000Y-36500
X68000Y-40500
X68000Y-44500
X68000Y-50500
X69000Y-44500
X69000Y-50500
X70000Y-44500
X70000Y-50500
X71000Y-44500
X71000Y-50500
X72000Y-44500
X72000Y-50500
X73000Y-44500
X73000Y-50500
X74000Y-44500
X74000Y-50500
X75000Y-44500
X75000Y-50500
X76000Y-44500
X76000Y-50500
X77000Y-44500
X77000Y-50500
X78000Y-44500
X78000Y-50500
T3
X43500Y-56500
X44500Y-56500
X45500Y-56500
X46500Y-56500
X47500Y-56500
X48500Y-56500
X49500Y-56500
X50500Y-56500
X51500Y-56500
X52500Y-56500
X53500Y-56500
X54500Y-56500
X55500Y-56500
X56500Y-56500
X57500Y-56500
X58500Y-56500
X59500Y-56500
X60500Y-56500
X61500Y-56500
X62500Y-56500
X63500Y-56500
X64500Y-56500
X65500Y-56500
X66500Y-56500
X67500Y-56500
X68500Y-56500
X69500Y-56500
X70000Y-36000
X70500Y-56500
X71000Y-36000
X71500Y-56500
X72500Y-56500
X73500Y-36000
X73500Y-56500
X74500Y-36000
X74500Y-56500
X75500Y-56500
X76500Y-56500
X77500Y-56500
X78000Y-37500
X78000Y-39000
X78500Y-56500
X79000Y-37500
X79000Y-39000
X79500Y-56500
X80000Y-37500
X80000Y-39000
X80500Y-56500
X81500Y-56500
T0
M30
