G04 #@! TF.FileFunction,Copper,L2,Bot,Signal*
%FSLAX46Y46*%
G04 Gerber Fmt 4.6, Leading zero omitted, Abs format (unit mm)*
G04 Created by KiCad (PCBNEW 4.0.6) date 05/15/17 22:01:48*
%MOMM*%
%LPD*%
G01*
G04 APERTURE LIST*
%ADD10C,0.100000*%
%ADD11C,1.600000*%
%ADD12R,1.700000X1.700000*%
%ADD13O,1.700000X1.700000*%
%ADD14O,1.600000X1.600000*%
%ADD15R,1.600000X2.400000*%
%ADD16O,1.600000X2.400000*%
%ADD17R,1.600000X1.600000*%
%ADD18C,0.600000*%
%ADD19C,0.250000*%
%ADD20C,0.254000*%
G04 APERTURE END LIST*
D10*
D11*
X160020000Y-113030000D03*
X155020000Y-113030000D03*
X111760000Y-102870000D03*
X111760000Y-107870000D03*
X111760000Y-118110000D03*
X111760000Y-123110000D03*
D12*
X207010000Y-143510000D03*
D13*
X204470000Y-143510000D03*
X201930000Y-143510000D03*
X199390000Y-143510000D03*
X196850000Y-143510000D03*
X194310000Y-143510000D03*
X191770000Y-143510000D03*
X189230000Y-143510000D03*
X186690000Y-143510000D03*
X184150000Y-143510000D03*
X181610000Y-143510000D03*
X179070000Y-143510000D03*
X176530000Y-143510000D03*
X173990000Y-143510000D03*
X171450000Y-143510000D03*
X168910000Y-143510000D03*
X166370000Y-143510000D03*
X163830000Y-143510000D03*
X161290000Y-143510000D03*
X158750000Y-143510000D03*
X156210000Y-143510000D03*
X153670000Y-143510000D03*
X151130000Y-143510000D03*
X148590000Y-143510000D03*
X146050000Y-143510000D03*
X143510000Y-143510000D03*
X140970000Y-143510000D03*
X138430000Y-143510000D03*
X135890000Y-143510000D03*
X133350000Y-143510000D03*
X130810000Y-143510000D03*
X128270000Y-143510000D03*
X125730000Y-143510000D03*
X123190000Y-143510000D03*
X120650000Y-143510000D03*
X118110000Y-143510000D03*
X115570000Y-143510000D03*
X113030000Y-143510000D03*
X110490000Y-143510000D03*
D12*
X186690000Y-91440000D03*
D13*
X189230000Y-91440000D03*
D12*
X177800000Y-91440000D03*
D13*
X180340000Y-91440000D03*
D11*
X172720000Y-92710000D03*
D14*
X172720000Y-102870000D03*
D11*
X167640000Y-102870000D03*
D14*
X167640000Y-92710000D03*
D15*
X165100000Y-128270000D03*
D16*
X198120000Y-113030000D03*
X167640000Y-128270000D03*
X195580000Y-113030000D03*
X170180000Y-128270000D03*
X193040000Y-113030000D03*
X172720000Y-128270000D03*
X190500000Y-113030000D03*
X175260000Y-128270000D03*
X187960000Y-113030000D03*
X177800000Y-128270000D03*
X185420000Y-113030000D03*
X180340000Y-128270000D03*
X182880000Y-113030000D03*
X182880000Y-128270000D03*
X180340000Y-113030000D03*
X185420000Y-128270000D03*
X177800000Y-113030000D03*
X187960000Y-128270000D03*
X175260000Y-113030000D03*
X190500000Y-128270000D03*
X172720000Y-113030000D03*
X193040000Y-128270000D03*
X170180000Y-113030000D03*
X195580000Y-128270000D03*
X167640000Y-113030000D03*
X198120000Y-128270000D03*
X165100000Y-113030000D03*
D17*
X119380000Y-109220000D03*
D14*
X134620000Y-101600000D03*
X121920000Y-109220000D03*
X132080000Y-101600000D03*
X124460000Y-109220000D03*
X129540000Y-101600000D03*
X127000000Y-109220000D03*
X127000000Y-101600000D03*
X129540000Y-109220000D03*
X124460000Y-101600000D03*
X132080000Y-109220000D03*
X121920000Y-101600000D03*
X134620000Y-109220000D03*
X119380000Y-101600000D03*
D17*
X119380000Y-124460000D03*
D14*
X134620000Y-116840000D03*
X121920000Y-124460000D03*
X132080000Y-116840000D03*
X124460000Y-124460000D03*
X129540000Y-116840000D03*
X127000000Y-124460000D03*
X127000000Y-116840000D03*
X129540000Y-124460000D03*
X124460000Y-116840000D03*
X132080000Y-124460000D03*
X121920000Y-116840000D03*
X134620000Y-124460000D03*
X119380000Y-116840000D03*
D12*
X198120000Y-95250000D03*
D13*
X200660000Y-95250000D03*
X203200000Y-95250000D03*
D12*
X198120000Y-99060000D03*
D13*
X200660000Y-99060000D03*
X203200000Y-99060000D03*
D18*
X149860000Y-128270000D03*
X207010000Y-110490000D03*
X195580000Y-135890000D03*
X199390000Y-135890000D03*
X203200000Y-119380000D03*
X176530000Y-110490000D03*
X201930000Y-118110000D03*
X177800000Y-95250000D03*
X140970000Y-123190000D03*
X200660000Y-111760000D03*
X200660000Y-118110000D03*
X139700000Y-123190000D03*
D19*
X198120000Y-128270000D02*
X198120000Y-125730000D01*
X155020000Y-110410000D02*
X155020000Y-113030000D01*
X156210000Y-109220000D02*
X155020000Y-110410000D01*
X175260000Y-109220000D02*
X156210000Y-109220000D01*
X176530000Y-107950000D02*
X175260000Y-109220000D01*
X200660000Y-107950000D02*
X176530000Y-107950000D01*
X204470000Y-111760000D02*
X200660000Y-107950000D01*
X204470000Y-119380000D02*
X204470000Y-111760000D01*
X198120000Y-125730000D02*
X204470000Y-119380000D01*
X148590000Y-105410000D02*
X140970000Y-105410000D01*
X200660000Y-104140000D02*
X176530000Y-104140000D01*
X207010000Y-110490000D02*
X200660000Y-104140000D01*
X175260000Y-105410000D02*
X148590000Y-105410000D01*
X176530000Y-104140000D02*
X175260000Y-105410000D01*
X121920000Y-97790000D02*
X121920000Y-101600000D01*
X123190000Y-96520000D02*
X121920000Y-97790000D01*
X138430000Y-96520000D02*
X123190000Y-96520000D01*
X139700000Y-97790000D02*
X138430000Y-96520000D01*
X139700000Y-104140000D02*
X139700000Y-97790000D01*
X140970000Y-105410000D02*
X139700000Y-104140000D01*
X124460000Y-101600000D02*
X124460000Y-99060000D01*
X200660000Y-105410000D02*
X176530000Y-105410000D01*
X204470000Y-137160000D02*
X207010000Y-134620000D01*
X207010000Y-134620000D02*
X207010000Y-111760000D01*
X204470000Y-137160000D02*
X204470000Y-143510000D01*
X207010000Y-111760000D02*
X200660000Y-105410000D01*
X175260000Y-106680000D02*
X148590000Y-106680000D01*
X176530000Y-105410000D02*
X175260000Y-106680000D01*
X139700000Y-106680000D02*
X148590000Y-106680000D01*
X138430000Y-105410000D02*
X139700000Y-106680000D01*
X138430000Y-99060000D02*
X138430000Y-105410000D01*
X137160000Y-97790000D02*
X138430000Y-99060000D01*
X125730000Y-97790000D02*
X137160000Y-97790000D01*
X124460000Y-99060000D02*
X125730000Y-97790000D01*
X148590000Y-107950000D02*
X139700000Y-107950000D01*
X200660000Y-106680000D02*
X176530000Y-106680000D01*
X201930000Y-137160000D02*
X205740000Y-133350000D01*
X205740000Y-133350000D02*
X205740000Y-111760000D01*
X201930000Y-143510000D02*
X201930000Y-137160000D01*
X205740000Y-111760000D02*
X200660000Y-106680000D01*
X175260000Y-107950000D02*
X148590000Y-107950000D01*
X176530000Y-106680000D02*
X175260000Y-107950000D01*
X127000000Y-111760000D02*
X127000000Y-109220000D01*
X128270000Y-113030000D02*
X127000000Y-111760000D01*
X137160000Y-113030000D02*
X128270000Y-113030000D01*
X138430000Y-111760000D02*
X137160000Y-113030000D01*
X138430000Y-110490000D02*
X138430000Y-111760000D01*
X138430000Y-109220000D02*
X138430000Y-110490000D01*
X139700000Y-107950000D02*
X138430000Y-109220000D01*
X199390000Y-143510000D02*
X199390000Y-139700000D01*
X167640000Y-135890000D02*
X167640000Y-128270000D01*
X168910000Y-137160000D02*
X167640000Y-135890000D01*
X196850000Y-137160000D02*
X168910000Y-137160000D01*
X199390000Y-139700000D02*
X196850000Y-137160000D01*
X195580000Y-135890000D02*
X199390000Y-135890000D01*
X175260000Y-110490000D02*
X175260000Y-113030000D01*
X176530000Y-109220000D02*
X175260000Y-110490000D01*
X179070000Y-109220000D02*
X176530000Y-109220000D01*
X200660000Y-109220000D02*
X179070000Y-109220000D01*
X203200000Y-111760000D02*
X200660000Y-109220000D01*
X203200000Y-115570000D02*
X203200000Y-111760000D01*
X203200000Y-119380000D02*
X203200000Y-115570000D01*
X200660000Y-110490000D02*
X176530000Y-110490000D01*
X201930000Y-111760000D02*
X200660000Y-110490000D01*
X201930000Y-113030000D02*
X201930000Y-111760000D01*
X201930000Y-114300000D02*
X201930000Y-113030000D01*
X201930000Y-118110000D02*
X201930000Y-114300000D01*
X146050000Y-140970000D02*
X147320000Y-139700000D01*
X147320000Y-139700000D02*
X148590000Y-138430000D01*
X149860000Y-125730000D02*
X148590000Y-127000000D01*
X148590000Y-127000000D02*
X148590000Y-138430000D01*
X190500000Y-128270000D02*
X190500000Y-127000000D01*
X189230000Y-125730000D02*
X149860000Y-125730000D01*
X190500000Y-127000000D02*
X189230000Y-125730000D01*
X142240000Y-140970000D02*
X140970000Y-142240000D01*
X146050000Y-140970000D02*
X142240000Y-140970000D01*
X140970000Y-142240000D02*
X140970000Y-143510000D01*
X138430000Y-143510000D02*
X138430000Y-142240000D01*
X147320000Y-127000000D02*
X149860000Y-124460000D01*
X147320000Y-138430000D02*
X147320000Y-127000000D01*
X146050000Y-139700000D02*
X147320000Y-138430000D01*
X140970000Y-139700000D02*
X146050000Y-139700000D01*
X138430000Y-142240000D02*
X140970000Y-139700000D01*
X193040000Y-128270000D02*
X193040000Y-125730000D01*
X191770000Y-124460000D02*
X149860000Y-124460000D01*
X193040000Y-125730000D02*
X191770000Y-124460000D01*
X149860000Y-123190000D02*
X146050000Y-127000000D01*
X135890000Y-142240000D02*
X135890000Y-143510000D01*
X139700000Y-138430000D02*
X135890000Y-142240000D01*
X140970000Y-138430000D02*
X139700000Y-138430000D01*
X144780000Y-138430000D02*
X140970000Y-138430000D01*
X146050000Y-137160000D02*
X144780000Y-138430000D01*
X146050000Y-127000000D02*
X146050000Y-137160000D01*
X195580000Y-128270000D02*
X195580000Y-127000000D01*
X182880000Y-123190000D02*
X149860000Y-123190000D01*
X191770000Y-123190000D02*
X182880000Y-123190000D01*
X195580000Y-127000000D02*
X191770000Y-123190000D01*
X149860000Y-121920000D02*
X144780000Y-127000000D01*
X133350000Y-142240000D02*
X133350000Y-143510000D01*
X138430000Y-137160000D02*
X133350000Y-142240000D01*
X139700000Y-137160000D02*
X138430000Y-137160000D01*
X143510000Y-137160000D02*
X139700000Y-137160000D01*
X144780000Y-135890000D02*
X143510000Y-137160000D01*
X144780000Y-127000000D02*
X144780000Y-135890000D01*
X198120000Y-113030000D02*
X198120000Y-119380000D01*
X195580000Y-121920000D02*
X149860000Y-121920000D01*
X198120000Y-119380000D02*
X195580000Y-121920000D01*
X130810000Y-143510000D02*
X130810000Y-142240000D01*
X143510000Y-127000000D02*
X149860000Y-120650000D01*
X143510000Y-134620000D02*
X143510000Y-127000000D01*
X142240000Y-135890000D02*
X143510000Y-134620000D01*
X137160000Y-135890000D02*
X142240000Y-135890000D01*
X130810000Y-142240000D02*
X137160000Y-135890000D01*
X195580000Y-119380000D02*
X195580000Y-113030000D01*
X194310000Y-120650000D02*
X195580000Y-119380000D01*
X149860000Y-120650000D02*
X194310000Y-120650000D01*
X149860000Y-119380000D02*
X142240000Y-127000000D01*
X128270000Y-142240000D02*
X128270000Y-143510000D01*
X135890000Y-134620000D02*
X128270000Y-142240000D01*
X140970000Y-134620000D02*
X135890000Y-134620000D01*
X142240000Y-133350000D02*
X140970000Y-134620000D01*
X142240000Y-127000000D02*
X142240000Y-133350000D01*
X193040000Y-113030000D02*
X193040000Y-118110000D01*
X191770000Y-119380000D02*
X149860000Y-119380000D01*
X193040000Y-118110000D02*
X191770000Y-119380000D01*
X149860000Y-118110000D02*
X140970000Y-127000000D01*
X125730000Y-142240000D02*
X125730000Y-143510000D01*
X134620000Y-133350000D02*
X125730000Y-142240000D01*
X139700000Y-133350000D02*
X134620000Y-133350000D01*
X140970000Y-132080000D02*
X139700000Y-133350000D01*
X140970000Y-127000000D02*
X140970000Y-132080000D01*
X190500000Y-116840000D02*
X190500000Y-113030000D01*
X189230000Y-118110000D02*
X190500000Y-116840000D01*
X149860000Y-118110000D02*
X189230000Y-118110000D01*
X149860000Y-116840000D02*
X139700000Y-127000000D01*
X123190000Y-142240000D02*
X123190000Y-143510000D01*
X133350000Y-132080000D02*
X123190000Y-142240000D01*
X134620000Y-132080000D02*
X133350000Y-132080000D01*
X138430000Y-132080000D02*
X134620000Y-132080000D01*
X139700000Y-130810000D02*
X138430000Y-132080000D01*
X139700000Y-127000000D02*
X139700000Y-130810000D01*
X187960000Y-113030000D02*
X187960000Y-115570000D01*
X186690000Y-116840000D02*
X149860000Y-116840000D01*
X187960000Y-115570000D02*
X186690000Y-116840000D01*
X180340000Y-91440000D02*
X180340000Y-92710000D01*
X180340000Y-92710000D02*
X177800000Y-95250000D01*
X140970000Y-123190000D02*
X140970000Y-124460000D01*
X140970000Y-124460000D02*
X138430000Y-127000000D01*
X138430000Y-127000000D02*
X138430000Y-129540000D01*
X138430000Y-129540000D02*
X137160000Y-130810000D01*
X137160000Y-130810000D02*
X132080000Y-130810000D01*
X132080000Y-130810000D02*
X121920000Y-140970000D01*
X121920000Y-140970000D02*
X111760000Y-140970000D01*
X111760000Y-140970000D02*
X110490000Y-142240000D01*
X110490000Y-142240000D02*
X110490000Y-143510000D01*
X200660000Y-118110000D02*
X200660000Y-111760000D01*
X129540000Y-124460000D02*
X132080000Y-127000000D01*
X139700000Y-124460000D02*
X139700000Y-123190000D01*
X137160000Y-127000000D02*
X139700000Y-124460000D01*
X132080000Y-127000000D02*
X137160000Y-127000000D01*
X185420000Y-113030000D02*
X185420000Y-114300000D01*
X184150000Y-115570000D02*
X179070000Y-115570000D01*
X185420000Y-114300000D02*
X184150000Y-115570000D01*
X180340000Y-113030000D02*
X180340000Y-114300000D01*
X124460000Y-123190000D02*
X124460000Y-124460000D01*
X125730000Y-121920000D02*
X124460000Y-123190000D01*
X143510000Y-121920000D02*
X125730000Y-121920000D01*
X149860000Y-115570000D02*
X143510000Y-121920000D01*
X179070000Y-115570000D02*
X149860000Y-115570000D01*
X180340000Y-114300000D02*
X179070000Y-115570000D01*
X129540000Y-109220000D02*
X129540000Y-107950000D01*
X134620000Y-102870000D02*
X134620000Y-101600000D01*
X129540000Y-107950000D02*
X134620000Y-102870000D01*
X124460000Y-109220000D02*
X124460000Y-111760000D01*
X118110000Y-124460000D02*
X116840000Y-123190000D01*
X116840000Y-123190000D02*
X116840000Y-114300000D01*
X116840000Y-114300000D02*
X118110000Y-113030000D01*
X118110000Y-113030000D02*
X123190000Y-113030000D01*
X123190000Y-113030000D02*
X124460000Y-111760000D01*
X118110000Y-124460000D02*
X119380000Y-124460000D01*
D20*
G36*
X163848559Y-126605910D02*
X163703569Y-126818110D01*
X163652560Y-127070000D01*
X163652560Y-129470000D01*
X163696838Y-129705317D01*
X163835910Y-129921441D01*
X164048110Y-130066431D01*
X164300000Y-130117440D01*
X165900000Y-130117440D01*
X166135317Y-130073162D01*
X166351441Y-129934090D01*
X166496431Y-129721890D01*
X166526597Y-129572926D01*
X166625302Y-129720648D01*
X166880000Y-129890832D01*
X166880000Y-135890000D01*
X166937852Y-136180839D01*
X167102599Y-136427401D01*
X168372599Y-137697401D01*
X168619160Y-137862148D01*
X168910000Y-137920000D01*
X196535198Y-137920000D01*
X198630000Y-140014802D01*
X198630000Y-142237046D01*
X198339946Y-142430853D01*
X198120000Y-142760026D01*
X197900054Y-142430853D01*
X197418285Y-142108946D01*
X196850000Y-141995907D01*
X196281715Y-142108946D01*
X195799946Y-142430853D01*
X195580000Y-142760026D01*
X195360054Y-142430853D01*
X194878285Y-142108946D01*
X194310000Y-141995907D01*
X193741715Y-142108946D01*
X193259946Y-142430853D01*
X193040000Y-142760026D01*
X192820054Y-142430853D01*
X192338285Y-142108946D01*
X191770000Y-141995907D01*
X191201715Y-142108946D01*
X190719946Y-142430853D01*
X190500000Y-142760026D01*
X190280054Y-142430853D01*
X189798285Y-142108946D01*
X189230000Y-141995907D01*
X188661715Y-142108946D01*
X188179946Y-142430853D01*
X187960000Y-142760026D01*
X187740054Y-142430853D01*
X187258285Y-142108946D01*
X186690000Y-141995907D01*
X186121715Y-142108946D01*
X185639946Y-142430853D01*
X185420000Y-142760026D01*
X185200054Y-142430853D01*
X184718285Y-142108946D01*
X184150000Y-141995907D01*
X183581715Y-142108946D01*
X183099946Y-142430853D01*
X182880000Y-142760026D01*
X182660054Y-142430853D01*
X182178285Y-142108946D01*
X181610000Y-141995907D01*
X181041715Y-142108946D01*
X180559946Y-142430853D01*
X180340000Y-142760026D01*
X180120054Y-142430853D01*
X179638285Y-142108946D01*
X179070000Y-141995907D01*
X178501715Y-142108946D01*
X178019946Y-142430853D01*
X177800000Y-142760026D01*
X177580054Y-142430853D01*
X177098285Y-142108946D01*
X176530000Y-141995907D01*
X175961715Y-142108946D01*
X175479946Y-142430853D01*
X175260000Y-142760026D01*
X175040054Y-142430853D01*
X174558285Y-142108946D01*
X173990000Y-141995907D01*
X173421715Y-142108946D01*
X172939946Y-142430853D01*
X172720000Y-142760026D01*
X172500054Y-142430853D01*
X172018285Y-142108946D01*
X171450000Y-141995907D01*
X170881715Y-142108946D01*
X170399946Y-142430853D01*
X170180000Y-142760026D01*
X169960054Y-142430853D01*
X169478285Y-142108946D01*
X168910000Y-141995907D01*
X168341715Y-142108946D01*
X167859946Y-142430853D01*
X167632298Y-142771553D01*
X167565183Y-142628642D01*
X167136924Y-142238355D01*
X166726890Y-142068524D01*
X166497000Y-142189845D01*
X166497000Y-143383000D01*
X166517000Y-143383000D01*
X166517000Y-143637000D01*
X166497000Y-143637000D01*
X166497000Y-143657000D01*
X166243000Y-143657000D01*
X166243000Y-143637000D01*
X166223000Y-143637000D01*
X166223000Y-143383000D01*
X166243000Y-143383000D01*
X166243000Y-142189845D01*
X166013110Y-142068524D01*
X165603076Y-142238355D01*
X165174817Y-142628642D01*
X165107702Y-142771553D01*
X164880054Y-142430853D01*
X164398285Y-142108946D01*
X163830000Y-141995907D01*
X163261715Y-142108946D01*
X162779946Y-142430853D01*
X162560000Y-142760026D01*
X162340054Y-142430853D01*
X161858285Y-142108946D01*
X161290000Y-141995907D01*
X160721715Y-142108946D01*
X160239946Y-142430853D01*
X160020000Y-142760026D01*
X159800054Y-142430853D01*
X159318285Y-142108946D01*
X158750000Y-141995907D01*
X158181715Y-142108946D01*
X157699946Y-142430853D01*
X157480000Y-142760026D01*
X157260054Y-142430853D01*
X156778285Y-142108946D01*
X156210000Y-141995907D01*
X155641715Y-142108946D01*
X155159946Y-142430853D01*
X154940000Y-142760026D01*
X154720054Y-142430853D01*
X154238285Y-142108946D01*
X153670000Y-141995907D01*
X153101715Y-142108946D01*
X152619946Y-142430853D01*
X152400000Y-142760026D01*
X152180054Y-142430853D01*
X151698285Y-142108946D01*
X151130000Y-141995907D01*
X150561715Y-142108946D01*
X150079946Y-142430853D01*
X149860000Y-142760026D01*
X149640054Y-142430853D01*
X149158285Y-142108946D01*
X148590000Y-141995907D01*
X148021715Y-142108946D01*
X147539946Y-142430853D01*
X147320000Y-142760026D01*
X147100054Y-142430853D01*
X146618285Y-142108946D01*
X146050000Y-141995907D01*
X145481715Y-142108946D01*
X144999946Y-142430853D01*
X144780000Y-142760026D01*
X144560054Y-142430853D01*
X144078285Y-142108946D01*
X143510000Y-141995907D01*
X142941715Y-142108946D01*
X142459946Y-142430853D01*
X142240000Y-142760026D01*
X142020054Y-142430853D01*
X141920481Y-142364321D01*
X142554802Y-141730000D01*
X146050000Y-141730000D01*
X146340839Y-141672148D01*
X146587401Y-141507401D01*
X149127401Y-138967401D01*
X149292148Y-138720840D01*
X149350000Y-138430000D01*
X149350000Y-127314802D01*
X150174802Y-126490000D01*
X164028688Y-126490000D01*
X163848559Y-126605910D01*
X163848559Y-126605910D01*
G37*
X163848559Y-126605910D02*
X163703569Y-126818110D01*
X163652560Y-127070000D01*
X163652560Y-129470000D01*
X163696838Y-129705317D01*
X163835910Y-129921441D01*
X164048110Y-130066431D01*
X164300000Y-130117440D01*
X165900000Y-130117440D01*
X166135317Y-130073162D01*
X166351441Y-129934090D01*
X166496431Y-129721890D01*
X166526597Y-129572926D01*
X166625302Y-129720648D01*
X166880000Y-129890832D01*
X166880000Y-135890000D01*
X166937852Y-136180839D01*
X167102599Y-136427401D01*
X168372599Y-137697401D01*
X168619160Y-137862148D01*
X168910000Y-137920000D01*
X196535198Y-137920000D01*
X198630000Y-140014802D01*
X198630000Y-142237046D01*
X198339946Y-142430853D01*
X198120000Y-142760026D01*
X197900054Y-142430853D01*
X197418285Y-142108946D01*
X196850000Y-141995907D01*
X196281715Y-142108946D01*
X195799946Y-142430853D01*
X195580000Y-142760026D01*
X195360054Y-142430853D01*
X194878285Y-142108946D01*
X194310000Y-141995907D01*
X193741715Y-142108946D01*
X193259946Y-142430853D01*
X193040000Y-142760026D01*
X192820054Y-142430853D01*
X192338285Y-142108946D01*
X191770000Y-141995907D01*
X191201715Y-142108946D01*
X190719946Y-142430853D01*
X190500000Y-142760026D01*
X190280054Y-142430853D01*
X189798285Y-142108946D01*
X189230000Y-141995907D01*
X188661715Y-142108946D01*
X188179946Y-142430853D01*
X187960000Y-142760026D01*
X187740054Y-142430853D01*
X187258285Y-142108946D01*
X186690000Y-141995907D01*
X186121715Y-142108946D01*
X185639946Y-142430853D01*
X185420000Y-142760026D01*
X185200054Y-142430853D01*
X184718285Y-142108946D01*
X184150000Y-141995907D01*
X183581715Y-142108946D01*
X183099946Y-142430853D01*
X182880000Y-142760026D01*
X182660054Y-142430853D01*
X182178285Y-142108946D01*
X181610000Y-141995907D01*
X181041715Y-142108946D01*
X180559946Y-142430853D01*
X180340000Y-142760026D01*
X180120054Y-142430853D01*
X179638285Y-142108946D01*
X179070000Y-141995907D01*
X178501715Y-142108946D01*
X178019946Y-142430853D01*
X177800000Y-142760026D01*
X177580054Y-142430853D01*
X177098285Y-142108946D01*
X176530000Y-141995907D01*
X175961715Y-142108946D01*
X175479946Y-142430853D01*
X175260000Y-142760026D01*
X175040054Y-142430853D01*
X174558285Y-142108946D01*
X173990000Y-141995907D01*
X173421715Y-142108946D01*
X172939946Y-142430853D01*
X172720000Y-142760026D01*
X172500054Y-142430853D01*
X172018285Y-142108946D01*
X171450000Y-141995907D01*
X170881715Y-142108946D01*
X170399946Y-142430853D01*
X170180000Y-142760026D01*
X169960054Y-142430853D01*
X169478285Y-142108946D01*
X168910000Y-141995907D01*
X168341715Y-142108946D01*
X167859946Y-142430853D01*
X167632298Y-142771553D01*
X167565183Y-142628642D01*
X167136924Y-142238355D01*
X166726890Y-142068524D01*
X166497000Y-142189845D01*
X166497000Y-143383000D01*
X166517000Y-143383000D01*
X166517000Y-143637000D01*
X166497000Y-143637000D01*
X166497000Y-143657000D01*
X166243000Y-143657000D01*
X166243000Y-143637000D01*
X166223000Y-143637000D01*
X166223000Y-143383000D01*
X166243000Y-143383000D01*
X166243000Y-142189845D01*
X166013110Y-142068524D01*
X165603076Y-142238355D01*
X165174817Y-142628642D01*
X165107702Y-142771553D01*
X164880054Y-142430853D01*
X164398285Y-142108946D01*
X163830000Y-141995907D01*
X163261715Y-142108946D01*
X162779946Y-142430853D01*
X162560000Y-142760026D01*
X162340054Y-142430853D01*
X161858285Y-142108946D01*
X161290000Y-141995907D01*
X160721715Y-142108946D01*
X160239946Y-142430853D01*
X160020000Y-142760026D01*
X159800054Y-142430853D01*
X159318285Y-142108946D01*
X158750000Y-141995907D01*
X158181715Y-142108946D01*
X157699946Y-142430853D01*
X157480000Y-142760026D01*
X157260054Y-142430853D01*
X156778285Y-142108946D01*
X156210000Y-141995907D01*
X155641715Y-142108946D01*
X155159946Y-142430853D01*
X154940000Y-142760026D01*
X154720054Y-142430853D01*
X154238285Y-142108946D01*
X153670000Y-141995907D01*
X153101715Y-142108946D01*
X152619946Y-142430853D01*
X152400000Y-142760026D01*
X152180054Y-142430853D01*
X151698285Y-142108946D01*
X151130000Y-141995907D01*
X150561715Y-142108946D01*
X150079946Y-142430853D01*
X149860000Y-142760026D01*
X149640054Y-142430853D01*
X149158285Y-142108946D01*
X148590000Y-141995907D01*
X148021715Y-142108946D01*
X147539946Y-142430853D01*
X147320000Y-142760026D01*
X147100054Y-142430853D01*
X146618285Y-142108946D01*
X146050000Y-141995907D01*
X145481715Y-142108946D01*
X144999946Y-142430853D01*
X144780000Y-142760026D01*
X144560054Y-142430853D01*
X144078285Y-142108946D01*
X143510000Y-141995907D01*
X142941715Y-142108946D01*
X142459946Y-142430853D01*
X142240000Y-142760026D01*
X142020054Y-142430853D01*
X141920481Y-142364321D01*
X142554802Y-141730000D01*
X146050000Y-141730000D01*
X146340839Y-141672148D01*
X146587401Y-141507401D01*
X149127401Y-138967401D01*
X149292148Y-138720840D01*
X149350000Y-138430000D01*
X149350000Y-127314802D01*
X150174802Y-126490000D01*
X164028688Y-126490000D01*
X163848559Y-126605910D01*
G36*
X204980000Y-112074802D02*
X204980000Y-133035198D01*
X201392599Y-136622599D01*
X201227852Y-136869161D01*
X201170000Y-137160000D01*
X201170000Y-142237046D01*
X200879946Y-142430853D01*
X200660000Y-142760026D01*
X200440054Y-142430853D01*
X200150000Y-142237046D01*
X200150000Y-139700000D01*
X200092148Y-139409161D01*
X200092148Y-139409160D01*
X199927401Y-139162599D01*
X197414802Y-136650000D01*
X198827537Y-136650000D01*
X198859673Y-136682192D01*
X199203201Y-136824838D01*
X199575167Y-136825162D01*
X199918943Y-136683117D01*
X200182192Y-136420327D01*
X200324838Y-136076799D01*
X200325162Y-135704833D01*
X200183117Y-135361057D01*
X199920327Y-135097808D01*
X199576799Y-134955162D01*
X199204833Y-134954838D01*
X198861057Y-135096883D01*
X198827882Y-135130000D01*
X196142463Y-135130000D01*
X196110327Y-135097808D01*
X195766799Y-134955162D01*
X195394833Y-134954838D01*
X195051057Y-135096883D01*
X194787808Y-135359673D01*
X194645162Y-135703201D01*
X194644838Y-136075167D01*
X194779056Y-136400000D01*
X169224802Y-136400000D01*
X168400000Y-135575198D01*
X168400000Y-129890832D01*
X168654698Y-129720648D01*
X168910000Y-129338562D01*
X169165302Y-129720648D01*
X169630849Y-130031717D01*
X170180000Y-130140950D01*
X170729151Y-130031717D01*
X171194698Y-129720648D01*
X171450000Y-129338562D01*
X171705302Y-129720648D01*
X172170849Y-130031717D01*
X172720000Y-130140950D01*
X173269151Y-130031717D01*
X173734698Y-129720648D01*
X173990000Y-129338562D01*
X174245302Y-129720648D01*
X174710849Y-130031717D01*
X175260000Y-130140950D01*
X175809151Y-130031717D01*
X176274698Y-129720648D01*
X176530000Y-129338562D01*
X176785302Y-129720648D01*
X177250849Y-130031717D01*
X177800000Y-130140950D01*
X178349151Y-130031717D01*
X178814698Y-129720648D01*
X179070000Y-129338562D01*
X179325302Y-129720648D01*
X179790849Y-130031717D01*
X180340000Y-130140950D01*
X180889151Y-130031717D01*
X181354698Y-129720648D01*
X181610000Y-129338562D01*
X181865302Y-129720648D01*
X182330849Y-130031717D01*
X182880000Y-130140950D01*
X183429151Y-130031717D01*
X183894698Y-129720648D01*
X184150000Y-129338562D01*
X184405302Y-129720648D01*
X184870849Y-130031717D01*
X185420000Y-130140950D01*
X185969151Y-130031717D01*
X186434698Y-129720648D01*
X186690000Y-129338562D01*
X186945302Y-129720648D01*
X187410849Y-130031717D01*
X187960000Y-130140950D01*
X188509151Y-130031717D01*
X188974698Y-129720648D01*
X189230000Y-129338562D01*
X189485302Y-129720648D01*
X189950849Y-130031717D01*
X190500000Y-130140950D01*
X191049151Y-130031717D01*
X191514698Y-129720648D01*
X191770000Y-129338562D01*
X192025302Y-129720648D01*
X192490849Y-130031717D01*
X193040000Y-130140950D01*
X193589151Y-130031717D01*
X194054698Y-129720648D01*
X194310000Y-129338562D01*
X194565302Y-129720648D01*
X195030849Y-130031717D01*
X195580000Y-130140950D01*
X196129151Y-130031717D01*
X196594698Y-129720648D01*
X196847507Y-129342293D01*
X197195104Y-129774500D01*
X197688181Y-130044367D01*
X197770961Y-130061904D01*
X197993000Y-129939915D01*
X197993000Y-128397000D01*
X198247000Y-128397000D01*
X198247000Y-129939915D01*
X198469039Y-130061904D01*
X198551819Y-130044367D01*
X199044896Y-129774500D01*
X199397166Y-129336483D01*
X199555000Y-128797000D01*
X199555000Y-128397000D01*
X198247000Y-128397000D01*
X197993000Y-128397000D01*
X197973000Y-128397000D01*
X197973000Y-128143000D01*
X197993000Y-128143000D01*
X197993000Y-126600085D01*
X198247000Y-126600085D01*
X198247000Y-128143000D01*
X199555000Y-128143000D01*
X199555000Y-127743000D01*
X199397166Y-127203517D01*
X199044896Y-126765500D01*
X198551819Y-126495633D01*
X198469039Y-126478096D01*
X198247000Y-126600085D01*
X197993000Y-126600085D01*
X197770961Y-126478096D01*
X197688181Y-126495633D01*
X197195104Y-126765500D01*
X196847507Y-127197707D01*
X196594698Y-126819352D01*
X196163069Y-126530946D01*
X196117401Y-126462599D01*
X192334802Y-122680000D01*
X195580000Y-122680000D01*
X195870839Y-122622148D01*
X196117401Y-122457401D01*
X198657401Y-119917401D01*
X198822148Y-119670840D01*
X198842843Y-119566799D01*
X198880000Y-119380000D01*
X198880000Y-114650832D01*
X199134698Y-114480648D01*
X199445767Y-114015101D01*
X199555000Y-113465950D01*
X199555000Y-112594050D01*
X199445767Y-112044899D01*
X199134698Y-111579352D01*
X198669151Y-111268283D01*
X198577236Y-111250000D01*
X199859367Y-111250000D01*
X199725162Y-111573201D01*
X199724838Y-111945167D01*
X199866883Y-112288943D01*
X199900000Y-112322118D01*
X199900000Y-117547537D01*
X199867808Y-117579673D01*
X199725162Y-117923201D01*
X199724838Y-118295167D01*
X199866883Y-118638943D01*
X200129673Y-118902192D01*
X200473201Y-119044838D01*
X200845167Y-119045162D01*
X201188943Y-118903117D01*
X201294954Y-118797290D01*
X201399673Y-118902192D01*
X201743201Y-119044838D01*
X202115167Y-119045162D01*
X202370430Y-118939690D01*
X202265162Y-119193201D01*
X202264838Y-119565167D01*
X202406883Y-119908943D01*
X202669673Y-120172192D01*
X203013201Y-120314838D01*
X203385167Y-120315162D01*
X203728943Y-120173117D01*
X203992192Y-119910327D01*
X204134838Y-119566799D01*
X204135162Y-119194833D01*
X203993117Y-118851057D01*
X203960000Y-118817882D01*
X203960000Y-111760000D01*
X203902148Y-111469161D01*
X203902148Y-111469160D01*
X203737401Y-111222599D01*
X201197401Y-108682599D01*
X200950839Y-108517852D01*
X200660000Y-108460000D01*
X176530000Y-108460000D01*
X176239160Y-108517852D01*
X175992599Y-108682599D01*
X174722599Y-109952599D01*
X174557852Y-110199161D01*
X174500000Y-110490000D01*
X174500000Y-111409168D01*
X174245302Y-111579352D01*
X173990000Y-111961438D01*
X173734698Y-111579352D01*
X173269151Y-111268283D01*
X172720000Y-111159050D01*
X172170849Y-111268283D01*
X171705302Y-111579352D01*
X171450000Y-111961438D01*
X171194698Y-111579352D01*
X170729151Y-111268283D01*
X170180000Y-111159050D01*
X169630849Y-111268283D01*
X169165302Y-111579352D01*
X168910000Y-111961438D01*
X168654698Y-111579352D01*
X168189151Y-111268283D01*
X167640000Y-111159050D01*
X167090849Y-111268283D01*
X166625302Y-111579352D01*
X166370000Y-111961438D01*
X166114698Y-111579352D01*
X165649151Y-111268283D01*
X165100000Y-111159050D01*
X164550849Y-111268283D01*
X164085302Y-111579352D01*
X163774233Y-112044899D01*
X163665000Y-112594050D01*
X163665000Y-113465950D01*
X163774233Y-114015101D01*
X164085302Y-114480648D01*
X164550849Y-114791717D01*
X164642764Y-114810000D01*
X149860000Y-114810000D01*
X149569161Y-114867852D01*
X149322599Y-115032599D01*
X143195198Y-121160000D01*
X125730000Y-121160000D01*
X125439160Y-121217852D01*
X125192599Y-121382599D01*
X123922599Y-122652599D01*
X123757852Y-122899161D01*
X123700000Y-123190000D01*
X123700000Y-123247005D01*
X123445302Y-123417189D01*
X123190000Y-123799275D01*
X122934698Y-123417189D01*
X122469151Y-123106120D01*
X121920000Y-122996887D01*
X121370849Y-123106120D01*
X120905302Y-123417189D01*
X120808899Y-123561465D01*
X120783162Y-123424683D01*
X120644090Y-123208559D01*
X120431890Y-123063569D01*
X120180000Y-123012560D01*
X118580000Y-123012560D01*
X118344683Y-123056838D01*
X118128559Y-123195910D01*
X118044190Y-123319388D01*
X117600000Y-122875198D01*
X117600000Y-116811887D01*
X117945000Y-116811887D01*
X117945000Y-116868113D01*
X118054233Y-117417264D01*
X118365302Y-117882811D01*
X118830849Y-118193880D01*
X119380000Y-118303113D01*
X119929151Y-118193880D01*
X120394698Y-117882811D01*
X120664986Y-117478297D01*
X120767611Y-117695134D01*
X121182577Y-118071041D01*
X121570961Y-118231904D01*
X121793000Y-118109915D01*
X121793000Y-116967000D01*
X122047000Y-116967000D01*
X122047000Y-118109915D01*
X122269039Y-118231904D01*
X122657423Y-118071041D01*
X123072389Y-117695134D01*
X123190000Y-117446633D01*
X123307611Y-117695134D01*
X123722577Y-118071041D01*
X124110961Y-118231904D01*
X124333000Y-118109915D01*
X124333000Y-116967000D01*
X122047000Y-116967000D01*
X121793000Y-116967000D01*
X121773000Y-116967000D01*
X121773000Y-116713000D01*
X121793000Y-116713000D01*
X121793000Y-115570085D01*
X122047000Y-115570085D01*
X122047000Y-116713000D01*
X124333000Y-116713000D01*
X124333000Y-115570085D01*
X124587000Y-115570085D01*
X124587000Y-116713000D01*
X124607000Y-116713000D01*
X124607000Y-116967000D01*
X124587000Y-116967000D01*
X124587000Y-118109915D01*
X124809039Y-118231904D01*
X125197423Y-118071041D01*
X125612389Y-117695134D01*
X125715014Y-117478297D01*
X125985302Y-117882811D01*
X126450849Y-118193880D01*
X127000000Y-118303113D01*
X127549151Y-118193880D01*
X128014698Y-117882811D01*
X128284986Y-117478297D01*
X128387611Y-117695134D01*
X128802577Y-118071041D01*
X129190961Y-118231904D01*
X129413000Y-118109915D01*
X129413000Y-116967000D01*
X129667000Y-116967000D01*
X129667000Y-118109915D01*
X129889039Y-118231904D01*
X130277423Y-118071041D01*
X130692389Y-117695134D01*
X130810000Y-117446633D01*
X130927611Y-117695134D01*
X131342577Y-118071041D01*
X131730961Y-118231904D01*
X131953000Y-118109915D01*
X131953000Y-116967000D01*
X129667000Y-116967000D01*
X129413000Y-116967000D01*
X129393000Y-116967000D01*
X129393000Y-116713000D01*
X129413000Y-116713000D01*
X129413000Y-115570085D01*
X129667000Y-115570085D01*
X129667000Y-116713000D01*
X131953000Y-116713000D01*
X131953000Y-115570085D01*
X132207000Y-115570085D01*
X132207000Y-116713000D01*
X132227000Y-116713000D01*
X132227000Y-116967000D01*
X132207000Y-116967000D01*
X132207000Y-118109915D01*
X132429039Y-118231904D01*
X132817423Y-118071041D01*
X133232389Y-117695134D01*
X133335014Y-117478297D01*
X133605302Y-117882811D01*
X134070849Y-118193880D01*
X134620000Y-118303113D01*
X135169151Y-118193880D01*
X135634698Y-117882811D01*
X135945767Y-117417264D01*
X136055000Y-116868113D01*
X136055000Y-116811887D01*
X135945767Y-116262736D01*
X135634698Y-115797189D01*
X135169151Y-115486120D01*
X134620000Y-115376887D01*
X134070849Y-115486120D01*
X133605302Y-115797189D01*
X133335014Y-116201703D01*
X133232389Y-115984866D01*
X132817423Y-115608959D01*
X132429039Y-115448096D01*
X132207000Y-115570085D01*
X131953000Y-115570085D01*
X131730961Y-115448096D01*
X131342577Y-115608959D01*
X130927611Y-115984866D01*
X130810000Y-116233367D01*
X130692389Y-115984866D01*
X130277423Y-115608959D01*
X129889039Y-115448096D01*
X129667000Y-115570085D01*
X129413000Y-115570085D01*
X129190961Y-115448096D01*
X128802577Y-115608959D01*
X128387611Y-115984866D01*
X128284986Y-116201703D01*
X128014698Y-115797189D01*
X127549151Y-115486120D01*
X127000000Y-115376887D01*
X126450849Y-115486120D01*
X125985302Y-115797189D01*
X125715014Y-116201703D01*
X125612389Y-115984866D01*
X125197423Y-115608959D01*
X124809039Y-115448096D01*
X124587000Y-115570085D01*
X124333000Y-115570085D01*
X124110961Y-115448096D01*
X123722577Y-115608959D01*
X123307611Y-115984866D01*
X123190000Y-116233367D01*
X123072389Y-115984866D01*
X122657423Y-115608959D01*
X122269039Y-115448096D01*
X122047000Y-115570085D01*
X121793000Y-115570085D01*
X121570961Y-115448096D01*
X121182577Y-115608959D01*
X120767611Y-115984866D01*
X120664986Y-116201703D01*
X120394698Y-115797189D01*
X119929151Y-115486120D01*
X119380000Y-115376887D01*
X118830849Y-115486120D01*
X118365302Y-115797189D01*
X118054233Y-116262736D01*
X117945000Y-116811887D01*
X117600000Y-116811887D01*
X117600000Y-114614802D01*
X118177057Y-114037745D01*
X154191861Y-114037745D01*
X154265995Y-114283864D01*
X154803223Y-114476965D01*
X155373454Y-114449778D01*
X155774005Y-114283864D01*
X155848139Y-114037745D01*
X155020000Y-113209605D01*
X154191861Y-114037745D01*
X118177057Y-114037745D01*
X118424802Y-113790000D01*
X123190000Y-113790000D01*
X123480839Y-113732148D01*
X123727401Y-113567401D01*
X124997401Y-112297401D01*
X125162148Y-112050840D01*
X125220000Y-111760000D01*
X125220000Y-110432995D01*
X125474698Y-110262811D01*
X125730000Y-109880725D01*
X125985302Y-110262811D01*
X126240000Y-110432995D01*
X126240000Y-111760000D01*
X126297852Y-112050839D01*
X126462599Y-112297401D01*
X127732599Y-113567401D01*
X127979160Y-113732148D01*
X128270000Y-113790000D01*
X137160000Y-113790000D01*
X137450839Y-113732148D01*
X137697401Y-113567401D01*
X138451579Y-112813223D01*
X153573035Y-112813223D01*
X153600222Y-113383454D01*
X153766136Y-113784005D01*
X154012255Y-113858139D01*
X154840395Y-113030000D01*
X155199605Y-113030000D01*
X156027745Y-113858139D01*
X156273864Y-113784005D01*
X156442735Y-113314187D01*
X158584752Y-113314187D01*
X158802757Y-113841800D01*
X159206077Y-114245824D01*
X159733309Y-114464750D01*
X160304187Y-114465248D01*
X160831800Y-114247243D01*
X161235824Y-113843923D01*
X161454750Y-113316691D01*
X161455248Y-112745813D01*
X161237243Y-112218200D01*
X160833923Y-111814176D01*
X160306691Y-111595250D01*
X159735813Y-111594752D01*
X159208200Y-111812757D01*
X158804176Y-112216077D01*
X158585250Y-112743309D01*
X158584752Y-113314187D01*
X156442735Y-113314187D01*
X156466965Y-113246777D01*
X156439778Y-112676546D01*
X156273864Y-112275995D01*
X156027745Y-112201861D01*
X155199605Y-113030000D01*
X154840395Y-113030000D01*
X154012255Y-112201861D01*
X153766136Y-112275995D01*
X153573035Y-112813223D01*
X138451579Y-112813223D01*
X138967401Y-112297401D01*
X139132148Y-112050840D01*
X139137833Y-112022255D01*
X154191861Y-112022255D01*
X155020000Y-112850395D01*
X155848139Y-112022255D01*
X155774005Y-111776136D01*
X155236777Y-111583035D01*
X154666546Y-111610222D01*
X154265995Y-111776136D01*
X154191861Y-112022255D01*
X139137833Y-112022255D01*
X139190000Y-111760000D01*
X139190000Y-109534802D01*
X140014802Y-108710000D01*
X175260000Y-108710000D01*
X175550839Y-108652148D01*
X175797401Y-108487401D01*
X176844802Y-107440000D01*
X200345198Y-107440000D01*
X204980000Y-112074802D01*
X204980000Y-112074802D01*
G37*
X204980000Y-112074802D02*
X204980000Y-133035198D01*
X201392599Y-136622599D01*
X201227852Y-136869161D01*
X201170000Y-137160000D01*
X201170000Y-142237046D01*
X200879946Y-142430853D01*
X200660000Y-142760026D01*
X200440054Y-142430853D01*
X200150000Y-142237046D01*
X200150000Y-139700000D01*
X200092148Y-139409161D01*
X200092148Y-139409160D01*
X199927401Y-139162599D01*
X197414802Y-136650000D01*
X198827537Y-136650000D01*
X198859673Y-136682192D01*
X199203201Y-136824838D01*
X199575167Y-136825162D01*
X199918943Y-136683117D01*
X200182192Y-136420327D01*
X200324838Y-136076799D01*
X200325162Y-135704833D01*
X200183117Y-135361057D01*
X199920327Y-135097808D01*
X199576799Y-134955162D01*
X199204833Y-134954838D01*
X198861057Y-135096883D01*
X198827882Y-135130000D01*
X196142463Y-135130000D01*
X196110327Y-135097808D01*
X195766799Y-134955162D01*
X195394833Y-134954838D01*
X195051057Y-135096883D01*
X194787808Y-135359673D01*
X194645162Y-135703201D01*
X194644838Y-136075167D01*
X194779056Y-136400000D01*
X169224802Y-136400000D01*
X168400000Y-135575198D01*
X168400000Y-129890832D01*
X168654698Y-129720648D01*
X168910000Y-129338562D01*
X169165302Y-129720648D01*
X169630849Y-130031717D01*
X170180000Y-130140950D01*
X170729151Y-130031717D01*
X171194698Y-129720648D01*
X171450000Y-129338562D01*
X171705302Y-129720648D01*
X172170849Y-130031717D01*
X172720000Y-130140950D01*
X173269151Y-130031717D01*
X173734698Y-129720648D01*
X173990000Y-129338562D01*
X174245302Y-129720648D01*
X174710849Y-130031717D01*
X175260000Y-130140950D01*
X175809151Y-130031717D01*
X176274698Y-129720648D01*
X176530000Y-129338562D01*
X176785302Y-129720648D01*
X177250849Y-130031717D01*
X177800000Y-130140950D01*
X178349151Y-130031717D01*
X178814698Y-129720648D01*
X179070000Y-129338562D01*
X179325302Y-129720648D01*
X179790849Y-130031717D01*
X180340000Y-130140950D01*
X180889151Y-130031717D01*
X181354698Y-129720648D01*
X181610000Y-129338562D01*
X181865302Y-129720648D01*
X182330849Y-130031717D01*
X182880000Y-130140950D01*
X183429151Y-130031717D01*
X183894698Y-129720648D01*
X184150000Y-129338562D01*
X184405302Y-129720648D01*
X184870849Y-130031717D01*
X185420000Y-130140950D01*
X185969151Y-130031717D01*
X186434698Y-129720648D01*
X186690000Y-129338562D01*
X186945302Y-129720648D01*
X187410849Y-130031717D01*
X187960000Y-130140950D01*
X188509151Y-130031717D01*
X188974698Y-129720648D01*
X189230000Y-129338562D01*
X189485302Y-129720648D01*
X189950849Y-130031717D01*
X190500000Y-130140950D01*
X191049151Y-130031717D01*
X191514698Y-129720648D01*
X191770000Y-129338562D01*
X192025302Y-129720648D01*
X192490849Y-130031717D01*
X193040000Y-130140950D01*
X193589151Y-130031717D01*
X194054698Y-129720648D01*
X194310000Y-129338562D01*
X194565302Y-129720648D01*
X195030849Y-130031717D01*
X195580000Y-130140950D01*
X196129151Y-130031717D01*
X196594698Y-129720648D01*
X196847507Y-129342293D01*
X197195104Y-129774500D01*
X197688181Y-130044367D01*
X197770961Y-130061904D01*
X197993000Y-129939915D01*
X197993000Y-128397000D01*
X198247000Y-128397000D01*
X198247000Y-129939915D01*
X198469039Y-130061904D01*
X198551819Y-130044367D01*
X199044896Y-129774500D01*
X199397166Y-129336483D01*
X199555000Y-128797000D01*
X199555000Y-128397000D01*
X198247000Y-128397000D01*
X197993000Y-128397000D01*
X197973000Y-128397000D01*
X197973000Y-128143000D01*
X197993000Y-128143000D01*
X197993000Y-126600085D01*
X198247000Y-126600085D01*
X198247000Y-128143000D01*
X199555000Y-128143000D01*
X199555000Y-127743000D01*
X199397166Y-127203517D01*
X199044896Y-126765500D01*
X198551819Y-126495633D01*
X198469039Y-126478096D01*
X198247000Y-126600085D01*
X197993000Y-126600085D01*
X197770961Y-126478096D01*
X197688181Y-126495633D01*
X197195104Y-126765500D01*
X196847507Y-127197707D01*
X196594698Y-126819352D01*
X196163069Y-126530946D01*
X196117401Y-126462599D01*
X192334802Y-122680000D01*
X195580000Y-122680000D01*
X195870839Y-122622148D01*
X196117401Y-122457401D01*
X198657401Y-119917401D01*
X198822148Y-119670840D01*
X198842843Y-119566799D01*
X198880000Y-119380000D01*
X198880000Y-114650832D01*
X199134698Y-114480648D01*
X199445767Y-114015101D01*
X199555000Y-113465950D01*
X199555000Y-112594050D01*
X199445767Y-112044899D01*
X199134698Y-111579352D01*
X198669151Y-111268283D01*
X198577236Y-111250000D01*
X199859367Y-111250000D01*
X199725162Y-111573201D01*
X199724838Y-111945167D01*
X199866883Y-112288943D01*
X199900000Y-112322118D01*
X199900000Y-117547537D01*
X199867808Y-117579673D01*
X199725162Y-117923201D01*
X199724838Y-118295167D01*
X199866883Y-118638943D01*
X200129673Y-118902192D01*
X200473201Y-119044838D01*
X200845167Y-119045162D01*
X201188943Y-118903117D01*
X201294954Y-118797290D01*
X201399673Y-118902192D01*
X201743201Y-119044838D01*
X202115167Y-119045162D01*
X202370430Y-118939690D01*
X202265162Y-119193201D01*
X202264838Y-119565167D01*
X202406883Y-119908943D01*
X202669673Y-120172192D01*
X203013201Y-120314838D01*
X203385167Y-120315162D01*
X203728943Y-120173117D01*
X203992192Y-119910327D01*
X204134838Y-119566799D01*
X204135162Y-119194833D01*
X203993117Y-118851057D01*
X203960000Y-118817882D01*
X203960000Y-111760000D01*
X203902148Y-111469161D01*
X203902148Y-111469160D01*
X203737401Y-111222599D01*
X201197401Y-108682599D01*
X200950839Y-108517852D01*
X200660000Y-108460000D01*
X176530000Y-108460000D01*
X176239160Y-108517852D01*
X175992599Y-108682599D01*
X174722599Y-109952599D01*
X174557852Y-110199161D01*
X174500000Y-110490000D01*
X174500000Y-111409168D01*
X174245302Y-111579352D01*
X173990000Y-111961438D01*
X173734698Y-111579352D01*
X173269151Y-111268283D01*
X172720000Y-111159050D01*
X172170849Y-111268283D01*
X171705302Y-111579352D01*
X171450000Y-111961438D01*
X171194698Y-111579352D01*
X170729151Y-111268283D01*
X170180000Y-111159050D01*
X169630849Y-111268283D01*
X169165302Y-111579352D01*
X168910000Y-111961438D01*
X168654698Y-111579352D01*
X168189151Y-111268283D01*
X167640000Y-111159050D01*
X167090849Y-111268283D01*
X166625302Y-111579352D01*
X166370000Y-111961438D01*
X166114698Y-111579352D01*
X165649151Y-111268283D01*
X165100000Y-111159050D01*
X164550849Y-111268283D01*
X164085302Y-111579352D01*
X163774233Y-112044899D01*
X163665000Y-112594050D01*
X163665000Y-113465950D01*
X163774233Y-114015101D01*
X164085302Y-114480648D01*
X164550849Y-114791717D01*
X164642764Y-114810000D01*
X149860000Y-114810000D01*
X149569161Y-114867852D01*
X149322599Y-115032599D01*
X143195198Y-121160000D01*
X125730000Y-121160000D01*
X125439160Y-121217852D01*
X125192599Y-121382599D01*
X123922599Y-122652599D01*
X123757852Y-122899161D01*
X123700000Y-123190000D01*
X123700000Y-123247005D01*
X123445302Y-123417189D01*
X123190000Y-123799275D01*
X122934698Y-123417189D01*
X122469151Y-123106120D01*
X121920000Y-122996887D01*
X121370849Y-123106120D01*
X120905302Y-123417189D01*
X120808899Y-123561465D01*
X120783162Y-123424683D01*
X120644090Y-123208559D01*
X120431890Y-123063569D01*
X120180000Y-123012560D01*
X118580000Y-123012560D01*
X118344683Y-123056838D01*
X118128559Y-123195910D01*
X118044190Y-123319388D01*
X117600000Y-122875198D01*
X117600000Y-116811887D01*
X117945000Y-116811887D01*
X117945000Y-116868113D01*
X118054233Y-117417264D01*
X118365302Y-117882811D01*
X118830849Y-118193880D01*
X119380000Y-118303113D01*
X119929151Y-118193880D01*
X120394698Y-117882811D01*
X120664986Y-117478297D01*
X120767611Y-117695134D01*
X121182577Y-118071041D01*
X121570961Y-118231904D01*
X121793000Y-118109915D01*
X121793000Y-116967000D01*
X122047000Y-116967000D01*
X122047000Y-118109915D01*
X122269039Y-118231904D01*
X122657423Y-118071041D01*
X123072389Y-117695134D01*
X123190000Y-117446633D01*
X123307611Y-117695134D01*
X123722577Y-118071041D01*
X124110961Y-118231904D01*
X124333000Y-118109915D01*
X124333000Y-116967000D01*
X122047000Y-116967000D01*
X121793000Y-116967000D01*
X121773000Y-116967000D01*
X121773000Y-116713000D01*
X121793000Y-116713000D01*
X121793000Y-115570085D01*
X122047000Y-115570085D01*
X122047000Y-116713000D01*
X124333000Y-116713000D01*
X124333000Y-115570085D01*
X124587000Y-115570085D01*
X124587000Y-116713000D01*
X124607000Y-116713000D01*
X124607000Y-116967000D01*
X124587000Y-116967000D01*
X124587000Y-118109915D01*
X124809039Y-118231904D01*
X125197423Y-118071041D01*
X125612389Y-117695134D01*
X125715014Y-117478297D01*
X125985302Y-117882811D01*
X126450849Y-118193880D01*
X127000000Y-118303113D01*
X127549151Y-118193880D01*
X128014698Y-117882811D01*
X128284986Y-117478297D01*
X128387611Y-117695134D01*
X128802577Y-118071041D01*
X129190961Y-118231904D01*
X129413000Y-118109915D01*
X129413000Y-116967000D01*
X129667000Y-116967000D01*
X129667000Y-118109915D01*
X129889039Y-118231904D01*
X130277423Y-118071041D01*
X130692389Y-117695134D01*
X130810000Y-117446633D01*
X130927611Y-117695134D01*
X131342577Y-118071041D01*
X131730961Y-118231904D01*
X131953000Y-118109915D01*
X131953000Y-116967000D01*
X129667000Y-116967000D01*
X129413000Y-116967000D01*
X129393000Y-116967000D01*
X129393000Y-116713000D01*
X129413000Y-116713000D01*
X129413000Y-115570085D01*
X129667000Y-115570085D01*
X129667000Y-116713000D01*
X131953000Y-116713000D01*
X131953000Y-115570085D01*
X132207000Y-115570085D01*
X132207000Y-116713000D01*
X132227000Y-116713000D01*
X132227000Y-116967000D01*
X132207000Y-116967000D01*
X132207000Y-118109915D01*
X132429039Y-118231904D01*
X132817423Y-118071041D01*
X133232389Y-117695134D01*
X133335014Y-117478297D01*
X133605302Y-117882811D01*
X134070849Y-118193880D01*
X134620000Y-118303113D01*
X135169151Y-118193880D01*
X135634698Y-117882811D01*
X135945767Y-117417264D01*
X136055000Y-116868113D01*
X136055000Y-116811887D01*
X135945767Y-116262736D01*
X135634698Y-115797189D01*
X135169151Y-115486120D01*
X134620000Y-115376887D01*
X134070849Y-115486120D01*
X133605302Y-115797189D01*
X133335014Y-116201703D01*
X133232389Y-115984866D01*
X132817423Y-115608959D01*
X132429039Y-115448096D01*
X132207000Y-115570085D01*
X131953000Y-115570085D01*
X131730961Y-115448096D01*
X131342577Y-115608959D01*
X130927611Y-115984866D01*
X130810000Y-116233367D01*
X130692389Y-115984866D01*
X130277423Y-115608959D01*
X129889039Y-115448096D01*
X129667000Y-115570085D01*
X129413000Y-115570085D01*
X129190961Y-115448096D01*
X128802577Y-115608959D01*
X128387611Y-115984866D01*
X128284986Y-116201703D01*
X128014698Y-115797189D01*
X127549151Y-115486120D01*
X127000000Y-115376887D01*
X126450849Y-115486120D01*
X125985302Y-115797189D01*
X125715014Y-116201703D01*
X125612389Y-115984866D01*
X125197423Y-115608959D01*
X124809039Y-115448096D01*
X124587000Y-115570085D01*
X124333000Y-115570085D01*
X124110961Y-115448096D01*
X123722577Y-115608959D01*
X123307611Y-115984866D01*
X123190000Y-116233367D01*
X123072389Y-115984866D01*
X122657423Y-115608959D01*
X122269039Y-115448096D01*
X122047000Y-115570085D01*
X121793000Y-115570085D01*
X121570961Y-115448096D01*
X121182577Y-115608959D01*
X120767611Y-115984866D01*
X120664986Y-116201703D01*
X120394698Y-115797189D01*
X119929151Y-115486120D01*
X119380000Y-115376887D01*
X118830849Y-115486120D01*
X118365302Y-115797189D01*
X118054233Y-116262736D01*
X117945000Y-116811887D01*
X117600000Y-116811887D01*
X117600000Y-114614802D01*
X118177057Y-114037745D01*
X154191861Y-114037745D01*
X154265995Y-114283864D01*
X154803223Y-114476965D01*
X155373454Y-114449778D01*
X155774005Y-114283864D01*
X155848139Y-114037745D01*
X155020000Y-113209605D01*
X154191861Y-114037745D01*
X118177057Y-114037745D01*
X118424802Y-113790000D01*
X123190000Y-113790000D01*
X123480839Y-113732148D01*
X123727401Y-113567401D01*
X124997401Y-112297401D01*
X125162148Y-112050840D01*
X125220000Y-111760000D01*
X125220000Y-110432995D01*
X125474698Y-110262811D01*
X125730000Y-109880725D01*
X125985302Y-110262811D01*
X126240000Y-110432995D01*
X126240000Y-111760000D01*
X126297852Y-112050839D01*
X126462599Y-112297401D01*
X127732599Y-113567401D01*
X127979160Y-113732148D01*
X128270000Y-113790000D01*
X137160000Y-113790000D01*
X137450839Y-113732148D01*
X137697401Y-113567401D01*
X138451579Y-112813223D01*
X153573035Y-112813223D01*
X153600222Y-113383454D01*
X153766136Y-113784005D01*
X154012255Y-113858139D01*
X154840395Y-113030000D01*
X155199605Y-113030000D01*
X156027745Y-113858139D01*
X156273864Y-113784005D01*
X156442735Y-113314187D01*
X158584752Y-113314187D01*
X158802757Y-113841800D01*
X159206077Y-114245824D01*
X159733309Y-114464750D01*
X160304187Y-114465248D01*
X160831800Y-114247243D01*
X161235824Y-113843923D01*
X161454750Y-113316691D01*
X161455248Y-112745813D01*
X161237243Y-112218200D01*
X160833923Y-111814176D01*
X160306691Y-111595250D01*
X159735813Y-111594752D01*
X159208200Y-111812757D01*
X158804176Y-112216077D01*
X158585250Y-112743309D01*
X158584752Y-113314187D01*
X156442735Y-113314187D01*
X156466965Y-113246777D01*
X156439778Y-112676546D01*
X156273864Y-112275995D01*
X156027745Y-112201861D01*
X155199605Y-113030000D01*
X154840395Y-113030000D01*
X154012255Y-112201861D01*
X153766136Y-112275995D01*
X153573035Y-112813223D01*
X138451579Y-112813223D01*
X138967401Y-112297401D01*
X139132148Y-112050840D01*
X139137833Y-112022255D01*
X154191861Y-112022255D01*
X155020000Y-112850395D01*
X155848139Y-112022255D01*
X155774005Y-111776136D01*
X155236777Y-111583035D01*
X154666546Y-111610222D01*
X154265995Y-111776136D01*
X154191861Y-112022255D01*
X139137833Y-112022255D01*
X139190000Y-111760000D01*
X139190000Y-109534802D01*
X140014802Y-108710000D01*
X175260000Y-108710000D01*
X175550839Y-108652148D01*
X175797401Y-108487401D01*
X176844802Y-107440000D01*
X200345198Y-107440000D01*
X204980000Y-112074802D01*
G36*
X176302560Y-92290000D02*
X176346838Y-92525317D01*
X176485910Y-92741441D01*
X176698110Y-92886431D01*
X176950000Y-92937440D01*
X178650000Y-92937440D01*
X178885317Y-92893162D01*
X179101441Y-92754090D01*
X179246431Y-92541890D01*
X179260086Y-92474459D01*
X179289946Y-92519147D01*
X179389519Y-92585679D01*
X177660320Y-94314878D01*
X177614833Y-94314838D01*
X177271057Y-94456883D01*
X177007808Y-94719673D01*
X176865162Y-95063201D01*
X176864838Y-95435167D01*
X177006883Y-95778943D01*
X177269673Y-96042192D01*
X177613201Y-96184838D01*
X177985167Y-96185162D01*
X178328943Y-96043117D01*
X178592192Y-95780327D01*
X178734838Y-95436799D01*
X178734879Y-95389923D01*
X179724802Y-94400000D01*
X196622560Y-94400000D01*
X196622560Y-96100000D01*
X196666838Y-96335317D01*
X196805910Y-96551441D01*
X197018110Y-96696431D01*
X197270000Y-96747440D01*
X198970000Y-96747440D01*
X199205317Y-96703162D01*
X199421441Y-96564090D01*
X199566431Y-96351890D01*
X199580086Y-96284459D01*
X199609946Y-96329147D01*
X200091715Y-96651054D01*
X200660000Y-96764093D01*
X201228285Y-96651054D01*
X201710054Y-96329147D01*
X201937702Y-95988447D01*
X202004817Y-96131358D01*
X202433076Y-96521645D01*
X202843110Y-96691476D01*
X203073000Y-96570155D01*
X203073000Y-95377000D01*
X203327000Y-95377000D01*
X203327000Y-96570155D01*
X203556890Y-96691476D01*
X203966924Y-96521645D01*
X204395183Y-96131358D01*
X204641486Y-95606892D01*
X204520819Y-95377000D01*
X203327000Y-95377000D01*
X203073000Y-95377000D01*
X203053000Y-95377000D01*
X203053000Y-95123000D01*
X203073000Y-95123000D01*
X203073000Y-93929845D01*
X203327000Y-93929845D01*
X203327000Y-95123000D01*
X204520819Y-95123000D01*
X204641486Y-94893108D01*
X204395183Y-94368642D01*
X203966924Y-93978355D01*
X203556890Y-93808524D01*
X203327000Y-93929845D01*
X203073000Y-93929845D01*
X202843110Y-93808524D01*
X202433076Y-93978355D01*
X202004817Y-94368642D01*
X201937702Y-94511553D01*
X201710054Y-94170853D01*
X201228285Y-93848946D01*
X200660000Y-93735907D01*
X200091715Y-93848946D01*
X199609946Y-94170853D01*
X199582150Y-94212452D01*
X199573162Y-94164683D01*
X199434090Y-93948559D01*
X199221890Y-93803569D01*
X198970000Y-93752560D01*
X197270000Y-93752560D01*
X197034683Y-93796838D01*
X196818559Y-93935910D01*
X196673569Y-94148110D01*
X196622560Y-94400000D01*
X179724802Y-94400000D01*
X180877401Y-93247401D01*
X181042148Y-93000840D01*
X181064905Y-92886431D01*
X181099322Y-92713407D01*
X181390054Y-92519147D01*
X181711961Y-92037378D01*
X181825000Y-91469093D01*
X181825000Y-91410907D01*
X181719396Y-90880000D01*
X185192560Y-90880000D01*
X185192560Y-92290000D01*
X185236838Y-92525317D01*
X185375910Y-92741441D01*
X185588110Y-92886431D01*
X185840000Y-92937440D01*
X187540000Y-92937440D01*
X187775317Y-92893162D01*
X187991441Y-92754090D01*
X188136431Y-92541890D01*
X188150086Y-92474459D01*
X188179946Y-92519147D01*
X188661715Y-92841054D01*
X189230000Y-92954093D01*
X189798285Y-92841054D01*
X190280054Y-92519147D01*
X190601961Y-92037378D01*
X190715000Y-91469093D01*
X190715000Y-91410907D01*
X190609396Y-90880000D01*
X207570000Y-90880000D01*
X207570000Y-109727533D01*
X207540327Y-109697808D01*
X207196799Y-109555162D01*
X207149923Y-109555121D01*
X201197401Y-103602599D01*
X200950839Y-103437852D01*
X200660000Y-103380000D01*
X176530000Y-103380000D01*
X176239160Y-103437852D01*
X175992599Y-103602599D01*
X174945198Y-104650000D01*
X141284802Y-104650000D01*
X140460000Y-103825198D01*
X140460000Y-103154187D01*
X166204752Y-103154187D01*
X166422757Y-103681800D01*
X166826077Y-104085824D01*
X167353309Y-104304750D01*
X167924187Y-104305248D01*
X168451800Y-104087243D01*
X168855824Y-103683923D01*
X169074750Y-103156691D01*
X169075024Y-102841887D01*
X171285000Y-102841887D01*
X171285000Y-102898113D01*
X171394233Y-103447264D01*
X171705302Y-103912811D01*
X172170849Y-104223880D01*
X172720000Y-104333113D01*
X173269151Y-104223880D01*
X173734698Y-103912811D01*
X174045767Y-103447264D01*
X174155000Y-102898113D01*
X174155000Y-102841887D01*
X174045767Y-102292736D01*
X173734698Y-101827189D01*
X173269151Y-101516120D01*
X172720000Y-101406887D01*
X172170849Y-101516120D01*
X171705302Y-101827189D01*
X171394233Y-102292736D01*
X171285000Y-102841887D01*
X169075024Y-102841887D01*
X169075248Y-102585813D01*
X168857243Y-102058200D01*
X168453923Y-101654176D01*
X167926691Y-101435250D01*
X167355813Y-101434752D01*
X166828200Y-101652757D01*
X166424176Y-102056077D01*
X166205250Y-102583309D01*
X166204752Y-103154187D01*
X140460000Y-103154187D01*
X140460000Y-98210000D01*
X196622560Y-98210000D01*
X196622560Y-99910000D01*
X196666838Y-100145317D01*
X196805910Y-100361441D01*
X197018110Y-100506431D01*
X197270000Y-100557440D01*
X198970000Y-100557440D01*
X199205317Y-100513162D01*
X199421441Y-100374090D01*
X199566431Y-100161890D01*
X199580086Y-100094459D01*
X199609946Y-100139147D01*
X200091715Y-100461054D01*
X200660000Y-100574093D01*
X201228285Y-100461054D01*
X201710054Y-100139147D01*
X201937702Y-99798447D01*
X202004817Y-99941358D01*
X202433076Y-100331645D01*
X202843110Y-100501476D01*
X203073000Y-100380155D01*
X203073000Y-99187000D01*
X203327000Y-99187000D01*
X203327000Y-100380155D01*
X203556890Y-100501476D01*
X203966924Y-100331645D01*
X204395183Y-99941358D01*
X204641486Y-99416892D01*
X204520819Y-99187000D01*
X203327000Y-99187000D01*
X203073000Y-99187000D01*
X203053000Y-99187000D01*
X203053000Y-98933000D01*
X203073000Y-98933000D01*
X203073000Y-97739845D01*
X203327000Y-97739845D01*
X203327000Y-98933000D01*
X204520819Y-98933000D01*
X204641486Y-98703108D01*
X204395183Y-98178642D01*
X203966924Y-97788355D01*
X203556890Y-97618524D01*
X203327000Y-97739845D01*
X203073000Y-97739845D01*
X202843110Y-97618524D01*
X202433076Y-97788355D01*
X202004817Y-98178642D01*
X201937702Y-98321553D01*
X201710054Y-97980853D01*
X201228285Y-97658946D01*
X200660000Y-97545907D01*
X200091715Y-97658946D01*
X199609946Y-97980853D01*
X199582150Y-98022452D01*
X199573162Y-97974683D01*
X199434090Y-97758559D01*
X199221890Y-97613569D01*
X198970000Y-97562560D01*
X197270000Y-97562560D01*
X197034683Y-97606838D01*
X196818559Y-97745910D01*
X196673569Y-97958110D01*
X196622560Y-98210000D01*
X140460000Y-98210000D01*
X140460000Y-97790000D01*
X140424905Y-97613569D01*
X140402148Y-97499160D01*
X140237401Y-97252599D01*
X138967401Y-95982599D01*
X138720839Y-95817852D01*
X138430000Y-95760000D01*
X123190000Y-95760000D01*
X122899160Y-95817852D01*
X122652599Y-95982599D01*
X121382599Y-97252599D01*
X121217852Y-97499161D01*
X121160000Y-97790000D01*
X121160000Y-100387005D01*
X120905302Y-100557189D01*
X120650000Y-100939275D01*
X120394698Y-100557189D01*
X119929151Y-100246120D01*
X119380000Y-100136887D01*
X118830849Y-100246120D01*
X118365302Y-100557189D01*
X118054233Y-101022736D01*
X117945000Y-101571887D01*
X117945000Y-101628113D01*
X118054233Y-102177264D01*
X118365302Y-102642811D01*
X118830849Y-102953880D01*
X119380000Y-103063113D01*
X119929151Y-102953880D01*
X120394698Y-102642811D01*
X120650000Y-102260725D01*
X120905302Y-102642811D01*
X121370849Y-102953880D01*
X121920000Y-103063113D01*
X122469151Y-102953880D01*
X122934698Y-102642811D01*
X123190000Y-102260725D01*
X123445302Y-102642811D01*
X123910849Y-102953880D01*
X124460000Y-103063113D01*
X125009151Y-102953880D01*
X125474698Y-102642811D01*
X125730000Y-102260725D01*
X125985302Y-102642811D01*
X126450849Y-102953880D01*
X127000000Y-103063113D01*
X127549151Y-102953880D01*
X128014698Y-102642811D01*
X128270000Y-102260725D01*
X128525302Y-102642811D01*
X128990849Y-102953880D01*
X129540000Y-103063113D01*
X130089151Y-102953880D01*
X130554698Y-102642811D01*
X130810000Y-102260725D01*
X131065302Y-102642811D01*
X131530849Y-102953880D01*
X132080000Y-103063113D01*
X132629151Y-102953880D01*
X133094698Y-102642811D01*
X133350000Y-102260725D01*
X133605302Y-102642811D01*
X133705462Y-102709736D01*
X129002599Y-107412599D01*
X128837852Y-107659161D01*
X128780000Y-107950000D01*
X128780000Y-108007005D01*
X128525302Y-108177189D01*
X128270000Y-108559275D01*
X128014698Y-108177189D01*
X127549151Y-107866120D01*
X127000000Y-107756887D01*
X126450849Y-107866120D01*
X125985302Y-108177189D01*
X125730000Y-108559275D01*
X125474698Y-108177189D01*
X125009151Y-107866120D01*
X124460000Y-107756887D01*
X123910849Y-107866120D01*
X123445302Y-108177189D01*
X123190000Y-108559275D01*
X122934698Y-108177189D01*
X122469151Y-107866120D01*
X121920000Y-107756887D01*
X121370849Y-107866120D01*
X120905302Y-108177189D01*
X120808899Y-108321465D01*
X120783162Y-108184683D01*
X120644090Y-107968559D01*
X120431890Y-107823569D01*
X120180000Y-107772560D01*
X118580000Y-107772560D01*
X118344683Y-107816838D01*
X118128559Y-107955910D01*
X117983569Y-108168110D01*
X117932560Y-108420000D01*
X117932560Y-110020000D01*
X117976838Y-110255317D01*
X118115910Y-110471441D01*
X118328110Y-110616431D01*
X118580000Y-110667440D01*
X120180000Y-110667440D01*
X120415317Y-110623162D01*
X120631441Y-110484090D01*
X120776431Y-110271890D01*
X120807815Y-110116911D01*
X120905302Y-110262811D01*
X121370849Y-110573880D01*
X121920000Y-110683113D01*
X122469151Y-110573880D01*
X122934698Y-110262811D01*
X123190000Y-109880725D01*
X123445302Y-110262811D01*
X123700000Y-110432995D01*
X123700000Y-111445198D01*
X122875198Y-112270000D01*
X118110000Y-112270000D01*
X117819160Y-112327852D01*
X117572599Y-112492599D01*
X116302599Y-113762599D01*
X116137852Y-114009161D01*
X116080000Y-114300000D01*
X116080000Y-123190000D01*
X116137852Y-123480839D01*
X116302599Y-123727401D01*
X117572599Y-124997401D01*
X117819160Y-125162148D01*
X117932560Y-125184705D01*
X117932560Y-125260000D01*
X117976838Y-125495317D01*
X118115910Y-125711441D01*
X118328110Y-125856431D01*
X118580000Y-125907440D01*
X120180000Y-125907440D01*
X120415317Y-125863162D01*
X120631441Y-125724090D01*
X120776431Y-125511890D01*
X120807815Y-125356911D01*
X120905302Y-125502811D01*
X121370849Y-125813880D01*
X121920000Y-125923113D01*
X122469151Y-125813880D01*
X122934698Y-125502811D01*
X123190000Y-125120725D01*
X123445302Y-125502811D01*
X123910849Y-125813880D01*
X124460000Y-125923113D01*
X125009151Y-125813880D01*
X125474698Y-125502811D01*
X125730000Y-125120725D01*
X125985302Y-125502811D01*
X126450849Y-125813880D01*
X127000000Y-125923113D01*
X127549151Y-125813880D01*
X128014698Y-125502811D01*
X128270000Y-125120725D01*
X128525302Y-125502811D01*
X128990849Y-125813880D01*
X129540000Y-125923113D01*
X129863886Y-125858688D01*
X131542599Y-127537401D01*
X131789160Y-127702148D01*
X131837414Y-127711746D01*
X132080000Y-127760000D01*
X137160000Y-127760000D01*
X137450839Y-127702148D01*
X137670000Y-127555710D01*
X137670000Y-129225198D01*
X136845198Y-130050000D01*
X132080000Y-130050000D01*
X131789161Y-130107852D01*
X131542599Y-130272599D01*
X121605198Y-140210000D01*
X111760000Y-140210000D01*
X111469160Y-140267852D01*
X111222599Y-140432599D01*
X109952599Y-141702599D01*
X109930000Y-141736421D01*
X109930000Y-124117745D01*
X110931861Y-124117745D01*
X111005995Y-124363864D01*
X111543223Y-124556965D01*
X112113454Y-124529778D01*
X112514005Y-124363864D01*
X112588139Y-124117745D01*
X111760000Y-123289605D01*
X110931861Y-124117745D01*
X109930000Y-124117745D01*
X109930000Y-122893223D01*
X110313035Y-122893223D01*
X110340222Y-123463454D01*
X110506136Y-123864005D01*
X110752255Y-123938139D01*
X111580395Y-123110000D01*
X111939605Y-123110000D01*
X112767745Y-123938139D01*
X113013864Y-123864005D01*
X113206965Y-123326777D01*
X113179778Y-122756546D01*
X113013864Y-122355995D01*
X112767745Y-122281861D01*
X111939605Y-123110000D01*
X111580395Y-123110000D01*
X110752255Y-122281861D01*
X110506136Y-122355995D01*
X110313035Y-122893223D01*
X109930000Y-122893223D01*
X109930000Y-122102255D01*
X110931861Y-122102255D01*
X111760000Y-122930395D01*
X112588139Y-122102255D01*
X112514005Y-121856136D01*
X111976777Y-121663035D01*
X111406546Y-121690222D01*
X111005995Y-121856136D01*
X110931861Y-122102255D01*
X109930000Y-122102255D01*
X109930000Y-118394187D01*
X110324752Y-118394187D01*
X110542757Y-118921800D01*
X110946077Y-119325824D01*
X111473309Y-119544750D01*
X112044187Y-119545248D01*
X112571800Y-119327243D01*
X112975824Y-118923923D01*
X113194750Y-118396691D01*
X113195248Y-117825813D01*
X112977243Y-117298200D01*
X112573923Y-116894176D01*
X112046691Y-116675250D01*
X111475813Y-116674752D01*
X110948200Y-116892757D01*
X110544176Y-117296077D01*
X110325250Y-117823309D01*
X110324752Y-118394187D01*
X109930000Y-118394187D01*
X109930000Y-108877745D01*
X110931861Y-108877745D01*
X111005995Y-109123864D01*
X111543223Y-109316965D01*
X112113454Y-109289778D01*
X112514005Y-109123864D01*
X112588139Y-108877745D01*
X111760000Y-108049605D01*
X110931861Y-108877745D01*
X109930000Y-108877745D01*
X109930000Y-107653223D01*
X110313035Y-107653223D01*
X110340222Y-108223454D01*
X110506136Y-108624005D01*
X110752255Y-108698139D01*
X111580395Y-107870000D01*
X111939605Y-107870000D01*
X112767745Y-108698139D01*
X113013864Y-108624005D01*
X113206965Y-108086777D01*
X113179778Y-107516546D01*
X113013864Y-107115995D01*
X112767745Y-107041861D01*
X111939605Y-107870000D01*
X111580395Y-107870000D01*
X110752255Y-107041861D01*
X110506136Y-107115995D01*
X110313035Y-107653223D01*
X109930000Y-107653223D01*
X109930000Y-106862255D01*
X110931861Y-106862255D01*
X111760000Y-107690395D01*
X112588139Y-106862255D01*
X112514005Y-106616136D01*
X111976777Y-106423035D01*
X111406546Y-106450222D01*
X111005995Y-106616136D01*
X110931861Y-106862255D01*
X109930000Y-106862255D01*
X109930000Y-103154187D01*
X110324752Y-103154187D01*
X110542757Y-103681800D01*
X110946077Y-104085824D01*
X111473309Y-104304750D01*
X112044187Y-104305248D01*
X112571800Y-104087243D01*
X112975824Y-103683923D01*
X113194750Y-103156691D01*
X113195248Y-102585813D01*
X112977243Y-102058200D01*
X112573923Y-101654176D01*
X112046691Y-101435250D01*
X111475813Y-101434752D01*
X110948200Y-101652757D01*
X110544176Y-102056077D01*
X110325250Y-102583309D01*
X110324752Y-103154187D01*
X109930000Y-103154187D01*
X109930000Y-92681887D01*
X166205000Y-92681887D01*
X166205000Y-92738113D01*
X166314233Y-93287264D01*
X166625302Y-93752811D01*
X167090849Y-94063880D01*
X167640000Y-94173113D01*
X168189151Y-94063880D01*
X168654698Y-93752811D01*
X168678128Y-93717745D01*
X171891861Y-93717745D01*
X171965995Y-93963864D01*
X172503223Y-94156965D01*
X173073454Y-94129778D01*
X173474005Y-93963864D01*
X173548139Y-93717745D01*
X172720000Y-92889605D01*
X171891861Y-93717745D01*
X168678128Y-93717745D01*
X168965767Y-93287264D01*
X169075000Y-92738113D01*
X169075000Y-92681887D01*
X169037473Y-92493223D01*
X171273035Y-92493223D01*
X171300222Y-93063454D01*
X171466136Y-93464005D01*
X171712255Y-93538139D01*
X172540395Y-92710000D01*
X172899605Y-92710000D01*
X173727745Y-93538139D01*
X173973864Y-93464005D01*
X174166965Y-92926777D01*
X174139778Y-92356546D01*
X173973864Y-91955995D01*
X173727745Y-91881861D01*
X172899605Y-92710000D01*
X172540395Y-92710000D01*
X171712255Y-91881861D01*
X171466136Y-91955995D01*
X171273035Y-92493223D01*
X169037473Y-92493223D01*
X168965767Y-92132736D01*
X168678129Y-91702255D01*
X171891861Y-91702255D01*
X172720000Y-92530395D01*
X173548139Y-91702255D01*
X173474005Y-91456136D01*
X172936777Y-91263035D01*
X172366546Y-91290222D01*
X171965995Y-91456136D01*
X171891861Y-91702255D01*
X168678129Y-91702255D01*
X168654698Y-91667189D01*
X168189151Y-91356120D01*
X167640000Y-91246887D01*
X167090849Y-91356120D01*
X166625302Y-91667189D01*
X166314233Y-92132736D01*
X166205000Y-92681887D01*
X109930000Y-92681887D01*
X109930000Y-90880000D01*
X176302560Y-90880000D01*
X176302560Y-92290000D01*
X176302560Y-92290000D01*
G37*
X176302560Y-92290000D02*
X176346838Y-92525317D01*
X176485910Y-92741441D01*
X176698110Y-92886431D01*
X176950000Y-92937440D01*
X178650000Y-92937440D01*
X178885317Y-92893162D01*
X179101441Y-92754090D01*
X179246431Y-92541890D01*
X179260086Y-92474459D01*
X179289946Y-92519147D01*
X179389519Y-92585679D01*
X177660320Y-94314878D01*
X177614833Y-94314838D01*
X177271057Y-94456883D01*
X177007808Y-94719673D01*
X176865162Y-95063201D01*
X176864838Y-95435167D01*
X177006883Y-95778943D01*
X177269673Y-96042192D01*
X177613201Y-96184838D01*
X177985167Y-96185162D01*
X178328943Y-96043117D01*
X178592192Y-95780327D01*
X178734838Y-95436799D01*
X178734879Y-95389923D01*
X179724802Y-94400000D01*
X196622560Y-94400000D01*
X196622560Y-96100000D01*
X196666838Y-96335317D01*
X196805910Y-96551441D01*
X197018110Y-96696431D01*
X197270000Y-96747440D01*
X198970000Y-96747440D01*
X199205317Y-96703162D01*
X199421441Y-96564090D01*
X199566431Y-96351890D01*
X199580086Y-96284459D01*
X199609946Y-96329147D01*
X200091715Y-96651054D01*
X200660000Y-96764093D01*
X201228285Y-96651054D01*
X201710054Y-96329147D01*
X201937702Y-95988447D01*
X202004817Y-96131358D01*
X202433076Y-96521645D01*
X202843110Y-96691476D01*
X203073000Y-96570155D01*
X203073000Y-95377000D01*
X203327000Y-95377000D01*
X203327000Y-96570155D01*
X203556890Y-96691476D01*
X203966924Y-96521645D01*
X204395183Y-96131358D01*
X204641486Y-95606892D01*
X204520819Y-95377000D01*
X203327000Y-95377000D01*
X203073000Y-95377000D01*
X203053000Y-95377000D01*
X203053000Y-95123000D01*
X203073000Y-95123000D01*
X203073000Y-93929845D01*
X203327000Y-93929845D01*
X203327000Y-95123000D01*
X204520819Y-95123000D01*
X204641486Y-94893108D01*
X204395183Y-94368642D01*
X203966924Y-93978355D01*
X203556890Y-93808524D01*
X203327000Y-93929845D01*
X203073000Y-93929845D01*
X202843110Y-93808524D01*
X202433076Y-93978355D01*
X202004817Y-94368642D01*
X201937702Y-94511553D01*
X201710054Y-94170853D01*
X201228285Y-93848946D01*
X200660000Y-93735907D01*
X200091715Y-93848946D01*
X199609946Y-94170853D01*
X199582150Y-94212452D01*
X199573162Y-94164683D01*
X199434090Y-93948559D01*
X199221890Y-93803569D01*
X198970000Y-93752560D01*
X197270000Y-93752560D01*
X197034683Y-93796838D01*
X196818559Y-93935910D01*
X196673569Y-94148110D01*
X196622560Y-94400000D01*
X179724802Y-94400000D01*
X180877401Y-93247401D01*
X181042148Y-93000840D01*
X181064905Y-92886431D01*
X181099322Y-92713407D01*
X181390054Y-92519147D01*
X181711961Y-92037378D01*
X181825000Y-91469093D01*
X181825000Y-91410907D01*
X181719396Y-90880000D01*
X185192560Y-90880000D01*
X185192560Y-92290000D01*
X185236838Y-92525317D01*
X185375910Y-92741441D01*
X185588110Y-92886431D01*
X185840000Y-92937440D01*
X187540000Y-92937440D01*
X187775317Y-92893162D01*
X187991441Y-92754090D01*
X188136431Y-92541890D01*
X188150086Y-92474459D01*
X188179946Y-92519147D01*
X188661715Y-92841054D01*
X189230000Y-92954093D01*
X189798285Y-92841054D01*
X190280054Y-92519147D01*
X190601961Y-92037378D01*
X190715000Y-91469093D01*
X190715000Y-91410907D01*
X190609396Y-90880000D01*
X207570000Y-90880000D01*
X207570000Y-109727533D01*
X207540327Y-109697808D01*
X207196799Y-109555162D01*
X207149923Y-109555121D01*
X201197401Y-103602599D01*
X200950839Y-103437852D01*
X200660000Y-103380000D01*
X176530000Y-103380000D01*
X176239160Y-103437852D01*
X175992599Y-103602599D01*
X174945198Y-104650000D01*
X141284802Y-104650000D01*
X140460000Y-103825198D01*
X140460000Y-103154187D01*
X166204752Y-103154187D01*
X166422757Y-103681800D01*
X166826077Y-104085824D01*
X167353309Y-104304750D01*
X167924187Y-104305248D01*
X168451800Y-104087243D01*
X168855824Y-103683923D01*
X169074750Y-103156691D01*
X169075024Y-102841887D01*
X171285000Y-102841887D01*
X171285000Y-102898113D01*
X171394233Y-103447264D01*
X171705302Y-103912811D01*
X172170849Y-104223880D01*
X172720000Y-104333113D01*
X173269151Y-104223880D01*
X173734698Y-103912811D01*
X174045767Y-103447264D01*
X174155000Y-102898113D01*
X174155000Y-102841887D01*
X174045767Y-102292736D01*
X173734698Y-101827189D01*
X173269151Y-101516120D01*
X172720000Y-101406887D01*
X172170849Y-101516120D01*
X171705302Y-101827189D01*
X171394233Y-102292736D01*
X171285000Y-102841887D01*
X169075024Y-102841887D01*
X169075248Y-102585813D01*
X168857243Y-102058200D01*
X168453923Y-101654176D01*
X167926691Y-101435250D01*
X167355813Y-101434752D01*
X166828200Y-101652757D01*
X166424176Y-102056077D01*
X166205250Y-102583309D01*
X166204752Y-103154187D01*
X140460000Y-103154187D01*
X140460000Y-98210000D01*
X196622560Y-98210000D01*
X196622560Y-99910000D01*
X196666838Y-100145317D01*
X196805910Y-100361441D01*
X197018110Y-100506431D01*
X197270000Y-100557440D01*
X198970000Y-100557440D01*
X199205317Y-100513162D01*
X199421441Y-100374090D01*
X199566431Y-100161890D01*
X199580086Y-100094459D01*
X199609946Y-100139147D01*
X200091715Y-100461054D01*
X200660000Y-100574093D01*
X201228285Y-100461054D01*
X201710054Y-100139147D01*
X201937702Y-99798447D01*
X202004817Y-99941358D01*
X202433076Y-100331645D01*
X202843110Y-100501476D01*
X203073000Y-100380155D01*
X203073000Y-99187000D01*
X203327000Y-99187000D01*
X203327000Y-100380155D01*
X203556890Y-100501476D01*
X203966924Y-100331645D01*
X204395183Y-99941358D01*
X204641486Y-99416892D01*
X204520819Y-99187000D01*
X203327000Y-99187000D01*
X203073000Y-99187000D01*
X203053000Y-99187000D01*
X203053000Y-98933000D01*
X203073000Y-98933000D01*
X203073000Y-97739845D01*
X203327000Y-97739845D01*
X203327000Y-98933000D01*
X204520819Y-98933000D01*
X204641486Y-98703108D01*
X204395183Y-98178642D01*
X203966924Y-97788355D01*
X203556890Y-97618524D01*
X203327000Y-97739845D01*
X203073000Y-97739845D01*
X202843110Y-97618524D01*
X202433076Y-97788355D01*
X202004817Y-98178642D01*
X201937702Y-98321553D01*
X201710054Y-97980853D01*
X201228285Y-97658946D01*
X200660000Y-97545907D01*
X200091715Y-97658946D01*
X199609946Y-97980853D01*
X199582150Y-98022452D01*
X199573162Y-97974683D01*
X199434090Y-97758559D01*
X199221890Y-97613569D01*
X198970000Y-97562560D01*
X197270000Y-97562560D01*
X197034683Y-97606838D01*
X196818559Y-97745910D01*
X196673569Y-97958110D01*
X196622560Y-98210000D01*
X140460000Y-98210000D01*
X140460000Y-97790000D01*
X140424905Y-97613569D01*
X140402148Y-97499160D01*
X140237401Y-97252599D01*
X138967401Y-95982599D01*
X138720839Y-95817852D01*
X138430000Y-95760000D01*
X123190000Y-95760000D01*
X122899160Y-95817852D01*
X122652599Y-95982599D01*
X121382599Y-97252599D01*
X121217852Y-97499161D01*
X121160000Y-97790000D01*
X121160000Y-100387005D01*
X120905302Y-100557189D01*
X120650000Y-100939275D01*
X120394698Y-100557189D01*
X119929151Y-100246120D01*
X119380000Y-100136887D01*
X118830849Y-100246120D01*
X118365302Y-100557189D01*
X118054233Y-101022736D01*
X117945000Y-101571887D01*
X117945000Y-101628113D01*
X118054233Y-102177264D01*
X118365302Y-102642811D01*
X118830849Y-102953880D01*
X119380000Y-103063113D01*
X119929151Y-102953880D01*
X120394698Y-102642811D01*
X120650000Y-102260725D01*
X120905302Y-102642811D01*
X121370849Y-102953880D01*
X121920000Y-103063113D01*
X122469151Y-102953880D01*
X122934698Y-102642811D01*
X123190000Y-102260725D01*
X123445302Y-102642811D01*
X123910849Y-102953880D01*
X124460000Y-103063113D01*
X125009151Y-102953880D01*
X125474698Y-102642811D01*
X125730000Y-102260725D01*
X125985302Y-102642811D01*
X126450849Y-102953880D01*
X127000000Y-103063113D01*
X127549151Y-102953880D01*
X128014698Y-102642811D01*
X128270000Y-102260725D01*
X128525302Y-102642811D01*
X128990849Y-102953880D01*
X129540000Y-103063113D01*
X130089151Y-102953880D01*
X130554698Y-102642811D01*
X130810000Y-102260725D01*
X131065302Y-102642811D01*
X131530849Y-102953880D01*
X132080000Y-103063113D01*
X132629151Y-102953880D01*
X133094698Y-102642811D01*
X133350000Y-102260725D01*
X133605302Y-102642811D01*
X133705462Y-102709736D01*
X129002599Y-107412599D01*
X128837852Y-107659161D01*
X128780000Y-107950000D01*
X128780000Y-108007005D01*
X128525302Y-108177189D01*
X128270000Y-108559275D01*
X128014698Y-108177189D01*
X127549151Y-107866120D01*
X127000000Y-107756887D01*
X126450849Y-107866120D01*
X125985302Y-108177189D01*
X125730000Y-108559275D01*
X125474698Y-108177189D01*
X125009151Y-107866120D01*
X124460000Y-107756887D01*
X123910849Y-107866120D01*
X123445302Y-108177189D01*
X123190000Y-108559275D01*
X122934698Y-108177189D01*
X122469151Y-107866120D01*
X121920000Y-107756887D01*
X121370849Y-107866120D01*
X120905302Y-108177189D01*
X120808899Y-108321465D01*
X120783162Y-108184683D01*
X120644090Y-107968559D01*
X120431890Y-107823569D01*
X120180000Y-107772560D01*
X118580000Y-107772560D01*
X118344683Y-107816838D01*
X118128559Y-107955910D01*
X117983569Y-108168110D01*
X117932560Y-108420000D01*
X117932560Y-110020000D01*
X117976838Y-110255317D01*
X118115910Y-110471441D01*
X118328110Y-110616431D01*
X118580000Y-110667440D01*
X120180000Y-110667440D01*
X120415317Y-110623162D01*
X120631441Y-110484090D01*
X120776431Y-110271890D01*
X120807815Y-110116911D01*
X120905302Y-110262811D01*
X121370849Y-110573880D01*
X121920000Y-110683113D01*
X122469151Y-110573880D01*
X122934698Y-110262811D01*
X123190000Y-109880725D01*
X123445302Y-110262811D01*
X123700000Y-110432995D01*
X123700000Y-111445198D01*
X122875198Y-112270000D01*
X118110000Y-112270000D01*
X117819160Y-112327852D01*
X117572599Y-112492599D01*
X116302599Y-113762599D01*
X116137852Y-114009161D01*
X116080000Y-114300000D01*
X116080000Y-123190000D01*
X116137852Y-123480839D01*
X116302599Y-123727401D01*
X117572599Y-124997401D01*
X117819160Y-125162148D01*
X117932560Y-125184705D01*
X117932560Y-125260000D01*
X117976838Y-125495317D01*
X118115910Y-125711441D01*
X118328110Y-125856431D01*
X118580000Y-125907440D01*
X120180000Y-125907440D01*
X120415317Y-125863162D01*
X120631441Y-125724090D01*
X120776431Y-125511890D01*
X120807815Y-125356911D01*
X120905302Y-125502811D01*
X121370849Y-125813880D01*
X121920000Y-125923113D01*
X122469151Y-125813880D01*
X122934698Y-125502811D01*
X123190000Y-125120725D01*
X123445302Y-125502811D01*
X123910849Y-125813880D01*
X124460000Y-125923113D01*
X125009151Y-125813880D01*
X125474698Y-125502811D01*
X125730000Y-125120725D01*
X125985302Y-125502811D01*
X126450849Y-125813880D01*
X127000000Y-125923113D01*
X127549151Y-125813880D01*
X128014698Y-125502811D01*
X128270000Y-125120725D01*
X128525302Y-125502811D01*
X128990849Y-125813880D01*
X129540000Y-125923113D01*
X129863886Y-125858688D01*
X131542599Y-127537401D01*
X131789160Y-127702148D01*
X131837414Y-127711746D01*
X132080000Y-127760000D01*
X137160000Y-127760000D01*
X137450839Y-127702148D01*
X137670000Y-127555710D01*
X137670000Y-129225198D01*
X136845198Y-130050000D01*
X132080000Y-130050000D01*
X131789161Y-130107852D01*
X131542599Y-130272599D01*
X121605198Y-140210000D01*
X111760000Y-140210000D01*
X111469160Y-140267852D01*
X111222599Y-140432599D01*
X109952599Y-141702599D01*
X109930000Y-141736421D01*
X109930000Y-124117745D01*
X110931861Y-124117745D01*
X111005995Y-124363864D01*
X111543223Y-124556965D01*
X112113454Y-124529778D01*
X112514005Y-124363864D01*
X112588139Y-124117745D01*
X111760000Y-123289605D01*
X110931861Y-124117745D01*
X109930000Y-124117745D01*
X109930000Y-122893223D01*
X110313035Y-122893223D01*
X110340222Y-123463454D01*
X110506136Y-123864005D01*
X110752255Y-123938139D01*
X111580395Y-123110000D01*
X111939605Y-123110000D01*
X112767745Y-123938139D01*
X113013864Y-123864005D01*
X113206965Y-123326777D01*
X113179778Y-122756546D01*
X113013864Y-122355995D01*
X112767745Y-122281861D01*
X111939605Y-123110000D01*
X111580395Y-123110000D01*
X110752255Y-122281861D01*
X110506136Y-122355995D01*
X110313035Y-122893223D01*
X109930000Y-122893223D01*
X109930000Y-122102255D01*
X110931861Y-122102255D01*
X111760000Y-122930395D01*
X112588139Y-122102255D01*
X112514005Y-121856136D01*
X111976777Y-121663035D01*
X111406546Y-121690222D01*
X111005995Y-121856136D01*
X110931861Y-122102255D01*
X109930000Y-122102255D01*
X109930000Y-118394187D01*
X110324752Y-118394187D01*
X110542757Y-118921800D01*
X110946077Y-119325824D01*
X111473309Y-119544750D01*
X112044187Y-119545248D01*
X112571800Y-119327243D01*
X112975824Y-118923923D01*
X113194750Y-118396691D01*
X113195248Y-117825813D01*
X112977243Y-117298200D01*
X112573923Y-116894176D01*
X112046691Y-116675250D01*
X111475813Y-116674752D01*
X110948200Y-116892757D01*
X110544176Y-117296077D01*
X110325250Y-117823309D01*
X110324752Y-118394187D01*
X109930000Y-118394187D01*
X109930000Y-108877745D01*
X110931861Y-108877745D01*
X111005995Y-109123864D01*
X111543223Y-109316965D01*
X112113454Y-109289778D01*
X112514005Y-109123864D01*
X112588139Y-108877745D01*
X111760000Y-108049605D01*
X110931861Y-108877745D01*
X109930000Y-108877745D01*
X109930000Y-107653223D01*
X110313035Y-107653223D01*
X110340222Y-108223454D01*
X110506136Y-108624005D01*
X110752255Y-108698139D01*
X111580395Y-107870000D01*
X111939605Y-107870000D01*
X112767745Y-108698139D01*
X113013864Y-108624005D01*
X113206965Y-108086777D01*
X113179778Y-107516546D01*
X113013864Y-107115995D01*
X112767745Y-107041861D01*
X111939605Y-107870000D01*
X111580395Y-107870000D01*
X110752255Y-107041861D01*
X110506136Y-107115995D01*
X110313035Y-107653223D01*
X109930000Y-107653223D01*
X109930000Y-106862255D01*
X110931861Y-106862255D01*
X111760000Y-107690395D01*
X112588139Y-106862255D01*
X112514005Y-106616136D01*
X111976777Y-106423035D01*
X111406546Y-106450222D01*
X111005995Y-106616136D01*
X110931861Y-106862255D01*
X109930000Y-106862255D01*
X109930000Y-103154187D01*
X110324752Y-103154187D01*
X110542757Y-103681800D01*
X110946077Y-104085824D01*
X111473309Y-104304750D01*
X112044187Y-104305248D01*
X112571800Y-104087243D01*
X112975824Y-103683923D01*
X113194750Y-103156691D01*
X113195248Y-102585813D01*
X112977243Y-102058200D01*
X112573923Y-101654176D01*
X112046691Y-101435250D01*
X111475813Y-101434752D01*
X110948200Y-101652757D01*
X110544176Y-102056077D01*
X110325250Y-102583309D01*
X110324752Y-103154187D01*
X109930000Y-103154187D01*
X109930000Y-92681887D01*
X166205000Y-92681887D01*
X166205000Y-92738113D01*
X166314233Y-93287264D01*
X166625302Y-93752811D01*
X167090849Y-94063880D01*
X167640000Y-94173113D01*
X168189151Y-94063880D01*
X168654698Y-93752811D01*
X168678128Y-93717745D01*
X171891861Y-93717745D01*
X171965995Y-93963864D01*
X172503223Y-94156965D01*
X173073454Y-94129778D01*
X173474005Y-93963864D01*
X173548139Y-93717745D01*
X172720000Y-92889605D01*
X171891861Y-93717745D01*
X168678128Y-93717745D01*
X168965767Y-93287264D01*
X169075000Y-92738113D01*
X169075000Y-92681887D01*
X169037473Y-92493223D01*
X171273035Y-92493223D01*
X171300222Y-93063454D01*
X171466136Y-93464005D01*
X171712255Y-93538139D01*
X172540395Y-92710000D01*
X172899605Y-92710000D01*
X173727745Y-93538139D01*
X173973864Y-93464005D01*
X174166965Y-92926777D01*
X174139778Y-92356546D01*
X173973864Y-91955995D01*
X173727745Y-91881861D01*
X172899605Y-92710000D01*
X172540395Y-92710000D01*
X171712255Y-91881861D01*
X171466136Y-91955995D01*
X171273035Y-92493223D01*
X169037473Y-92493223D01*
X168965767Y-92132736D01*
X168678129Y-91702255D01*
X171891861Y-91702255D01*
X172720000Y-92530395D01*
X173548139Y-91702255D01*
X173474005Y-91456136D01*
X172936777Y-91263035D01*
X172366546Y-91290222D01*
X171965995Y-91456136D01*
X171891861Y-91702255D01*
X168678129Y-91702255D01*
X168654698Y-91667189D01*
X168189151Y-91356120D01*
X167640000Y-91246887D01*
X167090849Y-91356120D01*
X166625302Y-91667189D01*
X166314233Y-92132736D01*
X166205000Y-92681887D01*
X109930000Y-92681887D01*
X109930000Y-90880000D01*
X176302560Y-90880000D01*
X176302560Y-92290000D01*
G36*
X138765162Y-123003201D02*
X138764838Y-123375167D01*
X138906883Y-123718943D01*
X138940000Y-123752118D01*
X138940000Y-124145198D01*
X136845198Y-126240000D01*
X132394802Y-126240000D01*
X132077397Y-125922595D01*
X132080000Y-125923113D01*
X132629151Y-125813880D01*
X133094698Y-125502811D01*
X133364986Y-125098297D01*
X133467611Y-125315134D01*
X133882577Y-125691041D01*
X134270961Y-125851904D01*
X134493000Y-125729915D01*
X134493000Y-124587000D01*
X134747000Y-124587000D01*
X134747000Y-125729915D01*
X134969039Y-125851904D01*
X135357423Y-125691041D01*
X135772389Y-125315134D01*
X136011914Y-124809041D01*
X135890629Y-124587000D01*
X134747000Y-124587000D01*
X134493000Y-124587000D01*
X134473000Y-124587000D01*
X134473000Y-124333000D01*
X134493000Y-124333000D01*
X134493000Y-123190085D01*
X134747000Y-123190085D01*
X134747000Y-124333000D01*
X135890629Y-124333000D01*
X136011914Y-124110959D01*
X135772389Y-123604866D01*
X135357423Y-123228959D01*
X134969039Y-123068096D01*
X134747000Y-123190085D01*
X134493000Y-123190085D01*
X134270961Y-123068096D01*
X133882577Y-123228959D01*
X133467611Y-123604866D01*
X133364986Y-123821703D01*
X133094698Y-123417189D01*
X132629151Y-123106120D01*
X132080000Y-122996887D01*
X131530849Y-123106120D01*
X131065302Y-123417189D01*
X130810000Y-123799275D01*
X130554698Y-123417189D01*
X130089151Y-123106120D01*
X129540000Y-122996887D01*
X128990849Y-123106120D01*
X128525302Y-123417189D01*
X128270000Y-123799275D01*
X128014698Y-123417189D01*
X127549151Y-123106120D01*
X127000000Y-122996887D01*
X126450849Y-123106120D01*
X125985302Y-123417189D01*
X125730000Y-123799275D01*
X125474698Y-123417189D01*
X125374538Y-123350264D01*
X126044802Y-122680000D01*
X138899367Y-122680000D01*
X138765162Y-123003201D01*
X138765162Y-123003201D01*
G37*
X138765162Y-123003201D02*
X138764838Y-123375167D01*
X138906883Y-123718943D01*
X138940000Y-123752118D01*
X138940000Y-124145198D01*
X136845198Y-126240000D01*
X132394802Y-126240000D01*
X132077397Y-125922595D01*
X132080000Y-125923113D01*
X132629151Y-125813880D01*
X133094698Y-125502811D01*
X133364986Y-125098297D01*
X133467611Y-125315134D01*
X133882577Y-125691041D01*
X134270961Y-125851904D01*
X134493000Y-125729915D01*
X134493000Y-124587000D01*
X134747000Y-124587000D01*
X134747000Y-125729915D01*
X134969039Y-125851904D01*
X135357423Y-125691041D01*
X135772389Y-125315134D01*
X136011914Y-124809041D01*
X135890629Y-124587000D01*
X134747000Y-124587000D01*
X134493000Y-124587000D01*
X134473000Y-124587000D01*
X134473000Y-124333000D01*
X134493000Y-124333000D01*
X134493000Y-123190085D01*
X134747000Y-123190085D01*
X134747000Y-124333000D01*
X135890629Y-124333000D01*
X136011914Y-124110959D01*
X135772389Y-123604866D01*
X135357423Y-123228959D01*
X134969039Y-123068096D01*
X134747000Y-123190085D01*
X134493000Y-123190085D01*
X134270961Y-123068096D01*
X133882577Y-123228959D01*
X133467611Y-123604866D01*
X133364986Y-123821703D01*
X133094698Y-123417189D01*
X132629151Y-123106120D01*
X132080000Y-122996887D01*
X131530849Y-123106120D01*
X131065302Y-123417189D01*
X130810000Y-123799275D01*
X130554698Y-123417189D01*
X130089151Y-123106120D01*
X129540000Y-122996887D01*
X128990849Y-123106120D01*
X128525302Y-123417189D01*
X128270000Y-123799275D01*
X128014698Y-123417189D01*
X127549151Y-123106120D01*
X127000000Y-122996887D01*
X126450849Y-123106120D01*
X125985302Y-123417189D01*
X125730000Y-123799275D01*
X125474698Y-123417189D01*
X125374538Y-123350264D01*
X126044802Y-122680000D01*
X138899367Y-122680000D01*
X138765162Y-123003201D01*
G36*
X137670000Y-99374802D02*
X137670000Y-105410000D01*
X137727852Y-105700839D01*
X137892599Y-105947401D01*
X139162599Y-107217401D01*
X139308666Y-107315000D01*
X139162599Y-107412599D01*
X137892599Y-108682599D01*
X137727852Y-108929161D01*
X137670000Y-109220000D01*
X137670000Y-111445198D01*
X136845198Y-112270000D01*
X128584802Y-112270000D01*
X127760000Y-111445198D01*
X127760000Y-110432995D01*
X128014698Y-110262811D01*
X128270000Y-109880725D01*
X128525302Y-110262811D01*
X128990849Y-110573880D01*
X129540000Y-110683113D01*
X130089151Y-110573880D01*
X130554698Y-110262811D01*
X130810000Y-109880725D01*
X131065302Y-110262811D01*
X131530849Y-110573880D01*
X132080000Y-110683113D01*
X132629151Y-110573880D01*
X133094698Y-110262811D01*
X133364986Y-109858297D01*
X133467611Y-110075134D01*
X133882577Y-110451041D01*
X134270961Y-110611904D01*
X134493000Y-110489915D01*
X134493000Y-109347000D01*
X134747000Y-109347000D01*
X134747000Y-110489915D01*
X134969039Y-110611904D01*
X135357423Y-110451041D01*
X135772389Y-110075134D01*
X136011914Y-109569041D01*
X135890629Y-109347000D01*
X134747000Y-109347000D01*
X134493000Y-109347000D01*
X134473000Y-109347000D01*
X134473000Y-109093000D01*
X134493000Y-109093000D01*
X134493000Y-107950085D01*
X134747000Y-107950085D01*
X134747000Y-109093000D01*
X135890629Y-109093000D01*
X136011914Y-108870959D01*
X135772389Y-108364866D01*
X135357423Y-107988959D01*
X134969039Y-107828096D01*
X134747000Y-107950085D01*
X134493000Y-107950085D01*
X134270961Y-107828096D01*
X133882577Y-107988959D01*
X133467611Y-108364866D01*
X133364986Y-108581703D01*
X133094698Y-108177189D01*
X132629151Y-107866120D01*
X132080000Y-107756887D01*
X131530849Y-107866120D01*
X131065302Y-108177189D01*
X130810000Y-108559275D01*
X130554698Y-108177189D01*
X130454538Y-108110264D01*
X135157401Y-103407401D01*
X135322148Y-103160839D01*
X135380000Y-102870000D01*
X135380000Y-102812995D01*
X135634698Y-102642811D01*
X135945767Y-102177264D01*
X136055000Y-101628113D01*
X136055000Y-101571887D01*
X135945767Y-101022736D01*
X135634698Y-100557189D01*
X135169151Y-100246120D01*
X134620000Y-100136887D01*
X134070849Y-100246120D01*
X133605302Y-100557189D01*
X133350000Y-100939275D01*
X133094698Y-100557189D01*
X132629151Y-100246120D01*
X132080000Y-100136887D01*
X131530849Y-100246120D01*
X131065302Y-100557189D01*
X130810000Y-100939275D01*
X130554698Y-100557189D01*
X130089151Y-100246120D01*
X129540000Y-100136887D01*
X128990849Y-100246120D01*
X128525302Y-100557189D01*
X128270000Y-100939275D01*
X128014698Y-100557189D01*
X127549151Y-100246120D01*
X127000000Y-100136887D01*
X126450849Y-100246120D01*
X125985302Y-100557189D01*
X125730000Y-100939275D01*
X125474698Y-100557189D01*
X125220000Y-100387005D01*
X125220000Y-99374802D01*
X126044802Y-98550000D01*
X136845198Y-98550000D01*
X137670000Y-99374802D01*
X137670000Y-99374802D01*
G37*
X137670000Y-99374802D02*
X137670000Y-105410000D01*
X137727852Y-105700839D01*
X137892599Y-105947401D01*
X139162599Y-107217401D01*
X139308666Y-107315000D01*
X139162599Y-107412599D01*
X137892599Y-108682599D01*
X137727852Y-108929161D01*
X137670000Y-109220000D01*
X137670000Y-111445198D01*
X136845198Y-112270000D01*
X128584802Y-112270000D01*
X127760000Y-111445198D01*
X127760000Y-110432995D01*
X128014698Y-110262811D01*
X128270000Y-109880725D01*
X128525302Y-110262811D01*
X128990849Y-110573880D01*
X129540000Y-110683113D01*
X130089151Y-110573880D01*
X130554698Y-110262811D01*
X130810000Y-109880725D01*
X131065302Y-110262811D01*
X131530849Y-110573880D01*
X132080000Y-110683113D01*
X132629151Y-110573880D01*
X133094698Y-110262811D01*
X133364986Y-109858297D01*
X133467611Y-110075134D01*
X133882577Y-110451041D01*
X134270961Y-110611904D01*
X134493000Y-110489915D01*
X134493000Y-109347000D01*
X134747000Y-109347000D01*
X134747000Y-110489915D01*
X134969039Y-110611904D01*
X135357423Y-110451041D01*
X135772389Y-110075134D01*
X136011914Y-109569041D01*
X135890629Y-109347000D01*
X134747000Y-109347000D01*
X134493000Y-109347000D01*
X134473000Y-109347000D01*
X134473000Y-109093000D01*
X134493000Y-109093000D01*
X134493000Y-107950085D01*
X134747000Y-107950085D01*
X134747000Y-109093000D01*
X135890629Y-109093000D01*
X136011914Y-108870959D01*
X135772389Y-108364866D01*
X135357423Y-107988959D01*
X134969039Y-107828096D01*
X134747000Y-107950085D01*
X134493000Y-107950085D01*
X134270961Y-107828096D01*
X133882577Y-107988959D01*
X133467611Y-108364866D01*
X133364986Y-108581703D01*
X133094698Y-108177189D01*
X132629151Y-107866120D01*
X132080000Y-107756887D01*
X131530849Y-107866120D01*
X131065302Y-108177189D01*
X130810000Y-108559275D01*
X130554698Y-108177189D01*
X130454538Y-108110264D01*
X135157401Y-103407401D01*
X135322148Y-103160839D01*
X135380000Y-102870000D01*
X135380000Y-102812995D01*
X135634698Y-102642811D01*
X135945767Y-102177264D01*
X136055000Y-101628113D01*
X136055000Y-101571887D01*
X135945767Y-101022736D01*
X135634698Y-100557189D01*
X135169151Y-100246120D01*
X134620000Y-100136887D01*
X134070849Y-100246120D01*
X133605302Y-100557189D01*
X133350000Y-100939275D01*
X133094698Y-100557189D01*
X132629151Y-100246120D01*
X132080000Y-100136887D01*
X131530849Y-100246120D01*
X131065302Y-100557189D01*
X130810000Y-100939275D01*
X130554698Y-100557189D01*
X130089151Y-100246120D01*
X129540000Y-100136887D01*
X128990849Y-100246120D01*
X128525302Y-100557189D01*
X128270000Y-100939275D01*
X128014698Y-100557189D01*
X127549151Y-100246120D01*
X127000000Y-100136887D01*
X126450849Y-100246120D01*
X125985302Y-100557189D01*
X125730000Y-100939275D01*
X125474698Y-100557189D01*
X125220000Y-100387005D01*
X125220000Y-99374802D01*
X126044802Y-98550000D01*
X136845198Y-98550000D01*
X137670000Y-99374802D01*
M02*
