G04 #@! TF.FileFunction,Copper,L1,Top,Signal*
%FSLAX46Y46*%
G04 Gerber Fmt 4.6, Leading zero omitted, Abs format (unit mm)*
G04 Created by KiCad (PCBNEW 4.0.6) date 07/09/17 19:14:54*
%MOMM*%
%LPD*%
G01*
G04 APERTURE LIST*
%ADD10C,0.100000*%
%ADD11R,1.600000X1.600000*%
%ADD12O,1.600000X1.600000*%
%ADD13C,1.600000*%
%ADD14R,1.700000X1.700000*%
%ADD15O,1.700000X1.700000*%
%ADD16C,2.000000*%
%ADD17R,1.200000X1.200000*%
%ADD18C,1.200000*%
%ADD19C,5.000000*%
%ADD20R,1.800000X1.800000*%
%ADD21C,1.800000*%
%ADD22C,0.600000*%
%ADD23C,0.250000*%
G04 APERTURE END LIST*
D10*
D11*
X147955000Y-82550000D03*
D12*
X163195000Y-130810000D03*
X147955000Y-85090000D03*
X163195000Y-128270000D03*
X147955000Y-87630000D03*
X163195000Y-125730000D03*
X147955000Y-90170000D03*
X163195000Y-123190000D03*
X147955000Y-92710000D03*
X163195000Y-120650000D03*
X147955000Y-95250000D03*
X163195000Y-118110000D03*
X147955000Y-97790000D03*
X163195000Y-115570000D03*
X147955000Y-100330000D03*
X163195000Y-113030000D03*
X147955000Y-102870000D03*
X163195000Y-110490000D03*
X147955000Y-105410000D03*
X163195000Y-107950000D03*
X147955000Y-107950000D03*
X163195000Y-105410000D03*
X147955000Y-110490000D03*
X163195000Y-102870000D03*
X147955000Y-113030000D03*
X163195000Y-100330000D03*
X147955000Y-115570000D03*
X163195000Y-97790000D03*
X147955000Y-118110000D03*
X163195000Y-95250000D03*
X147955000Y-120650000D03*
X163195000Y-92710000D03*
X147955000Y-123190000D03*
X163195000Y-90170000D03*
X147955000Y-125730000D03*
X163195000Y-87630000D03*
X147955000Y-128270000D03*
X163195000Y-85090000D03*
X147955000Y-130810000D03*
X163195000Y-82550000D03*
D13*
X144145000Y-101600000D03*
X144145000Y-96600000D03*
X188595000Y-95885000D03*
X188595000Y-100885000D03*
X211455000Y-95885000D03*
X211455000Y-100885000D03*
X211455000Y-71755000D03*
X211455000Y-76755000D03*
X147955000Y-60960000D03*
X152955000Y-60960000D03*
X195580000Y-71755000D03*
X195580000Y-76755000D03*
X121285000Y-127635000D03*
X121285000Y-122635000D03*
X144145000Y-76835000D03*
X149145000Y-76835000D03*
X157480000Y-49530000D03*
X157480000Y-54530000D03*
D11*
X178435000Y-65405000D03*
D12*
X211455000Y-50165000D03*
X180975000Y-65405000D03*
X208915000Y-50165000D03*
X183515000Y-65405000D03*
X206375000Y-50165000D03*
X186055000Y-65405000D03*
X203835000Y-50165000D03*
X188595000Y-65405000D03*
X201295000Y-50165000D03*
X191135000Y-65405000D03*
X198755000Y-50165000D03*
X193675000Y-65405000D03*
X196215000Y-50165000D03*
X196215000Y-65405000D03*
X193675000Y-50165000D03*
X198755000Y-65405000D03*
X191135000Y-50165000D03*
X201295000Y-65405000D03*
X188595000Y-50165000D03*
X203835000Y-65405000D03*
X186055000Y-50165000D03*
X206375000Y-65405000D03*
X183515000Y-50165000D03*
X208915000Y-65405000D03*
X180975000Y-50165000D03*
X211455000Y-65405000D03*
X178435000Y-50165000D03*
X213995000Y-65405000D03*
X213995000Y-50165000D03*
D14*
X213995000Y-137795000D03*
D15*
X211455000Y-137795000D03*
X208915000Y-137795000D03*
X206375000Y-137795000D03*
X203835000Y-137795000D03*
X201295000Y-137795000D03*
X198755000Y-137795000D03*
X196215000Y-137795000D03*
X193675000Y-137795000D03*
X191135000Y-137795000D03*
X188595000Y-137795000D03*
X186055000Y-137795000D03*
X183515000Y-137795000D03*
X180975000Y-137795000D03*
X178435000Y-137795000D03*
X175895000Y-137795000D03*
X173355000Y-137795000D03*
X170815000Y-137795000D03*
X168275000Y-137795000D03*
X165735000Y-137795000D03*
X163195000Y-137795000D03*
X160655000Y-137795000D03*
X158115000Y-137795000D03*
X155575000Y-137795000D03*
X153035000Y-137795000D03*
X150495000Y-137795000D03*
X147955000Y-137795000D03*
X145415000Y-137795000D03*
X142875000Y-137795000D03*
X140335000Y-137795000D03*
X137795000Y-137795000D03*
X135255000Y-137795000D03*
X132715000Y-137795000D03*
X130175000Y-137795000D03*
X127635000Y-137795000D03*
X125095000Y-137795000D03*
X122555000Y-137795000D03*
X120015000Y-137795000D03*
X117475000Y-137795000D03*
D13*
X211455000Y-104140000D03*
D12*
X211455000Y-114300000D03*
D13*
X171450000Y-50165000D03*
D12*
X161290000Y-50165000D03*
D13*
X171450000Y-55245000D03*
D12*
X161290000Y-55245000D03*
D13*
X161290000Y-60325000D03*
D12*
X171450000Y-60325000D03*
D13*
X178435000Y-54610000D03*
D12*
X188595000Y-54610000D03*
D13*
X144145000Y-117475000D03*
D12*
X144145000Y-127635000D03*
D13*
X144145000Y-114300000D03*
D12*
X144145000Y-104140000D03*
D13*
X144145000Y-93980000D03*
D12*
X144145000Y-83820000D03*
D13*
X178435000Y-60960000D03*
D12*
X188595000Y-60960000D03*
D16*
X205105000Y-41855000D03*
X205105000Y-46355000D03*
X198605000Y-41855000D03*
X198605000Y-46355000D03*
D11*
X169545000Y-95885000D03*
D12*
X184785000Y-128905000D03*
X169545000Y-98425000D03*
X184785000Y-126365000D03*
X169545000Y-100965000D03*
X184785000Y-123825000D03*
X169545000Y-103505000D03*
X184785000Y-121285000D03*
X169545000Y-106045000D03*
X184785000Y-118745000D03*
X169545000Y-108585000D03*
X184785000Y-116205000D03*
X169545000Y-111125000D03*
X184785000Y-113665000D03*
X169545000Y-113665000D03*
X184785000Y-111125000D03*
X169545000Y-116205000D03*
X184785000Y-108585000D03*
X169545000Y-118745000D03*
X184785000Y-106045000D03*
X169545000Y-121285000D03*
X184785000Y-103505000D03*
X169545000Y-123825000D03*
X184785000Y-100965000D03*
X169545000Y-126365000D03*
X184785000Y-98425000D03*
X169545000Y-128905000D03*
X184785000Y-95885000D03*
D11*
X200025000Y-71755000D03*
D12*
X207645000Y-86995000D03*
X200025000Y-74295000D03*
X207645000Y-84455000D03*
X200025000Y-76835000D03*
X207645000Y-81915000D03*
X200025000Y-79375000D03*
X207645000Y-79375000D03*
X200025000Y-81915000D03*
X207645000Y-76835000D03*
X200025000Y-84455000D03*
X207645000Y-74295000D03*
X200025000Y-86995000D03*
X207645000Y-71755000D03*
D11*
X184785000Y-71755000D03*
D12*
X192405000Y-86995000D03*
X184785000Y-74295000D03*
X192405000Y-84455000D03*
X184785000Y-76835000D03*
X192405000Y-81915000D03*
X184785000Y-79375000D03*
X192405000Y-79375000D03*
X184785000Y-81915000D03*
X192405000Y-76835000D03*
X184785000Y-84455000D03*
X192405000Y-74295000D03*
X184785000Y-86995000D03*
X192405000Y-71755000D03*
D11*
X125095000Y-82550000D03*
D12*
X140335000Y-130810000D03*
X125095000Y-85090000D03*
X140335000Y-128270000D03*
X125095000Y-87630000D03*
X140335000Y-125730000D03*
X125095000Y-90170000D03*
X140335000Y-123190000D03*
X125095000Y-92710000D03*
X140335000Y-120650000D03*
X125095000Y-95250000D03*
X140335000Y-118110000D03*
X125095000Y-97790000D03*
X140335000Y-115570000D03*
X125095000Y-100330000D03*
X140335000Y-113030000D03*
X125095000Y-102870000D03*
X140335000Y-110490000D03*
X125095000Y-105410000D03*
X140335000Y-107950000D03*
X125095000Y-107950000D03*
X140335000Y-105410000D03*
X125095000Y-110490000D03*
X140335000Y-102870000D03*
X125095000Y-113030000D03*
X140335000Y-100330000D03*
X125095000Y-115570000D03*
X140335000Y-97790000D03*
X125095000Y-118110000D03*
X140335000Y-95250000D03*
X125095000Y-120650000D03*
X140335000Y-92710000D03*
X125095000Y-123190000D03*
X140335000Y-90170000D03*
X125095000Y-125730000D03*
X140335000Y-87630000D03*
X125095000Y-128270000D03*
X140335000Y-85090000D03*
X125095000Y-130810000D03*
X140335000Y-82550000D03*
D11*
X123825000Y-73025000D03*
D12*
X156845000Y-65405000D03*
X126365000Y-73025000D03*
X154305000Y-65405000D03*
X128905000Y-73025000D03*
X151765000Y-65405000D03*
X131445000Y-73025000D03*
X149225000Y-65405000D03*
X133985000Y-73025000D03*
X146685000Y-65405000D03*
X136525000Y-73025000D03*
X144145000Y-65405000D03*
X139065000Y-73025000D03*
X141605000Y-65405000D03*
X141605000Y-73025000D03*
X139065000Y-65405000D03*
X144145000Y-73025000D03*
X136525000Y-65405000D03*
X146685000Y-73025000D03*
X133985000Y-65405000D03*
X149225000Y-73025000D03*
X131445000Y-65405000D03*
X151765000Y-73025000D03*
X128905000Y-65405000D03*
X154305000Y-73025000D03*
X126365000Y-65405000D03*
X156845000Y-73025000D03*
X123825000Y-65405000D03*
D11*
X140335000Y-50800000D03*
D13*
X140335000Y-58420000D03*
X125095000Y-58420000D03*
X125095000Y-50800000D03*
D11*
X169545000Y-71755000D03*
D12*
X177165000Y-89535000D03*
X169545000Y-74295000D03*
X177165000Y-86995000D03*
X169545000Y-76835000D03*
X177165000Y-84455000D03*
X169545000Y-79375000D03*
X177165000Y-81915000D03*
X169545000Y-81915000D03*
X177165000Y-79375000D03*
X169545000Y-84455000D03*
X177165000Y-76835000D03*
X169545000Y-86995000D03*
X177165000Y-74295000D03*
X169545000Y-89535000D03*
X177165000Y-71755000D03*
D11*
X192405000Y-95885000D03*
D12*
X207645000Y-128905000D03*
X192405000Y-98425000D03*
X207645000Y-126365000D03*
X192405000Y-100965000D03*
X207645000Y-123825000D03*
X192405000Y-103505000D03*
X207645000Y-121285000D03*
X192405000Y-106045000D03*
X207645000Y-118745000D03*
X192405000Y-108585000D03*
X207645000Y-116205000D03*
X192405000Y-111125000D03*
X207645000Y-113665000D03*
X192405000Y-113665000D03*
X207645000Y-111125000D03*
X192405000Y-116205000D03*
X207645000Y-108585000D03*
X192405000Y-118745000D03*
X207645000Y-106045000D03*
X192405000Y-121285000D03*
X207645000Y-103505000D03*
X192405000Y-123825000D03*
X207645000Y-100965000D03*
X192405000Y-126365000D03*
X207645000Y-98425000D03*
X192405000Y-128905000D03*
X207645000Y-95885000D03*
D11*
X146685000Y-49530000D03*
D12*
X154305000Y-57150000D03*
X146685000Y-52070000D03*
X154305000Y-54610000D03*
X146685000Y-54610000D03*
X154305000Y-52070000D03*
X146685000Y-57150000D03*
X154305000Y-49530000D03*
D13*
X180975000Y-71755000D03*
X180975000Y-76755000D03*
D17*
X165354000Y-66040000D03*
D18*
X167354000Y-66040000D03*
D13*
X195580000Y-82550000D03*
X195580000Y-87550000D03*
D19*
X210820000Y-132080000D03*
X120650000Y-132080000D03*
X210820000Y-43815000D03*
X120650000Y-43815000D03*
D14*
X120650000Y-85090000D03*
D15*
X120650000Y-82550000D03*
D20*
X193040000Y-44450000D03*
D21*
X190500000Y-44450000D03*
D14*
X184785000Y-45720000D03*
D15*
X184785000Y-43180000D03*
D14*
X192405000Y-92075000D03*
D15*
X194945000Y-92075000D03*
X197485000Y-92075000D03*
D14*
X202565000Y-92075000D03*
D15*
X205105000Y-92075000D03*
X207645000Y-92075000D03*
D13*
X163195000Y-76835000D03*
D12*
X153035000Y-76835000D03*
D22*
X173990000Y-67945000D03*
X183515000Y-69215000D03*
X189865000Y-69850000D03*
X189865000Y-67310000D03*
X214630000Y-91440000D03*
X213360000Y-90170000D03*
X138430000Y-122555000D03*
X138430000Y-102235000D03*
X149225000Y-135890000D03*
X214630000Y-133985000D03*
X174625000Y-135890000D03*
X161290000Y-43180000D03*
X164465000Y-43180000D03*
X117475000Y-133350000D03*
X145415000Y-78740000D03*
X119380000Y-79375000D03*
X119380000Y-76835000D03*
X127635000Y-129540000D03*
X127635000Y-125095000D03*
X162560000Y-46355000D03*
X159385000Y-43815000D03*
X167640000Y-60960000D03*
X128270000Y-43815000D03*
X125095000Y-46990000D03*
X118745000Y-80010000D03*
X118745000Y-77470000D03*
X127000000Y-128905000D03*
X127000000Y-127635000D03*
X161290000Y-47625000D03*
X158115000Y-45085000D03*
X165735000Y-60960000D03*
X176530000Y-66675000D03*
X125730000Y-45085000D03*
X123190000Y-47625000D03*
X182245000Y-67945000D03*
X180975000Y-69215000D03*
X180975000Y-67945000D03*
X179705000Y-69215000D03*
X177800000Y-67945000D03*
X175895000Y-68580000D03*
X177165000Y-48260000D03*
X174625000Y-48260000D03*
X167005000Y-48895000D03*
X163830000Y-52070000D03*
X159385000Y-61595000D03*
X157480000Y-63500000D03*
X159385000Y-65405000D03*
X176530000Y-63500000D03*
X175260000Y-64135000D03*
X167005000Y-64770000D03*
X160655000Y-66675000D03*
X163830000Y-62865000D03*
X177165000Y-57785000D03*
X174625000Y-62230000D03*
X211455000Y-59690000D03*
X209550000Y-57150000D03*
X175260000Y-62865000D03*
X177165000Y-59055000D03*
X164465000Y-63500000D03*
X161290000Y-67310000D03*
X160020000Y-66040000D03*
X163195000Y-62230000D03*
X177165000Y-56515000D03*
X173990000Y-61595000D03*
X160020000Y-120015000D03*
X160020000Y-91440000D03*
X160020000Y-88265000D03*
X161925000Y-86360000D03*
X179070000Y-116840000D03*
X171450000Y-121285000D03*
X203835000Y-130810000D03*
X193675000Y-117475000D03*
X203835000Y-118110000D03*
X171450000Y-93980000D03*
X171450000Y-82550000D03*
X203200000Y-102870000D03*
X203200000Y-131445000D03*
X203200000Y-114935000D03*
X203200000Y-118745000D03*
X196850000Y-95250000D03*
X198120000Y-96520000D03*
X166370000Y-121920000D03*
X173990000Y-102235000D03*
X172085000Y-81915000D03*
X170815000Y-97155000D03*
X198755000Y-100965000D03*
X187325000Y-98425000D03*
X202565000Y-102235000D03*
X202565000Y-132080000D03*
X202565000Y-115570000D03*
X202565000Y-119380000D03*
X167640000Y-97155000D03*
X167005000Y-122555000D03*
X172720000Y-82550000D03*
X172085000Y-98425000D03*
X167640000Y-123190000D03*
X201930000Y-102870000D03*
X201930000Y-132715000D03*
X201930000Y-114935000D03*
X201930000Y-118745000D03*
X180975000Y-110490000D03*
X174625000Y-129540000D03*
X201295000Y-109855000D03*
X195580000Y-109855000D03*
X201295000Y-133350000D03*
X201295000Y-119380000D03*
X201295000Y-115570000D03*
X201295000Y-113030000D03*
X172720000Y-130175000D03*
X175260000Y-130175000D03*
X181610000Y-115570000D03*
X200660000Y-114935000D03*
X194310000Y-114935000D03*
X200660000Y-133985000D03*
X200660000Y-118745000D03*
X180340000Y-107950000D03*
X164465000Y-127000000D03*
X175260000Y-127635000D03*
X200025000Y-107315000D03*
X196215000Y-107315000D03*
X200025000Y-134620000D03*
X200025000Y-119380000D03*
X179705000Y-105410000D03*
X176530000Y-123190000D03*
X164465000Y-124460000D03*
X199390000Y-104775000D03*
X196850000Y-104775000D03*
X199390000Y-118745000D03*
X199390000Y-135255000D03*
X172085000Y-100965000D03*
X154305000Y-120015000D03*
X154940000Y-102235000D03*
X198755000Y-119380000D03*
X197485000Y-135255000D03*
X153035000Y-120015000D03*
X154305000Y-104775000D03*
X172720000Y-103505000D03*
X198120000Y-118745000D03*
X196850000Y-134620000D03*
X151130000Y-117475000D03*
X153670000Y-107315000D03*
X173355000Y-106045000D03*
X196215000Y-133985000D03*
X197485000Y-119380000D03*
X151765000Y-114935000D03*
X153035000Y-109855000D03*
X173990000Y-108585000D03*
X195580000Y-133350000D03*
X196850000Y-118745000D03*
X174625000Y-111125000D03*
X194945000Y-132715000D03*
X196215000Y-119380000D03*
X151765000Y-109855000D03*
X151765000Y-113665000D03*
X175260000Y-113665000D03*
X195580000Y-118745000D03*
X194310000Y-132080000D03*
X151130000Y-98425000D03*
X151130000Y-107315000D03*
X151130000Y-116205000D03*
X175895000Y-116205000D03*
X193675000Y-131445000D03*
X194945000Y-119380000D03*
X150495000Y-97790000D03*
X150495000Y-93345000D03*
X150495000Y-95885000D03*
X151765000Y-119380000D03*
X177800000Y-118110000D03*
X193040000Y-130810000D03*
X203200000Y-78105000D03*
X186055000Y-80645000D03*
X179070000Y-83185000D03*
X174625000Y-83185000D03*
X159385000Y-95250000D03*
X159385000Y-121920000D03*
X159385000Y-132080000D03*
X167640000Y-71120000D03*
X163195000Y-65405000D03*
X179070000Y-80645000D03*
X168275000Y-80645000D03*
X151765000Y-96520000D03*
X149225000Y-96520000D03*
X158750000Y-131445000D03*
X158750000Y-93980000D03*
X156845000Y-94615000D03*
X151130000Y-81915000D03*
X151130000Y-78105000D03*
X156845000Y-132080000D03*
X156845000Y-97155000D03*
X137795000Y-114300000D03*
X159385000Y-135255000D03*
X137795000Y-99695000D03*
X156210000Y-99695000D03*
X156210000Y-131445000D03*
X155575000Y-134620000D03*
X137160000Y-119380000D03*
X151765000Y-135255000D03*
X137160000Y-99060000D03*
X154940000Y-99060000D03*
X154940000Y-131445000D03*
X171450000Y-120015000D03*
X176530000Y-120015000D03*
X170815000Y-102235000D03*
X172085000Y-102870000D03*
X172085000Y-122555000D03*
X175895000Y-122555000D03*
X133985000Y-104140000D03*
X135255000Y-102870000D03*
X172720000Y-125095000D03*
X175260000Y-125095000D03*
X172720000Y-105410000D03*
X170815000Y-104775000D03*
X133350000Y-106680000D03*
X135255000Y-105410000D03*
X170815000Y-107315000D03*
X173355000Y-107950000D03*
X132715000Y-109220000D03*
X135255000Y-107950000D03*
X173990000Y-110490000D03*
X170815000Y-109855000D03*
X132080000Y-111760000D03*
X135255000Y-110490000D03*
X174625000Y-113030000D03*
X170815000Y-112395000D03*
X135255000Y-113030000D03*
X131445000Y-114300000D03*
X175260000Y-115570000D03*
X170815000Y-114935000D03*
X130810000Y-116840000D03*
X135255000Y-115570000D03*
X170815000Y-117475000D03*
X175895000Y-118110000D03*
X130175000Y-119380000D03*
X135255000Y-118110000D03*
X139065000Y-96520000D03*
X123825000Y-135255000D03*
X200660000Y-97155000D03*
X198120000Y-94615000D03*
X201930000Y-95885000D03*
X205105000Y-93980000D03*
X143510000Y-130175000D03*
X164465000Y-88900000D03*
X213995000Y-96520000D03*
X213995000Y-95250000D03*
X201930000Y-76200000D03*
X127000000Y-81280000D03*
X127000000Y-78105000D03*
X127635000Y-81915000D03*
X127635000Y-77470000D03*
X128270000Y-78105000D03*
X128270000Y-81280000D03*
X128905000Y-77470000D03*
X128905000Y-81915000D03*
X129540000Y-81280000D03*
X129540000Y-78105000D03*
X130175000Y-81915000D03*
X130175000Y-77470000D03*
X130810000Y-78105000D03*
X130810000Y-81280000D03*
X131445000Y-77470000D03*
X131445000Y-81915000D03*
X130175000Y-69215000D03*
X132080000Y-81280000D03*
X132715000Y-68580000D03*
X132715000Y-81915000D03*
X133350000Y-81280000D03*
X135255000Y-67945000D03*
X133985000Y-81915000D03*
X137160000Y-69215000D03*
X134620000Y-81280000D03*
X139700000Y-69850000D03*
X135255000Y-81915000D03*
X142240000Y-70485000D03*
X145415000Y-71755000D03*
X135890000Y-81280000D03*
X187325000Y-92710000D03*
X190500000Y-86995000D03*
X187325000Y-83185000D03*
X183515000Y-83185000D03*
X164465000Y-71120000D03*
X175895000Y-75565000D03*
X164465000Y-91440000D03*
X181610000Y-91440000D03*
X144145000Y-132080000D03*
X135255000Y-129540000D03*
X129540000Y-129540000D03*
X182880000Y-76835000D03*
X158750000Y-47625000D03*
X165735000Y-92075000D03*
D23*
X189865000Y-69850000D02*
X189230000Y-69850000D01*
X165100000Y-76835000D02*
X165100000Y-68580000D01*
X165100000Y-68580000D02*
X165735000Y-67945000D01*
X165735000Y-67945000D02*
X173990000Y-67945000D01*
X149860000Y-79375000D02*
X162560000Y-79375000D01*
X140335000Y-79375000D02*
X149860000Y-79375000D01*
X136525000Y-83185000D02*
X139065000Y-80645000D01*
X136525000Y-97155000D02*
X136525000Y-83185000D01*
X133350000Y-102235000D02*
X133350000Y-100330000D01*
X127635000Y-123190000D02*
X128905000Y-121920000D01*
X128905000Y-121920000D02*
X128905000Y-117475000D01*
X127635000Y-123190000D02*
X125095000Y-123190000D01*
X132080000Y-107315000D02*
X132080000Y-105410000D01*
X131445000Y-107950000D02*
X132080000Y-107315000D01*
X129540000Y-116840000D02*
X129540000Y-115570000D01*
X129540000Y-115570000D02*
X130175000Y-114935000D01*
X130175000Y-114935000D02*
X130175000Y-113030000D01*
X130175000Y-113030000D02*
X130810000Y-112395000D01*
X130810000Y-112395000D02*
X130810000Y-111125000D01*
X130810000Y-111125000D02*
X130810000Y-110490000D01*
X130810000Y-110490000D02*
X131445000Y-109855000D01*
X131445000Y-109855000D02*
X131445000Y-107950000D01*
X128905000Y-117475000D02*
X129540000Y-116840000D01*
X132715000Y-104775000D02*
X132715000Y-102870000D01*
X132715000Y-102870000D02*
X133350000Y-102235000D01*
X132080000Y-105410000D02*
X132715000Y-104775000D01*
X133350000Y-100330000D02*
X135255000Y-98425000D01*
X135255000Y-98425000D02*
X136525000Y-97155000D01*
X139065000Y-80645000D02*
X139700000Y-80010000D01*
X139700000Y-80010000D02*
X140335000Y-79375000D01*
X162560000Y-79375000D02*
X165100000Y-76835000D01*
X188595000Y-69215000D02*
X183515000Y-69215000D01*
X189230000Y-69850000D02*
X188595000Y-69215000D01*
X195580000Y-82550000D02*
X195580000Y-81915000D01*
X195580000Y-81915000D02*
X194310000Y-80645000D01*
X194310000Y-80645000D02*
X191135000Y-80645000D01*
X191135000Y-80645000D02*
X189865000Y-79375000D01*
X189865000Y-79375000D02*
X189865000Y-69850000D01*
X189865000Y-67310000D02*
X191135000Y-66040000D01*
X191135000Y-66040000D02*
X191135000Y-65405000D01*
X144145000Y-76835000D02*
X144780000Y-76835000D01*
X144780000Y-76835000D02*
X146685000Y-78740000D01*
X153035000Y-78105000D02*
X153035000Y-76835000D01*
X152400000Y-78740000D02*
X153035000Y-78105000D01*
X146685000Y-78740000D02*
X152400000Y-78740000D01*
X202565000Y-92075000D02*
X202565000Y-94615000D01*
X202565000Y-94615000D02*
X203835000Y-95885000D01*
X203835000Y-95885000D02*
X207645000Y-95885000D01*
X139700000Y-77470000D02*
X140335000Y-77470000D01*
X138430000Y-78740000D02*
X139700000Y-77470000D01*
X117475000Y-80010000D02*
X118745000Y-78740000D01*
X137795000Y-78740000D02*
X118745000Y-78740000D01*
X137795000Y-78740000D02*
X138430000Y-78740000D01*
X140970000Y-76835000D02*
X144145000Y-76835000D01*
X140335000Y-77470000D02*
X140970000Y-76835000D01*
X201295000Y-90170000D02*
X213360000Y-90170000D01*
X163195000Y-87630000D02*
X164465000Y-87630000D01*
X175260000Y-73660000D02*
X177165000Y-71755000D01*
X175260000Y-85090000D02*
X175260000Y-73660000D01*
X174625000Y-85725000D02*
X175260000Y-85090000D01*
X166370000Y-85725000D02*
X174625000Y-85725000D01*
X164465000Y-87630000D02*
X166370000Y-85725000D01*
X139065000Y-123190000D02*
X140335000Y-123190000D01*
X139065000Y-123190000D02*
X138430000Y-122555000D01*
X192405000Y-92075000D02*
X192405000Y-91440000D01*
X192405000Y-91440000D02*
X193675000Y-90170000D01*
X193675000Y-90170000D02*
X201295000Y-90170000D01*
X139065000Y-101600000D02*
X144145000Y-101600000D01*
X138430000Y-102235000D02*
X139065000Y-101600000D01*
X144145000Y-127635000D02*
X144145000Y-124460000D01*
X144145000Y-124460000D02*
X142875000Y-123190000D01*
X142875000Y-123190000D02*
X140335000Y-123190000D01*
X144145000Y-127635000D02*
X144145000Y-130810000D01*
X144145000Y-130810000D02*
X149225000Y-135890000D01*
X144145000Y-101600000D02*
X145415000Y-100330000D01*
X145415000Y-100330000D02*
X147955000Y-100330000D01*
X121285000Y-127635000D02*
X121920000Y-127635000D01*
X121920000Y-127635000D02*
X125095000Y-130810000D01*
X121285000Y-127635000D02*
X118745000Y-127635000D01*
X118745000Y-127635000D02*
X117475000Y-128905000D01*
X170815000Y-137795000D02*
X170815000Y-137160000D01*
X170815000Y-137160000D02*
X172085000Y-135890000D01*
X214630000Y-118745000D02*
X214630000Y-114300000D01*
X214630000Y-133985000D02*
X214630000Y-118745000D01*
X172085000Y-135890000D02*
X174625000Y-135890000D01*
X144145000Y-46355000D02*
X144145000Y-47625000D01*
X140335000Y-53975000D02*
X144145000Y-50165000D01*
X144145000Y-50165000D02*
X144145000Y-47625000D01*
X140335000Y-53975000D02*
X140335000Y-58420000D01*
X117475000Y-83820000D02*
X117475000Y-82550000D01*
X117475000Y-106045000D02*
X117475000Y-105410000D01*
X117475000Y-127635000D02*
X117475000Y-106045000D01*
X117475000Y-128905000D02*
X117475000Y-127635000D01*
X117475000Y-105410000D02*
X117475000Y-104140000D01*
X117475000Y-95885000D02*
X117475000Y-83820000D01*
X117475000Y-104140000D02*
X117475000Y-97155000D01*
X117475000Y-97155000D02*
X117475000Y-95885000D01*
X117475000Y-82550000D02*
X117475000Y-80010000D01*
X117475000Y-80010000D02*
X117475000Y-52070000D01*
X125095000Y-46355000D02*
X144145000Y-46355000D01*
X123190000Y-46355000D02*
X125095000Y-46355000D01*
X117475000Y-52070000D02*
X123190000Y-46355000D01*
X161290000Y-43180000D02*
X158115000Y-46355000D01*
X144145000Y-46355000D02*
X145415000Y-46355000D01*
X145415000Y-46355000D02*
X158115000Y-46355000D01*
X171450000Y-60325000D02*
X175895000Y-60325000D01*
X175895000Y-60325000D02*
X175895000Y-59690000D01*
X171450000Y-55245000D02*
X175895000Y-55245000D01*
X157480000Y-49530000D02*
X158115000Y-49530000D01*
X158115000Y-49530000D02*
X164465000Y-43180000D01*
X171450000Y-50165000D02*
X175895000Y-50165000D01*
X146685000Y-57150000D02*
X148590000Y-57150000D01*
X151130000Y-49530000D02*
X154305000Y-49530000D01*
X149860000Y-50800000D02*
X151130000Y-49530000D01*
X149860000Y-55880000D02*
X149860000Y-50800000D01*
X148590000Y-57150000D02*
X149860000Y-55880000D01*
X175895000Y-44450000D02*
X176530000Y-44450000D01*
X176530000Y-44450000D02*
X177800000Y-43180000D01*
X175895000Y-44450000D02*
X175260000Y-44450000D01*
X175260000Y-44450000D02*
X173990000Y-43180000D01*
X164465000Y-43180000D02*
X173990000Y-43180000D01*
X117475000Y-133350000D02*
X117475000Y-128905000D01*
X211455000Y-114300000D02*
X214630000Y-114300000D01*
X154305000Y-49530000D02*
X157480000Y-49530000D01*
X144145000Y-76835000D02*
X144145000Y-73025000D01*
X178435000Y-60960000D02*
X175895000Y-60960000D01*
X178435000Y-54610000D02*
X175895000Y-54610000D01*
X211455000Y-95885000D02*
X214630000Y-95885000D01*
X214630000Y-114300000D02*
X214630000Y-95885000D01*
X214630000Y-95885000D02*
X214630000Y-91440000D01*
X214630000Y-91440000D02*
X214630000Y-82550000D01*
X214630000Y-82550000D02*
X214630000Y-71755000D01*
X211455000Y-71755000D02*
X214630000Y-71755000D01*
X196850000Y-68580000D02*
X196850000Y-69215000D01*
X196850000Y-69215000D02*
X196850000Y-70485000D01*
X196850000Y-70485000D02*
X195580000Y-71755000D01*
X207645000Y-71755000D02*
X211455000Y-71755000D01*
X197485000Y-68580000D02*
X213360000Y-68580000D01*
X196850000Y-68580000D02*
X197485000Y-68580000D01*
X213360000Y-68580000D02*
X214630000Y-69850000D01*
X214630000Y-69850000D02*
X214630000Y-71755000D01*
X195580000Y-71755000D02*
X192405000Y-71755000D01*
X182245000Y-68580000D02*
X195580000Y-68580000D01*
X195580000Y-68580000D02*
X196850000Y-68580000D01*
X180975000Y-71755000D02*
X182245000Y-70485000D01*
X175895000Y-44450000D02*
X175895000Y-50165000D01*
X175895000Y-50165000D02*
X175895000Y-54610000D01*
X175895000Y-54610000D02*
X175895000Y-55245000D01*
X175895000Y-55245000D02*
X175895000Y-59690000D01*
X175895000Y-59690000D02*
X175895000Y-60960000D01*
X175895000Y-60960000D02*
X175895000Y-67310000D01*
X175895000Y-67310000D02*
X177165000Y-68580000D01*
X177165000Y-68580000D02*
X179705000Y-68580000D01*
X177800000Y-43180000D02*
X184785000Y-43180000D01*
X182245000Y-68580000D02*
X179705000Y-68580000D01*
X182245000Y-70485000D02*
X182245000Y-68580000D01*
X177165000Y-71755000D02*
X180975000Y-71755000D01*
X207645000Y-95885000D02*
X211455000Y-95885000D01*
X184785000Y-95885000D02*
X188595000Y-95885000D01*
X190500000Y-44450000D02*
X190500000Y-48260000D01*
X189865000Y-53340000D02*
X188595000Y-54610000D01*
X189865000Y-48895000D02*
X189865000Y-53340000D01*
X190500000Y-48260000D02*
X189865000Y-48895000D01*
X145415000Y-78740000D02*
X144145000Y-78740000D01*
X139065000Y-79375000D02*
X139700000Y-78740000D01*
X139700000Y-78740000D02*
X144145000Y-78740000D01*
X123190000Y-80010000D02*
X120650000Y-82550000D01*
X123825000Y-79375000D02*
X123190000Y-80010000D01*
X138430000Y-79375000D02*
X123825000Y-79375000D01*
X138430000Y-79375000D02*
X139065000Y-79375000D01*
X119380000Y-63500000D02*
X119380000Y-52705000D01*
X119380000Y-76835000D02*
X119380000Y-63500000D01*
X119380000Y-88265000D02*
X119380000Y-123190000D01*
X127635000Y-125095000D02*
X127000000Y-124460000D01*
X127000000Y-124460000D02*
X120650000Y-124460000D01*
X120650000Y-124460000D02*
X119380000Y-123190000D01*
X127635000Y-137795000D02*
X127635000Y-133985000D01*
X127635000Y-133985000D02*
X127635000Y-129540000D01*
X119380000Y-88265000D02*
X119380000Y-79375000D01*
X167640000Y-51435000D02*
X162560000Y-46355000D01*
X167640000Y-60960000D02*
X167640000Y-51435000D01*
X128270000Y-43815000D02*
X159385000Y-43815000D01*
X119380000Y-52705000D02*
X125095000Y-46990000D01*
X118745000Y-63500000D02*
X118745000Y-52070000D01*
X118745000Y-77470000D02*
X118745000Y-63500000D01*
X118745000Y-94615000D02*
X118745000Y-123825000D01*
X127000000Y-132715000D02*
X127000000Y-129540000D01*
X127000000Y-129540000D02*
X127000000Y-128905000D01*
X127000000Y-127635000D02*
X126365000Y-127000000D01*
X126365000Y-127000000D02*
X123825000Y-127000000D01*
X123825000Y-127000000D02*
X121920000Y-125095000D01*
X121920000Y-125095000D02*
X120015000Y-125095000D01*
X120015000Y-125095000D02*
X118745000Y-123825000D01*
X125095000Y-137795000D02*
X125095000Y-134620000D01*
X125095000Y-134620000D02*
X125730000Y-133985000D01*
X125730000Y-133985000D02*
X127000000Y-132715000D01*
X118745000Y-94615000D02*
X118745000Y-80010000D01*
X165735000Y-52070000D02*
X161290000Y-47625000D01*
X179705000Y-66675000D02*
X180975000Y-65405000D01*
X179705000Y-66675000D02*
X176530000Y-66675000D01*
X165735000Y-60960000D02*
X165735000Y-52070000D01*
X147320000Y-45085000D02*
X158115000Y-45085000D01*
X125730000Y-45085000D02*
X147320000Y-45085000D01*
X118745000Y-52070000D02*
X123190000Y-47625000D01*
X170815000Y-69850000D02*
X180340000Y-69850000D01*
X167640000Y-69850000D02*
X167005000Y-70485000D01*
X164465000Y-81280000D02*
X167005000Y-78740000D01*
X167005000Y-78740000D02*
X167005000Y-70485000D01*
X142875000Y-81915000D02*
X143510000Y-81280000D01*
X140335000Y-84455000D02*
X141605000Y-83185000D01*
X141605000Y-83185000D02*
X142875000Y-81915000D01*
X143510000Y-81280000D02*
X149860000Y-81280000D01*
X149860000Y-81280000D02*
X164465000Y-81280000D01*
X170815000Y-69850000D02*
X167640000Y-69850000D01*
X188595000Y-66675000D02*
X188595000Y-65405000D01*
X187325000Y-67945000D02*
X188595000Y-66675000D01*
X182245000Y-67945000D02*
X187325000Y-67945000D01*
X180340000Y-69850000D02*
X180975000Y-69215000D01*
X140335000Y-85090000D02*
X140335000Y-84455000D01*
X170815000Y-69215000D02*
X179705000Y-69215000D01*
X166370000Y-71755000D02*
X166370000Y-69850000D01*
X166370000Y-69850000D02*
X167005000Y-69215000D01*
X167005000Y-69215000D02*
X170815000Y-69215000D01*
X163830000Y-80645000D02*
X166370000Y-78105000D01*
X140970000Y-82550000D02*
X142875000Y-80645000D01*
X142875000Y-80645000D02*
X149860000Y-80645000D01*
X149860000Y-80645000D02*
X163830000Y-80645000D01*
X166370000Y-78105000D02*
X166370000Y-71755000D01*
X192405000Y-63500000D02*
X193675000Y-64770000D01*
X188595000Y-63500000D02*
X192405000Y-63500000D01*
X187325000Y-64770000D02*
X188595000Y-63500000D01*
X187325000Y-66675000D02*
X187325000Y-64770000D01*
X186690000Y-67310000D02*
X187325000Y-66675000D01*
X181610000Y-67310000D02*
X186690000Y-67310000D01*
X180975000Y-67945000D02*
X181610000Y-67310000D01*
X193675000Y-64770000D02*
X193675000Y-65405000D01*
X140335000Y-82550000D02*
X140970000Y-82550000D01*
X170815000Y-68580000D02*
X175895000Y-68580000D01*
X165735000Y-69850000D02*
X165735000Y-69215000D01*
X165735000Y-69215000D02*
X166370000Y-68580000D01*
X166370000Y-68580000D02*
X170815000Y-68580000D01*
X165735000Y-71755000D02*
X165735000Y-77470000D01*
X163195000Y-80010000D02*
X165735000Y-77470000D01*
X140335000Y-80645000D02*
X140970000Y-80010000D01*
X137160000Y-97790000D02*
X137160000Y-83820000D01*
X133985000Y-102870000D02*
X133985000Y-100965000D01*
X128270000Y-125730000D02*
X129540000Y-124460000D01*
X129540000Y-124460000D02*
X129540000Y-118745000D01*
X125095000Y-125730000D02*
X128270000Y-125730000D01*
X132715000Y-107950000D02*
X132715000Y-106045000D01*
X132080000Y-108585000D02*
X132715000Y-107950000D01*
X129540000Y-118110000D02*
X130175000Y-117475000D01*
X130175000Y-117475000D02*
X130175000Y-116205000D01*
X130175000Y-116205000D02*
X130810000Y-115570000D01*
X130810000Y-115570000D02*
X130810000Y-113665000D01*
X130810000Y-113665000D02*
X131445000Y-113030000D01*
X131445000Y-113030000D02*
X131445000Y-111125000D01*
X131445000Y-111125000D02*
X132080000Y-110490000D01*
X132080000Y-110490000D02*
X132080000Y-108585000D01*
X129540000Y-118745000D02*
X129540000Y-118110000D01*
X133350000Y-105410000D02*
X133350000Y-103505000D01*
X133350000Y-103505000D02*
X133985000Y-102870000D01*
X132715000Y-106045000D02*
X133350000Y-105410000D01*
X133985000Y-100965000D02*
X135890000Y-99060000D01*
X135890000Y-99060000D02*
X137160000Y-97790000D01*
X137160000Y-83820000D02*
X140335000Y-80645000D01*
X140970000Y-80010000D02*
X149860000Y-80010000D01*
X149860000Y-80010000D02*
X163195000Y-80010000D01*
X165735000Y-71755000D02*
X165735000Y-69850000D01*
X196215000Y-64135000D02*
X196215000Y-65405000D01*
X194945000Y-62865000D02*
X196215000Y-64135000D01*
X186055000Y-62865000D02*
X194945000Y-62865000D01*
X184785000Y-64135000D02*
X186055000Y-62865000D01*
X184785000Y-66040000D02*
X184785000Y-64135000D01*
X184150000Y-66675000D02*
X184785000Y-66040000D01*
X181610000Y-66675000D02*
X184150000Y-66675000D01*
X180975000Y-66675000D02*
X181610000Y-66675000D01*
X179705000Y-67945000D02*
X180975000Y-66675000D01*
X177800000Y-67945000D02*
X179705000Y-67945000D01*
X183515000Y-50165000D02*
X183515000Y-49530000D01*
X183515000Y-49530000D02*
X182245000Y-48260000D01*
X182245000Y-48260000D02*
X177165000Y-48260000D01*
X174625000Y-48260000D02*
X170180000Y-48260000D01*
X170180000Y-48260000D02*
X168910000Y-48260000D01*
X168910000Y-48260000D02*
X167640000Y-48260000D01*
X167640000Y-48260000D02*
X167005000Y-48895000D01*
X163830000Y-52070000D02*
X163195000Y-52705000D01*
X163195000Y-52705000D02*
X163195000Y-55880000D01*
X163195000Y-55880000D02*
X161290000Y-57785000D01*
X161290000Y-57785000D02*
X160655000Y-57785000D01*
X160655000Y-57785000D02*
X159385000Y-59055000D01*
X159385000Y-59055000D02*
X159385000Y-61595000D01*
X157480000Y-63500000D02*
X150495000Y-63500000D01*
X150495000Y-63500000D02*
X149225000Y-64770000D01*
X149225000Y-64770000D02*
X149225000Y-65405000D01*
X149225000Y-73025000D02*
X149225000Y-71120000D01*
X154940000Y-69850000D02*
X150495000Y-69850000D01*
X150495000Y-69850000D02*
X149225000Y-71120000D01*
X158115000Y-66675000D02*
X158750000Y-66040000D01*
X158115000Y-66675000D02*
X154940000Y-69850000D01*
X158750000Y-66040000D02*
X159385000Y-65405000D01*
X186055000Y-60960000D02*
X188595000Y-60960000D01*
X183515000Y-63500000D02*
X186055000Y-60960000D01*
X176530000Y-63500000D02*
X183515000Y-63500000D01*
X167640000Y-64135000D02*
X175260000Y-64135000D01*
X167005000Y-64770000D02*
X167640000Y-64135000D01*
X188595000Y-60960000D02*
X207010000Y-60960000D01*
X208915000Y-62230000D02*
X208915000Y-65405000D01*
X207645000Y-60960000D02*
X208915000Y-62230000D01*
X207010000Y-60960000D02*
X207645000Y-60960000D01*
X180975000Y-57150000D02*
X209550000Y-57150000D01*
X177800000Y-57150000D02*
X180975000Y-57150000D01*
X163830000Y-62865000D02*
X173990000Y-62865000D01*
X154305000Y-73025000D02*
X160020000Y-67310000D01*
X160020000Y-67310000D02*
X160655000Y-66675000D01*
X173990000Y-62865000D02*
X174625000Y-62230000D01*
X177165000Y-57785000D02*
X177800000Y-57150000D01*
X211455000Y-59690000D02*
X211455000Y-65405000D01*
X180975000Y-58420000D02*
X212725000Y-58420000D01*
X174625000Y-63500000D02*
X175260000Y-62865000D01*
X177165000Y-59055000D02*
X177800000Y-58420000D01*
X177800000Y-58420000D02*
X180975000Y-58420000D01*
X160655000Y-67945000D02*
X161290000Y-67310000D01*
X156845000Y-71755000D02*
X160655000Y-67945000D01*
X156845000Y-73025000D02*
X156845000Y-71755000D01*
X164465000Y-63500000D02*
X174625000Y-63500000D01*
X213995000Y-59690000D02*
X213995000Y-65405000D01*
X212725000Y-58420000D02*
X213995000Y-59690000D01*
X180975000Y-55880000D02*
X212725000Y-55880000D01*
X177800000Y-55880000D02*
X180975000Y-55880000D01*
X163195000Y-62230000D02*
X173355000Y-62230000D01*
X151765000Y-73025000D02*
X151765000Y-71755000D01*
X153035000Y-70485000D02*
X155575000Y-70485000D01*
X151765000Y-71755000D02*
X153035000Y-70485000D01*
X155575000Y-70485000D02*
X159385000Y-66675000D01*
X159385000Y-66675000D02*
X160020000Y-66040000D01*
X173355000Y-62230000D02*
X173990000Y-61595000D01*
X177165000Y-56515000D02*
X177800000Y-55880000D01*
X213995000Y-54610000D02*
X213995000Y-50165000D01*
X212725000Y-55880000D02*
X213995000Y-54610000D01*
X169545000Y-84455000D02*
X166370000Y-84455000D01*
X160655000Y-120650000D02*
X160020000Y-120015000D01*
X160655000Y-120650000D02*
X163195000Y-120650000D01*
X160020000Y-88265000D02*
X160020000Y-91440000D01*
X164465000Y-86360000D02*
X161925000Y-86360000D01*
X166370000Y-84455000D02*
X164465000Y-86360000D01*
X180340000Y-116840000D02*
X179070000Y-116840000D01*
X180340000Y-116840000D02*
X182880000Y-116840000D01*
X182880000Y-116840000D02*
X183515000Y-116205000D01*
X184785000Y-116205000D02*
X183515000Y-116205000D01*
X163195000Y-120650000D02*
X166370000Y-120650000D01*
X166370000Y-120650000D02*
X168275000Y-122555000D01*
X168275000Y-122555000D02*
X170180000Y-122555000D01*
X170180000Y-122555000D02*
X171450000Y-121285000D01*
X203835000Y-130810000D02*
X207010000Y-133985000D01*
X208280000Y-135255000D02*
X207010000Y-133985000D01*
X213995000Y-136525000D02*
X213995000Y-137795000D01*
X212725000Y-135255000D02*
X210185000Y-135255000D01*
X213995000Y-136525000D02*
X212725000Y-135255000D01*
X210185000Y-135255000D02*
X208280000Y-135255000D01*
X189865000Y-116205000D02*
X191135000Y-117475000D01*
X191135000Y-117475000D02*
X193675000Y-117475000D01*
X184785000Y-116205000D02*
X189865000Y-116205000D01*
X169545000Y-76835000D02*
X170815000Y-76835000D01*
X171450000Y-77470000D02*
X171450000Y-82550000D01*
X170815000Y-76835000D02*
X171450000Y-77470000D01*
X182880000Y-93980000D02*
X171450000Y-93980000D01*
X194945000Y-95250000D02*
X193675000Y-93980000D01*
X193675000Y-93980000D02*
X182880000Y-93980000D01*
X203200000Y-102870000D02*
X203200000Y-101600000D01*
X203200000Y-118745000D02*
X203200000Y-114935000D01*
X207645000Y-135890000D02*
X210185000Y-135890000D01*
X211455000Y-137160000D02*
X210185000Y-135890000D01*
X203200000Y-131445000D02*
X206375000Y-134620000D01*
X206375000Y-134620000D02*
X207645000Y-135890000D01*
X196850000Y-95250000D02*
X195580000Y-95250000D01*
X203200000Y-101600000D02*
X198120000Y-96520000D01*
X195580000Y-95250000D02*
X194945000Y-95250000D01*
X171450000Y-93980000D02*
X169545000Y-95885000D01*
X163195000Y-123190000D02*
X165100000Y-123190000D01*
X165100000Y-123190000D02*
X166370000Y-121920000D01*
X211455000Y-137160000D02*
X211455000Y-137795000D01*
X183515000Y-100965000D02*
X182245000Y-102235000D01*
X182245000Y-102235000D02*
X173990000Y-102235000D01*
X184785000Y-100965000D02*
X183515000Y-100965000D01*
X169545000Y-74295000D02*
X170815000Y-74295000D01*
X172085000Y-75565000D02*
X172085000Y-81915000D01*
X170815000Y-74295000D02*
X172085000Y-75565000D01*
X197485000Y-99695000D02*
X198755000Y-100965000D01*
X191770000Y-99695000D02*
X197485000Y-99695000D01*
X190500000Y-98425000D02*
X191770000Y-99695000D01*
X187325000Y-98425000D02*
X190500000Y-98425000D01*
X202565000Y-115570000D02*
X202565000Y-119380000D01*
X205740000Y-135255000D02*
X202565000Y-132080000D01*
X207010000Y-136525000D02*
X205740000Y-135255000D01*
X208280000Y-136525000D02*
X207010000Y-136525000D01*
X208280000Y-136525000D02*
X208915000Y-137160000D01*
X168275000Y-97155000D02*
X167640000Y-97155000D01*
X165735000Y-125730000D02*
X163195000Y-125730000D01*
X167005000Y-124460000D02*
X167005000Y-122555000D01*
X165735000Y-125730000D02*
X167005000Y-124460000D01*
X170815000Y-97155000D02*
X168275000Y-97155000D01*
X208915000Y-137795000D02*
X208915000Y-137160000D01*
X171450000Y-71755000D02*
X172720000Y-73025000D01*
X172720000Y-73025000D02*
X172720000Y-82550000D01*
X169545000Y-71755000D02*
X171450000Y-71755000D01*
X192405000Y-98425000D02*
X191770000Y-98425000D01*
X191770000Y-98425000D02*
X190500000Y-97155000D01*
X182245000Y-98425000D02*
X172085000Y-98425000D01*
X172085000Y-98425000D02*
X169545000Y-98425000D01*
X183515000Y-97155000D02*
X182245000Y-98425000D01*
X190500000Y-97155000D02*
X183515000Y-97155000D01*
X163195000Y-128270000D02*
X166370000Y-128270000D01*
X167640000Y-127000000D02*
X167640000Y-123190000D01*
X166370000Y-128270000D02*
X167640000Y-127000000D01*
X201930000Y-114935000D02*
X201930000Y-118745000D01*
X197485000Y-98425000D02*
X201930000Y-102870000D01*
X192405000Y-98425000D02*
X197485000Y-98425000D01*
X202565000Y-133350000D02*
X201930000Y-132715000D01*
X202565000Y-133350000D02*
X206375000Y-137160000D01*
X206375000Y-137795000D02*
X206375000Y-137160000D01*
X149225000Y-130810000D02*
X160655000Y-130810000D01*
X160655000Y-130810000D02*
X161925000Y-132080000D01*
X174625000Y-129540000D02*
X172085000Y-132080000D01*
X172085000Y-132080000D02*
X161925000Y-132080000D01*
X183515000Y-108585000D02*
X182245000Y-109855000D01*
X182245000Y-109855000D02*
X181610000Y-109855000D01*
X181610000Y-109855000D02*
X180975000Y-110490000D01*
X184785000Y-108585000D02*
X183515000Y-108585000D01*
X149225000Y-130810000D02*
X147955000Y-130810000D01*
X184785000Y-108585000D02*
X189865000Y-108585000D01*
X191135000Y-109855000D02*
X195580000Y-109855000D01*
X189865000Y-108585000D02*
X191135000Y-109855000D01*
X203835000Y-137795000D02*
X203835000Y-136525000D01*
X203835000Y-135890000D02*
X201295000Y-133350000D01*
X203835000Y-136525000D02*
X203835000Y-135890000D01*
X207645000Y-108585000D02*
X202565000Y-108585000D01*
X201295000Y-115570000D02*
X201295000Y-119380000D01*
X201295000Y-109855000D02*
X201295000Y-113030000D01*
X202565000Y-108585000D02*
X201295000Y-109855000D01*
X147955000Y-128270000D02*
X160655000Y-128270000D01*
X168275000Y-130175000D02*
X172720000Y-130175000D01*
X167640000Y-129540000D02*
X168275000Y-130175000D01*
X161925000Y-129540000D02*
X167640000Y-129540000D01*
X160655000Y-128270000D02*
X161925000Y-129540000D01*
X184785000Y-113665000D02*
X183515000Y-113665000D01*
X183515000Y-113665000D02*
X182245000Y-114935000D01*
X182245000Y-114935000D02*
X181610000Y-115570000D01*
X184785000Y-113665000D02*
X189865000Y-113665000D01*
X191135000Y-114935000D02*
X189865000Y-113665000D01*
X194310000Y-114935000D02*
X191135000Y-114935000D01*
X201295000Y-135890000D02*
X201295000Y-134620000D01*
X201295000Y-134620000D02*
X200660000Y-133985000D01*
X207645000Y-113665000D02*
X201930000Y-113665000D01*
X200660000Y-114935000D02*
X200660000Y-118745000D01*
X201930000Y-113665000D02*
X200660000Y-114935000D01*
X201295000Y-135890000D02*
X201295000Y-137795000D01*
X183515000Y-106045000D02*
X182245000Y-107315000D01*
X182245000Y-107315000D02*
X180975000Y-107315000D01*
X180975000Y-107315000D02*
X180340000Y-107950000D01*
X184785000Y-106045000D02*
X183515000Y-106045000D01*
X160655000Y-125730000D02*
X161925000Y-127000000D01*
X161925000Y-127000000D02*
X164465000Y-127000000D01*
X160655000Y-125730000D02*
X147955000Y-125730000D01*
X184785000Y-106045000D02*
X189865000Y-106045000D01*
X191135000Y-107315000D02*
X196215000Y-107315000D01*
X189865000Y-106045000D02*
X191135000Y-107315000D01*
X207645000Y-106045000D02*
X201930000Y-106045000D01*
X200025000Y-136525000D02*
X198755000Y-137795000D01*
X200025000Y-134620000D02*
X200025000Y-136525000D01*
X200025000Y-107315000D02*
X200025000Y-119380000D01*
X201295000Y-106045000D02*
X200025000Y-107315000D01*
X201930000Y-106045000D02*
X201295000Y-106045000D01*
X183515000Y-103505000D02*
X182245000Y-104775000D01*
X182245000Y-104775000D02*
X180340000Y-104775000D01*
X180340000Y-104775000D02*
X179705000Y-105410000D01*
X184785000Y-103505000D02*
X183515000Y-103505000D01*
X160655000Y-123190000D02*
X161925000Y-124460000D01*
X160655000Y-123190000D02*
X147955000Y-123190000D01*
X164465000Y-124460000D02*
X161925000Y-124460000D01*
X184785000Y-103505000D02*
X189865000Y-103505000D01*
X191135000Y-104775000D02*
X196850000Y-104775000D01*
X189865000Y-103505000D02*
X191135000Y-104775000D01*
X200660000Y-103505000D02*
X199390000Y-104775000D01*
X199390000Y-104775000D02*
X199390000Y-118745000D01*
X207645000Y-103505000D02*
X200660000Y-103505000D01*
X198120000Y-136525000D02*
X197485000Y-136525000D01*
X199390000Y-135255000D02*
X198120000Y-136525000D01*
X197485000Y-136525000D02*
X196215000Y-137795000D01*
X192405000Y-100965000D02*
X191770000Y-100965000D01*
X191770000Y-100965000D02*
X190500000Y-99695000D01*
X172085000Y-100965000D02*
X180340000Y-100965000D01*
X182245000Y-100965000D02*
X180340000Y-100965000D01*
X183515000Y-99695000D02*
X182245000Y-100965000D01*
X190500000Y-99695000D02*
X183515000Y-99695000D01*
X161925000Y-101600000D02*
X155575000Y-101600000D01*
X168275000Y-100965000D02*
X167640000Y-101600000D01*
X167640000Y-101600000D02*
X161925000Y-101600000D01*
X169545000Y-100965000D02*
X168275000Y-100965000D01*
X153670000Y-120650000D02*
X147955000Y-120650000D01*
X154305000Y-120015000D02*
X153670000Y-120650000D01*
X155575000Y-101600000D02*
X154940000Y-102235000D01*
X193675000Y-137795000D02*
X193675000Y-136525000D01*
X197485000Y-100965000D02*
X192405000Y-100965000D01*
X198755000Y-102235000D02*
X197485000Y-100965000D01*
X198755000Y-119380000D02*
X198755000Y-102235000D01*
X194945000Y-135255000D02*
X197485000Y-135255000D01*
X193675000Y-136525000D02*
X194945000Y-135255000D01*
X161925000Y-104140000D02*
X154940000Y-104140000D01*
X168275000Y-103505000D02*
X167640000Y-104140000D01*
X167640000Y-104140000D02*
X161925000Y-104140000D01*
X169545000Y-103505000D02*
X168275000Y-103505000D01*
X150495000Y-120015000D02*
X148590000Y-118110000D01*
X153035000Y-120015000D02*
X150495000Y-120015000D01*
X154940000Y-104140000D02*
X154305000Y-104775000D01*
X148590000Y-118110000D02*
X147955000Y-118110000D01*
X191135000Y-103505000D02*
X192405000Y-103505000D01*
X189865000Y-102235000D02*
X191135000Y-103505000D01*
X183515000Y-102235000D02*
X189865000Y-102235000D01*
X182245000Y-103505000D02*
X183515000Y-102235000D01*
X172720000Y-103505000D02*
X182245000Y-103505000D01*
X191135000Y-137795000D02*
X191135000Y-136525000D01*
X196850000Y-103505000D02*
X192405000Y-103505000D01*
X198120000Y-104775000D02*
X196850000Y-103505000D01*
X198120000Y-118745000D02*
X198120000Y-104775000D01*
X192405000Y-134620000D02*
X196850000Y-134620000D01*
X191135000Y-135890000D02*
X192405000Y-134620000D01*
X191135000Y-136525000D02*
X191135000Y-135890000D01*
X147955000Y-115570000D02*
X148590000Y-115570000D01*
X148590000Y-115570000D02*
X150495000Y-117475000D01*
X150495000Y-117475000D02*
X151130000Y-117475000D01*
X153670000Y-107315000D02*
X154305000Y-106680000D01*
X154305000Y-106680000D02*
X161925000Y-106680000D01*
X169545000Y-106045000D02*
X168275000Y-106045000D01*
X167640000Y-106680000D02*
X161925000Y-106680000D01*
X168275000Y-106045000D02*
X167640000Y-106680000D01*
X191135000Y-106045000D02*
X192405000Y-106045000D01*
X189865000Y-104775000D02*
X191135000Y-106045000D01*
X183515000Y-104775000D02*
X189865000Y-104775000D01*
X182245000Y-106045000D02*
X183515000Y-104775000D01*
X173355000Y-106045000D02*
X182245000Y-106045000D01*
X192405000Y-106045000D02*
X196215000Y-106045000D01*
X188595000Y-135255000D02*
X188595000Y-137795000D01*
X189865000Y-133985000D02*
X188595000Y-135255000D01*
X196215000Y-133985000D02*
X189865000Y-133985000D01*
X197485000Y-107315000D02*
X197485000Y-119380000D01*
X196215000Y-106045000D02*
X197485000Y-107315000D01*
X147955000Y-113030000D02*
X148590000Y-113030000D01*
X148590000Y-113030000D02*
X150495000Y-114935000D01*
X150495000Y-114935000D02*
X151765000Y-114935000D01*
X153035000Y-109855000D02*
X153670000Y-109220000D01*
X153670000Y-109220000D02*
X161925000Y-109220000D01*
X169545000Y-108585000D02*
X168275000Y-108585000D01*
X167640000Y-109220000D02*
X161925000Y-109220000D01*
X168275000Y-108585000D02*
X167640000Y-109220000D01*
X191135000Y-108585000D02*
X192405000Y-108585000D01*
X189865000Y-107315000D02*
X191135000Y-108585000D01*
X183515000Y-107315000D02*
X189865000Y-107315000D01*
X182245000Y-108585000D02*
X183515000Y-107315000D01*
X173990000Y-108585000D02*
X182245000Y-108585000D01*
X192405000Y-108585000D02*
X195580000Y-108585000D01*
X186055000Y-134620000D02*
X186055000Y-137795000D01*
X187325000Y-133350000D02*
X186055000Y-134620000D01*
X195580000Y-133350000D02*
X187325000Y-133350000D01*
X196850000Y-109855000D02*
X196850000Y-118745000D01*
X195580000Y-108585000D02*
X196850000Y-109855000D01*
X147955000Y-110490000D02*
X148590000Y-110490000D01*
X148590000Y-110490000D02*
X149860000Y-111760000D01*
X149860000Y-111760000D02*
X161925000Y-111760000D01*
X169545000Y-111125000D02*
X168275000Y-111125000D01*
X167640000Y-111760000D02*
X161925000Y-111760000D01*
X168275000Y-111125000D02*
X167640000Y-111760000D01*
X191135000Y-111125000D02*
X192405000Y-111125000D01*
X189865000Y-109855000D02*
X191135000Y-111125000D01*
X183515000Y-109855000D02*
X189865000Y-109855000D01*
X182245000Y-111125000D02*
X183515000Y-109855000D01*
X174625000Y-111125000D02*
X182245000Y-111125000D01*
X192405000Y-111125000D02*
X194945000Y-111125000D01*
X183515000Y-133985000D02*
X183515000Y-137795000D01*
X184785000Y-132715000D02*
X183515000Y-133985000D01*
X194945000Y-132715000D02*
X184785000Y-132715000D01*
X196215000Y-112395000D02*
X196215000Y-119380000D01*
X194945000Y-111125000D02*
X196215000Y-112395000D01*
X147955000Y-107950000D02*
X148590000Y-107950000D01*
X148590000Y-107950000D02*
X149860000Y-109220000D01*
X149860000Y-109220000D02*
X151130000Y-109220000D01*
X151130000Y-109220000D02*
X151765000Y-109855000D01*
X151765000Y-113665000D02*
X152400000Y-114300000D01*
X152400000Y-114300000D02*
X161925000Y-114300000D01*
X169545000Y-113665000D02*
X168275000Y-113665000D01*
X167640000Y-114300000D02*
X161925000Y-114300000D01*
X168275000Y-113665000D02*
X167640000Y-114300000D01*
X191135000Y-113665000D02*
X192405000Y-113665000D01*
X189865000Y-112395000D02*
X191135000Y-113665000D01*
X183515000Y-112395000D02*
X189865000Y-112395000D01*
X182245000Y-113665000D02*
X183515000Y-112395000D01*
X175260000Y-113665000D02*
X182245000Y-113665000D01*
X180975000Y-137795000D02*
X180975000Y-133350000D01*
X194310000Y-113665000D02*
X192405000Y-113665000D01*
X195580000Y-114935000D02*
X194310000Y-113665000D01*
X195580000Y-118745000D02*
X195580000Y-114935000D01*
X182245000Y-132080000D02*
X194310000Y-132080000D01*
X180975000Y-133350000D02*
X182245000Y-132080000D01*
X149860000Y-93980000D02*
X151130000Y-95250000D01*
X140335000Y-95250000D02*
X141605000Y-93980000D01*
X149860000Y-93980000D02*
X146685000Y-93980000D01*
X144780000Y-92075000D02*
X146685000Y-93980000D01*
X143510000Y-92075000D02*
X144780000Y-92075000D01*
X143510000Y-92075000D02*
X141605000Y-93980000D01*
X151130000Y-95250000D02*
X151130000Y-98425000D01*
X147955000Y-105410000D02*
X148590000Y-105410000D01*
X148590000Y-105410000D02*
X149860000Y-106680000D01*
X149860000Y-106680000D02*
X150495000Y-106680000D01*
X150495000Y-106680000D02*
X151130000Y-107315000D01*
X151130000Y-116205000D02*
X151765000Y-116840000D01*
X151765000Y-116840000D02*
X161925000Y-116840000D01*
X169545000Y-116205000D02*
X168275000Y-116205000D01*
X167640000Y-116840000D02*
X161925000Y-116840000D01*
X168275000Y-116205000D02*
X167640000Y-116840000D01*
X191135000Y-116205000D02*
X192405000Y-116205000D01*
X189865000Y-114935000D02*
X191135000Y-116205000D01*
X183515000Y-114935000D02*
X189865000Y-114935000D01*
X182245000Y-116205000D02*
X183515000Y-114935000D01*
X175895000Y-116205000D02*
X182245000Y-116205000D01*
X192405000Y-116205000D02*
X193675000Y-116205000D01*
X178435000Y-132715000D02*
X178435000Y-137795000D01*
X179705000Y-131445000D02*
X178435000Y-132715000D01*
X193675000Y-131445000D02*
X179705000Y-131445000D01*
X194945000Y-117475000D02*
X194945000Y-119380000D01*
X193675000Y-116205000D02*
X194945000Y-117475000D01*
X150495000Y-97790000D02*
X150495000Y-95885000D01*
X150495000Y-92710000D02*
X149225000Y-91440000D01*
X149225000Y-91440000D02*
X146050000Y-91440000D01*
X141605000Y-91440000D02*
X146050000Y-91440000D01*
X140335000Y-92710000D02*
X141605000Y-91440000D01*
X150495000Y-93345000D02*
X150495000Y-92710000D01*
X151765000Y-119380000D02*
X161925000Y-119380000D01*
X168275000Y-118745000D02*
X169545000Y-118745000D01*
X167640000Y-119380000D02*
X161925000Y-119380000D01*
X168275000Y-118745000D02*
X167640000Y-119380000D01*
X191135000Y-118745000D02*
X192405000Y-118745000D01*
X189865000Y-117475000D02*
X191135000Y-118745000D01*
X178435000Y-117475000D02*
X189865000Y-117475000D01*
X177800000Y-118110000D02*
X178435000Y-117475000D01*
X175895000Y-137795000D02*
X175895000Y-132080000D01*
X177165000Y-130810000D02*
X193040000Y-130810000D01*
X175895000Y-132080000D02*
X177165000Y-130810000D01*
X163195000Y-85090000D02*
X163830000Y-85090000D01*
X163830000Y-85090000D02*
X165735000Y-83185000D01*
X204470000Y-76835000D02*
X207645000Y-76835000D01*
X203200000Y-78105000D02*
X204470000Y-76835000D01*
X181610000Y-80645000D02*
X186055000Y-80645000D01*
X179070000Y-83185000D02*
X181610000Y-80645000D01*
X165735000Y-83185000D02*
X174625000Y-83185000D01*
X161290000Y-86360000D02*
X161290000Y-85725000D01*
X161290000Y-93345000D02*
X161290000Y-86360000D01*
X159385000Y-95250000D02*
X161290000Y-93345000D01*
X161925000Y-85090000D02*
X163195000Y-85090000D01*
X161290000Y-85725000D02*
X161925000Y-85090000D01*
X140335000Y-120650000D02*
X145415000Y-120650000D01*
X146685000Y-121920000D02*
X159385000Y-121920000D01*
X145415000Y-120650000D02*
X146685000Y-121920000D01*
X168275000Y-137795000D02*
X168275000Y-136525000D01*
X160655000Y-133350000D02*
X159385000Y-132080000D01*
X165100000Y-133350000D02*
X160655000Y-133350000D01*
X168275000Y-136525000D02*
X165100000Y-133350000D01*
X162560000Y-64135000D02*
X161290000Y-62865000D01*
X161290000Y-60325000D02*
X161290000Y-62865000D01*
X167640000Y-79375000D02*
X166370000Y-80645000D01*
X167640000Y-79375000D02*
X167640000Y-71120000D01*
X163195000Y-64770000D02*
X162560000Y-64135000D01*
X163195000Y-65405000D02*
X163195000Y-64770000D01*
X163195000Y-82550000D02*
X164465000Y-82550000D01*
X179070000Y-80645000D02*
X180340000Y-79375000D01*
X180340000Y-79375000D02*
X184785000Y-79375000D01*
X166370000Y-80645000D02*
X168275000Y-80645000D01*
X164465000Y-82550000D02*
X166370000Y-80645000D01*
X158750000Y-93980000D02*
X160655000Y-92075000D01*
X160655000Y-83820000D02*
X161925000Y-82550000D01*
X160655000Y-92075000D02*
X160655000Y-83820000D01*
X158750000Y-93980000D02*
X158115000Y-94615000D01*
X156210000Y-96520000D02*
X158115000Y-94615000D01*
X147320000Y-96520000D02*
X149225000Y-96520000D01*
X145415000Y-97790000D02*
X146050000Y-97790000D01*
X146050000Y-97790000D02*
X147320000Y-96520000D01*
X145415000Y-97790000D02*
X140335000Y-97790000D01*
X151765000Y-96520000D02*
X156210000Y-96520000D01*
X163195000Y-82550000D02*
X161925000Y-82550000D01*
X162560000Y-133985000D02*
X165735000Y-137160000D01*
X162560000Y-133985000D02*
X160020000Y-133985000D01*
X160020000Y-133985000D02*
X158750000Y-132715000D01*
X158750000Y-132715000D02*
X158750000Y-131445000D01*
X165735000Y-137795000D02*
X165735000Y-137160000D01*
X151130000Y-88900000D02*
X151130000Y-81915000D01*
X156845000Y-94615000D02*
X151130000Y-88900000D01*
X128270000Y-61595000D02*
X125095000Y-58420000D01*
X147955000Y-73660000D02*
X151130000Y-76835000D01*
X147955000Y-71755000D02*
X147955000Y-73660000D01*
X145415000Y-69215000D02*
X147955000Y-71755000D01*
X145415000Y-63500000D02*
X145415000Y-69215000D01*
X143510000Y-61595000D02*
X145415000Y-63500000D01*
X128270000Y-61595000D02*
X143510000Y-61595000D01*
X151130000Y-78105000D02*
X151130000Y-76835000D01*
X161925000Y-94615000D02*
X161925000Y-91440000D01*
X158115000Y-95885000D02*
X160655000Y-95885000D01*
X160655000Y-95885000D02*
X161925000Y-94615000D01*
X163195000Y-90170000D02*
X161925000Y-91440000D01*
X160655000Y-134620000D02*
X163195000Y-137160000D01*
X160655000Y-134620000D02*
X158115000Y-134620000D01*
X158115000Y-134620000D02*
X156845000Y-133350000D01*
X156845000Y-133350000D02*
X156845000Y-132080000D01*
X156845000Y-97155000D02*
X158115000Y-95885000D01*
X163195000Y-137795000D02*
X163195000Y-137160000D01*
X137795000Y-114300000D02*
X138430000Y-114300000D01*
X138430000Y-114300000D02*
X144145000Y-114300000D01*
X160655000Y-136525000D02*
X159385000Y-135255000D01*
X160655000Y-136525000D02*
X160655000Y-137795000D01*
X138430000Y-93980000D02*
X138430000Y-90170000D01*
X138430000Y-99060000D02*
X138430000Y-93980000D01*
X137795000Y-99695000D02*
X138430000Y-99060000D01*
X146685000Y-90170000D02*
X147955000Y-90170000D01*
X145415000Y-88900000D02*
X146685000Y-90170000D01*
X139700000Y-88900000D02*
X145415000Y-88900000D01*
X138430000Y-90170000D02*
X139700000Y-88900000D01*
X163195000Y-97790000D02*
X164465000Y-97790000D01*
X167640000Y-94615000D02*
X168910000Y-93345000D01*
X164465000Y-97790000D02*
X167640000Y-94615000D01*
X206375000Y-85725000D02*
X206375000Y-83185000D01*
X206375000Y-83185000D02*
X207645000Y-81915000D01*
X163195000Y-97790000D02*
X163830000Y-97790000D01*
X206375000Y-85725000D02*
X207645000Y-84455000D01*
X206375000Y-88265000D02*
X206375000Y-85725000D01*
X168910000Y-93345000D02*
X188595000Y-93345000D01*
X188595000Y-93345000D02*
X189865000Y-92075000D01*
X189865000Y-92075000D02*
X189865000Y-90170000D01*
X189865000Y-90170000D02*
X190500000Y-89535000D01*
X190500000Y-89535000D02*
X205105000Y-89535000D01*
X205105000Y-89535000D02*
X206375000Y-88265000D01*
X155575000Y-134620000D02*
X155575000Y-132080000D01*
X157480000Y-97790000D02*
X163195000Y-97790000D01*
X156210000Y-99060000D02*
X157480000Y-97790000D01*
X156210000Y-99695000D02*
X156210000Y-99060000D01*
X155575000Y-132080000D02*
X156210000Y-131445000D01*
X155575000Y-136525000D02*
X155575000Y-137795000D01*
X155575000Y-136525000D02*
X155575000Y-134620000D01*
X144145000Y-117475000D02*
X142875000Y-117475000D01*
X139065000Y-119380000D02*
X137160000Y-119380000D01*
X140970000Y-119380000D02*
X139065000Y-119380000D01*
X142875000Y-117475000D02*
X140970000Y-119380000D01*
X153035000Y-136525000D02*
X153035000Y-137795000D01*
X153035000Y-136525000D02*
X151765000Y-135255000D01*
X137795000Y-93980000D02*
X137795000Y-87630000D01*
X137795000Y-87630000D02*
X139065000Y-86360000D01*
X139065000Y-86360000D02*
X145415000Y-86360000D01*
X145415000Y-86360000D02*
X146685000Y-85090000D01*
X147955000Y-85090000D02*
X146685000Y-85090000D01*
X137160000Y-99060000D02*
X137795000Y-98425000D01*
X137795000Y-98425000D02*
X137795000Y-93980000D01*
X144145000Y-117475000D02*
X143510000Y-117475000D01*
X147955000Y-97790000D02*
X148590000Y-97790000D01*
X148590000Y-97790000D02*
X149860000Y-99060000D01*
X149860000Y-99060000D02*
X154940000Y-99060000D01*
X154940000Y-131445000D02*
X151765000Y-131445000D01*
X151765000Y-131445000D02*
X150495000Y-132715000D01*
X150495000Y-132715000D02*
X150495000Y-137795000D01*
X161925000Y-100330000D02*
X149860000Y-100330000D01*
X141605000Y-100330000D02*
X142875000Y-99060000D01*
X163195000Y-100330000D02*
X161925000Y-100330000D01*
X141605000Y-100330000D02*
X140335000Y-100330000D01*
X148590000Y-99060000D02*
X142875000Y-99060000D01*
X149860000Y-100330000D02*
X148590000Y-99060000D01*
X192405000Y-121285000D02*
X191135000Y-121285000D01*
X189865000Y-120015000D02*
X176530000Y-120015000D01*
X191135000Y-121285000D02*
X189865000Y-120015000D01*
X168275000Y-99695000D02*
X170815000Y-99695000D01*
X167640000Y-100330000D02*
X168275000Y-99695000D01*
X163195000Y-100330000D02*
X167005000Y-100330000D01*
X167005000Y-100330000D02*
X167640000Y-100330000D01*
X171450000Y-120015000D02*
X170180000Y-121285000D01*
X171450000Y-100330000D02*
X171450000Y-120015000D01*
X170815000Y-99695000D02*
X171450000Y-100330000D01*
X170180000Y-121285000D02*
X169545000Y-121285000D01*
X134620000Y-121285000D02*
X134620000Y-101600000D01*
X134620000Y-101600000D02*
X135890000Y-100330000D01*
X135890000Y-100330000D02*
X140335000Y-100330000D01*
X137160000Y-132715000D02*
X136525000Y-132715000D01*
X147955000Y-136525000D02*
X144145000Y-132715000D01*
X144145000Y-132715000D02*
X137160000Y-132715000D01*
X147955000Y-137795000D02*
X147955000Y-136525000D01*
X134620000Y-130810000D02*
X134620000Y-121285000D01*
X136525000Y-132715000D02*
X134620000Y-130810000D01*
X161925000Y-102870000D02*
X149860000Y-102870000D01*
X163195000Y-102870000D02*
X161925000Y-102870000D01*
X145415000Y-102870000D02*
X146685000Y-101600000D01*
X145415000Y-102870000D02*
X140335000Y-102870000D01*
X148590000Y-101600000D02*
X146685000Y-101600000D01*
X149860000Y-102870000D02*
X148590000Y-101600000D01*
X172085000Y-103505000D02*
X172085000Y-102870000D01*
X172085000Y-122555000D02*
X172085000Y-103505000D01*
X167640000Y-102870000D02*
X168275000Y-102235000D01*
X166370000Y-102870000D02*
X163195000Y-102870000D01*
X166370000Y-102870000D02*
X167640000Y-102870000D01*
X168275000Y-102235000D02*
X170815000Y-102235000D01*
X176530000Y-122555000D02*
X175895000Y-122555000D01*
X191135000Y-123825000D02*
X189865000Y-122555000D01*
X189865000Y-122555000D02*
X176530000Y-122555000D01*
X192405000Y-123825000D02*
X191135000Y-123825000D01*
X170815000Y-123825000D02*
X169545000Y-123825000D01*
X172085000Y-122555000D02*
X170815000Y-123825000D01*
X133985000Y-121285000D02*
X133985000Y-104140000D01*
X135255000Y-102870000D02*
X140335000Y-102870000D01*
X136525000Y-133350000D02*
X135890000Y-133350000D01*
X145415000Y-136525000D02*
X142240000Y-133350000D01*
X142240000Y-133350000D02*
X136525000Y-133350000D01*
X145415000Y-137795000D02*
X145415000Y-136525000D01*
X133985000Y-131445000D02*
X133985000Y-121285000D01*
X135890000Y-133350000D02*
X133985000Y-131445000D01*
X161925000Y-105410000D02*
X149860000Y-105410000D01*
X145415000Y-105410000D02*
X146685000Y-104140000D01*
X163195000Y-105410000D02*
X161925000Y-105410000D01*
X145415000Y-105410000D02*
X140335000Y-105410000D01*
X148590000Y-104140000D02*
X146685000Y-104140000D01*
X149860000Y-105410000D02*
X148590000Y-104140000D01*
X192405000Y-126365000D02*
X191135000Y-126365000D01*
X189865000Y-125095000D02*
X175260000Y-125095000D01*
X191135000Y-126365000D02*
X189865000Y-125095000D01*
X172720000Y-117475000D02*
X172720000Y-125095000D01*
X168275000Y-104775000D02*
X170815000Y-104775000D01*
X167640000Y-105410000D02*
X168275000Y-104775000D01*
X163195000Y-105410000D02*
X165735000Y-105410000D01*
X165735000Y-105410000D02*
X167640000Y-105410000D01*
X172720000Y-117475000D02*
X172720000Y-105410000D01*
X171450000Y-126365000D02*
X169545000Y-126365000D01*
X172720000Y-125095000D02*
X171450000Y-126365000D01*
X133350000Y-121285000D02*
X133350000Y-106680000D01*
X135255000Y-105410000D02*
X140335000Y-105410000D01*
X142875000Y-137795000D02*
X142875000Y-136525000D01*
X133350000Y-132264998D02*
X133350000Y-121285000D01*
X135070002Y-133985000D02*
X133350000Y-132264998D01*
X140335000Y-133985000D02*
X135070002Y-133985000D01*
X142875000Y-136525000D02*
X140335000Y-133985000D01*
X161925000Y-107950000D02*
X149860000Y-107950000D01*
X145415000Y-107950000D02*
X146685000Y-106680000D01*
X163195000Y-107950000D02*
X161925000Y-107950000D01*
X145415000Y-107950000D02*
X140335000Y-107950000D01*
X148590000Y-106680000D02*
X146685000Y-106680000D01*
X149860000Y-107950000D02*
X148590000Y-106680000D01*
X184785000Y-128905000D02*
X189865000Y-128905000D01*
X206375000Y-128905000D02*
X207645000Y-128905000D01*
X205105000Y-130175000D02*
X206375000Y-128905000D01*
X191135000Y-130175000D02*
X205105000Y-130175000D01*
X189865000Y-128905000D02*
X191135000Y-130175000D01*
X173355000Y-117475000D02*
X173355000Y-127635000D01*
X163195000Y-107950000D02*
X167640000Y-107950000D01*
X167640000Y-107950000D02*
X168275000Y-107315000D01*
X168275000Y-107315000D02*
X170815000Y-107315000D01*
X173355000Y-117475000D02*
X173355000Y-107950000D01*
X174625000Y-128905000D02*
X184785000Y-128905000D01*
X173355000Y-127635000D02*
X174625000Y-128905000D01*
X132715000Y-121285000D02*
X132715000Y-109220000D01*
X135255000Y-107950000D02*
X140335000Y-107950000D01*
X140335000Y-137795000D02*
X140335000Y-136525000D01*
X132715000Y-132715000D02*
X132715000Y-121285000D01*
X134620000Y-134620000D02*
X132715000Y-132715000D01*
X138430000Y-134620000D02*
X134620000Y-134620000D01*
X140335000Y-136525000D02*
X138430000Y-134620000D01*
X161925000Y-110490000D02*
X149860000Y-110490000D01*
X145415000Y-110490000D02*
X146685000Y-109220000D01*
X163195000Y-110490000D02*
X161925000Y-110490000D01*
X145415000Y-110490000D02*
X140335000Y-110490000D01*
X148590000Y-109220000D02*
X146685000Y-109220000D01*
X149860000Y-110490000D02*
X148590000Y-109220000D01*
X184785000Y-126365000D02*
X189865000Y-126365000D01*
X206375000Y-126365000D02*
X207645000Y-126365000D01*
X205105000Y-127635000D02*
X206375000Y-126365000D01*
X191135000Y-127635000D02*
X205105000Y-127635000D01*
X189865000Y-126365000D02*
X191135000Y-127635000D01*
X173990000Y-117475000D02*
X173990000Y-125095000D01*
X168275000Y-109855000D02*
X170815000Y-109855000D01*
X167640000Y-110490000D02*
X168275000Y-109855000D01*
X163195000Y-110490000D02*
X167640000Y-110490000D01*
X173990000Y-117475000D02*
X173990000Y-110490000D01*
X175260000Y-126365000D02*
X184785000Y-126365000D01*
X173990000Y-125095000D02*
X175260000Y-126365000D01*
X132080000Y-121285000D02*
X132080000Y-111760000D01*
X135255000Y-110490000D02*
X140335000Y-110490000D01*
X137795000Y-137795000D02*
X137795000Y-136525000D01*
X132080000Y-133350000D02*
X132080000Y-121285000D01*
X133985000Y-135255000D02*
X132080000Y-133350000D01*
X136525000Y-135255000D02*
X133985000Y-135255000D01*
X137795000Y-136525000D02*
X136525000Y-135255000D01*
X161925000Y-113030000D02*
X149860000Y-113030000D01*
X145415000Y-113030000D02*
X146685000Y-111760000D01*
X163195000Y-113030000D02*
X161925000Y-113030000D01*
X145415000Y-113030000D02*
X140335000Y-113030000D01*
X148590000Y-111760000D02*
X146685000Y-111760000D01*
X149860000Y-113030000D02*
X148590000Y-111760000D01*
X184785000Y-123825000D02*
X189865000Y-123825000D01*
X206375000Y-123825000D02*
X207645000Y-123825000D01*
X205105000Y-125095000D02*
X206375000Y-123825000D01*
X191135000Y-125095000D02*
X205105000Y-125095000D01*
X189865000Y-123825000D02*
X191135000Y-125095000D01*
X174625000Y-117475000D02*
X174625000Y-122555000D01*
X168275000Y-112395000D02*
X170815000Y-112395000D01*
X167640000Y-113030000D02*
X168275000Y-112395000D01*
X163195000Y-113030000D02*
X167640000Y-113030000D01*
X174625000Y-117475000D02*
X174625000Y-113030000D01*
X175895000Y-123825000D02*
X184785000Y-123825000D01*
X174625000Y-122555000D02*
X175895000Y-123825000D01*
X135255000Y-113030000D02*
X140335000Y-113030000D01*
X131445000Y-121285000D02*
X131445000Y-114300000D01*
X135255000Y-136525000D02*
X134620000Y-135890000D01*
X134620000Y-135890000D02*
X133350000Y-135890000D01*
X133350000Y-135890000D02*
X131445000Y-133985000D01*
X131445000Y-133985000D02*
X131445000Y-121285000D01*
X135255000Y-137795000D02*
X135255000Y-136525000D01*
X161925000Y-115570000D02*
X149860000Y-115570000D01*
X145415000Y-115570000D02*
X146685000Y-114300000D01*
X163195000Y-115570000D02*
X161925000Y-115570000D01*
X145415000Y-115570000D02*
X140335000Y-115570000D01*
X148590000Y-114300000D02*
X146685000Y-114300000D01*
X149860000Y-115570000D02*
X148590000Y-114300000D01*
X184785000Y-121285000D02*
X189865000Y-121285000D01*
X206375000Y-121285000D02*
X207645000Y-121285000D01*
X205105000Y-122555000D02*
X206375000Y-121285000D01*
X191135000Y-122555000D02*
X205105000Y-122555000D01*
X189865000Y-121285000D02*
X191135000Y-122555000D01*
X175260000Y-117475000D02*
X175260000Y-120015000D01*
X168275000Y-114935000D02*
X170815000Y-114935000D01*
X167640000Y-115570000D02*
X168275000Y-114935000D01*
X163195000Y-115570000D02*
X167640000Y-115570000D01*
X175260000Y-117475000D02*
X175260000Y-115570000D01*
X176530000Y-121285000D02*
X184785000Y-121285000D01*
X175260000Y-120015000D02*
X176530000Y-121285000D01*
X130810000Y-134620000D02*
X130810000Y-117475000D01*
X130810000Y-117475000D02*
X130810000Y-116840000D01*
X135255000Y-115570000D02*
X140335000Y-115570000D01*
X132715000Y-137795000D02*
X132715000Y-136525000D01*
X132715000Y-136525000D02*
X130810000Y-134620000D01*
X161925000Y-118110000D02*
X149860000Y-118110000D01*
X142875000Y-116205000D02*
X146050000Y-116205000D01*
X146050000Y-116205000D02*
X146685000Y-116840000D01*
X163195000Y-118110000D02*
X161925000Y-118110000D01*
X142875000Y-116205000D02*
X140970000Y-118110000D01*
X148590000Y-116840000D02*
X146685000Y-116840000D01*
X149860000Y-118110000D02*
X148590000Y-116840000D01*
X184785000Y-118745000D02*
X189865000Y-118745000D01*
X206375000Y-118745000D02*
X207645000Y-118745000D01*
X205105000Y-120015000D02*
X206375000Y-118745000D01*
X191135000Y-120015000D02*
X205105000Y-120015000D01*
X189865000Y-118745000D02*
X191135000Y-120015000D01*
X175895000Y-118110000D02*
X176530000Y-118745000D01*
X163195000Y-118110000D02*
X167640000Y-118110000D01*
X167640000Y-118110000D02*
X168275000Y-117475000D01*
X168275000Y-117475000D02*
X170815000Y-117475000D01*
X176530000Y-118745000D02*
X184785000Y-118745000D01*
X140335000Y-118110000D02*
X140970000Y-118110000D01*
X130175000Y-137795000D02*
X130175000Y-119380000D01*
X135255000Y-118110000D02*
X140335000Y-118110000D01*
X122555000Y-137795000D02*
X122555000Y-136525000D01*
X141605000Y-96520000D02*
X144145000Y-93980000D01*
X139065000Y-96520000D02*
X141605000Y-96520000D01*
X122555000Y-136525000D02*
X123825000Y-135255000D01*
X144145000Y-93980000D02*
X145415000Y-93980000D01*
X145415000Y-93980000D02*
X146685000Y-95250000D01*
X146685000Y-95250000D02*
X147955000Y-95250000D01*
X122555000Y-137795000D02*
X122555000Y-137160000D01*
X204470000Y-100965000D02*
X200660000Y-97155000D01*
X198120000Y-94615000D02*
X196215000Y-94615000D01*
X196215000Y-94615000D02*
X194945000Y-93345000D01*
X194945000Y-92075000D02*
X194945000Y-93345000D01*
X205740000Y-100965000D02*
X207645000Y-100965000D01*
X205740000Y-100965000D02*
X204470000Y-100965000D01*
X205105000Y-92075000D02*
X205105000Y-93980000D01*
X197485000Y-95885000D02*
X192405000Y-95885000D01*
X197485000Y-95885000D02*
X201930000Y-95885000D01*
X192405000Y-95885000D02*
X193040000Y-95885000D01*
X211455000Y-104140000D02*
X210820000Y-104140000D01*
X210820000Y-104140000D02*
X209550000Y-102870000D01*
X209550000Y-102870000D02*
X209550000Y-99695000D01*
X209550000Y-99695000D02*
X208280000Y-98425000D01*
X208280000Y-98425000D02*
X207645000Y-98425000D01*
X140335000Y-125730000D02*
X142240000Y-127635000D01*
X142240000Y-128905000D02*
X143510000Y-130175000D01*
X142240000Y-127635000D02*
X142240000Y-128905000D01*
X175895000Y-88265000D02*
X177165000Y-86995000D01*
X165100000Y-88265000D02*
X175895000Y-88265000D01*
X164465000Y-88900000D02*
X165100000Y-88265000D01*
X213995000Y-76835000D02*
X213995000Y-74295000D01*
X212725000Y-111125000D02*
X213995000Y-109855000D01*
X213995000Y-109855000D02*
X213995000Y-96520000D01*
X213995000Y-95250000D02*
X213995000Y-76835000D01*
X207645000Y-111125000D02*
X212725000Y-111125000D01*
X213995000Y-74295000D02*
X212725000Y-73025000D01*
X201295000Y-75565000D02*
X203835000Y-73025000D01*
X201295000Y-75565000D02*
X200025000Y-76835000D01*
X203835000Y-73025000D02*
X212725000Y-73025000D01*
X201930000Y-79375000D02*
X201930000Y-76200000D01*
X200660000Y-84455000D02*
X201930000Y-83185000D01*
X201930000Y-79375000D02*
X201930000Y-83185000D01*
X200660000Y-84455000D02*
X200025000Y-84455000D01*
X200025000Y-71755000D02*
X200025000Y-74295000D01*
X127000000Y-78105000D02*
X127000000Y-74930000D01*
X125730000Y-85090000D02*
X127000000Y-83820000D01*
X127000000Y-83820000D02*
X127000000Y-81280000D01*
X124460000Y-74295000D02*
X123825000Y-73660000D01*
X126365000Y-74295000D02*
X124460000Y-74295000D01*
X127000000Y-74930000D02*
X126365000Y-74295000D01*
X123825000Y-73660000D02*
X123825000Y-73025000D01*
X125095000Y-85090000D02*
X125730000Y-85090000D01*
X127635000Y-77470000D02*
X127635000Y-74295000D01*
X125095000Y-87630000D02*
X127000000Y-85725000D01*
X127000000Y-85725000D02*
X127635000Y-85090000D01*
X127635000Y-85090000D02*
X127635000Y-81915000D01*
X127635000Y-74295000D02*
X126365000Y-73025000D01*
X128270000Y-78105000D02*
X128270000Y-74295000D01*
X128270000Y-87630000D02*
X128270000Y-81280000D01*
X125730000Y-90170000D02*
X128270000Y-87630000D01*
X128270000Y-74295000D02*
X128905000Y-73660000D01*
X128905000Y-73660000D02*
X128905000Y-73025000D01*
X125095000Y-90170000D02*
X125730000Y-90170000D01*
X128905000Y-77470000D02*
X128905000Y-74930000D01*
X128905000Y-89535000D02*
X128905000Y-88900000D01*
X125730000Y-92710000D02*
X127635000Y-90805000D01*
X128905000Y-81915000D02*
X128905000Y-88900000D01*
X127635000Y-90805000D02*
X128905000Y-89535000D01*
X130810000Y-74295000D02*
X131445000Y-73660000D01*
X129540000Y-74295000D02*
X130810000Y-74295000D01*
X128905000Y-74930000D02*
X129540000Y-74295000D01*
X131445000Y-73660000D02*
X131445000Y-73025000D01*
X125095000Y-92710000D02*
X125730000Y-92710000D01*
X130175000Y-74930000D02*
X130810000Y-74930000D01*
X129540000Y-75565000D02*
X130175000Y-74930000D01*
X128270000Y-91440000D02*
X129540000Y-90170000D01*
X126365000Y-93345000D02*
X128270000Y-91440000D01*
X125095000Y-95250000D02*
X126365000Y-93980000D01*
X126365000Y-93980000D02*
X126365000Y-93345000D01*
X129540000Y-90170000D02*
X129540000Y-81280000D01*
X129540000Y-78105000D02*
X129540000Y-75565000D01*
X132715000Y-74295000D02*
X133985000Y-73025000D01*
X132080000Y-74295000D02*
X132715000Y-74295000D01*
X131445000Y-74930000D02*
X132080000Y-74295000D01*
X130810000Y-74930000D02*
X131445000Y-74930000D01*
X130810000Y-75565000D02*
X132080000Y-75565000D01*
X130175000Y-76200000D02*
X130810000Y-75565000D01*
X128905000Y-92075000D02*
X130175000Y-90805000D01*
X127000000Y-93980000D02*
X128905000Y-92075000D01*
X125095000Y-97790000D02*
X127000000Y-95885000D01*
X127000000Y-95885000D02*
X127000000Y-94615000D01*
X127000000Y-94615000D02*
X127000000Y-93980000D01*
X130175000Y-90805000D02*
X130175000Y-81915000D01*
X130175000Y-77470000D02*
X130175000Y-76200000D01*
X135890000Y-74295000D02*
X136525000Y-73660000D01*
X133985000Y-74295000D02*
X135890000Y-74295000D01*
X133350000Y-74930000D02*
X133985000Y-74295000D01*
X132715000Y-74930000D02*
X133350000Y-74930000D01*
X132080000Y-75565000D02*
X132715000Y-74930000D01*
X136525000Y-73660000D02*
X136525000Y-73025000D01*
X130810000Y-78105000D02*
X130810000Y-76835000D01*
X130810000Y-91440000D02*
X130810000Y-81280000D01*
X127000000Y-97155000D02*
X127635000Y-96520000D01*
X127000000Y-99060000D02*
X127000000Y-97155000D01*
X125730000Y-100330000D02*
X127000000Y-99060000D01*
X127635000Y-94615000D02*
X129540000Y-92710000D01*
X127635000Y-96520000D02*
X127635000Y-94615000D01*
X129540000Y-92710000D02*
X130810000Y-91440000D01*
X138430000Y-74295000D02*
X139065000Y-73660000D01*
X137160000Y-74295000D02*
X138430000Y-74295000D01*
X136525000Y-74930000D02*
X137160000Y-74295000D01*
X134620000Y-74930000D02*
X136525000Y-74930000D01*
X133985000Y-75565000D02*
X134620000Y-74930000D01*
X133350000Y-75565000D02*
X133985000Y-75565000D01*
X132715000Y-76200000D02*
X133350000Y-75565000D01*
X131445000Y-76200000D02*
X132715000Y-76200000D01*
X130810000Y-76835000D02*
X131445000Y-76200000D01*
X139065000Y-73660000D02*
X139065000Y-73025000D01*
X125095000Y-100330000D02*
X125730000Y-100330000D01*
X131445000Y-77470000D02*
X132080000Y-76835000D01*
X131445000Y-92075000D02*
X131445000Y-81915000D01*
X128270000Y-95885000D02*
X128270000Y-95250000D01*
X127635000Y-97790000D02*
X128270000Y-97155000D01*
X128270000Y-97155000D02*
X128270000Y-95885000D01*
X127000000Y-100965000D02*
X127000000Y-100330000D01*
X127000000Y-101600000D02*
X127000000Y-100965000D01*
X125730000Y-102870000D02*
X127000000Y-101600000D01*
X127635000Y-99695000D02*
X127635000Y-99060000D01*
X127000000Y-100330000D02*
X127635000Y-99695000D01*
X127635000Y-99060000D02*
X127635000Y-97790000D01*
X128270000Y-95250000D02*
X130175000Y-93345000D01*
X130175000Y-93345000D02*
X131445000Y-92075000D01*
X140970000Y-74295000D02*
X141605000Y-73660000D01*
X139700000Y-74295000D02*
X140970000Y-74295000D01*
X139065000Y-74930000D02*
X139700000Y-74295000D01*
X137795000Y-74930000D02*
X139065000Y-74930000D01*
X137160000Y-75565000D02*
X137795000Y-74930000D01*
X135255000Y-75565000D02*
X137160000Y-75565000D01*
X134620000Y-76200000D02*
X135255000Y-75565000D01*
X133985000Y-76200000D02*
X134620000Y-76200000D01*
X133350000Y-76835000D02*
X133985000Y-76200000D01*
X132080000Y-76835000D02*
X133350000Y-76835000D01*
X141605000Y-73660000D02*
X141605000Y-73025000D01*
X125095000Y-102870000D02*
X125730000Y-102870000D01*
X141605000Y-64135000D02*
X141605000Y-65405000D01*
X140335000Y-62865000D02*
X141605000Y-64135000D01*
X131445000Y-62865000D02*
X140335000Y-62865000D01*
X130175000Y-64135000D02*
X131445000Y-62865000D01*
X130175000Y-64770000D02*
X130175000Y-64135000D01*
X130175000Y-69215000D02*
X130175000Y-64770000D01*
X132080000Y-92710000D02*
X132080000Y-81280000D01*
X128270000Y-99060000D02*
X128270000Y-98425000D01*
X125095000Y-105410000D02*
X127635000Y-102870000D01*
X127635000Y-100965000D02*
X128270000Y-100330000D01*
X127635000Y-102870000D02*
X127635000Y-100965000D01*
X128270000Y-99060000D02*
X128270000Y-100330000D01*
X128905000Y-95885000D02*
X130810000Y-93980000D01*
X128905000Y-97790000D02*
X128905000Y-95885000D01*
X128270000Y-98425000D02*
X128905000Y-97790000D01*
X130810000Y-93980000D02*
X132080000Y-92710000D01*
X137795000Y-63500000D02*
X139065000Y-64770000D01*
X133985000Y-63500000D02*
X137795000Y-63500000D01*
X132715000Y-64770000D02*
X133985000Y-63500000D01*
X132715000Y-68580000D02*
X132715000Y-64770000D01*
X139065000Y-64770000D02*
X139065000Y-65405000D01*
X132715000Y-93345000D02*
X132715000Y-81915000D01*
X131445000Y-94615000D02*
X132715000Y-93345000D01*
X129540000Y-96520000D02*
X131445000Y-94615000D01*
X128270000Y-103505000D02*
X128270000Y-101600000D01*
X127635000Y-104140000D02*
X128270000Y-103505000D01*
X127635000Y-106045000D02*
X127635000Y-104140000D01*
X125730000Y-107950000D02*
X127635000Y-106045000D01*
X129540000Y-98425000D02*
X129540000Y-97155000D01*
X128905000Y-99060000D02*
X129540000Y-98425000D01*
X128905000Y-100965000D02*
X128905000Y-99060000D01*
X128270000Y-101600000D02*
X128905000Y-100965000D01*
X129540000Y-97155000D02*
X129540000Y-96520000D01*
X125095000Y-107950000D02*
X125730000Y-107950000D01*
X133350000Y-93980000D02*
X133350000Y-81280000D01*
X128905000Y-104140000D02*
X128905000Y-102235000D01*
X126365000Y-110490000D02*
X127635000Y-109220000D01*
X127635000Y-109220000D02*
X127635000Y-107315000D01*
X127635000Y-107315000D02*
X128270000Y-106680000D01*
X128270000Y-106680000D02*
X128270000Y-104775000D01*
X128270000Y-104775000D02*
X128905000Y-104140000D01*
X125095000Y-110490000D02*
X126365000Y-110490000D01*
X130175000Y-97155000D02*
X132080000Y-95250000D01*
X130175000Y-99060000D02*
X130175000Y-97155000D01*
X129540000Y-99695000D02*
X130175000Y-99060000D01*
X129540000Y-101600000D02*
X129540000Y-99695000D01*
X128905000Y-102235000D02*
X129540000Y-101600000D01*
X132080000Y-95250000D02*
X133350000Y-93980000D01*
X135255000Y-66675000D02*
X136525000Y-65405000D01*
X135255000Y-67945000D02*
X135255000Y-66675000D01*
X133985000Y-81915000D02*
X133985000Y-94615000D01*
X130175000Y-102235000D02*
X130175000Y-100330000D01*
X127000000Y-113030000D02*
X127635000Y-112395000D01*
X127635000Y-112395000D02*
X127635000Y-110490000D01*
X127635000Y-110490000D02*
X128270000Y-109855000D01*
X128270000Y-109855000D02*
X128270000Y-107950000D01*
X128270000Y-107950000D02*
X128905000Y-107315000D01*
X128905000Y-107315000D02*
X128905000Y-105410000D01*
X128905000Y-105410000D02*
X129540000Y-104775000D01*
X129540000Y-104775000D02*
X129540000Y-102870000D01*
X125095000Y-113030000D02*
X127000000Y-113030000D01*
X129540000Y-102870000D02*
X130175000Y-102235000D01*
X130810000Y-97790000D02*
X132715000Y-95885000D01*
X130810000Y-99695000D02*
X130810000Y-97790000D01*
X130175000Y-100330000D02*
X130810000Y-99695000D01*
X132715000Y-95885000D02*
X133985000Y-94615000D01*
X133985000Y-67945000D02*
X133985000Y-65405000D01*
X135255000Y-69215000D02*
X133985000Y-67945000D01*
X137160000Y-69215000D02*
X135255000Y-69215000D01*
X133350000Y-96520000D02*
X134620000Y-95250000D01*
X131445000Y-98425000D02*
X133350000Y-96520000D01*
X130175000Y-103505000D02*
X130810000Y-102870000D01*
X130810000Y-100965000D02*
X131445000Y-100330000D01*
X130810000Y-102870000D02*
X130810000Y-100965000D01*
X128270000Y-113030000D02*
X127635000Y-113665000D01*
X128270000Y-113030000D02*
X128270000Y-111125000D01*
X128270000Y-111125000D02*
X128905000Y-110490000D01*
X128905000Y-110490000D02*
X128905000Y-108585000D01*
X128905000Y-108585000D02*
X129540000Y-107950000D01*
X129540000Y-107950000D02*
X129540000Y-106045000D01*
X129540000Y-106045000D02*
X130175000Y-105410000D01*
X130175000Y-103505000D02*
X130175000Y-105410000D01*
X125095000Y-115570000D02*
X127000000Y-115570000D01*
X127635000Y-114935000D02*
X127000000Y-115570000D01*
X127635000Y-113665000D02*
X127635000Y-114935000D01*
X131445000Y-100330000D02*
X131445000Y-98425000D01*
X134620000Y-95250000D02*
X134620000Y-81280000D01*
X131445000Y-68580000D02*
X131445000Y-65405000D01*
X132715000Y-69850000D02*
X131445000Y-68580000D01*
X139700000Y-69850000D02*
X132715000Y-69850000D01*
X135255000Y-81915000D02*
X135255000Y-95885000D01*
X132080000Y-100965000D02*
X132080000Y-99695000D01*
X126365000Y-118110000D02*
X127635000Y-116840000D01*
X127635000Y-116840000D02*
X127635000Y-116205000D01*
X125095000Y-118110000D02*
X126365000Y-118110000D01*
X128270000Y-115570000D02*
X128270000Y-114300000D01*
X128270000Y-114300000D02*
X128905000Y-113665000D01*
X128905000Y-113665000D02*
X128905000Y-111760000D01*
X128905000Y-111760000D02*
X129540000Y-111125000D01*
X129540000Y-111125000D02*
X129540000Y-109220000D01*
X129540000Y-109220000D02*
X130175000Y-108585000D01*
X130175000Y-108585000D02*
X130175000Y-106680000D01*
X130175000Y-106680000D02*
X130810000Y-106045000D01*
X130810000Y-106045000D02*
X130810000Y-104140000D01*
X127635000Y-116205000D02*
X128270000Y-115570000D01*
X131445000Y-103505000D02*
X131445000Y-101600000D01*
X131445000Y-101600000D02*
X132080000Y-100965000D01*
X130810000Y-104140000D02*
X131445000Y-103505000D01*
X132080000Y-99060000D02*
X133985000Y-97155000D01*
X132080000Y-99695000D02*
X132080000Y-99060000D01*
X133985000Y-97155000D02*
X135255000Y-95885000D01*
X128905000Y-69215000D02*
X128905000Y-65405000D01*
X130175000Y-70485000D02*
X128905000Y-69215000D01*
X142240000Y-70485000D02*
X130175000Y-70485000D01*
X145415000Y-71755000D02*
X144780000Y-71120000D01*
X134620000Y-97790000D02*
X135890000Y-96520000D01*
X132715000Y-99695000D02*
X134620000Y-97790000D01*
X131445000Y-104775000D02*
X132080000Y-104140000D01*
X132080000Y-102235000D02*
X132715000Y-101600000D01*
X132080000Y-104140000D02*
X132080000Y-102235000D01*
X128270000Y-116840000D02*
X128905000Y-116205000D01*
X130810000Y-109220000D02*
X130810000Y-107315000D01*
X130175000Y-109855000D02*
X130810000Y-109220000D01*
X130175000Y-111760000D02*
X130175000Y-109855000D01*
X129540000Y-112395000D02*
X130175000Y-111760000D01*
X129540000Y-114300000D02*
X129540000Y-112395000D01*
X128905000Y-114935000D02*
X129540000Y-114300000D01*
X128905000Y-116205000D02*
X128905000Y-114935000D01*
X130810000Y-107315000D02*
X131445000Y-106680000D01*
X131445000Y-106680000D02*
X131445000Y-104775000D01*
X125095000Y-120650000D02*
X127000000Y-120650000D01*
X128270000Y-119380000D02*
X128270000Y-116840000D01*
X127000000Y-120650000D02*
X128270000Y-119380000D01*
X132715000Y-101600000D02*
X132715000Y-99695000D01*
X135890000Y-96520000D02*
X135890000Y-81280000D01*
X126365000Y-69850000D02*
X126365000Y-65405000D01*
X127635000Y-71120000D02*
X126365000Y-69850000D01*
X144780000Y-71120000D02*
X127635000Y-71120000D01*
X207645000Y-79375000D02*
X206375000Y-79375000D01*
X187960000Y-92710000D02*
X187325000Y-92710000D01*
X189230000Y-91440000D02*
X187960000Y-92710000D01*
X189230000Y-89535000D02*
X189230000Y-91440000D01*
X189865000Y-88900000D02*
X189230000Y-89535000D01*
X204470000Y-88900000D02*
X189865000Y-88900000D01*
X205740000Y-87630000D02*
X204470000Y-88900000D01*
X205740000Y-80010000D02*
X205740000Y-87630000D01*
X206375000Y-79375000D02*
X205740000Y-80010000D01*
X177165000Y-89535000D02*
X187960000Y-89535000D01*
X187960000Y-89535000D02*
X190500000Y-86995000D01*
X175895000Y-85725000D02*
X178435000Y-85725000D01*
X198755000Y-81915000D02*
X196850000Y-83820000D01*
X196850000Y-83820000D02*
X193675000Y-83820000D01*
X193675000Y-83820000D02*
X193040000Y-83185000D01*
X193040000Y-83185000D02*
X187325000Y-83185000D01*
X175895000Y-85725000D02*
X174625000Y-86995000D01*
X169545000Y-86995000D02*
X174625000Y-86995000D01*
X198755000Y-81915000D02*
X200025000Y-81915000D01*
X180975000Y-83185000D02*
X183515000Y-83185000D01*
X178435000Y-85725000D02*
X180975000Y-83185000D01*
X207645000Y-74295000D02*
X208280000Y-74295000D01*
X208280000Y-74295000D02*
X209550000Y-75565000D01*
X209550000Y-75565000D02*
X209550000Y-85725000D01*
X209550000Y-85725000D02*
X208280000Y-86995000D01*
X208280000Y-86995000D02*
X207645000Y-86995000D01*
X145415000Y-58420000D02*
X144780000Y-57785000D01*
X164465000Y-71120000D02*
X164465000Y-69215000D01*
X164465000Y-69215000D02*
X161290000Y-66040000D01*
X161290000Y-66040000D02*
X158750000Y-63500000D01*
X158750000Y-63500000D02*
X158115000Y-62865000D01*
X158115000Y-62865000D02*
X152400000Y-62865000D01*
X152400000Y-62865000D02*
X149225000Y-59690000D01*
X149225000Y-59690000D02*
X146685000Y-59690000D01*
X146685000Y-59690000D02*
X145415000Y-58420000D01*
X184785000Y-76835000D02*
X183515000Y-78105000D01*
X177800000Y-75565000D02*
X175895000Y-75565000D01*
X180340000Y-78105000D02*
X177800000Y-75565000D01*
X183515000Y-78105000D02*
X180340000Y-78105000D01*
X144780000Y-55880000D02*
X146050000Y-54610000D01*
X144780000Y-57785000D02*
X144780000Y-55880000D01*
X146050000Y-54610000D02*
X146685000Y-54610000D01*
X164465000Y-91440000D02*
X180340000Y-91440000D01*
X180340000Y-91440000D02*
X181610000Y-91440000D01*
X184150000Y-71755000D02*
X182880000Y-73025000D01*
X128270000Y-128270000D02*
X125095000Y-128270000D01*
X141605000Y-129540000D02*
X144145000Y-132080000D01*
X135255000Y-129540000D02*
X141605000Y-129540000D01*
X128270000Y-128270000D02*
X129540000Y-129540000D01*
X182880000Y-76835000D02*
X182880000Y-73025000D01*
X184150000Y-71755000D02*
X184785000Y-71755000D01*
X144780000Y-53340000D02*
X143510000Y-54610000D01*
X147955000Y-60960000D02*
X146050000Y-60960000D01*
X144780000Y-59690000D02*
X146050000Y-60960000D01*
X144780000Y-53340000D02*
X146050000Y-52070000D01*
X143510000Y-58420000D02*
X144780000Y-59690000D01*
X143510000Y-54610000D02*
X143510000Y-58420000D01*
X198605000Y-41855000D02*
X205105000Y-41855000D01*
X198605000Y-41855000D02*
X164520000Y-41855000D01*
X164520000Y-41855000D02*
X158750000Y-47625000D01*
X156845000Y-47625000D02*
X158750000Y-47625000D01*
X150495000Y-48260000D02*
X151130000Y-47625000D01*
X151130000Y-47625000D02*
X156845000Y-47625000D01*
X146685000Y-52070000D02*
X150495000Y-48260000D01*
X146685000Y-52070000D02*
X146050000Y-52070000D01*
X156210000Y-56515000D02*
X156210000Y-59690000D01*
X162560000Y-66040000D02*
X165354000Y-66040000D01*
X156210000Y-59690000D02*
X162560000Y-66040000D01*
X154305000Y-54610000D02*
X156210000Y-56515000D01*
X160020000Y-56515000D02*
X161290000Y-55245000D01*
X156210000Y-56515000D02*
X160020000Y-56515000D01*
X154305000Y-52070000D02*
X154305000Y-54610000D01*
X195580000Y-87550000D02*
X195500000Y-87550000D01*
X195500000Y-87550000D02*
X193675000Y-85725000D01*
X193675000Y-85725000D02*
X187960000Y-85725000D01*
X187960000Y-85725000D02*
X186690000Y-84455000D01*
X186690000Y-84455000D02*
X186690000Y-75565000D01*
X186690000Y-75565000D02*
X185420000Y-74295000D01*
X185420000Y-74295000D02*
X184785000Y-74295000D01*
X184785000Y-45720000D02*
X186055000Y-46990000D01*
X186055000Y-46990000D02*
X186055000Y-50165000D01*
X163195000Y-92710000D02*
X165100000Y-92710000D01*
X165100000Y-92710000D02*
X165735000Y-92075000D01*
M02*
