G04 #@! TF.FileFunction,Legend,Top*
%FSLAX46Y46*%
G04 Gerber Fmt 4.6, Leading zero omitted, Abs format (unit mm)*
G04 Created by KiCad (PCBNEW 4.0.6) date 07/09/17 19:14:54*
%MOMM*%
%LPD*%
G01*
G04 APERTURE LIST*
%ADD10C,0.100000*%
%ADD11C,0.200000*%
%ADD12C,0.300000*%
%ADD13C,0.150000*%
%ADD14C,0.120000*%
G04 APERTURE END LIST*
D10*
D11*
X157734000Y-84201000D02*
X157734000Y-110490000D01*
X149225000Y-110490000D02*
X161925000Y-110490000D01*
X149225000Y-113030000D02*
X161925000Y-113030000D01*
X153162000Y-84201000D02*
X154178000Y-85217000D01*
X153162000Y-84201000D02*
X154178000Y-83185000D01*
X157734000Y-84201000D02*
X153162000Y-84201000D01*
X154432000Y-117221000D02*
X154432000Y-114808000D01*
X156845000Y-117221000D02*
X156845000Y-114808000D01*
X156591000Y-115316000D02*
X156718000Y-115316000D01*
X156591000Y-117221000D02*
X156591000Y-114808000D01*
X156718000Y-117221000D02*
X156718000Y-114808000D01*
X154178000Y-114808000D02*
X154178000Y-117221000D01*
X154305000Y-117221000D02*
X154305000Y-114808000D01*
X151765000Y-114808000D02*
X151765000Y-117221000D01*
X151892000Y-114808000D02*
X151892000Y-117221000D01*
X151467857Y-110938571D02*
X151967857Y-112438571D01*
X152467857Y-110938571D01*
X152967857Y-112438571D02*
X152967857Y-110938571D01*
X153539285Y-110938571D01*
X153682143Y-111010000D01*
X153753571Y-111081429D01*
X153825000Y-111224286D01*
X153825000Y-111438571D01*
X153753571Y-111581429D01*
X153682143Y-111652857D01*
X153539285Y-111724286D01*
X152967857Y-111724286D01*
X156396428Y-111010000D02*
X156253571Y-110938571D01*
X156039285Y-110938571D01*
X155825000Y-111010000D01*
X155682142Y-111152857D01*
X155610714Y-111295714D01*
X155539285Y-111581429D01*
X155539285Y-111795714D01*
X155610714Y-112081429D01*
X155682142Y-112224286D01*
X155825000Y-112367143D01*
X156039285Y-112438571D01*
X156182142Y-112438571D01*
X156396428Y-112367143D01*
X156467857Y-112295714D01*
X156467857Y-111795714D01*
X156182142Y-111795714D01*
X157110714Y-112438571D02*
X157110714Y-110938571D01*
X157967857Y-112438571D01*
X157967857Y-110938571D01*
X158682143Y-112438571D02*
X158682143Y-110938571D01*
X159039286Y-110938571D01*
X159253571Y-111010000D01*
X159396429Y-111152857D01*
X159467857Y-111295714D01*
X159539286Y-111581429D01*
X159539286Y-111795714D01*
X159467857Y-112081429D01*
X159396429Y-112224286D01*
X159253571Y-112367143D01*
X159039286Y-112438571D01*
X158682143Y-112438571D01*
X151078571Y-116832143D02*
X151078571Y-116546429D01*
X151150000Y-116403571D01*
X151292857Y-116260714D01*
X151578571Y-116189286D01*
X152078571Y-116189286D01*
X152364286Y-116260714D01*
X152507143Y-116403571D01*
X152578571Y-116546429D01*
X152578571Y-116832143D01*
X152507143Y-116975000D01*
X152364286Y-117117857D01*
X152078571Y-117189286D01*
X151578571Y-117189286D01*
X151292857Y-117117857D01*
X151150000Y-116975000D01*
X151078571Y-116832143D01*
X151078571Y-115260714D02*
X151078571Y-114975000D01*
X151150000Y-114832142D01*
X151292857Y-114689285D01*
X151578571Y-114617857D01*
X152078571Y-114617857D01*
X152364286Y-114689285D01*
X152507143Y-114832142D01*
X152578571Y-114975000D01*
X152578571Y-115260714D01*
X152507143Y-115403571D01*
X152364286Y-115546428D01*
X152078571Y-115617857D01*
X151578571Y-115617857D01*
X151292857Y-115546428D01*
X151150000Y-115403571D01*
X151078571Y-115260714D01*
X153528571Y-116832143D02*
X153528571Y-116546429D01*
X153600000Y-116403571D01*
X153742857Y-116260714D01*
X154028571Y-116189286D01*
X154528571Y-116189286D01*
X154814286Y-116260714D01*
X154957143Y-116403571D01*
X155028571Y-116546429D01*
X155028571Y-116832143D01*
X154957143Y-116975000D01*
X154814286Y-117117857D01*
X154528571Y-117189286D01*
X154028571Y-117189286D01*
X153742857Y-117117857D01*
X153600000Y-116975000D01*
X153528571Y-116832143D01*
X153528571Y-115260714D02*
X153528571Y-114975000D01*
X153600000Y-114832142D01*
X153742857Y-114689285D01*
X154028571Y-114617857D01*
X154528571Y-114617857D01*
X154814286Y-114689285D01*
X154957143Y-114832142D01*
X155028571Y-114975000D01*
X155028571Y-115260714D01*
X154957143Y-115403571D01*
X154814286Y-115546428D01*
X154528571Y-115617857D01*
X154028571Y-115617857D01*
X153742857Y-115546428D01*
X153600000Y-115403571D01*
X153528571Y-115260714D01*
X155978571Y-116832143D02*
X155978571Y-116546429D01*
X156050000Y-116403571D01*
X156192857Y-116260714D01*
X156478571Y-116189286D01*
X156978571Y-116189286D01*
X157264286Y-116260714D01*
X157407143Y-116403571D01*
X157478571Y-116546429D01*
X157478571Y-116832143D01*
X157407143Y-116975000D01*
X157264286Y-117117857D01*
X156978571Y-117189286D01*
X156478571Y-117189286D01*
X156192857Y-117117857D01*
X156050000Y-116975000D01*
X155978571Y-116832143D01*
X155978571Y-115260714D02*
X155978571Y-114975000D01*
X156050000Y-114832142D01*
X156192857Y-114689285D01*
X156478571Y-114617857D01*
X156978571Y-114617857D01*
X157264286Y-114689285D01*
X157407143Y-114832142D01*
X157478571Y-114975000D01*
X157478571Y-115260714D01*
X157407143Y-115403571D01*
X157264286Y-115546428D01*
X156978571Y-115617857D01*
X156478571Y-115617857D01*
X156192857Y-115546428D01*
X156050000Y-115403571D01*
X155978571Y-115260714D01*
X158428571Y-116832143D02*
X158428571Y-116546429D01*
X158500000Y-116403571D01*
X158642857Y-116260714D01*
X158928571Y-116189286D01*
X159428571Y-116189286D01*
X159714286Y-116260714D01*
X159857143Y-116403571D01*
X159928571Y-116546429D01*
X159928571Y-116832143D01*
X159857143Y-116975000D01*
X159714286Y-117117857D01*
X159428571Y-117189286D01*
X158928571Y-117189286D01*
X158642857Y-117117857D01*
X158500000Y-116975000D01*
X158428571Y-116832143D01*
X158428571Y-115260714D02*
X158428571Y-114975000D01*
X158500000Y-114832142D01*
X158642857Y-114689285D01*
X158928571Y-114617857D01*
X159428571Y-114617857D01*
X159714286Y-114689285D01*
X159857143Y-114832142D01*
X159928571Y-114975000D01*
X159928571Y-115260714D01*
X159857143Y-115403571D01*
X159714286Y-115546428D01*
X159428571Y-115617857D01*
X158928571Y-115617857D01*
X158642857Y-115546428D01*
X158500000Y-115403571D01*
X158428571Y-115260714D01*
X151078571Y-129182857D02*
X152292857Y-129182857D01*
X152435714Y-129111429D01*
X152507143Y-129040000D01*
X152578571Y-128897143D01*
X152578571Y-128611429D01*
X152507143Y-128468571D01*
X152435714Y-128397143D01*
X152292857Y-128325714D01*
X151078571Y-128325714D01*
X152578571Y-127611428D02*
X151078571Y-127611428D01*
X152150000Y-127111428D01*
X151078571Y-126611428D01*
X152578571Y-126611428D01*
X151078571Y-125254285D02*
X151078571Y-125539999D01*
X151150000Y-125682856D01*
X151221429Y-125754285D01*
X151435714Y-125897142D01*
X151721429Y-125968571D01*
X152292857Y-125968571D01*
X152435714Y-125897142D01*
X152507143Y-125825714D01*
X152578571Y-125682856D01*
X152578571Y-125397142D01*
X152507143Y-125254285D01*
X152435714Y-125182856D01*
X152292857Y-125111428D01*
X151935714Y-125111428D01*
X151792857Y-125182856D01*
X151721429Y-125254285D01*
X151650000Y-125397142D01*
X151650000Y-125682856D01*
X151721429Y-125825714D01*
X151792857Y-125897142D01*
X151935714Y-125968571D01*
X151078571Y-123754285D02*
X151078571Y-124468571D01*
X151792857Y-124540000D01*
X151721429Y-124468571D01*
X151650000Y-124325714D01*
X151650000Y-123968571D01*
X151721429Y-123825714D01*
X151792857Y-123754285D01*
X151935714Y-123682857D01*
X152292857Y-123682857D01*
X152435714Y-123754285D01*
X152507143Y-123825714D01*
X152578571Y-123968571D01*
X152578571Y-124325714D01*
X152507143Y-124468571D01*
X152435714Y-124540000D01*
X151078571Y-122754286D02*
X151078571Y-122611429D01*
X151150000Y-122468572D01*
X151221429Y-122397143D01*
X151364286Y-122325714D01*
X151650000Y-122254286D01*
X152007143Y-122254286D01*
X152292857Y-122325714D01*
X152435714Y-122397143D01*
X152507143Y-122468572D01*
X152578571Y-122611429D01*
X152578571Y-122754286D01*
X152507143Y-122897143D01*
X152435714Y-122968572D01*
X152292857Y-123040000D01*
X152007143Y-123111429D01*
X151650000Y-123111429D01*
X151364286Y-123040000D01*
X151221429Y-122968572D01*
X151150000Y-122897143D01*
X151078571Y-122754286D01*
X151221429Y-121682858D02*
X151150000Y-121611429D01*
X151078571Y-121468572D01*
X151078571Y-121111429D01*
X151150000Y-120968572D01*
X151221429Y-120897143D01*
X151364286Y-120825715D01*
X151507143Y-120825715D01*
X151721429Y-120897143D01*
X152578571Y-121754286D01*
X152578571Y-120825715D01*
X154957143Y-129254286D02*
X155028571Y-129040000D01*
X155028571Y-128682857D01*
X154957143Y-128540000D01*
X154885714Y-128468571D01*
X154742857Y-128397143D01*
X154600000Y-128397143D01*
X154457143Y-128468571D01*
X154385714Y-128540000D01*
X154314286Y-128682857D01*
X154242857Y-128968571D01*
X154171429Y-129111429D01*
X154100000Y-129182857D01*
X153957143Y-129254286D01*
X153814286Y-129254286D01*
X153671429Y-129182857D01*
X153600000Y-129111429D01*
X153528571Y-128968571D01*
X153528571Y-128611429D01*
X153600000Y-128397143D01*
X154314286Y-127468572D02*
X155028571Y-127468572D01*
X153528571Y-127968572D02*
X154314286Y-127468572D01*
X153528571Y-126968572D01*
X153528571Y-125825715D02*
X153528571Y-126111429D01*
X153600000Y-126254286D01*
X153671429Y-126325715D01*
X153885714Y-126468572D01*
X154171429Y-126540001D01*
X154742857Y-126540001D01*
X154885714Y-126468572D01*
X154957143Y-126397144D01*
X155028571Y-126254286D01*
X155028571Y-125968572D01*
X154957143Y-125825715D01*
X154885714Y-125754286D01*
X154742857Y-125682858D01*
X154385714Y-125682858D01*
X154242857Y-125754286D01*
X154171429Y-125825715D01*
X154100000Y-125968572D01*
X154100000Y-126254286D01*
X154171429Y-126397144D01*
X154242857Y-126468572D01*
X154385714Y-126540001D01*
X153528571Y-124325715D02*
X153528571Y-125040001D01*
X154242857Y-125111430D01*
X154171429Y-125040001D01*
X154100000Y-124897144D01*
X154100000Y-124540001D01*
X154171429Y-124397144D01*
X154242857Y-124325715D01*
X154385714Y-124254287D01*
X154742857Y-124254287D01*
X154885714Y-124325715D01*
X154957143Y-124397144D01*
X155028571Y-124540001D01*
X155028571Y-124897144D01*
X154957143Y-125040001D01*
X154885714Y-125111430D01*
X153528571Y-123325716D02*
X153528571Y-123182859D01*
X153600000Y-123040002D01*
X153671429Y-122968573D01*
X153814286Y-122897144D01*
X154100000Y-122825716D01*
X154457143Y-122825716D01*
X154742857Y-122897144D01*
X154885714Y-122968573D01*
X154957143Y-123040002D01*
X155028571Y-123182859D01*
X155028571Y-123325716D01*
X154957143Y-123468573D01*
X154885714Y-123540002D01*
X154742857Y-123611430D01*
X154457143Y-123682859D01*
X154100000Y-123682859D01*
X153814286Y-123611430D01*
X153671429Y-123540002D01*
X153600000Y-123468573D01*
X153528571Y-123325716D01*
X153671429Y-122254288D02*
X153600000Y-122182859D01*
X153528571Y-122040002D01*
X153528571Y-121682859D01*
X153600000Y-121540002D01*
X153671429Y-121468573D01*
X153814286Y-121397145D01*
X153957143Y-121397145D01*
X154171429Y-121468573D01*
X155028571Y-122325716D01*
X155028571Y-121397145D01*
X157478571Y-128325714D02*
X156764286Y-128825714D01*
X157478571Y-129182857D02*
X155978571Y-129182857D01*
X155978571Y-128611429D01*
X156050000Y-128468571D01*
X156121429Y-128397143D01*
X156264286Y-128325714D01*
X156478571Y-128325714D01*
X156621429Y-128397143D01*
X156692857Y-128468571D01*
X156764286Y-128611429D01*
X156764286Y-129182857D01*
X155978571Y-127040000D02*
X155978571Y-127325714D01*
X156050000Y-127468571D01*
X156121429Y-127540000D01*
X156335714Y-127682857D01*
X156621429Y-127754286D01*
X157192857Y-127754286D01*
X157335714Y-127682857D01*
X157407143Y-127611429D01*
X157478571Y-127468571D01*
X157478571Y-127182857D01*
X157407143Y-127040000D01*
X157335714Y-126968571D01*
X157192857Y-126897143D01*
X156835714Y-126897143D01*
X156692857Y-126968571D01*
X156621429Y-127040000D01*
X156550000Y-127182857D01*
X156550000Y-127468571D01*
X156621429Y-127611429D01*
X156692857Y-127682857D01*
X156835714Y-127754286D01*
X155978571Y-125540000D02*
X155978571Y-126254286D01*
X156692857Y-126325715D01*
X156621429Y-126254286D01*
X156550000Y-126111429D01*
X156550000Y-125754286D01*
X156621429Y-125611429D01*
X156692857Y-125540000D01*
X156835714Y-125468572D01*
X157192857Y-125468572D01*
X157335714Y-125540000D01*
X157407143Y-125611429D01*
X157478571Y-125754286D01*
X157478571Y-126111429D01*
X157407143Y-126254286D01*
X157335714Y-126325715D01*
X157335714Y-123968572D02*
X157407143Y-124040001D01*
X157478571Y-124254287D01*
X157478571Y-124397144D01*
X157407143Y-124611429D01*
X157264286Y-124754287D01*
X157121429Y-124825715D01*
X156835714Y-124897144D01*
X156621429Y-124897144D01*
X156335714Y-124825715D01*
X156192857Y-124754287D01*
X156050000Y-124611429D01*
X155978571Y-124397144D01*
X155978571Y-124254287D01*
X156050000Y-124040001D01*
X156121429Y-123968572D01*
X155978571Y-123040001D02*
X155978571Y-122897144D01*
X156050000Y-122754287D01*
X156121429Y-122682858D01*
X156264286Y-122611429D01*
X156550000Y-122540001D01*
X156907143Y-122540001D01*
X157192857Y-122611429D01*
X157335714Y-122682858D01*
X157407143Y-122754287D01*
X157478571Y-122897144D01*
X157478571Y-123040001D01*
X157407143Y-123182858D01*
X157335714Y-123254287D01*
X157192857Y-123325715D01*
X156907143Y-123397144D01*
X156550000Y-123397144D01*
X156264286Y-123325715D01*
X156121429Y-123254287D01*
X156050000Y-123182858D01*
X155978571Y-123040001D01*
X156121429Y-121968573D02*
X156050000Y-121897144D01*
X155978571Y-121754287D01*
X155978571Y-121397144D01*
X156050000Y-121254287D01*
X156121429Y-121182858D01*
X156264286Y-121111430D01*
X156407143Y-121111430D01*
X156621429Y-121182858D01*
X157478571Y-122040001D01*
X157478571Y-121111430D01*
X158428571Y-129325714D02*
X159928571Y-128968571D01*
X158857143Y-128682857D01*
X159928571Y-128397143D01*
X158428571Y-128040000D01*
X159928571Y-127468571D02*
X158428571Y-127468571D01*
X158428571Y-127111428D01*
X158500000Y-126897143D01*
X158642857Y-126754285D01*
X158785714Y-126682857D01*
X159071429Y-126611428D01*
X159285714Y-126611428D01*
X159571429Y-126682857D01*
X159714286Y-126754285D01*
X159857143Y-126897143D01*
X159928571Y-127111428D01*
X159928571Y-127468571D01*
X158428571Y-125325714D02*
X158428571Y-125611428D01*
X158500000Y-125754285D01*
X158571429Y-125825714D01*
X158785714Y-125968571D01*
X159071429Y-126040000D01*
X159642857Y-126040000D01*
X159785714Y-125968571D01*
X159857143Y-125897143D01*
X159928571Y-125754285D01*
X159928571Y-125468571D01*
X159857143Y-125325714D01*
X159785714Y-125254285D01*
X159642857Y-125182857D01*
X159285714Y-125182857D01*
X159142857Y-125254285D01*
X159071429Y-125325714D01*
X159000000Y-125468571D01*
X159000000Y-125754285D01*
X159071429Y-125897143D01*
X159142857Y-125968571D01*
X159285714Y-126040000D01*
X158428571Y-123825714D02*
X158428571Y-124540000D01*
X159142857Y-124611429D01*
X159071429Y-124540000D01*
X159000000Y-124397143D01*
X159000000Y-124040000D01*
X159071429Y-123897143D01*
X159142857Y-123825714D01*
X159285714Y-123754286D01*
X159642857Y-123754286D01*
X159785714Y-123825714D01*
X159857143Y-123897143D01*
X159928571Y-124040000D01*
X159928571Y-124397143D01*
X159857143Y-124540000D01*
X159785714Y-124611429D01*
X159785714Y-122254286D02*
X159857143Y-122325715D01*
X159928571Y-122540001D01*
X159928571Y-122682858D01*
X159857143Y-122897143D01*
X159714286Y-123040001D01*
X159571429Y-123111429D01*
X159285714Y-123182858D01*
X159071429Y-123182858D01*
X158785714Y-123111429D01*
X158642857Y-123040001D01*
X158500000Y-122897143D01*
X158428571Y-122682858D01*
X158428571Y-122540001D01*
X158500000Y-122325715D01*
X158571429Y-122254286D01*
X158428571Y-121325715D02*
X158428571Y-121182858D01*
X158500000Y-121040001D01*
X158571429Y-120968572D01*
X158714286Y-120897143D01*
X159000000Y-120825715D01*
X159357143Y-120825715D01*
X159642857Y-120897143D01*
X159785714Y-120968572D01*
X159857143Y-121040001D01*
X159928571Y-121182858D01*
X159928571Y-121325715D01*
X159857143Y-121468572D01*
X159785714Y-121540001D01*
X159642857Y-121611429D01*
X159357143Y-121682858D01*
X159000000Y-121682858D01*
X158714286Y-121611429D01*
X158571429Y-121540001D01*
X158500000Y-121468572D01*
X158428571Y-121325715D01*
X158571429Y-120254287D02*
X158500000Y-120182858D01*
X158428571Y-120040001D01*
X158428571Y-119682858D01*
X158500000Y-119540001D01*
X158571429Y-119468572D01*
X158714286Y-119397144D01*
X158857143Y-119397144D01*
X159071429Y-119468572D01*
X159928571Y-120325715D01*
X159928571Y-119397144D01*
D12*
X213316429Y-127357143D02*
X214816429Y-127357143D01*
X214816429Y-127928571D01*
X214745000Y-128071429D01*
X214673571Y-128142857D01*
X214530714Y-128214286D01*
X214316429Y-128214286D01*
X214173571Y-128142857D01*
X214102143Y-128071429D01*
X214030714Y-127928571D01*
X214030714Y-127357143D01*
X213316429Y-128857143D02*
X214316429Y-128857143D01*
X214816429Y-128857143D02*
X214745000Y-128785714D01*
X214673571Y-128857143D01*
X214745000Y-128928571D01*
X214816429Y-128857143D01*
X214673571Y-128857143D01*
X214316429Y-129571429D02*
X213316429Y-129571429D01*
X214173571Y-129571429D02*
X214245000Y-129642857D01*
X214316429Y-129785715D01*
X214316429Y-130000000D01*
X214245000Y-130142857D01*
X214102143Y-130214286D01*
X213316429Y-130214286D01*
X213316429Y-132857143D02*
X213316429Y-132000000D01*
X213316429Y-132428572D02*
X214816429Y-132428572D01*
X214602143Y-132285715D01*
X214459286Y-132142857D01*
X214387857Y-132000000D01*
D11*
X212725000Y-126365000D02*
X215265000Y-126365000D01*
X212725000Y-139065000D02*
X212725000Y-126365000D01*
D13*
X186396381Y-48640476D02*
X187205905Y-48640476D01*
X187301143Y-48592857D01*
X187348762Y-48545238D01*
X187396381Y-48450000D01*
X187396381Y-48259523D01*
X187348762Y-48164285D01*
X187301143Y-48116666D01*
X187205905Y-48069047D01*
X186396381Y-48069047D01*
X187348762Y-47640476D02*
X187396381Y-47497619D01*
X187396381Y-47259523D01*
X187348762Y-47164285D01*
X187301143Y-47116666D01*
X187205905Y-47069047D01*
X187110667Y-47069047D01*
X187015429Y-47116666D01*
X186967810Y-47164285D01*
X186920190Y-47259523D01*
X186872571Y-47450000D01*
X186824952Y-47545238D01*
X186777333Y-47592857D01*
X186682095Y-47640476D01*
X186586857Y-47640476D01*
X186491619Y-47592857D01*
X186444000Y-47545238D01*
X186396381Y-47450000D01*
X186396381Y-47211904D01*
X186444000Y-47069047D01*
X186872571Y-46307142D02*
X186920190Y-46164285D01*
X186967810Y-46116666D01*
X187063048Y-46069047D01*
X187205905Y-46069047D01*
X187301143Y-46116666D01*
X187348762Y-46164285D01*
X187396381Y-46259523D01*
X187396381Y-46640476D01*
X186396381Y-46640476D01*
X186396381Y-46307142D01*
X186444000Y-46211904D01*
X186491619Y-46164285D01*
X186586857Y-46116666D01*
X186682095Y-46116666D01*
X186777333Y-46164285D01*
X186824952Y-46211904D01*
X186872571Y-46307142D01*
X186872571Y-46640476D01*
X187396381Y-44878571D02*
X186396381Y-44878571D01*
X186396381Y-44497618D01*
X186444000Y-44402380D01*
X186491619Y-44354761D01*
X186586857Y-44307142D01*
X186729714Y-44307142D01*
X186824952Y-44354761D01*
X186872571Y-44402380D01*
X186920190Y-44497618D01*
X186920190Y-44878571D01*
X186396381Y-43688095D02*
X186396381Y-43497618D01*
X186444000Y-43402380D01*
X186539238Y-43307142D01*
X186729714Y-43259523D01*
X187063048Y-43259523D01*
X187253524Y-43307142D01*
X187348762Y-43402380D01*
X187396381Y-43497618D01*
X187396381Y-43688095D01*
X187348762Y-43783333D01*
X187253524Y-43878571D01*
X187063048Y-43926190D01*
X186729714Y-43926190D01*
X186539238Y-43878571D01*
X186444000Y-43783333D01*
X186396381Y-43688095D01*
X186396381Y-42926190D02*
X187396381Y-42688095D01*
X186682095Y-42497618D01*
X187396381Y-42307142D01*
X186396381Y-42069047D01*
X186872571Y-41688095D02*
X186872571Y-41354761D01*
X187396381Y-41211904D02*
X187396381Y-41688095D01*
X186396381Y-41688095D01*
X186396381Y-41211904D01*
X187396381Y-40211904D02*
X186920190Y-40545238D01*
X187396381Y-40783333D02*
X186396381Y-40783333D01*
X186396381Y-40402380D01*
X186444000Y-40307142D01*
X186491619Y-40259523D01*
X186586857Y-40211904D01*
X186729714Y-40211904D01*
X186824952Y-40259523D01*
X186872571Y-40307142D01*
X186920190Y-40402380D01*
X186920190Y-40783333D01*
X195778381Y-48497619D02*
X194778381Y-48497619D01*
X194778381Y-48116666D01*
X194826000Y-48021428D01*
X194873619Y-47973809D01*
X194968857Y-47926190D01*
X195111714Y-47926190D01*
X195206952Y-47973809D01*
X195254571Y-48021428D01*
X195302190Y-48116666D01*
X195302190Y-48497619D01*
X194778381Y-47307143D02*
X194778381Y-47116666D01*
X194826000Y-47021428D01*
X194921238Y-46926190D01*
X195111714Y-46878571D01*
X195445048Y-46878571D01*
X195635524Y-46926190D01*
X195730762Y-47021428D01*
X195778381Y-47116666D01*
X195778381Y-47307143D01*
X195730762Y-47402381D01*
X195635524Y-47497619D01*
X195445048Y-47545238D01*
X195111714Y-47545238D01*
X194921238Y-47497619D01*
X194826000Y-47402381D01*
X194778381Y-47307143D01*
X194778381Y-46545238D02*
X195778381Y-46307143D01*
X195064095Y-46116666D01*
X195778381Y-45926190D01*
X194778381Y-45688095D01*
X195254571Y-45307143D02*
X195254571Y-44973809D01*
X195778381Y-44830952D02*
X195778381Y-45307143D01*
X194778381Y-45307143D01*
X194778381Y-44830952D01*
X195778381Y-43830952D02*
X195302190Y-44164286D01*
X195778381Y-44402381D02*
X194778381Y-44402381D01*
X194778381Y-44021428D01*
X194826000Y-43926190D01*
X194873619Y-43878571D01*
X194968857Y-43830952D01*
X195111714Y-43830952D01*
X195206952Y-43878571D01*
X195254571Y-43926190D01*
X195302190Y-44021428D01*
X195302190Y-44402381D01*
X195778381Y-42164285D02*
X195778381Y-42640476D01*
X194778381Y-42640476D01*
X195254571Y-41830952D02*
X195254571Y-41497618D01*
X195778381Y-41354761D02*
X195778381Y-41830952D01*
X194778381Y-41830952D01*
X194778381Y-41354761D01*
X195778381Y-40926190D02*
X194778381Y-40926190D01*
X194778381Y-40688095D01*
X194826000Y-40545237D01*
X194921238Y-40449999D01*
X195016476Y-40402380D01*
X195206952Y-40354761D01*
X195349810Y-40354761D01*
X195540286Y-40402380D01*
X195635524Y-40449999D01*
X195730762Y-40545237D01*
X195778381Y-40688095D01*
X195778381Y-40926190D01*
X207716381Y-45434095D02*
X207240190Y-45767429D01*
X207716381Y-46005524D02*
X206716381Y-46005524D01*
X206716381Y-45624571D01*
X206764000Y-45529333D01*
X206811619Y-45481714D01*
X206906857Y-45434095D01*
X207049714Y-45434095D01*
X207144952Y-45481714D01*
X207192571Y-45529333D01*
X207240190Y-45624571D01*
X207240190Y-46005524D01*
X207668762Y-44624571D02*
X207716381Y-44719809D01*
X207716381Y-44910286D01*
X207668762Y-45005524D01*
X207573524Y-45053143D01*
X207192571Y-45053143D01*
X207097333Y-45005524D01*
X207049714Y-44910286D01*
X207049714Y-44719809D01*
X207097333Y-44624571D01*
X207192571Y-44576952D01*
X207287810Y-44576952D01*
X207383048Y-45053143D01*
X207668762Y-44196000D02*
X207716381Y-44100762D01*
X207716381Y-43910286D01*
X207668762Y-43815047D01*
X207573524Y-43767428D01*
X207525905Y-43767428D01*
X207430667Y-43815047D01*
X207383048Y-43910286D01*
X207383048Y-44053143D01*
X207335429Y-44148381D01*
X207240190Y-44196000D01*
X207192571Y-44196000D01*
X207097333Y-44148381D01*
X207049714Y-44053143D01*
X207049714Y-43910286D01*
X207097333Y-43815047D01*
X207668762Y-42957904D02*
X207716381Y-43053142D01*
X207716381Y-43243619D01*
X207668762Y-43338857D01*
X207573524Y-43386476D01*
X207192571Y-43386476D01*
X207097333Y-43338857D01*
X207049714Y-43243619D01*
X207049714Y-43053142D01*
X207097333Y-42957904D01*
X207192571Y-42910285D01*
X207287810Y-42910285D01*
X207383048Y-43386476D01*
X207049714Y-42624571D02*
X207049714Y-42243619D01*
X206716381Y-42481714D02*
X207573524Y-42481714D01*
X207668762Y-42434095D01*
X207716381Y-42338857D01*
X207716381Y-42243619D01*
D12*
X126944286Y-43218571D02*
X126444286Y-42504286D01*
X126087143Y-43218571D02*
X126087143Y-41718571D01*
X126658571Y-41718571D01*
X126801429Y-41790000D01*
X126872857Y-41861429D01*
X126944286Y-42004286D01*
X126944286Y-42218571D01*
X126872857Y-42361429D01*
X126801429Y-42432857D01*
X126658571Y-42504286D01*
X126087143Y-42504286D01*
X128444286Y-43075714D02*
X128372857Y-43147143D01*
X128158571Y-43218571D01*
X128015714Y-43218571D01*
X127801429Y-43147143D01*
X127658571Y-43004286D01*
X127587143Y-42861429D01*
X127515714Y-42575714D01*
X127515714Y-42361429D01*
X127587143Y-42075714D01*
X127658571Y-41932857D01*
X127801429Y-41790000D01*
X128015714Y-41718571D01*
X128158571Y-41718571D01*
X128372857Y-41790000D01*
X128444286Y-41861429D01*
X129730000Y-41718571D02*
X129444286Y-41718571D01*
X129301429Y-41790000D01*
X129230000Y-41861429D01*
X129087143Y-42075714D01*
X129015714Y-42361429D01*
X129015714Y-42932857D01*
X129087143Y-43075714D01*
X129158571Y-43147143D01*
X129301429Y-43218571D01*
X129587143Y-43218571D01*
X129730000Y-43147143D01*
X129801429Y-43075714D01*
X129872857Y-42932857D01*
X129872857Y-42575714D01*
X129801429Y-42432857D01*
X129730000Y-42361429D01*
X129587143Y-42290000D01*
X129301429Y-42290000D01*
X129158571Y-42361429D01*
X129087143Y-42432857D01*
X129015714Y-42575714D01*
X131230000Y-41718571D02*
X130515714Y-41718571D01*
X130444285Y-42432857D01*
X130515714Y-42361429D01*
X130658571Y-42290000D01*
X131015714Y-42290000D01*
X131158571Y-42361429D01*
X131230000Y-42432857D01*
X131301428Y-42575714D01*
X131301428Y-42932857D01*
X131230000Y-43075714D01*
X131158571Y-43147143D01*
X131015714Y-43218571D01*
X130658571Y-43218571D01*
X130515714Y-43147143D01*
X130444285Y-43075714D01*
X132229999Y-41718571D02*
X132372856Y-41718571D01*
X132515713Y-41790000D01*
X132587142Y-41861429D01*
X132658571Y-42004286D01*
X132729999Y-42290000D01*
X132729999Y-42647143D01*
X132658571Y-42932857D01*
X132587142Y-43075714D01*
X132515713Y-43147143D01*
X132372856Y-43218571D01*
X132229999Y-43218571D01*
X132087142Y-43147143D01*
X132015713Y-43075714D01*
X131944285Y-42932857D01*
X131872856Y-42647143D01*
X131872856Y-42290000D01*
X131944285Y-42004286D01*
X132015713Y-41861429D01*
X132087142Y-41790000D01*
X132229999Y-41718571D01*
X133301427Y-41861429D02*
X133372856Y-41790000D01*
X133515713Y-41718571D01*
X133872856Y-41718571D01*
X134015713Y-41790000D01*
X134087142Y-41861429D01*
X134158570Y-42004286D01*
X134158570Y-42147143D01*
X134087142Y-42361429D01*
X133229999Y-43218571D01*
X134158570Y-43218571D01*
X135872855Y-42790000D02*
X136587141Y-42790000D01*
X135729998Y-43218571D02*
X136229998Y-41718571D01*
X136729998Y-43218571D01*
X137229998Y-42218571D02*
X137229998Y-43718571D01*
X137229998Y-42290000D02*
X137372855Y-42218571D01*
X137658569Y-42218571D01*
X137801426Y-42290000D01*
X137872855Y-42361429D01*
X137944284Y-42504286D01*
X137944284Y-42932857D01*
X137872855Y-43075714D01*
X137801426Y-43147143D01*
X137658569Y-43218571D01*
X137372855Y-43218571D01*
X137229998Y-43147143D01*
X138587141Y-42218571D02*
X138587141Y-43718571D01*
X138587141Y-42290000D02*
X138729998Y-42218571D01*
X139015712Y-42218571D01*
X139158569Y-42290000D01*
X139229998Y-42361429D01*
X139301427Y-42504286D01*
X139301427Y-42932857D01*
X139229998Y-43075714D01*
X139158569Y-43147143D01*
X139015712Y-43218571D01*
X138729998Y-43218571D01*
X138587141Y-43147143D01*
X140158570Y-43218571D02*
X140015712Y-43147143D01*
X139944284Y-43004286D01*
X139944284Y-41718571D01*
X141301426Y-43147143D02*
X141158569Y-43218571D01*
X140872855Y-43218571D01*
X140729998Y-43147143D01*
X140658569Y-43004286D01*
X140658569Y-42432857D01*
X140729998Y-42290000D01*
X140872855Y-42218571D01*
X141158569Y-42218571D01*
X141301426Y-42290000D01*
X141372855Y-42432857D01*
X141372855Y-42575714D01*
X140658569Y-42718571D01*
X143944283Y-43218571D02*
X143087140Y-43218571D01*
X143515712Y-43218571D02*
X143515712Y-41718571D01*
X143372855Y-41932857D01*
X143229997Y-42075714D01*
X143087140Y-42147143D01*
X146587140Y-43218571D02*
X146087140Y-42504286D01*
X145729997Y-43218571D02*
X145729997Y-41718571D01*
X146301425Y-41718571D01*
X146444283Y-41790000D01*
X146515711Y-41861429D01*
X146587140Y-42004286D01*
X146587140Y-42218571D01*
X146515711Y-42361429D01*
X146444283Y-42432857D01*
X146301425Y-42504286D01*
X145729997Y-42504286D01*
X147801425Y-43147143D02*
X147658568Y-43218571D01*
X147372854Y-43218571D01*
X147229997Y-43147143D01*
X147158568Y-43004286D01*
X147158568Y-42432857D01*
X147229997Y-42290000D01*
X147372854Y-42218571D01*
X147658568Y-42218571D01*
X147801425Y-42290000D01*
X147872854Y-42432857D01*
X147872854Y-42575714D01*
X147158568Y-42718571D01*
X148515711Y-42218571D02*
X148515711Y-43718571D01*
X148515711Y-42290000D02*
X148658568Y-42218571D01*
X148944282Y-42218571D01*
X149087139Y-42290000D01*
X149158568Y-42361429D01*
X149229997Y-42504286D01*
X149229997Y-42932857D01*
X149158568Y-43075714D01*
X149087139Y-43147143D01*
X148944282Y-43218571D01*
X148658568Y-43218571D01*
X148515711Y-43147143D01*
X150087140Y-43218571D02*
X149944282Y-43147143D01*
X149872854Y-43004286D01*
X149872854Y-41718571D01*
X150658568Y-43218571D02*
X150658568Y-42218571D01*
X150658568Y-41718571D02*
X150587139Y-41790000D01*
X150658568Y-41861429D01*
X150729996Y-41790000D01*
X150658568Y-41718571D01*
X150658568Y-41861429D01*
X152015711Y-43147143D02*
X151872854Y-43218571D01*
X151587140Y-43218571D01*
X151444282Y-43147143D01*
X151372854Y-43075714D01*
X151301425Y-42932857D01*
X151301425Y-42504286D01*
X151372854Y-42361429D01*
X151444282Y-42290000D01*
X151587140Y-42218571D01*
X151872854Y-42218571D01*
X152015711Y-42290000D01*
X153301425Y-43218571D02*
X153301425Y-42432857D01*
X153229996Y-42290000D01*
X153087139Y-42218571D01*
X152801425Y-42218571D01*
X152658568Y-42290000D01*
X153301425Y-43147143D02*
X153158568Y-43218571D01*
X152801425Y-43218571D01*
X152658568Y-43147143D01*
X152587139Y-43004286D01*
X152587139Y-42861429D01*
X152658568Y-42718571D01*
X152801425Y-42647143D01*
X153158568Y-42647143D01*
X153301425Y-42575714D01*
X126944286Y-45768571D02*
X126444286Y-45054286D01*
X126087143Y-45768571D02*
X126087143Y-44268571D01*
X126658571Y-44268571D01*
X126801429Y-44340000D01*
X126872857Y-44411429D01*
X126944286Y-44554286D01*
X126944286Y-44768571D01*
X126872857Y-44911429D01*
X126801429Y-44982857D01*
X126658571Y-45054286D01*
X126087143Y-45054286D01*
X128158571Y-45697143D02*
X128015714Y-45768571D01*
X127730000Y-45768571D01*
X127587143Y-45697143D01*
X127515714Y-45554286D01*
X127515714Y-44982857D01*
X127587143Y-44840000D01*
X127730000Y-44768571D01*
X128015714Y-44768571D01*
X128158571Y-44840000D01*
X128230000Y-44982857D01*
X128230000Y-45125714D01*
X127515714Y-45268571D01*
X128730000Y-44768571D02*
X129087143Y-45768571D01*
X129444285Y-44768571D01*
X130015714Y-45768571D02*
X130015714Y-44768571D01*
X130015714Y-44268571D02*
X129944285Y-44340000D01*
X130015714Y-44411429D01*
X130087142Y-44340000D01*
X130015714Y-44268571D01*
X130015714Y-44411429D01*
X130658571Y-45697143D02*
X130801428Y-45768571D01*
X131087143Y-45768571D01*
X131230000Y-45697143D01*
X131301428Y-45554286D01*
X131301428Y-45482857D01*
X131230000Y-45340000D01*
X131087143Y-45268571D01*
X130872857Y-45268571D01*
X130730000Y-45197143D01*
X130658571Y-45054286D01*
X130658571Y-44982857D01*
X130730000Y-44840000D01*
X130872857Y-44768571D01*
X131087143Y-44768571D01*
X131230000Y-44840000D01*
X131944286Y-45768571D02*
X131944286Y-44768571D01*
X131944286Y-44268571D02*
X131872857Y-44340000D01*
X131944286Y-44411429D01*
X132015714Y-44340000D01*
X131944286Y-44268571D01*
X131944286Y-44411429D01*
X132872858Y-45768571D02*
X132730000Y-45697143D01*
X132658572Y-45625714D01*
X132587143Y-45482857D01*
X132587143Y-45054286D01*
X132658572Y-44911429D01*
X132730000Y-44840000D01*
X132872858Y-44768571D01*
X133087143Y-44768571D01*
X133230000Y-44840000D01*
X133301429Y-44911429D01*
X133372858Y-45054286D01*
X133372858Y-45482857D01*
X133301429Y-45625714D01*
X133230000Y-45697143D01*
X133087143Y-45768571D01*
X132872858Y-45768571D01*
X134015715Y-44768571D02*
X134015715Y-45768571D01*
X134015715Y-44911429D02*
X134087143Y-44840000D01*
X134230001Y-44768571D01*
X134444286Y-44768571D01*
X134587143Y-44840000D01*
X134658572Y-44982857D01*
X134658572Y-45768571D01*
X137015715Y-44982857D02*
X137230001Y-45054286D01*
X137301429Y-45125714D01*
X137372858Y-45268571D01*
X137372858Y-45482857D01*
X137301429Y-45625714D01*
X137230001Y-45697143D01*
X137087143Y-45768571D01*
X136515715Y-45768571D01*
X136515715Y-44268571D01*
X137015715Y-44268571D01*
X137158572Y-44340000D01*
X137230001Y-44411429D01*
X137301429Y-44554286D01*
X137301429Y-44697143D01*
X137230001Y-44840000D01*
X137158572Y-44911429D01*
X137015715Y-44982857D01*
X136515715Y-44982857D01*
D14*
X154575000Y-81160000D02*
X148995000Y-81160000D01*
X148995000Y-81160000D02*
X148995000Y-132200000D01*
X148995000Y-132200000D02*
X162155000Y-132200000D01*
X162155000Y-132200000D02*
X162155000Y-81160000D01*
X162155000Y-81160000D02*
X156575000Y-81160000D01*
X146565000Y-81160000D02*
X146565000Y-132200000D01*
X146565000Y-132200000D02*
X164585000Y-132200000D01*
X164585000Y-132200000D02*
X164585000Y-81160000D01*
X164585000Y-81160000D02*
X146565000Y-81160000D01*
X156575000Y-81160000D02*
G75*
G02X154575000Y-81160000I-1000000J0D01*
G01*
X142835000Y-101510000D02*
X142835000Y-96690000D01*
X145455000Y-101510000D02*
X145455000Y-96690000D01*
X142835000Y-101510000D02*
X143149000Y-101510000D01*
X145141000Y-101510000D02*
X145455000Y-101510000D01*
X142835000Y-96690000D02*
X143149000Y-96690000D01*
X145141000Y-96690000D02*
X145455000Y-96690000D01*
X189905000Y-95975000D02*
X189905000Y-100795000D01*
X187285000Y-95975000D02*
X187285000Y-100795000D01*
X189905000Y-95975000D02*
X189591000Y-95975000D01*
X187599000Y-95975000D02*
X187285000Y-95975000D01*
X189905000Y-100795000D02*
X189591000Y-100795000D01*
X187599000Y-100795000D02*
X187285000Y-100795000D01*
X212765000Y-95975000D02*
X212765000Y-100795000D01*
X210145000Y-95975000D02*
X210145000Y-100795000D01*
X212765000Y-95975000D02*
X212451000Y-95975000D01*
X210459000Y-95975000D02*
X210145000Y-95975000D01*
X212765000Y-100795000D02*
X212451000Y-100795000D01*
X210459000Y-100795000D02*
X210145000Y-100795000D01*
X212765000Y-71845000D02*
X212765000Y-76665000D01*
X210145000Y-71845000D02*
X210145000Y-76665000D01*
X212765000Y-71845000D02*
X212451000Y-71845000D01*
X210459000Y-71845000D02*
X210145000Y-71845000D01*
X212765000Y-76665000D02*
X212451000Y-76665000D01*
X210459000Y-76665000D02*
X210145000Y-76665000D01*
X148045000Y-59650000D02*
X152865000Y-59650000D01*
X148045000Y-62270000D02*
X152865000Y-62270000D01*
X148045000Y-59650000D02*
X148045000Y-59964000D01*
X148045000Y-61956000D02*
X148045000Y-62270000D01*
X152865000Y-59650000D02*
X152865000Y-59964000D01*
X152865000Y-61956000D02*
X152865000Y-62270000D01*
X196890000Y-71845000D02*
X196890000Y-76665000D01*
X194270000Y-71845000D02*
X194270000Y-76665000D01*
X196890000Y-71845000D02*
X196576000Y-71845000D01*
X194584000Y-71845000D02*
X194270000Y-71845000D01*
X196890000Y-76665000D02*
X196576000Y-76665000D01*
X194584000Y-76665000D02*
X194270000Y-76665000D01*
X119975000Y-127545000D02*
X119975000Y-122725000D01*
X122595000Y-127545000D02*
X122595000Y-122725000D01*
X119975000Y-127545000D02*
X120289000Y-127545000D01*
X122281000Y-127545000D02*
X122595000Y-127545000D01*
X119975000Y-122725000D02*
X120289000Y-122725000D01*
X122281000Y-122725000D02*
X122595000Y-122725000D01*
X144235000Y-75525000D02*
X149055000Y-75525000D01*
X144235000Y-78145000D02*
X149055000Y-78145000D01*
X144235000Y-75525000D02*
X144235000Y-75839000D01*
X144235000Y-77831000D02*
X144235000Y-78145000D01*
X149055000Y-75525000D02*
X149055000Y-75839000D01*
X149055000Y-77831000D02*
X149055000Y-78145000D01*
X158790000Y-49620000D02*
X158790000Y-54440000D01*
X156170000Y-49620000D02*
X156170000Y-54440000D01*
X158790000Y-49620000D02*
X158476000Y-49620000D01*
X156484000Y-49620000D02*
X156170000Y-49620000D01*
X158790000Y-54440000D02*
X158476000Y-54440000D01*
X156484000Y-54440000D02*
X156170000Y-54440000D01*
X179705000Y-64135000D02*
X177165000Y-64135000D01*
X177165000Y-64135000D02*
X177165000Y-66805000D01*
X179705000Y-66805000D02*
X217935000Y-66805000D01*
X174495000Y-66805000D02*
X177165000Y-66805000D01*
X177165000Y-51435000D02*
X177165000Y-48765000D01*
X177165000Y-51435000D02*
X215265000Y-51435000D01*
X215265000Y-51435000D02*
X215265000Y-48765000D01*
X179705000Y-64135000D02*
X179705000Y-66805000D01*
X179705000Y-64135000D02*
X215265000Y-64135000D01*
X215265000Y-64135000D02*
X215265000Y-66805000D01*
X217935000Y-66805000D02*
X217935000Y-48765000D01*
X217935000Y-48765000D02*
X174495000Y-48765000D01*
X174495000Y-48765000D02*
X174495000Y-66805000D01*
X215325000Y-139135000D02*
X212725000Y-139135000D01*
X212725000Y-139135000D02*
X212725000Y-141755000D01*
X212725000Y-141755000D02*
X215325000Y-141755000D01*
X215325000Y-141755000D02*
X215325000Y-139135000D01*
X214375000Y-141755000D02*
X213615000Y-141755000D01*
X213615000Y-141755000D02*
X213615000Y-147755000D01*
X213615000Y-147755000D02*
X214375000Y-147755000D01*
X214375000Y-147755000D02*
X214375000Y-141755000D01*
X214375000Y-138705000D02*
X214375000Y-139135000D01*
X213615000Y-138705000D02*
X213615000Y-139135000D01*
X214255000Y-141755000D02*
X214255000Y-147755000D01*
X214135000Y-141755000D02*
X214135000Y-147755000D01*
X214015000Y-141755000D02*
X214015000Y-147755000D01*
X213895000Y-141755000D02*
X213895000Y-147755000D01*
X213775000Y-141755000D02*
X213775000Y-147755000D01*
X213655000Y-141755000D02*
X213655000Y-147755000D01*
X212725000Y-139135000D02*
X210185000Y-139135000D01*
X210185000Y-139135000D02*
X210185000Y-141755000D01*
X210185000Y-141755000D02*
X212725000Y-141755000D01*
X212725000Y-141755000D02*
X212725000Y-139135000D01*
X211835000Y-141755000D02*
X211075000Y-141755000D01*
X211075000Y-141755000D02*
X211075000Y-147755000D01*
X211075000Y-147755000D02*
X211835000Y-147755000D01*
X211835000Y-147755000D02*
X211835000Y-141755000D01*
X211835000Y-138705000D02*
X211835000Y-139135000D01*
X211075000Y-138705000D02*
X211075000Y-139135000D01*
X210185000Y-139135000D02*
X207645000Y-139135000D01*
X207645000Y-139135000D02*
X207645000Y-141755000D01*
X207645000Y-141755000D02*
X210185000Y-141755000D01*
X210185000Y-141755000D02*
X210185000Y-139135000D01*
X209295000Y-141755000D02*
X208535000Y-141755000D01*
X208535000Y-141755000D02*
X208535000Y-147755000D01*
X208535000Y-147755000D02*
X209295000Y-147755000D01*
X209295000Y-147755000D02*
X209295000Y-141755000D01*
X209295000Y-138705000D02*
X209295000Y-139135000D01*
X208535000Y-138705000D02*
X208535000Y-139135000D01*
X207645000Y-139135000D02*
X205105000Y-139135000D01*
X205105000Y-139135000D02*
X205105000Y-141755000D01*
X205105000Y-141755000D02*
X207645000Y-141755000D01*
X207645000Y-141755000D02*
X207645000Y-139135000D01*
X206755000Y-141755000D02*
X205995000Y-141755000D01*
X205995000Y-141755000D02*
X205995000Y-147755000D01*
X205995000Y-147755000D02*
X206755000Y-147755000D01*
X206755000Y-147755000D02*
X206755000Y-141755000D01*
X206755000Y-138705000D02*
X206755000Y-139135000D01*
X205995000Y-138705000D02*
X205995000Y-139135000D01*
X205105000Y-139135000D02*
X202565000Y-139135000D01*
X202565000Y-139135000D02*
X202565000Y-141755000D01*
X202565000Y-141755000D02*
X205105000Y-141755000D01*
X205105000Y-141755000D02*
X205105000Y-139135000D01*
X204215000Y-141755000D02*
X203455000Y-141755000D01*
X203455000Y-141755000D02*
X203455000Y-147755000D01*
X203455000Y-147755000D02*
X204215000Y-147755000D01*
X204215000Y-147755000D02*
X204215000Y-141755000D01*
X204215000Y-138705000D02*
X204215000Y-139135000D01*
X203455000Y-138705000D02*
X203455000Y-139135000D01*
X202565000Y-139135000D02*
X200025000Y-139135000D01*
X200025000Y-139135000D02*
X200025000Y-141755000D01*
X200025000Y-141755000D02*
X202565000Y-141755000D01*
X202565000Y-141755000D02*
X202565000Y-139135000D01*
X201675000Y-141755000D02*
X200915000Y-141755000D01*
X200915000Y-141755000D02*
X200915000Y-147755000D01*
X200915000Y-147755000D02*
X201675000Y-147755000D01*
X201675000Y-147755000D02*
X201675000Y-141755000D01*
X201675000Y-138705000D02*
X201675000Y-139135000D01*
X200915000Y-138705000D02*
X200915000Y-139135000D01*
X200025000Y-139135000D02*
X197485000Y-139135000D01*
X197485000Y-139135000D02*
X197485000Y-141755000D01*
X197485000Y-141755000D02*
X200025000Y-141755000D01*
X200025000Y-141755000D02*
X200025000Y-139135000D01*
X199135000Y-141755000D02*
X198375000Y-141755000D01*
X198375000Y-141755000D02*
X198375000Y-147755000D01*
X198375000Y-147755000D02*
X199135000Y-147755000D01*
X199135000Y-147755000D02*
X199135000Y-141755000D01*
X199135000Y-138705000D02*
X199135000Y-139135000D01*
X198375000Y-138705000D02*
X198375000Y-139135000D01*
X197485000Y-139135000D02*
X194945000Y-139135000D01*
X194945000Y-139135000D02*
X194945000Y-141755000D01*
X194945000Y-141755000D02*
X197485000Y-141755000D01*
X197485000Y-141755000D02*
X197485000Y-139135000D01*
X196595000Y-141755000D02*
X195835000Y-141755000D01*
X195835000Y-141755000D02*
X195835000Y-147755000D01*
X195835000Y-147755000D02*
X196595000Y-147755000D01*
X196595000Y-147755000D02*
X196595000Y-141755000D01*
X196595000Y-138705000D02*
X196595000Y-139135000D01*
X195835000Y-138705000D02*
X195835000Y-139135000D01*
X194945000Y-139135000D02*
X192405000Y-139135000D01*
X192405000Y-139135000D02*
X192405000Y-141755000D01*
X192405000Y-141755000D02*
X194945000Y-141755000D01*
X194945000Y-141755000D02*
X194945000Y-139135000D01*
X194055000Y-141755000D02*
X193295000Y-141755000D01*
X193295000Y-141755000D02*
X193295000Y-147755000D01*
X193295000Y-147755000D02*
X194055000Y-147755000D01*
X194055000Y-147755000D02*
X194055000Y-141755000D01*
X194055000Y-138705000D02*
X194055000Y-139135000D01*
X193295000Y-138705000D02*
X193295000Y-139135000D01*
X192405000Y-139135000D02*
X189865000Y-139135000D01*
X189865000Y-139135000D02*
X189865000Y-141755000D01*
X189865000Y-141755000D02*
X192405000Y-141755000D01*
X192405000Y-141755000D02*
X192405000Y-139135000D01*
X191515000Y-141755000D02*
X190755000Y-141755000D01*
X190755000Y-141755000D02*
X190755000Y-147755000D01*
X190755000Y-147755000D02*
X191515000Y-147755000D01*
X191515000Y-147755000D02*
X191515000Y-141755000D01*
X191515000Y-138705000D02*
X191515000Y-139135000D01*
X190755000Y-138705000D02*
X190755000Y-139135000D01*
X189865000Y-139135000D02*
X187325000Y-139135000D01*
X187325000Y-139135000D02*
X187325000Y-141755000D01*
X187325000Y-141755000D02*
X189865000Y-141755000D01*
X189865000Y-141755000D02*
X189865000Y-139135000D01*
X188975000Y-141755000D02*
X188215000Y-141755000D01*
X188215000Y-141755000D02*
X188215000Y-147755000D01*
X188215000Y-147755000D02*
X188975000Y-147755000D01*
X188975000Y-147755000D02*
X188975000Y-141755000D01*
X188975000Y-138705000D02*
X188975000Y-139135000D01*
X188215000Y-138705000D02*
X188215000Y-139135000D01*
X187325000Y-139135000D02*
X184785000Y-139135000D01*
X184785000Y-139135000D02*
X184785000Y-141755000D01*
X184785000Y-141755000D02*
X187325000Y-141755000D01*
X187325000Y-141755000D02*
X187325000Y-139135000D01*
X186435000Y-141755000D02*
X185675000Y-141755000D01*
X185675000Y-141755000D02*
X185675000Y-147755000D01*
X185675000Y-147755000D02*
X186435000Y-147755000D01*
X186435000Y-147755000D02*
X186435000Y-141755000D01*
X186435000Y-138705000D02*
X186435000Y-139135000D01*
X185675000Y-138705000D02*
X185675000Y-139135000D01*
X184785000Y-139135000D02*
X182245000Y-139135000D01*
X182245000Y-139135000D02*
X182245000Y-141755000D01*
X182245000Y-141755000D02*
X184785000Y-141755000D01*
X184785000Y-141755000D02*
X184785000Y-139135000D01*
X183895000Y-141755000D02*
X183135000Y-141755000D01*
X183135000Y-141755000D02*
X183135000Y-147755000D01*
X183135000Y-147755000D02*
X183895000Y-147755000D01*
X183895000Y-147755000D02*
X183895000Y-141755000D01*
X183895000Y-138705000D02*
X183895000Y-139135000D01*
X183135000Y-138705000D02*
X183135000Y-139135000D01*
X182245000Y-139135000D02*
X179705000Y-139135000D01*
X179705000Y-139135000D02*
X179705000Y-141755000D01*
X179705000Y-141755000D02*
X182245000Y-141755000D01*
X182245000Y-141755000D02*
X182245000Y-139135000D01*
X181355000Y-141755000D02*
X180595000Y-141755000D01*
X180595000Y-141755000D02*
X180595000Y-147755000D01*
X180595000Y-147755000D02*
X181355000Y-147755000D01*
X181355000Y-147755000D02*
X181355000Y-141755000D01*
X181355000Y-138705000D02*
X181355000Y-139135000D01*
X180595000Y-138705000D02*
X180595000Y-139135000D01*
X179705000Y-139135000D02*
X177165000Y-139135000D01*
X177165000Y-139135000D02*
X177165000Y-141755000D01*
X177165000Y-141755000D02*
X179705000Y-141755000D01*
X179705000Y-141755000D02*
X179705000Y-139135000D01*
X178815000Y-141755000D02*
X178055000Y-141755000D01*
X178055000Y-141755000D02*
X178055000Y-147755000D01*
X178055000Y-147755000D02*
X178815000Y-147755000D01*
X178815000Y-147755000D02*
X178815000Y-141755000D01*
X178815000Y-138705000D02*
X178815000Y-139135000D01*
X178055000Y-138705000D02*
X178055000Y-139135000D01*
X177165000Y-139135000D02*
X174625000Y-139135000D01*
X174625000Y-139135000D02*
X174625000Y-141755000D01*
X174625000Y-141755000D02*
X177165000Y-141755000D01*
X177165000Y-141755000D02*
X177165000Y-139135000D01*
X176275000Y-141755000D02*
X175515000Y-141755000D01*
X175515000Y-141755000D02*
X175515000Y-147755000D01*
X175515000Y-147755000D02*
X176275000Y-147755000D01*
X176275000Y-147755000D02*
X176275000Y-141755000D01*
X176275000Y-138705000D02*
X176275000Y-139135000D01*
X175515000Y-138705000D02*
X175515000Y-139135000D01*
X174625000Y-139135000D02*
X172085000Y-139135000D01*
X172085000Y-139135000D02*
X172085000Y-141755000D01*
X172085000Y-141755000D02*
X174625000Y-141755000D01*
X174625000Y-141755000D02*
X174625000Y-139135000D01*
X173735000Y-141755000D02*
X172975000Y-141755000D01*
X172975000Y-141755000D02*
X172975000Y-147755000D01*
X172975000Y-147755000D02*
X173735000Y-147755000D01*
X173735000Y-147755000D02*
X173735000Y-141755000D01*
X173735000Y-138705000D02*
X173735000Y-139135000D01*
X172975000Y-138705000D02*
X172975000Y-139135000D01*
X172085000Y-139135000D02*
X169545000Y-139135000D01*
X169545000Y-139135000D02*
X169545000Y-141755000D01*
X169545000Y-141755000D02*
X172085000Y-141755000D01*
X172085000Y-141755000D02*
X172085000Y-139135000D01*
X171195000Y-141755000D02*
X170435000Y-141755000D01*
X170435000Y-141755000D02*
X170435000Y-147755000D01*
X170435000Y-147755000D02*
X171195000Y-147755000D01*
X171195000Y-147755000D02*
X171195000Y-141755000D01*
X171195000Y-138705000D02*
X171195000Y-139135000D01*
X170435000Y-138705000D02*
X170435000Y-139135000D01*
X169545000Y-139135000D02*
X167005000Y-139135000D01*
X167005000Y-139135000D02*
X167005000Y-141755000D01*
X167005000Y-141755000D02*
X169545000Y-141755000D01*
X169545000Y-141755000D02*
X169545000Y-139135000D01*
X168655000Y-141755000D02*
X167895000Y-141755000D01*
X167895000Y-141755000D02*
X167895000Y-147755000D01*
X167895000Y-147755000D02*
X168655000Y-147755000D01*
X168655000Y-147755000D02*
X168655000Y-141755000D01*
X168655000Y-138705000D02*
X168655000Y-139135000D01*
X167895000Y-138705000D02*
X167895000Y-139135000D01*
X167005000Y-139135000D02*
X164465000Y-139135000D01*
X164465000Y-139135000D02*
X164465000Y-141755000D01*
X164465000Y-141755000D02*
X167005000Y-141755000D01*
X167005000Y-141755000D02*
X167005000Y-139135000D01*
X166115000Y-141755000D02*
X165355000Y-141755000D01*
X165355000Y-141755000D02*
X165355000Y-147755000D01*
X165355000Y-147755000D02*
X166115000Y-147755000D01*
X166115000Y-147755000D02*
X166115000Y-141755000D01*
X166115000Y-138705000D02*
X166115000Y-139135000D01*
X165355000Y-138705000D02*
X165355000Y-139135000D01*
X164465000Y-139135000D02*
X161925000Y-139135000D01*
X161925000Y-139135000D02*
X161925000Y-141755000D01*
X161925000Y-141755000D02*
X164465000Y-141755000D01*
X164465000Y-141755000D02*
X164465000Y-139135000D01*
X163575000Y-141755000D02*
X162815000Y-141755000D01*
X162815000Y-141755000D02*
X162815000Y-147755000D01*
X162815000Y-147755000D02*
X163575000Y-147755000D01*
X163575000Y-147755000D02*
X163575000Y-141755000D01*
X163575000Y-138705000D02*
X163575000Y-139135000D01*
X162815000Y-138705000D02*
X162815000Y-139135000D01*
X161925000Y-139135000D02*
X159385000Y-139135000D01*
X159385000Y-139135000D02*
X159385000Y-141755000D01*
X159385000Y-141755000D02*
X161925000Y-141755000D01*
X161925000Y-141755000D02*
X161925000Y-139135000D01*
X161035000Y-141755000D02*
X160275000Y-141755000D01*
X160275000Y-141755000D02*
X160275000Y-147755000D01*
X160275000Y-147755000D02*
X161035000Y-147755000D01*
X161035000Y-147755000D02*
X161035000Y-141755000D01*
X161035000Y-138705000D02*
X161035000Y-139135000D01*
X160275000Y-138705000D02*
X160275000Y-139135000D01*
X159385000Y-139135000D02*
X156845000Y-139135000D01*
X156845000Y-139135000D02*
X156845000Y-141755000D01*
X156845000Y-141755000D02*
X159385000Y-141755000D01*
X159385000Y-141755000D02*
X159385000Y-139135000D01*
X158495000Y-141755000D02*
X157735000Y-141755000D01*
X157735000Y-141755000D02*
X157735000Y-147755000D01*
X157735000Y-147755000D02*
X158495000Y-147755000D01*
X158495000Y-147755000D02*
X158495000Y-141755000D01*
X158495000Y-138705000D02*
X158495000Y-139135000D01*
X157735000Y-138705000D02*
X157735000Y-139135000D01*
X156845000Y-139135000D02*
X154305000Y-139135000D01*
X154305000Y-139135000D02*
X154305000Y-141755000D01*
X154305000Y-141755000D02*
X156845000Y-141755000D01*
X156845000Y-141755000D02*
X156845000Y-139135000D01*
X155955000Y-141755000D02*
X155195000Y-141755000D01*
X155195000Y-141755000D02*
X155195000Y-147755000D01*
X155195000Y-147755000D02*
X155955000Y-147755000D01*
X155955000Y-147755000D02*
X155955000Y-141755000D01*
X155955000Y-138705000D02*
X155955000Y-139135000D01*
X155195000Y-138705000D02*
X155195000Y-139135000D01*
X154305000Y-139135000D02*
X151765000Y-139135000D01*
X151765000Y-139135000D02*
X151765000Y-141755000D01*
X151765000Y-141755000D02*
X154305000Y-141755000D01*
X154305000Y-141755000D02*
X154305000Y-139135000D01*
X153415000Y-141755000D02*
X152655000Y-141755000D01*
X152655000Y-141755000D02*
X152655000Y-147755000D01*
X152655000Y-147755000D02*
X153415000Y-147755000D01*
X153415000Y-147755000D02*
X153415000Y-141755000D01*
X153415000Y-138705000D02*
X153415000Y-139135000D01*
X152655000Y-138705000D02*
X152655000Y-139135000D01*
X151765000Y-139135000D02*
X149225000Y-139135000D01*
X149225000Y-139135000D02*
X149225000Y-141755000D01*
X149225000Y-141755000D02*
X151765000Y-141755000D01*
X151765000Y-141755000D02*
X151765000Y-139135000D01*
X150875000Y-141755000D02*
X150115000Y-141755000D01*
X150115000Y-141755000D02*
X150115000Y-147755000D01*
X150115000Y-147755000D02*
X150875000Y-147755000D01*
X150875000Y-147755000D02*
X150875000Y-141755000D01*
X150875000Y-138705000D02*
X150875000Y-139135000D01*
X150115000Y-138705000D02*
X150115000Y-139135000D01*
X149225000Y-139135000D02*
X146685000Y-139135000D01*
X146685000Y-139135000D02*
X146685000Y-141755000D01*
X146685000Y-141755000D02*
X149225000Y-141755000D01*
X149225000Y-141755000D02*
X149225000Y-139135000D01*
X148335000Y-141755000D02*
X147575000Y-141755000D01*
X147575000Y-141755000D02*
X147575000Y-147755000D01*
X147575000Y-147755000D02*
X148335000Y-147755000D01*
X148335000Y-147755000D02*
X148335000Y-141755000D01*
X148335000Y-138705000D02*
X148335000Y-139135000D01*
X147575000Y-138705000D02*
X147575000Y-139135000D01*
X146685000Y-139135000D02*
X144145000Y-139135000D01*
X144145000Y-139135000D02*
X144145000Y-141755000D01*
X144145000Y-141755000D02*
X146685000Y-141755000D01*
X146685000Y-141755000D02*
X146685000Y-139135000D01*
X145795000Y-141755000D02*
X145035000Y-141755000D01*
X145035000Y-141755000D02*
X145035000Y-147755000D01*
X145035000Y-147755000D02*
X145795000Y-147755000D01*
X145795000Y-147755000D02*
X145795000Y-141755000D01*
X145795000Y-138705000D02*
X145795000Y-139135000D01*
X145035000Y-138705000D02*
X145035000Y-139135000D01*
X144145000Y-139135000D02*
X141605000Y-139135000D01*
X141605000Y-139135000D02*
X141605000Y-141755000D01*
X141605000Y-141755000D02*
X144145000Y-141755000D01*
X144145000Y-141755000D02*
X144145000Y-139135000D01*
X143255000Y-141755000D02*
X142495000Y-141755000D01*
X142495000Y-141755000D02*
X142495000Y-147755000D01*
X142495000Y-147755000D02*
X143255000Y-147755000D01*
X143255000Y-147755000D02*
X143255000Y-141755000D01*
X143255000Y-138705000D02*
X143255000Y-139135000D01*
X142495000Y-138705000D02*
X142495000Y-139135000D01*
X141605000Y-139135000D02*
X139065000Y-139135000D01*
X139065000Y-139135000D02*
X139065000Y-141755000D01*
X139065000Y-141755000D02*
X141605000Y-141755000D01*
X141605000Y-141755000D02*
X141605000Y-139135000D01*
X140715000Y-141755000D02*
X139955000Y-141755000D01*
X139955000Y-141755000D02*
X139955000Y-147755000D01*
X139955000Y-147755000D02*
X140715000Y-147755000D01*
X140715000Y-147755000D02*
X140715000Y-141755000D01*
X140715000Y-138705000D02*
X140715000Y-139135000D01*
X139955000Y-138705000D02*
X139955000Y-139135000D01*
X139065000Y-139135000D02*
X136525000Y-139135000D01*
X136525000Y-139135000D02*
X136525000Y-141755000D01*
X136525000Y-141755000D02*
X139065000Y-141755000D01*
X139065000Y-141755000D02*
X139065000Y-139135000D01*
X138175000Y-141755000D02*
X137415000Y-141755000D01*
X137415000Y-141755000D02*
X137415000Y-147755000D01*
X137415000Y-147755000D02*
X138175000Y-147755000D01*
X138175000Y-147755000D02*
X138175000Y-141755000D01*
X138175000Y-138705000D02*
X138175000Y-139135000D01*
X137415000Y-138705000D02*
X137415000Y-139135000D01*
X136525000Y-139135000D02*
X133985000Y-139135000D01*
X133985000Y-139135000D02*
X133985000Y-141755000D01*
X133985000Y-141755000D02*
X136525000Y-141755000D01*
X136525000Y-141755000D02*
X136525000Y-139135000D01*
X135635000Y-141755000D02*
X134875000Y-141755000D01*
X134875000Y-141755000D02*
X134875000Y-147755000D01*
X134875000Y-147755000D02*
X135635000Y-147755000D01*
X135635000Y-147755000D02*
X135635000Y-141755000D01*
X135635000Y-138705000D02*
X135635000Y-139135000D01*
X134875000Y-138705000D02*
X134875000Y-139135000D01*
X133985000Y-139135000D02*
X131445000Y-139135000D01*
X131445000Y-139135000D02*
X131445000Y-141755000D01*
X131445000Y-141755000D02*
X133985000Y-141755000D01*
X133985000Y-141755000D02*
X133985000Y-139135000D01*
X133095000Y-141755000D02*
X132335000Y-141755000D01*
X132335000Y-141755000D02*
X132335000Y-147755000D01*
X132335000Y-147755000D02*
X133095000Y-147755000D01*
X133095000Y-147755000D02*
X133095000Y-141755000D01*
X133095000Y-138705000D02*
X133095000Y-139135000D01*
X132335000Y-138705000D02*
X132335000Y-139135000D01*
X131445000Y-139135000D02*
X128905000Y-139135000D01*
X128905000Y-139135000D02*
X128905000Y-141755000D01*
X128905000Y-141755000D02*
X131445000Y-141755000D01*
X131445000Y-141755000D02*
X131445000Y-139135000D01*
X130555000Y-141755000D02*
X129795000Y-141755000D01*
X129795000Y-141755000D02*
X129795000Y-147755000D01*
X129795000Y-147755000D02*
X130555000Y-147755000D01*
X130555000Y-147755000D02*
X130555000Y-141755000D01*
X130555000Y-138705000D02*
X130555000Y-139135000D01*
X129795000Y-138705000D02*
X129795000Y-139135000D01*
X128905000Y-139135000D02*
X126365000Y-139135000D01*
X126365000Y-139135000D02*
X126365000Y-141755000D01*
X126365000Y-141755000D02*
X128905000Y-141755000D01*
X128905000Y-141755000D02*
X128905000Y-139135000D01*
X128015000Y-141755000D02*
X127255000Y-141755000D01*
X127255000Y-141755000D02*
X127255000Y-147755000D01*
X127255000Y-147755000D02*
X128015000Y-147755000D01*
X128015000Y-147755000D02*
X128015000Y-141755000D01*
X128015000Y-138705000D02*
X128015000Y-139135000D01*
X127255000Y-138705000D02*
X127255000Y-139135000D01*
X126365000Y-139135000D02*
X123825000Y-139135000D01*
X123825000Y-139135000D02*
X123825000Y-141755000D01*
X123825000Y-141755000D02*
X126365000Y-141755000D01*
X126365000Y-141755000D02*
X126365000Y-139135000D01*
X125475000Y-141755000D02*
X124715000Y-141755000D01*
X124715000Y-141755000D02*
X124715000Y-147755000D01*
X124715000Y-147755000D02*
X125475000Y-147755000D01*
X125475000Y-147755000D02*
X125475000Y-141755000D01*
X125475000Y-138705000D02*
X125475000Y-139135000D01*
X124715000Y-138705000D02*
X124715000Y-139135000D01*
X123825000Y-139135000D02*
X121285000Y-139135000D01*
X121285000Y-139135000D02*
X121285000Y-141755000D01*
X121285000Y-141755000D02*
X123825000Y-141755000D01*
X123825000Y-141755000D02*
X123825000Y-139135000D01*
X122935000Y-141755000D02*
X122175000Y-141755000D01*
X122175000Y-141755000D02*
X122175000Y-147755000D01*
X122175000Y-147755000D02*
X122935000Y-147755000D01*
X122935000Y-147755000D02*
X122935000Y-141755000D01*
X122935000Y-138705000D02*
X122935000Y-139135000D01*
X122175000Y-138705000D02*
X122175000Y-139135000D01*
X121285000Y-139135000D02*
X118745000Y-139135000D01*
X118745000Y-139135000D02*
X118745000Y-141755000D01*
X118745000Y-141755000D02*
X121285000Y-141755000D01*
X121285000Y-141755000D02*
X121285000Y-139135000D01*
X120395000Y-141755000D02*
X119635000Y-141755000D01*
X119635000Y-141755000D02*
X119635000Y-147755000D01*
X119635000Y-147755000D02*
X120395000Y-147755000D01*
X120395000Y-147755000D02*
X120395000Y-141755000D01*
X120395000Y-138705000D02*
X120395000Y-139135000D01*
X119635000Y-138705000D02*
X119635000Y-139135000D01*
X118745000Y-139135000D02*
X116145000Y-139135000D01*
X116145000Y-139135000D02*
X116145000Y-141755000D01*
X116145000Y-141755000D02*
X118745000Y-141755000D01*
X118745000Y-141755000D02*
X118745000Y-139135000D01*
X117855000Y-141755000D02*
X117095000Y-141755000D01*
X117095000Y-141755000D02*
X117095000Y-147755000D01*
X117095000Y-147755000D02*
X117855000Y-147755000D01*
X117855000Y-147755000D02*
X117855000Y-141755000D01*
X117855000Y-138705000D02*
X117855000Y-139135000D01*
X117095000Y-138705000D02*
X117095000Y-139135000D01*
X213995000Y-136525000D02*
X215265000Y-136525000D01*
X215265000Y-136525000D02*
X215265000Y-137795000D01*
X212765000Y-106010000D02*
X210145000Y-106010000D01*
X210145000Y-106010000D02*
X210145000Y-112430000D01*
X210145000Y-112430000D02*
X212765000Y-112430000D01*
X212765000Y-112430000D02*
X212765000Y-106010000D01*
X211455000Y-105120000D02*
X211455000Y-106010000D01*
X211455000Y-113320000D02*
X211455000Y-112430000D01*
X169580000Y-51475000D02*
X169580000Y-48855000D01*
X169580000Y-48855000D02*
X163160000Y-48855000D01*
X163160000Y-48855000D02*
X163160000Y-51475000D01*
X163160000Y-51475000D02*
X169580000Y-51475000D01*
X170470000Y-50165000D02*
X169580000Y-50165000D01*
X162270000Y-50165000D02*
X163160000Y-50165000D01*
X169580000Y-56555000D02*
X169580000Y-53935000D01*
X169580000Y-53935000D02*
X163160000Y-53935000D01*
X163160000Y-53935000D02*
X163160000Y-56555000D01*
X163160000Y-56555000D02*
X169580000Y-56555000D01*
X170470000Y-55245000D02*
X169580000Y-55245000D01*
X162270000Y-55245000D02*
X163160000Y-55245000D01*
X163160000Y-59015000D02*
X163160000Y-61635000D01*
X163160000Y-61635000D02*
X169580000Y-61635000D01*
X169580000Y-61635000D02*
X169580000Y-59015000D01*
X169580000Y-59015000D02*
X163160000Y-59015000D01*
X162270000Y-60325000D02*
X163160000Y-60325000D01*
X170470000Y-60325000D02*
X169580000Y-60325000D01*
X180305000Y-53300000D02*
X180305000Y-55920000D01*
X180305000Y-55920000D02*
X186725000Y-55920000D01*
X186725000Y-55920000D02*
X186725000Y-53300000D01*
X186725000Y-53300000D02*
X180305000Y-53300000D01*
X179415000Y-54610000D02*
X180305000Y-54610000D01*
X187615000Y-54610000D02*
X186725000Y-54610000D01*
X145455000Y-119345000D02*
X142835000Y-119345000D01*
X142835000Y-119345000D02*
X142835000Y-125765000D01*
X142835000Y-125765000D02*
X145455000Y-125765000D01*
X145455000Y-125765000D02*
X145455000Y-119345000D01*
X144145000Y-118455000D02*
X144145000Y-119345000D01*
X144145000Y-126655000D02*
X144145000Y-125765000D01*
X142835000Y-112430000D02*
X145455000Y-112430000D01*
X145455000Y-112430000D02*
X145455000Y-106010000D01*
X145455000Y-106010000D02*
X142835000Y-106010000D01*
X142835000Y-106010000D02*
X142835000Y-112430000D01*
X144145000Y-113320000D02*
X144145000Y-112430000D01*
X144145000Y-105120000D02*
X144145000Y-106010000D01*
X142835000Y-92110000D02*
X145455000Y-92110000D01*
X145455000Y-92110000D02*
X145455000Y-85690000D01*
X145455000Y-85690000D02*
X142835000Y-85690000D01*
X142835000Y-85690000D02*
X142835000Y-92110000D01*
X144145000Y-93000000D02*
X144145000Y-92110000D01*
X144145000Y-84800000D02*
X144145000Y-85690000D01*
X180305000Y-59650000D02*
X180305000Y-62270000D01*
X180305000Y-62270000D02*
X186725000Y-62270000D01*
X186725000Y-62270000D02*
X186725000Y-59650000D01*
X186725000Y-59650000D02*
X180305000Y-59650000D01*
X179415000Y-60960000D02*
X180305000Y-60960000D01*
X187615000Y-60960000D02*
X186725000Y-60960000D01*
X204105000Y-40855000D02*
X199605000Y-40855000D01*
X205355000Y-44855000D02*
X205355000Y-43355000D01*
X199605000Y-47355000D02*
X204105000Y-47355000D01*
X198355000Y-43355000D02*
X198355000Y-44855000D01*
X176165000Y-94495000D02*
X170585000Y-94495000D01*
X170585000Y-94495000D02*
X170585000Y-130295000D01*
X170585000Y-130295000D02*
X183745000Y-130295000D01*
X183745000Y-130295000D02*
X183745000Y-94495000D01*
X183745000Y-94495000D02*
X178165000Y-94495000D01*
X168155000Y-94495000D02*
X168155000Y-130295000D01*
X168155000Y-130295000D02*
X186175000Y-130295000D01*
X186175000Y-130295000D02*
X186175000Y-94495000D01*
X186175000Y-94495000D02*
X168155000Y-94495000D01*
X178165000Y-94495000D02*
G75*
G02X176165000Y-94495000I-1000000J0D01*
G01*
X202835000Y-70365000D02*
X201065000Y-70365000D01*
X201065000Y-70365000D02*
X201065000Y-88385000D01*
X201065000Y-88385000D02*
X206605000Y-88385000D01*
X206605000Y-88385000D02*
X206605000Y-70365000D01*
X206605000Y-70365000D02*
X204835000Y-70365000D01*
X198635000Y-70365000D02*
X198635000Y-88385000D01*
X198635000Y-88385000D02*
X209035000Y-88385000D01*
X209035000Y-88385000D02*
X209035000Y-70365000D01*
X209035000Y-70365000D02*
X198635000Y-70365000D01*
X204835000Y-70365000D02*
G75*
G02X202835000Y-70365000I-1000000J0D01*
G01*
X187595000Y-70365000D02*
X185825000Y-70365000D01*
X185825000Y-70365000D02*
X185825000Y-88385000D01*
X185825000Y-88385000D02*
X191365000Y-88385000D01*
X191365000Y-88385000D02*
X191365000Y-70365000D01*
X191365000Y-70365000D02*
X189595000Y-70365000D01*
X189595000Y-70365000D02*
G75*
G02X187595000Y-70365000I-1000000J0D01*
G01*
X131715000Y-81160000D02*
X126135000Y-81160000D01*
X126135000Y-81160000D02*
X126135000Y-132200000D01*
X126135000Y-132200000D02*
X139295000Y-132200000D01*
X139295000Y-132200000D02*
X139295000Y-81160000D01*
X139295000Y-81160000D02*
X133715000Y-81160000D01*
X123705000Y-81160000D02*
X123705000Y-132200000D01*
X123705000Y-132200000D02*
X141725000Y-132200000D01*
X141725000Y-132200000D02*
X141725000Y-81160000D01*
X141725000Y-81160000D02*
X123705000Y-81160000D01*
X133715000Y-81160000D02*
G75*
G02X131715000Y-81160000I-1000000J0D01*
G01*
X122435000Y-70215000D02*
X122435000Y-71985000D01*
X122435000Y-71985000D02*
X158235000Y-71985000D01*
X158235000Y-71985000D02*
X158235000Y-66445000D01*
X158235000Y-66445000D02*
X122435000Y-66445000D01*
X122435000Y-66445000D02*
X122435000Y-68215000D01*
X122435000Y-74415000D02*
X158235000Y-74415000D01*
X158235000Y-74415000D02*
X158235000Y-64015000D01*
X158235000Y-64015000D02*
X122435000Y-64015000D01*
X122435000Y-64015000D02*
X122435000Y-74415000D01*
X122435000Y-68215000D02*
G75*
G02X122435000Y-70215000I0J-1000000D01*
G01*
X143165000Y-60310000D02*
X143165000Y-48160000D01*
X123015000Y-61060000D02*
X142415000Y-61060000D01*
X122265000Y-48910000D02*
X122265000Y-60310000D01*
X143165000Y-48160000D02*
X123015000Y-48160000D01*
X123015000Y-48160000D02*
G75*
G03X122265000Y-48910000I0J-750000D01*
G01*
X122265000Y-60310000D02*
G75*
G03X123015000Y-61060000I750000J0D01*
G01*
X142415000Y-61060000D02*
G75*
G03X143165000Y-60310000I0J750000D01*
G01*
X172355000Y-70365000D02*
X170585000Y-70365000D01*
X170585000Y-70365000D02*
X170585000Y-90925000D01*
X170585000Y-90925000D02*
X176125000Y-90925000D01*
X176125000Y-90925000D02*
X176125000Y-70365000D01*
X176125000Y-70365000D02*
X174355000Y-70365000D01*
X168155000Y-70365000D02*
X168155000Y-90925000D01*
X168155000Y-90925000D02*
X178555000Y-90925000D01*
X178555000Y-90925000D02*
X178555000Y-70365000D01*
X178555000Y-70365000D02*
X168155000Y-70365000D01*
X174355000Y-70365000D02*
G75*
G02X172355000Y-70365000I-1000000J0D01*
G01*
X199025000Y-94495000D02*
X193445000Y-94495000D01*
X193445000Y-94495000D02*
X193445000Y-130295000D01*
X193445000Y-130295000D02*
X206605000Y-130295000D01*
X206605000Y-130295000D02*
X206605000Y-94495000D01*
X206605000Y-94495000D02*
X201025000Y-94495000D01*
X191015000Y-94495000D02*
X191015000Y-130295000D01*
X191015000Y-130295000D02*
X209035000Y-130295000D01*
X209035000Y-130295000D02*
X209035000Y-94495000D01*
X209035000Y-94495000D02*
X191015000Y-94495000D01*
X201025000Y-94495000D02*
G75*
G02X199025000Y-94495000I-1000000J0D01*
G01*
X149495000Y-48140000D02*
X147725000Y-48140000D01*
X147725000Y-48140000D02*
X147725000Y-58540000D01*
X147725000Y-58540000D02*
X153265000Y-58540000D01*
X153265000Y-58540000D02*
X153265000Y-48140000D01*
X153265000Y-48140000D02*
X151495000Y-48140000D01*
X151495000Y-48140000D02*
G75*
G02X149495000Y-48140000I-1000000J0D01*
G01*
X182285000Y-71845000D02*
X182285000Y-76665000D01*
X179665000Y-71845000D02*
X179665000Y-76665000D01*
X182285000Y-71845000D02*
X181971000Y-71845000D01*
X179979000Y-71845000D02*
X179665000Y-71845000D01*
X182285000Y-76665000D02*
X181971000Y-76665000D01*
X179979000Y-76665000D02*
X179665000Y-76665000D01*
X166354000Y-63990000D02*
X166354000Y-68090000D01*
X166394000Y-63990000D02*
X166394000Y-68090000D01*
X166434000Y-63991000D02*
X166434000Y-68089000D01*
X166474000Y-63993000D02*
X166474000Y-68087000D01*
X166514000Y-63996000D02*
X166514000Y-68084000D01*
X166554000Y-63999000D02*
X166554000Y-68081000D01*
X166594000Y-64003000D02*
X166594000Y-65260000D01*
X166594000Y-66820000D02*
X166594000Y-68077000D01*
X166634000Y-64008000D02*
X166634000Y-65260000D01*
X166634000Y-66820000D02*
X166634000Y-68072000D01*
X166674000Y-64014000D02*
X166674000Y-65260000D01*
X166674000Y-66820000D02*
X166674000Y-68066000D01*
X166714000Y-64021000D02*
X166714000Y-65260000D01*
X166714000Y-66820000D02*
X166714000Y-68059000D01*
X166754000Y-64028000D02*
X166754000Y-65260000D01*
X166754000Y-66820000D02*
X166754000Y-68052000D01*
X166794000Y-64036000D02*
X166794000Y-65260000D01*
X166794000Y-66820000D02*
X166794000Y-68044000D01*
X166834000Y-64045000D02*
X166834000Y-65260000D01*
X166834000Y-66820000D02*
X166834000Y-68035000D01*
X166874000Y-64055000D02*
X166874000Y-65260000D01*
X166874000Y-66820000D02*
X166874000Y-68025000D01*
X166914000Y-64066000D02*
X166914000Y-65260000D01*
X166914000Y-66820000D02*
X166914000Y-68014000D01*
X166954000Y-64077000D02*
X166954000Y-65260000D01*
X166954000Y-66820000D02*
X166954000Y-68003000D01*
X166994000Y-64090000D02*
X166994000Y-65260000D01*
X166994000Y-66820000D02*
X166994000Y-67990000D01*
X167034000Y-64103000D02*
X167034000Y-65260000D01*
X167034000Y-66820000D02*
X167034000Y-67977000D01*
X167075000Y-64117000D02*
X167075000Y-65260000D01*
X167075000Y-66820000D02*
X167075000Y-67963000D01*
X167115000Y-64133000D02*
X167115000Y-65260000D01*
X167115000Y-66820000D02*
X167115000Y-67947000D01*
X167155000Y-64149000D02*
X167155000Y-65260000D01*
X167155000Y-66820000D02*
X167155000Y-67931000D01*
X167195000Y-64166000D02*
X167195000Y-65260000D01*
X167195000Y-66820000D02*
X167195000Y-67914000D01*
X167235000Y-64184000D02*
X167235000Y-65260000D01*
X167235000Y-66820000D02*
X167235000Y-67896000D01*
X167275000Y-64203000D02*
X167275000Y-65260000D01*
X167275000Y-66820000D02*
X167275000Y-67877000D01*
X167315000Y-64223000D02*
X167315000Y-65260000D01*
X167315000Y-66820000D02*
X167315000Y-67857000D01*
X167355000Y-64244000D02*
X167355000Y-65260000D01*
X167355000Y-66820000D02*
X167355000Y-67836000D01*
X167395000Y-64267000D02*
X167395000Y-65260000D01*
X167395000Y-66820000D02*
X167395000Y-67813000D01*
X167435000Y-64290000D02*
X167435000Y-65260000D01*
X167435000Y-66820000D02*
X167435000Y-67790000D01*
X167475000Y-64315000D02*
X167475000Y-65260000D01*
X167475000Y-66820000D02*
X167475000Y-67765000D01*
X167515000Y-64341000D02*
X167515000Y-65260000D01*
X167515000Y-66820000D02*
X167515000Y-67739000D01*
X167555000Y-64368000D02*
X167555000Y-65260000D01*
X167555000Y-66820000D02*
X167555000Y-67712000D01*
X167595000Y-64397000D02*
X167595000Y-65260000D01*
X167595000Y-66820000D02*
X167595000Y-67683000D01*
X167635000Y-64427000D02*
X167635000Y-65260000D01*
X167635000Y-66820000D02*
X167635000Y-67653000D01*
X167675000Y-64459000D02*
X167675000Y-65260000D01*
X167675000Y-66820000D02*
X167675000Y-67621000D01*
X167715000Y-64493000D02*
X167715000Y-65260000D01*
X167715000Y-66820000D02*
X167715000Y-67587000D01*
X167755000Y-64528000D02*
X167755000Y-65260000D01*
X167755000Y-66820000D02*
X167755000Y-67552000D01*
X167795000Y-64565000D02*
X167795000Y-65260000D01*
X167795000Y-66820000D02*
X167795000Y-67515000D01*
X167835000Y-64604000D02*
X167835000Y-65260000D01*
X167835000Y-66820000D02*
X167835000Y-67476000D01*
X167875000Y-64645000D02*
X167875000Y-65260000D01*
X167875000Y-66820000D02*
X167875000Y-67435000D01*
X167915000Y-64689000D02*
X167915000Y-65260000D01*
X167915000Y-66820000D02*
X167915000Y-67391000D01*
X167955000Y-64735000D02*
X167955000Y-65260000D01*
X167955000Y-66820000D02*
X167955000Y-67345000D01*
X167995000Y-64784000D02*
X167995000Y-65260000D01*
X167995000Y-66820000D02*
X167995000Y-67296000D01*
X168035000Y-64836000D02*
X168035000Y-65260000D01*
X168035000Y-66820000D02*
X168035000Y-67244000D01*
X168075000Y-64892000D02*
X168075000Y-65260000D01*
X168075000Y-66820000D02*
X168075000Y-67188000D01*
X168115000Y-64952000D02*
X168115000Y-65260000D01*
X168115000Y-66820000D02*
X168115000Y-67128000D01*
X168155000Y-65017000D02*
X168155000Y-67063000D01*
X168195000Y-65088000D02*
X168195000Y-66992000D01*
X168235000Y-65166000D02*
X168235000Y-66914000D01*
X168275000Y-65254000D02*
X168275000Y-66826000D01*
X168315000Y-65354000D02*
X168315000Y-66726000D01*
X168355000Y-65473000D02*
X168355000Y-66607000D01*
X168395000Y-65625000D02*
X168395000Y-66455000D01*
X168435000Y-65875000D02*
X168435000Y-66205000D01*
X163654000Y-66040000D02*
X164554000Y-66040000D01*
X164104000Y-65590000D02*
X164104000Y-66490000D01*
X168293361Y-65260911D02*
G75*
G03X164415005Y-65260000I-1939361J-779089D01*
G01*
X168293361Y-66819089D02*
G75*
G02X164415005Y-66820000I-1939361J779089D01*
G01*
X168293361Y-66819089D02*
G75*
G03X168292995Y-65260000I-1939361J779089D01*
G01*
X196890000Y-82640000D02*
X196890000Y-87460000D01*
X194270000Y-82640000D02*
X194270000Y-87460000D01*
X196890000Y-82640000D02*
X196576000Y-82640000D01*
X194584000Y-82640000D02*
X194270000Y-82640000D01*
X196890000Y-87460000D02*
X196576000Y-87460000D01*
X194584000Y-87460000D02*
X194270000Y-87460000D01*
X213106000Y-132080000D02*
G75*
G03X213106000Y-132080000I-2286000J0D01*
G01*
X122936000Y-132080000D02*
G75*
G03X122936000Y-132080000I-2286000J0D01*
G01*
X213106000Y-43815000D02*
G75*
G03X213106000Y-43815000I-2286000J0D01*
G01*
X122936000Y-43815000D02*
G75*
G03X122936000Y-43815000I-2286000J0D01*
G01*
X121980000Y-83820000D02*
X121980000Y-81220000D01*
X121980000Y-81220000D02*
X119320000Y-81220000D01*
X119320000Y-81220000D02*
X119320000Y-83820000D01*
X119320000Y-83820000D02*
X121980000Y-83820000D01*
X121980000Y-85090000D02*
X121980000Y-86420000D01*
X121980000Y-86420000D02*
X120650000Y-86420000D01*
X188780000Y-44449538D02*
G75*
G03X194330000Y-45994830I2990000J-462D01*
G01*
X188780000Y-44450462D02*
G75*
G02X194330000Y-42905170I2990000J462D01*
G01*
X194270000Y-44450000D02*
G75*
G03X194270000Y-44450000I-2500000J0D01*
G01*
X194330000Y-45995000D02*
X194330000Y-42905000D01*
X183445000Y-47050000D02*
X183445000Y-44450000D01*
X183445000Y-44450000D02*
X180825000Y-44450000D01*
X180825000Y-44450000D02*
X180825000Y-47050000D01*
X180825000Y-47050000D02*
X183445000Y-47050000D01*
X180825000Y-46100000D02*
X180825000Y-45340000D01*
X180825000Y-45340000D02*
X174825000Y-45340000D01*
X174825000Y-45340000D02*
X174825000Y-46100000D01*
X174825000Y-46100000D02*
X180825000Y-46100000D01*
X183875000Y-46100000D02*
X183445000Y-46100000D01*
X183875000Y-45340000D02*
X183445000Y-45340000D01*
X180825000Y-45980000D02*
X174825000Y-45980000D01*
X180825000Y-45860000D02*
X174825000Y-45860000D01*
X180825000Y-45740000D02*
X174825000Y-45740000D01*
X180825000Y-45620000D02*
X174825000Y-45620000D01*
X180825000Y-45500000D02*
X174825000Y-45500000D01*
X180825000Y-45380000D02*
X174825000Y-45380000D01*
X183445000Y-44450000D02*
X183445000Y-41850000D01*
X183445000Y-41850000D02*
X180825000Y-41850000D01*
X180825000Y-41850000D02*
X180825000Y-44450000D01*
X180825000Y-44450000D02*
X183445000Y-44450000D01*
X180825000Y-43560000D02*
X180825000Y-42800000D01*
X180825000Y-42800000D02*
X174825000Y-42800000D01*
X174825000Y-42800000D02*
X174825000Y-43560000D01*
X174825000Y-43560000D02*
X180825000Y-43560000D01*
X183875000Y-43560000D02*
X183445000Y-43560000D01*
X183875000Y-42800000D02*
X183445000Y-42800000D01*
X186055000Y-45720000D02*
X186055000Y-46990000D01*
X186055000Y-46990000D02*
X184785000Y-46990000D01*
X193675000Y-93405000D02*
X198815000Y-93405000D01*
X198815000Y-93405000D02*
X198815000Y-90745000D01*
X198815000Y-90745000D02*
X193675000Y-90745000D01*
X193675000Y-90745000D02*
X193675000Y-93405000D01*
X192405000Y-93405000D02*
X191075000Y-93405000D01*
X191075000Y-93405000D02*
X191075000Y-92075000D01*
X203835000Y-93405000D02*
X208975000Y-93405000D01*
X208975000Y-93405000D02*
X208975000Y-90745000D01*
X208975000Y-90745000D02*
X203835000Y-90745000D01*
X203835000Y-90745000D02*
X203835000Y-93405000D01*
X202565000Y-93405000D02*
X201235000Y-93405000D01*
X201235000Y-93405000D02*
X201235000Y-92075000D01*
X161325000Y-78145000D02*
X161325000Y-75525000D01*
X161325000Y-75525000D02*
X154905000Y-75525000D01*
X154905000Y-75525000D02*
X154905000Y-78145000D01*
X154905000Y-78145000D02*
X161325000Y-78145000D01*
X162215000Y-76835000D02*
X161325000Y-76835000D01*
X154015000Y-76835000D02*
X154905000Y-76835000D01*
D13*
X154813095Y-106132381D02*
X154813095Y-106941905D01*
X154860714Y-107037143D01*
X154908333Y-107084762D01*
X155003571Y-107132381D01*
X155194048Y-107132381D01*
X155289286Y-107084762D01*
X155336905Y-107037143D01*
X155384524Y-106941905D01*
X155384524Y-106132381D01*
X156384524Y-107132381D02*
X155813095Y-107132381D01*
X156098809Y-107132381D02*
X156098809Y-106132381D01*
X156003571Y-106275238D01*
X155908333Y-106370476D01*
X155813095Y-106418095D01*
X152241667Y-132652381D02*
X152479762Y-133652381D01*
X152670239Y-132938095D01*
X152860715Y-133652381D01*
X153098810Y-132652381D01*
X153479762Y-133652381D02*
X153479762Y-132652381D01*
X153717857Y-132652381D01*
X153860715Y-132700000D01*
X153955953Y-132795238D01*
X154003572Y-132890476D01*
X154051191Y-133080952D01*
X154051191Y-133223810D01*
X154003572Y-133414286D01*
X153955953Y-133509524D01*
X153860715Y-133604762D01*
X153717857Y-133652381D01*
X153479762Y-133652381D01*
X154908334Y-132652381D02*
X154717857Y-132652381D01*
X154622619Y-132700000D01*
X154575000Y-132747619D01*
X154479762Y-132890476D01*
X154432143Y-133080952D01*
X154432143Y-133461905D01*
X154479762Y-133557143D01*
X154527381Y-133604762D01*
X154622619Y-133652381D01*
X154813096Y-133652381D01*
X154908334Y-133604762D01*
X154955953Y-133557143D01*
X155003572Y-133461905D01*
X155003572Y-133223810D01*
X154955953Y-133128571D01*
X154908334Y-133080952D01*
X154813096Y-133033333D01*
X154622619Y-133033333D01*
X154527381Y-133080952D01*
X154479762Y-133128571D01*
X154432143Y-133223810D01*
X155908334Y-132652381D02*
X155432143Y-132652381D01*
X155384524Y-133128571D01*
X155432143Y-133080952D01*
X155527381Y-133033333D01*
X155765477Y-133033333D01*
X155860715Y-133080952D01*
X155908334Y-133128571D01*
X155955953Y-133223810D01*
X155955953Y-133461905D01*
X155908334Y-133557143D01*
X155860715Y-133604762D01*
X155765477Y-133652381D01*
X155527381Y-133652381D01*
X155432143Y-133604762D01*
X155384524Y-133557143D01*
X156955953Y-133557143D02*
X156908334Y-133604762D01*
X156765477Y-133652381D01*
X156670239Y-133652381D01*
X156527381Y-133604762D01*
X156432143Y-133509524D01*
X156384524Y-133414286D01*
X156336905Y-133223810D01*
X156336905Y-133080952D01*
X156384524Y-132890476D01*
X156432143Y-132795238D01*
X156527381Y-132700000D01*
X156670239Y-132652381D01*
X156765477Y-132652381D01*
X156908334Y-132700000D01*
X156955953Y-132747619D01*
X157575000Y-132652381D02*
X157670239Y-132652381D01*
X157765477Y-132700000D01*
X157813096Y-132747619D01*
X157860715Y-132842857D01*
X157908334Y-133033333D01*
X157908334Y-133271429D01*
X157860715Y-133461905D01*
X157813096Y-133557143D01*
X157765477Y-133604762D01*
X157670239Y-133652381D01*
X157575000Y-133652381D01*
X157479762Y-133604762D01*
X157432143Y-133557143D01*
X157384524Y-133461905D01*
X157336905Y-133271429D01*
X157336905Y-133033333D01*
X157384524Y-132842857D01*
X157432143Y-132747619D01*
X157479762Y-132700000D01*
X157575000Y-132652381D01*
X158289286Y-132747619D02*
X158336905Y-132700000D01*
X158432143Y-132652381D01*
X158670239Y-132652381D01*
X158765477Y-132700000D01*
X158813096Y-132747619D01*
X158860715Y-132842857D01*
X158860715Y-132938095D01*
X158813096Y-133080952D01*
X158241667Y-133652381D01*
X158860715Y-133652381D01*
X143978334Y-99417143D02*
X143930715Y-99464762D01*
X143787858Y-99512381D01*
X143692620Y-99512381D01*
X143549762Y-99464762D01*
X143454524Y-99369524D01*
X143406905Y-99274286D01*
X143359286Y-99083810D01*
X143359286Y-98940952D01*
X143406905Y-98750476D01*
X143454524Y-98655238D01*
X143549762Y-98560000D01*
X143692620Y-98512381D01*
X143787858Y-98512381D01*
X143930715Y-98560000D01*
X143978334Y-98607619D01*
X144930715Y-99512381D02*
X144359286Y-99512381D01*
X144645000Y-99512381D02*
X144645000Y-98512381D01*
X144549762Y-98655238D01*
X144454524Y-98750476D01*
X144359286Y-98798095D01*
X188428334Y-98782143D02*
X188380715Y-98829762D01*
X188237858Y-98877381D01*
X188142620Y-98877381D01*
X187999762Y-98829762D01*
X187904524Y-98734524D01*
X187856905Y-98639286D01*
X187809286Y-98448810D01*
X187809286Y-98305952D01*
X187856905Y-98115476D01*
X187904524Y-98020238D01*
X187999762Y-97925000D01*
X188142620Y-97877381D01*
X188237858Y-97877381D01*
X188380715Y-97925000D01*
X188428334Y-97972619D01*
X188809286Y-97972619D02*
X188856905Y-97925000D01*
X188952143Y-97877381D01*
X189190239Y-97877381D01*
X189285477Y-97925000D01*
X189333096Y-97972619D01*
X189380715Y-98067857D01*
X189380715Y-98163095D01*
X189333096Y-98305952D01*
X188761667Y-98877381D01*
X189380715Y-98877381D01*
X211288334Y-98782143D02*
X211240715Y-98829762D01*
X211097858Y-98877381D01*
X211002620Y-98877381D01*
X210859762Y-98829762D01*
X210764524Y-98734524D01*
X210716905Y-98639286D01*
X210669286Y-98448810D01*
X210669286Y-98305952D01*
X210716905Y-98115476D01*
X210764524Y-98020238D01*
X210859762Y-97925000D01*
X211002620Y-97877381D01*
X211097858Y-97877381D01*
X211240715Y-97925000D01*
X211288334Y-97972619D01*
X212145477Y-98210714D02*
X212145477Y-98877381D01*
X211907381Y-97829762D02*
X211669286Y-98544048D01*
X212288334Y-98544048D01*
X211288334Y-74652143D02*
X211240715Y-74699762D01*
X211097858Y-74747381D01*
X211002620Y-74747381D01*
X210859762Y-74699762D01*
X210764524Y-74604524D01*
X210716905Y-74509286D01*
X210669286Y-74318810D01*
X210669286Y-74175952D01*
X210716905Y-73985476D01*
X210764524Y-73890238D01*
X210859762Y-73795000D01*
X211002620Y-73747381D01*
X211097858Y-73747381D01*
X211240715Y-73795000D01*
X211288334Y-73842619D01*
X212193096Y-73747381D02*
X211716905Y-73747381D01*
X211669286Y-74223571D01*
X211716905Y-74175952D01*
X211812143Y-74128333D01*
X212050239Y-74128333D01*
X212145477Y-74175952D01*
X212193096Y-74223571D01*
X212240715Y-74318810D01*
X212240715Y-74556905D01*
X212193096Y-74652143D01*
X212145477Y-74699762D01*
X212050239Y-74747381D01*
X211812143Y-74747381D01*
X211716905Y-74699762D01*
X211669286Y-74652143D01*
X150328334Y-61317143D02*
X150280715Y-61364762D01*
X150137858Y-61412381D01*
X150042620Y-61412381D01*
X149899762Y-61364762D01*
X149804524Y-61269524D01*
X149756905Y-61174286D01*
X149709286Y-60983810D01*
X149709286Y-60840952D01*
X149756905Y-60650476D01*
X149804524Y-60555238D01*
X149899762Y-60460000D01*
X150042620Y-60412381D01*
X150137858Y-60412381D01*
X150280715Y-60460000D01*
X150328334Y-60507619D01*
X151185477Y-60412381D02*
X150995000Y-60412381D01*
X150899762Y-60460000D01*
X150852143Y-60507619D01*
X150756905Y-60650476D01*
X150709286Y-60840952D01*
X150709286Y-61221905D01*
X150756905Y-61317143D01*
X150804524Y-61364762D01*
X150899762Y-61412381D01*
X151090239Y-61412381D01*
X151185477Y-61364762D01*
X151233096Y-61317143D01*
X151280715Y-61221905D01*
X151280715Y-60983810D01*
X151233096Y-60888571D01*
X151185477Y-60840952D01*
X151090239Y-60793333D01*
X150899762Y-60793333D01*
X150804524Y-60840952D01*
X150756905Y-60888571D01*
X150709286Y-60983810D01*
X195413334Y-74652143D02*
X195365715Y-74699762D01*
X195222858Y-74747381D01*
X195127620Y-74747381D01*
X194984762Y-74699762D01*
X194889524Y-74604524D01*
X194841905Y-74509286D01*
X194794286Y-74318810D01*
X194794286Y-74175952D01*
X194841905Y-73985476D01*
X194889524Y-73890238D01*
X194984762Y-73795000D01*
X195127620Y-73747381D01*
X195222858Y-73747381D01*
X195365715Y-73795000D01*
X195413334Y-73842619D01*
X195746667Y-73747381D02*
X196413334Y-73747381D01*
X195984762Y-74747381D01*
X121118334Y-125452143D02*
X121070715Y-125499762D01*
X120927858Y-125547381D01*
X120832620Y-125547381D01*
X120689762Y-125499762D01*
X120594524Y-125404524D01*
X120546905Y-125309286D01*
X120499286Y-125118810D01*
X120499286Y-124975952D01*
X120546905Y-124785476D01*
X120594524Y-124690238D01*
X120689762Y-124595000D01*
X120832620Y-124547381D01*
X120927858Y-124547381D01*
X121070715Y-124595000D01*
X121118334Y-124642619D01*
X121689762Y-124975952D02*
X121594524Y-124928333D01*
X121546905Y-124880714D01*
X121499286Y-124785476D01*
X121499286Y-124737857D01*
X121546905Y-124642619D01*
X121594524Y-124595000D01*
X121689762Y-124547381D01*
X121880239Y-124547381D01*
X121975477Y-124595000D01*
X122023096Y-124642619D01*
X122070715Y-124737857D01*
X122070715Y-124785476D01*
X122023096Y-124880714D01*
X121975477Y-124928333D01*
X121880239Y-124975952D01*
X121689762Y-124975952D01*
X121594524Y-125023571D01*
X121546905Y-125071190D01*
X121499286Y-125166429D01*
X121499286Y-125356905D01*
X121546905Y-125452143D01*
X121594524Y-125499762D01*
X121689762Y-125547381D01*
X121880239Y-125547381D01*
X121975477Y-125499762D01*
X122023096Y-125452143D01*
X122070715Y-125356905D01*
X122070715Y-125166429D01*
X122023096Y-125071190D01*
X121975477Y-125023571D01*
X121880239Y-124975952D01*
X146518334Y-77192143D02*
X146470715Y-77239762D01*
X146327858Y-77287381D01*
X146232620Y-77287381D01*
X146089762Y-77239762D01*
X145994524Y-77144524D01*
X145946905Y-77049286D01*
X145899286Y-76858810D01*
X145899286Y-76715952D01*
X145946905Y-76525476D01*
X145994524Y-76430238D01*
X146089762Y-76335000D01*
X146232620Y-76287381D01*
X146327858Y-76287381D01*
X146470715Y-76335000D01*
X146518334Y-76382619D01*
X146994524Y-77287381D02*
X147185000Y-77287381D01*
X147280239Y-77239762D01*
X147327858Y-77192143D01*
X147423096Y-77049286D01*
X147470715Y-76858810D01*
X147470715Y-76477857D01*
X147423096Y-76382619D01*
X147375477Y-76335000D01*
X147280239Y-76287381D01*
X147089762Y-76287381D01*
X146994524Y-76335000D01*
X146946905Y-76382619D01*
X146899286Y-76477857D01*
X146899286Y-76715952D01*
X146946905Y-76811190D01*
X146994524Y-76858810D01*
X147089762Y-76906429D01*
X147280239Y-76906429D01*
X147375477Y-76858810D01*
X147423096Y-76811190D01*
X147470715Y-76715952D01*
X156837143Y-52427143D02*
X156789524Y-52474762D01*
X156646667Y-52522381D01*
X156551429Y-52522381D01*
X156408571Y-52474762D01*
X156313333Y-52379524D01*
X156265714Y-52284286D01*
X156218095Y-52093810D01*
X156218095Y-51950952D01*
X156265714Y-51760476D01*
X156313333Y-51665238D01*
X156408571Y-51570000D01*
X156551429Y-51522381D01*
X156646667Y-51522381D01*
X156789524Y-51570000D01*
X156837143Y-51617619D01*
X157789524Y-52522381D02*
X157218095Y-52522381D01*
X157503809Y-52522381D02*
X157503809Y-51522381D01*
X157408571Y-51665238D01*
X157313333Y-51760476D01*
X157218095Y-51808095D01*
X158741905Y-52522381D02*
X158170476Y-52522381D01*
X158456190Y-52522381D02*
X158456190Y-51522381D01*
X158360952Y-51665238D01*
X158265714Y-51760476D01*
X158170476Y-51808095D01*
X172807381Y-58118333D02*
X173521667Y-58118333D01*
X173664524Y-58165953D01*
X173759762Y-58261191D01*
X173807381Y-58404048D01*
X173807381Y-58499286D01*
X172902619Y-57689762D02*
X172855000Y-57642143D01*
X172807381Y-57546905D01*
X172807381Y-57308809D01*
X172855000Y-57213571D01*
X172902619Y-57165952D01*
X172997857Y-57118333D01*
X173093095Y-57118333D01*
X173235952Y-57165952D01*
X173807381Y-57737381D01*
X173807381Y-57118333D01*
X215717381Y-142443333D02*
X216431667Y-142443333D01*
X216574524Y-142490953D01*
X216669762Y-142586191D01*
X216717381Y-142729048D01*
X216717381Y-142824286D01*
X215717381Y-142062381D02*
X215717381Y-141443333D01*
X216098333Y-141776667D01*
X216098333Y-141633809D01*
X216145952Y-141538571D01*
X216193571Y-141490952D01*
X216288810Y-141443333D01*
X216526905Y-141443333D01*
X216622143Y-141490952D01*
X216669762Y-141538571D01*
X216717381Y-141633809D01*
X216717381Y-141919524D01*
X216669762Y-142014762D01*
X216622143Y-142062381D01*
X211288334Y-109672381D02*
X210955000Y-109196190D01*
X210716905Y-109672381D02*
X210716905Y-108672381D01*
X211097858Y-108672381D01*
X211193096Y-108720000D01*
X211240715Y-108767619D01*
X211288334Y-108862857D01*
X211288334Y-109005714D01*
X211240715Y-109100952D01*
X211193096Y-109148571D01*
X211097858Y-109196190D01*
X210716905Y-109196190D01*
X212240715Y-109672381D02*
X211669286Y-109672381D01*
X211955000Y-109672381D02*
X211955000Y-108672381D01*
X211859762Y-108815238D01*
X211764524Y-108910476D01*
X211669286Y-108958095D01*
X166203334Y-50617381D02*
X165870000Y-50141190D01*
X165631905Y-50617381D02*
X165631905Y-49617381D01*
X166012858Y-49617381D01*
X166108096Y-49665000D01*
X166155715Y-49712619D01*
X166203334Y-49807857D01*
X166203334Y-49950714D01*
X166155715Y-50045952D01*
X166108096Y-50093571D01*
X166012858Y-50141190D01*
X165631905Y-50141190D01*
X166584286Y-49712619D02*
X166631905Y-49665000D01*
X166727143Y-49617381D01*
X166965239Y-49617381D01*
X167060477Y-49665000D01*
X167108096Y-49712619D01*
X167155715Y-49807857D01*
X167155715Y-49903095D01*
X167108096Y-50045952D01*
X166536667Y-50617381D01*
X167155715Y-50617381D01*
X166203334Y-55697381D02*
X165870000Y-55221190D01*
X165631905Y-55697381D02*
X165631905Y-54697381D01*
X166012858Y-54697381D01*
X166108096Y-54745000D01*
X166155715Y-54792619D01*
X166203334Y-54887857D01*
X166203334Y-55030714D01*
X166155715Y-55125952D01*
X166108096Y-55173571D01*
X166012858Y-55221190D01*
X165631905Y-55221190D01*
X166536667Y-54697381D02*
X167155715Y-54697381D01*
X166822381Y-55078333D01*
X166965239Y-55078333D01*
X167060477Y-55125952D01*
X167108096Y-55173571D01*
X167155715Y-55268810D01*
X167155715Y-55506905D01*
X167108096Y-55602143D01*
X167060477Y-55649762D01*
X166965239Y-55697381D01*
X166679524Y-55697381D01*
X166584286Y-55649762D01*
X166536667Y-55602143D01*
X166203334Y-60777381D02*
X165870000Y-60301190D01*
X165631905Y-60777381D02*
X165631905Y-59777381D01*
X166012858Y-59777381D01*
X166108096Y-59825000D01*
X166155715Y-59872619D01*
X166203334Y-59967857D01*
X166203334Y-60110714D01*
X166155715Y-60205952D01*
X166108096Y-60253571D01*
X166012858Y-60301190D01*
X165631905Y-60301190D01*
X167060477Y-60110714D02*
X167060477Y-60777381D01*
X166822381Y-59729762D02*
X166584286Y-60444048D01*
X167203334Y-60444048D01*
X183348334Y-55062381D02*
X183015000Y-54586190D01*
X182776905Y-55062381D02*
X182776905Y-54062381D01*
X183157858Y-54062381D01*
X183253096Y-54110000D01*
X183300715Y-54157619D01*
X183348334Y-54252857D01*
X183348334Y-54395714D01*
X183300715Y-54490952D01*
X183253096Y-54538571D01*
X183157858Y-54586190D01*
X182776905Y-54586190D01*
X184253096Y-54062381D02*
X183776905Y-54062381D01*
X183729286Y-54538571D01*
X183776905Y-54490952D01*
X183872143Y-54443333D01*
X184110239Y-54443333D01*
X184205477Y-54490952D01*
X184253096Y-54538571D01*
X184300715Y-54633810D01*
X184300715Y-54871905D01*
X184253096Y-54967143D01*
X184205477Y-55014762D01*
X184110239Y-55062381D01*
X183872143Y-55062381D01*
X183776905Y-55014762D01*
X183729286Y-54967143D01*
X143978334Y-123007381D02*
X143645000Y-122531190D01*
X143406905Y-123007381D02*
X143406905Y-122007381D01*
X143787858Y-122007381D01*
X143883096Y-122055000D01*
X143930715Y-122102619D01*
X143978334Y-122197857D01*
X143978334Y-122340714D01*
X143930715Y-122435952D01*
X143883096Y-122483571D01*
X143787858Y-122531190D01*
X143406905Y-122531190D01*
X144835477Y-122007381D02*
X144645000Y-122007381D01*
X144549762Y-122055000D01*
X144502143Y-122102619D01*
X144406905Y-122245476D01*
X144359286Y-122435952D01*
X144359286Y-122816905D01*
X144406905Y-122912143D01*
X144454524Y-122959762D01*
X144549762Y-123007381D01*
X144740239Y-123007381D01*
X144835477Y-122959762D01*
X144883096Y-122912143D01*
X144930715Y-122816905D01*
X144930715Y-122578810D01*
X144883096Y-122483571D01*
X144835477Y-122435952D01*
X144740239Y-122388333D01*
X144549762Y-122388333D01*
X144454524Y-122435952D01*
X144406905Y-122483571D01*
X144359286Y-122578810D01*
X143978334Y-109672381D02*
X143645000Y-109196190D01*
X143406905Y-109672381D02*
X143406905Y-108672381D01*
X143787858Y-108672381D01*
X143883096Y-108720000D01*
X143930715Y-108767619D01*
X143978334Y-108862857D01*
X143978334Y-109005714D01*
X143930715Y-109100952D01*
X143883096Y-109148571D01*
X143787858Y-109196190D01*
X143406905Y-109196190D01*
X144311667Y-108672381D02*
X144978334Y-108672381D01*
X144549762Y-109672381D01*
X143978334Y-89352381D02*
X143645000Y-88876190D01*
X143406905Y-89352381D02*
X143406905Y-88352381D01*
X143787858Y-88352381D01*
X143883096Y-88400000D01*
X143930715Y-88447619D01*
X143978334Y-88542857D01*
X143978334Y-88685714D01*
X143930715Y-88780952D01*
X143883096Y-88828571D01*
X143787858Y-88876190D01*
X143406905Y-88876190D01*
X144549762Y-88780952D02*
X144454524Y-88733333D01*
X144406905Y-88685714D01*
X144359286Y-88590476D01*
X144359286Y-88542857D01*
X144406905Y-88447619D01*
X144454524Y-88400000D01*
X144549762Y-88352381D01*
X144740239Y-88352381D01*
X144835477Y-88400000D01*
X144883096Y-88447619D01*
X144930715Y-88542857D01*
X144930715Y-88590476D01*
X144883096Y-88685714D01*
X144835477Y-88733333D01*
X144740239Y-88780952D01*
X144549762Y-88780952D01*
X144454524Y-88828571D01*
X144406905Y-88876190D01*
X144359286Y-88971429D01*
X144359286Y-89161905D01*
X144406905Y-89257143D01*
X144454524Y-89304762D01*
X144549762Y-89352381D01*
X144740239Y-89352381D01*
X144835477Y-89304762D01*
X144883096Y-89257143D01*
X144930715Y-89161905D01*
X144930715Y-88971429D01*
X144883096Y-88876190D01*
X144835477Y-88828571D01*
X144740239Y-88780952D01*
X183348334Y-61412381D02*
X183015000Y-60936190D01*
X182776905Y-61412381D02*
X182776905Y-60412381D01*
X183157858Y-60412381D01*
X183253096Y-60460000D01*
X183300715Y-60507619D01*
X183348334Y-60602857D01*
X183348334Y-60745714D01*
X183300715Y-60840952D01*
X183253096Y-60888571D01*
X183157858Y-60936190D01*
X182776905Y-60936190D01*
X183824524Y-61412381D02*
X184015000Y-61412381D01*
X184110239Y-61364762D01*
X184157858Y-61317143D01*
X184253096Y-61174286D01*
X184300715Y-60983810D01*
X184300715Y-60602857D01*
X184253096Y-60507619D01*
X184205477Y-60460000D01*
X184110239Y-60412381D01*
X183919762Y-60412381D01*
X183824524Y-60460000D01*
X183776905Y-60507619D01*
X183729286Y-60602857D01*
X183729286Y-60840952D01*
X183776905Y-60936190D01*
X183824524Y-60983810D01*
X183919762Y-61031429D01*
X184110239Y-61031429D01*
X184205477Y-60983810D01*
X184253096Y-60936190D01*
X184300715Y-60840952D01*
X203771667Y-38504762D02*
X203914524Y-38552381D01*
X204152620Y-38552381D01*
X204247858Y-38504762D01*
X204295477Y-38457143D01*
X204343096Y-38361905D01*
X204343096Y-38266667D01*
X204295477Y-38171429D01*
X204247858Y-38123810D01*
X204152620Y-38076190D01*
X203962143Y-38028571D01*
X203866905Y-37980952D01*
X203819286Y-37933333D01*
X203771667Y-37838095D01*
X203771667Y-37742857D01*
X203819286Y-37647619D01*
X203866905Y-37600000D01*
X203962143Y-37552381D01*
X204200239Y-37552381D01*
X204343096Y-37600000D01*
X204676429Y-37552381D02*
X204914524Y-38552381D01*
X205105001Y-37838095D01*
X205295477Y-38552381D01*
X205533572Y-37552381D01*
X206438334Y-38552381D02*
X205866905Y-38552381D01*
X206152619Y-38552381D02*
X206152619Y-37552381D01*
X206057381Y-37695238D01*
X205962143Y-37790476D01*
X205866905Y-37838095D01*
X176403095Y-111847381D02*
X176403095Y-112656905D01*
X176450714Y-112752143D01*
X176498333Y-112799762D01*
X176593571Y-112847381D01*
X176784048Y-112847381D01*
X176879286Y-112799762D01*
X176926905Y-112752143D01*
X176974524Y-112656905D01*
X176974524Y-111847381D01*
X177403095Y-111942619D02*
X177450714Y-111895000D01*
X177545952Y-111847381D01*
X177784048Y-111847381D01*
X177879286Y-111895000D01*
X177926905Y-111942619D01*
X177974524Y-112037857D01*
X177974524Y-112133095D01*
X177926905Y-112275952D01*
X177355476Y-112847381D01*
X177974524Y-112847381D01*
X171426905Y-131747381D02*
X171426905Y-130747381D01*
X171426905Y-131223571D02*
X171998334Y-131223571D01*
X171998334Y-131747381D02*
X171998334Y-130747381D01*
X172474524Y-131747381D02*
X172474524Y-130747381D01*
X172807858Y-131461667D01*
X173141191Y-130747381D01*
X173141191Y-131747381D01*
X174045953Y-130747381D02*
X173855476Y-130747381D01*
X173760238Y-130795000D01*
X173712619Y-130842619D01*
X173617381Y-130985476D01*
X173569762Y-131175952D01*
X173569762Y-131556905D01*
X173617381Y-131652143D01*
X173665000Y-131699762D01*
X173760238Y-131747381D01*
X173950715Y-131747381D01*
X174045953Y-131699762D01*
X174093572Y-131652143D01*
X174141191Y-131556905D01*
X174141191Y-131318810D01*
X174093572Y-131223571D01*
X174045953Y-131175952D01*
X173950715Y-131128333D01*
X173760238Y-131128333D01*
X173665000Y-131175952D01*
X173617381Y-131223571D01*
X173569762Y-131318810D01*
X174522143Y-130842619D02*
X174569762Y-130795000D01*
X174665000Y-130747381D01*
X174903096Y-130747381D01*
X174998334Y-130795000D01*
X175045953Y-130842619D01*
X175093572Y-130937857D01*
X175093572Y-131033095D01*
X175045953Y-131175952D01*
X174474524Y-131747381D01*
X175093572Y-131747381D01*
X175474524Y-130842619D02*
X175522143Y-130795000D01*
X175617381Y-130747381D01*
X175855477Y-130747381D01*
X175950715Y-130795000D01*
X175998334Y-130842619D01*
X176045953Y-130937857D01*
X176045953Y-131033095D01*
X175998334Y-131175952D01*
X175426905Y-131747381D01*
X176045953Y-131747381D01*
X176950715Y-130747381D02*
X176474524Y-130747381D01*
X176426905Y-131223571D01*
X176474524Y-131175952D01*
X176569762Y-131128333D01*
X176807858Y-131128333D01*
X176903096Y-131175952D01*
X176950715Y-131223571D01*
X176998334Y-131318810D01*
X176998334Y-131556905D01*
X176950715Y-131652143D01*
X176903096Y-131699762D01*
X176807858Y-131747381D01*
X176569762Y-131747381D01*
X176474524Y-131699762D01*
X176426905Y-131652143D01*
X177855477Y-130747381D02*
X177665000Y-130747381D01*
X177569762Y-130795000D01*
X177522143Y-130842619D01*
X177426905Y-130985476D01*
X177379286Y-131175952D01*
X177379286Y-131556905D01*
X177426905Y-131652143D01*
X177474524Y-131699762D01*
X177569762Y-131747381D01*
X177760239Y-131747381D01*
X177855477Y-131699762D01*
X177903096Y-131652143D01*
X177950715Y-131556905D01*
X177950715Y-131318810D01*
X177903096Y-131223571D01*
X177855477Y-131175952D01*
X177760239Y-131128333D01*
X177569762Y-131128333D01*
X177474524Y-131175952D01*
X177426905Y-131223571D01*
X177379286Y-131318810D01*
X178712620Y-131223571D02*
X178855477Y-131271190D01*
X178903096Y-131318810D01*
X178950715Y-131414048D01*
X178950715Y-131556905D01*
X178903096Y-131652143D01*
X178855477Y-131699762D01*
X178760239Y-131747381D01*
X178379286Y-131747381D01*
X178379286Y-130747381D01*
X178712620Y-130747381D01*
X178807858Y-130795000D01*
X178855477Y-130842619D01*
X178903096Y-130937857D01*
X178903096Y-131033095D01*
X178855477Y-131128333D01*
X178807858Y-131175952D01*
X178712620Y-131223571D01*
X178379286Y-131223571D01*
X179855477Y-131747381D02*
X179379286Y-131747381D01*
X179379286Y-130747381D01*
X180188810Y-131747381D02*
X180188810Y-130747381D01*
X180569763Y-130747381D01*
X180665001Y-130795000D01*
X180712620Y-130842619D01*
X180760239Y-130937857D01*
X180760239Y-131080714D01*
X180712620Y-131175952D01*
X180665001Y-131223571D01*
X180569763Y-131271190D01*
X180188810Y-131271190D01*
X181188810Y-131366429D02*
X181950715Y-131366429D01*
X182331667Y-130747381D02*
X182998334Y-130747381D01*
X182569762Y-131747381D01*
X203073095Y-78827381D02*
X203073095Y-79636905D01*
X203120714Y-79732143D01*
X203168333Y-79779762D01*
X203263571Y-79827381D01*
X203454048Y-79827381D01*
X203549286Y-79779762D01*
X203596905Y-79732143D01*
X203644524Y-79636905D01*
X203644524Y-78827381D01*
X204596905Y-78827381D02*
X204120714Y-78827381D01*
X204073095Y-79303571D01*
X204120714Y-79255952D01*
X204215952Y-79208333D01*
X204454048Y-79208333D01*
X204549286Y-79255952D01*
X204596905Y-79303571D01*
X204644524Y-79398810D01*
X204644524Y-79636905D01*
X204596905Y-79732143D01*
X204549286Y-79779762D01*
X204454048Y-79827381D01*
X204215952Y-79827381D01*
X204120714Y-79779762D01*
X204073095Y-79732143D01*
X200668333Y-88837381D02*
X201335000Y-88837381D01*
X200906428Y-89837381D01*
X202144524Y-89170714D02*
X202144524Y-89837381D01*
X201906428Y-88789762D02*
X201668333Y-89504048D01*
X202287381Y-89504048D01*
X202668333Y-89837381D02*
X202668333Y-88837381D01*
X202668333Y-89313571D02*
X203239762Y-89313571D01*
X203239762Y-89837381D02*
X203239762Y-88837381D01*
X204287381Y-89742143D02*
X204239762Y-89789762D01*
X204096905Y-89837381D01*
X204001667Y-89837381D01*
X203858809Y-89789762D01*
X203763571Y-89694524D01*
X203715952Y-89599286D01*
X203668333Y-89408810D01*
X203668333Y-89265952D01*
X203715952Y-89075476D01*
X203763571Y-88980238D01*
X203858809Y-88885000D01*
X204001667Y-88837381D01*
X204096905Y-88837381D01*
X204239762Y-88885000D01*
X204287381Y-88932619D01*
X204573095Y-88837381D02*
X205144524Y-88837381D01*
X204858809Y-89837381D02*
X204858809Y-88837381D01*
X205668333Y-88837381D02*
X205763572Y-88837381D01*
X205858810Y-88885000D01*
X205906429Y-88932619D01*
X205954048Y-89027857D01*
X206001667Y-89218333D01*
X206001667Y-89456429D01*
X205954048Y-89646905D01*
X205906429Y-89742143D01*
X205858810Y-89789762D01*
X205763572Y-89837381D01*
X205668333Y-89837381D01*
X205573095Y-89789762D01*
X205525476Y-89742143D01*
X205477857Y-89646905D01*
X205430238Y-89456429D01*
X205430238Y-89218333D01*
X205477857Y-89027857D01*
X205525476Y-88932619D01*
X205573095Y-88885000D01*
X205668333Y-88837381D01*
X206620714Y-88837381D02*
X206715953Y-88837381D01*
X206811191Y-88885000D01*
X206858810Y-88932619D01*
X206906429Y-89027857D01*
X206954048Y-89218333D01*
X206954048Y-89456429D01*
X206906429Y-89646905D01*
X206858810Y-89742143D01*
X206811191Y-89789762D01*
X206715953Y-89837381D01*
X206620714Y-89837381D01*
X206525476Y-89789762D01*
X206477857Y-89742143D01*
X206430238Y-89646905D01*
X206382619Y-89456429D01*
X206382619Y-89218333D01*
X206430238Y-89027857D01*
X206477857Y-88932619D01*
X206525476Y-88885000D01*
X206620714Y-88837381D01*
X187833095Y-78827381D02*
X187833095Y-79636905D01*
X187880714Y-79732143D01*
X187928333Y-79779762D01*
X188023571Y-79827381D01*
X188214048Y-79827381D01*
X188309286Y-79779762D01*
X188356905Y-79732143D01*
X188404524Y-79636905D01*
X188404524Y-78827381D01*
X188785476Y-78827381D02*
X189452143Y-78827381D01*
X189023571Y-79827381D01*
X185428333Y-88837381D02*
X186095000Y-88837381D01*
X185666428Y-89837381D01*
X186904524Y-89170714D02*
X186904524Y-89837381D01*
X186666428Y-88789762D02*
X186428333Y-89504048D01*
X187047381Y-89504048D01*
X187428333Y-89837381D02*
X187428333Y-88837381D01*
X187428333Y-89313571D02*
X187999762Y-89313571D01*
X187999762Y-89837381D02*
X187999762Y-88837381D01*
X189047381Y-89742143D02*
X188999762Y-89789762D01*
X188856905Y-89837381D01*
X188761667Y-89837381D01*
X188618809Y-89789762D01*
X188523571Y-89694524D01*
X188475952Y-89599286D01*
X188428333Y-89408810D01*
X188428333Y-89265952D01*
X188475952Y-89075476D01*
X188523571Y-88980238D01*
X188618809Y-88885000D01*
X188761667Y-88837381D01*
X188856905Y-88837381D01*
X188999762Y-88885000D01*
X189047381Y-88932619D01*
X189333095Y-88837381D02*
X189904524Y-88837381D01*
X189618809Y-89837381D02*
X189618809Y-88837381D01*
X190428333Y-88837381D02*
X190523572Y-88837381D01*
X190618810Y-88885000D01*
X190666429Y-88932619D01*
X190714048Y-89027857D01*
X190761667Y-89218333D01*
X190761667Y-89456429D01*
X190714048Y-89646905D01*
X190666429Y-89742143D01*
X190618810Y-89789762D01*
X190523572Y-89837381D01*
X190428333Y-89837381D01*
X190333095Y-89789762D01*
X190285476Y-89742143D01*
X190237857Y-89646905D01*
X190190238Y-89456429D01*
X190190238Y-89218333D01*
X190237857Y-89027857D01*
X190285476Y-88932619D01*
X190333095Y-88885000D01*
X190428333Y-88837381D01*
X191618810Y-89170714D02*
X191618810Y-89837381D01*
X191380714Y-88789762D02*
X191142619Y-89504048D01*
X191761667Y-89504048D01*
X131953095Y-106132381D02*
X131953095Y-106941905D01*
X132000714Y-107037143D01*
X132048333Y-107084762D01*
X132143571Y-107132381D01*
X132334048Y-107132381D01*
X132429286Y-107084762D01*
X132476905Y-107037143D01*
X132524524Y-106941905D01*
X132524524Y-106132381D01*
X133143571Y-106560952D02*
X133048333Y-106513333D01*
X133000714Y-106465714D01*
X132953095Y-106370476D01*
X132953095Y-106322857D01*
X133000714Y-106227619D01*
X133048333Y-106180000D01*
X133143571Y-106132381D01*
X133334048Y-106132381D01*
X133429286Y-106180000D01*
X133476905Y-106227619D01*
X133524524Y-106322857D01*
X133524524Y-106370476D01*
X133476905Y-106465714D01*
X133429286Y-106513333D01*
X133334048Y-106560952D01*
X133143571Y-106560952D01*
X133048333Y-106608571D01*
X133000714Y-106656190D01*
X132953095Y-106751429D01*
X132953095Y-106941905D01*
X133000714Y-107037143D01*
X133048333Y-107084762D01*
X133143571Y-107132381D01*
X133334048Y-107132381D01*
X133429286Y-107084762D01*
X133476905Y-107037143D01*
X133524524Y-106941905D01*
X133524524Y-106751429D01*
X133476905Y-106656190D01*
X133429286Y-106608571D01*
X133334048Y-106560952D01*
X129381667Y-132652381D02*
X129619762Y-133652381D01*
X129810239Y-132938095D01*
X130000715Y-133652381D01*
X130238810Y-132652381D01*
X130619762Y-133652381D02*
X130619762Y-132652381D01*
X130857857Y-132652381D01*
X131000715Y-132700000D01*
X131095953Y-132795238D01*
X131143572Y-132890476D01*
X131191191Y-133080952D01*
X131191191Y-133223810D01*
X131143572Y-133414286D01*
X131095953Y-133509524D01*
X131000715Y-133604762D01*
X130857857Y-133652381D01*
X130619762Y-133652381D01*
X132048334Y-132652381D02*
X131857857Y-132652381D01*
X131762619Y-132700000D01*
X131715000Y-132747619D01*
X131619762Y-132890476D01*
X131572143Y-133080952D01*
X131572143Y-133461905D01*
X131619762Y-133557143D01*
X131667381Y-133604762D01*
X131762619Y-133652381D01*
X131953096Y-133652381D01*
X132048334Y-133604762D01*
X132095953Y-133557143D01*
X132143572Y-133461905D01*
X132143572Y-133223810D01*
X132095953Y-133128571D01*
X132048334Y-133080952D01*
X131953096Y-133033333D01*
X131762619Y-133033333D01*
X131667381Y-133080952D01*
X131619762Y-133128571D01*
X131572143Y-133223810D01*
X133048334Y-132652381D02*
X132572143Y-132652381D01*
X132524524Y-133128571D01*
X132572143Y-133080952D01*
X132667381Y-133033333D01*
X132905477Y-133033333D01*
X133000715Y-133080952D01*
X133048334Y-133128571D01*
X133095953Y-133223810D01*
X133095953Y-133461905D01*
X133048334Y-133557143D01*
X133000715Y-133604762D01*
X132905477Y-133652381D01*
X132667381Y-133652381D01*
X132572143Y-133604762D01*
X132524524Y-133557143D01*
X134095953Y-133557143D02*
X134048334Y-133604762D01*
X133905477Y-133652381D01*
X133810239Y-133652381D01*
X133667381Y-133604762D01*
X133572143Y-133509524D01*
X133524524Y-133414286D01*
X133476905Y-133223810D01*
X133476905Y-133080952D01*
X133524524Y-132890476D01*
X133572143Y-132795238D01*
X133667381Y-132700000D01*
X133810239Y-132652381D01*
X133905477Y-132652381D01*
X134048334Y-132700000D01*
X134095953Y-132747619D01*
X134476905Y-132747619D02*
X134524524Y-132700000D01*
X134619762Y-132652381D01*
X134857858Y-132652381D01*
X134953096Y-132700000D01*
X135000715Y-132747619D01*
X135048334Y-132842857D01*
X135048334Y-132938095D01*
X135000715Y-133080952D01*
X134429286Y-133652381D01*
X135048334Y-133652381D01*
X136000715Y-133652381D02*
X135429286Y-133652381D01*
X135715000Y-133652381D02*
X135715000Y-132652381D01*
X135619762Y-132795238D01*
X135524524Y-132890476D01*
X135429286Y-132938095D01*
X139573095Y-68667381D02*
X139573095Y-69476905D01*
X139620714Y-69572143D01*
X139668333Y-69619762D01*
X139763571Y-69667381D01*
X139954048Y-69667381D01*
X140049286Y-69619762D01*
X140096905Y-69572143D01*
X140144524Y-69476905D01*
X140144524Y-68667381D01*
X140668333Y-69667381D02*
X140858809Y-69667381D01*
X140954048Y-69619762D01*
X141001667Y-69572143D01*
X141096905Y-69429286D01*
X141144524Y-69238810D01*
X141144524Y-68857857D01*
X141096905Y-68762619D01*
X141049286Y-68715000D01*
X140954048Y-68667381D01*
X140763571Y-68667381D01*
X140668333Y-68715000D01*
X140620714Y-68762619D01*
X140573095Y-68857857D01*
X140573095Y-69095952D01*
X140620714Y-69191190D01*
X140668333Y-69238810D01*
X140763571Y-69286429D01*
X140954048Y-69286429D01*
X141049286Y-69238810D01*
X141096905Y-69191190D01*
X141144524Y-69095952D01*
X122650714Y-76017381D02*
X122650714Y-75017381D01*
X122984048Y-75731667D01*
X123317381Y-75017381D01*
X123317381Y-76017381D01*
X124365000Y-75922143D02*
X124317381Y-75969762D01*
X124174524Y-76017381D01*
X124079286Y-76017381D01*
X123936428Y-75969762D01*
X123841190Y-75874524D01*
X123793571Y-75779286D01*
X123745952Y-75588810D01*
X123745952Y-75445952D01*
X123793571Y-75255476D01*
X123841190Y-75160238D01*
X123936428Y-75065000D01*
X124079286Y-75017381D01*
X124174524Y-75017381D01*
X124317381Y-75065000D01*
X124365000Y-75112619D01*
X124793571Y-76017381D02*
X124793571Y-75017381D01*
X125174524Y-75017381D01*
X125269762Y-75065000D01*
X125317381Y-75112619D01*
X125365000Y-75207857D01*
X125365000Y-75350714D01*
X125317381Y-75445952D01*
X125269762Y-75493571D01*
X125174524Y-75541190D01*
X124793571Y-75541190D01*
X125745952Y-75112619D02*
X125793571Y-75065000D01*
X125888809Y-75017381D01*
X126126905Y-75017381D01*
X126222143Y-75065000D01*
X126269762Y-75112619D01*
X126317381Y-75207857D01*
X126317381Y-75303095D01*
X126269762Y-75445952D01*
X125698333Y-76017381D01*
X126317381Y-76017381D01*
X126650714Y-75017381D02*
X127269762Y-75017381D01*
X126936428Y-75398333D01*
X127079286Y-75398333D01*
X127174524Y-75445952D01*
X127222143Y-75493571D01*
X127269762Y-75588810D01*
X127269762Y-75826905D01*
X127222143Y-75922143D01*
X127174524Y-75969762D01*
X127079286Y-76017381D01*
X126793571Y-76017381D01*
X126698333Y-75969762D01*
X126650714Y-75922143D01*
X127650714Y-75969762D02*
X127793571Y-76017381D01*
X128031667Y-76017381D01*
X128126905Y-75969762D01*
X128174524Y-75922143D01*
X128222143Y-75826905D01*
X128222143Y-75731667D01*
X128174524Y-75636429D01*
X128126905Y-75588810D01*
X128031667Y-75541190D01*
X127841190Y-75493571D01*
X127745952Y-75445952D01*
X127698333Y-75398333D01*
X127650714Y-75303095D01*
X127650714Y-75207857D01*
X127698333Y-75112619D01*
X127745952Y-75065000D01*
X127841190Y-75017381D01*
X128079286Y-75017381D01*
X128222143Y-75065000D01*
X129174524Y-76017381D02*
X128603095Y-76017381D01*
X128888809Y-76017381D02*
X128888809Y-75017381D01*
X128793571Y-75160238D01*
X128698333Y-75255476D01*
X128603095Y-75303095D01*
X129507857Y-75017381D02*
X130174524Y-75017381D01*
X129745952Y-76017381D01*
X131905476Y-54062381D02*
X132572143Y-55062381D01*
X132572143Y-54062381D02*
X131905476Y-55062381D01*
X133476905Y-55062381D02*
X132905476Y-55062381D01*
X133191190Y-55062381D02*
X133191190Y-54062381D01*
X133095952Y-54205238D01*
X133000714Y-54300476D01*
X132905476Y-54348095D01*
X172593095Y-80097381D02*
X172593095Y-80906905D01*
X172640714Y-81002143D01*
X172688333Y-81049762D01*
X172783571Y-81097381D01*
X172974048Y-81097381D01*
X173069286Y-81049762D01*
X173116905Y-81002143D01*
X173164524Y-80906905D01*
X173164524Y-80097381D01*
X173545476Y-80097381D02*
X174164524Y-80097381D01*
X173831190Y-80478333D01*
X173974048Y-80478333D01*
X174069286Y-80525952D01*
X174116905Y-80573571D01*
X174164524Y-80668810D01*
X174164524Y-80906905D01*
X174116905Y-81002143D01*
X174069286Y-81049762D01*
X173974048Y-81097381D01*
X173688333Y-81097381D01*
X173593095Y-81049762D01*
X173545476Y-81002143D01*
X169712143Y-91377381D02*
X170378810Y-91377381D01*
X169950238Y-92377381D01*
X171188334Y-91710714D02*
X171188334Y-92377381D01*
X170950238Y-91329762D02*
X170712143Y-92044048D01*
X171331191Y-92044048D01*
X171712143Y-92377381D02*
X171712143Y-91377381D01*
X171712143Y-91853571D02*
X172283572Y-91853571D01*
X172283572Y-92377381D02*
X172283572Y-91377381D01*
X173331191Y-92282143D02*
X173283572Y-92329762D01*
X173140715Y-92377381D01*
X173045477Y-92377381D01*
X172902619Y-92329762D01*
X172807381Y-92234524D01*
X172759762Y-92139286D01*
X172712143Y-91948810D01*
X172712143Y-91805952D01*
X172759762Y-91615476D01*
X172807381Y-91520238D01*
X172902619Y-91425000D01*
X173045477Y-91377381D01*
X173140715Y-91377381D01*
X173283572Y-91425000D01*
X173331191Y-91472619D01*
X173616905Y-91377381D02*
X174188334Y-91377381D01*
X173902619Y-92377381D02*
X173902619Y-91377381D01*
X175045477Y-92377381D02*
X174474048Y-92377381D01*
X174759762Y-92377381D02*
X174759762Y-91377381D01*
X174664524Y-91520238D01*
X174569286Y-91615476D01*
X174474048Y-91663095D01*
X175378810Y-91377381D02*
X175997858Y-91377381D01*
X175664524Y-91758333D01*
X175807382Y-91758333D01*
X175902620Y-91805952D01*
X175950239Y-91853571D01*
X175997858Y-91948810D01*
X175997858Y-92186905D01*
X175950239Y-92282143D01*
X175902620Y-92329762D01*
X175807382Y-92377381D01*
X175521667Y-92377381D01*
X175426429Y-92329762D01*
X175378810Y-92282143D01*
X176569286Y-91805952D02*
X176474048Y-91758333D01*
X176426429Y-91710714D01*
X176378810Y-91615476D01*
X176378810Y-91567857D01*
X176426429Y-91472619D01*
X176474048Y-91425000D01*
X176569286Y-91377381D01*
X176759763Y-91377381D01*
X176855001Y-91425000D01*
X176902620Y-91472619D01*
X176950239Y-91567857D01*
X176950239Y-91615476D01*
X176902620Y-91710714D01*
X176855001Y-91758333D01*
X176759763Y-91805952D01*
X176569286Y-91805952D01*
X176474048Y-91853571D01*
X176426429Y-91901190D01*
X176378810Y-91996429D01*
X176378810Y-92186905D01*
X176426429Y-92282143D01*
X176474048Y-92329762D01*
X176569286Y-92377381D01*
X176759763Y-92377381D01*
X176855001Y-92329762D01*
X176902620Y-92282143D01*
X176950239Y-92186905D01*
X176950239Y-91996429D01*
X176902620Y-91901190D01*
X176855001Y-91853571D01*
X176759763Y-91805952D01*
X199263095Y-111847381D02*
X199263095Y-112656905D01*
X199310714Y-112752143D01*
X199358333Y-112799762D01*
X199453571Y-112847381D01*
X199644048Y-112847381D01*
X199739286Y-112799762D01*
X199786905Y-112752143D01*
X199834524Y-112656905D01*
X199834524Y-111847381D01*
X200739286Y-112180714D02*
X200739286Y-112847381D01*
X200501190Y-111799762D02*
X200263095Y-112514048D01*
X200882143Y-112514048D01*
X197334524Y-130842619D02*
X197382143Y-130795000D01*
X197477381Y-130747381D01*
X197715477Y-130747381D01*
X197810715Y-130795000D01*
X197858334Y-130842619D01*
X197905953Y-130937857D01*
X197905953Y-131033095D01*
X197858334Y-131175952D01*
X197286905Y-131747381D01*
X197905953Y-131747381D01*
X198477381Y-131175952D02*
X198382143Y-131128333D01*
X198334524Y-131080714D01*
X198286905Y-130985476D01*
X198286905Y-130937857D01*
X198334524Y-130842619D01*
X198382143Y-130795000D01*
X198477381Y-130747381D01*
X198667858Y-130747381D01*
X198763096Y-130795000D01*
X198810715Y-130842619D01*
X198858334Y-130937857D01*
X198858334Y-130985476D01*
X198810715Y-131080714D01*
X198763096Y-131128333D01*
X198667858Y-131175952D01*
X198477381Y-131175952D01*
X198382143Y-131223571D01*
X198334524Y-131271190D01*
X198286905Y-131366429D01*
X198286905Y-131556905D01*
X198334524Y-131652143D01*
X198382143Y-131699762D01*
X198477381Y-131747381D01*
X198667858Y-131747381D01*
X198763096Y-131699762D01*
X198810715Y-131652143D01*
X198858334Y-131556905D01*
X198858334Y-131366429D01*
X198810715Y-131271190D01*
X198763096Y-131223571D01*
X198667858Y-131175952D01*
X199858334Y-131652143D02*
X199810715Y-131699762D01*
X199667858Y-131747381D01*
X199572620Y-131747381D01*
X199429762Y-131699762D01*
X199334524Y-131604524D01*
X199286905Y-131509286D01*
X199239286Y-131318810D01*
X199239286Y-131175952D01*
X199286905Y-130985476D01*
X199334524Y-130890238D01*
X199429762Y-130795000D01*
X199572620Y-130747381D01*
X199667858Y-130747381D01*
X199810715Y-130795000D01*
X199858334Y-130842619D01*
X200239286Y-130842619D02*
X200286905Y-130795000D01*
X200382143Y-130747381D01*
X200620239Y-130747381D01*
X200715477Y-130795000D01*
X200763096Y-130842619D01*
X200810715Y-130937857D01*
X200810715Y-131033095D01*
X200763096Y-131175952D01*
X200191667Y-131747381D01*
X200810715Y-131747381D01*
X201715477Y-130747381D02*
X201239286Y-130747381D01*
X201191667Y-131223571D01*
X201239286Y-131175952D01*
X201334524Y-131128333D01*
X201572620Y-131128333D01*
X201667858Y-131175952D01*
X201715477Y-131223571D01*
X201763096Y-131318810D01*
X201763096Y-131556905D01*
X201715477Y-131652143D01*
X201667858Y-131699762D01*
X201572620Y-131747381D01*
X201334524Y-131747381D01*
X201239286Y-131699762D01*
X201191667Y-131652143D01*
X202620239Y-130747381D02*
X202429762Y-130747381D01*
X202334524Y-130795000D01*
X202286905Y-130842619D01*
X202191667Y-130985476D01*
X202144048Y-131175952D01*
X202144048Y-131556905D01*
X202191667Y-131652143D01*
X202239286Y-131699762D01*
X202334524Y-131747381D01*
X202525001Y-131747381D01*
X202620239Y-131699762D01*
X202667858Y-131652143D01*
X202715477Y-131556905D01*
X202715477Y-131318810D01*
X202667858Y-131223571D01*
X202620239Y-131175952D01*
X202525001Y-131128333D01*
X202334524Y-131128333D01*
X202239286Y-131175952D01*
X202191667Y-131223571D01*
X202144048Y-131318810D01*
X149733095Y-52792381D02*
X149733095Y-53601905D01*
X149780714Y-53697143D01*
X149828333Y-53744762D01*
X149923571Y-53792381D01*
X150114048Y-53792381D01*
X150209286Y-53744762D01*
X150256905Y-53697143D01*
X150304524Y-53601905D01*
X150304524Y-52792381D01*
X151209286Y-52792381D02*
X151018809Y-52792381D01*
X150923571Y-52840000D01*
X150875952Y-52887619D01*
X150780714Y-53030476D01*
X150733095Y-53220952D01*
X150733095Y-53601905D01*
X150780714Y-53697143D01*
X150828333Y-53744762D01*
X150923571Y-53792381D01*
X151114048Y-53792381D01*
X151209286Y-53744762D01*
X151256905Y-53697143D01*
X151304524Y-53601905D01*
X151304524Y-53363810D01*
X151256905Y-53268571D01*
X151209286Y-53220952D01*
X151114048Y-53173333D01*
X150923571Y-53173333D01*
X150828333Y-53220952D01*
X150780714Y-53268571D01*
X150733095Y-53363810D01*
X148328333Y-47442381D02*
X148328333Y-46442381D01*
X148899762Y-47442381D01*
X148899762Y-46442381D01*
X149375952Y-46918571D02*
X149709286Y-46918571D01*
X149852143Y-47442381D02*
X149375952Y-47442381D01*
X149375952Y-46442381D01*
X149852143Y-46442381D01*
X150756905Y-46442381D02*
X150280714Y-46442381D01*
X150233095Y-46918571D01*
X150280714Y-46870952D01*
X150375952Y-46823333D01*
X150614048Y-46823333D01*
X150709286Y-46870952D01*
X150756905Y-46918571D01*
X150804524Y-47013810D01*
X150804524Y-47251905D01*
X150756905Y-47347143D01*
X150709286Y-47394762D01*
X150614048Y-47442381D01*
X150375952Y-47442381D01*
X150280714Y-47394762D01*
X150233095Y-47347143D01*
X151709286Y-46442381D02*
X151233095Y-46442381D01*
X151185476Y-46918571D01*
X151233095Y-46870952D01*
X151328333Y-46823333D01*
X151566429Y-46823333D01*
X151661667Y-46870952D01*
X151709286Y-46918571D01*
X151756905Y-47013810D01*
X151756905Y-47251905D01*
X151709286Y-47347143D01*
X151661667Y-47394762D01*
X151566429Y-47442381D01*
X151328333Y-47442381D01*
X151233095Y-47394762D01*
X151185476Y-47347143D01*
X152661667Y-46442381D02*
X152185476Y-46442381D01*
X152137857Y-46918571D01*
X152185476Y-46870952D01*
X152280714Y-46823333D01*
X152518810Y-46823333D01*
X152614048Y-46870952D01*
X152661667Y-46918571D01*
X152709286Y-47013810D01*
X152709286Y-47251905D01*
X152661667Y-47347143D01*
X152614048Y-47394762D01*
X152518810Y-47442381D01*
X152280714Y-47442381D01*
X152185476Y-47394762D01*
X152137857Y-47347143D01*
X180808334Y-74652143D02*
X180760715Y-74699762D01*
X180617858Y-74747381D01*
X180522620Y-74747381D01*
X180379762Y-74699762D01*
X180284524Y-74604524D01*
X180236905Y-74509286D01*
X180189286Y-74318810D01*
X180189286Y-74175952D01*
X180236905Y-73985476D01*
X180284524Y-73890238D01*
X180379762Y-73795000D01*
X180522620Y-73747381D01*
X180617858Y-73747381D01*
X180760715Y-73795000D01*
X180808334Y-73842619D01*
X181141667Y-73747381D02*
X181760715Y-73747381D01*
X181427381Y-74128333D01*
X181570239Y-74128333D01*
X181665477Y-74175952D01*
X181713096Y-74223571D01*
X181760715Y-74318810D01*
X181760715Y-74556905D01*
X181713096Y-74652143D01*
X181665477Y-74699762D01*
X181570239Y-74747381D01*
X181284524Y-74747381D01*
X181189286Y-74699762D01*
X181141667Y-74652143D01*
X164711143Y-63222143D02*
X164663524Y-63269762D01*
X164520667Y-63317381D01*
X164425429Y-63317381D01*
X164282571Y-63269762D01*
X164187333Y-63174524D01*
X164139714Y-63079286D01*
X164092095Y-62888810D01*
X164092095Y-62745952D01*
X164139714Y-62555476D01*
X164187333Y-62460238D01*
X164282571Y-62365000D01*
X164425429Y-62317381D01*
X164520667Y-62317381D01*
X164663524Y-62365000D01*
X164711143Y-62412619D01*
X165663524Y-63317381D02*
X165092095Y-63317381D01*
X165377809Y-63317381D02*
X165377809Y-62317381D01*
X165282571Y-62460238D01*
X165187333Y-62555476D01*
X165092095Y-62603095D01*
X166282571Y-62317381D02*
X166377810Y-62317381D01*
X166473048Y-62365000D01*
X166520667Y-62412619D01*
X166568286Y-62507857D01*
X166615905Y-62698333D01*
X166615905Y-62936429D01*
X166568286Y-63126905D01*
X166520667Y-63222143D01*
X166473048Y-63269762D01*
X166377810Y-63317381D01*
X166282571Y-63317381D01*
X166187333Y-63269762D01*
X166139714Y-63222143D01*
X166092095Y-63126905D01*
X166044476Y-62936429D01*
X166044476Y-62698333D01*
X166092095Y-62507857D01*
X166139714Y-62412619D01*
X166187333Y-62365000D01*
X166282571Y-62317381D01*
X194937143Y-85447143D02*
X194889524Y-85494762D01*
X194746667Y-85542381D01*
X194651429Y-85542381D01*
X194508571Y-85494762D01*
X194413333Y-85399524D01*
X194365714Y-85304286D01*
X194318095Y-85113810D01*
X194318095Y-84970952D01*
X194365714Y-84780476D01*
X194413333Y-84685238D01*
X194508571Y-84590000D01*
X194651429Y-84542381D01*
X194746667Y-84542381D01*
X194889524Y-84590000D01*
X194937143Y-84637619D01*
X195889524Y-85542381D02*
X195318095Y-85542381D01*
X195603809Y-85542381D02*
X195603809Y-84542381D01*
X195508571Y-84685238D01*
X195413333Y-84780476D01*
X195318095Y-84828095D01*
X196270476Y-84637619D02*
X196318095Y-84590000D01*
X196413333Y-84542381D01*
X196651429Y-84542381D01*
X196746667Y-84590000D01*
X196794286Y-84637619D01*
X196841905Y-84732857D01*
X196841905Y-84828095D01*
X196794286Y-84970952D01*
X196222857Y-85542381D01*
X196841905Y-85542381D01*
X123912381Y-85423333D02*
X124626667Y-85423333D01*
X124769524Y-85470953D01*
X124864762Y-85566191D01*
X124912381Y-85709048D01*
X124912381Y-85804286D01*
X124912381Y-84423333D02*
X124912381Y-84994762D01*
X124912381Y-84709048D02*
X123912381Y-84709048D01*
X124055238Y-84804286D01*
X124150476Y-84899524D01*
X124198095Y-84994762D01*
X117911905Y-79462381D02*
X118245238Y-80462381D01*
X118578572Y-79462381D01*
X118911905Y-80462381D02*
X118911905Y-79462381D01*
X119292858Y-79462381D01*
X119388096Y-79510000D01*
X119435715Y-79557619D01*
X119483334Y-79652857D01*
X119483334Y-79795714D01*
X119435715Y-79890952D01*
X119388096Y-79938571D01*
X119292858Y-79986190D01*
X118911905Y-79986190D01*
X121197620Y-79510000D02*
X121102382Y-79462381D01*
X120959525Y-79462381D01*
X120816667Y-79510000D01*
X120721429Y-79605238D01*
X120673810Y-79700476D01*
X120626191Y-79890952D01*
X120626191Y-80033810D01*
X120673810Y-80224286D01*
X120721429Y-80319524D01*
X120816667Y-80414762D01*
X120959525Y-80462381D01*
X121054763Y-80462381D01*
X121197620Y-80414762D01*
X121245239Y-80367143D01*
X121245239Y-80033810D01*
X121054763Y-80033810D01*
X121673810Y-80462381D02*
X121673810Y-79462381D01*
X122245239Y-80462381D01*
X122245239Y-79462381D01*
X122721429Y-80462381D02*
X122721429Y-79462381D01*
X122959524Y-79462381D01*
X123102382Y-79510000D01*
X123197620Y-79605238D01*
X123245239Y-79700476D01*
X123292858Y-79890952D01*
X123292858Y-80033810D01*
X123245239Y-80224286D01*
X123197620Y-80319524D01*
X123102382Y-80414762D01*
X122959524Y-80462381D01*
X122721429Y-80462381D01*
X192301905Y-38552381D02*
X192301905Y-37552381D01*
X192540000Y-37552381D01*
X192682858Y-37600000D01*
X192778096Y-37695238D01*
X192825715Y-37790476D01*
X192873334Y-37980952D01*
X192873334Y-38123810D01*
X192825715Y-38314286D01*
X192778096Y-38409524D01*
X192682858Y-38504762D01*
X192540000Y-38552381D01*
X192301905Y-38552381D01*
X193825715Y-38552381D02*
X193254286Y-38552381D01*
X193540000Y-38552381D02*
X193540000Y-37552381D01*
X193444762Y-37695238D01*
X193349524Y-37790476D01*
X193254286Y-37838095D01*
X184451667Y-37552381D02*
X184451667Y-38266667D01*
X184404047Y-38409524D01*
X184308809Y-38504762D01*
X184165952Y-38552381D01*
X184070714Y-38552381D01*
X185070714Y-37980952D02*
X184975476Y-37933333D01*
X184927857Y-37885714D01*
X184880238Y-37790476D01*
X184880238Y-37742857D01*
X184927857Y-37647619D01*
X184975476Y-37600000D01*
X185070714Y-37552381D01*
X185261191Y-37552381D01*
X185356429Y-37600000D01*
X185404048Y-37647619D01*
X185451667Y-37742857D01*
X185451667Y-37790476D01*
X185404048Y-37885714D01*
X185356429Y-37933333D01*
X185261191Y-37980952D01*
X185070714Y-37980952D01*
X184975476Y-38028571D01*
X184927857Y-38076190D01*
X184880238Y-38171429D01*
X184880238Y-38361905D01*
X184927857Y-38457143D01*
X184975476Y-38504762D01*
X185070714Y-38552381D01*
X185261191Y-38552381D01*
X185356429Y-38504762D01*
X185404048Y-38457143D01*
X185451667Y-38361905D01*
X185451667Y-38171429D01*
X185404048Y-38076190D01*
X185356429Y-38028571D01*
X185261191Y-37980952D01*
X190241667Y-93265476D02*
X190241667Y-92789285D01*
X190527381Y-93360714D02*
X189527381Y-93027381D01*
X190527381Y-92694047D01*
X190527381Y-91836904D02*
X190527381Y-92408333D01*
X190527381Y-92122619D02*
X189527381Y-92122619D01*
X189670238Y-92217857D01*
X189765476Y-92313095D01*
X189813095Y-92408333D01*
X189527381Y-91503571D02*
X189527381Y-90884523D01*
X189908333Y-91217857D01*
X189908333Y-91074999D01*
X189955952Y-90979761D01*
X190003571Y-90932142D01*
X190098810Y-90884523D01*
X190336905Y-90884523D01*
X190432143Y-90932142D01*
X190479762Y-90979761D01*
X190527381Y-91074999D01*
X190527381Y-91360714D01*
X190479762Y-91455952D01*
X190432143Y-91503571D01*
X200401667Y-93265476D02*
X200401667Y-92789285D01*
X200687381Y-93360714D02*
X199687381Y-93027381D01*
X200687381Y-92694047D01*
X200687381Y-91836904D02*
X200687381Y-92408333D01*
X200687381Y-92122619D02*
X199687381Y-92122619D01*
X199830238Y-92217857D01*
X199925476Y-92313095D01*
X199973095Y-92408333D01*
X200020714Y-90979761D02*
X200687381Y-90979761D01*
X199639762Y-91217857D02*
X200354048Y-91455952D01*
X200354048Y-90836904D01*
X157472143Y-77287381D02*
X157138809Y-76811190D01*
X156900714Y-77287381D02*
X156900714Y-76287381D01*
X157281667Y-76287381D01*
X157376905Y-76335000D01*
X157424524Y-76382619D01*
X157472143Y-76477857D01*
X157472143Y-76620714D01*
X157424524Y-76715952D01*
X157376905Y-76763571D01*
X157281667Y-76811190D01*
X156900714Y-76811190D01*
X158424524Y-77287381D02*
X157853095Y-77287381D01*
X158138809Y-77287381D02*
X158138809Y-76287381D01*
X158043571Y-76430238D01*
X157948333Y-76525476D01*
X157853095Y-76573095D01*
X159043571Y-76287381D02*
X159138810Y-76287381D01*
X159234048Y-76335000D01*
X159281667Y-76382619D01*
X159329286Y-76477857D01*
X159376905Y-76668333D01*
X159376905Y-76906429D01*
X159329286Y-77096905D01*
X159281667Y-77192143D01*
X159234048Y-77239762D01*
X159138810Y-77287381D01*
X159043571Y-77287381D01*
X158948333Y-77239762D01*
X158900714Y-77192143D01*
X158853095Y-77096905D01*
X158805476Y-76906429D01*
X158805476Y-76668333D01*
X158853095Y-76477857D01*
X158900714Y-76382619D01*
X158948333Y-76335000D01*
X159043571Y-76287381D01*
M02*
