G04 #@! TF.FileFunction,Legend,Top*
%FSLAX46Y46*%
G04 Gerber Fmt 4.6, Leading zero omitted, Abs format (unit mm)*
G04 Created by KiCad (PCBNEW 4.0.7) date 01/22/20 20:09:16*
%MOMM*%
%LPD*%
G01*
G04 APERTURE LIST*
%ADD10C,0.100000*%
%ADD11C,0.150000*%
%ADD12C,0.200000*%
%ADD13C,0.300000*%
%ADD14C,0.120000*%
G04 APERTURE END LIST*
D10*
X194120238Y-106711667D02*
X194082142Y-106673571D01*
X194005952Y-106559286D01*
X193967857Y-106483095D01*
X193929761Y-106368810D01*
X193891666Y-106178333D01*
X193891666Y-106025952D01*
X193929761Y-105835476D01*
X193967857Y-105721190D01*
X194005952Y-105645000D01*
X194082142Y-105530714D01*
X194120238Y-105492619D01*
X194386904Y-106178333D02*
X194767856Y-106178333D01*
X194310713Y-106406905D02*
X194577380Y-105606905D01*
X194844047Y-106406905D01*
X195529761Y-106406905D02*
X195072618Y-106406905D01*
X195301189Y-106406905D02*
X195301189Y-105606905D01*
X195224999Y-105721190D01*
X195148808Y-105797381D01*
X195072618Y-105835476D01*
X195796428Y-105606905D02*
X196291666Y-105606905D01*
X196024999Y-105911667D01*
X196139285Y-105911667D01*
X196215475Y-105949762D01*
X196253571Y-105987857D01*
X196291666Y-106064048D01*
X196291666Y-106254524D01*
X196253571Y-106330714D01*
X196215475Y-106368810D01*
X196139285Y-106406905D01*
X195910713Y-106406905D01*
X195834523Y-106368810D01*
X195796428Y-106330714D01*
X197205952Y-105568810D02*
X196520237Y-106597381D01*
X197434523Y-106178333D02*
X197815475Y-106178333D01*
X197358332Y-106406905D02*
X197624999Y-105606905D01*
X197891666Y-106406905D01*
X198577380Y-106406905D02*
X198120237Y-106406905D01*
X198348808Y-106406905D02*
X198348808Y-105606905D01*
X198272618Y-105721190D01*
X198196427Y-105797381D01*
X198120237Y-105835476D01*
X199263094Y-105873571D02*
X199263094Y-106406905D01*
X199072618Y-105568810D02*
X198882142Y-106140238D01*
X199377380Y-106140238D01*
X200520238Y-105606905D02*
X200520238Y-106178333D01*
X200482142Y-106292619D01*
X200405952Y-106368810D01*
X200291666Y-106406905D01*
X200215476Y-106406905D01*
X201244047Y-105873571D02*
X201244047Y-106406905D01*
X200901190Y-105873571D02*
X200901190Y-106292619D01*
X200939285Y-106368810D01*
X201015476Y-106406905D01*
X201129762Y-106406905D01*
X201205952Y-106368810D01*
X201244047Y-106330714D01*
X201625000Y-106406905D02*
X201625000Y-105873571D01*
X201625000Y-105949762D02*
X201663095Y-105911667D01*
X201739286Y-105873571D01*
X201853572Y-105873571D01*
X201929762Y-105911667D01*
X201967857Y-105987857D01*
X201967857Y-106406905D01*
X201967857Y-105987857D02*
X202005953Y-105911667D01*
X202082143Y-105873571D01*
X202196429Y-105873571D01*
X202272619Y-105911667D01*
X202310714Y-105987857D01*
X202310714Y-106406905D01*
X202691667Y-105873571D02*
X202691667Y-106673571D01*
X202691667Y-105911667D02*
X202767858Y-105873571D01*
X202920239Y-105873571D01*
X202996429Y-105911667D01*
X203034524Y-105949762D01*
X203072620Y-106025952D01*
X203072620Y-106254524D01*
X203034524Y-106330714D01*
X202996429Y-106368810D01*
X202920239Y-106406905D01*
X202767858Y-106406905D01*
X202691667Y-106368810D01*
X203720239Y-106368810D02*
X203644049Y-106406905D01*
X203491668Y-106406905D01*
X203415477Y-106368810D01*
X203377382Y-106292619D01*
X203377382Y-105987857D01*
X203415477Y-105911667D01*
X203491668Y-105873571D01*
X203644049Y-105873571D01*
X203720239Y-105911667D01*
X203758334Y-105987857D01*
X203758334Y-106064048D01*
X203377382Y-106140238D01*
X204101191Y-106406905D02*
X204101191Y-105873571D01*
X204101191Y-106025952D02*
X204139286Y-105949762D01*
X204177382Y-105911667D01*
X204253572Y-105873571D01*
X204329763Y-105873571D01*
X204901191Y-106368810D02*
X204825001Y-106406905D01*
X204672620Y-106406905D01*
X204596429Y-106368810D01*
X204558334Y-106292619D01*
X204558334Y-105987857D01*
X204596429Y-105911667D01*
X204672620Y-105873571D01*
X204825001Y-105873571D01*
X204901191Y-105911667D01*
X204939286Y-105987857D01*
X204939286Y-106064048D01*
X204558334Y-106140238D01*
X205625000Y-106406905D02*
X205625000Y-105606905D01*
X205625000Y-106368810D02*
X205548810Y-106406905D01*
X205396429Y-106406905D01*
X205320238Y-106368810D01*
X205282143Y-106330714D01*
X205244048Y-106254524D01*
X205244048Y-106025952D01*
X205282143Y-105949762D01*
X205320238Y-105911667D01*
X205396429Y-105873571D01*
X205548810Y-105873571D01*
X205625000Y-105911667D01*
X205929763Y-106711667D02*
X205967858Y-106673571D01*
X206044048Y-106559286D01*
X206082144Y-106483095D01*
X206120239Y-106368810D01*
X206158334Y-106178333D01*
X206158334Y-106025952D01*
X206120239Y-105835476D01*
X206082144Y-105721190D01*
X206044048Y-105645000D01*
X205967858Y-105530714D01*
X205929763Y-105492619D01*
D11*
X197810714Y-100512619D02*
X197858333Y-100465000D01*
X197953571Y-100417381D01*
X198191667Y-100417381D01*
X198286905Y-100465000D01*
X198334524Y-100512619D01*
X198382143Y-100607857D01*
X198382143Y-100703095D01*
X198334524Y-100845952D01*
X197763095Y-101417381D01*
X198382143Y-101417381D01*
X198953571Y-100845952D02*
X198858333Y-100798333D01*
X198810714Y-100750714D01*
X198763095Y-100655476D01*
X198763095Y-100607857D01*
X198810714Y-100512619D01*
X198858333Y-100465000D01*
X198953571Y-100417381D01*
X199144048Y-100417381D01*
X199239286Y-100465000D01*
X199286905Y-100512619D01*
X199334524Y-100607857D01*
X199334524Y-100655476D01*
X199286905Y-100750714D01*
X199239286Y-100798333D01*
X199144048Y-100845952D01*
X198953571Y-100845952D01*
X198858333Y-100893571D01*
X198810714Y-100941190D01*
X198763095Y-101036429D01*
X198763095Y-101226905D01*
X198810714Y-101322143D01*
X198858333Y-101369762D01*
X198953571Y-101417381D01*
X199144048Y-101417381D01*
X199239286Y-101369762D01*
X199286905Y-101322143D01*
X199334524Y-101226905D01*
X199334524Y-101036429D01*
X199286905Y-100941190D01*
X199239286Y-100893571D01*
X199144048Y-100845952D01*
X200334524Y-101322143D02*
X200286905Y-101369762D01*
X200144048Y-101417381D01*
X200048810Y-101417381D01*
X199905952Y-101369762D01*
X199810714Y-101274524D01*
X199763095Y-101179286D01*
X199715476Y-100988810D01*
X199715476Y-100845952D01*
X199763095Y-100655476D01*
X199810714Y-100560238D01*
X199905952Y-100465000D01*
X200048810Y-100417381D01*
X200144048Y-100417381D01*
X200286905Y-100465000D01*
X200334524Y-100512619D01*
X201191667Y-100417381D02*
X201001190Y-100417381D01*
X200905952Y-100465000D01*
X200858333Y-100512619D01*
X200763095Y-100655476D01*
X200715476Y-100845952D01*
X200715476Y-101226905D01*
X200763095Y-101322143D01*
X200810714Y-101369762D01*
X200905952Y-101417381D01*
X201096429Y-101417381D01*
X201191667Y-101369762D01*
X201239286Y-101322143D01*
X201286905Y-101226905D01*
X201286905Y-100988810D01*
X201239286Y-100893571D01*
X201191667Y-100845952D01*
X201096429Y-100798333D01*
X200905952Y-100798333D01*
X200810714Y-100845952D01*
X200763095Y-100893571D01*
X200715476Y-100988810D01*
X202144048Y-100750714D02*
X202144048Y-101417381D01*
X201905952Y-100369762D02*
X201667857Y-101084048D01*
X202286905Y-101084048D01*
D10*
X195777382Y-102901667D02*
X195739286Y-102863571D01*
X195663096Y-102749286D01*
X195625001Y-102673095D01*
X195586905Y-102558810D01*
X195548810Y-102368333D01*
X195548810Y-102215952D01*
X195586905Y-102025476D01*
X195625001Y-101911190D01*
X195663096Y-101835000D01*
X195739286Y-101720714D01*
X195777382Y-101682619D01*
X196044048Y-102368333D02*
X196425000Y-102368333D01*
X195967857Y-102596905D02*
X196234524Y-101796905D01*
X196501191Y-102596905D01*
X197186905Y-102596905D02*
X196729762Y-102596905D01*
X196958333Y-102596905D02*
X196958333Y-101796905D01*
X196882143Y-101911190D01*
X196805952Y-101987381D01*
X196729762Y-102025476D01*
X197453572Y-101796905D02*
X197948810Y-101796905D01*
X197682143Y-102101667D01*
X197796429Y-102101667D01*
X197872619Y-102139762D01*
X197910715Y-102177857D01*
X197948810Y-102254048D01*
X197948810Y-102444524D01*
X197910715Y-102520714D01*
X197872619Y-102558810D01*
X197796429Y-102596905D01*
X197567857Y-102596905D01*
X197491667Y-102558810D01*
X197453572Y-102520714D01*
X198863096Y-101758810D02*
X198177381Y-102787381D01*
X199091667Y-102368333D02*
X199472619Y-102368333D01*
X199015476Y-102596905D02*
X199282143Y-101796905D01*
X199548810Y-102596905D01*
X200234524Y-102596905D02*
X199777381Y-102596905D01*
X200005952Y-102596905D02*
X200005952Y-101796905D01*
X199929762Y-101911190D01*
X199853571Y-101987381D01*
X199777381Y-102025476D01*
X200920238Y-102063571D02*
X200920238Y-102596905D01*
X200729762Y-101758810D02*
X200539286Y-102330238D01*
X201034524Y-102330238D01*
X201948810Y-102596905D02*
X201948810Y-101796905D01*
X202405953Y-102596905D01*
X202405953Y-101796905D01*
X202786905Y-102520714D02*
X202825000Y-102558810D01*
X202786905Y-102596905D01*
X202748810Y-102558810D01*
X202786905Y-102520714D01*
X202786905Y-102596905D01*
X203625000Y-102520714D02*
X203586905Y-102558810D01*
X203472619Y-102596905D01*
X203396429Y-102596905D01*
X203282143Y-102558810D01*
X203205952Y-102482619D01*
X203167857Y-102406429D01*
X203129762Y-102254048D01*
X203129762Y-102139762D01*
X203167857Y-101987381D01*
X203205952Y-101911190D01*
X203282143Y-101835000D01*
X203396429Y-101796905D01*
X203472619Y-101796905D01*
X203586905Y-101835000D01*
X203625000Y-101873095D01*
X203967857Y-102520714D02*
X204005952Y-102558810D01*
X203967857Y-102596905D01*
X203929762Y-102558810D01*
X203967857Y-102520714D01*
X203967857Y-102596905D01*
X204272619Y-102901667D02*
X204310714Y-102863571D01*
X204386904Y-102749286D01*
X204425000Y-102673095D01*
X204463095Y-102558810D01*
X204501190Y-102368333D01*
X204501190Y-102215952D01*
X204463095Y-102025476D01*
X204425000Y-101911190D01*
X204386904Y-101835000D01*
X204310714Y-101720714D01*
X204272619Y-101682619D01*
D11*
X125126667Y-45505714D02*
X125126667Y-46315238D01*
X125079048Y-46410476D01*
X125031429Y-46458095D01*
X124936190Y-46505714D01*
X124793333Y-46505714D01*
X124698095Y-46458095D01*
X125126667Y-46124762D02*
X125031429Y-46172381D01*
X124840952Y-46172381D01*
X124745714Y-46124762D01*
X124698095Y-46077143D01*
X124650476Y-45981905D01*
X124650476Y-45696190D01*
X124698095Y-45600952D01*
X124745714Y-45553333D01*
X124840952Y-45505714D01*
X125031429Y-45505714D01*
X125126667Y-45553333D01*
X125602857Y-46172381D02*
X125602857Y-45505714D01*
X125602857Y-45172381D02*
X125555238Y-45220000D01*
X125602857Y-45267619D01*
X125650476Y-45220000D01*
X125602857Y-45172381D01*
X125602857Y-45267619D01*
X125936190Y-45505714D02*
X126317142Y-45505714D01*
X126079047Y-45172381D02*
X126079047Y-46029524D01*
X126126666Y-46124762D01*
X126221904Y-46172381D01*
X126317142Y-46172381D01*
X126650476Y-46172381D02*
X126650476Y-45172381D01*
X127079048Y-46172381D02*
X127079048Y-45648571D01*
X127031429Y-45553333D01*
X126936191Y-45505714D01*
X126793333Y-45505714D01*
X126698095Y-45553333D01*
X126650476Y-45600952D01*
X127983810Y-45505714D02*
X127983810Y-46172381D01*
X127555238Y-45505714D02*
X127555238Y-46029524D01*
X127602857Y-46124762D01*
X127698095Y-46172381D01*
X127840953Y-46172381D01*
X127936191Y-46124762D01*
X127983810Y-46077143D01*
X128460000Y-46172381D02*
X128460000Y-45172381D01*
X128460000Y-45553333D02*
X128555238Y-45505714D01*
X128745715Y-45505714D01*
X128840953Y-45553333D01*
X128888572Y-45600952D01*
X128936191Y-45696190D01*
X128936191Y-45981905D01*
X128888572Y-46077143D01*
X128840953Y-46124762D01*
X128745715Y-46172381D01*
X128555238Y-46172381D01*
X128460000Y-46124762D01*
X129364762Y-46077143D02*
X129412381Y-46124762D01*
X129364762Y-46172381D01*
X129317143Y-46124762D01*
X129364762Y-46077143D01*
X129364762Y-46172381D01*
X130269524Y-46124762D02*
X130174286Y-46172381D01*
X129983809Y-46172381D01*
X129888571Y-46124762D01*
X129840952Y-46077143D01*
X129793333Y-45981905D01*
X129793333Y-45696190D01*
X129840952Y-45600952D01*
X129888571Y-45553333D01*
X129983809Y-45505714D01*
X130174286Y-45505714D01*
X130269524Y-45553333D01*
X130840952Y-46172381D02*
X130745714Y-46124762D01*
X130698095Y-46077143D01*
X130650476Y-45981905D01*
X130650476Y-45696190D01*
X130698095Y-45600952D01*
X130745714Y-45553333D01*
X130840952Y-45505714D01*
X130983810Y-45505714D01*
X131079048Y-45553333D01*
X131126667Y-45600952D01*
X131174286Y-45696190D01*
X131174286Y-45981905D01*
X131126667Y-46077143D01*
X131079048Y-46124762D01*
X130983810Y-46172381D01*
X130840952Y-46172381D01*
X131602857Y-46172381D02*
X131602857Y-45505714D01*
X131602857Y-45600952D02*
X131650476Y-45553333D01*
X131745714Y-45505714D01*
X131888572Y-45505714D01*
X131983810Y-45553333D01*
X132031429Y-45648571D01*
X132031429Y-46172381D01*
X132031429Y-45648571D02*
X132079048Y-45553333D01*
X132174286Y-45505714D01*
X132317143Y-45505714D01*
X132412381Y-45553333D01*
X132460000Y-45648571D01*
X132460000Y-46172381D01*
X133650476Y-45124762D02*
X132793333Y-46410476D01*
X133840952Y-45505714D02*
X134221904Y-45505714D01*
X133983809Y-45172381D02*
X133983809Y-46029524D01*
X134031428Y-46124762D01*
X134126666Y-46172381D01*
X134221904Y-46172381D01*
X134936191Y-46124762D02*
X134840953Y-46172381D01*
X134650476Y-46172381D01*
X134555238Y-46124762D01*
X134507619Y-46029524D01*
X134507619Y-45648571D01*
X134555238Y-45553333D01*
X134650476Y-45505714D01*
X134840953Y-45505714D01*
X134936191Y-45553333D01*
X134983810Y-45648571D01*
X134983810Y-45743810D01*
X134507619Y-45839048D01*
X135412381Y-46172381D02*
X135412381Y-45172381D01*
X135412381Y-45553333D02*
X135507619Y-45505714D01*
X135698096Y-45505714D01*
X135793334Y-45553333D01*
X135840953Y-45600952D01*
X135888572Y-45696190D01*
X135888572Y-45981905D01*
X135840953Y-46077143D01*
X135793334Y-46124762D01*
X135698096Y-46172381D01*
X135507619Y-46172381D01*
X135412381Y-46124762D01*
X136460000Y-46172381D02*
X136364762Y-46124762D01*
X136317143Y-46029524D01*
X136317143Y-45172381D01*
X124650476Y-44219762D02*
X124793333Y-44267381D01*
X125031429Y-44267381D01*
X125126667Y-44219762D01*
X125174286Y-44172143D01*
X125221905Y-44076905D01*
X125221905Y-43981667D01*
X125174286Y-43886429D01*
X125126667Y-43838810D01*
X125031429Y-43791190D01*
X124840952Y-43743571D01*
X124745714Y-43695952D01*
X124698095Y-43648333D01*
X124650476Y-43553095D01*
X124650476Y-43457857D01*
X124698095Y-43362619D01*
X124745714Y-43315000D01*
X124840952Y-43267381D01*
X125079048Y-43267381D01*
X125221905Y-43315000D01*
X125650476Y-44267381D02*
X125650476Y-43600714D01*
X125650476Y-43267381D02*
X125602857Y-43315000D01*
X125650476Y-43362619D01*
X125698095Y-43315000D01*
X125650476Y-43267381D01*
X125650476Y-43362619D01*
X126126666Y-43600714D02*
X126126666Y-44267381D01*
X126126666Y-43695952D02*
X126174285Y-43648333D01*
X126269523Y-43600714D01*
X126412381Y-43600714D01*
X126507619Y-43648333D01*
X126555238Y-43743571D01*
X126555238Y-44267381D01*
X127460000Y-43600714D02*
X127460000Y-44410238D01*
X127412381Y-44505476D01*
X127364762Y-44553095D01*
X127269523Y-44600714D01*
X127126666Y-44600714D01*
X127031428Y-44553095D01*
X127460000Y-44219762D02*
X127364762Y-44267381D01*
X127174285Y-44267381D01*
X127079047Y-44219762D01*
X127031428Y-44172143D01*
X126983809Y-44076905D01*
X126983809Y-43791190D01*
X127031428Y-43695952D01*
X127079047Y-43648333D01*
X127174285Y-43600714D01*
X127364762Y-43600714D01*
X127460000Y-43648333D01*
X128079047Y-44267381D02*
X127983809Y-44219762D01*
X127936190Y-44124524D01*
X127936190Y-43267381D01*
X128840953Y-44219762D02*
X128745715Y-44267381D01*
X128555238Y-44267381D01*
X128460000Y-44219762D01*
X128412381Y-44124524D01*
X128412381Y-43743571D01*
X128460000Y-43648333D01*
X128555238Y-43600714D01*
X128745715Y-43600714D01*
X128840953Y-43648333D01*
X128888572Y-43743571D01*
X128888572Y-43838810D01*
X128412381Y-43934048D01*
X130412382Y-43743571D02*
X130555239Y-43791190D01*
X130602858Y-43838810D01*
X130650477Y-43934048D01*
X130650477Y-44076905D01*
X130602858Y-44172143D01*
X130555239Y-44219762D01*
X130460001Y-44267381D01*
X130079048Y-44267381D01*
X130079048Y-43267381D01*
X130412382Y-43267381D01*
X130507620Y-43315000D01*
X130555239Y-43362619D01*
X130602858Y-43457857D01*
X130602858Y-43553095D01*
X130555239Y-43648333D01*
X130507620Y-43695952D01*
X130412382Y-43743571D01*
X130079048Y-43743571D01*
X131221905Y-44267381D02*
X131126667Y-44219762D01*
X131079048Y-44172143D01*
X131031429Y-44076905D01*
X131031429Y-43791190D01*
X131079048Y-43695952D01*
X131126667Y-43648333D01*
X131221905Y-43600714D01*
X131364763Y-43600714D01*
X131460001Y-43648333D01*
X131507620Y-43695952D01*
X131555239Y-43791190D01*
X131555239Y-44076905D01*
X131507620Y-44172143D01*
X131460001Y-44219762D01*
X131364763Y-44267381D01*
X131221905Y-44267381D01*
X132412382Y-44267381D02*
X132412382Y-43743571D01*
X132364763Y-43648333D01*
X132269525Y-43600714D01*
X132079048Y-43600714D01*
X131983810Y-43648333D01*
X132412382Y-44219762D02*
X132317144Y-44267381D01*
X132079048Y-44267381D01*
X131983810Y-44219762D01*
X131936191Y-44124524D01*
X131936191Y-44029286D01*
X131983810Y-43934048D01*
X132079048Y-43886429D01*
X132317144Y-43886429D01*
X132412382Y-43838810D01*
X132888572Y-44267381D02*
X132888572Y-43600714D01*
X132888572Y-43791190D02*
X132936191Y-43695952D01*
X132983810Y-43648333D01*
X133079048Y-43600714D01*
X133174287Y-43600714D01*
X133936192Y-44267381D02*
X133936192Y-43267381D01*
X133936192Y-44219762D02*
X133840954Y-44267381D01*
X133650477Y-44267381D01*
X133555239Y-44219762D01*
X133507620Y-44172143D01*
X133460001Y-44076905D01*
X133460001Y-43791190D01*
X133507620Y-43695952D01*
X133555239Y-43648333D01*
X133650477Y-43600714D01*
X133840954Y-43600714D01*
X133936192Y-43648333D01*
X135745716Y-44172143D02*
X135698097Y-44219762D01*
X135555240Y-44267381D01*
X135460002Y-44267381D01*
X135317144Y-44219762D01*
X135221906Y-44124524D01*
X135174287Y-44029286D01*
X135126668Y-43838810D01*
X135126668Y-43695952D01*
X135174287Y-43505476D01*
X135221906Y-43410238D01*
X135317144Y-43315000D01*
X135460002Y-43267381D01*
X135555240Y-43267381D01*
X135698097Y-43315000D01*
X135745716Y-43362619D01*
X136317144Y-44267381D02*
X136221906Y-44219762D01*
X136174287Y-44172143D01*
X136126668Y-44076905D01*
X136126668Y-43791190D01*
X136174287Y-43695952D01*
X136221906Y-43648333D01*
X136317144Y-43600714D01*
X136460002Y-43600714D01*
X136555240Y-43648333D01*
X136602859Y-43695952D01*
X136650478Y-43791190D01*
X136650478Y-44076905D01*
X136602859Y-44172143D01*
X136555240Y-44219762D01*
X136460002Y-44267381D01*
X136317144Y-44267381D01*
X137079049Y-44267381D02*
X137079049Y-43600714D01*
X137079049Y-43695952D02*
X137126668Y-43648333D01*
X137221906Y-43600714D01*
X137364764Y-43600714D01*
X137460002Y-43648333D01*
X137507621Y-43743571D01*
X137507621Y-44267381D01*
X137507621Y-43743571D02*
X137555240Y-43648333D01*
X137650478Y-43600714D01*
X137793335Y-43600714D01*
X137888573Y-43648333D01*
X137936192Y-43743571D01*
X137936192Y-44267381D01*
X138412382Y-43600714D02*
X138412382Y-44600714D01*
X138412382Y-43648333D02*
X138507620Y-43600714D01*
X138698097Y-43600714D01*
X138793335Y-43648333D01*
X138840954Y-43695952D01*
X138888573Y-43791190D01*
X138888573Y-44076905D01*
X138840954Y-44172143D01*
X138793335Y-44219762D01*
X138698097Y-44267381D01*
X138507620Y-44267381D01*
X138412382Y-44219762D01*
X139745716Y-43600714D02*
X139745716Y-44267381D01*
X139317144Y-43600714D02*
X139317144Y-44124524D01*
X139364763Y-44219762D01*
X139460001Y-44267381D01*
X139602859Y-44267381D01*
X139698097Y-44219762D01*
X139745716Y-44172143D01*
X140079049Y-43600714D02*
X140460001Y-43600714D01*
X140221906Y-43267381D02*
X140221906Y-44124524D01*
X140269525Y-44219762D01*
X140364763Y-44267381D01*
X140460001Y-44267381D01*
X141174288Y-44219762D02*
X141079050Y-44267381D01*
X140888573Y-44267381D01*
X140793335Y-44219762D01*
X140745716Y-44124524D01*
X140745716Y-43743571D01*
X140793335Y-43648333D01*
X140888573Y-43600714D01*
X141079050Y-43600714D01*
X141174288Y-43648333D01*
X141221907Y-43743571D01*
X141221907Y-43838810D01*
X140745716Y-43934048D01*
X141650478Y-44267381D02*
X141650478Y-43600714D01*
X141650478Y-43791190D02*
X141698097Y-43695952D01*
X141745716Y-43648333D01*
X141840954Y-43600714D01*
X141936193Y-43600714D01*
X143317146Y-44648333D02*
X143269526Y-44600714D01*
X143174288Y-44457857D01*
X143126669Y-44362619D01*
X143079050Y-44219762D01*
X143031431Y-43981667D01*
X143031431Y-43791190D01*
X143079050Y-43553095D01*
X143126669Y-43410238D01*
X143174288Y-43315000D01*
X143269526Y-43172143D01*
X143317146Y-43124524D01*
X143650479Y-44219762D02*
X143793336Y-44267381D01*
X144031432Y-44267381D01*
X144126670Y-44219762D01*
X144174289Y-44172143D01*
X144221908Y-44076905D01*
X144221908Y-43981667D01*
X144174289Y-43886429D01*
X144126670Y-43838810D01*
X144031432Y-43791190D01*
X143840955Y-43743571D01*
X143745717Y-43695952D01*
X143698098Y-43648333D01*
X143650479Y-43553095D01*
X143650479Y-43457857D01*
X143698098Y-43362619D01*
X143745717Y-43315000D01*
X143840955Y-43267381D01*
X144079051Y-43267381D01*
X144221908Y-43315000D01*
X144983813Y-43743571D02*
X145126670Y-43791190D01*
X145174289Y-43838810D01*
X145221908Y-43934048D01*
X145221908Y-44076905D01*
X145174289Y-44172143D01*
X145126670Y-44219762D01*
X145031432Y-44267381D01*
X144650479Y-44267381D01*
X144650479Y-43267381D01*
X144983813Y-43267381D01*
X145079051Y-43315000D01*
X145126670Y-43362619D01*
X145174289Y-43457857D01*
X145174289Y-43553095D01*
X145126670Y-43648333D01*
X145079051Y-43695952D01*
X144983813Y-43743571D01*
X144650479Y-43743571D01*
X146221908Y-44172143D02*
X146174289Y-44219762D01*
X146031432Y-44267381D01*
X145936194Y-44267381D01*
X145793336Y-44219762D01*
X145698098Y-44124524D01*
X145650479Y-44029286D01*
X145602860Y-43838810D01*
X145602860Y-43695952D01*
X145650479Y-43505476D01*
X145698098Y-43410238D01*
X145793336Y-43315000D01*
X145936194Y-43267381D01*
X146031432Y-43267381D01*
X146174289Y-43315000D01*
X146221908Y-43362619D01*
X146555241Y-44648333D02*
X146602860Y-44600714D01*
X146698098Y-44457857D01*
X146745717Y-44362619D01*
X146793336Y-44219762D01*
X146840955Y-43981667D01*
X146840955Y-43791190D01*
X146793336Y-43553095D01*
X146745717Y-43410238D01*
X146698098Y-43315000D01*
X146602860Y-43172143D01*
X146555241Y-43124524D01*
D12*
X153035000Y-115189000D02*
X153035000Y-116713000D01*
X155448000Y-116713000D02*
X155448000Y-115189000D01*
X157988000Y-115189000D02*
X157988000Y-116713000D01*
X213360000Y-82550000D02*
X213360000Y-67310000D01*
X213995000Y-67310000D02*
X213995000Y-82550000D01*
X214630000Y-82550000D02*
X214630000Y-67310000D01*
X214630000Y-88900000D02*
X214630000Y-125730000D01*
X213995000Y-126365000D02*
X213995000Y-88900000D01*
X213360000Y-88900000D02*
X213360000Y-127000000D01*
D11*
X214447381Y-87605952D02*
X213447381Y-87605952D01*
X213447381Y-87224999D01*
X213495000Y-87129761D01*
X213542619Y-87082142D01*
X213637857Y-87034523D01*
X213780714Y-87034523D01*
X213875952Y-87082142D01*
X213923571Y-87129761D01*
X213971190Y-87224999D01*
X213971190Y-87605952D01*
X214447381Y-86605952D02*
X213447381Y-86605952D01*
X214447381Y-86129762D02*
X213447381Y-86129762D01*
X214447381Y-85558333D01*
X213447381Y-85558333D01*
X214447381Y-83796428D02*
X214447381Y-84367857D01*
X214447381Y-84082143D02*
X213447381Y-84082143D01*
X213590238Y-84177381D01*
X213685476Y-84272619D01*
X213733095Y-84367857D01*
D12*
X214630000Y-39370000D02*
X214630000Y-48260000D01*
X213995000Y-48260000D02*
X213995000Y-39370000D01*
X213360000Y-48260000D02*
X213360000Y-39370000D01*
X214630000Y-125730000D02*
X214630000Y-136525000D01*
X213995000Y-136525000D02*
X213995000Y-126365000D01*
X213360000Y-136525000D02*
X213360000Y-127000000D01*
X149225000Y-110490000D02*
X161925000Y-110490000D01*
X149225000Y-113030000D02*
X161925000Y-113030000D01*
X151467857Y-110938571D02*
X151967857Y-112438571D01*
X152467857Y-110938571D01*
X152967857Y-112438571D02*
X152967857Y-110938571D01*
X153539285Y-110938571D01*
X153682143Y-111010000D01*
X153753571Y-111081429D01*
X153825000Y-111224286D01*
X153825000Y-111438571D01*
X153753571Y-111581429D01*
X153682143Y-111652857D01*
X153539285Y-111724286D01*
X152967857Y-111724286D01*
X156396428Y-111010000D02*
X156253571Y-110938571D01*
X156039285Y-110938571D01*
X155825000Y-111010000D01*
X155682142Y-111152857D01*
X155610714Y-111295714D01*
X155539285Y-111581429D01*
X155539285Y-111795714D01*
X155610714Y-112081429D01*
X155682142Y-112224286D01*
X155825000Y-112367143D01*
X156039285Y-112438571D01*
X156182142Y-112438571D01*
X156396428Y-112367143D01*
X156467857Y-112295714D01*
X156467857Y-111795714D01*
X156182142Y-111795714D01*
X157110714Y-112438571D02*
X157110714Y-110938571D01*
X157967857Y-112438571D01*
X157967857Y-110938571D01*
X158682143Y-112438571D02*
X158682143Y-110938571D01*
X159039286Y-110938571D01*
X159253571Y-111010000D01*
X159396429Y-111152857D01*
X159467857Y-111295714D01*
X159539286Y-111581429D01*
X159539286Y-111795714D01*
X159467857Y-112081429D01*
X159396429Y-112224286D01*
X159253571Y-112367143D01*
X159039286Y-112438571D01*
X158682143Y-112438571D01*
X152303571Y-116832143D02*
X152303571Y-116546429D01*
X152375000Y-116403571D01*
X152517857Y-116260714D01*
X152803571Y-116189286D01*
X153303571Y-116189286D01*
X153589286Y-116260714D01*
X153732143Y-116403571D01*
X153803571Y-116546429D01*
X153803571Y-116832143D01*
X153732143Y-116975000D01*
X153589286Y-117117857D01*
X153303571Y-117189286D01*
X152803571Y-117189286D01*
X152517857Y-117117857D01*
X152375000Y-116975000D01*
X152303571Y-116832143D01*
X152303571Y-115260714D02*
X152303571Y-114975000D01*
X152375000Y-114832142D01*
X152517857Y-114689285D01*
X152803571Y-114617857D01*
X153303571Y-114617857D01*
X153589286Y-114689285D01*
X153732143Y-114832142D01*
X153803571Y-114975000D01*
X153803571Y-115260714D01*
X153732143Y-115403571D01*
X153589286Y-115546428D01*
X153303571Y-115617857D01*
X152803571Y-115617857D01*
X152517857Y-115546428D01*
X152375000Y-115403571D01*
X152303571Y-115260714D01*
X154753571Y-116832143D02*
X154753571Y-116546429D01*
X154825000Y-116403571D01*
X154967857Y-116260714D01*
X155253571Y-116189286D01*
X155753571Y-116189286D01*
X156039286Y-116260714D01*
X156182143Y-116403571D01*
X156253571Y-116546429D01*
X156253571Y-116832143D01*
X156182143Y-116975000D01*
X156039286Y-117117857D01*
X155753571Y-117189286D01*
X155253571Y-117189286D01*
X154967857Y-117117857D01*
X154825000Y-116975000D01*
X154753571Y-116832143D01*
X154753571Y-115260714D02*
X154753571Y-114975000D01*
X154825000Y-114832142D01*
X154967857Y-114689285D01*
X155253571Y-114617857D01*
X155753571Y-114617857D01*
X156039286Y-114689285D01*
X156182143Y-114832142D01*
X156253571Y-114975000D01*
X156253571Y-115260714D01*
X156182143Y-115403571D01*
X156039286Y-115546428D01*
X155753571Y-115617857D01*
X155253571Y-115617857D01*
X154967857Y-115546428D01*
X154825000Y-115403571D01*
X154753571Y-115260714D01*
X157203571Y-116832143D02*
X157203571Y-116546429D01*
X157275000Y-116403571D01*
X157417857Y-116260714D01*
X157703571Y-116189286D01*
X158203571Y-116189286D01*
X158489286Y-116260714D01*
X158632143Y-116403571D01*
X158703571Y-116546429D01*
X158703571Y-116832143D01*
X158632143Y-116975000D01*
X158489286Y-117117857D01*
X158203571Y-117189286D01*
X157703571Y-117189286D01*
X157417857Y-117117857D01*
X157275000Y-116975000D01*
X157203571Y-116832143D01*
X157203571Y-115260714D02*
X157203571Y-114975000D01*
X157275000Y-114832142D01*
X157417857Y-114689285D01*
X157703571Y-114617857D01*
X158203571Y-114617857D01*
X158489286Y-114689285D01*
X158632143Y-114832142D01*
X158703571Y-114975000D01*
X158703571Y-115260714D01*
X158632143Y-115403571D01*
X158489286Y-115546428D01*
X158203571Y-115617857D01*
X157703571Y-115617857D01*
X157417857Y-115546428D01*
X157275000Y-115403571D01*
X157203571Y-115260714D01*
X152303571Y-129182857D02*
X153517857Y-129182857D01*
X153660714Y-129111429D01*
X153732143Y-129040000D01*
X153803571Y-128897143D01*
X153803571Y-128611429D01*
X153732143Y-128468571D01*
X153660714Y-128397143D01*
X153517857Y-128325714D01*
X152303571Y-128325714D01*
X153803571Y-127611428D02*
X152303571Y-127611428D01*
X153375000Y-127111428D01*
X152303571Y-126611428D01*
X153803571Y-126611428D01*
X152303571Y-125254285D02*
X152303571Y-125539999D01*
X152375000Y-125682856D01*
X152446429Y-125754285D01*
X152660714Y-125897142D01*
X152946429Y-125968571D01*
X153517857Y-125968571D01*
X153660714Y-125897142D01*
X153732143Y-125825714D01*
X153803571Y-125682856D01*
X153803571Y-125397142D01*
X153732143Y-125254285D01*
X153660714Y-125182856D01*
X153517857Y-125111428D01*
X153160714Y-125111428D01*
X153017857Y-125182856D01*
X152946429Y-125254285D01*
X152875000Y-125397142D01*
X152875000Y-125682856D01*
X152946429Y-125825714D01*
X153017857Y-125897142D01*
X153160714Y-125968571D01*
X152303571Y-123754285D02*
X152303571Y-124468571D01*
X153017857Y-124540000D01*
X152946429Y-124468571D01*
X152875000Y-124325714D01*
X152875000Y-123968571D01*
X152946429Y-123825714D01*
X153017857Y-123754285D01*
X153160714Y-123682857D01*
X153517857Y-123682857D01*
X153660714Y-123754285D01*
X153732143Y-123825714D01*
X153803571Y-123968571D01*
X153803571Y-124325714D01*
X153732143Y-124468571D01*
X153660714Y-124540000D01*
X152303571Y-122754286D02*
X152303571Y-122611429D01*
X152375000Y-122468572D01*
X152446429Y-122397143D01*
X152589286Y-122325714D01*
X152875000Y-122254286D01*
X153232143Y-122254286D01*
X153517857Y-122325714D01*
X153660714Y-122397143D01*
X153732143Y-122468572D01*
X153803571Y-122611429D01*
X153803571Y-122754286D01*
X153732143Y-122897143D01*
X153660714Y-122968572D01*
X153517857Y-123040000D01*
X153232143Y-123111429D01*
X152875000Y-123111429D01*
X152589286Y-123040000D01*
X152446429Y-122968572D01*
X152375000Y-122897143D01*
X152303571Y-122754286D01*
X152446429Y-121682858D02*
X152375000Y-121611429D01*
X152303571Y-121468572D01*
X152303571Y-121111429D01*
X152375000Y-120968572D01*
X152446429Y-120897143D01*
X152589286Y-120825715D01*
X152732143Y-120825715D01*
X152946429Y-120897143D01*
X153803571Y-121754286D01*
X153803571Y-120825715D01*
X156182143Y-129254286D02*
X156253571Y-129040000D01*
X156253571Y-128682857D01*
X156182143Y-128540000D01*
X156110714Y-128468571D01*
X155967857Y-128397143D01*
X155825000Y-128397143D01*
X155682143Y-128468571D01*
X155610714Y-128540000D01*
X155539286Y-128682857D01*
X155467857Y-128968571D01*
X155396429Y-129111429D01*
X155325000Y-129182857D01*
X155182143Y-129254286D01*
X155039286Y-129254286D01*
X154896429Y-129182857D01*
X154825000Y-129111429D01*
X154753571Y-128968571D01*
X154753571Y-128611429D01*
X154825000Y-128397143D01*
X155539286Y-127468572D02*
X156253571Y-127468572D01*
X154753571Y-127968572D02*
X155539286Y-127468572D01*
X154753571Y-126968572D01*
X154753571Y-125825715D02*
X154753571Y-126111429D01*
X154825000Y-126254286D01*
X154896429Y-126325715D01*
X155110714Y-126468572D01*
X155396429Y-126540001D01*
X155967857Y-126540001D01*
X156110714Y-126468572D01*
X156182143Y-126397144D01*
X156253571Y-126254286D01*
X156253571Y-125968572D01*
X156182143Y-125825715D01*
X156110714Y-125754286D01*
X155967857Y-125682858D01*
X155610714Y-125682858D01*
X155467857Y-125754286D01*
X155396429Y-125825715D01*
X155325000Y-125968572D01*
X155325000Y-126254286D01*
X155396429Y-126397144D01*
X155467857Y-126468572D01*
X155610714Y-126540001D01*
X154753571Y-124325715D02*
X154753571Y-125040001D01*
X155467857Y-125111430D01*
X155396429Y-125040001D01*
X155325000Y-124897144D01*
X155325000Y-124540001D01*
X155396429Y-124397144D01*
X155467857Y-124325715D01*
X155610714Y-124254287D01*
X155967857Y-124254287D01*
X156110714Y-124325715D01*
X156182143Y-124397144D01*
X156253571Y-124540001D01*
X156253571Y-124897144D01*
X156182143Y-125040001D01*
X156110714Y-125111430D01*
X154753571Y-123325716D02*
X154753571Y-123182859D01*
X154825000Y-123040002D01*
X154896429Y-122968573D01*
X155039286Y-122897144D01*
X155325000Y-122825716D01*
X155682143Y-122825716D01*
X155967857Y-122897144D01*
X156110714Y-122968573D01*
X156182143Y-123040002D01*
X156253571Y-123182859D01*
X156253571Y-123325716D01*
X156182143Y-123468573D01*
X156110714Y-123540002D01*
X155967857Y-123611430D01*
X155682143Y-123682859D01*
X155325000Y-123682859D01*
X155039286Y-123611430D01*
X154896429Y-123540002D01*
X154825000Y-123468573D01*
X154753571Y-123325716D01*
X154896429Y-122254288D02*
X154825000Y-122182859D01*
X154753571Y-122040002D01*
X154753571Y-121682859D01*
X154825000Y-121540002D01*
X154896429Y-121468573D01*
X155039286Y-121397145D01*
X155182143Y-121397145D01*
X155396429Y-121468573D01*
X156253571Y-122325716D01*
X156253571Y-121397145D01*
X158703571Y-128325714D02*
X157989286Y-128825714D01*
X158703571Y-129182857D02*
X157203571Y-129182857D01*
X157203571Y-128611429D01*
X157275000Y-128468571D01*
X157346429Y-128397143D01*
X157489286Y-128325714D01*
X157703571Y-128325714D01*
X157846429Y-128397143D01*
X157917857Y-128468571D01*
X157989286Y-128611429D01*
X157989286Y-129182857D01*
X157203571Y-127040000D02*
X157203571Y-127325714D01*
X157275000Y-127468571D01*
X157346429Y-127540000D01*
X157560714Y-127682857D01*
X157846429Y-127754286D01*
X158417857Y-127754286D01*
X158560714Y-127682857D01*
X158632143Y-127611429D01*
X158703571Y-127468571D01*
X158703571Y-127182857D01*
X158632143Y-127040000D01*
X158560714Y-126968571D01*
X158417857Y-126897143D01*
X158060714Y-126897143D01*
X157917857Y-126968571D01*
X157846429Y-127040000D01*
X157775000Y-127182857D01*
X157775000Y-127468571D01*
X157846429Y-127611429D01*
X157917857Y-127682857D01*
X158060714Y-127754286D01*
X157203571Y-125540000D02*
X157203571Y-126254286D01*
X157917857Y-126325715D01*
X157846429Y-126254286D01*
X157775000Y-126111429D01*
X157775000Y-125754286D01*
X157846429Y-125611429D01*
X157917857Y-125540000D01*
X158060714Y-125468572D01*
X158417857Y-125468572D01*
X158560714Y-125540000D01*
X158632143Y-125611429D01*
X158703571Y-125754286D01*
X158703571Y-126111429D01*
X158632143Y-126254286D01*
X158560714Y-126325715D01*
X158560714Y-123968572D02*
X158632143Y-124040001D01*
X158703571Y-124254287D01*
X158703571Y-124397144D01*
X158632143Y-124611429D01*
X158489286Y-124754287D01*
X158346429Y-124825715D01*
X158060714Y-124897144D01*
X157846429Y-124897144D01*
X157560714Y-124825715D01*
X157417857Y-124754287D01*
X157275000Y-124611429D01*
X157203571Y-124397144D01*
X157203571Y-124254287D01*
X157275000Y-124040001D01*
X157346429Y-123968572D01*
X157203571Y-123040001D02*
X157203571Y-122897144D01*
X157275000Y-122754287D01*
X157346429Y-122682858D01*
X157489286Y-122611429D01*
X157775000Y-122540001D01*
X158132143Y-122540001D01*
X158417857Y-122611429D01*
X158560714Y-122682858D01*
X158632143Y-122754287D01*
X158703571Y-122897144D01*
X158703571Y-123040001D01*
X158632143Y-123182858D01*
X158560714Y-123254287D01*
X158417857Y-123325715D01*
X158132143Y-123397144D01*
X157775000Y-123397144D01*
X157489286Y-123325715D01*
X157346429Y-123254287D01*
X157275000Y-123182858D01*
X157203571Y-123040001D01*
X157346429Y-121968573D02*
X157275000Y-121897144D01*
X157203571Y-121754287D01*
X157203571Y-121397144D01*
X157275000Y-121254287D01*
X157346429Y-121182858D01*
X157489286Y-121111430D01*
X157632143Y-121111430D01*
X157846429Y-121182858D01*
X158703571Y-122040001D01*
X158703571Y-121111430D01*
D10*
X186251905Y-47802381D02*
X186899524Y-47802381D01*
X186975714Y-47764286D01*
X187013810Y-47726190D01*
X187051905Y-47650000D01*
X187051905Y-47497619D01*
X187013810Y-47421428D01*
X186975714Y-47383333D01*
X186899524Y-47345238D01*
X186251905Y-47345238D01*
X187013810Y-47002381D02*
X187051905Y-46888095D01*
X187051905Y-46697619D01*
X187013810Y-46621429D01*
X186975714Y-46583333D01*
X186899524Y-46545238D01*
X186823333Y-46545238D01*
X186747143Y-46583333D01*
X186709048Y-46621429D01*
X186670952Y-46697619D01*
X186632857Y-46850000D01*
X186594762Y-46926191D01*
X186556667Y-46964286D01*
X186480476Y-47002381D01*
X186404286Y-47002381D01*
X186328095Y-46964286D01*
X186290000Y-46926191D01*
X186251905Y-46850000D01*
X186251905Y-46659524D01*
X186290000Y-46545238D01*
X186632857Y-45935714D02*
X186670952Y-45821428D01*
X186709048Y-45783333D01*
X186785238Y-45745238D01*
X186899524Y-45745238D01*
X186975714Y-45783333D01*
X187013810Y-45821428D01*
X187051905Y-45897619D01*
X187051905Y-46202381D01*
X186251905Y-46202381D01*
X186251905Y-45935714D01*
X186290000Y-45859524D01*
X186328095Y-45821428D01*
X186404286Y-45783333D01*
X186480476Y-45783333D01*
X186556667Y-45821428D01*
X186594762Y-45859524D01*
X186632857Y-45935714D01*
X186632857Y-46202381D01*
X187051905Y-44792857D02*
X186251905Y-44792857D01*
X186251905Y-44488095D01*
X186290000Y-44411904D01*
X186328095Y-44373809D01*
X186404286Y-44335714D01*
X186518571Y-44335714D01*
X186594762Y-44373809D01*
X186632857Y-44411904D01*
X186670952Y-44488095D01*
X186670952Y-44792857D01*
X186251905Y-43840476D02*
X186251905Y-43688095D01*
X186290000Y-43611904D01*
X186366190Y-43535714D01*
X186518571Y-43497619D01*
X186785238Y-43497619D01*
X186937619Y-43535714D01*
X187013810Y-43611904D01*
X187051905Y-43688095D01*
X187051905Y-43840476D01*
X187013810Y-43916666D01*
X186937619Y-43992857D01*
X186785238Y-44030952D01*
X186518571Y-44030952D01*
X186366190Y-43992857D01*
X186290000Y-43916666D01*
X186251905Y-43840476D01*
X186251905Y-43230952D02*
X187051905Y-43040476D01*
X186480476Y-42888095D01*
X187051905Y-42735714D01*
X186251905Y-42545238D01*
X186632857Y-42240476D02*
X186632857Y-41973809D01*
X187051905Y-41859523D02*
X187051905Y-42240476D01*
X186251905Y-42240476D01*
X186251905Y-41859523D01*
X187051905Y-41059523D02*
X186670952Y-41326190D01*
X187051905Y-41516666D02*
X186251905Y-41516666D01*
X186251905Y-41211904D01*
X186290000Y-41135713D01*
X186328095Y-41097618D01*
X186404286Y-41059523D01*
X186518571Y-41059523D01*
X186594762Y-41097618D01*
X186632857Y-41135713D01*
X186670952Y-41211904D01*
X186670952Y-41516666D01*
X195941905Y-46297619D02*
X195141905Y-46297619D01*
X195141905Y-45992857D01*
X195180000Y-45916666D01*
X195218095Y-45878571D01*
X195294286Y-45840476D01*
X195408571Y-45840476D01*
X195484762Y-45878571D01*
X195522857Y-45916666D01*
X195560952Y-45992857D01*
X195560952Y-46297619D01*
X195141905Y-45345238D02*
X195141905Y-45192857D01*
X195180000Y-45116666D01*
X195256190Y-45040476D01*
X195408571Y-45002381D01*
X195675238Y-45002381D01*
X195827619Y-45040476D01*
X195903810Y-45116666D01*
X195941905Y-45192857D01*
X195941905Y-45345238D01*
X195903810Y-45421428D01*
X195827619Y-45497619D01*
X195675238Y-45535714D01*
X195408571Y-45535714D01*
X195256190Y-45497619D01*
X195180000Y-45421428D01*
X195141905Y-45345238D01*
X195141905Y-44735714D02*
X195941905Y-44545238D01*
X195370476Y-44392857D01*
X195941905Y-44240476D01*
X195141905Y-44050000D01*
X195522857Y-43745238D02*
X195522857Y-43478571D01*
X195941905Y-43364285D02*
X195941905Y-43745238D01*
X195141905Y-43745238D01*
X195141905Y-43364285D01*
X195941905Y-42564285D02*
X195560952Y-42830952D01*
X195941905Y-43021428D02*
X195141905Y-43021428D01*
X195141905Y-42716666D01*
X195180000Y-42640475D01*
X195218095Y-42602380D01*
X195294286Y-42564285D01*
X195408571Y-42564285D01*
X195484762Y-42602380D01*
X195522857Y-42640475D01*
X195560952Y-42716666D01*
X195560952Y-43021428D01*
X207625905Y-45357905D02*
X207244952Y-45624572D01*
X207625905Y-45815048D02*
X206825905Y-45815048D01*
X206825905Y-45510286D01*
X206864000Y-45434095D01*
X206902095Y-45396000D01*
X206978286Y-45357905D01*
X207092571Y-45357905D01*
X207168762Y-45396000D01*
X207206857Y-45434095D01*
X207244952Y-45510286D01*
X207244952Y-45815048D01*
X207206857Y-45015048D02*
X207206857Y-44748381D01*
X207625905Y-44634095D02*
X207625905Y-45015048D01*
X206825905Y-45015048D01*
X206825905Y-44634095D01*
X207587810Y-44329333D02*
X207625905Y-44215047D01*
X207625905Y-44024571D01*
X207587810Y-43948381D01*
X207549714Y-43910285D01*
X207473524Y-43872190D01*
X207397333Y-43872190D01*
X207321143Y-43910285D01*
X207283048Y-43948381D01*
X207244952Y-44024571D01*
X207206857Y-44176952D01*
X207168762Y-44253143D01*
X207130667Y-44291238D01*
X207054476Y-44329333D01*
X206978286Y-44329333D01*
X206902095Y-44291238D01*
X206864000Y-44253143D01*
X206825905Y-44176952D01*
X206825905Y-43986476D01*
X206864000Y-43872190D01*
X207206857Y-43529333D02*
X207206857Y-43262666D01*
X207625905Y-43148380D02*
X207625905Y-43529333D01*
X206825905Y-43529333D01*
X206825905Y-43148380D01*
X206825905Y-42919809D02*
X206825905Y-42462666D01*
X207625905Y-42691237D02*
X206825905Y-42691237D01*
D13*
X125674286Y-42588571D02*
X125174286Y-41874286D01*
X124817143Y-42588571D02*
X124817143Y-41088571D01*
X125388571Y-41088571D01*
X125531429Y-41160000D01*
X125602857Y-41231429D01*
X125674286Y-41374286D01*
X125674286Y-41588571D01*
X125602857Y-41731429D01*
X125531429Y-41802857D01*
X125388571Y-41874286D01*
X124817143Y-41874286D01*
X127174286Y-42445714D02*
X127102857Y-42517143D01*
X126888571Y-42588571D01*
X126745714Y-42588571D01*
X126531429Y-42517143D01*
X126388571Y-42374286D01*
X126317143Y-42231429D01*
X126245714Y-41945714D01*
X126245714Y-41731429D01*
X126317143Y-41445714D01*
X126388571Y-41302857D01*
X126531429Y-41160000D01*
X126745714Y-41088571D01*
X126888571Y-41088571D01*
X127102857Y-41160000D01*
X127174286Y-41231429D01*
X128460000Y-41088571D02*
X128174286Y-41088571D01*
X128031429Y-41160000D01*
X127960000Y-41231429D01*
X127817143Y-41445714D01*
X127745714Y-41731429D01*
X127745714Y-42302857D01*
X127817143Y-42445714D01*
X127888571Y-42517143D01*
X128031429Y-42588571D01*
X128317143Y-42588571D01*
X128460000Y-42517143D01*
X128531429Y-42445714D01*
X128602857Y-42302857D01*
X128602857Y-41945714D01*
X128531429Y-41802857D01*
X128460000Y-41731429D01*
X128317143Y-41660000D01*
X128031429Y-41660000D01*
X127888571Y-41731429D01*
X127817143Y-41802857D01*
X127745714Y-41945714D01*
X129960000Y-41088571D02*
X129245714Y-41088571D01*
X129174285Y-41802857D01*
X129245714Y-41731429D01*
X129388571Y-41660000D01*
X129745714Y-41660000D01*
X129888571Y-41731429D01*
X129960000Y-41802857D01*
X130031428Y-41945714D01*
X130031428Y-42302857D01*
X129960000Y-42445714D01*
X129888571Y-42517143D01*
X129745714Y-42588571D01*
X129388571Y-42588571D01*
X129245714Y-42517143D01*
X129174285Y-42445714D01*
X130959999Y-41088571D02*
X131102856Y-41088571D01*
X131245713Y-41160000D01*
X131317142Y-41231429D01*
X131388571Y-41374286D01*
X131459999Y-41660000D01*
X131459999Y-42017143D01*
X131388571Y-42302857D01*
X131317142Y-42445714D01*
X131245713Y-42517143D01*
X131102856Y-42588571D01*
X130959999Y-42588571D01*
X130817142Y-42517143D01*
X130745713Y-42445714D01*
X130674285Y-42302857D01*
X130602856Y-42017143D01*
X130602856Y-41660000D01*
X130674285Y-41374286D01*
X130745713Y-41231429D01*
X130817142Y-41160000D01*
X130959999Y-41088571D01*
X132031427Y-41231429D02*
X132102856Y-41160000D01*
X132245713Y-41088571D01*
X132602856Y-41088571D01*
X132745713Y-41160000D01*
X132817142Y-41231429D01*
X132888570Y-41374286D01*
X132888570Y-41517143D01*
X132817142Y-41731429D01*
X131959999Y-42588571D01*
X132888570Y-42588571D01*
X134602855Y-42160000D02*
X135317141Y-42160000D01*
X134459998Y-42588571D02*
X134959998Y-41088571D01*
X135459998Y-42588571D01*
X135959998Y-41588571D02*
X135959998Y-43088571D01*
X135959998Y-41660000D02*
X136102855Y-41588571D01*
X136388569Y-41588571D01*
X136531426Y-41660000D01*
X136602855Y-41731429D01*
X136674284Y-41874286D01*
X136674284Y-42302857D01*
X136602855Y-42445714D01*
X136531426Y-42517143D01*
X136388569Y-42588571D01*
X136102855Y-42588571D01*
X135959998Y-42517143D01*
X137317141Y-41588571D02*
X137317141Y-43088571D01*
X137317141Y-41660000D02*
X137459998Y-41588571D01*
X137745712Y-41588571D01*
X137888569Y-41660000D01*
X137959998Y-41731429D01*
X138031427Y-41874286D01*
X138031427Y-42302857D01*
X137959998Y-42445714D01*
X137888569Y-42517143D01*
X137745712Y-42588571D01*
X137459998Y-42588571D01*
X137317141Y-42517143D01*
X138888570Y-42588571D02*
X138745712Y-42517143D01*
X138674284Y-42374286D01*
X138674284Y-41088571D01*
X140031426Y-42517143D02*
X139888569Y-42588571D01*
X139602855Y-42588571D01*
X139459998Y-42517143D01*
X139388569Y-42374286D01*
X139388569Y-41802857D01*
X139459998Y-41660000D01*
X139602855Y-41588571D01*
X139888569Y-41588571D01*
X140031426Y-41660000D01*
X140102855Y-41802857D01*
X140102855Y-41945714D01*
X139388569Y-42088571D01*
X142674283Y-42588571D02*
X141817140Y-42588571D01*
X142245712Y-42588571D02*
X142245712Y-41088571D01*
X142102855Y-41302857D01*
X141959997Y-41445714D01*
X141817140Y-41517143D01*
X145317140Y-42588571D02*
X144817140Y-41874286D01*
X144459997Y-42588571D02*
X144459997Y-41088571D01*
X145031425Y-41088571D01*
X145174283Y-41160000D01*
X145245711Y-41231429D01*
X145317140Y-41374286D01*
X145317140Y-41588571D01*
X145245711Y-41731429D01*
X145174283Y-41802857D01*
X145031425Y-41874286D01*
X144459997Y-41874286D01*
X146531425Y-42517143D02*
X146388568Y-42588571D01*
X146102854Y-42588571D01*
X145959997Y-42517143D01*
X145888568Y-42374286D01*
X145888568Y-41802857D01*
X145959997Y-41660000D01*
X146102854Y-41588571D01*
X146388568Y-41588571D01*
X146531425Y-41660000D01*
X146602854Y-41802857D01*
X146602854Y-41945714D01*
X145888568Y-42088571D01*
X147245711Y-41588571D02*
X147245711Y-43088571D01*
X147245711Y-41660000D02*
X147388568Y-41588571D01*
X147674282Y-41588571D01*
X147817139Y-41660000D01*
X147888568Y-41731429D01*
X147959997Y-41874286D01*
X147959997Y-42302857D01*
X147888568Y-42445714D01*
X147817139Y-42517143D01*
X147674282Y-42588571D01*
X147388568Y-42588571D01*
X147245711Y-42517143D01*
X148817140Y-42588571D02*
X148674282Y-42517143D01*
X148602854Y-42374286D01*
X148602854Y-41088571D01*
X149388568Y-42588571D02*
X149388568Y-41588571D01*
X149388568Y-41088571D02*
X149317139Y-41160000D01*
X149388568Y-41231429D01*
X149459996Y-41160000D01*
X149388568Y-41088571D01*
X149388568Y-41231429D01*
X150745711Y-42517143D02*
X150602854Y-42588571D01*
X150317140Y-42588571D01*
X150174282Y-42517143D01*
X150102854Y-42445714D01*
X150031425Y-42302857D01*
X150031425Y-41874286D01*
X150102854Y-41731429D01*
X150174282Y-41660000D01*
X150317140Y-41588571D01*
X150602854Y-41588571D01*
X150745711Y-41660000D01*
X152031425Y-42588571D02*
X152031425Y-41802857D01*
X151959996Y-41660000D01*
X151817139Y-41588571D01*
X151531425Y-41588571D01*
X151388568Y-41660000D01*
X152031425Y-42517143D02*
X151888568Y-42588571D01*
X151531425Y-42588571D01*
X151388568Y-42517143D01*
X151317139Y-42374286D01*
X151317139Y-42231429D01*
X151388568Y-42088571D01*
X151531425Y-42017143D01*
X151888568Y-42017143D01*
X152031425Y-41945714D01*
D14*
X199025000Y-94495000D02*
X193445000Y-94495000D01*
X193445000Y-94495000D02*
X193445000Y-130295000D01*
X193445000Y-130295000D02*
X206605000Y-130295000D01*
X206605000Y-130295000D02*
X206605000Y-94495000D01*
X206605000Y-94495000D02*
X201025000Y-94495000D01*
X191015000Y-94495000D02*
X191015000Y-130295000D01*
X191015000Y-130295000D02*
X209035000Y-130295000D01*
X209035000Y-130295000D02*
X209035000Y-94495000D01*
X209035000Y-94495000D02*
X191015000Y-94495000D01*
X201025000Y-94495000D02*
G75*
G02X199025000Y-94495000I-1000000J0D01*
G01*
X154575000Y-81160000D02*
X148995000Y-81160000D01*
X148995000Y-81160000D02*
X148995000Y-132200000D01*
X148995000Y-132200000D02*
X162155000Y-132200000D01*
X162155000Y-132200000D02*
X162155000Y-81160000D01*
X162155000Y-81160000D02*
X156575000Y-81160000D01*
X146565000Y-81160000D02*
X146565000Y-132200000D01*
X146565000Y-132200000D02*
X164585000Y-132200000D01*
X164585000Y-132200000D02*
X164585000Y-81160000D01*
X164585000Y-81160000D02*
X146565000Y-81160000D01*
X156575000Y-81160000D02*
G75*
G02X154575000Y-81160000I-1000000J0D01*
G01*
X187595000Y-70365000D02*
X185825000Y-70365000D01*
X185825000Y-70365000D02*
X185825000Y-88385000D01*
X185825000Y-88385000D02*
X191365000Y-88385000D01*
X191365000Y-88385000D02*
X191365000Y-70365000D01*
X191365000Y-70365000D02*
X189595000Y-70365000D01*
X189595000Y-70365000D02*
G75*
G02X187595000Y-70365000I-1000000J0D01*
G01*
X142835000Y-101510000D02*
X142835000Y-96690000D01*
X145455000Y-101510000D02*
X145455000Y-96690000D01*
X142835000Y-101510000D02*
X143149000Y-101510000D01*
X145141000Y-101510000D02*
X145455000Y-101510000D01*
X142835000Y-96690000D02*
X143149000Y-96690000D01*
X145141000Y-96690000D02*
X145455000Y-96690000D01*
X189905000Y-95975000D02*
X189905000Y-100795000D01*
X187285000Y-95975000D02*
X187285000Y-100795000D01*
X189905000Y-95975000D02*
X189591000Y-95975000D01*
X187599000Y-95975000D02*
X187285000Y-95975000D01*
X189905000Y-100795000D02*
X189591000Y-100795000D01*
X187599000Y-100795000D02*
X187285000Y-100795000D01*
X212765000Y-95975000D02*
X212765000Y-100795000D01*
X210145000Y-95975000D02*
X210145000Y-100795000D01*
X212765000Y-95975000D02*
X212451000Y-95975000D01*
X210459000Y-95975000D02*
X210145000Y-95975000D01*
X212765000Y-100795000D02*
X212451000Y-100795000D01*
X210459000Y-100795000D02*
X210145000Y-100795000D01*
X212765000Y-71845000D02*
X212765000Y-76665000D01*
X210145000Y-71845000D02*
X210145000Y-76665000D01*
X212765000Y-71845000D02*
X212451000Y-71845000D01*
X210459000Y-71845000D02*
X210145000Y-71845000D01*
X212765000Y-76665000D02*
X212451000Y-76665000D01*
X210459000Y-76665000D02*
X210145000Y-76665000D01*
X158790000Y-57240000D02*
X158790000Y-62060000D01*
X156170000Y-57240000D02*
X156170000Y-62060000D01*
X158790000Y-57240000D02*
X158476000Y-57240000D01*
X156484000Y-57240000D02*
X156170000Y-57240000D01*
X158790000Y-62060000D02*
X158476000Y-62060000D01*
X156484000Y-62060000D02*
X156170000Y-62060000D01*
X196890000Y-71845000D02*
X196890000Y-76665000D01*
X194270000Y-71845000D02*
X194270000Y-76665000D01*
X196890000Y-71845000D02*
X196576000Y-71845000D01*
X194584000Y-71845000D02*
X194270000Y-71845000D01*
X196890000Y-76665000D02*
X196576000Y-76665000D01*
X194584000Y-76665000D02*
X194270000Y-76665000D01*
X119975000Y-127545000D02*
X119975000Y-122725000D01*
X122595000Y-127545000D02*
X122595000Y-122725000D01*
X119975000Y-127545000D02*
X120289000Y-127545000D01*
X122281000Y-127545000D02*
X122595000Y-127545000D01*
X119975000Y-122725000D02*
X120289000Y-122725000D01*
X122281000Y-122725000D02*
X122595000Y-122725000D01*
X144235000Y-75525000D02*
X149055000Y-75525000D01*
X144235000Y-78145000D02*
X149055000Y-78145000D01*
X144235000Y-75525000D02*
X144235000Y-75839000D01*
X144235000Y-77831000D02*
X144235000Y-78145000D01*
X149055000Y-75525000D02*
X149055000Y-75839000D01*
X149055000Y-77831000D02*
X149055000Y-78145000D01*
X158790000Y-48985000D02*
X158790000Y-53805000D01*
X156170000Y-48985000D02*
X156170000Y-53805000D01*
X158790000Y-48985000D02*
X158476000Y-48985000D01*
X156484000Y-48985000D02*
X156170000Y-48985000D01*
X158790000Y-53805000D02*
X158476000Y-53805000D01*
X156484000Y-53805000D02*
X156170000Y-53805000D01*
X179705000Y-64135000D02*
X177165000Y-64135000D01*
X177165000Y-64135000D02*
X177165000Y-66805000D01*
X179705000Y-66805000D02*
X217935000Y-66805000D01*
X174495000Y-66805000D02*
X177165000Y-66805000D01*
X177165000Y-51435000D02*
X177165000Y-48765000D01*
X177165000Y-51435000D02*
X215265000Y-51435000D01*
X215265000Y-51435000D02*
X215265000Y-48765000D01*
X179705000Y-64135000D02*
X179705000Y-66805000D01*
X179705000Y-64135000D02*
X215265000Y-64135000D01*
X215265000Y-64135000D02*
X215265000Y-66805000D01*
X217935000Y-66805000D02*
X217935000Y-48765000D01*
X217935000Y-48765000D02*
X174495000Y-48765000D01*
X174495000Y-48765000D02*
X174495000Y-66805000D01*
X215325000Y-139135000D02*
X212725000Y-139135000D01*
X212725000Y-139135000D02*
X212725000Y-141755000D01*
X212725000Y-141755000D02*
X215325000Y-141755000D01*
X215325000Y-141755000D02*
X215325000Y-139135000D01*
X214375000Y-141755000D02*
X213615000Y-141755000D01*
X213615000Y-141755000D02*
X213615000Y-147755000D01*
X213615000Y-147755000D02*
X214375000Y-147755000D01*
X214375000Y-147755000D02*
X214375000Y-141755000D01*
X214375000Y-138705000D02*
X214375000Y-139135000D01*
X213615000Y-138705000D02*
X213615000Y-139135000D01*
X214255000Y-141755000D02*
X214255000Y-147755000D01*
X214135000Y-141755000D02*
X214135000Y-147755000D01*
X214015000Y-141755000D02*
X214015000Y-147755000D01*
X213895000Y-141755000D02*
X213895000Y-147755000D01*
X213775000Y-141755000D02*
X213775000Y-147755000D01*
X213655000Y-141755000D02*
X213655000Y-147755000D01*
X212725000Y-139135000D02*
X210185000Y-139135000D01*
X210185000Y-139135000D02*
X210185000Y-141755000D01*
X210185000Y-141755000D02*
X212725000Y-141755000D01*
X212725000Y-141755000D02*
X212725000Y-139135000D01*
X211835000Y-141755000D02*
X211075000Y-141755000D01*
X211075000Y-141755000D02*
X211075000Y-147755000D01*
X211075000Y-147755000D02*
X211835000Y-147755000D01*
X211835000Y-147755000D02*
X211835000Y-141755000D01*
X211835000Y-138705000D02*
X211835000Y-139135000D01*
X211075000Y-138705000D02*
X211075000Y-139135000D01*
X210185000Y-139135000D02*
X207645000Y-139135000D01*
X207645000Y-139135000D02*
X207645000Y-141755000D01*
X207645000Y-141755000D02*
X210185000Y-141755000D01*
X210185000Y-141755000D02*
X210185000Y-139135000D01*
X209295000Y-141755000D02*
X208535000Y-141755000D01*
X208535000Y-141755000D02*
X208535000Y-147755000D01*
X208535000Y-147755000D02*
X209295000Y-147755000D01*
X209295000Y-147755000D02*
X209295000Y-141755000D01*
X209295000Y-138705000D02*
X209295000Y-139135000D01*
X208535000Y-138705000D02*
X208535000Y-139135000D01*
X207645000Y-139135000D02*
X205105000Y-139135000D01*
X205105000Y-139135000D02*
X205105000Y-141755000D01*
X205105000Y-141755000D02*
X207645000Y-141755000D01*
X207645000Y-141755000D02*
X207645000Y-139135000D01*
X206755000Y-141755000D02*
X205995000Y-141755000D01*
X205995000Y-141755000D02*
X205995000Y-147755000D01*
X205995000Y-147755000D02*
X206755000Y-147755000D01*
X206755000Y-147755000D02*
X206755000Y-141755000D01*
X206755000Y-138705000D02*
X206755000Y-139135000D01*
X205995000Y-138705000D02*
X205995000Y-139135000D01*
X205105000Y-139135000D02*
X202565000Y-139135000D01*
X202565000Y-139135000D02*
X202565000Y-141755000D01*
X202565000Y-141755000D02*
X205105000Y-141755000D01*
X205105000Y-141755000D02*
X205105000Y-139135000D01*
X204215000Y-141755000D02*
X203455000Y-141755000D01*
X203455000Y-141755000D02*
X203455000Y-147755000D01*
X203455000Y-147755000D02*
X204215000Y-147755000D01*
X204215000Y-147755000D02*
X204215000Y-141755000D01*
X204215000Y-138705000D02*
X204215000Y-139135000D01*
X203455000Y-138705000D02*
X203455000Y-139135000D01*
X202565000Y-139135000D02*
X200025000Y-139135000D01*
X200025000Y-139135000D02*
X200025000Y-141755000D01*
X200025000Y-141755000D02*
X202565000Y-141755000D01*
X202565000Y-141755000D02*
X202565000Y-139135000D01*
X201675000Y-141755000D02*
X200915000Y-141755000D01*
X200915000Y-141755000D02*
X200915000Y-147755000D01*
X200915000Y-147755000D02*
X201675000Y-147755000D01*
X201675000Y-147755000D02*
X201675000Y-141755000D01*
X201675000Y-138705000D02*
X201675000Y-139135000D01*
X200915000Y-138705000D02*
X200915000Y-139135000D01*
X200025000Y-139135000D02*
X197485000Y-139135000D01*
X197485000Y-139135000D02*
X197485000Y-141755000D01*
X197485000Y-141755000D02*
X200025000Y-141755000D01*
X200025000Y-141755000D02*
X200025000Y-139135000D01*
X199135000Y-141755000D02*
X198375000Y-141755000D01*
X198375000Y-141755000D02*
X198375000Y-147755000D01*
X198375000Y-147755000D02*
X199135000Y-147755000D01*
X199135000Y-147755000D02*
X199135000Y-141755000D01*
X199135000Y-138705000D02*
X199135000Y-139135000D01*
X198375000Y-138705000D02*
X198375000Y-139135000D01*
X197485000Y-139135000D02*
X194945000Y-139135000D01*
X194945000Y-139135000D02*
X194945000Y-141755000D01*
X194945000Y-141755000D02*
X197485000Y-141755000D01*
X197485000Y-141755000D02*
X197485000Y-139135000D01*
X196595000Y-141755000D02*
X195835000Y-141755000D01*
X195835000Y-141755000D02*
X195835000Y-147755000D01*
X195835000Y-147755000D02*
X196595000Y-147755000D01*
X196595000Y-147755000D02*
X196595000Y-141755000D01*
X196595000Y-138705000D02*
X196595000Y-139135000D01*
X195835000Y-138705000D02*
X195835000Y-139135000D01*
X194945000Y-139135000D02*
X192405000Y-139135000D01*
X192405000Y-139135000D02*
X192405000Y-141755000D01*
X192405000Y-141755000D02*
X194945000Y-141755000D01*
X194945000Y-141755000D02*
X194945000Y-139135000D01*
X194055000Y-141755000D02*
X193295000Y-141755000D01*
X193295000Y-141755000D02*
X193295000Y-147755000D01*
X193295000Y-147755000D02*
X194055000Y-147755000D01*
X194055000Y-147755000D02*
X194055000Y-141755000D01*
X194055000Y-138705000D02*
X194055000Y-139135000D01*
X193295000Y-138705000D02*
X193295000Y-139135000D01*
X192405000Y-139135000D02*
X189865000Y-139135000D01*
X189865000Y-139135000D02*
X189865000Y-141755000D01*
X189865000Y-141755000D02*
X192405000Y-141755000D01*
X192405000Y-141755000D02*
X192405000Y-139135000D01*
X191515000Y-141755000D02*
X190755000Y-141755000D01*
X190755000Y-141755000D02*
X190755000Y-147755000D01*
X190755000Y-147755000D02*
X191515000Y-147755000D01*
X191515000Y-147755000D02*
X191515000Y-141755000D01*
X191515000Y-138705000D02*
X191515000Y-139135000D01*
X190755000Y-138705000D02*
X190755000Y-139135000D01*
X189865000Y-139135000D02*
X187325000Y-139135000D01*
X187325000Y-139135000D02*
X187325000Y-141755000D01*
X187325000Y-141755000D02*
X189865000Y-141755000D01*
X189865000Y-141755000D02*
X189865000Y-139135000D01*
X188975000Y-141755000D02*
X188215000Y-141755000D01*
X188215000Y-141755000D02*
X188215000Y-147755000D01*
X188215000Y-147755000D02*
X188975000Y-147755000D01*
X188975000Y-147755000D02*
X188975000Y-141755000D01*
X188975000Y-138705000D02*
X188975000Y-139135000D01*
X188215000Y-138705000D02*
X188215000Y-139135000D01*
X187325000Y-139135000D02*
X184785000Y-139135000D01*
X184785000Y-139135000D02*
X184785000Y-141755000D01*
X184785000Y-141755000D02*
X187325000Y-141755000D01*
X187325000Y-141755000D02*
X187325000Y-139135000D01*
X186435000Y-141755000D02*
X185675000Y-141755000D01*
X185675000Y-141755000D02*
X185675000Y-147755000D01*
X185675000Y-147755000D02*
X186435000Y-147755000D01*
X186435000Y-147755000D02*
X186435000Y-141755000D01*
X186435000Y-138705000D02*
X186435000Y-139135000D01*
X185675000Y-138705000D02*
X185675000Y-139135000D01*
X184785000Y-139135000D02*
X182245000Y-139135000D01*
X182245000Y-139135000D02*
X182245000Y-141755000D01*
X182245000Y-141755000D02*
X184785000Y-141755000D01*
X184785000Y-141755000D02*
X184785000Y-139135000D01*
X183895000Y-141755000D02*
X183135000Y-141755000D01*
X183135000Y-141755000D02*
X183135000Y-147755000D01*
X183135000Y-147755000D02*
X183895000Y-147755000D01*
X183895000Y-147755000D02*
X183895000Y-141755000D01*
X183895000Y-138705000D02*
X183895000Y-139135000D01*
X183135000Y-138705000D02*
X183135000Y-139135000D01*
X182245000Y-139135000D02*
X179705000Y-139135000D01*
X179705000Y-139135000D02*
X179705000Y-141755000D01*
X179705000Y-141755000D02*
X182245000Y-141755000D01*
X182245000Y-141755000D02*
X182245000Y-139135000D01*
X181355000Y-141755000D02*
X180595000Y-141755000D01*
X180595000Y-141755000D02*
X180595000Y-147755000D01*
X180595000Y-147755000D02*
X181355000Y-147755000D01*
X181355000Y-147755000D02*
X181355000Y-141755000D01*
X181355000Y-138705000D02*
X181355000Y-139135000D01*
X180595000Y-138705000D02*
X180595000Y-139135000D01*
X179705000Y-139135000D02*
X177165000Y-139135000D01*
X177165000Y-139135000D02*
X177165000Y-141755000D01*
X177165000Y-141755000D02*
X179705000Y-141755000D01*
X179705000Y-141755000D02*
X179705000Y-139135000D01*
X178815000Y-141755000D02*
X178055000Y-141755000D01*
X178055000Y-141755000D02*
X178055000Y-147755000D01*
X178055000Y-147755000D02*
X178815000Y-147755000D01*
X178815000Y-147755000D02*
X178815000Y-141755000D01*
X178815000Y-138705000D02*
X178815000Y-139135000D01*
X178055000Y-138705000D02*
X178055000Y-139135000D01*
X177165000Y-139135000D02*
X174625000Y-139135000D01*
X174625000Y-139135000D02*
X174625000Y-141755000D01*
X174625000Y-141755000D02*
X177165000Y-141755000D01*
X177165000Y-141755000D02*
X177165000Y-139135000D01*
X176275000Y-141755000D02*
X175515000Y-141755000D01*
X175515000Y-141755000D02*
X175515000Y-147755000D01*
X175515000Y-147755000D02*
X176275000Y-147755000D01*
X176275000Y-147755000D02*
X176275000Y-141755000D01*
X176275000Y-138705000D02*
X176275000Y-139135000D01*
X175515000Y-138705000D02*
X175515000Y-139135000D01*
X174625000Y-139135000D02*
X172085000Y-139135000D01*
X172085000Y-139135000D02*
X172085000Y-141755000D01*
X172085000Y-141755000D02*
X174625000Y-141755000D01*
X174625000Y-141755000D02*
X174625000Y-139135000D01*
X173735000Y-141755000D02*
X172975000Y-141755000D01*
X172975000Y-141755000D02*
X172975000Y-147755000D01*
X172975000Y-147755000D02*
X173735000Y-147755000D01*
X173735000Y-147755000D02*
X173735000Y-141755000D01*
X173735000Y-138705000D02*
X173735000Y-139135000D01*
X172975000Y-138705000D02*
X172975000Y-139135000D01*
X172085000Y-139135000D02*
X169545000Y-139135000D01*
X169545000Y-139135000D02*
X169545000Y-141755000D01*
X169545000Y-141755000D02*
X172085000Y-141755000D01*
X172085000Y-141755000D02*
X172085000Y-139135000D01*
X171195000Y-141755000D02*
X170435000Y-141755000D01*
X170435000Y-141755000D02*
X170435000Y-147755000D01*
X170435000Y-147755000D02*
X171195000Y-147755000D01*
X171195000Y-147755000D02*
X171195000Y-141755000D01*
X171195000Y-138705000D02*
X171195000Y-139135000D01*
X170435000Y-138705000D02*
X170435000Y-139135000D01*
X169545000Y-139135000D02*
X167005000Y-139135000D01*
X167005000Y-139135000D02*
X167005000Y-141755000D01*
X167005000Y-141755000D02*
X169545000Y-141755000D01*
X169545000Y-141755000D02*
X169545000Y-139135000D01*
X168655000Y-141755000D02*
X167895000Y-141755000D01*
X167895000Y-141755000D02*
X167895000Y-147755000D01*
X167895000Y-147755000D02*
X168655000Y-147755000D01*
X168655000Y-147755000D02*
X168655000Y-141755000D01*
X168655000Y-138705000D02*
X168655000Y-139135000D01*
X167895000Y-138705000D02*
X167895000Y-139135000D01*
X167005000Y-139135000D02*
X164465000Y-139135000D01*
X164465000Y-139135000D02*
X164465000Y-141755000D01*
X164465000Y-141755000D02*
X167005000Y-141755000D01*
X167005000Y-141755000D02*
X167005000Y-139135000D01*
X166115000Y-141755000D02*
X165355000Y-141755000D01*
X165355000Y-141755000D02*
X165355000Y-147755000D01*
X165355000Y-147755000D02*
X166115000Y-147755000D01*
X166115000Y-147755000D02*
X166115000Y-141755000D01*
X166115000Y-138705000D02*
X166115000Y-139135000D01*
X165355000Y-138705000D02*
X165355000Y-139135000D01*
X164465000Y-139135000D02*
X161925000Y-139135000D01*
X161925000Y-139135000D02*
X161925000Y-141755000D01*
X161925000Y-141755000D02*
X164465000Y-141755000D01*
X164465000Y-141755000D02*
X164465000Y-139135000D01*
X163575000Y-141755000D02*
X162815000Y-141755000D01*
X162815000Y-141755000D02*
X162815000Y-147755000D01*
X162815000Y-147755000D02*
X163575000Y-147755000D01*
X163575000Y-147755000D02*
X163575000Y-141755000D01*
X163575000Y-138705000D02*
X163575000Y-139135000D01*
X162815000Y-138705000D02*
X162815000Y-139135000D01*
X161925000Y-139135000D02*
X159385000Y-139135000D01*
X159385000Y-139135000D02*
X159385000Y-141755000D01*
X159385000Y-141755000D02*
X161925000Y-141755000D01*
X161925000Y-141755000D02*
X161925000Y-139135000D01*
X161035000Y-141755000D02*
X160275000Y-141755000D01*
X160275000Y-141755000D02*
X160275000Y-147755000D01*
X160275000Y-147755000D02*
X161035000Y-147755000D01*
X161035000Y-147755000D02*
X161035000Y-141755000D01*
X161035000Y-138705000D02*
X161035000Y-139135000D01*
X160275000Y-138705000D02*
X160275000Y-139135000D01*
X159385000Y-139135000D02*
X156845000Y-139135000D01*
X156845000Y-139135000D02*
X156845000Y-141755000D01*
X156845000Y-141755000D02*
X159385000Y-141755000D01*
X159385000Y-141755000D02*
X159385000Y-139135000D01*
X158495000Y-141755000D02*
X157735000Y-141755000D01*
X157735000Y-141755000D02*
X157735000Y-147755000D01*
X157735000Y-147755000D02*
X158495000Y-147755000D01*
X158495000Y-147755000D02*
X158495000Y-141755000D01*
X158495000Y-138705000D02*
X158495000Y-139135000D01*
X157735000Y-138705000D02*
X157735000Y-139135000D01*
X156845000Y-139135000D02*
X154305000Y-139135000D01*
X154305000Y-139135000D02*
X154305000Y-141755000D01*
X154305000Y-141755000D02*
X156845000Y-141755000D01*
X156845000Y-141755000D02*
X156845000Y-139135000D01*
X155955000Y-141755000D02*
X155195000Y-141755000D01*
X155195000Y-141755000D02*
X155195000Y-147755000D01*
X155195000Y-147755000D02*
X155955000Y-147755000D01*
X155955000Y-147755000D02*
X155955000Y-141755000D01*
X155955000Y-138705000D02*
X155955000Y-139135000D01*
X155195000Y-138705000D02*
X155195000Y-139135000D01*
X154305000Y-139135000D02*
X151765000Y-139135000D01*
X151765000Y-139135000D02*
X151765000Y-141755000D01*
X151765000Y-141755000D02*
X154305000Y-141755000D01*
X154305000Y-141755000D02*
X154305000Y-139135000D01*
X153415000Y-141755000D02*
X152655000Y-141755000D01*
X152655000Y-141755000D02*
X152655000Y-147755000D01*
X152655000Y-147755000D02*
X153415000Y-147755000D01*
X153415000Y-147755000D02*
X153415000Y-141755000D01*
X153415000Y-138705000D02*
X153415000Y-139135000D01*
X152655000Y-138705000D02*
X152655000Y-139135000D01*
X151765000Y-139135000D02*
X149225000Y-139135000D01*
X149225000Y-139135000D02*
X149225000Y-141755000D01*
X149225000Y-141755000D02*
X151765000Y-141755000D01*
X151765000Y-141755000D02*
X151765000Y-139135000D01*
X150875000Y-141755000D02*
X150115000Y-141755000D01*
X150115000Y-141755000D02*
X150115000Y-147755000D01*
X150115000Y-147755000D02*
X150875000Y-147755000D01*
X150875000Y-147755000D02*
X150875000Y-141755000D01*
X150875000Y-138705000D02*
X150875000Y-139135000D01*
X150115000Y-138705000D02*
X150115000Y-139135000D01*
X149225000Y-139135000D02*
X146685000Y-139135000D01*
X146685000Y-139135000D02*
X146685000Y-141755000D01*
X146685000Y-141755000D02*
X149225000Y-141755000D01*
X149225000Y-141755000D02*
X149225000Y-139135000D01*
X148335000Y-141755000D02*
X147575000Y-141755000D01*
X147575000Y-141755000D02*
X147575000Y-147755000D01*
X147575000Y-147755000D02*
X148335000Y-147755000D01*
X148335000Y-147755000D02*
X148335000Y-141755000D01*
X148335000Y-138705000D02*
X148335000Y-139135000D01*
X147575000Y-138705000D02*
X147575000Y-139135000D01*
X146685000Y-139135000D02*
X144145000Y-139135000D01*
X144145000Y-139135000D02*
X144145000Y-141755000D01*
X144145000Y-141755000D02*
X146685000Y-141755000D01*
X146685000Y-141755000D02*
X146685000Y-139135000D01*
X145795000Y-141755000D02*
X145035000Y-141755000D01*
X145035000Y-141755000D02*
X145035000Y-147755000D01*
X145035000Y-147755000D02*
X145795000Y-147755000D01*
X145795000Y-147755000D02*
X145795000Y-141755000D01*
X145795000Y-138705000D02*
X145795000Y-139135000D01*
X145035000Y-138705000D02*
X145035000Y-139135000D01*
X144145000Y-139135000D02*
X141605000Y-139135000D01*
X141605000Y-139135000D02*
X141605000Y-141755000D01*
X141605000Y-141755000D02*
X144145000Y-141755000D01*
X144145000Y-141755000D02*
X144145000Y-139135000D01*
X143255000Y-141755000D02*
X142495000Y-141755000D01*
X142495000Y-141755000D02*
X142495000Y-147755000D01*
X142495000Y-147755000D02*
X143255000Y-147755000D01*
X143255000Y-147755000D02*
X143255000Y-141755000D01*
X143255000Y-138705000D02*
X143255000Y-139135000D01*
X142495000Y-138705000D02*
X142495000Y-139135000D01*
X141605000Y-139135000D02*
X139065000Y-139135000D01*
X139065000Y-139135000D02*
X139065000Y-141755000D01*
X139065000Y-141755000D02*
X141605000Y-141755000D01*
X141605000Y-141755000D02*
X141605000Y-139135000D01*
X140715000Y-141755000D02*
X139955000Y-141755000D01*
X139955000Y-141755000D02*
X139955000Y-147755000D01*
X139955000Y-147755000D02*
X140715000Y-147755000D01*
X140715000Y-147755000D02*
X140715000Y-141755000D01*
X140715000Y-138705000D02*
X140715000Y-139135000D01*
X139955000Y-138705000D02*
X139955000Y-139135000D01*
X139065000Y-139135000D02*
X136525000Y-139135000D01*
X136525000Y-139135000D02*
X136525000Y-141755000D01*
X136525000Y-141755000D02*
X139065000Y-141755000D01*
X139065000Y-141755000D02*
X139065000Y-139135000D01*
X138175000Y-141755000D02*
X137415000Y-141755000D01*
X137415000Y-141755000D02*
X137415000Y-147755000D01*
X137415000Y-147755000D02*
X138175000Y-147755000D01*
X138175000Y-147755000D02*
X138175000Y-141755000D01*
X138175000Y-138705000D02*
X138175000Y-139135000D01*
X137415000Y-138705000D02*
X137415000Y-139135000D01*
X136525000Y-139135000D02*
X133985000Y-139135000D01*
X133985000Y-139135000D02*
X133985000Y-141755000D01*
X133985000Y-141755000D02*
X136525000Y-141755000D01*
X136525000Y-141755000D02*
X136525000Y-139135000D01*
X135635000Y-141755000D02*
X134875000Y-141755000D01*
X134875000Y-141755000D02*
X134875000Y-147755000D01*
X134875000Y-147755000D02*
X135635000Y-147755000D01*
X135635000Y-147755000D02*
X135635000Y-141755000D01*
X135635000Y-138705000D02*
X135635000Y-139135000D01*
X134875000Y-138705000D02*
X134875000Y-139135000D01*
X133985000Y-139135000D02*
X131445000Y-139135000D01*
X131445000Y-139135000D02*
X131445000Y-141755000D01*
X131445000Y-141755000D02*
X133985000Y-141755000D01*
X133985000Y-141755000D02*
X133985000Y-139135000D01*
X133095000Y-141755000D02*
X132335000Y-141755000D01*
X132335000Y-141755000D02*
X132335000Y-147755000D01*
X132335000Y-147755000D02*
X133095000Y-147755000D01*
X133095000Y-147755000D02*
X133095000Y-141755000D01*
X133095000Y-138705000D02*
X133095000Y-139135000D01*
X132335000Y-138705000D02*
X132335000Y-139135000D01*
X131445000Y-139135000D02*
X128905000Y-139135000D01*
X128905000Y-139135000D02*
X128905000Y-141755000D01*
X128905000Y-141755000D02*
X131445000Y-141755000D01*
X131445000Y-141755000D02*
X131445000Y-139135000D01*
X130555000Y-141755000D02*
X129795000Y-141755000D01*
X129795000Y-141755000D02*
X129795000Y-147755000D01*
X129795000Y-147755000D02*
X130555000Y-147755000D01*
X130555000Y-147755000D02*
X130555000Y-141755000D01*
X130555000Y-138705000D02*
X130555000Y-139135000D01*
X129795000Y-138705000D02*
X129795000Y-139135000D01*
X128905000Y-139135000D02*
X126365000Y-139135000D01*
X126365000Y-139135000D02*
X126365000Y-141755000D01*
X126365000Y-141755000D02*
X128905000Y-141755000D01*
X128905000Y-141755000D02*
X128905000Y-139135000D01*
X128015000Y-141755000D02*
X127255000Y-141755000D01*
X127255000Y-141755000D02*
X127255000Y-147755000D01*
X127255000Y-147755000D02*
X128015000Y-147755000D01*
X128015000Y-147755000D02*
X128015000Y-141755000D01*
X128015000Y-138705000D02*
X128015000Y-139135000D01*
X127255000Y-138705000D02*
X127255000Y-139135000D01*
X126365000Y-139135000D02*
X123825000Y-139135000D01*
X123825000Y-139135000D02*
X123825000Y-141755000D01*
X123825000Y-141755000D02*
X126365000Y-141755000D01*
X126365000Y-141755000D02*
X126365000Y-139135000D01*
X125475000Y-141755000D02*
X124715000Y-141755000D01*
X124715000Y-141755000D02*
X124715000Y-147755000D01*
X124715000Y-147755000D02*
X125475000Y-147755000D01*
X125475000Y-147755000D02*
X125475000Y-141755000D01*
X125475000Y-138705000D02*
X125475000Y-139135000D01*
X124715000Y-138705000D02*
X124715000Y-139135000D01*
X123825000Y-139135000D02*
X121285000Y-139135000D01*
X121285000Y-139135000D02*
X121285000Y-141755000D01*
X121285000Y-141755000D02*
X123825000Y-141755000D01*
X123825000Y-141755000D02*
X123825000Y-139135000D01*
X122935000Y-141755000D02*
X122175000Y-141755000D01*
X122175000Y-141755000D02*
X122175000Y-147755000D01*
X122175000Y-147755000D02*
X122935000Y-147755000D01*
X122935000Y-147755000D02*
X122935000Y-141755000D01*
X122935000Y-138705000D02*
X122935000Y-139135000D01*
X122175000Y-138705000D02*
X122175000Y-139135000D01*
X121285000Y-139135000D02*
X118745000Y-139135000D01*
X118745000Y-139135000D02*
X118745000Y-141755000D01*
X118745000Y-141755000D02*
X121285000Y-141755000D01*
X121285000Y-141755000D02*
X121285000Y-139135000D01*
X120395000Y-141755000D02*
X119635000Y-141755000D01*
X119635000Y-141755000D02*
X119635000Y-147755000D01*
X119635000Y-147755000D02*
X120395000Y-147755000D01*
X120395000Y-147755000D02*
X120395000Y-141755000D01*
X120395000Y-138705000D02*
X120395000Y-139135000D01*
X119635000Y-138705000D02*
X119635000Y-139135000D01*
X118745000Y-139135000D02*
X116145000Y-139135000D01*
X116145000Y-139135000D02*
X116145000Y-141755000D01*
X116145000Y-141755000D02*
X118745000Y-141755000D01*
X118745000Y-141755000D02*
X118745000Y-139135000D01*
X117855000Y-141755000D02*
X117095000Y-141755000D01*
X117095000Y-141755000D02*
X117095000Y-147755000D01*
X117095000Y-147755000D02*
X117855000Y-147755000D01*
X117855000Y-147755000D02*
X117855000Y-141755000D01*
X117855000Y-138705000D02*
X117855000Y-139135000D01*
X117095000Y-138705000D02*
X117095000Y-139135000D01*
X213995000Y-136525000D02*
X215265000Y-136525000D01*
X215265000Y-136525000D02*
X215265000Y-137795000D01*
X212765000Y-106010000D02*
X210145000Y-106010000D01*
X210145000Y-106010000D02*
X210145000Y-112430000D01*
X210145000Y-112430000D02*
X212765000Y-112430000D01*
X212765000Y-112430000D02*
X212765000Y-106010000D01*
X211455000Y-105120000D02*
X211455000Y-106010000D01*
X211455000Y-113320000D02*
X211455000Y-112430000D01*
X169580000Y-51475000D02*
X169580000Y-48855000D01*
X169580000Y-48855000D02*
X163160000Y-48855000D01*
X163160000Y-48855000D02*
X163160000Y-51475000D01*
X163160000Y-51475000D02*
X169580000Y-51475000D01*
X170470000Y-50165000D02*
X169580000Y-50165000D01*
X162270000Y-50165000D02*
X163160000Y-50165000D01*
X169580000Y-56555000D02*
X169580000Y-53935000D01*
X169580000Y-53935000D02*
X163160000Y-53935000D01*
X163160000Y-53935000D02*
X163160000Y-56555000D01*
X163160000Y-56555000D02*
X169580000Y-56555000D01*
X170470000Y-55245000D02*
X169580000Y-55245000D01*
X162270000Y-55245000D02*
X163160000Y-55245000D01*
X163160000Y-59015000D02*
X163160000Y-61635000D01*
X163160000Y-61635000D02*
X169580000Y-61635000D01*
X169580000Y-61635000D02*
X169580000Y-59015000D01*
X169580000Y-59015000D02*
X163160000Y-59015000D01*
X162270000Y-60325000D02*
X163160000Y-60325000D01*
X170470000Y-60325000D02*
X169580000Y-60325000D01*
X180305000Y-53300000D02*
X180305000Y-55920000D01*
X180305000Y-55920000D02*
X186725000Y-55920000D01*
X186725000Y-55920000D02*
X186725000Y-53300000D01*
X186725000Y-53300000D02*
X180305000Y-53300000D01*
X179415000Y-54610000D02*
X180305000Y-54610000D01*
X187615000Y-54610000D02*
X186725000Y-54610000D01*
X145455000Y-119345000D02*
X142835000Y-119345000D01*
X142835000Y-119345000D02*
X142835000Y-125765000D01*
X142835000Y-125765000D02*
X145455000Y-125765000D01*
X145455000Y-125765000D02*
X145455000Y-119345000D01*
X144145000Y-118455000D02*
X144145000Y-119345000D01*
X144145000Y-126655000D02*
X144145000Y-125765000D01*
X142835000Y-112430000D02*
X145455000Y-112430000D01*
X145455000Y-112430000D02*
X145455000Y-106010000D01*
X145455000Y-106010000D02*
X142835000Y-106010000D01*
X142835000Y-106010000D02*
X142835000Y-112430000D01*
X144145000Y-113320000D02*
X144145000Y-112430000D01*
X144145000Y-105120000D02*
X144145000Y-106010000D01*
X142835000Y-92110000D02*
X145455000Y-92110000D01*
X145455000Y-92110000D02*
X145455000Y-85690000D01*
X145455000Y-85690000D02*
X142835000Y-85690000D01*
X142835000Y-85690000D02*
X142835000Y-92110000D01*
X144145000Y-93000000D02*
X144145000Y-92110000D01*
X144145000Y-84800000D02*
X144145000Y-85690000D01*
X180305000Y-59650000D02*
X180305000Y-62270000D01*
X180305000Y-62270000D02*
X186725000Y-62270000D01*
X186725000Y-62270000D02*
X186725000Y-59650000D01*
X186725000Y-59650000D02*
X180305000Y-59650000D01*
X179415000Y-60960000D02*
X180305000Y-60960000D01*
X187615000Y-60960000D02*
X186725000Y-60960000D01*
X204105000Y-40855000D02*
X199605000Y-40855000D01*
X205355000Y-44855000D02*
X205355000Y-43355000D01*
X199605000Y-47355000D02*
X204105000Y-47355000D01*
X198355000Y-43355000D02*
X198355000Y-44855000D01*
X176165000Y-94495000D02*
X170585000Y-94495000D01*
X170585000Y-94495000D02*
X170585000Y-130295000D01*
X170585000Y-130295000D02*
X183745000Y-130295000D01*
X183745000Y-130295000D02*
X183745000Y-94495000D01*
X183745000Y-94495000D02*
X178165000Y-94495000D01*
X168155000Y-94495000D02*
X168155000Y-130295000D01*
X168155000Y-130295000D02*
X186175000Y-130295000D01*
X186175000Y-130295000D02*
X186175000Y-94495000D01*
X186175000Y-94495000D02*
X168155000Y-94495000D01*
X178165000Y-94495000D02*
G75*
G02X176165000Y-94495000I-1000000J0D01*
G01*
X202835000Y-70365000D02*
X201065000Y-70365000D01*
X201065000Y-70365000D02*
X201065000Y-88385000D01*
X201065000Y-88385000D02*
X206605000Y-88385000D01*
X206605000Y-88385000D02*
X206605000Y-70365000D01*
X206605000Y-70365000D02*
X204835000Y-70365000D01*
X198635000Y-70365000D02*
X198635000Y-88385000D01*
X198635000Y-88385000D02*
X209035000Y-88385000D01*
X209035000Y-88385000D02*
X209035000Y-70365000D01*
X209035000Y-70365000D02*
X198635000Y-70365000D01*
X204835000Y-70365000D02*
G75*
G02X202835000Y-70365000I-1000000J0D01*
G01*
X131715000Y-81160000D02*
X126135000Y-81160000D01*
X126135000Y-81160000D02*
X126135000Y-132200000D01*
X126135000Y-132200000D02*
X139295000Y-132200000D01*
X139295000Y-132200000D02*
X139295000Y-81160000D01*
X139295000Y-81160000D02*
X133715000Y-81160000D01*
X123705000Y-81160000D02*
X123705000Y-132200000D01*
X123705000Y-132200000D02*
X141725000Y-132200000D01*
X141725000Y-132200000D02*
X141725000Y-81160000D01*
X141725000Y-81160000D02*
X123705000Y-81160000D01*
X133715000Y-81160000D02*
G75*
G02X131715000Y-81160000I-1000000J0D01*
G01*
X122435000Y-70215000D02*
X122435000Y-71985000D01*
X122435000Y-71985000D02*
X158235000Y-71985000D01*
X158235000Y-71985000D02*
X158235000Y-66445000D01*
X158235000Y-66445000D02*
X122435000Y-66445000D01*
X122435000Y-66445000D02*
X122435000Y-68215000D01*
X122435000Y-74415000D02*
X158235000Y-74415000D01*
X158235000Y-74415000D02*
X158235000Y-64015000D01*
X158235000Y-64015000D02*
X122435000Y-64015000D01*
X122435000Y-64015000D02*
X122435000Y-74415000D01*
X122435000Y-68215000D02*
G75*
G02X122435000Y-70215000I0J-1000000D01*
G01*
X172355000Y-70365000D02*
X170585000Y-70365000D01*
X170585000Y-70365000D02*
X170585000Y-90925000D01*
X170585000Y-90925000D02*
X176125000Y-90925000D01*
X176125000Y-90925000D02*
X176125000Y-70365000D01*
X176125000Y-70365000D02*
X174355000Y-70365000D01*
X168155000Y-70365000D02*
X168155000Y-90925000D01*
X168155000Y-90925000D02*
X178555000Y-90925000D01*
X178555000Y-90925000D02*
X178555000Y-70365000D01*
X178555000Y-70365000D02*
X168155000Y-70365000D01*
X174355000Y-70365000D02*
G75*
G02X172355000Y-70365000I-1000000J0D01*
G01*
X149495000Y-48140000D02*
X147725000Y-48140000D01*
X147725000Y-48140000D02*
X147725000Y-58540000D01*
X147725000Y-58540000D02*
X153265000Y-58540000D01*
X153265000Y-58540000D02*
X153265000Y-48140000D01*
X153265000Y-48140000D02*
X151495000Y-48140000D01*
X151495000Y-48140000D02*
G75*
G02X149495000Y-48140000I-1000000J0D01*
G01*
X182285000Y-71845000D02*
X182285000Y-76665000D01*
X179665000Y-71845000D02*
X179665000Y-76665000D01*
X182285000Y-71845000D02*
X181971000Y-71845000D01*
X179979000Y-71845000D02*
X179665000Y-71845000D01*
X182285000Y-76665000D02*
X181971000Y-76665000D01*
X179979000Y-76665000D02*
X179665000Y-76665000D01*
X166354000Y-63990000D02*
X166354000Y-68090000D01*
X166394000Y-63990000D02*
X166394000Y-68090000D01*
X166434000Y-63991000D02*
X166434000Y-68089000D01*
X166474000Y-63993000D02*
X166474000Y-68087000D01*
X166514000Y-63996000D02*
X166514000Y-68084000D01*
X166554000Y-63999000D02*
X166554000Y-68081000D01*
X166594000Y-64003000D02*
X166594000Y-65260000D01*
X166594000Y-66820000D02*
X166594000Y-68077000D01*
X166634000Y-64008000D02*
X166634000Y-65260000D01*
X166634000Y-66820000D02*
X166634000Y-68072000D01*
X166674000Y-64014000D02*
X166674000Y-65260000D01*
X166674000Y-66820000D02*
X166674000Y-68066000D01*
X166714000Y-64021000D02*
X166714000Y-65260000D01*
X166714000Y-66820000D02*
X166714000Y-68059000D01*
X166754000Y-64028000D02*
X166754000Y-65260000D01*
X166754000Y-66820000D02*
X166754000Y-68052000D01*
X166794000Y-64036000D02*
X166794000Y-65260000D01*
X166794000Y-66820000D02*
X166794000Y-68044000D01*
X166834000Y-64045000D02*
X166834000Y-65260000D01*
X166834000Y-66820000D02*
X166834000Y-68035000D01*
X166874000Y-64055000D02*
X166874000Y-65260000D01*
X166874000Y-66820000D02*
X166874000Y-68025000D01*
X166914000Y-64066000D02*
X166914000Y-65260000D01*
X166914000Y-66820000D02*
X166914000Y-68014000D01*
X166954000Y-64077000D02*
X166954000Y-65260000D01*
X166954000Y-66820000D02*
X166954000Y-68003000D01*
X166994000Y-64090000D02*
X166994000Y-65260000D01*
X166994000Y-66820000D02*
X166994000Y-67990000D01*
X167034000Y-64103000D02*
X167034000Y-65260000D01*
X167034000Y-66820000D02*
X167034000Y-67977000D01*
X167075000Y-64117000D02*
X167075000Y-65260000D01*
X167075000Y-66820000D02*
X167075000Y-67963000D01*
X167115000Y-64133000D02*
X167115000Y-65260000D01*
X167115000Y-66820000D02*
X167115000Y-67947000D01*
X167155000Y-64149000D02*
X167155000Y-65260000D01*
X167155000Y-66820000D02*
X167155000Y-67931000D01*
X167195000Y-64166000D02*
X167195000Y-65260000D01*
X167195000Y-66820000D02*
X167195000Y-67914000D01*
X167235000Y-64184000D02*
X167235000Y-65260000D01*
X167235000Y-66820000D02*
X167235000Y-67896000D01*
X167275000Y-64203000D02*
X167275000Y-65260000D01*
X167275000Y-66820000D02*
X167275000Y-67877000D01*
X167315000Y-64223000D02*
X167315000Y-65260000D01*
X167315000Y-66820000D02*
X167315000Y-67857000D01*
X167355000Y-64244000D02*
X167355000Y-65260000D01*
X167355000Y-66820000D02*
X167355000Y-67836000D01*
X167395000Y-64267000D02*
X167395000Y-65260000D01*
X167395000Y-66820000D02*
X167395000Y-67813000D01*
X167435000Y-64290000D02*
X167435000Y-65260000D01*
X167435000Y-66820000D02*
X167435000Y-67790000D01*
X167475000Y-64315000D02*
X167475000Y-65260000D01*
X167475000Y-66820000D02*
X167475000Y-67765000D01*
X167515000Y-64341000D02*
X167515000Y-65260000D01*
X167515000Y-66820000D02*
X167515000Y-67739000D01*
X167555000Y-64368000D02*
X167555000Y-65260000D01*
X167555000Y-66820000D02*
X167555000Y-67712000D01*
X167595000Y-64397000D02*
X167595000Y-65260000D01*
X167595000Y-66820000D02*
X167595000Y-67683000D01*
X167635000Y-64427000D02*
X167635000Y-65260000D01*
X167635000Y-66820000D02*
X167635000Y-67653000D01*
X167675000Y-64459000D02*
X167675000Y-65260000D01*
X167675000Y-66820000D02*
X167675000Y-67621000D01*
X167715000Y-64493000D02*
X167715000Y-65260000D01*
X167715000Y-66820000D02*
X167715000Y-67587000D01*
X167755000Y-64528000D02*
X167755000Y-65260000D01*
X167755000Y-66820000D02*
X167755000Y-67552000D01*
X167795000Y-64565000D02*
X167795000Y-65260000D01*
X167795000Y-66820000D02*
X167795000Y-67515000D01*
X167835000Y-64604000D02*
X167835000Y-65260000D01*
X167835000Y-66820000D02*
X167835000Y-67476000D01*
X167875000Y-64645000D02*
X167875000Y-65260000D01*
X167875000Y-66820000D02*
X167875000Y-67435000D01*
X167915000Y-64689000D02*
X167915000Y-65260000D01*
X167915000Y-66820000D02*
X167915000Y-67391000D01*
X167955000Y-64735000D02*
X167955000Y-65260000D01*
X167955000Y-66820000D02*
X167955000Y-67345000D01*
X167995000Y-64784000D02*
X167995000Y-65260000D01*
X167995000Y-66820000D02*
X167995000Y-67296000D01*
X168035000Y-64836000D02*
X168035000Y-65260000D01*
X168035000Y-66820000D02*
X168035000Y-67244000D01*
X168075000Y-64892000D02*
X168075000Y-65260000D01*
X168075000Y-66820000D02*
X168075000Y-67188000D01*
X168115000Y-64952000D02*
X168115000Y-65260000D01*
X168115000Y-66820000D02*
X168115000Y-67128000D01*
X168155000Y-65017000D02*
X168155000Y-67063000D01*
X168195000Y-65088000D02*
X168195000Y-66992000D01*
X168235000Y-65166000D02*
X168235000Y-66914000D01*
X168275000Y-65254000D02*
X168275000Y-66826000D01*
X168315000Y-65354000D02*
X168315000Y-66726000D01*
X168355000Y-65473000D02*
X168355000Y-66607000D01*
X168395000Y-65625000D02*
X168395000Y-66455000D01*
X168435000Y-65875000D02*
X168435000Y-66205000D01*
X163654000Y-66040000D02*
X164554000Y-66040000D01*
X164104000Y-65590000D02*
X164104000Y-66490000D01*
X168293361Y-65260911D02*
G75*
G03X164415005Y-65260000I-1939361J-779089D01*
G01*
X168293361Y-66819089D02*
G75*
G02X164415005Y-66820000I-1939361J779089D01*
G01*
X168293361Y-66819089D02*
G75*
G03X168292995Y-65260000I-1939361J779089D01*
G01*
X196890000Y-82640000D02*
X196890000Y-87460000D01*
X194270000Y-82640000D02*
X194270000Y-87460000D01*
X196890000Y-82640000D02*
X196576000Y-82640000D01*
X194584000Y-82640000D02*
X194270000Y-82640000D01*
X196890000Y-87460000D02*
X196576000Y-87460000D01*
X194584000Y-87460000D02*
X194270000Y-87460000D01*
X213106000Y-132080000D02*
G75*
G03X213106000Y-132080000I-2286000J0D01*
G01*
X122936000Y-132080000D02*
G75*
G03X122936000Y-132080000I-2286000J0D01*
G01*
X213106000Y-43815000D02*
G75*
G03X213106000Y-43815000I-2286000J0D01*
G01*
X122936000Y-43815000D02*
G75*
G03X122936000Y-43815000I-2286000J0D01*
G01*
X121980000Y-83820000D02*
X121980000Y-81220000D01*
X121980000Y-81220000D02*
X119320000Y-81220000D01*
X119320000Y-81220000D02*
X119320000Y-83820000D01*
X119320000Y-83820000D02*
X121980000Y-83820000D01*
X121980000Y-85090000D02*
X121980000Y-86420000D01*
X121980000Y-86420000D02*
X120650000Y-86420000D01*
X188780000Y-44449538D02*
G75*
G03X194330000Y-45994830I2990000J-462D01*
G01*
X188780000Y-44450462D02*
G75*
G02X194330000Y-42905170I2990000J462D01*
G01*
X194270000Y-44450000D02*
G75*
G03X194270000Y-44450000I-2500000J0D01*
G01*
X194330000Y-45995000D02*
X194330000Y-42905000D01*
X183445000Y-47050000D02*
X183445000Y-44450000D01*
X183445000Y-44450000D02*
X180825000Y-44450000D01*
X180825000Y-44450000D02*
X180825000Y-47050000D01*
X180825000Y-47050000D02*
X183445000Y-47050000D01*
X180825000Y-46100000D02*
X180825000Y-45340000D01*
X180825000Y-45340000D02*
X174825000Y-45340000D01*
X174825000Y-45340000D02*
X174825000Y-46100000D01*
X174825000Y-46100000D02*
X180825000Y-46100000D01*
X183875000Y-46100000D02*
X183445000Y-46100000D01*
X183875000Y-45340000D02*
X183445000Y-45340000D01*
X180825000Y-45980000D02*
X174825000Y-45980000D01*
X180825000Y-45860000D02*
X174825000Y-45860000D01*
X180825000Y-45740000D02*
X174825000Y-45740000D01*
X180825000Y-45620000D02*
X174825000Y-45620000D01*
X180825000Y-45500000D02*
X174825000Y-45500000D01*
X180825000Y-45380000D02*
X174825000Y-45380000D01*
X183445000Y-44450000D02*
X183445000Y-41850000D01*
X183445000Y-41850000D02*
X180825000Y-41850000D01*
X180825000Y-41850000D02*
X180825000Y-44450000D01*
X180825000Y-44450000D02*
X183445000Y-44450000D01*
X180825000Y-43560000D02*
X180825000Y-42800000D01*
X180825000Y-42800000D02*
X174825000Y-42800000D01*
X174825000Y-42800000D02*
X174825000Y-43560000D01*
X174825000Y-43560000D02*
X180825000Y-43560000D01*
X183875000Y-43560000D02*
X183445000Y-43560000D01*
X183875000Y-42800000D02*
X183445000Y-42800000D01*
X186055000Y-45720000D02*
X186055000Y-46990000D01*
X186055000Y-46990000D02*
X184785000Y-46990000D01*
X193675000Y-92770000D02*
X198815000Y-92770000D01*
X198815000Y-92770000D02*
X198815000Y-90110000D01*
X198815000Y-90110000D02*
X193675000Y-90110000D01*
X193675000Y-90110000D02*
X193675000Y-92770000D01*
X192405000Y-92770000D02*
X191075000Y-92770000D01*
X191075000Y-92770000D02*
X191075000Y-91440000D01*
X203835000Y-92770000D02*
X208975000Y-92770000D01*
X208975000Y-92770000D02*
X208975000Y-90110000D01*
X208975000Y-90110000D02*
X203835000Y-90110000D01*
X203835000Y-90110000D02*
X203835000Y-92770000D01*
X202565000Y-92770000D02*
X201235000Y-92770000D01*
X201235000Y-92770000D02*
X201235000Y-91440000D01*
X161325000Y-78145000D02*
X161325000Y-75525000D01*
X161325000Y-75525000D02*
X154905000Y-75525000D01*
X154905000Y-75525000D02*
X154905000Y-78145000D01*
X154905000Y-78145000D02*
X161325000Y-78145000D01*
X162215000Y-76835000D02*
X161325000Y-76835000D01*
X154015000Y-76835000D02*
X154905000Y-76835000D01*
X122265000Y-48910000D02*
X122265000Y-61060000D01*
X142415000Y-48160000D02*
X123015000Y-48160000D01*
X143165000Y-60310000D02*
X143165000Y-48910000D01*
X122265000Y-61060000D02*
X142415000Y-61060000D01*
X142415000Y-61060000D02*
G75*
G03X143165000Y-60310000I0J750000D01*
G01*
X143165000Y-48910000D02*
G75*
G03X142415000Y-48160000I-750000J0D01*
G01*
X123015000Y-48160000D02*
G75*
G03X122265000Y-48910000I0J-750000D01*
G01*
X210125000Y-124520000D02*
X212785000Y-124520000D01*
X210125000Y-119380000D02*
X210125000Y-124520000D01*
X212785000Y-119380000D02*
X212785000Y-124520000D01*
X210125000Y-119380000D02*
X212785000Y-119380000D01*
X210125000Y-118110000D02*
X210125000Y-116780000D01*
X210125000Y-116780000D02*
X211455000Y-116780000D01*
X187265000Y-130235000D02*
X189925000Y-130235000D01*
X187265000Y-125095000D02*
X187265000Y-130235000D01*
X189925000Y-125095000D02*
X189925000Y-130235000D01*
X187265000Y-125095000D02*
X189925000Y-125095000D01*
X187265000Y-123825000D02*
X187265000Y-122495000D01*
X187265000Y-122495000D02*
X188595000Y-122495000D01*
X119955000Y-120075000D02*
X122615000Y-120075000D01*
X119955000Y-114935000D02*
X119955000Y-120075000D01*
X122615000Y-114935000D02*
X122615000Y-120075000D01*
X119955000Y-114935000D02*
X122615000Y-114935000D01*
X119955000Y-113665000D02*
X119955000Y-112335000D01*
X119955000Y-112335000D02*
X121285000Y-112335000D01*
X150555000Y-62925000D02*
X150555000Y-60265000D01*
X147955000Y-62925000D02*
X150555000Y-62925000D01*
X147955000Y-60265000D02*
X150555000Y-60265000D01*
X147955000Y-62925000D02*
X147955000Y-60265000D01*
X146685000Y-62925000D02*
X145355000Y-62925000D01*
X145355000Y-62925000D02*
X145355000Y-61595000D01*
D11*
X199263095Y-97877381D02*
X199263095Y-98686905D01*
X199310714Y-98782143D01*
X199358333Y-98829762D01*
X199453571Y-98877381D01*
X199644048Y-98877381D01*
X199739286Y-98829762D01*
X199786905Y-98782143D01*
X199834524Y-98686905D01*
X199834524Y-97877381D01*
X200739286Y-98210714D02*
X200739286Y-98877381D01*
X200501190Y-97829762D02*
X200263095Y-98544048D01*
X200882143Y-98544048D01*
X197334524Y-104322619D02*
X197382143Y-104275000D01*
X197477381Y-104227381D01*
X197715477Y-104227381D01*
X197810715Y-104275000D01*
X197858334Y-104322619D01*
X197905953Y-104417857D01*
X197905953Y-104513095D01*
X197858334Y-104655952D01*
X197286905Y-105227381D01*
X197905953Y-105227381D01*
X198477381Y-104655952D02*
X198382143Y-104608333D01*
X198334524Y-104560714D01*
X198286905Y-104465476D01*
X198286905Y-104417857D01*
X198334524Y-104322619D01*
X198382143Y-104275000D01*
X198477381Y-104227381D01*
X198667858Y-104227381D01*
X198763096Y-104275000D01*
X198810715Y-104322619D01*
X198858334Y-104417857D01*
X198858334Y-104465476D01*
X198810715Y-104560714D01*
X198763096Y-104608333D01*
X198667858Y-104655952D01*
X198477381Y-104655952D01*
X198382143Y-104703571D01*
X198334524Y-104751190D01*
X198286905Y-104846429D01*
X198286905Y-105036905D01*
X198334524Y-105132143D01*
X198382143Y-105179762D01*
X198477381Y-105227381D01*
X198667858Y-105227381D01*
X198763096Y-105179762D01*
X198810715Y-105132143D01*
X198858334Y-105036905D01*
X198858334Y-104846429D01*
X198810715Y-104751190D01*
X198763096Y-104703571D01*
X198667858Y-104655952D01*
X199858334Y-105132143D02*
X199810715Y-105179762D01*
X199667858Y-105227381D01*
X199572620Y-105227381D01*
X199429762Y-105179762D01*
X199334524Y-105084524D01*
X199286905Y-104989286D01*
X199239286Y-104798810D01*
X199239286Y-104655952D01*
X199286905Y-104465476D01*
X199334524Y-104370238D01*
X199429762Y-104275000D01*
X199572620Y-104227381D01*
X199667858Y-104227381D01*
X199810715Y-104275000D01*
X199858334Y-104322619D01*
X200239286Y-104322619D02*
X200286905Y-104275000D01*
X200382143Y-104227381D01*
X200620239Y-104227381D01*
X200715477Y-104275000D01*
X200763096Y-104322619D01*
X200810715Y-104417857D01*
X200810715Y-104513095D01*
X200763096Y-104655952D01*
X200191667Y-105227381D01*
X200810715Y-105227381D01*
X201715477Y-104227381D02*
X201239286Y-104227381D01*
X201191667Y-104703571D01*
X201239286Y-104655952D01*
X201334524Y-104608333D01*
X201572620Y-104608333D01*
X201667858Y-104655952D01*
X201715477Y-104703571D01*
X201763096Y-104798810D01*
X201763096Y-105036905D01*
X201715477Y-105132143D01*
X201667858Y-105179762D01*
X201572620Y-105227381D01*
X201334524Y-105227381D01*
X201239286Y-105179762D01*
X201191667Y-105132143D01*
X202620239Y-104227381D02*
X202429762Y-104227381D01*
X202334524Y-104275000D01*
X202286905Y-104322619D01*
X202191667Y-104465476D01*
X202144048Y-104655952D01*
X202144048Y-105036905D01*
X202191667Y-105132143D01*
X202239286Y-105179762D01*
X202334524Y-105227381D01*
X202525001Y-105227381D01*
X202620239Y-105179762D01*
X202667858Y-105132143D01*
X202715477Y-105036905D01*
X202715477Y-104798810D01*
X202667858Y-104703571D01*
X202620239Y-104655952D01*
X202525001Y-104608333D01*
X202334524Y-104608333D01*
X202239286Y-104655952D01*
X202191667Y-104703571D01*
X202144048Y-104798810D01*
X154813095Y-84542381D02*
X154813095Y-85351905D01*
X154860714Y-85447143D01*
X154908333Y-85494762D01*
X155003571Y-85542381D01*
X155194048Y-85542381D01*
X155289286Y-85494762D01*
X155336905Y-85447143D01*
X155384524Y-85351905D01*
X155384524Y-84542381D01*
X156384524Y-85542381D02*
X155813095Y-85542381D01*
X156098809Y-85542381D02*
X156098809Y-84542381D01*
X156003571Y-84685238D01*
X155908333Y-84780476D01*
X155813095Y-84828095D01*
X154336905Y-87082381D02*
X154146428Y-87082381D01*
X154051190Y-87130000D01*
X154003571Y-87177619D01*
X153908333Y-87320476D01*
X153860714Y-87510952D01*
X153860714Y-87891905D01*
X153908333Y-87987143D01*
X153955952Y-88034762D01*
X154051190Y-88082381D01*
X154241667Y-88082381D01*
X154336905Y-88034762D01*
X154384524Y-87987143D01*
X154432143Y-87891905D01*
X154432143Y-87653810D01*
X154384524Y-87558571D01*
X154336905Y-87510952D01*
X154241667Y-87463333D01*
X154051190Y-87463333D01*
X153955952Y-87510952D01*
X153908333Y-87558571D01*
X153860714Y-87653810D01*
X155336905Y-87082381D02*
X154860714Y-87082381D01*
X154813095Y-87558571D01*
X154860714Y-87510952D01*
X154955952Y-87463333D01*
X155194048Y-87463333D01*
X155289286Y-87510952D01*
X155336905Y-87558571D01*
X155384524Y-87653810D01*
X155384524Y-87891905D01*
X155336905Y-87987143D01*
X155289286Y-88034762D01*
X155194048Y-88082381D01*
X154955952Y-88082381D01*
X154860714Y-88034762D01*
X154813095Y-87987143D01*
X156003571Y-87082381D02*
X156098810Y-87082381D01*
X156194048Y-87130000D01*
X156241667Y-87177619D01*
X156289286Y-87272857D01*
X156336905Y-87463333D01*
X156336905Y-87701429D01*
X156289286Y-87891905D01*
X156241667Y-87987143D01*
X156194048Y-88034762D01*
X156098810Y-88082381D01*
X156003571Y-88082381D01*
X155908333Y-88034762D01*
X155860714Y-87987143D01*
X155813095Y-87891905D01*
X155765476Y-87701429D01*
X155765476Y-87463333D01*
X155813095Y-87272857D01*
X155860714Y-87177619D01*
X155908333Y-87130000D01*
X156003571Y-87082381D01*
X156717857Y-87177619D02*
X156765476Y-87130000D01*
X156860714Y-87082381D01*
X157098810Y-87082381D01*
X157194048Y-87130000D01*
X157241667Y-87177619D01*
X157289286Y-87272857D01*
X157289286Y-87368095D01*
X157241667Y-87510952D01*
X156670238Y-88082381D01*
X157289286Y-88082381D01*
X187833095Y-73747381D02*
X187833095Y-74556905D01*
X187880714Y-74652143D01*
X187928333Y-74699762D01*
X188023571Y-74747381D01*
X188214048Y-74747381D01*
X188309286Y-74699762D01*
X188356905Y-74652143D01*
X188404524Y-74556905D01*
X188404524Y-73747381D01*
X188785476Y-73747381D02*
X189452143Y-73747381D01*
X189023571Y-74747381D01*
X188047381Y-82541667D02*
X188047381Y-81875000D01*
X189047381Y-82303572D01*
X188380714Y-81065476D02*
X189047381Y-81065476D01*
X187999762Y-81303572D02*
X188714048Y-81541667D01*
X188714048Y-80922619D01*
X189047381Y-80541667D02*
X188047381Y-80541667D01*
X188523571Y-80541667D02*
X188523571Y-79970238D01*
X189047381Y-79970238D02*
X188047381Y-79970238D01*
X188952143Y-78922619D02*
X188999762Y-78970238D01*
X189047381Y-79113095D01*
X189047381Y-79208333D01*
X188999762Y-79351191D01*
X188904524Y-79446429D01*
X188809286Y-79494048D01*
X188618810Y-79541667D01*
X188475952Y-79541667D01*
X188285476Y-79494048D01*
X188190238Y-79446429D01*
X188095000Y-79351191D01*
X188047381Y-79208333D01*
X188047381Y-79113095D01*
X188095000Y-78970238D01*
X188142619Y-78922619D01*
X188047381Y-78636905D02*
X188047381Y-78065476D01*
X189047381Y-78351191D02*
X188047381Y-78351191D01*
X188047381Y-77541667D02*
X188047381Y-77446428D01*
X188095000Y-77351190D01*
X188142619Y-77303571D01*
X188237857Y-77255952D01*
X188428333Y-77208333D01*
X188666429Y-77208333D01*
X188856905Y-77255952D01*
X188952143Y-77303571D01*
X188999762Y-77351190D01*
X189047381Y-77446428D01*
X189047381Y-77541667D01*
X188999762Y-77636905D01*
X188952143Y-77684524D01*
X188856905Y-77732143D01*
X188666429Y-77779762D01*
X188428333Y-77779762D01*
X188237857Y-77732143D01*
X188142619Y-77684524D01*
X188095000Y-77636905D01*
X188047381Y-77541667D01*
X188380714Y-76351190D02*
X189047381Y-76351190D01*
X187999762Y-76589286D02*
X188714048Y-76827381D01*
X188714048Y-76208333D01*
X143978334Y-99417143D02*
X143930715Y-99464762D01*
X143787858Y-99512381D01*
X143692620Y-99512381D01*
X143549762Y-99464762D01*
X143454524Y-99369524D01*
X143406905Y-99274286D01*
X143359286Y-99083810D01*
X143359286Y-98940952D01*
X143406905Y-98750476D01*
X143454524Y-98655238D01*
X143549762Y-98560000D01*
X143692620Y-98512381D01*
X143787858Y-98512381D01*
X143930715Y-98560000D01*
X143978334Y-98607619D01*
X144930715Y-99512381D02*
X144359286Y-99512381D01*
X144645000Y-99512381D02*
X144645000Y-98512381D01*
X144549762Y-98655238D01*
X144454524Y-98750476D01*
X144359286Y-98798095D01*
X188428334Y-98782143D02*
X188380715Y-98829762D01*
X188237858Y-98877381D01*
X188142620Y-98877381D01*
X187999762Y-98829762D01*
X187904524Y-98734524D01*
X187856905Y-98639286D01*
X187809286Y-98448810D01*
X187809286Y-98305952D01*
X187856905Y-98115476D01*
X187904524Y-98020238D01*
X187999762Y-97925000D01*
X188142620Y-97877381D01*
X188237858Y-97877381D01*
X188380715Y-97925000D01*
X188428334Y-97972619D01*
X188809286Y-97972619D02*
X188856905Y-97925000D01*
X188952143Y-97877381D01*
X189190239Y-97877381D01*
X189285477Y-97925000D01*
X189333096Y-97972619D01*
X189380715Y-98067857D01*
X189380715Y-98163095D01*
X189333096Y-98305952D01*
X188761667Y-98877381D01*
X189380715Y-98877381D01*
X211288334Y-98782143D02*
X211240715Y-98829762D01*
X211097858Y-98877381D01*
X211002620Y-98877381D01*
X210859762Y-98829762D01*
X210764524Y-98734524D01*
X210716905Y-98639286D01*
X210669286Y-98448810D01*
X210669286Y-98305952D01*
X210716905Y-98115476D01*
X210764524Y-98020238D01*
X210859762Y-97925000D01*
X211002620Y-97877381D01*
X211097858Y-97877381D01*
X211240715Y-97925000D01*
X211288334Y-97972619D01*
X212145477Y-98210714D02*
X212145477Y-98877381D01*
X211907381Y-97829762D02*
X211669286Y-98544048D01*
X212288334Y-98544048D01*
X211288334Y-74652143D02*
X211240715Y-74699762D01*
X211097858Y-74747381D01*
X211002620Y-74747381D01*
X210859762Y-74699762D01*
X210764524Y-74604524D01*
X210716905Y-74509286D01*
X210669286Y-74318810D01*
X210669286Y-74175952D01*
X210716905Y-73985476D01*
X210764524Y-73890238D01*
X210859762Y-73795000D01*
X211002620Y-73747381D01*
X211097858Y-73747381D01*
X211240715Y-73795000D01*
X211288334Y-73842619D01*
X212193096Y-73747381D02*
X211716905Y-73747381D01*
X211669286Y-74223571D01*
X211716905Y-74175952D01*
X211812143Y-74128333D01*
X212050239Y-74128333D01*
X212145477Y-74175952D01*
X212193096Y-74223571D01*
X212240715Y-74318810D01*
X212240715Y-74556905D01*
X212193096Y-74652143D01*
X212145477Y-74699762D01*
X212050239Y-74747381D01*
X211812143Y-74747381D01*
X211716905Y-74699762D01*
X211669286Y-74652143D01*
X157313334Y-60047143D02*
X157265715Y-60094762D01*
X157122858Y-60142381D01*
X157027620Y-60142381D01*
X156884762Y-60094762D01*
X156789524Y-59999524D01*
X156741905Y-59904286D01*
X156694286Y-59713810D01*
X156694286Y-59570952D01*
X156741905Y-59380476D01*
X156789524Y-59285238D01*
X156884762Y-59190000D01*
X157027620Y-59142381D01*
X157122858Y-59142381D01*
X157265715Y-59190000D01*
X157313334Y-59237619D01*
X158170477Y-59142381D02*
X157980000Y-59142381D01*
X157884762Y-59190000D01*
X157837143Y-59237619D01*
X157741905Y-59380476D01*
X157694286Y-59570952D01*
X157694286Y-59951905D01*
X157741905Y-60047143D01*
X157789524Y-60094762D01*
X157884762Y-60142381D01*
X158075239Y-60142381D01*
X158170477Y-60094762D01*
X158218096Y-60047143D01*
X158265715Y-59951905D01*
X158265715Y-59713810D01*
X158218096Y-59618571D01*
X158170477Y-59570952D01*
X158075239Y-59523333D01*
X157884762Y-59523333D01*
X157789524Y-59570952D01*
X157741905Y-59618571D01*
X157694286Y-59713810D01*
X195413334Y-74652143D02*
X195365715Y-74699762D01*
X195222858Y-74747381D01*
X195127620Y-74747381D01*
X194984762Y-74699762D01*
X194889524Y-74604524D01*
X194841905Y-74509286D01*
X194794286Y-74318810D01*
X194794286Y-74175952D01*
X194841905Y-73985476D01*
X194889524Y-73890238D01*
X194984762Y-73795000D01*
X195127620Y-73747381D01*
X195222858Y-73747381D01*
X195365715Y-73795000D01*
X195413334Y-73842619D01*
X195746667Y-73747381D02*
X196413334Y-73747381D01*
X195984762Y-74747381D01*
X121118334Y-125452143D02*
X121070715Y-125499762D01*
X120927858Y-125547381D01*
X120832620Y-125547381D01*
X120689762Y-125499762D01*
X120594524Y-125404524D01*
X120546905Y-125309286D01*
X120499286Y-125118810D01*
X120499286Y-124975952D01*
X120546905Y-124785476D01*
X120594524Y-124690238D01*
X120689762Y-124595000D01*
X120832620Y-124547381D01*
X120927858Y-124547381D01*
X121070715Y-124595000D01*
X121118334Y-124642619D01*
X121689762Y-124975952D02*
X121594524Y-124928333D01*
X121546905Y-124880714D01*
X121499286Y-124785476D01*
X121499286Y-124737857D01*
X121546905Y-124642619D01*
X121594524Y-124595000D01*
X121689762Y-124547381D01*
X121880239Y-124547381D01*
X121975477Y-124595000D01*
X122023096Y-124642619D01*
X122070715Y-124737857D01*
X122070715Y-124785476D01*
X122023096Y-124880714D01*
X121975477Y-124928333D01*
X121880239Y-124975952D01*
X121689762Y-124975952D01*
X121594524Y-125023571D01*
X121546905Y-125071190D01*
X121499286Y-125166429D01*
X121499286Y-125356905D01*
X121546905Y-125452143D01*
X121594524Y-125499762D01*
X121689762Y-125547381D01*
X121880239Y-125547381D01*
X121975477Y-125499762D01*
X122023096Y-125452143D01*
X122070715Y-125356905D01*
X122070715Y-125166429D01*
X122023096Y-125071190D01*
X121975477Y-125023571D01*
X121880239Y-124975952D01*
X146518334Y-77192143D02*
X146470715Y-77239762D01*
X146327858Y-77287381D01*
X146232620Y-77287381D01*
X146089762Y-77239762D01*
X145994524Y-77144524D01*
X145946905Y-77049286D01*
X145899286Y-76858810D01*
X145899286Y-76715952D01*
X145946905Y-76525476D01*
X145994524Y-76430238D01*
X146089762Y-76335000D01*
X146232620Y-76287381D01*
X146327858Y-76287381D01*
X146470715Y-76335000D01*
X146518334Y-76382619D01*
X146994524Y-77287381D02*
X147185000Y-77287381D01*
X147280239Y-77239762D01*
X147327858Y-77192143D01*
X147423096Y-77049286D01*
X147470715Y-76858810D01*
X147470715Y-76477857D01*
X147423096Y-76382619D01*
X147375477Y-76335000D01*
X147280239Y-76287381D01*
X147089762Y-76287381D01*
X146994524Y-76335000D01*
X146946905Y-76382619D01*
X146899286Y-76477857D01*
X146899286Y-76715952D01*
X146946905Y-76811190D01*
X146994524Y-76858810D01*
X147089762Y-76906429D01*
X147280239Y-76906429D01*
X147375477Y-76858810D01*
X147423096Y-76811190D01*
X147470715Y-76715952D01*
X156837143Y-51792143D02*
X156789524Y-51839762D01*
X156646667Y-51887381D01*
X156551429Y-51887381D01*
X156408571Y-51839762D01*
X156313333Y-51744524D01*
X156265714Y-51649286D01*
X156218095Y-51458810D01*
X156218095Y-51315952D01*
X156265714Y-51125476D01*
X156313333Y-51030238D01*
X156408571Y-50935000D01*
X156551429Y-50887381D01*
X156646667Y-50887381D01*
X156789524Y-50935000D01*
X156837143Y-50982619D01*
X157789524Y-51887381D02*
X157218095Y-51887381D01*
X157503809Y-51887381D02*
X157503809Y-50887381D01*
X157408571Y-51030238D01*
X157313333Y-51125476D01*
X157218095Y-51173095D01*
X158741905Y-51887381D02*
X158170476Y-51887381D01*
X158456190Y-51887381D02*
X158456190Y-50887381D01*
X158360952Y-51030238D01*
X158265714Y-51125476D01*
X158170476Y-51173095D01*
X180427381Y-58118333D02*
X181141667Y-58118333D01*
X181284524Y-58165953D01*
X181379762Y-58261191D01*
X181427381Y-58404048D01*
X181427381Y-58499286D01*
X180522619Y-57689762D02*
X180475000Y-57642143D01*
X180427381Y-57546905D01*
X180427381Y-57308809D01*
X180475000Y-57213571D01*
X180522619Y-57165952D01*
X180617857Y-57118333D01*
X180713095Y-57118333D01*
X180855952Y-57165952D01*
X181427381Y-57737381D01*
X181427381Y-57118333D01*
X192627857Y-57951667D02*
X193104048Y-57951667D01*
X192532619Y-58237381D02*
X192865952Y-57237381D01*
X193199286Y-58237381D01*
X193532619Y-58237381D02*
X193532619Y-57570714D01*
X193532619Y-57761190D02*
X193580238Y-57665952D01*
X193627857Y-57618333D01*
X193723095Y-57570714D01*
X193818334Y-57570714D01*
X194580239Y-58237381D02*
X194580239Y-57237381D01*
X194580239Y-58189762D02*
X194485001Y-58237381D01*
X194294524Y-58237381D01*
X194199286Y-58189762D01*
X194151667Y-58142143D01*
X194104048Y-58046905D01*
X194104048Y-57761190D01*
X194151667Y-57665952D01*
X194199286Y-57618333D01*
X194294524Y-57570714D01*
X194485001Y-57570714D01*
X194580239Y-57618333D01*
X195485001Y-57570714D02*
X195485001Y-58237381D01*
X195056429Y-57570714D02*
X195056429Y-58094524D01*
X195104048Y-58189762D01*
X195199286Y-58237381D01*
X195342144Y-58237381D01*
X195437382Y-58189762D01*
X195485001Y-58142143D01*
X195961191Y-58237381D02*
X195961191Y-57570714D01*
X195961191Y-57237381D02*
X195913572Y-57285000D01*
X195961191Y-57332619D01*
X196008810Y-57285000D01*
X195961191Y-57237381D01*
X195961191Y-57332619D01*
X196437381Y-57570714D02*
X196437381Y-58237381D01*
X196437381Y-57665952D02*
X196485000Y-57618333D01*
X196580238Y-57570714D01*
X196723096Y-57570714D01*
X196818334Y-57618333D01*
X196865953Y-57713571D01*
X196865953Y-58237381D01*
X197485000Y-58237381D02*
X197389762Y-58189762D01*
X197342143Y-58142143D01*
X197294524Y-58046905D01*
X197294524Y-57761190D01*
X197342143Y-57665952D01*
X197389762Y-57618333D01*
X197485000Y-57570714D01*
X197627858Y-57570714D01*
X197723096Y-57618333D01*
X197770715Y-57665952D01*
X197818334Y-57761190D01*
X197818334Y-58046905D01*
X197770715Y-58142143D01*
X197723096Y-58189762D01*
X197627858Y-58237381D01*
X197485000Y-58237381D01*
X199008810Y-58237381D02*
X199008810Y-57237381D01*
X199580239Y-58237381D01*
X199580239Y-57237381D01*
X200485001Y-58237381D02*
X200485001Y-57713571D01*
X200437382Y-57618333D01*
X200342144Y-57570714D01*
X200151667Y-57570714D01*
X200056429Y-57618333D01*
X200485001Y-58189762D02*
X200389763Y-58237381D01*
X200151667Y-58237381D01*
X200056429Y-58189762D01*
X200008810Y-58094524D01*
X200008810Y-57999286D01*
X200056429Y-57904048D01*
X200151667Y-57856429D01*
X200389763Y-57856429D01*
X200485001Y-57808810D01*
X200961191Y-57570714D02*
X200961191Y-58237381D01*
X200961191Y-57665952D02*
X201008810Y-57618333D01*
X201104048Y-57570714D01*
X201246906Y-57570714D01*
X201342144Y-57618333D01*
X201389763Y-57713571D01*
X201389763Y-58237381D01*
X202008810Y-58237381D02*
X201913572Y-58189762D01*
X201865953Y-58142143D01*
X201818334Y-58046905D01*
X201818334Y-57761190D01*
X201865953Y-57665952D01*
X201913572Y-57618333D01*
X202008810Y-57570714D01*
X202151668Y-57570714D01*
X202246906Y-57618333D01*
X202294525Y-57665952D01*
X202342144Y-57761190D01*
X202342144Y-58046905D01*
X202294525Y-58142143D01*
X202246906Y-58189762D01*
X202151668Y-58237381D01*
X202008810Y-58237381D01*
X215717381Y-142443333D02*
X216431667Y-142443333D01*
X216574524Y-142490953D01*
X216669762Y-142586191D01*
X216717381Y-142729048D01*
X216717381Y-142824286D01*
X215717381Y-142062381D02*
X215717381Y-141443333D01*
X216098333Y-141776667D01*
X216098333Y-141633809D01*
X216145952Y-141538571D01*
X216193571Y-141490952D01*
X216288810Y-141443333D01*
X216526905Y-141443333D01*
X216622143Y-141490952D01*
X216669762Y-141538571D01*
X216717381Y-141633809D01*
X216717381Y-141919524D01*
X216669762Y-142014762D01*
X216622143Y-142062381D01*
X211288334Y-107767381D02*
X210955000Y-107291190D01*
X210716905Y-107767381D02*
X210716905Y-106767381D01*
X211097858Y-106767381D01*
X211193096Y-106815000D01*
X211240715Y-106862619D01*
X211288334Y-106957857D01*
X211288334Y-107100714D01*
X211240715Y-107195952D01*
X211193096Y-107243571D01*
X211097858Y-107291190D01*
X210716905Y-107291190D01*
X212240715Y-107767381D02*
X211669286Y-107767381D01*
X211955000Y-107767381D02*
X211955000Y-106767381D01*
X211859762Y-106910238D01*
X211764524Y-107005476D01*
X211669286Y-107053095D01*
X210907381Y-111942381D02*
X210907381Y-111323333D01*
X211288333Y-111656667D01*
X211288333Y-111513809D01*
X211335952Y-111418571D01*
X211383571Y-111370952D01*
X211478810Y-111323333D01*
X211716905Y-111323333D01*
X211812143Y-111370952D01*
X211859762Y-111418571D01*
X211907381Y-111513809D01*
X211907381Y-111799524D01*
X211859762Y-111894762D01*
X211812143Y-111942381D01*
X211812143Y-110894762D02*
X211859762Y-110847143D01*
X211907381Y-110894762D01*
X211859762Y-110942381D01*
X211812143Y-110894762D01*
X211907381Y-110894762D01*
X210907381Y-110513810D02*
X210907381Y-109894762D01*
X211288333Y-110228096D01*
X211288333Y-110085238D01*
X211335952Y-109990000D01*
X211383571Y-109942381D01*
X211478810Y-109894762D01*
X211716905Y-109894762D01*
X211812143Y-109942381D01*
X211859762Y-109990000D01*
X211907381Y-110085238D01*
X211907381Y-110370953D01*
X211859762Y-110466191D01*
X211812143Y-110513810D01*
X211907381Y-109466191D02*
X210907381Y-109466191D01*
X211526429Y-109370953D02*
X211907381Y-109085238D01*
X211240714Y-109085238D02*
X211621667Y-109466191D01*
X164917381Y-50331666D02*
X164441190Y-50665000D01*
X164917381Y-50903095D02*
X163917381Y-50903095D01*
X163917381Y-50522142D01*
X163965000Y-50426904D01*
X164012619Y-50379285D01*
X164107857Y-50331666D01*
X164250714Y-50331666D01*
X164345952Y-50379285D01*
X164393571Y-50426904D01*
X164441190Y-50522142D01*
X164441190Y-50903095D01*
X164012619Y-49950714D02*
X163965000Y-49903095D01*
X163917381Y-49807857D01*
X163917381Y-49569761D01*
X163965000Y-49474523D01*
X164012619Y-49426904D01*
X164107857Y-49379285D01*
X164203095Y-49379285D01*
X164345952Y-49426904D01*
X164917381Y-49998333D01*
X164917381Y-49379285D01*
X167354286Y-50617381D02*
X166782857Y-50617381D01*
X167068571Y-50617381D02*
X167068571Y-49617381D01*
X166973333Y-49760238D01*
X166878095Y-49855476D01*
X166782857Y-49903095D01*
X167782857Y-50617381D02*
X167782857Y-49617381D01*
X168116191Y-50331667D01*
X168449524Y-49617381D01*
X168449524Y-50617381D01*
X164917381Y-55411666D02*
X164441190Y-55745000D01*
X164917381Y-55983095D02*
X163917381Y-55983095D01*
X163917381Y-55602142D01*
X163965000Y-55506904D01*
X164012619Y-55459285D01*
X164107857Y-55411666D01*
X164250714Y-55411666D01*
X164345952Y-55459285D01*
X164393571Y-55506904D01*
X164441190Y-55602142D01*
X164441190Y-55983095D01*
X163917381Y-55078333D02*
X163917381Y-54459285D01*
X164298333Y-54792619D01*
X164298333Y-54649761D01*
X164345952Y-54554523D01*
X164393571Y-54506904D01*
X164488810Y-54459285D01*
X164726905Y-54459285D01*
X164822143Y-54506904D01*
X164869762Y-54554523D01*
X164917381Y-54649761D01*
X164917381Y-54935476D01*
X164869762Y-55030714D01*
X164822143Y-55078333D01*
X166949524Y-55030714D02*
X166949524Y-55697381D01*
X166711428Y-54649762D02*
X166473333Y-55364048D01*
X167092381Y-55364048D01*
X167378095Y-54697381D02*
X168044762Y-54697381D01*
X167616190Y-55697381D01*
X168425714Y-55697381D02*
X168425714Y-54697381D01*
X168520952Y-55316429D02*
X168806667Y-55697381D01*
X168806667Y-55030714D02*
X168425714Y-55411667D01*
X164917381Y-60491666D02*
X164441190Y-60825000D01*
X164917381Y-61063095D02*
X163917381Y-61063095D01*
X163917381Y-60682142D01*
X163965000Y-60586904D01*
X164012619Y-60539285D01*
X164107857Y-60491666D01*
X164250714Y-60491666D01*
X164345952Y-60539285D01*
X164393571Y-60586904D01*
X164441190Y-60682142D01*
X164441190Y-61063095D01*
X164250714Y-59634523D02*
X164917381Y-59634523D01*
X163869762Y-59872619D02*
X164584048Y-60110714D01*
X164584048Y-59491666D01*
X167520953Y-60777381D02*
X166949524Y-60777381D01*
X167235238Y-60777381D02*
X167235238Y-59777381D01*
X167140000Y-59920238D01*
X167044762Y-60015476D01*
X166949524Y-60063095D01*
X167949524Y-60777381D02*
X167949524Y-59777381D01*
X168044762Y-60396429D02*
X168330477Y-60777381D01*
X168330477Y-60110714D02*
X167949524Y-60491667D01*
X182062381Y-54776666D02*
X181586190Y-55110000D01*
X182062381Y-55348095D02*
X181062381Y-55348095D01*
X181062381Y-54967142D01*
X181110000Y-54871904D01*
X181157619Y-54824285D01*
X181252857Y-54776666D01*
X181395714Y-54776666D01*
X181490952Y-54824285D01*
X181538571Y-54871904D01*
X181586190Y-54967142D01*
X181586190Y-55348095D01*
X181062381Y-53871904D02*
X181062381Y-54348095D01*
X181538571Y-54395714D01*
X181490952Y-54348095D01*
X181443333Y-54252857D01*
X181443333Y-54014761D01*
X181490952Y-53919523D01*
X181538571Y-53871904D01*
X181633810Y-53824285D01*
X181871905Y-53824285D01*
X181967143Y-53871904D01*
X182014762Y-53919523D01*
X182062381Y-54014761D01*
X182062381Y-54252857D01*
X182014762Y-54348095D01*
X181967143Y-54395714D01*
X183499286Y-54062381D02*
X184118334Y-54062381D01*
X183785000Y-54443333D01*
X183927858Y-54443333D01*
X184023096Y-54490952D01*
X184070715Y-54538571D01*
X184118334Y-54633810D01*
X184118334Y-54871905D01*
X184070715Y-54967143D01*
X184023096Y-55014762D01*
X183927858Y-55062381D01*
X183642143Y-55062381D01*
X183546905Y-55014762D01*
X183499286Y-54967143D01*
X184451667Y-54062381D02*
X185070715Y-54062381D01*
X184737381Y-54443333D01*
X184880239Y-54443333D01*
X184975477Y-54490952D01*
X185023096Y-54538571D01*
X185070715Y-54633810D01*
X185070715Y-54871905D01*
X185023096Y-54967143D01*
X184975477Y-55014762D01*
X184880239Y-55062381D01*
X184594524Y-55062381D01*
X184499286Y-55014762D01*
X184451667Y-54967143D01*
X185689762Y-54062381D02*
X185785001Y-54062381D01*
X185880239Y-54110000D01*
X185927858Y-54157619D01*
X185975477Y-54252857D01*
X186023096Y-54443333D01*
X186023096Y-54681429D01*
X185975477Y-54871905D01*
X185927858Y-54967143D01*
X185880239Y-55014762D01*
X185785001Y-55062381D01*
X185689762Y-55062381D01*
X185594524Y-55014762D01*
X185546905Y-54967143D01*
X185499286Y-54871905D01*
X185451667Y-54681429D01*
X185451667Y-54443333D01*
X185499286Y-54252857D01*
X185546905Y-54157619D01*
X185594524Y-54110000D01*
X185689762Y-54062381D01*
X143978334Y-121102381D02*
X143645000Y-120626190D01*
X143406905Y-121102381D02*
X143406905Y-120102381D01*
X143787858Y-120102381D01*
X143883096Y-120150000D01*
X143930715Y-120197619D01*
X143978334Y-120292857D01*
X143978334Y-120435714D01*
X143930715Y-120530952D01*
X143883096Y-120578571D01*
X143787858Y-120626190D01*
X143406905Y-120626190D01*
X144835477Y-120102381D02*
X144645000Y-120102381D01*
X144549762Y-120150000D01*
X144502143Y-120197619D01*
X144406905Y-120340476D01*
X144359286Y-120530952D01*
X144359286Y-120911905D01*
X144406905Y-121007143D01*
X144454524Y-121054762D01*
X144549762Y-121102381D01*
X144740239Y-121102381D01*
X144835477Y-121054762D01*
X144883096Y-121007143D01*
X144930715Y-120911905D01*
X144930715Y-120673810D01*
X144883096Y-120578571D01*
X144835477Y-120530952D01*
X144740239Y-120483333D01*
X144549762Y-120483333D01*
X144454524Y-120530952D01*
X144406905Y-120578571D01*
X144359286Y-120673810D01*
X143597381Y-125277381D02*
X143597381Y-124658333D01*
X143978333Y-124991667D01*
X143978333Y-124848809D01*
X144025952Y-124753571D01*
X144073571Y-124705952D01*
X144168810Y-124658333D01*
X144406905Y-124658333D01*
X144502143Y-124705952D01*
X144549762Y-124753571D01*
X144597381Y-124848809D01*
X144597381Y-125134524D01*
X144549762Y-125229762D01*
X144502143Y-125277381D01*
X144502143Y-124229762D02*
X144549762Y-124182143D01*
X144597381Y-124229762D01*
X144549762Y-124277381D01*
X144502143Y-124229762D01*
X144597381Y-124229762D01*
X143597381Y-123848810D02*
X143597381Y-123229762D01*
X143978333Y-123563096D01*
X143978333Y-123420238D01*
X144025952Y-123325000D01*
X144073571Y-123277381D01*
X144168810Y-123229762D01*
X144406905Y-123229762D01*
X144502143Y-123277381D01*
X144549762Y-123325000D01*
X144597381Y-123420238D01*
X144597381Y-123705953D01*
X144549762Y-123801191D01*
X144502143Y-123848810D01*
X144597381Y-122801191D02*
X143597381Y-122801191D01*
X144216429Y-122705953D02*
X144597381Y-122420238D01*
X143930714Y-122420238D02*
X144311667Y-122801191D01*
X143978334Y-107767381D02*
X143645000Y-107291190D01*
X143406905Y-107767381D02*
X143406905Y-106767381D01*
X143787858Y-106767381D01*
X143883096Y-106815000D01*
X143930715Y-106862619D01*
X143978334Y-106957857D01*
X143978334Y-107100714D01*
X143930715Y-107195952D01*
X143883096Y-107243571D01*
X143787858Y-107291190D01*
X143406905Y-107291190D01*
X144311667Y-106767381D02*
X144978334Y-106767381D01*
X144549762Y-107767381D01*
X143597381Y-111942381D02*
X143597381Y-111323333D01*
X143978333Y-111656667D01*
X143978333Y-111513809D01*
X144025952Y-111418571D01*
X144073571Y-111370952D01*
X144168810Y-111323333D01*
X144406905Y-111323333D01*
X144502143Y-111370952D01*
X144549762Y-111418571D01*
X144597381Y-111513809D01*
X144597381Y-111799524D01*
X144549762Y-111894762D01*
X144502143Y-111942381D01*
X144502143Y-110894762D02*
X144549762Y-110847143D01*
X144597381Y-110894762D01*
X144549762Y-110942381D01*
X144502143Y-110894762D01*
X144597381Y-110894762D01*
X143597381Y-110513810D02*
X143597381Y-109894762D01*
X143978333Y-110228096D01*
X143978333Y-110085238D01*
X144025952Y-109990000D01*
X144073571Y-109942381D01*
X144168810Y-109894762D01*
X144406905Y-109894762D01*
X144502143Y-109942381D01*
X144549762Y-109990000D01*
X144597381Y-110085238D01*
X144597381Y-110370953D01*
X144549762Y-110466191D01*
X144502143Y-110513810D01*
X144597381Y-109466191D02*
X143597381Y-109466191D01*
X144216429Y-109370953D02*
X144597381Y-109085238D01*
X143930714Y-109085238D02*
X144311667Y-109466191D01*
X143978334Y-87447381D02*
X143645000Y-86971190D01*
X143406905Y-87447381D02*
X143406905Y-86447381D01*
X143787858Y-86447381D01*
X143883096Y-86495000D01*
X143930715Y-86542619D01*
X143978334Y-86637857D01*
X143978334Y-86780714D01*
X143930715Y-86875952D01*
X143883096Y-86923571D01*
X143787858Y-86971190D01*
X143406905Y-86971190D01*
X144549762Y-86875952D02*
X144454524Y-86828333D01*
X144406905Y-86780714D01*
X144359286Y-86685476D01*
X144359286Y-86637857D01*
X144406905Y-86542619D01*
X144454524Y-86495000D01*
X144549762Y-86447381D01*
X144740239Y-86447381D01*
X144835477Y-86495000D01*
X144883096Y-86542619D01*
X144930715Y-86637857D01*
X144930715Y-86685476D01*
X144883096Y-86780714D01*
X144835477Y-86828333D01*
X144740239Y-86875952D01*
X144549762Y-86875952D01*
X144454524Y-86923571D01*
X144406905Y-86971190D01*
X144359286Y-87066429D01*
X144359286Y-87256905D01*
X144406905Y-87352143D01*
X144454524Y-87399762D01*
X144549762Y-87447381D01*
X144740239Y-87447381D01*
X144835477Y-87399762D01*
X144883096Y-87352143D01*
X144930715Y-87256905D01*
X144930715Y-87066429D01*
X144883096Y-86971190D01*
X144835477Y-86923571D01*
X144740239Y-86875952D01*
X143597381Y-91622381D02*
X143597381Y-91003333D01*
X143978333Y-91336667D01*
X143978333Y-91193809D01*
X144025952Y-91098571D01*
X144073571Y-91050952D01*
X144168810Y-91003333D01*
X144406905Y-91003333D01*
X144502143Y-91050952D01*
X144549762Y-91098571D01*
X144597381Y-91193809D01*
X144597381Y-91479524D01*
X144549762Y-91574762D01*
X144502143Y-91622381D01*
X144502143Y-90574762D02*
X144549762Y-90527143D01*
X144597381Y-90574762D01*
X144549762Y-90622381D01*
X144502143Y-90574762D01*
X144597381Y-90574762D01*
X143597381Y-90193810D02*
X143597381Y-89574762D01*
X143978333Y-89908096D01*
X143978333Y-89765238D01*
X144025952Y-89670000D01*
X144073571Y-89622381D01*
X144168810Y-89574762D01*
X144406905Y-89574762D01*
X144502143Y-89622381D01*
X144549762Y-89670000D01*
X144597381Y-89765238D01*
X144597381Y-90050953D01*
X144549762Y-90146191D01*
X144502143Y-90193810D01*
X144597381Y-89146191D02*
X143597381Y-89146191D01*
X144216429Y-89050953D02*
X144597381Y-88765238D01*
X143930714Y-88765238D02*
X144311667Y-89146191D01*
X182062381Y-61126666D02*
X181586190Y-61460000D01*
X182062381Y-61698095D02*
X181062381Y-61698095D01*
X181062381Y-61317142D01*
X181110000Y-61221904D01*
X181157619Y-61174285D01*
X181252857Y-61126666D01*
X181395714Y-61126666D01*
X181490952Y-61174285D01*
X181538571Y-61221904D01*
X181586190Y-61317142D01*
X181586190Y-61698095D01*
X182062381Y-60650476D02*
X182062381Y-60460000D01*
X182014762Y-60364761D01*
X181967143Y-60317142D01*
X181824286Y-60221904D01*
X181633810Y-60174285D01*
X181252857Y-60174285D01*
X181157619Y-60221904D01*
X181110000Y-60269523D01*
X181062381Y-60364761D01*
X181062381Y-60555238D01*
X181110000Y-60650476D01*
X181157619Y-60698095D01*
X181252857Y-60745714D01*
X181490952Y-60745714D01*
X181586190Y-60698095D01*
X181633810Y-60650476D01*
X181681429Y-60555238D01*
X181681429Y-60364761D01*
X181633810Y-60269523D01*
X181586190Y-60221904D01*
X181490952Y-60174285D01*
X184189762Y-61412381D02*
X183618333Y-61412381D01*
X183904047Y-61412381D02*
X183904047Y-60412381D01*
X183808809Y-60555238D01*
X183713571Y-60650476D01*
X183618333Y-60698095D01*
X184808809Y-60412381D02*
X184904048Y-60412381D01*
X184999286Y-60460000D01*
X185046905Y-60507619D01*
X185094524Y-60602857D01*
X185142143Y-60793333D01*
X185142143Y-61031429D01*
X185094524Y-61221905D01*
X185046905Y-61317143D01*
X184999286Y-61364762D01*
X184904048Y-61412381D01*
X184808809Y-61412381D01*
X184713571Y-61364762D01*
X184665952Y-61317143D01*
X184618333Y-61221905D01*
X184570714Y-61031429D01*
X184570714Y-60793333D01*
X184618333Y-60602857D01*
X184665952Y-60507619D01*
X184713571Y-60460000D01*
X184808809Y-60412381D01*
X185570714Y-61412381D02*
X185570714Y-60412381D01*
X185665952Y-61031429D02*
X185951667Y-61412381D01*
X185951667Y-60745714D02*
X185570714Y-61126667D01*
X203771667Y-38504762D02*
X203914524Y-38552381D01*
X204152620Y-38552381D01*
X204247858Y-38504762D01*
X204295477Y-38457143D01*
X204343096Y-38361905D01*
X204343096Y-38266667D01*
X204295477Y-38171429D01*
X204247858Y-38123810D01*
X204152620Y-38076190D01*
X203962143Y-38028571D01*
X203866905Y-37980952D01*
X203819286Y-37933333D01*
X203771667Y-37838095D01*
X203771667Y-37742857D01*
X203819286Y-37647619D01*
X203866905Y-37600000D01*
X203962143Y-37552381D01*
X204200239Y-37552381D01*
X204343096Y-37600000D01*
X204676429Y-37552381D02*
X204914524Y-38552381D01*
X205105001Y-37838095D01*
X205295477Y-38552381D01*
X205533572Y-37552381D01*
X206438334Y-38552381D02*
X205866905Y-38552381D01*
X206152619Y-38552381D02*
X206152619Y-37552381D01*
X206057381Y-37695238D01*
X205962143Y-37790476D01*
X205866905Y-37838095D01*
X176403095Y-97877381D02*
X176403095Y-98686905D01*
X176450714Y-98782143D01*
X176498333Y-98829762D01*
X176593571Y-98877381D01*
X176784048Y-98877381D01*
X176879286Y-98829762D01*
X176926905Y-98782143D01*
X176974524Y-98686905D01*
X176974524Y-97877381D01*
X177403095Y-97972619D02*
X177450714Y-97925000D01*
X177545952Y-97877381D01*
X177784048Y-97877381D01*
X177879286Y-97925000D01*
X177926905Y-97972619D01*
X177974524Y-98067857D01*
X177974524Y-98163095D01*
X177926905Y-98305952D01*
X177355476Y-98877381D01*
X177974524Y-98877381D01*
X171426905Y-101417381D02*
X171426905Y-100417381D01*
X171426905Y-100893571D02*
X171998334Y-100893571D01*
X171998334Y-101417381D02*
X171998334Y-100417381D01*
X172474524Y-101417381D02*
X172474524Y-100417381D01*
X172807858Y-101131667D01*
X173141191Y-100417381D01*
X173141191Y-101417381D01*
X174045953Y-100417381D02*
X173855476Y-100417381D01*
X173760238Y-100465000D01*
X173712619Y-100512619D01*
X173617381Y-100655476D01*
X173569762Y-100845952D01*
X173569762Y-101226905D01*
X173617381Y-101322143D01*
X173665000Y-101369762D01*
X173760238Y-101417381D01*
X173950715Y-101417381D01*
X174045953Y-101369762D01*
X174093572Y-101322143D01*
X174141191Y-101226905D01*
X174141191Y-100988810D01*
X174093572Y-100893571D01*
X174045953Y-100845952D01*
X173950715Y-100798333D01*
X173760238Y-100798333D01*
X173665000Y-100845952D01*
X173617381Y-100893571D01*
X173569762Y-100988810D01*
X174522143Y-100512619D02*
X174569762Y-100465000D01*
X174665000Y-100417381D01*
X174903096Y-100417381D01*
X174998334Y-100465000D01*
X175045953Y-100512619D01*
X175093572Y-100607857D01*
X175093572Y-100703095D01*
X175045953Y-100845952D01*
X174474524Y-101417381D01*
X175093572Y-101417381D01*
X175474524Y-100512619D02*
X175522143Y-100465000D01*
X175617381Y-100417381D01*
X175855477Y-100417381D01*
X175950715Y-100465000D01*
X175998334Y-100512619D01*
X176045953Y-100607857D01*
X176045953Y-100703095D01*
X175998334Y-100845952D01*
X175426905Y-101417381D01*
X176045953Y-101417381D01*
X176950715Y-100417381D02*
X176474524Y-100417381D01*
X176426905Y-100893571D01*
X176474524Y-100845952D01*
X176569762Y-100798333D01*
X176807858Y-100798333D01*
X176903096Y-100845952D01*
X176950715Y-100893571D01*
X176998334Y-100988810D01*
X176998334Y-101226905D01*
X176950715Y-101322143D01*
X176903096Y-101369762D01*
X176807858Y-101417381D01*
X176569762Y-101417381D01*
X176474524Y-101369762D01*
X176426905Y-101322143D01*
X177855477Y-100417381D02*
X177665000Y-100417381D01*
X177569762Y-100465000D01*
X177522143Y-100512619D01*
X177426905Y-100655476D01*
X177379286Y-100845952D01*
X177379286Y-101226905D01*
X177426905Y-101322143D01*
X177474524Y-101369762D01*
X177569762Y-101417381D01*
X177760239Y-101417381D01*
X177855477Y-101369762D01*
X177903096Y-101322143D01*
X177950715Y-101226905D01*
X177950715Y-100988810D01*
X177903096Y-100893571D01*
X177855477Y-100845952D01*
X177760239Y-100798333D01*
X177569762Y-100798333D01*
X177474524Y-100845952D01*
X177426905Y-100893571D01*
X177379286Y-100988810D01*
X178712620Y-100893571D02*
X178855477Y-100941190D01*
X178903096Y-100988810D01*
X178950715Y-101084048D01*
X178950715Y-101226905D01*
X178903096Y-101322143D01*
X178855477Y-101369762D01*
X178760239Y-101417381D01*
X178379286Y-101417381D01*
X178379286Y-100417381D01*
X178712620Y-100417381D01*
X178807858Y-100465000D01*
X178855477Y-100512619D01*
X178903096Y-100607857D01*
X178903096Y-100703095D01*
X178855477Y-100798333D01*
X178807858Y-100845952D01*
X178712620Y-100893571D01*
X178379286Y-100893571D01*
X179855477Y-101417381D02*
X179379286Y-101417381D01*
X179379286Y-100417381D01*
X180188810Y-101417381D02*
X180188810Y-100417381D01*
X180569763Y-100417381D01*
X180665001Y-100465000D01*
X180712620Y-100512619D01*
X180760239Y-100607857D01*
X180760239Y-100750714D01*
X180712620Y-100845952D01*
X180665001Y-100893571D01*
X180569763Y-100941190D01*
X180188810Y-100941190D01*
X181188810Y-101036429D02*
X181950715Y-101036429D01*
X182331667Y-100417381D02*
X182998334Y-100417381D01*
X182569762Y-101417381D01*
X203073095Y-73747381D02*
X203073095Y-74556905D01*
X203120714Y-74652143D01*
X203168333Y-74699762D01*
X203263571Y-74747381D01*
X203454048Y-74747381D01*
X203549286Y-74699762D01*
X203596905Y-74652143D01*
X203644524Y-74556905D01*
X203644524Y-73747381D01*
X204596905Y-73747381D02*
X204120714Y-73747381D01*
X204073095Y-74223571D01*
X204120714Y-74175952D01*
X204215952Y-74128333D01*
X204454048Y-74128333D01*
X204549286Y-74175952D01*
X204596905Y-74223571D01*
X204644524Y-74318810D01*
X204644524Y-74556905D01*
X204596905Y-74652143D01*
X204549286Y-74699762D01*
X204454048Y-74747381D01*
X204215952Y-74747381D01*
X204120714Y-74699762D01*
X204073095Y-74652143D01*
X203287381Y-82541667D02*
X203287381Y-81875000D01*
X204287381Y-82303572D01*
X203620714Y-81065476D02*
X204287381Y-81065476D01*
X203239762Y-81303572D02*
X203954048Y-81541667D01*
X203954048Y-80922619D01*
X204287381Y-80541667D02*
X203287381Y-80541667D01*
X203763571Y-80541667D02*
X203763571Y-79970238D01*
X204287381Y-79970238D02*
X203287381Y-79970238D01*
X204192143Y-78922619D02*
X204239762Y-78970238D01*
X204287381Y-79113095D01*
X204287381Y-79208333D01*
X204239762Y-79351191D01*
X204144524Y-79446429D01*
X204049286Y-79494048D01*
X203858810Y-79541667D01*
X203715952Y-79541667D01*
X203525476Y-79494048D01*
X203430238Y-79446429D01*
X203335000Y-79351191D01*
X203287381Y-79208333D01*
X203287381Y-79113095D01*
X203335000Y-78970238D01*
X203382619Y-78922619D01*
X203287381Y-78636905D02*
X203287381Y-78065476D01*
X204287381Y-78351191D02*
X203287381Y-78351191D01*
X203287381Y-77541667D02*
X203287381Y-77446428D01*
X203335000Y-77351190D01*
X203382619Y-77303571D01*
X203477857Y-77255952D01*
X203668333Y-77208333D01*
X203906429Y-77208333D01*
X204096905Y-77255952D01*
X204192143Y-77303571D01*
X204239762Y-77351190D01*
X204287381Y-77446428D01*
X204287381Y-77541667D01*
X204239762Y-77636905D01*
X204192143Y-77684524D01*
X204096905Y-77732143D01*
X203906429Y-77779762D01*
X203668333Y-77779762D01*
X203477857Y-77732143D01*
X203382619Y-77684524D01*
X203335000Y-77636905D01*
X203287381Y-77541667D01*
X203287381Y-76589286D02*
X203287381Y-76494047D01*
X203335000Y-76398809D01*
X203382619Y-76351190D01*
X203477857Y-76303571D01*
X203668333Y-76255952D01*
X203906429Y-76255952D01*
X204096905Y-76303571D01*
X204192143Y-76351190D01*
X204239762Y-76398809D01*
X204287381Y-76494047D01*
X204287381Y-76589286D01*
X204239762Y-76684524D01*
X204192143Y-76732143D01*
X204096905Y-76779762D01*
X203906429Y-76827381D01*
X203668333Y-76827381D01*
X203477857Y-76779762D01*
X203382619Y-76732143D01*
X203335000Y-76684524D01*
X203287381Y-76589286D01*
X131953095Y-84542381D02*
X131953095Y-85351905D01*
X132000714Y-85447143D01*
X132048333Y-85494762D01*
X132143571Y-85542381D01*
X132334048Y-85542381D01*
X132429286Y-85494762D01*
X132476905Y-85447143D01*
X132524524Y-85351905D01*
X132524524Y-84542381D01*
X133143571Y-84970952D02*
X133048333Y-84923333D01*
X133000714Y-84875714D01*
X132953095Y-84780476D01*
X132953095Y-84732857D01*
X133000714Y-84637619D01*
X133048333Y-84590000D01*
X133143571Y-84542381D01*
X133334048Y-84542381D01*
X133429286Y-84590000D01*
X133476905Y-84637619D01*
X133524524Y-84732857D01*
X133524524Y-84780476D01*
X133476905Y-84875714D01*
X133429286Y-84923333D01*
X133334048Y-84970952D01*
X133143571Y-84970952D01*
X133048333Y-85018571D01*
X133000714Y-85066190D01*
X132953095Y-85161429D01*
X132953095Y-85351905D01*
X133000714Y-85447143D01*
X133048333Y-85494762D01*
X133143571Y-85542381D01*
X133334048Y-85542381D01*
X133429286Y-85494762D01*
X133476905Y-85447143D01*
X133524524Y-85351905D01*
X133524524Y-85161429D01*
X133476905Y-85066190D01*
X133429286Y-85018571D01*
X133334048Y-84970952D01*
X131476905Y-87082381D02*
X131286428Y-87082381D01*
X131191190Y-87130000D01*
X131143571Y-87177619D01*
X131048333Y-87320476D01*
X131000714Y-87510952D01*
X131000714Y-87891905D01*
X131048333Y-87987143D01*
X131095952Y-88034762D01*
X131191190Y-88082381D01*
X131381667Y-88082381D01*
X131476905Y-88034762D01*
X131524524Y-87987143D01*
X131572143Y-87891905D01*
X131572143Y-87653810D01*
X131524524Y-87558571D01*
X131476905Y-87510952D01*
X131381667Y-87463333D01*
X131191190Y-87463333D01*
X131095952Y-87510952D01*
X131048333Y-87558571D01*
X131000714Y-87653810D01*
X132143571Y-87510952D02*
X132048333Y-87463333D01*
X132000714Y-87415714D01*
X131953095Y-87320476D01*
X131953095Y-87272857D01*
X132000714Y-87177619D01*
X132048333Y-87130000D01*
X132143571Y-87082381D01*
X132334048Y-87082381D01*
X132429286Y-87130000D01*
X132476905Y-87177619D01*
X132524524Y-87272857D01*
X132524524Y-87320476D01*
X132476905Y-87415714D01*
X132429286Y-87463333D01*
X132334048Y-87510952D01*
X132143571Y-87510952D01*
X132048333Y-87558571D01*
X132000714Y-87606190D01*
X131953095Y-87701429D01*
X131953095Y-87891905D01*
X132000714Y-87987143D01*
X132048333Y-88034762D01*
X132143571Y-88082381D01*
X132334048Y-88082381D01*
X132429286Y-88034762D01*
X132476905Y-87987143D01*
X132524524Y-87891905D01*
X132524524Y-87701429D01*
X132476905Y-87606190D01*
X132429286Y-87558571D01*
X132334048Y-87510952D01*
X132905476Y-87177619D02*
X132953095Y-87130000D01*
X133048333Y-87082381D01*
X133286429Y-87082381D01*
X133381667Y-87130000D01*
X133429286Y-87177619D01*
X133476905Y-87272857D01*
X133476905Y-87368095D01*
X133429286Y-87510952D01*
X132857857Y-88082381D01*
X133476905Y-88082381D01*
X134429286Y-88082381D02*
X133857857Y-88082381D01*
X134143571Y-88082381D02*
X134143571Y-87082381D01*
X134048333Y-87225238D01*
X133953095Y-87320476D01*
X133857857Y-87368095D01*
X125817381Y-69976905D02*
X126626905Y-69976905D01*
X126722143Y-69929286D01*
X126769762Y-69881667D01*
X126817381Y-69786429D01*
X126817381Y-69595952D01*
X126769762Y-69500714D01*
X126722143Y-69453095D01*
X126626905Y-69405476D01*
X125817381Y-69405476D01*
X126817381Y-68881667D02*
X126817381Y-68691191D01*
X126769762Y-68595952D01*
X126722143Y-68548333D01*
X126579286Y-68453095D01*
X126388810Y-68405476D01*
X126007857Y-68405476D01*
X125912619Y-68453095D01*
X125865000Y-68500714D01*
X125817381Y-68595952D01*
X125817381Y-68786429D01*
X125865000Y-68881667D01*
X125912619Y-68929286D01*
X126007857Y-68976905D01*
X126245952Y-68976905D01*
X126341190Y-68929286D01*
X126388810Y-68881667D01*
X126436429Y-68786429D01*
X126436429Y-68595952D01*
X126388810Y-68500714D01*
X126341190Y-68453095D01*
X126245952Y-68405476D01*
X136620714Y-69667381D02*
X136620714Y-68667381D01*
X136954048Y-69381667D01*
X137287381Y-68667381D01*
X137287381Y-69667381D01*
X138335000Y-69572143D02*
X138287381Y-69619762D01*
X138144524Y-69667381D01*
X138049286Y-69667381D01*
X137906428Y-69619762D01*
X137811190Y-69524524D01*
X137763571Y-69429286D01*
X137715952Y-69238810D01*
X137715952Y-69095952D01*
X137763571Y-68905476D01*
X137811190Y-68810238D01*
X137906428Y-68715000D01*
X138049286Y-68667381D01*
X138144524Y-68667381D01*
X138287381Y-68715000D01*
X138335000Y-68762619D01*
X138763571Y-69667381D02*
X138763571Y-68667381D01*
X139144524Y-68667381D01*
X139239762Y-68715000D01*
X139287381Y-68762619D01*
X139335000Y-68857857D01*
X139335000Y-69000714D01*
X139287381Y-69095952D01*
X139239762Y-69143571D01*
X139144524Y-69191190D01*
X138763571Y-69191190D01*
X139715952Y-68762619D02*
X139763571Y-68715000D01*
X139858809Y-68667381D01*
X140096905Y-68667381D01*
X140192143Y-68715000D01*
X140239762Y-68762619D01*
X140287381Y-68857857D01*
X140287381Y-68953095D01*
X140239762Y-69095952D01*
X139668333Y-69667381D01*
X140287381Y-69667381D01*
X140620714Y-68667381D02*
X141239762Y-68667381D01*
X140906428Y-69048333D01*
X141049286Y-69048333D01*
X141144524Y-69095952D01*
X141192143Y-69143571D01*
X141239762Y-69238810D01*
X141239762Y-69476905D01*
X141192143Y-69572143D01*
X141144524Y-69619762D01*
X141049286Y-69667381D01*
X140763571Y-69667381D01*
X140668333Y-69619762D01*
X140620714Y-69572143D01*
X141620714Y-69619762D02*
X141763571Y-69667381D01*
X142001667Y-69667381D01*
X142096905Y-69619762D01*
X142144524Y-69572143D01*
X142192143Y-69476905D01*
X142192143Y-69381667D01*
X142144524Y-69286429D01*
X142096905Y-69238810D01*
X142001667Y-69191190D01*
X141811190Y-69143571D01*
X141715952Y-69095952D01*
X141668333Y-69048333D01*
X141620714Y-68953095D01*
X141620714Y-68857857D01*
X141668333Y-68762619D01*
X141715952Y-68715000D01*
X141811190Y-68667381D01*
X142049286Y-68667381D01*
X142192143Y-68715000D01*
X143144524Y-69667381D02*
X142573095Y-69667381D01*
X142858809Y-69667381D02*
X142858809Y-68667381D01*
X142763571Y-68810238D01*
X142668333Y-68905476D01*
X142573095Y-68953095D01*
X143477857Y-68667381D02*
X144144524Y-68667381D01*
X143715952Y-69667381D01*
X172593095Y-73747381D02*
X172593095Y-74556905D01*
X172640714Y-74652143D01*
X172688333Y-74699762D01*
X172783571Y-74747381D01*
X172974048Y-74747381D01*
X173069286Y-74699762D01*
X173116905Y-74652143D01*
X173164524Y-74556905D01*
X173164524Y-73747381D01*
X173545476Y-73747381D02*
X174164524Y-73747381D01*
X173831190Y-74128333D01*
X173974048Y-74128333D01*
X174069286Y-74175952D01*
X174116905Y-74223571D01*
X174164524Y-74318810D01*
X174164524Y-74556905D01*
X174116905Y-74652143D01*
X174069286Y-74699762D01*
X173974048Y-74747381D01*
X173688333Y-74747381D01*
X173593095Y-74699762D01*
X173545476Y-74652143D01*
X172807381Y-84287857D02*
X172807381Y-83621190D01*
X173807381Y-84049762D01*
X173140714Y-82811666D02*
X173807381Y-82811666D01*
X172759762Y-83049762D02*
X173474048Y-83287857D01*
X173474048Y-82668809D01*
X173807381Y-82287857D02*
X172807381Y-82287857D01*
X173283571Y-82287857D02*
X173283571Y-81716428D01*
X173807381Y-81716428D02*
X172807381Y-81716428D01*
X173712143Y-80668809D02*
X173759762Y-80716428D01*
X173807381Y-80859285D01*
X173807381Y-80954523D01*
X173759762Y-81097381D01*
X173664524Y-81192619D01*
X173569286Y-81240238D01*
X173378810Y-81287857D01*
X173235952Y-81287857D01*
X173045476Y-81240238D01*
X172950238Y-81192619D01*
X172855000Y-81097381D01*
X172807381Y-80954523D01*
X172807381Y-80859285D01*
X172855000Y-80716428D01*
X172902619Y-80668809D01*
X172807381Y-80383095D02*
X172807381Y-79811666D01*
X173807381Y-80097381D02*
X172807381Y-80097381D01*
X173807381Y-78954523D02*
X173807381Y-79525952D01*
X173807381Y-79240238D02*
X172807381Y-79240238D01*
X172950238Y-79335476D01*
X173045476Y-79430714D01*
X173093095Y-79525952D01*
X172807381Y-78621190D02*
X172807381Y-78002142D01*
X173188333Y-78335476D01*
X173188333Y-78192618D01*
X173235952Y-78097380D01*
X173283571Y-78049761D01*
X173378810Y-78002142D01*
X173616905Y-78002142D01*
X173712143Y-78049761D01*
X173759762Y-78097380D01*
X173807381Y-78192618D01*
X173807381Y-78478333D01*
X173759762Y-78573571D01*
X173712143Y-78621190D01*
X173235952Y-77430714D02*
X173188333Y-77525952D01*
X173140714Y-77573571D01*
X173045476Y-77621190D01*
X172997857Y-77621190D01*
X172902619Y-77573571D01*
X172855000Y-77525952D01*
X172807381Y-77430714D01*
X172807381Y-77240237D01*
X172855000Y-77144999D01*
X172902619Y-77097380D01*
X172997857Y-77049761D01*
X173045476Y-77049761D01*
X173140714Y-77097380D01*
X173188333Y-77144999D01*
X173235952Y-77240237D01*
X173235952Y-77430714D01*
X173283571Y-77525952D01*
X173331190Y-77573571D01*
X173426429Y-77621190D01*
X173616905Y-77621190D01*
X173712143Y-77573571D01*
X173759762Y-77525952D01*
X173807381Y-77430714D01*
X173807381Y-77240237D01*
X173759762Y-77144999D01*
X173712143Y-77097380D01*
X173616905Y-77049761D01*
X173426429Y-77049761D01*
X173331190Y-77097380D01*
X173283571Y-77144999D01*
X173235952Y-77240237D01*
X149733095Y-50252381D02*
X149733095Y-51061905D01*
X149780714Y-51157143D01*
X149828333Y-51204762D01*
X149923571Y-51252381D01*
X150114048Y-51252381D01*
X150209286Y-51204762D01*
X150256905Y-51157143D01*
X150304524Y-51061905D01*
X150304524Y-50252381D01*
X151209286Y-50252381D02*
X151018809Y-50252381D01*
X150923571Y-50300000D01*
X150875952Y-50347619D01*
X150780714Y-50490476D01*
X150733095Y-50680952D01*
X150733095Y-51061905D01*
X150780714Y-51157143D01*
X150828333Y-51204762D01*
X150923571Y-51252381D01*
X151114048Y-51252381D01*
X151209286Y-51204762D01*
X151256905Y-51157143D01*
X151304524Y-51061905D01*
X151304524Y-50823810D01*
X151256905Y-50728571D01*
X151209286Y-50680952D01*
X151114048Y-50633333D01*
X150923571Y-50633333D01*
X150828333Y-50680952D01*
X150780714Y-50728571D01*
X150733095Y-50823810D01*
X150947381Y-56776667D02*
X149947381Y-56776667D01*
X150947381Y-56205238D01*
X149947381Y-56205238D01*
X150423571Y-55729048D02*
X150423571Y-55395714D01*
X150947381Y-55252857D02*
X150947381Y-55729048D01*
X149947381Y-55729048D01*
X149947381Y-55252857D01*
X149947381Y-54348095D02*
X149947381Y-54824286D01*
X150423571Y-54871905D01*
X150375952Y-54824286D01*
X150328333Y-54729048D01*
X150328333Y-54490952D01*
X150375952Y-54395714D01*
X150423571Y-54348095D01*
X150518810Y-54300476D01*
X150756905Y-54300476D01*
X150852143Y-54348095D01*
X150899762Y-54395714D01*
X150947381Y-54490952D01*
X150947381Y-54729048D01*
X150899762Y-54824286D01*
X150852143Y-54871905D01*
X149947381Y-53395714D02*
X149947381Y-53871905D01*
X150423571Y-53919524D01*
X150375952Y-53871905D01*
X150328333Y-53776667D01*
X150328333Y-53538571D01*
X150375952Y-53443333D01*
X150423571Y-53395714D01*
X150518810Y-53348095D01*
X150756905Y-53348095D01*
X150852143Y-53395714D01*
X150899762Y-53443333D01*
X150947381Y-53538571D01*
X150947381Y-53776667D01*
X150899762Y-53871905D01*
X150852143Y-53919524D01*
X149947381Y-52443333D02*
X149947381Y-52919524D01*
X150423571Y-52967143D01*
X150375952Y-52919524D01*
X150328333Y-52824286D01*
X150328333Y-52586190D01*
X150375952Y-52490952D01*
X150423571Y-52443333D01*
X150518810Y-52395714D01*
X150756905Y-52395714D01*
X150852143Y-52443333D01*
X150899762Y-52490952D01*
X150947381Y-52586190D01*
X150947381Y-52824286D01*
X150899762Y-52919524D01*
X150852143Y-52967143D01*
X180808334Y-74652143D02*
X180760715Y-74699762D01*
X180617858Y-74747381D01*
X180522620Y-74747381D01*
X180379762Y-74699762D01*
X180284524Y-74604524D01*
X180236905Y-74509286D01*
X180189286Y-74318810D01*
X180189286Y-74175952D01*
X180236905Y-73985476D01*
X180284524Y-73890238D01*
X180379762Y-73795000D01*
X180522620Y-73747381D01*
X180617858Y-73747381D01*
X180760715Y-73795000D01*
X180808334Y-73842619D01*
X181141667Y-73747381D02*
X181760715Y-73747381D01*
X181427381Y-74128333D01*
X181570239Y-74128333D01*
X181665477Y-74175952D01*
X181713096Y-74223571D01*
X181760715Y-74318810D01*
X181760715Y-74556905D01*
X181713096Y-74652143D01*
X181665477Y-74699762D01*
X181570239Y-74747381D01*
X181284524Y-74747381D01*
X181189286Y-74699762D01*
X181141667Y-74652143D01*
X162917143Y-66682857D02*
X162964762Y-66730476D01*
X163012381Y-66873333D01*
X163012381Y-66968571D01*
X162964762Y-67111429D01*
X162869524Y-67206667D01*
X162774286Y-67254286D01*
X162583810Y-67301905D01*
X162440952Y-67301905D01*
X162250476Y-67254286D01*
X162155238Y-67206667D01*
X162060000Y-67111429D01*
X162012381Y-66968571D01*
X162012381Y-66873333D01*
X162060000Y-66730476D01*
X162107619Y-66682857D01*
X163012381Y-65730476D02*
X163012381Y-66301905D01*
X163012381Y-66016191D02*
X162012381Y-66016191D01*
X162155238Y-66111429D01*
X162250476Y-66206667D01*
X162298095Y-66301905D01*
X162012381Y-65111429D02*
X162012381Y-65016190D01*
X162060000Y-64920952D01*
X162107619Y-64873333D01*
X162202857Y-64825714D01*
X162393333Y-64778095D01*
X162631429Y-64778095D01*
X162821905Y-64825714D01*
X162917143Y-64873333D01*
X162964762Y-64920952D01*
X163012381Y-65016190D01*
X163012381Y-65111429D01*
X162964762Y-65206667D01*
X162917143Y-65254286D01*
X162821905Y-65301905D01*
X162631429Y-65349524D01*
X162393333Y-65349524D01*
X162202857Y-65301905D01*
X162107619Y-65254286D01*
X162060000Y-65206667D01*
X162012381Y-65111429D01*
X169997381Y-67111428D02*
X169997381Y-67682857D01*
X169997381Y-67397143D02*
X168997381Y-67397143D01*
X169140238Y-67492381D01*
X169235476Y-67587619D01*
X169283095Y-67682857D01*
X168997381Y-66492381D02*
X168997381Y-66397142D01*
X169045000Y-66301904D01*
X169092619Y-66254285D01*
X169187857Y-66206666D01*
X169378333Y-66159047D01*
X169616429Y-66159047D01*
X169806905Y-66206666D01*
X169902143Y-66254285D01*
X169949762Y-66301904D01*
X169997381Y-66397142D01*
X169997381Y-66492381D01*
X169949762Y-66587619D01*
X169902143Y-66635238D01*
X169806905Y-66682857D01*
X169616429Y-66730476D01*
X169378333Y-66730476D01*
X169187857Y-66682857D01*
X169092619Y-66635238D01*
X169045000Y-66587619D01*
X168997381Y-66492381D01*
X169330714Y-65301904D02*
X169997381Y-65301904D01*
X169330714Y-65730476D02*
X169854524Y-65730476D01*
X169949762Y-65682857D01*
X169997381Y-65587619D01*
X169997381Y-65444761D01*
X169949762Y-65349523D01*
X169902143Y-65301904D01*
X169473571Y-64492380D02*
X169473571Y-64825714D01*
X169997381Y-64825714D02*
X168997381Y-64825714D01*
X168997381Y-64349523D01*
X194937143Y-85447143D02*
X194889524Y-85494762D01*
X194746667Y-85542381D01*
X194651429Y-85542381D01*
X194508571Y-85494762D01*
X194413333Y-85399524D01*
X194365714Y-85304286D01*
X194318095Y-85113810D01*
X194318095Y-84970952D01*
X194365714Y-84780476D01*
X194413333Y-84685238D01*
X194508571Y-84590000D01*
X194651429Y-84542381D01*
X194746667Y-84542381D01*
X194889524Y-84590000D01*
X194937143Y-84637619D01*
X195889524Y-85542381D02*
X195318095Y-85542381D01*
X195603809Y-85542381D02*
X195603809Y-84542381D01*
X195508571Y-84685238D01*
X195413333Y-84780476D01*
X195318095Y-84828095D01*
X196270476Y-84637619D02*
X196318095Y-84590000D01*
X196413333Y-84542381D01*
X196651429Y-84542381D01*
X196746667Y-84590000D01*
X196794286Y-84637619D01*
X196841905Y-84732857D01*
X196841905Y-84828095D01*
X196794286Y-84970952D01*
X196222857Y-85542381D01*
X196841905Y-85542381D01*
X123912381Y-85423333D02*
X124626667Y-85423333D01*
X124769524Y-85470953D01*
X124864762Y-85566191D01*
X124912381Y-85709048D01*
X124912381Y-85804286D01*
X124912381Y-84423333D02*
X124912381Y-84994762D01*
X124912381Y-84709048D02*
X123912381Y-84709048D01*
X124055238Y-84804286D01*
X124150476Y-84899524D01*
X124198095Y-84994762D01*
X117911905Y-79462381D02*
X118245238Y-80462381D01*
X118578572Y-79462381D01*
X118911905Y-80462381D02*
X118911905Y-79462381D01*
X119292858Y-79462381D01*
X119388096Y-79510000D01*
X119435715Y-79557619D01*
X119483334Y-79652857D01*
X119483334Y-79795714D01*
X119435715Y-79890952D01*
X119388096Y-79938571D01*
X119292858Y-79986190D01*
X118911905Y-79986190D01*
X121197620Y-79510000D02*
X121102382Y-79462381D01*
X120959525Y-79462381D01*
X120816667Y-79510000D01*
X120721429Y-79605238D01*
X120673810Y-79700476D01*
X120626191Y-79890952D01*
X120626191Y-80033810D01*
X120673810Y-80224286D01*
X120721429Y-80319524D01*
X120816667Y-80414762D01*
X120959525Y-80462381D01*
X121054763Y-80462381D01*
X121197620Y-80414762D01*
X121245239Y-80367143D01*
X121245239Y-80033810D01*
X121054763Y-80033810D01*
X121673810Y-80462381D02*
X121673810Y-79462381D01*
X122245239Y-80462381D01*
X122245239Y-79462381D01*
X122721429Y-80462381D02*
X122721429Y-79462381D01*
X122959524Y-79462381D01*
X123102382Y-79510000D01*
X123197620Y-79605238D01*
X123245239Y-79700476D01*
X123292858Y-79890952D01*
X123292858Y-80033810D01*
X123245239Y-80224286D01*
X123197620Y-80319524D01*
X123102382Y-80414762D01*
X122959524Y-80462381D01*
X122721429Y-80462381D01*
X192301905Y-38552381D02*
X192301905Y-37552381D01*
X192540000Y-37552381D01*
X192682858Y-37600000D01*
X192778096Y-37695238D01*
X192825715Y-37790476D01*
X192873334Y-37980952D01*
X192873334Y-38123810D01*
X192825715Y-38314286D01*
X192778096Y-38409524D01*
X192682858Y-38504762D01*
X192540000Y-38552381D01*
X192301905Y-38552381D01*
X193825715Y-38552381D02*
X193254286Y-38552381D01*
X193540000Y-38552381D02*
X193540000Y-37552381D01*
X193444762Y-37695238D01*
X193349524Y-37790476D01*
X193254286Y-37838095D01*
X184451667Y-37552381D02*
X184451667Y-38266667D01*
X184404047Y-38409524D01*
X184308809Y-38504762D01*
X184165952Y-38552381D01*
X184070714Y-38552381D01*
X185070714Y-37980952D02*
X184975476Y-37933333D01*
X184927857Y-37885714D01*
X184880238Y-37790476D01*
X184880238Y-37742857D01*
X184927857Y-37647619D01*
X184975476Y-37600000D01*
X185070714Y-37552381D01*
X185261191Y-37552381D01*
X185356429Y-37600000D01*
X185404048Y-37647619D01*
X185451667Y-37742857D01*
X185451667Y-37790476D01*
X185404048Y-37885714D01*
X185356429Y-37933333D01*
X185261191Y-37980952D01*
X185070714Y-37980952D01*
X184975476Y-38028571D01*
X184927857Y-38076190D01*
X184880238Y-38171429D01*
X184880238Y-38361905D01*
X184927857Y-38457143D01*
X184975476Y-38504762D01*
X185070714Y-38552381D01*
X185261191Y-38552381D01*
X185356429Y-38504762D01*
X185404048Y-38457143D01*
X185451667Y-38361905D01*
X185451667Y-38171429D01*
X185404048Y-38076190D01*
X185356429Y-38028571D01*
X185261191Y-37980952D01*
D10*
X200158333Y-92392381D02*
X200158333Y-92011429D01*
X200386905Y-92468572D02*
X199586905Y-92201905D01*
X200386905Y-91935238D01*
X200386905Y-91249524D02*
X200386905Y-91706667D01*
X200386905Y-91478096D02*
X199586905Y-91478096D01*
X199701190Y-91554286D01*
X199777381Y-91630477D01*
X199815476Y-91706667D01*
X199586905Y-90982857D02*
X199586905Y-90487619D01*
X199891667Y-90754286D01*
X199891667Y-90640000D01*
X199929762Y-90563810D01*
X199967857Y-90525714D01*
X200044048Y-90487619D01*
X200234524Y-90487619D01*
X200310714Y-90525714D01*
X200348810Y-90563810D01*
X200386905Y-90640000D01*
X200386905Y-90868572D01*
X200348810Y-90944762D01*
X200310714Y-90982857D01*
X210318333Y-92392381D02*
X210318333Y-92011429D01*
X210546905Y-92468572D02*
X209746905Y-92201905D01*
X210546905Y-91935238D01*
X210546905Y-91249524D02*
X210546905Y-91706667D01*
X210546905Y-91478096D02*
X209746905Y-91478096D01*
X209861190Y-91554286D01*
X209937381Y-91630477D01*
X209975476Y-91706667D01*
X210013571Y-90563810D02*
X210546905Y-90563810D01*
X209708810Y-90754286D02*
X210280238Y-90944762D01*
X210280238Y-90449524D01*
D11*
X156662381Y-77477857D02*
X156186190Y-77811191D01*
X156662381Y-78049286D02*
X155662381Y-78049286D01*
X155662381Y-77668333D01*
X155710000Y-77573095D01*
X155757619Y-77525476D01*
X155852857Y-77477857D01*
X155995714Y-77477857D01*
X156090952Y-77525476D01*
X156138571Y-77573095D01*
X156186190Y-77668333D01*
X156186190Y-78049286D01*
X156662381Y-76525476D02*
X156662381Y-77096905D01*
X156662381Y-76811191D02*
X155662381Y-76811191D01*
X155805238Y-76906429D01*
X155900476Y-77001667D01*
X155948095Y-77096905D01*
X155662381Y-75906429D02*
X155662381Y-75811190D01*
X155710000Y-75715952D01*
X155757619Y-75668333D01*
X155852857Y-75620714D01*
X156043333Y-75573095D01*
X156281429Y-75573095D01*
X156471905Y-75620714D01*
X156567143Y-75668333D01*
X156614762Y-75715952D01*
X156662381Y-75811190D01*
X156662381Y-75906429D01*
X156614762Y-76001667D01*
X156567143Y-76049286D01*
X156471905Y-76096905D01*
X156281429Y-76144524D01*
X156043333Y-76144524D01*
X155852857Y-76096905D01*
X155757619Y-76049286D01*
X155710000Y-76001667D01*
X155662381Y-75906429D01*
X157932619Y-76287381D02*
X158551667Y-76287381D01*
X158218333Y-76668333D01*
X158361191Y-76668333D01*
X158456429Y-76715952D01*
X158504048Y-76763571D01*
X158551667Y-76858810D01*
X158551667Y-77096905D01*
X158504048Y-77192143D01*
X158456429Y-77239762D01*
X158361191Y-77287381D01*
X158075476Y-77287381D01*
X157980238Y-77239762D01*
X157932619Y-77192143D01*
X158980238Y-77192143D02*
X159027857Y-77239762D01*
X158980238Y-77287381D01*
X158932619Y-77239762D01*
X158980238Y-77192143D01*
X158980238Y-77287381D01*
X159361190Y-76287381D02*
X159980238Y-76287381D01*
X159646904Y-76668333D01*
X159789762Y-76668333D01*
X159885000Y-76715952D01*
X159932619Y-76763571D01*
X159980238Y-76858810D01*
X159980238Y-77096905D01*
X159932619Y-77192143D01*
X159885000Y-77239762D01*
X159789762Y-77287381D01*
X159504047Y-77287381D01*
X159408809Y-77239762D01*
X159361190Y-77192143D01*
X160408809Y-77287381D02*
X160408809Y-76287381D01*
X160504047Y-76906429D02*
X160789762Y-77287381D01*
X160789762Y-76620714D02*
X160408809Y-77001667D01*
X131905476Y-52792381D02*
X132572143Y-53792381D01*
X132572143Y-52792381D02*
X131905476Y-53792381D01*
X133476905Y-53792381D02*
X132905476Y-53792381D01*
X133191190Y-53792381D02*
X133191190Y-52792381D01*
X133095952Y-52935238D01*
X133000714Y-53030476D01*
X132905476Y-53078095D01*
X131500715Y-55697381D02*
X130929286Y-55697381D01*
X131215000Y-55697381D02*
X131215000Y-54697381D01*
X131119762Y-54840238D01*
X131024524Y-54935476D01*
X130929286Y-54983095D01*
X131929286Y-55697381D02*
X131929286Y-54697381D01*
X132262620Y-55411667D01*
X132595953Y-54697381D01*
X132595953Y-55697381D01*
X133072143Y-55697381D02*
X133072143Y-54697381D01*
X133072143Y-55173571D02*
X133643572Y-55173571D01*
X133643572Y-55697381D02*
X133643572Y-54697381D01*
X134024524Y-55030714D02*
X134548334Y-55030714D01*
X134024524Y-55697381D01*
X134548334Y-55697381D01*
D10*
X214356905Y-122364286D02*
X213975952Y-122630953D01*
X214356905Y-122821429D02*
X213556905Y-122821429D01*
X213556905Y-122516667D01*
X213595000Y-122440476D01*
X213633095Y-122402381D01*
X213709286Y-122364286D01*
X213823571Y-122364286D01*
X213899762Y-122402381D01*
X213937857Y-122440476D01*
X213975952Y-122516667D01*
X213975952Y-122821429D01*
X213556905Y-121869048D02*
X213556905Y-121716667D01*
X213595000Y-121640476D01*
X213671190Y-121564286D01*
X213823571Y-121526191D01*
X214090238Y-121526191D01*
X214242619Y-121564286D01*
X214318810Y-121640476D01*
X214356905Y-121716667D01*
X214356905Y-121869048D01*
X214318810Y-121945238D01*
X214242619Y-122021429D01*
X214090238Y-122059524D01*
X213823571Y-122059524D01*
X213671190Y-122021429D01*
X213595000Y-121945238D01*
X213556905Y-121869048D01*
X214356905Y-121183334D02*
X213556905Y-121183334D01*
X214128333Y-120916667D01*
X213556905Y-120650000D01*
X214356905Y-120650000D01*
X214433095Y-120459524D02*
X214433095Y-119850000D01*
X213937857Y-119659524D02*
X213937857Y-119392857D01*
X214356905Y-119278571D02*
X214356905Y-119659524D01*
X213556905Y-119659524D01*
X213556905Y-119278571D01*
X214356905Y-118935714D02*
X213556905Y-118935714D01*
X214356905Y-118478571D01*
X213556905Y-118478571D01*
X186829905Y-131933905D02*
X186563238Y-131552952D01*
X186372762Y-131933905D02*
X186372762Y-131133905D01*
X186677524Y-131133905D01*
X186753715Y-131172000D01*
X186791810Y-131210095D01*
X186829905Y-131286286D01*
X186829905Y-131400571D01*
X186791810Y-131476762D01*
X186753715Y-131514857D01*
X186677524Y-131552952D01*
X186372762Y-131552952D01*
X187134667Y-131705333D02*
X187515619Y-131705333D01*
X187058476Y-131933905D02*
X187325143Y-131133905D01*
X187591810Y-131933905D01*
X187858476Y-131933905D02*
X187858476Y-131133905D01*
X188125143Y-131705333D01*
X188391810Y-131133905D01*
X188391810Y-131933905D01*
X188582286Y-132010095D02*
X189191810Y-132010095D01*
X189382286Y-131514857D02*
X189648953Y-131514857D01*
X189763239Y-131933905D02*
X189382286Y-131933905D01*
X189382286Y-131133905D01*
X189763239Y-131133905D01*
X190106096Y-131933905D02*
X190106096Y-131133905D01*
X190563239Y-131933905D01*
X190563239Y-131133905D01*
X119456429Y-111486905D02*
X119456429Y-110686905D01*
X119761191Y-110686905D01*
X119837382Y-110725000D01*
X119875477Y-110763095D01*
X119913572Y-110839286D01*
X119913572Y-110953571D01*
X119875477Y-111029762D01*
X119837382Y-111067857D01*
X119761191Y-111105952D01*
X119456429Y-111105952D01*
X120256429Y-111486905D02*
X120256429Y-110686905D01*
X120599286Y-111258333D02*
X120980238Y-111258333D01*
X120523095Y-111486905D02*
X120789762Y-110686905D01*
X121056429Y-111486905D01*
X121132619Y-111563095D02*
X121742143Y-111563095D01*
X121932619Y-111067857D02*
X122199286Y-111067857D01*
X122313572Y-111486905D02*
X121932619Y-111486905D01*
X121932619Y-110686905D01*
X122313572Y-110686905D01*
X122656429Y-111486905D02*
X122656429Y-110686905D01*
X123113572Y-111486905D01*
X123113572Y-110686905D01*
X143706905Y-63537857D02*
X143706905Y-63385476D01*
X143745000Y-63309285D01*
X143821190Y-63233095D01*
X143973571Y-63195000D01*
X144240238Y-63195000D01*
X144392619Y-63233095D01*
X144468810Y-63309285D01*
X144506905Y-63385476D01*
X144506905Y-63537857D01*
X144468810Y-63614047D01*
X144392619Y-63690238D01*
X144240238Y-63728333D01*
X143973571Y-63728333D01*
X143821190Y-63690238D01*
X143745000Y-63614047D01*
X143706905Y-63537857D01*
X144468810Y-62890238D02*
X144506905Y-62775952D01*
X144506905Y-62585476D01*
X144468810Y-62509286D01*
X144430714Y-62471190D01*
X144354524Y-62433095D01*
X144278333Y-62433095D01*
X144202143Y-62471190D01*
X144164048Y-62509286D01*
X144125952Y-62585476D01*
X144087857Y-62737857D01*
X144049762Y-62814048D01*
X144011667Y-62852143D01*
X143935476Y-62890238D01*
X143859286Y-62890238D01*
X143783095Y-62852143D01*
X143745000Y-62814048D01*
X143706905Y-62737857D01*
X143706905Y-62547381D01*
X143745000Y-62433095D01*
X144430714Y-61633095D02*
X144468810Y-61671190D01*
X144506905Y-61785476D01*
X144506905Y-61861666D01*
X144468810Y-61975952D01*
X144392619Y-62052143D01*
X144316429Y-62090238D01*
X144164048Y-62128333D01*
X144049762Y-62128333D01*
X143897381Y-62090238D01*
X143821190Y-62052143D01*
X143745000Y-61975952D01*
X143706905Y-61861666D01*
X143706905Y-61785476D01*
X143745000Y-61671190D01*
X143783095Y-61633095D01*
X144583095Y-61480714D02*
X144583095Y-60871190D01*
X144087857Y-60680714D02*
X144087857Y-60414047D01*
X144506905Y-60299761D02*
X144506905Y-60680714D01*
X143706905Y-60680714D01*
X143706905Y-60299761D01*
X144506905Y-59956904D02*
X143706905Y-59956904D01*
X144506905Y-59499761D01*
X143706905Y-59499761D01*
M02*
