G04 #@! TF.FileFunction,Legend,Top*
%FSLAX46Y46*%
G04 Gerber Fmt 4.6, Leading zero omitted, Abs format (unit mm)*
G04 Created by KiCad (PCBNEW 4.0.7) date 02/09/19 14:23:46*
%MOMM*%
%LPD*%
G01*
G04 APERTURE LIST*
%ADD10C,0.100000*%
%ADD11C,0.200000*%
%ADD12C,0.300000*%
%ADD13C,0.150000*%
%ADD14C,0.120000*%
G04 APERTURE END LIST*
D10*
D11*
X149225000Y-110490000D02*
X161925000Y-110490000D01*
X149225000Y-113030000D02*
X161925000Y-113030000D01*
X154432000Y-117221000D02*
X154432000Y-114808000D01*
X156845000Y-117221000D02*
X156845000Y-114808000D01*
X156591000Y-115316000D02*
X156718000Y-115316000D01*
X156591000Y-117221000D02*
X156591000Y-114808000D01*
X156718000Y-117221000D02*
X156718000Y-114808000D01*
X154178000Y-114808000D02*
X154178000Y-117221000D01*
X154305000Y-117221000D02*
X154305000Y-114808000D01*
X151765000Y-114808000D02*
X151765000Y-117221000D01*
X151892000Y-114808000D02*
X151892000Y-117221000D01*
X151467857Y-110938571D02*
X151967857Y-112438571D01*
X152467857Y-110938571D01*
X152967857Y-112438571D02*
X152967857Y-110938571D01*
X153539285Y-110938571D01*
X153682143Y-111010000D01*
X153753571Y-111081429D01*
X153825000Y-111224286D01*
X153825000Y-111438571D01*
X153753571Y-111581429D01*
X153682143Y-111652857D01*
X153539285Y-111724286D01*
X152967857Y-111724286D01*
X156396428Y-111010000D02*
X156253571Y-110938571D01*
X156039285Y-110938571D01*
X155825000Y-111010000D01*
X155682142Y-111152857D01*
X155610714Y-111295714D01*
X155539285Y-111581429D01*
X155539285Y-111795714D01*
X155610714Y-112081429D01*
X155682142Y-112224286D01*
X155825000Y-112367143D01*
X156039285Y-112438571D01*
X156182142Y-112438571D01*
X156396428Y-112367143D01*
X156467857Y-112295714D01*
X156467857Y-111795714D01*
X156182142Y-111795714D01*
X157110714Y-112438571D02*
X157110714Y-110938571D01*
X157967857Y-112438571D01*
X157967857Y-110938571D01*
X158682143Y-112438571D02*
X158682143Y-110938571D01*
X159039286Y-110938571D01*
X159253571Y-111010000D01*
X159396429Y-111152857D01*
X159467857Y-111295714D01*
X159539286Y-111581429D01*
X159539286Y-111795714D01*
X159467857Y-112081429D01*
X159396429Y-112224286D01*
X159253571Y-112367143D01*
X159039286Y-112438571D01*
X158682143Y-112438571D01*
X151078571Y-116832143D02*
X151078571Y-116546429D01*
X151150000Y-116403571D01*
X151292857Y-116260714D01*
X151578571Y-116189286D01*
X152078571Y-116189286D01*
X152364286Y-116260714D01*
X152507143Y-116403571D01*
X152578571Y-116546429D01*
X152578571Y-116832143D01*
X152507143Y-116975000D01*
X152364286Y-117117857D01*
X152078571Y-117189286D01*
X151578571Y-117189286D01*
X151292857Y-117117857D01*
X151150000Y-116975000D01*
X151078571Y-116832143D01*
X151078571Y-115260714D02*
X151078571Y-114975000D01*
X151150000Y-114832142D01*
X151292857Y-114689285D01*
X151578571Y-114617857D01*
X152078571Y-114617857D01*
X152364286Y-114689285D01*
X152507143Y-114832142D01*
X152578571Y-114975000D01*
X152578571Y-115260714D01*
X152507143Y-115403571D01*
X152364286Y-115546428D01*
X152078571Y-115617857D01*
X151578571Y-115617857D01*
X151292857Y-115546428D01*
X151150000Y-115403571D01*
X151078571Y-115260714D01*
X153528571Y-116832143D02*
X153528571Y-116546429D01*
X153600000Y-116403571D01*
X153742857Y-116260714D01*
X154028571Y-116189286D01*
X154528571Y-116189286D01*
X154814286Y-116260714D01*
X154957143Y-116403571D01*
X155028571Y-116546429D01*
X155028571Y-116832143D01*
X154957143Y-116975000D01*
X154814286Y-117117857D01*
X154528571Y-117189286D01*
X154028571Y-117189286D01*
X153742857Y-117117857D01*
X153600000Y-116975000D01*
X153528571Y-116832143D01*
X153528571Y-115260714D02*
X153528571Y-114975000D01*
X153600000Y-114832142D01*
X153742857Y-114689285D01*
X154028571Y-114617857D01*
X154528571Y-114617857D01*
X154814286Y-114689285D01*
X154957143Y-114832142D01*
X155028571Y-114975000D01*
X155028571Y-115260714D01*
X154957143Y-115403571D01*
X154814286Y-115546428D01*
X154528571Y-115617857D01*
X154028571Y-115617857D01*
X153742857Y-115546428D01*
X153600000Y-115403571D01*
X153528571Y-115260714D01*
X155978571Y-116832143D02*
X155978571Y-116546429D01*
X156050000Y-116403571D01*
X156192857Y-116260714D01*
X156478571Y-116189286D01*
X156978571Y-116189286D01*
X157264286Y-116260714D01*
X157407143Y-116403571D01*
X157478571Y-116546429D01*
X157478571Y-116832143D01*
X157407143Y-116975000D01*
X157264286Y-117117857D01*
X156978571Y-117189286D01*
X156478571Y-117189286D01*
X156192857Y-117117857D01*
X156050000Y-116975000D01*
X155978571Y-116832143D01*
X155978571Y-115260714D02*
X155978571Y-114975000D01*
X156050000Y-114832142D01*
X156192857Y-114689285D01*
X156478571Y-114617857D01*
X156978571Y-114617857D01*
X157264286Y-114689285D01*
X157407143Y-114832142D01*
X157478571Y-114975000D01*
X157478571Y-115260714D01*
X157407143Y-115403571D01*
X157264286Y-115546428D01*
X156978571Y-115617857D01*
X156478571Y-115617857D01*
X156192857Y-115546428D01*
X156050000Y-115403571D01*
X155978571Y-115260714D01*
X158428571Y-116832143D02*
X158428571Y-116546429D01*
X158500000Y-116403571D01*
X158642857Y-116260714D01*
X158928571Y-116189286D01*
X159428571Y-116189286D01*
X159714286Y-116260714D01*
X159857143Y-116403571D01*
X159928571Y-116546429D01*
X159928571Y-116832143D01*
X159857143Y-116975000D01*
X159714286Y-117117857D01*
X159428571Y-117189286D01*
X158928571Y-117189286D01*
X158642857Y-117117857D01*
X158500000Y-116975000D01*
X158428571Y-116832143D01*
X158428571Y-115260714D02*
X158428571Y-114975000D01*
X158500000Y-114832142D01*
X158642857Y-114689285D01*
X158928571Y-114617857D01*
X159428571Y-114617857D01*
X159714286Y-114689285D01*
X159857143Y-114832142D01*
X159928571Y-114975000D01*
X159928571Y-115260714D01*
X159857143Y-115403571D01*
X159714286Y-115546428D01*
X159428571Y-115617857D01*
X158928571Y-115617857D01*
X158642857Y-115546428D01*
X158500000Y-115403571D01*
X158428571Y-115260714D01*
X151078571Y-129182857D02*
X152292857Y-129182857D01*
X152435714Y-129111429D01*
X152507143Y-129040000D01*
X152578571Y-128897143D01*
X152578571Y-128611429D01*
X152507143Y-128468571D01*
X152435714Y-128397143D01*
X152292857Y-128325714D01*
X151078571Y-128325714D01*
X152578571Y-127611428D02*
X151078571Y-127611428D01*
X152150000Y-127111428D01*
X151078571Y-126611428D01*
X152578571Y-126611428D01*
X151078571Y-125254285D02*
X151078571Y-125539999D01*
X151150000Y-125682856D01*
X151221429Y-125754285D01*
X151435714Y-125897142D01*
X151721429Y-125968571D01*
X152292857Y-125968571D01*
X152435714Y-125897142D01*
X152507143Y-125825714D01*
X152578571Y-125682856D01*
X152578571Y-125397142D01*
X152507143Y-125254285D01*
X152435714Y-125182856D01*
X152292857Y-125111428D01*
X151935714Y-125111428D01*
X151792857Y-125182856D01*
X151721429Y-125254285D01*
X151650000Y-125397142D01*
X151650000Y-125682856D01*
X151721429Y-125825714D01*
X151792857Y-125897142D01*
X151935714Y-125968571D01*
X151078571Y-123754285D02*
X151078571Y-124468571D01*
X151792857Y-124540000D01*
X151721429Y-124468571D01*
X151650000Y-124325714D01*
X151650000Y-123968571D01*
X151721429Y-123825714D01*
X151792857Y-123754285D01*
X151935714Y-123682857D01*
X152292857Y-123682857D01*
X152435714Y-123754285D01*
X152507143Y-123825714D01*
X152578571Y-123968571D01*
X152578571Y-124325714D01*
X152507143Y-124468571D01*
X152435714Y-124540000D01*
X151078571Y-122754286D02*
X151078571Y-122611429D01*
X151150000Y-122468572D01*
X151221429Y-122397143D01*
X151364286Y-122325714D01*
X151650000Y-122254286D01*
X152007143Y-122254286D01*
X152292857Y-122325714D01*
X152435714Y-122397143D01*
X152507143Y-122468572D01*
X152578571Y-122611429D01*
X152578571Y-122754286D01*
X152507143Y-122897143D01*
X152435714Y-122968572D01*
X152292857Y-123040000D01*
X152007143Y-123111429D01*
X151650000Y-123111429D01*
X151364286Y-123040000D01*
X151221429Y-122968572D01*
X151150000Y-122897143D01*
X151078571Y-122754286D01*
X151221429Y-121682858D02*
X151150000Y-121611429D01*
X151078571Y-121468572D01*
X151078571Y-121111429D01*
X151150000Y-120968572D01*
X151221429Y-120897143D01*
X151364286Y-120825715D01*
X151507143Y-120825715D01*
X151721429Y-120897143D01*
X152578571Y-121754286D01*
X152578571Y-120825715D01*
X154957143Y-129254286D02*
X155028571Y-129040000D01*
X155028571Y-128682857D01*
X154957143Y-128540000D01*
X154885714Y-128468571D01*
X154742857Y-128397143D01*
X154600000Y-128397143D01*
X154457143Y-128468571D01*
X154385714Y-128540000D01*
X154314286Y-128682857D01*
X154242857Y-128968571D01*
X154171429Y-129111429D01*
X154100000Y-129182857D01*
X153957143Y-129254286D01*
X153814286Y-129254286D01*
X153671429Y-129182857D01*
X153600000Y-129111429D01*
X153528571Y-128968571D01*
X153528571Y-128611429D01*
X153600000Y-128397143D01*
X154314286Y-127468572D02*
X155028571Y-127468572D01*
X153528571Y-127968572D02*
X154314286Y-127468572D01*
X153528571Y-126968572D01*
X153528571Y-125825715D02*
X153528571Y-126111429D01*
X153600000Y-126254286D01*
X153671429Y-126325715D01*
X153885714Y-126468572D01*
X154171429Y-126540001D01*
X154742857Y-126540001D01*
X154885714Y-126468572D01*
X154957143Y-126397144D01*
X155028571Y-126254286D01*
X155028571Y-125968572D01*
X154957143Y-125825715D01*
X154885714Y-125754286D01*
X154742857Y-125682858D01*
X154385714Y-125682858D01*
X154242857Y-125754286D01*
X154171429Y-125825715D01*
X154100000Y-125968572D01*
X154100000Y-126254286D01*
X154171429Y-126397144D01*
X154242857Y-126468572D01*
X154385714Y-126540001D01*
X153528571Y-124325715D02*
X153528571Y-125040001D01*
X154242857Y-125111430D01*
X154171429Y-125040001D01*
X154100000Y-124897144D01*
X154100000Y-124540001D01*
X154171429Y-124397144D01*
X154242857Y-124325715D01*
X154385714Y-124254287D01*
X154742857Y-124254287D01*
X154885714Y-124325715D01*
X154957143Y-124397144D01*
X155028571Y-124540001D01*
X155028571Y-124897144D01*
X154957143Y-125040001D01*
X154885714Y-125111430D01*
X153528571Y-123325716D02*
X153528571Y-123182859D01*
X153600000Y-123040002D01*
X153671429Y-122968573D01*
X153814286Y-122897144D01*
X154100000Y-122825716D01*
X154457143Y-122825716D01*
X154742857Y-122897144D01*
X154885714Y-122968573D01*
X154957143Y-123040002D01*
X155028571Y-123182859D01*
X155028571Y-123325716D01*
X154957143Y-123468573D01*
X154885714Y-123540002D01*
X154742857Y-123611430D01*
X154457143Y-123682859D01*
X154100000Y-123682859D01*
X153814286Y-123611430D01*
X153671429Y-123540002D01*
X153600000Y-123468573D01*
X153528571Y-123325716D01*
X153671429Y-122254288D02*
X153600000Y-122182859D01*
X153528571Y-122040002D01*
X153528571Y-121682859D01*
X153600000Y-121540002D01*
X153671429Y-121468573D01*
X153814286Y-121397145D01*
X153957143Y-121397145D01*
X154171429Y-121468573D01*
X155028571Y-122325716D01*
X155028571Y-121397145D01*
X157478571Y-128325714D02*
X156764286Y-128825714D01*
X157478571Y-129182857D02*
X155978571Y-129182857D01*
X155978571Y-128611429D01*
X156050000Y-128468571D01*
X156121429Y-128397143D01*
X156264286Y-128325714D01*
X156478571Y-128325714D01*
X156621429Y-128397143D01*
X156692857Y-128468571D01*
X156764286Y-128611429D01*
X156764286Y-129182857D01*
X155978571Y-127040000D02*
X155978571Y-127325714D01*
X156050000Y-127468571D01*
X156121429Y-127540000D01*
X156335714Y-127682857D01*
X156621429Y-127754286D01*
X157192857Y-127754286D01*
X157335714Y-127682857D01*
X157407143Y-127611429D01*
X157478571Y-127468571D01*
X157478571Y-127182857D01*
X157407143Y-127040000D01*
X157335714Y-126968571D01*
X157192857Y-126897143D01*
X156835714Y-126897143D01*
X156692857Y-126968571D01*
X156621429Y-127040000D01*
X156550000Y-127182857D01*
X156550000Y-127468571D01*
X156621429Y-127611429D01*
X156692857Y-127682857D01*
X156835714Y-127754286D01*
X155978571Y-125540000D02*
X155978571Y-126254286D01*
X156692857Y-126325715D01*
X156621429Y-126254286D01*
X156550000Y-126111429D01*
X156550000Y-125754286D01*
X156621429Y-125611429D01*
X156692857Y-125540000D01*
X156835714Y-125468572D01*
X157192857Y-125468572D01*
X157335714Y-125540000D01*
X157407143Y-125611429D01*
X157478571Y-125754286D01*
X157478571Y-126111429D01*
X157407143Y-126254286D01*
X157335714Y-126325715D01*
X157335714Y-123968572D02*
X157407143Y-124040001D01*
X157478571Y-124254287D01*
X157478571Y-124397144D01*
X157407143Y-124611429D01*
X157264286Y-124754287D01*
X157121429Y-124825715D01*
X156835714Y-124897144D01*
X156621429Y-124897144D01*
X156335714Y-124825715D01*
X156192857Y-124754287D01*
X156050000Y-124611429D01*
X155978571Y-124397144D01*
X155978571Y-124254287D01*
X156050000Y-124040001D01*
X156121429Y-123968572D01*
X155978571Y-123040001D02*
X155978571Y-122897144D01*
X156050000Y-122754287D01*
X156121429Y-122682858D01*
X156264286Y-122611429D01*
X156550000Y-122540001D01*
X156907143Y-122540001D01*
X157192857Y-122611429D01*
X157335714Y-122682858D01*
X157407143Y-122754287D01*
X157478571Y-122897144D01*
X157478571Y-123040001D01*
X157407143Y-123182858D01*
X157335714Y-123254287D01*
X157192857Y-123325715D01*
X156907143Y-123397144D01*
X156550000Y-123397144D01*
X156264286Y-123325715D01*
X156121429Y-123254287D01*
X156050000Y-123182858D01*
X155978571Y-123040001D01*
X156121429Y-121968573D02*
X156050000Y-121897144D01*
X155978571Y-121754287D01*
X155978571Y-121397144D01*
X156050000Y-121254287D01*
X156121429Y-121182858D01*
X156264286Y-121111430D01*
X156407143Y-121111430D01*
X156621429Y-121182858D01*
X157478571Y-122040001D01*
X157478571Y-121111430D01*
X158428571Y-129325714D02*
X159928571Y-128968571D01*
X158857143Y-128682857D01*
X159928571Y-128397143D01*
X158428571Y-128040000D01*
X159928571Y-127468571D02*
X158428571Y-127468571D01*
X158428571Y-127111428D01*
X158500000Y-126897143D01*
X158642857Y-126754285D01*
X158785714Y-126682857D01*
X159071429Y-126611428D01*
X159285714Y-126611428D01*
X159571429Y-126682857D01*
X159714286Y-126754285D01*
X159857143Y-126897143D01*
X159928571Y-127111428D01*
X159928571Y-127468571D01*
X158428571Y-125325714D02*
X158428571Y-125611428D01*
X158500000Y-125754285D01*
X158571429Y-125825714D01*
X158785714Y-125968571D01*
X159071429Y-126040000D01*
X159642857Y-126040000D01*
X159785714Y-125968571D01*
X159857143Y-125897143D01*
X159928571Y-125754285D01*
X159928571Y-125468571D01*
X159857143Y-125325714D01*
X159785714Y-125254285D01*
X159642857Y-125182857D01*
X159285714Y-125182857D01*
X159142857Y-125254285D01*
X159071429Y-125325714D01*
X159000000Y-125468571D01*
X159000000Y-125754285D01*
X159071429Y-125897143D01*
X159142857Y-125968571D01*
X159285714Y-126040000D01*
X158428571Y-123825714D02*
X158428571Y-124540000D01*
X159142857Y-124611429D01*
X159071429Y-124540000D01*
X159000000Y-124397143D01*
X159000000Y-124040000D01*
X159071429Y-123897143D01*
X159142857Y-123825714D01*
X159285714Y-123754286D01*
X159642857Y-123754286D01*
X159785714Y-123825714D01*
X159857143Y-123897143D01*
X159928571Y-124040000D01*
X159928571Y-124397143D01*
X159857143Y-124540000D01*
X159785714Y-124611429D01*
X159785714Y-122254286D02*
X159857143Y-122325715D01*
X159928571Y-122540001D01*
X159928571Y-122682858D01*
X159857143Y-122897143D01*
X159714286Y-123040001D01*
X159571429Y-123111429D01*
X159285714Y-123182858D01*
X159071429Y-123182858D01*
X158785714Y-123111429D01*
X158642857Y-123040001D01*
X158500000Y-122897143D01*
X158428571Y-122682858D01*
X158428571Y-122540001D01*
X158500000Y-122325715D01*
X158571429Y-122254286D01*
X158428571Y-121325715D02*
X158428571Y-121182858D01*
X158500000Y-121040001D01*
X158571429Y-120968572D01*
X158714286Y-120897143D01*
X159000000Y-120825715D01*
X159357143Y-120825715D01*
X159642857Y-120897143D01*
X159785714Y-120968572D01*
X159857143Y-121040001D01*
X159928571Y-121182858D01*
X159928571Y-121325715D01*
X159857143Y-121468572D01*
X159785714Y-121540001D01*
X159642857Y-121611429D01*
X159357143Y-121682858D01*
X159000000Y-121682858D01*
X158714286Y-121611429D01*
X158571429Y-121540001D01*
X158500000Y-121468572D01*
X158428571Y-121325715D01*
X158571429Y-120254287D02*
X158500000Y-120182858D01*
X158428571Y-120040001D01*
X158428571Y-119682858D01*
X158500000Y-119540001D01*
X158571429Y-119468572D01*
X158714286Y-119397144D01*
X158857143Y-119397144D01*
X159071429Y-119468572D01*
X159928571Y-120325715D01*
X159928571Y-119397144D01*
D12*
X213316429Y-127357143D02*
X214816429Y-127357143D01*
X214816429Y-127928571D01*
X214745000Y-128071429D01*
X214673571Y-128142857D01*
X214530714Y-128214286D01*
X214316429Y-128214286D01*
X214173571Y-128142857D01*
X214102143Y-128071429D01*
X214030714Y-127928571D01*
X214030714Y-127357143D01*
X213316429Y-128857143D02*
X214316429Y-128857143D01*
X214816429Y-128857143D02*
X214745000Y-128785714D01*
X214673571Y-128857143D01*
X214745000Y-128928571D01*
X214816429Y-128857143D01*
X214673571Y-128857143D01*
X214316429Y-129571429D02*
X213316429Y-129571429D01*
X214173571Y-129571429D02*
X214245000Y-129642857D01*
X214316429Y-129785715D01*
X214316429Y-130000000D01*
X214245000Y-130142857D01*
X214102143Y-130214286D01*
X213316429Y-130214286D01*
X213316429Y-132857143D02*
X213316429Y-132000000D01*
X213316429Y-132428572D02*
X214816429Y-132428572D01*
X214602143Y-132285715D01*
X214459286Y-132142857D01*
X214387857Y-132000000D01*
D11*
X212725000Y-126365000D02*
X215265000Y-126365000D01*
X212725000Y-139065000D02*
X212725000Y-126365000D01*
D13*
X186396381Y-48640476D02*
X187205905Y-48640476D01*
X187301143Y-48592857D01*
X187348762Y-48545238D01*
X187396381Y-48450000D01*
X187396381Y-48259523D01*
X187348762Y-48164285D01*
X187301143Y-48116666D01*
X187205905Y-48069047D01*
X186396381Y-48069047D01*
X187348762Y-47640476D02*
X187396381Y-47497619D01*
X187396381Y-47259523D01*
X187348762Y-47164285D01*
X187301143Y-47116666D01*
X187205905Y-47069047D01*
X187110667Y-47069047D01*
X187015429Y-47116666D01*
X186967810Y-47164285D01*
X186920190Y-47259523D01*
X186872571Y-47450000D01*
X186824952Y-47545238D01*
X186777333Y-47592857D01*
X186682095Y-47640476D01*
X186586857Y-47640476D01*
X186491619Y-47592857D01*
X186444000Y-47545238D01*
X186396381Y-47450000D01*
X186396381Y-47211904D01*
X186444000Y-47069047D01*
X186872571Y-46307142D02*
X186920190Y-46164285D01*
X186967810Y-46116666D01*
X187063048Y-46069047D01*
X187205905Y-46069047D01*
X187301143Y-46116666D01*
X187348762Y-46164285D01*
X187396381Y-46259523D01*
X187396381Y-46640476D01*
X186396381Y-46640476D01*
X186396381Y-46307142D01*
X186444000Y-46211904D01*
X186491619Y-46164285D01*
X186586857Y-46116666D01*
X186682095Y-46116666D01*
X186777333Y-46164285D01*
X186824952Y-46211904D01*
X186872571Y-46307142D01*
X186872571Y-46640476D01*
X187396381Y-44878571D02*
X186396381Y-44878571D01*
X186396381Y-44497618D01*
X186444000Y-44402380D01*
X186491619Y-44354761D01*
X186586857Y-44307142D01*
X186729714Y-44307142D01*
X186824952Y-44354761D01*
X186872571Y-44402380D01*
X186920190Y-44497618D01*
X186920190Y-44878571D01*
X186396381Y-43688095D02*
X186396381Y-43497618D01*
X186444000Y-43402380D01*
X186539238Y-43307142D01*
X186729714Y-43259523D01*
X187063048Y-43259523D01*
X187253524Y-43307142D01*
X187348762Y-43402380D01*
X187396381Y-43497618D01*
X187396381Y-43688095D01*
X187348762Y-43783333D01*
X187253524Y-43878571D01*
X187063048Y-43926190D01*
X186729714Y-43926190D01*
X186539238Y-43878571D01*
X186444000Y-43783333D01*
X186396381Y-43688095D01*
X186396381Y-42926190D02*
X187396381Y-42688095D01*
X186682095Y-42497618D01*
X187396381Y-42307142D01*
X186396381Y-42069047D01*
X186872571Y-41688095D02*
X186872571Y-41354761D01*
X187396381Y-41211904D02*
X187396381Y-41688095D01*
X186396381Y-41688095D01*
X186396381Y-41211904D01*
X187396381Y-40211904D02*
X186920190Y-40545238D01*
X187396381Y-40783333D02*
X186396381Y-40783333D01*
X186396381Y-40402380D01*
X186444000Y-40307142D01*
X186491619Y-40259523D01*
X186586857Y-40211904D01*
X186729714Y-40211904D01*
X186824952Y-40259523D01*
X186872571Y-40307142D01*
X186920190Y-40402380D01*
X186920190Y-40783333D01*
X195778381Y-48497619D02*
X194778381Y-48497619D01*
X194778381Y-48116666D01*
X194826000Y-48021428D01*
X194873619Y-47973809D01*
X194968857Y-47926190D01*
X195111714Y-47926190D01*
X195206952Y-47973809D01*
X195254571Y-48021428D01*
X195302190Y-48116666D01*
X195302190Y-48497619D01*
X194778381Y-47307143D02*
X194778381Y-47116666D01*
X194826000Y-47021428D01*
X194921238Y-46926190D01*
X195111714Y-46878571D01*
X195445048Y-46878571D01*
X195635524Y-46926190D01*
X195730762Y-47021428D01*
X195778381Y-47116666D01*
X195778381Y-47307143D01*
X195730762Y-47402381D01*
X195635524Y-47497619D01*
X195445048Y-47545238D01*
X195111714Y-47545238D01*
X194921238Y-47497619D01*
X194826000Y-47402381D01*
X194778381Y-47307143D01*
X194778381Y-46545238D02*
X195778381Y-46307143D01*
X195064095Y-46116666D01*
X195778381Y-45926190D01*
X194778381Y-45688095D01*
X195254571Y-45307143D02*
X195254571Y-44973809D01*
X195778381Y-44830952D02*
X195778381Y-45307143D01*
X194778381Y-45307143D01*
X194778381Y-44830952D01*
X195778381Y-43830952D02*
X195302190Y-44164286D01*
X195778381Y-44402381D02*
X194778381Y-44402381D01*
X194778381Y-44021428D01*
X194826000Y-43926190D01*
X194873619Y-43878571D01*
X194968857Y-43830952D01*
X195111714Y-43830952D01*
X195206952Y-43878571D01*
X195254571Y-43926190D01*
X195302190Y-44021428D01*
X195302190Y-44402381D01*
X195778381Y-42164285D02*
X195778381Y-42640476D01*
X194778381Y-42640476D01*
X195254571Y-41830952D02*
X195254571Y-41497618D01*
X195778381Y-41354761D02*
X195778381Y-41830952D01*
X194778381Y-41830952D01*
X194778381Y-41354761D01*
X195778381Y-40926190D02*
X194778381Y-40926190D01*
X194778381Y-40688095D01*
X194826000Y-40545237D01*
X194921238Y-40449999D01*
X195016476Y-40402380D01*
X195206952Y-40354761D01*
X195349810Y-40354761D01*
X195540286Y-40402380D01*
X195635524Y-40449999D01*
X195730762Y-40545237D01*
X195778381Y-40688095D01*
X195778381Y-40926190D01*
X207716381Y-45434095D02*
X207240190Y-45767429D01*
X207716381Y-46005524D02*
X206716381Y-46005524D01*
X206716381Y-45624571D01*
X206764000Y-45529333D01*
X206811619Y-45481714D01*
X206906857Y-45434095D01*
X207049714Y-45434095D01*
X207144952Y-45481714D01*
X207192571Y-45529333D01*
X207240190Y-45624571D01*
X207240190Y-46005524D01*
X207668762Y-44624571D02*
X207716381Y-44719809D01*
X207716381Y-44910286D01*
X207668762Y-45005524D01*
X207573524Y-45053143D01*
X207192571Y-45053143D01*
X207097333Y-45005524D01*
X207049714Y-44910286D01*
X207049714Y-44719809D01*
X207097333Y-44624571D01*
X207192571Y-44576952D01*
X207287810Y-44576952D01*
X207383048Y-45053143D01*
X207668762Y-44196000D02*
X207716381Y-44100762D01*
X207716381Y-43910286D01*
X207668762Y-43815047D01*
X207573524Y-43767428D01*
X207525905Y-43767428D01*
X207430667Y-43815047D01*
X207383048Y-43910286D01*
X207383048Y-44053143D01*
X207335429Y-44148381D01*
X207240190Y-44196000D01*
X207192571Y-44196000D01*
X207097333Y-44148381D01*
X207049714Y-44053143D01*
X207049714Y-43910286D01*
X207097333Y-43815047D01*
X207668762Y-42957904D02*
X207716381Y-43053142D01*
X207716381Y-43243619D01*
X207668762Y-43338857D01*
X207573524Y-43386476D01*
X207192571Y-43386476D01*
X207097333Y-43338857D01*
X207049714Y-43243619D01*
X207049714Y-43053142D01*
X207097333Y-42957904D01*
X207192571Y-42910285D01*
X207287810Y-42910285D01*
X207383048Y-43386476D01*
X207049714Y-42624571D02*
X207049714Y-42243619D01*
X206716381Y-42481714D02*
X207573524Y-42481714D01*
X207668762Y-42434095D01*
X207716381Y-42338857D01*
X207716381Y-42243619D01*
D12*
X125674286Y-42583571D02*
X125174286Y-41869286D01*
X124817143Y-42583571D02*
X124817143Y-41083571D01*
X125388571Y-41083571D01*
X125531429Y-41155000D01*
X125602857Y-41226429D01*
X125674286Y-41369286D01*
X125674286Y-41583571D01*
X125602857Y-41726429D01*
X125531429Y-41797857D01*
X125388571Y-41869286D01*
X124817143Y-41869286D01*
X127174286Y-42440714D02*
X127102857Y-42512143D01*
X126888571Y-42583571D01*
X126745714Y-42583571D01*
X126531429Y-42512143D01*
X126388571Y-42369286D01*
X126317143Y-42226429D01*
X126245714Y-41940714D01*
X126245714Y-41726429D01*
X126317143Y-41440714D01*
X126388571Y-41297857D01*
X126531429Y-41155000D01*
X126745714Y-41083571D01*
X126888571Y-41083571D01*
X127102857Y-41155000D01*
X127174286Y-41226429D01*
X128460000Y-41083571D02*
X128174286Y-41083571D01*
X128031429Y-41155000D01*
X127960000Y-41226429D01*
X127817143Y-41440714D01*
X127745714Y-41726429D01*
X127745714Y-42297857D01*
X127817143Y-42440714D01*
X127888571Y-42512143D01*
X128031429Y-42583571D01*
X128317143Y-42583571D01*
X128460000Y-42512143D01*
X128531429Y-42440714D01*
X128602857Y-42297857D01*
X128602857Y-41940714D01*
X128531429Y-41797857D01*
X128460000Y-41726429D01*
X128317143Y-41655000D01*
X128031429Y-41655000D01*
X127888571Y-41726429D01*
X127817143Y-41797857D01*
X127745714Y-41940714D01*
X129960000Y-41083571D02*
X129245714Y-41083571D01*
X129174285Y-41797857D01*
X129245714Y-41726429D01*
X129388571Y-41655000D01*
X129745714Y-41655000D01*
X129888571Y-41726429D01*
X129960000Y-41797857D01*
X130031428Y-41940714D01*
X130031428Y-42297857D01*
X129960000Y-42440714D01*
X129888571Y-42512143D01*
X129745714Y-42583571D01*
X129388571Y-42583571D01*
X129245714Y-42512143D01*
X129174285Y-42440714D01*
X130959999Y-41083571D02*
X131102856Y-41083571D01*
X131245713Y-41155000D01*
X131317142Y-41226429D01*
X131388571Y-41369286D01*
X131459999Y-41655000D01*
X131459999Y-42012143D01*
X131388571Y-42297857D01*
X131317142Y-42440714D01*
X131245713Y-42512143D01*
X131102856Y-42583571D01*
X130959999Y-42583571D01*
X130817142Y-42512143D01*
X130745713Y-42440714D01*
X130674285Y-42297857D01*
X130602856Y-42012143D01*
X130602856Y-41655000D01*
X130674285Y-41369286D01*
X130745713Y-41226429D01*
X130817142Y-41155000D01*
X130959999Y-41083571D01*
X132031427Y-41226429D02*
X132102856Y-41155000D01*
X132245713Y-41083571D01*
X132602856Y-41083571D01*
X132745713Y-41155000D01*
X132817142Y-41226429D01*
X132888570Y-41369286D01*
X132888570Y-41512143D01*
X132817142Y-41726429D01*
X131959999Y-42583571D01*
X132888570Y-42583571D01*
X134602855Y-42155000D02*
X135317141Y-42155000D01*
X134459998Y-42583571D02*
X134959998Y-41083571D01*
X135459998Y-42583571D01*
X135959998Y-41583571D02*
X135959998Y-43083571D01*
X135959998Y-41655000D02*
X136102855Y-41583571D01*
X136388569Y-41583571D01*
X136531426Y-41655000D01*
X136602855Y-41726429D01*
X136674284Y-41869286D01*
X136674284Y-42297857D01*
X136602855Y-42440714D01*
X136531426Y-42512143D01*
X136388569Y-42583571D01*
X136102855Y-42583571D01*
X135959998Y-42512143D01*
X137317141Y-41583571D02*
X137317141Y-43083571D01*
X137317141Y-41655000D02*
X137459998Y-41583571D01*
X137745712Y-41583571D01*
X137888569Y-41655000D01*
X137959998Y-41726429D01*
X138031427Y-41869286D01*
X138031427Y-42297857D01*
X137959998Y-42440714D01*
X137888569Y-42512143D01*
X137745712Y-42583571D01*
X137459998Y-42583571D01*
X137317141Y-42512143D01*
X138888570Y-42583571D02*
X138745712Y-42512143D01*
X138674284Y-42369286D01*
X138674284Y-41083571D01*
X140031426Y-42512143D02*
X139888569Y-42583571D01*
X139602855Y-42583571D01*
X139459998Y-42512143D01*
X139388569Y-42369286D01*
X139388569Y-41797857D01*
X139459998Y-41655000D01*
X139602855Y-41583571D01*
X139888569Y-41583571D01*
X140031426Y-41655000D01*
X140102855Y-41797857D01*
X140102855Y-41940714D01*
X139388569Y-42083571D01*
X142674283Y-42583571D02*
X141817140Y-42583571D01*
X142245712Y-42583571D02*
X142245712Y-41083571D01*
X142102855Y-41297857D01*
X141959997Y-41440714D01*
X141817140Y-41512143D01*
X145317140Y-42583571D02*
X144817140Y-41869286D01*
X144459997Y-42583571D02*
X144459997Y-41083571D01*
X145031425Y-41083571D01*
X145174283Y-41155000D01*
X145245711Y-41226429D01*
X145317140Y-41369286D01*
X145317140Y-41583571D01*
X145245711Y-41726429D01*
X145174283Y-41797857D01*
X145031425Y-41869286D01*
X144459997Y-41869286D01*
X146531425Y-42512143D02*
X146388568Y-42583571D01*
X146102854Y-42583571D01*
X145959997Y-42512143D01*
X145888568Y-42369286D01*
X145888568Y-41797857D01*
X145959997Y-41655000D01*
X146102854Y-41583571D01*
X146388568Y-41583571D01*
X146531425Y-41655000D01*
X146602854Y-41797857D01*
X146602854Y-41940714D01*
X145888568Y-42083571D01*
X147245711Y-41583571D02*
X147245711Y-43083571D01*
X147245711Y-41655000D02*
X147388568Y-41583571D01*
X147674282Y-41583571D01*
X147817139Y-41655000D01*
X147888568Y-41726429D01*
X147959997Y-41869286D01*
X147959997Y-42297857D01*
X147888568Y-42440714D01*
X147817139Y-42512143D01*
X147674282Y-42583571D01*
X147388568Y-42583571D01*
X147245711Y-42512143D01*
X148817140Y-42583571D02*
X148674282Y-42512143D01*
X148602854Y-42369286D01*
X148602854Y-41083571D01*
X149388568Y-42583571D02*
X149388568Y-41583571D01*
X149388568Y-41083571D02*
X149317139Y-41155000D01*
X149388568Y-41226429D01*
X149459996Y-41155000D01*
X149388568Y-41083571D01*
X149388568Y-41226429D01*
X150745711Y-42512143D02*
X150602854Y-42583571D01*
X150317140Y-42583571D01*
X150174282Y-42512143D01*
X150102854Y-42440714D01*
X150031425Y-42297857D01*
X150031425Y-41869286D01*
X150102854Y-41726429D01*
X150174282Y-41655000D01*
X150317140Y-41583571D01*
X150602854Y-41583571D01*
X150745711Y-41655000D01*
X152031425Y-42583571D02*
X152031425Y-41797857D01*
X151959996Y-41655000D01*
X151817139Y-41583571D01*
X151531425Y-41583571D01*
X151388568Y-41655000D01*
X152031425Y-42512143D02*
X151888568Y-42583571D01*
X151531425Y-42583571D01*
X151388568Y-42512143D01*
X151317139Y-42369286D01*
X151317139Y-42226429D01*
X151388568Y-42083571D01*
X151531425Y-42012143D01*
X151888568Y-42012143D01*
X152031425Y-41940714D01*
X125674286Y-45133571D02*
X125174286Y-44419286D01*
X124817143Y-45133571D02*
X124817143Y-43633571D01*
X125388571Y-43633571D01*
X125531429Y-43705000D01*
X125602857Y-43776429D01*
X125674286Y-43919286D01*
X125674286Y-44133571D01*
X125602857Y-44276429D01*
X125531429Y-44347857D01*
X125388571Y-44419286D01*
X124817143Y-44419286D01*
X126888571Y-45062143D02*
X126745714Y-45133571D01*
X126460000Y-45133571D01*
X126317143Y-45062143D01*
X126245714Y-44919286D01*
X126245714Y-44347857D01*
X126317143Y-44205000D01*
X126460000Y-44133571D01*
X126745714Y-44133571D01*
X126888571Y-44205000D01*
X126960000Y-44347857D01*
X126960000Y-44490714D01*
X126245714Y-44633571D01*
X127460000Y-44133571D02*
X127817143Y-45133571D01*
X128174285Y-44133571D01*
X128745714Y-45133571D02*
X128745714Y-44133571D01*
X128745714Y-43633571D02*
X128674285Y-43705000D01*
X128745714Y-43776429D01*
X128817142Y-43705000D01*
X128745714Y-43633571D01*
X128745714Y-43776429D01*
X129388571Y-45062143D02*
X129531428Y-45133571D01*
X129817143Y-45133571D01*
X129960000Y-45062143D01*
X130031428Y-44919286D01*
X130031428Y-44847857D01*
X129960000Y-44705000D01*
X129817143Y-44633571D01*
X129602857Y-44633571D01*
X129460000Y-44562143D01*
X129388571Y-44419286D01*
X129388571Y-44347857D01*
X129460000Y-44205000D01*
X129602857Y-44133571D01*
X129817143Y-44133571D01*
X129960000Y-44205000D01*
X130674286Y-45133571D02*
X130674286Y-44133571D01*
X130674286Y-43633571D02*
X130602857Y-43705000D01*
X130674286Y-43776429D01*
X130745714Y-43705000D01*
X130674286Y-43633571D01*
X130674286Y-43776429D01*
X131602858Y-45133571D02*
X131460000Y-45062143D01*
X131388572Y-44990714D01*
X131317143Y-44847857D01*
X131317143Y-44419286D01*
X131388572Y-44276429D01*
X131460000Y-44205000D01*
X131602858Y-44133571D01*
X131817143Y-44133571D01*
X131960000Y-44205000D01*
X132031429Y-44276429D01*
X132102858Y-44419286D01*
X132102858Y-44847857D01*
X132031429Y-44990714D01*
X131960000Y-45062143D01*
X131817143Y-45133571D01*
X131602858Y-45133571D01*
X132745715Y-44133571D02*
X132745715Y-45133571D01*
X132745715Y-44276429D02*
X132817143Y-44205000D01*
X132960001Y-44133571D01*
X133174286Y-44133571D01*
X133317143Y-44205000D01*
X133388572Y-44347857D01*
X133388572Y-45133571D01*
X135245715Y-44347857D02*
X135745715Y-44347857D01*
X135960001Y-45133571D02*
X135245715Y-45133571D01*
X135245715Y-43633571D01*
X135960001Y-43633571D01*
D14*
X154575000Y-81160000D02*
X148995000Y-81160000D01*
X148995000Y-81160000D02*
X148995000Y-132200000D01*
X148995000Y-132200000D02*
X162155000Y-132200000D01*
X162155000Y-132200000D02*
X162155000Y-81160000D01*
X162155000Y-81160000D02*
X156575000Y-81160000D01*
X146565000Y-81160000D02*
X146565000Y-132200000D01*
X146565000Y-132200000D02*
X164585000Y-132200000D01*
X164585000Y-132200000D02*
X164585000Y-81160000D01*
X164585000Y-81160000D02*
X146565000Y-81160000D01*
X156575000Y-81160000D02*
G75*
G02X154575000Y-81160000I-1000000J0D01*
G01*
X142835000Y-101510000D02*
X142835000Y-96690000D01*
X145455000Y-101510000D02*
X145455000Y-96690000D01*
X142835000Y-101510000D02*
X143149000Y-101510000D01*
X145141000Y-101510000D02*
X145455000Y-101510000D01*
X142835000Y-96690000D02*
X143149000Y-96690000D01*
X145141000Y-96690000D02*
X145455000Y-96690000D01*
X189905000Y-95975000D02*
X189905000Y-100795000D01*
X187285000Y-95975000D02*
X187285000Y-100795000D01*
X189905000Y-95975000D02*
X189591000Y-95975000D01*
X187599000Y-95975000D02*
X187285000Y-95975000D01*
X189905000Y-100795000D02*
X189591000Y-100795000D01*
X187599000Y-100795000D02*
X187285000Y-100795000D01*
X212765000Y-95975000D02*
X212765000Y-100795000D01*
X210145000Y-95975000D02*
X210145000Y-100795000D01*
X212765000Y-95975000D02*
X212451000Y-95975000D01*
X210459000Y-95975000D02*
X210145000Y-95975000D01*
X212765000Y-100795000D02*
X212451000Y-100795000D01*
X210459000Y-100795000D02*
X210145000Y-100795000D01*
X212765000Y-71845000D02*
X212765000Y-76665000D01*
X210145000Y-71845000D02*
X210145000Y-76665000D01*
X212765000Y-71845000D02*
X212451000Y-71845000D01*
X210459000Y-71845000D02*
X210145000Y-71845000D01*
X212765000Y-76665000D02*
X212451000Y-76665000D01*
X210459000Y-76665000D02*
X210145000Y-76665000D01*
X158790000Y-57240000D02*
X158790000Y-62060000D01*
X156170000Y-57240000D02*
X156170000Y-62060000D01*
X158790000Y-57240000D02*
X158476000Y-57240000D01*
X156484000Y-57240000D02*
X156170000Y-57240000D01*
X158790000Y-62060000D02*
X158476000Y-62060000D01*
X156484000Y-62060000D02*
X156170000Y-62060000D01*
X196890000Y-71845000D02*
X196890000Y-76665000D01*
X194270000Y-71845000D02*
X194270000Y-76665000D01*
X196890000Y-71845000D02*
X196576000Y-71845000D01*
X194584000Y-71845000D02*
X194270000Y-71845000D01*
X196890000Y-76665000D02*
X196576000Y-76665000D01*
X194584000Y-76665000D02*
X194270000Y-76665000D01*
X119975000Y-127545000D02*
X119975000Y-122725000D01*
X122595000Y-127545000D02*
X122595000Y-122725000D01*
X119975000Y-127545000D02*
X120289000Y-127545000D01*
X122281000Y-127545000D02*
X122595000Y-127545000D01*
X119975000Y-122725000D02*
X120289000Y-122725000D01*
X122281000Y-122725000D02*
X122595000Y-122725000D01*
X144235000Y-75525000D02*
X149055000Y-75525000D01*
X144235000Y-78145000D02*
X149055000Y-78145000D01*
X144235000Y-75525000D02*
X144235000Y-75839000D01*
X144235000Y-77831000D02*
X144235000Y-78145000D01*
X149055000Y-75525000D02*
X149055000Y-75839000D01*
X149055000Y-77831000D02*
X149055000Y-78145000D01*
X158790000Y-48985000D02*
X158790000Y-53805000D01*
X156170000Y-48985000D02*
X156170000Y-53805000D01*
X158790000Y-48985000D02*
X158476000Y-48985000D01*
X156484000Y-48985000D02*
X156170000Y-48985000D01*
X158790000Y-53805000D02*
X158476000Y-53805000D01*
X156484000Y-53805000D02*
X156170000Y-53805000D01*
X179705000Y-64135000D02*
X177165000Y-64135000D01*
X177165000Y-64135000D02*
X177165000Y-66805000D01*
X179705000Y-66805000D02*
X217935000Y-66805000D01*
X174495000Y-66805000D02*
X177165000Y-66805000D01*
X177165000Y-51435000D02*
X177165000Y-48765000D01*
X177165000Y-51435000D02*
X215265000Y-51435000D01*
X215265000Y-51435000D02*
X215265000Y-48765000D01*
X179705000Y-64135000D02*
X179705000Y-66805000D01*
X179705000Y-64135000D02*
X215265000Y-64135000D01*
X215265000Y-64135000D02*
X215265000Y-66805000D01*
X217935000Y-66805000D02*
X217935000Y-48765000D01*
X217935000Y-48765000D02*
X174495000Y-48765000D01*
X174495000Y-48765000D02*
X174495000Y-66805000D01*
X215325000Y-139135000D02*
X212725000Y-139135000D01*
X212725000Y-139135000D02*
X212725000Y-141755000D01*
X212725000Y-141755000D02*
X215325000Y-141755000D01*
X215325000Y-141755000D02*
X215325000Y-139135000D01*
X214375000Y-141755000D02*
X213615000Y-141755000D01*
X213615000Y-141755000D02*
X213615000Y-147755000D01*
X213615000Y-147755000D02*
X214375000Y-147755000D01*
X214375000Y-147755000D02*
X214375000Y-141755000D01*
X214375000Y-138705000D02*
X214375000Y-139135000D01*
X213615000Y-138705000D02*
X213615000Y-139135000D01*
X214255000Y-141755000D02*
X214255000Y-147755000D01*
X214135000Y-141755000D02*
X214135000Y-147755000D01*
X214015000Y-141755000D02*
X214015000Y-147755000D01*
X213895000Y-141755000D02*
X213895000Y-147755000D01*
X213775000Y-141755000D02*
X213775000Y-147755000D01*
X213655000Y-141755000D02*
X213655000Y-147755000D01*
X212725000Y-139135000D02*
X210185000Y-139135000D01*
X210185000Y-139135000D02*
X210185000Y-141755000D01*
X210185000Y-141755000D02*
X212725000Y-141755000D01*
X212725000Y-141755000D02*
X212725000Y-139135000D01*
X211835000Y-141755000D02*
X211075000Y-141755000D01*
X211075000Y-141755000D02*
X211075000Y-147755000D01*
X211075000Y-147755000D02*
X211835000Y-147755000D01*
X211835000Y-147755000D02*
X211835000Y-141755000D01*
X211835000Y-138705000D02*
X211835000Y-139135000D01*
X211075000Y-138705000D02*
X211075000Y-139135000D01*
X210185000Y-139135000D02*
X207645000Y-139135000D01*
X207645000Y-139135000D02*
X207645000Y-141755000D01*
X207645000Y-141755000D02*
X210185000Y-141755000D01*
X210185000Y-141755000D02*
X210185000Y-139135000D01*
X209295000Y-141755000D02*
X208535000Y-141755000D01*
X208535000Y-141755000D02*
X208535000Y-147755000D01*
X208535000Y-147755000D02*
X209295000Y-147755000D01*
X209295000Y-147755000D02*
X209295000Y-141755000D01*
X209295000Y-138705000D02*
X209295000Y-139135000D01*
X208535000Y-138705000D02*
X208535000Y-139135000D01*
X207645000Y-139135000D02*
X205105000Y-139135000D01*
X205105000Y-139135000D02*
X205105000Y-141755000D01*
X205105000Y-141755000D02*
X207645000Y-141755000D01*
X207645000Y-141755000D02*
X207645000Y-139135000D01*
X206755000Y-141755000D02*
X205995000Y-141755000D01*
X205995000Y-141755000D02*
X205995000Y-147755000D01*
X205995000Y-147755000D02*
X206755000Y-147755000D01*
X206755000Y-147755000D02*
X206755000Y-141755000D01*
X206755000Y-138705000D02*
X206755000Y-139135000D01*
X205995000Y-138705000D02*
X205995000Y-139135000D01*
X205105000Y-139135000D02*
X202565000Y-139135000D01*
X202565000Y-139135000D02*
X202565000Y-141755000D01*
X202565000Y-141755000D02*
X205105000Y-141755000D01*
X205105000Y-141755000D02*
X205105000Y-139135000D01*
X204215000Y-141755000D02*
X203455000Y-141755000D01*
X203455000Y-141755000D02*
X203455000Y-147755000D01*
X203455000Y-147755000D02*
X204215000Y-147755000D01*
X204215000Y-147755000D02*
X204215000Y-141755000D01*
X204215000Y-138705000D02*
X204215000Y-139135000D01*
X203455000Y-138705000D02*
X203455000Y-139135000D01*
X202565000Y-139135000D02*
X200025000Y-139135000D01*
X200025000Y-139135000D02*
X200025000Y-141755000D01*
X200025000Y-141755000D02*
X202565000Y-141755000D01*
X202565000Y-141755000D02*
X202565000Y-139135000D01*
X201675000Y-141755000D02*
X200915000Y-141755000D01*
X200915000Y-141755000D02*
X200915000Y-147755000D01*
X200915000Y-147755000D02*
X201675000Y-147755000D01*
X201675000Y-147755000D02*
X201675000Y-141755000D01*
X201675000Y-138705000D02*
X201675000Y-139135000D01*
X200915000Y-138705000D02*
X200915000Y-139135000D01*
X200025000Y-139135000D02*
X197485000Y-139135000D01*
X197485000Y-139135000D02*
X197485000Y-141755000D01*
X197485000Y-141755000D02*
X200025000Y-141755000D01*
X200025000Y-141755000D02*
X200025000Y-139135000D01*
X199135000Y-141755000D02*
X198375000Y-141755000D01*
X198375000Y-141755000D02*
X198375000Y-147755000D01*
X198375000Y-147755000D02*
X199135000Y-147755000D01*
X199135000Y-147755000D02*
X199135000Y-141755000D01*
X199135000Y-138705000D02*
X199135000Y-139135000D01*
X198375000Y-138705000D02*
X198375000Y-139135000D01*
X197485000Y-139135000D02*
X194945000Y-139135000D01*
X194945000Y-139135000D02*
X194945000Y-141755000D01*
X194945000Y-141755000D02*
X197485000Y-141755000D01*
X197485000Y-141755000D02*
X197485000Y-139135000D01*
X196595000Y-141755000D02*
X195835000Y-141755000D01*
X195835000Y-141755000D02*
X195835000Y-147755000D01*
X195835000Y-147755000D02*
X196595000Y-147755000D01*
X196595000Y-147755000D02*
X196595000Y-141755000D01*
X196595000Y-138705000D02*
X196595000Y-139135000D01*
X195835000Y-138705000D02*
X195835000Y-139135000D01*
X194945000Y-139135000D02*
X192405000Y-139135000D01*
X192405000Y-139135000D02*
X192405000Y-141755000D01*
X192405000Y-141755000D02*
X194945000Y-141755000D01*
X194945000Y-141755000D02*
X194945000Y-139135000D01*
X194055000Y-141755000D02*
X193295000Y-141755000D01*
X193295000Y-141755000D02*
X193295000Y-147755000D01*
X193295000Y-147755000D02*
X194055000Y-147755000D01*
X194055000Y-147755000D02*
X194055000Y-141755000D01*
X194055000Y-138705000D02*
X194055000Y-139135000D01*
X193295000Y-138705000D02*
X193295000Y-139135000D01*
X192405000Y-139135000D02*
X189865000Y-139135000D01*
X189865000Y-139135000D02*
X189865000Y-141755000D01*
X189865000Y-141755000D02*
X192405000Y-141755000D01*
X192405000Y-141755000D02*
X192405000Y-139135000D01*
X191515000Y-141755000D02*
X190755000Y-141755000D01*
X190755000Y-141755000D02*
X190755000Y-147755000D01*
X190755000Y-147755000D02*
X191515000Y-147755000D01*
X191515000Y-147755000D02*
X191515000Y-141755000D01*
X191515000Y-138705000D02*
X191515000Y-139135000D01*
X190755000Y-138705000D02*
X190755000Y-139135000D01*
X189865000Y-139135000D02*
X187325000Y-139135000D01*
X187325000Y-139135000D02*
X187325000Y-141755000D01*
X187325000Y-141755000D02*
X189865000Y-141755000D01*
X189865000Y-141755000D02*
X189865000Y-139135000D01*
X188975000Y-141755000D02*
X188215000Y-141755000D01*
X188215000Y-141755000D02*
X188215000Y-147755000D01*
X188215000Y-147755000D02*
X188975000Y-147755000D01*
X188975000Y-147755000D02*
X188975000Y-141755000D01*
X188975000Y-138705000D02*
X188975000Y-139135000D01*
X188215000Y-138705000D02*
X188215000Y-139135000D01*
X187325000Y-139135000D02*
X184785000Y-139135000D01*
X184785000Y-139135000D02*
X184785000Y-141755000D01*
X184785000Y-141755000D02*
X187325000Y-141755000D01*
X187325000Y-141755000D02*
X187325000Y-139135000D01*
X186435000Y-141755000D02*
X185675000Y-141755000D01*
X185675000Y-141755000D02*
X185675000Y-147755000D01*
X185675000Y-147755000D02*
X186435000Y-147755000D01*
X186435000Y-147755000D02*
X186435000Y-141755000D01*
X186435000Y-138705000D02*
X186435000Y-139135000D01*
X185675000Y-138705000D02*
X185675000Y-139135000D01*
X184785000Y-139135000D02*
X182245000Y-139135000D01*
X182245000Y-139135000D02*
X182245000Y-141755000D01*
X182245000Y-141755000D02*
X184785000Y-141755000D01*
X184785000Y-141755000D02*
X184785000Y-139135000D01*
X183895000Y-141755000D02*
X183135000Y-141755000D01*
X183135000Y-141755000D02*
X183135000Y-147755000D01*
X183135000Y-147755000D02*
X183895000Y-147755000D01*
X183895000Y-147755000D02*
X183895000Y-141755000D01*
X183895000Y-138705000D02*
X183895000Y-139135000D01*
X183135000Y-138705000D02*
X183135000Y-139135000D01*
X182245000Y-139135000D02*
X179705000Y-139135000D01*
X179705000Y-139135000D02*
X179705000Y-141755000D01*
X179705000Y-141755000D02*
X182245000Y-141755000D01*
X182245000Y-141755000D02*
X182245000Y-139135000D01*
X181355000Y-141755000D02*
X180595000Y-141755000D01*
X180595000Y-141755000D02*
X180595000Y-147755000D01*
X180595000Y-147755000D02*
X181355000Y-147755000D01*
X181355000Y-147755000D02*
X181355000Y-141755000D01*
X181355000Y-138705000D02*
X181355000Y-139135000D01*
X180595000Y-138705000D02*
X180595000Y-139135000D01*
X179705000Y-139135000D02*
X177165000Y-139135000D01*
X177165000Y-139135000D02*
X177165000Y-141755000D01*
X177165000Y-141755000D02*
X179705000Y-141755000D01*
X179705000Y-141755000D02*
X179705000Y-139135000D01*
X178815000Y-141755000D02*
X178055000Y-141755000D01*
X178055000Y-141755000D02*
X178055000Y-147755000D01*
X178055000Y-147755000D02*
X178815000Y-147755000D01*
X178815000Y-147755000D02*
X178815000Y-141755000D01*
X178815000Y-138705000D02*
X178815000Y-139135000D01*
X178055000Y-138705000D02*
X178055000Y-139135000D01*
X177165000Y-139135000D02*
X174625000Y-139135000D01*
X174625000Y-139135000D02*
X174625000Y-141755000D01*
X174625000Y-141755000D02*
X177165000Y-141755000D01*
X177165000Y-141755000D02*
X177165000Y-139135000D01*
X176275000Y-141755000D02*
X175515000Y-141755000D01*
X175515000Y-141755000D02*
X175515000Y-147755000D01*
X175515000Y-147755000D02*
X176275000Y-147755000D01*
X176275000Y-147755000D02*
X176275000Y-141755000D01*
X176275000Y-138705000D02*
X176275000Y-139135000D01*
X175515000Y-138705000D02*
X175515000Y-139135000D01*
X174625000Y-139135000D02*
X172085000Y-139135000D01*
X172085000Y-139135000D02*
X172085000Y-141755000D01*
X172085000Y-141755000D02*
X174625000Y-141755000D01*
X174625000Y-141755000D02*
X174625000Y-139135000D01*
X173735000Y-141755000D02*
X172975000Y-141755000D01*
X172975000Y-141755000D02*
X172975000Y-147755000D01*
X172975000Y-147755000D02*
X173735000Y-147755000D01*
X173735000Y-147755000D02*
X173735000Y-141755000D01*
X173735000Y-138705000D02*
X173735000Y-139135000D01*
X172975000Y-138705000D02*
X172975000Y-139135000D01*
X172085000Y-139135000D02*
X169545000Y-139135000D01*
X169545000Y-139135000D02*
X169545000Y-141755000D01*
X169545000Y-141755000D02*
X172085000Y-141755000D01*
X172085000Y-141755000D02*
X172085000Y-139135000D01*
X171195000Y-141755000D02*
X170435000Y-141755000D01*
X170435000Y-141755000D02*
X170435000Y-147755000D01*
X170435000Y-147755000D02*
X171195000Y-147755000D01*
X171195000Y-147755000D02*
X171195000Y-141755000D01*
X171195000Y-138705000D02*
X171195000Y-139135000D01*
X170435000Y-138705000D02*
X170435000Y-139135000D01*
X169545000Y-139135000D02*
X167005000Y-139135000D01*
X167005000Y-139135000D02*
X167005000Y-141755000D01*
X167005000Y-141755000D02*
X169545000Y-141755000D01*
X169545000Y-141755000D02*
X169545000Y-139135000D01*
X168655000Y-141755000D02*
X167895000Y-141755000D01*
X167895000Y-141755000D02*
X167895000Y-147755000D01*
X167895000Y-147755000D02*
X168655000Y-147755000D01*
X168655000Y-147755000D02*
X168655000Y-141755000D01*
X168655000Y-138705000D02*
X168655000Y-139135000D01*
X167895000Y-138705000D02*
X167895000Y-139135000D01*
X167005000Y-139135000D02*
X164465000Y-139135000D01*
X164465000Y-139135000D02*
X164465000Y-141755000D01*
X164465000Y-141755000D02*
X167005000Y-141755000D01*
X167005000Y-141755000D02*
X167005000Y-139135000D01*
X166115000Y-141755000D02*
X165355000Y-141755000D01*
X165355000Y-141755000D02*
X165355000Y-147755000D01*
X165355000Y-147755000D02*
X166115000Y-147755000D01*
X166115000Y-147755000D02*
X166115000Y-141755000D01*
X166115000Y-138705000D02*
X166115000Y-139135000D01*
X165355000Y-138705000D02*
X165355000Y-139135000D01*
X164465000Y-139135000D02*
X161925000Y-139135000D01*
X161925000Y-139135000D02*
X161925000Y-141755000D01*
X161925000Y-141755000D02*
X164465000Y-141755000D01*
X164465000Y-141755000D02*
X164465000Y-139135000D01*
X163575000Y-141755000D02*
X162815000Y-141755000D01*
X162815000Y-141755000D02*
X162815000Y-147755000D01*
X162815000Y-147755000D02*
X163575000Y-147755000D01*
X163575000Y-147755000D02*
X163575000Y-141755000D01*
X163575000Y-138705000D02*
X163575000Y-139135000D01*
X162815000Y-138705000D02*
X162815000Y-139135000D01*
X161925000Y-139135000D02*
X159385000Y-139135000D01*
X159385000Y-139135000D02*
X159385000Y-141755000D01*
X159385000Y-141755000D02*
X161925000Y-141755000D01*
X161925000Y-141755000D02*
X161925000Y-139135000D01*
X161035000Y-141755000D02*
X160275000Y-141755000D01*
X160275000Y-141755000D02*
X160275000Y-147755000D01*
X160275000Y-147755000D02*
X161035000Y-147755000D01*
X161035000Y-147755000D02*
X161035000Y-141755000D01*
X161035000Y-138705000D02*
X161035000Y-139135000D01*
X160275000Y-138705000D02*
X160275000Y-139135000D01*
X159385000Y-139135000D02*
X156845000Y-139135000D01*
X156845000Y-139135000D02*
X156845000Y-141755000D01*
X156845000Y-141755000D02*
X159385000Y-141755000D01*
X159385000Y-141755000D02*
X159385000Y-139135000D01*
X158495000Y-141755000D02*
X157735000Y-141755000D01*
X157735000Y-141755000D02*
X157735000Y-147755000D01*
X157735000Y-147755000D02*
X158495000Y-147755000D01*
X158495000Y-147755000D02*
X158495000Y-141755000D01*
X158495000Y-138705000D02*
X158495000Y-139135000D01*
X157735000Y-138705000D02*
X157735000Y-139135000D01*
X156845000Y-139135000D02*
X154305000Y-139135000D01*
X154305000Y-139135000D02*
X154305000Y-141755000D01*
X154305000Y-141755000D02*
X156845000Y-141755000D01*
X156845000Y-141755000D02*
X156845000Y-139135000D01*
X155955000Y-141755000D02*
X155195000Y-141755000D01*
X155195000Y-141755000D02*
X155195000Y-147755000D01*
X155195000Y-147755000D02*
X155955000Y-147755000D01*
X155955000Y-147755000D02*
X155955000Y-141755000D01*
X155955000Y-138705000D02*
X155955000Y-139135000D01*
X155195000Y-138705000D02*
X155195000Y-139135000D01*
X154305000Y-139135000D02*
X151765000Y-139135000D01*
X151765000Y-139135000D02*
X151765000Y-141755000D01*
X151765000Y-141755000D02*
X154305000Y-141755000D01*
X154305000Y-141755000D02*
X154305000Y-139135000D01*
X153415000Y-141755000D02*
X152655000Y-141755000D01*
X152655000Y-141755000D02*
X152655000Y-147755000D01*
X152655000Y-147755000D02*
X153415000Y-147755000D01*
X153415000Y-147755000D02*
X153415000Y-141755000D01*
X153415000Y-138705000D02*
X153415000Y-139135000D01*
X152655000Y-138705000D02*
X152655000Y-139135000D01*
X151765000Y-139135000D02*
X149225000Y-139135000D01*
X149225000Y-139135000D02*
X149225000Y-141755000D01*
X149225000Y-141755000D02*
X151765000Y-141755000D01*
X151765000Y-141755000D02*
X151765000Y-139135000D01*
X150875000Y-141755000D02*
X150115000Y-141755000D01*
X150115000Y-141755000D02*
X150115000Y-147755000D01*
X150115000Y-147755000D02*
X150875000Y-147755000D01*
X150875000Y-147755000D02*
X150875000Y-141755000D01*
X150875000Y-138705000D02*
X150875000Y-139135000D01*
X150115000Y-138705000D02*
X150115000Y-139135000D01*
X149225000Y-139135000D02*
X146685000Y-139135000D01*
X146685000Y-139135000D02*
X146685000Y-141755000D01*
X146685000Y-141755000D02*
X149225000Y-141755000D01*
X149225000Y-141755000D02*
X149225000Y-139135000D01*
X148335000Y-141755000D02*
X147575000Y-141755000D01*
X147575000Y-141755000D02*
X147575000Y-147755000D01*
X147575000Y-147755000D02*
X148335000Y-147755000D01*
X148335000Y-147755000D02*
X148335000Y-141755000D01*
X148335000Y-138705000D02*
X148335000Y-139135000D01*
X147575000Y-138705000D02*
X147575000Y-139135000D01*
X146685000Y-139135000D02*
X144145000Y-139135000D01*
X144145000Y-139135000D02*
X144145000Y-141755000D01*
X144145000Y-141755000D02*
X146685000Y-141755000D01*
X146685000Y-141755000D02*
X146685000Y-139135000D01*
X145795000Y-141755000D02*
X145035000Y-141755000D01*
X145035000Y-141755000D02*
X145035000Y-147755000D01*
X145035000Y-147755000D02*
X145795000Y-147755000D01*
X145795000Y-147755000D02*
X145795000Y-141755000D01*
X145795000Y-138705000D02*
X145795000Y-139135000D01*
X145035000Y-138705000D02*
X145035000Y-139135000D01*
X144145000Y-139135000D02*
X141605000Y-139135000D01*
X141605000Y-139135000D02*
X141605000Y-141755000D01*
X141605000Y-141755000D02*
X144145000Y-141755000D01*
X144145000Y-141755000D02*
X144145000Y-139135000D01*
X143255000Y-141755000D02*
X142495000Y-141755000D01*
X142495000Y-141755000D02*
X142495000Y-147755000D01*
X142495000Y-147755000D02*
X143255000Y-147755000D01*
X143255000Y-147755000D02*
X143255000Y-141755000D01*
X143255000Y-138705000D02*
X143255000Y-139135000D01*
X142495000Y-138705000D02*
X142495000Y-139135000D01*
X141605000Y-139135000D02*
X139065000Y-139135000D01*
X139065000Y-139135000D02*
X139065000Y-141755000D01*
X139065000Y-141755000D02*
X141605000Y-141755000D01*
X141605000Y-141755000D02*
X141605000Y-139135000D01*
X140715000Y-141755000D02*
X139955000Y-141755000D01*
X139955000Y-141755000D02*
X139955000Y-147755000D01*
X139955000Y-147755000D02*
X140715000Y-147755000D01*
X140715000Y-147755000D02*
X140715000Y-141755000D01*
X140715000Y-138705000D02*
X140715000Y-139135000D01*
X139955000Y-138705000D02*
X139955000Y-139135000D01*
X139065000Y-139135000D02*
X136525000Y-139135000D01*
X136525000Y-139135000D02*
X136525000Y-141755000D01*
X136525000Y-141755000D02*
X139065000Y-141755000D01*
X139065000Y-141755000D02*
X139065000Y-139135000D01*
X138175000Y-141755000D02*
X137415000Y-141755000D01*
X137415000Y-141755000D02*
X137415000Y-147755000D01*
X137415000Y-147755000D02*
X138175000Y-147755000D01*
X138175000Y-147755000D02*
X138175000Y-141755000D01*
X138175000Y-138705000D02*
X138175000Y-139135000D01*
X137415000Y-138705000D02*
X137415000Y-139135000D01*
X136525000Y-139135000D02*
X133985000Y-139135000D01*
X133985000Y-139135000D02*
X133985000Y-141755000D01*
X133985000Y-141755000D02*
X136525000Y-141755000D01*
X136525000Y-141755000D02*
X136525000Y-139135000D01*
X135635000Y-141755000D02*
X134875000Y-141755000D01*
X134875000Y-141755000D02*
X134875000Y-147755000D01*
X134875000Y-147755000D02*
X135635000Y-147755000D01*
X135635000Y-147755000D02*
X135635000Y-141755000D01*
X135635000Y-138705000D02*
X135635000Y-139135000D01*
X134875000Y-138705000D02*
X134875000Y-139135000D01*
X133985000Y-139135000D02*
X131445000Y-139135000D01*
X131445000Y-139135000D02*
X131445000Y-141755000D01*
X131445000Y-141755000D02*
X133985000Y-141755000D01*
X133985000Y-141755000D02*
X133985000Y-139135000D01*
X133095000Y-141755000D02*
X132335000Y-141755000D01*
X132335000Y-141755000D02*
X132335000Y-147755000D01*
X132335000Y-147755000D02*
X133095000Y-147755000D01*
X133095000Y-147755000D02*
X133095000Y-141755000D01*
X133095000Y-138705000D02*
X133095000Y-139135000D01*
X132335000Y-138705000D02*
X132335000Y-139135000D01*
X131445000Y-139135000D02*
X128905000Y-139135000D01*
X128905000Y-139135000D02*
X128905000Y-141755000D01*
X128905000Y-141755000D02*
X131445000Y-141755000D01*
X131445000Y-141755000D02*
X131445000Y-139135000D01*
X130555000Y-141755000D02*
X129795000Y-141755000D01*
X129795000Y-141755000D02*
X129795000Y-147755000D01*
X129795000Y-147755000D02*
X130555000Y-147755000D01*
X130555000Y-147755000D02*
X130555000Y-141755000D01*
X130555000Y-138705000D02*
X130555000Y-139135000D01*
X129795000Y-138705000D02*
X129795000Y-139135000D01*
X128905000Y-139135000D02*
X126365000Y-139135000D01*
X126365000Y-139135000D02*
X126365000Y-141755000D01*
X126365000Y-141755000D02*
X128905000Y-141755000D01*
X128905000Y-141755000D02*
X128905000Y-139135000D01*
X128015000Y-141755000D02*
X127255000Y-141755000D01*
X127255000Y-141755000D02*
X127255000Y-147755000D01*
X127255000Y-147755000D02*
X128015000Y-147755000D01*
X128015000Y-147755000D02*
X128015000Y-141755000D01*
X128015000Y-138705000D02*
X128015000Y-139135000D01*
X127255000Y-138705000D02*
X127255000Y-139135000D01*
X126365000Y-139135000D02*
X123825000Y-139135000D01*
X123825000Y-139135000D02*
X123825000Y-141755000D01*
X123825000Y-141755000D02*
X126365000Y-141755000D01*
X126365000Y-141755000D02*
X126365000Y-139135000D01*
X125475000Y-141755000D02*
X124715000Y-141755000D01*
X124715000Y-141755000D02*
X124715000Y-147755000D01*
X124715000Y-147755000D02*
X125475000Y-147755000D01*
X125475000Y-147755000D02*
X125475000Y-141755000D01*
X125475000Y-138705000D02*
X125475000Y-139135000D01*
X124715000Y-138705000D02*
X124715000Y-139135000D01*
X123825000Y-139135000D02*
X121285000Y-139135000D01*
X121285000Y-139135000D02*
X121285000Y-141755000D01*
X121285000Y-141755000D02*
X123825000Y-141755000D01*
X123825000Y-141755000D02*
X123825000Y-139135000D01*
X122935000Y-141755000D02*
X122175000Y-141755000D01*
X122175000Y-141755000D02*
X122175000Y-147755000D01*
X122175000Y-147755000D02*
X122935000Y-147755000D01*
X122935000Y-147755000D02*
X122935000Y-141755000D01*
X122935000Y-138705000D02*
X122935000Y-139135000D01*
X122175000Y-138705000D02*
X122175000Y-139135000D01*
X121285000Y-139135000D02*
X118745000Y-139135000D01*
X118745000Y-139135000D02*
X118745000Y-141755000D01*
X118745000Y-141755000D02*
X121285000Y-141755000D01*
X121285000Y-141755000D02*
X121285000Y-139135000D01*
X120395000Y-141755000D02*
X119635000Y-141755000D01*
X119635000Y-141755000D02*
X119635000Y-147755000D01*
X119635000Y-147755000D02*
X120395000Y-147755000D01*
X120395000Y-147755000D02*
X120395000Y-141755000D01*
X120395000Y-138705000D02*
X120395000Y-139135000D01*
X119635000Y-138705000D02*
X119635000Y-139135000D01*
X118745000Y-139135000D02*
X116145000Y-139135000D01*
X116145000Y-139135000D02*
X116145000Y-141755000D01*
X116145000Y-141755000D02*
X118745000Y-141755000D01*
X118745000Y-141755000D02*
X118745000Y-139135000D01*
X117855000Y-141755000D02*
X117095000Y-141755000D01*
X117095000Y-141755000D02*
X117095000Y-147755000D01*
X117095000Y-147755000D02*
X117855000Y-147755000D01*
X117855000Y-147755000D02*
X117855000Y-141755000D01*
X117855000Y-138705000D02*
X117855000Y-139135000D01*
X117095000Y-138705000D02*
X117095000Y-139135000D01*
X213995000Y-136525000D02*
X215265000Y-136525000D01*
X215265000Y-136525000D02*
X215265000Y-137795000D01*
X212765000Y-106010000D02*
X210145000Y-106010000D01*
X210145000Y-106010000D02*
X210145000Y-112430000D01*
X210145000Y-112430000D02*
X212765000Y-112430000D01*
X212765000Y-112430000D02*
X212765000Y-106010000D01*
X211455000Y-105120000D02*
X211455000Y-106010000D01*
X211455000Y-113320000D02*
X211455000Y-112430000D01*
X169580000Y-51475000D02*
X169580000Y-48855000D01*
X169580000Y-48855000D02*
X163160000Y-48855000D01*
X163160000Y-48855000D02*
X163160000Y-51475000D01*
X163160000Y-51475000D02*
X169580000Y-51475000D01*
X170470000Y-50165000D02*
X169580000Y-50165000D01*
X162270000Y-50165000D02*
X163160000Y-50165000D01*
X169580000Y-56555000D02*
X169580000Y-53935000D01*
X169580000Y-53935000D02*
X163160000Y-53935000D01*
X163160000Y-53935000D02*
X163160000Y-56555000D01*
X163160000Y-56555000D02*
X169580000Y-56555000D01*
X170470000Y-55245000D02*
X169580000Y-55245000D01*
X162270000Y-55245000D02*
X163160000Y-55245000D01*
X163160000Y-59015000D02*
X163160000Y-61635000D01*
X163160000Y-61635000D02*
X169580000Y-61635000D01*
X169580000Y-61635000D02*
X169580000Y-59015000D01*
X169580000Y-59015000D02*
X163160000Y-59015000D01*
X162270000Y-60325000D02*
X163160000Y-60325000D01*
X170470000Y-60325000D02*
X169580000Y-60325000D01*
X180305000Y-53300000D02*
X180305000Y-55920000D01*
X180305000Y-55920000D02*
X186725000Y-55920000D01*
X186725000Y-55920000D02*
X186725000Y-53300000D01*
X186725000Y-53300000D02*
X180305000Y-53300000D01*
X179415000Y-54610000D02*
X180305000Y-54610000D01*
X187615000Y-54610000D02*
X186725000Y-54610000D01*
X145455000Y-119345000D02*
X142835000Y-119345000D01*
X142835000Y-119345000D02*
X142835000Y-125765000D01*
X142835000Y-125765000D02*
X145455000Y-125765000D01*
X145455000Y-125765000D02*
X145455000Y-119345000D01*
X144145000Y-118455000D02*
X144145000Y-119345000D01*
X144145000Y-126655000D02*
X144145000Y-125765000D01*
X142835000Y-112430000D02*
X145455000Y-112430000D01*
X145455000Y-112430000D02*
X145455000Y-106010000D01*
X145455000Y-106010000D02*
X142835000Y-106010000D01*
X142835000Y-106010000D02*
X142835000Y-112430000D01*
X144145000Y-113320000D02*
X144145000Y-112430000D01*
X144145000Y-105120000D02*
X144145000Y-106010000D01*
X142835000Y-92110000D02*
X145455000Y-92110000D01*
X145455000Y-92110000D02*
X145455000Y-85690000D01*
X145455000Y-85690000D02*
X142835000Y-85690000D01*
X142835000Y-85690000D02*
X142835000Y-92110000D01*
X144145000Y-93000000D02*
X144145000Y-92110000D01*
X144145000Y-84800000D02*
X144145000Y-85690000D01*
X180305000Y-59650000D02*
X180305000Y-62270000D01*
X180305000Y-62270000D02*
X186725000Y-62270000D01*
X186725000Y-62270000D02*
X186725000Y-59650000D01*
X186725000Y-59650000D02*
X180305000Y-59650000D01*
X179415000Y-60960000D02*
X180305000Y-60960000D01*
X187615000Y-60960000D02*
X186725000Y-60960000D01*
X204105000Y-40855000D02*
X199605000Y-40855000D01*
X205355000Y-44855000D02*
X205355000Y-43355000D01*
X199605000Y-47355000D02*
X204105000Y-47355000D01*
X198355000Y-43355000D02*
X198355000Y-44855000D01*
X176165000Y-94495000D02*
X170585000Y-94495000D01*
X170585000Y-94495000D02*
X170585000Y-130295000D01*
X170585000Y-130295000D02*
X183745000Y-130295000D01*
X183745000Y-130295000D02*
X183745000Y-94495000D01*
X183745000Y-94495000D02*
X178165000Y-94495000D01*
X168155000Y-94495000D02*
X168155000Y-130295000D01*
X168155000Y-130295000D02*
X186175000Y-130295000D01*
X186175000Y-130295000D02*
X186175000Y-94495000D01*
X186175000Y-94495000D02*
X168155000Y-94495000D01*
X178165000Y-94495000D02*
G75*
G02X176165000Y-94495000I-1000000J0D01*
G01*
X202835000Y-70365000D02*
X201065000Y-70365000D01*
X201065000Y-70365000D02*
X201065000Y-88385000D01*
X201065000Y-88385000D02*
X206605000Y-88385000D01*
X206605000Y-88385000D02*
X206605000Y-70365000D01*
X206605000Y-70365000D02*
X204835000Y-70365000D01*
X198635000Y-70365000D02*
X198635000Y-88385000D01*
X198635000Y-88385000D02*
X209035000Y-88385000D01*
X209035000Y-88385000D02*
X209035000Y-70365000D01*
X209035000Y-70365000D02*
X198635000Y-70365000D01*
X204835000Y-70365000D02*
G75*
G02X202835000Y-70365000I-1000000J0D01*
G01*
X187595000Y-70365000D02*
X185825000Y-70365000D01*
X185825000Y-70365000D02*
X185825000Y-88385000D01*
X185825000Y-88385000D02*
X191365000Y-88385000D01*
X191365000Y-88385000D02*
X191365000Y-70365000D01*
X191365000Y-70365000D02*
X189595000Y-70365000D01*
X189595000Y-70365000D02*
G75*
G02X187595000Y-70365000I-1000000J0D01*
G01*
X131715000Y-81160000D02*
X126135000Y-81160000D01*
X126135000Y-81160000D02*
X126135000Y-132200000D01*
X126135000Y-132200000D02*
X139295000Y-132200000D01*
X139295000Y-132200000D02*
X139295000Y-81160000D01*
X139295000Y-81160000D02*
X133715000Y-81160000D01*
X123705000Y-81160000D02*
X123705000Y-132200000D01*
X123705000Y-132200000D02*
X141725000Y-132200000D01*
X141725000Y-132200000D02*
X141725000Y-81160000D01*
X141725000Y-81160000D02*
X123705000Y-81160000D01*
X133715000Y-81160000D02*
G75*
G02X131715000Y-81160000I-1000000J0D01*
G01*
X122435000Y-70215000D02*
X122435000Y-71985000D01*
X122435000Y-71985000D02*
X158235000Y-71985000D01*
X158235000Y-71985000D02*
X158235000Y-66445000D01*
X158235000Y-66445000D02*
X122435000Y-66445000D01*
X122435000Y-66445000D02*
X122435000Y-68215000D01*
X122435000Y-74415000D02*
X158235000Y-74415000D01*
X158235000Y-74415000D02*
X158235000Y-64015000D01*
X158235000Y-64015000D02*
X122435000Y-64015000D01*
X122435000Y-64015000D02*
X122435000Y-74415000D01*
X122435000Y-68215000D02*
G75*
G02X122435000Y-70215000I0J-1000000D01*
G01*
X172355000Y-70365000D02*
X170585000Y-70365000D01*
X170585000Y-70365000D02*
X170585000Y-90925000D01*
X170585000Y-90925000D02*
X176125000Y-90925000D01*
X176125000Y-90925000D02*
X176125000Y-70365000D01*
X176125000Y-70365000D02*
X174355000Y-70365000D01*
X168155000Y-70365000D02*
X168155000Y-90925000D01*
X168155000Y-90925000D02*
X178555000Y-90925000D01*
X178555000Y-90925000D02*
X178555000Y-70365000D01*
X178555000Y-70365000D02*
X168155000Y-70365000D01*
X174355000Y-70365000D02*
G75*
G02X172355000Y-70365000I-1000000J0D01*
G01*
X199025000Y-94495000D02*
X193445000Y-94495000D01*
X193445000Y-94495000D02*
X193445000Y-130295000D01*
X193445000Y-130295000D02*
X206605000Y-130295000D01*
X206605000Y-130295000D02*
X206605000Y-94495000D01*
X206605000Y-94495000D02*
X201025000Y-94495000D01*
X191015000Y-94495000D02*
X191015000Y-130295000D01*
X191015000Y-130295000D02*
X209035000Y-130295000D01*
X209035000Y-130295000D02*
X209035000Y-94495000D01*
X209035000Y-94495000D02*
X191015000Y-94495000D01*
X201025000Y-94495000D02*
G75*
G02X199025000Y-94495000I-1000000J0D01*
G01*
X149495000Y-48140000D02*
X147725000Y-48140000D01*
X147725000Y-48140000D02*
X147725000Y-58540000D01*
X147725000Y-58540000D02*
X153265000Y-58540000D01*
X153265000Y-58540000D02*
X153265000Y-48140000D01*
X153265000Y-48140000D02*
X151495000Y-48140000D01*
X151495000Y-48140000D02*
G75*
G02X149495000Y-48140000I-1000000J0D01*
G01*
X182285000Y-71845000D02*
X182285000Y-76665000D01*
X179665000Y-71845000D02*
X179665000Y-76665000D01*
X182285000Y-71845000D02*
X181971000Y-71845000D01*
X179979000Y-71845000D02*
X179665000Y-71845000D01*
X182285000Y-76665000D02*
X181971000Y-76665000D01*
X179979000Y-76665000D02*
X179665000Y-76665000D01*
X166354000Y-63990000D02*
X166354000Y-68090000D01*
X166394000Y-63990000D02*
X166394000Y-68090000D01*
X166434000Y-63991000D02*
X166434000Y-68089000D01*
X166474000Y-63993000D02*
X166474000Y-68087000D01*
X166514000Y-63996000D02*
X166514000Y-68084000D01*
X166554000Y-63999000D02*
X166554000Y-68081000D01*
X166594000Y-64003000D02*
X166594000Y-65260000D01*
X166594000Y-66820000D02*
X166594000Y-68077000D01*
X166634000Y-64008000D02*
X166634000Y-65260000D01*
X166634000Y-66820000D02*
X166634000Y-68072000D01*
X166674000Y-64014000D02*
X166674000Y-65260000D01*
X166674000Y-66820000D02*
X166674000Y-68066000D01*
X166714000Y-64021000D02*
X166714000Y-65260000D01*
X166714000Y-66820000D02*
X166714000Y-68059000D01*
X166754000Y-64028000D02*
X166754000Y-65260000D01*
X166754000Y-66820000D02*
X166754000Y-68052000D01*
X166794000Y-64036000D02*
X166794000Y-65260000D01*
X166794000Y-66820000D02*
X166794000Y-68044000D01*
X166834000Y-64045000D02*
X166834000Y-65260000D01*
X166834000Y-66820000D02*
X166834000Y-68035000D01*
X166874000Y-64055000D02*
X166874000Y-65260000D01*
X166874000Y-66820000D02*
X166874000Y-68025000D01*
X166914000Y-64066000D02*
X166914000Y-65260000D01*
X166914000Y-66820000D02*
X166914000Y-68014000D01*
X166954000Y-64077000D02*
X166954000Y-65260000D01*
X166954000Y-66820000D02*
X166954000Y-68003000D01*
X166994000Y-64090000D02*
X166994000Y-65260000D01*
X166994000Y-66820000D02*
X166994000Y-67990000D01*
X167034000Y-64103000D02*
X167034000Y-65260000D01*
X167034000Y-66820000D02*
X167034000Y-67977000D01*
X167075000Y-64117000D02*
X167075000Y-65260000D01*
X167075000Y-66820000D02*
X167075000Y-67963000D01*
X167115000Y-64133000D02*
X167115000Y-65260000D01*
X167115000Y-66820000D02*
X167115000Y-67947000D01*
X167155000Y-64149000D02*
X167155000Y-65260000D01*
X167155000Y-66820000D02*
X167155000Y-67931000D01*
X167195000Y-64166000D02*
X167195000Y-65260000D01*
X167195000Y-66820000D02*
X167195000Y-67914000D01*
X167235000Y-64184000D02*
X167235000Y-65260000D01*
X167235000Y-66820000D02*
X167235000Y-67896000D01*
X167275000Y-64203000D02*
X167275000Y-65260000D01*
X167275000Y-66820000D02*
X167275000Y-67877000D01*
X167315000Y-64223000D02*
X167315000Y-65260000D01*
X167315000Y-66820000D02*
X167315000Y-67857000D01*
X167355000Y-64244000D02*
X167355000Y-65260000D01*
X167355000Y-66820000D02*
X167355000Y-67836000D01*
X167395000Y-64267000D02*
X167395000Y-65260000D01*
X167395000Y-66820000D02*
X167395000Y-67813000D01*
X167435000Y-64290000D02*
X167435000Y-65260000D01*
X167435000Y-66820000D02*
X167435000Y-67790000D01*
X167475000Y-64315000D02*
X167475000Y-65260000D01*
X167475000Y-66820000D02*
X167475000Y-67765000D01*
X167515000Y-64341000D02*
X167515000Y-65260000D01*
X167515000Y-66820000D02*
X167515000Y-67739000D01*
X167555000Y-64368000D02*
X167555000Y-65260000D01*
X167555000Y-66820000D02*
X167555000Y-67712000D01*
X167595000Y-64397000D02*
X167595000Y-65260000D01*
X167595000Y-66820000D02*
X167595000Y-67683000D01*
X167635000Y-64427000D02*
X167635000Y-65260000D01*
X167635000Y-66820000D02*
X167635000Y-67653000D01*
X167675000Y-64459000D02*
X167675000Y-65260000D01*
X167675000Y-66820000D02*
X167675000Y-67621000D01*
X167715000Y-64493000D02*
X167715000Y-65260000D01*
X167715000Y-66820000D02*
X167715000Y-67587000D01*
X167755000Y-64528000D02*
X167755000Y-65260000D01*
X167755000Y-66820000D02*
X167755000Y-67552000D01*
X167795000Y-64565000D02*
X167795000Y-65260000D01*
X167795000Y-66820000D02*
X167795000Y-67515000D01*
X167835000Y-64604000D02*
X167835000Y-65260000D01*
X167835000Y-66820000D02*
X167835000Y-67476000D01*
X167875000Y-64645000D02*
X167875000Y-65260000D01*
X167875000Y-66820000D02*
X167875000Y-67435000D01*
X167915000Y-64689000D02*
X167915000Y-65260000D01*
X167915000Y-66820000D02*
X167915000Y-67391000D01*
X167955000Y-64735000D02*
X167955000Y-65260000D01*
X167955000Y-66820000D02*
X167955000Y-67345000D01*
X167995000Y-64784000D02*
X167995000Y-65260000D01*
X167995000Y-66820000D02*
X167995000Y-67296000D01*
X168035000Y-64836000D02*
X168035000Y-65260000D01*
X168035000Y-66820000D02*
X168035000Y-67244000D01*
X168075000Y-64892000D02*
X168075000Y-65260000D01*
X168075000Y-66820000D02*
X168075000Y-67188000D01*
X168115000Y-64952000D02*
X168115000Y-65260000D01*
X168115000Y-66820000D02*
X168115000Y-67128000D01*
X168155000Y-65017000D02*
X168155000Y-67063000D01*
X168195000Y-65088000D02*
X168195000Y-66992000D01*
X168235000Y-65166000D02*
X168235000Y-66914000D01*
X168275000Y-65254000D02*
X168275000Y-66826000D01*
X168315000Y-65354000D02*
X168315000Y-66726000D01*
X168355000Y-65473000D02*
X168355000Y-66607000D01*
X168395000Y-65625000D02*
X168395000Y-66455000D01*
X168435000Y-65875000D02*
X168435000Y-66205000D01*
X163654000Y-66040000D02*
X164554000Y-66040000D01*
X164104000Y-65590000D02*
X164104000Y-66490000D01*
X168293361Y-65260911D02*
G75*
G03X164415005Y-65260000I-1939361J-779089D01*
G01*
X168293361Y-66819089D02*
G75*
G02X164415005Y-66820000I-1939361J779089D01*
G01*
X168293361Y-66819089D02*
G75*
G03X168292995Y-65260000I-1939361J779089D01*
G01*
X196890000Y-82640000D02*
X196890000Y-87460000D01*
X194270000Y-82640000D02*
X194270000Y-87460000D01*
X196890000Y-82640000D02*
X196576000Y-82640000D01*
X194584000Y-82640000D02*
X194270000Y-82640000D01*
X196890000Y-87460000D02*
X196576000Y-87460000D01*
X194584000Y-87460000D02*
X194270000Y-87460000D01*
X213106000Y-132080000D02*
G75*
G03X213106000Y-132080000I-2286000J0D01*
G01*
X122936000Y-132080000D02*
G75*
G03X122936000Y-132080000I-2286000J0D01*
G01*
X213106000Y-43815000D02*
G75*
G03X213106000Y-43815000I-2286000J0D01*
G01*
X122936000Y-43815000D02*
G75*
G03X122936000Y-43815000I-2286000J0D01*
G01*
X121980000Y-83820000D02*
X121980000Y-81220000D01*
X121980000Y-81220000D02*
X119320000Y-81220000D01*
X119320000Y-81220000D02*
X119320000Y-83820000D01*
X119320000Y-83820000D02*
X121980000Y-83820000D01*
X121980000Y-85090000D02*
X121980000Y-86420000D01*
X121980000Y-86420000D02*
X120650000Y-86420000D01*
X188780000Y-44449538D02*
G75*
G03X194330000Y-45994830I2990000J-462D01*
G01*
X188780000Y-44450462D02*
G75*
G02X194330000Y-42905170I2990000J462D01*
G01*
X194270000Y-44450000D02*
G75*
G03X194270000Y-44450000I-2500000J0D01*
G01*
X194330000Y-45995000D02*
X194330000Y-42905000D01*
X183445000Y-47050000D02*
X183445000Y-44450000D01*
X183445000Y-44450000D02*
X180825000Y-44450000D01*
X180825000Y-44450000D02*
X180825000Y-47050000D01*
X180825000Y-47050000D02*
X183445000Y-47050000D01*
X180825000Y-46100000D02*
X180825000Y-45340000D01*
X180825000Y-45340000D02*
X174825000Y-45340000D01*
X174825000Y-45340000D02*
X174825000Y-46100000D01*
X174825000Y-46100000D02*
X180825000Y-46100000D01*
X183875000Y-46100000D02*
X183445000Y-46100000D01*
X183875000Y-45340000D02*
X183445000Y-45340000D01*
X180825000Y-45980000D02*
X174825000Y-45980000D01*
X180825000Y-45860000D02*
X174825000Y-45860000D01*
X180825000Y-45740000D02*
X174825000Y-45740000D01*
X180825000Y-45620000D02*
X174825000Y-45620000D01*
X180825000Y-45500000D02*
X174825000Y-45500000D01*
X180825000Y-45380000D02*
X174825000Y-45380000D01*
X183445000Y-44450000D02*
X183445000Y-41850000D01*
X183445000Y-41850000D02*
X180825000Y-41850000D01*
X180825000Y-41850000D02*
X180825000Y-44450000D01*
X180825000Y-44450000D02*
X183445000Y-44450000D01*
X180825000Y-43560000D02*
X180825000Y-42800000D01*
X180825000Y-42800000D02*
X174825000Y-42800000D01*
X174825000Y-42800000D02*
X174825000Y-43560000D01*
X174825000Y-43560000D02*
X180825000Y-43560000D01*
X183875000Y-43560000D02*
X183445000Y-43560000D01*
X183875000Y-42800000D02*
X183445000Y-42800000D01*
X186055000Y-45720000D02*
X186055000Y-46990000D01*
X186055000Y-46990000D02*
X184785000Y-46990000D01*
X193675000Y-93405000D02*
X198815000Y-93405000D01*
X198815000Y-93405000D02*
X198815000Y-90745000D01*
X198815000Y-90745000D02*
X193675000Y-90745000D01*
X193675000Y-90745000D02*
X193675000Y-93405000D01*
X192405000Y-93405000D02*
X191075000Y-93405000D01*
X191075000Y-93405000D02*
X191075000Y-92075000D01*
X203835000Y-93405000D02*
X208975000Y-93405000D01*
X208975000Y-93405000D02*
X208975000Y-90745000D01*
X208975000Y-90745000D02*
X203835000Y-90745000D01*
X203835000Y-90745000D02*
X203835000Y-93405000D01*
X202565000Y-93405000D02*
X201235000Y-93405000D01*
X201235000Y-93405000D02*
X201235000Y-92075000D01*
X161325000Y-78145000D02*
X161325000Y-75525000D01*
X161325000Y-75525000D02*
X154905000Y-75525000D01*
X154905000Y-75525000D02*
X154905000Y-78145000D01*
X154905000Y-78145000D02*
X161325000Y-78145000D01*
X162215000Y-76835000D02*
X161325000Y-76835000D01*
X154015000Y-76835000D02*
X154905000Y-76835000D01*
X122265000Y-48910000D02*
X122265000Y-61060000D01*
X142415000Y-48160000D02*
X123015000Y-48160000D01*
X143165000Y-60310000D02*
X143165000Y-48910000D01*
X122265000Y-61060000D02*
X142415000Y-61060000D01*
X142415000Y-61060000D02*
G75*
G03X143165000Y-60310000I0J750000D01*
G01*
X143165000Y-48910000D02*
G75*
G03X142415000Y-48160000I-750000J0D01*
G01*
X123015000Y-48160000D02*
G75*
G03X122265000Y-48910000I0J-750000D01*
G01*
X210125000Y-124520000D02*
X212785000Y-124520000D01*
X210125000Y-119380000D02*
X210125000Y-124520000D01*
X212785000Y-119380000D02*
X212785000Y-124520000D01*
X210125000Y-119380000D02*
X212785000Y-119380000D01*
X210125000Y-118110000D02*
X210125000Y-116780000D01*
X210125000Y-116780000D02*
X211455000Y-116780000D01*
X175955000Y-134045000D02*
X175955000Y-131385000D01*
X170815000Y-134045000D02*
X175955000Y-134045000D01*
X170815000Y-131385000D02*
X175955000Y-131385000D01*
X170815000Y-134045000D02*
X170815000Y-131385000D01*
X169545000Y-134045000D02*
X168215000Y-134045000D01*
X168215000Y-134045000D02*
X168215000Y-132715000D01*
X119955000Y-120075000D02*
X122615000Y-120075000D01*
X119955000Y-114935000D02*
X119955000Y-120075000D01*
X122615000Y-114935000D02*
X122615000Y-120075000D01*
X119955000Y-114935000D02*
X122615000Y-114935000D01*
X119955000Y-113665000D02*
X119955000Y-112335000D01*
X119955000Y-112335000D02*
X121285000Y-112335000D01*
X150555000Y-62925000D02*
X150555000Y-60265000D01*
X147955000Y-62925000D02*
X150555000Y-62925000D01*
X147955000Y-60265000D02*
X150555000Y-60265000D01*
X147955000Y-62925000D02*
X147955000Y-60265000D01*
X146685000Y-62925000D02*
X145355000Y-62925000D01*
X145355000Y-62925000D02*
X145355000Y-61595000D01*
D13*
X154813095Y-84542381D02*
X154813095Y-85351905D01*
X154860714Y-85447143D01*
X154908333Y-85494762D01*
X155003571Y-85542381D01*
X155194048Y-85542381D01*
X155289286Y-85494762D01*
X155336905Y-85447143D01*
X155384524Y-85351905D01*
X155384524Y-84542381D01*
X156384524Y-85542381D02*
X155813095Y-85542381D01*
X156098809Y-85542381D02*
X156098809Y-84542381D01*
X156003571Y-84685238D01*
X155908333Y-84780476D01*
X155813095Y-84828095D01*
X152241667Y-87082381D02*
X152479762Y-88082381D01*
X152670239Y-87368095D01*
X152860715Y-88082381D01*
X153098810Y-87082381D01*
X153479762Y-88082381D02*
X153479762Y-87082381D01*
X153717857Y-87082381D01*
X153860715Y-87130000D01*
X153955953Y-87225238D01*
X154003572Y-87320476D01*
X154051191Y-87510952D01*
X154051191Y-87653810D01*
X154003572Y-87844286D01*
X153955953Y-87939524D01*
X153860715Y-88034762D01*
X153717857Y-88082381D01*
X153479762Y-88082381D01*
X154908334Y-87082381D02*
X154717857Y-87082381D01*
X154622619Y-87130000D01*
X154575000Y-87177619D01*
X154479762Y-87320476D01*
X154432143Y-87510952D01*
X154432143Y-87891905D01*
X154479762Y-87987143D01*
X154527381Y-88034762D01*
X154622619Y-88082381D01*
X154813096Y-88082381D01*
X154908334Y-88034762D01*
X154955953Y-87987143D01*
X155003572Y-87891905D01*
X155003572Y-87653810D01*
X154955953Y-87558571D01*
X154908334Y-87510952D01*
X154813096Y-87463333D01*
X154622619Y-87463333D01*
X154527381Y-87510952D01*
X154479762Y-87558571D01*
X154432143Y-87653810D01*
X155908334Y-87082381D02*
X155432143Y-87082381D01*
X155384524Y-87558571D01*
X155432143Y-87510952D01*
X155527381Y-87463333D01*
X155765477Y-87463333D01*
X155860715Y-87510952D01*
X155908334Y-87558571D01*
X155955953Y-87653810D01*
X155955953Y-87891905D01*
X155908334Y-87987143D01*
X155860715Y-88034762D01*
X155765477Y-88082381D01*
X155527381Y-88082381D01*
X155432143Y-88034762D01*
X155384524Y-87987143D01*
X156955953Y-87987143D02*
X156908334Y-88034762D01*
X156765477Y-88082381D01*
X156670239Y-88082381D01*
X156527381Y-88034762D01*
X156432143Y-87939524D01*
X156384524Y-87844286D01*
X156336905Y-87653810D01*
X156336905Y-87510952D01*
X156384524Y-87320476D01*
X156432143Y-87225238D01*
X156527381Y-87130000D01*
X156670239Y-87082381D01*
X156765477Y-87082381D01*
X156908334Y-87130000D01*
X156955953Y-87177619D01*
X157575000Y-87082381D02*
X157670239Y-87082381D01*
X157765477Y-87130000D01*
X157813096Y-87177619D01*
X157860715Y-87272857D01*
X157908334Y-87463333D01*
X157908334Y-87701429D01*
X157860715Y-87891905D01*
X157813096Y-87987143D01*
X157765477Y-88034762D01*
X157670239Y-88082381D01*
X157575000Y-88082381D01*
X157479762Y-88034762D01*
X157432143Y-87987143D01*
X157384524Y-87891905D01*
X157336905Y-87701429D01*
X157336905Y-87463333D01*
X157384524Y-87272857D01*
X157432143Y-87177619D01*
X157479762Y-87130000D01*
X157575000Y-87082381D01*
X158289286Y-87177619D02*
X158336905Y-87130000D01*
X158432143Y-87082381D01*
X158670239Y-87082381D01*
X158765477Y-87130000D01*
X158813096Y-87177619D01*
X158860715Y-87272857D01*
X158860715Y-87368095D01*
X158813096Y-87510952D01*
X158241667Y-88082381D01*
X158860715Y-88082381D01*
X143978334Y-99417143D02*
X143930715Y-99464762D01*
X143787858Y-99512381D01*
X143692620Y-99512381D01*
X143549762Y-99464762D01*
X143454524Y-99369524D01*
X143406905Y-99274286D01*
X143359286Y-99083810D01*
X143359286Y-98940952D01*
X143406905Y-98750476D01*
X143454524Y-98655238D01*
X143549762Y-98560000D01*
X143692620Y-98512381D01*
X143787858Y-98512381D01*
X143930715Y-98560000D01*
X143978334Y-98607619D01*
X144930715Y-99512381D02*
X144359286Y-99512381D01*
X144645000Y-99512381D02*
X144645000Y-98512381D01*
X144549762Y-98655238D01*
X144454524Y-98750476D01*
X144359286Y-98798095D01*
X188428334Y-98782143D02*
X188380715Y-98829762D01*
X188237858Y-98877381D01*
X188142620Y-98877381D01*
X187999762Y-98829762D01*
X187904524Y-98734524D01*
X187856905Y-98639286D01*
X187809286Y-98448810D01*
X187809286Y-98305952D01*
X187856905Y-98115476D01*
X187904524Y-98020238D01*
X187999762Y-97925000D01*
X188142620Y-97877381D01*
X188237858Y-97877381D01*
X188380715Y-97925000D01*
X188428334Y-97972619D01*
X188809286Y-97972619D02*
X188856905Y-97925000D01*
X188952143Y-97877381D01*
X189190239Y-97877381D01*
X189285477Y-97925000D01*
X189333096Y-97972619D01*
X189380715Y-98067857D01*
X189380715Y-98163095D01*
X189333096Y-98305952D01*
X188761667Y-98877381D01*
X189380715Y-98877381D01*
X211288334Y-98782143D02*
X211240715Y-98829762D01*
X211097858Y-98877381D01*
X211002620Y-98877381D01*
X210859762Y-98829762D01*
X210764524Y-98734524D01*
X210716905Y-98639286D01*
X210669286Y-98448810D01*
X210669286Y-98305952D01*
X210716905Y-98115476D01*
X210764524Y-98020238D01*
X210859762Y-97925000D01*
X211002620Y-97877381D01*
X211097858Y-97877381D01*
X211240715Y-97925000D01*
X211288334Y-97972619D01*
X212145477Y-98210714D02*
X212145477Y-98877381D01*
X211907381Y-97829762D02*
X211669286Y-98544048D01*
X212288334Y-98544048D01*
X211288334Y-74652143D02*
X211240715Y-74699762D01*
X211097858Y-74747381D01*
X211002620Y-74747381D01*
X210859762Y-74699762D01*
X210764524Y-74604524D01*
X210716905Y-74509286D01*
X210669286Y-74318810D01*
X210669286Y-74175952D01*
X210716905Y-73985476D01*
X210764524Y-73890238D01*
X210859762Y-73795000D01*
X211002620Y-73747381D01*
X211097858Y-73747381D01*
X211240715Y-73795000D01*
X211288334Y-73842619D01*
X212193096Y-73747381D02*
X211716905Y-73747381D01*
X211669286Y-74223571D01*
X211716905Y-74175952D01*
X211812143Y-74128333D01*
X212050239Y-74128333D01*
X212145477Y-74175952D01*
X212193096Y-74223571D01*
X212240715Y-74318810D01*
X212240715Y-74556905D01*
X212193096Y-74652143D01*
X212145477Y-74699762D01*
X212050239Y-74747381D01*
X211812143Y-74747381D01*
X211716905Y-74699762D01*
X211669286Y-74652143D01*
X157837143Y-59856666D02*
X157884762Y-59904285D01*
X157932381Y-60047142D01*
X157932381Y-60142380D01*
X157884762Y-60285238D01*
X157789524Y-60380476D01*
X157694286Y-60428095D01*
X157503810Y-60475714D01*
X157360952Y-60475714D01*
X157170476Y-60428095D01*
X157075238Y-60380476D01*
X156980000Y-60285238D01*
X156932381Y-60142380D01*
X156932381Y-60047142D01*
X156980000Y-59904285D01*
X157027619Y-59856666D01*
X156932381Y-58999523D02*
X156932381Y-59190000D01*
X156980000Y-59285238D01*
X157027619Y-59332857D01*
X157170476Y-59428095D01*
X157360952Y-59475714D01*
X157741905Y-59475714D01*
X157837143Y-59428095D01*
X157884762Y-59380476D01*
X157932381Y-59285238D01*
X157932381Y-59094761D01*
X157884762Y-58999523D01*
X157837143Y-58951904D01*
X157741905Y-58904285D01*
X157503810Y-58904285D01*
X157408571Y-58951904D01*
X157360952Y-58999523D01*
X157313333Y-59094761D01*
X157313333Y-59285238D01*
X157360952Y-59380476D01*
X157408571Y-59428095D01*
X157503810Y-59475714D01*
X195413334Y-74652143D02*
X195365715Y-74699762D01*
X195222858Y-74747381D01*
X195127620Y-74747381D01*
X194984762Y-74699762D01*
X194889524Y-74604524D01*
X194841905Y-74509286D01*
X194794286Y-74318810D01*
X194794286Y-74175952D01*
X194841905Y-73985476D01*
X194889524Y-73890238D01*
X194984762Y-73795000D01*
X195127620Y-73747381D01*
X195222858Y-73747381D01*
X195365715Y-73795000D01*
X195413334Y-73842619D01*
X195746667Y-73747381D02*
X196413334Y-73747381D01*
X195984762Y-74747381D01*
X121118334Y-125452143D02*
X121070715Y-125499762D01*
X120927858Y-125547381D01*
X120832620Y-125547381D01*
X120689762Y-125499762D01*
X120594524Y-125404524D01*
X120546905Y-125309286D01*
X120499286Y-125118810D01*
X120499286Y-124975952D01*
X120546905Y-124785476D01*
X120594524Y-124690238D01*
X120689762Y-124595000D01*
X120832620Y-124547381D01*
X120927858Y-124547381D01*
X121070715Y-124595000D01*
X121118334Y-124642619D01*
X121689762Y-124975952D02*
X121594524Y-124928333D01*
X121546905Y-124880714D01*
X121499286Y-124785476D01*
X121499286Y-124737857D01*
X121546905Y-124642619D01*
X121594524Y-124595000D01*
X121689762Y-124547381D01*
X121880239Y-124547381D01*
X121975477Y-124595000D01*
X122023096Y-124642619D01*
X122070715Y-124737857D01*
X122070715Y-124785476D01*
X122023096Y-124880714D01*
X121975477Y-124928333D01*
X121880239Y-124975952D01*
X121689762Y-124975952D01*
X121594524Y-125023571D01*
X121546905Y-125071190D01*
X121499286Y-125166429D01*
X121499286Y-125356905D01*
X121546905Y-125452143D01*
X121594524Y-125499762D01*
X121689762Y-125547381D01*
X121880239Y-125547381D01*
X121975477Y-125499762D01*
X122023096Y-125452143D01*
X122070715Y-125356905D01*
X122070715Y-125166429D01*
X122023096Y-125071190D01*
X121975477Y-125023571D01*
X121880239Y-124975952D01*
X146518334Y-77192143D02*
X146470715Y-77239762D01*
X146327858Y-77287381D01*
X146232620Y-77287381D01*
X146089762Y-77239762D01*
X145994524Y-77144524D01*
X145946905Y-77049286D01*
X145899286Y-76858810D01*
X145899286Y-76715952D01*
X145946905Y-76525476D01*
X145994524Y-76430238D01*
X146089762Y-76335000D01*
X146232620Y-76287381D01*
X146327858Y-76287381D01*
X146470715Y-76335000D01*
X146518334Y-76382619D01*
X146994524Y-77287381D02*
X147185000Y-77287381D01*
X147280239Y-77239762D01*
X147327858Y-77192143D01*
X147423096Y-77049286D01*
X147470715Y-76858810D01*
X147470715Y-76477857D01*
X147423096Y-76382619D01*
X147375477Y-76335000D01*
X147280239Y-76287381D01*
X147089762Y-76287381D01*
X146994524Y-76335000D01*
X146946905Y-76382619D01*
X146899286Y-76477857D01*
X146899286Y-76715952D01*
X146946905Y-76811190D01*
X146994524Y-76858810D01*
X147089762Y-76906429D01*
X147280239Y-76906429D01*
X147375477Y-76858810D01*
X147423096Y-76811190D01*
X147470715Y-76715952D01*
X156837143Y-51792143D02*
X156789524Y-51839762D01*
X156646667Y-51887381D01*
X156551429Y-51887381D01*
X156408571Y-51839762D01*
X156313333Y-51744524D01*
X156265714Y-51649286D01*
X156218095Y-51458810D01*
X156218095Y-51315952D01*
X156265714Y-51125476D01*
X156313333Y-51030238D01*
X156408571Y-50935000D01*
X156551429Y-50887381D01*
X156646667Y-50887381D01*
X156789524Y-50935000D01*
X156837143Y-50982619D01*
X157789524Y-51887381D02*
X157218095Y-51887381D01*
X157503809Y-51887381D02*
X157503809Y-50887381D01*
X157408571Y-51030238D01*
X157313333Y-51125476D01*
X157218095Y-51173095D01*
X158741905Y-51887381D02*
X158170476Y-51887381D01*
X158456190Y-51887381D02*
X158456190Y-50887381D01*
X158360952Y-51030238D01*
X158265714Y-51125476D01*
X158170476Y-51173095D01*
X180427381Y-58118333D02*
X181141667Y-58118333D01*
X181284524Y-58165953D01*
X181379762Y-58261191D01*
X181427381Y-58404048D01*
X181427381Y-58499286D01*
X180522619Y-57689762D02*
X180475000Y-57642143D01*
X180427381Y-57546905D01*
X180427381Y-57308809D01*
X180475000Y-57213571D01*
X180522619Y-57165952D01*
X180617857Y-57118333D01*
X180713095Y-57118333D01*
X180855952Y-57165952D01*
X181427381Y-57737381D01*
X181427381Y-57118333D01*
X192627857Y-57951667D02*
X193104048Y-57951667D01*
X192532619Y-58237381D02*
X192865952Y-57237381D01*
X193199286Y-58237381D01*
X193532619Y-58237381D02*
X193532619Y-57570714D01*
X193532619Y-57761190D02*
X193580238Y-57665952D01*
X193627857Y-57618333D01*
X193723095Y-57570714D01*
X193818334Y-57570714D01*
X194580239Y-58237381D02*
X194580239Y-57237381D01*
X194580239Y-58189762D02*
X194485001Y-58237381D01*
X194294524Y-58237381D01*
X194199286Y-58189762D01*
X194151667Y-58142143D01*
X194104048Y-58046905D01*
X194104048Y-57761190D01*
X194151667Y-57665952D01*
X194199286Y-57618333D01*
X194294524Y-57570714D01*
X194485001Y-57570714D01*
X194580239Y-57618333D01*
X195485001Y-57570714D02*
X195485001Y-58237381D01*
X195056429Y-57570714D02*
X195056429Y-58094524D01*
X195104048Y-58189762D01*
X195199286Y-58237381D01*
X195342144Y-58237381D01*
X195437382Y-58189762D01*
X195485001Y-58142143D01*
X195961191Y-58237381D02*
X195961191Y-57570714D01*
X195961191Y-57237381D02*
X195913572Y-57285000D01*
X195961191Y-57332619D01*
X196008810Y-57285000D01*
X195961191Y-57237381D01*
X195961191Y-57332619D01*
X196437381Y-57570714D02*
X196437381Y-58237381D01*
X196437381Y-57665952D02*
X196485000Y-57618333D01*
X196580238Y-57570714D01*
X196723096Y-57570714D01*
X196818334Y-57618333D01*
X196865953Y-57713571D01*
X196865953Y-58237381D01*
X197485000Y-58237381D02*
X197389762Y-58189762D01*
X197342143Y-58142143D01*
X197294524Y-58046905D01*
X197294524Y-57761190D01*
X197342143Y-57665952D01*
X197389762Y-57618333D01*
X197485000Y-57570714D01*
X197627858Y-57570714D01*
X197723096Y-57618333D01*
X197770715Y-57665952D01*
X197818334Y-57761190D01*
X197818334Y-58046905D01*
X197770715Y-58142143D01*
X197723096Y-58189762D01*
X197627858Y-58237381D01*
X197485000Y-58237381D01*
X199008810Y-58237381D02*
X199008810Y-57237381D01*
X199580239Y-58237381D01*
X199580239Y-57237381D01*
X200485001Y-58237381D02*
X200485001Y-57713571D01*
X200437382Y-57618333D01*
X200342144Y-57570714D01*
X200151667Y-57570714D01*
X200056429Y-57618333D01*
X200485001Y-58189762D02*
X200389763Y-58237381D01*
X200151667Y-58237381D01*
X200056429Y-58189762D01*
X200008810Y-58094524D01*
X200008810Y-57999286D01*
X200056429Y-57904048D01*
X200151667Y-57856429D01*
X200389763Y-57856429D01*
X200485001Y-57808810D01*
X200961191Y-57570714D02*
X200961191Y-58237381D01*
X200961191Y-57665952D02*
X201008810Y-57618333D01*
X201104048Y-57570714D01*
X201246906Y-57570714D01*
X201342144Y-57618333D01*
X201389763Y-57713571D01*
X201389763Y-58237381D01*
X202008810Y-58237381D02*
X201913572Y-58189762D01*
X201865953Y-58142143D01*
X201818334Y-58046905D01*
X201818334Y-57761190D01*
X201865953Y-57665952D01*
X201913572Y-57618333D01*
X202008810Y-57570714D01*
X202151668Y-57570714D01*
X202246906Y-57618333D01*
X202294525Y-57665952D01*
X202342144Y-57761190D01*
X202342144Y-58046905D01*
X202294525Y-58142143D01*
X202246906Y-58189762D01*
X202151668Y-58237381D01*
X202008810Y-58237381D01*
X215717381Y-142443333D02*
X216431667Y-142443333D01*
X216574524Y-142490953D01*
X216669762Y-142586191D01*
X216717381Y-142729048D01*
X216717381Y-142824286D01*
X215717381Y-142062381D02*
X215717381Y-141443333D01*
X216098333Y-141776667D01*
X216098333Y-141633809D01*
X216145952Y-141538571D01*
X216193571Y-141490952D01*
X216288810Y-141443333D01*
X216526905Y-141443333D01*
X216622143Y-141490952D01*
X216669762Y-141538571D01*
X216717381Y-141633809D01*
X216717381Y-141919524D01*
X216669762Y-142014762D01*
X216622143Y-142062381D01*
X211288334Y-107767381D02*
X210955000Y-107291190D01*
X210716905Y-107767381D02*
X210716905Y-106767381D01*
X211097858Y-106767381D01*
X211193096Y-106815000D01*
X211240715Y-106862619D01*
X211288334Y-106957857D01*
X211288334Y-107100714D01*
X211240715Y-107195952D01*
X211193096Y-107243571D01*
X211097858Y-107291190D01*
X210716905Y-107291190D01*
X212240715Y-107767381D02*
X211669286Y-107767381D01*
X211955000Y-107767381D02*
X211955000Y-106767381D01*
X211859762Y-106910238D01*
X211764524Y-107005476D01*
X211669286Y-107053095D01*
X210907381Y-111942381D02*
X210907381Y-111323333D01*
X211288333Y-111656667D01*
X211288333Y-111513809D01*
X211335952Y-111418571D01*
X211383571Y-111370952D01*
X211478810Y-111323333D01*
X211716905Y-111323333D01*
X211812143Y-111370952D01*
X211859762Y-111418571D01*
X211907381Y-111513809D01*
X211907381Y-111799524D01*
X211859762Y-111894762D01*
X211812143Y-111942381D01*
X211812143Y-110894762D02*
X211859762Y-110847143D01*
X211907381Y-110894762D01*
X211859762Y-110942381D01*
X211812143Y-110894762D01*
X211907381Y-110894762D01*
X210907381Y-110513810D02*
X210907381Y-109894762D01*
X211288333Y-110228096D01*
X211288333Y-110085238D01*
X211335952Y-109990000D01*
X211383571Y-109942381D01*
X211478810Y-109894762D01*
X211716905Y-109894762D01*
X211812143Y-109942381D01*
X211859762Y-109990000D01*
X211907381Y-110085238D01*
X211907381Y-110370953D01*
X211859762Y-110466191D01*
X211812143Y-110513810D01*
X211907381Y-109466191D02*
X210907381Y-109466191D01*
X211526429Y-109370953D02*
X211907381Y-109085238D01*
X211240714Y-109085238D02*
X211621667Y-109466191D01*
X164917381Y-50331666D02*
X164441190Y-50665000D01*
X164917381Y-50903095D02*
X163917381Y-50903095D01*
X163917381Y-50522142D01*
X163965000Y-50426904D01*
X164012619Y-50379285D01*
X164107857Y-50331666D01*
X164250714Y-50331666D01*
X164345952Y-50379285D01*
X164393571Y-50426904D01*
X164441190Y-50522142D01*
X164441190Y-50903095D01*
X164012619Y-49950714D02*
X163965000Y-49903095D01*
X163917381Y-49807857D01*
X163917381Y-49569761D01*
X163965000Y-49474523D01*
X164012619Y-49426904D01*
X164107857Y-49379285D01*
X164203095Y-49379285D01*
X164345952Y-49426904D01*
X164917381Y-49998333D01*
X164917381Y-49379285D01*
X167354286Y-50617381D02*
X166782857Y-50617381D01*
X167068571Y-50617381D02*
X167068571Y-49617381D01*
X166973333Y-49760238D01*
X166878095Y-49855476D01*
X166782857Y-49903095D01*
X167782857Y-50617381D02*
X167782857Y-49617381D01*
X168116191Y-50331667D01*
X168449524Y-49617381D01*
X168449524Y-50617381D01*
X164917381Y-55411666D02*
X164441190Y-55745000D01*
X164917381Y-55983095D02*
X163917381Y-55983095D01*
X163917381Y-55602142D01*
X163965000Y-55506904D01*
X164012619Y-55459285D01*
X164107857Y-55411666D01*
X164250714Y-55411666D01*
X164345952Y-55459285D01*
X164393571Y-55506904D01*
X164441190Y-55602142D01*
X164441190Y-55983095D01*
X163917381Y-55078333D02*
X163917381Y-54459285D01*
X164298333Y-54792619D01*
X164298333Y-54649761D01*
X164345952Y-54554523D01*
X164393571Y-54506904D01*
X164488810Y-54459285D01*
X164726905Y-54459285D01*
X164822143Y-54506904D01*
X164869762Y-54554523D01*
X164917381Y-54649761D01*
X164917381Y-54935476D01*
X164869762Y-55030714D01*
X164822143Y-55078333D01*
X166949524Y-55030714D02*
X166949524Y-55697381D01*
X166711428Y-54649762D02*
X166473333Y-55364048D01*
X167092381Y-55364048D01*
X167378095Y-54697381D02*
X168044762Y-54697381D01*
X167616190Y-55697381D01*
X168425714Y-55697381D02*
X168425714Y-54697381D01*
X168520952Y-55316429D02*
X168806667Y-55697381D01*
X168806667Y-55030714D02*
X168425714Y-55411667D01*
X164917381Y-60491666D02*
X164441190Y-60825000D01*
X164917381Y-61063095D02*
X163917381Y-61063095D01*
X163917381Y-60682142D01*
X163965000Y-60586904D01*
X164012619Y-60539285D01*
X164107857Y-60491666D01*
X164250714Y-60491666D01*
X164345952Y-60539285D01*
X164393571Y-60586904D01*
X164441190Y-60682142D01*
X164441190Y-61063095D01*
X164250714Y-59634523D02*
X164917381Y-59634523D01*
X163869762Y-59872619D02*
X164584048Y-60110714D01*
X164584048Y-59491666D01*
X167520953Y-60777381D02*
X166949524Y-60777381D01*
X167235238Y-60777381D02*
X167235238Y-59777381D01*
X167140000Y-59920238D01*
X167044762Y-60015476D01*
X166949524Y-60063095D01*
X167949524Y-60777381D02*
X167949524Y-59777381D01*
X168044762Y-60396429D02*
X168330477Y-60777381D01*
X168330477Y-60110714D02*
X167949524Y-60491667D01*
X182062381Y-54776666D02*
X181586190Y-55110000D01*
X182062381Y-55348095D02*
X181062381Y-55348095D01*
X181062381Y-54967142D01*
X181110000Y-54871904D01*
X181157619Y-54824285D01*
X181252857Y-54776666D01*
X181395714Y-54776666D01*
X181490952Y-54824285D01*
X181538571Y-54871904D01*
X181586190Y-54967142D01*
X181586190Y-55348095D01*
X181062381Y-53871904D02*
X181062381Y-54348095D01*
X181538571Y-54395714D01*
X181490952Y-54348095D01*
X181443333Y-54252857D01*
X181443333Y-54014761D01*
X181490952Y-53919523D01*
X181538571Y-53871904D01*
X181633810Y-53824285D01*
X181871905Y-53824285D01*
X181967143Y-53871904D01*
X182014762Y-53919523D01*
X182062381Y-54014761D01*
X182062381Y-54252857D01*
X182014762Y-54348095D01*
X181967143Y-54395714D01*
X183499286Y-54062381D02*
X184118334Y-54062381D01*
X183785000Y-54443333D01*
X183927858Y-54443333D01*
X184023096Y-54490952D01*
X184070715Y-54538571D01*
X184118334Y-54633810D01*
X184118334Y-54871905D01*
X184070715Y-54967143D01*
X184023096Y-55014762D01*
X183927858Y-55062381D01*
X183642143Y-55062381D01*
X183546905Y-55014762D01*
X183499286Y-54967143D01*
X184451667Y-54062381D02*
X185070715Y-54062381D01*
X184737381Y-54443333D01*
X184880239Y-54443333D01*
X184975477Y-54490952D01*
X185023096Y-54538571D01*
X185070715Y-54633810D01*
X185070715Y-54871905D01*
X185023096Y-54967143D01*
X184975477Y-55014762D01*
X184880239Y-55062381D01*
X184594524Y-55062381D01*
X184499286Y-55014762D01*
X184451667Y-54967143D01*
X185689762Y-54062381D02*
X185785001Y-54062381D01*
X185880239Y-54110000D01*
X185927858Y-54157619D01*
X185975477Y-54252857D01*
X186023096Y-54443333D01*
X186023096Y-54681429D01*
X185975477Y-54871905D01*
X185927858Y-54967143D01*
X185880239Y-55014762D01*
X185785001Y-55062381D01*
X185689762Y-55062381D01*
X185594524Y-55014762D01*
X185546905Y-54967143D01*
X185499286Y-54871905D01*
X185451667Y-54681429D01*
X185451667Y-54443333D01*
X185499286Y-54252857D01*
X185546905Y-54157619D01*
X185594524Y-54110000D01*
X185689762Y-54062381D01*
X143978334Y-121102381D02*
X143645000Y-120626190D01*
X143406905Y-121102381D02*
X143406905Y-120102381D01*
X143787858Y-120102381D01*
X143883096Y-120150000D01*
X143930715Y-120197619D01*
X143978334Y-120292857D01*
X143978334Y-120435714D01*
X143930715Y-120530952D01*
X143883096Y-120578571D01*
X143787858Y-120626190D01*
X143406905Y-120626190D01*
X144835477Y-120102381D02*
X144645000Y-120102381D01*
X144549762Y-120150000D01*
X144502143Y-120197619D01*
X144406905Y-120340476D01*
X144359286Y-120530952D01*
X144359286Y-120911905D01*
X144406905Y-121007143D01*
X144454524Y-121054762D01*
X144549762Y-121102381D01*
X144740239Y-121102381D01*
X144835477Y-121054762D01*
X144883096Y-121007143D01*
X144930715Y-120911905D01*
X144930715Y-120673810D01*
X144883096Y-120578571D01*
X144835477Y-120530952D01*
X144740239Y-120483333D01*
X144549762Y-120483333D01*
X144454524Y-120530952D01*
X144406905Y-120578571D01*
X144359286Y-120673810D01*
X143597381Y-125277381D02*
X143597381Y-124658333D01*
X143978333Y-124991667D01*
X143978333Y-124848809D01*
X144025952Y-124753571D01*
X144073571Y-124705952D01*
X144168810Y-124658333D01*
X144406905Y-124658333D01*
X144502143Y-124705952D01*
X144549762Y-124753571D01*
X144597381Y-124848809D01*
X144597381Y-125134524D01*
X144549762Y-125229762D01*
X144502143Y-125277381D01*
X144502143Y-124229762D02*
X144549762Y-124182143D01*
X144597381Y-124229762D01*
X144549762Y-124277381D01*
X144502143Y-124229762D01*
X144597381Y-124229762D01*
X143597381Y-123848810D02*
X143597381Y-123229762D01*
X143978333Y-123563096D01*
X143978333Y-123420238D01*
X144025952Y-123325000D01*
X144073571Y-123277381D01*
X144168810Y-123229762D01*
X144406905Y-123229762D01*
X144502143Y-123277381D01*
X144549762Y-123325000D01*
X144597381Y-123420238D01*
X144597381Y-123705953D01*
X144549762Y-123801191D01*
X144502143Y-123848810D01*
X144597381Y-122801191D02*
X143597381Y-122801191D01*
X144216429Y-122705953D02*
X144597381Y-122420238D01*
X143930714Y-122420238D02*
X144311667Y-122801191D01*
X143978334Y-107767381D02*
X143645000Y-107291190D01*
X143406905Y-107767381D02*
X143406905Y-106767381D01*
X143787858Y-106767381D01*
X143883096Y-106815000D01*
X143930715Y-106862619D01*
X143978334Y-106957857D01*
X143978334Y-107100714D01*
X143930715Y-107195952D01*
X143883096Y-107243571D01*
X143787858Y-107291190D01*
X143406905Y-107291190D01*
X144311667Y-106767381D02*
X144978334Y-106767381D01*
X144549762Y-107767381D01*
X143597381Y-111942381D02*
X143597381Y-111323333D01*
X143978333Y-111656667D01*
X143978333Y-111513809D01*
X144025952Y-111418571D01*
X144073571Y-111370952D01*
X144168810Y-111323333D01*
X144406905Y-111323333D01*
X144502143Y-111370952D01*
X144549762Y-111418571D01*
X144597381Y-111513809D01*
X144597381Y-111799524D01*
X144549762Y-111894762D01*
X144502143Y-111942381D01*
X144502143Y-110894762D02*
X144549762Y-110847143D01*
X144597381Y-110894762D01*
X144549762Y-110942381D01*
X144502143Y-110894762D01*
X144597381Y-110894762D01*
X143597381Y-110513810D02*
X143597381Y-109894762D01*
X143978333Y-110228096D01*
X143978333Y-110085238D01*
X144025952Y-109990000D01*
X144073571Y-109942381D01*
X144168810Y-109894762D01*
X144406905Y-109894762D01*
X144502143Y-109942381D01*
X144549762Y-109990000D01*
X144597381Y-110085238D01*
X144597381Y-110370953D01*
X144549762Y-110466191D01*
X144502143Y-110513810D01*
X144597381Y-109466191D02*
X143597381Y-109466191D01*
X144216429Y-109370953D02*
X144597381Y-109085238D01*
X143930714Y-109085238D02*
X144311667Y-109466191D01*
X143978334Y-87447381D02*
X143645000Y-86971190D01*
X143406905Y-87447381D02*
X143406905Y-86447381D01*
X143787858Y-86447381D01*
X143883096Y-86495000D01*
X143930715Y-86542619D01*
X143978334Y-86637857D01*
X143978334Y-86780714D01*
X143930715Y-86875952D01*
X143883096Y-86923571D01*
X143787858Y-86971190D01*
X143406905Y-86971190D01*
X144549762Y-86875952D02*
X144454524Y-86828333D01*
X144406905Y-86780714D01*
X144359286Y-86685476D01*
X144359286Y-86637857D01*
X144406905Y-86542619D01*
X144454524Y-86495000D01*
X144549762Y-86447381D01*
X144740239Y-86447381D01*
X144835477Y-86495000D01*
X144883096Y-86542619D01*
X144930715Y-86637857D01*
X144930715Y-86685476D01*
X144883096Y-86780714D01*
X144835477Y-86828333D01*
X144740239Y-86875952D01*
X144549762Y-86875952D01*
X144454524Y-86923571D01*
X144406905Y-86971190D01*
X144359286Y-87066429D01*
X144359286Y-87256905D01*
X144406905Y-87352143D01*
X144454524Y-87399762D01*
X144549762Y-87447381D01*
X144740239Y-87447381D01*
X144835477Y-87399762D01*
X144883096Y-87352143D01*
X144930715Y-87256905D01*
X144930715Y-87066429D01*
X144883096Y-86971190D01*
X144835477Y-86923571D01*
X144740239Y-86875952D01*
X143597381Y-91622381D02*
X143597381Y-91003333D01*
X143978333Y-91336667D01*
X143978333Y-91193809D01*
X144025952Y-91098571D01*
X144073571Y-91050952D01*
X144168810Y-91003333D01*
X144406905Y-91003333D01*
X144502143Y-91050952D01*
X144549762Y-91098571D01*
X144597381Y-91193809D01*
X144597381Y-91479524D01*
X144549762Y-91574762D01*
X144502143Y-91622381D01*
X144502143Y-90574762D02*
X144549762Y-90527143D01*
X144597381Y-90574762D01*
X144549762Y-90622381D01*
X144502143Y-90574762D01*
X144597381Y-90574762D01*
X143597381Y-90193810D02*
X143597381Y-89574762D01*
X143978333Y-89908096D01*
X143978333Y-89765238D01*
X144025952Y-89670000D01*
X144073571Y-89622381D01*
X144168810Y-89574762D01*
X144406905Y-89574762D01*
X144502143Y-89622381D01*
X144549762Y-89670000D01*
X144597381Y-89765238D01*
X144597381Y-90050953D01*
X144549762Y-90146191D01*
X144502143Y-90193810D01*
X144597381Y-89146191D02*
X143597381Y-89146191D01*
X144216429Y-89050953D02*
X144597381Y-88765238D01*
X143930714Y-88765238D02*
X144311667Y-89146191D01*
X182062381Y-61126666D02*
X181586190Y-61460000D01*
X182062381Y-61698095D02*
X181062381Y-61698095D01*
X181062381Y-61317142D01*
X181110000Y-61221904D01*
X181157619Y-61174285D01*
X181252857Y-61126666D01*
X181395714Y-61126666D01*
X181490952Y-61174285D01*
X181538571Y-61221904D01*
X181586190Y-61317142D01*
X181586190Y-61698095D01*
X182062381Y-60650476D02*
X182062381Y-60460000D01*
X182014762Y-60364761D01*
X181967143Y-60317142D01*
X181824286Y-60221904D01*
X181633810Y-60174285D01*
X181252857Y-60174285D01*
X181157619Y-60221904D01*
X181110000Y-60269523D01*
X181062381Y-60364761D01*
X181062381Y-60555238D01*
X181110000Y-60650476D01*
X181157619Y-60698095D01*
X181252857Y-60745714D01*
X181490952Y-60745714D01*
X181586190Y-60698095D01*
X181633810Y-60650476D01*
X181681429Y-60555238D01*
X181681429Y-60364761D01*
X181633810Y-60269523D01*
X181586190Y-60221904D01*
X181490952Y-60174285D01*
X184189762Y-61412381D02*
X183618333Y-61412381D01*
X183904047Y-61412381D02*
X183904047Y-60412381D01*
X183808809Y-60555238D01*
X183713571Y-60650476D01*
X183618333Y-60698095D01*
X184808809Y-60412381D02*
X184904048Y-60412381D01*
X184999286Y-60460000D01*
X185046905Y-60507619D01*
X185094524Y-60602857D01*
X185142143Y-60793333D01*
X185142143Y-61031429D01*
X185094524Y-61221905D01*
X185046905Y-61317143D01*
X184999286Y-61364762D01*
X184904048Y-61412381D01*
X184808809Y-61412381D01*
X184713571Y-61364762D01*
X184665952Y-61317143D01*
X184618333Y-61221905D01*
X184570714Y-61031429D01*
X184570714Y-60793333D01*
X184618333Y-60602857D01*
X184665952Y-60507619D01*
X184713571Y-60460000D01*
X184808809Y-60412381D01*
X185570714Y-61412381D02*
X185570714Y-60412381D01*
X185665952Y-61031429D02*
X185951667Y-61412381D01*
X185951667Y-60745714D02*
X185570714Y-61126667D01*
X203771667Y-38504762D02*
X203914524Y-38552381D01*
X204152620Y-38552381D01*
X204247858Y-38504762D01*
X204295477Y-38457143D01*
X204343096Y-38361905D01*
X204343096Y-38266667D01*
X204295477Y-38171429D01*
X204247858Y-38123810D01*
X204152620Y-38076190D01*
X203962143Y-38028571D01*
X203866905Y-37980952D01*
X203819286Y-37933333D01*
X203771667Y-37838095D01*
X203771667Y-37742857D01*
X203819286Y-37647619D01*
X203866905Y-37600000D01*
X203962143Y-37552381D01*
X204200239Y-37552381D01*
X204343096Y-37600000D01*
X204676429Y-37552381D02*
X204914524Y-38552381D01*
X205105001Y-37838095D01*
X205295477Y-38552381D01*
X205533572Y-37552381D01*
X206438334Y-38552381D02*
X205866905Y-38552381D01*
X206152619Y-38552381D02*
X206152619Y-37552381D01*
X206057381Y-37695238D01*
X205962143Y-37790476D01*
X205866905Y-37838095D01*
X176403095Y-97877381D02*
X176403095Y-98686905D01*
X176450714Y-98782143D01*
X176498333Y-98829762D01*
X176593571Y-98877381D01*
X176784048Y-98877381D01*
X176879286Y-98829762D01*
X176926905Y-98782143D01*
X176974524Y-98686905D01*
X176974524Y-97877381D01*
X177403095Y-97972619D02*
X177450714Y-97925000D01*
X177545952Y-97877381D01*
X177784048Y-97877381D01*
X177879286Y-97925000D01*
X177926905Y-97972619D01*
X177974524Y-98067857D01*
X177974524Y-98163095D01*
X177926905Y-98305952D01*
X177355476Y-98877381D01*
X177974524Y-98877381D01*
X171426905Y-101417381D02*
X171426905Y-100417381D01*
X171426905Y-100893571D02*
X171998334Y-100893571D01*
X171998334Y-101417381D02*
X171998334Y-100417381D01*
X172474524Y-101417381D02*
X172474524Y-100417381D01*
X172807858Y-101131667D01*
X173141191Y-100417381D01*
X173141191Y-101417381D01*
X174045953Y-100417381D02*
X173855476Y-100417381D01*
X173760238Y-100465000D01*
X173712619Y-100512619D01*
X173617381Y-100655476D01*
X173569762Y-100845952D01*
X173569762Y-101226905D01*
X173617381Y-101322143D01*
X173665000Y-101369762D01*
X173760238Y-101417381D01*
X173950715Y-101417381D01*
X174045953Y-101369762D01*
X174093572Y-101322143D01*
X174141191Y-101226905D01*
X174141191Y-100988810D01*
X174093572Y-100893571D01*
X174045953Y-100845952D01*
X173950715Y-100798333D01*
X173760238Y-100798333D01*
X173665000Y-100845952D01*
X173617381Y-100893571D01*
X173569762Y-100988810D01*
X174522143Y-100512619D02*
X174569762Y-100465000D01*
X174665000Y-100417381D01*
X174903096Y-100417381D01*
X174998334Y-100465000D01*
X175045953Y-100512619D01*
X175093572Y-100607857D01*
X175093572Y-100703095D01*
X175045953Y-100845952D01*
X174474524Y-101417381D01*
X175093572Y-101417381D01*
X175474524Y-100512619D02*
X175522143Y-100465000D01*
X175617381Y-100417381D01*
X175855477Y-100417381D01*
X175950715Y-100465000D01*
X175998334Y-100512619D01*
X176045953Y-100607857D01*
X176045953Y-100703095D01*
X175998334Y-100845952D01*
X175426905Y-101417381D01*
X176045953Y-101417381D01*
X176950715Y-100417381D02*
X176474524Y-100417381D01*
X176426905Y-100893571D01*
X176474524Y-100845952D01*
X176569762Y-100798333D01*
X176807858Y-100798333D01*
X176903096Y-100845952D01*
X176950715Y-100893571D01*
X176998334Y-100988810D01*
X176998334Y-101226905D01*
X176950715Y-101322143D01*
X176903096Y-101369762D01*
X176807858Y-101417381D01*
X176569762Y-101417381D01*
X176474524Y-101369762D01*
X176426905Y-101322143D01*
X177855477Y-100417381D02*
X177665000Y-100417381D01*
X177569762Y-100465000D01*
X177522143Y-100512619D01*
X177426905Y-100655476D01*
X177379286Y-100845952D01*
X177379286Y-101226905D01*
X177426905Y-101322143D01*
X177474524Y-101369762D01*
X177569762Y-101417381D01*
X177760239Y-101417381D01*
X177855477Y-101369762D01*
X177903096Y-101322143D01*
X177950715Y-101226905D01*
X177950715Y-100988810D01*
X177903096Y-100893571D01*
X177855477Y-100845952D01*
X177760239Y-100798333D01*
X177569762Y-100798333D01*
X177474524Y-100845952D01*
X177426905Y-100893571D01*
X177379286Y-100988810D01*
X178712620Y-100893571D02*
X178855477Y-100941190D01*
X178903096Y-100988810D01*
X178950715Y-101084048D01*
X178950715Y-101226905D01*
X178903096Y-101322143D01*
X178855477Y-101369762D01*
X178760239Y-101417381D01*
X178379286Y-101417381D01*
X178379286Y-100417381D01*
X178712620Y-100417381D01*
X178807858Y-100465000D01*
X178855477Y-100512619D01*
X178903096Y-100607857D01*
X178903096Y-100703095D01*
X178855477Y-100798333D01*
X178807858Y-100845952D01*
X178712620Y-100893571D01*
X178379286Y-100893571D01*
X179855477Y-101417381D02*
X179379286Y-101417381D01*
X179379286Y-100417381D01*
X180188810Y-101417381D02*
X180188810Y-100417381D01*
X180569763Y-100417381D01*
X180665001Y-100465000D01*
X180712620Y-100512619D01*
X180760239Y-100607857D01*
X180760239Y-100750714D01*
X180712620Y-100845952D01*
X180665001Y-100893571D01*
X180569763Y-100941190D01*
X180188810Y-100941190D01*
X181188810Y-101036429D02*
X181950715Y-101036429D01*
X182331667Y-100417381D02*
X182998334Y-100417381D01*
X182569762Y-101417381D01*
X203073095Y-73747381D02*
X203073095Y-74556905D01*
X203120714Y-74652143D01*
X203168333Y-74699762D01*
X203263571Y-74747381D01*
X203454048Y-74747381D01*
X203549286Y-74699762D01*
X203596905Y-74652143D01*
X203644524Y-74556905D01*
X203644524Y-73747381D01*
X204596905Y-73747381D02*
X204120714Y-73747381D01*
X204073095Y-74223571D01*
X204120714Y-74175952D01*
X204215952Y-74128333D01*
X204454048Y-74128333D01*
X204549286Y-74175952D01*
X204596905Y-74223571D01*
X204644524Y-74318810D01*
X204644524Y-74556905D01*
X204596905Y-74652143D01*
X204549286Y-74699762D01*
X204454048Y-74747381D01*
X204215952Y-74747381D01*
X204120714Y-74699762D01*
X204073095Y-74652143D01*
X203287381Y-82541667D02*
X203287381Y-81875000D01*
X204287381Y-82303572D01*
X203620714Y-81065476D02*
X204287381Y-81065476D01*
X203239762Y-81303572D02*
X203954048Y-81541667D01*
X203954048Y-80922619D01*
X204287381Y-80541667D02*
X203287381Y-80541667D01*
X203763571Y-80541667D02*
X203763571Y-79970238D01*
X204287381Y-79970238D02*
X203287381Y-79970238D01*
X204192143Y-78922619D02*
X204239762Y-78970238D01*
X204287381Y-79113095D01*
X204287381Y-79208333D01*
X204239762Y-79351191D01*
X204144524Y-79446429D01*
X204049286Y-79494048D01*
X203858810Y-79541667D01*
X203715952Y-79541667D01*
X203525476Y-79494048D01*
X203430238Y-79446429D01*
X203335000Y-79351191D01*
X203287381Y-79208333D01*
X203287381Y-79113095D01*
X203335000Y-78970238D01*
X203382619Y-78922619D01*
X203287381Y-78636905D02*
X203287381Y-78065476D01*
X204287381Y-78351191D02*
X203287381Y-78351191D01*
X203287381Y-77541667D02*
X203287381Y-77446428D01*
X203335000Y-77351190D01*
X203382619Y-77303571D01*
X203477857Y-77255952D01*
X203668333Y-77208333D01*
X203906429Y-77208333D01*
X204096905Y-77255952D01*
X204192143Y-77303571D01*
X204239762Y-77351190D01*
X204287381Y-77446428D01*
X204287381Y-77541667D01*
X204239762Y-77636905D01*
X204192143Y-77684524D01*
X204096905Y-77732143D01*
X203906429Y-77779762D01*
X203668333Y-77779762D01*
X203477857Y-77732143D01*
X203382619Y-77684524D01*
X203335000Y-77636905D01*
X203287381Y-77541667D01*
X203287381Y-76589286D02*
X203287381Y-76494047D01*
X203335000Y-76398809D01*
X203382619Y-76351190D01*
X203477857Y-76303571D01*
X203668333Y-76255952D01*
X203906429Y-76255952D01*
X204096905Y-76303571D01*
X204192143Y-76351190D01*
X204239762Y-76398809D01*
X204287381Y-76494047D01*
X204287381Y-76589286D01*
X204239762Y-76684524D01*
X204192143Y-76732143D01*
X204096905Y-76779762D01*
X203906429Y-76827381D01*
X203668333Y-76827381D01*
X203477857Y-76779762D01*
X203382619Y-76732143D01*
X203335000Y-76684524D01*
X203287381Y-76589286D01*
X187833095Y-73747381D02*
X187833095Y-74556905D01*
X187880714Y-74652143D01*
X187928333Y-74699762D01*
X188023571Y-74747381D01*
X188214048Y-74747381D01*
X188309286Y-74699762D01*
X188356905Y-74652143D01*
X188404524Y-74556905D01*
X188404524Y-73747381D01*
X188785476Y-73747381D02*
X189452143Y-73747381D01*
X189023571Y-74747381D01*
X188047381Y-82541667D02*
X188047381Y-81875000D01*
X189047381Y-82303572D01*
X188380714Y-81065476D02*
X189047381Y-81065476D01*
X187999762Y-81303572D02*
X188714048Y-81541667D01*
X188714048Y-80922619D01*
X189047381Y-80541667D02*
X188047381Y-80541667D01*
X188523571Y-80541667D02*
X188523571Y-79970238D01*
X189047381Y-79970238D02*
X188047381Y-79970238D01*
X188952143Y-78922619D02*
X188999762Y-78970238D01*
X189047381Y-79113095D01*
X189047381Y-79208333D01*
X188999762Y-79351191D01*
X188904524Y-79446429D01*
X188809286Y-79494048D01*
X188618810Y-79541667D01*
X188475952Y-79541667D01*
X188285476Y-79494048D01*
X188190238Y-79446429D01*
X188095000Y-79351191D01*
X188047381Y-79208333D01*
X188047381Y-79113095D01*
X188095000Y-78970238D01*
X188142619Y-78922619D01*
X188047381Y-78636905D02*
X188047381Y-78065476D01*
X189047381Y-78351191D02*
X188047381Y-78351191D01*
X188047381Y-77541667D02*
X188047381Y-77446428D01*
X188095000Y-77351190D01*
X188142619Y-77303571D01*
X188237857Y-77255952D01*
X188428333Y-77208333D01*
X188666429Y-77208333D01*
X188856905Y-77255952D01*
X188952143Y-77303571D01*
X188999762Y-77351190D01*
X189047381Y-77446428D01*
X189047381Y-77541667D01*
X188999762Y-77636905D01*
X188952143Y-77684524D01*
X188856905Y-77732143D01*
X188666429Y-77779762D01*
X188428333Y-77779762D01*
X188237857Y-77732143D01*
X188142619Y-77684524D01*
X188095000Y-77636905D01*
X188047381Y-77541667D01*
X188380714Y-76351190D02*
X189047381Y-76351190D01*
X187999762Y-76589286D02*
X188714048Y-76827381D01*
X188714048Y-76208333D01*
X131953095Y-84542381D02*
X131953095Y-85351905D01*
X132000714Y-85447143D01*
X132048333Y-85494762D01*
X132143571Y-85542381D01*
X132334048Y-85542381D01*
X132429286Y-85494762D01*
X132476905Y-85447143D01*
X132524524Y-85351905D01*
X132524524Y-84542381D01*
X133143571Y-84970952D02*
X133048333Y-84923333D01*
X133000714Y-84875714D01*
X132953095Y-84780476D01*
X132953095Y-84732857D01*
X133000714Y-84637619D01*
X133048333Y-84590000D01*
X133143571Y-84542381D01*
X133334048Y-84542381D01*
X133429286Y-84590000D01*
X133476905Y-84637619D01*
X133524524Y-84732857D01*
X133524524Y-84780476D01*
X133476905Y-84875714D01*
X133429286Y-84923333D01*
X133334048Y-84970952D01*
X133143571Y-84970952D01*
X133048333Y-85018571D01*
X133000714Y-85066190D01*
X132953095Y-85161429D01*
X132953095Y-85351905D01*
X133000714Y-85447143D01*
X133048333Y-85494762D01*
X133143571Y-85542381D01*
X133334048Y-85542381D01*
X133429286Y-85494762D01*
X133476905Y-85447143D01*
X133524524Y-85351905D01*
X133524524Y-85161429D01*
X133476905Y-85066190D01*
X133429286Y-85018571D01*
X133334048Y-84970952D01*
X129381667Y-87082381D02*
X129619762Y-88082381D01*
X129810239Y-87368095D01*
X130000715Y-88082381D01*
X130238810Y-87082381D01*
X130619762Y-88082381D02*
X130619762Y-87082381D01*
X130857857Y-87082381D01*
X131000715Y-87130000D01*
X131095953Y-87225238D01*
X131143572Y-87320476D01*
X131191191Y-87510952D01*
X131191191Y-87653810D01*
X131143572Y-87844286D01*
X131095953Y-87939524D01*
X131000715Y-88034762D01*
X130857857Y-88082381D01*
X130619762Y-88082381D01*
X132048334Y-87082381D02*
X131857857Y-87082381D01*
X131762619Y-87130000D01*
X131715000Y-87177619D01*
X131619762Y-87320476D01*
X131572143Y-87510952D01*
X131572143Y-87891905D01*
X131619762Y-87987143D01*
X131667381Y-88034762D01*
X131762619Y-88082381D01*
X131953096Y-88082381D01*
X132048334Y-88034762D01*
X132095953Y-87987143D01*
X132143572Y-87891905D01*
X132143572Y-87653810D01*
X132095953Y-87558571D01*
X132048334Y-87510952D01*
X131953096Y-87463333D01*
X131762619Y-87463333D01*
X131667381Y-87510952D01*
X131619762Y-87558571D01*
X131572143Y-87653810D01*
X133048334Y-87082381D02*
X132572143Y-87082381D01*
X132524524Y-87558571D01*
X132572143Y-87510952D01*
X132667381Y-87463333D01*
X132905477Y-87463333D01*
X133000715Y-87510952D01*
X133048334Y-87558571D01*
X133095953Y-87653810D01*
X133095953Y-87891905D01*
X133048334Y-87987143D01*
X133000715Y-88034762D01*
X132905477Y-88082381D01*
X132667381Y-88082381D01*
X132572143Y-88034762D01*
X132524524Y-87987143D01*
X134095953Y-87987143D02*
X134048334Y-88034762D01*
X133905477Y-88082381D01*
X133810239Y-88082381D01*
X133667381Y-88034762D01*
X133572143Y-87939524D01*
X133524524Y-87844286D01*
X133476905Y-87653810D01*
X133476905Y-87510952D01*
X133524524Y-87320476D01*
X133572143Y-87225238D01*
X133667381Y-87130000D01*
X133810239Y-87082381D01*
X133905477Y-87082381D01*
X134048334Y-87130000D01*
X134095953Y-87177619D01*
X134476905Y-87177619D02*
X134524524Y-87130000D01*
X134619762Y-87082381D01*
X134857858Y-87082381D01*
X134953096Y-87130000D01*
X135000715Y-87177619D01*
X135048334Y-87272857D01*
X135048334Y-87368095D01*
X135000715Y-87510952D01*
X134429286Y-88082381D01*
X135048334Y-88082381D01*
X136000715Y-88082381D02*
X135429286Y-88082381D01*
X135715000Y-88082381D02*
X135715000Y-87082381D01*
X135619762Y-87225238D01*
X135524524Y-87320476D01*
X135429286Y-87368095D01*
X125817381Y-69976905D02*
X126626905Y-69976905D01*
X126722143Y-69929286D01*
X126769762Y-69881667D01*
X126817381Y-69786429D01*
X126817381Y-69595952D01*
X126769762Y-69500714D01*
X126722143Y-69453095D01*
X126626905Y-69405476D01*
X125817381Y-69405476D01*
X126817381Y-68881667D02*
X126817381Y-68691191D01*
X126769762Y-68595952D01*
X126722143Y-68548333D01*
X126579286Y-68453095D01*
X126388810Y-68405476D01*
X126007857Y-68405476D01*
X125912619Y-68453095D01*
X125865000Y-68500714D01*
X125817381Y-68595952D01*
X125817381Y-68786429D01*
X125865000Y-68881667D01*
X125912619Y-68929286D01*
X126007857Y-68976905D01*
X126245952Y-68976905D01*
X126341190Y-68929286D01*
X126388810Y-68881667D01*
X126436429Y-68786429D01*
X126436429Y-68595952D01*
X126388810Y-68500714D01*
X126341190Y-68453095D01*
X126245952Y-68405476D01*
X136620714Y-69667381D02*
X136620714Y-68667381D01*
X136954048Y-69381667D01*
X137287381Y-68667381D01*
X137287381Y-69667381D01*
X138335000Y-69572143D02*
X138287381Y-69619762D01*
X138144524Y-69667381D01*
X138049286Y-69667381D01*
X137906428Y-69619762D01*
X137811190Y-69524524D01*
X137763571Y-69429286D01*
X137715952Y-69238810D01*
X137715952Y-69095952D01*
X137763571Y-68905476D01*
X137811190Y-68810238D01*
X137906428Y-68715000D01*
X138049286Y-68667381D01*
X138144524Y-68667381D01*
X138287381Y-68715000D01*
X138335000Y-68762619D01*
X138763571Y-69667381D02*
X138763571Y-68667381D01*
X139144524Y-68667381D01*
X139239762Y-68715000D01*
X139287381Y-68762619D01*
X139335000Y-68857857D01*
X139335000Y-69000714D01*
X139287381Y-69095952D01*
X139239762Y-69143571D01*
X139144524Y-69191190D01*
X138763571Y-69191190D01*
X139715952Y-68762619D02*
X139763571Y-68715000D01*
X139858809Y-68667381D01*
X140096905Y-68667381D01*
X140192143Y-68715000D01*
X140239762Y-68762619D01*
X140287381Y-68857857D01*
X140287381Y-68953095D01*
X140239762Y-69095952D01*
X139668333Y-69667381D01*
X140287381Y-69667381D01*
X140620714Y-68667381D02*
X141239762Y-68667381D01*
X140906428Y-69048333D01*
X141049286Y-69048333D01*
X141144524Y-69095952D01*
X141192143Y-69143571D01*
X141239762Y-69238810D01*
X141239762Y-69476905D01*
X141192143Y-69572143D01*
X141144524Y-69619762D01*
X141049286Y-69667381D01*
X140763571Y-69667381D01*
X140668333Y-69619762D01*
X140620714Y-69572143D01*
X141620714Y-69619762D02*
X141763571Y-69667381D01*
X142001667Y-69667381D01*
X142096905Y-69619762D01*
X142144524Y-69572143D01*
X142192143Y-69476905D01*
X142192143Y-69381667D01*
X142144524Y-69286429D01*
X142096905Y-69238810D01*
X142001667Y-69191190D01*
X141811190Y-69143571D01*
X141715952Y-69095952D01*
X141668333Y-69048333D01*
X141620714Y-68953095D01*
X141620714Y-68857857D01*
X141668333Y-68762619D01*
X141715952Y-68715000D01*
X141811190Y-68667381D01*
X142049286Y-68667381D01*
X142192143Y-68715000D01*
X143144524Y-69667381D02*
X142573095Y-69667381D01*
X142858809Y-69667381D02*
X142858809Y-68667381D01*
X142763571Y-68810238D01*
X142668333Y-68905476D01*
X142573095Y-68953095D01*
X143477857Y-68667381D02*
X144144524Y-68667381D01*
X143715952Y-69667381D01*
X172593095Y-73747381D02*
X172593095Y-74556905D01*
X172640714Y-74652143D01*
X172688333Y-74699762D01*
X172783571Y-74747381D01*
X172974048Y-74747381D01*
X173069286Y-74699762D01*
X173116905Y-74652143D01*
X173164524Y-74556905D01*
X173164524Y-73747381D01*
X173545476Y-73747381D02*
X174164524Y-73747381D01*
X173831190Y-74128333D01*
X173974048Y-74128333D01*
X174069286Y-74175952D01*
X174116905Y-74223571D01*
X174164524Y-74318810D01*
X174164524Y-74556905D01*
X174116905Y-74652143D01*
X174069286Y-74699762D01*
X173974048Y-74747381D01*
X173688333Y-74747381D01*
X173593095Y-74699762D01*
X173545476Y-74652143D01*
X172807381Y-84287857D02*
X172807381Y-83621190D01*
X173807381Y-84049762D01*
X173140714Y-82811666D02*
X173807381Y-82811666D01*
X172759762Y-83049762D02*
X173474048Y-83287857D01*
X173474048Y-82668809D01*
X173807381Y-82287857D02*
X172807381Y-82287857D01*
X173283571Y-82287857D02*
X173283571Y-81716428D01*
X173807381Y-81716428D02*
X172807381Y-81716428D01*
X173712143Y-80668809D02*
X173759762Y-80716428D01*
X173807381Y-80859285D01*
X173807381Y-80954523D01*
X173759762Y-81097381D01*
X173664524Y-81192619D01*
X173569286Y-81240238D01*
X173378810Y-81287857D01*
X173235952Y-81287857D01*
X173045476Y-81240238D01*
X172950238Y-81192619D01*
X172855000Y-81097381D01*
X172807381Y-80954523D01*
X172807381Y-80859285D01*
X172855000Y-80716428D01*
X172902619Y-80668809D01*
X172807381Y-80383095D02*
X172807381Y-79811666D01*
X173807381Y-80097381D02*
X172807381Y-80097381D01*
X173807381Y-78954523D02*
X173807381Y-79525952D01*
X173807381Y-79240238D02*
X172807381Y-79240238D01*
X172950238Y-79335476D01*
X173045476Y-79430714D01*
X173093095Y-79525952D01*
X172807381Y-78621190D02*
X172807381Y-78002142D01*
X173188333Y-78335476D01*
X173188333Y-78192618D01*
X173235952Y-78097380D01*
X173283571Y-78049761D01*
X173378810Y-78002142D01*
X173616905Y-78002142D01*
X173712143Y-78049761D01*
X173759762Y-78097380D01*
X173807381Y-78192618D01*
X173807381Y-78478333D01*
X173759762Y-78573571D01*
X173712143Y-78621190D01*
X173235952Y-77430714D02*
X173188333Y-77525952D01*
X173140714Y-77573571D01*
X173045476Y-77621190D01*
X172997857Y-77621190D01*
X172902619Y-77573571D01*
X172855000Y-77525952D01*
X172807381Y-77430714D01*
X172807381Y-77240237D01*
X172855000Y-77144999D01*
X172902619Y-77097380D01*
X172997857Y-77049761D01*
X173045476Y-77049761D01*
X173140714Y-77097380D01*
X173188333Y-77144999D01*
X173235952Y-77240237D01*
X173235952Y-77430714D01*
X173283571Y-77525952D01*
X173331190Y-77573571D01*
X173426429Y-77621190D01*
X173616905Y-77621190D01*
X173712143Y-77573571D01*
X173759762Y-77525952D01*
X173807381Y-77430714D01*
X173807381Y-77240237D01*
X173759762Y-77144999D01*
X173712143Y-77097380D01*
X173616905Y-77049761D01*
X173426429Y-77049761D01*
X173331190Y-77097380D01*
X173283571Y-77144999D01*
X173235952Y-77240237D01*
X199263095Y-97877381D02*
X199263095Y-98686905D01*
X199310714Y-98782143D01*
X199358333Y-98829762D01*
X199453571Y-98877381D01*
X199644048Y-98877381D01*
X199739286Y-98829762D01*
X199786905Y-98782143D01*
X199834524Y-98686905D01*
X199834524Y-97877381D01*
X200739286Y-98210714D02*
X200739286Y-98877381D01*
X200501190Y-97829762D02*
X200263095Y-98544048D01*
X200882143Y-98544048D01*
X197334524Y-100512619D02*
X197382143Y-100465000D01*
X197477381Y-100417381D01*
X197715477Y-100417381D01*
X197810715Y-100465000D01*
X197858334Y-100512619D01*
X197905953Y-100607857D01*
X197905953Y-100703095D01*
X197858334Y-100845952D01*
X197286905Y-101417381D01*
X197905953Y-101417381D01*
X198477381Y-100845952D02*
X198382143Y-100798333D01*
X198334524Y-100750714D01*
X198286905Y-100655476D01*
X198286905Y-100607857D01*
X198334524Y-100512619D01*
X198382143Y-100465000D01*
X198477381Y-100417381D01*
X198667858Y-100417381D01*
X198763096Y-100465000D01*
X198810715Y-100512619D01*
X198858334Y-100607857D01*
X198858334Y-100655476D01*
X198810715Y-100750714D01*
X198763096Y-100798333D01*
X198667858Y-100845952D01*
X198477381Y-100845952D01*
X198382143Y-100893571D01*
X198334524Y-100941190D01*
X198286905Y-101036429D01*
X198286905Y-101226905D01*
X198334524Y-101322143D01*
X198382143Y-101369762D01*
X198477381Y-101417381D01*
X198667858Y-101417381D01*
X198763096Y-101369762D01*
X198810715Y-101322143D01*
X198858334Y-101226905D01*
X198858334Y-101036429D01*
X198810715Y-100941190D01*
X198763096Y-100893571D01*
X198667858Y-100845952D01*
X199858334Y-101322143D02*
X199810715Y-101369762D01*
X199667858Y-101417381D01*
X199572620Y-101417381D01*
X199429762Y-101369762D01*
X199334524Y-101274524D01*
X199286905Y-101179286D01*
X199239286Y-100988810D01*
X199239286Y-100845952D01*
X199286905Y-100655476D01*
X199334524Y-100560238D01*
X199429762Y-100465000D01*
X199572620Y-100417381D01*
X199667858Y-100417381D01*
X199810715Y-100465000D01*
X199858334Y-100512619D01*
X200239286Y-100512619D02*
X200286905Y-100465000D01*
X200382143Y-100417381D01*
X200620239Y-100417381D01*
X200715477Y-100465000D01*
X200763096Y-100512619D01*
X200810715Y-100607857D01*
X200810715Y-100703095D01*
X200763096Y-100845952D01*
X200191667Y-101417381D01*
X200810715Y-101417381D01*
X201715477Y-100417381D02*
X201239286Y-100417381D01*
X201191667Y-100893571D01*
X201239286Y-100845952D01*
X201334524Y-100798333D01*
X201572620Y-100798333D01*
X201667858Y-100845952D01*
X201715477Y-100893571D01*
X201763096Y-100988810D01*
X201763096Y-101226905D01*
X201715477Y-101322143D01*
X201667858Y-101369762D01*
X201572620Y-101417381D01*
X201334524Y-101417381D01*
X201239286Y-101369762D01*
X201191667Y-101322143D01*
X202620239Y-100417381D02*
X202429762Y-100417381D01*
X202334524Y-100465000D01*
X202286905Y-100512619D01*
X202191667Y-100655476D01*
X202144048Y-100845952D01*
X202144048Y-101226905D01*
X202191667Y-101322143D01*
X202239286Y-101369762D01*
X202334524Y-101417381D01*
X202525001Y-101417381D01*
X202620239Y-101369762D01*
X202667858Y-101322143D01*
X202715477Y-101226905D01*
X202715477Y-100988810D01*
X202667858Y-100893571D01*
X202620239Y-100845952D01*
X202525001Y-100798333D01*
X202334524Y-100798333D01*
X202239286Y-100845952D01*
X202191667Y-100893571D01*
X202144048Y-100988810D01*
X149733095Y-50252381D02*
X149733095Y-51061905D01*
X149780714Y-51157143D01*
X149828333Y-51204762D01*
X149923571Y-51252381D01*
X150114048Y-51252381D01*
X150209286Y-51204762D01*
X150256905Y-51157143D01*
X150304524Y-51061905D01*
X150304524Y-50252381D01*
X151209286Y-50252381D02*
X151018809Y-50252381D01*
X150923571Y-50300000D01*
X150875952Y-50347619D01*
X150780714Y-50490476D01*
X150733095Y-50680952D01*
X150733095Y-51061905D01*
X150780714Y-51157143D01*
X150828333Y-51204762D01*
X150923571Y-51252381D01*
X151114048Y-51252381D01*
X151209286Y-51204762D01*
X151256905Y-51157143D01*
X151304524Y-51061905D01*
X151304524Y-50823810D01*
X151256905Y-50728571D01*
X151209286Y-50680952D01*
X151114048Y-50633333D01*
X150923571Y-50633333D01*
X150828333Y-50680952D01*
X150780714Y-50728571D01*
X150733095Y-50823810D01*
X150947381Y-56776667D02*
X149947381Y-56776667D01*
X150947381Y-56205238D01*
X149947381Y-56205238D01*
X150423571Y-55729048D02*
X150423571Y-55395714D01*
X150947381Y-55252857D02*
X150947381Y-55729048D01*
X149947381Y-55729048D01*
X149947381Y-55252857D01*
X149947381Y-54348095D02*
X149947381Y-54824286D01*
X150423571Y-54871905D01*
X150375952Y-54824286D01*
X150328333Y-54729048D01*
X150328333Y-54490952D01*
X150375952Y-54395714D01*
X150423571Y-54348095D01*
X150518810Y-54300476D01*
X150756905Y-54300476D01*
X150852143Y-54348095D01*
X150899762Y-54395714D01*
X150947381Y-54490952D01*
X150947381Y-54729048D01*
X150899762Y-54824286D01*
X150852143Y-54871905D01*
X149947381Y-53395714D02*
X149947381Y-53871905D01*
X150423571Y-53919524D01*
X150375952Y-53871905D01*
X150328333Y-53776667D01*
X150328333Y-53538571D01*
X150375952Y-53443333D01*
X150423571Y-53395714D01*
X150518810Y-53348095D01*
X150756905Y-53348095D01*
X150852143Y-53395714D01*
X150899762Y-53443333D01*
X150947381Y-53538571D01*
X150947381Y-53776667D01*
X150899762Y-53871905D01*
X150852143Y-53919524D01*
X149947381Y-52443333D02*
X149947381Y-52919524D01*
X150423571Y-52967143D01*
X150375952Y-52919524D01*
X150328333Y-52824286D01*
X150328333Y-52586190D01*
X150375952Y-52490952D01*
X150423571Y-52443333D01*
X150518810Y-52395714D01*
X150756905Y-52395714D01*
X150852143Y-52443333D01*
X150899762Y-52490952D01*
X150947381Y-52586190D01*
X150947381Y-52824286D01*
X150899762Y-52919524D01*
X150852143Y-52967143D01*
X180808334Y-74652143D02*
X180760715Y-74699762D01*
X180617858Y-74747381D01*
X180522620Y-74747381D01*
X180379762Y-74699762D01*
X180284524Y-74604524D01*
X180236905Y-74509286D01*
X180189286Y-74318810D01*
X180189286Y-74175952D01*
X180236905Y-73985476D01*
X180284524Y-73890238D01*
X180379762Y-73795000D01*
X180522620Y-73747381D01*
X180617858Y-73747381D01*
X180760715Y-73795000D01*
X180808334Y-73842619D01*
X181141667Y-73747381D02*
X181760715Y-73747381D01*
X181427381Y-74128333D01*
X181570239Y-74128333D01*
X181665477Y-74175952D01*
X181713096Y-74223571D01*
X181760715Y-74318810D01*
X181760715Y-74556905D01*
X181713096Y-74652143D01*
X181665477Y-74699762D01*
X181570239Y-74747381D01*
X181284524Y-74747381D01*
X181189286Y-74699762D01*
X181141667Y-74652143D01*
X162917143Y-66682857D02*
X162964762Y-66730476D01*
X163012381Y-66873333D01*
X163012381Y-66968571D01*
X162964762Y-67111429D01*
X162869524Y-67206667D01*
X162774286Y-67254286D01*
X162583810Y-67301905D01*
X162440952Y-67301905D01*
X162250476Y-67254286D01*
X162155238Y-67206667D01*
X162060000Y-67111429D01*
X162012381Y-66968571D01*
X162012381Y-66873333D01*
X162060000Y-66730476D01*
X162107619Y-66682857D01*
X163012381Y-65730476D02*
X163012381Y-66301905D01*
X163012381Y-66016191D02*
X162012381Y-66016191D01*
X162155238Y-66111429D01*
X162250476Y-66206667D01*
X162298095Y-66301905D01*
X162012381Y-65111429D02*
X162012381Y-65016190D01*
X162060000Y-64920952D01*
X162107619Y-64873333D01*
X162202857Y-64825714D01*
X162393333Y-64778095D01*
X162631429Y-64778095D01*
X162821905Y-64825714D01*
X162917143Y-64873333D01*
X162964762Y-64920952D01*
X163012381Y-65016190D01*
X163012381Y-65111429D01*
X162964762Y-65206667D01*
X162917143Y-65254286D01*
X162821905Y-65301905D01*
X162631429Y-65349524D01*
X162393333Y-65349524D01*
X162202857Y-65301905D01*
X162107619Y-65254286D01*
X162060000Y-65206667D01*
X162012381Y-65111429D01*
X194937143Y-85447143D02*
X194889524Y-85494762D01*
X194746667Y-85542381D01*
X194651429Y-85542381D01*
X194508571Y-85494762D01*
X194413333Y-85399524D01*
X194365714Y-85304286D01*
X194318095Y-85113810D01*
X194318095Y-84970952D01*
X194365714Y-84780476D01*
X194413333Y-84685238D01*
X194508571Y-84590000D01*
X194651429Y-84542381D01*
X194746667Y-84542381D01*
X194889524Y-84590000D01*
X194937143Y-84637619D01*
X195889524Y-85542381D02*
X195318095Y-85542381D01*
X195603809Y-85542381D02*
X195603809Y-84542381D01*
X195508571Y-84685238D01*
X195413333Y-84780476D01*
X195318095Y-84828095D01*
X196270476Y-84637619D02*
X196318095Y-84590000D01*
X196413333Y-84542381D01*
X196651429Y-84542381D01*
X196746667Y-84590000D01*
X196794286Y-84637619D01*
X196841905Y-84732857D01*
X196841905Y-84828095D01*
X196794286Y-84970952D01*
X196222857Y-85542381D01*
X196841905Y-85542381D01*
X123912381Y-85423333D02*
X124626667Y-85423333D01*
X124769524Y-85470953D01*
X124864762Y-85566191D01*
X124912381Y-85709048D01*
X124912381Y-85804286D01*
X124912381Y-84423333D02*
X124912381Y-84994762D01*
X124912381Y-84709048D02*
X123912381Y-84709048D01*
X124055238Y-84804286D01*
X124150476Y-84899524D01*
X124198095Y-84994762D01*
X117911905Y-79462381D02*
X118245238Y-80462381D01*
X118578572Y-79462381D01*
X118911905Y-80462381D02*
X118911905Y-79462381D01*
X119292858Y-79462381D01*
X119388096Y-79510000D01*
X119435715Y-79557619D01*
X119483334Y-79652857D01*
X119483334Y-79795714D01*
X119435715Y-79890952D01*
X119388096Y-79938571D01*
X119292858Y-79986190D01*
X118911905Y-79986190D01*
X121197620Y-79510000D02*
X121102382Y-79462381D01*
X120959525Y-79462381D01*
X120816667Y-79510000D01*
X120721429Y-79605238D01*
X120673810Y-79700476D01*
X120626191Y-79890952D01*
X120626191Y-80033810D01*
X120673810Y-80224286D01*
X120721429Y-80319524D01*
X120816667Y-80414762D01*
X120959525Y-80462381D01*
X121054763Y-80462381D01*
X121197620Y-80414762D01*
X121245239Y-80367143D01*
X121245239Y-80033810D01*
X121054763Y-80033810D01*
X121673810Y-80462381D02*
X121673810Y-79462381D01*
X122245239Y-80462381D01*
X122245239Y-79462381D01*
X122721429Y-80462381D02*
X122721429Y-79462381D01*
X122959524Y-79462381D01*
X123102382Y-79510000D01*
X123197620Y-79605238D01*
X123245239Y-79700476D01*
X123292858Y-79890952D01*
X123292858Y-80033810D01*
X123245239Y-80224286D01*
X123197620Y-80319524D01*
X123102382Y-80414762D01*
X122959524Y-80462381D01*
X122721429Y-80462381D01*
X192301905Y-38552381D02*
X192301905Y-37552381D01*
X192540000Y-37552381D01*
X192682858Y-37600000D01*
X192778096Y-37695238D01*
X192825715Y-37790476D01*
X192873334Y-37980952D01*
X192873334Y-38123810D01*
X192825715Y-38314286D01*
X192778096Y-38409524D01*
X192682858Y-38504762D01*
X192540000Y-38552381D01*
X192301905Y-38552381D01*
X193825715Y-38552381D02*
X193254286Y-38552381D01*
X193540000Y-38552381D02*
X193540000Y-37552381D01*
X193444762Y-37695238D01*
X193349524Y-37790476D01*
X193254286Y-37838095D01*
X184451667Y-37552381D02*
X184451667Y-38266667D01*
X184404047Y-38409524D01*
X184308809Y-38504762D01*
X184165952Y-38552381D01*
X184070714Y-38552381D01*
X185070714Y-37980952D02*
X184975476Y-37933333D01*
X184927857Y-37885714D01*
X184880238Y-37790476D01*
X184880238Y-37742857D01*
X184927857Y-37647619D01*
X184975476Y-37600000D01*
X185070714Y-37552381D01*
X185261191Y-37552381D01*
X185356429Y-37600000D01*
X185404048Y-37647619D01*
X185451667Y-37742857D01*
X185451667Y-37790476D01*
X185404048Y-37885714D01*
X185356429Y-37933333D01*
X185261191Y-37980952D01*
X185070714Y-37980952D01*
X184975476Y-38028571D01*
X184927857Y-38076190D01*
X184880238Y-38171429D01*
X184880238Y-38361905D01*
X184927857Y-38457143D01*
X184975476Y-38504762D01*
X185070714Y-38552381D01*
X185261191Y-38552381D01*
X185356429Y-38504762D01*
X185404048Y-38457143D01*
X185451667Y-38361905D01*
X185451667Y-38171429D01*
X185404048Y-38076190D01*
X185356429Y-38028571D01*
X185261191Y-37980952D01*
X190241667Y-93265476D02*
X190241667Y-92789285D01*
X190527381Y-93360714D02*
X189527381Y-93027381D01*
X190527381Y-92694047D01*
X190527381Y-91836904D02*
X190527381Y-92408333D01*
X190527381Y-92122619D02*
X189527381Y-92122619D01*
X189670238Y-92217857D01*
X189765476Y-92313095D01*
X189813095Y-92408333D01*
X189527381Y-91503571D02*
X189527381Y-90884523D01*
X189908333Y-91217857D01*
X189908333Y-91074999D01*
X189955952Y-90979761D01*
X190003571Y-90932142D01*
X190098810Y-90884523D01*
X190336905Y-90884523D01*
X190432143Y-90932142D01*
X190479762Y-90979761D01*
X190527381Y-91074999D01*
X190527381Y-91360714D01*
X190479762Y-91455952D01*
X190432143Y-91503571D01*
X200401667Y-93265476D02*
X200401667Y-92789285D01*
X200687381Y-93360714D02*
X199687381Y-93027381D01*
X200687381Y-92694047D01*
X200687381Y-91836904D02*
X200687381Y-92408333D01*
X200687381Y-92122619D02*
X199687381Y-92122619D01*
X199830238Y-92217857D01*
X199925476Y-92313095D01*
X199973095Y-92408333D01*
X200020714Y-90979761D02*
X200687381Y-90979761D01*
X199639762Y-91217857D02*
X200354048Y-91455952D01*
X200354048Y-90836904D01*
X156662381Y-77477857D02*
X156186190Y-77811191D01*
X156662381Y-78049286D02*
X155662381Y-78049286D01*
X155662381Y-77668333D01*
X155710000Y-77573095D01*
X155757619Y-77525476D01*
X155852857Y-77477857D01*
X155995714Y-77477857D01*
X156090952Y-77525476D01*
X156138571Y-77573095D01*
X156186190Y-77668333D01*
X156186190Y-78049286D01*
X156662381Y-76525476D02*
X156662381Y-77096905D01*
X156662381Y-76811191D02*
X155662381Y-76811191D01*
X155805238Y-76906429D01*
X155900476Y-77001667D01*
X155948095Y-77096905D01*
X155662381Y-75906429D02*
X155662381Y-75811190D01*
X155710000Y-75715952D01*
X155757619Y-75668333D01*
X155852857Y-75620714D01*
X156043333Y-75573095D01*
X156281429Y-75573095D01*
X156471905Y-75620714D01*
X156567143Y-75668333D01*
X156614762Y-75715952D01*
X156662381Y-75811190D01*
X156662381Y-75906429D01*
X156614762Y-76001667D01*
X156567143Y-76049286D01*
X156471905Y-76096905D01*
X156281429Y-76144524D01*
X156043333Y-76144524D01*
X155852857Y-76096905D01*
X155757619Y-76049286D01*
X155710000Y-76001667D01*
X155662381Y-75906429D01*
X157932619Y-76287381D02*
X158551667Y-76287381D01*
X158218333Y-76668333D01*
X158361191Y-76668333D01*
X158456429Y-76715952D01*
X158504048Y-76763571D01*
X158551667Y-76858810D01*
X158551667Y-77096905D01*
X158504048Y-77192143D01*
X158456429Y-77239762D01*
X158361191Y-77287381D01*
X158075476Y-77287381D01*
X157980238Y-77239762D01*
X157932619Y-77192143D01*
X158980238Y-77192143D02*
X159027857Y-77239762D01*
X158980238Y-77287381D01*
X158932619Y-77239762D01*
X158980238Y-77192143D01*
X158980238Y-77287381D01*
X159361190Y-76287381D02*
X159980238Y-76287381D01*
X159646904Y-76668333D01*
X159789762Y-76668333D01*
X159885000Y-76715952D01*
X159932619Y-76763571D01*
X159980238Y-76858810D01*
X159980238Y-77096905D01*
X159932619Y-77192143D01*
X159885000Y-77239762D01*
X159789762Y-77287381D01*
X159504047Y-77287381D01*
X159408809Y-77239762D01*
X159361190Y-77192143D01*
X160408809Y-77287381D02*
X160408809Y-76287381D01*
X160504047Y-76906429D02*
X160789762Y-77287381D01*
X160789762Y-76620714D02*
X160408809Y-77001667D01*
X131905476Y-52792381D02*
X132572143Y-53792381D01*
X132572143Y-52792381D02*
X131905476Y-53792381D01*
X133476905Y-53792381D02*
X132905476Y-53792381D01*
X133191190Y-53792381D02*
X133191190Y-52792381D01*
X133095952Y-52935238D01*
X133000714Y-53030476D01*
X132905476Y-53078095D01*
X131500715Y-55697381D02*
X130929286Y-55697381D01*
X131215000Y-55697381D02*
X131215000Y-54697381D01*
X131119762Y-54840238D01*
X131024524Y-54935476D01*
X130929286Y-54983095D01*
X131929286Y-55697381D02*
X131929286Y-54697381D01*
X132262620Y-55411667D01*
X132595953Y-54697381D01*
X132595953Y-55697381D01*
X133072143Y-55697381D02*
X133072143Y-54697381D01*
X133072143Y-55173571D02*
X133643572Y-55173571D01*
X133643572Y-55697381D02*
X133643572Y-54697381D01*
X134024524Y-55030714D02*
X134548334Y-55030714D01*
X134024524Y-55697381D01*
X134548334Y-55697381D01*
X214447381Y-122792857D02*
X213971190Y-123126191D01*
X214447381Y-123364286D02*
X213447381Y-123364286D01*
X213447381Y-122983333D01*
X213495000Y-122888095D01*
X213542619Y-122840476D01*
X213637857Y-122792857D01*
X213780714Y-122792857D01*
X213875952Y-122840476D01*
X213923571Y-122888095D01*
X213971190Y-122983333D01*
X213971190Y-123364286D01*
X213447381Y-122173810D02*
X213447381Y-121983333D01*
X213495000Y-121888095D01*
X213590238Y-121792857D01*
X213780714Y-121745238D01*
X214114048Y-121745238D01*
X214304524Y-121792857D01*
X214399762Y-121888095D01*
X214447381Y-121983333D01*
X214447381Y-122173810D01*
X214399762Y-122269048D01*
X214304524Y-122364286D01*
X214114048Y-122411905D01*
X213780714Y-122411905D01*
X213590238Y-122364286D01*
X213495000Y-122269048D01*
X213447381Y-122173810D01*
X214447381Y-121316667D02*
X213447381Y-121316667D01*
X214161667Y-120983333D01*
X213447381Y-120650000D01*
X214447381Y-120650000D01*
X214542619Y-120411905D02*
X214542619Y-119650000D01*
X213923571Y-119411905D02*
X213923571Y-119078571D01*
X214447381Y-118935714D02*
X214447381Y-119411905D01*
X213447381Y-119411905D01*
X213447381Y-118935714D01*
X214447381Y-118507143D02*
X213447381Y-118507143D01*
X214447381Y-117935714D01*
X213447381Y-117935714D01*
X170037381Y-135707381D02*
X169704047Y-135231190D01*
X169465952Y-135707381D02*
X169465952Y-134707381D01*
X169846905Y-134707381D01*
X169942143Y-134755000D01*
X169989762Y-134802619D01*
X170037381Y-134897857D01*
X170037381Y-135040714D01*
X169989762Y-135135952D01*
X169942143Y-135183571D01*
X169846905Y-135231190D01*
X169465952Y-135231190D01*
X170418333Y-135421667D02*
X170894524Y-135421667D01*
X170323095Y-135707381D02*
X170656428Y-134707381D01*
X170989762Y-135707381D01*
X171323095Y-135707381D02*
X171323095Y-134707381D01*
X171656429Y-135421667D01*
X171989762Y-134707381D01*
X171989762Y-135707381D01*
X172227857Y-135802619D02*
X172989762Y-135802619D01*
X173227857Y-135183571D02*
X173561191Y-135183571D01*
X173704048Y-135707381D02*
X173227857Y-135707381D01*
X173227857Y-134707381D01*
X173704048Y-134707381D01*
X174132619Y-135707381D02*
X174132619Y-134707381D01*
X174704048Y-135707381D01*
X174704048Y-134707381D01*
X119197381Y-118490714D02*
X118197381Y-118490714D01*
X118197381Y-118109761D01*
X118245000Y-118014523D01*
X118292619Y-117966904D01*
X118387857Y-117919285D01*
X118530714Y-117919285D01*
X118625952Y-117966904D01*
X118673571Y-118014523D01*
X118721190Y-118109761D01*
X118721190Y-118490714D01*
X119197381Y-117490714D02*
X118197381Y-117490714D01*
X118911667Y-117062143D02*
X118911667Y-116585952D01*
X119197381Y-117157381D02*
X118197381Y-116824048D01*
X119197381Y-116490714D01*
X119292619Y-116395476D02*
X119292619Y-115633571D01*
X118673571Y-115395476D02*
X118673571Y-115062142D01*
X119197381Y-114919285D02*
X119197381Y-115395476D01*
X118197381Y-115395476D01*
X118197381Y-114919285D01*
X119197381Y-114490714D02*
X118197381Y-114490714D01*
X119197381Y-113919285D01*
X118197381Y-113919285D01*
X138795428Y-61936381D02*
X138985905Y-61936381D01*
X139081143Y-61984000D01*
X139176381Y-62079238D01*
X139224000Y-62269714D01*
X139224000Y-62603048D01*
X139176381Y-62793524D01*
X139081143Y-62888762D01*
X138985905Y-62936381D01*
X138795428Y-62936381D01*
X138700190Y-62888762D01*
X138604952Y-62793524D01*
X138557333Y-62603048D01*
X138557333Y-62269714D01*
X138604952Y-62079238D01*
X138700190Y-61984000D01*
X138795428Y-61936381D01*
X139604952Y-62888762D02*
X139747809Y-62936381D01*
X139985905Y-62936381D01*
X140081143Y-62888762D01*
X140128762Y-62841143D01*
X140176381Y-62745905D01*
X140176381Y-62650667D01*
X140128762Y-62555429D01*
X140081143Y-62507810D01*
X139985905Y-62460190D01*
X139795428Y-62412571D01*
X139700190Y-62364952D01*
X139652571Y-62317333D01*
X139604952Y-62222095D01*
X139604952Y-62126857D01*
X139652571Y-62031619D01*
X139700190Y-61984000D01*
X139795428Y-61936381D01*
X140033524Y-61936381D01*
X140176381Y-61984000D01*
X141176381Y-62841143D02*
X141128762Y-62888762D01*
X140985905Y-62936381D01*
X140890667Y-62936381D01*
X140747809Y-62888762D01*
X140652571Y-62793524D01*
X140604952Y-62698286D01*
X140557333Y-62507810D01*
X140557333Y-62364952D01*
X140604952Y-62174476D01*
X140652571Y-62079238D01*
X140747809Y-61984000D01*
X140890667Y-61936381D01*
X140985905Y-61936381D01*
X141128762Y-61984000D01*
X141176381Y-62031619D01*
X141366857Y-63031619D02*
X142128762Y-63031619D01*
X142366857Y-62412571D02*
X142700191Y-62412571D01*
X142843048Y-62936381D02*
X142366857Y-62936381D01*
X142366857Y-61936381D01*
X142843048Y-61936381D01*
X143271619Y-62936381D02*
X143271619Y-61936381D01*
X143843048Y-62936381D01*
X143843048Y-61936381D01*
M02*
