G04 #@! TF.FileFunction,Legend,Bot*
%FSLAX46Y46*%
G04 Gerber Fmt 4.6, Leading zero omitted, Abs format (unit mm)*
G04 Created by KiCad (PCBNEW 4.0.7) date 01/22/20 20:09:16*
%MOMM*%
%LPD*%
G01*
G04 APERTURE LIST*
%ADD10C,0.100000*%
%ADD11C,0.200000*%
%ADD12C,0.150000*%
%ADD13C,0.300000*%
G04 APERTURE END LIST*
D10*
D11*
X186690000Y-130810000D02*
X186690000Y-121920000D01*
X190500000Y-130810000D02*
X186690000Y-130810000D01*
X190500000Y-127000000D02*
X190500000Y-130810000D01*
X190500000Y-126365000D02*
X189230000Y-126365000D01*
X190500000Y-123825000D02*
X190500000Y-126365000D01*
X189230000Y-123825000D02*
X190500000Y-123825000D01*
X190500000Y-121920000D02*
X190500000Y-123190000D01*
X186690000Y-121920000D02*
X190500000Y-121920000D01*
D10*
X122592381Y-136251905D02*
X122859048Y-135870952D01*
X123049524Y-136251905D02*
X123049524Y-135451905D01*
X122744762Y-135451905D01*
X122668571Y-135490000D01*
X122630476Y-135528095D01*
X122592381Y-135604286D01*
X122592381Y-135718571D01*
X122630476Y-135794762D01*
X122668571Y-135832857D01*
X122744762Y-135870952D01*
X123049524Y-135870952D01*
X121944762Y-136213810D02*
X122020952Y-136251905D01*
X122173333Y-136251905D01*
X122249524Y-136213810D01*
X122287619Y-136137619D01*
X122287619Y-135832857D01*
X122249524Y-135756667D01*
X122173333Y-135718571D01*
X122020952Y-135718571D01*
X121944762Y-135756667D01*
X121906667Y-135832857D01*
X121906667Y-135909048D01*
X122287619Y-135985238D01*
X121640000Y-135718571D02*
X121449524Y-136251905D01*
X121259048Y-135718571D01*
X120954286Y-136251905D02*
X120954286Y-135718571D01*
X120954286Y-135451905D02*
X120992381Y-135490000D01*
X120954286Y-135528095D01*
X120916191Y-135490000D01*
X120954286Y-135451905D01*
X120954286Y-135528095D01*
X120611429Y-136213810D02*
X120535239Y-136251905D01*
X120382858Y-136251905D01*
X120306667Y-136213810D01*
X120268572Y-136137619D01*
X120268572Y-136099524D01*
X120306667Y-136023333D01*
X120382858Y-135985238D01*
X120497143Y-135985238D01*
X120573334Y-135947143D01*
X120611429Y-135870952D01*
X120611429Y-135832857D01*
X120573334Y-135756667D01*
X120497143Y-135718571D01*
X120382858Y-135718571D01*
X120306667Y-135756667D01*
X119925715Y-136251905D02*
X119925715Y-135718571D01*
X119925715Y-135451905D02*
X119963810Y-135490000D01*
X119925715Y-135528095D01*
X119887620Y-135490000D01*
X119925715Y-135451905D01*
X119925715Y-135528095D01*
X119430477Y-136251905D02*
X119506668Y-136213810D01*
X119544763Y-136175714D01*
X119582858Y-136099524D01*
X119582858Y-135870952D01*
X119544763Y-135794762D01*
X119506668Y-135756667D01*
X119430477Y-135718571D01*
X119316191Y-135718571D01*
X119240001Y-135756667D01*
X119201906Y-135794762D01*
X119163810Y-135870952D01*
X119163810Y-136099524D01*
X119201906Y-136175714D01*
X119240001Y-136213810D01*
X119316191Y-136251905D01*
X119430477Y-136251905D01*
X118820953Y-135718571D02*
X118820953Y-136251905D01*
X118820953Y-135794762D02*
X118782858Y-135756667D01*
X118706667Y-135718571D01*
X118592381Y-135718571D01*
X118516191Y-135756667D01*
X118478096Y-135832857D01*
X118478096Y-136251905D01*
X117487619Y-136251905D02*
X117487619Y-135451905D01*
X117487619Y-135832857D02*
X117030476Y-135832857D01*
X117030476Y-136251905D02*
X117030476Y-135451905D01*
X189998333Y-90487619D02*
X189998333Y-90868571D01*
X190226905Y-90411428D02*
X189426905Y-90678095D01*
X190226905Y-90944762D01*
X190226905Y-91630476D02*
X190226905Y-91173333D01*
X190226905Y-91401904D02*
X189426905Y-91401904D01*
X189541190Y-91325714D01*
X189617381Y-91249523D01*
X189655476Y-91173333D01*
X189426905Y-91897143D02*
X189426905Y-92392381D01*
X189731667Y-92125714D01*
X189731667Y-92240000D01*
X189769762Y-92316190D01*
X189807857Y-92354286D01*
X189884048Y-92392381D01*
X190074524Y-92392381D01*
X190150714Y-92354286D01*
X190188810Y-92316190D01*
X190226905Y-92240000D01*
X190226905Y-92011428D01*
X190188810Y-91935238D01*
X190150714Y-91897143D01*
X200158333Y-90487619D02*
X200158333Y-90868571D01*
X200386905Y-90411428D02*
X199586905Y-90678095D01*
X200386905Y-90944762D01*
X200386905Y-91630476D02*
X200386905Y-91173333D01*
X200386905Y-91401904D02*
X199586905Y-91401904D01*
X199701190Y-91325714D01*
X199777381Y-91249523D01*
X199815476Y-91173333D01*
X199853571Y-92316190D02*
X200386905Y-92316190D01*
X199548810Y-92125714D02*
X200120238Y-91935238D01*
X200120238Y-92430476D01*
D12*
X205763096Y-103909762D02*
X205620239Y-103957381D01*
X205382143Y-103957381D01*
X205286905Y-103909762D01*
X205239286Y-103862143D01*
X205191667Y-103766905D01*
X205191667Y-103671667D01*
X205239286Y-103576429D01*
X205286905Y-103528810D01*
X205382143Y-103481190D01*
X205572620Y-103433571D01*
X205667858Y-103385952D01*
X205715477Y-103338333D01*
X205763096Y-103243095D01*
X205763096Y-103147857D01*
X205715477Y-103052619D01*
X205667858Y-103005000D01*
X205572620Y-102957381D01*
X205334524Y-102957381D01*
X205191667Y-103005000D01*
X205477382Y-102814524D02*
X205477382Y-104100238D01*
X204763096Y-103433571D02*
X204429762Y-103433571D01*
X204286905Y-103957381D02*
X204763096Y-103957381D01*
X204763096Y-102957381D01*
X204286905Y-102957381D01*
X203667858Y-102957381D02*
X203572619Y-102957381D01*
X203477381Y-103005000D01*
X203429762Y-103052619D01*
X203382143Y-103147857D01*
X203334524Y-103338333D01*
X203334524Y-103576429D01*
X203382143Y-103766905D01*
X203429762Y-103862143D01*
X203477381Y-103909762D01*
X203572619Y-103957381D01*
X203667858Y-103957381D01*
X203763096Y-103909762D01*
X203810715Y-103862143D01*
X203858334Y-103766905D01*
X203905953Y-103576429D01*
X203905953Y-103338333D01*
X203858334Y-103147857D01*
X203810715Y-103052619D01*
X203763096Y-103005000D01*
X203667858Y-102957381D01*
X202715477Y-102957381D02*
X202620238Y-102957381D01*
X202525000Y-103005000D01*
X202477381Y-103052619D01*
X202429762Y-103147857D01*
X202382143Y-103338333D01*
X202382143Y-103576429D01*
X202429762Y-103766905D01*
X202477381Y-103862143D01*
X202525000Y-103909762D01*
X202620238Y-103957381D01*
X202715477Y-103957381D01*
X202810715Y-103909762D01*
X202858334Y-103862143D01*
X202905953Y-103766905D01*
X202953572Y-103576429D01*
X202953572Y-103338333D01*
X202905953Y-103147857D01*
X202858334Y-103052619D01*
X202810715Y-103005000D01*
X202715477Y-102957381D01*
X201763096Y-102957381D02*
X201667857Y-102957381D01*
X201572619Y-103005000D01*
X201525000Y-103052619D01*
X201477381Y-103147857D01*
X201429762Y-103338333D01*
X201429762Y-103576429D01*
X201477381Y-103766905D01*
X201525000Y-103862143D01*
X201572619Y-103909762D01*
X201667857Y-103957381D01*
X201763096Y-103957381D01*
X201858334Y-103909762D01*
X201905953Y-103862143D01*
X201953572Y-103766905D01*
X202001191Y-103576429D01*
X202001191Y-103338333D01*
X201953572Y-103147857D01*
X201905953Y-103052619D01*
X201858334Y-103005000D01*
X201763096Y-102957381D01*
X200239286Y-103576429D02*
X199477381Y-103576429D01*
X198286905Y-103909762D02*
X198144048Y-103957381D01*
X197905952Y-103957381D01*
X197810714Y-103909762D01*
X197763095Y-103862143D01*
X197715476Y-103766905D01*
X197715476Y-103671667D01*
X197763095Y-103576429D01*
X197810714Y-103528810D01*
X197905952Y-103481190D01*
X198096429Y-103433571D01*
X198191667Y-103385952D01*
X198239286Y-103338333D01*
X198286905Y-103243095D01*
X198286905Y-103147857D01*
X198239286Y-103052619D01*
X198191667Y-103005000D01*
X198096429Y-102957381D01*
X197858333Y-102957381D01*
X197715476Y-103005000D01*
X198001191Y-102814524D02*
X198001191Y-104100238D01*
X196953571Y-103433571D02*
X197286905Y-103433571D01*
X197286905Y-103957381D02*
X197286905Y-102957381D01*
X196810714Y-102957381D01*
X196096428Y-103433571D02*
X196429762Y-103433571D01*
X196429762Y-103957381D02*
X196429762Y-102957381D01*
X195953571Y-102957381D01*
X195239285Y-103433571D02*
X195572619Y-103433571D01*
X195572619Y-103957381D02*
X195572619Y-102957381D01*
X195096428Y-102957381D01*
X194382142Y-103433571D02*
X194715476Y-103433571D01*
X194715476Y-103957381D02*
X194715476Y-102957381D01*
X194239285Y-102957381D01*
X204167857Y-100857857D02*
X203667857Y-100857857D01*
X203453571Y-101643571D02*
X204167857Y-101643571D01*
X204167857Y-100143571D01*
X203453571Y-100143571D01*
X202810714Y-100857857D02*
X202310714Y-100857857D01*
X202096428Y-101643571D02*
X202810714Y-101643571D01*
X202810714Y-100143571D01*
X202096428Y-100143571D01*
X201453571Y-101643571D02*
X201453571Y-100143571D01*
X200882143Y-100143571D01*
X200739285Y-100215000D01*
X200667857Y-100286429D01*
X200596428Y-100429286D01*
X200596428Y-100643571D01*
X200667857Y-100786429D01*
X200739285Y-100857857D01*
X200882143Y-100929286D01*
X201453571Y-100929286D01*
X199096428Y-101643571D02*
X199596428Y-100929286D01*
X199953571Y-101643571D02*
X199953571Y-100143571D01*
X199382143Y-100143571D01*
X199239285Y-100215000D01*
X199167857Y-100286429D01*
X199096428Y-100429286D01*
X199096428Y-100643571D01*
X199167857Y-100786429D01*
X199239285Y-100857857D01*
X199382143Y-100929286D01*
X199953571Y-100929286D01*
X198167857Y-100143571D02*
X197882143Y-100143571D01*
X197739285Y-100215000D01*
X197596428Y-100357857D01*
X197525000Y-100643571D01*
X197525000Y-101143571D01*
X197596428Y-101429286D01*
X197739285Y-101572143D01*
X197882143Y-101643571D01*
X198167857Y-101643571D01*
X198310714Y-101572143D01*
X198453571Y-101429286D01*
X198525000Y-101143571D01*
X198525000Y-100643571D01*
X198453571Y-100357857D01*
X198310714Y-100215000D01*
X198167857Y-100143571D01*
X196882142Y-101643571D02*
X196882142Y-100143571D01*
X196382142Y-101215000D01*
X195882142Y-100143571D01*
X195882142Y-101643571D01*
D11*
X192405000Y-93980000D02*
X207645000Y-93980000D01*
X209550000Y-93345000D02*
X209550000Y-89535000D01*
X200660000Y-93345000D02*
X209550000Y-93345000D01*
X200660000Y-89535000D02*
X200660000Y-93345000D01*
X199390000Y-93345000D02*
X199390000Y-89535000D01*
X190500000Y-93345000D02*
X199390000Y-93345000D01*
D12*
X160289285Y-86808571D02*
X160574999Y-86808571D01*
X160717856Y-86880000D01*
X160789285Y-86951429D01*
X160932142Y-87165714D01*
X161003571Y-87451429D01*
X161003571Y-88022857D01*
X160932142Y-88165714D01*
X160860714Y-88237143D01*
X160717856Y-88308571D01*
X160432142Y-88308571D01*
X160289285Y-88237143D01*
X160217856Y-88165714D01*
X160146428Y-88022857D01*
X160146428Y-87665714D01*
X160217856Y-87522857D01*
X160289285Y-87451429D01*
X160432142Y-87380000D01*
X160717856Y-87380000D01*
X160860714Y-87451429D01*
X160932142Y-87522857D01*
X161003571Y-87665714D01*
X158789285Y-86808571D02*
X159503571Y-86808571D01*
X159575000Y-87522857D01*
X159503571Y-87451429D01*
X159360714Y-87380000D01*
X159003571Y-87380000D01*
X158860714Y-87451429D01*
X158789285Y-87522857D01*
X158717857Y-87665714D01*
X158717857Y-88022857D01*
X158789285Y-88165714D01*
X158860714Y-88237143D01*
X159003571Y-88308571D01*
X159360714Y-88308571D01*
X159503571Y-88237143D01*
X159575000Y-88165714D01*
X157789286Y-86808571D02*
X157646429Y-86808571D01*
X157503572Y-86880000D01*
X157432143Y-86951429D01*
X157360714Y-87094286D01*
X157289286Y-87380000D01*
X157289286Y-87737143D01*
X157360714Y-88022857D01*
X157432143Y-88165714D01*
X157503572Y-88237143D01*
X157646429Y-88308571D01*
X157789286Y-88308571D01*
X157932143Y-88237143D01*
X158003572Y-88165714D01*
X158075000Y-88022857D01*
X158146429Y-87737143D01*
X158146429Y-87380000D01*
X158075000Y-87094286D01*
X158003572Y-86951429D01*
X157932143Y-86880000D01*
X157789286Y-86808571D01*
X156717858Y-86951429D02*
X156646429Y-86880000D01*
X156503572Y-86808571D01*
X156146429Y-86808571D01*
X156003572Y-86880000D01*
X155932143Y-86951429D01*
X155860715Y-87094286D01*
X155860715Y-87237143D01*
X155932143Y-87451429D01*
X156789286Y-88308571D01*
X155860715Y-88308571D01*
X153217858Y-88165714D02*
X153289287Y-88237143D01*
X153503573Y-88308571D01*
X153646430Y-88308571D01*
X153860715Y-88237143D01*
X154003573Y-88094286D01*
X154075001Y-87951429D01*
X154146430Y-87665714D01*
X154146430Y-87451429D01*
X154075001Y-87165714D01*
X154003573Y-87022857D01*
X153860715Y-86880000D01*
X153646430Y-86808571D01*
X153503573Y-86808571D01*
X153289287Y-86880000D01*
X153217858Y-86951429D01*
X152575001Y-88308571D02*
X152575001Y-86808571D01*
X152003573Y-86808571D01*
X151860715Y-86880000D01*
X151789287Y-86951429D01*
X151717858Y-87094286D01*
X151717858Y-87308571D01*
X151789287Y-87451429D01*
X151860715Y-87522857D01*
X152003573Y-87594286D01*
X152575001Y-87594286D01*
X151075001Y-86808571D02*
X151075001Y-88022857D01*
X151003573Y-88165714D01*
X150932144Y-88237143D01*
X150789287Y-88308571D01*
X150503573Y-88308571D01*
X150360715Y-88237143D01*
X150289287Y-88165714D01*
X150217858Y-88022857D01*
X150217858Y-86808571D01*
X138715000Y-90574762D02*
X138572143Y-90622381D01*
X138334047Y-90622381D01*
X138238809Y-90574762D01*
X138191190Y-90527143D01*
X138143571Y-90431905D01*
X138143571Y-90336667D01*
X138191190Y-90241429D01*
X138238809Y-90193810D01*
X138334047Y-90146190D01*
X138524524Y-90098571D01*
X138619762Y-90050952D01*
X138667381Y-90003333D01*
X138715000Y-89908095D01*
X138715000Y-89812857D01*
X138667381Y-89717619D01*
X138619762Y-89670000D01*
X138524524Y-89622381D01*
X138286428Y-89622381D01*
X138143571Y-89670000D01*
X138429286Y-89479524D02*
X138429286Y-90765238D01*
X137715000Y-90622381D02*
X137715000Y-89622381D01*
X137476905Y-89622381D01*
X137334047Y-89670000D01*
X137238809Y-89765238D01*
X137191190Y-89860476D01*
X137143571Y-90050952D01*
X137143571Y-90193810D01*
X137191190Y-90384286D01*
X137238809Y-90479524D01*
X137334047Y-90574762D01*
X137476905Y-90622381D01*
X137715000Y-90622381D01*
X136524524Y-89622381D02*
X136429285Y-89622381D01*
X136334047Y-89670000D01*
X136286428Y-89717619D01*
X136238809Y-89812857D01*
X136191190Y-90003333D01*
X136191190Y-90241429D01*
X136238809Y-90431905D01*
X136286428Y-90527143D01*
X136334047Y-90574762D01*
X136429285Y-90622381D01*
X136524524Y-90622381D01*
X136619762Y-90574762D01*
X136667381Y-90527143D01*
X136715000Y-90431905D01*
X136762619Y-90241429D01*
X136762619Y-90003333D01*
X136715000Y-89812857D01*
X136667381Y-89717619D01*
X136619762Y-89670000D01*
X136524524Y-89622381D01*
X135238809Y-90622381D02*
X135810238Y-90622381D01*
X135524524Y-90622381D02*
X135524524Y-89622381D01*
X135619762Y-89765238D01*
X135715000Y-89860476D01*
X135810238Y-89908095D01*
X134619762Y-89622381D02*
X134524523Y-89622381D01*
X134429285Y-89670000D01*
X134381666Y-89717619D01*
X134334047Y-89812857D01*
X134286428Y-90003333D01*
X134286428Y-90241429D01*
X134334047Y-90431905D01*
X134381666Y-90527143D01*
X134429285Y-90574762D01*
X134524523Y-90622381D01*
X134619762Y-90622381D01*
X134715000Y-90574762D01*
X134762619Y-90527143D01*
X134810238Y-90431905D01*
X134857857Y-90241429D01*
X134857857Y-90003333D01*
X134810238Y-89812857D01*
X134762619Y-89717619D01*
X134715000Y-89670000D01*
X134619762Y-89622381D01*
X133095952Y-90241429D02*
X132334047Y-90241429D01*
X131143571Y-90574762D02*
X131000714Y-90622381D01*
X130762618Y-90622381D01*
X130667380Y-90574762D01*
X130619761Y-90527143D01*
X130572142Y-90431905D01*
X130572142Y-90336667D01*
X130619761Y-90241429D01*
X130667380Y-90193810D01*
X130762618Y-90146190D01*
X130953095Y-90098571D01*
X131048333Y-90050952D01*
X131095952Y-90003333D01*
X131143571Y-89908095D01*
X131143571Y-89812857D01*
X131095952Y-89717619D01*
X131048333Y-89670000D01*
X130953095Y-89622381D01*
X130714999Y-89622381D01*
X130572142Y-89670000D01*
X130857857Y-89479524D02*
X130857857Y-90765238D01*
X130143571Y-90622381D02*
X130143571Y-89622381D01*
X129905476Y-89622381D01*
X129762618Y-89670000D01*
X129667380Y-89765238D01*
X129619761Y-89860476D01*
X129572142Y-90050952D01*
X129572142Y-90193810D01*
X129619761Y-90384286D01*
X129667380Y-90479524D01*
X129762618Y-90574762D01*
X129905476Y-90622381D01*
X130143571Y-90622381D01*
X128953095Y-89622381D02*
X128857856Y-89622381D01*
X128762618Y-89670000D01*
X128714999Y-89717619D01*
X128667380Y-89812857D01*
X128619761Y-90003333D01*
X128619761Y-90241429D01*
X128667380Y-90431905D01*
X128714999Y-90527143D01*
X128762618Y-90574762D01*
X128857856Y-90622381D01*
X128953095Y-90622381D01*
X129048333Y-90574762D01*
X129095952Y-90527143D01*
X129143571Y-90431905D01*
X129191190Y-90241429D01*
X129191190Y-90003333D01*
X129143571Y-89812857D01*
X129095952Y-89717619D01*
X129048333Y-89670000D01*
X128953095Y-89622381D01*
X127667380Y-90622381D02*
X128238809Y-90622381D01*
X127953095Y-90622381D02*
X127953095Y-89622381D01*
X128048333Y-89765238D01*
X128143571Y-89860476D01*
X128238809Y-89908095D01*
X127286428Y-89717619D02*
X127238809Y-89670000D01*
X127143571Y-89622381D01*
X126905475Y-89622381D01*
X126810237Y-89670000D01*
X126762618Y-89717619D01*
X126714999Y-89812857D01*
X126714999Y-89908095D01*
X126762618Y-90050952D01*
X127334047Y-90622381D01*
X126714999Y-90622381D01*
X136893570Y-86808571D02*
X137179284Y-86808571D01*
X137322141Y-86880000D01*
X137393570Y-86951429D01*
X137536427Y-87165714D01*
X137607856Y-87451429D01*
X137607856Y-88022857D01*
X137536427Y-88165714D01*
X137464999Y-88237143D01*
X137322141Y-88308571D01*
X137036427Y-88308571D01*
X136893570Y-88237143D01*
X136822141Y-88165714D01*
X136750713Y-88022857D01*
X136750713Y-87665714D01*
X136822141Y-87522857D01*
X136893570Y-87451429D01*
X137036427Y-87380000D01*
X137322141Y-87380000D01*
X137464999Y-87451429D01*
X137536427Y-87522857D01*
X137607856Y-87665714D01*
X135893570Y-87451429D02*
X136036428Y-87380000D01*
X136107856Y-87308571D01*
X136179285Y-87165714D01*
X136179285Y-87094286D01*
X136107856Y-86951429D01*
X136036428Y-86880000D01*
X135893570Y-86808571D01*
X135607856Y-86808571D01*
X135464999Y-86880000D01*
X135393570Y-86951429D01*
X135322142Y-87094286D01*
X135322142Y-87165714D01*
X135393570Y-87308571D01*
X135464999Y-87380000D01*
X135607856Y-87451429D01*
X135893570Y-87451429D01*
X136036428Y-87522857D01*
X136107856Y-87594286D01*
X136179285Y-87737143D01*
X136179285Y-88022857D01*
X136107856Y-88165714D01*
X136036428Y-88237143D01*
X135893570Y-88308571D01*
X135607856Y-88308571D01*
X135464999Y-88237143D01*
X135393570Y-88165714D01*
X135322142Y-88022857D01*
X135322142Y-87737143D01*
X135393570Y-87594286D01*
X135464999Y-87522857D01*
X135607856Y-87451429D01*
X134750714Y-86951429D02*
X134679285Y-86880000D01*
X134536428Y-86808571D01*
X134179285Y-86808571D01*
X134036428Y-86880000D01*
X133964999Y-86951429D01*
X133893571Y-87094286D01*
X133893571Y-87237143D01*
X133964999Y-87451429D01*
X134822142Y-88308571D01*
X133893571Y-88308571D01*
X132465000Y-88308571D02*
X133322143Y-88308571D01*
X132893571Y-88308571D02*
X132893571Y-86808571D01*
X133036428Y-87022857D01*
X133179286Y-87165714D01*
X133322143Y-87237143D01*
X130679286Y-88308571D02*
X130679286Y-86808571D01*
X130107858Y-86808571D01*
X129965000Y-86880000D01*
X129893572Y-86951429D01*
X129822143Y-87094286D01*
X129822143Y-87308571D01*
X129893572Y-87451429D01*
X129965000Y-87522857D01*
X130107858Y-87594286D01*
X130679286Y-87594286D01*
X129179286Y-88308571D02*
X129179286Y-86808571D01*
X128536429Y-87880000D02*
X127822143Y-87880000D01*
X128679286Y-88308571D02*
X128179286Y-86808571D01*
X127679286Y-88308571D01*
D10*
X183172143Y-115116905D02*
X183095952Y-115116905D01*
X183019762Y-115155000D01*
X182981667Y-115193095D01*
X182943571Y-115269286D01*
X182905476Y-115421667D01*
X182905476Y-115612143D01*
X182943571Y-115764524D01*
X182981667Y-115840714D01*
X183019762Y-115878810D01*
X183095952Y-115916905D01*
X183172143Y-115916905D01*
X183248333Y-115878810D01*
X183286429Y-115840714D01*
X183324524Y-115764524D01*
X183362619Y-115612143D01*
X183362619Y-115421667D01*
X183324524Y-115269286D01*
X183286429Y-115193095D01*
X183248333Y-115155000D01*
X183172143Y-115116905D01*
X182143571Y-115916905D02*
X182600714Y-115916905D01*
X182372143Y-115916905D02*
X182372143Y-115116905D01*
X182448333Y-115231190D01*
X182524524Y-115307381D01*
X182600714Y-115345476D01*
X181648333Y-115116905D02*
X181572142Y-115116905D01*
X181495952Y-115155000D01*
X181457857Y-115193095D01*
X181419761Y-115269286D01*
X181381666Y-115421667D01*
X181381666Y-115612143D01*
X181419761Y-115764524D01*
X181457857Y-115840714D01*
X181495952Y-115878810D01*
X181572142Y-115916905D01*
X181648333Y-115916905D01*
X181724523Y-115878810D01*
X181762619Y-115840714D01*
X181800714Y-115764524D01*
X181838809Y-115612143D01*
X181838809Y-115421667D01*
X181800714Y-115269286D01*
X181762619Y-115193095D01*
X181724523Y-115155000D01*
X181648333Y-115116905D01*
X180886428Y-115116905D02*
X180810237Y-115116905D01*
X180734047Y-115155000D01*
X180695952Y-115193095D01*
X180657856Y-115269286D01*
X180619761Y-115421667D01*
X180619761Y-115612143D01*
X180657856Y-115764524D01*
X180695952Y-115840714D01*
X180734047Y-115878810D01*
X180810237Y-115916905D01*
X180886428Y-115916905D01*
X180962618Y-115878810D01*
X181000714Y-115840714D01*
X181038809Y-115764524D01*
X181076904Y-115612143D01*
X181076904Y-115421667D01*
X181038809Y-115269286D01*
X181000714Y-115193095D01*
X180962618Y-115155000D01*
X180886428Y-115116905D01*
X180276904Y-115840714D02*
X180238809Y-115878810D01*
X180276904Y-115916905D01*
X180314999Y-115878810D01*
X180276904Y-115840714D01*
X180276904Y-115916905D01*
X180276904Y-115421667D02*
X180238809Y-115459762D01*
X180276904Y-115497857D01*
X180314999Y-115459762D01*
X180276904Y-115421667D01*
X180276904Y-115497857D01*
X179629285Y-115497857D02*
X179895952Y-115497857D01*
X179895952Y-115916905D02*
X179895952Y-115116905D01*
X179514999Y-115116905D01*
X178943571Y-115497857D02*
X179210238Y-115497857D01*
X179210238Y-115916905D02*
X179210238Y-115116905D01*
X178829285Y-115116905D01*
D12*
X182712619Y-114022143D02*
X182760238Y-114069762D01*
X182903095Y-114117381D01*
X182998333Y-114117381D01*
X183141191Y-114069762D01*
X183236429Y-113974524D01*
X183284048Y-113879286D01*
X183331667Y-113688810D01*
X183331667Y-113545952D01*
X183284048Y-113355476D01*
X183236429Y-113260238D01*
X183141191Y-113165000D01*
X182998333Y-113117381D01*
X182903095Y-113117381D01*
X182760238Y-113165000D01*
X182712619Y-113212619D01*
X182284048Y-114117381D02*
X182284048Y-113117381D01*
X182284048Y-113593571D02*
X181712619Y-113593571D01*
X181712619Y-114117381D02*
X181712619Y-113117381D01*
X181284048Y-113831667D02*
X180807857Y-113831667D01*
X181379286Y-114117381D02*
X181045953Y-113117381D01*
X180712619Y-114117381D01*
X180379286Y-114117381D02*
X180379286Y-113117381D01*
X179807857Y-114117381D01*
X179807857Y-113117381D01*
X178807857Y-113165000D02*
X178903095Y-113117381D01*
X179045952Y-113117381D01*
X179188810Y-113165000D01*
X179284048Y-113260238D01*
X179331667Y-113355476D01*
X179379286Y-113545952D01*
X179379286Y-113688810D01*
X179331667Y-113879286D01*
X179284048Y-113974524D01*
X179188810Y-114069762D01*
X179045952Y-114117381D01*
X178950714Y-114117381D01*
X178807857Y-114069762D01*
X178760238Y-114022143D01*
X178760238Y-113688810D01*
X178950714Y-113688810D01*
X178331667Y-113593571D02*
X177998333Y-113593571D01*
X177855476Y-114117381D02*
X178331667Y-114117381D01*
X178331667Y-113117381D01*
X177855476Y-113117381D01*
X176665000Y-114117381D02*
X176665000Y-113117381D01*
X176331666Y-113831667D01*
X175998333Y-113117381D01*
X175998333Y-114117381D01*
X175522143Y-113593571D02*
X175188809Y-113593571D01*
X175045952Y-114117381D02*
X175522143Y-114117381D01*
X175522143Y-113117381D01*
X175045952Y-113117381D01*
X174617381Y-114117381D02*
X174617381Y-113117381D01*
X174284047Y-113831667D01*
X173950714Y-113117381D01*
X173950714Y-114117381D01*
X173284048Y-113117381D02*
X173093571Y-113117381D01*
X172998333Y-113165000D01*
X172903095Y-113260238D01*
X172855476Y-113450714D01*
X172855476Y-113784048D01*
X172903095Y-113974524D01*
X172998333Y-114069762D01*
X173093571Y-114117381D01*
X173284048Y-114117381D01*
X173379286Y-114069762D01*
X173474524Y-113974524D01*
X173522143Y-113784048D01*
X173522143Y-113450714D01*
X173474524Y-113260238D01*
X173379286Y-113165000D01*
X173284048Y-113117381D01*
X171855476Y-114117381D02*
X172188810Y-113641190D01*
X172426905Y-114117381D02*
X172426905Y-113117381D01*
X172045952Y-113117381D01*
X171950714Y-113165000D01*
X171903095Y-113212619D01*
X171855476Y-113307857D01*
X171855476Y-113450714D01*
X171903095Y-113545952D01*
X171950714Y-113593571D01*
X172045952Y-113641190D01*
X172426905Y-113641190D01*
X171236429Y-113641190D02*
X171236429Y-114117381D01*
X171569762Y-113117381D02*
X171236429Y-113641190D01*
X170903095Y-113117381D01*
X182450714Y-109037381D02*
X182450714Y-108037381D01*
X182212619Y-108037381D01*
X182069761Y-108085000D01*
X181974523Y-108180238D01*
X181926904Y-108275476D01*
X181879285Y-108465952D01*
X181879285Y-108608810D01*
X181926904Y-108799286D01*
X181974523Y-108894524D01*
X182069761Y-108989762D01*
X182212619Y-109037381D01*
X182450714Y-109037381D01*
X181450714Y-108037381D02*
X181450714Y-108846905D01*
X181403095Y-108942143D01*
X181355476Y-108989762D01*
X181260238Y-109037381D01*
X181069761Y-109037381D01*
X180974523Y-108989762D01*
X180926904Y-108942143D01*
X180879285Y-108846905D01*
X180879285Y-108037381D01*
X180403095Y-109037381D02*
X180403095Y-108037381D01*
X180069761Y-108751667D01*
X179736428Y-108037381D01*
X179736428Y-109037381D01*
X179260238Y-109037381D02*
X179260238Y-108037381D01*
X178879285Y-108037381D01*
X178784047Y-108085000D01*
X178736428Y-108132619D01*
X178688809Y-108227857D01*
X178688809Y-108370714D01*
X178736428Y-108465952D01*
X178784047Y-108513571D01*
X178879285Y-108561190D01*
X179260238Y-108561190D01*
X177498333Y-109037381D02*
X177498333Y-108037381D01*
X177164999Y-108751667D01*
X176831666Y-108037381D01*
X176831666Y-109037381D01*
X176355476Y-108513571D02*
X176022142Y-108513571D01*
X175879285Y-109037381D02*
X176355476Y-109037381D01*
X176355476Y-108037381D01*
X175879285Y-108037381D01*
X175450714Y-109037381D02*
X175450714Y-108037381D01*
X175117380Y-108751667D01*
X174784047Y-108037381D01*
X174784047Y-109037381D01*
X174117381Y-108037381D02*
X173926904Y-108037381D01*
X173831666Y-108085000D01*
X173736428Y-108180238D01*
X173688809Y-108370714D01*
X173688809Y-108704048D01*
X173736428Y-108894524D01*
X173831666Y-108989762D01*
X173926904Y-109037381D01*
X174117381Y-109037381D01*
X174212619Y-108989762D01*
X174307857Y-108894524D01*
X174355476Y-108704048D01*
X174355476Y-108370714D01*
X174307857Y-108180238D01*
X174212619Y-108085000D01*
X174117381Y-108037381D01*
X172688809Y-109037381D02*
X173022143Y-108561190D01*
X173260238Y-109037381D02*
X173260238Y-108037381D01*
X172879285Y-108037381D01*
X172784047Y-108085000D01*
X172736428Y-108132619D01*
X172688809Y-108227857D01*
X172688809Y-108370714D01*
X172736428Y-108465952D01*
X172784047Y-108513571D01*
X172879285Y-108561190D01*
X173260238Y-108561190D01*
X172069762Y-108561190D02*
X172069762Y-109037381D01*
X172403095Y-108037381D02*
X172069762Y-108561190D01*
X171736428Y-108037381D01*
X182974524Y-103909762D02*
X182831667Y-103957381D01*
X182593571Y-103957381D01*
X182498333Y-103909762D01*
X182450714Y-103862143D01*
X182403095Y-103766905D01*
X182403095Y-103671667D01*
X182450714Y-103576429D01*
X182498333Y-103528810D01*
X182593571Y-103481190D01*
X182784048Y-103433571D01*
X182879286Y-103385952D01*
X182926905Y-103338333D01*
X182974524Y-103243095D01*
X182974524Y-103147857D01*
X182926905Y-103052619D01*
X182879286Y-103005000D01*
X182784048Y-102957381D01*
X182545952Y-102957381D01*
X182403095Y-103005000D01*
X182688810Y-102814524D02*
X182688810Y-104100238D01*
X181784048Y-102957381D02*
X181688809Y-102957381D01*
X181593571Y-103005000D01*
X181545952Y-103052619D01*
X181498333Y-103147857D01*
X181450714Y-103338333D01*
X181450714Y-103576429D01*
X181498333Y-103766905D01*
X181545952Y-103862143D01*
X181593571Y-103909762D01*
X181688809Y-103957381D01*
X181784048Y-103957381D01*
X181879286Y-103909762D01*
X181926905Y-103862143D01*
X181974524Y-103766905D01*
X182022143Y-103576429D01*
X182022143Y-103338333D01*
X181974524Y-103147857D01*
X181926905Y-103052619D01*
X181879286Y-103005000D01*
X181784048Y-102957381D01*
X180831667Y-102957381D02*
X180736428Y-102957381D01*
X180641190Y-103005000D01*
X180593571Y-103052619D01*
X180545952Y-103147857D01*
X180498333Y-103338333D01*
X180498333Y-103576429D01*
X180545952Y-103766905D01*
X180593571Y-103862143D01*
X180641190Y-103909762D01*
X180736428Y-103957381D01*
X180831667Y-103957381D01*
X180926905Y-103909762D01*
X180974524Y-103862143D01*
X181022143Y-103766905D01*
X181069762Y-103576429D01*
X181069762Y-103338333D01*
X181022143Y-103147857D01*
X180974524Y-103052619D01*
X180926905Y-103005000D01*
X180831667Y-102957381D01*
X179879286Y-102957381D02*
X179784047Y-102957381D01*
X179688809Y-103005000D01*
X179641190Y-103052619D01*
X179593571Y-103147857D01*
X179545952Y-103338333D01*
X179545952Y-103576429D01*
X179593571Y-103766905D01*
X179641190Y-103862143D01*
X179688809Y-103909762D01*
X179784047Y-103957381D01*
X179879286Y-103957381D01*
X179974524Y-103909762D01*
X180022143Y-103862143D01*
X180069762Y-103766905D01*
X180117381Y-103576429D01*
X180117381Y-103338333D01*
X180069762Y-103147857D01*
X180022143Y-103052619D01*
X179974524Y-103005000D01*
X179879286Y-102957381D01*
X178926905Y-102957381D02*
X178831666Y-102957381D01*
X178736428Y-103005000D01*
X178688809Y-103052619D01*
X178641190Y-103147857D01*
X178593571Y-103338333D01*
X178593571Y-103576429D01*
X178641190Y-103766905D01*
X178688809Y-103862143D01*
X178736428Y-103909762D01*
X178831666Y-103957381D01*
X178926905Y-103957381D01*
X179022143Y-103909762D01*
X179069762Y-103862143D01*
X179117381Y-103766905D01*
X179165000Y-103576429D01*
X179165000Y-103338333D01*
X179117381Y-103147857D01*
X179069762Y-103052619D01*
X179022143Y-103005000D01*
X178926905Y-102957381D01*
X177403095Y-103576429D02*
X176641190Y-103576429D01*
X175450714Y-103909762D02*
X175307857Y-103957381D01*
X175069761Y-103957381D01*
X174974523Y-103909762D01*
X174926904Y-103862143D01*
X174879285Y-103766905D01*
X174879285Y-103671667D01*
X174926904Y-103576429D01*
X174974523Y-103528810D01*
X175069761Y-103481190D01*
X175260238Y-103433571D01*
X175355476Y-103385952D01*
X175403095Y-103338333D01*
X175450714Y-103243095D01*
X175450714Y-103147857D01*
X175403095Y-103052619D01*
X175355476Y-103005000D01*
X175260238Y-102957381D01*
X175022142Y-102957381D01*
X174879285Y-103005000D01*
X175165000Y-102814524D02*
X175165000Y-104100238D01*
X174545952Y-102957381D02*
X173879285Y-102957381D01*
X174307857Y-103957381D01*
X173164999Y-103433571D02*
X173498333Y-103433571D01*
X173498333Y-103957381D02*
X173498333Y-102957381D01*
X173022142Y-102957381D01*
X172307856Y-103433571D02*
X172641190Y-103433571D01*
X172641190Y-103957381D02*
X172641190Y-102957381D01*
X172164999Y-102957381D01*
X171450713Y-103433571D02*
X171784047Y-103433571D01*
X171784047Y-103957381D02*
X171784047Y-102957381D01*
X171307856Y-102957381D01*
X183307857Y-101572143D02*
X183093571Y-101643571D01*
X182736428Y-101643571D01*
X182593571Y-101572143D01*
X182522142Y-101500714D01*
X182450714Y-101357857D01*
X182450714Y-101215000D01*
X182522142Y-101072143D01*
X182593571Y-101000714D01*
X182736428Y-100929286D01*
X183022142Y-100857857D01*
X183165000Y-100786429D01*
X183236428Y-100715000D01*
X183307857Y-100572143D01*
X183307857Y-100429286D01*
X183236428Y-100286429D01*
X183165000Y-100215000D01*
X183022142Y-100143571D01*
X182665000Y-100143571D01*
X182450714Y-100215000D01*
X182022143Y-100143571D02*
X181165000Y-100143571D01*
X181593571Y-101643571D02*
X181593571Y-100143571D01*
X180736429Y-101215000D02*
X180022143Y-101215000D01*
X180879286Y-101643571D02*
X180379286Y-100143571D01*
X179879286Y-101643571D01*
X179593572Y-100143571D02*
X178736429Y-100143571D01*
X179165000Y-101643571D02*
X179165000Y-100143571D01*
X178236429Y-101643571D02*
X178236429Y-100143571D01*
X176665000Y-101500714D02*
X176736429Y-101572143D01*
X176950715Y-101643571D01*
X177093572Y-101643571D01*
X177307857Y-101572143D01*
X177450715Y-101429286D01*
X177522143Y-101286429D01*
X177593572Y-101000714D01*
X177593572Y-100786429D01*
X177522143Y-100500714D01*
X177450715Y-100357857D01*
X177307857Y-100215000D01*
X177093572Y-100143571D01*
X176950715Y-100143571D01*
X176736429Y-100215000D01*
X176665000Y-100286429D01*
X174022143Y-101643571D02*
X174522143Y-100929286D01*
X174879286Y-101643571D02*
X174879286Y-100143571D01*
X174307858Y-100143571D01*
X174165000Y-100215000D01*
X174093572Y-100286429D01*
X174022143Y-100429286D01*
X174022143Y-100643571D01*
X174093572Y-100786429D01*
X174165000Y-100857857D01*
X174307858Y-100929286D01*
X174879286Y-100929286D01*
X173450715Y-101215000D02*
X172736429Y-101215000D01*
X173593572Y-101643571D02*
X173093572Y-100143571D01*
X172593572Y-101643571D01*
X172093572Y-101643571D02*
X172093572Y-100143571D01*
X171593572Y-101215000D01*
X171093572Y-100143571D01*
X171093572Y-101643571D01*
D11*
X194945000Y-89535000D02*
X194945000Y-90805000D01*
X192405000Y-89535000D02*
X194945000Y-89535000D01*
X192405000Y-90805000D02*
X192405000Y-89535000D01*
X205740000Y-89535000D02*
X209550000Y-89535000D01*
X205105000Y-89535000D02*
X205105000Y-90805000D01*
X202565000Y-89535000D02*
X205105000Y-89535000D01*
X202565000Y-89535000D02*
X202565000Y-90805000D01*
X200660000Y-89535000D02*
X201930000Y-89535000D01*
X195580000Y-89535000D02*
X199390000Y-89535000D01*
X190500000Y-89535000D02*
X191770000Y-89535000D01*
X190500000Y-93345000D02*
X190500000Y-89535000D01*
X207645000Y-95250000D02*
X207645000Y-93980000D01*
X192405000Y-95250000D02*
X192405000Y-93980000D01*
X213360000Y-117475000D02*
X213360000Y-116205000D01*
X213360000Y-125095000D02*
X213360000Y-121285000D01*
X209550000Y-125095000D02*
X213360000Y-125095000D01*
X209550000Y-121920000D02*
X209550000Y-125095000D01*
X213360000Y-120650000D02*
X212090000Y-120650000D01*
X213360000Y-118110000D02*
X213360000Y-120650000D01*
X212090000Y-118110000D02*
X213360000Y-118110000D01*
X169545000Y-130810000D02*
X184785000Y-130810000D01*
X169545000Y-129540000D02*
X169545000Y-130810000D01*
X123190000Y-113030000D02*
X123190000Y-111760000D01*
X123190000Y-113665000D02*
X121920000Y-113665000D01*
X123190000Y-116205000D02*
X123190000Y-113665000D01*
X121920000Y-116205000D02*
X123190000Y-116205000D01*
X123190000Y-120650000D02*
X123190000Y-116840000D01*
X119380000Y-120650000D02*
X123190000Y-120650000D01*
X119380000Y-117475000D02*
X119380000Y-120650000D01*
X122555000Y-85725000D02*
X122555000Y-86995000D01*
X122555000Y-80645000D02*
X122555000Y-81915000D01*
X122555000Y-85090000D02*
X121285000Y-85090000D01*
X122555000Y-82550000D02*
X122555000Y-85090000D01*
X121285000Y-82550000D02*
X122555000Y-82550000D01*
X149860000Y-59690000D02*
X151130000Y-59690000D01*
X144780000Y-59690000D02*
X146050000Y-59690000D01*
X149225000Y-59690000D02*
X149225000Y-60960000D01*
X146685000Y-59690000D02*
X149225000Y-59690000D01*
X146685000Y-60960000D02*
X146685000Y-59690000D01*
X154305000Y-59055000D02*
X154305000Y-57785000D01*
X146685000Y-59055000D02*
X154305000Y-59055000D01*
X146685000Y-57785000D02*
X146685000Y-59055000D01*
X154305000Y-47625000D02*
X154305000Y-48895000D01*
X146685000Y-47625000D02*
X154305000Y-47625000D01*
X146685000Y-48895000D02*
X146685000Y-47625000D01*
X177165000Y-91440000D02*
X177165000Y-90170000D01*
X169545000Y-91440000D02*
X177165000Y-91440000D01*
X169545000Y-90170000D02*
X169545000Y-91440000D01*
X192405000Y-88900000D02*
X192405000Y-87630000D01*
X184785000Y-88900000D02*
X192405000Y-88900000D01*
X184785000Y-87630000D02*
X184785000Y-88900000D01*
X207645000Y-88900000D02*
X207645000Y-87630000D01*
X200025000Y-88900000D02*
X207645000Y-88900000D01*
X200025000Y-87630000D02*
X200025000Y-88900000D01*
X207645000Y-69850000D02*
X207645000Y-71120000D01*
X200025000Y-69850000D02*
X207645000Y-69850000D01*
X200025000Y-71120000D02*
X200025000Y-69850000D01*
X192405000Y-69850000D02*
X192405000Y-71120000D01*
X184785000Y-69850000D02*
X192405000Y-69850000D01*
X184785000Y-71120000D02*
X184785000Y-69850000D01*
X177165000Y-69850000D02*
X177165000Y-71120000D01*
X169545000Y-69850000D02*
X177165000Y-69850000D01*
X169545000Y-71120000D02*
X169545000Y-69850000D01*
X174625000Y-50165000D02*
X177800000Y-50165000D01*
X174625000Y-65405000D02*
X174625000Y-50165000D01*
X177800000Y-65405000D02*
X174625000Y-65405000D01*
X158750000Y-73025000D02*
X157480000Y-73025000D01*
X158750000Y-65405000D02*
X158750000Y-73025000D01*
X157480000Y-65405000D02*
X158750000Y-65405000D01*
X121920000Y-73025000D02*
X123190000Y-73025000D01*
X121920000Y-65405000D02*
X121920000Y-73025000D01*
X123190000Y-65405000D02*
X121920000Y-65405000D01*
X184785000Y-93980000D02*
X184785000Y-95250000D01*
X169545000Y-93980000D02*
X184785000Y-93980000D01*
X169545000Y-95250000D02*
X169545000Y-93980000D01*
X184785000Y-130810000D02*
X184785000Y-129540000D01*
X163195000Y-132715000D02*
X163195000Y-131445000D01*
X147955000Y-132715000D02*
X163195000Y-132715000D01*
X147955000Y-131445000D02*
X147955000Y-132715000D01*
X140335000Y-132715000D02*
X140335000Y-131445000D01*
X125095000Y-132715000D02*
X140335000Y-132715000D01*
X125095000Y-131445000D02*
X125095000Y-132715000D01*
X140335000Y-80645000D02*
X140335000Y-81915000D01*
X125095000Y-80645000D02*
X140335000Y-80645000D01*
X125095000Y-81915000D02*
X125095000Y-80645000D01*
X163195000Y-80645000D02*
X163195000Y-81915000D01*
X147955000Y-80645000D02*
X163195000Y-80645000D01*
X147955000Y-81915000D02*
X147955000Y-80645000D01*
D10*
X117671905Y-81629524D02*
X118471905Y-81896191D01*
X117671905Y-82162858D01*
X118471905Y-82429524D02*
X117671905Y-82429524D01*
X117671905Y-82734286D01*
X117710000Y-82810477D01*
X117748095Y-82848572D01*
X117824286Y-82886667D01*
X117938571Y-82886667D01*
X118014762Y-82848572D01*
X118052857Y-82810477D01*
X118090952Y-82734286D01*
X118090952Y-82429524D01*
X118548095Y-83039048D02*
X118548095Y-83648572D01*
X117710000Y-84258096D02*
X117671905Y-84181905D01*
X117671905Y-84067620D01*
X117710000Y-83953334D01*
X117786190Y-83877143D01*
X117862381Y-83839048D01*
X118014762Y-83800953D01*
X118129048Y-83800953D01*
X118281429Y-83839048D01*
X118357619Y-83877143D01*
X118433810Y-83953334D01*
X118471905Y-84067620D01*
X118471905Y-84143810D01*
X118433810Y-84258096D01*
X118395714Y-84296191D01*
X118129048Y-84296191D01*
X118129048Y-84143810D01*
X118471905Y-84639048D02*
X117671905Y-84639048D01*
X118471905Y-85096191D01*
X117671905Y-85096191D01*
X118471905Y-85477143D02*
X117671905Y-85477143D01*
X117671905Y-85667619D01*
X117710000Y-85781905D01*
X117786190Y-85858096D01*
X117862381Y-85896191D01*
X118014762Y-85934286D01*
X118129048Y-85934286D01*
X118281429Y-85896191D01*
X118357619Y-85858096D01*
X118433810Y-85781905D01*
X118471905Y-85667619D01*
X118471905Y-85477143D01*
D11*
X118745000Y-86995000D02*
X118745000Y-80645000D01*
X122555000Y-86995000D02*
X118745000Y-86995000D01*
X118745000Y-80645000D02*
X122555000Y-80645000D01*
D10*
X143706905Y-59652143D02*
X143706905Y-59804524D01*
X143745000Y-59880715D01*
X143821190Y-59956905D01*
X143973571Y-59995000D01*
X144240238Y-59995000D01*
X144392619Y-59956905D01*
X144468810Y-59880715D01*
X144506905Y-59804524D01*
X144506905Y-59652143D01*
X144468810Y-59575953D01*
X144392619Y-59499762D01*
X144240238Y-59461667D01*
X143973571Y-59461667D01*
X143821190Y-59499762D01*
X143745000Y-59575953D01*
X143706905Y-59652143D01*
X144468810Y-60299762D02*
X144506905Y-60414048D01*
X144506905Y-60604524D01*
X144468810Y-60680714D01*
X144430714Y-60718810D01*
X144354524Y-60756905D01*
X144278333Y-60756905D01*
X144202143Y-60718810D01*
X144164048Y-60680714D01*
X144125952Y-60604524D01*
X144087857Y-60452143D01*
X144049762Y-60375952D01*
X144011667Y-60337857D01*
X143935476Y-60299762D01*
X143859286Y-60299762D01*
X143783095Y-60337857D01*
X143745000Y-60375952D01*
X143706905Y-60452143D01*
X143706905Y-60642619D01*
X143745000Y-60756905D01*
X144430714Y-61556905D02*
X144468810Y-61518810D01*
X144506905Y-61404524D01*
X144506905Y-61328334D01*
X144468810Y-61214048D01*
X144392619Y-61137857D01*
X144316429Y-61099762D01*
X144164048Y-61061667D01*
X144049762Y-61061667D01*
X143897381Y-61099762D01*
X143821190Y-61137857D01*
X143745000Y-61214048D01*
X143706905Y-61328334D01*
X143706905Y-61404524D01*
X143745000Y-61518810D01*
X143783095Y-61556905D01*
X144583095Y-61709286D02*
X144583095Y-62318810D01*
X144087857Y-62509286D02*
X144087857Y-62775953D01*
X144506905Y-62890239D02*
X144506905Y-62509286D01*
X143706905Y-62509286D01*
X143706905Y-62890239D01*
X144506905Y-63233096D02*
X143706905Y-63233096D01*
X144506905Y-63690239D01*
X143706905Y-63690239D01*
D11*
X144780000Y-63500000D02*
X144780000Y-59690000D01*
X151130000Y-63500000D02*
X144780000Y-63500000D01*
X151130000Y-59690000D02*
X151130000Y-63500000D01*
D10*
X119106905Y-114376429D02*
X118306905Y-114376429D01*
X118306905Y-114681191D01*
X118345000Y-114757382D01*
X118383095Y-114795477D01*
X118459286Y-114833572D01*
X118573571Y-114833572D01*
X118649762Y-114795477D01*
X118687857Y-114757382D01*
X118725952Y-114681191D01*
X118725952Y-114376429D01*
X119106905Y-115176429D02*
X118306905Y-115176429D01*
X118878333Y-115519286D02*
X118878333Y-115900238D01*
X119106905Y-115443095D02*
X118306905Y-115709762D01*
X119106905Y-115976429D01*
X119183095Y-116052619D02*
X119183095Y-116662143D01*
X118687857Y-116852619D02*
X118687857Y-117119286D01*
X119106905Y-117233572D02*
X119106905Y-116852619D01*
X118306905Y-116852619D01*
X118306905Y-117233572D01*
X119106905Y-117576429D02*
X118306905Y-117576429D01*
X119106905Y-118033572D01*
X118306905Y-118033572D01*
D11*
X119380000Y-111760000D02*
X123190000Y-111760000D01*
X119380000Y-117475000D02*
X119380000Y-111760000D01*
D10*
X190106095Y-131933905D02*
X190372762Y-131552952D01*
X190563238Y-131933905D02*
X190563238Y-131133905D01*
X190258476Y-131133905D01*
X190182285Y-131172000D01*
X190144190Y-131210095D01*
X190106095Y-131286286D01*
X190106095Y-131400571D01*
X190144190Y-131476762D01*
X190182285Y-131514857D01*
X190258476Y-131552952D01*
X190563238Y-131552952D01*
X189801333Y-131705333D02*
X189420381Y-131705333D01*
X189877524Y-131933905D02*
X189610857Y-131133905D01*
X189344190Y-131933905D01*
X189077524Y-131933905D02*
X189077524Y-131133905D01*
X188810857Y-131705333D01*
X188544190Y-131133905D01*
X188544190Y-131933905D01*
X188353714Y-132010095D02*
X187744190Y-132010095D01*
X187553714Y-131514857D02*
X187287047Y-131514857D01*
X187172761Y-131933905D02*
X187553714Y-131933905D01*
X187553714Y-131133905D01*
X187172761Y-131133905D01*
X186829904Y-131933905D02*
X186829904Y-131133905D01*
X186372761Y-131933905D01*
X186372761Y-131133905D01*
D11*
X212725000Y-133985000D02*
X212725000Y-139065000D01*
D10*
X214356905Y-118935714D02*
X213975952Y-118669047D01*
X214356905Y-118478571D02*
X213556905Y-118478571D01*
X213556905Y-118783333D01*
X213595000Y-118859524D01*
X213633095Y-118897619D01*
X213709286Y-118935714D01*
X213823571Y-118935714D01*
X213899762Y-118897619D01*
X213937857Y-118859524D01*
X213975952Y-118783333D01*
X213975952Y-118478571D01*
X213556905Y-119430952D02*
X213556905Y-119583333D01*
X213595000Y-119659524D01*
X213671190Y-119735714D01*
X213823571Y-119773809D01*
X214090238Y-119773809D01*
X214242619Y-119735714D01*
X214318810Y-119659524D01*
X214356905Y-119583333D01*
X214356905Y-119430952D01*
X214318810Y-119354762D01*
X214242619Y-119278571D01*
X214090238Y-119240476D01*
X213823571Y-119240476D01*
X213671190Y-119278571D01*
X213595000Y-119354762D01*
X213556905Y-119430952D01*
X214356905Y-120116666D02*
X213556905Y-120116666D01*
X214128333Y-120383333D01*
X213556905Y-120650000D01*
X214356905Y-120650000D01*
X214433095Y-120840476D02*
X214433095Y-121450000D01*
X213937857Y-121640476D02*
X213937857Y-121907143D01*
X214356905Y-122021429D02*
X214356905Y-121640476D01*
X213556905Y-121640476D01*
X213556905Y-122021429D01*
X214356905Y-122364286D02*
X213556905Y-122364286D01*
X214356905Y-122821429D01*
X213556905Y-122821429D01*
D11*
X209550000Y-116205000D02*
X209550000Y-121920000D01*
X213360000Y-116205000D02*
X209550000Y-116205000D01*
X153035000Y-46990000D02*
X157480000Y-46990000D01*
X153035000Y-41910000D02*
X153035000Y-46990000D01*
X157480000Y-41910000D02*
X153035000Y-41910000D01*
X157480000Y-41910000D02*
X158750000Y-41910000D01*
X158750000Y-46990000D02*
X157480000Y-46990000D01*
D12*
X181721190Y-43077381D02*
X181721190Y-43791667D01*
X181768810Y-43934524D01*
X181864048Y-44029762D01*
X182006905Y-44077381D01*
X182102143Y-44077381D01*
X180816428Y-43410714D02*
X180816428Y-44077381D01*
X181245000Y-43410714D02*
X181245000Y-43934524D01*
X181197381Y-44029762D01*
X181102143Y-44077381D01*
X180959285Y-44077381D01*
X180864047Y-44029762D01*
X180816428Y-43982143D01*
X180340238Y-44077381D02*
X180340238Y-43410714D01*
X180340238Y-43505952D02*
X180292619Y-43458333D01*
X180197381Y-43410714D01*
X180054523Y-43410714D01*
X179959285Y-43458333D01*
X179911666Y-43553571D01*
X179911666Y-44077381D01*
X179911666Y-43553571D02*
X179864047Y-43458333D01*
X179768809Y-43410714D01*
X179625952Y-43410714D01*
X179530714Y-43458333D01*
X179483095Y-43553571D01*
X179483095Y-44077381D01*
X179006905Y-43410714D02*
X179006905Y-44410714D01*
X179006905Y-43458333D02*
X178911667Y-43410714D01*
X178721190Y-43410714D01*
X178625952Y-43458333D01*
X178578333Y-43505952D01*
X178530714Y-43601190D01*
X178530714Y-43886905D01*
X178578333Y-43982143D01*
X178625952Y-44029762D01*
X178721190Y-44077381D01*
X178911667Y-44077381D01*
X179006905Y-44029762D01*
X177721190Y-44029762D02*
X177816428Y-44077381D01*
X178006905Y-44077381D01*
X178102143Y-44029762D01*
X178149762Y-43934524D01*
X178149762Y-43553571D01*
X178102143Y-43458333D01*
X178006905Y-43410714D01*
X177816428Y-43410714D01*
X177721190Y-43458333D01*
X177673571Y-43553571D01*
X177673571Y-43648810D01*
X178149762Y-43744048D01*
X177245000Y-44077381D02*
X177245000Y-43410714D01*
X177245000Y-43601190D02*
X177197381Y-43505952D01*
X177149762Y-43458333D01*
X177054524Y-43410714D01*
X176959285Y-43410714D01*
X176006904Y-43410714D02*
X175625952Y-43410714D01*
X175864047Y-43077381D02*
X175864047Y-43934524D01*
X175816428Y-44029762D01*
X175721190Y-44077381D01*
X175625952Y-44077381D01*
X175149761Y-44077381D02*
X175244999Y-44029762D01*
X175292618Y-43982143D01*
X175340237Y-43886905D01*
X175340237Y-43601190D01*
X175292618Y-43505952D01*
X175244999Y-43458333D01*
X175149761Y-43410714D01*
X175006903Y-43410714D01*
X174911665Y-43458333D01*
X174864046Y-43505952D01*
X174816427Y-43601190D01*
X174816427Y-43886905D01*
X174864046Y-43982143D01*
X174911665Y-44029762D01*
X175006903Y-44077381D01*
X175149761Y-44077381D01*
X173625951Y-43410714D02*
X173625951Y-44410714D01*
X173625951Y-43458333D02*
X173530713Y-43410714D01*
X173340236Y-43410714D01*
X173244998Y-43458333D01*
X173197379Y-43505952D01*
X173149760Y-43601190D01*
X173149760Y-43886905D01*
X173197379Y-43982143D01*
X173244998Y-44029762D01*
X173340236Y-44077381D01*
X173530713Y-44077381D01*
X173625951Y-44029762D01*
X172578332Y-44077381D02*
X172673570Y-44029762D01*
X172721189Y-43982143D01*
X172768808Y-43886905D01*
X172768808Y-43601190D01*
X172721189Y-43505952D01*
X172673570Y-43458333D01*
X172578332Y-43410714D01*
X172435474Y-43410714D01*
X172340236Y-43458333D01*
X172292617Y-43505952D01*
X172244998Y-43601190D01*
X172244998Y-43886905D01*
X172292617Y-43982143D01*
X172340236Y-44029762D01*
X172435474Y-44077381D01*
X172578332Y-44077381D01*
X171911665Y-43410714D02*
X171721189Y-44077381D01*
X171530712Y-43601190D01*
X171340236Y-44077381D01*
X171149760Y-43410714D01*
X170387855Y-44029762D02*
X170483093Y-44077381D01*
X170673570Y-44077381D01*
X170768808Y-44029762D01*
X170816427Y-43934524D01*
X170816427Y-43553571D01*
X170768808Y-43458333D01*
X170673570Y-43410714D01*
X170483093Y-43410714D01*
X170387855Y-43458333D01*
X170340236Y-43553571D01*
X170340236Y-43648810D01*
X170816427Y-43744048D01*
X169911665Y-44077381D02*
X169911665Y-43410714D01*
X169911665Y-43601190D02*
X169864046Y-43505952D01*
X169816427Y-43458333D01*
X169721189Y-43410714D01*
X169625950Y-43410714D01*
X168578331Y-44029762D02*
X168435474Y-44077381D01*
X168197378Y-44077381D01*
X168102140Y-44029762D01*
X168054521Y-43982143D01*
X168006902Y-43886905D01*
X168006902Y-43791667D01*
X168054521Y-43696429D01*
X168102140Y-43648810D01*
X168197378Y-43601190D01*
X168387855Y-43553571D01*
X168483093Y-43505952D01*
X168530712Y-43458333D01*
X168578331Y-43363095D01*
X168578331Y-43267857D01*
X168530712Y-43172619D01*
X168483093Y-43125000D01*
X168387855Y-43077381D01*
X168149759Y-43077381D01*
X168006902Y-43125000D01*
X167244997Y-43553571D02*
X167102140Y-43601190D01*
X167054521Y-43648810D01*
X167006902Y-43744048D01*
X167006902Y-43886905D01*
X167054521Y-43982143D01*
X167102140Y-44029762D01*
X167197378Y-44077381D01*
X167578331Y-44077381D01*
X167578331Y-43077381D01*
X167244997Y-43077381D01*
X167149759Y-43125000D01*
X167102140Y-43172619D01*
X167054521Y-43267857D01*
X167054521Y-43363095D01*
X167102140Y-43458333D01*
X167149759Y-43505952D01*
X167244997Y-43553571D01*
X167578331Y-43553571D01*
X166006902Y-43982143D02*
X166054521Y-44029762D01*
X166197378Y-44077381D01*
X166292616Y-44077381D01*
X166435474Y-44029762D01*
X166530712Y-43934524D01*
X166578331Y-43839286D01*
X166625950Y-43648810D01*
X166625950Y-43505952D01*
X166578331Y-43315476D01*
X166530712Y-43220238D01*
X166435474Y-43125000D01*
X166292616Y-43077381D01*
X166197378Y-43077381D01*
X166054521Y-43125000D01*
X166006902Y-43172619D01*
X164959283Y-43410714D02*
X164578331Y-43410714D01*
X164816426Y-44077381D02*
X164816426Y-43220238D01*
X164768807Y-43125000D01*
X164673569Y-43077381D01*
X164578331Y-43077381D01*
X164244997Y-44077381D02*
X164244997Y-43410714D01*
X164244997Y-43601190D02*
X164197378Y-43505952D01*
X164149759Y-43458333D01*
X164054521Y-43410714D01*
X163959282Y-43410714D01*
X163483092Y-44077381D02*
X163578330Y-44029762D01*
X163625949Y-43982143D01*
X163673568Y-43886905D01*
X163673568Y-43601190D01*
X163625949Y-43505952D01*
X163578330Y-43458333D01*
X163483092Y-43410714D01*
X163340234Y-43410714D01*
X163244996Y-43458333D01*
X163197377Y-43505952D01*
X163149758Y-43601190D01*
X163149758Y-43886905D01*
X163197377Y-43982143D01*
X163244996Y-44029762D01*
X163340234Y-44077381D01*
X163483092Y-44077381D01*
X162721187Y-44077381D02*
X162721187Y-43410714D01*
X162721187Y-43505952D02*
X162673568Y-43458333D01*
X162578330Y-43410714D01*
X162435472Y-43410714D01*
X162340234Y-43458333D01*
X162292615Y-43553571D01*
X162292615Y-44077381D01*
X162292615Y-43553571D02*
X162244996Y-43458333D01*
X162149758Y-43410714D01*
X162006901Y-43410714D01*
X161911663Y-43458333D01*
X161864044Y-43553571D01*
X161864044Y-44077381D01*
X160673568Y-43791667D02*
X160197377Y-43791667D01*
X160768806Y-44077381D02*
X160435473Y-43077381D01*
X160102139Y-44077381D01*
X159768806Y-44077381D02*
X159768806Y-43410714D01*
X159768806Y-43601190D02*
X159721187Y-43505952D01*
X159673568Y-43458333D01*
X159578330Y-43410714D01*
X159483091Y-43410714D01*
X158721186Y-44077381D02*
X158721186Y-43077381D01*
X158721186Y-44029762D02*
X158816424Y-44077381D01*
X159006901Y-44077381D01*
X159102139Y-44029762D01*
X159149758Y-43982143D01*
X159197377Y-43886905D01*
X159197377Y-43601190D01*
X159149758Y-43505952D01*
X159102139Y-43458333D01*
X159006901Y-43410714D01*
X158816424Y-43410714D01*
X158721186Y-43458333D01*
X157816424Y-43410714D02*
X157816424Y-44077381D01*
X158244996Y-43410714D02*
X158244996Y-43934524D01*
X158197377Y-44029762D01*
X158102139Y-44077381D01*
X157959281Y-44077381D01*
X157864043Y-44029762D01*
X157816424Y-43982143D01*
X157340234Y-44077381D02*
X157340234Y-43410714D01*
X157340234Y-43077381D02*
X157387853Y-43125000D01*
X157340234Y-43172619D01*
X157292615Y-43125000D01*
X157340234Y-43077381D01*
X157340234Y-43172619D01*
X156864044Y-43410714D02*
X156864044Y-44077381D01*
X156864044Y-43505952D02*
X156816425Y-43458333D01*
X156721187Y-43410714D01*
X156578329Y-43410714D01*
X156483091Y-43458333D01*
X156435472Y-43553571D01*
X156435472Y-44077381D01*
X155816425Y-44077381D02*
X155911663Y-44029762D01*
X155959282Y-43982143D01*
X156006901Y-43886905D01*
X156006901Y-43601190D01*
X155959282Y-43505952D01*
X155911663Y-43458333D01*
X155816425Y-43410714D01*
X155673567Y-43410714D01*
X155578329Y-43458333D01*
X155530710Y-43505952D01*
X155483091Y-43601190D01*
X155483091Y-43886905D01*
X155530710Y-43982143D01*
X155578329Y-44029762D01*
X155673567Y-44077381D01*
X155816425Y-44077381D01*
X155006901Y-44029762D02*
X155006901Y-44077381D01*
X155054520Y-44172619D01*
X155102139Y-44220238D01*
X182006905Y-45060714D02*
X182006905Y-45727381D01*
X182006905Y-45155952D02*
X181959286Y-45108333D01*
X181864048Y-45060714D01*
X181721190Y-45060714D01*
X181625952Y-45108333D01*
X181578333Y-45203571D01*
X181578333Y-45727381D01*
X180959286Y-45727381D02*
X181054524Y-45679762D01*
X181102143Y-45632143D01*
X181149762Y-45536905D01*
X181149762Y-45251190D01*
X181102143Y-45155952D01*
X181054524Y-45108333D01*
X180959286Y-45060714D01*
X180816428Y-45060714D01*
X180721190Y-45108333D01*
X180673571Y-45155952D01*
X180625952Y-45251190D01*
X180625952Y-45536905D01*
X180673571Y-45632143D01*
X180721190Y-45679762D01*
X180816428Y-45727381D01*
X180959286Y-45727381D01*
X180340238Y-45060714D02*
X179959286Y-45060714D01*
X180197381Y-44727381D02*
X180197381Y-45584524D01*
X180149762Y-45679762D01*
X180054524Y-45727381D01*
X179959286Y-45727381D01*
X178864047Y-45727381D02*
X178864047Y-45060714D01*
X178864047Y-45251190D02*
X178816428Y-45155952D01*
X178768809Y-45108333D01*
X178673571Y-45060714D01*
X178578332Y-45060714D01*
X177864046Y-45679762D02*
X177959284Y-45727381D01*
X178149761Y-45727381D01*
X178244999Y-45679762D01*
X178292618Y-45584524D01*
X178292618Y-45203571D01*
X178244999Y-45108333D01*
X178149761Y-45060714D01*
X177959284Y-45060714D01*
X177864046Y-45108333D01*
X177816427Y-45203571D01*
X177816427Y-45298810D01*
X178292618Y-45394048D01*
X176959284Y-45679762D02*
X177054522Y-45727381D01*
X177244999Y-45727381D01*
X177340237Y-45679762D01*
X177387856Y-45632143D01*
X177435475Y-45536905D01*
X177435475Y-45251190D01*
X177387856Y-45155952D01*
X177340237Y-45108333D01*
X177244999Y-45060714D01*
X177054522Y-45060714D01*
X176959284Y-45108333D01*
X176387856Y-45727381D02*
X176483094Y-45679762D01*
X176530713Y-45632143D01*
X176578332Y-45536905D01*
X176578332Y-45251190D01*
X176530713Y-45155952D01*
X176483094Y-45108333D01*
X176387856Y-45060714D01*
X176244998Y-45060714D01*
X176149760Y-45108333D01*
X176102141Y-45155952D01*
X176054522Y-45251190D01*
X176054522Y-45536905D01*
X176102141Y-45632143D01*
X176149760Y-45679762D01*
X176244998Y-45727381D01*
X176387856Y-45727381D01*
X175625951Y-45727381D02*
X175625951Y-45060714D01*
X175625951Y-45155952D02*
X175578332Y-45108333D01*
X175483094Y-45060714D01*
X175340236Y-45060714D01*
X175244998Y-45108333D01*
X175197379Y-45203571D01*
X175197379Y-45727381D01*
X175197379Y-45203571D02*
X175149760Y-45108333D01*
X175054522Y-45060714D01*
X174911665Y-45060714D01*
X174816427Y-45108333D01*
X174768808Y-45203571D01*
X174768808Y-45727381D01*
X174292618Y-45727381D02*
X174292618Y-45060714D01*
X174292618Y-45155952D02*
X174244999Y-45108333D01*
X174149761Y-45060714D01*
X174006903Y-45060714D01*
X173911665Y-45108333D01*
X173864046Y-45203571D01*
X173864046Y-45727381D01*
X173864046Y-45203571D02*
X173816427Y-45108333D01*
X173721189Y-45060714D01*
X173578332Y-45060714D01*
X173483094Y-45108333D01*
X173435475Y-45203571D01*
X173435475Y-45727381D01*
X172578332Y-45679762D02*
X172673570Y-45727381D01*
X172864047Y-45727381D01*
X172959285Y-45679762D01*
X173006904Y-45584524D01*
X173006904Y-45203571D01*
X172959285Y-45108333D01*
X172864047Y-45060714D01*
X172673570Y-45060714D01*
X172578332Y-45108333D01*
X172530713Y-45203571D01*
X172530713Y-45298810D01*
X173006904Y-45394048D01*
X172102142Y-45060714D02*
X172102142Y-45727381D01*
X172102142Y-45155952D02*
X172054523Y-45108333D01*
X171959285Y-45060714D01*
X171816427Y-45060714D01*
X171721189Y-45108333D01*
X171673570Y-45203571D01*
X171673570Y-45727381D01*
X170768808Y-45727381D02*
X170768808Y-44727381D01*
X170768808Y-45679762D02*
X170864046Y-45727381D01*
X171054523Y-45727381D01*
X171149761Y-45679762D01*
X171197380Y-45632143D01*
X171244999Y-45536905D01*
X171244999Y-45251190D01*
X171197380Y-45155952D01*
X171149761Y-45108333D01*
X171054523Y-45060714D01*
X170864046Y-45060714D01*
X170768808Y-45108333D01*
X169911665Y-45679762D02*
X170006903Y-45727381D01*
X170197380Y-45727381D01*
X170292618Y-45679762D01*
X170340237Y-45584524D01*
X170340237Y-45203571D01*
X170292618Y-45108333D01*
X170197380Y-45060714D01*
X170006903Y-45060714D01*
X169911665Y-45108333D01*
X169864046Y-45203571D01*
X169864046Y-45298810D01*
X170340237Y-45394048D01*
X169006903Y-45727381D02*
X169006903Y-44727381D01*
X169006903Y-45679762D02*
X169102141Y-45727381D01*
X169292618Y-45727381D01*
X169387856Y-45679762D01*
X169435475Y-45632143D01*
X169483094Y-45536905D01*
X169483094Y-45251190D01*
X169435475Y-45155952D01*
X169387856Y-45108333D01*
X169292618Y-45060714D01*
X169102141Y-45060714D01*
X169006903Y-45108333D01*
X167864046Y-45060714D02*
X167673570Y-45727381D01*
X167483093Y-45251190D01*
X167292617Y-45727381D01*
X167102141Y-45060714D01*
X166721189Y-45727381D02*
X166721189Y-45060714D01*
X166721189Y-44727381D02*
X166768808Y-44775000D01*
X166721189Y-44822619D01*
X166673570Y-44775000D01*
X166721189Y-44727381D01*
X166721189Y-44822619D01*
X166387856Y-45060714D02*
X166006904Y-45060714D01*
X166244999Y-44727381D02*
X166244999Y-45584524D01*
X166197380Y-45679762D01*
X166102142Y-45727381D01*
X166006904Y-45727381D01*
X165673570Y-45727381D02*
X165673570Y-44727381D01*
X165244998Y-45727381D02*
X165244998Y-45203571D01*
X165292617Y-45108333D01*
X165387855Y-45060714D01*
X165530713Y-45060714D01*
X165625951Y-45108333D01*
X165673570Y-45155952D01*
X163625950Y-45679762D02*
X163721188Y-45727381D01*
X163911665Y-45727381D01*
X164006903Y-45679762D01*
X164054522Y-45584524D01*
X164054522Y-45203571D01*
X164006903Y-45108333D01*
X163911665Y-45060714D01*
X163721188Y-45060714D01*
X163625950Y-45108333D01*
X163578331Y-45203571D01*
X163578331Y-45298810D01*
X164054522Y-45394048D01*
X163244998Y-45727381D02*
X162721188Y-45060714D01*
X163244998Y-45060714D02*
X162721188Y-45727381D01*
X162340236Y-45060714D02*
X162340236Y-46060714D01*
X162340236Y-45108333D02*
X162244998Y-45060714D01*
X162054521Y-45060714D01*
X161959283Y-45108333D01*
X161911664Y-45155952D01*
X161864045Y-45251190D01*
X161864045Y-45536905D01*
X161911664Y-45632143D01*
X161959283Y-45679762D01*
X162054521Y-45727381D01*
X162244998Y-45727381D01*
X162340236Y-45679762D01*
X161006902Y-45727381D02*
X161006902Y-45203571D01*
X161054521Y-45108333D01*
X161149759Y-45060714D01*
X161340236Y-45060714D01*
X161435474Y-45108333D01*
X161006902Y-45679762D02*
X161102140Y-45727381D01*
X161340236Y-45727381D01*
X161435474Y-45679762D01*
X161483093Y-45584524D01*
X161483093Y-45489286D01*
X161435474Y-45394048D01*
X161340236Y-45346429D01*
X161102140Y-45346429D01*
X161006902Y-45298810D01*
X160530712Y-45060714D02*
X160530712Y-45727381D01*
X160530712Y-45155952D02*
X160483093Y-45108333D01*
X160387855Y-45060714D01*
X160244997Y-45060714D01*
X160149759Y-45108333D01*
X160102140Y-45203571D01*
X160102140Y-45727381D01*
X159673569Y-45679762D02*
X159578331Y-45727381D01*
X159387855Y-45727381D01*
X159292616Y-45679762D01*
X159244997Y-45584524D01*
X159244997Y-45536905D01*
X159292616Y-45441667D01*
X159387855Y-45394048D01*
X159530712Y-45394048D01*
X159625950Y-45346429D01*
X159673569Y-45251190D01*
X159673569Y-45203571D01*
X159625950Y-45108333D01*
X159530712Y-45060714D01*
X159387855Y-45060714D01*
X159292616Y-45108333D01*
X158816426Y-45727381D02*
X158816426Y-45060714D01*
X158816426Y-44727381D02*
X158864045Y-44775000D01*
X158816426Y-44822619D01*
X158768807Y-44775000D01*
X158816426Y-44727381D01*
X158816426Y-44822619D01*
X158197379Y-45727381D02*
X158292617Y-45679762D01*
X158340236Y-45632143D01*
X158387855Y-45536905D01*
X158387855Y-45251190D01*
X158340236Y-45155952D01*
X158292617Y-45108333D01*
X158197379Y-45060714D01*
X158054521Y-45060714D01*
X157959283Y-45108333D01*
X157911664Y-45155952D01*
X157864045Y-45251190D01*
X157864045Y-45536905D01*
X157911664Y-45632143D01*
X157959283Y-45679762D01*
X158054521Y-45727381D01*
X158197379Y-45727381D01*
X157435474Y-45060714D02*
X157435474Y-45727381D01*
X157435474Y-45155952D02*
X157387855Y-45108333D01*
X157292617Y-45060714D01*
X157149759Y-45060714D01*
X157054521Y-45108333D01*
X157006902Y-45203571D01*
X157006902Y-45727381D01*
X156578331Y-45679762D02*
X156483093Y-45727381D01*
X156292617Y-45727381D01*
X156197378Y-45679762D01*
X156149759Y-45584524D01*
X156149759Y-45536905D01*
X156197378Y-45441667D01*
X156292617Y-45394048D01*
X156435474Y-45394048D01*
X156530712Y-45346429D01*
X156578331Y-45251190D01*
X156578331Y-45203571D01*
X156530712Y-45108333D01*
X156435474Y-45060714D01*
X156292617Y-45060714D01*
X156197378Y-45108333D01*
X155721188Y-45632143D02*
X155673569Y-45679762D01*
X155721188Y-45727381D01*
X155768807Y-45679762D01*
X155721188Y-45632143D01*
X155721188Y-45727381D01*
D13*
X214673571Y-127357143D02*
X213173571Y-127357143D01*
X213173571Y-127928571D01*
X213245000Y-128071429D01*
X213316429Y-128142857D01*
X213459286Y-128214286D01*
X213673571Y-128214286D01*
X213816429Y-128142857D01*
X213887857Y-128071429D01*
X213959286Y-127928571D01*
X213959286Y-127357143D01*
X214673571Y-128857143D02*
X213673571Y-128857143D01*
X213173571Y-128857143D02*
X213245000Y-128785714D01*
X213316429Y-128857143D01*
X213245000Y-128928571D01*
X213173571Y-128857143D01*
X213316429Y-128857143D01*
X213673571Y-129571429D02*
X214673571Y-129571429D01*
X213816429Y-129571429D02*
X213745000Y-129642857D01*
X213673571Y-129785715D01*
X213673571Y-130000000D01*
X213745000Y-130142857D01*
X213887857Y-130214286D01*
X214673571Y-130214286D01*
X214673571Y-132857143D02*
X214673571Y-132000000D01*
X214673571Y-132428572D02*
X213173571Y-132428572D01*
X213387857Y-132285715D01*
X213530714Y-132142857D01*
X213602143Y-132000000D01*
D11*
X212725000Y-126365000D02*
X212725000Y-133985000D01*
X215265000Y-126365000D02*
X212725000Y-126365000D01*
X182880000Y-42545000D02*
X182880000Y-46355000D01*
X158750000Y-46990000D02*
X186055000Y-46990000D01*
X186055000Y-41910000D02*
X158750000Y-41910000D01*
X186055000Y-46990000D02*
X186055000Y-41910000D01*
D12*
X204882143Y-53506667D02*
X204405952Y-53506667D01*
X204977381Y-53792381D02*
X204644048Y-52792381D01*
X204310714Y-53792381D01*
X203977381Y-53792381D02*
X203977381Y-53125714D01*
X203977381Y-53316190D02*
X203929762Y-53220952D01*
X203882143Y-53173333D01*
X203786905Y-53125714D01*
X203691666Y-53125714D01*
X202929761Y-53792381D02*
X202929761Y-52792381D01*
X202929761Y-53744762D02*
X203024999Y-53792381D01*
X203215476Y-53792381D01*
X203310714Y-53744762D01*
X203358333Y-53697143D01*
X203405952Y-53601905D01*
X203405952Y-53316190D01*
X203358333Y-53220952D01*
X203310714Y-53173333D01*
X203215476Y-53125714D01*
X203024999Y-53125714D01*
X202929761Y-53173333D01*
X202024999Y-53125714D02*
X202024999Y-53792381D01*
X202453571Y-53125714D02*
X202453571Y-53649524D01*
X202405952Y-53744762D01*
X202310714Y-53792381D01*
X202167856Y-53792381D01*
X202072618Y-53744762D01*
X202024999Y-53697143D01*
X201548809Y-53792381D02*
X201548809Y-53125714D01*
X201548809Y-52792381D02*
X201596428Y-52840000D01*
X201548809Y-52887619D01*
X201501190Y-52840000D01*
X201548809Y-52792381D01*
X201548809Y-52887619D01*
X201072619Y-53125714D02*
X201072619Y-53792381D01*
X201072619Y-53220952D02*
X201025000Y-53173333D01*
X200929762Y-53125714D01*
X200786904Y-53125714D01*
X200691666Y-53173333D01*
X200644047Y-53268571D01*
X200644047Y-53792381D01*
X200025000Y-53792381D02*
X200120238Y-53744762D01*
X200167857Y-53697143D01*
X200215476Y-53601905D01*
X200215476Y-53316190D01*
X200167857Y-53220952D01*
X200120238Y-53173333D01*
X200025000Y-53125714D01*
X199882142Y-53125714D01*
X199786904Y-53173333D01*
X199739285Y-53220952D01*
X199691666Y-53316190D01*
X199691666Y-53601905D01*
X199739285Y-53697143D01*
X199786904Y-53744762D01*
X199882142Y-53792381D01*
X200025000Y-53792381D01*
X198501190Y-53792381D02*
X198501190Y-52792381D01*
X197929761Y-53792381D01*
X197929761Y-52792381D01*
X197024999Y-53792381D02*
X197024999Y-53268571D01*
X197072618Y-53173333D01*
X197167856Y-53125714D01*
X197358333Y-53125714D01*
X197453571Y-53173333D01*
X197024999Y-53744762D02*
X197120237Y-53792381D01*
X197358333Y-53792381D01*
X197453571Y-53744762D01*
X197501190Y-53649524D01*
X197501190Y-53554286D01*
X197453571Y-53459048D01*
X197358333Y-53411429D01*
X197120237Y-53411429D01*
X197024999Y-53363810D01*
X196548809Y-53125714D02*
X196548809Y-53792381D01*
X196548809Y-53220952D02*
X196501190Y-53173333D01*
X196405952Y-53125714D01*
X196263094Y-53125714D01*
X196167856Y-53173333D01*
X196120237Y-53268571D01*
X196120237Y-53792381D01*
X195501190Y-53792381D02*
X195596428Y-53744762D01*
X195644047Y-53697143D01*
X195691666Y-53601905D01*
X195691666Y-53316190D01*
X195644047Y-53220952D01*
X195596428Y-53173333D01*
X195501190Y-53125714D01*
X195358332Y-53125714D01*
X195263094Y-53173333D01*
X195215475Y-53220952D01*
X195167856Y-53316190D01*
X195167856Y-53601905D01*
X195215475Y-53697143D01*
X195263094Y-53744762D01*
X195358332Y-53792381D01*
X195501190Y-53792381D01*
X207096429Y-59032143D02*
X207144048Y-59079762D01*
X207286905Y-59127381D01*
X207382143Y-59127381D01*
X207525001Y-59079762D01*
X207620239Y-58984524D01*
X207667858Y-58889286D01*
X207715477Y-58698810D01*
X207715477Y-58555952D01*
X207667858Y-58365476D01*
X207620239Y-58270238D01*
X207525001Y-58175000D01*
X207382143Y-58127381D01*
X207286905Y-58127381D01*
X207144048Y-58175000D01*
X207096429Y-58222619D01*
X206525001Y-59127381D02*
X206620239Y-59079762D01*
X206667858Y-59032143D01*
X206715477Y-58936905D01*
X206715477Y-58651190D01*
X206667858Y-58555952D01*
X206620239Y-58508333D01*
X206525001Y-58460714D01*
X206382143Y-58460714D01*
X206286905Y-58508333D01*
X206239286Y-58555952D01*
X206191667Y-58651190D01*
X206191667Y-58936905D01*
X206239286Y-59032143D01*
X206286905Y-59079762D01*
X206382143Y-59127381D01*
X206525001Y-59127381D01*
X205763096Y-59127381D02*
X205763096Y-58460714D01*
X205763096Y-58555952D02*
X205715477Y-58508333D01*
X205620239Y-58460714D01*
X205477381Y-58460714D01*
X205382143Y-58508333D01*
X205334524Y-58603571D01*
X205334524Y-59127381D01*
X205334524Y-58603571D02*
X205286905Y-58508333D01*
X205191667Y-58460714D01*
X205048810Y-58460714D01*
X204953572Y-58508333D01*
X204905953Y-58603571D01*
X204905953Y-59127381D01*
X204429763Y-58460714D02*
X204429763Y-59460714D01*
X204429763Y-58508333D02*
X204334525Y-58460714D01*
X204144048Y-58460714D01*
X204048810Y-58508333D01*
X204001191Y-58555952D01*
X203953572Y-58651190D01*
X203953572Y-58936905D01*
X204001191Y-59032143D01*
X204048810Y-59079762D01*
X204144048Y-59127381D01*
X204334525Y-59127381D01*
X204429763Y-59079762D01*
X203525001Y-59127381D02*
X203525001Y-58460714D01*
X203525001Y-58127381D02*
X203572620Y-58175000D01*
X203525001Y-58222619D01*
X203477382Y-58175000D01*
X203525001Y-58127381D01*
X203525001Y-58222619D01*
X202905954Y-59127381D02*
X203001192Y-59079762D01*
X203048811Y-58984524D01*
X203048811Y-58127381D01*
X202144048Y-59079762D02*
X202239286Y-59127381D01*
X202429763Y-59127381D01*
X202525001Y-59079762D01*
X202572620Y-58984524D01*
X202572620Y-58603571D01*
X202525001Y-58508333D01*
X202429763Y-58460714D01*
X202239286Y-58460714D01*
X202144048Y-58508333D01*
X202096429Y-58603571D01*
X202096429Y-58698810D01*
X202572620Y-58794048D01*
X201620239Y-59079762D02*
X201620239Y-59127381D01*
X201667858Y-59222619D01*
X201715477Y-59270238D01*
X200001191Y-58460714D02*
X200001191Y-59127381D01*
X200429763Y-58460714D02*
X200429763Y-58984524D01*
X200382144Y-59079762D01*
X200286906Y-59127381D01*
X200144048Y-59127381D01*
X200048810Y-59079762D01*
X200001191Y-59032143D01*
X199525001Y-58460714D02*
X199525001Y-59460714D01*
X199525001Y-58508333D02*
X199429763Y-58460714D01*
X199239286Y-58460714D01*
X199144048Y-58508333D01*
X199096429Y-58555952D01*
X199048810Y-58651190D01*
X199048810Y-58936905D01*
X199096429Y-59032143D01*
X199144048Y-59079762D01*
X199239286Y-59127381D01*
X199429763Y-59127381D01*
X199525001Y-59079762D01*
X198477382Y-59127381D02*
X198572620Y-59079762D01*
X198620239Y-58984524D01*
X198620239Y-58127381D01*
X197953572Y-59127381D02*
X198048810Y-59079762D01*
X198096429Y-59032143D01*
X198144048Y-58936905D01*
X198144048Y-58651190D01*
X198096429Y-58555952D01*
X198048810Y-58508333D01*
X197953572Y-58460714D01*
X197810714Y-58460714D01*
X197715476Y-58508333D01*
X197667857Y-58555952D01*
X197620238Y-58651190D01*
X197620238Y-58936905D01*
X197667857Y-59032143D01*
X197715476Y-59079762D01*
X197810714Y-59127381D01*
X197953572Y-59127381D01*
X196763095Y-59127381D02*
X196763095Y-58603571D01*
X196810714Y-58508333D01*
X196905952Y-58460714D01*
X197096429Y-58460714D01*
X197191667Y-58508333D01*
X196763095Y-59079762D02*
X196858333Y-59127381D01*
X197096429Y-59127381D01*
X197191667Y-59079762D01*
X197239286Y-58984524D01*
X197239286Y-58889286D01*
X197191667Y-58794048D01*
X197096429Y-58746429D01*
X196858333Y-58746429D01*
X196763095Y-58698810D01*
X195858333Y-59127381D02*
X195858333Y-58127381D01*
X195858333Y-59079762D02*
X195953571Y-59127381D01*
X196144048Y-59127381D01*
X196239286Y-59079762D01*
X196286905Y-59032143D01*
X196334524Y-58936905D01*
X196334524Y-58651190D01*
X196286905Y-58555952D01*
X196239286Y-58508333D01*
X196144048Y-58460714D01*
X195953571Y-58460714D01*
X195858333Y-58508333D01*
X194191666Y-59127381D02*
X194191666Y-58603571D01*
X194239285Y-58508333D01*
X194334523Y-58460714D01*
X194525000Y-58460714D01*
X194620238Y-58508333D01*
X194191666Y-59079762D02*
X194286904Y-59127381D01*
X194525000Y-59127381D01*
X194620238Y-59079762D01*
X194667857Y-58984524D01*
X194667857Y-58889286D01*
X194620238Y-58794048D01*
X194525000Y-58746429D01*
X194286904Y-58746429D01*
X194191666Y-58698810D01*
X193715476Y-58460714D02*
X193715476Y-59127381D01*
X193715476Y-58555952D02*
X193667857Y-58508333D01*
X193572619Y-58460714D01*
X193429761Y-58460714D01*
X193334523Y-58508333D01*
X193286904Y-58603571D01*
X193286904Y-59127381D01*
X192382142Y-59127381D02*
X192382142Y-58127381D01*
X192382142Y-59079762D02*
X192477380Y-59127381D01*
X192667857Y-59127381D01*
X192763095Y-59079762D01*
X192810714Y-59032143D01*
X192858333Y-58936905D01*
X192858333Y-58651190D01*
X192810714Y-58555952D01*
X192763095Y-58508333D01*
X192667857Y-58460714D01*
X192477380Y-58460714D01*
X192382142Y-58508333D01*
X207405952Y-60729762D02*
X207501190Y-60777381D01*
X207691667Y-60777381D01*
X207786905Y-60729762D01*
X207834524Y-60634524D01*
X207834524Y-60253571D01*
X207786905Y-60158333D01*
X207691667Y-60110714D01*
X207501190Y-60110714D01*
X207405952Y-60158333D01*
X207358333Y-60253571D01*
X207358333Y-60348810D01*
X207834524Y-60444048D01*
X206929762Y-60110714D02*
X206929762Y-60777381D01*
X206929762Y-60205952D02*
X206882143Y-60158333D01*
X206786905Y-60110714D01*
X206644047Y-60110714D01*
X206548809Y-60158333D01*
X206501190Y-60253571D01*
X206501190Y-60777381D01*
X206025000Y-60110714D02*
X206025000Y-60967857D01*
X206072619Y-61063095D01*
X206167857Y-61110714D01*
X206215476Y-61110714D01*
X206025000Y-59777381D02*
X206072619Y-59825000D01*
X206025000Y-59872619D01*
X205977381Y-59825000D01*
X206025000Y-59777381D01*
X206025000Y-59872619D01*
X205405953Y-60777381D02*
X205501191Y-60729762D01*
X205548810Y-60682143D01*
X205596429Y-60586905D01*
X205596429Y-60301190D01*
X205548810Y-60205952D01*
X205501191Y-60158333D01*
X205405953Y-60110714D01*
X205263095Y-60110714D01*
X205167857Y-60158333D01*
X205120238Y-60205952D01*
X205072619Y-60301190D01*
X205072619Y-60586905D01*
X205120238Y-60682143D01*
X205167857Y-60729762D01*
X205263095Y-60777381D01*
X205405953Y-60777381D01*
X204739286Y-60110714D02*
X204501191Y-60777381D01*
X204263095Y-60110714D02*
X204501191Y-60777381D01*
X204596429Y-61015476D01*
X204644048Y-61063095D01*
X204739286Y-61110714D01*
X202691666Y-60729762D02*
X202786904Y-60777381D01*
X202977381Y-60777381D01*
X203072619Y-60729762D01*
X203120238Y-60682143D01*
X203167857Y-60586905D01*
X203167857Y-60301190D01*
X203120238Y-60205952D01*
X203072619Y-60158333D01*
X202977381Y-60110714D01*
X202786904Y-60110714D01*
X202691666Y-60158333D01*
X202120238Y-60777381D02*
X202215476Y-60729762D01*
X202263095Y-60682143D01*
X202310714Y-60586905D01*
X202310714Y-60301190D01*
X202263095Y-60205952D01*
X202215476Y-60158333D01*
X202120238Y-60110714D01*
X201977380Y-60110714D01*
X201882142Y-60158333D01*
X201834523Y-60205952D01*
X201786904Y-60301190D01*
X201786904Y-60586905D01*
X201834523Y-60682143D01*
X201882142Y-60729762D01*
X201977380Y-60777381D01*
X202120238Y-60777381D01*
X201358333Y-60777381D02*
X201358333Y-60110714D01*
X201358333Y-60205952D02*
X201310714Y-60158333D01*
X201215476Y-60110714D01*
X201072618Y-60110714D01*
X200977380Y-60158333D01*
X200929761Y-60253571D01*
X200929761Y-60777381D01*
X200929761Y-60253571D02*
X200882142Y-60158333D01*
X200786904Y-60110714D01*
X200644047Y-60110714D01*
X200548809Y-60158333D01*
X200501190Y-60253571D01*
X200501190Y-60777381D01*
X200025000Y-60777381D02*
X200025000Y-60110714D01*
X200025000Y-60205952D02*
X199977381Y-60158333D01*
X199882143Y-60110714D01*
X199739285Y-60110714D01*
X199644047Y-60158333D01*
X199596428Y-60253571D01*
X199596428Y-60777381D01*
X199596428Y-60253571D02*
X199548809Y-60158333D01*
X199453571Y-60110714D01*
X199310714Y-60110714D01*
X199215476Y-60158333D01*
X199167857Y-60253571D01*
X199167857Y-60777381D01*
X198263095Y-60110714D02*
X198263095Y-60777381D01*
X198691667Y-60110714D02*
X198691667Y-60634524D01*
X198644048Y-60729762D01*
X198548810Y-60777381D01*
X198405952Y-60777381D01*
X198310714Y-60729762D01*
X198263095Y-60682143D01*
X197786905Y-60110714D02*
X197786905Y-60777381D01*
X197786905Y-60205952D02*
X197739286Y-60158333D01*
X197644048Y-60110714D01*
X197501190Y-60110714D01*
X197405952Y-60158333D01*
X197358333Y-60253571D01*
X197358333Y-60777381D01*
X196882143Y-60777381D02*
X196882143Y-60110714D01*
X196882143Y-59777381D02*
X196929762Y-59825000D01*
X196882143Y-59872619D01*
X196834524Y-59825000D01*
X196882143Y-59777381D01*
X196882143Y-59872619D01*
X195977381Y-60729762D02*
X196072619Y-60777381D01*
X196263096Y-60777381D01*
X196358334Y-60729762D01*
X196405953Y-60682143D01*
X196453572Y-60586905D01*
X196453572Y-60301190D01*
X196405953Y-60205952D01*
X196358334Y-60158333D01*
X196263096Y-60110714D01*
X196072619Y-60110714D01*
X195977381Y-60158333D01*
X195120238Y-60777381D02*
X195120238Y-60253571D01*
X195167857Y-60158333D01*
X195263095Y-60110714D01*
X195453572Y-60110714D01*
X195548810Y-60158333D01*
X195120238Y-60729762D02*
X195215476Y-60777381D01*
X195453572Y-60777381D01*
X195548810Y-60729762D01*
X195596429Y-60634524D01*
X195596429Y-60539286D01*
X195548810Y-60444048D01*
X195453572Y-60396429D01*
X195215476Y-60396429D01*
X195120238Y-60348810D01*
X194786905Y-60110714D02*
X194405953Y-60110714D01*
X194644048Y-59777381D02*
X194644048Y-60634524D01*
X194596429Y-60729762D01*
X194501191Y-60777381D01*
X194405953Y-60777381D01*
X194072619Y-60777381D02*
X194072619Y-60110714D01*
X194072619Y-59777381D02*
X194120238Y-59825000D01*
X194072619Y-59872619D01*
X194025000Y-59825000D01*
X194072619Y-59777381D01*
X194072619Y-59872619D01*
X193453572Y-60777381D02*
X193548810Y-60729762D01*
X193596429Y-60682143D01*
X193644048Y-60586905D01*
X193644048Y-60301190D01*
X193596429Y-60205952D01*
X193548810Y-60158333D01*
X193453572Y-60110714D01*
X193310714Y-60110714D01*
X193215476Y-60158333D01*
X193167857Y-60205952D01*
X193120238Y-60301190D01*
X193120238Y-60586905D01*
X193167857Y-60682143D01*
X193215476Y-60729762D01*
X193310714Y-60777381D01*
X193453572Y-60777381D01*
X192691667Y-60110714D02*
X192691667Y-60777381D01*
X192691667Y-60205952D02*
X192644048Y-60158333D01*
X192548810Y-60110714D01*
X192405952Y-60110714D01*
X192310714Y-60158333D01*
X192263095Y-60253571D01*
X192263095Y-60777381D01*
X207048811Y-62427381D02*
X207144049Y-62379762D01*
X207191668Y-62332143D01*
X207239287Y-62236905D01*
X207239287Y-61951190D01*
X207191668Y-61855952D01*
X207144049Y-61808333D01*
X207048811Y-61760714D01*
X206905953Y-61760714D01*
X206810715Y-61808333D01*
X206763096Y-61855952D01*
X206715477Y-61951190D01*
X206715477Y-62236905D01*
X206763096Y-62332143D01*
X206810715Y-62379762D01*
X206905953Y-62427381D01*
X207048811Y-62427381D01*
X206286906Y-61760714D02*
X206286906Y-62427381D01*
X206286906Y-61855952D02*
X206239287Y-61808333D01*
X206144049Y-61760714D01*
X206001191Y-61760714D01*
X205905953Y-61808333D01*
X205858334Y-61903571D01*
X205858334Y-62427381D01*
X204715477Y-61760714D02*
X204477382Y-62427381D01*
X204239286Y-61760714D02*
X204477382Y-62427381D01*
X204572620Y-62665476D01*
X204620239Y-62713095D01*
X204715477Y-62760714D01*
X203715477Y-62427381D02*
X203810715Y-62379762D01*
X203858334Y-62332143D01*
X203905953Y-62236905D01*
X203905953Y-61951190D01*
X203858334Y-61855952D01*
X203810715Y-61808333D01*
X203715477Y-61760714D01*
X203572619Y-61760714D01*
X203477381Y-61808333D01*
X203429762Y-61855952D01*
X203382143Y-61951190D01*
X203382143Y-62236905D01*
X203429762Y-62332143D01*
X203477381Y-62379762D01*
X203572619Y-62427381D01*
X203715477Y-62427381D01*
X202525000Y-61760714D02*
X202525000Y-62427381D01*
X202953572Y-61760714D02*
X202953572Y-62284524D01*
X202905953Y-62379762D01*
X202810715Y-62427381D01*
X202667857Y-62427381D01*
X202572619Y-62379762D01*
X202525000Y-62332143D01*
X202048810Y-62427381D02*
X202048810Y-61760714D01*
X202048810Y-61951190D02*
X202001191Y-61855952D01*
X201953572Y-61808333D01*
X201858334Y-61760714D01*
X201763095Y-61760714D01*
X200525000Y-62427381D02*
X200620238Y-62379762D01*
X200667857Y-62332143D01*
X200715476Y-62236905D01*
X200715476Y-61951190D01*
X200667857Y-61855952D01*
X200620238Y-61808333D01*
X200525000Y-61760714D01*
X200382142Y-61760714D01*
X200286904Y-61808333D01*
X200239285Y-61855952D01*
X200191666Y-61951190D01*
X200191666Y-62236905D01*
X200239285Y-62332143D01*
X200286904Y-62379762D01*
X200382142Y-62427381D01*
X200525000Y-62427381D01*
X199858333Y-61760714D02*
X199667857Y-62427381D01*
X199477380Y-61951190D01*
X199286904Y-62427381D01*
X199096428Y-61760714D01*
X198715476Y-61760714D02*
X198715476Y-62427381D01*
X198715476Y-61855952D02*
X198667857Y-61808333D01*
X198572619Y-61760714D01*
X198429761Y-61760714D01*
X198334523Y-61808333D01*
X198286904Y-61903571D01*
X198286904Y-62427381D01*
X197191666Y-61760714D02*
X196810714Y-61760714D01*
X197048809Y-61427381D02*
X197048809Y-62284524D01*
X197001190Y-62379762D01*
X196905952Y-62427381D01*
X196810714Y-62427381D01*
X196096427Y-62379762D02*
X196191665Y-62427381D01*
X196382142Y-62427381D01*
X196477380Y-62379762D01*
X196524999Y-62284524D01*
X196524999Y-61903571D01*
X196477380Y-61808333D01*
X196382142Y-61760714D01*
X196191665Y-61760714D01*
X196096427Y-61808333D01*
X196048808Y-61903571D01*
X196048808Y-61998810D01*
X196524999Y-62094048D01*
X195620237Y-62427381D02*
X195620237Y-61760714D01*
X195620237Y-61951190D02*
X195572618Y-61855952D01*
X195524999Y-61808333D01*
X195429761Y-61760714D01*
X195334522Y-61760714D01*
X195001189Y-62427381D02*
X195001189Y-61760714D01*
X195001189Y-61855952D02*
X194953570Y-61808333D01*
X194858332Y-61760714D01*
X194715474Y-61760714D01*
X194620236Y-61808333D01*
X194572617Y-61903571D01*
X194572617Y-62427381D01*
X194572617Y-61903571D02*
X194524998Y-61808333D01*
X194429760Y-61760714D01*
X194286903Y-61760714D01*
X194191665Y-61808333D01*
X194144046Y-61903571D01*
X194144046Y-62427381D01*
X193715475Y-62379762D02*
X193620237Y-62427381D01*
X193429761Y-62427381D01*
X193334522Y-62379762D01*
X193286903Y-62284524D01*
X193286903Y-62236905D01*
X193334522Y-62141667D01*
X193429761Y-62094048D01*
X193572618Y-62094048D01*
X193667856Y-62046429D01*
X193715475Y-61951190D01*
X193715475Y-61903571D01*
X193667856Y-61808333D01*
X193572618Y-61760714D01*
X193429761Y-61760714D01*
X193334522Y-61808333D01*
X192858332Y-62332143D02*
X192810713Y-62379762D01*
X192858332Y-62427381D01*
X192905951Y-62379762D01*
X192858332Y-62332143D01*
X192858332Y-62427381D01*
X192858332Y-62046429D02*
X192905951Y-61475000D01*
X192858332Y-61427381D01*
X192810713Y-61475000D01*
X192858332Y-62046429D01*
X192858332Y-61427381D01*
D11*
X215265000Y-51435000D02*
X215265000Y-64135000D01*
D10*
X153675952Y-53686905D02*
X153675952Y-52886905D01*
X153371190Y-52886905D01*
X153294999Y-52925000D01*
X153256904Y-52963095D01*
X153218809Y-53039286D01*
X153218809Y-53153571D01*
X153256904Y-53229762D01*
X153294999Y-53267857D01*
X153371190Y-53305952D01*
X153675952Y-53305952D01*
X152723571Y-52886905D02*
X152571190Y-52886905D01*
X152494999Y-52925000D01*
X152418809Y-53001190D01*
X152380714Y-53153571D01*
X152380714Y-53420238D01*
X152418809Y-53572619D01*
X152494999Y-53648810D01*
X152571190Y-53686905D01*
X152723571Y-53686905D01*
X152799761Y-53648810D01*
X152875952Y-53572619D01*
X152914047Y-53420238D01*
X152914047Y-53153571D01*
X152875952Y-53001190D01*
X152799761Y-52925000D01*
X152723571Y-52886905D01*
X152114047Y-52886905D02*
X151923571Y-53686905D01*
X151771190Y-53115476D01*
X151618809Y-53686905D01*
X151428333Y-52886905D01*
X151123571Y-53267857D02*
X150856904Y-53267857D01*
X150742618Y-53686905D02*
X151123571Y-53686905D01*
X151123571Y-52886905D01*
X150742618Y-52886905D01*
X149942618Y-53686905D02*
X150209285Y-53305952D01*
X150399761Y-53686905D02*
X150399761Y-52886905D01*
X150094999Y-52886905D01*
X150018808Y-52925000D01*
X149980713Y-52963095D01*
X149942618Y-53039286D01*
X149942618Y-53153571D01*
X149980713Y-53229762D01*
X150018808Y-53267857D01*
X150094999Y-53305952D01*
X150399761Y-53305952D01*
X149599761Y-53382143D02*
X148990237Y-53382143D01*
X148456904Y-52886905D02*
X148304523Y-52886905D01*
X148228332Y-52925000D01*
X148152142Y-53001190D01*
X148114047Y-53153571D01*
X148114047Y-53420238D01*
X148152142Y-53572619D01*
X148228332Y-53648810D01*
X148304523Y-53686905D01*
X148456904Y-53686905D01*
X148533094Y-53648810D01*
X148609285Y-53572619D01*
X148647380Y-53420238D01*
X148647380Y-53153571D01*
X148609285Y-53001190D01*
X148533094Y-52925000D01*
X148456904Y-52886905D01*
X147771190Y-53686905D02*
X147771190Y-52886905D01*
X147314047Y-53686905D01*
X147314047Y-52886905D01*
X151656905Y-54986905D02*
X151923572Y-54605952D01*
X152114048Y-54986905D02*
X152114048Y-54186905D01*
X151809286Y-54186905D01*
X151733095Y-54225000D01*
X151695000Y-54263095D01*
X151656905Y-54339286D01*
X151656905Y-54453571D01*
X151695000Y-54529762D01*
X151733095Y-54567857D01*
X151809286Y-54605952D01*
X152114048Y-54605952D01*
X151314048Y-54567857D02*
X151047381Y-54567857D01*
X150933095Y-54986905D02*
X151314048Y-54986905D01*
X151314048Y-54186905D01*
X150933095Y-54186905D01*
X150628333Y-54948810D02*
X150514047Y-54986905D01*
X150323571Y-54986905D01*
X150247381Y-54948810D01*
X150209285Y-54910714D01*
X150171190Y-54834524D01*
X150171190Y-54758333D01*
X150209285Y-54682143D01*
X150247381Y-54644048D01*
X150323571Y-54605952D01*
X150475952Y-54567857D01*
X150552143Y-54529762D01*
X150590238Y-54491667D01*
X150628333Y-54415476D01*
X150628333Y-54339286D01*
X150590238Y-54263095D01*
X150552143Y-54225000D01*
X150475952Y-54186905D01*
X150285476Y-54186905D01*
X150171190Y-54225000D01*
X149828333Y-54567857D02*
X149561666Y-54567857D01*
X149447380Y-54986905D02*
X149828333Y-54986905D01*
X149828333Y-54186905D01*
X149447380Y-54186905D01*
X149218809Y-54186905D02*
X148761666Y-54186905D01*
X148990237Y-54986905D02*
X148990237Y-54186905D01*
X137038810Y-54283810D02*
X136924524Y-54321905D01*
X136734048Y-54321905D01*
X136657858Y-54283810D01*
X136619762Y-54245714D01*
X136581667Y-54169524D01*
X136581667Y-54093333D01*
X136619762Y-54017143D01*
X136657858Y-53979048D01*
X136734048Y-53940952D01*
X136886429Y-53902857D01*
X136962620Y-53864762D01*
X137000715Y-53826667D01*
X137038810Y-53750476D01*
X137038810Y-53674286D01*
X137000715Y-53598095D01*
X136962620Y-53560000D01*
X136886429Y-53521905D01*
X136695953Y-53521905D01*
X136581667Y-53560000D01*
X136086429Y-53940952D02*
X136086429Y-54321905D01*
X136353096Y-53521905D02*
X136086429Y-53940952D01*
X135819762Y-53521905D01*
X135591191Y-54283810D02*
X135476905Y-54321905D01*
X135286429Y-54321905D01*
X135210239Y-54283810D01*
X135172143Y-54245714D01*
X135134048Y-54169524D01*
X135134048Y-54093333D01*
X135172143Y-54017143D01*
X135210239Y-53979048D01*
X135286429Y-53940952D01*
X135438810Y-53902857D01*
X135515001Y-53864762D01*
X135553096Y-53826667D01*
X135591191Y-53750476D01*
X135591191Y-53674286D01*
X135553096Y-53598095D01*
X135515001Y-53560000D01*
X135438810Y-53521905D01*
X135248334Y-53521905D01*
X135134048Y-53560000D01*
X134905477Y-53521905D02*
X134448334Y-53521905D01*
X134676905Y-54321905D02*
X134676905Y-53521905D01*
X134181667Y-53902857D02*
X133915000Y-53902857D01*
X133800714Y-54321905D02*
X134181667Y-54321905D01*
X134181667Y-53521905D01*
X133800714Y-53521905D01*
X133457857Y-54321905D02*
X133457857Y-53521905D01*
X133191190Y-54093333D01*
X132924523Y-53521905D01*
X132924523Y-54321905D01*
X131476904Y-54245714D02*
X131514999Y-54283810D01*
X131629285Y-54321905D01*
X131705475Y-54321905D01*
X131819761Y-54283810D01*
X131895952Y-54207619D01*
X131934047Y-54131429D01*
X131972142Y-53979048D01*
X131972142Y-53864762D01*
X131934047Y-53712381D01*
X131895952Y-53636190D01*
X131819761Y-53560000D01*
X131705475Y-53521905D01*
X131629285Y-53521905D01*
X131514999Y-53560000D01*
X131476904Y-53598095D01*
X130753094Y-54321905D02*
X131134047Y-54321905D01*
X131134047Y-53521905D01*
X130334047Y-53521905D02*
X130181666Y-53521905D01*
X130105475Y-53560000D01*
X130029285Y-53636190D01*
X129991190Y-53788571D01*
X129991190Y-54055238D01*
X130029285Y-54207619D01*
X130105475Y-54283810D01*
X130181666Y-54321905D01*
X130334047Y-54321905D01*
X130410237Y-54283810D01*
X130486428Y-54207619D01*
X130524523Y-54055238D01*
X130524523Y-53788571D01*
X130486428Y-53636190D01*
X130410237Y-53560000D01*
X130334047Y-53521905D01*
X129191190Y-54245714D02*
X129229285Y-54283810D01*
X129343571Y-54321905D01*
X129419761Y-54321905D01*
X129534047Y-54283810D01*
X129610238Y-54207619D01*
X129648333Y-54131429D01*
X129686428Y-53979048D01*
X129686428Y-53864762D01*
X129648333Y-53712381D01*
X129610238Y-53636190D01*
X129534047Y-53560000D01*
X129419761Y-53521905D01*
X129343571Y-53521905D01*
X129229285Y-53560000D01*
X129191190Y-53598095D01*
X128848333Y-54321905D02*
X128848333Y-53521905D01*
X128391190Y-54321905D02*
X128734047Y-53864762D01*
X128391190Y-53521905D02*
X128848333Y-53979048D01*
X139095952Y-55621905D02*
X139553095Y-55621905D01*
X139324524Y-55621905D02*
X139324524Y-54821905D01*
X139400714Y-54936190D01*
X139476905Y-55012381D01*
X139553095Y-55050476D01*
X138143571Y-55621905D02*
X138143571Y-54821905D01*
X137876904Y-55393333D01*
X137610237Y-54821905D01*
X137610237Y-55621905D01*
X137229285Y-55621905D02*
X137229285Y-54821905D01*
X137229285Y-55202857D02*
X136772142Y-55202857D01*
X136772142Y-55621905D02*
X136772142Y-54821905D01*
X136467380Y-54821905D02*
X135934047Y-54821905D01*
X136467380Y-55621905D01*
X135934047Y-55621905D01*
X135134047Y-54821905D02*
X134676904Y-54821905D01*
X134905475Y-55621905D02*
X134905475Y-54821905D01*
X134524523Y-54821905D02*
X134067380Y-54821905D01*
X134295951Y-55621905D02*
X134295951Y-54821905D01*
X133419760Y-55621905D02*
X133800713Y-55621905D01*
X133800713Y-54821905D01*
X132391189Y-54821905D02*
X132238808Y-54821905D01*
X132162617Y-54860000D01*
X132086427Y-54936190D01*
X132048332Y-55088571D01*
X132048332Y-55355238D01*
X132086427Y-55507619D01*
X132162617Y-55583810D01*
X132238808Y-55621905D01*
X132391189Y-55621905D01*
X132467379Y-55583810D01*
X132543570Y-55507619D01*
X132581665Y-55355238D01*
X132581665Y-55088571D01*
X132543570Y-54936190D01*
X132467379Y-54860000D01*
X132391189Y-54821905D01*
X131743570Y-55583810D02*
X131629284Y-55621905D01*
X131438808Y-55621905D01*
X131362618Y-55583810D01*
X131324522Y-55545714D01*
X131286427Y-55469524D01*
X131286427Y-55393333D01*
X131324522Y-55317143D01*
X131362618Y-55279048D01*
X131438808Y-55240952D01*
X131591189Y-55202857D01*
X131667380Y-55164762D01*
X131705475Y-55126667D01*
X131743570Y-55050476D01*
X131743570Y-54974286D01*
X131705475Y-54898095D01*
X131667380Y-54860000D01*
X131591189Y-54821905D01*
X131400713Y-54821905D01*
X131286427Y-54860000D01*
X130486427Y-55545714D02*
X130524522Y-55583810D01*
X130638808Y-55621905D01*
X130714998Y-55621905D01*
X130829284Y-55583810D01*
X130905475Y-55507619D01*
X130943570Y-55431429D01*
X130981665Y-55279048D01*
X130981665Y-55164762D01*
X130943570Y-55012381D01*
X130905475Y-54936190D01*
X130829284Y-54860000D01*
X130714998Y-54821905D01*
X130638808Y-54821905D01*
X130524522Y-54860000D01*
X130486427Y-54898095D01*
X130143570Y-55621905D02*
X130143570Y-54821905D01*
X129381665Y-55621905D02*
X129762618Y-55621905D01*
X129762618Y-54821905D01*
X128734046Y-55621905D02*
X129114999Y-55621905D01*
X129114999Y-54821905D01*
X128505475Y-55393333D02*
X128124523Y-55393333D01*
X128581666Y-55621905D02*
X128314999Y-54821905D01*
X128048332Y-55621905D01*
X127895952Y-54821905D02*
X127438809Y-54821905D01*
X127667380Y-55621905D02*
X127667380Y-54821905D01*
X127019761Y-54821905D02*
X126867380Y-54821905D01*
X126791189Y-54860000D01*
X126714999Y-54936190D01*
X126676904Y-55088571D01*
X126676904Y-55355238D01*
X126714999Y-55507619D01*
X126791189Y-55583810D01*
X126867380Y-55621905D01*
X127019761Y-55621905D01*
X127095951Y-55583810D01*
X127172142Y-55507619D01*
X127210237Y-55355238D01*
X127210237Y-55088571D01*
X127172142Y-54936190D01*
X127095951Y-54860000D01*
X127019761Y-54821905D01*
X125876904Y-55621905D02*
X126143571Y-55240952D01*
X126334047Y-55621905D02*
X126334047Y-54821905D01*
X126029285Y-54821905D01*
X125953094Y-54860000D01*
X125914999Y-54898095D01*
X125876904Y-54974286D01*
X125876904Y-55088571D01*
X125914999Y-55164762D01*
X125953094Y-55202857D01*
X126029285Y-55240952D01*
X126334047Y-55240952D01*
D11*
X142875000Y-60960000D02*
X122555000Y-60960000D01*
X142875000Y-48260000D02*
X142875000Y-60960000D01*
X122555000Y-48260000D02*
X142875000Y-48260000D01*
X122555000Y-60960000D02*
X122555000Y-48260000D01*
D10*
X143408094Y-68698333D02*
X143027142Y-68698333D01*
X143484285Y-68926905D02*
X143217618Y-68126905D01*
X142950951Y-68926905D01*
X142227142Y-68926905D02*
X142493809Y-68545952D01*
X142684285Y-68926905D02*
X142684285Y-68126905D01*
X142379523Y-68126905D01*
X142303332Y-68165000D01*
X142265237Y-68203095D01*
X142227142Y-68279286D01*
X142227142Y-68393571D01*
X142265237Y-68469762D01*
X142303332Y-68507857D01*
X142379523Y-68545952D01*
X142684285Y-68545952D01*
X141884285Y-68926905D02*
X141884285Y-68126905D01*
X141693809Y-68126905D01*
X141579523Y-68165000D01*
X141503332Y-68241190D01*
X141465237Y-68317381D01*
X141427142Y-68469762D01*
X141427142Y-68584048D01*
X141465237Y-68736429D01*
X141503332Y-68812619D01*
X141579523Y-68888810D01*
X141693809Y-68926905D01*
X141884285Y-68926905D01*
X141084285Y-68126905D02*
X141084285Y-68774524D01*
X141046190Y-68850714D01*
X141008094Y-68888810D01*
X140931904Y-68926905D01*
X140779523Y-68926905D01*
X140703332Y-68888810D01*
X140665237Y-68850714D01*
X140627142Y-68774524D01*
X140627142Y-68126905D01*
X140246190Y-68926905D02*
X140246190Y-68126905D01*
X139865238Y-68926905D02*
X139865238Y-68126905D01*
X139408095Y-68926905D01*
X139408095Y-68126905D01*
X138874762Y-68126905D02*
X138722381Y-68126905D01*
X138646190Y-68165000D01*
X138570000Y-68241190D01*
X138531905Y-68393571D01*
X138531905Y-68660238D01*
X138570000Y-68812619D01*
X138646190Y-68888810D01*
X138722381Y-68926905D01*
X138874762Y-68926905D01*
X138950952Y-68888810D01*
X139027143Y-68812619D01*
X139065238Y-68660238D01*
X139065238Y-68393571D01*
X139027143Y-68241190D01*
X138950952Y-68165000D01*
X138874762Y-68126905D01*
X145179524Y-70226905D02*
X145179524Y-69426905D01*
X144227143Y-69388810D02*
X144912858Y-70417381D01*
X143808096Y-69426905D02*
X143655715Y-69426905D01*
X143579524Y-69465000D01*
X143503334Y-69541190D01*
X143465239Y-69693571D01*
X143465239Y-69960238D01*
X143503334Y-70112619D01*
X143579524Y-70188810D01*
X143655715Y-70226905D01*
X143808096Y-70226905D01*
X143884286Y-70188810D01*
X143960477Y-70112619D01*
X143998572Y-69960238D01*
X143998572Y-69693571D01*
X143960477Y-69541190D01*
X143884286Y-69465000D01*
X143808096Y-69426905D01*
X142512858Y-69807857D02*
X142246191Y-69807857D01*
X142131905Y-70226905D02*
X142512858Y-70226905D01*
X142512858Y-69426905D01*
X142131905Y-69426905D01*
X141865238Y-69426905D02*
X141331905Y-70226905D01*
X141331905Y-69426905D02*
X141865238Y-70226905D01*
X141027143Y-70226905D02*
X141027143Y-69426905D01*
X140722381Y-69426905D01*
X140646190Y-69465000D01*
X140608095Y-69503095D01*
X140570000Y-69579286D01*
X140570000Y-69693571D01*
X140608095Y-69769762D01*
X140646190Y-69807857D01*
X140722381Y-69845952D01*
X141027143Y-69845952D01*
X140265238Y-69998333D02*
X139884286Y-69998333D01*
X140341429Y-70226905D02*
X140074762Y-69426905D01*
X139808095Y-70226905D01*
X139541429Y-70226905D02*
X139541429Y-69426905D01*
X139084286Y-70226905D01*
X139084286Y-69426905D01*
X138703334Y-70226905D02*
X138703334Y-69426905D01*
X138512858Y-69426905D01*
X138398572Y-69465000D01*
X138322381Y-69541190D01*
X138284286Y-69617381D01*
X138246191Y-69769762D01*
X138246191Y-69884048D01*
X138284286Y-70036429D01*
X138322381Y-70112619D01*
X138398572Y-70188810D01*
X138512858Y-70226905D01*
X138703334Y-70226905D01*
X137903334Y-69807857D02*
X137636667Y-69807857D01*
X137522381Y-70226905D02*
X137903334Y-70226905D01*
X137903334Y-69426905D01*
X137522381Y-69426905D01*
X136722381Y-70226905D02*
X136989048Y-69845952D01*
X137179524Y-70226905D02*
X137179524Y-69426905D01*
X136874762Y-69426905D01*
X136798571Y-69465000D01*
X136760476Y-69503095D01*
X136722381Y-69579286D01*
X136722381Y-69693571D01*
X136760476Y-69769762D01*
X136798571Y-69807857D01*
X136874762Y-69845952D01*
X137179524Y-69845952D01*
X205225476Y-80356905D02*
X205225476Y-79556905D01*
X204768333Y-80356905D01*
X204768333Y-79556905D01*
X204425476Y-80128333D02*
X204044524Y-80128333D01*
X204501667Y-80356905D02*
X204235000Y-79556905D01*
X203968333Y-80356905D01*
X203701667Y-80356905D02*
X203701667Y-79556905D01*
X203244524Y-80356905D01*
X203244524Y-79556905D01*
X202863572Y-80356905D02*
X202863572Y-79556905D01*
X202673096Y-79556905D01*
X202558810Y-79595000D01*
X202482619Y-79671190D01*
X202444524Y-79747381D01*
X202406429Y-79899762D01*
X202406429Y-80014048D01*
X202444524Y-80166429D01*
X202482619Y-80242619D01*
X202558810Y-80318810D01*
X202673096Y-80356905D01*
X202863572Y-80356905D01*
X205015952Y-80895000D02*
X205092143Y-80856905D01*
X205206428Y-80856905D01*
X205320714Y-80895000D01*
X205396905Y-80971190D01*
X205435000Y-81047381D01*
X205473095Y-81199762D01*
X205473095Y-81314048D01*
X205435000Y-81466429D01*
X205396905Y-81542619D01*
X205320714Y-81618810D01*
X205206428Y-81656905D01*
X205130238Y-81656905D01*
X205015952Y-81618810D01*
X204977857Y-81580714D01*
X204977857Y-81314048D01*
X205130238Y-81314048D01*
X204673095Y-81428333D02*
X204292143Y-81428333D01*
X204749286Y-81656905D02*
X204482619Y-80856905D01*
X204215952Y-81656905D01*
X204063572Y-80856905D02*
X203606429Y-80856905D01*
X203835000Y-81656905D02*
X203835000Y-80856905D01*
X203339762Y-81237857D02*
X203073095Y-81237857D01*
X202958809Y-81656905D02*
X203339762Y-81656905D01*
X203339762Y-80856905D01*
X202958809Y-80856905D01*
X202654047Y-81618810D02*
X202539761Y-81656905D01*
X202349285Y-81656905D01*
X202273095Y-81618810D01*
X202234999Y-81580714D01*
X202196904Y-81504524D01*
X202196904Y-81428333D01*
X202234999Y-81352143D01*
X202273095Y-81314048D01*
X202349285Y-81275952D01*
X202501666Y-81237857D01*
X202577857Y-81199762D01*
X202615952Y-81161667D01*
X202654047Y-81085476D01*
X202654047Y-81009286D01*
X202615952Y-80933095D01*
X202577857Y-80895000D01*
X202501666Y-80856905D01*
X202311190Y-80856905D01*
X202196904Y-80895000D01*
X189566429Y-80356905D02*
X189566429Y-79556905D01*
X189566429Y-79937857D02*
X189109286Y-79937857D01*
X189109286Y-80356905D02*
X189109286Y-79556905D01*
X188728334Y-79937857D02*
X188461667Y-79937857D01*
X188347381Y-80356905D02*
X188728334Y-80356905D01*
X188728334Y-79556905D01*
X188347381Y-79556905D01*
X188080714Y-79556905D02*
X187547381Y-80356905D01*
X187547381Y-79556905D02*
X188080714Y-80356905D01*
X191185476Y-81656905D02*
X191185476Y-80856905D01*
X190804524Y-81656905D02*
X190804524Y-80856905D01*
X190347381Y-81656905D01*
X190347381Y-80856905D01*
X190080715Y-80856905D02*
X189814048Y-81656905D01*
X189547381Y-80856905D01*
X189280715Y-81237857D02*
X189014048Y-81237857D01*
X188899762Y-81656905D02*
X189280715Y-81656905D01*
X189280715Y-80856905D01*
X188899762Y-80856905D01*
X188099762Y-81656905D02*
X188366429Y-81275952D01*
X188556905Y-81656905D02*
X188556905Y-80856905D01*
X188252143Y-80856905D01*
X188175952Y-80895000D01*
X188137857Y-80933095D01*
X188099762Y-81009286D01*
X188099762Y-81123571D01*
X188137857Y-81199762D01*
X188175952Y-81237857D01*
X188252143Y-81275952D01*
X188556905Y-81275952D01*
X187871191Y-80856905D02*
X187414048Y-80856905D01*
X187642619Y-81656905D02*
X187642619Y-80856905D01*
X187147381Y-81237857D02*
X186880714Y-81237857D01*
X186766428Y-81656905D02*
X187147381Y-81656905D01*
X187147381Y-80856905D01*
X186766428Y-80856905D01*
X185966428Y-81656905D02*
X186233095Y-81275952D01*
X186423571Y-81656905D02*
X186423571Y-80856905D01*
X186118809Y-80856905D01*
X186042618Y-80895000D01*
X186004523Y-80933095D01*
X185966428Y-81009286D01*
X185966428Y-81123571D01*
X186004523Y-81199762D01*
X186042618Y-81237857D01*
X186118809Y-81275952D01*
X186423571Y-81275952D01*
X175869286Y-80128333D02*
X175488334Y-80128333D01*
X175945477Y-80356905D02*
X175678810Y-79556905D01*
X175412143Y-80356905D01*
X175145477Y-80356905D02*
X175145477Y-79556905D01*
X174955001Y-79556905D01*
X174840715Y-79595000D01*
X174764524Y-79671190D01*
X174726429Y-79747381D01*
X174688334Y-79899762D01*
X174688334Y-80014048D01*
X174726429Y-80166429D01*
X174764524Y-80242619D01*
X174840715Y-80318810D01*
X174955001Y-80356905D01*
X175145477Y-80356905D01*
X174345477Y-80356905D02*
X174345477Y-79556905D01*
X174155001Y-79556905D01*
X174040715Y-79595000D01*
X173964524Y-79671190D01*
X173926429Y-79747381D01*
X173888334Y-79899762D01*
X173888334Y-80014048D01*
X173926429Y-80166429D01*
X173964524Y-80242619D01*
X174040715Y-80318810D01*
X174155001Y-80356905D01*
X174345477Y-80356905D01*
X173088334Y-80356905D02*
X173355001Y-79975952D01*
X173545477Y-80356905D02*
X173545477Y-79556905D01*
X173240715Y-79556905D01*
X173164524Y-79595000D01*
X173126429Y-79633095D01*
X173088334Y-79709286D01*
X173088334Y-79823571D01*
X173126429Y-79899762D01*
X173164524Y-79937857D01*
X173240715Y-79975952D01*
X173545477Y-79975952D01*
X172745477Y-79937857D02*
X172478810Y-79937857D01*
X172364524Y-80356905D02*
X172745477Y-80356905D01*
X172745477Y-79556905D01*
X172364524Y-79556905D01*
X172059762Y-80318810D02*
X171945476Y-80356905D01*
X171755000Y-80356905D01*
X171678810Y-80318810D01*
X171640714Y-80280714D01*
X171602619Y-80204524D01*
X171602619Y-80128333D01*
X171640714Y-80052143D01*
X171678810Y-80014048D01*
X171755000Y-79975952D01*
X171907381Y-79937857D01*
X171983572Y-79899762D01*
X172021667Y-79861667D01*
X172059762Y-79785476D01*
X172059762Y-79709286D01*
X172021667Y-79633095D01*
X171983572Y-79595000D01*
X171907381Y-79556905D01*
X171716905Y-79556905D01*
X171602619Y-79595000D01*
X171297857Y-80318810D02*
X171183571Y-80356905D01*
X170993095Y-80356905D01*
X170916905Y-80318810D01*
X170878809Y-80280714D01*
X170840714Y-80204524D01*
X170840714Y-80128333D01*
X170878809Y-80052143D01*
X170916905Y-80014048D01*
X170993095Y-79975952D01*
X171145476Y-79937857D01*
X171221667Y-79899762D01*
X171259762Y-79861667D01*
X171297857Y-79785476D01*
X171297857Y-79709286D01*
X171259762Y-79633095D01*
X171221667Y-79595000D01*
X171145476Y-79556905D01*
X170955000Y-79556905D01*
X170840714Y-79595000D01*
X176155000Y-81656905D02*
X176155000Y-80856905D01*
X175964524Y-80856905D01*
X175850238Y-80895000D01*
X175774047Y-80971190D01*
X175735952Y-81047381D01*
X175697857Y-81199762D01*
X175697857Y-81314048D01*
X175735952Y-81466429D01*
X175774047Y-81542619D01*
X175850238Y-81618810D01*
X175964524Y-81656905D01*
X176155000Y-81656905D01*
X175355000Y-81237857D02*
X175088333Y-81237857D01*
X174974047Y-81656905D02*
X175355000Y-81656905D01*
X175355000Y-80856905D01*
X174974047Y-80856905D01*
X174174047Y-81580714D02*
X174212142Y-81618810D01*
X174326428Y-81656905D01*
X174402618Y-81656905D01*
X174516904Y-81618810D01*
X174593095Y-81542619D01*
X174631190Y-81466429D01*
X174669285Y-81314048D01*
X174669285Y-81199762D01*
X174631190Y-81047381D01*
X174593095Y-80971190D01*
X174516904Y-80895000D01*
X174402618Y-80856905D01*
X174326428Y-80856905D01*
X174212142Y-80895000D01*
X174174047Y-80933095D01*
X173678809Y-80856905D02*
X173526428Y-80856905D01*
X173450237Y-80895000D01*
X173374047Y-80971190D01*
X173335952Y-81123571D01*
X173335952Y-81390238D01*
X173374047Y-81542619D01*
X173450237Y-81618810D01*
X173526428Y-81656905D01*
X173678809Y-81656905D01*
X173754999Y-81618810D01*
X173831190Y-81542619D01*
X173869285Y-81390238D01*
X173869285Y-81123571D01*
X173831190Y-80971190D01*
X173754999Y-80895000D01*
X173678809Y-80856905D01*
X172993095Y-81656905D02*
X172993095Y-80856905D01*
X172802619Y-80856905D01*
X172688333Y-80895000D01*
X172612142Y-80971190D01*
X172574047Y-81047381D01*
X172535952Y-81199762D01*
X172535952Y-81314048D01*
X172574047Y-81466429D01*
X172612142Y-81542619D01*
X172688333Y-81618810D01*
X172802619Y-81656905D01*
X172993095Y-81656905D01*
X172193095Y-81656905D02*
X172193095Y-80856905D01*
X171812143Y-81656905D02*
X171812143Y-80856905D01*
X171355000Y-81656905D01*
X171355000Y-80856905D01*
X170555000Y-80895000D02*
X170631191Y-80856905D01*
X170745476Y-80856905D01*
X170859762Y-80895000D01*
X170935953Y-80971190D01*
X170974048Y-81047381D01*
X171012143Y-81199762D01*
X171012143Y-81314048D01*
X170974048Y-81466429D01*
X170935953Y-81542619D01*
X170859762Y-81618810D01*
X170745476Y-81656905D01*
X170669286Y-81656905D01*
X170555000Y-81618810D01*
X170516905Y-81580714D01*
X170516905Y-81314048D01*
X170669286Y-81314048D01*
D12*
X129867381Y-115061905D02*
X129867381Y-114490476D01*
X129867381Y-114776190D02*
X128867381Y-114776190D01*
X129010238Y-114680952D01*
X129105476Y-114585714D01*
X129153095Y-114490476D01*
X129867381Y-116014286D02*
X129867381Y-115442857D01*
X129867381Y-115728571D02*
X128867381Y-115728571D01*
X129010238Y-115633333D01*
X129105476Y-115538095D01*
X129153095Y-115442857D01*
X128867381Y-116919048D02*
X128867381Y-116442857D01*
X129343571Y-116395238D01*
X129295952Y-116442857D01*
X129248333Y-116538095D01*
X129248333Y-116776191D01*
X129295952Y-116871429D01*
X129343571Y-116919048D01*
X129438810Y-116966667D01*
X129676905Y-116966667D01*
X129772143Y-116919048D01*
X129819762Y-116871429D01*
X129867381Y-116776191D01*
X129867381Y-116538095D01*
X129819762Y-116442857D01*
X129772143Y-116395238D01*
X128962619Y-117347619D02*
X128915000Y-117395238D01*
X128867381Y-117490476D01*
X128867381Y-117728572D01*
X128915000Y-117823810D01*
X128962619Y-117871429D01*
X129057857Y-117919048D01*
X129153095Y-117919048D01*
X129295952Y-117871429D01*
X129867381Y-117300000D01*
X129867381Y-117919048D01*
X128867381Y-118538095D02*
X128867381Y-118633334D01*
X128915000Y-118728572D01*
X128962619Y-118776191D01*
X129057857Y-118823810D01*
X129248333Y-118871429D01*
X129486429Y-118871429D01*
X129676905Y-118823810D01*
X129772143Y-118776191D01*
X129819762Y-118728572D01*
X129867381Y-118633334D01*
X129867381Y-118538095D01*
X129819762Y-118442857D01*
X129772143Y-118395238D01*
X129676905Y-118347619D01*
X129486429Y-118300000D01*
X129248333Y-118300000D01*
X129057857Y-118347619D01*
X128962619Y-118395238D01*
X128915000Y-118442857D01*
X128867381Y-118538095D01*
X128867381Y-119490476D02*
X128867381Y-119585715D01*
X128915000Y-119680953D01*
X128962619Y-119728572D01*
X129057857Y-119776191D01*
X129248333Y-119823810D01*
X129486429Y-119823810D01*
X129676905Y-119776191D01*
X129772143Y-119728572D01*
X129819762Y-119680953D01*
X129867381Y-119585715D01*
X129867381Y-119490476D01*
X129819762Y-119395238D01*
X129772143Y-119347619D01*
X129676905Y-119300000D01*
X129486429Y-119252381D01*
X129248333Y-119252381D01*
X129057857Y-119300000D01*
X128962619Y-119347619D01*
X128915000Y-119395238D01*
X128867381Y-119490476D01*
X130945952Y-114680952D02*
X130898333Y-114585714D01*
X130850714Y-114538095D01*
X130755476Y-114490476D01*
X130707857Y-114490476D01*
X130612619Y-114538095D01*
X130565000Y-114585714D01*
X130517381Y-114680952D01*
X130517381Y-114871429D01*
X130565000Y-114966667D01*
X130612619Y-115014286D01*
X130707857Y-115061905D01*
X130755476Y-115061905D01*
X130850714Y-115014286D01*
X130898333Y-114966667D01*
X130945952Y-114871429D01*
X130945952Y-114680952D01*
X130993571Y-114585714D01*
X131041190Y-114538095D01*
X131136429Y-114490476D01*
X131326905Y-114490476D01*
X131422143Y-114538095D01*
X131469762Y-114585714D01*
X131517381Y-114680952D01*
X131517381Y-114871429D01*
X131469762Y-114966667D01*
X131422143Y-115014286D01*
X131326905Y-115061905D01*
X131136429Y-115061905D01*
X131041190Y-115014286D01*
X130993571Y-114966667D01*
X130945952Y-114871429D01*
X133167381Y-115061905D02*
X133167381Y-114490476D01*
X133167381Y-114776190D02*
X132167381Y-114776190D01*
X132310238Y-114680952D01*
X132405476Y-114585714D01*
X132453095Y-114490476D01*
X134817381Y-114538095D02*
X133817381Y-114538095D01*
X134817381Y-115109524D01*
X133817381Y-115109524D01*
X134817381Y-115728571D02*
X134769762Y-115633333D01*
X134722143Y-115585714D01*
X134626905Y-115538095D01*
X134341190Y-115538095D01*
X134245952Y-115585714D01*
X134198333Y-115633333D01*
X134150714Y-115728571D01*
X134150714Y-115871429D01*
X134198333Y-115966667D01*
X134245952Y-116014286D01*
X134341190Y-116061905D01*
X134626905Y-116061905D01*
X134722143Y-116014286D01*
X134769762Y-115966667D01*
X134817381Y-115871429D01*
X134817381Y-115728571D01*
X134150714Y-116490476D02*
X134817381Y-116490476D01*
X134245952Y-116490476D02*
X134198333Y-116538095D01*
X134150714Y-116633333D01*
X134150714Y-116776191D01*
X134198333Y-116871429D01*
X134293571Y-116919048D01*
X134817381Y-116919048D01*
X134769762Y-117776191D02*
X134817381Y-117680953D01*
X134817381Y-117490476D01*
X134769762Y-117395238D01*
X134674524Y-117347619D01*
X134293571Y-117347619D01*
X134198333Y-117395238D01*
X134150714Y-117490476D01*
X134150714Y-117680953D01*
X134198333Y-117776191D01*
X134293571Y-117823810D01*
X134388810Y-117823810D01*
X134484048Y-117347619D01*
X135467381Y-114442857D02*
X136467381Y-115109524D01*
X135467381Y-115109524D02*
X136467381Y-114442857D01*
X135467381Y-115680952D02*
X135467381Y-115871429D01*
X135515000Y-115966667D01*
X135610238Y-116061905D01*
X135800714Y-116109524D01*
X136134048Y-116109524D01*
X136324524Y-116061905D01*
X136419762Y-115966667D01*
X136467381Y-115871429D01*
X136467381Y-115680952D01*
X136419762Y-115585714D01*
X136324524Y-115490476D01*
X136134048Y-115442857D01*
X135800714Y-115442857D01*
X135610238Y-115490476D01*
X135515000Y-115585714D01*
X135467381Y-115680952D01*
X136467381Y-116538095D02*
X135467381Y-116538095D01*
X136467381Y-117109524D01*
X135467381Y-117109524D01*
X135419762Y-118300000D02*
X136705476Y-117442857D01*
X135467381Y-118538095D02*
X136467381Y-119204762D01*
X135467381Y-119204762D02*
X136467381Y-118538095D01*
X135467381Y-119776190D02*
X135467381Y-119966667D01*
X135515000Y-120061905D01*
X135610238Y-120157143D01*
X135800714Y-120204762D01*
X136134048Y-120204762D01*
X136324524Y-120157143D01*
X136419762Y-120061905D01*
X136467381Y-119966667D01*
X136467381Y-119776190D01*
X136419762Y-119680952D01*
X136324524Y-119585714D01*
X136134048Y-119538095D01*
X135800714Y-119538095D01*
X135610238Y-119585714D01*
X135515000Y-119680952D01*
X135467381Y-119776190D01*
X135943571Y-120966667D02*
X135943571Y-120633333D01*
X136467381Y-120633333D02*
X135467381Y-120633333D01*
X135467381Y-121109524D01*
X135943571Y-121823810D02*
X135943571Y-121490476D01*
X136467381Y-121490476D02*
X135467381Y-121490476D01*
X135467381Y-121966667D01*
X129819762Y-97980476D02*
X129867381Y-98123333D01*
X129867381Y-98361429D01*
X129819762Y-98456667D01*
X129772143Y-98504286D01*
X129676905Y-98551905D01*
X129581667Y-98551905D01*
X129486429Y-98504286D01*
X129438810Y-98456667D01*
X129391190Y-98361429D01*
X129343571Y-98170952D01*
X129295952Y-98075714D01*
X129248333Y-98028095D01*
X129153095Y-97980476D01*
X129057857Y-97980476D01*
X128962619Y-98028095D01*
X128915000Y-98075714D01*
X128867381Y-98170952D01*
X128867381Y-98409048D01*
X128915000Y-98551905D01*
X129200714Y-98980476D02*
X130200714Y-98980476D01*
X129248333Y-98980476D02*
X129200714Y-99075714D01*
X129200714Y-99266191D01*
X129248333Y-99361429D01*
X129295952Y-99409048D01*
X129391190Y-99456667D01*
X129676905Y-99456667D01*
X129772143Y-99409048D01*
X129819762Y-99361429D01*
X129867381Y-99266191D01*
X129867381Y-99075714D01*
X129819762Y-98980476D01*
X129819762Y-100266191D02*
X129867381Y-100170953D01*
X129867381Y-99980476D01*
X129819762Y-99885238D01*
X129724524Y-99837619D01*
X129343571Y-99837619D01*
X129248333Y-99885238D01*
X129200714Y-99980476D01*
X129200714Y-100170953D01*
X129248333Y-100266191D01*
X129343571Y-100313810D01*
X129438810Y-100313810D01*
X129534048Y-99837619D01*
X129819762Y-101123334D02*
X129867381Y-101028096D01*
X129867381Y-100837619D01*
X129819762Y-100742381D01*
X129724524Y-100694762D01*
X129343571Y-100694762D01*
X129248333Y-100742381D01*
X129200714Y-100837619D01*
X129200714Y-101028096D01*
X129248333Y-101123334D01*
X129343571Y-101170953D01*
X129438810Y-101170953D01*
X129534048Y-100694762D01*
X129867381Y-102028096D02*
X128867381Y-102028096D01*
X129819762Y-102028096D02*
X129867381Y-101932858D01*
X129867381Y-101742381D01*
X129819762Y-101647143D01*
X129772143Y-101599524D01*
X129676905Y-101551905D01*
X129391190Y-101551905D01*
X129295952Y-101599524D01*
X129248333Y-101647143D01*
X129200714Y-101742381D01*
X129200714Y-101932858D01*
X129248333Y-102028096D01*
X130248333Y-103551906D02*
X130200714Y-103504286D01*
X130057857Y-103409048D01*
X129962619Y-103361429D01*
X129819762Y-103313810D01*
X129581667Y-103266191D01*
X129391190Y-103266191D01*
X129153095Y-103313810D01*
X129010238Y-103361429D01*
X128915000Y-103409048D01*
X128772143Y-103504286D01*
X128724524Y-103551906D01*
X129867381Y-103932858D02*
X128867381Y-103932858D01*
X129248333Y-103932858D02*
X129200714Y-104028096D01*
X129200714Y-104218573D01*
X129248333Y-104313811D01*
X129295952Y-104361430D01*
X129391190Y-104409049D01*
X129676905Y-104409049D01*
X129772143Y-104361430D01*
X129819762Y-104313811D01*
X129867381Y-104218573D01*
X129867381Y-104028096D01*
X129819762Y-103932858D01*
X129867381Y-105266192D02*
X129343571Y-105266192D01*
X129248333Y-105218573D01*
X129200714Y-105123335D01*
X129200714Y-104932858D01*
X129248333Y-104837620D01*
X129819762Y-105266192D02*
X129867381Y-105170954D01*
X129867381Y-104932858D01*
X129819762Y-104837620D01*
X129724524Y-104790001D01*
X129629286Y-104790001D01*
X129534048Y-104837620D01*
X129486429Y-104932858D01*
X129486429Y-105170954D01*
X129438810Y-105266192D01*
X129200714Y-106170954D02*
X129867381Y-106170954D01*
X129200714Y-105742382D02*
X129724524Y-105742382D01*
X129819762Y-105790001D01*
X129867381Y-105885239D01*
X129867381Y-106028097D01*
X129819762Y-106123335D01*
X129772143Y-106170954D01*
X129867381Y-107075716D02*
X128867381Y-107075716D01*
X129819762Y-107075716D02*
X129867381Y-106980478D01*
X129867381Y-106790001D01*
X129819762Y-106694763D01*
X129772143Y-106647144D01*
X129676905Y-106599525D01*
X129391190Y-106599525D01*
X129295952Y-106647144D01*
X129248333Y-106694763D01*
X129200714Y-106790001D01*
X129200714Y-106980478D01*
X129248333Y-107075716D01*
X130248333Y-107456668D02*
X130200714Y-107504287D01*
X130057857Y-107599525D01*
X129962619Y-107647144D01*
X129819762Y-107694763D01*
X129581667Y-107742382D01*
X129391190Y-107742382D01*
X129153095Y-107694763D01*
X129010238Y-107647144D01*
X128915000Y-107599525D01*
X128772143Y-107504287D01*
X128724524Y-107456668D01*
X131517381Y-98028095D02*
X130517381Y-98028095D01*
X130517381Y-98266190D01*
X130565000Y-98409048D01*
X130660238Y-98504286D01*
X130755476Y-98551905D01*
X130945952Y-98599524D01*
X131088810Y-98599524D01*
X131279286Y-98551905D01*
X131374524Y-98504286D01*
X131469762Y-98409048D01*
X131517381Y-98266190D01*
X131517381Y-98028095D01*
X131517381Y-99456667D02*
X130993571Y-99456667D01*
X130898333Y-99409048D01*
X130850714Y-99313810D01*
X130850714Y-99123333D01*
X130898333Y-99028095D01*
X131469762Y-99456667D02*
X131517381Y-99361429D01*
X131517381Y-99123333D01*
X131469762Y-99028095D01*
X131374524Y-98980476D01*
X131279286Y-98980476D01*
X131184048Y-99028095D01*
X131136429Y-99123333D01*
X131136429Y-99361429D01*
X131088810Y-99456667D01*
X130850714Y-99790000D02*
X130850714Y-100170952D01*
X130517381Y-99932857D02*
X131374524Y-99932857D01*
X131469762Y-99980476D01*
X131517381Y-100075714D01*
X131517381Y-100170952D01*
X131517381Y-100932858D02*
X130993571Y-100932858D01*
X130898333Y-100885239D01*
X130850714Y-100790001D01*
X130850714Y-100599524D01*
X130898333Y-100504286D01*
X131469762Y-100932858D02*
X131517381Y-100837620D01*
X131517381Y-100599524D01*
X131469762Y-100504286D01*
X131374524Y-100456667D01*
X131279286Y-100456667D01*
X131184048Y-100504286D01*
X131136429Y-100599524D01*
X131136429Y-100837620D01*
X131088810Y-100932858D01*
X131517381Y-102170953D02*
X130517381Y-102170953D01*
X130898333Y-102170953D02*
X130850714Y-102266191D01*
X130850714Y-102456668D01*
X130898333Y-102551906D01*
X130945952Y-102599525D01*
X131041190Y-102647144D01*
X131326905Y-102647144D01*
X131422143Y-102599525D01*
X131469762Y-102551906D01*
X131517381Y-102456668D01*
X131517381Y-102266191D01*
X131469762Y-102170953D01*
X131517381Y-103075715D02*
X130850714Y-103075715D01*
X130517381Y-103075715D02*
X130565000Y-103028096D01*
X130612619Y-103075715D01*
X130565000Y-103123334D01*
X130517381Y-103075715D01*
X130612619Y-103075715D01*
X130850714Y-103409048D02*
X130850714Y-103790000D01*
X130517381Y-103551905D02*
X131374524Y-103551905D01*
X131469762Y-103599524D01*
X131517381Y-103694762D01*
X131517381Y-103790000D01*
X131469762Y-104075715D02*
X131517381Y-104170953D01*
X131517381Y-104361429D01*
X131469762Y-104456668D01*
X131374524Y-104504287D01*
X131326905Y-104504287D01*
X131231667Y-104456668D01*
X131184048Y-104361429D01*
X131184048Y-104218572D01*
X131136429Y-104123334D01*
X131041190Y-104075715D01*
X130993571Y-104075715D01*
X130898333Y-104123334D01*
X130850714Y-104218572D01*
X130850714Y-104361429D01*
X130898333Y-104456668D01*
X133119762Y-97980476D02*
X133167381Y-98123333D01*
X133167381Y-98361429D01*
X133119762Y-98456667D01*
X133072143Y-98504286D01*
X132976905Y-98551905D01*
X132881667Y-98551905D01*
X132786429Y-98504286D01*
X132738810Y-98456667D01*
X132691190Y-98361429D01*
X132643571Y-98170952D01*
X132595952Y-98075714D01*
X132548333Y-98028095D01*
X132453095Y-97980476D01*
X132357857Y-97980476D01*
X132262619Y-98028095D01*
X132215000Y-98075714D01*
X132167381Y-98170952D01*
X132167381Y-98409048D01*
X132215000Y-98551905D01*
X132500714Y-98837619D02*
X132500714Y-99218571D01*
X132167381Y-98980476D02*
X133024524Y-98980476D01*
X133119762Y-99028095D01*
X133167381Y-99123333D01*
X133167381Y-99218571D01*
X133167381Y-99694762D02*
X133119762Y-99599524D01*
X133072143Y-99551905D01*
X132976905Y-99504286D01*
X132691190Y-99504286D01*
X132595952Y-99551905D01*
X132548333Y-99599524D01*
X132500714Y-99694762D01*
X132500714Y-99837620D01*
X132548333Y-99932858D01*
X132595952Y-99980477D01*
X132691190Y-100028096D01*
X132976905Y-100028096D01*
X133072143Y-99980477D01*
X133119762Y-99932858D01*
X133167381Y-99837620D01*
X133167381Y-99694762D01*
X132500714Y-100456667D02*
X133500714Y-100456667D01*
X132548333Y-100456667D02*
X132500714Y-100551905D01*
X132500714Y-100742382D01*
X132548333Y-100837620D01*
X132595952Y-100885239D01*
X132691190Y-100932858D01*
X132976905Y-100932858D01*
X133072143Y-100885239D01*
X133119762Y-100837620D01*
X133167381Y-100742382D01*
X133167381Y-100551905D01*
X133119762Y-100456667D01*
X133167381Y-102123334D02*
X132167381Y-102123334D01*
X132548333Y-102123334D02*
X132500714Y-102218572D01*
X132500714Y-102409049D01*
X132548333Y-102504287D01*
X132595952Y-102551906D01*
X132691190Y-102599525D01*
X132976905Y-102599525D01*
X133072143Y-102551906D01*
X133119762Y-102504287D01*
X133167381Y-102409049D01*
X133167381Y-102218572D01*
X133119762Y-102123334D01*
X133167381Y-103028096D02*
X132500714Y-103028096D01*
X132167381Y-103028096D02*
X132215000Y-102980477D01*
X132262619Y-103028096D01*
X132215000Y-103075715D01*
X132167381Y-103028096D01*
X132262619Y-103028096D01*
X132500714Y-103361429D02*
X132500714Y-103742381D01*
X132167381Y-103504286D02*
X133024524Y-103504286D01*
X133119762Y-103551905D01*
X133167381Y-103647143D01*
X133167381Y-103742381D01*
X133119762Y-104028096D02*
X133167381Y-104123334D01*
X133167381Y-104313810D01*
X133119762Y-104409049D01*
X133024524Y-104456668D01*
X132976905Y-104456668D01*
X132881667Y-104409049D01*
X132834048Y-104313810D01*
X132834048Y-104170953D01*
X132786429Y-104075715D01*
X132691190Y-104028096D01*
X132643571Y-104028096D01*
X132548333Y-104075715D01*
X132500714Y-104170953D01*
X132500714Y-104313810D01*
X132548333Y-104409049D01*
X134817381Y-98028095D02*
X133817381Y-98028095D01*
X133817381Y-98409048D01*
X133865000Y-98504286D01*
X133912619Y-98551905D01*
X134007857Y-98599524D01*
X134150714Y-98599524D01*
X134245952Y-98551905D01*
X134293571Y-98504286D01*
X134341190Y-98409048D01*
X134341190Y-98028095D01*
X134817381Y-99456667D02*
X134293571Y-99456667D01*
X134198333Y-99409048D01*
X134150714Y-99313810D01*
X134150714Y-99123333D01*
X134198333Y-99028095D01*
X134769762Y-99456667D02*
X134817381Y-99361429D01*
X134817381Y-99123333D01*
X134769762Y-99028095D01*
X134674524Y-98980476D01*
X134579286Y-98980476D01*
X134484048Y-99028095D01*
X134436429Y-99123333D01*
X134436429Y-99361429D01*
X134388810Y-99456667D01*
X134817381Y-99932857D02*
X134150714Y-99932857D01*
X134341190Y-99932857D02*
X134245952Y-99980476D01*
X134198333Y-100028095D01*
X134150714Y-100123333D01*
X134150714Y-100218572D01*
X134817381Y-100551905D02*
X134150714Y-100551905D01*
X133817381Y-100551905D02*
X133865000Y-100504286D01*
X133912619Y-100551905D01*
X133865000Y-100599524D01*
X133817381Y-100551905D01*
X133912619Y-100551905D01*
X134150714Y-100885238D02*
X134150714Y-101266190D01*
X133817381Y-101028095D02*
X134674524Y-101028095D01*
X134769762Y-101075714D01*
X134817381Y-101170952D01*
X134817381Y-101266190D01*
X134150714Y-101504286D02*
X134817381Y-101742381D01*
X134150714Y-101980477D02*
X134817381Y-101742381D01*
X135055476Y-101647143D01*
X135103095Y-101599524D01*
X135150714Y-101504286D01*
X135943571Y-98361429D02*
X135943571Y-98028095D01*
X136467381Y-98028095D02*
X135467381Y-98028095D01*
X135467381Y-98504286D01*
X136467381Y-99028095D02*
X136419762Y-98932857D01*
X136324524Y-98885238D01*
X135467381Y-98885238D01*
X136467381Y-99551905D02*
X136419762Y-99456667D01*
X136372143Y-99409048D01*
X136276905Y-99361429D01*
X135991190Y-99361429D01*
X135895952Y-99409048D01*
X135848333Y-99456667D01*
X135800714Y-99551905D01*
X135800714Y-99694763D01*
X135848333Y-99790001D01*
X135895952Y-99837620D01*
X135991190Y-99885239D01*
X136276905Y-99885239D01*
X136372143Y-99837620D01*
X136419762Y-99790001D01*
X136467381Y-99694763D01*
X136467381Y-99551905D01*
X135800714Y-100218572D02*
X136467381Y-100409048D01*
X135991190Y-100599525D01*
X136467381Y-100790001D01*
X135800714Y-100980477D01*
X136419762Y-102551906D02*
X136467381Y-102456668D01*
X136467381Y-102266191D01*
X136419762Y-102170953D01*
X136372143Y-102123334D01*
X136276905Y-102075715D01*
X135991190Y-102075715D01*
X135895952Y-102123334D01*
X135848333Y-102170953D01*
X135800714Y-102266191D01*
X135800714Y-102456668D01*
X135848333Y-102551906D01*
X136467381Y-103123334D02*
X136419762Y-103028096D01*
X136372143Y-102980477D01*
X136276905Y-102932858D01*
X135991190Y-102932858D01*
X135895952Y-102980477D01*
X135848333Y-103028096D01*
X135800714Y-103123334D01*
X135800714Y-103266192D01*
X135848333Y-103361430D01*
X135895952Y-103409049D01*
X135991190Y-103456668D01*
X136276905Y-103456668D01*
X136372143Y-103409049D01*
X136419762Y-103361430D01*
X136467381Y-103266192D01*
X136467381Y-103123334D01*
X135800714Y-103885239D02*
X136467381Y-103885239D01*
X135895952Y-103885239D02*
X135848333Y-103932858D01*
X135800714Y-104028096D01*
X135800714Y-104170954D01*
X135848333Y-104266192D01*
X135943571Y-104313811D01*
X136467381Y-104313811D01*
X135800714Y-104647144D02*
X135800714Y-105028096D01*
X135467381Y-104790001D02*
X136324524Y-104790001D01*
X136419762Y-104837620D01*
X136467381Y-104932858D01*
X136467381Y-105028096D01*
X136467381Y-105361430D02*
X135800714Y-105361430D01*
X135991190Y-105361430D02*
X135895952Y-105409049D01*
X135848333Y-105456668D01*
X135800714Y-105551906D01*
X135800714Y-105647145D01*
X136467381Y-106123335D02*
X136419762Y-106028097D01*
X136372143Y-105980478D01*
X136276905Y-105932859D01*
X135991190Y-105932859D01*
X135895952Y-105980478D01*
X135848333Y-106028097D01*
X135800714Y-106123335D01*
X135800714Y-106266193D01*
X135848333Y-106361431D01*
X135895952Y-106409050D01*
X135991190Y-106456669D01*
X136276905Y-106456669D01*
X136372143Y-106409050D01*
X136419762Y-106361431D01*
X136467381Y-106266193D01*
X136467381Y-106123335D01*
X136467381Y-107028097D02*
X136419762Y-106932859D01*
X136324524Y-106885240D01*
X135467381Y-106885240D01*
X153392143Y-115109524D02*
X153439762Y-115061905D01*
X153487381Y-114919048D01*
X153487381Y-114823810D01*
X153439762Y-114680952D01*
X153344524Y-114585714D01*
X153249286Y-114538095D01*
X153058810Y-114490476D01*
X152915952Y-114490476D01*
X152725476Y-114538095D01*
X152630238Y-114585714D01*
X152535000Y-114680952D01*
X152487381Y-114823810D01*
X152487381Y-114919048D01*
X152535000Y-115061905D01*
X152582619Y-115109524D01*
X152487381Y-115728571D02*
X152487381Y-115919048D01*
X152535000Y-116014286D01*
X152630238Y-116109524D01*
X152820714Y-116157143D01*
X153154048Y-116157143D01*
X153344524Y-116109524D01*
X153439762Y-116014286D01*
X153487381Y-115919048D01*
X153487381Y-115728571D01*
X153439762Y-115633333D01*
X153344524Y-115538095D01*
X153154048Y-115490476D01*
X152820714Y-115490476D01*
X152630238Y-115538095D01*
X152535000Y-115633333D01*
X152487381Y-115728571D01*
X153487381Y-116585714D02*
X152487381Y-116585714D01*
X153201667Y-116919048D01*
X152487381Y-117252381D01*
X153487381Y-117252381D01*
X153487381Y-117728571D02*
X152487381Y-117728571D01*
X153201667Y-118061905D01*
X152487381Y-118395238D01*
X153487381Y-118395238D01*
X153201667Y-118823809D02*
X153201667Y-119300000D01*
X153487381Y-118728571D02*
X152487381Y-119061904D01*
X153487381Y-119395238D01*
X153487381Y-119728571D02*
X152487381Y-119728571D01*
X153487381Y-120300000D01*
X152487381Y-120300000D01*
X153487381Y-120776190D02*
X152487381Y-120776190D01*
X152487381Y-121014285D01*
X152535000Y-121157143D01*
X152630238Y-121252381D01*
X152725476Y-121300000D01*
X152915952Y-121347619D01*
X153058810Y-121347619D01*
X153249286Y-121300000D01*
X153344524Y-121252381D01*
X153439762Y-121157143D01*
X153487381Y-121014285D01*
X153487381Y-120776190D01*
X153487381Y-98028095D02*
X152487381Y-98028095D01*
X152487381Y-98409048D01*
X152535000Y-98504286D01*
X152582619Y-98551905D01*
X152677857Y-98599524D01*
X152820714Y-98599524D01*
X152915952Y-98551905D01*
X152963571Y-98504286D01*
X153011190Y-98409048D01*
X153011190Y-98028095D01*
X153487381Y-99599524D02*
X153011190Y-99266190D01*
X153487381Y-99028095D02*
X152487381Y-99028095D01*
X152487381Y-99409048D01*
X152535000Y-99504286D01*
X152582619Y-99551905D01*
X152677857Y-99599524D01*
X152820714Y-99599524D01*
X152915952Y-99551905D01*
X152963571Y-99504286D01*
X153011190Y-99409048D01*
X153011190Y-99028095D01*
X152487381Y-100218571D02*
X152487381Y-100409048D01*
X152535000Y-100504286D01*
X152630238Y-100599524D01*
X152820714Y-100647143D01*
X153154048Y-100647143D01*
X153344524Y-100599524D01*
X153439762Y-100504286D01*
X153487381Y-100409048D01*
X153487381Y-100218571D01*
X153439762Y-100123333D01*
X153344524Y-100028095D01*
X153154048Y-99980476D01*
X152820714Y-99980476D01*
X152630238Y-100028095D01*
X152535000Y-100123333D01*
X152487381Y-100218571D01*
X152535000Y-101599524D02*
X152487381Y-101504286D01*
X152487381Y-101361429D01*
X152535000Y-101218571D01*
X152630238Y-101123333D01*
X152725476Y-101075714D01*
X152915952Y-101028095D01*
X153058810Y-101028095D01*
X153249286Y-101075714D01*
X153344524Y-101123333D01*
X153439762Y-101218571D01*
X153487381Y-101361429D01*
X153487381Y-101456667D01*
X153439762Y-101599524D01*
X153392143Y-101647143D01*
X153058810Y-101647143D01*
X153058810Y-101456667D01*
X153487381Y-102647143D02*
X153011190Y-102313809D01*
X153487381Y-102075714D02*
X152487381Y-102075714D01*
X152487381Y-102456667D01*
X152535000Y-102551905D01*
X152582619Y-102599524D01*
X152677857Y-102647143D01*
X152820714Y-102647143D01*
X152915952Y-102599524D01*
X152963571Y-102551905D01*
X153011190Y-102456667D01*
X153011190Y-102075714D01*
X153201667Y-103028095D02*
X153201667Y-103504286D01*
X153487381Y-102932857D02*
X152487381Y-103266190D01*
X153487381Y-103599524D01*
X153487381Y-103932857D02*
X152487381Y-103932857D01*
X153201667Y-104266191D01*
X152487381Y-104599524D01*
X153487381Y-104599524D01*
X155123571Y-114538095D02*
X155123571Y-114871429D01*
X155647381Y-115014286D02*
X155647381Y-114538095D01*
X154647381Y-114538095D01*
X154647381Y-115014286D01*
X154647381Y-115633333D02*
X154647381Y-115728572D01*
X154695000Y-115823810D01*
X154742619Y-115871429D01*
X154837857Y-115919048D01*
X155028333Y-115966667D01*
X155266429Y-115966667D01*
X155456905Y-115919048D01*
X155552143Y-115871429D01*
X155599762Y-115823810D01*
X155647381Y-115728572D01*
X155647381Y-115633333D01*
X155599762Y-115538095D01*
X155552143Y-115490476D01*
X155456905Y-115442857D01*
X155266429Y-115395238D01*
X155028333Y-115395238D01*
X154837857Y-115442857D01*
X154742619Y-115490476D01*
X154695000Y-115538095D01*
X154647381Y-115633333D01*
X154647381Y-116585714D02*
X154647381Y-116680953D01*
X154695000Y-116776191D01*
X154742619Y-116823810D01*
X154837857Y-116871429D01*
X155028333Y-116919048D01*
X155266429Y-116919048D01*
X155456905Y-116871429D01*
X155552143Y-116823810D01*
X155599762Y-116776191D01*
X155647381Y-116680953D01*
X155647381Y-116585714D01*
X155599762Y-116490476D01*
X155552143Y-116442857D01*
X155456905Y-116395238D01*
X155266429Y-116347619D01*
X155028333Y-116347619D01*
X154837857Y-116395238D01*
X154742619Y-116442857D01*
X154695000Y-116490476D01*
X154647381Y-116585714D01*
X154647381Y-117538095D02*
X154647381Y-117633334D01*
X154695000Y-117728572D01*
X154742619Y-117776191D01*
X154837857Y-117823810D01*
X155028333Y-117871429D01*
X155266429Y-117871429D01*
X155456905Y-117823810D01*
X155552143Y-117776191D01*
X155599762Y-117728572D01*
X155647381Y-117633334D01*
X155647381Y-117538095D01*
X155599762Y-117442857D01*
X155552143Y-117395238D01*
X155456905Y-117347619D01*
X155266429Y-117300000D01*
X155028333Y-117300000D01*
X154837857Y-117347619D01*
X154742619Y-117395238D01*
X154695000Y-117442857D01*
X154647381Y-117538095D01*
X155647381Y-119633334D02*
X155171190Y-119300000D01*
X155647381Y-119061905D02*
X154647381Y-119061905D01*
X154647381Y-119442858D01*
X154695000Y-119538096D01*
X154742619Y-119585715D01*
X154837857Y-119633334D01*
X154980714Y-119633334D01*
X155075952Y-119585715D01*
X155123571Y-119538096D01*
X155171190Y-119442858D01*
X155171190Y-119061905D01*
X156773571Y-114871429D02*
X156773571Y-114538095D01*
X157297381Y-114538095D02*
X156297381Y-114538095D01*
X156297381Y-115014286D01*
X156297381Y-115585714D02*
X156297381Y-115680953D01*
X156345000Y-115776191D01*
X156392619Y-115823810D01*
X156487857Y-115871429D01*
X156678333Y-115919048D01*
X156916429Y-115919048D01*
X157106905Y-115871429D01*
X157202143Y-115823810D01*
X157249762Y-115776191D01*
X157297381Y-115680953D01*
X157297381Y-115585714D01*
X157249762Y-115490476D01*
X157202143Y-115442857D01*
X157106905Y-115395238D01*
X156916429Y-115347619D01*
X156678333Y-115347619D01*
X156487857Y-115395238D01*
X156392619Y-115442857D01*
X156345000Y-115490476D01*
X156297381Y-115585714D01*
X156297381Y-116538095D02*
X156297381Y-116633334D01*
X156345000Y-116728572D01*
X156392619Y-116776191D01*
X156487857Y-116823810D01*
X156678333Y-116871429D01*
X156916429Y-116871429D01*
X157106905Y-116823810D01*
X157202143Y-116776191D01*
X157249762Y-116728572D01*
X157297381Y-116633334D01*
X157297381Y-116538095D01*
X157249762Y-116442857D01*
X157202143Y-116395238D01*
X157106905Y-116347619D01*
X156916429Y-116300000D01*
X156678333Y-116300000D01*
X156487857Y-116347619D01*
X156392619Y-116395238D01*
X156345000Y-116442857D01*
X156297381Y-116538095D01*
X156297381Y-117490476D02*
X156297381Y-117585715D01*
X156345000Y-117680953D01*
X156392619Y-117728572D01*
X156487857Y-117776191D01*
X156678333Y-117823810D01*
X156916429Y-117823810D01*
X157106905Y-117776191D01*
X157202143Y-117728572D01*
X157249762Y-117680953D01*
X157297381Y-117585715D01*
X157297381Y-117490476D01*
X157249762Y-117395238D01*
X157202143Y-117347619D01*
X157106905Y-117300000D01*
X156916429Y-117252381D01*
X156678333Y-117252381D01*
X156487857Y-117300000D01*
X156392619Y-117347619D01*
X156345000Y-117395238D01*
X156297381Y-117490476D01*
X157297381Y-119585715D02*
X156821190Y-119252381D01*
X157297381Y-119014286D02*
X156297381Y-119014286D01*
X156297381Y-119395239D01*
X156345000Y-119490477D01*
X156392619Y-119538096D01*
X156487857Y-119585715D01*
X156630714Y-119585715D01*
X156725952Y-119538096D01*
X156773571Y-119490477D01*
X156821190Y-119395239D01*
X156821190Y-119014286D01*
X158423571Y-114871429D02*
X158423571Y-114538095D01*
X158947381Y-114538095D02*
X157947381Y-114538095D01*
X157947381Y-115014286D01*
X158423571Y-115728572D02*
X158423571Y-115395238D01*
X158947381Y-115395238D02*
X157947381Y-115395238D01*
X157947381Y-115871429D01*
X157947381Y-116442857D02*
X157947381Y-116538096D01*
X157995000Y-116633334D01*
X158042619Y-116680953D01*
X158137857Y-116728572D01*
X158328333Y-116776191D01*
X158566429Y-116776191D01*
X158756905Y-116728572D01*
X158852143Y-116680953D01*
X158899762Y-116633334D01*
X158947381Y-116538096D01*
X158947381Y-116442857D01*
X158899762Y-116347619D01*
X158852143Y-116300000D01*
X158756905Y-116252381D01*
X158566429Y-116204762D01*
X158328333Y-116204762D01*
X158137857Y-116252381D01*
X158042619Y-116300000D01*
X157995000Y-116347619D01*
X157947381Y-116442857D01*
X157947381Y-117395238D02*
X157947381Y-117490477D01*
X157995000Y-117585715D01*
X158042619Y-117633334D01*
X158137857Y-117680953D01*
X158328333Y-117728572D01*
X158566429Y-117728572D01*
X158756905Y-117680953D01*
X158852143Y-117633334D01*
X158899762Y-117585715D01*
X158947381Y-117490477D01*
X158947381Y-117395238D01*
X158899762Y-117300000D01*
X158852143Y-117252381D01*
X158756905Y-117204762D01*
X158566429Y-117157143D01*
X158328333Y-117157143D01*
X158137857Y-117204762D01*
X158042619Y-117252381D01*
X157995000Y-117300000D01*
X157947381Y-117395238D01*
X158947381Y-119490477D02*
X158471190Y-119157143D01*
X158947381Y-118919048D02*
X157947381Y-118919048D01*
X157947381Y-119300001D01*
X157995000Y-119395239D01*
X158042619Y-119442858D01*
X158137857Y-119490477D01*
X158280714Y-119490477D01*
X158375952Y-119442858D01*
X158423571Y-119395239D01*
X158471190Y-119300001D01*
X158471190Y-118919048D01*
X155647381Y-98028095D02*
X154647381Y-98028095D01*
X154980714Y-98504285D02*
X155647381Y-98504285D01*
X155075952Y-98504285D02*
X155028333Y-98551904D01*
X154980714Y-98647142D01*
X154980714Y-98790000D01*
X155028333Y-98885238D01*
X155123571Y-98932857D01*
X155647381Y-98932857D01*
X154980714Y-99266190D02*
X154980714Y-99647142D01*
X154647381Y-99409047D02*
X155504524Y-99409047D01*
X155599762Y-99456666D01*
X155647381Y-99551904D01*
X155647381Y-99647142D01*
X155599762Y-100361429D02*
X155647381Y-100266191D01*
X155647381Y-100075714D01*
X155599762Y-99980476D01*
X155504524Y-99932857D01*
X155123571Y-99932857D01*
X155028333Y-99980476D01*
X154980714Y-100075714D01*
X154980714Y-100266191D01*
X155028333Y-100361429D01*
X155123571Y-100409048D01*
X155218810Y-100409048D01*
X155314048Y-99932857D01*
X154980714Y-101266191D02*
X155790238Y-101266191D01*
X155885476Y-101218572D01*
X155933095Y-101170953D01*
X155980714Y-101075714D01*
X155980714Y-100932857D01*
X155933095Y-100837619D01*
X155599762Y-101266191D02*
X155647381Y-101170953D01*
X155647381Y-100980476D01*
X155599762Y-100885238D01*
X155552143Y-100837619D01*
X155456905Y-100790000D01*
X155171190Y-100790000D01*
X155075952Y-100837619D01*
X155028333Y-100885238D01*
X154980714Y-100980476D01*
X154980714Y-101170953D01*
X155028333Y-101266191D01*
X155599762Y-102123334D02*
X155647381Y-102028096D01*
X155647381Y-101837619D01*
X155599762Y-101742381D01*
X155504524Y-101694762D01*
X155123571Y-101694762D01*
X155028333Y-101742381D01*
X154980714Y-101837619D01*
X154980714Y-102028096D01*
X155028333Y-102123334D01*
X155123571Y-102170953D01*
X155218810Y-102170953D01*
X155314048Y-101694762D01*
X155647381Y-102599524D02*
X154980714Y-102599524D01*
X155171190Y-102599524D02*
X155075952Y-102647143D01*
X155028333Y-102694762D01*
X154980714Y-102790000D01*
X154980714Y-102885239D01*
X155123571Y-104313811D02*
X155171190Y-104456668D01*
X155218810Y-104504287D01*
X155314048Y-104551906D01*
X155456905Y-104551906D01*
X155552143Y-104504287D01*
X155599762Y-104456668D01*
X155647381Y-104361430D01*
X155647381Y-103980477D01*
X154647381Y-103980477D01*
X154647381Y-104313811D01*
X154695000Y-104409049D01*
X154742619Y-104456668D01*
X154837857Y-104504287D01*
X154933095Y-104504287D01*
X155028333Y-104456668D01*
X155075952Y-104409049D01*
X155123571Y-104313811D01*
X155123571Y-103980477D01*
X155647381Y-105409049D02*
X155123571Y-105409049D01*
X155028333Y-105361430D01*
X154980714Y-105266192D01*
X154980714Y-105075715D01*
X155028333Y-104980477D01*
X155599762Y-105409049D02*
X155647381Y-105313811D01*
X155647381Y-105075715D01*
X155599762Y-104980477D01*
X155504524Y-104932858D01*
X155409286Y-104932858D01*
X155314048Y-104980477D01*
X155266429Y-105075715D01*
X155266429Y-105313811D01*
X155218810Y-105409049D01*
X155599762Y-105837620D02*
X155647381Y-105932858D01*
X155647381Y-106123334D01*
X155599762Y-106218573D01*
X155504524Y-106266192D01*
X155456905Y-106266192D01*
X155361667Y-106218573D01*
X155314048Y-106123334D01*
X155314048Y-105980477D01*
X155266429Y-105885239D01*
X155171190Y-105837620D01*
X155123571Y-105837620D01*
X155028333Y-105885239D01*
X154980714Y-105980477D01*
X154980714Y-106123334D01*
X155028333Y-106218573D01*
X155647381Y-106694763D02*
X154980714Y-106694763D01*
X154647381Y-106694763D02*
X154695000Y-106647144D01*
X154742619Y-106694763D01*
X154695000Y-106742382D01*
X154647381Y-106694763D01*
X154742619Y-106694763D01*
X155599762Y-107599525D02*
X155647381Y-107504287D01*
X155647381Y-107313810D01*
X155599762Y-107218572D01*
X155552143Y-107170953D01*
X155456905Y-107123334D01*
X155171190Y-107123334D01*
X155075952Y-107170953D01*
X155028333Y-107218572D01*
X154980714Y-107313810D01*
X154980714Y-107504287D01*
X155028333Y-107599525D01*
X157297381Y-98028095D02*
X156297381Y-98028095D01*
X157297381Y-98599524D02*
X156725952Y-98170952D01*
X156297381Y-98599524D02*
X156868810Y-98028095D01*
X157297381Y-99028095D02*
X156630714Y-99028095D01*
X156821190Y-99028095D02*
X156725952Y-99075714D01*
X156678333Y-99123333D01*
X156630714Y-99218571D01*
X156630714Y-99313810D01*
X156630714Y-100075715D02*
X157297381Y-100075715D01*
X156630714Y-99647143D02*
X157154524Y-99647143D01*
X157249762Y-99694762D01*
X157297381Y-99790000D01*
X157297381Y-99932858D01*
X157249762Y-100028096D01*
X157202143Y-100075715D01*
X157249762Y-100504286D02*
X157297381Y-100599524D01*
X157297381Y-100790000D01*
X157249762Y-100885239D01*
X157154524Y-100932858D01*
X157106905Y-100932858D01*
X157011667Y-100885239D01*
X156964048Y-100790000D01*
X156964048Y-100647143D01*
X156916429Y-100551905D01*
X156821190Y-100504286D01*
X156773571Y-100504286D01*
X156678333Y-100551905D01*
X156630714Y-100647143D01*
X156630714Y-100790000D01*
X156678333Y-100885239D01*
X157297381Y-101790001D02*
X156773571Y-101790001D01*
X156678333Y-101742382D01*
X156630714Y-101647144D01*
X156630714Y-101456667D01*
X156678333Y-101361429D01*
X157249762Y-101790001D02*
X157297381Y-101694763D01*
X157297381Y-101456667D01*
X157249762Y-101361429D01*
X157154524Y-101313810D01*
X157059286Y-101313810D01*
X156964048Y-101361429D01*
X156916429Y-101456667D01*
X156916429Y-101694763D01*
X156868810Y-101790001D01*
X157297381Y-102694763D02*
X156297381Y-102694763D01*
X157249762Y-102694763D02*
X157297381Y-102599525D01*
X157297381Y-102409048D01*
X157249762Y-102313810D01*
X157202143Y-102266191D01*
X157106905Y-102218572D01*
X156821190Y-102218572D01*
X156725952Y-102266191D01*
X156678333Y-102313810D01*
X156630714Y-102409048D01*
X156630714Y-102599525D01*
X156678333Y-102694763D01*
X157249762Y-103551906D02*
X157297381Y-103456668D01*
X157297381Y-103266191D01*
X157249762Y-103170953D01*
X157154524Y-103123334D01*
X156773571Y-103123334D01*
X156678333Y-103170953D01*
X156630714Y-103266191D01*
X156630714Y-103456668D01*
X156678333Y-103551906D01*
X156773571Y-103599525D01*
X156868810Y-103599525D01*
X156964048Y-103123334D01*
X157297381Y-104028096D02*
X156630714Y-104028096D01*
X156821190Y-104028096D02*
X156725952Y-104075715D01*
X156678333Y-104123334D01*
X156630714Y-104218572D01*
X156630714Y-104313811D01*
X157011667Y-105361430D02*
X157011667Y-105837621D01*
X157297381Y-105266192D02*
X156297381Y-105599525D01*
X157297381Y-105932859D01*
X157249762Y-106218573D02*
X157297381Y-106313811D01*
X157297381Y-106504287D01*
X157249762Y-106599526D01*
X157154524Y-106647145D01*
X157106905Y-106647145D01*
X157011667Y-106599526D01*
X156964048Y-106504287D01*
X156964048Y-106361430D01*
X156916429Y-106266192D01*
X156821190Y-106218573D01*
X156773571Y-106218573D01*
X156678333Y-106266192D01*
X156630714Y-106361430D01*
X156630714Y-106504287D01*
X156678333Y-106599526D01*
X157249762Y-107028097D02*
X157297381Y-107123335D01*
X157297381Y-107313811D01*
X157249762Y-107409050D01*
X157154524Y-107456669D01*
X157106905Y-107456669D01*
X157011667Y-107409050D01*
X156964048Y-107313811D01*
X156964048Y-107170954D01*
X156916429Y-107075716D01*
X156821190Y-107028097D01*
X156773571Y-107028097D01*
X156678333Y-107075716D01*
X156630714Y-107170954D01*
X156630714Y-107313811D01*
X156678333Y-107409050D01*
X157249762Y-108266193D02*
X157297381Y-108170955D01*
X157297381Y-107980478D01*
X157249762Y-107885240D01*
X157154524Y-107837621D01*
X156773571Y-107837621D01*
X156678333Y-107885240D01*
X156630714Y-107980478D01*
X156630714Y-108170955D01*
X156678333Y-108266193D01*
X156773571Y-108313812D01*
X156868810Y-108313812D01*
X156964048Y-107837621D01*
X157297381Y-108742383D02*
X156630714Y-108742383D01*
X156725952Y-108742383D02*
X156678333Y-108790002D01*
X156630714Y-108885240D01*
X156630714Y-109028098D01*
X156678333Y-109123336D01*
X156773571Y-109170955D01*
X157297381Y-109170955D01*
X156773571Y-109170955D02*
X156678333Y-109218574D01*
X156630714Y-109313812D01*
X156630714Y-109456669D01*
X156678333Y-109551907D01*
X156773571Y-109599526D01*
X157297381Y-109599526D01*
X157297381Y-110075716D02*
X156297381Y-110075716D01*
X156678333Y-110075716D02*
X156630714Y-110170954D01*
X156630714Y-110361431D01*
X156678333Y-110456669D01*
X156725952Y-110504288D01*
X156821190Y-110551907D01*
X157106905Y-110551907D01*
X157202143Y-110504288D01*
X157249762Y-110456669D01*
X157297381Y-110361431D01*
X157297381Y-110170954D01*
X157249762Y-110075716D01*
X157297381Y-111123335D02*
X157249762Y-111028097D01*
X157154524Y-110980478D01*
X156297381Y-110980478D01*
X157249762Y-111885241D02*
X157297381Y-111790003D01*
X157297381Y-111599526D01*
X157249762Y-111504288D01*
X157154524Y-111456669D01*
X156773571Y-111456669D01*
X156678333Y-111504288D01*
X156630714Y-111599526D01*
X156630714Y-111790003D01*
X156678333Y-111885241D01*
X156773571Y-111932860D01*
X156868810Y-111932860D01*
X156964048Y-111456669D01*
X157297381Y-112361431D02*
X156630714Y-112361431D01*
X156821190Y-112361431D02*
X156725952Y-112409050D01*
X156678333Y-112456669D01*
X156630714Y-112551907D01*
X156630714Y-112647146D01*
X157947381Y-97932857D02*
X158947381Y-98170952D01*
X158233095Y-98361429D01*
X158947381Y-98551905D01*
X157947381Y-98790000D01*
X158947381Y-99313809D02*
X158899762Y-99218571D01*
X158852143Y-99170952D01*
X158756905Y-99123333D01*
X158471190Y-99123333D01*
X158375952Y-99170952D01*
X158328333Y-99218571D01*
X158280714Y-99313809D01*
X158280714Y-99456667D01*
X158328333Y-99551905D01*
X158375952Y-99599524D01*
X158471190Y-99647143D01*
X158756905Y-99647143D01*
X158852143Y-99599524D01*
X158899762Y-99551905D01*
X158947381Y-99456667D01*
X158947381Y-99313809D01*
X158280714Y-99980476D02*
X158280714Y-100504286D01*
X158947381Y-99980476D01*
X158947381Y-100504286D01*
X158947381Y-101647143D02*
X157947381Y-101647143D01*
X158661667Y-101980477D01*
X157947381Y-102313810D01*
X158947381Y-102313810D01*
X158947381Y-102932857D02*
X158899762Y-102837619D01*
X158852143Y-102790000D01*
X158756905Y-102742381D01*
X158471190Y-102742381D01*
X158375952Y-102790000D01*
X158328333Y-102837619D01*
X158280714Y-102932857D01*
X158280714Y-103075715D01*
X158328333Y-103170953D01*
X158375952Y-103218572D01*
X158471190Y-103266191D01*
X158756905Y-103266191D01*
X158852143Y-103218572D01*
X158899762Y-103170953D01*
X158947381Y-103075715D01*
X158947381Y-102932857D01*
X158280714Y-103694762D02*
X158947381Y-103694762D01*
X158375952Y-103694762D02*
X158328333Y-103742381D01*
X158280714Y-103837619D01*
X158280714Y-103980477D01*
X158328333Y-104075715D01*
X158423571Y-104123334D01*
X158947381Y-104123334D01*
X158947381Y-104599524D02*
X158280714Y-104599524D01*
X157947381Y-104599524D02*
X157995000Y-104551905D01*
X158042619Y-104599524D01*
X157995000Y-104647143D01*
X157947381Y-104599524D01*
X158042619Y-104599524D01*
X158280714Y-104932857D02*
X158280714Y-105313809D01*
X157947381Y-105075714D02*
X158804524Y-105075714D01*
X158899762Y-105123333D01*
X158947381Y-105218571D01*
X158947381Y-105313809D01*
X158947381Y-105790000D02*
X158899762Y-105694762D01*
X158852143Y-105647143D01*
X158756905Y-105599524D01*
X158471190Y-105599524D01*
X158375952Y-105647143D01*
X158328333Y-105694762D01*
X158280714Y-105790000D01*
X158280714Y-105932858D01*
X158328333Y-106028096D01*
X158375952Y-106075715D01*
X158471190Y-106123334D01*
X158756905Y-106123334D01*
X158852143Y-106075715D01*
X158899762Y-106028096D01*
X158947381Y-105932858D01*
X158947381Y-105790000D01*
X158947381Y-106551905D02*
X158280714Y-106551905D01*
X158471190Y-106551905D02*
X158375952Y-106599524D01*
X158328333Y-106647143D01*
X158280714Y-106742381D01*
X158280714Y-106837620D01*
D10*
X183172143Y-110051905D02*
X183095952Y-110051905D01*
X183019762Y-110090000D01*
X182981667Y-110128095D01*
X182943571Y-110204286D01*
X182905476Y-110356667D01*
X182905476Y-110547143D01*
X182943571Y-110699524D01*
X182981667Y-110775714D01*
X183019762Y-110813810D01*
X183095952Y-110851905D01*
X183172143Y-110851905D01*
X183248333Y-110813810D01*
X183286429Y-110775714D01*
X183324524Y-110699524D01*
X183362619Y-110547143D01*
X183362619Y-110356667D01*
X183324524Y-110204286D01*
X183286429Y-110128095D01*
X183248333Y-110090000D01*
X183172143Y-110051905D01*
X182143571Y-110851905D02*
X182600714Y-110851905D01*
X182372143Y-110851905D02*
X182372143Y-110051905D01*
X182448333Y-110166190D01*
X182524524Y-110242381D01*
X182600714Y-110280476D01*
X181648333Y-110051905D02*
X181572142Y-110051905D01*
X181495952Y-110090000D01*
X181457857Y-110128095D01*
X181419761Y-110204286D01*
X181381666Y-110356667D01*
X181381666Y-110547143D01*
X181419761Y-110699524D01*
X181457857Y-110775714D01*
X181495952Y-110813810D01*
X181572142Y-110851905D01*
X181648333Y-110851905D01*
X181724523Y-110813810D01*
X181762619Y-110775714D01*
X181800714Y-110699524D01*
X181838809Y-110547143D01*
X181838809Y-110356667D01*
X181800714Y-110204286D01*
X181762619Y-110128095D01*
X181724523Y-110090000D01*
X181648333Y-110051905D01*
X180886428Y-110051905D02*
X180810237Y-110051905D01*
X180734047Y-110090000D01*
X180695952Y-110128095D01*
X180657856Y-110204286D01*
X180619761Y-110356667D01*
X180619761Y-110547143D01*
X180657856Y-110699524D01*
X180695952Y-110775714D01*
X180734047Y-110813810D01*
X180810237Y-110851905D01*
X180886428Y-110851905D01*
X180962618Y-110813810D01*
X181000714Y-110775714D01*
X181038809Y-110699524D01*
X181076904Y-110547143D01*
X181076904Y-110356667D01*
X181038809Y-110204286D01*
X181000714Y-110128095D01*
X180962618Y-110090000D01*
X180886428Y-110051905D01*
X180276904Y-110775714D02*
X180238809Y-110813810D01*
X180276904Y-110851905D01*
X180314999Y-110813810D01*
X180276904Y-110775714D01*
X180276904Y-110851905D01*
X179476904Y-110851905D02*
X179934047Y-110851905D01*
X179705476Y-110851905D02*
X179705476Y-110051905D01*
X179781666Y-110166190D01*
X179857857Y-110242381D01*
X179934047Y-110280476D01*
X178867380Y-110432857D02*
X179134047Y-110432857D01*
X179134047Y-110851905D02*
X179134047Y-110051905D01*
X178753094Y-110051905D01*
X178181666Y-110432857D02*
X178448333Y-110432857D01*
X178448333Y-110851905D02*
X178448333Y-110051905D01*
X178067380Y-110051905D01*
X177495952Y-110432857D02*
X177762619Y-110432857D01*
X177762619Y-110851905D02*
X177762619Y-110051905D01*
X177381666Y-110051905D01*
M02*
