M48
;DRILL file {KiCad 4.0.6} date 06/14/17 01:09:44
;FORMAT={2:4/ absolute / inch / suppress leading zeros}
FMAT,2
INCH,TZ
T1C0.016
T2C0.031
T3C0.039
T4C0.039
T5C0.040
%
G90
G05
M72
T1
X52000Y-54500
X52750Y-37500
X52750Y-52000
X52750Y-53000
X53000Y-54250
X53750Y-54500
X55500Y-39500
X55500Y-48000
X55750Y-48500
X55750Y-49500
X56000Y-48000
X56500Y-43000
X61250Y-53750
X61500Y-36000
X61500Y-48000
X61750Y-44250
X62250Y-52750
X64500Y-54750
X64750Y-44750
X64750Y-45250
X64750Y-47250
X64750Y-55000
X65000Y-55250
X65250Y-55500
X65500Y-55750
X65750Y-56000
X67250Y-48500
X67500Y-42500
X67500Y-46750
X67750Y-42250
X68000Y-42000
X68250Y-41500
X68500Y-41250
X68750Y-41000
X69000Y-40750
X69250Y-40500
X70500Y-41000
X70750Y-47000
X71500Y-37500
X71500Y-47000
X72000Y-48250
X72250Y-42750
X72500Y-37500
X73500Y-37500
X77500Y-42250
X80000Y-49250
T2
X51750Y-40500
X51750Y-41500
X51750Y-42500
X51750Y-43500
X51750Y-44500
X51750Y-45500
X51750Y-46500
X51750Y-47500
X51750Y-48500
X51750Y-49500
X51750Y-50500
X51750Y-51500
X51750Y-52500
X51750Y-53500
X54750Y-40500
X54750Y-41500
X54750Y-42500
X54750Y-43500
X54750Y-44500
X54750Y-45500
X54750Y-46500
X54750Y-47500
X54750Y-48500
X54750Y-49500
X54750Y-50500
X54750Y-51500
X54750Y-52500
X54750Y-53500
X57250Y-50281
X57250Y-52250
X57750Y-43000
X57750Y-44969
X57829Y-47000
X59750Y-43000
X59750Y-44969
X59750Y-47000
X60500Y-50281
X60500Y-52250
X63250Y-40500
X63250Y-41500
X63250Y-42500
X63250Y-43500
X63250Y-44500
X63250Y-45500
X63250Y-46500
X63250Y-47500
X63250Y-48500
X63250Y-49500
X63250Y-50500
X63250Y-51500
X63250Y-52500
X63250Y-53500
X66250Y-40500
X66250Y-41500
X66250Y-42500
X66250Y-43500
X66250Y-44500
X66250Y-45500
X66250Y-46500
X66250Y-47500
X66250Y-48500
X66250Y-49500
X66250Y-50500
X66250Y-51500
X66250Y-52500
X66250Y-53500
X68500Y-52500
X68500Y-54500
X70000Y-40500
X70000Y-43500
X71000Y-40500
X71000Y-43500
X71500Y-52500
X71500Y-54500
X72000Y-40500
X72000Y-43500
X73000Y-40500
X73000Y-43500
X73000Y-46500
X73000Y-48500
X73000Y-50500
X73000Y-52500
X73000Y-54500
X74000Y-40500
X74000Y-43500
X75000Y-40500
X75000Y-43500
X76000Y-40500
X76000Y-43500
X77000Y-40500
X77000Y-43500
X77000Y-46500
X77000Y-48500
X77000Y-50500
X77000Y-52500
X77000Y-54500
X78000Y-40500
X78000Y-43500
X79000Y-40500
X79000Y-43500
X80000Y-40500
X80000Y-43500
X80031Y-46500
X81000Y-40500
X81000Y-43500
X82000Y-40500
X82000Y-43500
X82000Y-46500
X82281Y-34500
X83000Y-40500
X83000Y-43500
X84250Y-34500
T4
X46250Y-57500
X47250Y-57500
X48250Y-57500
X49250Y-57500
X50250Y-57500
X51250Y-57500
X52250Y-57500
X53250Y-57500
X54250Y-57500
X55250Y-57500
X56250Y-57500
X57250Y-57500
X57750Y-40500
X57750Y-41500
X58250Y-57500
X58750Y-40500
X58750Y-41500
X59250Y-57500
X59750Y-40500
X59750Y-41500
X60250Y-57500
X61250Y-57500
X62250Y-57500
X63250Y-57500
X64250Y-57500
X65250Y-57500
X66250Y-57500
X67250Y-57500
X68250Y-57500
X69250Y-57500
X70250Y-57500
X71250Y-57500
X72250Y-57500
X73250Y-57500
X74250Y-57500
X75250Y-57500
X76250Y-32500
X76250Y-57500
X77250Y-32500
X77250Y-57500
X78250Y-57500
X79250Y-32500
X79250Y-57500
X80250Y-32500
X80250Y-57500
X81250Y-32500
X81250Y-57500
X82250Y-32500
X82250Y-57500
X82750Y-50500
X83250Y-32500
X83250Y-57500
X83750Y-50500
X84250Y-32500
X84250Y-57500
T5
X47750Y-35000
X47750Y-36000
X47750Y-37000
X47750Y-38000
X47750Y-39000
X47750Y-40000
X47750Y-41000
X47750Y-42000
X47750Y-43000
X47750Y-44000
X47750Y-45000
X47750Y-46000
X47750Y-47000
X47750Y-48000
X47750Y-49000
X47750Y-50000
X47750Y-51000
X47750Y-52000
X47750Y-53000
X47750Y-54000
X48750Y-35000
X48750Y-36000
X48750Y-37000
X48750Y-38000
X48750Y-39000
X48750Y-40000
X48750Y-41000
X48750Y-42000
X48750Y-43000
X48750Y-44000
X48750Y-45000
X48750Y-46000
X48750Y-47000
X48750Y-48000
X48750Y-49000
X48750Y-50000
X48750Y-51000
X48750Y-52000
X48750Y-53000
X48750Y-54000
X52750Y-34250
X52750Y-35250
X53750Y-34250
X53750Y-35250
X54750Y-34250
X54750Y-35250
X55750Y-34250
X55750Y-35250
X56750Y-34250
X56750Y-35250
X57750Y-34250
X57750Y-35250
X58750Y-34250
X58750Y-35250
X59750Y-34250
X59750Y-35250
X60750Y-34250
X60750Y-35250
X61750Y-34250
X61750Y-35250
X62750Y-34250
X62750Y-35250
X63750Y-34250
X63750Y-35250
X64750Y-34250
X64750Y-35250
X65750Y-34250
X65750Y-35250
X66750Y-34250
X66750Y-35250
X67750Y-34250
X67750Y-35250
X68750Y-34250
X68750Y-35250
X69750Y-34250
X69750Y-35250
X70750Y-34250
X70750Y-35250
X71750Y-34250
X71750Y-35250
T3
X81014Y-52000G85X81487Y-52000
G05
X81014Y-55000G85X81487Y-55000
G05
X82250Y-53736G85X82250Y-53264
G05
T0
M30
