G04 #@! TF.FileFunction,Copper,L2,Bot,Signal*
%FSLAX46Y46*%
G04 Gerber Fmt 4.6, Leading zero omitted, Abs format (unit mm)*
G04 Created by KiCad (PCBNEW 4.0.6) date 06/14/17 01:09:41*
%MOMM*%
%LPD*%
G01*
G04 APERTURE LIST*
%ADD10C,0.100000*%
%ADD11R,1.600000X1.600000*%
%ADD12O,1.600000X1.600000*%
%ADD13C,1.600000*%
%ADD14R,1.700000X1.700000*%
%ADD15O,1.700000X1.700000*%
%ADD16R,1.727200X1.727200*%
%ADD17O,1.727200X1.727200*%
%ADD18C,1.500000*%
%ADD19O,3.197860X1.998980*%
%ADD20O,1.998980X3.197860*%
%ADD21C,0.600000*%
%ADD22C,0.250000*%
%ADD23C,0.254000*%
G04 APERTURE END LIST*
D10*
D11*
X160655000Y-102870000D03*
D12*
X168275000Y-135890000D03*
X160655000Y-105410000D03*
X168275000Y-133350000D03*
X160655000Y-107950000D03*
X168275000Y-130810000D03*
X160655000Y-110490000D03*
X168275000Y-128270000D03*
X160655000Y-113030000D03*
X168275000Y-125730000D03*
X160655000Y-115570000D03*
X168275000Y-123190000D03*
X160655000Y-118110000D03*
X168275000Y-120650000D03*
X160655000Y-120650000D03*
X168275000Y-118110000D03*
X160655000Y-123190000D03*
X168275000Y-115570000D03*
X160655000Y-125730000D03*
X168275000Y-113030000D03*
X160655000Y-128270000D03*
X168275000Y-110490000D03*
X160655000Y-130810000D03*
X168275000Y-107950000D03*
X160655000Y-133350000D03*
X168275000Y-105410000D03*
X160655000Y-135890000D03*
X168275000Y-102870000D03*
D13*
X153670000Y-132715000D03*
X153670000Y-127715000D03*
X213995000Y-87630000D03*
X208995000Y-87630000D03*
X151765000Y-109220000D03*
X151765000Y-114220000D03*
X146685000Y-109220000D03*
X146685000Y-114220000D03*
D11*
X181610000Y-133350000D03*
D12*
X173990000Y-133350000D03*
D11*
X181610000Y-138430000D03*
D12*
X173990000Y-138430000D03*
D14*
X213995000Y-146050000D03*
D15*
X211455000Y-146050000D03*
X208915000Y-146050000D03*
X206375000Y-146050000D03*
X203835000Y-146050000D03*
X201295000Y-146050000D03*
X198755000Y-146050000D03*
X196215000Y-146050000D03*
X193675000Y-146050000D03*
X191135000Y-146050000D03*
X188595000Y-146050000D03*
X186055000Y-146050000D03*
X183515000Y-146050000D03*
X180975000Y-146050000D03*
X178435000Y-146050000D03*
X175895000Y-146050000D03*
X173355000Y-146050000D03*
X170815000Y-146050000D03*
X168275000Y-146050000D03*
X165735000Y-146050000D03*
X163195000Y-146050000D03*
X160655000Y-146050000D03*
X158115000Y-146050000D03*
X155575000Y-146050000D03*
X153035000Y-146050000D03*
X150495000Y-146050000D03*
X147955000Y-146050000D03*
X145415000Y-146050000D03*
X142875000Y-146050000D03*
X140335000Y-146050000D03*
X137795000Y-146050000D03*
X135255000Y-146050000D03*
X132715000Y-146050000D03*
X130175000Y-146050000D03*
X127635000Y-146050000D03*
X125095000Y-146050000D03*
X122555000Y-146050000D03*
X120015000Y-146050000D03*
X117475000Y-146050000D03*
D16*
X123825000Y-137160000D03*
D17*
X121285000Y-137160000D03*
X123825000Y-134620000D03*
X121285000Y-134620000D03*
X123825000Y-132080000D03*
X121285000Y-132080000D03*
X123825000Y-129540000D03*
X121285000Y-129540000D03*
X123825000Y-127000000D03*
X121285000Y-127000000D03*
X123825000Y-124460000D03*
X121285000Y-124460000D03*
X123825000Y-121920000D03*
X121285000Y-121920000D03*
X123825000Y-119380000D03*
X121285000Y-119380000D03*
X123825000Y-116840000D03*
X121285000Y-116840000D03*
X123825000Y-114300000D03*
X121285000Y-114300000D03*
X123825000Y-111760000D03*
X121285000Y-111760000D03*
X123825000Y-109220000D03*
X121285000Y-109220000D03*
X123825000Y-106680000D03*
X121285000Y-106680000D03*
X123825000Y-104140000D03*
X121285000Y-104140000D03*
X123825000Y-101600000D03*
X121285000Y-101600000D03*
X123825000Y-99060000D03*
X121285000Y-99060000D03*
X123825000Y-96520000D03*
X121285000Y-96520000D03*
X123825000Y-93980000D03*
X121285000Y-93980000D03*
X123825000Y-91440000D03*
X121285000Y-91440000D03*
X123825000Y-88900000D03*
X121285000Y-88900000D03*
D14*
X201295000Y-82550000D03*
D15*
X203835000Y-82550000D03*
X206375000Y-82550000D03*
X208915000Y-82550000D03*
X211455000Y-82550000D03*
X213995000Y-82550000D03*
D14*
X146685000Y-105410000D03*
D15*
X146685000Y-102870000D03*
X149225000Y-105410000D03*
X149225000Y-102870000D03*
X151765000Y-105410000D03*
X151765000Y-102870000D03*
D14*
X193675000Y-82550000D03*
D15*
X196215000Y-82550000D03*
D13*
X195580000Y-133350000D03*
D12*
X185420000Y-133350000D03*
D13*
X195580000Y-138430000D03*
D12*
X185420000Y-138430000D03*
D13*
X185420000Y-128270000D03*
D12*
X195580000Y-128270000D03*
D13*
X195580000Y-123190000D03*
D12*
X185420000Y-123190000D03*
D18*
X151765000Y-119380000D03*
X146885000Y-119380000D03*
D14*
X210185000Y-128270000D03*
D15*
X212725000Y-128270000D03*
D16*
X133985000Y-89535000D03*
D17*
X133985000Y-86995000D03*
X136525000Y-89535000D03*
X136525000Y-86995000D03*
X139065000Y-89535000D03*
X139065000Y-86995000D03*
X141605000Y-89535000D03*
X141605000Y-86995000D03*
X144145000Y-89535000D03*
X144145000Y-86995000D03*
X146685000Y-89535000D03*
X146685000Y-86995000D03*
X149225000Y-89535000D03*
X149225000Y-86995000D03*
X151765000Y-89535000D03*
X151765000Y-86995000D03*
X154305000Y-89535000D03*
X154305000Y-86995000D03*
X156845000Y-89535000D03*
X156845000Y-86995000D03*
X159385000Y-89535000D03*
X159385000Y-86995000D03*
X161925000Y-89535000D03*
X161925000Y-86995000D03*
X164465000Y-89535000D03*
X164465000Y-86995000D03*
X167005000Y-89535000D03*
X167005000Y-86995000D03*
X169545000Y-89535000D03*
X169545000Y-86995000D03*
X172085000Y-89535000D03*
X172085000Y-86995000D03*
X174625000Y-89535000D03*
X174625000Y-86995000D03*
X177165000Y-89535000D03*
X177165000Y-86995000D03*
X179705000Y-89535000D03*
X179705000Y-86995000D03*
X182245000Y-89535000D03*
X182245000Y-86995000D03*
D13*
X185420000Y-118110000D03*
D12*
X195580000Y-118110000D03*
D11*
X177800000Y-110490000D03*
D12*
X210820000Y-102870000D03*
X180340000Y-110490000D03*
X208280000Y-102870000D03*
X182880000Y-110490000D03*
X205740000Y-102870000D03*
X185420000Y-110490000D03*
X203200000Y-102870000D03*
X187960000Y-110490000D03*
X200660000Y-102870000D03*
X190500000Y-110490000D03*
X198120000Y-102870000D03*
X193040000Y-110490000D03*
X195580000Y-102870000D03*
X195580000Y-110490000D03*
X193040000Y-102870000D03*
X198120000Y-110490000D03*
X190500000Y-102870000D03*
X200660000Y-110490000D03*
X187960000Y-102870000D03*
X203200000Y-110490000D03*
X185420000Y-102870000D03*
X205740000Y-110490000D03*
X182880000Y-102870000D03*
X208280000Y-110490000D03*
X180340000Y-102870000D03*
X210820000Y-110490000D03*
X177800000Y-102870000D03*
D11*
X131445000Y-102870000D03*
D12*
X139065000Y-135890000D03*
X131445000Y-105410000D03*
X139065000Y-133350000D03*
X131445000Y-107950000D03*
X139065000Y-130810000D03*
X131445000Y-110490000D03*
X139065000Y-128270000D03*
X131445000Y-113030000D03*
X139065000Y-125730000D03*
X131445000Y-115570000D03*
X139065000Y-123190000D03*
X131445000Y-118110000D03*
X139065000Y-120650000D03*
X131445000Y-120650000D03*
X139065000Y-118110000D03*
X131445000Y-123190000D03*
X139065000Y-115570000D03*
X131445000Y-125730000D03*
X139065000Y-113030000D03*
X131445000Y-128270000D03*
X139065000Y-110490000D03*
X131445000Y-130810000D03*
X139065000Y-107950000D03*
X131445000Y-133350000D03*
X139065000Y-105410000D03*
X131445000Y-135890000D03*
X139065000Y-102870000D03*
D13*
X145415000Y-132715000D03*
X145415000Y-127715000D03*
X208280000Y-118110000D03*
X203280000Y-118110000D03*
D19*
X206375000Y-132080000D03*
D20*
X208915000Y-135890000D03*
D19*
X206375000Y-139700000D03*
D21*
X143510000Y-109220000D03*
X164465000Y-120015000D03*
X203200000Y-125095000D03*
X196850000Y-107315000D03*
X156210000Y-121920000D03*
X171450000Y-118745000D03*
X167005000Y-142240000D03*
X181610000Y-119380000D03*
X164465000Y-113665000D03*
X132080000Y-138430000D03*
X136525000Y-138430000D03*
X155575000Y-136525000D03*
X158115000Y-133985000D03*
X140970000Y-121920000D03*
X142240000Y-121920000D03*
X156845000Y-112395000D03*
X140970000Y-100330000D03*
X133985000Y-95250000D03*
X141605000Y-125730000D03*
X141605000Y-123190000D03*
X183515000Y-108585000D03*
X166370000Y-141605000D03*
X170815000Y-123190000D03*
X182880000Y-122555000D03*
X179705000Y-119380000D03*
X164465000Y-114935000D03*
X164465000Y-139700000D03*
X134620000Y-137795000D03*
X163830000Y-139065000D03*
X133985000Y-132080000D03*
X165100000Y-140335000D03*
X133985000Y-134620000D03*
X156210000Y-91440000D03*
X186690000Y-95250000D03*
X171450000Y-107950000D03*
X172720000Y-106680000D03*
X181610000Y-95250000D03*
X184150000Y-95250000D03*
X172085000Y-107315000D03*
X173355000Y-105410000D03*
X173990000Y-104775000D03*
X174625000Y-104140000D03*
X175260000Y-103505000D03*
X175895000Y-102870000D03*
X179070000Y-104140000D03*
X165735000Y-140970000D03*
D22*
X146685000Y-102870000D02*
X144780000Y-102870000D01*
X143510000Y-104140000D02*
X143510000Y-109220000D01*
X144780000Y-102870000D02*
X143510000Y-104140000D01*
X162560000Y-118110000D02*
X160655000Y-118110000D01*
X164465000Y-120015000D02*
X162560000Y-118110000D01*
X203280000Y-125015000D02*
X203280000Y-118110000D01*
X203200000Y-125095000D02*
X203280000Y-125015000D01*
X198120000Y-108585000D02*
X198120000Y-110490000D01*
X196850000Y-107315000D02*
X198120000Y-108585000D01*
X153670000Y-127715000D02*
X153670000Y-124460000D01*
X153670000Y-124460000D02*
X156210000Y-121920000D01*
X167005000Y-142240000D02*
X171450000Y-137795000D01*
X171450000Y-120650000D02*
X171450000Y-137795000D01*
X171450000Y-120650000D02*
X171450000Y-118745000D01*
X160655000Y-105410000D02*
X163195000Y-107950000D01*
X181610000Y-119380000D02*
X185420000Y-123190000D01*
X163195000Y-112395000D02*
X164465000Y-113665000D01*
X163195000Y-107950000D02*
X163195000Y-112395000D01*
X136525000Y-138430000D02*
X132080000Y-138430000D01*
X158115000Y-133985000D02*
X155575000Y-136525000D01*
X160655000Y-110490000D02*
X159385000Y-110490000D01*
X140970000Y-121920000D02*
X142240000Y-121920000D01*
X157480000Y-112395000D02*
X156845000Y-112395000D01*
X159385000Y-110490000D02*
X157480000Y-112395000D01*
X135890000Y-95250000D02*
X140970000Y-100330000D01*
X133985000Y-95250000D02*
X135890000Y-95250000D01*
X141605000Y-123190000D02*
X141605000Y-125730000D01*
X164465000Y-102870000D02*
X160655000Y-102870000D01*
X165100000Y-103505000D02*
X164465000Y-102870000D01*
X165100000Y-107950000D02*
X165100000Y-103505000D01*
X166370000Y-109220000D02*
X165100000Y-107950000D01*
X169545000Y-109220000D02*
X166370000Y-109220000D01*
X170180000Y-108585000D02*
X169545000Y-109220000D01*
X183515000Y-108585000D02*
X170180000Y-108585000D01*
X166370000Y-141605000D02*
X170815000Y-137160000D01*
X170815000Y-123190000D02*
X170815000Y-137160000D01*
X160655000Y-107950000D02*
X162560000Y-109855000D01*
X179705000Y-119380000D02*
X182880000Y-122555000D01*
X162560000Y-113030000D02*
X164465000Y-114935000D01*
X162560000Y-109855000D02*
X162560000Y-113030000D01*
X165735000Y-138430000D02*
X164465000Y-139700000D01*
X168275000Y-128270000D02*
X167005000Y-128270000D01*
X165735000Y-129540000D02*
X165735000Y-137795000D01*
X167005000Y-128270000D02*
X165735000Y-129540000D01*
X165735000Y-137795000D02*
X165735000Y-138430000D01*
X132715000Y-135890000D02*
X131445000Y-135890000D01*
X134620000Y-137795000D02*
X132715000Y-135890000D01*
X167640000Y-125730000D02*
X165100000Y-128270000D01*
X165100000Y-128270000D02*
X165100000Y-137795000D01*
X163830000Y-139065000D02*
X165100000Y-137795000D01*
X132715000Y-130810000D02*
X131445000Y-130810000D01*
X133985000Y-132080000D02*
X132715000Y-130810000D01*
X168275000Y-125730000D02*
X167640000Y-125730000D01*
X166370000Y-139065000D02*
X165100000Y-140335000D01*
X167640000Y-130810000D02*
X166370000Y-132080000D01*
X166370000Y-132080000D02*
X166370000Y-137795000D01*
X166370000Y-137795000D02*
X166370000Y-139065000D01*
X132715000Y-133350000D02*
X131445000Y-133350000D01*
X133985000Y-134620000D02*
X132715000Y-133350000D01*
X168275000Y-130810000D02*
X167640000Y-130810000D01*
X147955000Y-90805000D02*
X148590000Y-91440000D01*
X148590000Y-91440000D02*
X156210000Y-91440000D01*
X147955000Y-90805000D02*
X146685000Y-89535000D01*
X172720000Y-107950000D02*
X171450000Y-107950000D01*
X186690000Y-95250000D02*
X186690000Y-104140000D01*
X186690000Y-104140000D02*
X182880000Y-107950000D01*
X182880000Y-107950000D02*
X172720000Y-107950000D01*
X179705000Y-106680000D02*
X181610000Y-104775000D01*
X172720000Y-106680000D02*
X179705000Y-106680000D01*
X181610000Y-95250000D02*
X181610000Y-104775000D01*
X180340000Y-89535000D02*
X179705000Y-89535000D01*
X173355000Y-107315000D02*
X172085000Y-107315000D01*
X184150000Y-95250000D02*
X184150000Y-104140000D01*
X184150000Y-104140000D02*
X180975000Y-107315000D01*
X180975000Y-107315000D02*
X173355000Y-107315000D01*
X157480000Y-89535000D02*
X173355000Y-105410000D01*
X156845000Y-89535000D02*
X157480000Y-89535000D01*
X159385000Y-90170000D02*
X173990000Y-104775000D01*
X159385000Y-89535000D02*
X159385000Y-90170000D01*
X161925000Y-91440000D02*
X174625000Y-104140000D01*
X161925000Y-89535000D02*
X161925000Y-91440000D01*
X164465000Y-92710000D02*
X175260000Y-103505000D01*
X164465000Y-89535000D02*
X164465000Y-92710000D01*
X164465000Y-89535000D02*
X164465000Y-90170000D01*
X167640000Y-94615000D02*
X175895000Y-102870000D01*
X167005000Y-89535000D02*
X167005000Y-93980000D01*
X167640000Y-94615000D02*
X167005000Y-93980000D01*
X169545000Y-89535000D02*
X169545000Y-92075000D01*
X179070000Y-101600000D02*
X179070000Y-104140000D01*
X169545000Y-92075000D02*
X179070000Y-101600000D01*
X167005000Y-139700000D02*
X165735000Y-140970000D01*
X167640000Y-133350000D02*
X167005000Y-133985000D01*
X167005000Y-133985000D02*
X167005000Y-137795000D01*
X167005000Y-137795000D02*
X167005000Y-139700000D01*
X168275000Y-133350000D02*
X167640000Y-133350000D01*
D23*
G36*
X192177560Y-83400000D02*
X192221838Y-83635317D01*
X192360910Y-83851441D01*
X192573110Y-83996431D01*
X192825000Y-84047440D01*
X194525000Y-84047440D01*
X194760317Y-84003162D01*
X194976441Y-83864090D01*
X195121431Y-83651890D01*
X195135086Y-83584459D01*
X195164946Y-83629147D01*
X195646715Y-83951054D01*
X196215000Y-84064093D01*
X196783285Y-83951054D01*
X197265054Y-83629147D01*
X197586961Y-83147378D01*
X197648947Y-82835750D01*
X199810000Y-82835750D01*
X199810000Y-83526309D01*
X199906673Y-83759698D01*
X200085301Y-83938327D01*
X200318690Y-84035000D01*
X201009250Y-84035000D01*
X201168000Y-83876250D01*
X201168000Y-82677000D01*
X201422000Y-82677000D01*
X201422000Y-83876250D01*
X201580750Y-84035000D01*
X202271310Y-84035000D01*
X202504699Y-83938327D01*
X202683327Y-83759698D01*
X202770136Y-83550122D01*
X203068076Y-83821645D01*
X203478110Y-83991476D01*
X203708000Y-83870155D01*
X203708000Y-82677000D01*
X201422000Y-82677000D01*
X201168000Y-82677000D01*
X199968750Y-82677000D01*
X199810000Y-82835750D01*
X197648947Y-82835750D01*
X197700000Y-82579093D01*
X197700000Y-82520907D01*
X197594396Y-81990000D01*
X199810000Y-81990000D01*
X199810000Y-82264250D01*
X199968750Y-82423000D01*
X201168000Y-82423000D01*
X201168000Y-82403000D01*
X201422000Y-82403000D01*
X201422000Y-82423000D01*
X203708000Y-82423000D01*
X203708000Y-82403000D01*
X203962000Y-82403000D01*
X203962000Y-82423000D01*
X203982000Y-82423000D01*
X203982000Y-82677000D01*
X203962000Y-82677000D01*
X203962000Y-83870155D01*
X204191890Y-83991476D01*
X204601924Y-83821645D01*
X205030183Y-83431358D01*
X205097298Y-83288447D01*
X205324946Y-83629147D01*
X205806715Y-83951054D01*
X206375000Y-84064093D01*
X206943285Y-83951054D01*
X207425054Y-83629147D01*
X207645000Y-83299974D01*
X207864946Y-83629147D01*
X208346715Y-83951054D01*
X208915000Y-84064093D01*
X209483285Y-83951054D01*
X209965054Y-83629147D01*
X210185000Y-83299974D01*
X210404946Y-83629147D01*
X210886715Y-83951054D01*
X211455000Y-84064093D01*
X212023285Y-83951054D01*
X212505054Y-83629147D01*
X212725000Y-83299974D01*
X212944946Y-83629147D01*
X213426715Y-83951054D01*
X213995000Y-84064093D01*
X214555000Y-83952702D01*
X214555000Y-86308738D01*
X214281691Y-86195250D01*
X213710813Y-86194752D01*
X213183200Y-86412757D01*
X212779176Y-86816077D01*
X212560250Y-87343309D01*
X212559752Y-87914187D01*
X212777757Y-88441800D01*
X213181077Y-88845824D01*
X213708309Y-89064750D01*
X214279187Y-89065248D01*
X214555000Y-88951285D01*
X214555000Y-144552560D01*
X213145000Y-144552560D01*
X212909683Y-144596838D01*
X212693559Y-144735910D01*
X212548569Y-144948110D01*
X212534914Y-145015541D01*
X212505054Y-144970853D01*
X212023285Y-144648946D01*
X211455000Y-144535907D01*
X210886715Y-144648946D01*
X210404946Y-144970853D01*
X210185000Y-145300026D01*
X209965054Y-144970853D01*
X209483285Y-144648946D01*
X208915000Y-144535907D01*
X208346715Y-144648946D01*
X207864946Y-144970853D01*
X207645000Y-145300026D01*
X207425054Y-144970853D01*
X206943285Y-144648946D01*
X206375000Y-144535907D01*
X205806715Y-144648946D01*
X205324946Y-144970853D01*
X205105000Y-145300026D01*
X204885054Y-144970853D01*
X204403285Y-144648946D01*
X203835000Y-144535907D01*
X203266715Y-144648946D01*
X202784946Y-144970853D01*
X202565000Y-145300026D01*
X202345054Y-144970853D01*
X201863285Y-144648946D01*
X201295000Y-144535907D01*
X200726715Y-144648946D01*
X200244946Y-144970853D01*
X200025000Y-145300026D01*
X199805054Y-144970853D01*
X199323285Y-144648946D01*
X198755000Y-144535907D01*
X198186715Y-144648946D01*
X197704946Y-144970853D01*
X197485000Y-145300026D01*
X197265054Y-144970853D01*
X196783285Y-144648946D01*
X196215000Y-144535907D01*
X195646715Y-144648946D01*
X195164946Y-144970853D01*
X194945000Y-145300026D01*
X194725054Y-144970853D01*
X194243285Y-144648946D01*
X193675000Y-144535907D01*
X193106715Y-144648946D01*
X192624946Y-144970853D01*
X192405000Y-145300026D01*
X192185054Y-144970853D01*
X191703285Y-144648946D01*
X191135000Y-144535907D01*
X190566715Y-144648946D01*
X190084946Y-144970853D01*
X189865000Y-145300026D01*
X189645054Y-144970853D01*
X189163285Y-144648946D01*
X188595000Y-144535907D01*
X188026715Y-144648946D01*
X187544946Y-144970853D01*
X187325000Y-145300026D01*
X187105054Y-144970853D01*
X186623285Y-144648946D01*
X186055000Y-144535907D01*
X185486715Y-144648946D01*
X185004946Y-144970853D01*
X184785000Y-145300026D01*
X184565054Y-144970853D01*
X184083285Y-144648946D01*
X183515000Y-144535907D01*
X182946715Y-144648946D01*
X182464946Y-144970853D01*
X182245000Y-145300026D01*
X182025054Y-144970853D01*
X181543285Y-144648946D01*
X180975000Y-144535907D01*
X180406715Y-144648946D01*
X179924946Y-144970853D01*
X179705000Y-145300026D01*
X179485054Y-144970853D01*
X179003285Y-144648946D01*
X178435000Y-144535907D01*
X177866715Y-144648946D01*
X177384946Y-144970853D01*
X177165000Y-145300026D01*
X176945054Y-144970853D01*
X176463285Y-144648946D01*
X175895000Y-144535907D01*
X175326715Y-144648946D01*
X174844946Y-144970853D01*
X174617298Y-145311553D01*
X174550183Y-145168642D01*
X174121924Y-144778355D01*
X173711890Y-144608524D01*
X173482000Y-144729845D01*
X173482000Y-145923000D01*
X173502000Y-145923000D01*
X173502000Y-146177000D01*
X173482000Y-146177000D01*
X173482000Y-146197000D01*
X173228000Y-146197000D01*
X173228000Y-146177000D01*
X173208000Y-146177000D01*
X173208000Y-145923000D01*
X173228000Y-145923000D01*
X173228000Y-144729845D01*
X172998110Y-144608524D01*
X172588076Y-144778355D01*
X172159817Y-145168642D01*
X172092702Y-145311553D01*
X171865054Y-144970853D01*
X171383285Y-144648946D01*
X170815000Y-144535907D01*
X170246715Y-144648946D01*
X169764946Y-144970853D01*
X169545000Y-145300026D01*
X169325054Y-144970853D01*
X168843285Y-144648946D01*
X168275000Y-144535907D01*
X167706715Y-144648946D01*
X167224946Y-144970853D01*
X167005000Y-145300026D01*
X166785054Y-144970853D01*
X166303285Y-144648946D01*
X165735000Y-144535907D01*
X165166715Y-144648946D01*
X164684946Y-144970853D01*
X164465000Y-145300026D01*
X164245054Y-144970853D01*
X163763285Y-144648946D01*
X163195000Y-144535907D01*
X162626715Y-144648946D01*
X162144946Y-144970853D01*
X161925000Y-145300026D01*
X161705054Y-144970853D01*
X161223285Y-144648946D01*
X160655000Y-144535907D01*
X160086715Y-144648946D01*
X159604946Y-144970853D01*
X159385000Y-145300026D01*
X159165054Y-144970853D01*
X158683285Y-144648946D01*
X158115000Y-144535907D01*
X157546715Y-144648946D01*
X157064946Y-144970853D01*
X156845000Y-145300026D01*
X156625054Y-144970853D01*
X156143285Y-144648946D01*
X155575000Y-144535907D01*
X155006715Y-144648946D01*
X154524946Y-144970853D01*
X154305000Y-145300026D01*
X154085054Y-144970853D01*
X153603285Y-144648946D01*
X153035000Y-144535907D01*
X152466715Y-144648946D01*
X151984946Y-144970853D01*
X151765000Y-145300026D01*
X151545054Y-144970853D01*
X151063285Y-144648946D01*
X150495000Y-144535907D01*
X149926715Y-144648946D01*
X149444946Y-144970853D01*
X149225000Y-145300026D01*
X149005054Y-144970853D01*
X148523285Y-144648946D01*
X147955000Y-144535907D01*
X147386715Y-144648946D01*
X146904946Y-144970853D01*
X146685000Y-145300026D01*
X146465054Y-144970853D01*
X145983285Y-144648946D01*
X145415000Y-144535907D01*
X144846715Y-144648946D01*
X144364946Y-144970853D01*
X144145000Y-145300026D01*
X143925054Y-144970853D01*
X143443285Y-144648946D01*
X142875000Y-144535907D01*
X142306715Y-144648946D01*
X141824946Y-144970853D01*
X141605000Y-145300026D01*
X141385054Y-144970853D01*
X140903285Y-144648946D01*
X140335000Y-144535907D01*
X139766715Y-144648946D01*
X139284946Y-144970853D01*
X139065000Y-145300026D01*
X138845054Y-144970853D01*
X138363285Y-144648946D01*
X137795000Y-144535907D01*
X137226715Y-144648946D01*
X136744946Y-144970853D01*
X136525000Y-145300026D01*
X136305054Y-144970853D01*
X135823285Y-144648946D01*
X135255000Y-144535907D01*
X134686715Y-144648946D01*
X134204946Y-144970853D01*
X133985000Y-145300026D01*
X133765054Y-144970853D01*
X133283285Y-144648946D01*
X132715000Y-144535907D01*
X132146715Y-144648946D01*
X131664946Y-144970853D01*
X131445000Y-145300026D01*
X131225054Y-144970853D01*
X130743285Y-144648946D01*
X130175000Y-144535907D01*
X129606715Y-144648946D01*
X129124946Y-144970853D01*
X128905000Y-145300026D01*
X128685054Y-144970853D01*
X128203285Y-144648946D01*
X127635000Y-144535907D01*
X127066715Y-144648946D01*
X126584946Y-144970853D01*
X126365000Y-145300026D01*
X126145054Y-144970853D01*
X125663285Y-144648946D01*
X125095000Y-144535907D01*
X124526715Y-144648946D01*
X124044946Y-144970853D01*
X123825000Y-145300026D01*
X123605054Y-144970853D01*
X123123285Y-144648946D01*
X122555000Y-144535907D01*
X121986715Y-144648946D01*
X121504946Y-144970853D01*
X121285000Y-145300026D01*
X121065054Y-144970853D01*
X120583285Y-144648946D01*
X120015000Y-144535907D01*
X119446715Y-144648946D01*
X118964946Y-144970853D01*
X118745000Y-145300026D01*
X118525054Y-144970853D01*
X118043285Y-144648946D01*
X117475000Y-144535907D01*
X116915000Y-144647298D01*
X116915000Y-137519027D01*
X119830032Y-137519027D01*
X120078179Y-138048490D01*
X120510053Y-138442688D01*
X120925974Y-138614958D01*
X121158000Y-138493817D01*
X121158000Y-137287000D01*
X119950531Y-137287000D01*
X119830032Y-137519027D01*
X116915000Y-137519027D01*
X116915000Y-99419027D01*
X119830032Y-99419027D01*
X120078179Y-99948490D01*
X120496152Y-100330000D01*
X120078179Y-100711510D01*
X119830032Y-101240973D01*
X119950531Y-101473000D01*
X121158000Y-101473000D01*
X121158000Y-99187000D01*
X119950531Y-99187000D01*
X119830032Y-99419027D01*
X116915000Y-99419027D01*
X116915000Y-91410641D01*
X119786400Y-91410641D01*
X119786400Y-91469359D01*
X119900474Y-92042848D01*
X120225330Y-92529029D01*
X120496172Y-92710000D01*
X120225330Y-92890971D01*
X119900474Y-93377152D01*
X119786400Y-93950641D01*
X119786400Y-94009359D01*
X119900474Y-94582848D01*
X120225330Y-95069029D01*
X120496172Y-95250000D01*
X120225330Y-95430971D01*
X119900474Y-95917152D01*
X119786400Y-96490641D01*
X119786400Y-96549359D01*
X119900474Y-97122848D01*
X120225330Y-97609029D01*
X120496161Y-97789992D01*
X120078179Y-98171510D01*
X119830032Y-98700973D01*
X119950531Y-98933000D01*
X121158000Y-98933000D01*
X121158000Y-98913000D01*
X121412000Y-98913000D01*
X121412000Y-98933000D01*
X121432000Y-98933000D01*
X121432000Y-99187000D01*
X121412000Y-99187000D01*
X121412000Y-101473000D01*
X121432000Y-101473000D01*
X121432000Y-101727000D01*
X121412000Y-101727000D01*
X121412000Y-101747000D01*
X121158000Y-101747000D01*
X121158000Y-101727000D01*
X119950531Y-101727000D01*
X119830032Y-101959027D01*
X120078179Y-102488490D01*
X120496161Y-102870008D01*
X120225330Y-103050971D01*
X119900474Y-103537152D01*
X119786400Y-104110641D01*
X119786400Y-104169359D01*
X119900474Y-104742848D01*
X120225330Y-105229029D01*
X120496161Y-105409992D01*
X120078179Y-105791510D01*
X119830032Y-106320973D01*
X119950531Y-106553000D01*
X121158000Y-106553000D01*
X121158000Y-106533000D01*
X121412000Y-106533000D01*
X121412000Y-106553000D01*
X121432000Y-106553000D01*
X121432000Y-106807000D01*
X121412000Y-106807000D01*
X121412000Y-106827000D01*
X121158000Y-106827000D01*
X121158000Y-106807000D01*
X119950531Y-106807000D01*
X119830032Y-107039027D01*
X120078179Y-107568490D01*
X120496161Y-107950008D01*
X120225330Y-108130971D01*
X119900474Y-108617152D01*
X119786400Y-109190641D01*
X119786400Y-109249359D01*
X119900474Y-109822848D01*
X120225330Y-110309029D01*
X120496161Y-110489992D01*
X120078179Y-110871510D01*
X119830032Y-111400973D01*
X119950531Y-111633000D01*
X121158000Y-111633000D01*
X121158000Y-111613000D01*
X121412000Y-111613000D01*
X121412000Y-111633000D01*
X121432000Y-111633000D01*
X121432000Y-111887000D01*
X121412000Y-111887000D01*
X121412000Y-111907000D01*
X121158000Y-111907000D01*
X121158000Y-111887000D01*
X119950531Y-111887000D01*
X119830032Y-112119027D01*
X120078179Y-112648490D01*
X120496161Y-113030008D01*
X120225330Y-113210971D01*
X119900474Y-113697152D01*
X119786400Y-114270641D01*
X119786400Y-114329359D01*
X119900474Y-114902848D01*
X120225330Y-115389029D01*
X120496172Y-115570000D01*
X120225330Y-115750971D01*
X119900474Y-116237152D01*
X119786400Y-116810641D01*
X119786400Y-116869359D01*
X119900474Y-117442848D01*
X120225330Y-117929029D01*
X120496172Y-118110000D01*
X120225330Y-118290971D01*
X119900474Y-118777152D01*
X119786400Y-119350641D01*
X119786400Y-119409359D01*
X119900474Y-119982848D01*
X120225330Y-120469029D01*
X120496172Y-120650000D01*
X120225330Y-120830971D01*
X119900474Y-121317152D01*
X119786400Y-121890641D01*
X119786400Y-121949359D01*
X119900474Y-122522848D01*
X120225330Y-123009029D01*
X120496172Y-123190000D01*
X120225330Y-123370971D01*
X119900474Y-123857152D01*
X119786400Y-124430641D01*
X119786400Y-124489359D01*
X119900474Y-125062848D01*
X120225330Y-125549029D01*
X120496172Y-125730000D01*
X120225330Y-125910971D01*
X119900474Y-126397152D01*
X119786400Y-126970641D01*
X119786400Y-127029359D01*
X119900474Y-127602848D01*
X120225330Y-128089029D01*
X120496172Y-128270000D01*
X120225330Y-128450971D01*
X119900474Y-128937152D01*
X119786400Y-129510641D01*
X119786400Y-129569359D01*
X119900474Y-130142848D01*
X120225330Y-130629029D01*
X120496172Y-130810000D01*
X120225330Y-130990971D01*
X119900474Y-131477152D01*
X119786400Y-132050641D01*
X119786400Y-132109359D01*
X119900474Y-132682848D01*
X120225330Y-133169029D01*
X120496172Y-133350000D01*
X120225330Y-133530971D01*
X119900474Y-134017152D01*
X119786400Y-134590641D01*
X119786400Y-134649359D01*
X119900474Y-135222848D01*
X120225330Y-135709029D01*
X120496161Y-135889992D01*
X120078179Y-136271510D01*
X119830032Y-136800973D01*
X119950531Y-137033000D01*
X121158000Y-137033000D01*
X121158000Y-137013000D01*
X121412000Y-137013000D01*
X121412000Y-137033000D01*
X121432000Y-137033000D01*
X121432000Y-137287000D01*
X121412000Y-137287000D01*
X121412000Y-138493817D01*
X121644026Y-138614958D01*
X122059947Y-138442688D01*
X122344027Y-138183391D01*
X122358238Y-138258917D01*
X122497310Y-138475041D01*
X122709510Y-138620031D01*
X122961400Y-138671040D01*
X124688600Y-138671040D01*
X124923917Y-138626762D01*
X125140041Y-138487690D01*
X125285031Y-138275490D01*
X125336040Y-138023600D01*
X125336040Y-136296400D01*
X125291762Y-136061083D01*
X125152690Y-135844959D01*
X124940490Y-135699969D01*
X124896655Y-135691092D01*
X125209526Y-135222848D01*
X125323600Y-134649359D01*
X125323600Y-134590641D01*
X125209526Y-134017152D01*
X124884670Y-133530971D01*
X124613828Y-133350000D01*
X124884670Y-133169029D01*
X125209526Y-132682848D01*
X125323600Y-132109359D01*
X125323600Y-132050641D01*
X125209526Y-131477152D01*
X124884670Y-130990971D01*
X124613828Y-130810000D01*
X124884670Y-130629029D01*
X125209526Y-130142848D01*
X125323600Y-129569359D01*
X125323600Y-129510641D01*
X125209526Y-128937152D01*
X124884670Y-128450971D01*
X124613828Y-128270000D01*
X129981887Y-128270000D01*
X130091120Y-128819151D01*
X130402189Y-129284698D01*
X130784275Y-129540000D01*
X130402189Y-129795302D01*
X130091120Y-130260849D01*
X129981887Y-130810000D01*
X130091120Y-131359151D01*
X130402189Y-131824698D01*
X130784275Y-132080000D01*
X130402189Y-132335302D01*
X130091120Y-132800849D01*
X129981887Y-133350000D01*
X130091120Y-133899151D01*
X130402189Y-134364698D01*
X130784275Y-134620000D01*
X130402189Y-134875302D01*
X130091120Y-135340849D01*
X129981887Y-135890000D01*
X130091120Y-136439151D01*
X130402189Y-136904698D01*
X130867736Y-137215767D01*
X131416887Y-137325000D01*
X131473113Y-137325000D01*
X132022264Y-137215767D01*
X132487811Y-136904698D01*
X132554736Y-136804538D01*
X133420198Y-137670000D01*
X132642463Y-137670000D01*
X132610327Y-137637808D01*
X132266799Y-137495162D01*
X131894833Y-137494838D01*
X131551057Y-137636883D01*
X131287808Y-137899673D01*
X131145162Y-138243201D01*
X131144838Y-138615167D01*
X131286883Y-138958943D01*
X131549673Y-139222192D01*
X131893201Y-139364838D01*
X132265167Y-139365162D01*
X132608943Y-139223117D01*
X132642118Y-139190000D01*
X135962537Y-139190000D01*
X135994673Y-139222192D01*
X136338201Y-139364838D01*
X136710167Y-139365162D01*
X136988476Y-139250167D01*
X162894838Y-139250167D01*
X163036883Y-139593943D01*
X163299673Y-139857192D01*
X163563554Y-139966765D01*
X163671883Y-140228943D01*
X163934673Y-140492192D01*
X164198554Y-140601765D01*
X164306883Y-140863943D01*
X164569673Y-141127192D01*
X164833554Y-141236765D01*
X164941883Y-141498943D01*
X165204673Y-141762192D01*
X165468554Y-141871765D01*
X165576883Y-142133943D01*
X165839673Y-142397192D01*
X166103554Y-142506765D01*
X166211883Y-142768943D01*
X166474673Y-143032192D01*
X166818201Y-143174838D01*
X167190167Y-143175162D01*
X167533943Y-143033117D01*
X167797192Y-142770327D01*
X167939838Y-142426799D01*
X167939879Y-142379923D01*
X171889802Y-138430000D01*
X172526887Y-138430000D01*
X172636120Y-138979151D01*
X172947189Y-139444698D01*
X173412736Y-139755767D01*
X173961887Y-139865000D01*
X174018113Y-139865000D01*
X174567264Y-139755767D01*
X175032811Y-139444698D01*
X175343880Y-138979151D01*
X175453113Y-138430000D01*
X175343880Y-137880849D01*
X175176268Y-137630000D01*
X180162560Y-137630000D01*
X180162560Y-139230000D01*
X180206838Y-139465317D01*
X180345910Y-139681441D01*
X180558110Y-139826431D01*
X180810000Y-139877440D01*
X182410000Y-139877440D01*
X182645317Y-139833162D01*
X182861441Y-139694090D01*
X183006431Y-139481890D01*
X183057440Y-139230000D01*
X183057440Y-138430000D01*
X183956887Y-138430000D01*
X184066120Y-138979151D01*
X184377189Y-139444698D01*
X184842736Y-139755767D01*
X185391887Y-139865000D01*
X185448113Y-139865000D01*
X185997264Y-139755767D01*
X186462811Y-139444698D01*
X186773880Y-138979151D01*
X186826584Y-138714187D01*
X194144752Y-138714187D01*
X194362757Y-139241800D01*
X194766077Y-139645824D01*
X195293309Y-139864750D01*
X195864187Y-139865248D01*
X196264118Y-139700000D01*
X204097305Y-139700000D01*
X204221723Y-140325492D01*
X204576036Y-140855759D01*
X205106303Y-141210072D01*
X205731795Y-141334490D01*
X207018205Y-141334490D01*
X207643697Y-141210072D01*
X208173964Y-140855759D01*
X208528277Y-140325492D01*
X208652695Y-139700000D01*
X208528277Y-139074508D01*
X208173964Y-138544241D01*
X207643697Y-138189928D01*
X207018205Y-138065510D01*
X205731795Y-138065510D01*
X205106303Y-138189928D01*
X204576036Y-138544241D01*
X204221723Y-139074508D01*
X204097305Y-139700000D01*
X196264118Y-139700000D01*
X196391800Y-139647243D01*
X196795824Y-139243923D01*
X197014750Y-138716691D01*
X197015248Y-138145813D01*
X196797243Y-137618200D01*
X196393923Y-137214176D01*
X195866691Y-136995250D01*
X195295813Y-136994752D01*
X194768200Y-137212757D01*
X194364176Y-137616077D01*
X194145250Y-138143309D01*
X194144752Y-138714187D01*
X186826584Y-138714187D01*
X186883113Y-138430000D01*
X186773880Y-137880849D01*
X186462811Y-137415302D01*
X185997264Y-137104233D01*
X185448113Y-136995000D01*
X185391887Y-136995000D01*
X184842736Y-137104233D01*
X184377189Y-137415302D01*
X184066120Y-137880849D01*
X183956887Y-138430000D01*
X183057440Y-138430000D01*
X183057440Y-137630000D01*
X183013162Y-137394683D01*
X182874090Y-137178559D01*
X182661890Y-137033569D01*
X182410000Y-136982560D01*
X180810000Y-136982560D01*
X180574683Y-137026838D01*
X180358559Y-137165910D01*
X180213569Y-137378110D01*
X180162560Y-137630000D01*
X175176268Y-137630000D01*
X175032811Y-137415302D01*
X174567264Y-137104233D01*
X174018113Y-136995000D01*
X173961887Y-136995000D01*
X173412736Y-137104233D01*
X172947189Y-137415302D01*
X172636120Y-137880849D01*
X172526887Y-138430000D01*
X171889802Y-138430000D01*
X171987401Y-138332401D01*
X172152148Y-138085840D01*
X172210000Y-137795000D01*
X172210000Y-136017000D01*
X207280510Y-136017000D01*
X207280510Y-136616440D01*
X207453529Y-137232265D01*
X207849044Y-137735002D01*
X208406841Y-138048113D01*
X208534646Y-138079059D01*
X208788000Y-137959705D01*
X208788000Y-136017000D01*
X209042000Y-136017000D01*
X209042000Y-137959705D01*
X209295354Y-138079059D01*
X209423159Y-138048113D01*
X209980956Y-137735002D01*
X210376471Y-137232265D01*
X210549490Y-136616440D01*
X210549490Y-136017000D01*
X209042000Y-136017000D01*
X208788000Y-136017000D01*
X207280510Y-136017000D01*
X172210000Y-136017000D01*
X172210000Y-135163560D01*
X207280510Y-135163560D01*
X207280510Y-135763000D01*
X208788000Y-135763000D01*
X208788000Y-133820295D01*
X209042000Y-133820295D01*
X209042000Y-135763000D01*
X210549490Y-135763000D01*
X210549490Y-135163560D01*
X210376471Y-134547735D01*
X209980956Y-134044998D01*
X209423159Y-133731887D01*
X209295354Y-133700941D01*
X209042000Y-133820295D01*
X208788000Y-133820295D01*
X208534646Y-133700941D01*
X208406841Y-133731887D01*
X207849044Y-134044998D01*
X207453529Y-134547735D01*
X207280510Y-135163560D01*
X172210000Y-135163560D01*
X172210000Y-133350000D01*
X172526887Y-133350000D01*
X172636120Y-133899151D01*
X172947189Y-134364698D01*
X173412736Y-134675767D01*
X173961887Y-134785000D01*
X174018113Y-134785000D01*
X174567264Y-134675767D01*
X175032811Y-134364698D01*
X175343880Y-133899151D01*
X175453113Y-133350000D01*
X175343880Y-132800849D01*
X175176268Y-132550000D01*
X180162560Y-132550000D01*
X180162560Y-134150000D01*
X180206838Y-134385317D01*
X180345910Y-134601441D01*
X180558110Y-134746431D01*
X180810000Y-134797440D01*
X182410000Y-134797440D01*
X182645317Y-134753162D01*
X182861441Y-134614090D01*
X183006431Y-134401890D01*
X183057440Y-134150000D01*
X183057440Y-133350000D01*
X183956887Y-133350000D01*
X184066120Y-133899151D01*
X184377189Y-134364698D01*
X184842736Y-134675767D01*
X185391887Y-134785000D01*
X185448113Y-134785000D01*
X185997264Y-134675767D01*
X186462811Y-134364698D01*
X186773880Y-133899151D01*
X186826584Y-133634187D01*
X194144752Y-133634187D01*
X194362757Y-134161800D01*
X194766077Y-134565824D01*
X195293309Y-134784750D01*
X195864187Y-134785248D01*
X196391800Y-134567243D01*
X196795824Y-134163923D01*
X197014750Y-133636691D01*
X197015248Y-133065813D01*
X196797243Y-132538200D01*
X196393923Y-132134176D01*
X196263453Y-132080000D01*
X204097305Y-132080000D01*
X204221723Y-132705492D01*
X204576036Y-133235759D01*
X205106303Y-133590072D01*
X205731795Y-133714490D01*
X207018205Y-133714490D01*
X207643697Y-133590072D01*
X208173964Y-133235759D01*
X208528277Y-132705492D01*
X208652695Y-132080000D01*
X208528277Y-131454508D01*
X208173964Y-130924241D01*
X207643697Y-130569928D01*
X207018205Y-130445510D01*
X205731795Y-130445510D01*
X205106303Y-130569928D01*
X204576036Y-130924241D01*
X204221723Y-131454508D01*
X204097305Y-132080000D01*
X196263453Y-132080000D01*
X195866691Y-131915250D01*
X195295813Y-131914752D01*
X194768200Y-132132757D01*
X194364176Y-132536077D01*
X194145250Y-133063309D01*
X194144752Y-133634187D01*
X186826584Y-133634187D01*
X186883113Y-133350000D01*
X186773880Y-132800849D01*
X186462811Y-132335302D01*
X185997264Y-132024233D01*
X185448113Y-131915000D01*
X185391887Y-131915000D01*
X184842736Y-132024233D01*
X184377189Y-132335302D01*
X184066120Y-132800849D01*
X183956887Y-133350000D01*
X183057440Y-133350000D01*
X183057440Y-132550000D01*
X183013162Y-132314683D01*
X182874090Y-132098559D01*
X182661890Y-131953569D01*
X182410000Y-131902560D01*
X180810000Y-131902560D01*
X180574683Y-131946838D01*
X180358559Y-132085910D01*
X180213569Y-132298110D01*
X180162560Y-132550000D01*
X175176268Y-132550000D01*
X175032811Y-132335302D01*
X174567264Y-132024233D01*
X174018113Y-131915000D01*
X173961887Y-131915000D01*
X173412736Y-132024233D01*
X172947189Y-132335302D01*
X172636120Y-132800849D01*
X172526887Y-133350000D01*
X172210000Y-133350000D01*
X172210000Y-129277745D01*
X184591861Y-129277745D01*
X184665995Y-129523864D01*
X185203223Y-129716965D01*
X185773454Y-129689778D01*
X186174005Y-129523864D01*
X186248139Y-129277745D01*
X185420000Y-128449605D01*
X184591861Y-129277745D01*
X172210000Y-129277745D01*
X172210000Y-128053223D01*
X183973035Y-128053223D01*
X184000222Y-128623454D01*
X184166136Y-129024005D01*
X184412255Y-129098139D01*
X185240395Y-128270000D01*
X185599605Y-128270000D01*
X186427745Y-129098139D01*
X186673864Y-129024005D01*
X186866965Y-128486777D01*
X186856630Y-128270000D01*
X194116887Y-128270000D01*
X194226120Y-128819151D01*
X194537189Y-129284698D01*
X195002736Y-129595767D01*
X195551887Y-129705000D01*
X195608113Y-129705000D01*
X196157264Y-129595767D01*
X196622811Y-129284698D01*
X196933880Y-128819151D01*
X197043113Y-128270000D01*
X196933880Y-127720849D01*
X196732859Y-127420000D01*
X208687560Y-127420000D01*
X208687560Y-129120000D01*
X208731838Y-129355317D01*
X208870910Y-129571441D01*
X209083110Y-129716431D01*
X209335000Y-129767440D01*
X211035000Y-129767440D01*
X211270317Y-129723162D01*
X211486441Y-129584090D01*
X211631431Y-129371890D01*
X211645086Y-129304459D01*
X211674946Y-129349147D01*
X212156715Y-129671054D01*
X212725000Y-129784093D01*
X213293285Y-129671054D01*
X213775054Y-129349147D01*
X214096961Y-128867378D01*
X214210000Y-128299093D01*
X214210000Y-128240907D01*
X214096961Y-127672622D01*
X213775054Y-127190853D01*
X213293285Y-126868946D01*
X212725000Y-126755907D01*
X212156715Y-126868946D01*
X211674946Y-127190853D01*
X211647150Y-127232452D01*
X211638162Y-127184683D01*
X211499090Y-126968559D01*
X211286890Y-126823569D01*
X211035000Y-126772560D01*
X209335000Y-126772560D01*
X209099683Y-126816838D01*
X208883559Y-126955910D01*
X208738569Y-127168110D01*
X208687560Y-127420000D01*
X196732859Y-127420000D01*
X196622811Y-127255302D01*
X196157264Y-126944233D01*
X195608113Y-126835000D01*
X195551887Y-126835000D01*
X195002736Y-126944233D01*
X194537189Y-127255302D01*
X194226120Y-127720849D01*
X194116887Y-128270000D01*
X186856630Y-128270000D01*
X186839778Y-127916546D01*
X186673864Y-127515995D01*
X186427745Y-127441861D01*
X185599605Y-128270000D01*
X185240395Y-128270000D01*
X184412255Y-127441861D01*
X184166136Y-127515995D01*
X183973035Y-128053223D01*
X172210000Y-128053223D01*
X172210000Y-127262255D01*
X184591861Y-127262255D01*
X185420000Y-128090395D01*
X186248139Y-127262255D01*
X186174005Y-127016136D01*
X185636777Y-126823035D01*
X185066546Y-126850222D01*
X184665995Y-127016136D01*
X184591861Y-127262255D01*
X172210000Y-127262255D01*
X172210000Y-119565167D01*
X178769838Y-119565167D01*
X178911883Y-119908943D01*
X179174673Y-120172192D01*
X179518201Y-120314838D01*
X179565077Y-120314879D01*
X181944878Y-122694680D01*
X181944838Y-122740167D01*
X182086883Y-123083943D01*
X182349673Y-123347192D01*
X182693201Y-123489838D01*
X183065167Y-123490162D01*
X183408943Y-123348117D01*
X183672192Y-123085327D01*
X183814838Y-122741799D01*
X183814910Y-122659712D01*
X184021312Y-122866114D01*
X183956887Y-123190000D01*
X184066120Y-123739151D01*
X184377189Y-124204698D01*
X184842736Y-124515767D01*
X185391887Y-124625000D01*
X185448113Y-124625000D01*
X185997264Y-124515767D01*
X186462811Y-124204698D01*
X186773880Y-123739151D01*
X186826584Y-123474187D01*
X194144752Y-123474187D01*
X194362757Y-124001800D01*
X194766077Y-124405824D01*
X195293309Y-124624750D01*
X195864187Y-124625248D01*
X196391800Y-124407243D01*
X196795824Y-124003923D01*
X197014750Y-123476691D01*
X197015248Y-122905813D01*
X196797243Y-122378200D01*
X196393923Y-121974176D01*
X195866691Y-121755250D01*
X195295813Y-121754752D01*
X194768200Y-121972757D01*
X194364176Y-122376077D01*
X194145250Y-122903309D01*
X194144752Y-123474187D01*
X186826584Y-123474187D01*
X186883113Y-123190000D01*
X186773880Y-122640849D01*
X186462811Y-122175302D01*
X185997264Y-121864233D01*
X185448113Y-121755000D01*
X185391887Y-121755000D01*
X185114898Y-121810096D01*
X182545122Y-119240320D01*
X182545162Y-119194833D01*
X182403117Y-118851057D01*
X182140327Y-118587808D01*
X181796799Y-118445162D01*
X181424833Y-118444838D01*
X181081057Y-118586883D01*
X180817808Y-118849673D01*
X180675162Y-119193201D01*
X180675090Y-119275288D01*
X180640122Y-119240320D01*
X180640162Y-119194833D01*
X180498117Y-118851057D01*
X180235327Y-118587808D01*
X179891799Y-118445162D01*
X179519833Y-118444838D01*
X179176057Y-118586883D01*
X178912808Y-118849673D01*
X178770162Y-119193201D01*
X178769838Y-119565167D01*
X172210000Y-119565167D01*
X172210000Y-119307463D01*
X172242192Y-119275327D01*
X172384838Y-118931799D01*
X172385162Y-118559833D01*
X172316719Y-118394187D01*
X183984752Y-118394187D01*
X184202757Y-118921800D01*
X184606077Y-119325824D01*
X185133309Y-119544750D01*
X185704187Y-119545248D01*
X186231800Y-119327243D01*
X186635824Y-118923923D01*
X186854750Y-118396691D01*
X186855000Y-118110000D01*
X194116887Y-118110000D01*
X194226120Y-118659151D01*
X194537189Y-119124698D01*
X195002736Y-119435767D01*
X195551887Y-119545000D01*
X195608113Y-119545000D01*
X196157264Y-119435767D01*
X196622811Y-119124698D01*
X196933880Y-118659151D01*
X196986584Y-118394187D01*
X201844752Y-118394187D01*
X202062757Y-118921800D01*
X202466077Y-119325824D01*
X202520000Y-119348215D01*
X202520000Y-124452677D01*
X202407808Y-124564673D01*
X202265162Y-124908201D01*
X202264838Y-125280167D01*
X202406883Y-125623943D01*
X202669673Y-125887192D01*
X203013201Y-126029838D01*
X203385167Y-126030162D01*
X203728943Y-125888117D01*
X203992192Y-125625327D01*
X204134838Y-125281799D01*
X204135162Y-124909833D01*
X204040000Y-124679523D01*
X204040000Y-119348646D01*
X204091800Y-119327243D01*
X204301663Y-119117745D01*
X207451861Y-119117745D01*
X207525995Y-119363864D01*
X208063223Y-119556965D01*
X208633454Y-119529778D01*
X209034005Y-119363864D01*
X209108139Y-119117745D01*
X208280000Y-118289605D01*
X207451861Y-119117745D01*
X204301663Y-119117745D01*
X204495824Y-118923923D01*
X204714750Y-118396691D01*
X204715189Y-117893223D01*
X206833035Y-117893223D01*
X206860222Y-118463454D01*
X207026136Y-118864005D01*
X207272255Y-118938139D01*
X208100395Y-118110000D01*
X208459605Y-118110000D01*
X209287745Y-118938139D01*
X209533864Y-118864005D01*
X209726965Y-118326777D01*
X209699778Y-117756546D01*
X209533864Y-117355995D01*
X209287745Y-117281861D01*
X208459605Y-118110000D01*
X208100395Y-118110000D01*
X207272255Y-117281861D01*
X207026136Y-117355995D01*
X206833035Y-117893223D01*
X204715189Y-117893223D01*
X204715248Y-117825813D01*
X204497243Y-117298200D01*
X204301640Y-117102255D01*
X207451861Y-117102255D01*
X208280000Y-117930395D01*
X209108139Y-117102255D01*
X209034005Y-116856136D01*
X208496777Y-116663035D01*
X207926546Y-116690222D01*
X207525995Y-116856136D01*
X207451861Y-117102255D01*
X204301640Y-117102255D01*
X204093923Y-116894176D01*
X203566691Y-116675250D01*
X202995813Y-116674752D01*
X202468200Y-116892757D01*
X202064176Y-117296077D01*
X201845250Y-117823309D01*
X201844752Y-118394187D01*
X196986584Y-118394187D01*
X197043113Y-118110000D01*
X196933880Y-117560849D01*
X196622811Y-117095302D01*
X196157264Y-116784233D01*
X195608113Y-116675000D01*
X195551887Y-116675000D01*
X195002736Y-116784233D01*
X194537189Y-117095302D01*
X194226120Y-117560849D01*
X194116887Y-118110000D01*
X186855000Y-118110000D01*
X186855248Y-117825813D01*
X186637243Y-117298200D01*
X186233923Y-116894176D01*
X185706691Y-116675250D01*
X185135813Y-116674752D01*
X184608200Y-116892757D01*
X184204176Y-117296077D01*
X183985250Y-117823309D01*
X183984752Y-118394187D01*
X172316719Y-118394187D01*
X172243117Y-118216057D01*
X171980327Y-117952808D01*
X171636799Y-117810162D01*
X171264833Y-117809838D01*
X170921057Y-117951883D01*
X170657808Y-118214673D01*
X170515162Y-118558201D01*
X170514838Y-118930167D01*
X170656883Y-119273943D01*
X170690000Y-119307118D01*
X170690000Y-122254890D01*
X170629833Y-122254838D01*
X170286057Y-122396883D01*
X170022808Y-122659673D01*
X169880162Y-123003201D01*
X169879838Y-123375167D01*
X170021883Y-123718943D01*
X170055000Y-123752118D01*
X170055000Y-136845198D01*
X167765000Y-139135198D01*
X167765000Y-137229147D01*
X168246887Y-137325000D01*
X168303113Y-137325000D01*
X168852264Y-137215767D01*
X169317811Y-136904698D01*
X169628880Y-136439151D01*
X169738113Y-135890000D01*
X169628880Y-135340849D01*
X169317811Y-134875302D01*
X168935725Y-134620000D01*
X169317811Y-134364698D01*
X169628880Y-133899151D01*
X169738113Y-133350000D01*
X169628880Y-132800849D01*
X169317811Y-132335302D01*
X168935725Y-132080000D01*
X169317811Y-131824698D01*
X169628880Y-131359151D01*
X169738113Y-130810000D01*
X169628880Y-130260849D01*
X169317811Y-129795302D01*
X168935725Y-129540000D01*
X169317811Y-129284698D01*
X169628880Y-128819151D01*
X169738113Y-128270000D01*
X169628880Y-127720849D01*
X169317811Y-127255302D01*
X168935725Y-127000000D01*
X169317811Y-126744698D01*
X169628880Y-126279151D01*
X169738113Y-125730000D01*
X169628880Y-125180849D01*
X169317811Y-124715302D01*
X168935725Y-124460000D01*
X169317811Y-124204698D01*
X169628880Y-123739151D01*
X169738113Y-123190000D01*
X169628880Y-122640849D01*
X169317811Y-122175302D01*
X168935725Y-121920000D01*
X169317811Y-121664698D01*
X169628880Y-121199151D01*
X169738113Y-120650000D01*
X169628880Y-120100849D01*
X169317811Y-119635302D01*
X168913297Y-119365014D01*
X169130134Y-119262389D01*
X169506041Y-118847423D01*
X169666904Y-118459039D01*
X169544915Y-118237000D01*
X168402000Y-118237000D01*
X168402000Y-118257000D01*
X168148000Y-118257000D01*
X168148000Y-118237000D01*
X167005085Y-118237000D01*
X166883096Y-118459039D01*
X167043959Y-118847423D01*
X167419866Y-119262389D01*
X167636703Y-119365014D01*
X167232189Y-119635302D01*
X166921120Y-120100849D01*
X166811887Y-120650000D01*
X166921120Y-121199151D01*
X167232189Y-121664698D01*
X167614275Y-121920000D01*
X167232189Y-122175302D01*
X166921120Y-122640849D01*
X166811887Y-123190000D01*
X166921120Y-123739151D01*
X167232189Y-124204698D01*
X167614275Y-124460000D01*
X167232189Y-124715302D01*
X166921120Y-125180849D01*
X166873141Y-125422057D01*
X164562599Y-127732599D01*
X164397852Y-127979161D01*
X164340000Y-128270000D01*
X164340000Y-137480198D01*
X163690320Y-138129878D01*
X163644833Y-138129838D01*
X163301057Y-138271883D01*
X163037808Y-138534673D01*
X162895162Y-138878201D01*
X162894838Y-139250167D01*
X136988476Y-139250167D01*
X137053943Y-139223117D01*
X137317192Y-138960327D01*
X137459838Y-138616799D01*
X137460162Y-138244833D01*
X137318117Y-137901057D01*
X137055327Y-137637808D01*
X136711799Y-137495162D01*
X136339833Y-137494838D01*
X135996057Y-137636883D01*
X135962882Y-137670000D01*
X135555110Y-137670000D01*
X135555162Y-137609833D01*
X135413117Y-137266057D01*
X135150327Y-137002808D01*
X134806799Y-136860162D01*
X134759923Y-136860121D01*
X133789802Y-135890000D01*
X137601887Y-135890000D01*
X137711120Y-136439151D01*
X138022189Y-136904698D01*
X138487736Y-137215767D01*
X139036887Y-137325000D01*
X139093113Y-137325000D01*
X139642264Y-137215767D01*
X140107811Y-136904698D01*
X140237792Y-136710167D01*
X154639838Y-136710167D01*
X154781883Y-137053943D01*
X155044673Y-137317192D01*
X155388201Y-137459838D01*
X155760167Y-137460162D01*
X156103943Y-137318117D01*
X156367192Y-137055327D01*
X156509838Y-136711799D01*
X156509879Y-136664923D01*
X158254680Y-134920122D01*
X158300167Y-134920162D01*
X158643943Y-134778117D01*
X158907192Y-134515327D01*
X159049838Y-134171799D01*
X159050162Y-133799833D01*
X158908117Y-133456057D01*
X158645327Y-133192808D01*
X158301799Y-133050162D01*
X157929833Y-133049838D01*
X157586057Y-133191883D01*
X157322808Y-133454673D01*
X157180162Y-133798201D01*
X157180121Y-133845077D01*
X155435320Y-135589878D01*
X155389833Y-135589838D01*
X155046057Y-135731883D01*
X154782808Y-135994673D01*
X154640162Y-136338201D01*
X154639838Y-136710167D01*
X140237792Y-136710167D01*
X140418880Y-136439151D01*
X140528113Y-135890000D01*
X140418880Y-135340849D01*
X140107811Y-134875302D01*
X139703297Y-134605014D01*
X139920134Y-134502389D01*
X140296041Y-134087423D01*
X140447085Y-133722745D01*
X144586861Y-133722745D01*
X144660995Y-133968864D01*
X145198223Y-134161965D01*
X145768454Y-134134778D01*
X146169005Y-133968864D01*
X146243139Y-133722745D01*
X152841861Y-133722745D01*
X152915995Y-133968864D01*
X153453223Y-134161965D01*
X154023454Y-134134778D01*
X154424005Y-133968864D01*
X154498139Y-133722745D01*
X153670000Y-132894605D01*
X152841861Y-133722745D01*
X146243139Y-133722745D01*
X145415000Y-132894605D01*
X144586861Y-133722745D01*
X140447085Y-133722745D01*
X140456904Y-133699039D01*
X140334915Y-133477000D01*
X139192000Y-133477000D01*
X139192000Y-133497000D01*
X138938000Y-133497000D01*
X138938000Y-133477000D01*
X137795085Y-133477000D01*
X137673096Y-133699039D01*
X137833959Y-134087423D01*
X138209866Y-134502389D01*
X138426703Y-134605014D01*
X138022189Y-134875302D01*
X137711120Y-135340849D01*
X137601887Y-135890000D01*
X133789802Y-135890000D01*
X133252401Y-135352599D01*
X133005839Y-135187852D01*
X132715000Y-135130000D01*
X132657995Y-135130000D01*
X132487811Y-134875302D01*
X132105725Y-134620000D01*
X132487811Y-134364698D01*
X132554736Y-134264538D01*
X133049878Y-134759680D01*
X133049838Y-134805167D01*
X133191883Y-135148943D01*
X133454673Y-135412192D01*
X133798201Y-135554838D01*
X134170167Y-135555162D01*
X134513943Y-135413117D01*
X134777192Y-135150327D01*
X134919838Y-134806799D01*
X134920162Y-134434833D01*
X134778117Y-134091057D01*
X134515327Y-133827808D01*
X134171799Y-133685162D01*
X134124923Y-133685121D01*
X133252401Y-132812599D01*
X133005839Y-132647852D01*
X132715000Y-132590000D01*
X132657995Y-132590000D01*
X132487811Y-132335302D01*
X132105725Y-132080000D01*
X132487811Y-131824698D01*
X132554736Y-131724538D01*
X133049878Y-132219680D01*
X133049838Y-132265167D01*
X133191883Y-132608943D01*
X133454673Y-132872192D01*
X133798201Y-133014838D01*
X134170167Y-133015162D01*
X134513943Y-132873117D01*
X134777192Y-132610327D01*
X134919838Y-132266799D01*
X134920162Y-131894833D01*
X134778117Y-131551057D01*
X134515327Y-131287808D01*
X134205219Y-131159039D01*
X137673096Y-131159039D01*
X137833959Y-131547423D01*
X138209866Y-131962389D01*
X138458367Y-132080000D01*
X138209866Y-132197611D01*
X137833959Y-132612577D01*
X137673096Y-133000961D01*
X137795085Y-133223000D01*
X138938000Y-133223000D01*
X138938000Y-130937000D01*
X139192000Y-130937000D01*
X139192000Y-133223000D01*
X140334915Y-133223000D01*
X140456904Y-133000961D01*
X140296041Y-132612577D01*
X140192451Y-132498223D01*
X143968035Y-132498223D01*
X143995222Y-133068454D01*
X144161136Y-133469005D01*
X144407255Y-133543139D01*
X145235395Y-132715000D01*
X145594605Y-132715000D01*
X146422745Y-133543139D01*
X146668864Y-133469005D01*
X146861965Y-132931777D01*
X146841295Y-132498223D01*
X152223035Y-132498223D01*
X152250222Y-133068454D01*
X152416136Y-133469005D01*
X152662255Y-133543139D01*
X153490395Y-132715000D01*
X153849605Y-132715000D01*
X154677745Y-133543139D01*
X154923864Y-133469005D01*
X155116965Y-132931777D01*
X155089778Y-132361546D01*
X154923864Y-131960995D01*
X154677745Y-131886861D01*
X153849605Y-132715000D01*
X153490395Y-132715000D01*
X152662255Y-131886861D01*
X152416136Y-131960995D01*
X152223035Y-132498223D01*
X146841295Y-132498223D01*
X146834778Y-132361546D01*
X146668864Y-131960995D01*
X146422745Y-131886861D01*
X145594605Y-132715000D01*
X145235395Y-132715000D01*
X144407255Y-131886861D01*
X144161136Y-131960995D01*
X143968035Y-132498223D01*
X140192451Y-132498223D01*
X139920134Y-132197611D01*
X139671633Y-132080000D01*
X139920134Y-131962389D01*
X140151253Y-131707255D01*
X144586861Y-131707255D01*
X145415000Y-132535395D01*
X146243139Y-131707255D01*
X152841861Y-131707255D01*
X153670000Y-132535395D01*
X154498139Y-131707255D01*
X154424005Y-131461136D01*
X153886777Y-131268035D01*
X153316546Y-131295222D01*
X152915995Y-131461136D01*
X152841861Y-131707255D01*
X146243139Y-131707255D01*
X146169005Y-131461136D01*
X145631777Y-131268035D01*
X145061546Y-131295222D01*
X144660995Y-131461136D01*
X144586861Y-131707255D01*
X140151253Y-131707255D01*
X140296041Y-131547423D01*
X140456904Y-131159039D01*
X140334915Y-130937000D01*
X139192000Y-130937000D01*
X138938000Y-130937000D01*
X137795085Y-130937000D01*
X137673096Y-131159039D01*
X134205219Y-131159039D01*
X134171799Y-131145162D01*
X134124923Y-131145121D01*
X133252401Y-130272599D01*
X133005839Y-130107852D01*
X132715000Y-130050000D01*
X132657995Y-130050000D01*
X132487811Y-129795302D01*
X132105725Y-129540000D01*
X132487811Y-129284698D01*
X132798880Y-128819151D01*
X132908113Y-128270000D01*
X132798880Y-127720849D01*
X132487811Y-127255302D01*
X132083297Y-126985014D01*
X132300134Y-126882389D01*
X132676041Y-126467423D01*
X132836904Y-126079039D01*
X132714915Y-125857000D01*
X131572000Y-125857000D01*
X131572000Y-125877000D01*
X131318000Y-125877000D01*
X131318000Y-125857000D01*
X130175085Y-125857000D01*
X130053096Y-126079039D01*
X130213959Y-126467423D01*
X130589866Y-126882389D01*
X130806703Y-126985014D01*
X130402189Y-127255302D01*
X130091120Y-127720849D01*
X129981887Y-128270000D01*
X124613828Y-128270000D01*
X124884670Y-128089029D01*
X125209526Y-127602848D01*
X125323600Y-127029359D01*
X125323600Y-126970641D01*
X125209526Y-126397152D01*
X124884670Y-125910971D01*
X124613828Y-125730000D01*
X124884670Y-125549029D01*
X125209526Y-125062848D01*
X125323600Y-124489359D01*
X125323600Y-124430641D01*
X125209526Y-123857152D01*
X124884670Y-123370971D01*
X124613828Y-123190000D01*
X129981887Y-123190000D01*
X130091120Y-123739151D01*
X130402189Y-124204698D01*
X130806703Y-124474986D01*
X130589866Y-124577611D01*
X130213959Y-124992577D01*
X130053096Y-125380961D01*
X130175085Y-125603000D01*
X131318000Y-125603000D01*
X131318000Y-125583000D01*
X131572000Y-125583000D01*
X131572000Y-125603000D01*
X132714915Y-125603000D01*
X132836904Y-125380961D01*
X132676041Y-124992577D01*
X132300134Y-124577611D01*
X132083297Y-124474986D01*
X132487811Y-124204698D01*
X132798880Y-123739151D01*
X132908113Y-123190000D01*
X132798880Y-122640849D01*
X132487811Y-122175302D01*
X132083297Y-121905014D01*
X132300134Y-121802389D01*
X132676041Y-121387423D01*
X132836904Y-120999039D01*
X132714915Y-120777000D01*
X131572000Y-120777000D01*
X131572000Y-120797000D01*
X131318000Y-120797000D01*
X131318000Y-120777000D01*
X130175085Y-120777000D01*
X130053096Y-120999039D01*
X130213959Y-121387423D01*
X130589866Y-121802389D01*
X130806703Y-121905014D01*
X130402189Y-122175302D01*
X130091120Y-122640849D01*
X129981887Y-123190000D01*
X124613828Y-123190000D01*
X124884670Y-123009029D01*
X125209526Y-122522848D01*
X125323600Y-121949359D01*
X125323600Y-121890641D01*
X125209526Y-121317152D01*
X124884670Y-120830971D01*
X124613828Y-120650000D01*
X124884670Y-120469029D01*
X125209526Y-119982848D01*
X125323600Y-119409359D01*
X125323600Y-119350641D01*
X125209526Y-118777152D01*
X124884670Y-118290971D01*
X124613828Y-118110000D01*
X124884670Y-117929029D01*
X125209526Y-117442848D01*
X125323600Y-116869359D01*
X125323600Y-116810641D01*
X125209526Y-116237152D01*
X124884670Y-115750971D01*
X124613839Y-115570008D01*
X125031821Y-115188490D01*
X125279968Y-114659027D01*
X125159469Y-114427000D01*
X123952000Y-114427000D01*
X123952000Y-114447000D01*
X123698000Y-114447000D01*
X123698000Y-114427000D01*
X123678000Y-114427000D01*
X123678000Y-114173000D01*
X123698000Y-114173000D01*
X123698000Y-114153000D01*
X123952000Y-114153000D01*
X123952000Y-114173000D01*
X125159469Y-114173000D01*
X125279968Y-113940973D01*
X125031821Y-113411510D01*
X124613839Y-113029992D01*
X124884670Y-112849029D01*
X125209526Y-112362848D01*
X125323600Y-111789359D01*
X125323600Y-111730641D01*
X125209526Y-111157152D01*
X124884670Y-110670971D01*
X124613828Y-110490000D01*
X124884670Y-110309029D01*
X125209526Y-109822848D01*
X125323600Y-109249359D01*
X125323600Y-109190641D01*
X125209526Y-108617152D01*
X124884670Y-108130971D01*
X124613828Y-107950000D01*
X124884670Y-107769029D01*
X125209526Y-107282848D01*
X125323600Y-106709359D01*
X125323600Y-106650641D01*
X125209526Y-106077152D01*
X124884670Y-105590971D01*
X124613828Y-105410000D01*
X129981887Y-105410000D01*
X130091120Y-105959151D01*
X130402189Y-106424698D01*
X130784275Y-106680000D01*
X130402189Y-106935302D01*
X130091120Y-107400849D01*
X129981887Y-107950000D01*
X130091120Y-108499151D01*
X130402189Y-108964698D01*
X130784275Y-109220000D01*
X130402189Y-109475302D01*
X130091120Y-109940849D01*
X129981887Y-110490000D01*
X130091120Y-111039151D01*
X130402189Y-111504698D01*
X130784275Y-111760000D01*
X130402189Y-112015302D01*
X130091120Y-112480849D01*
X129981887Y-113030000D01*
X130091120Y-113579151D01*
X130402189Y-114044698D01*
X130784275Y-114300000D01*
X130402189Y-114555302D01*
X130091120Y-115020849D01*
X129981887Y-115570000D01*
X130091120Y-116119151D01*
X130402189Y-116584698D01*
X130784275Y-116840000D01*
X130402189Y-117095302D01*
X130091120Y-117560849D01*
X129981887Y-118110000D01*
X130091120Y-118659151D01*
X130402189Y-119124698D01*
X130806703Y-119394986D01*
X130589866Y-119497611D01*
X130213959Y-119912577D01*
X130053096Y-120300961D01*
X130175085Y-120523000D01*
X131318000Y-120523000D01*
X131318000Y-120503000D01*
X131572000Y-120503000D01*
X131572000Y-120523000D01*
X132714915Y-120523000D01*
X132836904Y-120300961D01*
X132676041Y-119912577D01*
X132300134Y-119497611D01*
X132083297Y-119394986D01*
X132487811Y-119124698D01*
X132798880Y-118659151D01*
X132908113Y-118110000D01*
X132798880Y-117560849D01*
X132487811Y-117095302D01*
X132105725Y-116840000D01*
X132487811Y-116584698D01*
X132798880Y-116119151D01*
X132908113Y-115570000D01*
X132798880Y-115020849D01*
X132487811Y-114555302D01*
X132105725Y-114300000D01*
X132487811Y-114044698D01*
X132798880Y-113579151D01*
X132908113Y-113030000D01*
X132798880Y-112480849D01*
X132487811Y-112015302D01*
X132105725Y-111760000D01*
X132487811Y-111504698D01*
X132798880Y-111039151D01*
X132908113Y-110490000D01*
X132798880Y-109940849D01*
X132487811Y-109475302D01*
X132105725Y-109220000D01*
X132487811Y-108964698D01*
X132798880Y-108499151D01*
X132908113Y-107950000D01*
X132798880Y-107400849D01*
X132487811Y-106935302D01*
X132105725Y-106680000D01*
X132487811Y-106424698D01*
X132798880Y-105959151D01*
X132908113Y-105410000D01*
X132798880Y-104860849D01*
X132487811Y-104395302D01*
X132343535Y-104298899D01*
X132480317Y-104273162D01*
X132696441Y-104134090D01*
X132841431Y-103921890D01*
X132892440Y-103670000D01*
X132892440Y-102870000D01*
X137601887Y-102870000D01*
X137711120Y-103419151D01*
X138022189Y-103884698D01*
X138404275Y-104140000D01*
X138022189Y-104395302D01*
X137711120Y-104860849D01*
X137601887Y-105410000D01*
X137711120Y-105959151D01*
X138022189Y-106424698D01*
X138404275Y-106680000D01*
X138022189Y-106935302D01*
X137711120Y-107400849D01*
X137601887Y-107950000D01*
X137711120Y-108499151D01*
X138022189Y-108964698D01*
X138404275Y-109220000D01*
X138022189Y-109475302D01*
X137711120Y-109940849D01*
X137601887Y-110490000D01*
X137711120Y-111039151D01*
X138022189Y-111504698D01*
X138404275Y-111760000D01*
X138022189Y-112015302D01*
X137711120Y-112480849D01*
X137601887Y-113030000D01*
X137711120Y-113579151D01*
X138022189Y-114044698D01*
X138404275Y-114300000D01*
X138022189Y-114555302D01*
X137711120Y-115020849D01*
X137601887Y-115570000D01*
X137711120Y-116119151D01*
X138022189Y-116584698D01*
X138404275Y-116840000D01*
X138022189Y-117095302D01*
X137711120Y-117560849D01*
X137601887Y-118110000D01*
X137711120Y-118659151D01*
X138022189Y-119124698D01*
X138404275Y-119380000D01*
X138022189Y-119635302D01*
X137711120Y-120100849D01*
X137601887Y-120650000D01*
X137711120Y-121199151D01*
X138022189Y-121664698D01*
X138404275Y-121920000D01*
X138022189Y-122175302D01*
X137711120Y-122640849D01*
X137601887Y-123190000D01*
X137711120Y-123739151D01*
X138022189Y-124204698D01*
X138404275Y-124460000D01*
X138022189Y-124715302D01*
X137711120Y-125180849D01*
X137601887Y-125730000D01*
X137711120Y-126279151D01*
X138022189Y-126744698D01*
X138404275Y-127000000D01*
X138022189Y-127255302D01*
X137711120Y-127720849D01*
X137601887Y-128270000D01*
X137711120Y-128819151D01*
X138022189Y-129284698D01*
X138426703Y-129554986D01*
X138209866Y-129657611D01*
X137833959Y-130072577D01*
X137673096Y-130460961D01*
X137795085Y-130683000D01*
X138938000Y-130683000D01*
X138938000Y-130663000D01*
X139192000Y-130663000D01*
X139192000Y-130683000D01*
X140334915Y-130683000D01*
X140456904Y-130460961D01*
X140296041Y-130072577D01*
X139920134Y-129657611D01*
X139703297Y-129554986D01*
X140107811Y-129284698D01*
X140418880Y-128819151D01*
X140528113Y-128270000D01*
X140474245Y-127999187D01*
X143979752Y-127999187D01*
X144197757Y-128526800D01*
X144601077Y-128930824D01*
X145128309Y-129149750D01*
X145699187Y-129150248D01*
X146226800Y-128932243D01*
X146630824Y-128528923D01*
X146849750Y-128001691D01*
X146849752Y-127999187D01*
X152234752Y-127999187D01*
X152452757Y-128526800D01*
X152856077Y-128930824D01*
X153383309Y-129149750D01*
X153954187Y-129150248D01*
X154481800Y-128932243D01*
X154885824Y-128528923D01*
X155104750Y-128001691D01*
X155105248Y-127430813D01*
X154887243Y-126903200D01*
X154483923Y-126499176D01*
X154430000Y-126476785D01*
X154430000Y-124774802D01*
X156014802Y-123190000D01*
X159191887Y-123190000D01*
X159301120Y-123739151D01*
X159612189Y-124204698D01*
X159994275Y-124460000D01*
X159612189Y-124715302D01*
X159301120Y-125180849D01*
X159191887Y-125730000D01*
X159301120Y-126279151D01*
X159612189Y-126744698D01*
X159994275Y-127000000D01*
X159612189Y-127255302D01*
X159301120Y-127720849D01*
X159191887Y-128270000D01*
X159301120Y-128819151D01*
X159612189Y-129284698D01*
X159994275Y-129540000D01*
X159612189Y-129795302D01*
X159301120Y-130260849D01*
X159191887Y-130810000D01*
X159301120Y-131359151D01*
X159612189Y-131824698D01*
X159994275Y-132080000D01*
X159612189Y-132335302D01*
X159301120Y-132800849D01*
X159191887Y-133350000D01*
X159301120Y-133899151D01*
X159612189Y-134364698D01*
X159994275Y-134620000D01*
X159612189Y-134875302D01*
X159301120Y-135340849D01*
X159191887Y-135890000D01*
X159301120Y-136439151D01*
X159612189Y-136904698D01*
X160077736Y-137215767D01*
X160626887Y-137325000D01*
X160683113Y-137325000D01*
X161232264Y-137215767D01*
X161697811Y-136904698D01*
X162008880Y-136439151D01*
X162118113Y-135890000D01*
X162008880Y-135340849D01*
X161697811Y-134875302D01*
X161315725Y-134620000D01*
X161697811Y-134364698D01*
X162008880Y-133899151D01*
X162118113Y-133350000D01*
X162008880Y-132800849D01*
X161697811Y-132335302D01*
X161315725Y-132080000D01*
X161697811Y-131824698D01*
X162008880Y-131359151D01*
X162118113Y-130810000D01*
X162008880Y-130260849D01*
X161697811Y-129795302D01*
X161315725Y-129540000D01*
X161697811Y-129284698D01*
X162008880Y-128819151D01*
X162118113Y-128270000D01*
X162008880Y-127720849D01*
X161697811Y-127255302D01*
X161315725Y-127000000D01*
X161697811Y-126744698D01*
X162008880Y-126279151D01*
X162118113Y-125730000D01*
X162008880Y-125180849D01*
X161697811Y-124715302D01*
X161315725Y-124460000D01*
X161697811Y-124204698D01*
X162008880Y-123739151D01*
X162118113Y-123190000D01*
X162008880Y-122640849D01*
X161697811Y-122175302D01*
X161293297Y-121905014D01*
X161510134Y-121802389D01*
X161886041Y-121387423D01*
X162046904Y-120999039D01*
X161924915Y-120777000D01*
X160782000Y-120777000D01*
X160782000Y-120797000D01*
X160528000Y-120797000D01*
X160528000Y-120777000D01*
X159385085Y-120777000D01*
X159263096Y-120999039D01*
X159423959Y-121387423D01*
X159799866Y-121802389D01*
X160016703Y-121905014D01*
X159612189Y-122175302D01*
X159301120Y-122640849D01*
X159191887Y-123190000D01*
X156014802Y-123190000D01*
X156349680Y-122855122D01*
X156395167Y-122855162D01*
X156738943Y-122713117D01*
X157002192Y-122450327D01*
X157144838Y-122106799D01*
X157145162Y-121734833D01*
X157003117Y-121391057D01*
X156740327Y-121127808D01*
X156396799Y-120985162D01*
X156024833Y-120984838D01*
X155681057Y-121126883D01*
X155417808Y-121389673D01*
X155275162Y-121733201D01*
X155275121Y-121780077D01*
X153132599Y-123922599D01*
X152967852Y-124169161D01*
X152910000Y-124460000D01*
X152910000Y-126476354D01*
X152858200Y-126497757D01*
X152454176Y-126901077D01*
X152235250Y-127428309D01*
X152234752Y-127999187D01*
X146849752Y-127999187D01*
X146850248Y-127430813D01*
X146632243Y-126903200D01*
X146228923Y-126499176D01*
X145701691Y-126280250D01*
X145130813Y-126279752D01*
X144603200Y-126497757D01*
X144199176Y-126901077D01*
X143980250Y-127428309D01*
X143979752Y-127999187D01*
X140474245Y-127999187D01*
X140418880Y-127720849D01*
X140107811Y-127255302D01*
X139725725Y-127000000D01*
X140107811Y-126744698D01*
X140418880Y-126279151D01*
X140528113Y-125730000D01*
X140418880Y-125180849D01*
X140107811Y-124715302D01*
X139725725Y-124460000D01*
X140107811Y-124204698D01*
X140418880Y-123739151D01*
X140528113Y-123190000D01*
X140431428Y-122703933D01*
X140439673Y-122712192D01*
X140739332Y-122836622D01*
X140670162Y-123003201D01*
X140669838Y-123375167D01*
X140811883Y-123718943D01*
X140845000Y-123752118D01*
X140845000Y-125167537D01*
X140812808Y-125199673D01*
X140670162Y-125543201D01*
X140669838Y-125915167D01*
X140811883Y-126258943D01*
X141074673Y-126522192D01*
X141418201Y-126664838D01*
X141790167Y-126665162D01*
X142133943Y-126523117D01*
X142397192Y-126260327D01*
X142539838Y-125916799D01*
X142540162Y-125544833D01*
X142398117Y-125201057D01*
X142365000Y-125167882D01*
X142365000Y-123752463D01*
X142397192Y-123720327D01*
X142539838Y-123376799D01*
X142540162Y-123004833D01*
X142470568Y-122836403D01*
X142768943Y-122713117D01*
X143032192Y-122450327D01*
X143174838Y-122106799D01*
X143175162Y-121734833D01*
X143033117Y-121391057D01*
X142770327Y-121127808D01*
X142426799Y-120985162D01*
X142054833Y-120984838D01*
X141711057Y-121126883D01*
X141677882Y-121160000D01*
X141532463Y-121160000D01*
X141500327Y-121127808D01*
X141156799Y-120985162D01*
X140784833Y-120984838D01*
X140441057Y-121126883D01*
X140431322Y-121136601D01*
X140528113Y-120650000D01*
X140418880Y-120100849D01*
X140120496Y-119654285D01*
X145499760Y-119654285D01*
X145710169Y-120163515D01*
X146099436Y-120553461D01*
X146608298Y-120764759D01*
X147159285Y-120765240D01*
X147668515Y-120554831D01*
X148058461Y-120165564D01*
X148269759Y-119656702D01*
X148269761Y-119654285D01*
X150379760Y-119654285D01*
X150590169Y-120163515D01*
X150979436Y-120553461D01*
X151488298Y-120764759D01*
X152039285Y-120765240D01*
X152548515Y-120554831D01*
X152938461Y-120165564D01*
X153149759Y-119656702D01*
X153150240Y-119105715D01*
X152939831Y-118596485D01*
X152550564Y-118206539D01*
X152041702Y-117995241D01*
X151490715Y-117994760D01*
X150981485Y-118205169D01*
X150591539Y-118594436D01*
X150380241Y-119103298D01*
X150379760Y-119654285D01*
X148269761Y-119654285D01*
X148270240Y-119105715D01*
X148059831Y-118596485D01*
X147670564Y-118206539D01*
X147161702Y-117995241D01*
X146610715Y-117994760D01*
X146101485Y-118205169D01*
X145711539Y-118594436D01*
X145500241Y-119103298D01*
X145499760Y-119654285D01*
X140120496Y-119654285D01*
X140107811Y-119635302D01*
X139725725Y-119380000D01*
X140107811Y-119124698D01*
X140418880Y-118659151D01*
X140528113Y-118110000D01*
X140418880Y-117560849D01*
X140107811Y-117095302D01*
X139725725Y-116840000D01*
X140107811Y-116584698D01*
X140418880Y-116119151D01*
X140528113Y-115570000D01*
X140418880Y-115020849D01*
X140107811Y-114555302D01*
X140031313Y-114504187D01*
X145249752Y-114504187D01*
X145467757Y-115031800D01*
X145871077Y-115435824D01*
X146398309Y-115654750D01*
X146969187Y-115655248D01*
X147496800Y-115437243D01*
X147900824Y-115033923D01*
X148119750Y-114506691D01*
X148119752Y-114504187D01*
X150329752Y-114504187D01*
X150547757Y-115031800D01*
X150951077Y-115435824D01*
X151478309Y-115654750D01*
X152049187Y-115655248D01*
X152576800Y-115437243D01*
X152980824Y-115033923D01*
X153199750Y-114506691D01*
X153200248Y-113935813D01*
X152982243Y-113408200D01*
X152578923Y-113004176D01*
X152051691Y-112785250D01*
X151480813Y-112784752D01*
X150953200Y-113002757D01*
X150549176Y-113406077D01*
X150330250Y-113933309D01*
X150329752Y-114504187D01*
X148119752Y-114504187D01*
X148120248Y-113935813D01*
X147902243Y-113408200D01*
X147498923Y-113004176D01*
X146971691Y-112785250D01*
X146400813Y-112784752D01*
X145873200Y-113002757D01*
X145469176Y-113406077D01*
X145250250Y-113933309D01*
X145249752Y-114504187D01*
X140031313Y-114504187D01*
X139725725Y-114300000D01*
X140107811Y-114044698D01*
X140418880Y-113579151D01*
X140528113Y-113030000D01*
X140418880Y-112480849D01*
X140107811Y-112015302D01*
X139725725Y-111760000D01*
X140107811Y-111504698D01*
X140418880Y-111039151D01*
X140528113Y-110490000D01*
X140475948Y-110227745D01*
X145856861Y-110227745D01*
X145930995Y-110473864D01*
X146468223Y-110666965D01*
X147038454Y-110639778D01*
X147439005Y-110473864D01*
X147513139Y-110227745D01*
X150936861Y-110227745D01*
X151010995Y-110473864D01*
X151548223Y-110666965D01*
X152118454Y-110639778D01*
X152519005Y-110473864D01*
X152593139Y-110227745D01*
X151765000Y-109399605D01*
X150936861Y-110227745D01*
X147513139Y-110227745D01*
X146685000Y-109399605D01*
X145856861Y-110227745D01*
X140475948Y-110227745D01*
X140418880Y-109940849D01*
X140107811Y-109475302D01*
X140002847Y-109405167D01*
X142574838Y-109405167D01*
X142716883Y-109748943D01*
X142979673Y-110012192D01*
X143323201Y-110154838D01*
X143695167Y-110155162D01*
X144038943Y-110013117D01*
X144302192Y-109750327D01*
X144444838Y-109406799D01*
X144445162Y-109034833D01*
X144432102Y-109003223D01*
X145238035Y-109003223D01*
X145265222Y-109573454D01*
X145431136Y-109974005D01*
X145677255Y-110048139D01*
X146505395Y-109220000D01*
X146864605Y-109220000D01*
X147692745Y-110048139D01*
X147938864Y-109974005D01*
X148131965Y-109436777D01*
X148111295Y-109003223D01*
X150318035Y-109003223D01*
X150345222Y-109573454D01*
X150511136Y-109974005D01*
X150757255Y-110048139D01*
X151585395Y-109220000D01*
X151944605Y-109220000D01*
X152772745Y-110048139D01*
X153018864Y-109974005D01*
X153211965Y-109436777D01*
X153184778Y-108866546D01*
X153018864Y-108465995D01*
X152772745Y-108391861D01*
X151944605Y-109220000D01*
X151585395Y-109220000D01*
X150757255Y-108391861D01*
X150511136Y-108465995D01*
X150318035Y-109003223D01*
X148111295Y-109003223D01*
X148104778Y-108866546D01*
X147938864Y-108465995D01*
X147692745Y-108391861D01*
X146864605Y-109220000D01*
X146505395Y-109220000D01*
X145677255Y-108391861D01*
X145431136Y-108465995D01*
X145238035Y-109003223D01*
X144432102Y-109003223D01*
X144303117Y-108691057D01*
X144270000Y-108657882D01*
X144270000Y-108212255D01*
X145856861Y-108212255D01*
X146685000Y-109040395D01*
X147513139Y-108212255D01*
X150936861Y-108212255D01*
X151765000Y-109040395D01*
X152593139Y-108212255D01*
X152519005Y-107966136D01*
X151981777Y-107773035D01*
X151411546Y-107800222D01*
X151010995Y-107966136D01*
X150936861Y-108212255D01*
X147513139Y-108212255D01*
X147439005Y-107966136D01*
X146901777Y-107773035D01*
X146331546Y-107800222D01*
X145930995Y-107966136D01*
X145856861Y-108212255D01*
X144270000Y-108212255D01*
X144270000Y-104454802D01*
X145094802Y-103630000D01*
X145421699Y-103630000D01*
X145634946Y-103949147D01*
X145636179Y-103949971D01*
X145599683Y-103956838D01*
X145383559Y-104095910D01*
X145238569Y-104308110D01*
X145187560Y-104560000D01*
X145187560Y-106260000D01*
X145231838Y-106495317D01*
X145370910Y-106711441D01*
X145583110Y-106856431D01*
X145835000Y-106907440D01*
X147535000Y-106907440D01*
X147770317Y-106863162D01*
X147986441Y-106724090D01*
X148131431Y-106511890D01*
X148145086Y-106444459D01*
X148174946Y-106489147D01*
X148656715Y-106811054D01*
X149225000Y-106924093D01*
X149793285Y-106811054D01*
X150275054Y-106489147D01*
X150495000Y-106159974D01*
X150714946Y-106489147D01*
X151196715Y-106811054D01*
X151765000Y-106924093D01*
X152333285Y-106811054D01*
X152815054Y-106489147D01*
X153136961Y-106007378D01*
X153250000Y-105439093D01*
X153250000Y-105380907D01*
X153136961Y-104812622D01*
X152815054Y-104330853D01*
X152531899Y-104141655D01*
X152531924Y-104141645D01*
X152960183Y-103751358D01*
X153206486Y-103226892D01*
X153085819Y-102997000D01*
X151892000Y-102997000D01*
X151892000Y-103017000D01*
X151638000Y-103017000D01*
X151638000Y-102997000D01*
X151618000Y-102997000D01*
X151618000Y-102743000D01*
X151638000Y-102743000D01*
X151638000Y-101549845D01*
X151892000Y-101549845D01*
X151892000Y-102743000D01*
X153085819Y-102743000D01*
X153206486Y-102513108D01*
X152960183Y-101988642D01*
X152531924Y-101598355D01*
X152121890Y-101428524D01*
X151892000Y-101549845D01*
X151638000Y-101549845D01*
X151408110Y-101428524D01*
X150998076Y-101598355D01*
X150569817Y-101988642D01*
X150502702Y-102131553D01*
X150275054Y-101790853D01*
X149793285Y-101468946D01*
X149225000Y-101355907D01*
X148656715Y-101468946D01*
X148174946Y-101790853D01*
X147955000Y-102120026D01*
X147735054Y-101790853D01*
X147253285Y-101468946D01*
X146685000Y-101355907D01*
X146116715Y-101468946D01*
X145634946Y-101790853D01*
X145421699Y-102110000D01*
X144780000Y-102110000D01*
X144489160Y-102167852D01*
X144242599Y-102332599D01*
X142972599Y-103602599D01*
X142807852Y-103849161D01*
X142750000Y-104140000D01*
X142750000Y-108657537D01*
X142717808Y-108689673D01*
X142575162Y-109033201D01*
X142574838Y-109405167D01*
X140002847Y-109405167D01*
X139725725Y-109220000D01*
X140107811Y-108964698D01*
X140418880Y-108499151D01*
X140528113Y-107950000D01*
X140418880Y-107400849D01*
X140107811Y-106935302D01*
X139725725Y-106680000D01*
X140107811Y-106424698D01*
X140418880Y-105959151D01*
X140528113Y-105410000D01*
X140418880Y-104860849D01*
X140107811Y-104395302D01*
X139725725Y-104140000D01*
X140107811Y-103884698D01*
X140418880Y-103419151D01*
X140528113Y-102870000D01*
X140418880Y-102320849D01*
X140107811Y-101855302D01*
X139642264Y-101544233D01*
X139093113Y-101435000D01*
X139036887Y-101435000D01*
X138487736Y-101544233D01*
X138022189Y-101855302D01*
X137711120Y-102320849D01*
X137601887Y-102870000D01*
X132892440Y-102870000D01*
X132892440Y-102070000D01*
X132848162Y-101834683D01*
X132709090Y-101618559D01*
X132496890Y-101473569D01*
X132245000Y-101422560D01*
X130645000Y-101422560D01*
X130409683Y-101466838D01*
X130193559Y-101605910D01*
X130048569Y-101818110D01*
X129997560Y-102070000D01*
X129997560Y-103670000D01*
X130041838Y-103905317D01*
X130180910Y-104121441D01*
X130393110Y-104266431D01*
X130548089Y-104297815D01*
X130402189Y-104395302D01*
X130091120Y-104860849D01*
X129981887Y-105410000D01*
X124613828Y-105410000D01*
X124884670Y-105229029D01*
X125209526Y-104742848D01*
X125323600Y-104169359D01*
X125323600Y-104110641D01*
X125209526Y-103537152D01*
X124884670Y-103050971D01*
X124613828Y-102870000D01*
X124884670Y-102689029D01*
X125209526Y-102202848D01*
X125323600Y-101629359D01*
X125323600Y-101570641D01*
X125209526Y-100997152D01*
X124884670Y-100510971D01*
X124613828Y-100330000D01*
X124884670Y-100149029D01*
X125209526Y-99662848D01*
X125323600Y-99089359D01*
X125323600Y-99030641D01*
X125209526Y-98457152D01*
X124884670Y-97970971D01*
X124613828Y-97790000D01*
X124884670Y-97609029D01*
X125209526Y-97122848D01*
X125323600Y-96549359D01*
X125323600Y-96490641D01*
X125209526Y-95917152D01*
X124887474Y-95435167D01*
X133049838Y-95435167D01*
X133191883Y-95778943D01*
X133454673Y-96042192D01*
X133798201Y-96184838D01*
X134170167Y-96185162D01*
X134513943Y-96043117D01*
X134547118Y-96010000D01*
X135575198Y-96010000D01*
X140034878Y-100469680D01*
X140034838Y-100515167D01*
X140176883Y-100858943D01*
X140439673Y-101122192D01*
X140783201Y-101264838D01*
X141155167Y-101265162D01*
X141498943Y-101123117D01*
X141762192Y-100860327D01*
X141904838Y-100516799D01*
X141905162Y-100144833D01*
X141763117Y-99801057D01*
X141500327Y-99537808D01*
X141156799Y-99395162D01*
X141109923Y-99395121D01*
X136427401Y-94712599D01*
X136180839Y-94547852D01*
X135890000Y-94490000D01*
X134547463Y-94490000D01*
X134515327Y-94457808D01*
X134171799Y-94315162D01*
X133799833Y-94314838D01*
X133456057Y-94456883D01*
X133192808Y-94719673D01*
X133050162Y-95063201D01*
X133049838Y-95435167D01*
X124887474Y-95435167D01*
X124884670Y-95430971D01*
X124613828Y-95250000D01*
X124884670Y-95069029D01*
X125209526Y-94582848D01*
X125323600Y-94009359D01*
X125323600Y-93950641D01*
X125209526Y-93377152D01*
X124884670Y-92890971D01*
X124613828Y-92710000D01*
X124884670Y-92529029D01*
X125209526Y-92042848D01*
X125323600Y-91469359D01*
X125323600Y-91410641D01*
X125209526Y-90837152D01*
X124884670Y-90350971D01*
X124613828Y-90170000D01*
X124884670Y-89989029D01*
X124997110Y-89820750D01*
X132486400Y-89820750D01*
X132486400Y-90524910D01*
X132583073Y-90758299D01*
X132761702Y-90936927D01*
X132995091Y-91033600D01*
X133699250Y-91033600D01*
X133858000Y-90874850D01*
X133858000Y-89662000D01*
X132645150Y-89662000D01*
X132486400Y-89820750D01*
X124997110Y-89820750D01*
X125209526Y-89502848D01*
X125323600Y-88929359D01*
X125323600Y-88870641D01*
X125258844Y-88545090D01*
X132486400Y-88545090D01*
X132486400Y-89249250D01*
X132645150Y-89408000D01*
X133858000Y-89408000D01*
X133858000Y-87122000D01*
X132651183Y-87122000D01*
X132530042Y-87354026D01*
X132702312Y-87769947D01*
X132959120Y-88051300D01*
X132761702Y-88133073D01*
X132583073Y-88311701D01*
X132486400Y-88545090D01*
X125258844Y-88545090D01*
X125209526Y-88297152D01*
X124884670Y-87810971D01*
X124398489Y-87486115D01*
X123825000Y-87372041D01*
X123251511Y-87486115D01*
X122765330Y-87810971D01*
X122549336Y-88134228D01*
X122491821Y-88011510D01*
X122059947Y-87617312D01*
X121644026Y-87445042D01*
X121412000Y-87566183D01*
X121412000Y-88773000D01*
X121432000Y-88773000D01*
X121432000Y-89027000D01*
X121412000Y-89027000D01*
X121412000Y-89047000D01*
X121158000Y-89047000D01*
X121158000Y-89027000D01*
X119950531Y-89027000D01*
X119830032Y-89259027D01*
X120078179Y-89788490D01*
X120496161Y-90170008D01*
X120225330Y-90350971D01*
X119900474Y-90837152D01*
X119786400Y-91410641D01*
X116915000Y-91410641D01*
X116915000Y-88540973D01*
X119830032Y-88540973D01*
X119950531Y-88773000D01*
X121158000Y-88773000D01*
X121158000Y-87566183D01*
X120925974Y-87445042D01*
X120510053Y-87617312D01*
X120078179Y-88011510D01*
X119830032Y-88540973D01*
X116915000Y-88540973D01*
X116915000Y-86635974D01*
X132530042Y-86635974D01*
X132651183Y-86868000D01*
X133858000Y-86868000D01*
X133858000Y-85660531D01*
X134112000Y-85660531D01*
X134112000Y-86868000D01*
X134132000Y-86868000D01*
X134132000Y-87122000D01*
X134112000Y-87122000D01*
X134112000Y-89408000D01*
X134132000Y-89408000D01*
X134132000Y-89662000D01*
X134112000Y-89662000D01*
X134112000Y-90874850D01*
X134270750Y-91033600D01*
X134974909Y-91033600D01*
X135208298Y-90936927D01*
X135386927Y-90758299D01*
X135450644Y-90604474D01*
X135922152Y-90919526D01*
X136495641Y-91033600D01*
X136554359Y-91033600D01*
X137127848Y-90919526D01*
X137614029Y-90594670D01*
X137795000Y-90323828D01*
X137975971Y-90594670D01*
X138462152Y-90919526D01*
X139035641Y-91033600D01*
X139094359Y-91033600D01*
X139667848Y-90919526D01*
X140154029Y-90594670D01*
X140335000Y-90323828D01*
X140515971Y-90594670D01*
X141002152Y-90919526D01*
X141575641Y-91033600D01*
X141634359Y-91033600D01*
X142207848Y-90919526D01*
X142694029Y-90594670D01*
X142875000Y-90323828D01*
X143055971Y-90594670D01*
X143542152Y-90919526D01*
X144115641Y-91033600D01*
X144174359Y-91033600D01*
X144747848Y-90919526D01*
X145234029Y-90594670D01*
X145415000Y-90323828D01*
X145595971Y-90594670D01*
X146082152Y-90919526D01*
X146655641Y-91033600D01*
X146714359Y-91033600D01*
X147043356Y-90968158D01*
X148052599Y-91977401D01*
X148299161Y-92142148D01*
X148590000Y-92200000D01*
X155647537Y-92200000D01*
X155679673Y-92232192D01*
X156023201Y-92374838D01*
X156395167Y-92375162D01*
X156738943Y-92233117D01*
X157002192Y-91970327D01*
X157144838Y-91626799D01*
X157145162Y-91254833D01*
X157040126Y-91000627D01*
X157447848Y-90919526D01*
X157652788Y-90782590D01*
X168305716Y-101435518D01*
X168303113Y-101435000D01*
X168246887Y-101435000D01*
X167697736Y-101544233D01*
X167232189Y-101855302D01*
X166921120Y-102320849D01*
X166811887Y-102870000D01*
X166921120Y-103419151D01*
X167232189Y-103884698D01*
X167614275Y-104140000D01*
X167232189Y-104395302D01*
X166921120Y-104860849D01*
X166811887Y-105410000D01*
X166921120Y-105959151D01*
X167232189Y-106424698D01*
X167614275Y-106680000D01*
X167232189Y-106935302D01*
X166921120Y-107400849D01*
X166811887Y-107950000D01*
X166913332Y-108460000D01*
X166684802Y-108460000D01*
X165860000Y-107635198D01*
X165860000Y-103505000D01*
X165802148Y-103214161D01*
X165637401Y-102967599D01*
X165002401Y-102332599D01*
X164755839Y-102167852D01*
X164465000Y-102110000D01*
X162102440Y-102110000D01*
X162102440Y-102070000D01*
X162058162Y-101834683D01*
X161919090Y-101618559D01*
X161706890Y-101473569D01*
X161455000Y-101422560D01*
X159855000Y-101422560D01*
X159619683Y-101466838D01*
X159403559Y-101605910D01*
X159258569Y-101818110D01*
X159207560Y-102070000D01*
X159207560Y-103670000D01*
X159251838Y-103905317D01*
X159390910Y-104121441D01*
X159603110Y-104266431D01*
X159758089Y-104297815D01*
X159612189Y-104395302D01*
X159301120Y-104860849D01*
X159191887Y-105410000D01*
X159301120Y-105959151D01*
X159612189Y-106424698D01*
X159994275Y-106680000D01*
X159612189Y-106935302D01*
X159301120Y-107400849D01*
X159191887Y-107950000D01*
X159301120Y-108499151D01*
X159612189Y-108964698D01*
X159994275Y-109220000D01*
X159612189Y-109475302D01*
X159442005Y-109730000D01*
X159385000Y-109730000D01*
X159094161Y-109787852D01*
X158847599Y-109952599D01*
X157249598Y-111550600D01*
X157031799Y-111460162D01*
X156659833Y-111459838D01*
X156316057Y-111601883D01*
X156052808Y-111864673D01*
X155910162Y-112208201D01*
X155909838Y-112580167D01*
X156051883Y-112923943D01*
X156314673Y-113187192D01*
X156658201Y-113329838D01*
X157030167Y-113330162D01*
X157373943Y-113188117D01*
X157407118Y-113155000D01*
X157480000Y-113155000D01*
X157770839Y-113097148D01*
X158017401Y-112932401D01*
X159545264Y-111404538D01*
X159612189Y-111504698D01*
X159994275Y-111760000D01*
X159612189Y-112015302D01*
X159301120Y-112480849D01*
X159191887Y-113030000D01*
X159301120Y-113579151D01*
X159612189Y-114044698D01*
X159994275Y-114300000D01*
X159612189Y-114555302D01*
X159301120Y-115020849D01*
X159191887Y-115570000D01*
X159301120Y-116119151D01*
X159612189Y-116584698D01*
X159994275Y-116840000D01*
X159612189Y-117095302D01*
X159301120Y-117560849D01*
X159191887Y-118110000D01*
X159301120Y-118659151D01*
X159612189Y-119124698D01*
X160016703Y-119394986D01*
X159799866Y-119497611D01*
X159423959Y-119912577D01*
X159263096Y-120300961D01*
X159385085Y-120523000D01*
X160528000Y-120523000D01*
X160528000Y-120503000D01*
X160782000Y-120503000D01*
X160782000Y-120523000D01*
X161924915Y-120523000D01*
X162046904Y-120300961D01*
X161886041Y-119912577D01*
X161510134Y-119497611D01*
X161293297Y-119394986D01*
X161697811Y-119124698D01*
X161867995Y-118870000D01*
X162245198Y-118870000D01*
X163529878Y-120154680D01*
X163529838Y-120200167D01*
X163671883Y-120543943D01*
X163934673Y-120807192D01*
X164278201Y-120949838D01*
X164650167Y-120950162D01*
X164993943Y-120808117D01*
X165257192Y-120545327D01*
X165399838Y-120201799D01*
X165400162Y-119829833D01*
X165258117Y-119486057D01*
X164995327Y-119222808D01*
X164651799Y-119080162D01*
X164604923Y-119080121D01*
X163097401Y-117572599D01*
X162850839Y-117407852D01*
X162560000Y-117350000D01*
X161867995Y-117350000D01*
X161697811Y-117095302D01*
X161315725Y-116840000D01*
X161697811Y-116584698D01*
X162008880Y-116119151D01*
X162118113Y-115570000D01*
X162008880Y-115020849D01*
X161697811Y-114555302D01*
X161315725Y-114300000D01*
X161697811Y-114044698D01*
X162008880Y-113579151D01*
X162013828Y-113554275D01*
X162022599Y-113567401D01*
X163529878Y-115074680D01*
X163529838Y-115120167D01*
X163671883Y-115463943D01*
X163934673Y-115727192D01*
X164278201Y-115869838D01*
X164650167Y-115870162D01*
X164993943Y-115728117D01*
X165257192Y-115465327D01*
X165399838Y-115121799D01*
X165400162Y-114749833D01*
X165258117Y-114406057D01*
X165152290Y-114300046D01*
X165257192Y-114195327D01*
X165399838Y-113851799D01*
X165400162Y-113479833D01*
X165258117Y-113136057D01*
X164995327Y-112872808D01*
X164651799Y-112730162D01*
X164604923Y-112730121D01*
X163955000Y-112080198D01*
X163955000Y-107950000D01*
X163897148Y-107659161D01*
X163897148Y-107659160D01*
X163732401Y-107412599D01*
X162053688Y-105733886D01*
X162118113Y-105410000D01*
X162008880Y-104860849D01*
X161697811Y-104395302D01*
X161553535Y-104298899D01*
X161690317Y-104273162D01*
X161906441Y-104134090D01*
X162051431Y-103921890D01*
X162102440Y-103670000D01*
X162102440Y-103630000D01*
X164150198Y-103630000D01*
X164340000Y-103819802D01*
X164340000Y-107950000D01*
X164397852Y-108240839D01*
X164562599Y-108487401D01*
X165832599Y-109757401D01*
X166079160Y-109922148D01*
X166370000Y-109980000D01*
X166913332Y-109980000D01*
X166811887Y-110490000D01*
X166921120Y-111039151D01*
X167232189Y-111504698D01*
X167614275Y-111760000D01*
X167232189Y-112015302D01*
X166921120Y-112480849D01*
X166811887Y-113030000D01*
X166921120Y-113579151D01*
X167232189Y-114044698D01*
X167614275Y-114300000D01*
X167232189Y-114555302D01*
X166921120Y-115020849D01*
X166811887Y-115570000D01*
X166921120Y-116119151D01*
X167232189Y-116584698D01*
X167636703Y-116854986D01*
X167419866Y-116957611D01*
X167043959Y-117372577D01*
X166883096Y-117760961D01*
X167005085Y-117983000D01*
X168148000Y-117983000D01*
X168148000Y-117963000D01*
X168402000Y-117963000D01*
X168402000Y-117983000D01*
X169544915Y-117983000D01*
X169666904Y-117760961D01*
X169506041Y-117372577D01*
X169130134Y-116957611D01*
X168913297Y-116854986D01*
X169317811Y-116584698D01*
X169628880Y-116119151D01*
X169738113Y-115570000D01*
X169628880Y-115020849D01*
X169317811Y-114555302D01*
X168935725Y-114300000D01*
X169317811Y-114044698D01*
X169628880Y-113579151D01*
X169738113Y-113030000D01*
X169628880Y-112480849D01*
X169317811Y-112015302D01*
X168935725Y-111760000D01*
X169317811Y-111504698D01*
X169628880Y-111039151D01*
X169738113Y-110490000D01*
X169633179Y-109962460D01*
X169835839Y-109922148D01*
X170082401Y-109757401D01*
X170494802Y-109345000D01*
X176467188Y-109345000D01*
X176403569Y-109438110D01*
X176352560Y-109690000D01*
X176352560Y-111290000D01*
X176396838Y-111525317D01*
X176535910Y-111741441D01*
X176748110Y-111886431D01*
X177000000Y-111937440D01*
X178600000Y-111937440D01*
X178835317Y-111893162D01*
X179051441Y-111754090D01*
X179196431Y-111541890D01*
X179227815Y-111386911D01*
X179325302Y-111532811D01*
X179790849Y-111843880D01*
X180340000Y-111953113D01*
X180889151Y-111843880D01*
X181354698Y-111532811D01*
X181610000Y-111150725D01*
X181865302Y-111532811D01*
X182330849Y-111843880D01*
X182880000Y-111953113D01*
X183429151Y-111843880D01*
X183894698Y-111532811D01*
X184150000Y-111150725D01*
X184405302Y-111532811D01*
X184870849Y-111843880D01*
X185420000Y-111953113D01*
X185969151Y-111843880D01*
X186434698Y-111532811D01*
X186690000Y-111150725D01*
X186945302Y-111532811D01*
X187410849Y-111843880D01*
X187960000Y-111953113D01*
X188509151Y-111843880D01*
X188974698Y-111532811D01*
X189230000Y-111150725D01*
X189485302Y-111532811D01*
X189950849Y-111843880D01*
X190500000Y-111953113D01*
X191049151Y-111843880D01*
X191514698Y-111532811D01*
X191770000Y-111150725D01*
X192025302Y-111532811D01*
X192490849Y-111843880D01*
X193040000Y-111953113D01*
X193589151Y-111843880D01*
X194054698Y-111532811D01*
X194310000Y-111150725D01*
X194565302Y-111532811D01*
X195030849Y-111843880D01*
X195580000Y-111953113D01*
X196129151Y-111843880D01*
X196594698Y-111532811D01*
X196850000Y-111150725D01*
X197105302Y-111532811D01*
X197570849Y-111843880D01*
X198120000Y-111953113D01*
X198669151Y-111843880D01*
X199134698Y-111532811D01*
X199404986Y-111128297D01*
X199507611Y-111345134D01*
X199922577Y-111721041D01*
X200310961Y-111881904D01*
X200533000Y-111759915D01*
X200533000Y-110617000D01*
X200513000Y-110617000D01*
X200513000Y-110363000D01*
X200533000Y-110363000D01*
X200533000Y-109220085D01*
X200787000Y-109220085D01*
X200787000Y-110363000D01*
X200807000Y-110363000D01*
X200807000Y-110617000D01*
X200787000Y-110617000D01*
X200787000Y-111759915D01*
X201009039Y-111881904D01*
X201397423Y-111721041D01*
X201812389Y-111345134D01*
X201915014Y-111128297D01*
X202185302Y-111532811D01*
X202650849Y-111843880D01*
X203200000Y-111953113D01*
X203749151Y-111843880D01*
X204214698Y-111532811D01*
X204470000Y-111150725D01*
X204725302Y-111532811D01*
X205190849Y-111843880D01*
X205740000Y-111953113D01*
X206289151Y-111843880D01*
X206754698Y-111532811D01*
X207010000Y-111150725D01*
X207265302Y-111532811D01*
X207730849Y-111843880D01*
X208280000Y-111953113D01*
X208829151Y-111843880D01*
X209294698Y-111532811D01*
X209550000Y-111150725D01*
X209805302Y-111532811D01*
X210270849Y-111843880D01*
X210820000Y-111953113D01*
X211369151Y-111843880D01*
X211834698Y-111532811D01*
X212145767Y-111067264D01*
X212255000Y-110518113D01*
X212255000Y-110461887D01*
X212145767Y-109912736D01*
X211834698Y-109447189D01*
X211369151Y-109136120D01*
X210820000Y-109026887D01*
X210270849Y-109136120D01*
X209805302Y-109447189D01*
X209550000Y-109829275D01*
X209294698Y-109447189D01*
X208829151Y-109136120D01*
X208280000Y-109026887D01*
X207730849Y-109136120D01*
X207265302Y-109447189D01*
X207010000Y-109829275D01*
X206754698Y-109447189D01*
X206289151Y-109136120D01*
X205740000Y-109026887D01*
X205190849Y-109136120D01*
X204725302Y-109447189D01*
X204470000Y-109829275D01*
X204214698Y-109447189D01*
X203749151Y-109136120D01*
X203200000Y-109026887D01*
X202650849Y-109136120D01*
X202185302Y-109447189D01*
X201915014Y-109851703D01*
X201812389Y-109634866D01*
X201397423Y-109258959D01*
X201009039Y-109098096D01*
X200787000Y-109220085D01*
X200533000Y-109220085D01*
X200310961Y-109098096D01*
X199922577Y-109258959D01*
X199507611Y-109634866D01*
X199404986Y-109851703D01*
X199134698Y-109447189D01*
X198880000Y-109277005D01*
X198880000Y-108585000D01*
X198822148Y-108294161D01*
X198822148Y-108294160D01*
X198657401Y-108047599D01*
X197785122Y-107175320D01*
X197785162Y-107129833D01*
X197643117Y-106786057D01*
X197380327Y-106522808D01*
X197036799Y-106380162D01*
X196664833Y-106379838D01*
X196321057Y-106521883D01*
X196057808Y-106784673D01*
X195915162Y-107128201D01*
X195914838Y-107500167D01*
X196056883Y-107843943D01*
X196319673Y-108107192D01*
X196663201Y-108249838D01*
X196710077Y-108249879D01*
X197360000Y-108899802D01*
X197360000Y-109277005D01*
X197105302Y-109447189D01*
X196850000Y-109829275D01*
X196594698Y-109447189D01*
X196129151Y-109136120D01*
X195580000Y-109026887D01*
X195030849Y-109136120D01*
X194565302Y-109447189D01*
X194310000Y-109829275D01*
X194054698Y-109447189D01*
X193589151Y-109136120D01*
X193040000Y-109026887D01*
X192490849Y-109136120D01*
X192025302Y-109447189D01*
X191770000Y-109829275D01*
X191514698Y-109447189D01*
X191049151Y-109136120D01*
X190500000Y-109026887D01*
X189950849Y-109136120D01*
X189485302Y-109447189D01*
X189230000Y-109829275D01*
X188974698Y-109447189D01*
X188509151Y-109136120D01*
X187960000Y-109026887D01*
X187410849Y-109136120D01*
X186945302Y-109447189D01*
X186690000Y-109829275D01*
X186434698Y-109447189D01*
X185969151Y-109136120D01*
X185420000Y-109026887D01*
X184870849Y-109136120D01*
X184405302Y-109447189D01*
X184150000Y-109829275D01*
X183894698Y-109447189D01*
X183887850Y-109442613D01*
X184043943Y-109378117D01*
X184307192Y-109115327D01*
X184449838Y-108771799D01*
X184450162Y-108399833D01*
X184308117Y-108056057D01*
X184078631Y-107826171D01*
X187227401Y-104677401D01*
X187392148Y-104430839D01*
X187432460Y-104228179D01*
X187960000Y-104333113D01*
X188509151Y-104223880D01*
X188974698Y-103912811D01*
X189230000Y-103530725D01*
X189485302Y-103912811D01*
X189950849Y-104223880D01*
X190500000Y-104333113D01*
X191049151Y-104223880D01*
X191514698Y-103912811D01*
X191770000Y-103530725D01*
X192025302Y-103912811D01*
X192490849Y-104223880D01*
X193040000Y-104333113D01*
X193589151Y-104223880D01*
X194054698Y-103912811D01*
X194310000Y-103530725D01*
X194565302Y-103912811D01*
X195030849Y-104223880D01*
X195580000Y-104333113D01*
X196129151Y-104223880D01*
X196594698Y-103912811D01*
X196850000Y-103530725D01*
X197105302Y-103912811D01*
X197570849Y-104223880D01*
X198120000Y-104333113D01*
X198669151Y-104223880D01*
X199134698Y-103912811D01*
X199390000Y-103530725D01*
X199645302Y-103912811D01*
X200110849Y-104223880D01*
X200660000Y-104333113D01*
X201209151Y-104223880D01*
X201674698Y-103912811D01*
X201930000Y-103530725D01*
X202185302Y-103912811D01*
X202650849Y-104223880D01*
X203200000Y-104333113D01*
X203749151Y-104223880D01*
X204214698Y-103912811D01*
X204484986Y-103508297D01*
X204587611Y-103725134D01*
X205002577Y-104101041D01*
X205390961Y-104261904D01*
X205613000Y-104139915D01*
X205613000Y-102997000D01*
X205867000Y-102997000D01*
X205867000Y-104139915D01*
X206089039Y-104261904D01*
X206477423Y-104101041D01*
X206892389Y-103725134D01*
X207010000Y-103476633D01*
X207127611Y-103725134D01*
X207542577Y-104101041D01*
X207930961Y-104261904D01*
X208153000Y-104139915D01*
X208153000Y-102997000D01*
X208407000Y-102997000D01*
X208407000Y-104139915D01*
X208629039Y-104261904D01*
X209017423Y-104101041D01*
X209432389Y-103725134D01*
X209550000Y-103476633D01*
X209667611Y-103725134D01*
X210082577Y-104101041D01*
X210470961Y-104261904D01*
X210693000Y-104139915D01*
X210693000Y-102997000D01*
X210947000Y-102997000D01*
X210947000Y-104139915D01*
X211169039Y-104261904D01*
X211557423Y-104101041D01*
X211972389Y-103725134D01*
X212211914Y-103219041D01*
X212090629Y-102997000D01*
X210947000Y-102997000D01*
X210693000Y-102997000D01*
X208407000Y-102997000D01*
X208153000Y-102997000D01*
X205867000Y-102997000D01*
X205613000Y-102997000D01*
X205593000Y-102997000D01*
X205593000Y-102743000D01*
X205613000Y-102743000D01*
X205613000Y-101600085D01*
X205867000Y-101600085D01*
X205867000Y-102743000D01*
X208153000Y-102743000D01*
X208153000Y-101600085D01*
X208407000Y-101600085D01*
X208407000Y-102743000D01*
X210693000Y-102743000D01*
X210693000Y-101600085D01*
X210947000Y-101600085D01*
X210947000Y-102743000D01*
X212090629Y-102743000D01*
X212211914Y-102520959D01*
X211972389Y-102014866D01*
X211557423Y-101638959D01*
X211169039Y-101478096D01*
X210947000Y-101600085D01*
X210693000Y-101600085D01*
X210470961Y-101478096D01*
X210082577Y-101638959D01*
X209667611Y-102014866D01*
X209550000Y-102263367D01*
X209432389Y-102014866D01*
X209017423Y-101638959D01*
X208629039Y-101478096D01*
X208407000Y-101600085D01*
X208153000Y-101600085D01*
X207930961Y-101478096D01*
X207542577Y-101638959D01*
X207127611Y-102014866D01*
X207010000Y-102263367D01*
X206892389Y-102014866D01*
X206477423Y-101638959D01*
X206089039Y-101478096D01*
X205867000Y-101600085D01*
X205613000Y-101600085D01*
X205390961Y-101478096D01*
X205002577Y-101638959D01*
X204587611Y-102014866D01*
X204484986Y-102231703D01*
X204214698Y-101827189D01*
X203749151Y-101516120D01*
X203200000Y-101406887D01*
X202650849Y-101516120D01*
X202185302Y-101827189D01*
X201930000Y-102209275D01*
X201674698Y-101827189D01*
X201209151Y-101516120D01*
X200660000Y-101406887D01*
X200110849Y-101516120D01*
X199645302Y-101827189D01*
X199390000Y-102209275D01*
X199134698Y-101827189D01*
X198669151Y-101516120D01*
X198120000Y-101406887D01*
X197570849Y-101516120D01*
X197105302Y-101827189D01*
X196850000Y-102209275D01*
X196594698Y-101827189D01*
X196129151Y-101516120D01*
X195580000Y-101406887D01*
X195030849Y-101516120D01*
X194565302Y-101827189D01*
X194310000Y-102209275D01*
X194054698Y-101827189D01*
X193589151Y-101516120D01*
X193040000Y-101406887D01*
X192490849Y-101516120D01*
X192025302Y-101827189D01*
X191770000Y-102209275D01*
X191514698Y-101827189D01*
X191049151Y-101516120D01*
X190500000Y-101406887D01*
X189950849Y-101516120D01*
X189485302Y-101827189D01*
X189230000Y-102209275D01*
X188974698Y-101827189D01*
X188509151Y-101516120D01*
X187960000Y-101406887D01*
X187450000Y-101508332D01*
X187450000Y-95812463D01*
X187482192Y-95780327D01*
X187624838Y-95436799D01*
X187625162Y-95064833D01*
X187483117Y-94721057D01*
X187220327Y-94457808D01*
X186876799Y-94315162D01*
X186504833Y-94314838D01*
X186161057Y-94456883D01*
X185897808Y-94719673D01*
X185755162Y-95063201D01*
X185754838Y-95435167D01*
X185896883Y-95778943D01*
X185930000Y-95812118D01*
X185930000Y-101508332D01*
X185420000Y-101406887D01*
X184910000Y-101508332D01*
X184910000Y-95812463D01*
X184942192Y-95780327D01*
X185084838Y-95436799D01*
X185085162Y-95064833D01*
X184943117Y-94721057D01*
X184680327Y-94457808D01*
X184336799Y-94315162D01*
X183964833Y-94314838D01*
X183621057Y-94456883D01*
X183357808Y-94719673D01*
X183215162Y-95063201D01*
X183214838Y-95435167D01*
X183356883Y-95778943D01*
X183390000Y-95812118D01*
X183390000Y-101508332D01*
X182880000Y-101406887D01*
X182370000Y-101508332D01*
X182370000Y-95812463D01*
X182402192Y-95780327D01*
X182544838Y-95436799D01*
X182545162Y-95064833D01*
X182403117Y-94721057D01*
X182140327Y-94457808D01*
X181796799Y-94315162D01*
X181424833Y-94314838D01*
X181081057Y-94456883D01*
X180817808Y-94719673D01*
X180675162Y-95063201D01*
X180674838Y-95435167D01*
X180816883Y-95778943D01*
X180850000Y-95812118D01*
X180850000Y-101508332D01*
X180340000Y-101406887D01*
X179812460Y-101511821D01*
X179791587Y-101406887D01*
X179772148Y-101309160D01*
X179607401Y-101062599D01*
X170305000Y-91760198D01*
X170305000Y-90814520D01*
X170634029Y-90594670D01*
X170815000Y-90323828D01*
X170995971Y-90594670D01*
X171482152Y-90919526D01*
X172055641Y-91033600D01*
X172114359Y-91033600D01*
X172687848Y-90919526D01*
X173174029Y-90594670D01*
X173355000Y-90323828D01*
X173535971Y-90594670D01*
X174022152Y-90919526D01*
X174595641Y-91033600D01*
X174654359Y-91033600D01*
X175227848Y-90919526D01*
X175714029Y-90594670D01*
X175895000Y-90323828D01*
X176075971Y-90594670D01*
X176562152Y-90919526D01*
X177135641Y-91033600D01*
X177194359Y-91033600D01*
X177767848Y-90919526D01*
X178254029Y-90594670D01*
X178435000Y-90323828D01*
X178615971Y-90594670D01*
X179102152Y-90919526D01*
X179675641Y-91033600D01*
X179734359Y-91033600D01*
X180307848Y-90919526D01*
X180794029Y-90594670D01*
X180974992Y-90323839D01*
X181356510Y-90741821D01*
X181885973Y-90989968D01*
X182118000Y-90869469D01*
X182118000Y-89662000D01*
X182372000Y-89662000D01*
X182372000Y-90869469D01*
X182604027Y-90989968D01*
X183133490Y-90741821D01*
X183527688Y-90309947D01*
X183699958Y-89894026D01*
X183578817Y-89662000D01*
X182372000Y-89662000D01*
X182118000Y-89662000D01*
X182098000Y-89662000D01*
X182098000Y-89408000D01*
X182118000Y-89408000D01*
X182118000Y-87122000D01*
X182372000Y-87122000D01*
X182372000Y-89408000D01*
X183578817Y-89408000D01*
X183699958Y-89175974D01*
X183527688Y-88760053D01*
X183133490Y-88328179D01*
X182998687Y-88265000D01*
X183133490Y-88201821D01*
X183396031Y-87914187D01*
X207559752Y-87914187D01*
X207777757Y-88441800D01*
X208181077Y-88845824D01*
X208708309Y-89064750D01*
X209279187Y-89065248D01*
X209806800Y-88847243D01*
X210210824Y-88443923D01*
X210429750Y-87916691D01*
X210430248Y-87345813D01*
X210212243Y-86818200D01*
X209808923Y-86414176D01*
X209281691Y-86195250D01*
X208710813Y-86194752D01*
X208183200Y-86412757D01*
X207779176Y-86816077D01*
X207560250Y-87343309D01*
X207559752Y-87914187D01*
X183396031Y-87914187D01*
X183527688Y-87769947D01*
X183699958Y-87354026D01*
X183578817Y-87122000D01*
X182372000Y-87122000D01*
X182118000Y-87122000D01*
X182098000Y-87122000D01*
X182098000Y-86868000D01*
X182118000Y-86868000D01*
X182118000Y-85660531D01*
X182372000Y-85660531D01*
X182372000Y-86868000D01*
X183578817Y-86868000D01*
X183699958Y-86635974D01*
X183527688Y-86220053D01*
X183133490Y-85788179D01*
X182604027Y-85540032D01*
X182372000Y-85660531D01*
X182118000Y-85660531D01*
X181885973Y-85540032D01*
X181356510Y-85788179D01*
X180974992Y-86206161D01*
X180794029Y-85935330D01*
X180307848Y-85610474D01*
X179734359Y-85496400D01*
X179675641Y-85496400D01*
X179102152Y-85610474D01*
X178615971Y-85935330D01*
X178435000Y-86206172D01*
X178254029Y-85935330D01*
X177767848Y-85610474D01*
X177194359Y-85496400D01*
X177135641Y-85496400D01*
X176562152Y-85610474D01*
X176075971Y-85935330D01*
X175895000Y-86206172D01*
X175714029Y-85935330D01*
X175227848Y-85610474D01*
X174654359Y-85496400D01*
X174595641Y-85496400D01*
X174022152Y-85610474D01*
X173535971Y-85935330D01*
X173355000Y-86206172D01*
X173174029Y-85935330D01*
X172687848Y-85610474D01*
X172114359Y-85496400D01*
X172055641Y-85496400D01*
X171482152Y-85610474D01*
X170995971Y-85935330D01*
X170815000Y-86206172D01*
X170634029Y-85935330D01*
X170147848Y-85610474D01*
X169574359Y-85496400D01*
X169515641Y-85496400D01*
X168942152Y-85610474D01*
X168455971Y-85935330D01*
X168275000Y-86206172D01*
X168094029Y-85935330D01*
X167607848Y-85610474D01*
X167034359Y-85496400D01*
X166975641Y-85496400D01*
X166402152Y-85610474D01*
X165915971Y-85935330D01*
X165735000Y-86206172D01*
X165554029Y-85935330D01*
X165067848Y-85610474D01*
X164494359Y-85496400D01*
X164435641Y-85496400D01*
X163862152Y-85610474D01*
X163375971Y-85935330D01*
X163195000Y-86206172D01*
X163014029Y-85935330D01*
X162527848Y-85610474D01*
X161954359Y-85496400D01*
X161895641Y-85496400D01*
X161322152Y-85610474D01*
X160835971Y-85935330D01*
X160655000Y-86206172D01*
X160474029Y-85935330D01*
X159987848Y-85610474D01*
X159414359Y-85496400D01*
X159355641Y-85496400D01*
X158782152Y-85610474D01*
X158295971Y-85935330D01*
X158115000Y-86206172D01*
X157934029Y-85935330D01*
X157447848Y-85610474D01*
X156874359Y-85496400D01*
X156815641Y-85496400D01*
X156242152Y-85610474D01*
X155755971Y-85935330D01*
X155575000Y-86206172D01*
X155394029Y-85935330D01*
X154907848Y-85610474D01*
X154334359Y-85496400D01*
X154275641Y-85496400D01*
X153702152Y-85610474D01*
X153215971Y-85935330D01*
X153035000Y-86206172D01*
X152854029Y-85935330D01*
X152367848Y-85610474D01*
X151794359Y-85496400D01*
X151735641Y-85496400D01*
X151162152Y-85610474D01*
X150675971Y-85935330D01*
X150495000Y-86206172D01*
X150314029Y-85935330D01*
X149827848Y-85610474D01*
X149254359Y-85496400D01*
X149195641Y-85496400D01*
X148622152Y-85610474D01*
X148135971Y-85935330D01*
X147955000Y-86206172D01*
X147774029Y-85935330D01*
X147287848Y-85610474D01*
X146714359Y-85496400D01*
X146655641Y-85496400D01*
X146082152Y-85610474D01*
X145595971Y-85935330D01*
X145415000Y-86206172D01*
X145234029Y-85935330D01*
X144747848Y-85610474D01*
X144174359Y-85496400D01*
X144115641Y-85496400D01*
X143542152Y-85610474D01*
X143055971Y-85935330D01*
X142875000Y-86206172D01*
X142694029Y-85935330D01*
X142207848Y-85610474D01*
X141634359Y-85496400D01*
X141575641Y-85496400D01*
X141002152Y-85610474D01*
X140515971Y-85935330D01*
X140335000Y-86206172D01*
X140154029Y-85935330D01*
X139667848Y-85610474D01*
X139094359Y-85496400D01*
X139035641Y-85496400D01*
X138462152Y-85610474D01*
X137975971Y-85935330D01*
X137795000Y-86206172D01*
X137614029Y-85935330D01*
X137127848Y-85610474D01*
X136554359Y-85496400D01*
X136495641Y-85496400D01*
X135922152Y-85610474D01*
X135435971Y-85935330D01*
X135255008Y-86206161D01*
X134873490Y-85788179D01*
X134344027Y-85540032D01*
X134112000Y-85660531D01*
X133858000Y-85660531D01*
X133625973Y-85540032D01*
X133096510Y-85788179D01*
X132702312Y-86220053D01*
X132530042Y-86635974D01*
X116915000Y-86635974D01*
X116915000Y-81990000D01*
X192177560Y-81990000D01*
X192177560Y-83400000D01*
X192177560Y-83400000D01*
G37*
X192177560Y-83400000D02*
X192221838Y-83635317D01*
X192360910Y-83851441D01*
X192573110Y-83996431D01*
X192825000Y-84047440D01*
X194525000Y-84047440D01*
X194760317Y-84003162D01*
X194976441Y-83864090D01*
X195121431Y-83651890D01*
X195135086Y-83584459D01*
X195164946Y-83629147D01*
X195646715Y-83951054D01*
X196215000Y-84064093D01*
X196783285Y-83951054D01*
X197265054Y-83629147D01*
X197586961Y-83147378D01*
X197648947Y-82835750D01*
X199810000Y-82835750D01*
X199810000Y-83526309D01*
X199906673Y-83759698D01*
X200085301Y-83938327D01*
X200318690Y-84035000D01*
X201009250Y-84035000D01*
X201168000Y-83876250D01*
X201168000Y-82677000D01*
X201422000Y-82677000D01*
X201422000Y-83876250D01*
X201580750Y-84035000D01*
X202271310Y-84035000D01*
X202504699Y-83938327D01*
X202683327Y-83759698D01*
X202770136Y-83550122D01*
X203068076Y-83821645D01*
X203478110Y-83991476D01*
X203708000Y-83870155D01*
X203708000Y-82677000D01*
X201422000Y-82677000D01*
X201168000Y-82677000D01*
X199968750Y-82677000D01*
X199810000Y-82835750D01*
X197648947Y-82835750D01*
X197700000Y-82579093D01*
X197700000Y-82520907D01*
X197594396Y-81990000D01*
X199810000Y-81990000D01*
X199810000Y-82264250D01*
X199968750Y-82423000D01*
X201168000Y-82423000D01*
X201168000Y-82403000D01*
X201422000Y-82403000D01*
X201422000Y-82423000D01*
X203708000Y-82423000D01*
X203708000Y-82403000D01*
X203962000Y-82403000D01*
X203962000Y-82423000D01*
X203982000Y-82423000D01*
X203982000Y-82677000D01*
X203962000Y-82677000D01*
X203962000Y-83870155D01*
X204191890Y-83991476D01*
X204601924Y-83821645D01*
X205030183Y-83431358D01*
X205097298Y-83288447D01*
X205324946Y-83629147D01*
X205806715Y-83951054D01*
X206375000Y-84064093D01*
X206943285Y-83951054D01*
X207425054Y-83629147D01*
X207645000Y-83299974D01*
X207864946Y-83629147D01*
X208346715Y-83951054D01*
X208915000Y-84064093D01*
X209483285Y-83951054D01*
X209965054Y-83629147D01*
X210185000Y-83299974D01*
X210404946Y-83629147D01*
X210886715Y-83951054D01*
X211455000Y-84064093D01*
X212023285Y-83951054D01*
X212505054Y-83629147D01*
X212725000Y-83299974D01*
X212944946Y-83629147D01*
X213426715Y-83951054D01*
X213995000Y-84064093D01*
X214555000Y-83952702D01*
X214555000Y-86308738D01*
X214281691Y-86195250D01*
X213710813Y-86194752D01*
X213183200Y-86412757D01*
X212779176Y-86816077D01*
X212560250Y-87343309D01*
X212559752Y-87914187D01*
X212777757Y-88441800D01*
X213181077Y-88845824D01*
X213708309Y-89064750D01*
X214279187Y-89065248D01*
X214555000Y-88951285D01*
X214555000Y-144552560D01*
X213145000Y-144552560D01*
X212909683Y-144596838D01*
X212693559Y-144735910D01*
X212548569Y-144948110D01*
X212534914Y-145015541D01*
X212505054Y-144970853D01*
X212023285Y-144648946D01*
X211455000Y-144535907D01*
X210886715Y-144648946D01*
X210404946Y-144970853D01*
X210185000Y-145300026D01*
X209965054Y-144970853D01*
X209483285Y-144648946D01*
X208915000Y-144535907D01*
X208346715Y-144648946D01*
X207864946Y-144970853D01*
X207645000Y-145300026D01*
X207425054Y-144970853D01*
X206943285Y-144648946D01*
X206375000Y-144535907D01*
X205806715Y-144648946D01*
X205324946Y-144970853D01*
X205105000Y-145300026D01*
X204885054Y-144970853D01*
X204403285Y-144648946D01*
X203835000Y-144535907D01*
X203266715Y-144648946D01*
X202784946Y-144970853D01*
X202565000Y-145300026D01*
X202345054Y-144970853D01*
X201863285Y-144648946D01*
X201295000Y-144535907D01*
X200726715Y-144648946D01*
X200244946Y-144970853D01*
X200025000Y-145300026D01*
X199805054Y-144970853D01*
X199323285Y-144648946D01*
X198755000Y-144535907D01*
X198186715Y-144648946D01*
X197704946Y-144970853D01*
X197485000Y-145300026D01*
X197265054Y-144970853D01*
X196783285Y-144648946D01*
X196215000Y-144535907D01*
X195646715Y-144648946D01*
X195164946Y-144970853D01*
X194945000Y-145300026D01*
X194725054Y-144970853D01*
X194243285Y-144648946D01*
X193675000Y-144535907D01*
X193106715Y-144648946D01*
X192624946Y-144970853D01*
X192405000Y-145300026D01*
X192185054Y-144970853D01*
X191703285Y-144648946D01*
X191135000Y-144535907D01*
X190566715Y-144648946D01*
X190084946Y-144970853D01*
X189865000Y-145300026D01*
X189645054Y-144970853D01*
X189163285Y-144648946D01*
X188595000Y-144535907D01*
X188026715Y-144648946D01*
X187544946Y-144970853D01*
X187325000Y-145300026D01*
X187105054Y-144970853D01*
X186623285Y-144648946D01*
X186055000Y-144535907D01*
X185486715Y-144648946D01*
X185004946Y-144970853D01*
X184785000Y-145300026D01*
X184565054Y-144970853D01*
X184083285Y-144648946D01*
X183515000Y-144535907D01*
X182946715Y-144648946D01*
X182464946Y-144970853D01*
X182245000Y-145300026D01*
X182025054Y-144970853D01*
X181543285Y-144648946D01*
X180975000Y-144535907D01*
X180406715Y-144648946D01*
X179924946Y-144970853D01*
X179705000Y-145300026D01*
X179485054Y-144970853D01*
X179003285Y-144648946D01*
X178435000Y-144535907D01*
X177866715Y-144648946D01*
X177384946Y-144970853D01*
X177165000Y-145300026D01*
X176945054Y-144970853D01*
X176463285Y-144648946D01*
X175895000Y-144535907D01*
X175326715Y-144648946D01*
X174844946Y-144970853D01*
X174617298Y-145311553D01*
X174550183Y-145168642D01*
X174121924Y-144778355D01*
X173711890Y-144608524D01*
X173482000Y-144729845D01*
X173482000Y-145923000D01*
X173502000Y-145923000D01*
X173502000Y-146177000D01*
X173482000Y-146177000D01*
X173482000Y-146197000D01*
X173228000Y-146197000D01*
X173228000Y-146177000D01*
X173208000Y-146177000D01*
X173208000Y-145923000D01*
X173228000Y-145923000D01*
X173228000Y-144729845D01*
X172998110Y-144608524D01*
X172588076Y-144778355D01*
X172159817Y-145168642D01*
X172092702Y-145311553D01*
X171865054Y-144970853D01*
X171383285Y-144648946D01*
X170815000Y-144535907D01*
X170246715Y-144648946D01*
X169764946Y-144970853D01*
X169545000Y-145300026D01*
X169325054Y-144970853D01*
X168843285Y-144648946D01*
X168275000Y-144535907D01*
X167706715Y-144648946D01*
X167224946Y-144970853D01*
X167005000Y-145300026D01*
X166785054Y-144970853D01*
X166303285Y-144648946D01*
X165735000Y-144535907D01*
X165166715Y-144648946D01*
X164684946Y-144970853D01*
X164465000Y-145300026D01*
X164245054Y-144970853D01*
X163763285Y-144648946D01*
X163195000Y-144535907D01*
X162626715Y-144648946D01*
X162144946Y-144970853D01*
X161925000Y-145300026D01*
X161705054Y-144970853D01*
X161223285Y-144648946D01*
X160655000Y-144535907D01*
X160086715Y-144648946D01*
X159604946Y-144970853D01*
X159385000Y-145300026D01*
X159165054Y-144970853D01*
X158683285Y-144648946D01*
X158115000Y-144535907D01*
X157546715Y-144648946D01*
X157064946Y-144970853D01*
X156845000Y-145300026D01*
X156625054Y-144970853D01*
X156143285Y-144648946D01*
X155575000Y-144535907D01*
X155006715Y-144648946D01*
X154524946Y-144970853D01*
X154305000Y-145300026D01*
X154085054Y-144970853D01*
X153603285Y-144648946D01*
X153035000Y-144535907D01*
X152466715Y-144648946D01*
X151984946Y-144970853D01*
X151765000Y-145300026D01*
X151545054Y-144970853D01*
X151063285Y-144648946D01*
X150495000Y-144535907D01*
X149926715Y-144648946D01*
X149444946Y-144970853D01*
X149225000Y-145300026D01*
X149005054Y-144970853D01*
X148523285Y-144648946D01*
X147955000Y-144535907D01*
X147386715Y-144648946D01*
X146904946Y-144970853D01*
X146685000Y-145300026D01*
X146465054Y-144970853D01*
X145983285Y-144648946D01*
X145415000Y-144535907D01*
X144846715Y-144648946D01*
X144364946Y-144970853D01*
X144145000Y-145300026D01*
X143925054Y-144970853D01*
X143443285Y-144648946D01*
X142875000Y-144535907D01*
X142306715Y-144648946D01*
X141824946Y-144970853D01*
X141605000Y-145300026D01*
X141385054Y-144970853D01*
X140903285Y-144648946D01*
X140335000Y-144535907D01*
X139766715Y-144648946D01*
X139284946Y-144970853D01*
X139065000Y-145300026D01*
X138845054Y-144970853D01*
X138363285Y-144648946D01*
X137795000Y-144535907D01*
X137226715Y-144648946D01*
X136744946Y-144970853D01*
X136525000Y-145300026D01*
X136305054Y-144970853D01*
X135823285Y-144648946D01*
X135255000Y-144535907D01*
X134686715Y-144648946D01*
X134204946Y-144970853D01*
X133985000Y-145300026D01*
X133765054Y-144970853D01*
X133283285Y-144648946D01*
X132715000Y-144535907D01*
X132146715Y-144648946D01*
X131664946Y-144970853D01*
X131445000Y-145300026D01*
X131225054Y-144970853D01*
X130743285Y-144648946D01*
X130175000Y-144535907D01*
X129606715Y-144648946D01*
X129124946Y-144970853D01*
X128905000Y-145300026D01*
X128685054Y-144970853D01*
X128203285Y-144648946D01*
X127635000Y-144535907D01*
X127066715Y-144648946D01*
X126584946Y-144970853D01*
X126365000Y-145300026D01*
X126145054Y-144970853D01*
X125663285Y-144648946D01*
X125095000Y-144535907D01*
X124526715Y-144648946D01*
X124044946Y-144970853D01*
X123825000Y-145300026D01*
X123605054Y-144970853D01*
X123123285Y-144648946D01*
X122555000Y-144535907D01*
X121986715Y-144648946D01*
X121504946Y-144970853D01*
X121285000Y-145300026D01*
X121065054Y-144970853D01*
X120583285Y-144648946D01*
X120015000Y-144535907D01*
X119446715Y-144648946D01*
X118964946Y-144970853D01*
X118745000Y-145300026D01*
X118525054Y-144970853D01*
X118043285Y-144648946D01*
X117475000Y-144535907D01*
X116915000Y-144647298D01*
X116915000Y-137519027D01*
X119830032Y-137519027D01*
X120078179Y-138048490D01*
X120510053Y-138442688D01*
X120925974Y-138614958D01*
X121158000Y-138493817D01*
X121158000Y-137287000D01*
X119950531Y-137287000D01*
X119830032Y-137519027D01*
X116915000Y-137519027D01*
X116915000Y-99419027D01*
X119830032Y-99419027D01*
X120078179Y-99948490D01*
X120496152Y-100330000D01*
X120078179Y-100711510D01*
X119830032Y-101240973D01*
X119950531Y-101473000D01*
X121158000Y-101473000D01*
X121158000Y-99187000D01*
X119950531Y-99187000D01*
X119830032Y-99419027D01*
X116915000Y-99419027D01*
X116915000Y-91410641D01*
X119786400Y-91410641D01*
X119786400Y-91469359D01*
X119900474Y-92042848D01*
X120225330Y-92529029D01*
X120496172Y-92710000D01*
X120225330Y-92890971D01*
X119900474Y-93377152D01*
X119786400Y-93950641D01*
X119786400Y-94009359D01*
X119900474Y-94582848D01*
X120225330Y-95069029D01*
X120496172Y-95250000D01*
X120225330Y-95430971D01*
X119900474Y-95917152D01*
X119786400Y-96490641D01*
X119786400Y-96549359D01*
X119900474Y-97122848D01*
X120225330Y-97609029D01*
X120496161Y-97789992D01*
X120078179Y-98171510D01*
X119830032Y-98700973D01*
X119950531Y-98933000D01*
X121158000Y-98933000D01*
X121158000Y-98913000D01*
X121412000Y-98913000D01*
X121412000Y-98933000D01*
X121432000Y-98933000D01*
X121432000Y-99187000D01*
X121412000Y-99187000D01*
X121412000Y-101473000D01*
X121432000Y-101473000D01*
X121432000Y-101727000D01*
X121412000Y-101727000D01*
X121412000Y-101747000D01*
X121158000Y-101747000D01*
X121158000Y-101727000D01*
X119950531Y-101727000D01*
X119830032Y-101959027D01*
X120078179Y-102488490D01*
X120496161Y-102870008D01*
X120225330Y-103050971D01*
X119900474Y-103537152D01*
X119786400Y-104110641D01*
X119786400Y-104169359D01*
X119900474Y-104742848D01*
X120225330Y-105229029D01*
X120496161Y-105409992D01*
X120078179Y-105791510D01*
X119830032Y-106320973D01*
X119950531Y-106553000D01*
X121158000Y-106553000D01*
X121158000Y-106533000D01*
X121412000Y-106533000D01*
X121412000Y-106553000D01*
X121432000Y-106553000D01*
X121432000Y-106807000D01*
X121412000Y-106807000D01*
X121412000Y-106827000D01*
X121158000Y-106827000D01*
X121158000Y-106807000D01*
X119950531Y-106807000D01*
X119830032Y-107039027D01*
X120078179Y-107568490D01*
X120496161Y-107950008D01*
X120225330Y-108130971D01*
X119900474Y-108617152D01*
X119786400Y-109190641D01*
X119786400Y-109249359D01*
X119900474Y-109822848D01*
X120225330Y-110309029D01*
X120496161Y-110489992D01*
X120078179Y-110871510D01*
X119830032Y-111400973D01*
X119950531Y-111633000D01*
X121158000Y-111633000D01*
X121158000Y-111613000D01*
X121412000Y-111613000D01*
X121412000Y-111633000D01*
X121432000Y-111633000D01*
X121432000Y-111887000D01*
X121412000Y-111887000D01*
X121412000Y-111907000D01*
X121158000Y-111907000D01*
X121158000Y-111887000D01*
X119950531Y-111887000D01*
X119830032Y-112119027D01*
X120078179Y-112648490D01*
X120496161Y-113030008D01*
X120225330Y-113210971D01*
X119900474Y-113697152D01*
X119786400Y-114270641D01*
X119786400Y-114329359D01*
X119900474Y-114902848D01*
X120225330Y-115389029D01*
X120496172Y-115570000D01*
X120225330Y-115750971D01*
X119900474Y-116237152D01*
X119786400Y-116810641D01*
X119786400Y-116869359D01*
X119900474Y-117442848D01*
X120225330Y-117929029D01*
X120496172Y-118110000D01*
X120225330Y-118290971D01*
X119900474Y-118777152D01*
X119786400Y-119350641D01*
X119786400Y-119409359D01*
X119900474Y-119982848D01*
X120225330Y-120469029D01*
X120496172Y-120650000D01*
X120225330Y-120830971D01*
X119900474Y-121317152D01*
X119786400Y-121890641D01*
X119786400Y-121949359D01*
X119900474Y-122522848D01*
X120225330Y-123009029D01*
X120496172Y-123190000D01*
X120225330Y-123370971D01*
X119900474Y-123857152D01*
X119786400Y-124430641D01*
X119786400Y-124489359D01*
X119900474Y-125062848D01*
X120225330Y-125549029D01*
X120496172Y-125730000D01*
X120225330Y-125910971D01*
X119900474Y-126397152D01*
X119786400Y-126970641D01*
X119786400Y-127029359D01*
X119900474Y-127602848D01*
X120225330Y-128089029D01*
X120496172Y-128270000D01*
X120225330Y-128450971D01*
X119900474Y-128937152D01*
X119786400Y-129510641D01*
X119786400Y-129569359D01*
X119900474Y-130142848D01*
X120225330Y-130629029D01*
X120496172Y-130810000D01*
X120225330Y-130990971D01*
X119900474Y-131477152D01*
X119786400Y-132050641D01*
X119786400Y-132109359D01*
X119900474Y-132682848D01*
X120225330Y-133169029D01*
X120496172Y-133350000D01*
X120225330Y-133530971D01*
X119900474Y-134017152D01*
X119786400Y-134590641D01*
X119786400Y-134649359D01*
X119900474Y-135222848D01*
X120225330Y-135709029D01*
X120496161Y-135889992D01*
X120078179Y-136271510D01*
X119830032Y-136800973D01*
X119950531Y-137033000D01*
X121158000Y-137033000D01*
X121158000Y-137013000D01*
X121412000Y-137013000D01*
X121412000Y-137033000D01*
X121432000Y-137033000D01*
X121432000Y-137287000D01*
X121412000Y-137287000D01*
X121412000Y-138493817D01*
X121644026Y-138614958D01*
X122059947Y-138442688D01*
X122344027Y-138183391D01*
X122358238Y-138258917D01*
X122497310Y-138475041D01*
X122709510Y-138620031D01*
X122961400Y-138671040D01*
X124688600Y-138671040D01*
X124923917Y-138626762D01*
X125140041Y-138487690D01*
X125285031Y-138275490D01*
X125336040Y-138023600D01*
X125336040Y-136296400D01*
X125291762Y-136061083D01*
X125152690Y-135844959D01*
X124940490Y-135699969D01*
X124896655Y-135691092D01*
X125209526Y-135222848D01*
X125323600Y-134649359D01*
X125323600Y-134590641D01*
X125209526Y-134017152D01*
X124884670Y-133530971D01*
X124613828Y-133350000D01*
X124884670Y-133169029D01*
X125209526Y-132682848D01*
X125323600Y-132109359D01*
X125323600Y-132050641D01*
X125209526Y-131477152D01*
X124884670Y-130990971D01*
X124613828Y-130810000D01*
X124884670Y-130629029D01*
X125209526Y-130142848D01*
X125323600Y-129569359D01*
X125323600Y-129510641D01*
X125209526Y-128937152D01*
X124884670Y-128450971D01*
X124613828Y-128270000D01*
X129981887Y-128270000D01*
X130091120Y-128819151D01*
X130402189Y-129284698D01*
X130784275Y-129540000D01*
X130402189Y-129795302D01*
X130091120Y-130260849D01*
X129981887Y-130810000D01*
X130091120Y-131359151D01*
X130402189Y-131824698D01*
X130784275Y-132080000D01*
X130402189Y-132335302D01*
X130091120Y-132800849D01*
X129981887Y-133350000D01*
X130091120Y-133899151D01*
X130402189Y-134364698D01*
X130784275Y-134620000D01*
X130402189Y-134875302D01*
X130091120Y-135340849D01*
X129981887Y-135890000D01*
X130091120Y-136439151D01*
X130402189Y-136904698D01*
X130867736Y-137215767D01*
X131416887Y-137325000D01*
X131473113Y-137325000D01*
X132022264Y-137215767D01*
X132487811Y-136904698D01*
X132554736Y-136804538D01*
X133420198Y-137670000D01*
X132642463Y-137670000D01*
X132610327Y-137637808D01*
X132266799Y-137495162D01*
X131894833Y-137494838D01*
X131551057Y-137636883D01*
X131287808Y-137899673D01*
X131145162Y-138243201D01*
X131144838Y-138615167D01*
X131286883Y-138958943D01*
X131549673Y-139222192D01*
X131893201Y-139364838D01*
X132265167Y-139365162D01*
X132608943Y-139223117D01*
X132642118Y-139190000D01*
X135962537Y-139190000D01*
X135994673Y-139222192D01*
X136338201Y-139364838D01*
X136710167Y-139365162D01*
X136988476Y-139250167D01*
X162894838Y-139250167D01*
X163036883Y-139593943D01*
X163299673Y-139857192D01*
X163563554Y-139966765D01*
X163671883Y-140228943D01*
X163934673Y-140492192D01*
X164198554Y-140601765D01*
X164306883Y-140863943D01*
X164569673Y-141127192D01*
X164833554Y-141236765D01*
X164941883Y-141498943D01*
X165204673Y-141762192D01*
X165468554Y-141871765D01*
X165576883Y-142133943D01*
X165839673Y-142397192D01*
X166103554Y-142506765D01*
X166211883Y-142768943D01*
X166474673Y-143032192D01*
X166818201Y-143174838D01*
X167190167Y-143175162D01*
X167533943Y-143033117D01*
X167797192Y-142770327D01*
X167939838Y-142426799D01*
X167939879Y-142379923D01*
X171889802Y-138430000D01*
X172526887Y-138430000D01*
X172636120Y-138979151D01*
X172947189Y-139444698D01*
X173412736Y-139755767D01*
X173961887Y-139865000D01*
X174018113Y-139865000D01*
X174567264Y-139755767D01*
X175032811Y-139444698D01*
X175343880Y-138979151D01*
X175453113Y-138430000D01*
X175343880Y-137880849D01*
X175176268Y-137630000D01*
X180162560Y-137630000D01*
X180162560Y-139230000D01*
X180206838Y-139465317D01*
X180345910Y-139681441D01*
X180558110Y-139826431D01*
X180810000Y-139877440D01*
X182410000Y-139877440D01*
X182645317Y-139833162D01*
X182861441Y-139694090D01*
X183006431Y-139481890D01*
X183057440Y-139230000D01*
X183057440Y-138430000D01*
X183956887Y-138430000D01*
X184066120Y-138979151D01*
X184377189Y-139444698D01*
X184842736Y-139755767D01*
X185391887Y-139865000D01*
X185448113Y-139865000D01*
X185997264Y-139755767D01*
X186462811Y-139444698D01*
X186773880Y-138979151D01*
X186826584Y-138714187D01*
X194144752Y-138714187D01*
X194362757Y-139241800D01*
X194766077Y-139645824D01*
X195293309Y-139864750D01*
X195864187Y-139865248D01*
X196264118Y-139700000D01*
X204097305Y-139700000D01*
X204221723Y-140325492D01*
X204576036Y-140855759D01*
X205106303Y-141210072D01*
X205731795Y-141334490D01*
X207018205Y-141334490D01*
X207643697Y-141210072D01*
X208173964Y-140855759D01*
X208528277Y-140325492D01*
X208652695Y-139700000D01*
X208528277Y-139074508D01*
X208173964Y-138544241D01*
X207643697Y-138189928D01*
X207018205Y-138065510D01*
X205731795Y-138065510D01*
X205106303Y-138189928D01*
X204576036Y-138544241D01*
X204221723Y-139074508D01*
X204097305Y-139700000D01*
X196264118Y-139700000D01*
X196391800Y-139647243D01*
X196795824Y-139243923D01*
X197014750Y-138716691D01*
X197015248Y-138145813D01*
X196797243Y-137618200D01*
X196393923Y-137214176D01*
X195866691Y-136995250D01*
X195295813Y-136994752D01*
X194768200Y-137212757D01*
X194364176Y-137616077D01*
X194145250Y-138143309D01*
X194144752Y-138714187D01*
X186826584Y-138714187D01*
X186883113Y-138430000D01*
X186773880Y-137880849D01*
X186462811Y-137415302D01*
X185997264Y-137104233D01*
X185448113Y-136995000D01*
X185391887Y-136995000D01*
X184842736Y-137104233D01*
X184377189Y-137415302D01*
X184066120Y-137880849D01*
X183956887Y-138430000D01*
X183057440Y-138430000D01*
X183057440Y-137630000D01*
X183013162Y-137394683D01*
X182874090Y-137178559D01*
X182661890Y-137033569D01*
X182410000Y-136982560D01*
X180810000Y-136982560D01*
X180574683Y-137026838D01*
X180358559Y-137165910D01*
X180213569Y-137378110D01*
X180162560Y-137630000D01*
X175176268Y-137630000D01*
X175032811Y-137415302D01*
X174567264Y-137104233D01*
X174018113Y-136995000D01*
X173961887Y-136995000D01*
X173412736Y-137104233D01*
X172947189Y-137415302D01*
X172636120Y-137880849D01*
X172526887Y-138430000D01*
X171889802Y-138430000D01*
X171987401Y-138332401D01*
X172152148Y-138085840D01*
X172210000Y-137795000D01*
X172210000Y-136017000D01*
X207280510Y-136017000D01*
X207280510Y-136616440D01*
X207453529Y-137232265D01*
X207849044Y-137735002D01*
X208406841Y-138048113D01*
X208534646Y-138079059D01*
X208788000Y-137959705D01*
X208788000Y-136017000D01*
X209042000Y-136017000D01*
X209042000Y-137959705D01*
X209295354Y-138079059D01*
X209423159Y-138048113D01*
X209980956Y-137735002D01*
X210376471Y-137232265D01*
X210549490Y-136616440D01*
X210549490Y-136017000D01*
X209042000Y-136017000D01*
X208788000Y-136017000D01*
X207280510Y-136017000D01*
X172210000Y-136017000D01*
X172210000Y-135163560D01*
X207280510Y-135163560D01*
X207280510Y-135763000D01*
X208788000Y-135763000D01*
X208788000Y-133820295D01*
X209042000Y-133820295D01*
X209042000Y-135763000D01*
X210549490Y-135763000D01*
X210549490Y-135163560D01*
X210376471Y-134547735D01*
X209980956Y-134044998D01*
X209423159Y-133731887D01*
X209295354Y-133700941D01*
X209042000Y-133820295D01*
X208788000Y-133820295D01*
X208534646Y-133700941D01*
X208406841Y-133731887D01*
X207849044Y-134044998D01*
X207453529Y-134547735D01*
X207280510Y-135163560D01*
X172210000Y-135163560D01*
X172210000Y-133350000D01*
X172526887Y-133350000D01*
X172636120Y-133899151D01*
X172947189Y-134364698D01*
X173412736Y-134675767D01*
X173961887Y-134785000D01*
X174018113Y-134785000D01*
X174567264Y-134675767D01*
X175032811Y-134364698D01*
X175343880Y-133899151D01*
X175453113Y-133350000D01*
X175343880Y-132800849D01*
X175176268Y-132550000D01*
X180162560Y-132550000D01*
X180162560Y-134150000D01*
X180206838Y-134385317D01*
X180345910Y-134601441D01*
X180558110Y-134746431D01*
X180810000Y-134797440D01*
X182410000Y-134797440D01*
X182645317Y-134753162D01*
X182861441Y-134614090D01*
X183006431Y-134401890D01*
X183057440Y-134150000D01*
X183057440Y-133350000D01*
X183956887Y-133350000D01*
X184066120Y-133899151D01*
X184377189Y-134364698D01*
X184842736Y-134675767D01*
X185391887Y-134785000D01*
X185448113Y-134785000D01*
X185997264Y-134675767D01*
X186462811Y-134364698D01*
X186773880Y-133899151D01*
X186826584Y-133634187D01*
X194144752Y-133634187D01*
X194362757Y-134161800D01*
X194766077Y-134565824D01*
X195293309Y-134784750D01*
X195864187Y-134785248D01*
X196391800Y-134567243D01*
X196795824Y-134163923D01*
X197014750Y-133636691D01*
X197015248Y-133065813D01*
X196797243Y-132538200D01*
X196393923Y-132134176D01*
X196263453Y-132080000D01*
X204097305Y-132080000D01*
X204221723Y-132705492D01*
X204576036Y-133235759D01*
X205106303Y-133590072D01*
X205731795Y-133714490D01*
X207018205Y-133714490D01*
X207643697Y-133590072D01*
X208173964Y-133235759D01*
X208528277Y-132705492D01*
X208652695Y-132080000D01*
X208528277Y-131454508D01*
X208173964Y-130924241D01*
X207643697Y-130569928D01*
X207018205Y-130445510D01*
X205731795Y-130445510D01*
X205106303Y-130569928D01*
X204576036Y-130924241D01*
X204221723Y-131454508D01*
X204097305Y-132080000D01*
X196263453Y-132080000D01*
X195866691Y-131915250D01*
X195295813Y-131914752D01*
X194768200Y-132132757D01*
X194364176Y-132536077D01*
X194145250Y-133063309D01*
X194144752Y-133634187D01*
X186826584Y-133634187D01*
X186883113Y-133350000D01*
X186773880Y-132800849D01*
X186462811Y-132335302D01*
X185997264Y-132024233D01*
X185448113Y-131915000D01*
X185391887Y-131915000D01*
X184842736Y-132024233D01*
X184377189Y-132335302D01*
X184066120Y-132800849D01*
X183956887Y-133350000D01*
X183057440Y-133350000D01*
X183057440Y-132550000D01*
X183013162Y-132314683D01*
X182874090Y-132098559D01*
X182661890Y-131953569D01*
X182410000Y-131902560D01*
X180810000Y-131902560D01*
X180574683Y-131946838D01*
X180358559Y-132085910D01*
X180213569Y-132298110D01*
X180162560Y-132550000D01*
X175176268Y-132550000D01*
X175032811Y-132335302D01*
X174567264Y-132024233D01*
X174018113Y-131915000D01*
X173961887Y-131915000D01*
X173412736Y-132024233D01*
X172947189Y-132335302D01*
X172636120Y-132800849D01*
X172526887Y-133350000D01*
X172210000Y-133350000D01*
X172210000Y-129277745D01*
X184591861Y-129277745D01*
X184665995Y-129523864D01*
X185203223Y-129716965D01*
X185773454Y-129689778D01*
X186174005Y-129523864D01*
X186248139Y-129277745D01*
X185420000Y-128449605D01*
X184591861Y-129277745D01*
X172210000Y-129277745D01*
X172210000Y-128053223D01*
X183973035Y-128053223D01*
X184000222Y-128623454D01*
X184166136Y-129024005D01*
X184412255Y-129098139D01*
X185240395Y-128270000D01*
X185599605Y-128270000D01*
X186427745Y-129098139D01*
X186673864Y-129024005D01*
X186866965Y-128486777D01*
X186856630Y-128270000D01*
X194116887Y-128270000D01*
X194226120Y-128819151D01*
X194537189Y-129284698D01*
X195002736Y-129595767D01*
X195551887Y-129705000D01*
X195608113Y-129705000D01*
X196157264Y-129595767D01*
X196622811Y-129284698D01*
X196933880Y-128819151D01*
X197043113Y-128270000D01*
X196933880Y-127720849D01*
X196732859Y-127420000D01*
X208687560Y-127420000D01*
X208687560Y-129120000D01*
X208731838Y-129355317D01*
X208870910Y-129571441D01*
X209083110Y-129716431D01*
X209335000Y-129767440D01*
X211035000Y-129767440D01*
X211270317Y-129723162D01*
X211486441Y-129584090D01*
X211631431Y-129371890D01*
X211645086Y-129304459D01*
X211674946Y-129349147D01*
X212156715Y-129671054D01*
X212725000Y-129784093D01*
X213293285Y-129671054D01*
X213775054Y-129349147D01*
X214096961Y-128867378D01*
X214210000Y-128299093D01*
X214210000Y-128240907D01*
X214096961Y-127672622D01*
X213775054Y-127190853D01*
X213293285Y-126868946D01*
X212725000Y-126755907D01*
X212156715Y-126868946D01*
X211674946Y-127190853D01*
X211647150Y-127232452D01*
X211638162Y-127184683D01*
X211499090Y-126968559D01*
X211286890Y-126823569D01*
X211035000Y-126772560D01*
X209335000Y-126772560D01*
X209099683Y-126816838D01*
X208883559Y-126955910D01*
X208738569Y-127168110D01*
X208687560Y-127420000D01*
X196732859Y-127420000D01*
X196622811Y-127255302D01*
X196157264Y-126944233D01*
X195608113Y-126835000D01*
X195551887Y-126835000D01*
X195002736Y-126944233D01*
X194537189Y-127255302D01*
X194226120Y-127720849D01*
X194116887Y-128270000D01*
X186856630Y-128270000D01*
X186839778Y-127916546D01*
X186673864Y-127515995D01*
X186427745Y-127441861D01*
X185599605Y-128270000D01*
X185240395Y-128270000D01*
X184412255Y-127441861D01*
X184166136Y-127515995D01*
X183973035Y-128053223D01*
X172210000Y-128053223D01*
X172210000Y-127262255D01*
X184591861Y-127262255D01*
X185420000Y-128090395D01*
X186248139Y-127262255D01*
X186174005Y-127016136D01*
X185636777Y-126823035D01*
X185066546Y-126850222D01*
X184665995Y-127016136D01*
X184591861Y-127262255D01*
X172210000Y-127262255D01*
X172210000Y-119565167D01*
X178769838Y-119565167D01*
X178911883Y-119908943D01*
X179174673Y-120172192D01*
X179518201Y-120314838D01*
X179565077Y-120314879D01*
X181944878Y-122694680D01*
X181944838Y-122740167D01*
X182086883Y-123083943D01*
X182349673Y-123347192D01*
X182693201Y-123489838D01*
X183065167Y-123490162D01*
X183408943Y-123348117D01*
X183672192Y-123085327D01*
X183814838Y-122741799D01*
X183814910Y-122659712D01*
X184021312Y-122866114D01*
X183956887Y-123190000D01*
X184066120Y-123739151D01*
X184377189Y-124204698D01*
X184842736Y-124515767D01*
X185391887Y-124625000D01*
X185448113Y-124625000D01*
X185997264Y-124515767D01*
X186462811Y-124204698D01*
X186773880Y-123739151D01*
X186826584Y-123474187D01*
X194144752Y-123474187D01*
X194362757Y-124001800D01*
X194766077Y-124405824D01*
X195293309Y-124624750D01*
X195864187Y-124625248D01*
X196391800Y-124407243D01*
X196795824Y-124003923D01*
X197014750Y-123476691D01*
X197015248Y-122905813D01*
X196797243Y-122378200D01*
X196393923Y-121974176D01*
X195866691Y-121755250D01*
X195295813Y-121754752D01*
X194768200Y-121972757D01*
X194364176Y-122376077D01*
X194145250Y-122903309D01*
X194144752Y-123474187D01*
X186826584Y-123474187D01*
X186883113Y-123190000D01*
X186773880Y-122640849D01*
X186462811Y-122175302D01*
X185997264Y-121864233D01*
X185448113Y-121755000D01*
X185391887Y-121755000D01*
X185114898Y-121810096D01*
X182545122Y-119240320D01*
X182545162Y-119194833D01*
X182403117Y-118851057D01*
X182140327Y-118587808D01*
X181796799Y-118445162D01*
X181424833Y-118444838D01*
X181081057Y-118586883D01*
X180817808Y-118849673D01*
X180675162Y-119193201D01*
X180675090Y-119275288D01*
X180640122Y-119240320D01*
X180640162Y-119194833D01*
X180498117Y-118851057D01*
X180235327Y-118587808D01*
X179891799Y-118445162D01*
X179519833Y-118444838D01*
X179176057Y-118586883D01*
X178912808Y-118849673D01*
X178770162Y-119193201D01*
X178769838Y-119565167D01*
X172210000Y-119565167D01*
X172210000Y-119307463D01*
X172242192Y-119275327D01*
X172384838Y-118931799D01*
X172385162Y-118559833D01*
X172316719Y-118394187D01*
X183984752Y-118394187D01*
X184202757Y-118921800D01*
X184606077Y-119325824D01*
X185133309Y-119544750D01*
X185704187Y-119545248D01*
X186231800Y-119327243D01*
X186635824Y-118923923D01*
X186854750Y-118396691D01*
X186855000Y-118110000D01*
X194116887Y-118110000D01*
X194226120Y-118659151D01*
X194537189Y-119124698D01*
X195002736Y-119435767D01*
X195551887Y-119545000D01*
X195608113Y-119545000D01*
X196157264Y-119435767D01*
X196622811Y-119124698D01*
X196933880Y-118659151D01*
X196986584Y-118394187D01*
X201844752Y-118394187D01*
X202062757Y-118921800D01*
X202466077Y-119325824D01*
X202520000Y-119348215D01*
X202520000Y-124452677D01*
X202407808Y-124564673D01*
X202265162Y-124908201D01*
X202264838Y-125280167D01*
X202406883Y-125623943D01*
X202669673Y-125887192D01*
X203013201Y-126029838D01*
X203385167Y-126030162D01*
X203728943Y-125888117D01*
X203992192Y-125625327D01*
X204134838Y-125281799D01*
X204135162Y-124909833D01*
X204040000Y-124679523D01*
X204040000Y-119348646D01*
X204091800Y-119327243D01*
X204301663Y-119117745D01*
X207451861Y-119117745D01*
X207525995Y-119363864D01*
X208063223Y-119556965D01*
X208633454Y-119529778D01*
X209034005Y-119363864D01*
X209108139Y-119117745D01*
X208280000Y-118289605D01*
X207451861Y-119117745D01*
X204301663Y-119117745D01*
X204495824Y-118923923D01*
X204714750Y-118396691D01*
X204715189Y-117893223D01*
X206833035Y-117893223D01*
X206860222Y-118463454D01*
X207026136Y-118864005D01*
X207272255Y-118938139D01*
X208100395Y-118110000D01*
X208459605Y-118110000D01*
X209287745Y-118938139D01*
X209533864Y-118864005D01*
X209726965Y-118326777D01*
X209699778Y-117756546D01*
X209533864Y-117355995D01*
X209287745Y-117281861D01*
X208459605Y-118110000D01*
X208100395Y-118110000D01*
X207272255Y-117281861D01*
X207026136Y-117355995D01*
X206833035Y-117893223D01*
X204715189Y-117893223D01*
X204715248Y-117825813D01*
X204497243Y-117298200D01*
X204301640Y-117102255D01*
X207451861Y-117102255D01*
X208280000Y-117930395D01*
X209108139Y-117102255D01*
X209034005Y-116856136D01*
X208496777Y-116663035D01*
X207926546Y-116690222D01*
X207525995Y-116856136D01*
X207451861Y-117102255D01*
X204301640Y-117102255D01*
X204093923Y-116894176D01*
X203566691Y-116675250D01*
X202995813Y-116674752D01*
X202468200Y-116892757D01*
X202064176Y-117296077D01*
X201845250Y-117823309D01*
X201844752Y-118394187D01*
X196986584Y-118394187D01*
X197043113Y-118110000D01*
X196933880Y-117560849D01*
X196622811Y-117095302D01*
X196157264Y-116784233D01*
X195608113Y-116675000D01*
X195551887Y-116675000D01*
X195002736Y-116784233D01*
X194537189Y-117095302D01*
X194226120Y-117560849D01*
X194116887Y-118110000D01*
X186855000Y-118110000D01*
X186855248Y-117825813D01*
X186637243Y-117298200D01*
X186233923Y-116894176D01*
X185706691Y-116675250D01*
X185135813Y-116674752D01*
X184608200Y-116892757D01*
X184204176Y-117296077D01*
X183985250Y-117823309D01*
X183984752Y-118394187D01*
X172316719Y-118394187D01*
X172243117Y-118216057D01*
X171980327Y-117952808D01*
X171636799Y-117810162D01*
X171264833Y-117809838D01*
X170921057Y-117951883D01*
X170657808Y-118214673D01*
X170515162Y-118558201D01*
X170514838Y-118930167D01*
X170656883Y-119273943D01*
X170690000Y-119307118D01*
X170690000Y-122254890D01*
X170629833Y-122254838D01*
X170286057Y-122396883D01*
X170022808Y-122659673D01*
X169880162Y-123003201D01*
X169879838Y-123375167D01*
X170021883Y-123718943D01*
X170055000Y-123752118D01*
X170055000Y-136845198D01*
X167765000Y-139135198D01*
X167765000Y-137229147D01*
X168246887Y-137325000D01*
X168303113Y-137325000D01*
X168852264Y-137215767D01*
X169317811Y-136904698D01*
X169628880Y-136439151D01*
X169738113Y-135890000D01*
X169628880Y-135340849D01*
X169317811Y-134875302D01*
X168935725Y-134620000D01*
X169317811Y-134364698D01*
X169628880Y-133899151D01*
X169738113Y-133350000D01*
X169628880Y-132800849D01*
X169317811Y-132335302D01*
X168935725Y-132080000D01*
X169317811Y-131824698D01*
X169628880Y-131359151D01*
X169738113Y-130810000D01*
X169628880Y-130260849D01*
X169317811Y-129795302D01*
X168935725Y-129540000D01*
X169317811Y-129284698D01*
X169628880Y-128819151D01*
X169738113Y-128270000D01*
X169628880Y-127720849D01*
X169317811Y-127255302D01*
X168935725Y-127000000D01*
X169317811Y-126744698D01*
X169628880Y-126279151D01*
X169738113Y-125730000D01*
X169628880Y-125180849D01*
X169317811Y-124715302D01*
X168935725Y-124460000D01*
X169317811Y-124204698D01*
X169628880Y-123739151D01*
X169738113Y-123190000D01*
X169628880Y-122640849D01*
X169317811Y-122175302D01*
X168935725Y-121920000D01*
X169317811Y-121664698D01*
X169628880Y-121199151D01*
X169738113Y-120650000D01*
X169628880Y-120100849D01*
X169317811Y-119635302D01*
X168913297Y-119365014D01*
X169130134Y-119262389D01*
X169506041Y-118847423D01*
X169666904Y-118459039D01*
X169544915Y-118237000D01*
X168402000Y-118237000D01*
X168402000Y-118257000D01*
X168148000Y-118257000D01*
X168148000Y-118237000D01*
X167005085Y-118237000D01*
X166883096Y-118459039D01*
X167043959Y-118847423D01*
X167419866Y-119262389D01*
X167636703Y-119365014D01*
X167232189Y-119635302D01*
X166921120Y-120100849D01*
X166811887Y-120650000D01*
X166921120Y-121199151D01*
X167232189Y-121664698D01*
X167614275Y-121920000D01*
X167232189Y-122175302D01*
X166921120Y-122640849D01*
X166811887Y-123190000D01*
X166921120Y-123739151D01*
X167232189Y-124204698D01*
X167614275Y-124460000D01*
X167232189Y-124715302D01*
X166921120Y-125180849D01*
X166873141Y-125422057D01*
X164562599Y-127732599D01*
X164397852Y-127979161D01*
X164340000Y-128270000D01*
X164340000Y-137480198D01*
X163690320Y-138129878D01*
X163644833Y-138129838D01*
X163301057Y-138271883D01*
X163037808Y-138534673D01*
X162895162Y-138878201D01*
X162894838Y-139250167D01*
X136988476Y-139250167D01*
X137053943Y-139223117D01*
X137317192Y-138960327D01*
X137459838Y-138616799D01*
X137460162Y-138244833D01*
X137318117Y-137901057D01*
X137055327Y-137637808D01*
X136711799Y-137495162D01*
X136339833Y-137494838D01*
X135996057Y-137636883D01*
X135962882Y-137670000D01*
X135555110Y-137670000D01*
X135555162Y-137609833D01*
X135413117Y-137266057D01*
X135150327Y-137002808D01*
X134806799Y-136860162D01*
X134759923Y-136860121D01*
X133789802Y-135890000D01*
X137601887Y-135890000D01*
X137711120Y-136439151D01*
X138022189Y-136904698D01*
X138487736Y-137215767D01*
X139036887Y-137325000D01*
X139093113Y-137325000D01*
X139642264Y-137215767D01*
X140107811Y-136904698D01*
X140237792Y-136710167D01*
X154639838Y-136710167D01*
X154781883Y-137053943D01*
X155044673Y-137317192D01*
X155388201Y-137459838D01*
X155760167Y-137460162D01*
X156103943Y-137318117D01*
X156367192Y-137055327D01*
X156509838Y-136711799D01*
X156509879Y-136664923D01*
X158254680Y-134920122D01*
X158300167Y-134920162D01*
X158643943Y-134778117D01*
X158907192Y-134515327D01*
X159049838Y-134171799D01*
X159050162Y-133799833D01*
X158908117Y-133456057D01*
X158645327Y-133192808D01*
X158301799Y-133050162D01*
X157929833Y-133049838D01*
X157586057Y-133191883D01*
X157322808Y-133454673D01*
X157180162Y-133798201D01*
X157180121Y-133845077D01*
X155435320Y-135589878D01*
X155389833Y-135589838D01*
X155046057Y-135731883D01*
X154782808Y-135994673D01*
X154640162Y-136338201D01*
X154639838Y-136710167D01*
X140237792Y-136710167D01*
X140418880Y-136439151D01*
X140528113Y-135890000D01*
X140418880Y-135340849D01*
X140107811Y-134875302D01*
X139703297Y-134605014D01*
X139920134Y-134502389D01*
X140296041Y-134087423D01*
X140447085Y-133722745D01*
X144586861Y-133722745D01*
X144660995Y-133968864D01*
X145198223Y-134161965D01*
X145768454Y-134134778D01*
X146169005Y-133968864D01*
X146243139Y-133722745D01*
X152841861Y-133722745D01*
X152915995Y-133968864D01*
X153453223Y-134161965D01*
X154023454Y-134134778D01*
X154424005Y-133968864D01*
X154498139Y-133722745D01*
X153670000Y-132894605D01*
X152841861Y-133722745D01*
X146243139Y-133722745D01*
X145415000Y-132894605D01*
X144586861Y-133722745D01*
X140447085Y-133722745D01*
X140456904Y-133699039D01*
X140334915Y-133477000D01*
X139192000Y-133477000D01*
X139192000Y-133497000D01*
X138938000Y-133497000D01*
X138938000Y-133477000D01*
X137795085Y-133477000D01*
X137673096Y-133699039D01*
X137833959Y-134087423D01*
X138209866Y-134502389D01*
X138426703Y-134605014D01*
X138022189Y-134875302D01*
X137711120Y-135340849D01*
X137601887Y-135890000D01*
X133789802Y-135890000D01*
X133252401Y-135352599D01*
X133005839Y-135187852D01*
X132715000Y-135130000D01*
X132657995Y-135130000D01*
X132487811Y-134875302D01*
X132105725Y-134620000D01*
X132487811Y-134364698D01*
X132554736Y-134264538D01*
X133049878Y-134759680D01*
X133049838Y-134805167D01*
X133191883Y-135148943D01*
X133454673Y-135412192D01*
X133798201Y-135554838D01*
X134170167Y-135555162D01*
X134513943Y-135413117D01*
X134777192Y-135150327D01*
X134919838Y-134806799D01*
X134920162Y-134434833D01*
X134778117Y-134091057D01*
X134515327Y-133827808D01*
X134171799Y-133685162D01*
X134124923Y-133685121D01*
X133252401Y-132812599D01*
X133005839Y-132647852D01*
X132715000Y-132590000D01*
X132657995Y-132590000D01*
X132487811Y-132335302D01*
X132105725Y-132080000D01*
X132487811Y-131824698D01*
X132554736Y-131724538D01*
X133049878Y-132219680D01*
X133049838Y-132265167D01*
X133191883Y-132608943D01*
X133454673Y-132872192D01*
X133798201Y-133014838D01*
X134170167Y-133015162D01*
X134513943Y-132873117D01*
X134777192Y-132610327D01*
X134919838Y-132266799D01*
X134920162Y-131894833D01*
X134778117Y-131551057D01*
X134515327Y-131287808D01*
X134205219Y-131159039D01*
X137673096Y-131159039D01*
X137833959Y-131547423D01*
X138209866Y-131962389D01*
X138458367Y-132080000D01*
X138209866Y-132197611D01*
X137833959Y-132612577D01*
X137673096Y-133000961D01*
X137795085Y-133223000D01*
X138938000Y-133223000D01*
X138938000Y-130937000D01*
X139192000Y-130937000D01*
X139192000Y-133223000D01*
X140334915Y-133223000D01*
X140456904Y-133000961D01*
X140296041Y-132612577D01*
X140192451Y-132498223D01*
X143968035Y-132498223D01*
X143995222Y-133068454D01*
X144161136Y-133469005D01*
X144407255Y-133543139D01*
X145235395Y-132715000D01*
X145594605Y-132715000D01*
X146422745Y-133543139D01*
X146668864Y-133469005D01*
X146861965Y-132931777D01*
X146841295Y-132498223D01*
X152223035Y-132498223D01*
X152250222Y-133068454D01*
X152416136Y-133469005D01*
X152662255Y-133543139D01*
X153490395Y-132715000D01*
X153849605Y-132715000D01*
X154677745Y-133543139D01*
X154923864Y-133469005D01*
X155116965Y-132931777D01*
X155089778Y-132361546D01*
X154923864Y-131960995D01*
X154677745Y-131886861D01*
X153849605Y-132715000D01*
X153490395Y-132715000D01*
X152662255Y-131886861D01*
X152416136Y-131960995D01*
X152223035Y-132498223D01*
X146841295Y-132498223D01*
X146834778Y-132361546D01*
X146668864Y-131960995D01*
X146422745Y-131886861D01*
X145594605Y-132715000D01*
X145235395Y-132715000D01*
X144407255Y-131886861D01*
X144161136Y-131960995D01*
X143968035Y-132498223D01*
X140192451Y-132498223D01*
X139920134Y-132197611D01*
X139671633Y-132080000D01*
X139920134Y-131962389D01*
X140151253Y-131707255D01*
X144586861Y-131707255D01*
X145415000Y-132535395D01*
X146243139Y-131707255D01*
X152841861Y-131707255D01*
X153670000Y-132535395D01*
X154498139Y-131707255D01*
X154424005Y-131461136D01*
X153886777Y-131268035D01*
X153316546Y-131295222D01*
X152915995Y-131461136D01*
X152841861Y-131707255D01*
X146243139Y-131707255D01*
X146169005Y-131461136D01*
X145631777Y-131268035D01*
X145061546Y-131295222D01*
X144660995Y-131461136D01*
X144586861Y-131707255D01*
X140151253Y-131707255D01*
X140296041Y-131547423D01*
X140456904Y-131159039D01*
X140334915Y-130937000D01*
X139192000Y-130937000D01*
X138938000Y-130937000D01*
X137795085Y-130937000D01*
X137673096Y-131159039D01*
X134205219Y-131159039D01*
X134171799Y-131145162D01*
X134124923Y-131145121D01*
X133252401Y-130272599D01*
X133005839Y-130107852D01*
X132715000Y-130050000D01*
X132657995Y-130050000D01*
X132487811Y-129795302D01*
X132105725Y-129540000D01*
X132487811Y-129284698D01*
X132798880Y-128819151D01*
X132908113Y-128270000D01*
X132798880Y-127720849D01*
X132487811Y-127255302D01*
X132083297Y-126985014D01*
X132300134Y-126882389D01*
X132676041Y-126467423D01*
X132836904Y-126079039D01*
X132714915Y-125857000D01*
X131572000Y-125857000D01*
X131572000Y-125877000D01*
X131318000Y-125877000D01*
X131318000Y-125857000D01*
X130175085Y-125857000D01*
X130053096Y-126079039D01*
X130213959Y-126467423D01*
X130589866Y-126882389D01*
X130806703Y-126985014D01*
X130402189Y-127255302D01*
X130091120Y-127720849D01*
X129981887Y-128270000D01*
X124613828Y-128270000D01*
X124884670Y-128089029D01*
X125209526Y-127602848D01*
X125323600Y-127029359D01*
X125323600Y-126970641D01*
X125209526Y-126397152D01*
X124884670Y-125910971D01*
X124613828Y-125730000D01*
X124884670Y-125549029D01*
X125209526Y-125062848D01*
X125323600Y-124489359D01*
X125323600Y-124430641D01*
X125209526Y-123857152D01*
X124884670Y-123370971D01*
X124613828Y-123190000D01*
X129981887Y-123190000D01*
X130091120Y-123739151D01*
X130402189Y-124204698D01*
X130806703Y-124474986D01*
X130589866Y-124577611D01*
X130213959Y-124992577D01*
X130053096Y-125380961D01*
X130175085Y-125603000D01*
X131318000Y-125603000D01*
X131318000Y-125583000D01*
X131572000Y-125583000D01*
X131572000Y-125603000D01*
X132714915Y-125603000D01*
X132836904Y-125380961D01*
X132676041Y-124992577D01*
X132300134Y-124577611D01*
X132083297Y-124474986D01*
X132487811Y-124204698D01*
X132798880Y-123739151D01*
X132908113Y-123190000D01*
X132798880Y-122640849D01*
X132487811Y-122175302D01*
X132083297Y-121905014D01*
X132300134Y-121802389D01*
X132676041Y-121387423D01*
X132836904Y-120999039D01*
X132714915Y-120777000D01*
X131572000Y-120777000D01*
X131572000Y-120797000D01*
X131318000Y-120797000D01*
X131318000Y-120777000D01*
X130175085Y-120777000D01*
X130053096Y-120999039D01*
X130213959Y-121387423D01*
X130589866Y-121802389D01*
X130806703Y-121905014D01*
X130402189Y-122175302D01*
X130091120Y-122640849D01*
X129981887Y-123190000D01*
X124613828Y-123190000D01*
X124884670Y-123009029D01*
X125209526Y-122522848D01*
X125323600Y-121949359D01*
X125323600Y-121890641D01*
X125209526Y-121317152D01*
X124884670Y-120830971D01*
X124613828Y-120650000D01*
X124884670Y-120469029D01*
X125209526Y-119982848D01*
X125323600Y-119409359D01*
X125323600Y-119350641D01*
X125209526Y-118777152D01*
X124884670Y-118290971D01*
X124613828Y-118110000D01*
X124884670Y-117929029D01*
X125209526Y-117442848D01*
X125323600Y-116869359D01*
X125323600Y-116810641D01*
X125209526Y-116237152D01*
X124884670Y-115750971D01*
X124613839Y-115570008D01*
X125031821Y-115188490D01*
X125279968Y-114659027D01*
X125159469Y-114427000D01*
X123952000Y-114427000D01*
X123952000Y-114447000D01*
X123698000Y-114447000D01*
X123698000Y-114427000D01*
X123678000Y-114427000D01*
X123678000Y-114173000D01*
X123698000Y-114173000D01*
X123698000Y-114153000D01*
X123952000Y-114153000D01*
X123952000Y-114173000D01*
X125159469Y-114173000D01*
X125279968Y-113940973D01*
X125031821Y-113411510D01*
X124613839Y-113029992D01*
X124884670Y-112849029D01*
X125209526Y-112362848D01*
X125323600Y-111789359D01*
X125323600Y-111730641D01*
X125209526Y-111157152D01*
X124884670Y-110670971D01*
X124613828Y-110490000D01*
X124884670Y-110309029D01*
X125209526Y-109822848D01*
X125323600Y-109249359D01*
X125323600Y-109190641D01*
X125209526Y-108617152D01*
X124884670Y-108130971D01*
X124613828Y-107950000D01*
X124884670Y-107769029D01*
X125209526Y-107282848D01*
X125323600Y-106709359D01*
X125323600Y-106650641D01*
X125209526Y-106077152D01*
X124884670Y-105590971D01*
X124613828Y-105410000D01*
X129981887Y-105410000D01*
X130091120Y-105959151D01*
X130402189Y-106424698D01*
X130784275Y-106680000D01*
X130402189Y-106935302D01*
X130091120Y-107400849D01*
X129981887Y-107950000D01*
X130091120Y-108499151D01*
X130402189Y-108964698D01*
X130784275Y-109220000D01*
X130402189Y-109475302D01*
X130091120Y-109940849D01*
X129981887Y-110490000D01*
X130091120Y-111039151D01*
X130402189Y-111504698D01*
X130784275Y-111760000D01*
X130402189Y-112015302D01*
X130091120Y-112480849D01*
X129981887Y-113030000D01*
X130091120Y-113579151D01*
X130402189Y-114044698D01*
X130784275Y-114300000D01*
X130402189Y-114555302D01*
X130091120Y-115020849D01*
X129981887Y-115570000D01*
X130091120Y-116119151D01*
X130402189Y-116584698D01*
X130784275Y-116840000D01*
X130402189Y-117095302D01*
X130091120Y-117560849D01*
X129981887Y-118110000D01*
X130091120Y-118659151D01*
X130402189Y-119124698D01*
X130806703Y-119394986D01*
X130589866Y-119497611D01*
X130213959Y-119912577D01*
X130053096Y-120300961D01*
X130175085Y-120523000D01*
X131318000Y-120523000D01*
X131318000Y-120503000D01*
X131572000Y-120503000D01*
X131572000Y-120523000D01*
X132714915Y-120523000D01*
X132836904Y-120300961D01*
X132676041Y-119912577D01*
X132300134Y-119497611D01*
X132083297Y-119394986D01*
X132487811Y-119124698D01*
X132798880Y-118659151D01*
X132908113Y-118110000D01*
X132798880Y-117560849D01*
X132487811Y-117095302D01*
X132105725Y-116840000D01*
X132487811Y-116584698D01*
X132798880Y-116119151D01*
X132908113Y-115570000D01*
X132798880Y-115020849D01*
X132487811Y-114555302D01*
X132105725Y-114300000D01*
X132487811Y-114044698D01*
X132798880Y-113579151D01*
X132908113Y-113030000D01*
X132798880Y-112480849D01*
X132487811Y-112015302D01*
X132105725Y-111760000D01*
X132487811Y-111504698D01*
X132798880Y-111039151D01*
X132908113Y-110490000D01*
X132798880Y-109940849D01*
X132487811Y-109475302D01*
X132105725Y-109220000D01*
X132487811Y-108964698D01*
X132798880Y-108499151D01*
X132908113Y-107950000D01*
X132798880Y-107400849D01*
X132487811Y-106935302D01*
X132105725Y-106680000D01*
X132487811Y-106424698D01*
X132798880Y-105959151D01*
X132908113Y-105410000D01*
X132798880Y-104860849D01*
X132487811Y-104395302D01*
X132343535Y-104298899D01*
X132480317Y-104273162D01*
X132696441Y-104134090D01*
X132841431Y-103921890D01*
X132892440Y-103670000D01*
X132892440Y-102870000D01*
X137601887Y-102870000D01*
X137711120Y-103419151D01*
X138022189Y-103884698D01*
X138404275Y-104140000D01*
X138022189Y-104395302D01*
X137711120Y-104860849D01*
X137601887Y-105410000D01*
X137711120Y-105959151D01*
X138022189Y-106424698D01*
X138404275Y-106680000D01*
X138022189Y-106935302D01*
X137711120Y-107400849D01*
X137601887Y-107950000D01*
X137711120Y-108499151D01*
X138022189Y-108964698D01*
X138404275Y-109220000D01*
X138022189Y-109475302D01*
X137711120Y-109940849D01*
X137601887Y-110490000D01*
X137711120Y-111039151D01*
X138022189Y-111504698D01*
X138404275Y-111760000D01*
X138022189Y-112015302D01*
X137711120Y-112480849D01*
X137601887Y-113030000D01*
X137711120Y-113579151D01*
X138022189Y-114044698D01*
X138404275Y-114300000D01*
X138022189Y-114555302D01*
X137711120Y-115020849D01*
X137601887Y-115570000D01*
X137711120Y-116119151D01*
X138022189Y-116584698D01*
X138404275Y-116840000D01*
X138022189Y-117095302D01*
X137711120Y-117560849D01*
X137601887Y-118110000D01*
X137711120Y-118659151D01*
X138022189Y-119124698D01*
X138404275Y-119380000D01*
X138022189Y-119635302D01*
X137711120Y-120100849D01*
X137601887Y-120650000D01*
X137711120Y-121199151D01*
X138022189Y-121664698D01*
X138404275Y-121920000D01*
X138022189Y-122175302D01*
X137711120Y-122640849D01*
X137601887Y-123190000D01*
X137711120Y-123739151D01*
X138022189Y-124204698D01*
X138404275Y-124460000D01*
X138022189Y-124715302D01*
X137711120Y-125180849D01*
X137601887Y-125730000D01*
X137711120Y-126279151D01*
X138022189Y-126744698D01*
X138404275Y-127000000D01*
X138022189Y-127255302D01*
X137711120Y-127720849D01*
X137601887Y-128270000D01*
X137711120Y-128819151D01*
X138022189Y-129284698D01*
X138426703Y-129554986D01*
X138209866Y-129657611D01*
X137833959Y-130072577D01*
X137673096Y-130460961D01*
X137795085Y-130683000D01*
X138938000Y-130683000D01*
X138938000Y-130663000D01*
X139192000Y-130663000D01*
X139192000Y-130683000D01*
X140334915Y-130683000D01*
X140456904Y-130460961D01*
X140296041Y-130072577D01*
X139920134Y-129657611D01*
X139703297Y-129554986D01*
X140107811Y-129284698D01*
X140418880Y-128819151D01*
X140528113Y-128270000D01*
X140474245Y-127999187D01*
X143979752Y-127999187D01*
X144197757Y-128526800D01*
X144601077Y-128930824D01*
X145128309Y-129149750D01*
X145699187Y-129150248D01*
X146226800Y-128932243D01*
X146630824Y-128528923D01*
X146849750Y-128001691D01*
X146849752Y-127999187D01*
X152234752Y-127999187D01*
X152452757Y-128526800D01*
X152856077Y-128930824D01*
X153383309Y-129149750D01*
X153954187Y-129150248D01*
X154481800Y-128932243D01*
X154885824Y-128528923D01*
X155104750Y-128001691D01*
X155105248Y-127430813D01*
X154887243Y-126903200D01*
X154483923Y-126499176D01*
X154430000Y-126476785D01*
X154430000Y-124774802D01*
X156014802Y-123190000D01*
X159191887Y-123190000D01*
X159301120Y-123739151D01*
X159612189Y-124204698D01*
X159994275Y-124460000D01*
X159612189Y-124715302D01*
X159301120Y-125180849D01*
X159191887Y-125730000D01*
X159301120Y-126279151D01*
X159612189Y-126744698D01*
X159994275Y-127000000D01*
X159612189Y-127255302D01*
X159301120Y-127720849D01*
X159191887Y-128270000D01*
X159301120Y-128819151D01*
X159612189Y-129284698D01*
X159994275Y-129540000D01*
X159612189Y-129795302D01*
X159301120Y-130260849D01*
X159191887Y-130810000D01*
X159301120Y-131359151D01*
X159612189Y-131824698D01*
X159994275Y-132080000D01*
X159612189Y-132335302D01*
X159301120Y-132800849D01*
X159191887Y-133350000D01*
X159301120Y-133899151D01*
X159612189Y-134364698D01*
X159994275Y-134620000D01*
X159612189Y-134875302D01*
X159301120Y-135340849D01*
X159191887Y-135890000D01*
X159301120Y-136439151D01*
X159612189Y-136904698D01*
X160077736Y-137215767D01*
X160626887Y-137325000D01*
X160683113Y-137325000D01*
X161232264Y-137215767D01*
X161697811Y-136904698D01*
X162008880Y-136439151D01*
X162118113Y-135890000D01*
X162008880Y-135340849D01*
X161697811Y-134875302D01*
X161315725Y-134620000D01*
X161697811Y-134364698D01*
X162008880Y-133899151D01*
X162118113Y-133350000D01*
X162008880Y-132800849D01*
X161697811Y-132335302D01*
X161315725Y-132080000D01*
X161697811Y-131824698D01*
X162008880Y-131359151D01*
X162118113Y-130810000D01*
X162008880Y-130260849D01*
X161697811Y-129795302D01*
X161315725Y-129540000D01*
X161697811Y-129284698D01*
X162008880Y-128819151D01*
X162118113Y-128270000D01*
X162008880Y-127720849D01*
X161697811Y-127255302D01*
X161315725Y-127000000D01*
X161697811Y-126744698D01*
X162008880Y-126279151D01*
X162118113Y-125730000D01*
X162008880Y-125180849D01*
X161697811Y-124715302D01*
X161315725Y-124460000D01*
X161697811Y-124204698D01*
X162008880Y-123739151D01*
X162118113Y-123190000D01*
X162008880Y-122640849D01*
X161697811Y-122175302D01*
X161293297Y-121905014D01*
X161510134Y-121802389D01*
X161886041Y-121387423D01*
X162046904Y-120999039D01*
X161924915Y-120777000D01*
X160782000Y-120777000D01*
X160782000Y-120797000D01*
X160528000Y-120797000D01*
X160528000Y-120777000D01*
X159385085Y-120777000D01*
X159263096Y-120999039D01*
X159423959Y-121387423D01*
X159799866Y-121802389D01*
X160016703Y-121905014D01*
X159612189Y-122175302D01*
X159301120Y-122640849D01*
X159191887Y-123190000D01*
X156014802Y-123190000D01*
X156349680Y-122855122D01*
X156395167Y-122855162D01*
X156738943Y-122713117D01*
X157002192Y-122450327D01*
X157144838Y-122106799D01*
X157145162Y-121734833D01*
X157003117Y-121391057D01*
X156740327Y-121127808D01*
X156396799Y-120985162D01*
X156024833Y-120984838D01*
X155681057Y-121126883D01*
X155417808Y-121389673D01*
X155275162Y-121733201D01*
X155275121Y-121780077D01*
X153132599Y-123922599D01*
X152967852Y-124169161D01*
X152910000Y-124460000D01*
X152910000Y-126476354D01*
X152858200Y-126497757D01*
X152454176Y-126901077D01*
X152235250Y-127428309D01*
X152234752Y-127999187D01*
X146849752Y-127999187D01*
X146850248Y-127430813D01*
X146632243Y-126903200D01*
X146228923Y-126499176D01*
X145701691Y-126280250D01*
X145130813Y-126279752D01*
X144603200Y-126497757D01*
X144199176Y-126901077D01*
X143980250Y-127428309D01*
X143979752Y-127999187D01*
X140474245Y-127999187D01*
X140418880Y-127720849D01*
X140107811Y-127255302D01*
X139725725Y-127000000D01*
X140107811Y-126744698D01*
X140418880Y-126279151D01*
X140528113Y-125730000D01*
X140418880Y-125180849D01*
X140107811Y-124715302D01*
X139725725Y-124460000D01*
X140107811Y-124204698D01*
X140418880Y-123739151D01*
X140528113Y-123190000D01*
X140431428Y-122703933D01*
X140439673Y-122712192D01*
X140739332Y-122836622D01*
X140670162Y-123003201D01*
X140669838Y-123375167D01*
X140811883Y-123718943D01*
X140845000Y-123752118D01*
X140845000Y-125167537D01*
X140812808Y-125199673D01*
X140670162Y-125543201D01*
X140669838Y-125915167D01*
X140811883Y-126258943D01*
X141074673Y-126522192D01*
X141418201Y-126664838D01*
X141790167Y-126665162D01*
X142133943Y-126523117D01*
X142397192Y-126260327D01*
X142539838Y-125916799D01*
X142540162Y-125544833D01*
X142398117Y-125201057D01*
X142365000Y-125167882D01*
X142365000Y-123752463D01*
X142397192Y-123720327D01*
X142539838Y-123376799D01*
X142540162Y-123004833D01*
X142470568Y-122836403D01*
X142768943Y-122713117D01*
X143032192Y-122450327D01*
X143174838Y-122106799D01*
X143175162Y-121734833D01*
X143033117Y-121391057D01*
X142770327Y-121127808D01*
X142426799Y-120985162D01*
X142054833Y-120984838D01*
X141711057Y-121126883D01*
X141677882Y-121160000D01*
X141532463Y-121160000D01*
X141500327Y-121127808D01*
X141156799Y-120985162D01*
X140784833Y-120984838D01*
X140441057Y-121126883D01*
X140431322Y-121136601D01*
X140528113Y-120650000D01*
X140418880Y-120100849D01*
X140120496Y-119654285D01*
X145499760Y-119654285D01*
X145710169Y-120163515D01*
X146099436Y-120553461D01*
X146608298Y-120764759D01*
X147159285Y-120765240D01*
X147668515Y-120554831D01*
X148058461Y-120165564D01*
X148269759Y-119656702D01*
X148269761Y-119654285D01*
X150379760Y-119654285D01*
X150590169Y-120163515D01*
X150979436Y-120553461D01*
X151488298Y-120764759D01*
X152039285Y-120765240D01*
X152548515Y-120554831D01*
X152938461Y-120165564D01*
X153149759Y-119656702D01*
X153150240Y-119105715D01*
X152939831Y-118596485D01*
X152550564Y-118206539D01*
X152041702Y-117995241D01*
X151490715Y-117994760D01*
X150981485Y-118205169D01*
X150591539Y-118594436D01*
X150380241Y-119103298D01*
X150379760Y-119654285D01*
X148269761Y-119654285D01*
X148270240Y-119105715D01*
X148059831Y-118596485D01*
X147670564Y-118206539D01*
X147161702Y-117995241D01*
X146610715Y-117994760D01*
X146101485Y-118205169D01*
X145711539Y-118594436D01*
X145500241Y-119103298D01*
X145499760Y-119654285D01*
X140120496Y-119654285D01*
X140107811Y-119635302D01*
X139725725Y-119380000D01*
X140107811Y-119124698D01*
X140418880Y-118659151D01*
X140528113Y-118110000D01*
X140418880Y-117560849D01*
X140107811Y-117095302D01*
X139725725Y-116840000D01*
X140107811Y-116584698D01*
X140418880Y-116119151D01*
X140528113Y-115570000D01*
X140418880Y-115020849D01*
X140107811Y-114555302D01*
X140031313Y-114504187D01*
X145249752Y-114504187D01*
X145467757Y-115031800D01*
X145871077Y-115435824D01*
X146398309Y-115654750D01*
X146969187Y-115655248D01*
X147496800Y-115437243D01*
X147900824Y-115033923D01*
X148119750Y-114506691D01*
X148119752Y-114504187D01*
X150329752Y-114504187D01*
X150547757Y-115031800D01*
X150951077Y-115435824D01*
X151478309Y-115654750D01*
X152049187Y-115655248D01*
X152576800Y-115437243D01*
X152980824Y-115033923D01*
X153199750Y-114506691D01*
X153200248Y-113935813D01*
X152982243Y-113408200D01*
X152578923Y-113004176D01*
X152051691Y-112785250D01*
X151480813Y-112784752D01*
X150953200Y-113002757D01*
X150549176Y-113406077D01*
X150330250Y-113933309D01*
X150329752Y-114504187D01*
X148119752Y-114504187D01*
X148120248Y-113935813D01*
X147902243Y-113408200D01*
X147498923Y-113004176D01*
X146971691Y-112785250D01*
X146400813Y-112784752D01*
X145873200Y-113002757D01*
X145469176Y-113406077D01*
X145250250Y-113933309D01*
X145249752Y-114504187D01*
X140031313Y-114504187D01*
X139725725Y-114300000D01*
X140107811Y-114044698D01*
X140418880Y-113579151D01*
X140528113Y-113030000D01*
X140418880Y-112480849D01*
X140107811Y-112015302D01*
X139725725Y-111760000D01*
X140107811Y-111504698D01*
X140418880Y-111039151D01*
X140528113Y-110490000D01*
X140475948Y-110227745D01*
X145856861Y-110227745D01*
X145930995Y-110473864D01*
X146468223Y-110666965D01*
X147038454Y-110639778D01*
X147439005Y-110473864D01*
X147513139Y-110227745D01*
X150936861Y-110227745D01*
X151010995Y-110473864D01*
X151548223Y-110666965D01*
X152118454Y-110639778D01*
X152519005Y-110473864D01*
X152593139Y-110227745D01*
X151765000Y-109399605D01*
X150936861Y-110227745D01*
X147513139Y-110227745D01*
X146685000Y-109399605D01*
X145856861Y-110227745D01*
X140475948Y-110227745D01*
X140418880Y-109940849D01*
X140107811Y-109475302D01*
X140002847Y-109405167D01*
X142574838Y-109405167D01*
X142716883Y-109748943D01*
X142979673Y-110012192D01*
X143323201Y-110154838D01*
X143695167Y-110155162D01*
X144038943Y-110013117D01*
X144302192Y-109750327D01*
X144444838Y-109406799D01*
X144445162Y-109034833D01*
X144432102Y-109003223D01*
X145238035Y-109003223D01*
X145265222Y-109573454D01*
X145431136Y-109974005D01*
X145677255Y-110048139D01*
X146505395Y-109220000D01*
X146864605Y-109220000D01*
X147692745Y-110048139D01*
X147938864Y-109974005D01*
X148131965Y-109436777D01*
X148111295Y-109003223D01*
X150318035Y-109003223D01*
X150345222Y-109573454D01*
X150511136Y-109974005D01*
X150757255Y-110048139D01*
X151585395Y-109220000D01*
X151944605Y-109220000D01*
X152772745Y-110048139D01*
X153018864Y-109974005D01*
X153211965Y-109436777D01*
X153184778Y-108866546D01*
X153018864Y-108465995D01*
X152772745Y-108391861D01*
X151944605Y-109220000D01*
X151585395Y-109220000D01*
X150757255Y-108391861D01*
X150511136Y-108465995D01*
X150318035Y-109003223D01*
X148111295Y-109003223D01*
X148104778Y-108866546D01*
X147938864Y-108465995D01*
X147692745Y-108391861D01*
X146864605Y-109220000D01*
X146505395Y-109220000D01*
X145677255Y-108391861D01*
X145431136Y-108465995D01*
X145238035Y-109003223D01*
X144432102Y-109003223D01*
X144303117Y-108691057D01*
X144270000Y-108657882D01*
X144270000Y-108212255D01*
X145856861Y-108212255D01*
X146685000Y-109040395D01*
X147513139Y-108212255D01*
X150936861Y-108212255D01*
X151765000Y-109040395D01*
X152593139Y-108212255D01*
X152519005Y-107966136D01*
X151981777Y-107773035D01*
X151411546Y-107800222D01*
X151010995Y-107966136D01*
X150936861Y-108212255D01*
X147513139Y-108212255D01*
X147439005Y-107966136D01*
X146901777Y-107773035D01*
X146331546Y-107800222D01*
X145930995Y-107966136D01*
X145856861Y-108212255D01*
X144270000Y-108212255D01*
X144270000Y-104454802D01*
X145094802Y-103630000D01*
X145421699Y-103630000D01*
X145634946Y-103949147D01*
X145636179Y-103949971D01*
X145599683Y-103956838D01*
X145383559Y-104095910D01*
X145238569Y-104308110D01*
X145187560Y-104560000D01*
X145187560Y-106260000D01*
X145231838Y-106495317D01*
X145370910Y-106711441D01*
X145583110Y-106856431D01*
X145835000Y-106907440D01*
X147535000Y-106907440D01*
X147770317Y-106863162D01*
X147986441Y-106724090D01*
X148131431Y-106511890D01*
X148145086Y-106444459D01*
X148174946Y-106489147D01*
X148656715Y-106811054D01*
X149225000Y-106924093D01*
X149793285Y-106811054D01*
X150275054Y-106489147D01*
X150495000Y-106159974D01*
X150714946Y-106489147D01*
X151196715Y-106811054D01*
X151765000Y-106924093D01*
X152333285Y-106811054D01*
X152815054Y-106489147D01*
X153136961Y-106007378D01*
X153250000Y-105439093D01*
X153250000Y-105380907D01*
X153136961Y-104812622D01*
X152815054Y-104330853D01*
X152531899Y-104141655D01*
X152531924Y-104141645D01*
X152960183Y-103751358D01*
X153206486Y-103226892D01*
X153085819Y-102997000D01*
X151892000Y-102997000D01*
X151892000Y-103017000D01*
X151638000Y-103017000D01*
X151638000Y-102997000D01*
X151618000Y-102997000D01*
X151618000Y-102743000D01*
X151638000Y-102743000D01*
X151638000Y-101549845D01*
X151892000Y-101549845D01*
X151892000Y-102743000D01*
X153085819Y-102743000D01*
X153206486Y-102513108D01*
X152960183Y-101988642D01*
X152531924Y-101598355D01*
X152121890Y-101428524D01*
X151892000Y-101549845D01*
X151638000Y-101549845D01*
X151408110Y-101428524D01*
X150998076Y-101598355D01*
X150569817Y-101988642D01*
X150502702Y-102131553D01*
X150275054Y-101790853D01*
X149793285Y-101468946D01*
X149225000Y-101355907D01*
X148656715Y-101468946D01*
X148174946Y-101790853D01*
X147955000Y-102120026D01*
X147735054Y-101790853D01*
X147253285Y-101468946D01*
X146685000Y-101355907D01*
X146116715Y-101468946D01*
X145634946Y-101790853D01*
X145421699Y-102110000D01*
X144780000Y-102110000D01*
X144489160Y-102167852D01*
X144242599Y-102332599D01*
X142972599Y-103602599D01*
X142807852Y-103849161D01*
X142750000Y-104140000D01*
X142750000Y-108657537D01*
X142717808Y-108689673D01*
X142575162Y-109033201D01*
X142574838Y-109405167D01*
X140002847Y-109405167D01*
X139725725Y-109220000D01*
X140107811Y-108964698D01*
X140418880Y-108499151D01*
X140528113Y-107950000D01*
X140418880Y-107400849D01*
X140107811Y-106935302D01*
X139725725Y-106680000D01*
X140107811Y-106424698D01*
X140418880Y-105959151D01*
X140528113Y-105410000D01*
X140418880Y-104860849D01*
X140107811Y-104395302D01*
X139725725Y-104140000D01*
X140107811Y-103884698D01*
X140418880Y-103419151D01*
X140528113Y-102870000D01*
X140418880Y-102320849D01*
X140107811Y-101855302D01*
X139642264Y-101544233D01*
X139093113Y-101435000D01*
X139036887Y-101435000D01*
X138487736Y-101544233D01*
X138022189Y-101855302D01*
X137711120Y-102320849D01*
X137601887Y-102870000D01*
X132892440Y-102870000D01*
X132892440Y-102070000D01*
X132848162Y-101834683D01*
X132709090Y-101618559D01*
X132496890Y-101473569D01*
X132245000Y-101422560D01*
X130645000Y-101422560D01*
X130409683Y-101466838D01*
X130193559Y-101605910D01*
X130048569Y-101818110D01*
X129997560Y-102070000D01*
X129997560Y-103670000D01*
X130041838Y-103905317D01*
X130180910Y-104121441D01*
X130393110Y-104266431D01*
X130548089Y-104297815D01*
X130402189Y-104395302D01*
X130091120Y-104860849D01*
X129981887Y-105410000D01*
X124613828Y-105410000D01*
X124884670Y-105229029D01*
X125209526Y-104742848D01*
X125323600Y-104169359D01*
X125323600Y-104110641D01*
X125209526Y-103537152D01*
X124884670Y-103050971D01*
X124613828Y-102870000D01*
X124884670Y-102689029D01*
X125209526Y-102202848D01*
X125323600Y-101629359D01*
X125323600Y-101570641D01*
X125209526Y-100997152D01*
X124884670Y-100510971D01*
X124613828Y-100330000D01*
X124884670Y-100149029D01*
X125209526Y-99662848D01*
X125323600Y-99089359D01*
X125323600Y-99030641D01*
X125209526Y-98457152D01*
X124884670Y-97970971D01*
X124613828Y-97790000D01*
X124884670Y-97609029D01*
X125209526Y-97122848D01*
X125323600Y-96549359D01*
X125323600Y-96490641D01*
X125209526Y-95917152D01*
X124887474Y-95435167D01*
X133049838Y-95435167D01*
X133191883Y-95778943D01*
X133454673Y-96042192D01*
X133798201Y-96184838D01*
X134170167Y-96185162D01*
X134513943Y-96043117D01*
X134547118Y-96010000D01*
X135575198Y-96010000D01*
X140034878Y-100469680D01*
X140034838Y-100515167D01*
X140176883Y-100858943D01*
X140439673Y-101122192D01*
X140783201Y-101264838D01*
X141155167Y-101265162D01*
X141498943Y-101123117D01*
X141762192Y-100860327D01*
X141904838Y-100516799D01*
X141905162Y-100144833D01*
X141763117Y-99801057D01*
X141500327Y-99537808D01*
X141156799Y-99395162D01*
X141109923Y-99395121D01*
X136427401Y-94712599D01*
X136180839Y-94547852D01*
X135890000Y-94490000D01*
X134547463Y-94490000D01*
X134515327Y-94457808D01*
X134171799Y-94315162D01*
X133799833Y-94314838D01*
X133456057Y-94456883D01*
X133192808Y-94719673D01*
X133050162Y-95063201D01*
X133049838Y-95435167D01*
X124887474Y-95435167D01*
X124884670Y-95430971D01*
X124613828Y-95250000D01*
X124884670Y-95069029D01*
X125209526Y-94582848D01*
X125323600Y-94009359D01*
X125323600Y-93950641D01*
X125209526Y-93377152D01*
X124884670Y-92890971D01*
X124613828Y-92710000D01*
X124884670Y-92529029D01*
X125209526Y-92042848D01*
X125323600Y-91469359D01*
X125323600Y-91410641D01*
X125209526Y-90837152D01*
X124884670Y-90350971D01*
X124613828Y-90170000D01*
X124884670Y-89989029D01*
X124997110Y-89820750D01*
X132486400Y-89820750D01*
X132486400Y-90524910D01*
X132583073Y-90758299D01*
X132761702Y-90936927D01*
X132995091Y-91033600D01*
X133699250Y-91033600D01*
X133858000Y-90874850D01*
X133858000Y-89662000D01*
X132645150Y-89662000D01*
X132486400Y-89820750D01*
X124997110Y-89820750D01*
X125209526Y-89502848D01*
X125323600Y-88929359D01*
X125323600Y-88870641D01*
X125258844Y-88545090D01*
X132486400Y-88545090D01*
X132486400Y-89249250D01*
X132645150Y-89408000D01*
X133858000Y-89408000D01*
X133858000Y-87122000D01*
X132651183Y-87122000D01*
X132530042Y-87354026D01*
X132702312Y-87769947D01*
X132959120Y-88051300D01*
X132761702Y-88133073D01*
X132583073Y-88311701D01*
X132486400Y-88545090D01*
X125258844Y-88545090D01*
X125209526Y-88297152D01*
X124884670Y-87810971D01*
X124398489Y-87486115D01*
X123825000Y-87372041D01*
X123251511Y-87486115D01*
X122765330Y-87810971D01*
X122549336Y-88134228D01*
X122491821Y-88011510D01*
X122059947Y-87617312D01*
X121644026Y-87445042D01*
X121412000Y-87566183D01*
X121412000Y-88773000D01*
X121432000Y-88773000D01*
X121432000Y-89027000D01*
X121412000Y-89027000D01*
X121412000Y-89047000D01*
X121158000Y-89047000D01*
X121158000Y-89027000D01*
X119950531Y-89027000D01*
X119830032Y-89259027D01*
X120078179Y-89788490D01*
X120496161Y-90170008D01*
X120225330Y-90350971D01*
X119900474Y-90837152D01*
X119786400Y-91410641D01*
X116915000Y-91410641D01*
X116915000Y-88540973D01*
X119830032Y-88540973D01*
X119950531Y-88773000D01*
X121158000Y-88773000D01*
X121158000Y-87566183D01*
X120925974Y-87445042D01*
X120510053Y-87617312D01*
X120078179Y-88011510D01*
X119830032Y-88540973D01*
X116915000Y-88540973D01*
X116915000Y-86635974D01*
X132530042Y-86635974D01*
X132651183Y-86868000D01*
X133858000Y-86868000D01*
X133858000Y-85660531D01*
X134112000Y-85660531D01*
X134112000Y-86868000D01*
X134132000Y-86868000D01*
X134132000Y-87122000D01*
X134112000Y-87122000D01*
X134112000Y-89408000D01*
X134132000Y-89408000D01*
X134132000Y-89662000D01*
X134112000Y-89662000D01*
X134112000Y-90874850D01*
X134270750Y-91033600D01*
X134974909Y-91033600D01*
X135208298Y-90936927D01*
X135386927Y-90758299D01*
X135450644Y-90604474D01*
X135922152Y-90919526D01*
X136495641Y-91033600D01*
X136554359Y-91033600D01*
X137127848Y-90919526D01*
X137614029Y-90594670D01*
X137795000Y-90323828D01*
X137975971Y-90594670D01*
X138462152Y-90919526D01*
X139035641Y-91033600D01*
X139094359Y-91033600D01*
X139667848Y-90919526D01*
X140154029Y-90594670D01*
X140335000Y-90323828D01*
X140515971Y-90594670D01*
X141002152Y-90919526D01*
X141575641Y-91033600D01*
X141634359Y-91033600D01*
X142207848Y-90919526D01*
X142694029Y-90594670D01*
X142875000Y-90323828D01*
X143055971Y-90594670D01*
X143542152Y-90919526D01*
X144115641Y-91033600D01*
X144174359Y-91033600D01*
X144747848Y-90919526D01*
X145234029Y-90594670D01*
X145415000Y-90323828D01*
X145595971Y-90594670D01*
X146082152Y-90919526D01*
X146655641Y-91033600D01*
X146714359Y-91033600D01*
X147043356Y-90968158D01*
X148052599Y-91977401D01*
X148299161Y-92142148D01*
X148590000Y-92200000D01*
X155647537Y-92200000D01*
X155679673Y-92232192D01*
X156023201Y-92374838D01*
X156395167Y-92375162D01*
X156738943Y-92233117D01*
X157002192Y-91970327D01*
X157144838Y-91626799D01*
X157145162Y-91254833D01*
X157040126Y-91000627D01*
X157447848Y-90919526D01*
X157652788Y-90782590D01*
X168305716Y-101435518D01*
X168303113Y-101435000D01*
X168246887Y-101435000D01*
X167697736Y-101544233D01*
X167232189Y-101855302D01*
X166921120Y-102320849D01*
X166811887Y-102870000D01*
X166921120Y-103419151D01*
X167232189Y-103884698D01*
X167614275Y-104140000D01*
X167232189Y-104395302D01*
X166921120Y-104860849D01*
X166811887Y-105410000D01*
X166921120Y-105959151D01*
X167232189Y-106424698D01*
X167614275Y-106680000D01*
X167232189Y-106935302D01*
X166921120Y-107400849D01*
X166811887Y-107950000D01*
X166913332Y-108460000D01*
X166684802Y-108460000D01*
X165860000Y-107635198D01*
X165860000Y-103505000D01*
X165802148Y-103214161D01*
X165637401Y-102967599D01*
X165002401Y-102332599D01*
X164755839Y-102167852D01*
X164465000Y-102110000D01*
X162102440Y-102110000D01*
X162102440Y-102070000D01*
X162058162Y-101834683D01*
X161919090Y-101618559D01*
X161706890Y-101473569D01*
X161455000Y-101422560D01*
X159855000Y-101422560D01*
X159619683Y-101466838D01*
X159403559Y-101605910D01*
X159258569Y-101818110D01*
X159207560Y-102070000D01*
X159207560Y-103670000D01*
X159251838Y-103905317D01*
X159390910Y-104121441D01*
X159603110Y-104266431D01*
X159758089Y-104297815D01*
X159612189Y-104395302D01*
X159301120Y-104860849D01*
X159191887Y-105410000D01*
X159301120Y-105959151D01*
X159612189Y-106424698D01*
X159994275Y-106680000D01*
X159612189Y-106935302D01*
X159301120Y-107400849D01*
X159191887Y-107950000D01*
X159301120Y-108499151D01*
X159612189Y-108964698D01*
X159994275Y-109220000D01*
X159612189Y-109475302D01*
X159442005Y-109730000D01*
X159385000Y-109730000D01*
X159094161Y-109787852D01*
X158847599Y-109952599D01*
X157249598Y-111550600D01*
X157031799Y-111460162D01*
X156659833Y-111459838D01*
X156316057Y-111601883D01*
X156052808Y-111864673D01*
X155910162Y-112208201D01*
X155909838Y-112580167D01*
X156051883Y-112923943D01*
X156314673Y-113187192D01*
X156658201Y-113329838D01*
X157030167Y-113330162D01*
X157373943Y-113188117D01*
X157407118Y-113155000D01*
X157480000Y-113155000D01*
X157770839Y-113097148D01*
X158017401Y-112932401D01*
X159545264Y-111404538D01*
X159612189Y-111504698D01*
X159994275Y-111760000D01*
X159612189Y-112015302D01*
X159301120Y-112480849D01*
X159191887Y-113030000D01*
X159301120Y-113579151D01*
X159612189Y-114044698D01*
X159994275Y-114300000D01*
X159612189Y-114555302D01*
X159301120Y-115020849D01*
X159191887Y-115570000D01*
X159301120Y-116119151D01*
X159612189Y-116584698D01*
X159994275Y-116840000D01*
X159612189Y-117095302D01*
X159301120Y-117560849D01*
X159191887Y-118110000D01*
X159301120Y-118659151D01*
X159612189Y-119124698D01*
X160016703Y-119394986D01*
X159799866Y-119497611D01*
X159423959Y-119912577D01*
X159263096Y-120300961D01*
X159385085Y-120523000D01*
X160528000Y-120523000D01*
X160528000Y-120503000D01*
X160782000Y-120503000D01*
X160782000Y-120523000D01*
X161924915Y-120523000D01*
X162046904Y-120300961D01*
X161886041Y-119912577D01*
X161510134Y-119497611D01*
X161293297Y-119394986D01*
X161697811Y-119124698D01*
X161867995Y-118870000D01*
X162245198Y-118870000D01*
X163529878Y-120154680D01*
X163529838Y-120200167D01*
X163671883Y-120543943D01*
X163934673Y-120807192D01*
X164278201Y-120949838D01*
X164650167Y-120950162D01*
X164993943Y-120808117D01*
X165257192Y-120545327D01*
X165399838Y-120201799D01*
X165400162Y-119829833D01*
X165258117Y-119486057D01*
X164995327Y-119222808D01*
X164651799Y-119080162D01*
X164604923Y-119080121D01*
X163097401Y-117572599D01*
X162850839Y-117407852D01*
X162560000Y-117350000D01*
X161867995Y-117350000D01*
X161697811Y-117095302D01*
X161315725Y-116840000D01*
X161697811Y-116584698D01*
X162008880Y-116119151D01*
X162118113Y-115570000D01*
X162008880Y-115020849D01*
X161697811Y-114555302D01*
X161315725Y-114300000D01*
X161697811Y-114044698D01*
X162008880Y-113579151D01*
X162013828Y-113554275D01*
X162022599Y-113567401D01*
X163529878Y-115074680D01*
X163529838Y-115120167D01*
X163671883Y-115463943D01*
X163934673Y-115727192D01*
X164278201Y-115869838D01*
X164650167Y-115870162D01*
X164993943Y-115728117D01*
X165257192Y-115465327D01*
X165399838Y-115121799D01*
X165400162Y-114749833D01*
X165258117Y-114406057D01*
X165152290Y-114300046D01*
X165257192Y-114195327D01*
X165399838Y-113851799D01*
X165400162Y-113479833D01*
X165258117Y-113136057D01*
X164995327Y-112872808D01*
X164651799Y-112730162D01*
X164604923Y-112730121D01*
X163955000Y-112080198D01*
X163955000Y-107950000D01*
X163897148Y-107659161D01*
X163897148Y-107659160D01*
X163732401Y-107412599D01*
X162053688Y-105733886D01*
X162118113Y-105410000D01*
X162008880Y-104860849D01*
X161697811Y-104395302D01*
X161553535Y-104298899D01*
X161690317Y-104273162D01*
X161906441Y-104134090D01*
X162051431Y-103921890D01*
X162102440Y-103670000D01*
X162102440Y-103630000D01*
X164150198Y-103630000D01*
X164340000Y-103819802D01*
X164340000Y-107950000D01*
X164397852Y-108240839D01*
X164562599Y-108487401D01*
X165832599Y-109757401D01*
X166079160Y-109922148D01*
X166370000Y-109980000D01*
X166913332Y-109980000D01*
X166811887Y-110490000D01*
X166921120Y-111039151D01*
X167232189Y-111504698D01*
X167614275Y-111760000D01*
X167232189Y-112015302D01*
X166921120Y-112480849D01*
X166811887Y-113030000D01*
X166921120Y-113579151D01*
X167232189Y-114044698D01*
X167614275Y-114300000D01*
X167232189Y-114555302D01*
X166921120Y-115020849D01*
X166811887Y-115570000D01*
X166921120Y-116119151D01*
X167232189Y-116584698D01*
X167636703Y-116854986D01*
X167419866Y-116957611D01*
X167043959Y-117372577D01*
X166883096Y-117760961D01*
X167005085Y-117983000D01*
X168148000Y-117983000D01*
X168148000Y-117963000D01*
X168402000Y-117963000D01*
X168402000Y-117983000D01*
X169544915Y-117983000D01*
X169666904Y-117760961D01*
X169506041Y-117372577D01*
X169130134Y-116957611D01*
X168913297Y-116854986D01*
X169317811Y-116584698D01*
X169628880Y-116119151D01*
X169738113Y-115570000D01*
X169628880Y-115020849D01*
X169317811Y-114555302D01*
X168935725Y-114300000D01*
X169317811Y-114044698D01*
X169628880Y-113579151D01*
X169738113Y-113030000D01*
X169628880Y-112480849D01*
X169317811Y-112015302D01*
X168935725Y-111760000D01*
X169317811Y-111504698D01*
X169628880Y-111039151D01*
X169738113Y-110490000D01*
X169633179Y-109962460D01*
X169835839Y-109922148D01*
X170082401Y-109757401D01*
X170494802Y-109345000D01*
X176467188Y-109345000D01*
X176403569Y-109438110D01*
X176352560Y-109690000D01*
X176352560Y-111290000D01*
X176396838Y-111525317D01*
X176535910Y-111741441D01*
X176748110Y-111886431D01*
X177000000Y-111937440D01*
X178600000Y-111937440D01*
X178835317Y-111893162D01*
X179051441Y-111754090D01*
X179196431Y-111541890D01*
X179227815Y-111386911D01*
X179325302Y-111532811D01*
X179790849Y-111843880D01*
X180340000Y-111953113D01*
X180889151Y-111843880D01*
X181354698Y-111532811D01*
X181610000Y-111150725D01*
X181865302Y-111532811D01*
X182330849Y-111843880D01*
X182880000Y-111953113D01*
X183429151Y-111843880D01*
X183894698Y-111532811D01*
X184150000Y-111150725D01*
X184405302Y-111532811D01*
X184870849Y-111843880D01*
X185420000Y-111953113D01*
X185969151Y-111843880D01*
X186434698Y-111532811D01*
X186690000Y-111150725D01*
X186945302Y-111532811D01*
X187410849Y-111843880D01*
X187960000Y-111953113D01*
X188509151Y-111843880D01*
X188974698Y-111532811D01*
X189230000Y-111150725D01*
X189485302Y-111532811D01*
X189950849Y-111843880D01*
X190500000Y-111953113D01*
X191049151Y-111843880D01*
X191514698Y-111532811D01*
X191770000Y-111150725D01*
X192025302Y-111532811D01*
X192490849Y-111843880D01*
X193040000Y-111953113D01*
X193589151Y-111843880D01*
X194054698Y-111532811D01*
X194310000Y-111150725D01*
X194565302Y-111532811D01*
X195030849Y-111843880D01*
X195580000Y-111953113D01*
X196129151Y-111843880D01*
X196594698Y-111532811D01*
X196850000Y-111150725D01*
X197105302Y-111532811D01*
X197570849Y-111843880D01*
X198120000Y-111953113D01*
X198669151Y-111843880D01*
X199134698Y-111532811D01*
X199404986Y-111128297D01*
X199507611Y-111345134D01*
X199922577Y-111721041D01*
X200310961Y-111881904D01*
X200533000Y-111759915D01*
X200533000Y-110617000D01*
X200513000Y-110617000D01*
X200513000Y-110363000D01*
X200533000Y-110363000D01*
X200533000Y-109220085D01*
X200787000Y-109220085D01*
X200787000Y-110363000D01*
X200807000Y-110363000D01*
X200807000Y-110617000D01*
X200787000Y-110617000D01*
X200787000Y-111759915D01*
X201009039Y-111881904D01*
X201397423Y-111721041D01*
X201812389Y-111345134D01*
X201915014Y-111128297D01*
X202185302Y-111532811D01*
X202650849Y-111843880D01*
X203200000Y-111953113D01*
X203749151Y-111843880D01*
X204214698Y-111532811D01*
X204470000Y-111150725D01*
X204725302Y-111532811D01*
X205190849Y-111843880D01*
X205740000Y-111953113D01*
X206289151Y-111843880D01*
X206754698Y-111532811D01*
X207010000Y-111150725D01*
X207265302Y-111532811D01*
X207730849Y-111843880D01*
X208280000Y-111953113D01*
X208829151Y-111843880D01*
X209294698Y-111532811D01*
X209550000Y-111150725D01*
X209805302Y-111532811D01*
X210270849Y-111843880D01*
X210820000Y-111953113D01*
X211369151Y-111843880D01*
X211834698Y-111532811D01*
X212145767Y-111067264D01*
X212255000Y-110518113D01*
X212255000Y-110461887D01*
X212145767Y-109912736D01*
X211834698Y-109447189D01*
X211369151Y-109136120D01*
X210820000Y-109026887D01*
X210270849Y-109136120D01*
X209805302Y-109447189D01*
X209550000Y-109829275D01*
X209294698Y-109447189D01*
X208829151Y-109136120D01*
X208280000Y-109026887D01*
X207730849Y-109136120D01*
X207265302Y-109447189D01*
X207010000Y-109829275D01*
X206754698Y-109447189D01*
X206289151Y-109136120D01*
X205740000Y-109026887D01*
X205190849Y-109136120D01*
X204725302Y-109447189D01*
X204470000Y-109829275D01*
X204214698Y-109447189D01*
X203749151Y-109136120D01*
X203200000Y-109026887D01*
X202650849Y-109136120D01*
X202185302Y-109447189D01*
X201915014Y-109851703D01*
X201812389Y-109634866D01*
X201397423Y-109258959D01*
X201009039Y-109098096D01*
X200787000Y-109220085D01*
X200533000Y-109220085D01*
X200310961Y-109098096D01*
X199922577Y-109258959D01*
X199507611Y-109634866D01*
X199404986Y-109851703D01*
X199134698Y-109447189D01*
X198880000Y-109277005D01*
X198880000Y-108585000D01*
X198822148Y-108294161D01*
X198822148Y-108294160D01*
X198657401Y-108047599D01*
X197785122Y-107175320D01*
X197785162Y-107129833D01*
X197643117Y-106786057D01*
X197380327Y-106522808D01*
X197036799Y-106380162D01*
X196664833Y-106379838D01*
X196321057Y-106521883D01*
X196057808Y-106784673D01*
X195915162Y-107128201D01*
X195914838Y-107500167D01*
X196056883Y-107843943D01*
X196319673Y-108107192D01*
X196663201Y-108249838D01*
X196710077Y-108249879D01*
X197360000Y-108899802D01*
X197360000Y-109277005D01*
X197105302Y-109447189D01*
X196850000Y-109829275D01*
X196594698Y-109447189D01*
X196129151Y-109136120D01*
X195580000Y-109026887D01*
X195030849Y-109136120D01*
X194565302Y-109447189D01*
X194310000Y-109829275D01*
X194054698Y-109447189D01*
X193589151Y-109136120D01*
X193040000Y-109026887D01*
X192490849Y-109136120D01*
X192025302Y-109447189D01*
X191770000Y-109829275D01*
X191514698Y-109447189D01*
X191049151Y-109136120D01*
X190500000Y-109026887D01*
X189950849Y-109136120D01*
X189485302Y-109447189D01*
X189230000Y-109829275D01*
X188974698Y-109447189D01*
X188509151Y-109136120D01*
X187960000Y-109026887D01*
X187410849Y-109136120D01*
X186945302Y-109447189D01*
X186690000Y-109829275D01*
X186434698Y-109447189D01*
X185969151Y-109136120D01*
X185420000Y-109026887D01*
X184870849Y-109136120D01*
X184405302Y-109447189D01*
X184150000Y-109829275D01*
X183894698Y-109447189D01*
X183887850Y-109442613D01*
X184043943Y-109378117D01*
X184307192Y-109115327D01*
X184449838Y-108771799D01*
X184450162Y-108399833D01*
X184308117Y-108056057D01*
X184078631Y-107826171D01*
X187227401Y-104677401D01*
X187392148Y-104430839D01*
X187432460Y-104228179D01*
X187960000Y-104333113D01*
X188509151Y-104223880D01*
X188974698Y-103912811D01*
X189230000Y-103530725D01*
X189485302Y-103912811D01*
X189950849Y-104223880D01*
X190500000Y-104333113D01*
X191049151Y-104223880D01*
X191514698Y-103912811D01*
X191770000Y-103530725D01*
X192025302Y-103912811D01*
X192490849Y-104223880D01*
X193040000Y-104333113D01*
X193589151Y-104223880D01*
X194054698Y-103912811D01*
X194310000Y-103530725D01*
X194565302Y-103912811D01*
X195030849Y-104223880D01*
X195580000Y-104333113D01*
X196129151Y-104223880D01*
X196594698Y-103912811D01*
X196850000Y-103530725D01*
X197105302Y-103912811D01*
X197570849Y-104223880D01*
X198120000Y-104333113D01*
X198669151Y-104223880D01*
X199134698Y-103912811D01*
X199390000Y-103530725D01*
X199645302Y-103912811D01*
X200110849Y-104223880D01*
X200660000Y-104333113D01*
X201209151Y-104223880D01*
X201674698Y-103912811D01*
X201930000Y-103530725D01*
X202185302Y-103912811D01*
X202650849Y-104223880D01*
X203200000Y-104333113D01*
X203749151Y-104223880D01*
X204214698Y-103912811D01*
X204484986Y-103508297D01*
X204587611Y-103725134D01*
X205002577Y-104101041D01*
X205390961Y-104261904D01*
X205613000Y-104139915D01*
X205613000Y-102997000D01*
X205867000Y-102997000D01*
X205867000Y-104139915D01*
X206089039Y-104261904D01*
X206477423Y-104101041D01*
X206892389Y-103725134D01*
X207010000Y-103476633D01*
X207127611Y-103725134D01*
X207542577Y-104101041D01*
X207930961Y-104261904D01*
X208153000Y-104139915D01*
X208153000Y-102997000D01*
X208407000Y-102997000D01*
X208407000Y-104139915D01*
X208629039Y-104261904D01*
X209017423Y-104101041D01*
X209432389Y-103725134D01*
X209550000Y-103476633D01*
X209667611Y-103725134D01*
X210082577Y-104101041D01*
X210470961Y-104261904D01*
X210693000Y-104139915D01*
X210693000Y-102997000D01*
X210947000Y-102997000D01*
X210947000Y-104139915D01*
X211169039Y-104261904D01*
X211557423Y-104101041D01*
X211972389Y-103725134D01*
X212211914Y-103219041D01*
X212090629Y-102997000D01*
X210947000Y-102997000D01*
X210693000Y-102997000D01*
X208407000Y-102997000D01*
X208153000Y-102997000D01*
X205867000Y-102997000D01*
X205613000Y-102997000D01*
X205593000Y-102997000D01*
X205593000Y-102743000D01*
X205613000Y-102743000D01*
X205613000Y-101600085D01*
X205867000Y-101600085D01*
X205867000Y-102743000D01*
X208153000Y-102743000D01*
X208153000Y-101600085D01*
X208407000Y-101600085D01*
X208407000Y-102743000D01*
X210693000Y-102743000D01*
X210693000Y-101600085D01*
X210947000Y-101600085D01*
X210947000Y-102743000D01*
X212090629Y-102743000D01*
X212211914Y-102520959D01*
X211972389Y-102014866D01*
X211557423Y-101638959D01*
X211169039Y-101478096D01*
X210947000Y-101600085D01*
X210693000Y-101600085D01*
X210470961Y-101478096D01*
X210082577Y-101638959D01*
X209667611Y-102014866D01*
X209550000Y-102263367D01*
X209432389Y-102014866D01*
X209017423Y-101638959D01*
X208629039Y-101478096D01*
X208407000Y-101600085D01*
X208153000Y-101600085D01*
X207930961Y-101478096D01*
X207542577Y-101638959D01*
X207127611Y-102014866D01*
X207010000Y-102263367D01*
X206892389Y-102014866D01*
X206477423Y-101638959D01*
X206089039Y-101478096D01*
X205867000Y-101600085D01*
X205613000Y-101600085D01*
X205390961Y-101478096D01*
X205002577Y-101638959D01*
X204587611Y-102014866D01*
X204484986Y-102231703D01*
X204214698Y-101827189D01*
X203749151Y-101516120D01*
X203200000Y-101406887D01*
X202650849Y-101516120D01*
X202185302Y-101827189D01*
X201930000Y-102209275D01*
X201674698Y-101827189D01*
X201209151Y-101516120D01*
X200660000Y-101406887D01*
X200110849Y-101516120D01*
X199645302Y-101827189D01*
X199390000Y-102209275D01*
X199134698Y-101827189D01*
X198669151Y-101516120D01*
X198120000Y-101406887D01*
X197570849Y-101516120D01*
X197105302Y-101827189D01*
X196850000Y-102209275D01*
X196594698Y-101827189D01*
X196129151Y-101516120D01*
X195580000Y-101406887D01*
X195030849Y-101516120D01*
X194565302Y-101827189D01*
X194310000Y-102209275D01*
X194054698Y-101827189D01*
X193589151Y-101516120D01*
X193040000Y-101406887D01*
X192490849Y-101516120D01*
X192025302Y-101827189D01*
X191770000Y-102209275D01*
X191514698Y-101827189D01*
X191049151Y-101516120D01*
X190500000Y-101406887D01*
X189950849Y-101516120D01*
X189485302Y-101827189D01*
X189230000Y-102209275D01*
X188974698Y-101827189D01*
X188509151Y-101516120D01*
X187960000Y-101406887D01*
X187450000Y-101508332D01*
X187450000Y-95812463D01*
X187482192Y-95780327D01*
X187624838Y-95436799D01*
X187625162Y-95064833D01*
X187483117Y-94721057D01*
X187220327Y-94457808D01*
X186876799Y-94315162D01*
X186504833Y-94314838D01*
X186161057Y-94456883D01*
X185897808Y-94719673D01*
X185755162Y-95063201D01*
X185754838Y-95435167D01*
X185896883Y-95778943D01*
X185930000Y-95812118D01*
X185930000Y-101508332D01*
X185420000Y-101406887D01*
X184910000Y-101508332D01*
X184910000Y-95812463D01*
X184942192Y-95780327D01*
X185084838Y-95436799D01*
X185085162Y-95064833D01*
X184943117Y-94721057D01*
X184680327Y-94457808D01*
X184336799Y-94315162D01*
X183964833Y-94314838D01*
X183621057Y-94456883D01*
X183357808Y-94719673D01*
X183215162Y-95063201D01*
X183214838Y-95435167D01*
X183356883Y-95778943D01*
X183390000Y-95812118D01*
X183390000Y-101508332D01*
X182880000Y-101406887D01*
X182370000Y-101508332D01*
X182370000Y-95812463D01*
X182402192Y-95780327D01*
X182544838Y-95436799D01*
X182545162Y-95064833D01*
X182403117Y-94721057D01*
X182140327Y-94457808D01*
X181796799Y-94315162D01*
X181424833Y-94314838D01*
X181081057Y-94456883D01*
X180817808Y-94719673D01*
X180675162Y-95063201D01*
X180674838Y-95435167D01*
X180816883Y-95778943D01*
X180850000Y-95812118D01*
X180850000Y-101508332D01*
X180340000Y-101406887D01*
X179812460Y-101511821D01*
X179791587Y-101406887D01*
X179772148Y-101309160D01*
X179607401Y-101062599D01*
X170305000Y-91760198D01*
X170305000Y-90814520D01*
X170634029Y-90594670D01*
X170815000Y-90323828D01*
X170995971Y-90594670D01*
X171482152Y-90919526D01*
X172055641Y-91033600D01*
X172114359Y-91033600D01*
X172687848Y-90919526D01*
X173174029Y-90594670D01*
X173355000Y-90323828D01*
X173535971Y-90594670D01*
X174022152Y-90919526D01*
X174595641Y-91033600D01*
X174654359Y-91033600D01*
X175227848Y-90919526D01*
X175714029Y-90594670D01*
X175895000Y-90323828D01*
X176075971Y-90594670D01*
X176562152Y-90919526D01*
X177135641Y-91033600D01*
X177194359Y-91033600D01*
X177767848Y-90919526D01*
X178254029Y-90594670D01*
X178435000Y-90323828D01*
X178615971Y-90594670D01*
X179102152Y-90919526D01*
X179675641Y-91033600D01*
X179734359Y-91033600D01*
X180307848Y-90919526D01*
X180794029Y-90594670D01*
X180974992Y-90323839D01*
X181356510Y-90741821D01*
X181885973Y-90989968D01*
X182118000Y-90869469D01*
X182118000Y-89662000D01*
X182372000Y-89662000D01*
X182372000Y-90869469D01*
X182604027Y-90989968D01*
X183133490Y-90741821D01*
X183527688Y-90309947D01*
X183699958Y-89894026D01*
X183578817Y-89662000D01*
X182372000Y-89662000D01*
X182118000Y-89662000D01*
X182098000Y-89662000D01*
X182098000Y-89408000D01*
X182118000Y-89408000D01*
X182118000Y-87122000D01*
X182372000Y-87122000D01*
X182372000Y-89408000D01*
X183578817Y-89408000D01*
X183699958Y-89175974D01*
X183527688Y-88760053D01*
X183133490Y-88328179D01*
X182998687Y-88265000D01*
X183133490Y-88201821D01*
X183396031Y-87914187D01*
X207559752Y-87914187D01*
X207777757Y-88441800D01*
X208181077Y-88845824D01*
X208708309Y-89064750D01*
X209279187Y-89065248D01*
X209806800Y-88847243D01*
X210210824Y-88443923D01*
X210429750Y-87916691D01*
X210430248Y-87345813D01*
X210212243Y-86818200D01*
X209808923Y-86414176D01*
X209281691Y-86195250D01*
X208710813Y-86194752D01*
X208183200Y-86412757D01*
X207779176Y-86816077D01*
X207560250Y-87343309D01*
X207559752Y-87914187D01*
X183396031Y-87914187D01*
X183527688Y-87769947D01*
X183699958Y-87354026D01*
X183578817Y-87122000D01*
X182372000Y-87122000D01*
X182118000Y-87122000D01*
X182098000Y-87122000D01*
X182098000Y-86868000D01*
X182118000Y-86868000D01*
X182118000Y-85660531D01*
X182372000Y-85660531D01*
X182372000Y-86868000D01*
X183578817Y-86868000D01*
X183699958Y-86635974D01*
X183527688Y-86220053D01*
X183133490Y-85788179D01*
X182604027Y-85540032D01*
X182372000Y-85660531D01*
X182118000Y-85660531D01*
X181885973Y-85540032D01*
X181356510Y-85788179D01*
X180974992Y-86206161D01*
X180794029Y-85935330D01*
X180307848Y-85610474D01*
X179734359Y-85496400D01*
X179675641Y-85496400D01*
X179102152Y-85610474D01*
X178615971Y-85935330D01*
X178435000Y-86206172D01*
X178254029Y-85935330D01*
X177767848Y-85610474D01*
X177194359Y-85496400D01*
X177135641Y-85496400D01*
X176562152Y-85610474D01*
X176075971Y-85935330D01*
X175895000Y-86206172D01*
X175714029Y-85935330D01*
X175227848Y-85610474D01*
X174654359Y-85496400D01*
X174595641Y-85496400D01*
X174022152Y-85610474D01*
X173535971Y-85935330D01*
X173355000Y-86206172D01*
X173174029Y-85935330D01*
X172687848Y-85610474D01*
X172114359Y-85496400D01*
X172055641Y-85496400D01*
X171482152Y-85610474D01*
X170995971Y-85935330D01*
X170815000Y-86206172D01*
X170634029Y-85935330D01*
X170147848Y-85610474D01*
X169574359Y-85496400D01*
X169515641Y-85496400D01*
X168942152Y-85610474D01*
X168455971Y-85935330D01*
X168275000Y-86206172D01*
X168094029Y-85935330D01*
X167607848Y-85610474D01*
X167034359Y-85496400D01*
X166975641Y-85496400D01*
X166402152Y-85610474D01*
X165915971Y-85935330D01*
X165735000Y-86206172D01*
X165554029Y-85935330D01*
X165067848Y-85610474D01*
X164494359Y-85496400D01*
X164435641Y-85496400D01*
X163862152Y-85610474D01*
X163375971Y-85935330D01*
X163195000Y-86206172D01*
X163014029Y-85935330D01*
X162527848Y-85610474D01*
X161954359Y-85496400D01*
X161895641Y-85496400D01*
X161322152Y-85610474D01*
X160835971Y-85935330D01*
X160655000Y-86206172D01*
X160474029Y-85935330D01*
X159987848Y-85610474D01*
X159414359Y-85496400D01*
X159355641Y-85496400D01*
X158782152Y-85610474D01*
X158295971Y-85935330D01*
X158115000Y-86206172D01*
X157934029Y-85935330D01*
X157447848Y-85610474D01*
X156874359Y-85496400D01*
X156815641Y-85496400D01*
X156242152Y-85610474D01*
X155755971Y-85935330D01*
X155575000Y-86206172D01*
X155394029Y-85935330D01*
X154907848Y-85610474D01*
X154334359Y-85496400D01*
X154275641Y-85496400D01*
X153702152Y-85610474D01*
X153215971Y-85935330D01*
X153035000Y-86206172D01*
X152854029Y-85935330D01*
X152367848Y-85610474D01*
X151794359Y-85496400D01*
X151735641Y-85496400D01*
X151162152Y-85610474D01*
X150675971Y-85935330D01*
X150495000Y-86206172D01*
X150314029Y-85935330D01*
X149827848Y-85610474D01*
X149254359Y-85496400D01*
X149195641Y-85496400D01*
X148622152Y-85610474D01*
X148135971Y-85935330D01*
X147955000Y-86206172D01*
X147774029Y-85935330D01*
X147287848Y-85610474D01*
X146714359Y-85496400D01*
X146655641Y-85496400D01*
X146082152Y-85610474D01*
X145595971Y-85935330D01*
X145415000Y-86206172D01*
X145234029Y-85935330D01*
X144747848Y-85610474D01*
X144174359Y-85496400D01*
X144115641Y-85496400D01*
X143542152Y-85610474D01*
X143055971Y-85935330D01*
X142875000Y-86206172D01*
X142694029Y-85935330D01*
X142207848Y-85610474D01*
X141634359Y-85496400D01*
X141575641Y-85496400D01*
X141002152Y-85610474D01*
X140515971Y-85935330D01*
X140335000Y-86206172D01*
X140154029Y-85935330D01*
X139667848Y-85610474D01*
X139094359Y-85496400D01*
X139035641Y-85496400D01*
X138462152Y-85610474D01*
X137975971Y-85935330D01*
X137795000Y-86206172D01*
X137614029Y-85935330D01*
X137127848Y-85610474D01*
X136554359Y-85496400D01*
X136495641Y-85496400D01*
X135922152Y-85610474D01*
X135435971Y-85935330D01*
X135255008Y-86206161D01*
X134873490Y-85788179D01*
X134344027Y-85540032D01*
X134112000Y-85660531D01*
X133858000Y-85660531D01*
X133625973Y-85540032D01*
X133096510Y-85788179D01*
X132702312Y-86220053D01*
X132530042Y-86635974D01*
X116915000Y-86635974D01*
X116915000Y-81990000D01*
X192177560Y-81990000D01*
X192177560Y-83400000D01*
M02*
