G04 #@! TF.FileFunction,Legend,Bot*
%FSLAX46Y46*%
G04 Gerber Fmt 4.6, Leading zero omitted, Abs format (unit mm)*
G04 Created by KiCad (PCBNEW 4.0.7) date 02/27/19 23:03:59*
%MOMM*%
%LPD*%
G01*
G04 APERTURE LIST*
%ADD10C,0.100000*%
%ADD11C,0.150000*%
%ADD12C,0.200000*%
%ADD13C,0.120000*%
G04 APERTURE END LIST*
D10*
D11*
X126658333Y-57317143D02*
X126705952Y-57364762D01*
X126848809Y-57412381D01*
X126944047Y-57412381D01*
X127086905Y-57364762D01*
X127182143Y-57269524D01*
X127229762Y-57174286D01*
X127277381Y-56983810D01*
X127277381Y-56840952D01*
X127229762Y-56650476D01*
X127182143Y-56555238D01*
X127086905Y-56460000D01*
X126944047Y-56412381D01*
X126848809Y-56412381D01*
X126705952Y-56460000D01*
X126658333Y-56507619D01*
X126039286Y-56412381D02*
X125848809Y-56412381D01*
X125753571Y-56460000D01*
X125658333Y-56555238D01*
X125610714Y-56745714D01*
X125610714Y-57079048D01*
X125658333Y-57269524D01*
X125753571Y-57364762D01*
X125848809Y-57412381D01*
X126039286Y-57412381D01*
X126134524Y-57364762D01*
X126229762Y-57269524D01*
X126277381Y-57079048D01*
X126277381Y-56745714D01*
X126229762Y-56555238D01*
X126134524Y-56460000D01*
X126039286Y-56412381D01*
X124705952Y-57412381D02*
X125182143Y-57412381D01*
X125182143Y-56412381D01*
X124182143Y-56412381D02*
X123991666Y-56412381D01*
X123896428Y-56460000D01*
X123801190Y-56555238D01*
X123753571Y-56745714D01*
X123753571Y-57079048D01*
X123801190Y-57269524D01*
X123896428Y-57364762D01*
X123991666Y-57412381D01*
X124182143Y-57412381D01*
X124277381Y-57364762D01*
X124372619Y-57269524D01*
X124420238Y-57079048D01*
X124420238Y-56745714D01*
X124372619Y-56555238D01*
X124277381Y-56460000D01*
X124182143Y-56412381D01*
X122753571Y-57412381D02*
X123086905Y-56936190D01*
X123325000Y-57412381D02*
X123325000Y-56412381D01*
X122944047Y-56412381D01*
X122848809Y-56460000D01*
X122801190Y-56507619D01*
X122753571Y-56602857D01*
X122753571Y-56745714D01*
X122801190Y-56840952D01*
X122848809Y-56888571D01*
X122944047Y-56936190D01*
X123325000Y-56936190D01*
X121705952Y-56412381D02*
X121134523Y-56412381D01*
X121420238Y-57412381D02*
X121420238Y-56412381D01*
X120944047Y-56412381D02*
X120610714Y-57412381D01*
X120277380Y-56412381D01*
X130610714Y-58062381D02*
X130277381Y-59062381D01*
X129944047Y-58062381D01*
X129610714Y-59062381D02*
X129610714Y-58062381D01*
X129134524Y-59062381D02*
X129134524Y-58062381D01*
X128896429Y-58062381D01*
X128753571Y-58110000D01*
X128658333Y-58205238D01*
X128610714Y-58300476D01*
X128563095Y-58490952D01*
X128563095Y-58633810D01*
X128610714Y-58824286D01*
X128658333Y-58919524D01*
X128753571Y-59014762D01*
X128896429Y-59062381D01*
X129134524Y-59062381D01*
X128134524Y-58538571D02*
X127801190Y-58538571D01*
X127658333Y-59062381D02*
X128134524Y-59062381D01*
X128134524Y-58062381D01*
X127658333Y-58062381D01*
X127039286Y-58062381D02*
X126848809Y-58062381D01*
X126753571Y-58110000D01*
X126658333Y-58205238D01*
X126610714Y-58395714D01*
X126610714Y-58729048D01*
X126658333Y-58919524D01*
X126753571Y-59014762D01*
X126848809Y-59062381D01*
X127039286Y-59062381D01*
X127134524Y-59014762D01*
X127229762Y-58919524D01*
X127277381Y-58729048D01*
X127277381Y-58395714D01*
X127229762Y-58205238D01*
X127134524Y-58110000D01*
X127039286Y-58062381D01*
X125420238Y-59062381D02*
X125420238Y-58062381D01*
X125086904Y-58776667D01*
X124753571Y-58062381D01*
X124753571Y-59062381D01*
X124086905Y-58062381D02*
X123896428Y-58062381D01*
X123801190Y-58110000D01*
X123705952Y-58205238D01*
X123658333Y-58395714D01*
X123658333Y-58729048D01*
X123705952Y-58919524D01*
X123801190Y-59014762D01*
X123896428Y-59062381D01*
X124086905Y-59062381D01*
X124182143Y-59014762D01*
X124277381Y-58919524D01*
X124325000Y-58729048D01*
X124325000Y-58395714D01*
X124277381Y-58205238D01*
X124182143Y-58110000D01*
X124086905Y-58062381D01*
X123229762Y-59062381D02*
X123229762Y-58062381D01*
X122991667Y-58062381D01*
X122848809Y-58110000D01*
X122753571Y-58205238D01*
X122705952Y-58300476D01*
X122658333Y-58490952D01*
X122658333Y-58633810D01*
X122705952Y-58824286D01*
X122753571Y-58919524D01*
X122848809Y-59014762D01*
X122991667Y-59062381D01*
X123229762Y-59062381D01*
X122229762Y-58062381D02*
X122229762Y-58871905D01*
X122182143Y-58967143D01*
X122134524Y-59014762D01*
X122039286Y-59062381D01*
X121848809Y-59062381D01*
X121753571Y-59014762D01*
X121705952Y-58967143D01*
X121658333Y-58871905D01*
X121658333Y-58062381D01*
X120705952Y-59062381D02*
X121182143Y-59062381D01*
X121182143Y-58062381D01*
X120420238Y-58776667D02*
X119944047Y-58776667D01*
X120515476Y-59062381D02*
X120182143Y-58062381D01*
X119848809Y-59062381D01*
X119658333Y-58062381D02*
X119086904Y-58062381D01*
X119372619Y-59062381D02*
X119372619Y-58062381D01*
X118563095Y-58062381D02*
X118372618Y-58062381D01*
X118277380Y-58110000D01*
X118182142Y-58205238D01*
X118134523Y-58395714D01*
X118134523Y-58729048D01*
X118182142Y-58919524D01*
X118277380Y-59014762D01*
X118372618Y-59062381D01*
X118563095Y-59062381D01*
X118658333Y-59014762D01*
X118753571Y-58919524D01*
X118801190Y-58729048D01*
X118801190Y-58395714D01*
X118753571Y-58205238D01*
X118658333Y-58110000D01*
X118563095Y-58062381D01*
X117134523Y-59062381D02*
X117467857Y-58586190D01*
X117705952Y-59062381D02*
X117705952Y-58062381D01*
X117324999Y-58062381D01*
X117229761Y-58110000D01*
X117182142Y-58157619D01*
X117134523Y-58252857D01*
X117134523Y-58395714D01*
X117182142Y-58490952D01*
X117229761Y-58538571D01*
X117324999Y-58586190D01*
X117705952Y-58586190D01*
D12*
X132715000Y-60325000D02*
X132715000Y-55245000D01*
X114935000Y-60325000D02*
X132715000Y-60325000D01*
X114935000Y-55245000D02*
X114935000Y-60325000D01*
X132715000Y-55245000D02*
X114935000Y-55245000D01*
D11*
X126991666Y-65222381D02*
X127325000Y-64746190D01*
X127563095Y-65222381D02*
X127563095Y-64222381D01*
X127182142Y-64222381D01*
X127086904Y-64270000D01*
X127039285Y-64317619D01*
X126991666Y-64412857D01*
X126991666Y-64555714D01*
X127039285Y-64650952D01*
X127086904Y-64698571D01*
X127182142Y-64746190D01*
X127563095Y-64746190D01*
X126182142Y-65174762D02*
X126277380Y-65222381D01*
X126467857Y-65222381D01*
X126563095Y-65174762D01*
X126610714Y-65079524D01*
X126610714Y-64698571D01*
X126563095Y-64603333D01*
X126467857Y-64555714D01*
X126277380Y-64555714D01*
X126182142Y-64603333D01*
X126134523Y-64698571D01*
X126134523Y-64793810D01*
X126610714Y-64889048D01*
X125801190Y-64555714D02*
X125563095Y-65222381D01*
X125324999Y-64555714D01*
X124944047Y-65222381D02*
X124944047Y-64555714D01*
X124944047Y-64222381D02*
X124991666Y-64270000D01*
X124944047Y-64317619D01*
X124896428Y-64270000D01*
X124944047Y-64222381D01*
X124944047Y-64317619D01*
X124515476Y-65174762D02*
X124420238Y-65222381D01*
X124229762Y-65222381D01*
X124134523Y-65174762D01*
X124086904Y-65079524D01*
X124086904Y-65031905D01*
X124134523Y-64936667D01*
X124229762Y-64889048D01*
X124372619Y-64889048D01*
X124467857Y-64841429D01*
X124515476Y-64746190D01*
X124515476Y-64698571D01*
X124467857Y-64603333D01*
X124372619Y-64555714D01*
X124229762Y-64555714D01*
X124134523Y-64603333D01*
X123658333Y-65222381D02*
X123658333Y-64555714D01*
X123658333Y-64222381D02*
X123705952Y-64270000D01*
X123658333Y-64317619D01*
X123610714Y-64270000D01*
X123658333Y-64222381D01*
X123658333Y-64317619D01*
X123039286Y-65222381D02*
X123134524Y-65174762D01*
X123182143Y-65127143D01*
X123229762Y-65031905D01*
X123229762Y-64746190D01*
X123182143Y-64650952D01*
X123134524Y-64603333D01*
X123039286Y-64555714D01*
X122896428Y-64555714D01*
X122801190Y-64603333D01*
X122753571Y-64650952D01*
X122705952Y-64746190D01*
X122705952Y-65031905D01*
X122753571Y-65127143D01*
X122801190Y-65174762D01*
X122896428Y-65222381D01*
X123039286Y-65222381D01*
X122277381Y-64555714D02*
X122277381Y-65222381D01*
X122277381Y-64650952D02*
X122229762Y-64603333D01*
X122134524Y-64555714D01*
X121991666Y-64555714D01*
X121896428Y-64603333D01*
X121848809Y-64698571D01*
X121848809Y-65222381D01*
X120277380Y-64698571D02*
X120134523Y-64746190D01*
X120086904Y-64793810D01*
X120039285Y-64889048D01*
X120039285Y-65031905D01*
X120086904Y-65127143D01*
X120134523Y-65174762D01*
X120229761Y-65222381D01*
X120610714Y-65222381D01*
X120610714Y-64222381D01*
X120277380Y-64222381D01*
X120182142Y-64270000D01*
X120134523Y-64317619D01*
X120086904Y-64412857D01*
X120086904Y-64508095D01*
X120134523Y-64603333D01*
X120182142Y-64650952D01*
X120277380Y-64698571D01*
X120610714Y-64698571D01*
X82200553Y-68299210D02*
X81493447Y-67592103D01*
X81897507Y-68602256D02*
X81527118Y-68231867D01*
X81493446Y-68130851D01*
X81527118Y-68029836D01*
X81628133Y-67928820D01*
X81729149Y-67895149D01*
X81796492Y-67895149D01*
X81190400Y-68366553D02*
X80921027Y-68635927D01*
X80853683Y-68231867D02*
X81459775Y-68837958D01*
X81493447Y-68938973D01*
X81459775Y-69039988D01*
X81392431Y-69107332D01*
X80786339Y-68770615D02*
X80516965Y-69039988D01*
X80449622Y-68635928D02*
X81055714Y-69242020D01*
X81089385Y-69343035D01*
X81055714Y-69444050D01*
X80988370Y-69511393D01*
X80281263Y-69275691D02*
X80988369Y-69982798D01*
X80314934Y-69309363D02*
X80213919Y-69343035D01*
X80079232Y-69477722D01*
X80045560Y-69578737D01*
X80045560Y-69646081D01*
X80079232Y-69747096D01*
X80281263Y-69949127D01*
X80382278Y-69982799D01*
X80449621Y-69982799D01*
X80550636Y-69949127D01*
X80685324Y-69814439D01*
X80718996Y-69713424D01*
X80112904Y-70319516D02*
X80079232Y-70420531D01*
X79944545Y-70555218D01*
X79843530Y-70588890D01*
X79742514Y-70555219D01*
X79708843Y-70521547D01*
X79675171Y-70420532D01*
X79708843Y-70319516D01*
X79809859Y-70218501D01*
X79843530Y-70117486D01*
X79809858Y-70016470D01*
X79776186Y-69982798D01*
X79675171Y-69949126D01*
X79574156Y-69982798D01*
X79473141Y-70083813D01*
X79439468Y-70184829D01*
X79473141Y-70891936D02*
X79473141Y-70959279D01*
X79540484Y-70959279D01*
X79540484Y-70891936D01*
X79473141Y-70891936D01*
X79540484Y-70959279D01*
X79102751Y-70521546D02*
X79102751Y-70588890D01*
X79170095Y-70588890D01*
X79170095Y-70521546D01*
X79102751Y-70521546D01*
X79170095Y-70588890D01*
X77957912Y-71060294D02*
X79473141Y-71363340D01*
X77217133Y-71801073D02*
X78732362Y-72104118D01*
X77722210Y-72777553D02*
X77015103Y-72070447D01*
X77419164Y-73080600D02*
X77048774Y-72710210D01*
X77015102Y-72609195D01*
X77048774Y-72508180D01*
X77149790Y-72407164D01*
X77250805Y-72373492D01*
X77318149Y-72373492D01*
X76678385Y-72878569D02*
X76981431Y-73518332D01*
X76341667Y-73215286D01*
X76240652Y-74191768D02*
X76341667Y-74158096D01*
X76476355Y-74023408D01*
X76510027Y-73922393D01*
X76476355Y-73821378D01*
X76206981Y-73552004D01*
X76105965Y-73518332D01*
X76004950Y-73552004D01*
X75870263Y-73686691D01*
X75836591Y-73787706D01*
X75870263Y-73888722D01*
X75937607Y-73956066D01*
X76341668Y-73686691D01*
X75567217Y-73989737D02*
X75297843Y-74259110D01*
X75230500Y-73855050D02*
X75836592Y-74461141D01*
X75870263Y-74562157D01*
X75836592Y-74663172D01*
X75769248Y-74730515D01*
X75230499Y-75201921D02*
X75331514Y-75168249D01*
X75466202Y-75033561D01*
X75499874Y-74932546D01*
X75466202Y-74831531D01*
X75196828Y-74562157D01*
X75095812Y-74528485D01*
X74994797Y-74562157D01*
X74860110Y-74696844D01*
X74826438Y-74797859D01*
X74860110Y-74898874D01*
X74927454Y-74966219D01*
X75331515Y-74696844D01*
X74927454Y-75572310D02*
X74220347Y-74865203D01*
X74489721Y-75134576D02*
X74388706Y-75168248D01*
X74254018Y-75302936D01*
X74220346Y-75403951D01*
X74220346Y-75471294D01*
X74254018Y-75572310D01*
X74456049Y-75774341D01*
X74557064Y-75808012D01*
X74624408Y-75808012D01*
X74725423Y-75774341D01*
X74860110Y-75639653D01*
X74893782Y-75538638D01*
X74186675Y-76313088D02*
X74220347Y-76212073D01*
X74220347Y-76144729D01*
X74186675Y-76043714D01*
X73984644Y-75841683D01*
X73883629Y-75808012D01*
X73816286Y-75808012D01*
X73715271Y-75841683D01*
X73614255Y-75942699D01*
X73580583Y-76043714D01*
X73580583Y-76111058D01*
X73614255Y-76212073D01*
X73816286Y-76414104D01*
X73917301Y-76447776D01*
X73984644Y-76447776D01*
X74085659Y-76414104D01*
X74186675Y-76313088D01*
X73546912Y-76952851D02*
X73580584Y-76851836D01*
X73546912Y-76750821D01*
X72940820Y-76144729D01*
X73176522Y-77323241D02*
X73210194Y-77222226D01*
X73176522Y-77121211D01*
X72570431Y-76515119D01*
X72604102Y-77828318D02*
X72705117Y-77794646D01*
X72839804Y-77659959D01*
X72873476Y-77558944D01*
X72839804Y-77457929D01*
X72570430Y-77188554D01*
X72469415Y-77154882D01*
X72368400Y-77188554D01*
X72233712Y-77323242D01*
X72200040Y-77424257D01*
X72233712Y-77525272D01*
X72301056Y-77592616D01*
X72705118Y-77323242D01*
X72233713Y-78131364D02*
X72233713Y-78198707D01*
X72301056Y-78198707D01*
X72301056Y-78131364D01*
X72233713Y-78131364D01*
X72301056Y-78198707D01*
X71964339Y-78535424D02*
X71257232Y-77828317D01*
X71526606Y-78097691D02*
X71425591Y-78131363D01*
X71290903Y-78266050D01*
X71257232Y-78367066D01*
X71257232Y-78434409D01*
X71290903Y-78535424D01*
X71492934Y-78737455D01*
X71593950Y-78771127D01*
X71661293Y-78771127D01*
X71762308Y-78737455D01*
X71896996Y-78602768D01*
X71930667Y-78501753D01*
X71223561Y-79276203D02*
X71257232Y-79175188D01*
X71223561Y-79074172D01*
X70617469Y-78468081D01*
X70853171Y-79646592D02*
X70886843Y-79545577D01*
X70886843Y-79478234D01*
X70853171Y-79377219D01*
X70651140Y-79175188D01*
X70550125Y-79141516D01*
X70482781Y-79141516D01*
X70381766Y-79175188D01*
X70280750Y-79276203D01*
X70247079Y-79377219D01*
X70247079Y-79444562D01*
X70280750Y-79545577D01*
X70482781Y-79747608D01*
X70583797Y-79781280D01*
X70651140Y-79781280D01*
X70752155Y-79747608D01*
X70853171Y-79646592D01*
X69539972Y-80016982D02*
X70112392Y-80589402D01*
X70213407Y-80623074D01*
X70280750Y-80623074D01*
X70381766Y-80589401D01*
X70482781Y-80488386D01*
X70516453Y-80387371D01*
X69977705Y-80454715D02*
X70078720Y-80421043D01*
X70213408Y-80286356D01*
X70247079Y-80185341D01*
X70247079Y-80117997D01*
X70213408Y-80016982D01*
X70011377Y-79814951D01*
X69910362Y-79781279D01*
X69843018Y-79781279D01*
X69742003Y-79814951D01*
X69607315Y-79949638D01*
X69573644Y-80050654D01*
X69674659Y-80757760D02*
X69640988Y-80858776D01*
X69506301Y-80993462D01*
X69405285Y-81027135D01*
X69304270Y-80993463D01*
X69270598Y-80959791D01*
X69236926Y-80858776D01*
X69270599Y-80757760D01*
X69371614Y-80656745D01*
X69405286Y-80555730D01*
X69371613Y-80454714D01*
X69337942Y-80421043D01*
X69236926Y-80387371D01*
X69135911Y-80421043D01*
X69034896Y-80522058D01*
X69001224Y-80623074D01*
X68630835Y-80926119D02*
X69337942Y-81633226D01*
X68664507Y-80959791D02*
X68563491Y-80993462D01*
X68428804Y-81128150D01*
X68395132Y-81229165D01*
X68395132Y-81296509D01*
X68428804Y-81397524D01*
X68630835Y-81599555D01*
X68731850Y-81633227D01*
X68799193Y-81633227D01*
X68900209Y-81599555D01*
X69034896Y-81464867D01*
X69068568Y-81363852D01*
X68361461Y-82138302D02*
X68395133Y-82037287D01*
X68395133Y-81969944D01*
X68361461Y-81868929D01*
X68159430Y-81666898D01*
X68058415Y-81633226D01*
X67991071Y-81633226D01*
X67890056Y-81666898D01*
X67789040Y-81767913D01*
X67755369Y-81868929D01*
X67755369Y-81936272D01*
X67789040Y-82037287D01*
X67991071Y-82239318D01*
X68092087Y-82272990D01*
X68159430Y-82272990D01*
X68260445Y-82239318D01*
X68361461Y-82138302D01*
X67452323Y-82104631D02*
X67182950Y-82374004D01*
X67115606Y-81969944D02*
X67721698Y-82576035D01*
X67755369Y-82677050D01*
X67721698Y-82778066D01*
X67654354Y-82845409D01*
X67351308Y-83013768D02*
X67351308Y-83081112D01*
X67418652Y-83081112D01*
X67418652Y-83013768D01*
X67351308Y-83013768D01*
X67418652Y-83081112D01*
X66745216Y-83687203D02*
X66846232Y-83653532D01*
X66980919Y-83518844D01*
X67014591Y-83417829D01*
X67014591Y-83350486D01*
X66980919Y-83249470D01*
X66778888Y-83047439D01*
X66677873Y-83013768D01*
X66610530Y-83013768D01*
X66509514Y-83047439D01*
X66374827Y-83182127D01*
X66341155Y-83283142D01*
X66374828Y-84124936D02*
X66408499Y-84023921D01*
X66408499Y-83956577D01*
X66374828Y-83855562D01*
X66172797Y-83653531D01*
X66071781Y-83619859D01*
X66004438Y-83619859D01*
X65903423Y-83653531D01*
X65802407Y-83754547D01*
X65768735Y-83855562D01*
X65768735Y-83922905D01*
X65802407Y-84023921D01*
X66004438Y-84225952D01*
X66105453Y-84259623D01*
X66172797Y-84259623D01*
X66273812Y-84225952D01*
X66374828Y-84124936D01*
X65836079Y-84663684D02*
X65364675Y-84192279D01*
X65432018Y-84259623D02*
X65364675Y-84259623D01*
X65263659Y-84293294D01*
X65162644Y-84394310D01*
X65128972Y-84495325D01*
X65162644Y-84596341D01*
X65533033Y-84966730D01*
X65162644Y-84596341D02*
X65061628Y-84562669D01*
X64960613Y-84596341D01*
X64859598Y-84697356D01*
X64825926Y-84798371D01*
X64859598Y-84899386D01*
X65229988Y-85269776D01*
X63647416Y-85370791D02*
X65162644Y-85673836D01*
D13*
X59750000Y-87055000D02*
X57090000Y-87055000D01*
X59750000Y-71755000D02*
X59750000Y-87055000D01*
X57090000Y-71755000D02*
X57090000Y-87055000D01*
X59750000Y-71755000D02*
X57090000Y-71755000D01*
X59750000Y-70485000D02*
X59750000Y-69155000D01*
X59750000Y-69155000D02*
X58420000Y-69155000D01*
X108010000Y-62925000D02*
X105350000Y-62925000D01*
X108010000Y-55245000D02*
X108010000Y-62925000D01*
X105350000Y-55245000D02*
X105350000Y-62925000D01*
X108010000Y-55245000D02*
X105350000Y-55245000D01*
X108010000Y-53975000D02*
X108010000Y-52645000D01*
X108010000Y-52645000D02*
X106680000Y-52645000D01*
X142300000Y-62925000D02*
X139640000Y-62925000D01*
X142300000Y-55245000D02*
X142300000Y-62925000D01*
X139640000Y-55245000D02*
X139640000Y-62925000D01*
X142300000Y-55245000D02*
X139640000Y-55245000D01*
X142300000Y-53975000D02*
X142300000Y-52645000D01*
X142300000Y-52645000D02*
X140970000Y-52645000D01*
X88960000Y-59630000D02*
X88960000Y-62290000D01*
X86360000Y-59630000D02*
X88960000Y-59630000D01*
X86360000Y-62290000D02*
X88960000Y-62290000D01*
X86360000Y-59630000D02*
X86360000Y-62290000D01*
X85090000Y-59630000D02*
X83760000Y-59630000D01*
X83760000Y-59630000D02*
X83760000Y-60960000D01*
D11*
X55967381Y-76057381D02*
X56967381Y-76390714D01*
X55967381Y-76724048D01*
X56967381Y-77057381D02*
X55967381Y-77057381D01*
X56967381Y-77533571D02*
X55967381Y-77533571D01*
X55967381Y-77771666D01*
X56015000Y-77914524D01*
X56110238Y-78009762D01*
X56205476Y-78057381D01*
X56395952Y-78105000D01*
X56538810Y-78105000D01*
X56729286Y-78057381D01*
X56824524Y-78009762D01*
X56919762Y-77914524D01*
X56967381Y-77771666D01*
X56967381Y-77533571D01*
X56443571Y-78533571D02*
X56443571Y-78866905D01*
X56967381Y-79009762D02*
X56967381Y-78533571D01*
X55967381Y-78533571D01*
X55967381Y-79009762D01*
X55967381Y-79628809D02*
X55967381Y-79819286D01*
X56015000Y-79914524D01*
X56110238Y-80009762D01*
X56300714Y-80057381D01*
X56634048Y-80057381D01*
X56824524Y-80009762D01*
X56919762Y-79914524D01*
X56967381Y-79819286D01*
X56967381Y-79628809D01*
X56919762Y-79533571D01*
X56824524Y-79438333D01*
X56634048Y-79390714D01*
X56300714Y-79390714D01*
X56110238Y-79438333D01*
X56015000Y-79533571D01*
X55967381Y-79628809D01*
X75017381Y-52855953D02*
X75017381Y-52379762D01*
X75493571Y-52332143D01*
X75445952Y-52379762D01*
X75398333Y-52475000D01*
X75398333Y-52713096D01*
X75445952Y-52808334D01*
X75493571Y-52855953D01*
X75588810Y-52903572D01*
X75826905Y-52903572D01*
X75922143Y-52855953D01*
X75969762Y-52808334D01*
X76017381Y-52713096D01*
X76017381Y-52475000D01*
X75969762Y-52379762D01*
X75922143Y-52332143D01*
X75017381Y-53522619D02*
X75017381Y-53617858D01*
X75065000Y-53713096D01*
X75112619Y-53760715D01*
X75207857Y-53808334D01*
X75398333Y-53855953D01*
X75636429Y-53855953D01*
X75826905Y-53808334D01*
X75922143Y-53760715D01*
X75969762Y-53713096D01*
X76017381Y-53617858D01*
X76017381Y-53522619D01*
X75969762Y-53427381D01*
X75922143Y-53379762D01*
X75826905Y-53332143D01*
X75636429Y-53284524D01*
X75398333Y-53284524D01*
X75207857Y-53332143D01*
X75112619Y-53379762D01*
X75065000Y-53427381D01*
X75017381Y-53522619D01*
X75350714Y-54284524D02*
X76350714Y-54284524D01*
X75398333Y-54284524D02*
X75350714Y-54379762D01*
X75350714Y-54570239D01*
X75398333Y-54665477D01*
X75445952Y-54713096D01*
X75541190Y-54760715D01*
X75826905Y-54760715D01*
X75922143Y-54713096D01*
X75969762Y-54665477D01*
X76017381Y-54570239D01*
X76017381Y-54379762D01*
X75969762Y-54284524D01*
X75493571Y-55522620D02*
X75493571Y-55189286D01*
X76017381Y-55189286D02*
X75017381Y-55189286D01*
X75017381Y-55665477D01*
X81017857Y-61777619D02*
X80970238Y-61730000D01*
X80875000Y-61682381D01*
X80636904Y-61682381D01*
X80541666Y-61730000D01*
X80494047Y-61777619D01*
X80446428Y-61872857D01*
X80446428Y-61968095D01*
X80494047Y-62110952D01*
X81065476Y-62682381D01*
X80446428Y-62682381D01*
X80113095Y-61682381D02*
X79446428Y-61682381D01*
X79875000Y-62682381D01*
X79065476Y-62015714D02*
X79065476Y-63015714D01*
X79065476Y-62063333D02*
X78970238Y-62015714D01*
X78779761Y-62015714D01*
X78684523Y-62063333D01*
X78636904Y-62110952D01*
X78589285Y-62206190D01*
X78589285Y-62491905D01*
X78636904Y-62587143D01*
X78684523Y-62634762D01*
X78779761Y-62682381D01*
X78970238Y-62682381D01*
X79065476Y-62634762D01*
X77827380Y-62158571D02*
X78160714Y-62158571D01*
X78160714Y-62682381D02*
X78160714Y-61682381D01*
X77684523Y-61682381D01*
X111672666Y-61825143D02*
X111720285Y-61872762D01*
X111863142Y-61920381D01*
X111958380Y-61920381D01*
X112101238Y-61872762D01*
X112196476Y-61777524D01*
X112244095Y-61682286D01*
X112291714Y-61491810D01*
X112291714Y-61348952D01*
X112244095Y-61158476D01*
X112196476Y-61063238D01*
X112101238Y-60968000D01*
X111958380Y-60920381D01*
X111863142Y-60920381D01*
X111720285Y-60968000D01*
X111672666Y-61015619D01*
X110767904Y-60920381D02*
X111244095Y-60920381D01*
X111291714Y-61396571D01*
X111244095Y-61348952D01*
X111148857Y-61301333D01*
X110910761Y-61301333D01*
X110815523Y-61348952D01*
X110767904Y-61396571D01*
X110720285Y-61491810D01*
X110720285Y-61729905D01*
X110767904Y-61825143D01*
X110815523Y-61872762D01*
X110910761Y-61920381D01*
X111148857Y-61920381D01*
X111244095Y-61872762D01*
X111291714Y-61825143D01*
X112577428Y-64968381D02*
X113148857Y-64968381D01*
X112863143Y-64968381D02*
X112863143Y-63968381D01*
X112958381Y-64111238D01*
X113053619Y-64206476D01*
X113148857Y-64254095D01*
X111958381Y-63968381D02*
X111863142Y-63968381D01*
X111767904Y-64016000D01*
X111720285Y-64063619D01*
X111672666Y-64158857D01*
X111625047Y-64349333D01*
X111625047Y-64587429D01*
X111672666Y-64777905D01*
X111720285Y-64873143D01*
X111767904Y-64920762D01*
X111863142Y-64968381D01*
X111958381Y-64968381D01*
X112053619Y-64920762D01*
X112101238Y-64873143D01*
X112148857Y-64777905D01*
X112196476Y-64587429D01*
X112196476Y-64349333D01*
X112148857Y-64158857D01*
X112101238Y-64063619D01*
X112053619Y-64016000D01*
X111958381Y-63968381D01*
X110767904Y-64301714D02*
X110767904Y-64968381D01*
X111196476Y-64301714D02*
X111196476Y-64825524D01*
X111148857Y-64920762D01*
X111053619Y-64968381D01*
X110910761Y-64968381D01*
X110815523Y-64920762D01*
X110767904Y-64873143D01*
X109958380Y-64444571D02*
X110291714Y-64444571D01*
X110291714Y-64968381D02*
X110291714Y-63968381D01*
X109815523Y-63968381D01*
X104227381Y-54737381D02*
X105227381Y-55070714D01*
X104227381Y-55404048D01*
X105227381Y-55737381D02*
X104560714Y-55737381D01*
X104227381Y-55737381D02*
X104275000Y-55689762D01*
X104322619Y-55737381D01*
X104275000Y-55785000D01*
X104227381Y-55737381D01*
X104322619Y-55737381D01*
X105227381Y-56642143D02*
X104227381Y-56642143D01*
X105179762Y-56642143D02*
X105227381Y-56546905D01*
X105227381Y-56356428D01*
X105179762Y-56261190D01*
X105132143Y-56213571D01*
X105036905Y-56165952D01*
X104751190Y-56165952D01*
X104655952Y-56213571D01*
X104608333Y-56261190D01*
X104560714Y-56356428D01*
X104560714Y-56546905D01*
X104608333Y-56642143D01*
X105179762Y-57499286D02*
X105227381Y-57404048D01*
X105227381Y-57213571D01*
X105179762Y-57118333D01*
X105084524Y-57070714D01*
X104703571Y-57070714D01*
X104608333Y-57118333D01*
X104560714Y-57213571D01*
X104560714Y-57404048D01*
X104608333Y-57499286D01*
X104703571Y-57546905D01*
X104798810Y-57546905D01*
X104894048Y-57070714D01*
X105227381Y-58118333D02*
X105179762Y-58023095D01*
X105132143Y-57975476D01*
X105036905Y-57927857D01*
X104751190Y-57927857D01*
X104655952Y-57975476D01*
X104608333Y-58023095D01*
X104560714Y-58118333D01*
X104560714Y-58261191D01*
X104608333Y-58356429D01*
X104655952Y-58404048D01*
X104751190Y-58451667D01*
X105036905Y-58451667D01*
X105132143Y-58404048D01*
X105179762Y-58356429D01*
X105227381Y-58261191D01*
X105227381Y-58118333D01*
X105322619Y-58642143D02*
X105322619Y-59404048D01*
X105227381Y-59642143D02*
X104227381Y-59642143D01*
X105227381Y-60118333D02*
X104227381Y-60118333D01*
X105227381Y-60689762D01*
X104227381Y-60689762D01*
X138517381Y-54070714D02*
X139517381Y-54404047D01*
X138517381Y-54737381D01*
X139517381Y-55070714D02*
X138850714Y-55070714D01*
X138517381Y-55070714D02*
X138565000Y-55023095D01*
X138612619Y-55070714D01*
X138565000Y-55118333D01*
X138517381Y-55070714D01*
X138612619Y-55070714D01*
X139517381Y-55975476D02*
X138517381Y-55975476D01*
X139469762Y-55975476D02*
X139517381Y-55880238D01*
X139517381Y-55689761D01*
X139469762Y-55594523D01*
X139422143Y-55546904D01*
X139326905Y-55499285D01*
X139041190Y-55499285D01*
X138945952Y-55546904D01*
X138898333Y-55594523D01*
X138850714Y-55689761D01*
X138850714Y-55880238D01*
X138898333Y-55975476D01*
X139469762Y-56832619D02*
X139517381Y-56737381D01*
X139517381Y-56546904D01*
X139469762Y-56451666D01*
X139374524Y-56404047D01*
X138993571Y-56404047D01*
X138898333Y-56451666D01*
X138850714Y-56546904D01*
X138850714Y-56737381D01*
X138898333Y-56832619D01*
X138993571Y-56880238D01*
X139088810Y-56880238D01*
X139184048Y-56404047D01*
X139517381Y-57451666D02*
X139469762Y-57356428D01*
X139422143Y-57308809D01*
X139326905Y-57261190D01*
X139041190Y-57261190D01*
X138945952Y-57308809D01*
X138898333Y-57356428D01*
X138850714Y-57451666D01*
X138850714Y-57594524D01*
X138898333Y-57689762D01*
X138945952Y-57737381D01*
X139041190Y-57785000D01*
X139326905Y-57785000D01*
X139422143Y-57737381D01*
X139469762Y-57689762D01*
X139517381Y-57594524D01*
X139517381Y-57451666D01*
X139612619Y-57975476D02*
X139612619Y-58737381D01*
X138517381Y-59165952D02*
X138517381Y-59356429D01*
X138565000Y-59451667D01*
X138660238Y-59546905D01*
X138850714Y-59594524D01*
X139184048Y-59594524D01*
X139374524Y-59546905D01*
X139469762Y-59451667D01*
X139517381Y-59356429D01*
X139517381Y-59165952D01*
X139469762Y-59070714D01*
X139374524Y-58975476D01*
X139184048Y-58927857D01*
X138850714Y-58927857D01*
X138660238Y-58975476D01*
X138565000Y-59070714D01*
X138517381Y-59165952D01*
X138517381Y-60023095D02*
X139326905Y-60023095D01*
X139422143Y-60070714D01*
X139469762Y-60118333D01*
X139517381Y-60213571D01*
X139517381Y-60404048D01*
X139469762Y-60499286D01*
X139422143Y-60546905D01*
X139326905Y-60594524D01*
X138517381Y-60594524D01*
X138517381Y-60927857D02*
X138517381Y-61499286D01*
X139517381Y-61213571D02*
X138517381Y-61213571D01*
X89717619Y-46180714D02*
X89670000Y-46228333D01*
X89622381Y-46323571D01*
X89622381Y-46561667D01*
X89670000Y-46656905D01*
X89717619Y-46704524D01*
X89812857Y-46752143D01*
X89908095Y-46752143D01*
X90050952Y-46704524D01*
X90622381Y-46133095D01*
X90622381Y-46752143D01*
X90622381Y-47180714D02*
X89622381Y-47180714D01*
X90622381Y-47752143D01*
X89622381Y-47752143D01*
X89622381Y-48133095D02*
X89622381Y-48752143D01*
X90003333Y-48418809D01*
X90003333Y-48561667D01*
X90050952Y-48656905D01*
X90098571Y-48704524D01*
X90193810Y-48752143D01*
X90431905Y-48752143D01*
X90527143Y-48704524D01*
X90574762Y-48656905D01*
X90622381Y-48561667D01*
X90622381Y-48275952D01*
X90574762Y-48180714D01*
X90527143Y-48133095D01*
X90622381Y-49228333D02*
X90622381Y-49418809D01*
X90574762Y-49514048D01*
X90527143Y-49561667D01*
X90384286Y-49656905D01*
X90193810Y-49704524D01*
X89812857Y-49704524D01*
X89717619Y-49656905D01*
X89670000Y-49609286D01*
X89622381Y-49514048D01*
X89622381Y-49323571D01*
X89670000Y-49228333D01*
X89717619Y-49180714D01*
X89812857Y-49133095D01*
X90050952Y-49133095D01*
X90146190Y-49180714D01*
X90193810Y-49228333D01*
X90241429Y-49323571D01*
X90241429Y-49514048D01*
X90193810Y-49609286D01*
X90146190Y-49656905D01*
X90050952Y-49704524D01*
X89622381Y-50323571D02*
X89622381Y-50418810D01*
X89670000Y-50514048D01*
X89717619Y-50561667D01*
X89812857Y-50609286D01*
X90003333Y-50656905D01*
X90241429Y-50656905D01*
X90431905Y-50609286D01*
X90527143Y-50561667D01*
X90574762Y-50514048D01*
X90622381Y-50418810D01*
X90622381Y-50323571D01*
X90574762Y-50228333D01*
X90527143Y-50180714D01*
X90431905Y-50133095D01*
X90241429Y-50085476D01*
X90003333Y-50085476D01*
X89812857Y-50133095D01*
X89717619Y-50180714D01*
X89670000Y-50228333D01*
X89622381Y-50323571D01*
X89622381Y-51514048D02*
X89622381Y-51323571D01*
X89670000Y-51228333D01*
X89717619Y-51180714D01*
X89860476Y-51085476D01*
X90050952Y-51037857D01*
X90431905Y-51037857D01*
X90527143Y-51085476D01*
X90574762Y-51133095D01*
X90622381Y-51228333D01*
X90622381Y-51418810D01*
X90574762Y-51514048D01*
X90527143Y-51561667D01*
X90431905Y-51609286D01*
X90193810Y-51609286D01*
X90098571Y-51561667D01*
X90050952Y-51514048D01*
X90003333Y-51418810D01*
X90003333Y-51228333D01*
X90050952Y-51133095D01*
X90098571Y-51085476D01*
X90193810Y-51037857D01*
X80827619Y-46180714D02*
X80780000Y-46228333D01*
X80732381Y-46323571D01*
X80732381Y-46561667D01*
X80780000Y-46656905D01*
X80827619Y-46704524D01*
X80922857Y-46752143D01*
X81018095Y-46752143D01*
X81160952Y-46704524D01*
X81732381Y-46133095D01*
X81732381Y-46752143D01*
X81732381Y-47180714D02*
X80732381Y-47180714D01*
X81732381Y-47752143D01*
X80732381Y-47752143D01*
X80732381Y-48133095D02*
X80732381Y-48752143D01*
X81113333Y-48418809D01*
X81113333Y-48561667D01*
X81160952Y-48656905D01*
X81208571Y-48704524D01*
X81303810Y-48752143D01*
X81541905Y-48752143D01*
X81637143Y-48704524D01*
X81684762Y-48656905D01*
X81732381Y-48561667D01*
X81732381Y-48275952D01*
X81684762Y-48180714D01*
X81637143Y-48133095D01*
X81732381Y-49228333D02*
X81732381Y-49418809D01*
X81684762Y-49514048D01*
X81637143Y-49561667D01*
X81494286Y-49656905D01*
X81303810Y-49704524D01*
X80922857Y-49704524D01*
X80827619Y-49656905D01*
X80780000Y-49609286D01*
X80732381Y-49514048D01*
X80732381Y-49323571D01*
X80780000Y-49228333D01*
X80827619Y-49180714D01*
X80922857Y-49133095D01*
X81160952Y-49133095D01*
X81256190Y-49180714D01*
X81303810Y-49228333D01*
X81351429Y-49323571D01*
X81351429Y-49514048D01*
X81303810Y-49609286D01*
X81256190Y-49656905D01*
X81160952Y-49704524D01*
X80732381Y-50323571D02*
X80732381Y-50418810D01*
X80780000Y-50514048D01*
X80827619Y-50561667D01*
X80922857Y-50609286D01*
X81113333Y-50656905D01*
X81351429Y-50656905D01*
X81541905Y-50609286D01*
X81637143Y-50561667D01*
X81684762Y-50514048D01*
X81732381Y-50418810D01*
X81732381Y-50323571D01*
X81684762Y-50228333D01*
X81637143Y-50180714D01*
X81541905Y-50133095D01*
X81351429Y-50085476D01*
X81113333Y-50085476D01*
X80922857Y-50133095D01*
X80827619Y-50180714D01*
X80780000Y-50228333D01*
X80732381Y-50323571D01*
X81065714Y-51514048D02*
X81732381Y-51514048D01*
X80684762Y-51275952D02*
X81399048Y-51037857D01*
X81399048Y-51656905D01*
X88788572Y-58507381D02*
X88598095Y-58507381D01*
X88502857Y-58555000D01*
X88407619Y-58650238D01*
X88360000Y-58840714D01*
X88360000Y-59174048D01*
X88407619Y-59364524D01*
X88502857Y-59459762D01*
X88598095Y-59507381D01*
X88788572Y-59507381D01*
X88883810Y-59459762D01*
X88979048Y-59364524D01*
X89026667Y-59174048D01*
X89026667Y-58840714D01*
X88979048Y-58650238D01*
X88883810Y-58555000D01*
X88788572Y-58507381D01*
X87979048Y-59459762D02*
X87836191Y-59507381D01*
X87598095Y-59507381D01*
X87502857Y-59459762D01*
X87455238Y-59412143D01*
X87407619Y-59316905D01*
X87407619Y-59221667D01*
X87455238Y-59126429D01*
X87502857Y-59078810D01*
X87598095Y-59031190D01*
X87788572Y-58983571D01*
X87883810Y-58935952D01*
X87931429Y-58888333D01*
X87979048Y-58793095D01*
X87979048Y-58697857D01*
X87931429Y-58602619D01*
X87883810Y-58555000D01*
X87788572Y-58507381D01*
X87550476Y-58507381D01*
X87407619Y-58555000D01*
X86407619Y-59412143D02*
X86455238Y-59459762D01*
X86598095Y-59507381D01*
X86693333Y-59507381D01*
X86836191Y-59459762D01*
X86931429Y-59364524D01*
X86979048Y-59269286D01*
X87026667Y-59078810D01*
X87026667Y-58935952D01*
X86979048Y-58745476D01*
X86931429Y-58650238D01*
X86836191Y-58555000D01*
X86693333Y-58507381D01*
X86598095Y-58507381D01*
X86455238Y-58555000D01*
X86407619Y-58602619D01*
X86217143Y-59602619D02*
X85455238Y-59602619D01*
X85217143Y-58983571D02*
X84883809Y-58983571D01*
X84740952Y-59507381D02*
X85217143Y-59507381D01*
X85217143Y-58507381D01*
X84740952Y-58507381D01*
X84312381Y-59507381D02*
X84312381Y-58507381D01*
X83740952Y-59507381D01*
X83740952Y-58507381D01*
M02*
