M48
;DRILL file {KiCad 4.0.7} date 02/27/19 23:04:03
;FORMAT={2:4/ absolute / inch / suppress leading zeros}
FMAT,2
INCH,TZ
T1C0.016
T2C0.024
T3C0.031
T4C0.039
%
G90
G05
M72
T1
X28750Y-28000
X29250Y-27500
X32750Y-26250
X34250Y-24750
X36000Y-21750
X36000Y-22250
X41750Y-19500
X42750Y-22750
X43500Y-23000
X44000Y-18750
X44500Y-22000
X45000Y-18750
X45000Y-22500
T2
X43500Y-24750
X44287Y-24750
T3
X30250Y-20281
X30250Y-22250
X30250Y-24000
X32219Y-24000
X32500Y-22000
X32750Y-18250
X32750Y-19250
X32750Y-20250
X34421Y-22000
X34750Y-18250
X34750Y-19250
X34750Y-20250
X36750Y-18250
X36750Y-19750
X36750Y-21250
X36750Y-22750
X40750Y-18250
X40750Y-19750
X40750Y-21250
X40750Y-22750
X42000Y-18250
X42500Y-19750
X44250Y-21250
X44250Y-23219
X45500Y-19750
X45750Y-21250
X45750Y-24250
X46000Y-18250
X46750Y-21250
X46750Y-24250
X47250Y-18250
X47250Y-19750
X47750Y-21250
X47750Y-24250
X48750Y-21250
X48750Y-24250
X49750Y-21250
X49750Y-24250
X50750Y-21250
X50750Y-24250
X51250Y-18250
X51250Y-19750
X51750Y-21250
X51750Y-24250
X53000Y-18750
X53250Y-21750
X53250Y-23719
X54000Y-18750
X55000Y-18750
T4
X23000Y-27750
X23000Y-28750
X23000Y-29750
X23000Y-30750
X23000Y-31750
X23000Y-32750
X23000Y-33750
X33500Y-24000
X34500Y-24000
X42000Y-21250
X42000Y-22250
X42000Y-23250
X42000Y-24250
X55500Y-21250
X55500Y-22250
X55500Y-23250
X55500Y-24250
T0
M30
