M48
;DRILL file {KiCad 4.0.7} date 12/30/18 21:16:13
;FORMAT={2:4/ absolute / inch / suppress leading zeros}
FMAT,2
INCH,TZ
T1C0.016
T2C0.030
T3C0.031
T4C0.039
T5C0.039
T6C0.126
%
G90
G05
M72
T1
X21250Y-26500
X21250Y-29500
X21500Y-25500
X21750Y-24500
X21750Y-28500
X22250Y-25000
X22250Y-27250
X22500Y-41250
X22500Y-44750
X23250Y-45000
X23250Y-47250
X23750Y-33500
X23750Y-48250
X23750Y-51250
X24000Y-42000
X24250Y-41750
X26000Y-55250
X26500Y-40750
X26500Y-43000
X26750Y-41000
X26750Y-55000
X27000Y-25250
X27000Y-26250
X27000Y-32000
X27000Y-32500
X27000Y-33000
X27000Y-39500
X27000Y-40000
X27000Y-42750
X27000Y-43250
X27250Y-32250
X27250Y-39250
X27250Y-39750
X27250Y-41000
X27500Y-40750
X27500Y-54750
X27750Y-32750
X28250Y-54500
X28500Y-54000
X29000Y-31750
X29000Y-54000
X29250Y-53750
X29750Y-45500
X30250Y-54250
X30500Y-55250
X30750Y-40000
X31000Y-40250
X31250Y-40500
X31250Y-52000
X31500Y-40750
X31500Y-45000
X31500Y-54250
X31750Y-41000
X32000Y-41250
X32250Y-28500
X32250Y-29000
X32250Y-38250
X32250Y-54250
X32250Y-55000
X32750Y-41000
X32750Y-41750
X33000Y-41250
X33000Y-42000
X33000Y-46250
X33000Y-54750
X33250Y-39750
X33250Y-40250
X33250Y-54500
X33500Y-39500
X33500Y-40000
X33500Y-40750
X33500Y-41250
X34000Y-38250
X34000Y-53250
X34250Y-45000
X34250Y-47250
X34250Y-48250
X34250Y-49250
X34250Y-50250
X34250Y-51250
X34250Y-52250
X35000Y-23000
X35000Y-30250
X35000Y-31000
X35000Y-32000
X35000Y-40000
X35500Y-21500
X35500Y-31500
X35500Y-32500
X35500Y-40000
X35750Y-40250
X36000Y-37250
X36000Y-37750
X36000Y-38250
X36000Y-44750
X36250Y-34000
X36250Y-35250
X36250Y-37000
X36250Y-37500
X36250Y-38000
X36500Y-44250
X36750Y-30750
X36750Y-41000
X36750Y-43500
X37000Y-41250
X37000Y-43250
X37250Y-27500
X37250Y-28250
X37250Y-33000
X37250Y-43000
X37500Y-30000
X37500Y-31000
X37500Y-41250
X37500Y-42750
X37750Y-42500
X38000Y-41250
X38250Y-30250
X38250Y-34250
X38500Y-41250
X39000Y-42000
X39500Y-41000
X39750Y-43000
X40000Y-42250
X40500Y-35500
X40500Y-53250
X41000Y-38500
X41000Y-53750
X41250Y-39250
X41500Y-40000
X41500Y-40500
X41750Y-40750
X41750Y-54000
X42000Y-41000
X42250Y-41250
X42500Y-41500
X42500Y-54250
X42750Y-54500
X43000Y-29750
X43000Y-36000
X43250Y-30000
X43250Y-35500
X43250Y-40500
X43500Y-35000
X43500Y-40750
X43750Y-41000
X44000Y-41250
X44250Y-29750
X44250Y-41500
X44250Y-55500
X44500Y-30750
X44500Y-31250
X44750Y-35250
X44750Y-36250
X45000Y-30000
X46750Y-53000
X47000Y-35000
X47000Y-35750
X47000Y-36250
X47000Y-42750
X47000Y-53250
X47000Y-53750
X47250Y-33500
X47250Y-34000
X47250Y-43750
X47250Y-53000
X47500Y-33250
X47500Y-34250
X47500Y-36500
X47750Y-54000
X48500Y-54250
X49000Y-35250
X49250Y-36500
X52000Y-30250
X52500Y-51250
X53000Y-51750
X53750Y-29500
X53750Y-52000
X54250Y-30000
X54250Y-51500
X54500Y-51750
X54750Y-29500
X54750Y-52000
X57250Y-30250
X59250Y-31750
T2
X42000Y-21250
X42000Y-22250
X42000Y-23250
X42000Y-24250
X55500Y-21250
X55500Y-22250
X55500Y-23250
X55500Y-24250
T3
X23000Y-35750
X23000Y-37719
X24500Y-19750
X24500Y-20750
X24500Y-21750
X24500Y-22750
X24500Y-23750
X24500Y-24750
X24500Y-25750
X24500Y-26750
X24500Y-27750
X24500Y-28750
X24500Y-29750
X24500Y-30750
X24500Y-31750
X24500Y-32750
X24500Y-33750
X24500Y-34750
X24500Y-35750
X24500Y-36750
X24500Y-37750
X24500Y-38750
X24500Y-43750
X24500Y-44750
X24500Y-45750
X24500Y-46750
X24500Y-47750
X24500Y-48750
X24500Y-49750
X24500Y-50750
X24500Y-51750
X24500Y-52750
X27500Y-43750
X27500Y-44750
X27500Y-45750
X27500Y-46750
X27500Y-47750
X27500Y-48750
X27500Y-49750
X27500Y-50750
X27500Y-51750
X27500Y-52750
X29000Y-43750
X29000Y-45719
X30500Y-19750
X30500Y-20750
X30500Y-21750
X30500Y-22750
X30500Y-23750
X30500Y-24750
X30500Y-25750
X30500Y-26750
X30500Y-27750
X30500Y-28750
X30500Y-29750
X30500Y-30750
X30500Y-31750
X30500Y-32750
X30500Y-33750
X30500Y-34750
X30500Y-35750
X30500Y-36750
X30500Y-37750
X30500Y-38750
X30500Y-43750
X30500Y-44750
X30500Y-45750
X30500Y-46750
X30500Y-47750
X30500Y-48750
X30500Y-49750
X30500Y-50750
X30500Y-51750
X30500Y-52750
X33500Y-19750
X33500Y-22750
X33500Y-25750
X33500Y-26750
X33500Y-27750
X33500Y-28750
X33500Y-29750
X33500Y-30750
X33500Y-31750
X33500Y-32750
X33500Y-33750
X33500Y-34750
X33500Y-35750
X33500Y-36750
X33500Y-37750
X33500Y-38750
X33500Y-43750
X33500Y-44750
X33500Y-45750
X33500Y-46750
X33500Y-47750
X33500Y-48750
X33500Y-49750
X33500Y-50750
X33500Y-51750
X33500Y-52750
X35000Y-43750
X35000Y-45719
X36500Y-19750
X36500Y-22750
X39500Y-19750
X39500Y-22750
X39500Y-25750
X39500Y-26750
X39500Y-27750
X39500Y-28750
X39500Y-29750
X39500Y-30750
X39500Y-31750
X39500Y-32750
X39500Y-33750
X39500Y-34750
X39500Y-35750
X39500Y-36750
X39500Y-37750
X39500Y-38750
X39750Y-43750
X39750Y-44750
X39750Y-45750
X39750Y-46750
X39750Y-47750
X39750Y-48750
X39750Y-49750
X39750Y-50750
X39750Y-51750
X39750Y-52750
X41000Y-25750
X41000Y-27719
X42750Y-43750
X42750Y-44750
X42750Y-45750
X42750Y-46750
X42750Y-47750
X42750Y-48750
X42750Y-49750
X42750Y-50750
X42750Y-51750
X42750Y-52750
X44250Y-43750
X44250Y-45719
X45500Y-32750
X45500Y-33750
X45500Y-34750
X45500Y-35750
X45500Y-36750
X45500Y-37750
X45500Y-38750
X45500Y-39750
X45750Y-43750
X45750Y-44750
X45750Y-45750
X45750Y-46750
X45750Y-47750
X45750Y-48750
X45750Y-49750
X45750Y-50750
X45750Y-51750
X45750Y-52750
X48500Y-28500
X48500Y-30469
X48500Y-32750
X48500Y-33750
X48500Y-34750
X48500Y-35750
X48500Y-36750
X48500Y-37750
X48500Y-38750
X48500Y-39750
X48750Y-43750
X48750Y-44750
X48750Y-45750
X48750Y-46750
X48750Y-47750
X48750Y-48750
X48750Y-49750
X48750Y-50750
X48750Y-51750
X48750Y-52750
X50000Y-28000
X50000Y-31000
X50000Y-32750
X50000Y-34719
X50250Y-43750
X50250Y-45719
X51000Y-28000
X51000Y-31000
X51500Y-32750
X51500Y-34719
X51500Y-37500
X51500Y-39469
X51750Y-43750
X51750Y-44750
X51750Y-45750
X51750Y-46750
X51750Y-47750
X51750Y-48750
X51750Y-49750
X51750Y-50750
X52000Y-28000
X52000Y-31000
X53000Y-28000
X53000Y-31000
X53000Y-32750
X53000Y-35750
X53000Y-37500
X53000Y-40500
X54000Y-28000
X54000Y-31000
X54000Y-32750
X54000Y-35750
X54000Y-37500
X54000Y-40500
X54750Y-43750
X54750Y-44750
X54750Y-45750
X54750Y-46750
X54750Y-47750
X54750Y-48750
X54750Y-49750
X54750Y-50750
X55000Y-28000
X55000Y-31000
X55000Y-32750
X55000Y-35750
X55000Y-37500
X55000Y-40500
X56000Y-28000
X56000Y-31000
X56000Y-32750
X56000Y-35750
X56000Y-37500
X56000Y-40500
X56250Y-43750
X57000Y-28000
X57000Y-31000
X57000Y-32750
X57000Y-35750
X57000Y-37500
X57000Y-40500
X58000Y-28000
X58000Y-31000
X58000Y-32750
X58000Y-35750
X58000Y-37500
X58000Y-40500
X58219Y-43750
X59000Y-28000
X59000Y-31000
X59000Y-32750
X59000Y-35750
X59000Y-37500
X59000Y-40500
T5
X21250Y-56250
X22250Y-56250
X23000Y-27750
X23000Y-28750
X23000Y-29750
X23000Y-30750
X23000Y-31750
X23000Y-32750
X23000Y-33750
X23250Y-56250
X24250Y-56250
X25250Y-56250
X26250Y-56250
X27250Y-56250
X28250Y-56250
X29250Y-56250
X30250Y-56250
X31250Y-56250
X32250Y-56250
X33250Y-56250
X34250Y-56250
X35250Y-56250
X36250Y-56250
X37250Y-52750
X37250Y-56250
X38250Y-52750
X38250Y-56250
X39250Y-56250
X40250Y-56250
X41250Y-56250
X42250Y-56250
X43250Y-56250
X44250Y-56250
X45250Y-56250
X46250Y-56250
X47250Y-56250
X48250Y-56250
X49250Y-56250
X50250Y-56250
X51250Y-56250
X52250Y-56250
X53250Y-56250
X54250Y-56250
X55250Y-56250
X56250Y-56250
X56750Y-44750
X56750Y-45750
X56750Y-46750
X56750Y-47750
X56750Y-48750
X56750Y-49750
X56750Y-50750
X57250Y-56250
X57500Y-26500
X57750Y-44750
X57750Y-45750
X57750Y-46750
X57750Y-47750
X57750Y-48750
X57750Y-49750
X57750Y-50750
X58250Y-56250
X58500Y-26500
X59250Y-56250
T6
X22500Y-19250
X22500Y-54000
X58000Y-19250
X58000Y-54000
T4
X57264Y-21250G85X57737Y-21250
G05
X57264Y-24250G85X57737Y-24250
G05
X58500Y-22987G85X58500Y-22514
G05
T0
M30
