G04 #@! TF.FileFunction,Legend,Top*
%FSLAX46Y46*%
G04 Gerber Fmt 4.6, Leading zero omitted, Abs format (unit mm)*
G04 Created by KiCad (PCBNEW 4.0.7) date 02/20/19 13:27:08*
%MOMM*%
%LPD*%
G01*
G04 APERTURE LIST*
%ADD10C,0.100000*%
%ADD11C,0.120000*%
%ADD12C,0.381000*%
%ADD13C,0.150000*%
%ADD14C,0.304800*%
G04 APERTURE END LIST*
D10*
X119025237Y-49663333D02*
X119406189Y-49663333D01*
X118949046Y-49891905D02*
X119215713Y-49091905D01*
X119482380Y-49891905D01*
X119749046Y-49358571D02*
X119749046Y-49891905D01*
X119749046Y-49434762D02*
X119787141Y-49396667D01*
X119863332Y-49358571D01*
X119977618Y-49358571D01*
X120053808Y-49396667D01*
X120091903Y-49472857D01*
X120091903Y-49891905D01*
X120815713Y-49891905D02*
X120815713Y-49472857D01*
X120777618Y-49396667D01*
X120701428Y-49358571D01*
X120549047Y-49358571D01*
X120472856Y-49396667D01*
X120815713Y-49853810D02*
X120739523Y-49891905D01*
X120549047Y-49891905D01*
X120472856Y-49853810D01*
X120434761Y-49777619D01*
X120434761Y-49701429D01*
X120472856Y-49625238D01*
X120549047Y-49587143D01*
X120739523Y-49587143D01*
X120815713Y-49549048D01*
X121310952Y-49891905D02*
X121234761Y-49853810D01*
X121196666Y-49777619D01*
X121196666Y-49091905D01*
X121730000Y-49891905D02*
X121653809Y-49853810D01*
X121615714Y-49815714D01*
X121577619Y-49739524D01*
X121577619Y-49510952D01*
X121615714Y-49434762D01*
X121653809Y-49396667D01*
X121730000Y-49358571D01*
X121844286Y-49358571D01*
X121920476Y-49396667D01*
X121958571Y-49434762D01*
X121996667Y-49510952D01*
X121996667Y-49739524D01*
X121958571Y-49815714D01*
X121920476Y-49853810D01*
X121844286Y-49891905D01*
X121730000Y-49891905D01*
X122682381Y-49358571D02*
X122682381Y-50006190D01*
X122644286Y-50082381D01*
X122606191Y-50120476D01*
X122530000Y-50158571D01*
X122415715Y-50158571D01*
X122339524Y-50120476D01*
X122682381Y-49853810D02*
X122606191Y-49891905D01*
X122453810Y-49891905D01*
X122377619Y-49853810D01*
X122339524Y-49815714D01*
X122301429Y-49739524D01*
X122301429Y-49510952D01*
X122339524Y-49434762D01*
X122377619Y-49396667D01*
X122453810Y-49358571D01*
X122606191Y-49358571D01*
X122682381Y-49396667D01*
X123558572Y-49091905D02*
X123825239Y-49891905D01*
X124091906Y-49091905D01*
X124358572Y-49891905D02*
X124358572Y-49358571D01*
X124358572Y-49091905D02*
X124320477Y-49130000D01*
X124358572Y-49168095D01*
X124396667Y-49130000D01*
X124358572Y-49091905D01*
X124358572Y-49168095D01*
X125082381Y-49891905D02*
X125082381Y-49091905D01*
X125082381Y-49853810D02*
X125006191Y-49891905D01*
X124853810Y-49891905D01*
X124777619Y-49853810D01*
X124739524Y-49815714D01*
X124701429Y-49739524D01*
X124701429Y-49510952D01*
X124739524Y-49434762D01*
X124777619Y-49396667D01*
X124853810Y-49358571D01*
X125006191Y-49358571D01*
X125082381Y-49396667D01*
X125768096Y-49853810D02*
X125691906Y-49891905D01*
X125539525Y-49891905D01*
X125463334Y-49853810D01*
X125425239Y-49777619D01*
X125425239Y-49472857D01*
X125463334Y-49396667D01*
X125539525Y-49358571D01*
X125691906Y-49358571D01*
X125768096Y-49396667D01*
X125806191Y-49472857D01*
X125806191Y-49549048D01*
X125425239Y-49625238D01*
X126263334Y-49891905D02*
X126187143Y-49853810D01*
X126149048Y-49815714D01*
X126110953Y-49739524D01*
X126110953Y-49510952D01*
X126149048Y-49434762D01*
X126187143Y-49396667D01*
X126263334Y-49358571D01*
X126377620Y-49358571D01*
X126453810Y-49396667D01*
X126491905Y-49434762D01*
X126530001Y-49510952D01*
X126530001Y-49739524D01*
X126491905Y-49815714D01*
X126453810Y-49853810D01*
X126377620Y-49891905D01*
X126263334Y-49891905D01*
X127444287Y-49663333D02*
X127825239Y-49663333D01*
X127368096Y-49891905D02*
X127634763Y-49091905D01*
X127901430Y-49891905D01*
X128168096Y-49891905D02*
X128168096Y-49358571D01*
X128168096Y-49434762D02*
X128206191Y-49396667D01*
X128282382Y-49358571D01*
X128396668Y-49358571D01*
X128472858Y-49396667D01*
X128510953Y-49472857D01*
X128510953Y-49891905D01*
X128510953Y-49472857D02*
X128549049Y-49396667D01*
X128625239Y-49358571D01*
X128739525Y-49358571D01*
X128815715Y-49396667D01*
X128853810Y-49472857D01*
X128853810Y-49891905D01*
X129234763Y-49358571D02*
X129234763Y-50158571D01*
X129234763Y-49396667D02*
X129310954Y-49358571D01*
X129463335Y-49358571D01*
X129539525Y-49396667D01*
X129577620Y-49434762D01*
X129615716Y-49510952D01*
X129615716Y-49739524D01*
X129577620Y-49815714D01*
X129539525Y-49853810D01*
X129463335Y-49891905D01*
X129310954Y-49891905D01*
X129234763Y-49853810D01*
X130072859Y-49891905D02*
X129996668Y-49853810D01*
X129958573Y-49777619D01*
X129958573Y-49091905D01*
X130377621Y-49891905D02*
X130377621Y-49358571D01*
X130377621Y-49091905D02*
X130339526Y-49130000D01*
X130377621Y-49168095D01*
X130415716Y-49130000D01*
X130377621Y-49091905D01*
X130377621Y-49168095D01*
X130644287Y-49358571D02*
X130949049Y-49358571D01*
X130758573Y-49891905D02*
X130758573Y-49206190D01*
X130796668Y-49130000D01*
X130872859Y-49091905D01*
X130949049Y-49091905D01*
X131215716Y-49891905D02*
X131215716Y-49358571D01*
X131215716Y-49091905D02*
X131177621Y-49130000D01*
X131215716Y-49168095D01*
X131253811Y-49130000D01*
X131215716Y-49091905D01*
X131215716Y-49168095D01*
X131901430Y-49853810D02*
X131825240Y-49891905D01*
X131672859Y-49891905D01*
X131596668Y-49853810D01*
X131558573Y-49777619D01*
X131558573Y-49472857D01*
X131596668Y-49396667D01*
X131672859Y-49358571D01*
X131825240Y-49358571D01*
X131901430Y-49396667D01*
X131939525Y-49472857D01*
X131939525Y-49549048D01*
X131558573Y-49625238D01*
X132282382Y-49891905D02*
X132282382Y-49358571D01*
X132282382Y-49510952D02*
X132320477Y-49434762D01*
X132358573Y-49396667D01*
X132434763Y-49358571D01*
X132510954Y-49358571D01*
D11*
X59730000Y-90895000D02*
X59730000Y-95715000D01*
X57110000Y-90895000D02*
X57110000Y-95715000D01*
X59730000Y-90895000D02*
X59416000Y-90895000D01*
X57424000Y-90895000D02*
X57110000Y-90895000D01*
X59730000Y-95715000D02*
X59416000Y-95715000D01*
X57424000Y-95715000D02*
X57110000Y-95715000D01*
X105450000Y-65495000D02*
X105450000Y-70315000D01*
X102830000Y-65495000D02*
X102830000Y-70315000D01*
X105450000Y-65495000D02*
X105136000Y-65495000D01*
X103144000Y-65495000D02*
X102830000Y-65495000D01*
X105450000Y-70315000D02*
X105136000Y-70315000D01*
X103144000Y-70315000D02*
X102830000Y-70315000D01*
X128945000Y-111215000D02*
X128945000Y-116035000D01*
X126325000Y-111215000D02*
X126325000Y-116035000D01*
X128945000Y-111215000D02*
X128631000Y-111215000D01*
X126639000Y-111215000D02*
X126325000Y-111215000D01*
X128945000Y-116035000D02*
X128631000Y-116035000D01*
X126639000Y-116035000D02*
X126325000Y-116035000D01*
X113705000Y-111215000D02*
X113705000Y-116035000D01*
X111085000Y-111215000D02*
X111085000Y-116035000D01*
X113705000Y-111215000D02*
X113391000Y-111215000D01*
X111399000Y-111215000D02*
X111085000Y-111215000D01*
X113705000Y-116035000D02*
X113391000Y-116035000D01*
X111399000Y-116035000D02*
X111085000Y-116035000D01*
X90210000Y-111215000D02*
X90210000Y-116035000D01*
X87590000Y-111215000D02*
X87590000Y-116035000D01*
X90210000Y-111215000D02*
X89896000Y-111215000D01*
X87904000Y-111215000D02*
X87590000Y-111215000D01*
X90210000Y-116035000D02*
X89896000Y-116035000D01*
X87904000Y-116035000D02*
X87590000Y-116035000D01*
X74970000Y-111215000D02*
X74970000Y-116035000D01*
X72350000Y-111215000D02*
X72350000Y-116035000D01*
X74970000Y-111215000D02*
X74656000Y-111215000D01*
X72664000Y-111215000D02*
X72350000Y-111215000D01*
X74970000Y-116035000D02*
X74656000Y-116035000D01*
X72664000Y-116035000D02*
X72350000Y-116035000D01*
X142965000Y-109815000D02*
X147785000Y-109815000D01*
X142965000Y-112435000D02*
X147785000Y-112435000D01*
X142965000Y-109815000D02*
X142965000Y-110129000D01*
X142965000Y-112121000D02*
X142965000Y-112435000D01*
X147785000Y-109815000D02*
X147785000Y-110129000D01*
X147785000Y-112121000D02*
X147785000Y-112435000D01*
X132120000Y-95340000D02*
X132120000Y-100160000D01*
X129500000Y-95340000D02*
X129500000Y-100160000D01*
X132120000Y-95340000D02*
X131806000Y-95340000D01*
X129814000Y-95340000D02*
X129500000Y-95340000D01*
X132120000Y-100160000D02*
X131806000Y-100160000D01*
X129814000Y-100160000D02*
X129500000Y-100160000D01*
X128310000Y-83275000D02*
X128310000Y-88095000D01*
X125690000Y-83275000D02*
X125690000Y-88095000D01*
X128310000Y-83275000D02*
X127996000Y-83275000D01*
X126004000Y-83275000D02*
X125690000Y-83275000D01*
X128310000Y-88095000D02*
X127996000Y-88095000D01*
X126004000Y-88095000D02*
X125690000Y-88095000D01*
X132120000Y-83275000D02*
X132120000Y-88095000D01*
X129500000Y-83275000D02*
X129500000Y-88095000D01*
X132120000Y-83275000D02*
X131806000Y-83275000D01*
X129814000Y-83275000D02*
X129500000Y-83275000D01*
X132120000Y-88095000D02*
X131806000Y-88095000D01*
X129814000Y-88095000D02*
X129500000Y-88095000D01*
X151825000Y-144315000D02*
X52645000Y-144315000D01*
X52645000Y-144315000D02*
X52645000Y-146975000D01*
X52645000Y-146975000D02*
X151825000Y-146975000D01*
X151825000Y-146975000D02*
X151825000Y-144315000D01*
X150875000Y-146975000D02*
X150875000Y-152975000D01*
X150875000Y-152975000D02*
X150115000Y-152975000D01*
X150115000Y-152975000D02*
X150115000Y-146975000D01*
X150815000Y-146975000D02*
X150815000Y-152975000D01*
X150695000Y-146975000D02*
X150695000Y-152975000D01*
X150575000Y-146975000D02*
X150575000Y-152975000D01*
X150455000Y-146975000D02*
X150455000Y-152975000D01*
X150335000Y-146975000D02*
X150335000Y-152975000D01*
X150215000Y-146975000D02*
X150215000Y-152975000D01*
X150875000Y-143985000D02*
X150875000Y-144315000D01*
X150115000Y-143985000D02*
X150115000Y-144315000D01*
X149225000Y-144315000D02*
X149225000Y-146975000D01*
X148335000Y-146975000D02*
X148335000Y-152975000D01*
X148335000Y-152975000D02*
X147575000Y-152975000D01*
X147575000Y-152975000D02*
X147575000Y-146975000D01*
X148335000Y-143917929D02*
X148335000Y-144315000D01*
X147575000Y-143917929D02*
X147575000Y-144315000D01*
X146685000Y-144315000D02*
X146685000Y-146975000D01*
X145795000Y-146975000D02*
X145795000Y-152975000D01*
X145795000Y-152975000D02*
X145035000Y-152975000D01*
X145035000Y-152975000D02*
X145035000Y-146975000D01*
X145795000Y-143917929D02*
X145795000Y-144315000D01*
X145035000Y-143917929D02*
X145035000Y-144315000D01*
X144145000Y-144315000D02*
X144145000Y-146975000D01*
X143255000Y-146975000D02*
X143255000Y-152975000D01*
X143255000Y-152975000D02*
X142495000Y-152975000D01*
X142495000Y-152975000D02*
X142495000Y-146975000D01*
X143255000Y-143917929D02*
X143255000Y-144315000D01*
X142495000Y-143917929D02*
X142495000Y-144315000D01*
X141605000Y-144315000D02*
X141605000Y-146975000D01*
X140715000Y-146975000D02*
X140715000Y-152975000D01*
X140715000Y-152975000D02*
X139955000Y-152975000D01*
X139955000Y-152975000D02*
X139955000Y-146975000D01*
X140715000Y-143917929D02*
X140715000Y-144315000D01*
X139955000Y-143917929D02*
X139955000Y-144315000D01*
X139065000Y-144315000D02*
X139065000Y-146975000D01*
X138175000Y-146975000D02*
X138175000Y-152975000D01*
X138175000Y-152975000D02*
X137415000Y-152975000D01*
X137415000Y-152975000D02*
X137415000Y-146975000D01*
X138175000Y-143917929D02*
X138175000Y-144315000D01*
X137415000Y-143917929D02*
X137415000Y-144315000D01*
X136525000Y-144315000D02*
X136525000Y-146975000D01*
X135635000Y-146975000D02*
X135635000Y-152975000D01*
X135635000Y-152975000D02*
X134875000Y-152975000D01*
X134875000Y-152975000D02*
X134875000Y-146975000D01*
X135635000Y-143917929D02*
X135635000Y-144315000D01*
X134875000Y-143917929D02*
X134875000Y-144315000D01*
X133985000Y-144315000D02*
X133985000Y-146975000D01*
X133095000Y-146975000D02*
X133095000Y-152975000D01*
X133095000Y-152975000D02*
X132335000Y-152975000D01*
X132335000Y-152975000D02*
X132335000Y-146975000D01*
X133095000Y-143917929D02*
X133095000Y-144315000D01*
X132335000Y-143917929D02*
X132335000Y-144315000D01*
X131445000Y-144315000D02*
X131445000Y-146975000D01*
X130555000Y-146975000D02*
X130555000Y-152975000D01*
X130555000Y-152975000D02*
X129795000Y-152975000D01*
X129795000Y-152975000D02*
X129795000Y-146975000D01*
X130555000Y-143917929D02*
X130555000Y-144315000D01*
X129795000Y-143917929D02*
X129795000Y-144315000D01*
X128905000Y-144315000D02*
X128905000Y-146975000D01*
X128015000Y-146975000D02*
X128015000Y-152975000D01*
X128015000Y-152975000D02*
X127255000Y-152975000D01*
X127255000Y-152975000D02*
X127255000Y-146975000D01*
X128015000Y-143917929D02*
X128015000Y-144315000D01*
X127255000Y-143917929D02*
X127255000Y-144315000D01*
X126365000Y-144315000D02*
X126365000Y-146975000D01*
X125475000Y-146975000D02*
X125475000Y-152975000D01*
X125475000Y-152975000D02*
X124715000Y-152975000D01*
X124715000Y-152975000D02*
X124715000Y-146975000D01*
X125475000Y-143917929D02*
X125475000Y-144315000D01*
X124715000Y-143917929D02*
X124715000Y-144315000D01*
X123825000Y-144315000D02*
X123825000Y-146975000D01*
X122935000Y-146975000D02*
X122935000Y-152975000D01*
X122935000Y-152975000D02*
X122175000Y-152975000D01*
X122175000Y-152975000D02*
X122175000Y-146975000D01*
X122935000Y-143917929D02*
X122935000Y-144315000D01*
X122175000Y-143917929D02*
X122175000Y-144315000D01*
X121285000Y-144315000D02*
X121285000Y-146975000D01*
X120395000Y-146975000D02*
X120395000Y-152975000D01*
X120395000Y-152975000D02*
X119635000Y-152975000D01*
X119635000Y-152975000D02*
X119635000Y-146975000D01*
X120395000Y-143917929D02*
X120395000Y-144315000D01*
X119635000Y-143917929D02*
X119635000Y-144315000D01*
X118745000Y-144315000D02*
X118745000Y-146975000D01*
X117855000Y-146975000D02*
X117855000Y-152975000D01*
X117855000Y-152975000D02*
X117095000Y-152975000D01*
X117095000Y-152975000D02*
X117095000Y-146975000D01*
X117855000Y-143917929D02*
X117855000Y-144315000D01*
X117095000Y-143917929D02*
X117095000Y-144315000D01*
X116205000Y-144315000D02*
X116205000Y-146975000D01*
X115315000Y-146975000D02*
X115315000Y-152975000D01*
X115315000Y-152975000D02*
X114555000Y-152975000D01*
X114555000Y-152975000D02*
X114555000Y-146975000D01*
X115315000Y-143917929D02*
X115315000Y-144315000D01*
X114555000Y-143917929D02*
X114555000Y-144315000D01*
X113665000Y-144315000D02*
X113665000Y-146975000D01*
X112775000Y-146975000D02*
X112775000Y-152975000D01*
X112775000Y-152975000D02*
X112015000Y-152975000D01*
X112015000Y-152975000D02*
X112015000Y-146975000D01*
X112775000Y-143917929D02*
X112775000Y-144315000D01*
X112015000Y-143917929D02*
X112015000Y-144315000D01*
X111125000Y-144315000D02*
X111125000Y-146975000D01*
X110235000Y-146975000D02*
X110235000Y-152975000D01*
X110235000Y-152975000D02*
X109475000Y-152975000D01*
X109475000Y-152975000D02*
X109475000Y-146975000D01*
X110235000Y-143917929D02*
X110235000Y-144315000D01*
X109475000Y-143917929D02*
X109475000Y-144315000D01*
X108585000Y-144315000D02*
X108585000Y-146975000D01*
X107695000Y-146975000D02*
X107695000Y-152975000D01*
X107695000Y-152975000D02*
X106935000Y-152975000D01*
X106935000Y-152975000D02*
X106935000Y-146975000D01*
X107695000Y-143917929D02*
X107695000Y-144315000D01*
X106935000Y-143917929D02*
X106935000Y-144315000D01*
X106045000Y-144315000D02*
X106045000Y-146975000D01*
X105155000Y-146975000D02*
X105155000Y-152975000D01*
X105155000Y-152975000D02*
X104395000Y-152975000D01*
X104395000Y-152975000D02*
X104395000Y-146975000D01*
X105155000Y-143917929D02*
X105155000Y-144315000D01*
X104395000Y-143917929D02*
X104395000Y-144315000D01*
X103505000Y-144315000D02*
X103505000Y-146975000D01*
X102615000Y-146975000D02*
X102615000Y-152975000D01*
X102615000Y-152975000D02*
X101855000Y-152975000D01*
X101855000Y-152975000D02*
X101855000Y-146975000D01*
X102615000Y-143917929D02*
X102615000Y-144315000D01*
X101855000Y-143917929D02*
X101855000Y-144315000D01*
X100965000Y-144315000D02*
X100965000Y-146975000D01*
X100075000Y-146975000D02*
X100075000Y-152975000D01*
X100075000Y-152975000D02*
X99315000Y-152975000D01*
X99315000Y-152975000D02*
X99315000Y-146975000D01*
X100075000Y-143917929D02*
X100075000Y-144315000D01*
X99315000Y-143917929D02*
X99315000Y-144315000D01*
X98425000Y-144315000D02*
X98425000Y-146975000D01*
X97535000Y-146975000D02*
X97535000Y-152975000D01*
X97535000Y-152975000D02*
X96775000Y-152975000D01*
X96775000Y-152975000D02*
X96775000Y-146975000D01*
X97535000Y-143917929D02*
X97535000Y-144315000D01*
X96775000Y-143917929D02*
X96775000Y-144315000D01*
X95885000Y-144315000D02*
X95885000Y-146975000D01*
X94995000Y-146975000D02*
X94995000Y-152975000D01*
X94995000Y-152975000D02*
X94235000Y-152975000D01*
X94235000Y-152975000D02*
X94235000Y-146975000D01*
X94995000Y-143917929D02*
X94995000Y-144315000D01*
X94235000Y-143917929D02*
X94235000Y-144315000D01*
X93345000Y-144315000D02*
X93345000Y-146975000D01*
X92455000Y-146975000D02*
X92455000Y-152975000D01*
X92455000Y-152975000D02*
X91695000Y-152975000D01*
X91695000Y-152975000D02*
X91695000Y-146975000D01*
X92455000Y-143917929D02*
X92455000Y-144315000D01*
X91695000Y-143917929D02*
X91695000Y-144315000D01*
X90805000Y-144315000D02*
X90805000Y-146975000D01*
X89915000Y-146975000D02*
X89915000Y-152975000D01*
X89915000Y-152975000D02*
X89155000Y-152975000D01*
X89155000Y-152975000D02*
X89155000Y-146975000D01*
X89915000Y-143917929D02*
X89915000Y-144315000D01*
X89155000Y-143917929D02*
X89155000Y-144315000D01*
X88265000Y-144315000D02*
X88265000Y-146975000D01*
X87375000Y-146975000D02*
X87375000Y-152975000D01*
X87375000Y-152975000D02*
X86615000Y-152975000D01*
X86615000Y-152975000D02*
X86615000Y-146975000D01*
X87375000Y-143917929D02*
X87375000Y-144315000D01*
X86615000Y-143917929D02*
X86615000Y-144315000D01*
X85725000Y-144315000D02*
X85725000Y-146975000D01*
X84835000Y-146975000D02*
X84835000Y-152975000D01*
X84835000Y-152975000D02*
X84075000Y-152975000D01*
X84075000Y-152975000D02*
X84075000Y-146975000D01*
X84835000Y-143917929D02*
X84835000Y-144315000D01*
X84075000Y-143917929D02*
X84075000Y-144315000D01*
X83185000Y-144315000D02*
X83185000Y-146975000D01*
X82295000Y-146975000D02*
X82295000Y-152975000D01*
X82295000Y-152975000D02*
X81535000Y-152975000D01*
X81535000Y-152975000D02*
X81535000Y-146975000D01*
X82295000Y-143917929D02*
X82295000Y-144315000D01*
X81535000Y-143917929D02*
X81535000Y-144315000D01*
X80645000Y-144315000D02*
X80645000Y-146975000D01*
X79755000Y-146975000D02*
X79755000Y-152975000D01*
X79755000Y-152975000D02*
X78995000Y-152975000D01*
X78995000Y-152975000D02*
X78995000Y-146975000D01*
X79755000Y-143917929D02*
X79755000Y-144315000D01*
X78995000Y-143917929D02*
X78995000Y-144315000D01*
X78105000Y-144315000D02*
X78105000Y-146975000D01*
X77215000Y-146975000D02*
X77215000Y-152975000D01*
X77215000Y-152975000D02*
X76455000Y-152975000D01*
X76455000Y-152975000D02*
X76455000Y-146975000D01*
X77215000Y-143917929D02*
X77215000Y-144315000D01*
X76455000Y-143917929D02*
X76455000Y-144315000D01*
X75565000Y-144315000D02*
X75565000Y-146975000D01*
X74675000Y-146975000D02*
X74675000Y-152975000D01*
X74675000Y-152975000D02*
X73915000Y-152975000D01*
X73915000Y-152975000D02*
X73915000Y-146975000D01*
X74675000Y-143917929D02*
X74675000Y-144315000D01*
X73915000Y-143917929D02*
X73915000Y-144315000D01*
X73025000Y-144315000D02*
X73025000Y-146975000D01*
X72135000Y-146975000D02*
X72135000Y-152975000D01*
X72135000Y-152975000D02*
X71375000Y-152975000D01*
X71375000Y-152975000D02*
X71375000Y-146975000D01*
X72135000Y-143917929D02*
X72135000Y-144315000D01*
X71375000Y-143917929D02*
X71375000Y-144315000D01*
X70485000Y-144315000D02*
X70485000Y-146975000D01*
X69595000Y-146975000D02*
X69595000Y-152975000D01*
X69595000Y-152975000D02*
X68835000Y-152975000D01*
X68835000Y-152975000D02*
X68835000Y-146975000D01*
X69595000Y-143917929D02*
X69595000Y-144315000D01*
X68835000Y-143917929D02*
X68835000Y-144315000D01*
X67945000Y-144315000D02*
X67945000Y-146975000D01*
X67055000Y-146975000D02*
X67055000Y-152975000D01*
X67055000Y-152975000D02*
X66295000Y-152975000D01*
X66295000Y-152975000D02*
X66295000Y-146975000D01*
X67055000Y-143917929D02*
X67055000Y-144315000D01*
X66295000Y-143917929D02*
X66295000Y-144315000D01*
X65405000Y-144315000D02*
X65405000Y-146975000D01*
X64515000Y-146975000D02*
X64515000Y-152975000D01*
X64515000Y-152975000D02*
X63755000Y-152975000D01*
X63755000Y-152975000D02*
X63755000Y-146975000D01*
X64515000Y-143917929D02*
X64515000Y-144315000D01*
X63755000Y-143917929D02*
X63755000Y-144315000D01*
X62865000Y-144315000D02*
X62865000Y-146975000D01*
X61975000Y-146975000D02*
X61975000Y-152975000D01*
X61975000Y-152975000D02*
X61215000Y-152975000D01*
X61215000Y-152975000D02*
X61215000Y-146975000D01*
X61975000Y-143917929D02*
X61975000Y-144315000D01*
X61215000Y-143917929D02*
X61215000Y-144315000D01*
X60325000Y-144315000D02*
X60325000Y-146975000D01*
X59435000Y-146975000D02*
X59435000Y-152975000D01*
X59435000Y-152975000D02*
X58675000Y-152975000D01*
X58675000Y-152975000D02*
X58675000Y-146975000D01*
X59435000Y-143917929D02*
X59435000Y-144315000D01*
X58675000Y-143917929D02*
X58675000Y-144315000D01*
X57785000Y-144315000D02*
X57785000Y-146975000D01*
X56895000Y-146975000D02*
X56895000Y-152975000D01*
X56895000Y-152975000D02*
X56135000Y-152975000D01*
X56135000Y-152975000D02*
X56135000Y-146975000D01*
X56895000Y-143917929D02*
X56895000Y-144315000D01*
X56135000Y-143917929D02*
X56135000Y-144315000D01*
X55245000Y-144315000D02*
X55245000Y-146975000D01*
X54355000Y-146975000D02*
X54355000Y-152975000D01*
X54355000Y-152975000D02*
X53595000Y-152975000D01*
X53595000Y-152975000D02*
X53595000Y-146975000D01*
X54355000Y-143917929D02*
X54355000Y-144315000D01*
X53595000Y-143917929D02*
X53595000Y-144315000D01*
X150495000Y-141605000D02*
X151765000Y-141605000D01*
X151765000Y-141605000D02*
X151765000Y-142875000D01*
X59436000Y-48895000D02*
G75*
G03X59436000Y-48895000I-2286000J0D01*
G01*
X59436000Y-137160000D02*
G75*
G03X59436000Y-137160000I-2286000J0D01*
G01*
X149606000Y-137160000D02*
G75*
G03X149606000Y-137160000I-2286000J0D01*
G01*
X149606000Y-48895000D02*
G75*
G03X149606000Y-48895000I-2286000J0D01*
G01*
D12*
X144609820Y-61036200D02*
G75*
G03X144609820Y-61036200I-548640J0D01*
G01*
X144614696Y-54533800D02*
G75*
G03X144614696Y-54533800I-553516J0D01*
G01*
X154413789Y-54533800D02*
G75*
G03X154413789Y-54533800I-553289J0D01*
G01*
X154411487Y-61036200D02*
G75*
G03X154411487Y-61036200I-550987J0D01*
G01*
X150408640Y-61036200D02*
G75*
G03X150408640Y-61036200I-548640J0D01*
G01*
X150413516Y-54533800D02*
G75*
G03X150413516Y-54533800I-553516J0D01*
G01*
X154861260Y-62085220D02*
X163860480Y-62085220D01*
X163860480Y-62085220D02*
X163860480Y-53484780D01*
X163860480Y-53484780D02*
X154861260Y-53484780D01*
X144960340Y-52984400D02*
X144960340Y-52384960D01*
X144960340Y-52384960D02*
X146761200Y-52384960D01*
X146761200Y-52384960D02*
X146761200Y-52984400D01*
X144960340Y-63185040D02*
X144960340Y-62585600D01*
X146761200Y-62585600D02*
X146761200Y-63185040D01*
X146761200Y-63185040D02*
X144960340Y-63185040D01*
X143060420Y-62585600D02*
X143060420Y-59585860D01*
X143060420Y-59585860D02*
X143860520Y-59585860D01*
X143860520Y-59585860D02*
X143860520Y-55984140D01*
X143860520Y-55984140D02*
X143060420Y-55984140D01*
X143060420Y-55984140D02*
X143060420Y-52984400D01*
X154861260Y-52984400D02*
X154861260Y-62585600D01*
X154858720Y-62585600D02*
X143057880Y-62585600D01*
X143060420Y-52984400D02*
X154861260Y-52984400D01*
D11*
X149920000Y-68640000D02*
X149920000Y-65980000D01*
X147320000Y-68640000D02*
X149920000Y-68640000D01*
X147320000Y-65980000D02*
X149920000Y-65980000D01*
X147320000Y-68640000D02*
X147320000Y-65980000D01*
X146050000Y-68640000D02*
X144720000Y-68640000D01*
X144720000Y-68640000D02*
X144720000Y-67310000D01*
X98485000Y-135315000D02*
X98485000Y-132655000D01*
X95885000Y-135315000D02*
X98485000Y-135315000D01*
X95885000Y-132655000D02*
X98485000Y-132655000D01*
X95885000Y-135315000D02*
X95885000Y-132655000D01*
X94615000Y-135315000D02*
X93285000Y-135315000D01*
X93285000Y-135315000D02*
X93285000Y-133985000D01*
X70850000Y-48835000D02*
G75*
G02X68850000Y-48835000I-1000000J0D01*
G01*
X68850000Y-48835000D02*
X63390000Y-48835000D01*
X63390000Y-48835000D02*
X63390000Y-99755000D01*
X63390000Y-99755000D02*
X76310000Y-99755000D01*
X76310000Y-99755000D02*
X76310000Y-48835000D01*
X76310000Y-48835000D02*
X70850000Y-48835000D01*
X60900000Y-48775000D02*
X60900000Y-99815000D01*
X60900000Y-99815000D02*
X78800000Y-99815000D01*
X78800000Y-99815000D02*
X78800000Y-48775000D01*
X78800000Y-48775000D02*
X60900000Y-48775000D01*
X93710000Y-64075000D02*
G75*
G02X91710000Y-64075000I-1000000J0D01*
G01*
X91710000Y-64075000D02*
X86250000Y-64075000D01*
X86250000Y-64075000D02*
X86250000Y-99755000D01*
X86250000Y-99755000D02*
X99170000Y-99755000D01*
X99170000Y-99755000D02*
X99170000Y-64075000D01*
X99170000Y-64075000D02*
X93710000Y-64075000D01*
X83760000Y-64015000D02*
X83760000Y-99815000D01*
X83760000Y-99815000D02*
X101660000Y-99815000D01*
X101660000Y-99815000D02*
X101660000Y-64015000D01*
X101660000Y-64015000D02*
X83760000Y-64015000D01*
X136255000Y-109795000D02*
G75*
G02X134255000Y-109795000I-1000000J0D01*
G01*
X134255000Y-109795000D02*
X132605000Y-109795000D01*
X132605000Y-109795000D02*
X132605000Y-130235000D01*
X132605000Y-130235000D02*
X137905000Y-130235000D01*
X137905000Y-130235000D02*
X137905000Y-109795000D01*
X137905000Y-109795000D02*
X136255000Y-109795000D01*
X130115000Y-109735000D02*
X130115000Y-130295000D01*
X130115000Y-130295000D02*
X140395000Y-130295000D01*
X140395000Y-130295000D02*
X140395000Y-109735000D01*
X140395000Y-109735000D02*
X130115000Y-109735000D01*
X57090000Y-87055000D02*
X59750000Y-87055000D01*
X57090000Y-71755000D02*
X57090000Y-87055000D01*
X59750000Y-71755000D02*
X59750000Y-87055000D01*
X57090000Y-71755000D02*
X59750000Y-71755000D01*
X57090000Y-70485000D02*
X57090000Y-69155000D01*
X57090000Y-69155000D02*
X58420000Y-69155000D01*
X124500000Y-72480000D02*
X124500000Y-77300000D01*
X121880000Y-72480000D02*
X121880000Y-77300000D01*
X124500000Y-72480000D02*
X124186000Y-72480000D01*
X122194000Y-72480000D02*
X121880000Y-72480000D01*
X124500000Y-77300000D02*
X124186000Y-77300000D01*
X122194000Y-77300000D02*
X121880000Y-77300000D01*
X133290000Y-98060000D02*
G75*
G02X133290000Y-100060000I0J-1000000D01*
G01*
X133290000Y-100060000D02*
X133290000Y-101710000D01*
X133290000Y-101710000D02*
X151190000Y-101710000D01*
X151190000Y-101710000D02*
X151190000Y-96410000D01*
X151190000Y-96410000D02*
X133290000Y-96410000D01*
X133290000Y-96410000D02*
X133290000Y-98060000D01*
X133230000Y-104200000D02*
X151250000Y-104200000D01*
X151250000Y-104200000D02*
X151250000Y-93920000D01*
X151250000Y-93920000D02*
X133230000Y-93920000D01*
X133230000Y-93920000D02*
X133230000Y-104200000D01*
X120380000Y-81855000D02*
G75*
G02X118380000Y-81855000I-1000000J0D01*
G01*
X118380000Y-81855000D02*
X116730000Y-81855000D01*
X116730000Y-81855000D02*
X116730000Y-102295000D01*
X116730000Y-102295000D02*
X122030000Y-102295000D01*
X122030000Y-102295000D02*
X122030000Y-81855000D01*
X122030000Y-81855000D02*
X120380000Y-81855000D01*
X114240000Y-81795000D02*
X114240000Y-102355000D01*
X114240000Y-102355000D02*
X124520000Y-102355000D01*
X124520000Y-102355000D02*
X124520000Y-81795000D01*
X124520000Y-81795000D02*
X114240000Y-81795000D01*
X82260000Y-46370000D02*
X82260000Y-58520000D01*
X102410000Y-45620000D02*
X83010000Y-45620000D01*
X103160000Y-57770000D02*
X103160000Y-46370000D01*
X82260000Y-58520000D02*
X102410000Y-58520000D01*
X102410000Y-58520000D02*
G75*
G03X103160000Y-57770000I0J750000D01*
G01*
X103160000Y-46370000D02*
G75*
G03X102410000Y-45620000I-750000J0D01*
G01*
X83010000Y-45620000D02*
G75*
G03X82260000Y-46370000I0J-750000D01*
G01*
D13*
X142240000Y-47625000D02*
X142240000Y-45720000D01*
X142240000Y-45720000D02*
X105410000Y-45720000D01*
X105410000Y-45720000D02*
X105410000Y-47625000D01*
X109220000Y-63500000D02*
X105410000Y-63500000D01*
X105410000Y-63500000D02*
X105410000Y-47625000D01*
X111125000Y-59055000D02*
X114935000Y-59055000D01*
X114935000Y-56515000D02*
X111125000Y-56515000D01*
X109220000Y-63500000D02*
X142240000Y-63500000D01*
X142240000Y-63500000D02*
X142240000Y-62865000D01*
X142240000Y-62865000D02*
X142240000Y-47625000D01*
X114935000Y-59055000D02*
X115570000Y-59055000D01*
X115570000Y-56515000D02*
X114935000Y-56515000D01*
X115570000Y-59055000D02*
X118110000Y-61595000D01*
X118110000Y-61595000D02*
X125730000Y-61595000D01*
X115570000Y-56515000D02*
X118110000Y-53975000D01*
X118110000Y-53975000D02*
X125730000Y-53975000D01*
X135890000Y-61595000D02*
X135255000Y-62230000D01*
X135890000Y-61595000D02*
X135255000Y-60960000D01*
X135890000Y-53975000D02*
X135255000Y-54610000D01*
X135890000Y-53975000D02*
X135255000Y-53340000D01*
X135890000Y-61595000D02*
X134620000Y-61595000D01*
X125730000Y-61595000D02*
X135890000Y-61595000D01*
X135890000Y-53975000D02*
X125730000Y-53975000D01*
D11*
X142815000Y-130235000D02*
X148015000Y-130235000D01*
X142815000Y-114935000D02*
X142815000Y-130235000D01*
X148015000Y-112335000D02*
X148015000Y-130235000D01*
X142815000Y-114935000D02*
X145415000Y-114935000D01*
X145415000Y-114935000D02*
X145415000Y-112335000D01*
X145415000Y-112335000D02*
X148015000Y-112335000D01*
X142815000Y-113665000D02*
X142815000Y-112335000D01*
X142815000Y-112335000D02*
X144145000Y-112335000D01*
X121015000Y-109795000D02*
G75*
G02X119015000Y-109795000I-1000000J0D01*
G01*
X119015000Y-109795000D02*
X117365000Y-109795000D01*
X117365000Y-109795000D02*
X117365000Y-135315000D01*
X117365000Y-135315000D02*
X122665000Y-135315000D01*
X122665000Y-135315000D02*
X122665000Y-109795000D01*
X122665000Y-109795000D02*
X121015000Y-109795000D01*
X114875000Y-109735000D02*
X114875000Y-135375000D01*
X114875000Y-135375000D02*
X125155000Y-135375000D01*
X125155000Y-135375000D02*
X125155000Y-109735000D01*
X125155000Y-109735000D02*
X114875000Y-109735000D01*
X105775000Y-109795000D02*
G75*
G02X103775000Y-109795000I-1000000J0D01*
G01*
X103775000Y-109795000D02*
X102125000Y-109795000D01*
X102125000Y-109795000D02*
X102125000Y-135315000D01*
X102125000Y-135315000D02*
X107425000Y-135315000D01*
X107425000Y-135315000D02*
X107425000Y-109795000D01*
X107425000Y-109795000D02*
X105775000Y-109795000D01*
X99635000Y-109735000D02*
X99635000Y-135375000D01*
X99635000Y-135375000D02*
X109915000Y-135375000D01*
X109915000Y-135375000D02*
X109915000Y-109735000D01*
X109915000Y-109735000D02*
X99635000Y-109735000D01*
X82280000Y-109795000D02*
G75*
G02X80280000Y-109795000I-1000000J0D01*
G01*
X80280000Y-109795000D02*
X78630000Y-109795000D01*
X78630000Y-109795000D02*
X78630000Y-135315000D01*
X78630000Y-135315000D02*
X83930000Y-135315000D01*
X83930000Y-135315000D02*
X83930000Y-109795000D01*
X83930000Y-109795000D02*
X82280000Y-109795000D01*
X76140000Y-109735000D02*
X76140000Y-135375000D01*
X76140000Y-135375000D02*
X86420000Y-135375000D01*
X86420000Y-135375000D02*
X86420000Y-109735000D01*
X86420000Y-109735000D02*
X76140000Y-109735000D01*
X67040000Y-109795000D02*
G75*
G02X65040000Y-109795000I-1000000J0D01*
G01*
X65040000Y-109795000D02*
X63390000Y-109795000D01*
X63390000Y-109795000D02*
X63390000Y-135315000D01*
X63390000Y-135315000D02*
X68690000Y-135315000D01*
X68690000Y-135315000D02*
X68690000Y-109795000D01*
X68690000Y-109795000D02*
X67040000Y-109795000D01*
X60900000Y-109735000D02*
X60900000Y-135375000D01*
X60900000Y-135375000D02*
X71180000Y-135375000D01*
X71180000Y-135375000D02*
X71180000Y-109735000D01*
X71180000Y-109735000D02*
X60900000Y-109735000D01*
X88960000Y-62290000D02*
X88960000Y-59630000D01*
X86360000Y-62290000D02*
X88960000Y-62290000D01*
X86360000Y-59630000D02*
X88960000Y-59630000D01*
X86360000Y-62290000D02*
X86360000Y-59630000D01*
X85090000Y-62290000D02*
X83760000Y-62290000D01*
X83760000Y-62290000D02*
X83760000Y-60960000D01*
X57725000Y-64195000D02*
X60385000Y-64195000D01*
X57725000Y-59055000D02*
X57725000Y-64195000D01*
X60385000Y-59055000D02*
X60385000Y-64195000D01*
X57725000Y-59055000D02*
X60385000Y-59055000D01*
X57725000Y-57785000D02*
X57725000Y-56455000D01*
X57725000Y-56455000D02*
X59055000Y-56455000D01*
X57845000Y-53915000D02*
X55185000Y-53915000D01*
X57845000Y-59055000D02*
X57845000Y-53915000D01*
X55185000Y-59055000D02*
X55185000Y-53915000D01*
X57845000Y-59055000D02*
X55185000Y-59055000D01*
X57845000Y-60325000D02*
X57845000Y-61655000D01*
X57845000Y-61655000D02*
X56515000Y-61655000D01*
X133290000Y-85995000D02*
G75*
G02X133290000Y-87995000I0J-1000000D01*
G01*
X133290000Y-87995000D02*
X133290000Y-89645000D01*
X133290000Y-89645000D02*
X151190000Y-89645000D01*
X151190000Y-89645000D02*
X151190000Y-84345000D01*
X151190000Y-84345000D02*
X133290000Y-84345000D01*
X133290000Y-84345000D02*
X133290000Y-85995000D01*
X133230000Y-92135000D02*
X151250000Y-92135000D01*
X151250000Y-92135000D02*
X151250000Y-81855000D01*
X151250000Y-81855000D02*
X133230000Y-81855000D01*
X133230000Y-81855000D02*
X133230000Y-92135000D01*
X125670000Y-73930000D02*
G75*
G02X125670000Y-75930000I0J-1000000D01*
G01*
X125670000Y-75930000D02*
X125670000Y-77580000D01*
X125670000Y-77580000D02*
X151190000Y-77580000D01*
X151190000Y-77580000D02*
X151190000Y-72280000D01*
X151190000Y-72280000D02*
X125670000Y-72280000D01*
X125670000Y-72280000D02*
X125670000Y-73930000D01*
X125610000Y-80070000D02*
X151250000Y-80070000D01*
X151250000Y-80070000D02*
X151250000Y-69790000D01*
X151250000Y-69790000D02*
X125610000Y-69790000D01*
X125610000Y-69790000D02*
X125610000Y-80070000D01*
D13*
X58253334Y-93702143D02*
X58205715Y-93749762D01*
X58062858Y-93797381D01*
X57967620Y-93797381D01*
X57824762Y-93749762D01*
X57729524Y-93654524D01*
X57681905Y-93559286D01*
X57634286Y-93368810D01*
X57634286Y-93225952D01*
X57681905Y-93035476D01*
X57729524Y-92940238D01*
X57824762Y-92845000D01*
X57967620Y-92797381D01*
X58062858Y-92797381D01*
X58205715Y-92845000D01*
X58253334Y-92892619D01*
X59205715Y-93797381D02*
X58634286Y-93797381D01*
X58920000Y-93797381D02*
X58920000Y-92797381D01*
X58824762Y-92940238D01*
X58729524Y-93035476D01*
X58634286Y-93083095D01*
X103973334Y-68302143D02*
X103925715Y-68349762D01*
X103782858Y-68397381D01*
X103687620Y-68397381D01*
X103544762Y-68349762D01*
X103449524Y-68254524D01*
X103401905Y-68159286D01*
X103354286Y-67968810D01*
X103354286Y-67825952D01*
X103401905Y-67635476D01*
X103449524Y-67540238D01*
X103544762Y-67445000D01*
X103687620Y-67397381D01*
X103782858Y-67397381D01*
X103925715Y-67445000D01*
X103973334Y-67492619D01*
X104354286Y-67492619D02*
X104401905Y-67445000D01*
X104497143Y-67397381D01*
X104735239Y-67397381D01*
X104830477Y-67445000D01*
X104878096Y-67492619D01*
X104925715Y-67587857D01*
X104925715Y-67683095D01*
X104878096Y-67825952D01*
X104306667Y-68397381D01*
X104925715Y-68397381D01*
X127468334Y-114022143D02*
X127420715Y-114069762D01*
X127277858Y-114117381D01*
X127182620Y-114117381D01*
X127039762Y-114069762D01*
X126944524Y-113974524D01*
X126896905Y-113879286D01*
X126849286Y-113688810D01*
X126849286Y-113545952D01*
X126896905Y-113355476D01*
X126944524Y-113260238D01*
X127039762Y-113165000D01*
X127182620Y-113117381D01*
X127277858Y-113117381D01*
X127420715Y-113165000D01*
X127468334Y-113212619D01*
X127801667Y-113117381D02*
X128420715Y-113117381D01*
X128087381Y-113498333D01*
X128230239Y-113498333D01*
X128325477Y-113545952D01*
X128373096Y-113593571D01*
X128420715Y-113688810D01*
X128420715Y-113926905D01*
X128373096Y-114022143D01*
X128325477Y-114069762D01*
X128230239Y-114117381D01*
X127944524Y-114117381D01*
X127849286Y-114069762D01*
X127801667Y-114022143D01*
X112228334Y-114022143D02*
X112180715Y-114069762D01*
X112037858Y-114117381D01*
X111942620Y-114117381D01*
X111799762Y-114069762D01*
X111704524Y-113974524D01*
X111656905Y-113879286D01*
X111609286Y-113688810D01*
X111609286Y-113545952D01*
X111656905Y-113355476D01*
X111704524Y-113260238D01*
X111799762Y-113165000D01*
X111942620Y-113117381D01*
X112037858Y-113117381D01*
X112180715Y-113165000D01*
X112228334Y-113212619D01*
X113085477Y-113450714D02*
X113085477Y-114117381D01*
X112847381Y-113069762D02*
X112609286Y-113784048D01*
X113228334Y-113784048D01*
X88733334Y-114022143D02*
X88685715Y-114069762D01*
X88542858Y-114117381D01*
X88447620Y-114117381D01*
X88304762Y-114069762D01*
X88209524Y-113974524D01*
X88161905Y-113879286D01*
X88114286Y-113688810D01*
X88114286Y-113545952D01*
X88161905Y-113355476D01*
X88209524Y-113260238D01*
X88304762Y-113165000D01*
X88447620Y-113117381D01*
X88542858Y-113117381D01*
X88685715Y-113165000D01*
X88733334Y-113212619D01*
X89638096Y-113117381D02*
X89161905Y-113117381D01*
X89114286Y-113593571D01*
X89161905Y-113545952D01*
X89257143Y-113498333D01*
X89495239Y-113498333D01*
X89590477Y-113545952D01*
X89638096Y-113593571D01*
X89685715Y-113688810D01*
X89685715Y-113926905D01*
X89638096Y-114022143D01*
X89590477Y-114069762D01*
X89495239Y-114117381D01*
X89257143Y-114117381D01*
X89161905Y-114069762D01*
X89114286Y-114022143D01*
X73493334Y-114022143D02*
X73445715Y-114069762D01*
X73302858Y-114117381D01*
X73207620Y-114117381D01*
X73064762Y-114069762D01*
X72969524Y-113974524D01*
X72921905Y-113879286D01*
X72874286Y-113688810D01*
X72874286Y-113545952D01*
X72921905Y-113355476D01*
X72969524Y-113260238D01*
X73064762Y-113165000D01*
X73207620Y-113117381D01*
X73302858Y-113117381D01*
X73445715Y-113165000D01*
X73493334Y-113212619D01*
X74350477Y-113117381D02*
X74160000Y-113117381D01*
X74064762Y-113165000D01*
X74017143Y-113212619D01*
X73921905Y-113355476D01*
X73874286Y-113545952D01*
X73874286Y-113926905D01*
X73921905Y-114022143D01*
X73969524Y-114069762D01*
X74064762Y-114117381D01*
X74255239Y-114117381D01*
X74350477Y-114069762D01*
X74398096Y-114022143D01*
X74445715Y-113926905D01*
X74445715Y-113688810D01*
X74398096Y-113593571D01*
X74350477Y-113545952D01*
X74255239Y-113498333D01*
X74064762Y-113498333D01*
X73969524Y-113545952D01*
X73921905Y-113593571D01*
X73874286Y-113688810D01*
X145248334Y-111482143D02*
X145200715Y-111529762D01*
X145057858Y-111577381D01*
X144962620Y-111577381D01*
X144819762Y-111529762D01*
X144724524Y-111434524D01*
X144676905Y-111339286D01*
X144629286Y-111148810D01*
X144629286Y-111005952D01*
X144676905Y-110815476D01*
X144724524Y-110720238D01*
X144819762Y-110625000D01*
X144962620Y-110577381D01*
X145057858Y-110577381D01*
X145200715Y-110625000D01*
X145248334Y-110672619D01*
X145581667Y-110577381D02*
X146248334Y-110577381D01*
X145819762Y-111577381D01*
X130643334Y-98147143D02*
X130595715Y-98194762D01*
X130452858Y-98242381D01*
X130357620Y-98242381D01*
X130214762Y-98194762D01*
X130119524Y-98099524D01*
X130071905Y-98004286D01*
X130024286Y-97813810D01*
X130024286Y-97670952D01*
X130071905Y-97480476D01*
X130119524Y-97385238D01*
X130214762Y-97290000D01*
X130357620Y-97242381D01*
X130452858Y-97242381D01*
X130595715Y-97290000D01*
X130643334Y-97337619D01*
X131214762Y-97670952D02*
X131119524Y-97623333D01*
X131071905Y-97575714D01*
X131024286Y-97480476D01*
X131024286Y-97432857D01*
X131071905Y-97337619D01*
X131119524Y-97290000D01*
X131214762Y-97242381D01*
X131405239Y-97242381D01*
X131500477Y-97290000D01*
X131548096Y-97337619D01*
X131595715Y-97432857D01*
X131595715Y-97480476D01*
X131548096Y-97575714D01*
X131500477Y-97623333D01*
X131405239Y-97670952D01*
X131214762Y-97670952D01*
X131119524Y-97718571D01*
X131071905Y-97766190D01*
X131024286Y-97861429D01*
X131024286Y-98051905D01*
X131071905Y-98147143D01*
X131119524Y-98194762D01*
X131214762Y-98242381D01*
X131405239Y-98242381D01*
X131500477Y-98194762D01*
X131548096Y-98147143D01*
X131595715Y-98051905D01*
X131595715Y-97861429D01*
X131548096Y-97766190D01*
X131500477Y-97718571D01*
X131405239Y-97670952D01*
X126833334Y-86082143D02*
X126785715Y-86129762D01*
X126642858Y-86177381D01*
X126547620Y-86177381D01*
X126404762Y-86129762D01*
X126309524Y-86034524D01*
X126261905Y-85939286D01*
X126214286Y-85748810D01*
X126214286Y-85605952D01*
X126261905Y-85415476D01*
X126309524Y-85320238D01*
X126404762Y-85225000D01*
X126547620Y-85177381D01*
X126642858Y-85177381D01*
X126785715Y-85225000D01*
X126833334Y-85272619D01*
X127309524Y-86177381D02*
X127500000Y-86177381D01*
X127595239Y-86129762D01*
X127642858Y-86082143D01*
X127738096Y-85939286D01*
X127785715Y-85748810D01*
X127785715Y-85367857D01*
X127738096Y-85272619D01*
X127690477Y-85225000D01*
X127595239Y-85177381D01*
X127404762Y-85177381D01*
X127309524Y-85225000D01*
X127261905Y-85272619D01*
X127214286Y-85367857D01*
X127214286Y-85605952D01*
X127261905Y-85701190D01*
X127309524Y-85748810D01*
X127404762Y-85796429D01*
X127595239Y-85796429D01*
X127690477Y-85748810D01*
X127738096Y-85701190D01*
X127785715Y-85605952D01*
X130167143Y-86082143D02*
X130119524Y-86129762D01*
X129976667Y-86177381D01*
X129881429Y-86177381D01*
X129738571Y-86129762D01*
X129643333Y-86034524D01*
X129595714Y-85939286D01*
X129548095Y-85748810D01*
X129548095Y-85605952D01*
X129595714Y-85415476D01*
X129643333Y-85320238D01*
X129738571Y-85225000D01*
X129881429Y-85177381D01*
X129976667Y-85177381D01*
X130119524Y-85225000D01*
X130167143Y-85272619D01*
X131119524Y-86177381D02*
X130548095Y-86177381D01*
X130833809Y-86177381D02*
X130833809Y-85177381D01*
X130738571Y-85320238D01*
X130643333Y-85415476D01*
X130548095Y-85463095D01*
X131738571Y-85177381D02*
X131833810Y-85177381D01*
X131929048Y-85225000D01*
X131976667Y-85272619D01*
X132024286Y-85367857D01*
X132071905Y-85558333D01*
X132071905Y-85796429D01*
X132024286Y-85986905D01*
X131976667Y-86082143D01*
X131929048Y-86129762D01*
X131833810Y-86177381D01*
X131738571Y-86177381D01*
X131643333Y-86129762D01*
X131595714Y-86082143D01*
X131548095Y-85986905D01*
X131500476Y-85796429D01*
X131500476Y-85558333D01*
X131548095Y-85367857D01*
X131595714Y-85272619D01*
X131643333Y-85225000D01*
X131738571Y-85177381D01*
X152217381Y-147593333D02*
X152931667Y-147593333D01*
X153074524Y-147640953D01*
X153169762Y-147736191D01*
X153217381Y-147879048D01*
X153217381Y-147974286D01*
X153217381Y-146593333D02*
X153217381Y-147164762D01*
X153217381Y-146879048D02*
X152217381Y-146879048D01*
X152360238Y-146974286D01*
X152455476Y-147069524D01*
X152503095Y-147164762D01*
D14*
X164824229Y-58293000D02*
X165912800Y-58293000D01*
X166130514Y-58365572D01*
X166275657Y-58510715D01*
X166348229Y-58728429D01*
X166348229Y-58873572D01*
X165477371Y-57349572D02*
X165404800Y-57494714D01*
X165332229Y-57567286D01*
X165187086Y-57639857D01*
X165114514Y-57639857D01*
X164969371Y-57567286D01*
X164896800Y-57494714D01*
X164824229Y-57349572D01*
X164824229Y-57059286D01*
X164896800Y-56914143D01*
X164969371Y-56841572D01*
X165114514Y-56769000D01*
X165187086Y-56769000D01*
X165332229Y-56841572D01*
X165404800Y-56914143D01*
X165477371Y-57059286D01*
X165477371Y-57349572D01*
X165549943Y-57494714D01*
X165622514Y-57567286D01*
X165767657Y-57639857D01*
X166057943Y-57639857D01*
X166203086Y-57567286D01*
X166275657Y-57494714D01*
X166348229Y-57349572D01*
X166348229Y-57059286D01*
X166275657Y-56914143D01*
X166203086Y-56841572D01*
X166057943Y-56769000D01*
X165767657Y-56769000D01*
X165622514Y-56841572D01*
X165549943Y-56914143D01*
X165477371Y-57059286D01*
D13*
X142962381Y-68143333D02*
X143676667Y-68143333D01*
X143819524Y-68190953D01*
X143914762Y-68286191D01*
X143962381Y-68429048D01*
X143962381Y-68524286D01*
X143962381Y-67667143D02*
X142962381Y-67667143D01*
X142962381Y-67286190D01*
X143010000Y-67190952D01*
X143057619Y-67143333D01*
X143152857Y-67095714D01*
X143295714Y-67095714D01*
X143390952Y-67143333D01*
X143438571Y-67190952D01*
X143486190Y-67286190D01*
X143486190Y-67667143D01*
X143962381Y-66143333D02*
X143962381Y-66714762D01*
X143962381Y-66429048D02*
X142962381Y-66429048D01*
X143105238Y-66524286D01*
X143200476Y-66619524D01*
X143248095Y-66714762D01*
X144605714Y-64222381D02*
X144939047Y-65222381D01*
X145272381Y-64222381D01*
X145605714Y-65222381D02*
X145605714Y-64222381D01*
X145843809Y-64222381D01*
X145986667Y-64270000D01*
X146081905Y-64365238D01*
X146129524Y-64460476D01*
X146177143Y-64650952D01*
X146177143Y-64793810D01*
X146129524Y-64984286D01*
X146081905Y-65079524D01*
X145986667Y-65174762D01*
X145843809Y-65222381D01*
X145605714Y-65222381D01*
X146605714Y-64222381D02*
X146605714Y-65031905D01*
X146653333Y-65127143D01*
X146700952Y-65174762D01*
X146796190Y-65222381D01*
X146986667Y-65222381D01*
X147081905Y-65174762D01*
X147129524Y-65127143D01*
X147177143Y-65031905D01*
X147177143Y-64222381D01*
X147415238Y-65317619D02*
X148177143Y-65317619D01*
X148415238Y-64698571D02*
X148748572Y-64698571D01*
X148891429Y-65222381D02*
X148415238Y-65222381D01*
X148415238Y-64222381D01*
X148891429Y-64222381D01*
X149320000Y-65222381D02*
X149320000Y-64222381D01*
X149891429Y-65222381D01*
X149891429Y-64222381D01*
X92265952Y-136977381D02*
X92265952Y-135977381D01*
X92742142Y-136977381D02*
X92742142Y-135977381D01*
X93313571Y-136977381D01*
X93313571Y-135977381D01*
X93646904Y-135977381D02*
X94218333Y-135977381D01*
X93932618Y-136977381D02*
X93932618Y-135977381D01*
X94313571Y-137072619D02*
X95075476Y-137072619D01*
X95504047Y-135977381D02*
X95694524Y-135977381D01*
X95789762Y-136025000D01*
X95885000Y-136120238D01*
X95932619Y-136310714D01*
X95932619Y-136644048D01*
X95885000Y-136834524D01*
X95789762Y-136929762D01*
X95694524Y-136977381D01*
X95504047Y-136977381D01*
X95408809Y-136929762D01*
X95313571Y-136834524D01*
X95265952Y-136644048D01*
X95265952Y-136310714D01*
X95313571Y-136120238D01*
X95408809Y-136025000D01*
X95504047Y-135977381D01*
X96361190Y-136977381D02*
X96361190Y-135977381D01*
X96932619Y-136977381D01*
X96932619Y-135977381D01*
X97170714Y-137072619D02*
X97932619Y-137072619D01*
X98504048Y-136453571D02*
X98170714Y-136453571D01*
X98170714Y-136977381D02*
X98170714Y-135977381D01*
X98646905Y-135977381D01*
X98980238Y-136929762D02*
X99123095Y-136977381D01*
X99361191Y-136977381D01*
X99456429Y-136929762D01*
X99504048Y-136882143D01*
X99551667Y-136786905D01*
X99551667Y-136691667D01*
X99504048Y-136596429D01*
X99456429Y-136548810D01*
X99361191Y-136501190D01*
X99170714Y-136453571D01*
X99075476Y-136405952D01*
X99027857Y-136358333D01*
X98980238Y-136263095D01*
X98980238Y-136167857D01*
X99027857Y-136072619D01*
X99075476Y-136025000D01*
X99170714Y-135977381D01*
X99408810Y-135977381D01*
X99551667Y-136025000D01*
X69088095Y-52157381D02*
X69088095Y-52966905D01*
X69135714Y-53062143D01*
X69183333Y-53109762D01*
X69278571Y-53157381D01*
X69469048Y-53157381D01*
X69564286Y-53109762D01*
X69611905Y-53062143D01*
X69659524Y-52966905D01*
X69659524Y-52157381D01*
X70659524Y-53157381D02*
X70088095Y-53157381D01*
X70373809Y-53157381D02*
X70373809Y-52157381D01*
X70278571Y-52300238D01*
X70183333Y-52395476D01*
X70088095Y-52443095D01*
X67111905Y-74747381D02*
X67111905Y-73747381D01*
X67445239Y-74461667D01*
X67778572Y-73747381D01*
X67778572Y-74747381D01*
X68826191Y-74652143D02*
X68778572Y-74699762D01*
X68635715Y-74747381D01*
X68540477Y-74747381D01*
X68397619Y-74699762D01*
X68302381Y-74604524D01*
X68254762Y-74509286D01*
X68207143Y-74318810D01*
X68207143Y-74175952D01*
X68254762Y-73985476D01*
X68302381Y-73890238D01*
X68397619Y-73795000D01*
X68540477Y-73747381D01*
X68635715Y-73747381D01*
X68778572Y-73795000D01*
X68826191Y-73842619D01*
X69683334Y-73747381D02*
X69492857Y-73747381D01*
X69397619Y-73795000D01*
X69350000Y-73842619D01*
X69254762Y-73985476D01*
X69207143Y-74175952D01*
X69207143Y-74556905D01*
X69254762Y-74652143D01*
X69302381Y-74699762D01*
X69397619Y-74747381D01*
X69588096Y-74747381D01*
X69683334Y-74699762D01*
X69730953Y-74652143D01*
X69778572Y-74556905D01*
X69778572Y-74318810D01*
X69730953Y-74223571D01*
X69683334Y-74175952D01*
X69588096Y-74128333D01*
X69397619Y-74128333D01*
X69302381Y-74175952D01*
X69254762Y-74223571D01*
X69207143Y-74318810D01*
X70350000Y-74175952D02*
X70254762Y-74128333D01*
X70207143Y-74080714D01*
X70159524Y-73985476D01*
X70159524Y-73937857D01*
X70207143Y-73842619D01*
X70254762Y-73795000D01*
X70350000Y-73747381D01*
X70540477Y-73747381D01*
X70635715Y-73795000D01*
X70683334Y-73842619D01*
X70730953Y-73937857D01*
X70730953Y-73985476D01*
X70683334Y-74080714D01*
X70635715Y-74128333D01*
X70540477Y-74175952D01*
X70350000Y-74175952D01*
X70254762Y-74223571D01*
X70207143Y-74271190D01*
X70159524Y-74366429D01*
X70159524Y-74556905D01*
X70207143Y-74652143D01*
X70254762Y-74699762D01*
X70350000Y-74747381D01*
X70540477Y-74747381D01*
X70635715Y-74699762D01*
X70683334Y-74652143D01*
X70730953Y-74556905D01*
X70730953Y-74366429D01*
X70683334Y-74271190D01*
X70635715Y-74223571D01*
X70540477Y-74175952D01*
X71588096Y-74080714D02*
X71588096Y-74747381D01*
X71350000Y-73699762D02*
X71111905Y-74414048D01*
X71730953Y-74414048D01*
X72016667Y-73747381D02*
X72683334Y-73747381D01*
X72254762Y-74747381D01*
X91948095Y-67397381D02*
X91948095Y-68206905D01*
X91995714Y-68302143D01*
X92043333Y-68349762D01*
X92138571Y-68397381D01*
X92329048Y-68397381D01*
X92424286Y-68349762D01*
X92471905Y-68302143D01*
X92519524Y-68206905D01*
X92519524Y-67397381D01*
X92948095Y-67492619D02*
X92995714Y-67445000D01*
X93090952Y-67397381D01*
X93329048Y-67397381D01*
X93424286Y-67445000D01*
X93471905Y-67492619D01*
X93519524Y-67587857D01*
X93519524Y-67683095D01*
X93471905Y-67825952D01*
X92900476Y-68397381D01*
X93519524Y-68397381D01*
X86971905Y-82367381D02*
X86971905Y-81367381D01*
X86971905Y-81843571D02*
X87543334Y-81843571D01*
X87543334Y-82367381D02*
X87543334Y-81367381D01*
X88019524Y-82367381D02*
X88019524Y-81367381D01*
X88352858Y-82081667D01*
X88686191Y-81367381D01*
X88686191Y-82367381D01*
X89590953Y-81367381D02*
X89400476Y-81367381D01*
X89305238Y-81415000D01*
X89257619Y-81462619D01*
X89162381Y-81605476D01*
X89114762Y-81795952D01*
X89114762Y-82176905D01*
X89162381Y-82272143D01*
X89210000Y-82319762D01*
X89305238Y-82367381D01*
X89495715Y-82367381D01*
X89590953Y-82319762D01*
X89638572Y-82272143D01*
X89686191Y-82176905D01*
X89686191Y-81938810D01*
X89638572Y-81843571D01*
X89590953Y-81795952D01*
X89495715Y-81748333D01*
X89305238Y-81748333D01*
X89210000Y-81795952D01*
X89162381Y-81843571D01*
X89114762Y-81938810D01*
X90067143Y-81462619D02*
X90114762Y-81415000D01*
X90210000Y-81367381D01*
X90448096Y-81367381D01*
X90543334Y-81415000D01*
X90590953Y-81462619D01*
X90638572Y-81557857D01*
X90638572Y-81653095D01*
X90590953Y-81795952D01*
X90019524Y-82367381D01*
X90638572Y-82367381D01*
X91019524Y-81462619D02*
X91067143Y-81415000D01*
X91162381Y-81367381D01*
X91400477Y-81367381D01*
X91495715Y-81415000D01*
X91543334Y-81462619D01*
X91590953Y-81557857D01*
X91590953Y-81653095D01*
X91543334Y-81795952D01*
X90971905Y-82367381D01*
X91590953Y-82367381D01*
X92495715Y-81367381D02*
X92019524Y-81367381D01*
X91971905Y-81843571D01*
X92019524Y-81795952D01*
X92114762Y-81748333D01*
X92352858Y-81748333D01*
X92448096Y-81795952D01*
X92495715Y-81843571D01*
X92543334Y-81938810D01*
X92543334Y-82176905D01*
X92495715Y-82272143D01*
X92448096Y-82319762D01*
X92352858Y-82367381D01*
X92114762Y-82367381D01*
X92019524Y-82319762D01*
X91971905Y-82272143D01*
X93400477Y-81367381D02*
X93210000Y-81367381D01*
X93114762Y-81415000D01*
X93067143Y-81462619D01*
X92971905Y-81605476D01*
X92924286Y-81795952D01*
X92924286Y-82176905D01*
X92971905Y-82272143D01*
X93019524Y-82319762D01*
X93114762Y-82367381D01*
X93305239Y-82367381D01*
X93400477Y-82319762D01*
X93448096Y-82272143D01*
X93495715Y-82176905D01*
X93495715Y-81938810D01*
X93448096Y-81843571D01*
X93400477Y-81795952D01*
X93305239Y-81748333D01*
X93114762Y-81748333D01*
X93019524Y-81795952D01*
X92971905Y-81843571D01*
X92924286Y-81938810D01*
X94257620Y-81843571D02*
X94400477Y-81891190D01*
X94448096Y-81938810D01*
X94495715Y-82034048D01*
X94495715Y-82176905D01*
X94448096Y-82272143D01*
X94400477Y-82319762D01*
X94305239Y-82367381D01*
X93924286Y-82367381D01*
X93924286Y-81367381D01*
X94257620Y-81367381D01*
X94352858Y-81415000D01*
X94400477Y-81462619D01*
X94448096Y-81557857D01*
X94448096Y-81653095D01*
X94400477Y-81748333D01*
X94352858Y-81795952D01*
X94257620Y-81843571D01*
X93924286Y-81843571D01*
X95400477Y-82367381D02*
X94924286Y-82367381D01*
X94924286Y-81367381D01*
X95733810Y-82367381D02*
X95733810Y-81367381D01*
X96114763Y-81367381D01*
X96210001Y-81415000D01*
X96257620Y-81462619D01*
X96305239Y-81557857D01*
X96305239Y-81700714D01*
X96257620Y-81795952D01*
X96210001Y-81843571D01*
X96114763Y-81891190D01*
X95733810Y-81891190D01*
X96733810Y-81986429D02*
X97495715Y-81986429D01*
X97876667Y-81367381D02*
X98543334Y-81367381D01*
X98114762Y-82367381D01*
X134493095Y-113117381D02*
X134493095Y-113926905D01*
X134540714Y-114022143D01*
X134588333Y-114069762D01*
X134683571Y-114117381D01*
X134874048Y-114117381D01*
X134969286Y-114069762D01*
X135016905Y-114022143D01*
X135064524Y-113926905D01*
X135064524Y-113117381D01*
X135445476Y-113117381D02*
X136112143Y-113117381D01*
X135683571Y-114117381D01*
X134707381Y-123657857D02*
X134707381Y-122991190D01*
X135707381Y-123419762D01*
X135040714Y-122181666D02*
X135707381Y-122181666D01*
X134659762Y-122419762D02*
X135374048Y-122657857D01*
X135374048Y-122038809D01*
X135707381Y-121657857D02*
X134707381Y-121657857D01*
X135183571Y-121657857D02*
X135183571Y-121086428D01*
X135707381Y-121086428D02*
X134707381Y-121086428D01*
X135612143Y-120038809D02*
X135659762Y-120086428D01*
X135707381Y-120229285D01*
X135707381Y-120324523D01*
X135659762Y-120467381D01*
X135564524Y-120562619D01*
X135469286Y-120610238D01*
X135278810Y-120657857D01*
X135135952Y-120657857D01*
X134945476Y-120610238D01*
X134850238Y-120562619D01*
X134755000Y-120467381D01*
X134707381Y-120324523D01*
X134707381Y-120229285D01*
X134755000Y-120086428D01*
X134802619Y-120038809D01*
X134707381Y-119753095D02*
X134707381Y-119181666D01*
X135707381Y-119467381D02*
X134707381Y-119467381D01*
X135707381Y-118324523D02*
X135707381Y-118895952D01*
X135707381Y-118610238D02*
X134707381Y-118610238D01*
X134850238Y-118705476D01*
X134945476Y-118800714D01*
X134993095Y-118895952D01*
X134707381Y-117991190D02*
X134707381Y-117372142D01*
X135088333Y-117705476D01*
X135088333Y-117562618D01*
X135135952Y-117467380D01*
X135183571Y-117419761D01*
X135278810Y-117372142D01*
X135516905Y-117372142D01*
X135612143Y-117419761D01*
X135659762Y-117467380D01*
X135707381Y-117562618D01*
X135707381Y-117848333D01*
X135659762Y-117943571D01*
X135612143Y-117991190D01*
X135135952Y-116800714D02*
X135088333Y-116895952D01*
X135040714Y-116943571D01*
X134945476Y-116991190D01*
X134897857Y-116991190D01*
X134802619Y-116943571D01*
X134755000Y-116895952D01*
X134707381Y-116800714D01*
X134707381Y-116610237D01*
X134755000Y-116514999D01*
X134802619Y-116467380D01*
X134897857Y-116419761D01*
X134945476Y-116419761D01*
X135040714Y-116467380D01*
X135088333Y-116514999D01*
X135135952Y-116610237D01*
X135135952Y-116800714D01*
X135183571Y-116895952D01*
X135231190Y-116943571D01*
X135326429Y-116991190D01*
X135516905Y-116991190D01*
X135612143Y-116943571D01*
X135659762Y-116895952D01*
X135707381Y-116800714D01*
X135707381Y-116610237D01*
X135659762Y-116514999D01*
X135612143Y-116467380D01*
X135516905Y-116419761D01*
X135326429Y-116419761D01*
X135231190Y-116467380D01*
X135183571Y-116514999D01*
X135135952Y-116610237D01*
X58086667Y-67397381D02*
X58086667Y-68111667D01*
X58039047Y-68254524D01*
X57943809Y-68349762D01*
X57800952Y-68397381D01*
X57705714Y-68397381D01*
X58467619Y-67397381D02*
X59086667Y-67397381D01*
X58753333Y-67778333D01*
X58896191Y-67778333D01*
X58991429Y-67825952D01*
X59039048Y-67873571D01*
X59086667Y-67968810D01*
X59086667Y-68206905D01*
X59039048Y-68302143D01*
X58991429Y-68349762D01*
X58896191Y-68397381D01*
X58610476Y-68397381D01*
X58515238Y-68349762D01*
X58467619Y-68302143D01*
X55967381Y-80152619D02*
X56967381Y-79819286D01*
X55967381Y-79485952D01*
X56967381Y-79152619D02*
X55967381Y-79152619D01*
X56967381Y-78676429D02*
X55967381Y-78676429D01*
X55967381Y-78438334D01*
X56015000Y-78295476D01*
X56110238Y-78200238D01*
X56205476Y-78152619D01*
X56395952Y-78105000D01*
X56538810Y-78105000D01*
X56729286Y-78152619D01*
X56824524Y-78200238D01*
X56919762Y-78295476D01*
X56967381Y-78438334D01*
X56967381Y-78676429D01*
X56443571Y-77676429D02*
X56443571Y-77343095D01*
X56967381Y-77200238D02*
X56967381Y-77676429D01*
X55967381Y-77676429D01*
X55967381Y-77200238D01*
X55967381Y-76581191D02*
X55967381Y-76390714D01*
X56015000Y-76295476D01*
X56110238Y-76200238D01*
X56300714Y-76152619D01*
X56634048Y-76152619D01*
X56824524Y-76200238D01*
X56919762Y-76295476D01*
X56967381Y-76390714D01*
X56967381Y-76581191D01*
X56919762Y-76676429D01*
X56824524Y-76771667D01*
X56634048Y-76819286D01*
X56300714Y-76819286D01*
X56110238Y-76771667D01*
X56015000Y-76676429D01*
X55967381Y-76581191D01*
X123462144Y-75572857D02*
X123509763Y-75620476D01*
X123557382Y-75763333D01*
X123557382Y-75858571D01*
X123509763Y-76001429D01*
X123414525Y-76096667D01*
X123319287Y-76144286D01*
X123128811Y-76191905D01*
X122985953Y-76191905D01*
X122795477Y-76144286D01*
X122700239Y-76096667D01*
X122605001Y-76001429D01*
X122557382Y-75858571D01*
X122557382Y-75763333D01*
X122605001Y-75620476D01*
X122652620Y-75572857D01*
X123557382Y-74620476D02*
X123557382Y-75191905D01*
X123557382Y-74906191D02*
X122557382Y-74906191D01*
X122700239Y-75001429D01*
X122795477Y-75096667D01*
X122843096Y-75191905D01*
X122652620Y-74239524D02*
X122605001Y-74191905D01*
X122557382Y-74096667D01*
X122557382Y-73858571D01*
X122605001Y-73763333D01*
X122652620Y-73715714D01*
X122747858Y-73668095D01*
X122843096Y-73668095D01*
X122985953Y-73715714D01*
X123557382Y-74287143D01*
X123557382Y-73668095D01*
X136612381Y-99821905D02*
X137421905Y-99821905D01*
X137517143Y-99774286D01*
X137564762Y-99726667D01*
X137612381Y-99631429D01*
X137612381Y-99440952D01*
X137564762Y-99345714D01*
X137517143Y-99298095D01*
X137421905Y-99250476D01*
X136612381Y-99250476D01*
X137040952Y-98631429D02*
X136993333Y-98726667D01*
X136945714Y-98774286D01*
X136850476Y-98821905D01*
X136802857Y-98821905D01*
X136707619Y-98774286D01*
X136660000Y-98726667D01*
X136612381Y-98631429D01*
X136612381Y-98440952D01*
X136660000Y-98345714D01*
X136707619Y-98298095D01*
X136802857Y-98250476D01*
X136850476Y-98250476D01*
X136945714Y-98298095D01*
X136993333Y-98345714D01*
X137040952Y-98440952D01*
X137040952Y-98631429D01*
X137088571Y-98726667D01*
X137136190Y-98774286D01*
X137231429Y-98821905D01*
X137421905Y-98821905D01*
X137517143Y-98774286D01*
X137564762Y-98726667D01*
X137612381Y-98631429D01*
X137612381Y-98440952D01*
X137564762Y-98345714D01*
X137517143Y-98298095D01*
X137421905Y-98250476D01*
X137231429Y-98250476D01*
X137136190Y-98298095D01*
X137088571Y-98345714D01*
X137040952Y-98440952D01*
X139597143Y-98512381D02*
X140263810Y-98512381D01*
X139835238Y-99512381D01*
X141073334Y-98845714D02*
X141073334Y-99512381D01*
X140835238Y-98464762D02*
X140597143Y-99179048D01*
X141216191Y-99179048D01*
X142073334Y-99512381D02*
X141597143Y-99512381D01*
X141597143Y-98512381D01*
X142359048Y-99464762D02*
X142501905Y-99512381D01*
X142740001Y-99512381D01*
X142835239Y-99464762D01*
X142882858Y-99417143D01*
X142930477Y-99321905D01*
X142930477Y-99226667D01*
X142882858Y-99131429D01*
X142835239Y-99083810D01*
X142740001Y-99036190D01*
X142549524Y-98988571D01*
X142454286Y-98940952D01*
X142406667Y-98893333D01*
X142359048Y-98798095D01*
X142359048Y-98702857D01*
X142406667Y-98607619D01*
X142454286Y-98560000D01*
X142549524Y-98512381D01*
X142787620Y-98512381D01*
X142930477Y-98560000D01*
X143263810Y-98512381D02*
X143882858Y-98512381D01*
X143549524Y-98893333D01*
X143692382Y-98893333D01*
X143787620Y-98940952D01*
X143835239Y-98988571D01*
X143882858Y-99083810D01*
X143882858Y-99321905D01*
X143835239Y-99417143D01*
X143787620Y-99464762D01*
X143692382Y-99512381D01*
X143406667Y-99512381D01*
X143311429Y-99464762D01*
X143263810Y-99417143D01*
X144263810Y-98607619D02*
X144311429Y-98560000D01*
X144406667Y-98512381D01*
X144644763Y-98512381D01*
X144740001Y-98560000D01*
X144787620Y-98607619D01*
X144835239Y-98702857D01*
X144835239Y-98798095D01*
X144787620Y-98940952D01*
X144216191Y-99512381D01*
X144835239Y-99512381D01*
X118618095Y-85177381D02*
X118618095Y-85986905D01*
X118665714Y-86082143D01*
X118713333Y-86129762D01*
X118808571Y-86177381D01*
X118999048Y-86177381D01*
X119094286Y-86129762D01*
X119141905Y-86082143D01*
X119189524Y-85986905D01*
X119189524Y-85177381D01*
X119713333Y-86177381D02*
X119903809Y-86177381D01*
X119999048Y-86129762D01*
X120046667Y-86082143D01*
X120141905Y-85939286D01*
X120189524Y-85748810D01*
X120189524Y-85367857D01*
X120141905Y-85272619D01*
X120094286Y-85225000D01*
X119999048Y-85177381D01*
X119808571Y-85177381D01*
X119713333Y-85225000D01*
X119665714Y-85272619D01*
X119618095Y-85367857D01*
X119618095Y-85605952D01*
X119665714Y-85701190D01*
X119713333Y-85748810D01*
X119808571Y-85796429D01*
X119999048Y-85796429D01*
X120094286Y-85748810D01*
X120141905Y-85701190D01*
X120189524Y-85605952D01*
X118832381Y-95717857D02*
X118832381Y-95051190D01*
X119832381Y-95479762D01*
X119165714Y-94241666D02*
X119832381Y-94241666D01*
X118784762Y-94479762D02*
X119499048Y-94717857D01*
X119499048Y-94098809D01*
X119832381Y-93717857D02*
X118832381Y-93717857D01*
X119308571Y-93717857D02*
X119308571Y-93146428D01*
X119832381Y-93146428D02*
X118832381Y-93146428D01*
X119737143Y-92098809D02*
X119784762Y-92146428D01*
X119832381Y-92289285D01*
X119832381Y-92384523D01*
X119784762Y-92527381D01*
X119689524Y-92622619D01*
X119594286Y-92670238D01*
X119403810Y-92717857D01*
X119260952Y-92717857D01*
X119070476Y-92670238D01*
X118975238Y-92622619D01*
X118880000Y-92527381D01*
X118832381Y-92384523D01*
X118832381Y-92289285D01*
X118880000Y-92146428D01*
X118927619Y-92098809D01*
X118832381Y-91813095D02*
X118832381Y-91241666D01*
X119832381Y-91527381D02*
X118832381Y-91527381D01*
X119832381Y-90384523D02*
X119832381Y-90955952D01*
X119832381Y-90670238D02*
X118832381Y-90670238D01*
X118975238Y-90765476D01*
X119070476Y-90860714D01*
X119118095Y-90955952D01*
X118832381Y-90051190D02*
X118832381Y-89432142D01*
X119213333Y-89765476D01*
X119213333Y-89622618D01*
X119260952Y-89527380D01*
X119308571Y-89479761D01*
X119403810Y-89432142D01*
X119641905Y-89432142D01*
X119737143Y-89479761D01*
X119784762Y-89527380D01*
X119832381Y-89622618D01*
X119832381Y-89908333D01*
X119784762Y-90003571D01*
X119737143Y-90051190D01*
X119260952Y-88860714D02*
X119213333Y-88955952D01*
X119165714Y-89003571D01*
X119070476Y-89051190D01*
X119022857Y-89051190D01*
X118927619Y-89003571D01*
X118880000Y-88955952D01*
X118832381Y-88860714D01*
X118832381Y-88670237D01*
X118880000Y-88574999D01*
X118927619Y-88527380D01*
X119022857Y-88479761D01*
X119070476Y-88479761D01*
X119165714Y-88527380D01*
X119213333Y-88574999D01*
X119260952Y-88670237D01*
X119260952Y-88860714D01*
X119308571Y-88955952D01*
X119356190Y-89003571D01*
X119451429Y-89051190D01*
X119641905Y-89051190D01*
X119737143Y-89003571D01*
X119784762Y-88955952D01*
X119832381Y-88860714D01*
X119832381Y-88670237D01*
X119784762Y-88574999D01*
X119737143Y-88527380D01*
X119641905Y-88479761D01*
X119451429Y-88479761D01*
X119356190Y-88527380D01*
X119308571Y-88574999D01*
X119260952Y-88670237D01*
X91900476Y-50252381D02*
X92567143Y-51252381D01*
X92567143Y-50252381D02*
X91900476Y-51252381D01*
X93471905Y-51252381D02*
X92900476Y-51252381D01*
X93186190Y-51252381D02*
X93186190Y-50252381D01*
X93090952Y-50395238D01*
X92995714Y-50490476D01*
X92900476Y-50538095D01*
X87400476Y-52157381D02*
X88019524Y-52157381D01*
X87686190Y-52538333D01*
X87829048Y-52538333D01*
X87924286Y-52585952D01*
X87971905Y-52633571D01*
X88019524Y-52728810D01*
X88019524Y-52966905D01*
X87971905Y-53062143D01*
X87924286Y-53109762D01*
X87829048Y-53157381D01*
X87543333Y-53157381D01*
X87448095Y-53109762D01*
X87400476Y-53062143D01*
X88448095Y-53062143D02*
X88495714Y-53109762D01*
X88448095Y-53157381D01*
X88400476Y-53109762D01*
X88448095Y-53062143D01*
X88448095Y-53157381D01*
X89400476Y-52157381D02*
X88924285Y-52157381D01*
X88876666Y-52633571D01*
X88924285Y-52585952D01*
X89019523Y-52538333D01*
X89257619Y-52538333D01*
X89352857Y-52585952D01*
X89400476Y-52633571D01*
X89448095Y-52728810D01*
X89448095Y-52966905D01*
X89400476Y-53062143D01*
X89352857Y-53109762D01*
X89257619Y-53157381D01*
X89019523Y-53157381D01*
X88924285Y-53109762D01*
X88876666Y-53062143D01*
X89781428Y-52157381D02*
X90448095Y-52157381D01*
X90019523Y-53157381D01*
X90876666Y-53157381D02*
X91067142Y-53157381D01*
X91162381Y-53109762D01*
X91210000Y-53062143D01*
X91305238Y-52919286D01*
X91352857Y-52728810D01*
X91352857Y-52347857D01*
X91305238Y-52252619D01*
X91257619Y-52205000D01*
X91162381Y-52157381D01*
X90971904Y-52157381D01*
X90876666Y-52205000D01*
X90829047Y-52252619D01*
X90781428Y-52347857D01*
X90781428Y-52585952D01*
X90829047Y-52681190D01*
X90876666Y-52728810D01*
X90971904Y-52776429D01*
X91162381Y-52776429D01*
X91257619Y-52728810D01*
X91305238Y-52681190D01*
X91352857Y-52585952D01*
X92257619Y-52157381D02*
X91781428Y-52157381D01*
X91733809Y-52633571D01*
X91781428Y-52585952D01*
X91876666Y-52538333D01*
X92114762Y-52538333D01*
X92210000Y-52585952D01*
X92257619Y-52633571D01*
X92305238Y-52728810D01*
X92305238Y-52966905D01*
X92257619Y-53062143D01*
X92210000Y-53109762D01*
X92114762Y-53157381D01*
X91876666Y-53157381D01*
X91781428Y-53109762D01*
X91733809Y-53062143D01*
X93162381Y-52490714D02*
X93162381Y-53157381D01*
X92924285Y-52109762D02*
X92686190Y-52824048D01*
X93305238Y-52824048D01*
X94162381Y-52157381D02*
X93686190Y-52157381D01*
X93638571Y-52633571D01*
X93686190Y-52585952D01*
X93781428Y-52538333D01*
X94019524Y-52538333D01*
X94114762Y-52585952D01*
X94162381Y-52633571D01*
X94210000Y-52728810D01*
X94210000Y-52966905D01*
X94162381Y-53062143D01*
X94114762Y-53109762D01*
X94019524Y-53157381D01*
X93781428Y-53157381D01*
X93686190Y-53109762D01*
X93638571Y-53062143D01*
X95400476Y-53157381D02*
X95400476Y-52157381D01*
X95733810Y-52871667D01*
X96067143Y-52157381D01*
X96067143Y-53157381D01*
X96543333Y-53157381D02*
X96543333Y-52157381D01*
X96543333Y-52633571D02*
X97114762Y-52633571D01*
X97114762Y-53157381D02*
X97114762Y-52157381D01*
X97495714Y-52490714D02*
X98019524Y-52490714D01*
X97495714Y-53157381D01*
X98019524Y-53157381D01*
X124491905Y-58507381D02*
X124491905Y-59316905D01*
X124539524Y-59412143D01*
X124587143Y-59459762D01*
X124682381Y-59507381D01*
X124872858Y-59507381D01*
X124968096Y-59459762D01*
X125015715Y-59412143D01*
X125063334Y-59316905D01*
X125063334Y-58507381D01*
X126063334Y-59507381D02*
X125491905Y-59507381D01*
X125777619Y-59507381D02*
X125777619Y-58507381D01*
X125682381Y-58650238D01*
X125587143Y-58745476D01*
X125491905Y-58793095D01*
X127015715Y-59507381D02*
X126444286Y-59507381D01*
X126730000Y-59507381D02*
X126730000Y-58507381D01*
X126634762Y-58650238D01*
X126539524Y-58745476D01*
X126444286Y-58793095D01*
X137668096Y-56015000D02*
X137572858Y-55967381D01*
X137430001Y-55967381D01*
X137287143Y-56015000D01*
X137191905Y-56110238D01*
X137144286Y-56205476D01*
X137096667Y-56395952D01*
X137096667Y-56538810D01*
X137144286Y-56729286D01*
X137191905Y-56824524D01*
X137287143Y-56919762D01*
X137430001Y-56967381D01*
X137525239Y-56967381D01*
X137668096Y-56919762D01*
X137715715Y-56872143D01*
X137715715Y-56538810D01*
X137525239Y-56538810D01*
X138144286Y-56967381D02*
X138144286Y-55967381D01*
X138715715Y-56967381D01*
X138715715Y-55967381D01*
X139191905Y-56967381D02*
X139191905Y-55967381D01*
X139430000Y-55967381D01*
X139572858Y-56015000D01*
X139668096Y-56110238D01*
X139715715Y-56205476D01*
X139763334Y-56395952D01*
X139763334Y-56538810D01*
X139715715Y-56729286D01*
X139668096Y-56824524D01*
X139572858Y-56919762D01*
X139430000Y-56967381D01*
X139191905Y-56967381D01*
X137668096Y-58555000D02*
X137572858Y-58507381D01*
X137430001Y-58507381D01*
X137287143Y-58555000D01*
X137191905Y-58650238D01*
X137144286Y-58745476D01*
X137096667Y-58935952D01*
X137096667Y-59078810D01*
X137144286Y-59269286D01*
X137191905Y-59364524D01*
X137287143Y-59459762D01*
X137430001Y-59507381D01*
X137525239Y-59507381D01*
X137668096Y-59459762D01*
X137715715Y-59412143D01*
X137715715Y-59078810D01*
X137525239Y-59078810D01*
X138144286Y-59507381D02*
X138144286Y-58507381D01*
X138715715Y-59507381D01*
X138715715Y-58507381D01*
X139191905Y-59507381D02*
X139191905Y-58507381D01*
X139430000Y-58507381D01*
X139572858Y-58555000D01*
X139668096Y-58650238D01*
X139715715Y-58745476D01*
X139763334Y-58935952D01*
X139763334Y-59078810D01*
X139715715Y-59269286D01*
X139668096Y-59364524D01*
X139572858Y-59459762D01*
X139430000Y-59507381D01*
X139191905Y-59507381D01*
X137168095Y-61761667D02*
X137644286Y-61761667D01*
X137072857Y-62047381D02*
X137406190Y-61047381D01*
X137739524Y-62047381D01*
X138072857Y-61047381D02*
X138072857Y-61856905D01*
X138120476Y-61952143D01*
X138168095Y-61999762D01*
X138263333Y-62047381D01*
X138453810Y-62047381D01*
X138549048Y-61999762D01*
X138596667Y-61952143D01*
X138644286Y-61856905D01*
X138644286Y-61047381D01*
X139120476Y-62047381D02*
X139120476Y-61047381D01*
X139358571Y-61047381D01*
X139501429Y-61095000D01*
X139596667Y-61190238D01*
X139644286Y-61285476D01*
X139691905Y-61475952D01*
X139691905Y-61618810D01*
X139644286Y-61809286D01*
X139596667Y-61904524D01*
X139501429Y-61999762D01*
X139358571Y-62047381D01*
X139120476Y-62047381D01*
X137358572Y-53427381D02*
X137691905Y-54427381D01*
X138025239Y-53427381D01*
X138358572Y-54427381D02*
X138358572Y-53427381D01*
X138834762Y-54427381D02*
X138834762Y-53427381D01*
X139072857Y-53427381D01*
X139215715Y-53475000D01*
X139310953Y-53570238D01*
X139358572Y-53665476D01*
X139406191Y-53855952D01*
X139406191Y-53998810D01*
X139358572Y-54189286D01*
X139310953Y-54284524D01*
X139215715Y-54379762D01*
X139072857Y-54427381D01*
X138834762Y-54427381D01*
X107958095Y-59221667D02*
X108434286Y-59221667D01*
X107862857Y-59507381D02*
X108196190Y-58507381D01*
X108529524Y-59507381D01*
X108862857Y-58507381D02*
X108862857Y-59316905D01*
X108910476Y-59412143D01*
X108958095Y-59459762D01*
X109053333Y-59507381D01*
X109243810Y-59507381D01*
X109339048Y-59459762D01*
X109386667Y-59412143D01*
X109434286Y-59316905D01*
X109434286Y-58507381D01*
X109910476Y-59507381D02*
X109910476Y-58507381D01*
X110148571Y-58507381D01*
X110291429Y-58555000D01*
X110386667Y-58650238D01*
X110434286Y-58745476D01*
X110481905Y-58935952D01*
X110481905Y-59078810D01*
X110434286Y-59269286D01*
X110386667Y-59364524D01*
X110291429Y-59459762D01*
X110148571Y-59507381D01*
X109910476Y-59507381D01*
X108148572Y-55967381D02*
X108481905Y-56967381D01*
X108815239Y-55967381D01*
X109148572Y-56967381D02*
X109148572Y-55967381D01*
X109624762Y-56967381D02*
X109624762Y-55967381D01*
X109862857Y-55967381D01*
X110005715Y-56015000D01*
X110100953Y-56110238D01*
X110148572Y-56205476D01*
X110196191Y-56395952D01*
X110196191Y-56538810D01*
X110148572Y-56729286D01*
X110100953Y-56824524D01*
X110005715Y-56919762D01*
X109862857Y-56967381D01*
X109624762Y-56967381D01*
X108458096Y-61095000D02*
X108362858Y-61047381D01*
X108220001Y-61047381D01*
X108077143Y-61095000D01*
X107981905Y-61190238D01*
X107934286Y-61285476D01*
X107886667Y-61475952D01*
X107886667Y-61618810D01*
X107934286Y-61809286D01*
X107981905Y-61904524D01*
X108077143Y-61999762D01*
X108220001Y-62047381D01*
X108315239Y-62047381D01*
X108458096Y-61999762D01*
X108505715Y-61952143D01*
X108505715Y-61618810D01*
X108315239Y-61618810D01*
X108934286Y-62047381D02*
X108934286Y-61047381D01*
X109505715Y-62047381D01*
X109505715Y-61047381D01*
X109981905Y-62047381D02*
X109981905Y-61047381D01*
X110220000Y-61047381D01*
X110362858Y-61095000D01*
X110458096Y-61190238D01*
X110505715Y-61285476D01*
X110553334Y-61475952D01*
X110553334Y-61618810D01*
X110505715Y-61809286D01*
X110458096Y-61904524D01*
X110362858Y-61999762D01*
X110220000Y-62047381D01*
X109981905Y-62047381D01*
X107886667Y-53427381D02*
X108220000Y-54427381D01*
X108553334Y-53427381D01*
X109458096Y-54332143D02*
X109410477Y-54379762D01*
X109267620Y-54427381D01*
X109172382Y-54427381D01*
X109029524Y-54379762D01*
X108934286Y-54284524D01*
X108886667Y-54189286D01*
X108839048Y-53998810D01*
X108839048Y-53855952D01*
X108886667Y-53665476D01*
X108934286Y-53570238D01*
X109029524Y-53475000D01*
X109172382Y-53427381D01*
X109267620Y-53427381D01*
X109410477Y-53475000D01*
X109458096Y-53522619D01*
X110458096Y-54332143D02*
X110410477Y-54379762D01*
X110267620Y-54427381D01*
X110172382Y-54427381D01*
X110029524Y-54379762D01*
X109934286Y-54284524D01*
X109886667Y-54189286D01*
X109839048Y-53998810D01*
X109839048Y-53855952D01*
X109886667Y-53665476D01*
X109934286Y-53570238D01*
X110029524Y-53475000D01*
X110172382Y-53427381D01*
X110267620Y-53427381D01*
X110410477Y-53475000D01*
X110458096Y-53522619D01*
X141819762Y-130687381D02*
X142153095Y-131687381D01*
X142486429Y-130687381D01*
X142819762Y-131687381D02*
X142819762Y-130687381D01*
X143057857Y-130687381D01*
X143200715Y-130735000D01*
X143295953Y-130830238D01*
X143343572Y-130925476D01*
X143391191Y-131115952D01*
X143391191Y-131258810D01*
X143343572Y-131449286D01*
X143295953Y-131544524D01*
X143200715Y-131639762D01*
X143057857Y-131687381D01*
X142819762Y-131687381D01*
X143819762Y-130687381D02*
X143819762Y-131496905D01*
X143867381Y-131592143D01*
X143915000Y-131639762D01*
X144010238Y-131687381D01*
X144200715Y-131687381D01*
X144295953Y-131639762D01*
X144343572Y-131592143D01*
X144391191Y-131496905D01*
X144391191Y-130687381D01*
X144629286Y-131782619D02*
X145391191Y-131782619D01*
X145962620Y-131163571D02*
X146105477Y-131211190D01*
X146153096Y-131258810D01*
X146200715Y-131354048D01*
X146200715Y-131496905D01*
X146153096Y-131592143D01*
X146105477Y-131639762D01*
X146010239Y-131687381D01*
X145629286Y-131687381D01*
X145629286Y-130687381D01*
X145962620Y-130687381D01*
X146057858Y-130735000D01*
X146105477Y-130782619D01*
X146153096Y-130877857D01*
X146153096Y-130973095D01*
X146105477Y-131068333D01*
X146057858Y-131115952D01*
X145962620Y-131163571D01*
X145629286Y-131163571D01*
X146581667Y-131401667D02*
X147057858Y-131401667D01*
X146486429Y-131687381D02*
X146819762Y-130687381D01*
X147153096Y-131687381D01*
X147438810Y-131639762D02*
X147581667Y-131687381D01*
X147819763Y-131687381D01*
X147915001Y-131639762D01*
X147962620Y-131592143D01*
X148010239Y-131496905D01*
X148010239Y-131401667D01*
X147962620Y-131306429D01*
X147915001Y-131258810D01*
X147819763Y-131211190D01*
X147629286Y-131163571D01*
X147534048Y-131115952D01*
X147486429Y-131068333D01*
X147438810Y-130973095D01*
X147438810Y-130877857D01*
X147486429Y-130782619D01*
X147534048Y-130735000D01*
X147629286Y-130687381D01*
X147867382Y-130687381D01*
X148010239Y-130735000D01*
X148438810Y-131163571D02*
X148772144Y-131163571D01*
X148915001Y-131687381D02*
X148438810Y-131687381D01*
X148438810Y-130687381D01*
X148915001Y-130687381D01*
X119253095Y-113117381D02*
X119253095Y-113926905D01*
X119300714Y-114022143D01*
X119348333Y-114069762D01*
X119443571Y-114117381D01*
X119634048Y-114117381D01*
X119729286Y-114069762D01*
X119776905Y-114022143D01*
X119824524Y-113926905D01*
X119824524Y-113117381D01*
X120205476Y-113117381D02*
X120824524Y-113117381D01*
X120491190Y-113498333D01*
X120634048Y-113498333D01*
X120729286Y-113545952D01*
X120776905Y-113593571D01*
X120824524Y-113688810D01*
X120824524Y-113926905D01*
X120776905Y-114022143D01*
X120729286Y-114069762D01*
X120634048Y-114117381D01*
X120348333Y-114117381D01*
X120253095Y-114069762D01*
X120205476Y-114022143D01*
X119467381Y-125674048D02*
X119467381Y-125007381D01*
X120467381Y-125435953D01*
X119800714Y-124197857D02*
X120467381Y-124197857D01*
X119419762Y-124435953D02*
X120134048Y-124674048D01*
X120134048Y-124055000D01*
X120467381Y-123197857D02*
X120467381Y-123674048D01*
X119467381Y-123674048D01*
X120419762Y-122912143D02*
X120467381Y-122769286D01*
X120467381Y-122531190D01*
X120419762Y-122435952D01*
X120372143Y-122388333D01*
X120276905Y-122340714D01*
X120181667Y-122340714D01*
X120086429Y-122388333D01*
X120038810Y-122435952D01*
X119991190Y-122531190D01*
X119943571Y-122721667D01*
X119895952Y-122816905D01*
X119848333Y-122864524D01*
X119753095Y-122912143D01*
X119657857Y-122912143D01*
X119562619Y-122864524D01*
X119515000Y-122816905D01*
X119467381Y-122721667D01*
X119467381Y-122483571D01*
X119515000Y-122340714D01*
X119562619Y-121959762D02*
X119515000Y-121912143D01*
X119467381Y-121816905D01*
X119467381Y-121578809D01*
X119515000Y-121483571D01*
X119562619Y-121435952D01*
X119657857Y-121388333D01*
X119753095Y-121388333D01*
X119895952Y-121435952D01*
X120467381Y-122007381D01*
X120467381Y-121388333D01*
X119800714Y-120531190D02*
X120467381Y-120531190D01*
X119419762Y-120769286D02*
X120134048Y-121007381D01*
X120134048Y-120388333D01*
X119800714Y-119578809D02*
X120467381Y-119578809D01*
X119419762Y-119816905D02*
X120134048Y-120055000D01*
X120134048Y-119435952D01*
X104013095Y-113117381D02*
X104013095Y-113926905D01*
X104060714Y-114022143D01*
X104108333Y-114069762D01*
X104203571Y-114117381D01*
X104394048Y-114117381D01*
X104489286Y-114069762D01*
X104536905Y-114022143D01*
X104584524Y-113926905D01*
X104584524Y-113117381D01*
X105489286Y-113450714D02*
X105489286Y-114117381D01*
X105251190Y-113069762D02*
X105013095Y-113784048D01*
X105632143Y-113784048D01*
X104227381Y-125674048D02*
X104227381Y-125007381D01*
X105227381Y-125435953D01*
X104560714Y-124197857D02*
X105227381Y-124197857D01*
X104179762Y-124435953D02*
X104894048Y-124674048D01*
X104894048Y-124055000D01*
X105227381Y-123197857D02*
X105227381Y-123674048D01*
X104227381Y-123674048D01*
X105179762Y-122912143D02*
X105227381Y-122769286D01*
X105227381Y-122531190D01*
X105179762Y-122435952D01*
X105132143Y-122388333D01*
X105036905Y-122340714D01*
X104941667Y-122340714D01*
X104846429Y-122388333D01*
X104798810Y-122435952D01*
X104751190Y-122531190D01*
X104703571Y-122721667D01*
X104655952Y-122816905D01*
X104608333Y-122864524D01*
X104513095Y-122912143D01*
X104417857Y-122912143D01*
X104322619Y-122864524D01*
X104275000Y-122816905D01*
X104227381Y-122721667D01*
X104227381Y-122483571D01*
X104275000Y-122340714D01*
X104322619Y-121959762D02*
X104275000Y-121912143D01*
X104227381Y-121816905D01*
X104227381Y-121578809D01*
X104275000Y-121483571D01*
X104322619Y-121435952D01*
X104417857Y-121388333D01*
X104513095Y-121388333D01*
X104655952Y-121435952D01*
X105227381Y-122007381D01*
X105227381Y-121388333D01*
X104560714Y-120531190D02*
X105227381Y-120531190D01*
X104179762Y-120769286D02*
X104894048Y-121007381D01*
X104894048Y-120388333D01*
X104560714Y-119578809D02*
X105227381Y-119578809D01*
X104179762Y-119816905D02*
X104894048Y-120055000D01*
X104894048Y-119435952D01*
X80518095Y-113117381D02*
X80518095Y-113926905D01*
X80565714Y-114022143D01*
X80613333Y-114069762D01*
X80708571Y-114117381D01*
X80899048Y-114117381D01*
X80994286Y-114069762D01*
X81041905Y-114022143D01*
X81089524Y-113926905D01*
X81089524Y-113117381D01*
X82041905Y-113117381D02*
X81565714Y-113117381D01*
X81518095Y-113593571D01*
X81565714Y-113545952D01*
X81660952Y-113498333D01*
X81899048Y-113498333D01*
X81994286Y-113545952D01*
X82041905Y-113593571D01*
X82089524Y-113688810D01*
X82089524Y-113926905D01*
X82041905Y-114022143D01*
X81994286Y-114069762D01*
X81899048Y-114117381D01*
X81660952Y-114117381D01*
X81565714Y-114069762D01*
X81518095Y-114022143D01*
X80732381Y-125674048D02*
X80732381Y-125007381D01*
X81732381Y-125435953D01*
X81065714Y-124197857D02*
X81732381Y-124197857D01*
X80684762Y-124435953D02*
X81399048Y-124674048D01*
X81399048Y-124055000D01*
X81732381Y-123197857D02*
X81732381Y-123674048D01*
X80732381Y-123674048D01*
X81684762Y-122912143D02*
X81732381Y-122769286D01*
X81732381Y-122531190D01*
X81684762Y-122435952D01*
X81637143Y-122388333D01*
X81541905Y-122340714D01*
X81446667Y-122340714D01*
X81351429Y-122388333D01*
X81303810Y-122435952D01*
X81256190Y-122531190D01*
X81208571Y-122721667D01*
X81160952Y-122816905D01*
X81113333Y-122864524D01*
X81018095Y-122912143D01*
X80922857Y-122912143D01*
X80827619Y-122864524D01*
X80780000Y-122816905D01*
X80732381Y-122721667D01*
X80732381Y-122483571D01*
X80780000Y-122340714D01*
X80827619Y-121959762D02*
X80780000Y-121912143D01*
X80732381Y-121816905D01*
X80732381Y-121578809D01*
X80780000Y-121483571D01*
X80827619Y-121435952D01*
X80922857Y-121388333D01*
X81018095Y-121388333D01*
X81160952Y-121435952D01*
X81732381Y-122007381D01*
X81732381Y-121388333D01*
X81065714Y-120531190D02*
X81732381Y-120531190D01*
X80684762Y-120769286D02*
X81399048Y-121007381D01*
X81399048Y-120388333D01*
X80732381Y-119531190D02*
X80732381Y-120007381D01*
X81208571Y-120055000D01*
X81160952Y-120007381D01*
X81113333Y-119912143D01*
X81113333Y-119674047D01*
X81160952Y-119578809D01*
X81208571Y-119531190D01*
X81303810Y-119483571D01*
X81541905Y-119483571D01*
X81637143Y-119531190D01*
X81684762Y-119578809D01*
X81732381Y-119674047D01*
X81732381Y-119912143D01*
X81684762Y-120007381D01*
X81637143Y-120055000D01*
X65278095Y-113117381D02*
X65278095Y-113926905D01*
X65325714Y-114022143D01*
X65373333Y-114069762D01*
X65468571Y-114117381D01*
X65659048Y-114117381D01*
X65754286Y-114069762D01*
X65801905Y-114022143D01*
X65849524Y-113926905D01*
X65849524Y-113117381D01*
X66754286Y-113117381D02*
X66563809Y-113117381D01*
X66468571Y-113165000D01*
X66420952Y-113212619D01*
X66325714Y-113355476D01*
X66278095Y-113545952D01*
X66278095Y-113926905D01*
X66325714Y-114022143D01*
X66373333Y-114069762D01*
X66468571Y-114117381D01*
X66659048Y-114117381D01*
X66754286Y-114069762D01*
X66801905Y-114022143D01*
X66849524Y-113926905D01*
X66849524Y-113688810D01*
X66801905Y-113593571D01*
X66754286Y-113545952D01*
X66659048Y-113498333D01*
X66468571Y-113498333D01*
X66373333Y-113545952D01*
X66325714Y-113593571D01*
X66278095Y-113688810D01*
X65492381Y-125674048D02*
X65492381Y-125007381D01*
X66492381Y-125435953D01*
X65825714Y-124197857D02*
X66492381Y-124197857D01*
X65444762Y-124435953D02*
X66159048Y-124674048D01*
X66159048Y-124055000D01*
X66492381Y-123197857D02*
X66492381Y-123674048D01*
X65492381Y-123674048D01*
X66444762Y-122912143D02*
X66492381Y-122769286D01*
X66492381Y-122531190D01*
X66444762Y-122435952D01*
X66397143Y-122388333D01*
X66301905Y-122340714D01*
X66206667Y-122340714D01*
X66111429Y-122388333D01*
X66063810Y-122435952D01*
X66016190Y-122531190D01*
X65968571Y-122721667D01*
X65920952Y-122816905D01*
X65873333Y-122864524D01*
X65778095Y-122912143D01*
X65682857Y-122912143D01*
X65587619Y-122864524D01*
X65540000Y-122816905D01*
X65492381Y-122721667D01*
X65492381Y-122483571D01*
X65540000Y-122340714D01*
X65492381Y-122007381D02*
X65492381Y-121388333D01*
X65873333Y-121721667D01*
X65873333Y-121578809D01*
X65920952Y-121483571D01*
X65968571Y-121435952D01*
X66063810Y-121388333D01*
X66301905Y-121388333D01*
X66397143Y-121435952D01*
X66444762Y-121483571D01*
X66492381Y-121578809D01*
X66492381Y-121864524D01*
X66444762Y-121959762D01*
X66397143Y-122007381D01*
X65492381Y-121055000D02*
X65492381Y-120388333D01*
X66492381Y-120816905D01*
X65825714Y-119578809D02*
X66492381Y-119578809D01*
X65444762Y-119816905D02*
X66159048Y-120055000D01*
X66159048Y-119435952D01*
X90281428Y-60412381D02*
X90471905Y-60412381D01*
X90567143Y-60460000D01*
X90662381Y-60555238D01*
X90710000Y-60745714D01*
X90710000Y-61079048D01*
X90662381Y-61269524D01*
X90567143Y-61364762D01*
X90471905Y-61412381D01*
X90281428Y-61412381D01*
X90186190Y-61364762D01*
X90090952Y-61269524D01*
X90043333Y-61079048D01*
X90043333Y-60745714D01*
X90090952Y-60555238D01*
X90186190Y-60460000D01*
X90281428Y-60412381D01*
X91090952Y-61364762D02*
X91233809Y-61412381D01*
X91471905Y-61412381D01*
X91567143Y-61364762D01*
X91614762Y-61317143D01*
X91662381Y-61221905D01*
X91662381Y-61126667D01*
X91614762Y-61031429D01*
X91567143Y-60983810D01*
X91471905Y-60936190D01*
X91281428Y-60888571D01*
X91186190Y-60840952D01*
X91138571Y-60793333D01*
X91090952Y-60698095D01*
X91090952Y-60602857D01*
X91138571Y-60507619D01*
X91186190Y-60460000D01*
X91281428Y-60412381D01*
X91519524Y-60412381D01*
X91662381Y-60460000D01*
X92662381Y-61317143D02*
X92614762Y-61364762D01*
X92471905Y-61412381D01*
X92376667Y-61412381D01*
X92233809Y-61364762D01*
X92138571Y-61269524D01*
X92090952Y-61174286D01*
X92043333Y-60983810D01*
X92043333Y-60840952D01*
X92090952Y-60650476D01*
X92138571Y-60555238D01*
X92233809Y-60460000D01*
X92376667Y-60412381D01*
X92471905Y-60412381D01*
X92614762Y-60460000D01*
X92662381Y-60507619D01*
X92852857Y-61507619D02*
X93614762Y-61507619D01*
X93852857Y-60888571D02*
X94186191Y-60888571D01*
X94329048Y-61412381D02*
X93852857Y-61412381D01*
X93852857Y-60412381D01*
X94329048Y-60412381D01*
X94757619Y-61412381D02*
X94757619Y-60412381D01*
X95329048Y-61412381D01*
X95329048Y-60412381D01*
X55427857Y-65762143D02*
X55380238Y-65809762D01*
X55237381Y-65857381D01*
X55142143Y-65857381D01*
X54999285Y-65809762D01*
X54904047Y-65714524D01*
X54856428Y-65619286D01*
X54808809Y-65428810D01*
X54808809Y-65285952D01*
X54856428Y-65095476D01*
X54904047Y-65000238D01*
X54999285Y-64905000D01*
X55142143Y-64857381D01*
X55237381Y-64857381D01*
X55380238Y-64905000D01*
X55427857Y-64952619D01*
X55808809Y-65809762D02*
X55951666Y-65857381D01*
X56189762Y-65857381D01*
X56285000Y-65809762D01*
X56332619Y-65762143D01*
X56380238Y-65666905D01*
X56380238Y-65571667D01*
X56332619Y-65476429D01*
X56285000Y-65428810D01*
X56189762Y-65381190D01*
X55999285Y-65333571D01*
X55904047Y-65285952D01*
X55856428Y-65238333D01*
X55808809Y-65143095D01*
X55808809Y-65047857D01*
X55856428Y-64952619D01*
X55904047Y-64905000D01*
X55999285Y-64857381D01*
X56237381Y-64857381D01*
X56380238Y-64905000D01*
X56761190Y-65809762D02*
X56904047Y-65857381D01*
X57142143Y-65857381D01*
X57237381Y-65809762D01*
X57285000Y-65762143D01*
X57332619Y-65666905D01*
X57332619Y-65571667D01*
X57285000Y-65476429D01*
X57237381Y-65428810D01*
X57142143Y-65381190D01*
X56951666Y-65333571D01*
X56856428Y-65285952D01*
X56808809Y-65238333D01*
X56761190Y-65143095D01*
X56761190Y-65047857D01*
X56808809Y-64952619D01*
X56856428Y-64905000D01*
X56951666Y-64857381D01*
X57189762Y-64857381D01*
X57332619Y-64905000D01*
X57523095Y-65952619D02*
X58285000Y-65952619D01*
X58475476Y-65809762D02*
X58618333Y-65857381D01*
X58856429Y-65857381D01*
X58951667Y-65809762D01*
X58999286Y-65762143D01*
X59046905Y-65666905D01*
X59046905Y-65571667D01*
X58999286Y-65476429D01*
X58951667Y-65428810D01*
X58856429Y-65381190D01*
X58665952Y-65333571D01*
X58570714Y-65285952D01*
X58523095Y-65238333D01*
X58475476Y-65143095D01*
X58475476Y-65047857D01*
X58523095Y-64952619D01*
X58570714Y-64905000D01*
X58665952Y-64857381D01*
X58904048Y-64857381D01*
X59046905Y-64905000D01*
X59475476Y-65333571D02*
X59808810Y-65333571D01*
X59951667Y-65857381D02*
X59475476Y-65857381D01*
X59475476Y-64857381D01*
X59951667Y-64857381D01*
X60856429Y-65857381D02*
X60380238Y-65857381D01*
X60380238Y-64857381D01*
X55118333Y-53157381D02*
X55118333Y-52157381D01*
X55594523Y-53157381D02*
X55594523Y-52157381D01*
X56165952Y-53157381D01*
X56165952Y-52157381D01*
X56499285Y-52157381D02*
X56832618Y-53157381D01*
X57165952Y-52157381D01*
X57261190Y-53252619D02*
X58023095Y-53252619D01*
X58213571Y-53109762D02*
X58356428Y-53157381D01*
X58594524Y-53157381D01*
X58689762Y-53109762D01*
X58737381Y-53062143D01*
X58785000Y-52966905D01*
X58785000Y-52871667D01*
X58737381Y-52776429D01*
X58689762Y-52728810D01*
X58594524Y-52681190D01*
X58404047Y-52633571D01*
X58308809Y-52585952D01*
X58261190Y-52538333D01*
X58213571Y-52443095D01*
X58213571Y-52347857D01*
X58261190Y-52252619D01*
X58308809Y-52205000D01*
X58404047Y-52157381D01*
X58642143Y-52157381D01*
X58785000Y-52205000D01*
X59213571Y-52633571D02*
X59546905Y-52633571D01*
X59689762Y-53157381D02*
X59213571Y-53157381D01*
X59213571Y-52157381D01*
X59689762Y-52157381D01*
X60594524Y-53157381D02*
X60118333Y-53157381D01*
X60118333Y-52157381D01*
X136612381Y-88233095D02*
X137421905Y-88233095D01*
X137517143Y-88185476D01*
X137564762Y-88137857D01*
X137612381Y-88042619D01*
X137612381Y-87852142D01*
X137564762Y-87756904D01*
X137517143Y-87709285D01*
X137421905Y-87661666D01*
X136612381Y-87661666D01*
X137612381Y-86661666D02*
X137612381Y-87233095D01*
X137612381Y-86947381D02*
X136612381Y-86947381D01*
X136755238Y-87042619D01*
X136850476Y-87137857D01*
X136898095Y-87233095D01*
X136612381Y-86042619D02*
X136612381Y-85947380D01*
X136660000Y-85852142D01*
X136707619Y-85804523D01*
X136802857Y-85756904D01*
X136993333Y-85709285D01*
X137231429Y-85709285D01*
X137421905Y-85756904D01*
X137517143Y-85804523D01*
X137564762Y-85852142D01*
X137612381Y-85947380D01*
X137612381Y-86042619D01*
X137564762Y-86137857D01*
X137517143Y-86185476D01*
X137421905Y-86233095D01*
X137231429Y-86280714D01*
X136993333Y-86280714D01*
X136802857Y-86233095D01*
X136707619Y-86185476D01*
X136660000Y-86137857D01*
X136612381Y-86042619D01*
X139597143Y-86447381D02*
X140263810Y-86447381D01*
X139835238Y-87447381D01*
X141073334Y-86780714D02*
X141073334Y-87447381D01*
X140835238Y-86399762D02*
X140597143Y-87114048D01*
X141216191Y-87114048D01*
X142073334Y-87447381D02*
X141597143Y-87447381D01*
X141597143Y-86447381D01*
X142359048Y-87399762D02*
X142501905Y-87447381D01*
X142740001Y-87447381D01*
X142835239Y-87399762D01*
X142882858Y-87352143D01*
X142930477Y-87256905D01*
X142930477Y-87161667D01*
X142882858Y-87066429D01*
X142835239Y-87018810D01*
X142740001Y-86971190D01*
X142549524Y-86923571D01*
X142454286Y-86875952D01*
X142406667Y-86828333D01*
X142359048Y-86733095D01*
X142359048Y-86637857D01*
X142406667Y-86542619D01*
X142454286Y-86495000D01*
X142549524Y-86447381D01*
X142787620Y-86447381D01*
X142930477Y-86495000D01*
X143549524Y-86447381D02*
X143644763Y-86447381D01*
X143740001Y-86495000D01*
X143787620Y-86542619D01*
X143835239Y-86637857D01*
X143882858Y-86828333D01*
X143882858Y-87066429D01*
X143835239Y-87256905D01*
X143787620Y-87352143D01*
X143740001Y-87399762D01*
X143644763Y-87447381D01*
X143549524Y-87447381D01*
X143454286Y-87399762D01*
X143406667Y-87352143D01*
X143359048Y-87256905D01*
X143311429Y-87066429D01*
X143311429Y-86828333D01*
X143359048Y-86637857D01*
X143406667Y-86542619D01*
X143454286Y-86495000D01*
X143549524Y-86447381D01*
X144454286Y-86875952D02*
X144359048Y-86828333D01*
X144311429Y-86780714D01*
X144263810Y-86685476D01*
X144263810Y-86637857D01*
X144311429Y-86542619D01*
X144359048Y-86495000D01*
X144454286Y-86447381D01*
X144644763Y-86447381D01*
X144740001Y-86495000D01*
X144787620Y-86542619D01*
X144835239Y-86637857D01*
X144835239Y-86685476D01*
X144787620Y-86780714D01*
X144740001Y-86828333D01*
X144644763Y-86875952D01*
X144454286Y-86875952D01*
X144359048Y-86923571D01*
X144311429Y-86971190D01*
X144263810Y-87066429D01*
X144263810Y-87256905D01*
X144311429Y-87352143D01*
X144359048Y-87399762D01*
X144454286Y-87447381D01*
X144644763Y-87447381D01*
X144740001Y-87399762D01*
X144787620Y-87352143D01*
X144835239Y-87256905D01*
X144835239Y-87066429D01*
X144787620Y-86971190D01*
X144740001Y-86923571D01*
X144644763Y-86875952D01*
X128992381Y-76168095D02*
X129801905Y-76168095D01*
X129897143Y-76120476D01*
X129944762Y-76072857D01*
X129992381Y-75977619D01*
X129992381Y-75787142D01*
X129944762Y-75691904D01*
X129897143Y-75644285D01*
X129801905Y-75596666D01*
X128992381Y-75596666D01*
X129992381Y-74596666D02*
X129992381Y-75168095D01*
X129992381Y-74882381D02*
X128992381Y-74882381D01*
X129135238Y-74977619D01*
X129230476Y-75072857D01*
X129278095Y-75168095D01*
X129087619Y-74215714D02*
X129040000Y-74168095D01*
X128992381Y-74072857D01*
X128992381Y-73834761D01*
X129040000Y-73739523D01*
X129087619Y-73691904D01*
X129182857Y-73644285D01*
X129278095Y-73644285D01*
X129420952Y-73691904D01*
X129992381Y-74263333D01*
X129992381Y-73644285D01*
X135310952Y-74382381D02*
X135977619Y-74382381D01*
X135549047Y-75382381D01*
X136787143Y-74715714D02*
X136787143Y-75382381D01*
X136549047Y-74334762D02*
X136310952Y-75049048D01*
X136930000Y-75049048D01*
X137787143Y-75382381D02*
X137310952Y-75382381D01*
X137310952Y-74382381D01*
X138072857Y-75334762D02*
X138215714Y-75382381D01*
X138453810Y-75382381D01*
X138549048Y-75334762D01*
X138596667Y-75287143D01*
X138644286Y-75191905D01*
X138644286Y-75096667D01*
X138596667Y-75001429D01*
X138549048Y-74953810D01*
X138453810Y-74906190D01*
X138263333Y-74858571D01*
X138168095Y-74810952D01*
X138120476Y-74763333D01*
X138072857Y-74668095D01*
X138072857Y-74572857D01*
X138120476Y-74477619D01*
X138168095Y-74430000D01*
X138263333Y-74382381D01*
X138501429Y-74382381D01*
X138644286Y-74430000D01*
X138977619Y-74382381D02*
X139596667Y-74382381D01*
X139263333Y-74763333D01*
X139406191Y-74763333D01*
X139501429Y-74810952D01*
X139549048Y-74858571D01*
X139596667Y-74953810D01*
X139596667Y-75191905D01*
X139549048Y-75287143D01*
X139501429Y-75334762D01*
X139406191Y-75382381D01*
X139120476Y-75382381D01*
X139025238Y-75334762D01*
X138977619Y-75287143D01*
X139930000Y-74382381D02*
X140596667Y-74382381D01*
X140168095Y-75382381D01*
X141406191Y-74715714D02*
X141406191Y-75382381D01*
X141168095Y-74334762D02*
X140930000Y-75049048D01*
X141549048Y-75049048D01*
M02*
