G04 #@! TF.FileFunction,Legend,Bot*
%FSLAX46Y46*%
G04 Gerber Fmt 4.6, Leading zero omitted, Abs format (unit mm)*
G04 Created by KiCad (PCBNEW 4.0.7) date 02/14/19 14:28:20*
%MOMM*%
%LPD*%
G01*
G04 APERTURE LIST*
%ADD10C,0.100000*%
%ADD11C,0.200000*%
%ADD12C,0.250000*%
%ADD13C,0.300000*%
%ADD14C,0.120000*%
%ADD15C,0.150000*%
G04 APERTURE END LIST*
D10*
D11*
X135255000Y-127635000D02*
X137795000Y-127635000D01*
X135255000Y-117475000D02*
X137795000Y-117475000D01*
X156210000Y-122555000D02*
X158750000Y-122555000D01*
D12*
X140898571Y-125079286D02*
X140946190Y-125222143D01*
X140993810Y-125269762D01*
X141089048Y-125317381D01*
X141231905Y-125317381D01*
X141327143Y-125269762D01*
X141374762Y-125222143D01*
X141422381Y-125126905D01*
X141422381Y-124745952D01*
X140422381Y-124745952D01*
X140422381Y-125079286D01*
X140470000Y-125174524D01*
X140517619Y-125222143D01*
X140612857Y-125269762D01*
X140708095Y-125269762D01*
X140803333Y-125222143D01*
X140850952Y-125174524D01*
X140898571Y-125079286D01*
X140898571Y-124745952D01*
X141136667Y-125698333D02*
X141136667Y-126174524D01*
X141422381Y-125603095D02*
X140422381Y-125936428D01*
X141422381Y-126269762D01*
X141374762Y-126555476D02*
X141422381Y-126698333D01*
X141422381Y-126936429D01*
X141374762Y-127031667D01*
X141327143Y-127079286D01*
X141231905Y-127126905D01*
X141136667Y-127126905D01*
X141041429Y-127079286D01*
X140993810Y-127031667D01*
X140946190Y-126936429D01*
X140898571Y-126745952D01*
X140850952Y-126650714D01*
X140803333Y-126603095D01*
X140708095Y-126555476D01*
X140612857Y-126555476D01*
X140517619Y-126603095D01*
X140470000Y-126650714D01*
X140422381Y-126745952D01*
X140422381Y-126984048D01*
X140470000Y-127126905D01*
X140898571Y-127555476D02*
X140898571Y-127888810D01*
X141422381Y-128031667D02*
X141422381Y-127555476D01*
X140422381Y-127555476D01*
X140422381Y-128031667D01*
D11*
X139700000Y-136525000D02*
X139700000Y-116205000D01*
X160020000Y-136525000D02*
X139700000Y-136525000D01*
X160020000Y-116205000D02*
X160020000Y-136525000D01*
X139700000Y-116205000D02*
X160020000Y-116205000D01*
X119380000Y-126365000D02*
X139065000Y-126365000D01*
X118745000Y-136525000D02*
X118745000Y-116205000D01*
X139065000Y-136525000D02*
X118745000Y-136525000D01*
X139065000Y-116205000D02*
X139065000Y-136525000D01*
X118745000Y-116205000D02*
X139065000Y-116205000D01*
D10*
X128714286Y-135578810D02*
X128600000Y-135616905D01*
X128409524Y-135616905D01*
X128333334Y-135578810D01*
X128295238Y-135540714D01*
X128257143Y-135464524D01*
X128257143Y-135388333D01*
X128295238Y-135312143D01*
X128333334Y-135274048D01*
X128409524Y-135235952D01*
X128561905Y-135197857D01*
X128638096Y-135159762D01*
X128676191Y-135121667D01*
X128714286Y-135045476D01*
X128714286Y-134969286D01*
X128676191Y-134893095D01*
X128638096Y-134855000D01*
X128561905Y-134816905D01*
X128371429Y-134816905D01*
X128257143Y-134855000D01*
X128485715Y-134702619D02*
X128485715Y-135731190D01*
X127990476Y-135616905D02*
X127571429Y-135083571D01*
X127990476Y-135083571D02*
X127571429Y-135616905D01*
X126809524Y-135540714D02*
X126847619Y-135578810D01*
X126961905Y-135616905D01*
X127038095Y-135616905D01*
X127152381Y-135578810D01*
X127228572Y-135502619D01*
X127266667Y-135426429D01*
X127304762Y-135274048D01*
X127304762Y-135159762D01*
X127266667Y-135007381D01*
X127228572Y-134931190D01*
X127152381Y-134855000D01*
X127038095Y-134816905D01*
X126961905Y-134816905D01*
X126847619Y-134855000D01*
X126809524Y-134893095D01*
X126314286Y-134816905D02*
X126238095Y-134816905D01*
X126161905Y-134855000D01*
X126123810Y-134893095D01*
X126085714Y-134969286D01*
X126047619Y-135121667D01*
X126047619Y-135312143D01*
X126085714Y-135464524D01*
X126123810Y-135540714D01*
X126161905Y-135578810D01*
X126238095Y-135616905D01*
X126314286Y-135616905D01*
X126390476Y-135578810D01*
X126428572Y-135540714D01*
X126466667Y-135464524D01*
X126504762Y-135312143D01*
X126504762Y-135121667D01*
X126466667Y-134969286D01*
X126428572Y-134893095D01*
X126390476Y-134855000D01*
X126314286Y-134816905D01*
X125552381Y-134816905D02*
X125476190Y-134816905D01*
X125400000Y-134855000D01*
X125361905Y-134893095D01*
X125323809Y-134969286D01*
X125285714Y-135121667D01*
X125285714Y-135312143D01*
X125323809Y-135464524D01*
X125361905Y-135540714D01*
X125400000Y-135578810D01*
X125476190Y-135616905D01*
X125552381Y-135616905D01*
X125628571Y-135578810D01*
X125666667Y-135540714D01*
X125704762Y-135464524D01*
X125742857Y-135312143D01*
X125742857Y-135121667D01*
X125704762Y-134969286D01*
X125666667Y-134893095D01*
X125628571Y-134855000D01*
X125552381Y-134816905D01*
X128695238Y-133038810D02*
X128580952Y-133076905D01*
X128390476Y-133076905D01*
X128314286Y-133038810D01*
X128276190Y-133000714D01*
X128238095Y-132924524D01*
X128238095Y-132848333D01*
X128276190Y-132772143D01*
X128314286Y-132734048D01*
X128390476Y-132695952D01*
X128542857Y-132657857D01*
X128619048Y-132619762D01*
X128657143Y-132581667D01*
X128695238Y-132505476D01*
X128695238Y-132429286D01*
X128657143Y-132353095D01*
X128619048Y-132315000D01*
X128542857Y-132276905D01*
X128352381Y-132276905D01*
X128238095Y-132315000D01*
X128466667Y-132162619D02*
X128466667Y-133191190D01*
X127971428Y-133076905D02*
X127552381Y-132543571D01*
X127971428Y-132543571D02*
X127552381Y-133076905D01*
X127133333Y-132619762D02*
X127209524Y-132581667D01*
X127247619Y-132543571D01*
X127285714Y-132467381D01*
X127285714Y-132429286D01*
X127247619Y-132353095D01*
X127209524Y-132315000D01*
X127133333Y-132276905D01*
X126980952Y-132276905D01*
X126904762Y-132315000D01*
X126866666Y-132353095D01*
X126828571Y-132429286D01*
X126828571Y-132467381D01*
X126866666Y-132543571D01*
X126904762Y-132581667D01*
X126980952Y-132619762D01*
X127133333Y-132619762D01*
X127209524Y-132657857D01*
X127247619Y-132695952D01*
X127285714Y-132772143D01*
X127285714Y-132924524D01*
X127247619Y-133000714D01*
X127209524Y-133038810D01*
X127133333Y-133076905D01*
X126980952Y-133076905D01*
X126904762Y-133038810D01*
X126866666Y-133000714D01*
X126828571Y-132924524D01*
X126828571Y-132772143D01*
X126866666Y-132695952D01*
X126904762Y-132657857D01*
X126980952Y-132619762D01*
X126333333Y-132276905D02*
X126257142Y-132276905D01*
X126180952Y-132315000D01*
X126142857Y-132353095D01*
X126104761Y-132429286D01*
X126066666Y-132581667D01*
X126066666Y-132772143D01*
X126104761Y-132924524D01*
X126142857Y-133000714D01*
X126180952Y-133038810D01*
X126257142Y-133076905D01*
X126333333Y-133076905D01*
X126409523Y-133038810D01*
X126447619Y-133000714D01*
X126485714Y-132924524D01*
X126523809Y-132772143D01*
X126523809Y-132581667D01*
X126485714Y-132429286D01*
X126447619Y-132353095D01*
X126409523Y-132315000D01*
X126333333Y-132276905D01*
X125571428Y-132276905D02*
X125495237Y-132276905D01*
X125419047Y-132315000D01*
X125380952Y-132353095D01*
X125342856Y-132429286D01*
X125304761Y-132581667D01*
X125304761Y-132772143D01*
X125342856Y-132924524D01*
X125380952Y-133000714D01*
X125419047Y-133038810D01*
X125495237Y-133076905D01*
X125571428Y-133076905D01*
X125647618Y-133038810D01*
X125685714Y-133000714D01*
X125723809Y-132924524D01*
X125761904Y-132772143D01*
X125761904Y-132581667D01*
X125723809Y-132429286D01*
X125685714Y-132353095D01*
X125647618Y-132315000D01*
X125571428Y-132276905D01*
X128695238Y-130498810D02*
X128580952Y-130536905D01*
X128390476Y-130536905D01*
X128314286Y-130498810D01*
X128276190Y-130460714D01*
X128238095Y-130384524D01*
X128238095Y-130308333D01*
X128276190Y-130232143D01*
X128314286Y-130194048D01*
X128390476Y-130155952D01*
X128542857Y-130117857D01*
X128619048Y-130079762D01*
X128657143Y-130041667D01*
X128695238Y-129965476D01*
X128695238Y-129889286D01*
X128657143Y-129813095D01*
X128619048Y-129775000D01*
X128542857Y-129736905D01*
X128352381Y-129736905D01*
X128238095Y-129775000D01*
X128466667Y-129622619D02*
X128466667Y-130651190D01*
X127971428Y-130536905D02*
X127552381Y-130003571D01*
X127971428Y-130003571D02*
X127552381Y-130536905D01*
X126904762Y-130003571D02*
X126904762Y-130536905D01*
X127095238Y-129698810D02*
X127285714Y-130270238D01*
X126790476Y-130270238D01*
X126333333Y-129736905D02*
X126257142Y-129736905D01*
X126180952Y-129775000D01*
X126142857Y-129813095D01*
X126104761Y-129889286D01*
X126066666Y-130041667D01*
X126066666Y-130232143D01*
X126104761Y-130384524D01*
X126142857Y-130460714D01*
X126180952Y-130498810D01*
X126257142Y-130536905D01*
X126333333Y-130536905D01*
X126409523Y-130498810D01*
X126447619Y-130460714D01*
X126485714Y-130384524D01*
X126523809Y-130232143D01*
X126523809Y-130041667D01*
X126485714Y-129889286D01*
X126447619Y-129813095D01*
X126409523Y-129775000D01*
X126333333Y-129736905D01*
X125571428Y-129736905D02*
X125495237Y-129736905D01*
X125419047Y-129775000D01*
X125380952Y-129813095D01*
X125342856Y-129889286D01*
X125304761Y-130041667D01*
X125304761Y-130232143D01*
X125342856Y-130384524D01*
X125380952Y-130460714D01*
X125419047Y-130498810D01*
X125495237Y-130536905D01*
X125571428Y-130536905D01*
X125647618Y-130498810D01*
X125685714Y-130460714D01*
X125723809Y-130384524D01*
X125761904Y-130232143D01*
X125761904Y-130041667D01*
X125723809Y-129889286D01*
X125685714Y-129813095D01*
X125647618Y-129775000D01*
X125571428Y-129736905D01*
X128714286Y-125418810D02*
X128600000Y-125456905D01*
X128409524Y-125456905D01*
X128333334Y-125418810D01*
X128295238Y-125380714D01*
X128257143Y-125304524D01*
X128257143Y-125228333D01*
X128295238Y-125152143D01*
X128333334Y-125114048D01*
X128409524Y-125075952D01*
X128561905Y-125037857D01*
X128638096Y-124999762D01*
X128676191Y-124961667D01*
X128714286Y-124885476D01*
X128714286Y-124809286D01*
X128676191Y-124733095D01*
X128638096Y-124695000D01*
X128561905Y-124656905D01*
X128371429Y-124656905D01*
X128257143Y-124695000D01*
X128485715Y-124542619D02*
X128485715Y-125571190D01*
X127990476Y-125456905D02*
X127571429Y-124923571D01*
X127990476Y-124923571D02*
X127571429Y-125456905D01*
X126809524Y-125380714D02*
X126847619Y-125418810D01*
X126961905Y-125456905D01*
X127038095Y-125456905D01*
X127152381Y-125418810D01*
X127228572Y-125342619D01*
X127266667Y-125266429D01*
X127304762Y-125114048D01*
X127304762Y-124999762D01*
X127266667Y-124847381D01*
X127228572Y-124771190D01*
X127152381Y-124695000D01*
X127038095Y-124656905D01*
X126961905Y-124656905D01*
X126847619Y-124695000D01*
X126809524Y-124733095D01*
X126314286Y-124656905D02*
X126238095Y-124656905D01*
X126161905Y-124695000D01*
X126123810Y-124733095D01*
X126085714Y-124809286D01*
X126047619Y-124961667D01*
X126047619Y-125152143D01*
X126085714Y-125304524D01*
X126123810Y-125380714D01*
X126161905Y-125418810D01*
X126238095Y-125456905D01*
X126314286Y-125456905D01*
X126390476Y-125418810D01*
X126428572Y-125380714D01*
X126466667Y-125304524D01*
X126504762Y-125152143D01*
X126504762Y-124961667D01*
X126466667Y-124809286D01*
X126428572Y-124733095D01*
X126390476Y-124695000D01*
X126314286Y-124656905D01*
X125552381Y-124656905D02*
X125476190Y-124656905D01*
X125400000Y-124695000D01*
X125361905Y-124733095D01*
X125323809Y-124809286D01*
X125285714Y-124961667D01*
X125285714Y-125152143D01*
X125323809Y-125304524D01*
X125361905Y-125380714D01*
X125400000Y-125418810D01*
X125476190Y-125456905D01*
X125552381Y-125456905D01*
X125628571Y-125418810D01*
X125666667Y-125380714D01*
X125704762Y-125304524D01*
X125742857Y-125152143D01*
X125742857Y-124961667D01*
X125704762Y-124809286D01*
X125666667Y-124733095D01*
X125628571Y-124695000D01*
X125552381Y-124656905D01*
X128695238Y-122878810D02*
X128580952Y-122916905D01*
X128390476Y-122916905D01*
X128314286Y-122878810D01*
X128276190Y-122840714D01*
X128238095Y-122764524D01*
X128238095Y-122688333D01*
X128276190Y-122612143D01*
X128314286Y-122574048D01*
X128390476Y-122535952D01*
X128542857Y-122497857D01*
X128619048Y-122459762D01*
X128657143Y-122421667D01*
X128695238Y-122345476D01*
X128695238Y-122269286D01*
X128657143Y-122193095D01*
X128619048Y-122155000D01*
X128542857Y-122116905D01*
X128352381Y-122116905D01*
X128238095Y-122155000D01*
X128466667Y-122002619D02*
X128466667Y-123031190D01*
X127971428Y-122916905D02*
X127552381Y-122383571D01*
X127971428Y-122383571D02*
X127552381Y-122916905D01*
X127133333Y-122459762D02*
X127209524Y-122421667D01*
X127247619Y-122383571D01*
X127285714Y-122307381D01*
X127285714Y-122269286D01*
X127247619Y-122193095D01*
X127209524Y-122155000D01*
X127133333Y-122116905D01*
X126980952Y-122116905D01*
X126904762Y-122155000D01*
X126866666Y-122193095D01*
X126828571Y-122269286D01*
X126828571Y-122307381D01*
X126866666Y-122383571D01*
X126904762Y-122421667D01*
X126980952Y-122459762D01*
X127133333Y-122459762D01*
X127209524Y-122497857D01*
X127247619Y-122535952D01*
X127285714Y-122612143D01*
X127285714Y-122764524D01*
X127247619Y-122840714D01*
X127209524Y-122878810D01*
X127133333Y-122916905D01*
X126980952Y-122916905D01*
X126904762Y-122878810D01*
X126866666Y-122840714D01*
X126828571Y-122764524D01*
X126828571Y-122612143D01*
X126866666Y-122535952D01*
X126904762Y-122497857D01*
X126980952Y-122459762D01*
X126333333Y-122116905D02*
X126257142Y-122116905D01*
X126180952Y-122155000D01*
X126142857Y-122193095D01*
X126104761Y-122269286D01*
X126066666Y-122421667D01*
X126066666Y-122612143D01*
X126104761Y-122764524D01*
X126142857Y-122840714D01*
X126180952Y-122878810D01*
X126257142Y-122916905D01*
X126333333Y-122916905D01*
X126409523Y-122878810D01*
X126447619Y-122840714D01*
X126485714Y-122764524D01*
X126523809Y-122612143D01*
X126523809Y-122421667D01*
X126485714Y-122269286D01*
X126447619Y-122193095D01*
X126409523Y-122155000D01*
X126333333Y-122116905D01*
X125571428Y-122116905D02*
X125495237Y-122116905D01*
X125419047Y-122155000D01*
X125380952Y-122193095D01*
X125342856Y-122269286D01*
X125304761Y-122421667D01*
X125304761Y-122612143D01*
X125342856Y-122764524D01*
X125380952Y-122840714D01*
X125419047Y-122878810D01*
X125495237Y-122916905D01*
X125571428Y-122916905D01*
X125647618Y-122878810D01*
X125685714Y-122840714D01*
X125723809Y-122764524D01*
X125761904Y-122612143D01*
X125761904Y-122421667D01*
X125723809Y-122269286D01*
X125685714Y-122193095D01*
X125647618Y-122155000D01*
X125571428Y-122116905D01*
X128695238Y-120338810D02*
X128580952Y-120376905D01*
X128390476Y-120376905D01*
X128314286Y-120338810D01*
X128276190Y-120300714D01*
X128238095Y-120224524D01*
X128238095Y-120148333D01*
X128276190Y-120072143D01*
X128314286Y-120034048D01*
X128390476Y-119995952D01*
X128542857Y-119957857D01*
X128619048Y-119919762D01*
X128657143Y-119881667D01*
X128695238Y-119805476D01*
X128695238Y-119729286D01*
X128657143Y-119653095D01*
X128619048Y-119615000D01*
X128542857Y-119576905D01*
X128352381Y-119576905D01*
X128238095Y-119615000D01*
X128466667Y-119462619D02*
X128466667Y-120491190D01*
X127971428Y-120376905D02*
X127552381Y-119843571D01*
X127971428Y-119843571D02*
X127552381Y-120376905D01*
X126904762Y-119843571D02*
X126904762Y-120376905D01*
X127095238Y-119538810D02*
X127285714Y-120110238D01*
X126790476Y-120110238D01*
X126333333Y-119576905D02*
X126257142Y-119576905D01*
X126180952Y-119615000D01*
X126142857Y-119653095D01*
X126104761Y-119729286D01*
X126066666Y-119881667D01*
X126066666Y-120072143D01*
X126104761Y-120224524D01*
X126142857Y-120300714D01*
X126180952Y-120338810D01*
X126257142Y-120376905D01*
X126333333Y-120376905D01*
X126409523Y-120338810D01*
X126447619Y-120300714D01*
X126485714Y-120224524D01*
X126523809Y-120072143D01*
X126523809Y-119881667D01*
X126485714Y-119729286D01*
X126447619Y-119653095D01*
X126409523Y-119615000D01*
X126333333Y-119576905D01*
X125571428Y-119576905D02*
X125495237Y-119576905D01*
X125419047Y-119615000D01*
X125380952Y-119653095D01*
X125342856Y-119729286D01*
X125304761Y-119881667D01*
X125304761Y-120072143D01*
X125342856Y-120224524D01*
X125380952Y-120300714D01*
X125419047Y-120338810D01*
X125495237Y-120376905D01*
X125571428Y-120376905D01*
X125647618Y-120338810D01*
X125685714Y-120300714D01*
X125723809Y-120224524D01*
X125761904Y-120072143D01*
X125761904Y-119881667D01*
X125723809Y-119729286D01*
X125685714Y-119653095D01*
X125647618Y-119615000D01*
X125571428Y-119576905D01*
X128695238Y-127958810D02*
X128580952Y-127996905D01*
X128390476Y-127996905D01*
X128314286Y-127958810D01*
X128276190Y-127920714D01*
X128238095Y-127844524D01*
X128238095Y-127768333D01*
X128276190Y-127692143D01*
X128314286Y-127654048D01*
X128390476Y-127615952D01*
X128542857Y-127577857D01*
X128619048Y-127539762D01*
X128657143Y-127501667D01*
X128695238Y-127425476D01*
X128695238Y-127349286D01*
X128657143Y-127273095D01*
X128619048Y-127235000D01*
X128542857Y-127196905D01*
X128352381Y-127196905D01*
X128238095Y-127235000D01*
X128466667Y-127082619D02*
X128466667Y-128111190D01*
X127971428Y-127996905D02*
X127552381Y-127463571D01*
X127971428Y-127463571D02*
X127552381Y-127996905D01*
X127095238Y-127196905D02*
X127019047Y-127196905D01*
X126942857Y-127235000D01*
X126904762Y-127273095D01*
X126866666Y-127349286D01*
X126828571Y-127501667D01*
X126828571Y-127692143D01*
X126866666Y-127844524D01*
X126904762Y-127920714D01*
X126942857Y-127958810D01*
X127019047Y-127996905D01*
X127095238Y-127996905D01*
X127171428Y-127958810D01*
X127209524Y-127920714D01*
X127247619Y-127844524D01*
X127285714Y-127692143D01*
X127285714Y-127501667D01*
X127247619Y-127349286D01*
X127209524Y-127273095D01*
X127171428Y-127235000D01*
X127095238Y-127196905D01*
X126333333Y-127196905D02*
X126257142Y-127196905D01*
X126180952Y-127235000D01*
X126142857Y-127273095D01*
X126104761Y-127349286D01*
X126066666Y-127501667D01*
X126066666Y-127692143D01*
X126104761Y-127844524D01*
X126142857Y-127920714D01*
X126180952Y-127958810D01*
X126257142Y-127996905D01*
X126333333Y-127996905D01*
X126409523Y-127958810D01*
X126447619Y-127920714D01*
X126485714Y-127844524D01*
X126523809Y-127692143D01*
X126523809Y-127501667D01*
X126485714Y-127349286D01*
X126447619Y-127273095D01*
X126409523Y-127235000D01*
X126333333Y-127196905D01*
X125571428Y-127196905D02*
X125495237Y-127196905D01*
X125419047Y-127235000D01*
X125380952Y-127273095D01*
X125342856Y-127349286D01*
X125304761Y-127501667D01*
X125304761Y-127692143D01*
X125342856Y-127844524D01*
X125380952Y-127920714D01*
X125419047Y-127958810D01*
X125495237Y-127996905D01*
X125571428Y-127996905D01*
X125647618Y-127958810D01*
X125685714Y-127920714D01*
X125723809Y-127844524D01*
X125761904Y-127692143D01*
X125761904Y-127501667D01*
X125723809Y-127349286D01*
X125685714Y-127273095D01*
X125647618Y-127235000D01*
X125571428Y-127196905D01*
X128695238Y-117798810D02*
X128580952Y-117836905D01*
X128390476Y-117836905D01*
X128314286Y-117798810D01*
X128276190Y-117760714D01*
X128238095Y-117684524D01*
X128238095Y-117608333D01*
X128276190Y-117532143D01*
X128314286Y-117494048D01*
X128390476Y-117455952D01*
X128542857Y-117417857D01*
X128619048Y-117379762D01*
X128657143Y-117341667D01*
X128695238Y-117265476D01*
X128695238Y-117189286D01*
X128657143Y-117113095D01*
X128619048Y-117075000D01*
X128542857Y-117036905D01*
X128352381Y-117036905D01*
X128238095Y-117075000D01*
X128466667Y-116922619D02*
X128466667Y-117951190D01*
X127971428Y-117836905D02*
X127552381Y-117303571D01*
X127971428Y-117303571D02*
X127552381Y-117836905D01*
X127095238Y-117036905D02*
X127019047Y-117036905D01*
X126942857Y-117075000D01*
X126904762Y-117113095D01*
X126866666Y-117189286D01*
X126828571Y-117341667D01*
X126828571Y-117532143D01*
X126866666Y-117684524D01*
X126904762Y-117760714D01*
X126942857Y-117798810D01*
X127019047Y-117836905D01*
X127095238Y-117836905D01*
X127171428Y-117798810D01*
X127209524Y-117760714D01*
X127247619Y-117684524D01*
X127285714Y-117532143D01*
X127285714Y-117341667D01*
X127247619Y-117189286D01*
X127209524Y-117113095D01*
X127171428Y-117075000D01*
X127095238Y-117036905D01*
X126333333Y-117036905D02*
X126257142Y-117036905D01*
X126180952Y-117075000D01*
X126142857Y-117113095D01*
X126104761Y-117189286D01*
X126066666Y-117341667D01*
X126066666Y-117532143D01*
X126104761Y-117684524D01*
X126142857Y-117760714D01*
X126180952Y-117798810D01*
X126257142Y-117836905D01*
X126333333Y-117836905D01*
X126409523Y-117798810D01*
X126447619Y-117760714D01*
X126485714Y-117684524D01*
X126523809Y-117532143D01*
X126523809Y-117341667D01*
X126485714Y-117189286D01*
X126447619Y-117113095D01*
X126409523Y-117075000D01*
X126333333Y-117036905D01*
X125571428Y-117036905D02*
X125495237Y-117036905D01*
X125419047Y-117075000D01*
X125380952Y-117113095D01*
X125342856Y-117189286D01*
X125304761Y-117341667D01*
X125304761Y-117532143D01*
X125342856Y-117684524D01*
X125380952Y-117760714D01*
X125419047Y-117798810D01*
X125495237Y-117836905D01*
X125571428Y-117836905D01*
X125647618Y-117798810D01*
X125685714Y-117760714D01*
X125723809Y-117684524D01*
X125761904Y-117532143D01*
X125761904Y-117341667D01*
X125723809Y-117189286D01*
X125685714Y-117113095D01*
X125647618Y-117075000D01*
X125571428Y-117036905D01*
X149669286Y-135578810D02*
X149555000Y-135616905D01*
X149364524Y-135616905D01*
X149288334Y-135578810D01*
X149250238Y-135540714D01*
X149212143Y-135464524D01*
X149212143Y-135388333D01*
X149250238Y-135312143D01*
X149288334Y-135274048D01*
X149364524Y-135235952D01*
X149516905Y-135197857D01*
X149593096Y-135159762D01*
X149631191Y-135121667D01*
X149669286Y-135045476D01*
X149669286Y-134969286D01*
X149631191Y-134893095D01*
X149593096Y-134855000D01*
X149516905Y-134816905D01*
X149326429Y-134816905D01*
X149212143Y-134855000D01*
X149440715Y-134702619D02*
X149440715Y-135731190D01*
X148602619Y-135197857D02*
X148869286Y-135197857D01*
X148869286Y-135616905D02*
X148869286Y-134816905D01*
X148488333Y-134816905D01*
X148031191Y-134816905D02*
X147955000Y-134816905D01*
X147878810Y-134855000D01*
X147840715Y-134893095D01*
X147802619Y-134969286D01*
X147764524Y-135121667D01*
X147764524Y-135312143D01*
X147802619Y-135464524D01*
X147840715Y-135540714D01*
X147878810Y-135578810D01*
X147955000Y-135616905D01*
X148031191Y-135616905D01*
X148107381Y-135578810D01*
X148145477Y-135540714D01*
X148183572Y-135464524D01*
X148221667Y-135312143D01*
X148221667Y-135121667D01*
X148183572Y-134969286D01*
X148145477Y-134893095D01*
X148107381Y-134855000D01*
X148031191Y-134816905D01*
X147269286Y-134816905D02*
X147193095Y-134816905D01*
X147116905Y-134855000D01*
X147078810Y-134893095D01*
X147040714Y-134969286D01*
X147002619Y-135121667D01*
X147002619Y-135312143D01*
X147040714Y-135464524D01*
X147078810Y-135540714D01*
X147116905Y-135578810D01*
X147193095Y-135616905D01*
X147269286Y-135616905D01*
X147345476Y-135578810D01*
X147383572Y-135540714D01*
X147421667Y-135464524D01*
X147459762Y-135312143D01*
X147459762Y-135121667D01*
X147421667Y-134969286D01*
X147383572Y-134893095D01*
X147345476Y-134855000D01*
X147269286Y-134816905D01*
X146507381Y-134816905D02*
X146431190Y-134816905D01*
X146355000Y-134855000D01*
X146316905Y-134893095D01*
X146278809Y-134969286D01*
X146240714Y-135121667D01*
X146240714Y-135312143D01*
X146278809Y-135464524D01*
X146316905Y-135540714D01*
X146355000Y-135578810D01*
X146431190Y-135616905D01*
X146507381Y-135616905D01*
X146583571Y-135578810D01*
X146621667Y-135540714D01*
X146659762Y-135464524D01*
X146697857Y-135312143D01*
X146697857Y-135121667D01*
X146659762Y-134969286D01*
X146621667Y-134893095D01*
X146583571Y-134855000D01*
X146507381Y-134816905D01*
X149688334Y-133038810D02*
X149574048Y-133076905D01*
X149383572Y-133076905D01*
X149307382Y-133038810D01*
X149269286Y-133000714D01*
X149231191Y-132924524D01*
X149231191Y-132848333D01*
X149269286Y-132772143D01*
X149307382Y-132734048D01*
X149383572Y-132695952D01*
X149535953Y-132657857D01*
X149612144Y-132619762D01*
X149650239Y-132581667D01*
X149688334Y-132505476D01*
X149688334Y-132429286D01*
X149650239Y-132353095D01*
X149612144Y-132315000D01*
X149535953Y-132276905D01*
X149345477Y-132276905D01*
X149231191Y-132315000D01*
X149459763Y-132162619D02*
X149459763Y-133191190D01*
X148888334Y-132657857D02*
X148621667Y-132657857D01*
X148507381Y-133076905D02*
X148888334Y-133076905D01*
X148888334Y-132276905D01*
X148507381Y-132276905D01*
X148012143Y-132276905D02*
X147935952Y-132276905D01*
X147859762Y-132315000D01*
X147821667Y-132353095D01*
X147783571Y-132429286D01*
X147745476Y-132581667D01*
X147745476Y-132772143D01*
X147783571Y-132924524D01*
X147821667Y-133000714D01*
X147859762Y-133038810D01*
X147935952Y-133076905D01*
X148012143Y-133076905D01*
X148088333Y-133038810D01*
X148126429Y-133000714D01*
X148164524Y-132924524D01*
X148202619Y-132772143D01*
X148202619Y-132581667D01*
X148164524Y-132429286D01*
X148126429Y-132353095D01*
X148088333Y-132315000D01*
X148012143Y-132276905D01*
X147250238Y-132276905D02*
X147174047Y-132276905D01*
X147097857Y-132315000D01*
X147059762Y-132353095D01*
X147021666Y-132429286D01*
X146983571Y-132581667D01*
X146983571Y-132772143D01*
X147021666Y-132924524D01*
X147059762Y-133000714D01*
X147097857Y-133038810D01*
X147174047Y-133076905D01*
X147250238Y-133076905D01*
X147326428Y-133038810D01*
X147364524Y-133000714D01*
X147402619Y-132924524D01*
X147440714Y-132772143D01*
X147440714Y-132581667D01*
X147402619Y-132429286D01*
X147364524Y-132353095D01*
X147326428Y-132315000D01*
X147250238Y-132276905D01*
X146488333Y-132276905D02*
X146412142Y-132276905D01*
X146335952Y-132315000D01*
X146297857Y-132353095D01*
X146259761Y-132429286D01*
X146221666Y-132581667D01*
X146221666Y-132772143D01*
X146259761Y-132924524D01*
X146297857Y-133000714D01*
X146335952Y-133038810D01*
X146412142Y-133076905D01*
X146488333Y-133076905D01*
X146564523Y-133038810D01*
X146602619Y-133000714D01*
X146640714Y-132924524D01*
X146678809Y-132772143D01*
X146678809Y-132581667D01*
X146640714Y-132429286D01*
X146602619Y-132353095D01*
X146564523Y-132315000D01*
X146488333Y-132276905D01*
X149726429Y-130498810D02*
X149612143Y-130536905D01*
X149421667Y-130536905D01*
X149345477Y-130498810D01*
X149307381Y-130460714D01*
X149269286Y-130384524D01*
X149269286Y-130308333D01*
X149307381Y-130232143D01*
X149345477Y-130194048D01*
X149421667Y-130155952D01*
X149574048Y-130117857D01*
X149650239Y-130079762D01*
X149688334Y-130041667D01*
X149726429Y-129965476D01*
X149726429Y-129889286D01*
X149688334Y-129813095D01*
X149650239Y-129775000D01*
X149574048Y-129736905D01*
X149383572Y-129736905D01*
X149269286Y-129775000D01*
X149497858Y-129622619D02*
X149497858Y-130651190D01*
X148926429Y-130536905D02*
X148926429Y-129736905D01*
X148735953Y-129736905D01*
X148621667Y-129775000D01*
X148545476Y-129851190D01*
X148507381Y-129927381D01*
X148469286Y-130079762D01*
X148469286Y-130194048D01*
X148507381Y-130346429D01*
X148545476Y-130422619D01*
X148621667Y-130498810D01*
X148735953Y-130536905D01*
X148926429Y-130536905D01*
X147974048Y-129736905D02*
X147897857Y-129736905D01*
X147821667Y-129775000D01*
X147783572Y-129813095D01*
X147745476Y-129889286D01*
X147707381Y-130041667D01*
X147707381Y-130232143D01*
X147745476Y-130384524D01*
X147783572Y-130460714D01*
X147821667Y-130498810D01*
X147897857Y-130536905D01*
X147974048Y-130536905D01*
X148050238Y-130498810D01*
X148088334Y-130460714D01*
X148126429Y-130384524D01*
X148164524Y-130232143D01*
X148164524Y-130041667D01*
X148126429Y-129889286D01*
X148088334Y-129813095D01*
X148050238Y-129775000D01*
X147974048Y-129736905D01*
X147212143Y-129736905D02*
X147135952Y-129736905D01*
X147059762Y-129775000D01*
X147021667Y-129813095D01*
X146983571Y-129889286D01*
X146945476Y-130041667D01*
X146945476Y-130232143D01*
X146983571Y-130384524D01*
X147021667Y-130460714D01*
X147059762Y-130498810D01*
X147135952Y-130536905D01*
X147212143Y-130536905D01*
X147288333Y-130498810D01*
X147326429Y-130460714D01*
X147364524Y-130384524D01*
X147402619Y-130232143D01*
X147402619Y-130041667D01*
X147364524Y-129889286D01*
X147326429Y-129813095D01*
X147288333Y-129775000D01*
X147212143Y-129736905D01*
X146450238Y-129736905D02*
X146374047Y-129736905D01*
X146297857Y-129775000D01*
X146259762Y-129813095D01*
X146221666Y-129889286D01*
X146183571Y-130041667D01*
X146183571Y-130232143D01*
X146221666Y-130384524D01*
X146259762Y-130460714D01*
X146297857Y-130498810D01*
X146374047Y-130536905D01*
X146450238Y-130536905D01*
X146526428Y-130498810D01*
X146564524Y-130460714D01*
X146602619Y-130384524D01*
X146640714Y-130232143D01*
X146640714Y-130041667D01*
X146602619Y-129889286D01*
X146564524Y-129813095D01*
X146526428Y-129775000D01*
X146450238Y-129736905D01*
X149726429Y-127958810D02*
X149612143Y-127996905D01*
X149421667Y-127996905D01*
X149345477Y-127958810D01*
X149307381Y-127920714D01*
X149269286Y-127844524D01*
X149269286Y-127768333D01*
X149307381Y-127692143D01*
X149345477Y-127654048D01*
X149421667Y-127615952D01*
X149574048Y-127577857D01*
X149650239Y-127539762D01*
X149688334Y-127501667D01*
X149726429Y-127425476D01*
X149726429Y-127349286D01*
X149688334Y-127273095D01*
X149650239Y-127235000D01*
X149574048Y-127196905D01*
X149383572Y-127196905D01*
X149269286Y-127235000D01*
X149497858Y-127082619D02*
X149497858Y-128111190D01*
X148469286Y-127920714D02*
X148507381Y-127958810D01*
X148621667Y-127996905D01*
X148697857Y-127996905D01*
X148812143Y-127958810D01*
X148888334Y-127882619D01*
X148926429Y-127806429D01*
X148964524Y-127654048D01*
X148964524Y-127539762D01*
X148926429Y-127387381D01*
X148888334Y-127311190D01*
X148812143Y-127235000D01*
X148697857Y-127196905D01*
X148621667Y-127196905D01*
X148507381Y-127235000D01*
X148469286Y-127273095D01*
X147974048Y-127196905D02*
X147897857Y-127196905D01*
X147821667Y-127235000D01*
X147783572Y-127273095D01*
X147745476Y-127349286D01*
X147707381Y-127501667D01*
X147707381Y-127692143D01*
X147745476Y-127844524D01*
X147783572Y-127920714D01*
X147821667Y-127958810D01*
X147897857Y-127996905D01*
X147974048Y-127996905D01*
X148050238Y-127958810D01*
X148088334Y-127920714D01*
X148126429Y-127844524D01*
X148164524Y-127692143D01*
X148164524Y-127501667D01*
X148126429Y-127349286D01*
X148088334Y-127273095D01*
X148050238Y-127235000D01*
X147974048Y-127196905D01*
X147212143Y-127196905D02*
X147135952Y-127196905D01*
X147059762Y-127235000D01*
X147021667Y-127273095D01*
X146983571Y-127349286D01*
X146945476Y-127501667D01*
X146945476Y-127692143D01*
X146983571Y-127844524D01*
X147021667Y-127920714D01*
X147059762Y-127958810D01*
X147135952Y-127996905D01*
X147212143Y-127996905D01*
X147288333Y-127958810D01*
X147326429Y-127920714D01*
X147364524Y-127844524D01*
X147402619Y-127692143D01*
X147402619Y-127501667D01*
X147364524Y-127349286D01*
X147326429Y-127273095D01*
X147288333Y-127235000D01*
X147212143Y-127196905D01*
X146450238Y-127196905D02*
X146374047Y-127196905D01*
X146297857Y-127235000D01*
X146259762Y-127273095D01*
X146221666Y-127349286D01*
X146183571Y-127501667D01*
X146183571Y-127692143D01*
X146221666Y-127844524D01*
X146259762Y-127920714D01*
X146297857Y-127958810D01*
X146374047Y-127996905D01*
X146450238Y-127996905D01*
X146526428Y-127958810D01*
X146564524Y-127920714D01*
X146602619Y-127844524D01*
X146640714Y-127692143D01*
X146640714Y-127501667D01*
X146602619Y-127349286D01*
X146564524Y-127273095D01*
X146526428Y-127235000D01*
X146450238Y-127196905D01*
X149726429Y-125418810D02*
X149612143Y-125456905D01*
X149421667Y-125456905D01*
X149345477Y-125418810D01*
X149307381Y-125380714D01*
X149269286Y-125304524D01*
X149269286Y-125228333D01*
X149307381Y-125152143D01*
X149345477Y-125114048D01*
X149421667Y-125075952D01*
X149574048Y-125037857D01*
X149650239Y-124999762D01*
X149688334Y-124961667D01*
X149726429Y-124885476D01*
X149726429Y-124809286D01*
X149688334Y-124733095D01*
X149650239Y-124695000D01*
X149574048Y-124656905D01*
X149383572Y-124656905D01*
X149269286Y-124695000D01*
X149497858Y-124542619D02*
X149497858Y-125571190D01*
X148659762Y-125037857D02*
X148545476Y-125075952D01*
X148507381Y-125114048D01*
X148469286Y-125190238D01*
X148469286Y-125304524D01*
X148507381Y-125380714D01*
X148545476Y-125418810D01*
X148621667Y-125456905D01*
X148926429Y-125456905D01*
X148926429Y-124656905D01*
X148659762Y-124656905D01*
X148583572Y-124695000D01*
X148545476Y-124733095D01*
X148507381Y-124809286D01*
X148507381Y-124885476D01*
X148545476Y-124961667D01*
X148583572Y-124999762D01*
X148659762Y-125037857D01*
X148926429Y-125037857D01*
X147974048Y-124656905D02*
X147897857Y-124656905D01*
X147821667Y-124695000D01*
X147783572Y-124733095D01*
X147745476Y-124809286D01*
X147707381Y-124961667D01*
X147707381Y-125152143D01*
X147745476Y-125304524D01*
X147783572Y-125380714D01*
X147821667Y-125418810D01*
X147897857Y-125456905D01*
X147974048Y-125456905D01*
X148050238Y-125418810D01*
X148088334Y-125380714D01*
X148126429Y-125304524D01*
X148164524Y-125152143D01*
X148164524Y-124961667D01*
X148126429Y-124809286D01*
X148088334Y-124733095D01*
X148050238Y-124695000D01*
X147974048Y-124656905D01*
X147212143Y-124656905D02*
X147135952Y-124656905D01*
X147059762Y-124695000D01*
X147021667Y-124733095D01*
X146983571Y-124809286D01*
X146945476Y-124961667D01*
X146945476Y-125152143D01*
X146983571Y-125304524D01*
X147021667Y-125380714D01*
X147059762Y-125418810D01*
X147135952Y-125456905D01*
X147212143Y-125456905D01*
X147288333Y-125418810D01*
X147326429Y-125380714D01*
X147364524Y-125304524D01*
X147402619Y-125152143D01*
X147402619Y-124961667D01*
X147364524Y-124809286D01*
X147326429Y-124733095D01*
X147288333Y-124695000D01*
X147212143Y-124656905D01*
X146450238Y-124656905D02*
X146374047Y-124656905D01*
X146297857Y-124695000D01*
X146259762Y-124733095D01*
X146221666Y-124809286D01*
X146183571Y-124961667D01*
X146183571Y-125152143D01*
X146221666Y-125304524D01*
X146259762Y-125380714D01*
X146297857Y-125418810D01*
X146374047Y-125456905D01*
X146450238Y-125456905D01*
X146526428Y-125418810D01*
X146564524Y-125380714D01*
X146602619Y-125304524D01*
X146640714Y-125152143D01*
X146640714Y-124961667D01*
X146602619Y-124809286D01*
X146564524Y-124733095D01*
X146526428Y-124695000D01*
X146450238Y-124656905D01*
X149669286Y-122878810D02*
X149555000Y-122916905D01*
X149364524Y-122916905D01*
X149288334Y-122878810D01*
X149250238Y-122840714D01*
X149212143Y-122764524D01*
X149212143Y-122688333D01*
X149250238Y-122612143D01*
X149288334Y-122574048D01*
X149364524Y-122535952D01*
X149516905Y-122497857D01*
X149593096Y-122459762D01*
X149631191Y-122421667D01*
X149669286Y-122345476D01*
X149669286Y-122269286D01*
X149631191Y-122193095D01*
X149593096Y-122155000D01*
X149516905Y-122116905D01*
X149326429Y-122116905D01*
X149212143Y-122155000D01*
X149440715Y-122002619D02*
X149440715Y-123031190D01*
X148907381Y-122688333D02*
X148526429Y-122688333D01*
X148983572Y-122916905D02*
X148716905Y-122116905D01*
X148450238Y-122916905D01*
X148031191Y-122116905D02*
X147955000Y-122116905D01*
X147878810Y-122155000D01*
X147840715Y-122193095D01*
X147802619Y-122269286D01*
X147764524Y-122421667D01*
X147764524Y-122612143D01*
X147802619Y-122764524D01*
X147840715Y-122840714D01*
X147878810Y-122878810D01*
X147955000Y-122916905D01*
X148031191Y-122916905D01*
X148107381Y-122878810D01*
X148145477Y-122840714D01*
X148183572Y-122764524D01*
X148221667Y-122612143D01*
X148221667Y-122421667D01*
X148183572Y-122269286D01*
X148145477Y-122193095D01*
X148107381Y-122155000D01*
X148031191Y-122116905D01*
X147269286Y-122116905D02*
X147193095Y-122116905D01*
X147116905Y-122155000D01*
X147078810Y-122193095D01*
X147040714Y-122269286D01*
X147002619Y-122421667D01*
X147002619Y-122612143D01*
X147040714Y-122764524D01*
X147078810Y-122840714D01*
X147116905Y-122878810D01*
X147193095Y-122916905D01*
X147269286Y-122916905D01*
X147345476Y-122878810D01*
X147383572Y-122840714D01*
X147421667Y-122764524D01*
X147459762Y-122612143D01*
X147459762Y-122421667D01*
X147421667Y-122269286D01*
X147383572Y-122193095D01*
X147345476Y-122155000D01*
X147269286Y-122116905D01*
X146507381Y-122116905D02*
X146431190Y-122116905D01*
X146355000Y-122155000D01*
X146316905Y-122193095D01*
X146278809Y-122269286D01*
X146240714Y-122421667D01*
X146240714Y-122612143D01*
X146278809Y-122764524D01*
X146316905Y-122840714D01*
X146355000Y-122878810D01*
X146431190Y-122916905D01*
X146507381Y-122916905D01*
X146583571Y-122878810D01*
X146621667Y-122840714D01*
X146659762Y-122764524D01*
X146697857Y-122612143D01*
X146697857Y-122421667D01*
X146659762Y-122269286D01*
X146621667Y-122193095D01*
X146583571Y-122155000D01*
X146507381Y-122116905D01*
X149707381Y-120338810D02*
X149593095Y-120376905D01*
X149402619Y-120376905D01*
X149326429Y-120338810D01*
X149288333Y-120300714D01*
X149250238Y-120224524D01*
X149250238Y-120148333D01*
X149288333Y-120072143D01*
X149326429Y-120034048D01*
X149402619Y-119995952D01*
X149555000Y-119957857D01*
X149631191Y-119919762D01*
X149669286Y-119881667D01*
X149707381Y-119805476D01*
X149707381Y-119729286D01*
X149669286Y-119653095D01*
X149631191Y-119615000D01*
X149555000Y-119576905D01*
X149364524Y-119576905D01*
X149250238Y-119615000D01*
X149478810Y-119462619D02*
X149478810Y-120491190D01*
X148869286Y-120376905D02*
X148716905Y-120376905D01*
X148640714Y-120338810D01*
X148602619Y-120300714D01*
X148526428Y-120186429D01*
X148488333Y-120034048D01*
X148488333Y-119729286D01*
X148526428Y-119653095D01*
X148564524Y-119615000D01*
X148640714Y-119576905D01*
X148793095Y-119576905D01*
X148869286Y-119615000D01*
X148907381Y-119653095D01*
X148945476Y-119729286D01*
X148945476Y-119919762D01*
X148907381Y-119995952D01*
X148869286Y-120034048D01*
X148793095Y-120072143D01*
X148640714Y-120072143D01*
X148564524Y-120034048D01*
X148526428Y-119995952D01*
X148488333Y-119919762D01*
X147993095Y-119576905D02*
X147916904Y-119576905D01*
X147840714Y-119615000D01*
X147802619Y-119653095D01*
X147764523Y-119729286D01*
X147726428Y-119881667D01*
X147726428Y-120072143D01*
X147764523Y-120224524D01*
X147802619Y-120300714D01*
X147840714Y-120338810D01*
X147916904Y-120376905D01*
X147993095Y-120376905D01*
X148069285Y-120338810D01*
X148107381Y-120300714D01*
X148145476Y-120224524D01*
X148183571Y-120072143D01*
X148183571Y-119881667D01*
X148145476Y-119729286D01*
X148107381Y-119653095D01*
X148069285Y-119615000D01*
X147993095Y-119576905D01*
X147231190Y-119576905D02*
X147154999Y-119576905D01*
X147078809Y-119615000D01*
X147040714Y-119653095D01*
X147002618Y-119729286D01*
X146964523Y-119881667D01*
X146964523Y-120072143D01*
X147002618Y-120224524D01*
X147040714Y-120300714D01*
X147078809Y-120338810D01*
X147154999Y-120376905D01*
X147231190Y-120376905D01*
X147307380Y-120338810D01*
X147345476Y-120300714D01*
X147383571Y-120224524D01*
X147421666Y-120072143D01*
X147421666Y-119881667D01*
X147383571Y-119729286D01*
X147345476Y-119653095D01*
X147307380Y-119615000D01*
X147231190Y-119576905D01*
X146469285Y-119576905D02*
X146393094Y-119576905D01*
X146316904Y-119615000D01*
X146278809Y-119653095D01*
X146240713Y-119729286D01*
X146202618Y-119881667D01*
X146202618Y-120072143D01*
X146240713Y-120224524D01*
X146278809Y-120300714D01*
X146316904Y-120338810D01*
X146393094Y-120376905D01*
X146469285Y-120376905D01*
X146545475Y-120338810D01*
X146583571Y-120300714D01*
X146621666Y-120224524D01*
X146659761Y-120072143D01*
X146659761Y-119881667D01*
X146621666Y-119729286D01*
X146583571Y-119653095D01*
X146545475Y-119615000D01*
X146469285Y-119576905D01*
X149707381Y-117798810D02*
X149593095Y-117836905D01*
X149402619Y-117836905D01*
X149326429Y-117798810D01*
X149288333Y-117760714D01*
X149250238Y-117684524D01*
X149250238Y-117608333D01*
X149288333Y-117532143D01*
X149326429Y-117494048D01*
X149402619Y-117455952D01*
X149555000Y-117417857D01*
X149631191Y-117379762D01*
X149669286Y-117341667D01*
X149707381Y-117265476D01*
X149707381Y-117189286D01*
X149669286Y-117113095D01*
X149631191Y-117075000D01*
X149555000Y-117036905D01*
X149364524Y-117036905D01*
X149250238Y-117075000D01*
X149478810Y-116922619D02*
X149478810Y-117951190D01*
X148793095Y-117379762D02*
X148869286Y-117341667D01*
X148907381Y-117303571D01*
X148945476Y-117227381D01*
X148945476Y-117189286D01*
X148907381Y-117113095D01*
X148869286Y-117075000D01*
X148793095Y-117036905D01*
X148640714Y-117036905D01*
X148564524Y-117075000D01*
X148526428Y-117113095D01*
X148488333Y-117189286D01*
X148488333Y-117227381D01*
X148526428Y-117303571D01*
X148564524Y-117341667D01*
X148640714Y-117379762D01*
X148793095Y-117379762D01*
X148869286Y-117417857D01*
X148907381Y-117455952D01*
X148945476Y-117532143D01*
X148945476Y-117684524D01*
X148907381Y-117760714D01*
X148869286Y-117798810D01*
X148793095Y-117836905D01*
X148640714Y-117836905D01*
X148564524Y-117798810D01*
X148526428Y-117760714D01*
X148488333Y-117684524D01*
X148488333Y-117532143D01*
X148526428Y-117455952D01*
X148564524Y-117417857D01*
X148640714Y-117379762D01*
X147993095Y-117036905D02*
X147916904Y-117036905D01*
X147840714Y-117075000D01*
X147802619Y-117113095D01*
X147764523Y-117189286D01*
X147726428Y-117341667D01*
X147726428Y-117532143D01*
X147764523Y-117684524D01*
X147802619Y-117760714D01*
X147840714Y-117798810D01*
X147916904Y-117836905D01*
X147993095Y-117836905D01*
X148069285Y-117798810D01*
X148107381Y-117760714D01*
X148145476Y-117684524D01*
X148183571Y-117532143D01*
X148183571Y-117341667D01*
X148145476Y-117189286D01*
X148107381Y-117113095D01*
X148069285Y-117075000D01*
X147993095Y-117036905D01*
X147231190Y-117036905D02*
X147154999Y-117036905D01*
X147078809Y-117075000D01*
X147040714Y-117113095D01*
X147002618Y-117189286D01*
X146964523Y-117341667D01*
X146964523Y-117532143D01*
X147002618Y-117684524D01*
X147040714Y-117760714D01*
X147078809Y-117798810D01*
X147154999Y-117836905D01*
X147231190Y-117836905D01*
X147307380Y-117798810D01*
X147345476Y-117760714D01*
X147383571Y-117684524D01*
X147421666Y-117532143D01*
X147421666Y-117341667D01*
X147383571Y-117189286D01*
X147345476Y-117113095D01*
X147307380Y-117075000D01*
X147231190Y-117036905D01*
X146469285Y-117036905D02*
X146393094Y-117036905D01*
X146316904Y-117075000D01*
X146278809Y-117113095D01*
X146240713Y-117189286D01*
X146202618Y-117341667D01*
X146202618Y-117532143D01*
X146240713Y-117684524D01*
X146278809Y-117760714D01*
X146316904Y-117798810D01*
X146393094Y-117836905D01*
X146469285Y-117836905D01*
X146545475Y-117798810D01*
X146583571Y-117760714D01*
X146621666Y-117684524D01*
X146659761Y-117532143D01*
X146659761Y-117341667D01*
X146621666Y-117189286D01*
X146583571Y-117113095D01*
X146545475Y-117075000D01*
X146469285Y-117036905D01*
D12*
X119467381Y-119285000D02*
X120467381Y-119523095D01*
X119753095Y-119713572D01*
X120467381Y-119904048D01*
X119467381Y-120142143D01*
X120467381Y-121094524D02*
X119991190Y-120761190D01*
X120467381Y-120523095D02*
X119467381Y-120523095D01*
X119467381Y-120904048D01*
X119515000Y-120999286D01*
X119562619Y-121046905D01*
X119657857Y-121094524D01*
X119800714Y-121094524D01*
X119895952Y-121046905D01*
X119943571Y-120999286D01*
X119991190Y-120904048D01*
X119991190Y-120523095D01*
X120467381Y-121523095D02*
X119467381Y-121523095D01*
X119467381Y-121856428D02*
X119467381Y-122427857D01*
X120467381Y-122142142D02*
X119467381Y-122142142D01*
X119943571Y-122761190D02*
X119943571Y-123094524D01*
X120467381Y-123237381D02*
X120467381Y-122761190D01*
X119467381Y-122761190D01*
X119467381Y-123237381D01*
X120467381Y-130373572D02*
X119991190Y-130040238D01*
X120467381Y-129802143D02*
X119467381Y-129802143D01*
X119467381Y-130183096D01*
X119515000Y-130278334D01*
X119562619Y-130325953D01*
X119657857Y-130373572D01*
X119800714Y-130373572D01*
X119895952Y-130325953D01*
X119943571Y-130278334D01*
X119991190Y-130183096D01*
X119991190Y-129802143D01*
X119943571Y-130802143D02*
X119943571Y-131135477D01*
X120467381Y-131278334D02*
X120467381Y-130802143D01*
X119467381Y-130802143D01*
X119467381Y-131278334D01*
X120181667Y-131659286D02*
X120181667Y-132135477D01*
X120467381Y-131564048D02*
X119467381Y-131897381D01*
X120467381Y-132230715D01*
X120467381Y-132564048D02*
X119467381Y-132564048D01*
X119467381Y-132802143D01*
X119515000Y-132945001D01*
X119610238Y-133040239D01*
X119705476Y-133087858D01*
X119895952Y-133135477D01*
X120038810Y-133135477D01*
X120229286Y-133087858D01*
X120324524Y-133040239D01*
X120419762Y-132945001D01*
X120467381Y-132802143D01*
X120467381Y-132564048D01*
D13*
X174033571Y-99474999D02*
X172533571Y-99474999D01*
X174033571Y-100117856D02*
X173247857Y-100117856D01*
X173105000Y-100046427D01*
X173033571Y-99903570D01*
X173033571Y-99689285D01*
X173105000Y-99546427D01*
X173176429Y-99474999D01*
X173033571Y-100617856D02*
X173033571Y-101189285D01*
X172533571Y-100832142D02*
X173819286Y-100832142D01*
X173962143Y-100903570D01*
X174033571Y-101046428D01*
X174033571Y-101189285D01*
X173033571Y-101474999D02*
X173033571Y-102046428D01*
X172533571Y-101689285D02*
X173819286Y-101689285D01*
X173962143Y-101760713D01*
X174033571Y-101903571D01*
X174033571Y-102046428D01*
X173033571Y-102546428D02*
X174533571Y-102546428D01*
X173105000Y-102546428D02*
X173033571Y-102689285D01*
X173033571Y-102974999D01*
X173105000Y-103117856D01*
X173176429Y-103189285D01*
X173319286Y-103260714D01*
X173747857Y-103260714D01*
X173890714Y-103189285D01*
X173962143Y-103117856D01*
X174033571Y-102974999D01*
X174033571Y-102689285D01*
X173962143Y-102546428D01*
X173962143Y-103832142D02*
X174033571Y-103974999D01*
X174033571Y-104260714D01*
X173962143Y-104403571D01*
X173819286Y-104474999D01*
X173747857Y-104474999D01*
X173605000Y-104403571D01*
X173533571Y-104260714D01*
X173533571Y-104046428D01*
X173462143Y-103903571D01*
X173319286Y-103832142D01*
X173247857Y-103832142D01*
X173105000Y-103903571D01*
X173033571Y-104046428D01*
X173033571Y-104260714D01*
X173105000Y-104403571D01*
X173890714Y-105117857D02*
X173962143Y-105189285D01*
X174033571Y-105117857D01*
X173962143Y-105046428D01*
X173890714Y-105117857D01*
X174033571Y-105117857D01*
X173105000Y-105117857D02*
X173176429Y-105189285D01*
X173247857Y-105117857D01*
X173176429Y-105046428D01*
X173105000Y-105117857D01*
X173247857Y-105117857D01*
X172462143Y-106903571D02*
X174390714Y-105617857D01*
X172462143Y-108475000D02*
X174390714Y-107189286D01*
X174033571Y-108975001D02*
X172533571Y-108975001D01*
X174033571Y-109617858D02*
X173247857Y-109617858D01*
X173105000Y-109546429D01*
X173033571Y-109403572D01*
X173033571Y-109189287D01*
X173105000Y-109046429D01*
X173176429Y-108975001D01*
X173033571Y-110189287D02*
X174033571Y-110546430D01*
X173033571Y-110903572D01*
X173962143Y-112046429D02*
X174033571Y-111903572D01*
X174033571Y-111617858D01*
X173962143Y-111475001D01*
X173819286Y-111403572D01*
X173247857Y-111403572D01*
X173105000Y-111475001D01*
X173033571Y-111617858D01*
X173033571Y-111903572D01*
X173105000Y-112046429D01*
X173247857Y-112117858D01*
X173390714Y-112117858D01*
X173533571Y-111403572D01*
X173033571Y-112546429D02*
X173033571Y-113117858D01*
X172533571Y-112760715D02*
X173819286Y-112760715D01*
X173962143Y-112832143D01*
X174033571Y-112975001D01*
X174033571Y-113117858D01*
X173962143Y-114189286D02*
X174033571Y-114046429D01*
X174033571Y-113760715D01*
X173962143Y-113617858D01*
X173819286Y-113546429D01*
X173247857Y-113546429D01*
X173105000Y-113617858D01*
X173033571Y-113760715D01*
X173033571Y-114046429D01*
X173105000Y-114189286D01*
X173247857Y-114260715D01*
X173390714Y-114260715D01*
X173533571Y-113546429D01*
X174033571Y-114903572D02*
X172533571Y-114903572D01*
X173105000Y-114903572D02*
X173033571Y-115046429D01*
X173033571Y-115332143D01*
X173105000Y-115475000D01*
X173176429Y-115546429D01*
X173319286Y-115617858D01*
X173747857Y-115617858D01*
X173890714Y-115546429D01*
X173962143Y-115475000D01*
X174033571Y-115332143D01*
X174033571Y-115046429D01*
X173962143Y-114903572D01*
X174033571Y-116475001D02*
X173962143Y-116332143D01*
X173890714Y-116260715D01*
X173747857Y-116189286D01*
X173319286Y-116189286D01*
X173176429Y-116260715D01*
X173105000Y-116332143D01*
X173033571Y-116475001D01*
X173033571Y-116689286D01*
X173105000Y-116832143D01*
X173176429Y-116903572D01*
X173319286Y-116975001D01*
X173747857Y-116975001D01*
X173890714Y-116903572D01*
X173962143Y-116832143D01*
X174033571Y-116689286D01*
X174033571Y-116475001D01*
X174033571Y-117832144D02*
X173962143Y-117689286D01*
X173819286Y-117617858D01*
X172533571Y-117617858D01*
X174033571Y-118617858D02*
X173962143Y-118475000D01*
X173819286Y-118403572D01*
X172533571Y-118403572D01*
X173962143Y-119760714D02*
X174033571Y-119617857D01*
X174033571Y-119332143D01*
X173962143Y-119189286D01*
X173819286Y-119117857D01*
X173247857Y-119117857D01*
X173105000Y-119189286D01*
X173033571Y-119332143D01*
X173033571Y-119617857D01*
X173105000Y-119760714D01*
X173247857Y-119832143D01*
X173390714Y-119832143D01*
X173533571Y-119117857D01*
X173890714Y-120475000D02*
X173962143Y-120546428D01*
X174033571Y-120475000D01*
X173962143Y-120403571D01*
X173890714Y-120475000D01*
X174033571Y-120475000D01*
X174033571Y-121189286D02*
X172533571Y-121189286D01*
X173105000Y-121189286D02*
X173033571Y-121332143D01*
X173033571Y-121617857D01*
X173105000Y-121760714D01*
X173176429Y-121832143D01*
X173319286Y-121903572D01*
X173747857Y-121903572D01*
X173890714Y-121832143D01*
X173962143Y-121760714D01*
X174033571Y-121617857D01*
X174033571Y-121332143D01*
X173962143Y-121189286D01*
X174033571Y-122760715D02*
X173962143Y-122617857D01*
X173819286Y-122546429D01*
X172533571Y-122546429D01*
X174033571Y-123546429D02*
X173962143Y-123403571D01*
X173890714Y-123332143D01*
X173747857Y-123260714D01*
X173319286Y-123260714D01*
X173176429Y-123332143D01*
X173105000Y-123403571D01*
X173033571Y-123546429D01*
X173033571Y-123760714D01*
X173105000Y-123903571D01*
X173176429Y-123975000D01*
X173319286Y-124046429D01*
X173747857Y-124046429D01*
X173890714Y-123975000D01*
X173962143Y-123903571D01*
X174033571Y-123760714D01*
X174033571Y-123546429D01*
X173033571Y-125332143D02*
X174247857Y-125332143D01*
X174390714Y-125260714D01*
X174462143Y-125189286D01*
X174533571Y-125046429D01*
X174533571Y-124832143D01*
X174462143Y-124689286D01*
X173962143Y-125332143D02*
X174033571Y-125189286D01*
X174033571Y-124903572D01*
X173962143Y-124760714D01*
X173890714Y-124689286D01*
X173747857Y-124617857D01*
X173319286Y-124617857D01*
X173176429Y-124689286D01*
X173105000Y-124760714D01*
X173033571Y-124903572D01*
X173033571Y-125189286D01*
X173105000Y-125332143D01*
X173962143Y-125975000D02*
X174033571Y-126117857D01*
X174033571Y-126403572D01*
X173962143Y-126546429D01*
X173819286Y-126617857D01*
X173747857Y-126617857D01*
X173605000Y-126546429D01*
X173533571Y-126403572D01*
X173533571Y-126189286D01*
X173462143Y-126046429D01*
X173319286Y-125975000D01*
X173247857Y-125975000D01*
X173105000Y-126046429D01*
X173033571Y-126189286D01*
X173033571Y-126403572D01*
X173105000Y-126546429D01*
X173033571Y-127260715D02*
X174533571Y-127260715D01*
X173105000Y-127260715D02*
X173033571Y-127403572D01*
X173033571Y-127689286D01*
X173105000Y-127832143D01*
X173176429Y-127903572D01*
X173319286Y-127975001D01*
X173747857Y-127975001D01*
X173890714Y-127903572D01*
X173962143Y-127832143D01*
X174033571Y-127689286D01*
X174033571Y-127403572D01*
X173962143Y-127260715D01*
X174033571Y-128832144D02*
X173962143Y-128689286D01*
X173890714Y-128617858D01*
X173747857Y-128546429D01*
X173319286Y-128546429D01*
X173176429Y-128617858D01*
X173105000Y-128689286D01*
X173033571Y-128832144D01*
X173033571Y-129046429D01*
X173105000Y-129189286D01*
X173176429Y-129260715D01*
X173319286Y-129332144D01*
X173747857Y-129332144D01*
X173890714Y-129260715D01*
X173962143Y-129189286D01*
X174033571Y-129046429D01*
X174033571Y-128832144D01*
X173033571Y-129760715D02*
X173033571Y-130332144D01*
X172533571Y-129975001D02*
X173819286Y-129975001D01*
X173962143Y-130046429D01*
X174033571Y-130189287D01*
X174033571Y-130332144D01*
X173890714Y-130832144D02*
X173962143Y-130903572D01*
X174033571Y-130832144D01*
X173962143Y-130760715D01*
X173890714Y-130832144D01*
X174033571Y-130832144D01*
X173962143Y-132189287D02*
X174033571Y-132046430D01*
X174033571Y-131760716D01*
X173962143Y-131617858D01*
X173890714Y-131546430D01*
X173747857Y-131475001D01*
X173319286Y-131475001D01*
X173176429Y-131546430D01*
X173105000Y-131617858D01*
X173033571Y-131760716D01*
X173033571Y-132046430D01*
X173105000Y-132189287D01*
X174033571Y-133046430D02*
X173962143Y-132903572D01*
X173890714Y-132832144D01*
X173747857Y-132760715D01*
X173319286Y-132760715D01*
X173176429Y-132832144D01*
X173105000Y-132903572D01*
X173033571Y-133046430D01*
X173033571Y-133260715D01*
X173105000Y-133403572D01*
X173176429Y-133475001D01*
X173319286Y-133546430D01*
X173747857Y-133546430D01*
X173890714Y-133475001D01*
X173962143Y-133403572D01*
X174033571Y-133260715D01*
X174033571Y-133046430D01*
X174033571Y-134189287D02*
X173033571Y-134189287D01*
X173176429Y-134189287D02*
X173105000Y-134260715D01*
X173033571Y-134403573D01*
X173033571Y-134617858D01*
X173105000Y-134760715D01*
X173247857Y-134832144D01*
X174033571Y-134832144D01*
X173247857Y-134832144D02*
X173105000Y-134903573D01*
X173033571Y-135046430D01*
X173033571Y-135260715D01*
X173105000Y-135403573D01*
X173247857Y-135475001D01*
X174033571Y-135475001D01*
D14*
X110450000Y-100295000D02*
X113070000Y-100295000D01*
X113070000Y-100295000D02*
X113070000Y-106715000D01*
X113070000Y-106715000D02*
X110450000Y-106715000D01*
X110450000Y-106715000D02*
X110450000Y-100295000D01*
X111760000Y-99405000D02*
X111760000Y-100295000D01*
X111760000Y-107605000D02*
X111760000Y-106715000D01*
X148550000Y-100295000D02*
X151170000Y-100295000D01*
X151170000Y-100295000D02*
X151170000Y-106715000D01*
X151170000Y-106715000D02*
X148550000Y-106715000D01*
X148550000Y-106715000D02*
X148550000Y-100295000D01*
X149860000Y-99405000D02*
X149860000Y-100295000D01*
X149860000Y-107605000D02*
X149860000Y-106715000D01*
X139025000Y-100295000D02*
X141645000Y-100295000D01*
X141645000Y-100295000D02*
X141645000Y-106715000D01*
X141645000Y-106715000D02*
X139025000Y-106715000D01*
X139025000Y-106715000D02*
X139025000Y-100295000D01*
X140335000Y-99405000D02*
X140335000Y-100295000D01*
X140335000Y-107605000D02*
X140335000Y-106715000D01*
X129500000Y-100295000D02*
X132120000Y-100295000D01*
X132120000Y-100295000D02*
X132120000Y-106715000D01*
X132120000Y-106715000D02*
X129500000Y-106715000D01*
X129500000Y-106715000D02*
X129500000Y-100295000D01*
X130810000Y-99405000D02*
X130810000Y-100295000D01*
X130810000Y-107605000D02*
X130810000Y-106715000D01*
X119975000Y-100295000D02*
X122595000Y-100295000D01*
X122595000Y-100295000D02*
X122595000Y-106715000D01*
X122595000Y-106715000D02*
X119975000Y-106715000D01*
X119975000Y-106715000D02*
X119975000Y-100295000D01*
X121285000Y-99405000D02*
X121285000Y-100295000D01*
X121285000Y-107605000D02*
X121285000Y-106715000D01*
X100925000Y-100295000D02*
X103545000Y-100295000D01*
X103545000Y-100295000D02*
X103545000Y-106715000D01*
X103545000Y-106715000D02*
X100925000Y-106715000D01*
X100925000Y-106715000D02*
X100925000Y-100295000D01*
X102235000Y-99405000D02*
X102235000Y-100295000D01*
X102235000Y-107605000D02*
X102235000Y-106715000D01*
X91400000Y-100295000D02*
X94020000Y-100295000D01*
X94020000Y-100295000D02*
X94020000Y-106715000D01*
X94020000Y-106715000D02*
X91400000Y-106715000D01*
X91400000Y-106715000D02*
X91400000Y-100295000D01*
X92710000Y-99405000D02*
X92710000Y-100295000D01*
X92710000Y-107605000D02*
X92710000Y-106715000D01*
X81875000Y-100295000D02*
X84495000Y-100295000D01*
X84495000Y-100295000D02*
X84495000Y-106715000D01*
X84495000Y-106715000D02*
X81875000Y-106715000D01*
X81875000Y-106715000D02*
X81875000Y-100295000D01*
X83185000Y-99405000D02*
X83185000Y-100295000D01*
X83185000Y-107605000D02*
X83185000Y-106715000D01*
X145375000Y-100295000D02*
X147995000Y-100295000D01*
X147995000Y-100295000D02*
X147995000Y-106715000D01*
X147995000Y-106715000D02*
X145375000Y-106715000D01*
X145375000Y-106715000D02*
X145375000Y-100295000D01*
X146685000Y-99405000D02*
X146685000Y-100295000D01*
X146685000Y-107605000D02*
X146685000Y-106715000D01*
X135850000Y-100295000D02*
X138470000Y-100295000D01*
X138470000Y-100295000D02*
X138470000Y-106715000D01*
X138470000Y-106715000D02*
X135850000Y-106715000D01*
X135850000Y-106715000D02*
X135850000Y-100295000D01*
X137160000Y-99405000D02*
X137160000Y-100295000D01*
X137160000Y-107605000D02*
X137160000Y-106715000D01*
X126325000Y-100295000D02*
X128945000Y-100295000D01*
X128945000Y-100295000D02*
X128945000Y-106715000D01*
X128945000Y-106715000D02*
X126325000Y-106715000D01*
X126325000Y-106715000D02*
X126325000Y-100295000D01*
X127635000Y-99405000D02*
X127635000Y-100295000D01*
X127635000Y-107605000D02*
X127635000Y-106715000D01*
X116800000Y-100295000D02*
X119420000Y-100295000D01*
X119420000Y-100295000D02*
X119420000Y-106715000D01*
X119420000Y-106715000D02*
X116800000Y-106715000D01*
X116800000Y-106715000D02*
X116800000Y-100295000D01*
X118110000Y-99405000D02*
X118110000Y-100295000D01*
X118110000Y-107605000D02*
X118110000Y-106715000D01*
X107275000Y-100295000D02*
X109895000Y-100295000D01*
X109895000Y-100295000D02*
X109895000Y-106715000D01*
X109895000Y-106715000D02*
X107275000Y-106715000D01*
X107275000Y-106715000D02*
X107275000Y-100295000D01*
X108585000Y-99405000D02*
X108585000Y-100295000D01*
X108585000Y-107605000D02*
X108585000Y-106715000D01*
X97750000Y-100295000D02*
X100370000Y-100295000D01*
X100370000Y-100295000D02*
X100370000Y-106715000D01*
X100370000Y-106715000D02*
X97750000Y-106715000D01*
X97750000Y-106715000D02*
X97750000Y-100295000D01*
X99060000Y-99405000D02*
X99060000Y-100295000D01*
X99060000Y-107605000D02*
X99060000Y-106715000D01*
X88225000Y-100295000D02*
X90845000Y-100295000D01*
X90845000Y-100295000D02*
X90845000Y-106715000D01*
X90845000Y-106715000D02*
X88225000Y-106715000D01*
X88225000Y-106715000D02*
X88225000Y-100295000D01*
X89535000Y-99405000D02*
X89535000Y-100295000D01*
X89535000Y-107605000D02*
X89535000Y-106715000D01*
X78700000Y-100295000D02*
X81320000Y-100295000D01*
X81320000Y-100295000D02*
X81320000Y-106715000D01*
X81320000Y-106715000D02*
X78700000Y-106715000D01*
X78700000Y-106715000D02*
X78700000Y-100295000D01*
X80010000Y-99405000D02*
X80010000Y-100295000D01*
X80010000Y-107605000D02*
X80010000Y-106715000D01*
D15*
X111926666Y-102052381D02*
X112260000Y-101576190D01*
X112498095Y-102052381D02*
X112498095Y-101052381D01*
X112117142Y-101052381D01*
X112021904Y-101100000D01*
X111974285Y-101147619D01*
X111926666Y-101242857D01*
X111926666Y-101385714D01*
X111974285Y-101480952D01*
X112021904Y-101528571D01*
X112117142Y-101576190D01*
X112498095Y-101576190D01*
X111545714Y-101147619D02*
X111498095Y-101100000D01*
X111402857Y-101052381D01*
X111164761Y-101052381D01*
X111069523Y-101100000D01*
X111021904Y-101147619D01*
X110974285Y-101242857D01*
X110974285Y-101338095D01*
X111021904Y-101480952D01*
X111593333Y-102052381D01*
X110974285Y-102052381D01*
X111545714Y-104084524D02*
X112212381Y-104084524D01*
X111164762Y-103846428D02*
X111879048Y-103608333D01*
X111879048Y-104227381D01*
X112212381Y-104608333D02*
X111212381Y-104608333D01*
X111831429Y-104703571D02*
X112212381Y-104989286D01*
X111545714Y-104989286D02*
X111926667Y-104608333D01*
X111212381Y-105322619D02*
X111212381Y-105989286D01*
X112212381Y-105560714D01*
X150026666Y-102052381D02*
X150360000Y-101576190D01*
X150598095Y-102052381D02*
X150598095Y-101052381D01*
X150217142Y-101052381D01*
X150121904Y-101100000D01*
X150074285Y-101147619D01*
X150026666Y-101242857D01*
X150026666Y-101385714D01*
X150074285Y-101480952D01*
X150121904Y-101528571D01*
X150217142Y-101576190D01*
X150598095Y-101576190D01*
X149074285Y-102052381D02*
X149645714Y-102052381D01*
X149360000Y-102052381D02*
X149360000Y-101052381D01*
X149455238Y-101195238D01*
X149550476Y-101290476D01*
X149645714Y-101338095D01*
X149645714Y-104084524D02*
X150312381Y-104084524D01*
X149264762Y-103846428D02*
X149979048Y-103608333D01*
X149979048Y-104227381D01*
X150312381Y-104608333D02*
X149312381Y-104608333D01*
X149931429Y-104703571D02*
X150312381Y-104989286D01*
X149645714Y-104989286D02*
X150026667Y-104608333D01*
X149312381Y-105322619D02*
X149312381Y-105989286D01*
X150312381Y-105560714D01*
X140501666Y-102052381D02*
X140835000Y-101576190D01*
X141073095Y-102052381D02*
X141073095Y-101052381D01*
X140692142Y-101052381D01*
X140596904Y-101100000D01*
X140549285Y-101147619D01*
X140501666Y-101242857D01*
X140501666Y-101385714D01*
X140549285Y-101480952D01*
X140596904Y-101528571D01*
X140692142Y-101576190D01*
X141073095Y-101576190D01*
X140168333Y-101052381D02*
X139549285Y-101052381D01*
X139882619Y-101433333D01*
X139739761Y-101433333D01*
X139644523Y-101480952D01*
X139596904Y-101528571D01*
X139549285Y-101623810D01*
X139549285Y-101861905D01*
X139596904Y-101957143D01*
X139644523Y-102004762D01*
X139739761Y-102052381D01*
X140025476Y-102052381D01*
X140120714Y-102004762D01*
X140168333Y-101957143D01*
X140120714Y-104084524D02*
X140787381Y-104084524D01*
X139739762Y-103846428D02*
X140454048Y-103608333D01*
X140454048Y-104227381D01*
X140787381Y-104608333D02*
X139787381Y-104608333D01*
X140406429Y-104703571D02*
X140787381Y-104989286D01*
X140120714Y-104989286D02*
X140501667Y-104608333D01*
X139787381Y-105322619D02*
X139787381Y-105989286D01*
X140787381Y-105560714D01*
X130976666Y-102052381D02*
X131310000Y-101576190D01*
X131548095Y-102052381D02*
X131548095Y-101052381D01*
X131167142Y-101052381D01*
X131071904Y-101100000D01*
X131024285Y-101147619D01*
X130976666Y-101242857D01*
X130976666Y-101385714D01*
X131024285Y-101480952D01*
X131071904Y-101528571D01*
X131167142Y-101576190D01*
X131548095Y-101576190D01*
X130119523Y-101385714D02*
X130119523Y-102052381D01*
X130357619Y-101004762D02*
X130595714Y-101719048D01*
X129976666Y-101719048D01*
X130595714Y-104084524D02*
X131262381Y-104084524D01*
X130214762Y-103846428D02*
X130929048Y-103608333D01*
X130929048Y-104227381D01*
X131262381Y-104608333D02*
X130262381Y-104608333D01*
X130881429Y-104703571D02*
X131262381Y-104989286D01*
X130595714Y-104989286D02*
X130976667Y-104608333D01*
X130262381Y-105322619D02*
X130262381Y-105989286D01*
X131262381Y-105560714D01*
X121451666Y-102052381D02*
X121785000Y-101576190D01*
X122023095Y-102052381D02*
X122023095Y-101052381D01*
X121642142Y-101052381D01*
X121546904Y-101100000D01*
X121499285Y-101147619D01*
X121451666Y-101242857D01*
X121451666Y-101385714D01*
X121499285Y-101480952D01*
X121546904Y-101528571D01*
X121642142Y-101576190D01*
X122023095Y-101576190D01*
X120546904Y-101052381D02*
X121023095Y-101052381D01*
X121070714Y-101528571D01*
X121023095Y-101480952D01*
X120927857Y-101433333D01*
X120689761Y-101433333D01*
X120594523Y-101480952D01*
X120546904Y-101528571D01*
X120499285Y-101623810D01*
X120499285Y-101861905D01*
X120546904Y-101957143D01*
X120594523Y-102004762D01*
X120689761Y-102052381D01*
X120927857Y-102052381D01*
X121023095Y-102004762D01*
X121070714Y-101957143D01*
X121070714Y-104084524D02*
X121737381Y-104084524D01*
X120689762Y-103846428D02*
X121404048Y-103608333D01*
X121404048Y-104227381D01*
X121737381Y-104608333D02*
X120737381Y-104608333D01*
X121356429Y-104703571D02*
X121737381Y-104989286D01*
X121070714Y-104989286D02*
X121451667Y-104608333D01*
X120737381Y-105322619D02*
X120737381Y-105989286D01*
X121737381Y-105560714D01*
X102401666Y-102052381D02*
X102735000Y-101576190D01*
X102973095Y-102052381D02*
X102973095Y-101052381D01*
X102592142Y-101052381D01*
X102496904Y-101100000D01*
X102449285Y-101147619D01*
X102401666Y-101242857D01*
X102401666Y-101385714D01*
X102449285Y-101480952D01*
X102496904Y-101528571D01*
X102592142Y-101576190D01*
X102973095Y-101576190D01*
X101544523Y-101052381D02*
X101735000Y-101052381D01*
X101830238Y-101100000D01*
X101877857Y-101147619D01*
X101973095Y-101290476D01*
X102020714Y-101480952D01*
X102020714Y-101861905D01*
X101973095Y-101957143D01*
X101925476Y-102004762D01*
X101830238Y-102052381D01*
X101639761Y-102052381D01*
X101544523Y-102004762D01*
X101496904Y-101957143D01*
X101449285Y-101861905D01*
X101449285Y-101623810D01*
X101496904Y-101528571D01*
X101544523Y-101480952D01*
X101639761Y-101433333D01*
X101830238Y-101433333D01*
X101925476Y-101480952D01*
X101973095Y-101528571D01*
X102020714Y-101623810D01*
X102020714Y-104084524D02*
X102687381Y-104084524D01*
X101639762Y-103846428D02*
X102354048Y-103608333D01*
X102354048Y-104227381D01*
X102687381Y-104608333D02*
X101687381Y-104608333D01*
X102306429Y-104703571D02*
X102687381Y-104989286D01*
X102020714Y-104989286D02*
X102401667Y-104608333D01*
X101687381Y-105322619D02*
X101687381Y-105989286D01*
X102687381Y-105560714D01*
X92876666Y-102052381D02*
X93210000Y-101576190D01*
X93448095Y-102052381D02*
X93448095Y-101052381D01*
X93067142Y-101052381D01*
X92971904Y-101100000D01*
X92924285Y-101147619D01*
X92876666Y-101242857D01*
X92876666Y-101385714D01*
X92924285Y-101480952D01*
X92971904Y-101528571D01*
X93067142Y-101576190D01*
X93448095Y-101576190D01*
X92543333Y-101052381D02*
X91876666Y-101052381D01*
X92305238Y-102052381D01*
X92495714Y-104084524D02*
X93162381Y-104084524D01*
X92114762Y-103846428D02*
X92829048Y-103608333D01*
X92829048Y-104227381D01*
X93162381Y-104608333D02*
X92162381Y-104608333D01*
X92781429Y-104703571D02*
X93162381Y-104989286D01*
X92495714Y-104989286D02*
X92876667Y-104608333D01*
X92162381Y-105322619D02*
X92162381Y-105989286D01*
X93162381Y-105560714D01*
X83351666Y-102052381D02*
X83685000Y-101576190D01*
X83923095Y-102052381D02*
X83923095Y-101052381D01*
X83542142Y-101052381D01*
X83446904Y-101100000D01*
X83399285Y-101147619D01*
X83351666Y-101242857D01*
X83351666Y-101385714D01*
X83399285Y-101480952D01*
X83446904Y-101528571D01*
X83542142Y-101576190D01*
X83923095Y-101576190D01*
X82780238Y-101480952D02*
X82875476Y-101433333D01*
X82923095Y-101385714D01*
X82970714Y-101290476D01*
X82970714Y-101242857D01*
X82923095Y-101147619D01*
X82875476Y-101100000D01*
X82780238Y-101052381D01*
X82589761Y-101052381D01*
X82494523Y-101100000D01*
X82446904Y-101147619D01*
X82399285Y-101242857D01*
X82399285Y-101290476D01*
X82446904Y-101385714D01*
X82494523Y-101433333D01*
X82589761Y-101480952D01*
X82780238Y-101480952D01*
X82875476Y-101528571D01*
X82923095Y-101576190D01*
X82970714Y-101671429D01*
X82970714Y-101861905D01*
X82923095Y-101957143D01*
X82875476Y-102004762D01*
X82780238Y-102052381D01*
X82589761Y-102052381D01*
X82494523Y-102004762D01*
X82446904Y-101957143D01*
X82399285Y-101861905D01*
X82399285Y-101671429D01*
X82446904Y-101576190D01*
X82494523Y-101528571D01*
X82589761Y-101480952D01*
X82970714Y-104084524D02*
X83637381Y-104084524D01*
X82589762Y-103846428D02*
X83304048Y-103608333D01*
X83304048Y-104227381D01*
X83637381Y-104608333D02*
X82637381Y-104608333D01*
X83256429Y-104703571D02*
X83637381Y-104989286D01*
X82970714Y-104989286D02*
X83351667Y-104608333D01*
X82637381Y-105322619D02*
X82637381Y-105989286D01*
X83637381Y-105560714D01*
X146851666Y-102052381D02*
X147185000Y-101576190D01*
X147423095Y-102052381D02*
X147423095Y-101052381D01*
X147042142Y-101052381D01*
X146946904Y-101100000D01*
X146899285Y-101147619D01*
X146851666Y-101242857D01*
X146851666Y-101385714D01*
X146899285Y-101480952D01*
X146946904Y-101528571D01*
X147042142Y-101576190D01*
X147423095Y-101576190D01*
X146375476Y-102052381D02*
X146185000Y-102052381D01*
X146089761Y-102004762D01*
X146042142Y-101957143D01*
X145946904Y-101814286D01*
X145899285Y-101623810D01*
X145899285Y-101242857D01*
X145946904Y-101147619D01*
X145994523Y-101100000D01*
X146089761Y-101052381D01*
X146280238Y-101052381D01*
X146375476Y-101100000D01*
X146423095Y-101147619D01*
X146470714Y-101242857D01*
X146470714Y-101480952D01*
X146423095Y-101576190D01*
X146375476Y-101623810D01*
X146280238Y-101671429D01*
X146089761Y-101671429D01*
X145994523Y-101623810D01*
X145946904Y-101576190D01*
X145899285Y-101480952D01*
X146232619Y-103536905D02*
X146185000Y-103584524D01*
X146137381Y-103679762D01*
X146137381Y-103917858D01*
X146185000Y-104013096D01*
X146232619Y-104060715D01*
X146327857Y-104108334D01*
X146423095Y-104108334D01*
X146565952Y-104060715D01*
X147137381Y-103489286D01*
X147137381Y-104108334D01*
X146232619Y-104489286D02*
X146185000Y-104536905D01*
X146137381Y-104632143D01*
X146137381Y-104870239D01*
X146185000Y-104965477D01*
X146232619Y-105013096D01*
X146327857Y-105060715D01*
X146423095Y-105060715D01*
X146565952Y-105013096D01*
X147137381Y-104441667D01*
X147137381Y-105060715D01*
X146137381Y-105679762D02*
X146137381Y-105775001D01*
X146185000Y-105870239D01*
X146232619Y-105917858D01*
X146327857Y-105965477D01*
X146518333Y-106013096D01*
X146756429Y-106013096D01*
X146946905Y-105965477D01*
X147042143Y-105917858D01*
X147089762Y-105870239D01*
X147137381Y-105775001D01*
X147137381Y-105679762D01*
X147089762Y-105584524D01*
X147042143Y-105536905D01*
X146946905Y-105489286D01*
X146756429Y-105441667D01*
X146518333Y-105441667D01*
X146327857Y-105489286D01*
X146232619Y-105536905D01*
X146185000Y-105584524D01*
X146137381Y-105679762D01*
X137802857Y-102052381D02*
X138136191Y-101576190D01*
X138374286Y-102052381D02*
X138374286Y-101052381D01*
X137993333Y-101052381D01*
X137898095Y-101100000D01*
X137850476Y-101147619D01*
X137802857Y-101242857D01*
X137802857Y-101385714D01*
X137850476Y-101480952D01*
X137898095Y-101528571D01*
X137993333Y-101576190D01*
X138374286Y-101576190D01*
X136850476Y-102052381D02*
X137421905Y-102052381D01*
X137136191Y-102052381D02*
X137136191Y-101052381D01*
X137231429Y-101195238D01*
X137326667Y-101290476D01*
X137421905Y-101338095D01*
X136231429Y-101052381D02*
X136136190Y-101052381D01*
X136040952Y-101100000D01*
X135993333Y-101147619D01*
X135945714Y-101242857D01*
X135898095Y-101433333D01*
X135898095Y-101671429D01*
X135945714Y-101861905D01*
X135993333Y-101957143D01*
X136040952Y-102004762D01*
X136136190Y-102052381D01*
X136231429Y-102052381D01*
X136326667Y-102004762D01*
X136374286Y-101957143D01*
X136421905Y-101861905D01*
X136469524Y-101671429D01*
X136469524Y-101433333D01*
X136421905Y-101242857D01*
X136374286Y-101147619D01*
X136326667Y-101100000D01*
X136231429Y-101052381D01*
X136707619Y-103536905D02*
X136660000Y-103584524D01*
X136612381Y-103679762D01*
X136612381Y-103917858D01*
X136660000Y-104013096D01*
X136707619Y-104060715D01*
X136802857Y-104108334D01*
X136898095Y-104108334D01*
X137040952Y-104060715D01*
X137612381Y-103489286D01*
X137612381Y-104108334D01*
X136707619Y-104489286D02*
X136660000Y-104536905D01*
X136612381Y-104632143D01*
X136612381Y-104870239D01*
X136660000Y-104965477D01*
X136707619Y-105013096D01*
X136802857Y-105060715D01*
X136898095Y-105060715D01*
X137040952Y-105013096D01*
X137612381Y-104441667D01*
X137612381Y-105060715D01*
X136612381Y-105679762D02*
X136612381Y-105775001D01*
X136660000Y-105870239D01*
X136707619Y-105917858D01*
X136802857Y-105965477D01*
X136993333Y-106013096D01*
X137231429Y-106013096D01*
X137421905Y-105965477D01*
X137517143Y-105917858D01*
X137564762Y-105870239D01*
X137612381Y-105775001D01*
X137612381Y-105679762D01*
X137564762Y-105584524D01*
X137517143Y-105536905D01*
X137421905Y-105489286D01*
X137231429Y-105441667D01*
X136993333Y-105441667D01*
X136802857Y-105489286D01*
X136707619Y-105536905D01*
X136660000Y-105584524D01*
X136612381Y-105679762D01*
X128277857Y-102052381D02*
X128611191Y-101576190D01*
X128849286Y-102052381D02*
X128849286Y-101052381D01*
X128468333Y-101052381D01*
X128373095Y-101100000D01*
X128325476Y-101147619D01*
X128277857Y-101242857D01*
X128277857Y-101385714D01*
X128325476Y-101480952D01*
X128373095Y-101528571D01*
X128468333Y-101576190D01*
X128849286Y-101576190D01*
X127325476Y-102052381D02*
X127896905Y-102052381D01*
X127611191Y-102052381D02*
X127611191Y-101052381D01*
X127706429Y-101195238D01*
X127801667Y-101290476D01*
X127896905Y-101338095D01*
X126373095Y-102052381D02*
X126944524Y-102052381D01*
X126658810Y-102052381D02*
X126658810Y-101052381D01*
X126754048Y-101195238D01*
X126849286Y-101290476D01*
X126944524Y-101338095D01*
X127182619Y-103536905D02*
X127135000Y-103584524D01*
X127087381Y-103679762D01*
X127087381Y-103917858D01*
X127135000Y-104013096D01*
X127182619Y-104060715D01*
X127277857Y-104108334D01*
X127373095Y-104108334D01*
X127515952Y-104060715D01*
X128087381Y-103489286D01*
X128087381Y-104108334D01*
X127182619Y-104489286D02*
X127135000Y-104536905D01*
X127087381Y-104632143D01*
X127087381Y-104870239D01*
X127135000Y-104965477D01*
X127182619Y-105013096D01*
X127277857Y-105060715D01*
X127373095Y-105060715D01*
X127515952Y-105013096D01*
X128087381Y-104441667D01*
X128087381Y-105060715D01*
X127087381Y-105679762D02*
X127087381Y-105775001D01*
X127135000Y-105870239D01*
X127182619Y-105917858D01*
X127277857Y-105965477D01*
X127468333Y-106013096D01*
X127706429Y-106013096D01*
X127896905Y-105965477D01*
X127992143Y-105917858D01*
X128039762Y-105870239D01*
X128087381Y-105775001D01*
X128087381Y-105679762D01*
X128039762Y-105584524D01*
X127992143Y-105536905D01*
X127896905Y-105489286D01*
X127706429Y-105441667D01*
X127468333Y-105441667D01*
X127277857Y-105489286D01*
X127182619Y-105536905D01*
X127135000Y-105584524D01*
X127087381Y-105679762D01*
X118752857Y-102052381D02*
X119086191Y-101576190D01*
X119324286Y-102052381D02*
X119324286Y-101052381D01*
X118943333Y-101052381D01*
X118848095Y-101100000D01*
X118800476Y-101147619D01*
X118752857Y-101242857D01*
X118752857Y-101385714D01*
X118800476Y-101480952D01*
X118848095Y-101528571D01*
X118943333Y-101576190D01*
X119324286Y-101576190D01*
X117800476Y-102052381D02*
X118371905Y-102052381D01*
X118086191Y-102052381D02*
X118086191Y-101052381D01*
X118181429Y-101195238D01*
X118276667Y-101290476D01*
X118371905Y-101338095D01*
X117419524Y-101147619D02*
X117371905Y-101100000D01*
X117276667Y-101052381D01*
X117038571Y-101052381D01*
X116943333Y-101100000D01*
X116895714Y-101147619D01*
X116848095Y-101242857D01*
X116848095Y-101338095D01*
X116895714Y-101480952D01*
X117467143Y-102052381D01*
X116848095Y-102052381D01*
X117657619Y-103536905D02*
X117610000Y-103584524D01*
X117562381Y-103679762D01*
X117562381Y-103917858D01*
X117610000Y-104013096D01*
X117657619Y-104060715D01*
X117752857Y-104108334D01*
X117848095Y-104108334D01*
X117990952Y-104060715D01*
X118562381Y-103489286D01*
X118562381Y-104108334D01*
X117657619Y-104489286D02*
X117610000Y-104536905D01*
X117562381Y-104632143D01*
X117562381Y-104870239D01*
X117610000Y-104965477D01*
X117657619Y-105013096D01*
X117752857Y-105060715D01*
X117848095Y-105060715D01*
X117990952Y-105013096D01*
X118562381Y-104441667D01*
X118562381Y-105060715D01*
X117562381Y-105679762D02*
X117562381Y-105775001D01*
X117610000Y-105870239D01*
X117657619Y-105917858D01*
X117752857Y-105965477D01*
X117943333Y-106013096D01*
X118181429Y-106013096D01*
X118371905Y-105965477D01*
X118467143Y-105917858D01*
X118514762Y-105870239D01*
X118562381Y-105775001D01*
X118562381Y-105679762D01*
X118514762Y-105584524D01*
X118467143Y-105536905D01*
X118371905Y-105489286D01*
X118181429Y-105441667D01*
X117943333Y-105441667D01*
X117752857Y-105489286D01*
X117657619Y-105536905D01*
X117610000Y-105584524D01*
X117562381Y-105679762D01*
X109227857Y-102052381D02*
X109561191Y-101576190D01*
X109799286Y-102052381D02*
X109799286Y-101052381D01*
X109418333Y-101052381D01*
X109323095Y-101100000D01*
X109275476Y-101147619D01*
X109227857Y-101242857D01*
X109227857Y-101385714D01*
X109275476Y-101480952D01*
X109323095Y-101528571D01*
X109418333Y-101576190D01*
X109799286Y-101576190D01*
X108275476Y-102052381D02*
X108846905Y-102052381D01*
X108561191Y-102052381D02*
X108561191Y-101052381D01*
X108656429Y-101195238D01*
X108751667Y-101290476D01*
X108846905Y-101338095D01*
X107942143Y-101052381D02*
X107323095Y-101052381D01*
X107656429Y-101433333D01*
X107513571Y-101433333D01*
X107418333Y-101480952D01*
X107370714Y-101528571D01*
X107323095Y-101623810D01*
X107323095Y-101861905D01*
X107370714Y-101957143D01*
X107418333Y-102004762D01*
X107513571Y-102052381D01*
X107799286Y-102052381D01*
X107894524Y-102004762D01*
X107942143Y-101957143D01*
X108132619Y-103536905D02*
X108085000Y-103584524D01*
X108037381Y-103679762D01*
X108037381Y-103917858D01*
X108085000Y-104013096D01*
X108132619Y-104060715D01*
X108227857Y-104108334D01*
X108323095Y-104108334D01*
X108465952Y-104060715D01*
X109037381Y-103489286D01*
X109037381Y-104108334D01*
X108132619Y-104489286D02*
X108085000Y-104536905D01*
X108037381Y-104632143D01*
X108037381Y-104870239D01*
X108085000Y-104965477D01*
X108132619Y-105013096D01*
X108227857Y-105060715D01*
X108323095Y-105060715D01*
X108465952Y-105013096D01*
X109037381Y-104441667D01*
X109037381Y-105060715D01*
X108037381Y-105679762D02*
X108037381Y-105775001D01*
X108085000Y-105870239D01*
X108132619Y-105917858D01*
X108227857Y-105965477D01*
X108418333Y-106013096D01*
X108656429Y-106013096D01*
X108846905Y-105965477D01*
X108942143Y-105917858D01*
X108989762Y-105870239D01*
X109037381Y-105775001D01*
X109037381Y-105679762D01*
X108989762Y-105584524D01*
X108942143Y-105536905D01*
X108846905Y-105489286D01*
X108656429Y-105441667D01*
X108418333Y-105441667D01*
X108227857Y-105489286D01*
X108132619Y-105536905D01*
X108085000Y-105584524D01*
X108037381Y-105679762D01*
X99702857Y-102052381D02*
X100036191Y-101576190D01*
X100274286Y-102052381D02*
X100274286Y-101052381D01*
X99893333Y-101052381D01*
X99798095Y-101100000D01*
X99750476Y-101147619D01*
X99702857Y-101242857D01*
X99702857Y-101385714D01*
X99750476Y-101480952D01*
X99798095Y-101528571D01*
X99893333Y-101576190D01*
X100274286Y-101576190D01*
X98750476Y-102052381D02*
X99321905Y-102052381D01*
X99036191Y-102052381D02*
X99036191Y-101052381D01*
X99131429Y-101195238D01*
X99226667Y-101290476D01*
X99321905Y-101338095D01*
X97893333Y-101385714D02*
X97893333Y-102052381D01*
X98131429Y-101004762D02*
X98369524Y-101719048D01*
X97750476Y-101719048D01*
X98607619Y-103536905D02*
X98560000Y-103584524D01*
X98512381Y-103679762D01*
X98512381Y-103917858D01*
X98560000Y-104013096D01*
X98607619Y-104060715D01*
X98702857Y-104108334D01*
X98798095Y-104108334D01*
X98940952Y-104060715D01*
X99512381Y-103489286D01*
X99512381Y-104108334D01*
X98607619Y-104489286D02*
X98560000Y-104536905D01*
X98512381Y-104632143D01*
X98512381Y-104870239D01*
X98560000Y-104965477D01*
X98607619Y-105013096D01*
X98702857Y-105060715D01*
X98798095Y-105060715D01*
X98940952Y-105013096D01*
X99512381Y-104441667D01*
X99512381Y-105060715D01*
X98512381Y-105679762D02*
X98512381Y-105775001D01*
X98560000Y-105870239D01*
X98607619Y-105917858D01*
X98702857Y-105965477D01*
X98893333Y-106013096D01*
X99131429Y-106013096D01*
X99321905Y-105965477D01*
X99417143Y-105917858D01*
X99464762Y-105870239D01*
X99512381Y-105775001D01*
X99512381Y-105679762D01*
X99464762Y-105584524D01*
X99417143Y-105536905D01*
X99321905Y-105489286D01*
X99131429Y-105441667D01*
X98893333Y-105441667D01*
X98702857Y-105489286D01*
X98607619Y-105536905D01*
X98560000Y-105584524D01*
X98512381Y-105679762D01*
X90177857Y-102052381D02*
X90511191Y-101576190D01*
X90749286Y-102052381D02*
X90749286Y-101052381D01*
X90368333Y-101052381D01*
X90273095Y-101100000D01*
X90225476Y-101147619D01*
X90177857Y-101242857D01*
X90177857Y-101385714D01*
X90225476Y-101480952D01*
X90273095Y-101528571D01*
X90368333Y-101576190D01*
X90749286Y-101576190D01*
X89225476Y-102052381D02*
X89796905Y-102052381D01*
X89511191Y-102052381D02*
X89511191Y-101052381D01*
X89606429Y-101195238D01*
X89701667Y-101290476D01*
X89796905Y-101338095D01*
X88320714Y-101052381D02*
X88796905Y-101052381D01*
X88844524Y-101528571D01*
X88796905Y-101480952D01*
X88701667Y-101433333D01*
X88463571Y-101433333D01*
X88368333Y-101480952D01*
X88320714Y-101528571D01*
X88273095Y-101623810D01*
X88273095Y-101861905D01*
X88320714Y-101957143D01*
X88368333Y-102004762D01*
X88463571Y-102052381D01*
X88701667Y-102052381D01*
X88796905Y-102004762D01*
X88844524Y-101957143D01*
X89082619Y-103536905D02*
X89035000Y-103584524D01*
X88987381Y-103679762D01*
X88987381Y-103917858D01*
X89035000Y-104013096D01*
X89082619Y-104060715D01*
X89177857Y-104108334D01*
X89273095Y-104108334D01*
X89415952Y-104060715D01*
X89987381Y-103489286D01*
X89987381Y-104108334D01*
X89082619Y-104489286D02*
X89035000Y-104536905D01*
X88987381Y-104632143D01*
X88987381Y-104870239D01*
X89035000Y-104965477D01*
X89082619Y-105013096D01*
X89177857Y-105060715D01*
X89273095Y-105060715D01*
X89415952Y-105013096D01*
X89987381Y-104441667D01*
X89987381Y-105060715D01*
X88987381Y-105679762D02*
X88987381Y-105775001D01*
X89035000Y-105870239D01*
X89082619Y-105917858D01*
X89177857Y-105965477D01*
X89368333Y-106013096D01*
X89606429Y-106013096D01*
X89796905Y-105965477D01*
X89892143Y-105917858D01*
X89939762Y-105870239D01*
X89987381Y-105775001D01*
X89987381Y-105679762D01*
X89939762Y-105584524D01*
X89892143Y-105536905D01*
X89796905Y-105489286D01*
X89606429Y-105441667D01*
X89368333Y-105441667D01*
X89177857Y-105489286D01*
X89082619Y-105536905D01*
X89035000Y-105584524D01*
X88987381Y-105679762D01*
X80652857Y-102052381D02*
X80986191Y-101576190D01*
X81224286Y-102052381D02*
X81224286Y-101052381D01*
X80843333Y-101052381D01*
X80748095Y-101100000D01*
X80700476Y-101147619D01*
X80652857Y-101242857D01*
X80652857Y-101385714D01*
X80700476Y-101480952D01*
X80748095Y-101528571D01*
X80843333Y-101576190D01*
X81224286Y-101576190D01*
X79700476Y-102052381D02*
X80271905Y-102052381D01*
X79986191Y-102052381D02*
X79986191Y-101052381D01*
X80081429Y-101195238D01*
X80176667Y-101290476D01*
X80271905Y-101338095D01*
X78843333Y-101052381D02*
X79033810Y-101052381D01*
X79129048Y-101100000D01*
X79176667Y-101147619D01*
X79271905Y-101290476D01*
X79319524Y-101480952D01*
X79319524Y-101861905D01*
X79271905Y-101957143D01*
X79224286Y-102004762D01*
X79129048Y-102052381D01*
X78938571Y-102052381D01*
X78843333Y-102004762D01*
X78795714Y-101957143D01*
X78748095Y-101861905D01*
X78748095Y-101623810D01*
X78795714Y-101528571D01*
X78843333Y-101480952D01*
X78938571Y-101433333D01*
X79129048Y-101433333D01*
X79224286Y-101480952D01*
X79271905Y-101528571D01*
X79319524Y-101623810D01*
X79557619Y-103536905D02*
X79510000Y-103584524D01*
X79462381Y-103679762D01*
X79462381Y-103917858D01*
X79510000Y-104013096D01*
X79557619Y-104060715D01*
X79652857Y-104108334D01*
X79748095Y-104108334D01*
X79890952Y-104060715D01*
X80462381Y-103489286D01*
X80462381Y-104108334D01*
X79557619Y-104489286D02*
X79510000Y-104536905D01*
X79462381Y-104632143D01*
X79462381Y-104870239D01*
X79510000Y-104965477D01*
X79557619Y-105013096D01*
X79652857Y-105060715D01*
X79748095Y-105060715D01*
X79890952Y-105013096D01*
X80462381Y-104441667D01*
X80462381Y-105060715D01*
X79462381Y-105679762D02*
X79462381Y-105775001D01*
X79510000Y-105870239D01*
X79557619Y-105917858D01*
X79652857Y-105965477D01*
X79843333Y-106013096D01*
X80081429Y-106013096D01*
X80271905Y-105965477D01*
X80367143Y-105917858D01*
X80414762Y-105870239D01*
X80462381Y-105775001D01*
X80462381Y-105679762D01*
X80414762Y-105584524D01*
X80367143Y-105536905D01*
X80271905Y-105489286D01*
X80081429Y-105441667D01*
X79843333Y-105441667D01*
X79652857Y-105489286D01*
X79557619Y-105536905D01*
X79510000Y-105584524D01*
X79462381Y-105679762D01*
M02*
