M48
;DRILL file {KiCad 4.0.7} date 03/03/19 23:52:26
;FORMAT={2:4/ absolute / inch / suppress leading zeros}
FMAT,2
INCH,TZ
T1C0.016
T2C0.031
T3C0.035
T4C0.039
T5C0.043
T6C0.150
%
G90
G05
M72
T1
X31750Y-35500
X31750Y-52000
X31750Y-52500
X32000Y-46250
X32000Y-51750
X32000Y-52750
X32250Y-43250
X32250Y-46500
X32500Y-46250
X32750Y-46000
X32750Y-47500
X33000Y-45250
X33250Y-42000
X33750Y-40500
X35000Y-55000
X35250Y-54750
X35500Y-35500
X36250Y-50000
X36250Y-50500
X37000Y-54500
X38750Y-55000
X39000Y-54750
X39250Y-35500
X42250Y-42000
X42750Y-54750
X43000Y-35500
X43000Y-42000
X45000Y-41750
X45000Y-42250
X45250Y-41500
X45250Y-42000
X45500Y-39750
X45500Y-41000
X45500Y-44250
X45500Y-45000
X45750Y-40000
X45750Y-41250
X45750Y-44500
X45750Y-45250
X46000Y-40250
X46000Y-41000
X46250Y-54500
X46750Y-35500
X47000Y-40500
X47000Y-41250
X47000Y-54250
X47250Y-44500
X47250Y-45000
X47250Y-48500
X47500Y-44750
X48250Y-54250
X48500Y-41250
X48500Y-44250
X48500Y-54500
X48750Y-41000
X49250Y-41250
X49250Y-41750
X49500Y-41000
X49500Y-41500
X49500Y-42000
X49750Y-54000
X50250Y-48750
X50250Y-49750
X50250Y-54000
X50500Y-35500
X51750Y-40750
X51750Y-54250
X52000Y-39500
X53000Y-54250
X54250Y-35500
X55750Y-39250
X55750Y-40750
X58000Y-35500
X58750Y-45500
X59000Y-40750
X59750Y-45500
X63500Y-39500
X64000Y-39750
X64000Y-41000
X64500Y-41250
X67000Y-40500
X67750Y-40750
T2
X31000Y-44250
X31000Y-45250
X31000Y-46250
X31000Y-47250
X31000Y-48250
X31000Y-49250
X31000Y-50250
X31000Y-51250
X31000Y-52250
X31000Y-53250
X31500Y-38750
X31500Y-42750
X32750Y-38750
X32750Y-42750
X34000Y-44250
X34000Y-45250
X34000Y-46250
X34000Y-47250
X34000Y-48250
X34000Y-49250
X34000Y-50250
X34000Y-51250
X34000Y-52250
X34000Y-53250
X35250Y-38750
X35250Y-42750
X35500Y-44250
X35500Y-46219
X36500Y-38750
X36500Y-42750
X37000Y-44250
X37000Y-45250
X37000Y-46250
X37000Y-47250
X37000Y-48250
X37000Y-49250
X37000Y-50250
X37000Y-51250
X37000Y-52250
X37000Y-53250
X39000Y-38750
X39000Y-42750
X40000Y-44250
X40000Y-45250
X40000Y-46250
X40000Y-47250
X40000Y-48250
X40000Y-49250
X40000Y-50250
X40000Y-51250
X40000Y-52250
X40000Y-53250
X40250Y-38750
X40250Y-42750
X41500Y-44250
X41500Y-46219
X42750Y-38750
X42750Y-42750
X44000Y-38750
X44000Y-42750
X46500Y-38750
X46500Y-42750
X47750Y-38750
X47750Y-42750
X48500Y-46250
X48500Y-47250
X48500Y-48250
X48500Y-49250
X48500Y-50250
X48500Y-51250
X48500Y-52250
X48500Y-53250
X49031Y-44750
X50250Y-38750
X50250Y-42750
X51000Y-44750
X51500Y-38750
X51500Y-42750
X51500Y-46250
X51500Y-47250
X51500Y-48250
X51500Y-49250
X51500Y-50250
X51500Y-51250
X51500Y-52250
X51500Y-53250
X54000Y-38750
X54000Y-42750
X55250Y-38750
X55250Y-42750
X56750Y-46250
X56750Y-47250
X56750Y-48250
X56750Y-49250
X56750Y-50250
X56750Y-51250
X56750Y-52250
X56750Y-53250
X57281Y-44750
X57750Y-38750
X57750Y-42750
X59000Y-38750
X59000Y-42750
X59250Y-44750
X59750Y-46250
X59750Y-47250
X59750Y-48250
X59750Y-49250
X59750Y-50250
X59750Y-51250
X59750Y-52250
X59750Y-53250
T3
X32000Y-32750
X32000Y-33750
X35750Y-32750
X35750Y-33750
X39500Y-32750
X39500Y-33750
X43250Y-32750
X43250Y-33750
X47000Y-32750
X47000Y-33750
X50750Y-32750
X50750Y-33750
X54500Y-32750
X54500Y-33750
X58250Y-32750
X58250Y-33750
T4
X30500Y-55750
X31500Y-55750
X32500Y-55750
X33500Y-55750
X34500Y-55750
X35500Y-55750
X36500Y-55750
X37500Y-55750
X38500Y-55750
X39500Y-55750
X40500Y-55750
X41500Y-55750
X42500Y-55750
X43500Y-55750
X44500Y-55750
X45500Y-55750
X46500Y-55750
X47500Y-55750
X48500Y-55750
X49500Y-55750
X50500Y-55750
X51500Y-55750
X52500Y-55750
X53250Y-46250
X53250Y-47250
X53250Y-48250
X53250Y-49250
X53250Y-50250
X53250Y-51250
X53250Y-52250
X53250Y-53250
X53500Y-55750
X54250Y-46250
X54250Y-47250
X54250Y-48250
X54250Y-49250
X54250Y-50250
X54250Y-51250
X54250Y-52250
X54250Y-53250
X54500Y-55750
X55500Y-55750
X56500Y-55750
X57500Y-55750
X58500Y-55750
X59500Y-55750
X60500Y-55750
X61500Y-46250
X61500Y-47250
X61500Y-48250
X61500Y-49250
X61500Y-50250
X61500Y-51250
X61500Y-52250
X61500Y-53250
X61500Y-55750
X62500Y-46250
X62500Y-47250
X62500Y-48250
X62500Y-49250
X62500Y-50250
X62500Y-51250
X62500Y-52250
X62500Y-53250
X62500Y-55750
X63500Y-55750
X64500Y-55750
X65500Y-55750
X65750Y-41388
X65750Y-42478
X65750Y-43569
X65750Y-44659
X65750Y-45750
X66500Y-55750
X66868Y-41933
X66868Y-43024
X66868Y-44114
X66868Y-45205
X67500Y-55750
X68500Y-55750
T5
X30750Y-35500
X30750Y-37272
X33309Y-35500
X33309Y-37272
X34500Y-35500
X34500Y-37272
X37059Y-35500
X37059Y-37272
X38250Y-35500
X38250Y-37272
X40809Y-35500
X40809Y-37272
X42000Y-35500
X42000Y-37272
X44559Y-35500
X44559Y-37272
X45750Y-35500
X45750Y-37272
X48309Y-35500
X48309Y-37272
X49500Y-35500
X49500Y-37272
X52059Y-35500
X52059Y-37272
X53250Y-35500
X53250Y-37272
X55809Y-35500
X55809Y-37272
X57000Y-35500
X57000Y-37272
X59559Y-35500
X59559Y-37272
T6
X66309Y-38648
X66309Y-48490
T0
M30
