G04 #@! TF.FileFunction,Copper,L1,Top,Signal*
%FSLAX46Y46*%
G04 Gerber Fmt 4.6, Leading zero omitted, Abs format (unit mm)*
G04 Created by KiCad (PCBNEW 4.0.7) date 01/13/19 00:03:42*
%MOMM*%
%LPD*%
G01*
G04 APERTURE LIST*
%ADD10C,0.100000*%
%ADD11R,1.700000X1.700000*%
%ADD12O,1.700000X1.700000*%
%ADD13C,1.520000*%
%ADD14R,1.520000X1.520000*%
%ADD15C,1.600000*%
%ADD16O,1.600000X1.600000*%
%ADD17C,0.600000*%
%ADD18C,0.250000*%
G04 APERTURE END LIST*
D10*
D11*
X114300000Y-135255000D03*
D12*
X114300000Y-137795000D03*
X114300000Y-140335000D03*
X114300000Y-142875000D03*
D11*
X147955000Y-135255000D03*
D12*
X147955000Y-137795000D03*
X147955000Y-140335000D03*
X147955000Y-142875000D03*
D13*
X137795000Y-129540000D03*
X140335000Y-129540000D03*
D14*
X135255000Y-129540000D03*
D13*
X123825000Y-129540000D03*
X126365000Y-129540000D03*
D14*
X121285000Y-129540000D03*
D15*
X129540000Y-137795000D03*
D16*
X119380000Y-137795000D03*
D15*
X136144000Y-134112000D03*
D16*
X125984000Y-134112000D03*
D15*
X142875000Y-137795000D03*
D16*
X132715000Y-137795000D03*
D15*
X142875000Y-141605000D03*
D16*
X132715000Y-141605000D03*
D15*
X129540000Y-141605000D03*
D16*
X119380000Y-141605000D03*
D17*
X132715000Y-133350000D03*
X119380000Y-132715000D03*
X133985000Y-132715000D03*
X133985000Y-135255000D03*
D18*
X132080000Y-129540000D02*
X126365000Y-129540000D01*
X132715000Y-130175000D02*
X132080000Y-129540000D01*
X132715000Y-133350000D02*
X132715000Y-130175000D01*
X116840000Y-135255000D02*
X114300000Y-135255000D01*
X119380000Y-132715000D02*
X116840000Y-135255000D01*
X114300000Y-137795000D02*
X119380000Y-137795000D01*
X121285000Y-129540000D02*
X121285000Y-128270000D01*
X147955000Y-129540000D02*
X147955000Y-135255000D01*
X146050000Y-127635000D02*
X147955000Y-129540000D01*
X121920000Y-127635000D02*
X146050000Y-127635000D01*
X121285000Y-128270000D02*
X121920000Y-127635000D01*
X121285000Y-129540000D02*
X121285000Y-139700000D01*
X121285000Y-139700000D02*
X119380000Y-141605000D01*
X136144000Y-134112000D02*
X137033000Y-134112000D01*
X137795000Y-133350000D02*
X137795000Y-129540000D01*
X137033000Y-134112000D02*
X137795000Y-133350000D01*
X129540000Y-137795000D02*
X129540000Y-134620000D01*
X130048000Y-134112000D02*
X136144000Y-134112000D01*
X129540000Y-134620000D02*
X130048000Y-134112000D01*
X140335000Y-129540000D02*
X140335000Y-128905000D01*
X140335000Y-128905000D02*
X139700000Y-128270000D01*
X124460000Y-128270000D02*
X139065000Y-128270000D01*
X123825000Y-128905000D02*
X124460000Y-128270000D01*
X139700000Y-128270000D02*
X139065000Y-128270000D01*
X123825000Y-129540000D02*
X123825000Y-128905000D01*
X140335000Y-129540000D02*
X140335000Y-135255000D01*
X140335000Y-135255000D02*
X142875000Y-137795000D01*
X123825000Y-129540000D02*
X123825000Y-133350000D01*
X124587000Y-134112000D02*
X125984000Y-134112000D01*
X123825000Y-133350000D02*
X124587000Y-134112000D01*
X135255000Y-129540000D02*
X134620000Y-129540000D01*
X134620000Y-129540000D02*
X133985000Y-130175000D01*
X133985000Y-130175000D02*
X133985000Y-132715000D01*
X133985000Y-135255000D02*
X134620000Y-135890000D01*
X134620000Y-135890000D02*
X134620000Y-140970000D01*
X134620000Y-140970000D02*
X133985000Y-141605000D01*
X133985000Y-141605000D02*
X132715000Y-141605000D01*
M02*
