M48
;DRILL file {KiCad 4.0.7} date 01/13/19 00:03:37
;FORMAT={2:4/ absolute / inch / suppress leading zeros}
FMAT,2
INCH,TZ
T1C0.016
T2C0.031
T3C0.039
%
G90
G05
M72
T1
X47000Y-52250
X52250Y-52500
X52750Y-52250
X52750Y-53250
T2
X47000Y-54250
X47000Y-55750
X47750Y-51000
X48750Y-51000
X49600Y-52800
X49750Y-51000
X51000Y-54250
X51000Y-55750
X52250Y-54250
X52250Y-55750
X53250Y-51000
X53600Y-52800
X54250Y-51000
X55250Y-51000
X56250Y-54250
X56250Y-55750
T3
X45000Y-53250
X45000Y-54250
X45000Y-55250
X45000Y-56250
X58250Y-53250
X58250Y-54250
X58250Y-55250
X58250Y-56250
T0
M30
