G04 #@! TF.FileFunction,Legend,Bot*
%FSLAX46Y46*%
G04 Gerber Fmt 4.6, Leading zero omitted, Abs format (unit mm)*
G04 Created by KiCad (PCBNEW 4.0.7) date 01/13/19 00:03:42*
%MOMM*%
%LPD*%
G01*
G04 APERTURE LIST*
%ADD10C,0.100000*%
%ADD11C,0.250000*%
G04 APERTURE END LIST*
D10*
D11*
X141421143Y-132532381D02*
X141754477Y-132056190D01*
X141992572Y-132532381D02*
X141992572Y-131532381D01*
X141611619Y-131532381D01*
X141516381Y-131580000D01*
X141468762Y-131627619D01*
X141421143Y-131722857D01*
X141421143Y-131865714D01*
X141468762Y-131960952D01*
X141516381Y-132008571D01*
X141611619Y-132056190D01*
X141992572Y-132056190D01*
X140421143Y-132437143D02*
X140468762Y-132484762D01*
X140611619Y-132532381D01*
X140706857Y-132532381D01*
X140849715Y-132484762D01*
X140944953Y-132389524D01*
X140992572Y-132294286D01*
X141040191Y-132103810D01*
X141040191Y-131960952D01*
X140992572Y-131770476D01*
X140944953Y-131675238D01*
X140849715Y-131580000D01*
X140706857Y-131532381D01*
X140611619Y-131532381D01*
X140468762Y-131580000D01*
X140421143Y-131627619D01*
X139564000Y-131532381D02*
X139754477Y-131532381D01*
X139849715Y-131580000D01*
X139897334Y-131627619D01*
X139992572Y-131770476D01*
X140040191Y-131960952D01*
X140040191Y-132341905D01*
X139992572Y-132437143D01*
X139944953Y-132484762D01*
X139849715Y-132532381D01*
X139659238Y-132532381D01*
X139564000Y-132484762D01*
X139516381Y-132437143D01*
X139468762Y-132341905D01*
X139468762Y-132103810D01*
X139516381Y-132008571D01*
X139564000Y-131960952D01*
X139659238Y-131913333D01*
X139849715Y-131913333D01*
X139944953Y-131960952D01*
X139992572Y-132008571D01*
X140040191Y-132103810D01*
X138564000Y-131532381D02*
X139040191Y-131532381D01*
X139087810Y-132008571D01*
X139040191Y-131960952D01*
X138944953Y-131913333D01*
X138706857Y-131913333D01*
X138611619Y-131960952D01*
X138564000Y-132008571D01*
X138516381Y-132103810D01*
X138516381Y-132341905D01*
X138564000Y-132437143D01*
X138611619Y-132484762D01*
X138706857Y-132532381D01*
X138944953Y-132532381D01*
X139040191Y-132484762D01*
X139087810Y-132437143D01*
X137897334Y-131532381D02*
X137802095Y-131532381D01*
X137706857Y-131580000D01*
X137659238Y-131627619D01*
X137611619Y-131722857D01*
X137564000Y-131913333D01*
X137564000Y-132151429D01*
X137611619Y-132341905D01*
X137659238Y-132437143D01*
X137706857Y-132484762D01*
X137802095Y-132532381D01*
X137897334Y-132532381D01*
X137992572Y-132484762D01*
X138040191Y-132437143D01*
X138087810Y-132341905D01*
X138135429Y-132151429D01*
X138135429Y-131913333D01*
X138087810Y-131722857D01*
X138040191Y-131627619D01*
X137992572Y-131580000D01*
X137897334Y-131532381D01*
X137183048Y-131627619D02*
X137135429Y-131580000D01*
X137040191Y-131532381D01*
X136802095Y-131532381D01*
X136706857Y-131580000D01*
X136659238Y-131627619D01*
X136611619Y-131722857D01*
X136611619Y-131818095D01*
X136659238Y-131960952D01*
X137230667Y-132532381D01*
X136611619Y-132532381D01*
X135564000Y-131532381D02*
X135230667Y-132532381D01*
X134897333Y-131532381D01*
X134564000Y-132532381D02*
X134564000Y-131532381D01*
X134325905Y-131532381D01*
X134183047Y-131580000D01*
X134087809Y-131675238D01*
X134040190Y-131770476D01*
X133992571Y-131960952D01*
X133992571Y-132103810D01*
X134040190Y-132294286D01*
X134087809Y-132389524D01*
X134183047Y-132484762D01*
X134325905Y-132532381D01*
X134564000Y-132532381D01*
X133564000Y-131532381D02*
X133564000Y-132341905D01*
X133516381Y-132437143D01*
X133468762Y-132484762D01*
X133373524Y-132532381D01*
X133183047Y-132532381D01*
X133087809Y-132484762D01*
X133040190Y-132437143D01*
X132992571Y-132341905D01*
X132992571Y-131532381D01*
X131802095Y-132246667D02*
X131325904Y-132246667D01*
X131897333Y-132532381D02*
X131564000Y-131532381D01*
X131230666Y-132532381D01*
X130897333Y-132532381D02*
X130897333Y-131865714D01*
X130897333Y-131960952D02*
X130849714Y-131913333D01*
X130754476Y-131865714D01*
X130611618Y-131865714D01*
X130516380Y-131913333D01*
X130468761Y-132008571D01*
X130468761Y-132532381D01*
X130468761Y-132008571D02*
X130421142Y-131913333D01*
X130325904Y-131865714D01*
X130183047Y-131865714D01*
X130087809Y-131913333D01*
X130040190Y-132008571D01*
X130040190Y-132532381D01*
X129564000Y-131865714D02*
X129564000Y-132865714D01*
X129564000Y-131913333D02*
X129468762Y-131865714D01*
X129278285Y-131865714D01*
X129183047Y-131913333D01*
X129135428Y-131960952D01*
X129087809Y-132056190D01*
X129087809Y-132341905D01*
X129135428Y-132437143D01*
X129183047Y-132484762D01*
X129278285Y-132532381D01*
X129468762Y-132532381D01*
X129564000Y-132484762D01*
X128516381Y-132532381D02*
X128611619Y-132484762D01*
X128659238Y-132389524D01*
X128659238Y-131532381D01*
X128135428Y-132532381D02*
X128135428Y-131865714D01*
X128135428Y-131532381D02*
X128183047Y-131580000D01*
X128135428Y-131627619D01*
X128087809Y-131580000D01*
X128135428Y-131532381D01*
X128135428Y-131627619D01*
X127802095Y-131865714D02*
X127421143Y-131865714D01*
X127659238Y-132532381D02*
X127659238Y-131675238D01*
X127611619Y-131580000D01*
X127516381Y-131532381D01*
X127421143Y-131532381D01*
X127087809Y-132532381D02*
X127087809Y-131865714D01*
X127087809Y-131532381D02*
X127135428Y-131580000D01*
X127087809Y-131627619D01*
X127040190Y-131580000D01*
X127087809Y-131532381D01*
X127087809Y-131627619D01*
X126230666Y-132484762D02*
X126325904Y-132532381D01*
X126516381Y-132532381D01*
X126611619Y-132484762D01*
X126659238Y-132389524D01*
X126659238Y-132008571D01*
X126611619Y-131913333D01*
X126516381Y-131865714D01*
X126325904Y-131865714D01*
X126230666Y-131913333D01*
X126183047Y-132008571D01*
X126183047Y-132103810D01*
X126659238Y-132199048D01*
X125754476Y-132532381D02*
X125754476Y-131865714D01*
X125754476Y-132056190D02*
X125706857Y-131960952D01*
X125659238Y-131913333D01*
X125564000Y-131865714D01*
X125468761Y-131865714D01*
X123802094Y-132532381D02*
X124135428Y-132056190D01*
X124373523Y-132532381D02*
X124373523Y-131532381D01*
X123992570Y-131532381D01*
X123897332Y-131580000D01*
X123849713Y-131627619D01*
X123802094Y-131722857D01*
X123802094Y-131865714D01*
X123849713Y-131960952D01*
X123897332Y-132008571D01*
X123992570Y-132056190D01*
X124373523Y-132056190D01*
X122992570Y-132484762D02*
X123087808Y-132532381D01*
X123278285Y-132532381D01*
X123373523Y-132484762D01*
X123421142Y-132389524D01*
X123421142Y-132008571D01*
X123373523Y-131913333D01*
X123278285Y-131865714D01*
X123087808Y-131865714D01*
X122992570Y-131913333D01*
X122944951Y-132008571D01*
X122944951Y-132103810D01*
X123421142Y-132199048D01*
X122611618Y-131865714D02*
X122373523Y-132532381D01*
X122135427Y-131865714D01*
X121754475Y-132437143D02*
X121706856Y-132484762D01*
X121754475Y-132532381D01*
X121802094Y-132484762D01*
X121754475Y-132437143D01*
X121754475Y-132532381D01*
X120563999Y-132246667D02*
X120087808Y-132246667D01*
X120659237Y-132532381D02*
X120325904Y-131532381D01*
X119992570Y-132532381D01*
X143064002Y-140152381D02*
X143064002Y-139152381D01*
X142635430Y-140152381D02*
X142635430Y-139628571D01*
X142683049Y-139533333D01*
X142778287Y-139485714D01*
X142921145Y-139485714D01*
X143016383Y-139533333D01*
X143064002Y-139580952D01*
X142302097Y-139485714D02*
X141921145Y-139485714D01*
X142159240Y-139152381D02*
X142159240Y-140009524D01*
X142111621Y-140104762D01*
X142016383Y-140152381D01*
X141921145Y-140152381D01*
X141730668Y-139485714D02*
X141349716Y-139485714D01*
X141587811Y-139152381D02*
X141587811Y-140009524D01*
X141540192Y-140104762D01*
X141444954Y-140152381D01*
X141349716Y-140152381D01*
X141016382Y-139485714D02*
X141016382Y-140485714D01*
X141016382Y-139533333D02*
X140921144Y-139485714D01*
X140730667Y-139485714D01*
X140635429Y-139533333D01*
X140587810Y-139580952D01*
X140540191Y-139676190D01*
X140540191Y-139961905D01*
X140587810Y-140057143D01*
X140635429Y-140104762D01*
X140730667Y-140152381D01*
X140921144Y-140152381D01*
X141016382Y-140104762D01*
X140159239Y-140104762D02*
X140064001Y-140152381D01*
X139873525Y-140152381D01*
X139778286Y-140104762D01*
X139730667Y-140009524D01*
X139730667Y-139961905D01*
X139778286Y-139866667D01*
X139873525Y-139819048D01*
X140016382Y-139819048D01*
X140111620Y-139771429D01*
X140159239Y-139676190D01*
X140159239Y-139628571D01*
X140111620Y-139533333D01*
X140016382Y-139485714D01*
X139873525Y-139485714D01*
X139778286Y-139533333D01*
X139302096Y-140057143D02*
X139254477Y-140104762D01*
X139302096Y-140152381D01*
X139349715Y-140104762D01*
X139302096Y-140057143D01*
X139302096Y-140152381D01*
X139302096Y-139533333D02*
X139254477Y-139580952D01*
X139302096Y-139628571D01*
X139349715Y-139580952D01*
X139302096Y-139533333D01*
X139302096Y-139628571D01*
X138111620Y-139104762D02*
X138968763Y-140390476D01*
X137064001Y-139104762D02*
X137921144Y-140390476D01*
X136730668Y-140152381D02*
X136730668Y-139152381D01*
X136302096Y-140152381D02*
X136302096Y-139628571D01*
X136349715Y-139533333D01*
X136444953Y-139485714D01*
X136587811Y-139485714D01*
X136683049Y-139533333D01*
X136730668Y-139580952D01*
X135921144Y-139485714D02*
X135683049Y-140152381D01*
X135444953Y-139485714D01*
X134683048Y-140104762D02*
X134778286Y-140152381D01*
X134968763Y-140152381D01*
X135064001Y-140104762D01*
X135111620Y-140009524D01*
X135111620Y-139628571D01*
X135064001Y-139533333D01*
X134968763Y-139485714D01*
X134778286Y-139485714D01*
X134683048Y-139533333D01*
X134635429Y-139628571D01*
X134635429Y-139723810D01*
X135111620Y-139819048D01*
X134349715Y-139485714D02*
X133968763Y-139485714D01*
X134206858Y-139152381D02*
X134206858Y-140009524D01*
X134159239Y-140104762D01*
X134064001Y-140152381D01*
X133968763Y-140152381D01*
X133254476Y-140104762D02*
X133349714Y-140152381D01*
X133540191Y-140152381D01*
X133635429Y-140104762D01*
X133683048Y-140009524D01*
X133683048Y-139628571D01*
X133635429Y-139533333D01*
X133540191Y-139485714D01*
X133349714Y-139485714D01*
X133254476Y-139533333D01*
X133206857Y-139628571D01*
X133206857Y-139723810D01*
X133683048Y-139819048D01*
X132778286Y-140152381D02*
X132778286Y-139152381D01*
X132778286Y-139533333D02*
X132683048Y-139485714D01*
X132492571Y-139485714D01*
X132397333Y-139533333D01*
X132349714Y-139580952D01*
X132302095Y-139676190D01*
X132302095Y-139961905D01*
X132349714Y-140057143D01*
X132397333Y-140104762D01*
X132492571Y-140152381D01*
X132683048Y-140152381D01*
X132778286Y-140104762D01*
X131730667Y-140152381D02*
X131825905Y-140104762D01*
X131873524Y-140057143D01*
X131921143Y-139961905D01*
X131921143Y-139676190D01*
X131873524Y-139580952D01*
X131825905Y-139533333D01*
X131730667Y-139485714D01*
X131587809Y-139485714D01*
X131492571Y-139533333D01*
X131444952Y-139580952D01*
X131397333Y-139676190D01*
X131397333Y-139961905D01*
X131444952Y-140057143D01*
X131492571Y-140104762D01*
X131587809Y-140152381D01*
X131730667Y-140152381D01*
X130825905Y-140152381D02*
X130921143Y-140104762D01*
X130968762Y-140009524D01*
X130968762Y-139152381D01*
X130302095Y-140152381D02*
X130397333Y-140104762D01*
X130444952Y-140009524D01*
X130444952Y-139152381D01*
X129540189Y-140104762D02*
X129635427Y-140152381D01*
X129825904Y-140152381D01*
X129921142Y-140104762D01*
X129968761Y-140009524D01*
X129968761Y-139628571D01*
X129921142Y-139533333D01*
X129825904Y-139485714D01*
X129635427Y-139485714D01*
X129540189Y-139533333D01*
X129492570Y-139628571D01*
X129492570Y-139723810D01*
X129968761Y-139819048D01*
X129063999Y-140057143D02*
X129016380Y-140104762D01*
X129063999Y-140152381D01*
X129111618Y-140104762D01*
X129063999Y-140057143D01*
X129063999Y-140152381D01*
X128587809Y-140152381D02*
X128587809Y-139152381D01*
X128587809Y-139533333D02*
X128492571Y-139485714D01*
X128302094Y-139485714D01*
X128206856Y-139533333D01*
X128159237Y-139580952D01*
X128111618Y-139676190D01*
X128111618Y-139961905D01*
X128159237Y-140057143D01*
X128206856Y-140104762D01*
X128302094Y-140152381D01*
X128492571Y-140152381D01*
X128587809Y-140104762D01*
X127540190Y-140152381D02*
X127635428Y-140104762D01*
X127683047Y-140009524D01*
X127683047Y-139152381D01*
X127016380Y-140152381D02*
X127111618Y-140104762D01*
X127159237Y-140057143D01*
X127206856Y-139961905D01*
X127206856Y-139676190D01*
X127159237Y-139580952D01*
X127111618Y-139533333D01*
X127016380Y-139485714D01*
X126873522Y-139485714D01*
X126778284Y-139533333D01*
X126730665Y-139580952D01*
X126683046Y-139676190D01*
X126683046Y-139961905D01*
X126730665Y-140057143D01*
X126778284Y-140104762D01*
X126873522Y-140152381D01*
X127016380Y-140152381D01*
X125825903Y-139485714D02*
X125825903Y-140295238D01*
X125873522Y-140390476D01*
X125921141Y-140438095D01*
X126016380Y-140485714D01*
X126159237Y-140485714D01*
X126254475Y-140438095D01*
X125825903Y-140104762D02*
X125921141Y-140152381D01*
X126111618Y-140152381D01*
X126206856Y-140104762D01*
X126254475Y-140057143D01*
X126302094Y-139961905D01*
X126302094Y-139676190D01*
X126254475Y-139580952D01*
X126206856Y-139533333D01*
X126111618Y-139485714D01*
X125921141Y-139485714D01*
X125825903Y-139533333D01*
X125397332Y-140104762D02*
X125302094Y-140152381D01*
X125111618Y-140152381D01*
X125016379Y-140104762D01*
X124968760Y-140009524D01*
X124968760Y-139961905D01*
X125016379Y-139866667D01*
X125111618Y-139819048D01*
X125254475Y-139819048D01*
X125349713Y-139771429D01*
X125397332Y-139676190D01*
X125397332Y-139628571D01*
X125349713Y-139533333D01*
X125254475Y-139485714D01*
X125111618Y-139485714D01*
X125016379Y-139533333D01*
X124540189Y-139485714D02*
X124540189Y-140485714D01*
X124540189Y-139533333D02*
X124444951Y-139485714D01*
X124254474Y-139485714D01*
X124159236Y-139533333D01*
X124111617Y-139580952D01*
X124063998Y-139676190D01*
X124063998Y-139961905D01*
X124111617Y-140057143D01*
X124159236Y-140104762D01*
X124254474Y-140152381D01*
X124444951Y-140152381D01*
X124540189Y-140104762D01*
X123492570Y-140152381D02*
X123587808Y-140104762D01*
X123635427Y-140057143D01*
X123683046Y-139961905D01*
X123683046Y-139676190D01*
X123635427Y-139580952D01*
X123587808Y-139533333D01*
X123492570Y-139485714D01*
X123349712Y-139485714D01*
X123254474Y-139533333D01*
X123206855Y-139580952D01*
X123159236Y-139676190D01*
X123159236Y-139961905D01*
X123206855Y-140057143D01*
X123254474Y-140104762D01*
X123349712Y-140152381D01*
X123492570Y-140152381D01*
X122873522Y-139485714D02*
X122492570Y-139485714D01*
X122730665Y-139152381D02*
X122730665Y-140009524D01*
X122683046Y-140104762D01*
X122587808Y-140152381D01*
X122492570Y-140152381D01*
X122159236Y-140057143D02*
X122111617Y-140104762D01*
X122159236Y-140152381D01*
X122206855Y-140104762D01*
X122159236Y-140057143D01*
X122159236Y-140152381D01*
X121254474Y-140104762D02*
X121349712Y-140152381D01*
X121540189Y-140152381D01*
X121635427Y-140104762D01*
X121683046Y-140057143D01*
X121730665Y-139961905D01*
X121730665Y-139676190D01*
X121683046Y-139580952D01*
X121635427Y-139533333D01*
X121540189Y-139485714D01*
X121349712Y-139485714D01*
X121254474Y-139533333D01*
X120683046Y-140152381D02*
X120778284Y-140104762D01*
X120825903Y-140057143D01*
X120873522Y-139961905D01*
X120873522Y-139676190D01*
X120825903Y-139580952D01*
X120778284Y-139533333D01*
X120683046Y-139485714D01*
X120540188Y-139485714D01*
X120444950Y-139533333D01*
X120397331Y-139580952D01*
X120349712Y-139676190D01*
X120349712Y-139961905D01*
X120397331Y-140057143D01*
X120444950Y-140104762D01*
X120540188Y-140152381D01*
X120683046Y-140152381D01*
X119921141Y-140152381D02*
X119921141Y-139485714D01*
X119921141Y-139580952D02*
X119873522Y-139533333D01*
X119778284Y-139485714D01*
X119635426Y-139485714D01*
X119540188Y-139533333D01*
X119492569Y-139628571D01*
X119492569Y-140152381D01*
X119492569Y-139628571D02*
X119444950Y-139533333D01*
X119349712Y-139485714D01*
X119206855Y-139485714D01*
X119111617Y-139533333D01*
X119063998Y-139628571D01*
X119063998Y-140152381D01*
M02*
