G04 #@! TF.FileFunction,Copper,L2,Bot,Signal*
%FSLAX46Y46*%
G04 Gerber Fmt 4.6, Leading zero omitted, Abs format (unit mm)*
G04 Created by KiCad (PCBNEW 4.0.7) date 01/13/19 00:03:42*
%MOMM*%
%LPD*%
G01*
G04 APERTURE LIST*
%ADD10C,0.100000*%
%ADD11R,1.700000X1.700000*%
%ADD12O,1.700000X1.700000*%
%ADD13C,1.520000*%
%ADD14R,1.520000X1.520000*%
%ADD15C,1.600000*%
%ADD16O,1.600000X1.600000*%
%ADD17C,0.600000*%
%ADD18C,0.250000*%
%ADD19C,0.254000*%
G04 APERTURE END LIST*
D10*
D11*
X114300000Y-135255000D03*
D12*
X114300000Y-137795000D03*
X114300000Y-140335000D03*
X114300000Y-142875000D03*
D11*
X147955000Y-135255000D03*
D12*
X147955000Y-137795000D03*
X147955000Y-140335000D03*
X147955000Y-142875000D03*
D13*
X137795000Y-129540000D03*
X140335000Y-129540000D03*
D14*
X135255000Y-129540000D03*
D13*
X123825000Y-129540000D03*
X126365000Y-129540000D03*
D14*
X121285000Y-129540000D03*
D15*
X129540000Y-137795000D03*
D16*
X119380000Y-137795000D03*
D15*
X136144000Y-134112000D03*
D16*
X125984000Y-134112000D03*
D15*
X142875000Y-137795000D03*
D16*
X132715000Y-137795000D03*
D15*
X142875000Y-141605000D03*
D16*
X132715000Y-141605000D03*
D15*
X129540000Y-141605000D03*
D16*
X119380000Y-141605000D03*
D17*
X132715000Y-133350000D03*
X119380000Y-132715000D03*
X133985000Y-132715000D03*
X133985000Y-135255000D03*
D18*
X132715000Y-137795000D02*
X132715000Y-133350000D01*
X126365000Y-129540000D02*
X126365000Y-130810000D01*
X120650000Y-131445000D02*
X119380000Y-132715000D01*
X125730000Y-131445000D02*
X120650000Y-131445000D01*
X126365000Y-130810000D02*
X125730000Y-131445000D01*
X133985000Y-132715000D02*
X133985000Y-135255000D01*
D19*
G36*
X148515000Y-133757560D02*
X147105000Y-133757560D01*
X146869683Y-133801838D01*
X146653559Y-133940910D01*
X146508569Y-134153110D01*
X146457560Y-134405000D01*
X146457560Y-136105000D01*
X146501838Y-136340317D01*
X146640910Y-136556441D01*
X146853110Y-136701431D01*
X146961107Y-136723301D01*
X146683355Y-137028076D01*
X146513524Y-137438110D01*
X146634845Y-137668000D01*
X147828000Y-137668000D01*
X147828000Y-137648000D01*
X148082000Y-137648000D01*
X148082000Y-137668000D01*
X148102000Y-137668000D01*
X148102000Y-137922000D01*
X148082000Y-137922000D01*
X148082000Y-140208000D01*
X148102000Y-140208000D01*
X148102000Y-140462000D01*
X148082000Y-140462000D01*
X148082000Y-140482000D01*
X147828000Y-140482000D01*
X147828000Y-140462000D01*
X146634845Y-140462000D01*
X146513524Y-140691890D01*
X146683355Y-141101924D01*
X147073642Y-141530183D01*
X147216553Y-141597298D01*
X146875853Y-141824946D01*
X146553946Y-142306715D01*
X146440907Y-142875000D01*
X146553946Y-143443285D01*
X146875853Y-143925054D01*
X147092781Y-144070000D01*
X115181525Y-144070000D01*
X115571645Y-143641924D01*
X115741476Y-143231890D01*
X115620155Y-143002000D01*
X114427000Y-143002000D01*
X114427000Y-143022000D01*
X114173000Y-143022000D01*
X114173000Y-143002000D01*
X114153000Y-143002000D01*
X114153000Y-142748000D01*
X114173000Y-142748000D01*
X114173000Y-142728000D01*
X114427000Y-142728000D01*
X114427000Y-142748000D01*
X115620155Y-142748000D01*
X115741476Y-142518110D01*
X115571645Y-142108076D01*
X115181358Y-141679817D01*
X115038447Y-141612702D01*
X115049973Y-141605000D01*
X117916887Y-141605000D01*
X118026120Y-142154151D01*
X118337189Y-142619698D01*
X118802736Y-142930767D01*
X119351887Y-143040000D01*
X119408113Y-143040000D01*
X119957264Y-142930767D01*
X120422811Y-142619698D01*
X120427456Y-142612745D01*
X128711861Y-142612745D01*
X128785995Y-142858864D01*
X129323223Y-143051965D01*
X129893454Y-143024778D01*
X130294005Y-142858864D01*
X130368139Y-142612745D01*
X129540000Y-141784605D01*
X128711861Y-142612745D01*
X120427456Y-142612745D01*
X120733880Y-142154151D01*
X120843113Y-141605000D01*
X120799994Y-141388223D01*
X128093035Y-141388223D01*
X128120222Y-141958454D01*
X128286136Y-142359005D01*
X128532255Y-142433139D01*
X129360395Y-141605000D01*
X129719605Y-141605000D01*
X130547745Y-142433139D01*
X130793864Y-142359005D01*
X130986965Y-141821777D01*
X130976630Y-141605000D01*
X131251887Y-141605000D01*
X131361120Y-142154151D01*
X131672189Y-142619698D01*
X132137736Y-142930767D01*
X132686887Y-143040000D01*
X132743113Y-143040000D01*
X133292264Y-142930767D01*
X133757811Y-142619698D01*
X133762456Y-142612745D01*
X142046861Y-142612745D01*
X142120995Y-142858864D01*
X142658223Y-143051965D01*
X143228454Y-143024778D01*
X143629005Y-142858864D01*
X143703139Y-142612745D01*
X142875000Y-141784605D01*
X142046861Y-142612745D01*
X133762456Y-142612745D01*
X134068880Y-142154151D01*
X134178113Y-141605000D01*
X134134994Y-141388223D01*
X141428035Y-141388223D01*
X141455222Y-141958454D01*
X141621136Y-142359005D01*
X141867255Y-142433139D01*
X142695395Y-141605000D01*
X143054605Y-141605000D01*
X143882745Y-142433139D01*
X144128864Y-142359005D01*
X144321965Y-141821777D01*
X144294778Y-141251546D01*
X144128864Y-140850995D01*
X143882745Y-140776861D01*
X143054605Y-141605000D01*
X142695395Y-141605000D01*
X141867255Y-140776861D01*
X141621136Y-140850995D01*
X141428035Y-141388223D01*
X134134994Y-141388223D01*
X134068880Y-141055849D01*
X133762457Y-140597255D01*
X142046861Y-140597255D01*
X142875000Y-141425395D01*
X143703139Y-140597255D01*
X143629005Y-140351136D01*
X143091777Y-140158035D01*
X142521546Y-140185222D01*
X142120995Y-140351136D01*
X142046861Y-140597255D01*
X133762457Y-140597255D01*
X133757811Y-140590302D01*
X133292264Y-140279233D01*
X132743113Y-140170000D01*
X132686887Y-140170000D01*
X132137736Y-140279233D01*
X131672189Y-140590302D01*
X131361120Y-141055849D01*
X131251887Y-141605000D01*
X130976630Y-141605000D01*
X130959778Y-141251546D01*
X130793864Y-140850995D01*
X130547745Y-140776861D01*
X129719605Y-141605000D01*
X129360395Y-141605000D01*
X128532255Y-140776861D01*
X128286136Y-140850995D01*
X128093035Y-141388223D01*
X120799994Y-141388223D01*
X120733880Y-141055849D01*
X120427457Y-140597255D01*
X128711861Y-140597255D01*
X129540000Y-141425395D01*
X130368139Y-140597255D01*
X130294005Y-140351136D01*
X129756777Y-140158035D01*
X129186546Y-140185222D01*
X128785995Y-140351136D01*
X128711861Y-140597255D01*
X120427457Y-140597255D01*
X120422811Y-140590302D01*
X119957264Y-140279233D01*
X119408113Y-140170000D01*
X119351887Y-140170000D01*
X118802736Y-140279233D01*
X118337189Y-140590302D01*
X118026120Y-141055849D01*
X117916887Y-141605000D01*
X115049973Y-141605000D01*
X115379147Y-141385054D01*
X115701054Y-140903285D01*
X115814093Y-140335000D01*
X115701054Y-139766715D01*
X115379147Y-139284946D01*
X115049974Y-139065000D01*
X115379147Y-138845054D01*
X115701054Y-138363285D01*
X115814093Y-137795000D01*
X117916887Y-137795000D01*
X118026120Y-138344151D01*
X118337189Y-138809698D01*
X118802736Y-139120767D01*
X119351887Y-139230000D01*
X119408113Y-139230000D01*
X119957264Y-139120767D01*
X120422811Y-138809698D01*
X120733880Y-138344151D01*
X120786584Y-138079187D01*
X128104752Y-138079187D01*
X128322757Y-138606800D01*
X128726077Y-139010824D01*
X129253309Y-139229750D01*
X129824187Y-139230248D01*
X130351800Y-139012243D01*
X130755824Y-138608923D01*
X130974750Y-138081691D01*
X130975000Y-137795000D01*
X131251887Y-137795000D01*
X131361120Y-138344151D01*
X131672189Y-138809698D01*
X132137736Y-139120767D01*
X132686887Y-139230000D01*
X132743113Y-139230000D01*
X133292264Y-139120767D01*
X133757811Y-138809698D01*
X134068880Y-138344151D01*
X134121584Y-138079187D01*
X141439752Y-138079187D01*
X141657757Y-138606800D01*
X142061077Y-139010824D01*
X142588309Y-139229750D01*
X143159187Y-139230248D01*
X143686800Y-139012243D01*
X144090824Y-138608923D01*
X144280600Y-138151890D01*
X146513524Y-138151890D01*
X146683355Y-138561924D01*
X147073642Y-138990183D01*
X147232954Y-139065000D01*
X147073642Y-139139817D01*
X146683355Y-139568076D01*
X146513524Y-139978110D01*
X146634845Y-140208000D01*
X147828000Y-140208000D01*
X147828000Y-137922000D01*
X146634845Y-137922000D01*
X146513524Y-138151890D01*
X144280600Y-138151890D01*
X144309750Y-138081691D01*
X144310248Y-137510813D01*
X144092243Y-136983200D01*
X143688923Y-136579176D01*
X143161691Y-136360250D01*
X142590813Y-136359752D01*
X142063200Y-136577757D01*
X141659176Y-136981077D01*
X141440250Y-137508309D01*
X141439752Y-138079187D01*
X134121584Y-138079187D01*
X134178113Y-137795000D01*
X134068880Y-137245849D01*
X133757811Y-136780302D01*
X133475000Y-136591333D01*
X133475000Y-136055633D01*
X133798201Y-136189838D01*
X134170167Y-136190162D01*
X134513943Y-136048117D01*
X134777192Y-135785327D01*
X134919838Y-135441799D01*
X134920162Y-135069833D01*
X134778117Y-134726057D01*
X134745000Y-134692882D01*
X134745000Y-134483914D01*
X134926757Y-134923800D01*
X135330077Y-135327824D01*
X135857309Y-135546750D01*
X136428187Y-135547248D01*
X136955800Y-135329243D01*
X137359824Y-134925923D01*
X137578750Y-134398691D01*
X137579248Y-133827813D01*
X137361243Y-133300200D01*
X136957923Y-132896176D01*
X136430691Y-132677250D01*
X135859813Y-132676752D01*
X135332200Y-132894757D01*
X134928176Y-133298077D01*
X134745000Y-133739213D01*
X134745000Y-133277463D01*
X134777192Y-133245327D01*
X134919838Y-132901799D01*
X134920162Y-132529833D01*
X134778117Y-132186057D01*
X134515327Y-131922808D01*
X134171799Y-131780162D01*
X133799833Y-131779838D01*
X133456057Y-131921883D01*
X133192808Y-132184673D01*
X133068378Y-132484332D01*
X132901799Y-132415162D01*
X132529833Y-132414838D01*
X132186057Y-132556883D01*
X131922808Y-132819673D01*
X131780162Y-133163201D01*
X131779838Y-133535167D01*
X131921883Y-133878943D01*
X131955000Y-133912118D01*
X131955000Y-136591333D01*
X131672189Y-136780302D01*
X131361120Y-137245849D01*
X131251887Y-137795000D01*
X130975000Y-137795000D01*
X130975248Y-137510813D01*
X130757243Y-136983200D01*
X130353923Y-136579176D01*
X129826691Y-136360250D01*
X129255813Y-136359752D01*
X128728200Y-136577757D01*
X128324176Y-136981077D01*
X128105250Y-137508309D01*
X128104752Y-138079187D01*
X120786584Y-138079187D01*
X120843113Y-137795000D01*
X120733880Y-137245849D01*
X120422811Y-136780302D01*
X119957264Y-136469233D01*
X119408113Y-136360000D01*
X119351887Y-136360000D01*
X118802736Y-136469233D01*
X118337189Y-136780302D01*
X118026120Y-137245849D01*
X117916887Y-137795000D01*
X115814093Y-137795000D01*
X115701054Y-137226715D01*
X115379147Y-136744946D01*
X115337548Y-136717150D01*
X115385317Y-136708162D01*
X115601441Y-136569090D01*
X115746431Y-136356890D01*
X115797440Y-136105000D01*
X115797440Y-134405000D01*
X115753162Y-134169683D01*
X115716045Y-134112000D01*
X124520887Y-134112000D01*
X124630120Y-134661151D01*
X124941189Y-135126698D01*
X125406736Y-135437767D01*
X125955887Y-135547000D01*
X126012113Y-135547000D01*
X126561264Y-135437767D01*
X127026811Y-135126698D01*
X127337880Y-134661151D01*
X127447113Y-134112000D01*
X127337880Y-133562849D01*
X127026811Y-133097302D01*
X126561264Y-132786233D01*
X126012113Y-132677000D01*
X125955887Y-132677000D01*
X125406736Y-132786233D01*
X124941189Y-133097302D01*
X124630120Y-133562849D01*
X124520887Y-134112000D01*
X115716045Y-134112000D01*
X115614090Y-133953559D01*
X115401890Y-133808569D01*
X115150000Y-133757560D01*
X113450000Y-133757560D01*
X113214683Y-133801838D01*
X113105000Y-133872417D01*
X113105000Y-132900167D01*
X118444838Y-132900167D01*
X118586883Y-133243943D01*
X118849673Y-133507192D01*
X119193201Y-133649838D01*
X119565167Y-133650162D01*
X119908943Y-133508117D01*
X120172192Y-133245327D01*
X120314838Y-132901799D01*
X120314879Y-132854923D01*
X120964802Y-132205000D01*
X125730000Y-132205000D01*
X126020839Y-132147148D01*
X126267401Y-131982401D01*
X126902401Y-131347401D01*
X127067148Y-131100839D01*
X127125000Y-130810000D01*
X127125000Y-130735367D01*
X127154172Y-130723313D01*
X127546934Y-130331236D01*
X127759758Y-129818700D01*
X127760242Y-129263735D01*
X127560367Y-128780000D01*
X133847560Y-128780000D01*
X133847560Y-130300000D01*
X133891838Y-130535317D01*
X134030910Y-130751441D01*
X134243110Y-130896431D01*
X134495000Y-130947440D01*
X136015000Y-130947440D01*
X136250317Y-130903162D01*
X136466441Y-130764090D01*
X136611431Y-130551890D01*
X136648969Y-130366520D01*
X137003764Y-130721934D01*
X137516300Y-130934758D01*
X138071265Y-130935242D01*
X138584172Y-130723313D01*
X138976934Y-130331236D01*
X139064954Y-130119262D01*
X139151687Y-130329172D01*
X139543764Y-130721934D01*
X140056300Y-130934758D01*
X140611265Y-130935242D01*
X141124172Y-130723313D01*
X141516934Y-130331236D01*
X141729758Y-129818700D01*
X141730242Y-129263735D01*
X141518313Y-128750828D01*
X141126236Y-128358066D01*
X140613700Y-128145242D01*
X140058735Y-128144758D01*
X139545828Y-128356687D01*
X139153066Y-128748764D01*
X139065046Y-128960738D01*
X138978313Y-128750828D01*
X138586236Y-128358066D01*
X138073700Y-128145242D01*
X137518735Y-128144758D01*
X137005828Y-128356687D01*
X136649684Y-128712210D01*
X136618162Y-128544683D01*
X136479090Y-128328559D01*
X136266890Y-128183569D01*
X136015000Y-128132560D01*
X134495000Y-128132560D01*
X134259683Y-128176838D01*
X134043559Y-128315910D01*
X133898569Y-128528110D01*
X133847560Y-128780000D01*
X127560367Y-128780000D01*
X127548313Y-128750828D01*
X127156236Y-128358066D01*
X126643700Y-128145242D01*
X126088735Y-128144758D01*
X125575828Y-128356687D01*
X125183066Y-128748764D01*
X125095046Y-128960738D01*
X125008313Y-128750828D01*
X124616236Y-128358066D01*
X124103700Y-128145242D01*
X123548735Y-128144758D01*
X123035828Y-128356687D01*
X122679684Y-128712210D01*
X122648162Y-128544683D01*
X122509090Y-128328559D01*
X122296890Y-128183569D01*
X122045000Y-128132560D01*
X120525000Y-128132560D01*
X120289683Y-128176838D01*
X120073559Y-128315910D01*
X119928569Y-128528110D01*
X119877560Y-128780000D01*
X119877560Y-130300000D01*
X119921838Y-130535317D01*
X120060910Y-130751441D01*
X120202014Y-130847853D01*
X120112599Y-130907599D01*
X119240320Y-131779878D01*
X119194833Y-131779838D01*
X118851057Y-131921883D01*
X118587808Y-132184673D01*
X118445162Y-132528201D01*
X118444838Y-132900167D01*
X113105000Y-132900167D01*
X113105000Y-127710000D01*
X148515000Y-127710000D01*
X148515000Y-133757560D01*
X148515000Y-133757560D01*
G37*
X148515000Y-133757560D02*
X147105000Y-133757560D01*
X146869683Y-133801838D01*
X146653559Y-133940910D01*
X146508569Y-134153110D01*
X146457560Y-134405000D01*
X146457560Y-136105000D01*
X146501838Y-136340317D01*
X146640910Y-136556441D01*
X146853110Y-136701431D01*
X146961107Y-136723301D01*
X146683355Y-137028076D01*
X146513524Y-137438110D01*
X146634845Y-137668000D01*
X147828000Y-137668000D01*
X147828000Y-137648000D01*
X148082000Y-137648000D01*
X148082000Y-137668000D01*
X148102000Y-137668000D01*
X148102000Y-137922000D01*
X148082000Y-137922000D01*
X148082000Y-140208000D01*
X148102000Y-140208000D01*
X148102000Y-140462000D01*
X148082000Y-140462000D01*
X148082000Y-140482000D01*
X147828000Y-140482000D01*
X147828000Y-140462000D01*
X146634845Y-140462000D01*
X146513524Y-140691890D01*
X146683355Y-141101924D01*
X147073642Y-141530183D01*
X147216553Y-141597298D01*
X146875853Y-141824946D01*
X146553946Y-142306715D01*
X146440907Y-142875000D01*
X146553946Y-143443285D01*
X146875853Y-143925054D01*
X147092781Y-144070000D01*
X115181525Y-144070000D01*
X115571645Y-143641924D01*
X115741476Y-143231890D01*
X115620155Y-143002000D01*
X114427000Y-143002000D01*
X114427000Y-143022000D01*
X114173000Y-143022000D01*
X114173000Y-143002000D01*
X114153000Y-143002000D01*
X114153000Y-142748000D01*
X114173000Y-142748000D01*
X114173000Y-142728000D01*
X114427000Y-142728000D01*
X114427000Y-142748000D01*
X115620155Y-142748000D01*
X115741476Y-142518110D01*
X115571645Y-142108076D01*
X115181358Y-141679817D01*
X115038447Y-141612702D01*
X115049973Y-141605000D01*
X117916887Y-141605000D01*
X118026120Y-142154151D01*
X118337189Y-142619698D01*
X118802736Y-142930767D01*
X119351887Y-143040000D01*
X119408113Y-143040000D01*
X119957264Y-142930767D01*
X120422811Y-142619698D01*
X120427456Y-142612745D01*
X128711861Y-142612745D01*
X128785995Y-142858864D01*
X129323223Y-143051965D01*
X129893454Y-143024778D01*
X130294005Y-142858864D01*
X130368139Y-142612745D01*
X129540000Y-141784605D01*
X128711861Y-142612745D01*
X120427456Y-142612745D01*
X120733880Y-142154151D01*
X120843113Y-141605000D01*
X120799994Y-141388223D01*
X128093035Y-141388223D01*
X128120222Y-141958454D01*
X128286136Y-142359005D01*
X128532255Y-142433139D01*
X129360395Y-141605000D01*
X129719605Y-141605000D01*
X130547745Y-142433139D01*
X130793864Y-142359005D01*
X130986965Y-141821777D01*
X130976630Y-141605000D01*
X131251887Y-141605000D01*
X131361120Y-142154151D01*
X131672189Y-142619698D01*
X132137736Y-142930767D01*
X132686887Y-143040000D01*
X132743113Y-143040000D01*
X133292264Y-142930767D01*
X133757811Y-142619698D01*
X133762456Y-142612745D01*
X142046861Y-142612745D01*
X142120995Y-142858864D01*
X142658223Y-143051965D01*
X143228454Y-143024778D01*
X143629005Y-142858864D01*
X143703139Y-142612745D01*
X142875000Y-141784605D01*
X142046861Y-142612745D01*
X133762456Y-142612745D01*
X134068880Y-142154151D01*
X134178113Y-141605000D01*
X134134994Y-141388223D01*
X141428035Y-141388223D01*
X141455222Y-141958454D01*
X141621136Y-142359005D01*
X141867255Y-142433139D01*
X142695395Y-141605000D01*
X143054605Y-141605000D01*
X143882745Y-142433139D01*
X144128864Y-142359005D01*
X144321965Y-141821777D01*
X144294778Y-141251546D01*
X144128864Y-140850995D01*
X143882745Y-140776861D01*
X143054605Y-141605000D01*
X142695395Y-141605000D01*
X141867255Y-140776861D01*
X141621136Y-140850995D01*
X141428035Y-141388223D01*
X134134994Y-141388223D01*
X134068880Y-141055849D01*
X133762457Y-140597255D01*
X142046861Y-140597255D01*
X142875000Y-141425395D01*
X143703139Y-140597255D01*
X143629005Y-140351136D01*
X143091777Y-140158035D01*
X142521546Y-140185222D01*
X142120995Y-140351136D01*
X142046861Y-140597255D01*
X133762457Y-140597255D01*
X133757811Y-140590302D01*
X133292264Y-140279233D01*
X132743113Y-140170000D01*
X132686887Y-140170000D01*
X132137736Y-140279233D01*
X131672189Y-140590302D01*
X131361120Y-141055849D01*
X131251887Y-141605000D01*
X130976630Y-141605000D01*
X130959778Y-141251546D01*
X130793864Y-140850995D01*
X130547745Y-140776861D01*
X129719605Y-141605000D01*
X129360395Y-141605000D01*
X128532255Y-140776861D01*
X128286136Y-140850995D01*
X128093035Y-141388223D01*
X120799994Y-141388223D01*
X120733880Y-141055849D01*
X120427457Y-140597255D01*
X128711861Y-140597255D01*
X129540000Y-141425395D01*
X130368139Y-140597255D01*
X130294005Y-140351136D01*
X129756777Y-140158035D01*
X129186546Y-140185222D01*
X128785995Y-140351136D01*
X128711861Y-140597255D01*
X120427457Y-140597255D01*
X120422811Y-140590302D01*
X119957264Y-140279233D01*
X119408113Y-140170000D01*
X119351887Y-140170000D01*
X118802736Y-140279233D01*
X118337189Y-140590302D01*
X118026120Y-141055849D01*
X117916887Y-141605000D01*
X115049973Y-141605000D01*
X115379147Y-141385054D01*
X115701054Y-140903285D01*
X115814093Y-140335000D01*
X115701054Y-139766715D01*
X115379147Y-139284946D01*
X115049974Y-139065000D01*
X115379147Y-138845054D01*
X115701054Y-138363285D01*
X115814093Y-137795000D01*
X117916887Y-137795000D01*
X118026120Y-138344151D01*
X118337189Y-138809698D01*
X118802736Y-139120767D01*
X119351887Y-139230000D01*
X119408113Y-139230000D01*
X119957264Y-139120767D01*
X120422811Y-138809698D01*
X120733880Y-138344151D01*
X120786584Y-138079187D01*
X128104752Y-138079187D01*
X128322757Y-138606800D01*
X128726077Y-139010824D01*
X129253309Y-139229750D01*
X129824187Y-139230248D01*
X130351800Y-139012243D01*
X130755824Y-138608923D01*
X130974750Y-138081691D01*
X130975000Y-137795000D01*
X131251887Y-137795000D01*
X131361120Y-138344151D01*
X131672189Y-138809698D01*
X132137736Y-139120767D01*
X132686887Y-139230000D01*
X132743113Y-139230000D01*
X133292264Y-139120767D01*
X133757811Y-138809698D01*
X134068880Y-138344151D01*
X134121584Y-138079187D01*
X141439752Y-138079187D01*
X141657757Y-138606800D01*
X142061077Y-139010824D01*
X142588309Y-139229750D01*
X143159187Y-139230248D01*
X143686800Y-139012243D01*
X144090824Y-138608923D01*
X144280600Y-138151890D01*
X146513524Y-138151890D01*
X146683355Y-138561924D01*
X147073642Y-138990183D01*
X147232954Y-139065000D01*
X147073642Y-139139817D01*
X146683355Y-139568076D01*
X146513524Y-139978110D01*
X146634845Y-140208000D01*
X147828000Y-140208000D01*
X147828000Y-137922000D01*
X146634845Y-137922000D01*
X146513524Y-138151890D01*
X144280600Y-138151890D01*
X144309750Y-138081691D01*
X144310248Y-137510813D01*
X144092243Y-136983200D01*
X143688923Y-136579176D01*
X143161691Y-136360250D01*
X142590813Y-136359752D01*
X142063200Y-136577757D01*
X141659176Y-136981077D01*
X141440250Y-137508309D01*
X141439752Y-138079187D01*
X134121584Y-138079187D01*
X134178113Y-137795000D01*
X134068880Y-137245849D01*
X133757811Y-136780302D01*
X133475000Y-136591333D01*
X133475000Y-136055633D01*
X133798201Y-136189838D01*
X134170167Y-136190162D01*
X134513943Y-136048117D01*
X134777192Y-135785327D01*
X134919838Y-135441799D01*
X134920162Y-135069833D01*
X134778117Y-134726057D01*
X134745000Y-134692882D01*
X134745000Y-134483914D01*
X134926757Y-134923800D01*
X135330077Y-135327824D01*
X135857309Y-135546750D01*
X136428187Y-135547248D01*
X136955800Y-135329243D01*
X137359824Y-134925923D01*
X137578750Y-134398691D01*
X137579248Y-133827813D01*
X137361243Y-133300200D01*
X136957923Y-132896176D01*
X136430691Y-132677250D01*
X135859813Y-132676752D01*
X135332200Y-132894757D01*
X134928176Y-133298077D01*
X134745000Y-133739213D01*
X134745000Y-133277463D01*
X134777192Y-133245327D01*
X134919838Y-132901799D01*
X134920162Y-132529833D01*
X134778117Y-132186057D01*
X134515327Y-131922808D01*
X134171799Y-131780162D01*
X133799833Y-131779838D01*
X133456057Y-131921883D01*
X133192808Y-132184673D01*
X133068378Y-132484332D01*
X132901799Y-132415162D01*
X132529833Y-132414838D01*
X132186057Y-132556883D01*
X131922808Y-132819673D01*
X131780162Y-133163201D01*
X131779838Y-133535167D01*
X131921883Y-133878943D01*
X131955000Y-133912118D01*
X131955000Y-136591333D01*
X131672189Y-136780302D01*
X131361120Y-137245849D01*
X131251887Y-137795000D01*
X130975000Y-137795000D01*
X130975248Y-137510813D01*
X130757243Y-136983200D01*
X130353923Y-136579176D01*
X129826691Y-136360250D01*
X129255813Y-136359752D01*
X128728200Y-136577757D01*
X128324176Y-136981077D01*
X128105250Y-137508309D01*
X128104752Y-138079187D01*
X120786584Y-138079187D01*
X120843113Y-137795000D01*
X120733880Y-137245849D01*
X120422811Y-136780302D01*
X119957264Y-136469233D01*
X119408113Y-136360000D01*
X119351887Y-136360000D01*
X118802736Y-136469233D01*
X118337189Y-136780302D01*
X118026120Y-137245849D01*
X117916887Y-137795000D01*
X115814093Y-137795000D01*
X115701054Y-137226715D01*
X115379147Y-136744946D01*
X115337548Y-136717150D01*
X115385317Y-136708162D01*
X115601441Y-136569090D01*
X115746431Y-136356890D01*
X115797440Y-136105000D01*
X115797440Y-134405000D01*
X115753162Y-134169683D01*
X115716045Y-134112000D01*
X124520887Y-134112000D01*
X124630120Y-134661151D01*
X124941189Y-135126698D01*
X125406736Y-135437767D01*
X125955887Y-135547000D01*
X126012113Y-135547000D01*
X126561264Y-135437767D01*
X127026811Y-135126698D01*
X127337880Y-134661151D01*
X127447113Y-134112000D01*
X127337880Y-133562849D01*
X127026811Y-133097302D01*
X126561264Y-132786233D01*
X126012113Y-132677000D01*
X125955887Y-132677000D01*
X125406736Y-132786233D01*
X124941189Y-133097302D01*
X124630120Y-133562849D01*
X124520887Y-134112000D01*
X115716045Y-134112000D01*
X115614090Y-133953559D01*
X115401890Y-133808569D01*
X115150000Y-133757560D01*
X113450000Y-133757560D01*
X113214683Y-133801838D01*
X113105000Y-133872417D01*
X113105000Y-132900167D01*
X118444838Y-132900167D01*
X118586883Y-133243943D01*
X118849673Y-133507192D01*
X119193201Y-133649838D01*
X119565167Y-133650162D01*
X119908943Y-133508117D01*
X120172192Y-133245327D01*
X120314838Y-132901799D01*
X120314879Y-132854923D01*
X120964802Y-132205000D01*
X125730000Y-132205000D01*
X126020839Y-132147148D01*
X126267401Y-131982401D01*
X126902401Y-131347401D01*
X127067148Y-131100839D01*
X127125000Y-130810000D01*
X127125000Y-130735367D01*
X127154172Y-130723313D01*
X127546934Y-130331236D01*
X127759758Y-129818700D01*
X127760242Y-129263735D01*
X127560367Y-128780000D01*
X133847560Y-128780000D01*
X133847560Y-130300000D01*
X133891838Y-130535317D01*
X134030910Y-130751441D01*
X134243110Y-130896431D01*
X134495000Y-130947440D01*
X136015000Y-130947440D01*
X136250317Y-130903162D01*
X136466441Y-130764090D01*
X136611431Y-130551890D01*
X136648969Y-130366520D01*
X137003764Y-130721934D01*
X137516300Y-130934758D01*
X138071265Y-130935242D01*
X138584172Y-130723313D01*
X138976934Y-130331236D01*
X139064954Y-130119262D01*
X139151687Y-130329172D01*
X139543764Y-130721934D01*
X140056300Y-130934758D01*
X140611265Y-130935242D01*
X141124172Y-130723313D01*
X141516934Y-130331236D01*
X141729758Y-129818700D01*
X141730242Y-129263735D01*
X141518313Y-128750828D01*
X141126236Y-128358066D01*
X140613700Y-128145242D01*
X140058735Y-128144758D01*
X139545828Y-128356687D01*
X139153066Y-128748764D01*
X139065046Y-128960738D01*
X138978313Y-128750828D01*
X138586236Y-128358066D01*
X138073700Y-128145242D01*
X137518735Y-128144758D01*
X137005828Y-128356687D01*
X136649684Y-128712210D01*
X136618162Y-128544683D01*
X136479090Y-128328559D01*
X136266890Y-128183569D01*
X136015000Y-128132560D01*
X134495000Y-128132560D01*
X134259683Y-128176838D01*
X134043559Y-128315910D01*
X133898569Y-128528110D01*
X133847560Y-128780000D01*
X127560367Y-128780000D01*
X127548313Y-128750828D01*
X127156236Y-128358066D01*
X126643700Y-128145242D01*
X126088735Y-128144758D01*
X125575828Y-128356687D01*
X125183066Y-128748764D01*
X125095046Y-128960738D01*
X125008313Y-128750828D01*
X124616236Y-128358066D01*
X124103700Y-128145242D01*
X123548735Y-128144758D01*
X123035828Y-128356687D01*
X122679684Y-128712210D01*
X122648162Y-128544683D01*
X122509090Y-128328559D01*
X122296890Y-128183569D01*
X122045000Y-128132560D01*
X120525000Y-128132560D01*
X120289683Y-128176838D01*
X120073559Y-128315910D01*
X119928569Y-128528110D01*
X119877560Y-128780000D01*
X119877560Y-130300000D01*
X119921838Y-130535317D01*
X120060910Y-130751441D01*
X120202014Y-130847853D01*
X120112599Y-130907599D01*
X119240320Y-131779878D01*
X119194833Y-131779838D01*
X118851057Y-131921883D01*
X118587808Y-132184673D01*
X118445162Y-132528201D01*
X118444838Y-132900167D01*
X113105000Y-132900167D01*
X113105000Y-127710000D01*
X148515000Y-127710000D01*
X148515000Y-133757560D01*
M02*
